<svg xmlns="http://www.w3.org/2000/svg" xmlns:ev="http://www.w3.org/2001/xml-events" xmlns:xlink="http://www.w3.org/1999/xlink" baseProfile="full" height="1122" version="1.1" viewBox="0 0 1587 1122" width="1587">
  <defs/>
  <g id="all_paths" transform="translate(50.0, 50.0) scale(0.3)">
    <polyline fill="none" points="100,0 0,0 0,100" stroke="#aaa" stroke-width="1"/>
    <polyline fill="none" points="700,0 800,0 800,100" stroke="#aaa" stroke-width="1"/>
    <polyline fill="none" points="800,700 800,800 700,800" stroke="#aaa" stroke-width="1"/>
    <polyline fill="none" points="100,800 0,800 0,700" stroke="#aaa" stroke-width="1"/>
  </g>
  <defs/>
  <g id="all_paths" transform="translate(1279.6, 407.3333333333333) scale(0.3)">
    <polyline fill="none" points="100,0 0,0 0,100" stroke="#aaa" stroke-width="1"/>
    <polyline fill="none" points="700,0 800,0 800,100" stroke="#aaa" stroke-width="1"/>
    <polyline fill="none" points="800,700 800,800 700,800" stroke="#aaa" stroke-width="1"/>
    <polyline fill="none" points="100,800 0,800 0,700" stroke="#aaa" stroke-width="1"/>
  </g>
  <defs/>
  <g id="all_paths" transform="translate(50.0, 764.6666666666666) scale(0.3)">
    <polyline fill="none" points="100,0 0,0 0,100" stroke="#aaa" stroke-width="1"/>
    <polyline fill="none" points="700,0 800,0 800,100" stroke="#aaa" stroke-width="1"/>
    <polyline fill="none" points="800,700 800,800 700,800" stroke="#aaa" stroke-width="1"/>
    <polyline fill="none" points="100,800 0,800 0,700" stroke="#aaa" stroke-width="1"/>
  </g>
  <defs/>
  <g id="all_paths" transform="translate(357.4, 764.6666666666666) scale(0.3)">
    <polyline fill="none" points="100,0 0,0 0,100" stroke="#aaa" stroke-width="1"/>
    <polyline fill="none" points="700,0 800,0 800,100" stroke="#aaa" stroke-width="1"/>
    <polyline fill="none" points="800,700 800,800 700,800" stroke="#aaa" stroke-width="1"/>
    <polyline fill="none" points="100,800 0,800 0,700" stroke="#aaa" stroke-width="1"/>
  </g>
  <defs/>
  <g id="all_paths" transform="translate(664.8, 764.6666666666666) scale(0.3)">
    <polyline fill="none" points="100,0 0,0 0,100" stroke="#aaa" stroke-width="1"/>
    <polyline fill="none" points="700,0 800,0 800,100" stroke="#aaa" stroke-width="1"/>
    <polyline fill="none" points="800,700 800,800 700,800" stroke="#aaa" stroke-width="1"/>
    <polyline fill="none" points="100,800 0,800 0,700" stroke="#aaa" stroke-width="1"/>
  </g>
  <defs/>
  <g id="all_paths" transform="translate(972.1999999999999, 764.6666666666666) scale(0.3)">
    <polyline fill="none" points="100,0 0,0 0,100" stroke="#aaa" stroke-width="1"/>
    <polyline fill="none" points="700,0 800,0 800,100" stroke="#aaa" stroke-width="1"/>
    <polyline fill="none" points="800,700 800,800 700,800" stroke="#aaa" stroke-width="1"/>
    <polyline fill="none" points="100,800 0,800 0,700" stroke="#aaa" stroke-width="1"/>
  </g>
  <defs/>
  <g id="all_paths" transform="translate(1279.6, 764.6666666666666) scale(0.3)">
    <polyline fill="none" points="100,0 0,0 0,100" stroke="#aaa" stroke-width="1"/>
    <polyline fill="none" points="700,0 800,0 800,100" stroke="#aaa" stroke-width="1"/>
    <polyline fill="none" points="800,700 800,800 700,800" stroke="#aaa" stroke-width="1"/>
    <polyline fill="none" points="100,800 0,800 0,700" stroke="#aaa" stroke-width="1"/>
  </g>
  <defs/>
  <g id="all_paths" transform="translate(357.4, 50.0) scale(0.3)">
    <polyline fill="none" points="100,0 0,0 0,100" stroke="#aaa" stroke-width="1"/>
    <polyline fill="none" points="700,0 800,0 800,100" stroke="#aaa" stroke-width="1"/>
    <polyline fill="none" points="800,700 800,800 700,800" stroke="#aaa" stroke-width="1"/>
    <polyline fill="none" points="100,800 0,800 0,700" stroke="#aaa" stroke-width="1"/>
  </g>
  <defs/>
  <g id="all_paths" transform="translate(664.8, 50.0) scale(0.3)">
    <polyline fill="none" points="100,0 0,0 0,100" stroke="#aaa" stroke-width="1"/>
    <polyline fill="none" points="700,0 800,0 800,100" stroke="#aaa" stroke-width="1"/>
    <polyline fill="none" points="800,700 800,800 700,800" stroke="#aaa" stroke-width="1"/>
    <polyline fill="none" points="100,800 0,800 0,700" stroke="#aaa" stroke-width="1"/>
  </g>
  <defs/>
  <g id="all_paths" transform="translate(972.1999999999999, 50.0) scale(0.3)">
    <polyline fill="none" points="100,0 0,0 0,100" stroke="#aaa" stroke-width="1"/>
    <polyline fill="none" points="700,0 800,0 800,100" stroke="#aaa" stroke-width="1"/>
    <polyline fill="none" points="800,700 800,800 700,800" stroke="#aaa" stroke-width="1"/>
    <polyline fill="none" points="100,800 0,800 0,700" stroke="#aaa" stroke-width="1"/>
  </g>
  <defs/>
  <g id="all_paths" transform="translate(1279.6, 50.0) scale(0.3)">
    <polyline fill="none" points="100,0 0,0 0,100" stroke="#aaa" stroke-width="1"/>
    <polyline fill="none" points="700,0 800,0 800,100" stroke="#aaa" stroke-width="1"/>
    <polyline fill="none" points="800,700 800,800 700,800" stroke="#aaa" stroke-width="1"/>
    <polyline fill="none" points="100,800 0,800 0,700" stroke="#aaa" stroke-width="1"/>
  </g>
  <defs/>
  <g id="all_paths" transform="translate(50.0, 407.3333333333333) scale(0.3)">
    <polyline fill="none" points="100,0 0,0 0,100" stroke="#aaa" stroke-width="1"/>
    <polyline fill="none" points="700,0 800,0 800,100" stroke="#aaa" stroke-width="1"/>
    <polyline fill="none" points="800,700 800,800 700,800" stroke="#aaa" stroke-width="1"/>
    <polyline fill="none" points="100,800 0,800 0,700" stroke="#aaa" stroke-width="1"/>
  </g>
  <defs/>
  <g id="all_paths" transform="translate(357.4, 407.3333333333333) scale(0.3)">
    <polyline fill="none" points="100,0 0,0 0,100" stroke="#aaa" stroke-width="1"/>
    <polyline fill="none" points="700,0 800,0 800,100" stroke="#aaa" stroke-width="1"/>
    <polyline fill="none" points="800,700 800,800 700,800" stroke="#aaa" stroke-width="1"/>
    <polyline fill="none" points="100,800 0,800 0,700" stroke="#aaa" stroke-width="1"/>
  </g>
  <defs/>
  <g id="all_paths" transform="translate(664.8, 407.3333333333333) scale(0.3)">
    <polyline fill="none" points="100,0 0,0 0,100" stroke="#aaa" stroke-width="1"/>
    <polyline fill="none" points="700,0 800,0 800,100" stroke="#aaa" stroke-width="1"/>
    <polyline fill="none" points="800,700 800,800 700,800" stroke="#aaa" stroke-width="1"/>
    <polyline fill="none" points="100,800 0,800 0,700" stroke="#aaa" stroke-width="1"/>
  </g>
  <defs/>
  <g id="all_paths" transform="translate(972.1999999999999, 407.3333333333333) scale(0.3)">
    <polyline fill="none" points="100,0 0,0 0,100" stroke="#aaa" stroke-width="1"/>
    <polyline fill="none" points="700,0 800,0 800,100" stroke="#aaa" stroke-width="1"/>
    <polyline fill="none" points="800,700 800,800 700,800" stroke="#aaa" stroke-width="1"/>
    <polyline fill="none" points="100,800 0,800 0,700" stroke="#aaa" stroke-width="1"/>
  </g>
</svg>
