<?xml version="1.0" encoding="UTF-8"?>
<svg id="Ebene_1" xmlns="http://www.w3.org/2000/svg" width="222" height="222" viewBox="0 0 222 222">
  <polyline points="10.84 51.68 30.35 42.35 49.85 33.03 33.33 23.5 16.81 13.97 13.82 32.82 10.84 51.68" fill="none" stroke="#aaa" stroke-miterlimit="10" stroke-width=".5"/>
  <polyline points="50.18 33.04 50.16 33.09 50.12 33.13 30.43 42.54 10.75 51.95 10.69 51.96 10.64 51.94 10.61 51.9 10.6 51.84 13.62 32.81 16.63 13.79 16.65 13.74 16.69 13.71 16.74 13.7 16.78 13.71 33.46 23.33 50.13 32.95 50.17 32.98 50.18 33.04 50.18 33.04 50.18 33.04" fill="none" stroke="#aaa" stroke-miterlimit="10" stroke-width=".5"/>
  <polyline points="50.18 33.04 50.18 33.01 50.17 32.99 48.02 28.51 45.86 24.04 45.85 24.01 45.82 23.99 29.15 14.38 12.48 4.76 12.41 4.75 12.36 4.77 12.32 4.83 12.33 4.89 14.49 9.37 16.64 13.85 16.7 13.9 16.78 13.89 16.83 13.84 16.83 13.76 14.75 9.43 12.66 5.11 29.18 14.63 45.69 24.16 47.84 28.62 49.98 33.08 50.04 33.13 50.12 33.13 50.16 33.09 50.18 33.04" fill="none" stroke="#aaa" stroke-miterlimit="10" stroke-width=".5"/>
  <polyline points="12.53 4.85 12.5 4.78 12.44 4.75 12.36 4.76 12.32 4.83 9.31 23.86 6.3 42.89 6.3 42.92 6.3 42.95 8.46 47.43 10.61 51.9 10.67 51.96 10.75 51.95 10.8 51.89 10.8 51.81 8.65 47.35 6.51 42.89 9.52 23.88 12.53 4.86 12.53 4.86 12.53 4.85" fill="none" stroke="#aaa" stroke-miterlimit="10" stroke-width=".5"/>
  <polyline points="24.03 35.16 26.38 34.03 28.73 32.91 26.74 31.76 24.75 30.61 24.39 32.88 24.03 35.16" fill="none" stroke="#aaa" stroke-miterlimit="10" stroke-width=".5"/>
  <polyline points="29.06 32.92 29.04 32.97 29 33.01 26.47 34.22 23.94 35.43 23.88 35.44 23.83 35.42 23.8 35.37 23.79 35.32 24.18 32.87 24.57 30.43 24.58 30.38 24.62 30.35 24.67 30.34 24.72 30.35 26.86 31.59 29 32.83 29.04 32.86 29.06 32.92 29.06 32.92 29.06 32.92" fill="none" stroke="#aaa" stroke-miterlimit="10" stroke-width=".5"/>
</svg>