<?xml version="1.0" encoding="utf-8" ?>
<svg baseProfile="full" height="222" version="1.1" width="222" xmlns="http://www.w3.org/2000/svg" xmlns:ev="http://www.w3.org/2001/xml-events" xmlns:xlink="http://www.w3.org/1999/xlink"><defs />
  <polyline fill="none" points ="42.82 192.65 40.66 187.51 36.21 184.27 32.12 183.9 28.09 184.75 26.44 185.35 25.2 185.77 29.78 182.44 34.28 179.01 30.73 185.71 27.41 192.54 26.88 194.69 28 196.46 31.02 197.98 33.84 199.85 38.91 205.33 42.74 211.76 46.3 205.64 50.97 200.33 53.76 198.33 56.81 196.78 58.28 195.71 58.46 193.94 56.48 189.19 54.09 184.62" stroke="#aaa" stroke-width="1"/>
  <polyline fill="none" points ="42.79 188.61 40.8 183.74 36.67 180.62 32.89 180.25 29.15 181.04 27.63 181.59 26.48 181.95 30.71 178.74 34.88 175.45 31.61 181.78 28.57 188.21 28.08 190.21 29.11 191.87 31.9 193.28 34.5 195.04 39.18 200.23 42.71 206.3 45.99 200.51 50.3 195.48 52.87 193.61 55.7 192.16 57.05 191.15 57.2 189.49 55.35 185 53.13 180.65" stroke="#aaa" stroke-width="1"/>
  <polyline fill="none" points ="42.77 184.45 40.92 179.86 37.06 176.88 33.54 176.52 30.06 177.25 28.64 177.77 27.57 178.08 31.5 175.02 35.39 171.9 32.36 177.86 29.54 183.92 29.08 185.79 30.05 187.35 32.64 188.67 35.05 190.32 39.41 195.22 42.69 200.94 45.73 195.49 49.75 190.73 52.13 188.97 54.77 187.62 56.03 186.67 56.15 185.11 54.42 180.85 52.35 176.74" stroke="#aaa" stroke-width="1"/>
  <polyline fill="none" points ="42.76 180.08 41 175.75 37.33 172.96 33.97 172.63 30.66 173.33 29.3 173.82 28.29 174.14 32.03 171.28 35.73 168.34 32.84 173.98 30.14 179.7 29.71 181.48 30.62 182.96 33.1 184.22 35.4 185.78 39.56 190.4 42.68 195.81 45.59 190.66 49.42 186.18 51.69 184.51 54.2 183.22 55.4 182.32 55.53 180.85 53.89 176.83 51.91 172.96" stroke="#aaa" stroke-width="1"/>
  <polyline fill="none" points ="42.8 175.49 41.04 171.41 37.47 168.87 34.19 168.59 30.95 169.27 29.63 169.76 28.63 170.12 32.3 167.5 35.91 164.79 33.05 170.13 30.38 175.57 29.94 177.29 30.85 178.71 33.27 179.92 35.55 181.42 39.62 185.77 42.71 190.89 45.58 186.02 49.32 181.81 51.57 180.21 54.03 178.97 55.21 178.11 55.36 176.69 53.76 172.91 51.83 169.27" stroke="#aaa" stroke-width="1"/>
  <polyline fill="none" points ="42.6 170.77 40.81 166.94 37.31 164.66 34.03 164.45 30.81 165.14 29.5 165.62 28.5 166.05 32.16 163.71 35.75 161.24 32.84 166.31 30.14 171.48 29.7 173.16 30.6 174.54 33.03 175.73 35.33 177.16 39.39 181.25 42.52 186.11 45.41 181.5 49.14 177.55 51.41 176.01 53.87 174.81 55.05 173.99 55.23 172.6 53.66 169.04 51.74 165.65" stroke="#aaa" stroke-width="1"/>
  <polyline fill="none" points ="42.59 166 40.74 162.42 37.28 160.42 33.99 160.27 30.77 160.98 29.45 161.46 28.45 161.97 32.13 159.91 35.72 157.68 32.75 162.48 29.99 167.4 29.53 169.05 30.44 170.39 32.89 171.56 35.23 172.95 39.31 176.76 42.51 181.37 45.44 177.02 49.17 173.33 51.49 171.84 53.96 170.67 55.15 169.88 55.37 168.52 53.81 165.18 51.89 162.01" stroke="#aaa" stroke-width="1"/>
  <polyline fill="none" points ="42.57 161.24 40.66 157.92 37.26 156.19 33.96 156.1 30.74 156.82 29.41 157.31 28.42 157.89 32.11 156.11 35.7 154.13 32.66 158.66 29.84 163.33 29.37 164.93 30.29 166.24 32.77 167.39 35.14 168.72 39.23 172.28 42.49 176.62 45.47 172.53 49.19 169.1 51.56 167.68 54.05 166.53 55.24 165.78 55.51 164.44 53.96 161.31 52.04 158.36" stroke="#aaa" stroke-width="1"/>
  <polyline fill="none" points ="42.81 156.5 40.83 153.44 37.5 151.97 34.21 151.95 30.99 152.68 29.65 153.17 28.68 153.81 32.37 152.33 35.95 150.58 32.84 154.83 29.98 159.24 29.51 160.82 30.45 162.08 32.94 163.21 35.36 164.48 39.43 167.78 42.73 171.85 45.73 168.02 49.43 164.86 51.82 163.49 54.33 162.38 55.53 161.66 55.85 160.35 54.33 157.41 52.42 154.69" stroke="#aaa" stroke-width="1"/>
  <polyline fill="none" points ="42.69 151.74 40.63 148.95 37.37 147.74 34.08 147.78 30.87 148.52 29.51 149.03 28.55 149.73 32.24 148.53 35.82 147.02 32.65 151 29.73 155.17 29.25 156.71 30.21 157.93 32.73 159.03 35.19 160.26 39.25 163.29 42.6 167.11 45.65 163.54 49.32 160.63 51.76 159.32 54.29 158.25 55.5 157.54 55.88 156.27 54.38 153.51 52.47 150.99" stroke="#aaa" stroke-width="1"/>
  <polyline fill="none" points ="42.85 146.88 40.66 144.37 37.44 143.42 33.97 143.55 30.57 144.3 28.95 144.85 27.48 145.61 30.46 144.67 33.38 143.47 30.74 147.17 28.53 151.12 28.5 152.78 29.79 153.84 32.51 154.91 35.19 156.11 39.31 158.89 42.78 162.45 45.9 159.14 49.59 156.49 52.19 155.22 54.88 154.18 56.3 153.51 57.15 152.26 56.33 149.72 54.9 147.44" stroke="#aaa" stroke-width="1"/>
  <polyline fill="none" points ="42.56 141.84 40.14 139.64 36.88 138.96 33.02 139.19 29.23 139.97 26.88 140.64 24.56 141.43 26.04 140.73 27.81 139.91 26.27 143.42 25.56 147.15 26.53 148.9 28.34 149.86 31.46 150.91 34.53 152.12 38.8 154.65 42.49 157.99 45.76 154.93 49.54 152.52 52.44 151.27 55.42 150.26 57.32 149.55 58.91 148.36 59.35 146.17 58.79 143.97" stroke="#aaa" stroke-width="1"/>
  <polyline fill="none" points ="42.53 136.56 39.79 134.72 36.46 134.3 32.21 134.65 28.03 135.49 25.14 136.27 22.29 137.17 22.83 136.93 24.26 136.36 23.21 139.75 23.26 143.25 24.81 145.04 27 146.03 30.48 147.11 33.92 148.32 38.44 150.64 42.46 153.76 46 150.93 49.96 148.73 53.16 147.49 56.43 146.48 58.69 145.72 60.74 144.53 61.78 142.61 61.73 140.4" stroke="#aaa" stroke-width="1"/>
  <polyline fill="none" points ="42.58 131.12 39.48 129.69 36.01 129.51 31.34 130 26.72 130.92 23.33 131.79 20 132.85 19.74 133.15 21.12 132.81 20.37 136.12 20.94 139.42 22.96 141.25 25.52 142.3 29.39 143.43 33.25 144.65 38.09 146.8 42.53 149.7 46.41 147.07 50.64 145.06 54.2 143.84 57.8 142.8 60.41 141.97 62.84 140.74 64.26 138.97 64.6 136.71" stroke="#aaa" stroke-width="1"/>
  <polyline fill="none" points ="42.62 125.64 39.17 124.66 35.53 124.7 30.43 125.32 25.39 126.32 21.55 127.29 17.79 128.51 16.83 129.28 18.33 129.25 17.78 132.5 18.72 135.59 21.14 137.48 24.02 138.58 28.29 139.77 32.54 141.01 37.72 142.99 42.57 145.66 46.85 143.24 51.41 141.39 55.33 140.17 59.3 139.1 62.23 138.2 64.99 136.88 66.65 135.14 67.23 132.8" stroke="#aaa" stroke-width="1"/>
  <polyline fill="none" points ="42.58 120.27 38.86 119.75 35.08 119.96 29.67 120.72 24.3 121.79 20.15 122.84 16.09 124.22 14.76 125.17 16.26 125.7 15.8 128.83 16.96 131.73 19.7 133.65 22.87 134.81 27.46 136.05 32.05 137.28 37.42 139.1 42.55 141.53 47.13 139.3 51.93 137.6 56.2 136.4 60.49 135.28 63.7 134.31 66.73 132.88 68.52 131.1 69.17 128.67" stroke="#aaa" stroke-width="1"/>
  <polyline fill="none" points ="42.55 115.13 38.68 115.04 34.81 115.42 29.23 116.28 23.7 117.4 19.38 118.5 15.18 120 13.78 121.18 15.26 122.15 14.76 125.1 15.99 127.79 18.93 129.71 22.26 130.89 27.04 132.16 31.85 133.37 37.28 135.01 42.53 137.16 47.32 135.16 52.28 133.61 56.81 132.44 61.34 131.29 64.72 130.25 67.9 128.72 69.67 126.88 70.16 124.4" stroke="#aaa" stroke-width="1"/>
  <polyline fill="none" points ="42.53 110.34 38.65 110.64 34.78 111.16 29.19 112.09 23.64 113.22 19.29 114.34 15.09 115.91 13.65 117.3 15.11 118.59 14.62 121.31 15.91 123.73 18.97 125.59 22.36 126.76 27.19 128.01 32.05 129.18 37.35 130.62 42.53 132.45 47.38 130.7 52.35 129.32 57.02 128.2 61.67 127.04 65.12 125.95 68.34 124.35 70 122.48 70.22 120.01" stroke="#aaa" stroke-width="1"/>
  <polyline fill="none" points ="42.54 105.94 37.6 106.51 32.66 107.22 27.37 108.13 22.12 109.28 18.51 110.34 15.14 111.95 14.4 113.71 15.96 115.04 15.52 117.45 16.83 119.52 19.9 121.26 23.26 122.39 27.96 123.58 32.69 124.66 37.65 125.87 42.54 127.34 47.31 125.88 52.15 124.7 56.83 123.64 61.48 122.48 64.85 121.37 67.97 119.71 69.37 117.78 69.09 115.43" stroke="#aaa" stroke-width="1"/>
  <polyline fill="none" points ="42.52 101.85 37.52 102.7 32.53 103.53 27.59 104.44 22.71 105.54 19.49 106.53 16.55 108.11 16.06 110 17.56 111.48 17.21 113.54 18.5 115.21 21.51 116.78 24.75 117.83 29.18 118.93 33.64 119.88 38.1 120.84 42.52 121.92 46.9 120.83 51.32 119.88 55.8 118.93 60.23 117.83 63.46 116.78 66.47 115.21 67.71 113.52 67.25 111.48 67.35 111.42 67.45 111.35 67.55 111.29 67.64 111.22 67.73 111.16 67.81 111.09 67.9 111.03 67.98 110.97" stroke="#aaa" stroke-width="1"/>
  <polyline fill="none" points ="42.43 97.89 37.62 98.99 32.77 99.95 28.25 100.83 23.77 101.87 20.9 102.78 18.34 104.31 18.02 106.3 19.42 107.93 19.2 109.6 20.46 110.85 23.4 112.22 26.52 113.19 30.63 114.18 34.78 115.01 38.6 115.7 42.42 116.37 46.22 115.7 50.01 115.01 54.16 114.18 58.28 113.19 61.39 112.23 64.32 110.85 65.54 109.58 65.21 107.93 65.43 107.75 65.65 107.56 65.83 107.38 66.02 107.2 66.17 107.03 66.32 106.86 66.45 106.7 66.56 106.53" stroke="#aaa" stroke-width="1"/>
  <polyline fill="none" points ="42.38 93.8 37.81 95.18 33.16 96.26 29.02 97.14 24.9 98.12 22.36 98.98 20.17 100.47 20.13 102.61 21.55 104.37 21.38 105.66 22.58 106.53 25.55 107.73 28.64 108.63 32.48 109.51 36.35 110.24 39.36 110.68 42.38 110.95 45.37 110.68 48.36 110.24 52.24 109.51 56.08 108.63 59.16 107.74 62.11 106.53 63.29 105.63 62.99 104.37 63.32 104.06 63.64 103.73 63.9 103.44 64.15 103.14 64.34 102.86 64.51 102.58 64.64 102.33 64.74 102.06" stroke="#aaa" stroke-width="1"/>
  <polyline fill="none" points ="42.38 89.41 38.03 91.08 33.55 92.33 29.65 93.23 25.76 94.19 23.43 95.01 21.52 96.51 21.79 98.88 23.35 100.82 22.87 101.65 23.91 102.33 26.78 103.42 29.74 104.25 33.42 105.09 37.13 105.72 39.77 105.98 42.39 105.84 44.99 105.98 47.59 105.72 51.31 105.09 54.99 104.25 57.94 103.42 60.78 102.33 61.81 101.62 61.19 100.82 61.64 100.37 62.06 99.91 62.39 99.5 62.7 99.08 62.92 98.72 63.12 98.34 63.24 98.01 63.33 97.67" stroke="#aaa" stroke-width="1"/>
  <polyline fill="none" points ="42.38 84.61 38.09 86.62 33.57 88.06 29.72 89.03 25.88 90.01 23.63 90.84 21.9 92.42 22.45 95.07 24.2 97.27 23.18 97.59 24.08 98.26 26.84 99.31 29.68 100.13 33.36 100.96 37.09 101.52 39.79 101.65 42.41 101.13 44.99 101.65 47.66 101.52 51.39 100.96 55.07 100.13 57.9 99.31 60.64 98.26 61.47 97.53 60.36 97.27 60.9 96.7 61.41 96.12 61.81 95.62 62.17 95.1 62.44 94.66 62.66 94.2 62.81 93.82 62.9 93.42" stroke="#aaa" stroke-width="1"/>
  <polyline fill="none" points ="42.39 79.47 37.95 81.84 33.21 83.52 29.24 84.58 25.28 85.62 23 86.5 21.36 88.21 22.2 91.21 24.19 93.71 22.98 93.66 23.45 94.32 26.22 95.38 29.08 96.21 32.93 97.07 36.83 97.61 39.71 97.62 42.42 96.76 45.09 97.63 47.94 97.61 51.84 97.07 55.69 96.21 58.53 95.38 61.29 94.32 61.63 93.66 60.39 93.71 61.01 93.04 61.61 92.35 62.07 91.77 62.5 91.16 62.81 90.65 63.08 90.12 63.26 89.68 63.39 89.22" stroke="#aaa" stroke-width="1"/>
  <polyline fill="none" points ="42.4 74.11 37.69 76.85 32.6 78.79 28.4 79.97 24.21 81.09 21.84 82.04 20.22 83.91 21.34 87.3 23.62 90.16 22.27 89.95 22.3 90.46 25.17 91.56 28.13 92.43 32.24 93.35 36.42 93.88 39.57 93.79 42.44 92.62 45.26 93.8 48.37 93.88 52.55 93.35 56.65 92.43 59.6 91.56 62.46 90.46 62.38 89.95 60.99 90.16 61.69 89.39 62.37 88.6 62.9 87.93 63.39 87.24 63.76 86.66 64.09 86.06 64.31 85.56 64.47 85.05" stroke="#aaa" stroke-width="1"/>
  <polyline fill="none" points ="42.41 68.64 37.37 71.76 31.87 73.98 27.39 75.28 22.91 76.5 20.41 77.53 18.79 79.58 20.19 83.38 22.78 86.61 21.25 86.27 20.9 86.63 23.92 87.79 27.02 88.71 31.45 89.7 35.94 90.23 39.39 90.05 42.45 88.58 45.46 90.06 48.87 90.23 53.37 89.7 57.78 88.71 60.88 87.8 63.88 86.63 63.42 86.28 61.85 86.61 62.63 85.74 63.39 84.85 63.99 84.1 64.56 83.32 64.99 82.67 65.37 82 65.63 81.45 65.84 80.87" stroke="#aaa" stroke-width="1"/>
  <polyline fill="none" points ="42.42 63.2 37.07 66.71 31.18 69.19 26.43 70.61 21.67 71.93 19.04 73.03 17.45 75.26 19.13 79.47 22.04 83.05 20.31 82.6 19.58 82.8 22.72 84.01 25.96 84.98 30.68 86.04 35.49 86.56 39.23 86.28 42.46 84.51 45.65 86.29 49.35 86.56 54.16 86.03 58.87 84.98 62.1 84.02 65.23 82.8 64.39 82.6 62.61 83.05 63.48 82.09 64.32 81.12 64.99 80.29 65.62 79.43 66.1 78.72 66.55 77.99 66.86 77.38 67.11 76.74" stroke="#aaa" stroke-width="1"/>
  <polyline fill="none" points ="42.44 57.92 36.86 61.79 30.65 64.54 25.71 66.06 20.76 67.45 18.07 68.63 16.55 70.99 18.55 75.57 21.76 79.5 19.81 78.91 18.65 78.91 21.85 80.15 25.14 81.15 30.09 82.25 35.13 82.76 39.13 82.36 42.48 80.28 45.78 82.36 49.74 82.76 54.78 82.25 59.72 81.15 63.01 80.16 66.19 78.91 64.93 78.91 62.92 79.5 63.86 78.46 64.77 77.41 65.5 76.51 66.2 75.59 66.74 74.82 67.24 74.03 67.61 73.37 67.92 72.69" stroke="#aaa" stroke-width="1"/>
  <polyline fill="none" points ="42.4 52.92 36.75 57.12 30.37 60.11 25.39 61.7 20.38 63.15 17.7 64.36 16.37 66.83 18.73 71.72 22.25 75.95 20.04 75.19 18.34 74.91 21.48 76.16 24.71 77.15 29.75 78.27 34.9 78.73 39.08 78.18 42.45 75.78 45.77 78.18 49.91 78.73 55.05 78.27 60.09 77.15 63.31 76.16 66.43 74.91 64.65 75.19 62.38 75.95 63.37 74.85 64.33 73.75 65.12 72.8 65.88 71.83 66.48 71.02 67.04 70.18 67.46 69.49 67.83 68.77" stroke="#aaa" stroke-width="1"/>
  <polyline fill="none" points ="42.5 48.3 37.03 52.78 30.72 55.99 25.9 57.62 21.03 59.08 18.49 60.31 17.47 62.8 20.27 67.91 24.1 72.39 21.53 71.41 19.17 70.78 22.05 71.97 25.03 72.9 29.98 74.01 35.04 74.39 39.3 73.62 42.55 70.88 45.74 73.63 49.96 74.39 55.01 74.01 59.96 72.9 62.93 71.97 65.8 70.78 63.36 71.41 60.72 72.39 61.75 71.28 62.75 70.15 63.58 69.18 64.39 68.2 65.05 67.36 65.67 66.51 66.15 65.79 66.6 65.06" stroke="#aaa" stroke-width="1"/>
  <polyline fill="none" points ="42.55 44.09 37.54 48.8 31.57 52.21 27.14 53.84 22.64 55.26 20.39 56.5 19.93 58.91 23.37 64.16 27.62 68.84 24.44 67.53 21.21 66.51 23.56 67.6 26.05 68.42 30.68 69.46 35.42 69.72 39.63 68.67 42.61 65.58 45.52 68.67 49.7 69.72 54.43 69.46 59.06 68.42 61.54 67.6 63.88 66.51 60.58 67.53 57.32 68.84 58.37 67.75 59.4 66.65 60.28 65.7 61.14 64.74 61.85 63.91 62.55 63.07 63.11 62.36 63.65 61.63" stroke="#aaa" stroke-width="1"/>
  <polyline fill="none" points ="42.44 40.18 38.07 45.04 32.64 48.66 28.86 50.24 25.02 51.62 23.36 53.03 23.98 55.13 28.72 60.41 33.91 65.28 29.35 63.49 24.66 62.14 25.86 63.09 27.6 63.75 31.67 64.71 35.84 64.81 39.91 63.39 42.5 59.99 45.03 63.4 49.06 64.81 53.23 64.71 57.29 63.75 59.04 63.09 60.22 62.14 55.47 63.49 50.84 65.28 51.95 64.27 53.06 63.26 54.02 62.37 54.98 61.47 55.81 60.68 56.64 59.88 57.34 59.19 58.03 58.49" stroke="#aaa" stroke-width="1"/>
  <polyline fill="none" points ="42.2 36.33 38.43 41.33 33.5 45.17 30.14 46.74 26.69 48.02 25.17 49.37 25.7 51.37 29.86 56.71 34.44 61.73 30.17 59.59 25.78 57.74 26.91 58.46 28.48 59.04 32.26 59.89 36.12 59.84 40.03 58.02 42.27 54.33 44.44 58.02 48.31 59.84 52.17 59.89 55.94 59.04 57.51 58.46 58.62 57.74 54.16 59.58 49.83 61.73 50.74 60.76 51.65 59.8 52.45 58.93 53.24 58.07 53.94 57.3 54.63 56.53 55.23 55.86 55.82 55.18" stroke="#aaa" stroke-width="1"/>
  <polyline fill="none" points ="42.44 32.31 39.15 37.46 34.63 41.54 31.63 43.1 28.49 44.31 27.09 45.63 27.54 47.55 31.24 53 35.32 58.18 31.39 55.7 27.37 53.4 28.43 53.92 29.85 54.44 33.32 55.19 36.86 55.01 40.58 52.78 42.51 48.84 44.37 52.77 48.04 55.01 51.57 55.19 55.04 54.44 56.46 53.92 57.5 53.4 53.41 55.7 49.42 58.18 50.18 57.24 50.94 56.31 51.61 55.47 52.28 54.63 52.87 53.88 53.46 53.13 53.97 52.46 54.48 51.79" stroke="#aaa" stroke-width="1"/>
  <polyline fill="none" points ="42.37 27.93 39.36 33.27 35.07 37.62 32.28 39.2 29.3 40.39 27.97 41.71 28.37 43.61 31.8 49.23 35.59 54.62 31.85 51.85 28.03 49.19 29.04 49.56 30.39 50.05 33.7 50.76 37.07 50.48 40.69 47.88 42.45 43.71 44.13 47.87 47.71 50.48 51.07 50.76 54.37 50.05 55.72 49.56 56.71 49.19 52.83 51.85 49.02 54.62 49.68 53.7 50.35 52.78 50.94 51.95 51.54 51.12 52.06 50.38 52.59 49.63 53.05 48.96 53.51 48.29" stroke="#aaa" stroke-width="1"/>
  <polyline fill="none" points ="42.38 23.14 39.42 28.74 35.13 33.36 32.36 35 29.39 36.21 28.05 37.58 28.45 39.51 31.83 45.4 35.59 51.07 31.82 48.06 28.01 45.12 29.01 45.43 30.37 45.92 33.7 46.62 37.06 46.28 40.74 43.41 42.46 39 44.11 43.4 47.73 46.28 51.09 46.62 54.4 45.92 55.76 45.43 56.75 45.12 52.86 48.06 49.04 51.07 49.68 50.13 50.31 49.2 50.88 48.35 51.45 47.5 51.96 46.74 52.47 45.98 52.92 45.29 53.37 44.6" stroke="#aaa" stroke-width="1"/>
  <polyline fill="none" points ="42.38 18 39.3 23.92 34.81 28.82 31.92 30.54 28.81 31.82 27.4 33.26 27.82 35.3 31.36 41.52 35.28 47.51 31.33 44.31 27.34 41.18 28.39 41.48 29.81 42.01 33.29 42.73 36.82 42.36 40.67 39.3 42.46 34.63 44.18 39.29 47.98 42.36 51.49 42.73 54.96 42.01 56.39 41.48 57.42 41.18 53.36 44.31 49.35 47.51 50.01 46.53 50.67 45.55 51.26 44.66 51.85 43.77 52.38 42.97 52.91 42.17 53.38 41.45 53.84 40.72" stroke="#aaa" stroke-width="1"/>
  <polyline fill="none" points ="42.38 12.64 39.06 18.92 34.24 24.09 31.13 25.93 27.79 27.3 26.28 28.83 26.73 31 30.54 37.6 34.76 43.96 30.54 40.6 26.25 37.32 27.37 37.67 28.9 38.23 32.63 39.01 36.41 38.63 40.53 35.42 42.46 30.49 44.31 35.42 48.38 38.63 52.15 39.01 55.87 38.23 57.4 37.67 58.51 37.32 54.15 40.6 49.86 43.96 50.57 42.92 51.28 41.87 51.92 40.93 52.56 39.98 53.13 39.13 53.7 38.27 54.21 37.51 54.71 36.74" stroke="#aaa" stroke-width="1"/>
  <polyline fill="none" points ="42.38 7.16 38.76 13.82 33.55 19.27 30.17 21.23 26.55 22.7 24.93 24.34 25.42 26.67 29.56 33.67 34.15 40.41 29.58 36.9 24.94 33.49 26.16 33.91 27.81 34.51 31.84 35.37 35.92 34.99 40.35 31.67 42.46 26.45 44.48 31.66 48.87 34.99 52.94 35.37 56.96 34.51 58.61 33.91 59.81 33.49 55.1 36.9 50.47 40.41 51.25 39.29 52.03 38.17 52.74 37.16 53.44 36.15 54.06 35.23 54.69 34.32 55.24 33.5 55.78 32.68" stroke="#aaa" stroke-width="1"/>
</svg>