<?xml version="1.0" encoding="UTF-8"?>
<svg id="Ebene_1" xmlns="http://www.w3.org/2000/svg" width="222" height="222" viewBox="0 0 222 222">
  <polyline points="105.18 174.01 88.66 183.54 72.13 193.07 91.64 202.39 111.15 211.72 108.16 192.86 105.18 174.01" fill="none" stroke="#aaa" stroke-miterlimit="10" stroke-width=".5"/>
  <polyline points="71.81 193.08 71.82 193.02 71.86 192.99 88.53 183.37 105.2 173.75 105.25 173.74 105.3 173.75 105.34 173.78 105.36 173.82 108.37 192.85 111.39 211.88 111.38 211.94 111.35 211.98 111.29 212 111.24 211.99 91.55 202.58 71.87 193.17 71.83 193.13 71.81 193.08 71.81 193.08 71.81 193.08" fill="none" stroke="#aaa" stroke-miterlimit="10" stroke-width=".5"/>
  <polyline points="71.81 193.08 71.81 193.05 71.82 193.03 73.97 188.55 76.13 184.08 76.14 184.05 76.17 184.03 92.84 174.42 109.51 164.8 109.57 164.78 109.63 164.81 109.66 164.87 109.66 164.93 107.5 169.41 105.35 173.89 105.29 173.94 105.21 173.93 105.16 173.87 105.16 173.8 107.24 169.47 109.32 165.14 92.81 174.67 76.3 184.2 74.15 188.66 72.01 193.12 71.95 193.17 71.87 193.17 71.82 193.13 71.81 193.08" fill="none" stroke="#aaa" stroke-miterlimit="10" stroke-width=".5"/>
  <polyline points="109.46 164.89 109.48 164.82 109.55 164.78 109.62 164.8 109.67 164.87 112.68 183.9 115.69 202.93 115.69 202.96 115.68 202.99 113.53 207.46 111.38 211.94 111.32 211.99 111.24 211.99 111.19 211.93 111.19 211.85 113.34 207.39 115.48 202.93 112.47 183.92 109.46 164.9 109.46 164.9 109.46 164.89" fill="none" stroke="#aaa" stroke-miterlimit="10" stroke-width=".5"/>
  <polyline points="97.24 190.65 95.25 191.8 93.26 192.95 95.61 194.07 97.96 195.2 97.6 192.92 97.24 190.65" fill="none" stroke="#aaa" stroke-miterlimit="10" stroke-width=".5"/>
  <polyline points="92.93 192.96 92.95 192.9 92.98 192.87 95.13 191.63 97.27 190.39 97.32 190.38 97.37 190.39 97.4 190.42 97.42 190.47 97.81 192.91 98.2 195.36 98.19 195.41 98.16 195.46 98.11 195.48 98.05 195.47 95.52 194.26 92.99 193.05 92.95 193.01 92.93 192.96 92.93 192.96 92.93 192.96" fill="none" stroke="#aaa" stroke-miterlimit="10" stroke-width=".5"/>
</svg>