<?xml version="1.0" encoding="UTF-8"?>
<svg id="Ebene_1" xmlns="http://www.w3.org/2000/svg" width="222" height="222" viewBox="0 0 222 222">
  <polyline points="201.29 .02 209.23 4.29 216.59 9.46" fill="none" stroke="#aaa" stroke-miterlimit="10" stroke-width=".5"/>
  <polyline points="193.92 .01 202.15 4.47 209.79 9.87 214.81 14.5 219.21 19.73" fill="none" stroke="#aaa" stroke-miterlimit="10" stroke-width=".5"/>
  <polyline points="186.93 0 195.43 4.58 203.32 10.13 208.51 14.89 213.05 20.27 215.96 24.66 218.47 29.28" fill="none" stroke="#aaa" stroke-miterlimit="10" stroke-width=".5"/>
  <polyline points="180.25 0 189.01 4.64 197.14 10.27 202.48 15.1 207.15 20.56 210.13 25.02 212.7 29.71 214.4 33.18 216.23 36.57" fill="none" stroke="#aaa" stroke-miterlimit="10" stroke-width=".5"/>
  <polyline points="173.79 0 182.78 4.65 191.16 10.33 196.62 15.17 201.42 20.68 204.46 25.16 207.08 29.89 208.81 33.38 210.65 36.79 212.32 38.91 214.65 40.23" fill="none" stroke="#aaa" stroke-miterlimit="10" stroke-width=".5"/>
  <polyline points="167.47 0 176.69 4.64 185.3 10.33 190.89 15.17 195.8 20.69 198.9 25.17 201.56 29.91 203.3 33.4 205.15 36.82 206.84 38.95 209.18 40.27 212.76 40.21 216.21 39.09" fill="none" stroke="#aaa" stroke-miterlimit="10" stroke-width=".5"/>
  <polyline points="161.22 0 170.66 4.62 179.5 10.3 185.22 15.12 190.24 20.64 193.39 25.1 196.09 29.84 197.85 33.33 199.7 36.76 201.39 38.89 203.74 40.21 207.38 40.16 210.87 39.04" fill="none" stroke="#aaa" stroke-miterlimit="10" stroke-width=".5"/>
  <polyline points="155 0 164.67 4.59 173.74 10.26 179.57 15.05 184.72 20.56 187.91 25 190.65 29.74 192.42 33.22 194.28 36.64 195.97 38.77 198.33 40.09 202 40.05 205.54 38.94 212.21 35.72 218.63 32.02" fill="none" stroke="#aaa" stroke-miterlimit="10" stroke-width=".5"/>
  <polyline points="148.82 0 158.71 4.56 168.01 10.21 173.96 14.96 179.21 20.46 182.46 24.88 185.23 29.61 187.01 33.07 188.87 36.48 190.57 38.61 192.93 39.93 196.64 39.9 200.22 38.8 207 35.6 213.54 31.93" fill="none" stroke="#aaa" stroke-miterlimit="10" stroke-width=".5"/>
  <polyline points="217.23 36.82 216.59 37.9 216.14 39.04 216.82 38.42 217.39 37.65" fill="none" stroke="#aaa" stroke-miterlimit="10" stroke-width=".5"/>
  <polyline points="142.68 0 152.79 4.52 162.32 10.14 168.38 14.85 173.75 20.33 177.04 24.72 179.85 29.42 181.63 32.88 183.49 36.27 185.19 38.4 187.55 39.71 191.3 39.68 194.92 38.6 201.81 35.43 208.46 31.78" fill="none" stroke="#aaa" stroke-miterlimit="10" stroke-width=".5"/>
  <polyline points="216.66 30.13 214.2 33.42 211.85 36.78 211.21 37.79 210.72 38.85 211.42 38.12 212.03 37.27 213.33 35.14 214.5 32.91 215.83 29.85 216.88 26.68 217.65 23.12 217.92 19.48 217.53 15.76 216.35 12.21" fill="none" stroke="#aaa" stroke-miterlimit="10" stroke-width=".5"/>
  <polyline points="136.64 0 146.96 4.47 156.72 10.04 162.89 14.69 168.36 20.13 171.69 24.47 174.53 29.15 176.31 32.57 178.17 35.94 179.87 38.06 182.22 39.36 186 39.34 189.65 38.28 196.64 35.15 203.4 31.54" fill="none" stroke="#aaa" stroke-miterlimit="10" stroke-width=".5"/>
  <polyline points="211.48 29.97 208.9 33.21 206.42 36.53 205.77 37.48 205.23 38.46 205.94 37.61 206.57 36.69 207.9 34.46 209.08 32.15 210.39 29.02 211.4 25.77 212.07 22.16 212.17 18.48 211.54 14.73 210.05 11.22" fill="none" stroke="#aaa" stroke-miterlimit="10" stroke-width=".5"/>
  <polyline points="130.77 0 141.29 4.39 151.26 9.88 157.53 14.45 163.11 19.82 166.48 24.08 169.33 28.7 171.11 32.07 172.95 35.39 174.63 37.49 176.98 38.78 180.77 38.77 184.44 37.73 191.51 34.66 198.37 31.13" fill="none" stroke="#aaa" stroke-miterlimit="10" stroke-width=".5"/>
  <polyline points="125.14 0 135.85 4.26 146.04 9.63 152.39 14.07 158.07 19.32 161.45 23.47 164.31 27.98 166.08 31.28 167.88 34.53 169.54 36.59 171.85 37.85 175.64 37.85 179.33 36.85 186.46 33.87 193.39 30.44 205.32 24.06 217.15 17.51 211.65 23.49 206.26 29.55 203.54 32.73 200.9 35.97 200.23 36.85 199.64 37.74 200.34 36.8 200.99 35.81 202.32 33.51 203.5 31.13 204.77 27.95 205.72 24.66 206.26 21.03 206.18 17.36 205.25 13.6 203.42 10.19" fill="none" stroke="#aaa" stroke-miterlimit="10" stroke-width=".5"/>
  <polyline points="119.86 .02 130.73 4.09 141.12 9.26 147.53 13.5 153.3 18.57 156.68 22.55 159.54 26.91 161.27 30.08 163.02 33.22 164.64 35.22 166.9 36.44 170.66 36.46 174.33 35.51 181.49 32.66 188.48 29.38 200.53 23.27 212.51 16.99 206.69 22.85 200.96 28.79 198.09 31.88 195.28 35 194.57 35.82 193.89 36.59 194.56 35.56 195.22 34.52 196.54 32.18 197.7 29.76 198.92 26.59 199.77 23.29 200.16 19.69 199.85 16.08 198.58 12.35 196.38 9.09" fill="none" stroke="#aaa" stroke-miterlimit="10" stroke-width=".5"/>
  <polyline points="114.96 .03 125.98 3.85 136.55 8.74 143 12.73 148.84 17.55 152.2 21.29 155.04 25.44 156.72 28.44 158.4 31.42 159.96 33.33 162.13 34.48 165.83 34.52 169.46 33.64 176.63 30.97 183.63 27.89 195.79 22.14 207.87 16.24 201.69 21.9 195.6 27.63 192.55 30.58 189.53 33.54 188.75 34.3 187.97 34.94 188.59 33.85 189.23 32.78 190.51 30.45 191.64 28.03 192.77 24.91 193.51 21.67 193.71 18.15 193.15 14.66 191.49 11.02 188.88 7.98" fill="none" stroke="#aaa" stroke-miterlimit="10" stroke-width=".5"/>
  <polyline points="110.39 .04 121.53 3.57 132.28 8.12 138.75 11.78 144.65 16.28 147.98 19.73 150.78 23.61 152.39 26.4 153.98 29.18 155.46 30.99 157.52 32.06 161.15 32.12 164.72 31.32 171.85 28.87 178.85 26.04 191.07 20.73 203.23 15.28 196.67 20.67 190.18 26.11 186.92 28.88 183.67 31.65 182.8 32.36 181.89 32.85 182.43 31.73 183.05 30.65 184.27 28.38 185.34 26.02 186.37 23.01 186.97 19.88 186.96 16.48 186.13 13.19 184.02 9.69 181.02 6.9" fill="none" stroke="#aaa" stroke-miterlimit="10" stroke-width=".5"/>
  <polyline points="106.02 .06 117.27 3.25 128.2 7.42 134.66 10.74 140.63 14.88 143.9 18.01 146.67 21.59 148.2 24.14 149.68 26.7 151.08 28.38 153.02 29.37 156.55 29.44 160.04 28.74 167.13 26.53 174.11 23.97 186.37 19.15 198.59 14.21 191.64 19.25 184.72 24.34 181.24 26.92 177.74 29.46 176.75 30.12 175.71 30.48 176.15 29.38 176.73 28.31 177.88 26.12 178.88 23.86 179.79 21 180.23 18.03 180 14.8 178.89 11.75 176.3 8.43 172.92 5.91" fill="none" stroke="#aaa" stroke-miterlimit="10" stroke-width=".5"/>
  <polyline points="101.69 .07 113.05 2.94 124.15 6.72 130.61 9.69 136.64 13.46 139.85 16.26 142.58 19.54 144.03 21.84 145.41 24.18 146.72 25.73 148.53 26.63 151.97 26.72 155.38 26.1 162.42 24.14 169.38 21.85 181.68 17.53 193.95 13.1 186.59 17.78 179.26 22.49 175.54 24.87 171.79 27.19 170.67 27.8 169.5 28.05 169.83 26.97 170.36 25.94 171.43 23.86 172.35 21.72 173.14 19.04 173.43 16.26 172.96 13.19 171.58 10.42 168.52 7.31 164.77 5.06" fill="none" stroke="#aaa" stroke-miterlimit="10" stroke-width=".5"/>
  <polyline points="97.24 .09 108.73 2.66 119.99 6.06 126.46 8.72 132.55 12.14 135.71 14.64 138.41 17.63 139.78 19.71 141.06 21.84 142.29 23.26 143.99 24.07 147.34 24.18 150.68 23.65 157.68 21.9 164.62 19.87 176.98 16 189.3 12.05 181.57 16.38 173.83 20.72 169.88 22.92 165.89 25.02 164.63 25.58 163.33 25.75 163.54 24.71 164.03 23.73 165.01 21.78 165.86 19.77 166.54 17.27 166.68 14.68 165.97 11.79 164.36 9.28 160.86 6.39 156.77 4.37" fill="none" stroke="#aaa" stroke-miterlimit="10" stroke-width=".5"/>
  <polyline points="92.53 .1 104.15 2.42 115.59 5.51 122.08 7.9 128.24 11.03 131.37 13.27 134.05 16.02 135.36 17.91 136.55 19.86 137.71 21.18 139.31 21.91 142.6 22.03 145.88 21.56 152.87 20.01 159.81 18.19 172.25 14.71 184.66 11.15 176.56 15.18 168.46 19.2 164.28 21.23 160.07 23.16 158.69 23.68 157.27 23.79 157.38 22.8 157.83 21.86 158.74 20.02 159.52 18.13 160.1 15.78 160.11 13.37 159.18 10.63 157.37 8.35 153.46 5.66 149.07 3.83" fill="none" stroke="#aaa" stroke-miterlimit="10" stroke-width=".5"/>
  <polyline points="87.43 .11 99.22 2.24 110.84 5.1 117.38 7.3 123.63 10.2 126.73 12.25 129.41 14.81 130.67 16.55 131.81 18.37 132.92 19.61 134.45 20.29 137.7 20.42 140.95 20 147.96 18.58 154.93 16.92 167.49 13.73 180.02 10.47 171.59 14.27 163.15 18.05 158.78 19.96 154.37 21.75 152.89 22.24 151.37 22.31 151.41 21.36 151.83 20.45 152.69 18.7 153.41 16.9 153.91 14.67 153.81 12.4 152.68 9.76 150.71 7.67 146.45 5.14 141.77 3.44" fill="none" stroke="#aaa" stroke-miterlimit="10" stroke-width=".5"/>
  <polyline points="81.99 .11 93.95 2.12 105.78 4.82 112.39 6.88 118.73 9.62 121.82 11.54 124.52 13.98 125.76 15.62 126.85 17.34 127.94 18.53 129.41 19.17 132.65 19.3 135.89 18.92 142.96 17.6 149.99 16.05 162.69 13.06 175.38 10 166.65 13.64 157.92 17.26 153.38 19.08 148.8 20.78 147.23 21.24 145.63 21.29 145.6 20.37 146 19.48 146.83 17.79 147.52 16.05 147.96 13.9 147.77 11.72 146.46 9.17 144.36 7.2 139.8 4.77 134.88 3.17" fill="none" stroke="#aaa" stroke-miterlimit="10" stroke-width=".5"/>
  <polyline points="76.36 .12 88.52 2.03 100.56 4.6 107.24 6.56 113.68 9.19 116.79 11 119.5 13.34 120.72 14.91 121.78 16.56 122.85 17.71 124.29 18.32 127.53 18.46 130.77 18.1 137.9 16.85 145 15.39 157.88 12.55 170.74 9.65 161.73 13.17 152.72 16.66 148.02 18.43 143.29 20.05 141.63 20.5 139.97 20.52 139.89 19.62 140.28 18.74 141.07 17.1 141.73 15.41 142.12 13.32 141.86 11.21 140.39 8.71 138.16 6.83 133.33 4.5 128.16 2.96" fill="none" stroke="#aaa" stroke-miterlimit="10" stroke-width=".5"/>
  <polyline points="70.74 .12 83.09 1.94 95.33 4.39 102.1 6.25 108.64 8.76 111.75 10.48 114.49 12.73 115.69 14.22 116.72 15.81 117.76 16.91 119.16 17.5 122.41 17.63 125.65 17.31 132.85 16.13 140.02 14.74 153.07 12.06 166.1 9.31 156.81 12.69 147.52 16.04 142.66 17.73 137.77 19.28 136.04 19.7 134.3 19.69 134.18 18.83 134.55 17.96 135.32 16.37 135.95 14.73 136.28 12.7 135.94 10.68 134.31 8.25 131.95 6.47 126.84 4.22 121.43 2.76" fill="none" stroke="#aaa" stroke-miterlimit="10" stroke-width=".5"/>
  <polyline points="65.25 .13 77.79 1.84 90.23 4.15 97.06 5.89 103.7 8.26 106.8 9.87 109.56 12.01 110.73 13.4 111.73 14.91 112.74 15.97 114.1 16.52 117.34 16.66 120.58 16.36 127.83 15.27 135.07 13.98 148.27 11.46 161.46 8.89 151.88 12.09 142.29 15.26 137.26 16.85 132.21 18.3 130.39 18.69 128.57 18.67 128.39 17.85 128.74 17 129.48 15.48 130.07 13.91 130.34 11.96 129.91 10.05 128.1 7.71 125.62 6.05 120.22 3.92 114.56 2.55" fill="none" stroke="#aaa" stroke-miterlimit="10" stroke-width=".5"/>
  <polyline points="59.92 .14 72.64 1.71 85.27 3.85 92.17 5.46 98.89 7.66 101.99 9.14 104.76 11.13 105.9 12.42 106.85 13.83 107.82 14.83 109.13 15.34 112.35 15.48 115.57 15.22 122.86 14.22 130.14 13.04 143.49 10.74 156.82 8.38 146.93 11.35 137.03 14.29 131.82 15.76 126.59 17.1 124.68 17.46 122.77 17.41 122.52 16.65 122.84 15.82 123.53 14.4 124.08 12.93 124.28 11.08 123.76 9.31 121.74 7.1 119.14 5.58 113.43 3.59 107.51 2.32" fill="none" stroke="#aaa" stroke-miterlimit="10" stroke-width=".5"/>
  <polyline points="54.73 .15 67.62 1.58 80.43 3.52 87.39 4.98 94.2 6.99 97.27 8.32 100.05 10.15 101.14 11.32 102.04 12.62 102.97 13.55 104.21 14.01 107.4 14.16 110.6 13.92 117.93 13.03 125.24 11.98 138.72 9.91 152.18 7.79 141.97 10.5 131.75 13.17 126.35 14.51 120.93 15.72 118.91 16.04 116.9 15.98 116.58 15.29 116.86 14.5 117.5 13.19 118 11.82 118.12 10.1 117.5 8.49 115.28 6.44 112.55 5.07 106.53 3.25 100.34 2.08" fill="none" stroke="#aaa" stroke-miterlimit="10" stroke-width=".5"/>
  <polyline points="49.54 .15 62.6 1.44 75.61 3.2 82.62 4.5 89.51 6.32 92.56 7.5 95.35 9.17 96.4 10.21 97.25 11.41 98.13 12.27 99.3 12.68 102.47 12.82 105.63 12.63 112.99 11.84 120.34 10.91 133.95 9.07 147.54 7.18 137.01 9.63 126.47 12.03 120.87 13.24 115.26 14.31 113.14 14.59 111.03 14.52 110.63 13.91 110.87 13.15 111.46 11.95 111.91 10.7 111.94 9.11 111.22 7.68 108.79 5.79 105.94 4.56 99.61 2.91 93.15 1.86" fill="none" stroke="#aaa" stroke-miterlimit="10" stroke-width=".5"/>
  <polyline points="44.21 .16 57.45 1.32 70.65 2.92 77.73 4.1 84.7 5.75 87.73 6.81 90.54 8.34 91.55 9.27 92.36 10.37 93.21 11.17 94.32 11.53 97.47 11.68 100.62 11.51 108.02 10.82 115.42 9.99 129.16 8.34 142.9 6.65 132.06 8.87 121.21 11.03 115.43 12.13 109.64 13.08 107.43 13.33 105.22 13.25 104.76 12.72 104.97 11.99 105.51 10.89 105.91 9.75 105.85 8.25 105.06 6.98 102.43 5.24 99.45 4.14 92.83 2.63 86.1 1.67" fill="none" stroke="#aaa" stroke-miterlimit="10" stroke-width=".5"/>
  <polyline points="38.54 .17 51.99 1.25 65.38 2.74 72.55 3.84 79.62 5.38 82.66 6.36 85.5 7.8 86.48 8.66 87.27 9.71 88.1 10.46 89.18 10.8 92.33 10.95 95.48 10.8 102.96 10.16 110.43 9.4 124.35 7.87 138.26 6.31 127.14 8.38 116.02 10.39 110.08 11.41 104.13 12.3 101.84 12.52 99.56 12.43 99.06 11.95 99.24 11.23 99.76 10.2 100.13 9.12 100 7.69 99.15 6.52 96.35 4.88 93.26 3.85 86.38 2.44 79.4 1.55" fill="none" stroke="#aaa" stroke-miterlimit="10" stroke-width=".5"/>
  <polyline points="32.36 .17 46.02 1.24 59.65 2.71 66.93 3.8 74.12 5.32 77.19 6.29 80.08 7.72 81.07 8.57 81.86 9.61 82.69 10.36 83.78 10.69 86.97 10.84 90.17 10.69 97.75 10.07 105.34 9.31 119.48 7.81 133.62 6.26 122.27 8.31 110.92 10.31 104.87 11.31 98.8 12.18 96.47 12.41 94.14 12.31 93.63 11.83 93.82 11.11 94.33 10.09 94.69 9.01 94.53 7.58 93.64 6.43 90.72 4.8 87.52 3.78 80.42 2.39 73.23 1.5" fill="none" stroke="#aaa" stroke-miterlimit="10" stroke-width=".5"/>
  <polyline points="25.49 .16 39.41 1.31 53.29 2.88 60.72 4.04 68.05 5.68 71.21 6.72 74.16 8.24 75.2 9.15 76.02 10.25 76.9 11.05 78.04 11.41 81.32 11.56 84.6 11.4 92.36 10.72 100.12 9.9 114.55 8.28 128.98 6.62 117.47 8.82 105.95 10.97 99.83 12.04 93.7 12.98 91.37 13.22 89.04 13.11 88.56 12.57 88.78 11.83 89.33 10.73 89.72 9.57 89.57 8.05 88.66 6.81 85.69 5.07 82.4 3.99 75.13 2.5 67.76 1.56" fill="none" stroke="#aaa" stroke-miterlimit="10" stroke-width=".5"/>
  <polyline points="17.8 .15 32.03 1.48 46.2 3.3 53.82 4.65 61.32 6.53 64.62 7.74 67.66 9.48 68.78 10.55 69.7 11.8 70.65 12.7 71.9 13.12 75.33 13.27 78.76 13.07 86.75 12.27 94.74 11.31 109.55 9.4 124.34 7.45 112.74 10.01 101.13 12.51 95.01 13.76 88.87 14.85 86.59 15.13 84.31 15.02 83.91 14.35 84.2 13.54 84.83 12.27 85.28 10.94 85.21 9.23 84.3 7.76 81.35 5.77 78.01 4.51 70.64 2.81 63.14 1.73" fill="none" stroke="#aaa" stroke-miterlimit="10" stroke-width=".5"/>
  <polyline points="9.27 .13 23.84 1.76 38.33 3.98 46.21 5.64 53.91 7.93 57.4 9.44 60.56 11.53 61.81 12.86 62.85 14.34 63.92 15.4 65.34 15.92 68.97 16.08 72.61 15.82 80.91 14.8 89.21 13.59 104.46 11.22 119.7 8.79 108.09 11.91 96.47 14.99 90.41 16.52 84.32 17.88 82.14 18.22 79.97 18.11 79.73 17.24 80.11 16.32 80.86 14.78 81.42 13.17 81.46 11.14 80.61 9.3 77.76 6.93 74.37 5.37 66.97 3.32 59.39 2.02" fill="none" stroke="#aaa" stroke-miterlimit="10" stroke-width=".5"/>
  <polyline points="0 .11 14.96 2.15 29.8 4.93 37.97 7.02 45.89 9.86 49.62 11.79 52.92 14.35 54.34 16.03 55.55 17.83 56.78 19.11 58.42 19.76 62.31 19.92 66.2 19.56 74.88 18.24 83.53 16.68 99.3 13.66 115.06 10.56 103.51 14.46 91.94 18.31 86.01 20.21 80.03 21.94 77.99 22.36 75.97 22.25 75.93 21.13 76.43 20.05 77.35 18.16 78.05 16.17 78.24 13.72 77.48 11.39 74.81 8.52 71.39 6.54 64.04 4.03 56.42 2.43" fill="none" stroke="#aaa" stroke-miterlimit="10" stroke-width=".5"/>
</svg>