<?xml version="1.0" encoding="UTF-8"?>
<svg id="Ebene_1" xmlns="http://www.w3.org/2000/svg" width="222" height="222" viewBox="0 0 222 222">
  <polyline points="216.98 16.16 217.13 16.19 217.28 16.22 217.43 16.25 217.58 16.29 217.73 16.32 217.88 16.35 218.03 16.38 218.17 16.41 218.32 16.44 218.47 16.47 218.61 16.5 218.76 16.53 218.91 16.56 219.05 16.59 219.2 16.62 219.34 16.65" fill="none" stroke="#aaa" stroke-miterlimit="10" stroke-width=".5"/>
  <polyline points="218.81 8.91 218.06 11.34 218.3 13.87" fill="none" stroke="#aaa" stroke-miterlimit="10" stroke-width=".5"/>
  <polyline points="218.71 22.16 215.04 19.52 211.27 17.03 211.42 17.06 211.57 17.09 211.72 17.12 211.87 17.15 212.02 17.18 212.16 17.21 212.31 17.25 212.46 17.28 212.61 17.31 212.75 17.34 212.9 17.37 213.04 17.4 213.19 17.43 213.33 17.46 213.48 17.49 213.62 17.52" fill="none" stroke="#aaa" stroke-miterlimit="10" stroke-width=".5"/>
  <polyline points="218.63 4.3 215.36 6.43 212.86 9.39 212.09 11.95 212.36 14.61 213.4 17.06 214.92 19.24 216.53 20.98 218.31 22.53" fill="none" stroke="#aaa" stroke-miterlimit="10" stroke-width=".5"/>
  <polyline points="213.18 4.46 209.79 6.66 207.2 9.74 206.41 12.39 206.68 15.15 207.76 17.69 209.33 19.95 211 21.76 212.85 23.37 213.85 24.09 214.92 24.63 214.2 23.75 213.26 22.98 209.46 20.25 205.56 17.66 205.7 17.69 205.85 17.72 205.99 17.75 206.14 17.78 206.28 17.81 206.43 17.84 206.57 17.87 206.71 17.9 206.86 17.93 207 17.96 207.14 17.99 207.28 18.02 207.43 18.05 207.57 18.08 207.71 18.11 207.85 18.14" fill="none" stroke="#aaa" stroke-miterlimit="10" stroke-width=".5"/>
  <polyline points="208.03 4.56 204.53 6.8 201.84 9.95 201.02 12.66 201.28 15.49 202.38 18.07 203.99 20.39 205.68 22.23 207.57 23.88 208.57 24.61 209.66 25.17 208.87 24.28 207.87 23.49 203.91 20.7 199.85 18.05 199.98 18.08 200.12 18.11 200.26 18.14 200.4 18.16 200.53 18.19 200.67 18.22 200.81 18.25 200.94 18.28 201.08 18.3 201.21 18.33 201.35 18.36 201.48 18.39 201.62 18.42 201.75 18.44 201.88 18.47 202.02 18.5" fill="none" stroke="#aaa" stroke-miterlimit="10" stroke-width=".5"/>
  <polyline points="217.76 .09 210.29 1.87 203.13 4.6 199.52 6.87 196.73 10.05 195.86 12.79 196.11 15.65 197.21 18.26 198.83 20.6 200.54 22.46 202.44 24.12 203.43 24.86 204.49 25.43 203.6 24.53 202.54 23.73 198.39 20.92 194.14 18.24 194.26 18.27 194.39 18.29 194.52 18.32 194.64 18.34 194.77 18.37 194.9 18.39 195.02 18.42 195.15 18.44 195.27 18.47 195.4 18.49 195.52 18.52 195.65 18.54 195.77 18.57 195.89 18.59 196.02 18.62 196.14 18.64" fill="none" stroke="#aaa" stroke-miterlimit="10" stroke-width=".5"/>
  <polyline points="213.44 .09 205.76 1.88 198.39 4.62 194.68 6.88 191.77 10.08 190.85 12.81 191.08 15.69 192.17 18.32 193.79 20.66 195.51 22.52 197.4 24.2 198.37 24.92 199.39 25.51 198.37 24.61 197.23 23.81 192.87 20.99 188.43 18.3 188.54 18.32 188.65 18.34 188.77 18.36 188.88 18.38 188.99 18.41 189.1 18.43 189.22 18.45 189.33 18.47 189.44 18.49 189.55 18.51 189.66 18.54 189.78 18.56 189.89 18.58 190 18.6 190.11 18.62 190.22 18.64" fill="none" stroke="#aaa" stroke-miterlimit="10" stroke-width=".5"/>
  <polyline points="209.19 .09 201.31 1.87 193.72 4.61 189.91 6.87 186.89 10.07 185.92 12.79 186.12 15.68 187.2 18.3 188.82 20.64 190.53 22.51 192.41 24.18 193.34 24.89 194.31 25.49 193.17 24.6 191.94 23.79 187.37 20.98 182.71 18.28 182.81 18.3 182.91 18.32 183.01 18.34 183.11 18.36 183.21 18.38 183.3 18.39 183.4 18.41 183.5 18.43 183.6 18.45 183.69 18.47 183.79 18.48 183.89 18.5 183.99 18.52 184.08 18.54 184.18 18.56 184.27 18.57" fill="none" stroke="#aaa" stroke-miterlimit="10" stroke-width=".5"/>
  <polyline points="204.95 .09 196.87 1.87 189.07 4.61 185.16 6.85 182.03 10.05 181.01 12.76 181.17 15.65 182.25 18.27 183.86 20.61 185.56 22.46 187.43 24.14 188.33 24.83 189.25 25.45 187.97 24.57 186.66 23.75 181.86 20.95 177 18.26 177.09 18.27 177.17 18.28 177.25 18.3 177.34 18.31 177.42 18.33 177.5 18.34 177.58 18.36 177.67 18.37 177.75 18.39 177.83 18.4 177.91 18.42 177.99 18.43 178.08 18.45 178.16 18.46 178.24 18.48 178.32 18.49" fill="none" stroke="#aaa" stroke-miterlimit="10" stroke-width=".5"/>
  <polyline points="200.7 .09 192.41 1.87 184.4 4.6 180.39 6.83 177.14 10.05 176.07 12.74 176.21 15.64 177.27 18.26 178.88 20.59 180.58 22.44 182.44 24.12 183.31 24.8 184.17 25.43 182.78 24.56 181.36 23.73 176.36 20.94 171.29 18.24 171.36 18.25 171.43 18.27 171.5 18.28 171.56 18.29 171.63 18.3 171.7 18.31 171.77 18.32 171.83 18.33 171.9 18.35 171.97 18.36 172.03 18.37 172.1 18.38 172.17 18.39 172.23 18.4 172.3 18.42 172.37 18.43" fill="none" stroke="#aaa" stroke-miterlimit="10" stroke-width=".5"/>
  <polyline points="196.41 .09 187.92 1.87 179.69 4.6 175.58 6.83 172.22 10.05 171.11 12.74 171.21 15.65 172.27 18.27 173.87 20.61 175.57 22.46 177.43 24.13 178.26 24.81 179.09 25.45 177.58 24.59 176.07 23.75 170.85 20.96 165.58 18.26 165.63 18.27 165.69 18.27 165.74 18.28 165.79 18.29 165.84 18.3 165.9 18.31 165.95 18.32 166 18.33 166.05 18.33 166.11 18.34 166.16 18.35 166.21 18.36 166.26 18.37 166.31 18.38 166.36 18.39 166.42 18.39" fill="none" stroke="#aaa" stroke-miterlimit="10" stroke-width=".5"/>
  <polyline points="192.1 .09 183.4 1.87 174.97 4.61 170.75 6.84 167.28 10.07 166.12 12.75 166.19 15.67 167.24 18.3 168.85 20.64 170.55 22.49 172.4 24.18 173.21 24.84 173.99 25.49 172.38 24.65 170.76 23.79 165.34 21 159.87 18.29 159.91 18.29 159.95 18.3 159.98 18.31 160.02 18.31 160.06 18.32 160.1 18.32 160.13 18.33 160.17 18.34 160.21 18.34 160.25 18.35 160.28 18.35 160.32 18.36 160.36 18.37 160.39 18.37 160.43 18.38 160.47 18.38" fill="none" stroke="#aaa" stroke-miterlimit="10" stroke-width=".5"/>
  <polyline points="187.81 .09 178.9 1.87 170.26 4.62 165.94 6.84 162.36 10.08 161.15 12.75 161.19 15.69 162.24 18.32 163.84 20.66 165.54 22.51 167.39 24.2 168.18 24.86 168.9 25.51 167.18 24.68 165.47 23.81 159.83 21.03 154.16 18.31 154.18 18.31 154.2 18.31 154.23 18.32 154.25 18.32 154.27 18.32 154.29 18.33 154.31 18.33 154.34 18.33 154.36 18.34 154.38 18.34 154.4 18.34 154.42 18.35 154.45 18.35 154.47 18.35 154.49 18.36 154.51 18.36" fill="none" stroke="#aaa" stroke-miterlimit="10" stroke-width=".5"/>
  <polyline points="183.6 .09 174.49 1.86 165.64 4.6 161.22 6.8 157.52 10.04 156.26 12.69 156.27 15.62 157.3 18.24 158.9 20.57 160.59 22.41 162.42 24.09 163.2 24.74 163.85 25.4 162 24.59 160.18 23.72 154.34 20.96 148.45 18.26 148.45 18.26 148.46 18.26 148.46 18.26 148.47 18.26 148.47 18.27 148.47 18.27 148.48 18.27 148.48 18.27 148.48 18.27 148.49 18.27 148.49 18.27 148.5 18.27 148.5 18.27 148.5 18.27 148.51 18.27 148.51 18.27" fill="none" stroke="#aaa" stroke-miterlimit="10" stroke-width=".5"/>
  <polyline points="179.55 .09 170.26 1.84 161.2 4.54 156.69 6.7 152.87 9.89 151.55 12.49 151.5 15.39 152.49 17.98 154.07 20.27 155.73 22.09 157.54 23.76 158.29 24.41 158.87 25.08 156.93 24.33 155.03 23.49 149.02 20.82 142.99 18.2" fill="none" stroke="#aaa" stroke-miterlimit="10" stroke-width=".5"/>
  <polyline points="175.73 .09 166.27 1.8 157.04 4.42 152.43 6.52 148.47 9.63 147.08 12.13 146.95 14.98 147.89 17.5 149.42 19.72 151.04 21.5 152.79 23.13 153.52 23.79 154 24.47 151.97 23.8 149.98 23 143.82 20.47 137.65 17.97" fill="none" stroke="#aaa" stroke-miterlimit="10" stroke-width=".5"/>
  <polyline points="172.19 .09 162.59 1.73 153.18 4.25 148.49 6.24 144.38 9.22 142.91 11.58 142.68 14.33 143.55 16.75 145 18.87 146.55 20.58 148.23 22.16 148.92 22.8 149.27 23.49 147.12 22.92 145.03 22.17 138.72 19.84 132.4 17.51" fill="none" stroke="#aaa" stroke-miterlimit="10" stroke-width=".5"/>
  <polyline points="168.93 .09 159.19 1.64 149.62 4.01 144.85 5.87 140.58 8.68 139.03 10.85 138.68 13.47 139.46 15.74 140.81 17.74 142.27 19.35 143.84 20.85 144.49 21.49 144.67 22.16 142.4 21.69 140.18 21.02 133.71 18.93 127.24 16.8" fill="none" stroke="#aaa" stroke-miterlimit="10" stroke-width=".5"/>
  <polyline points="165.85 .09 155.99 1.53 146.28 3.73 141.42 5.44 136.99 8.04 135.37 9.99 134.87 12.46 135.53 14.57 136.78 16.41 138.14 17.9 139.59 19.31 140.18 19.94 140.17 20.58 137.77 20.23 135.41 19.63 128.78 17.8 122.16 15.9" fill="none" stroke="#aaa" stroke-miterlimit="10" stroke-width=".5"/>
  <polyline points="162.86 .09 152.88 1.42 143.03 3.42 138.09 4.98 133.5 7.36 131.81 9.09 131.14 11.39 131.69 13.32 132.82 14.99 134.07 16.36 135.39 17.66 135.93 18.29 135.74 18.88 133.21 18.64 130.71 18.13 123.95 16.56 117.19 14.9" fill="none" stroke="#aaa" stroke-miterlimit="10" stroke-width=".5"/>
  <polyline points="159.84 .09 149.75 1.3 139.76 3.13 134.73 4.54 129.99 6.7 128.23 8.22 127.4 10.35 127.84 12.1 128.85 13.62 130 14.87 131.19 16.06 131.68 16.7 131.3 17.22 128.66 17.07 126.03 16.64 119.13 15.3 112.24 13.87" fill="none" stroke="#aaa" stroke-miterlimit="10" stroke-width=".5"/>
  <polyline points="156.69 .09 146.48 1.2 136.34 2.87 131.22 4.15 126.34 6.11 124.53 7.45 123.53 9.42 123.87 11.02 124.78 12.4 125.84 13.53 126.92 14.63 127.34 15.29 126.81 15.73 124.06 15.65 121.31 15.29 114.28 14.15 107.26 12.92" fill="none" stroke="#aaa" stroke-miterlimit="10" stroke-width=".5"/>
  <polyline points="153.32 .09 142.97 1.12 132.68 2.66 127.46 3.84 122.45 5.64 120.59 6.84 119.45 8.68 119.7 10.15 120.53 11.41 121.51 12.46 122.51 13.48 122.85 14.15 122.23 14.53 119.37 14.5 116.52 14.2 109.36 13.21 102.21 12.12" fill="none" stroke="#aaa" stroke-miterlimit="10" stroke-width=".5"/>
  <polyline points="149.66 .08 139.15 1.06 128.7 2.51 123.38 3.62 118.24 5.32 116.34 6.42 115.08 8.17 115.26 9.55 116.04 10.74 116.97 11.72 117.91 12.69 118.17 13.38 117.5 13.7 114.56 13.7 111.61 13.44 104.33 12.56 97.06 11.57" fill="none" stroke="#aaa" stroke-miterlimit="10" stroke-width=".5"/>
  <polyline points="145.67 .08 134.98 1.03 124.35 2.44 118.92 3.52 113.66 5.16 111.72 6.21 110.38 7.91 110.53 9.25 111.27 10.4 112.18 11.36 113.09 12.3 113.3 12.99 112.6 13.29 109.59 13.31 106.58 13.07 99.17 12.25 91.77 11.31" fill="none" stroke="#aaa" stroke-miterlimit="10" stroke-width=".5"/>
  <polyline points="141.34 .08 130.45 1.04 119.61 2.44 114.08 3.52 108.71 5.16 106.73 6.21 105.35 7.92 105.48 9.26 106.22 10.4 107.13 11.36 108.05 12.3 108.25 13.01 107.53 13.3 104.46 13.33 101.39 13.09 93.85 12.28 86.32 11.36" fill="none" stroke="#aaa" stroke-miterlimit="10" stroke-width=".5"/>
  <polyline points="136.69 .08 125.58 1.06 114.53 2.52 108.89 3.62 103.42 5.32 101.4 6.4 100 8.16 100.14 9.54 100.91 10.72 101.85 11.71 102.79 12.68 103.02 13.4 102.29 13.71 99.17 13.73 96.05 13.49 88.38 12.65 80.72 11.69" fill="none" stroke="#aaa" stroke-miterlimit="10" stroke-width=".5"/>
  <polyline points="131.79 .08 120.45 1.11 109.17 2.64 103.42 3.81 97.85 5.59 95.79 6.75 94.4 8.59 94.57 10.04 95.38 11.29 96.37 12.33 97.37 13.35 97.65 14.08 96.92 14.42 93.77 14.44 90.61 14.17 82.8 13.27 75 12.25" fill="none" stroke="#aaa" stroke-miterlimit="10" stroke-width=".5"/>
  <polyline points="126.73 .08 115.14 1.18 103.62 2.81 97.76 4.05 92.1 5.95 90 7.2 88.64 9.15 88.85 10.7 89.72 12.03 90.78 13.14 91.84 14.22 92.18 14.97 91.47 15.36 88.28 15.36 85.09 15.06 77.14 14.08 69.19 12.97" fill="none" stroke="#aaa" stroke-miterlimit="10" stroke-width=".5"/>
  <polyline points="121.6 .09 109.76 1.25 98 2.99 92.03 4.32 86.27 6.35 84.14 7.69 82.81 9.77 83.08 11.43 84.01 12.85 85.13 14.04 86.27 15.19 86.67 15.94 85.98 16.38 82.76 16.36 79.55 16.04 71.45 14.95 63.36 13.75" fill="none" stroke="#aaa" stroke-miterlimit="10" stroke-width=".5"/>
  <polyline points="116.5 .09 104.42 1.32 92.42 3.16 86.33 4.57 80.48 6.74 78.32 8.18 77.01 10.37 77.33 12.14 78.32 13.65 79.51 14.91 80.72 16.13 81.17 16.89 80.51 17.38 77.26 17.34 74.02 16.98 65.78 15.8 57.54 14.5" fill="none" stroke="#aaa" stroke-miterlimit="10" stroke-width=".5"/>
  <polyline points="111.52 .09 99.19 1.38 86.95 3.32 80.75 4.8 74.81 7.07 72.61 8.6 71.33 10.9 71.68 12.75 72.73 14.34 73.97 15.66 75.24 16.94 75.73 17.72 75.1 18.25 71.81 18.19 68.53 17.81 60.15 16.55 51.78 15.16" fill="none" stroke="#aaa" stroke-miterlimit="10" stroke-width=".5"/>
  <polyline points="106.68 .09 94.12 1.43 81.66 3.44 75.35 4.97 69.31 7.33 67.07 8.93 65.8 11.3 66.17 13.23 67.26 14.88 68.54 16.25 69.87 17.57 70.38 18.36 69.77 18.92 66.44 18.85 63.11 18.45 54.59 17.13 46.07 15.68" fill="none" stroke="#aaa" stroke-miterlimit="10" stroke-width=".5"/>
  <polyline points="102.01 .09 89.23 1.46 76.55 3.52 70.13 5.1 63.99 7.51 61.71 9.15 60.42 11.59 60.81 13.56 61.93 15.25 63.25 16.66 64.6 18.01 65.13 18.82 64.51 19.39 61.13 19.32 57.76 18.9 49.08 17.54 40.41 16.05" fill="none" stroke="#aaa" stroke-miterlimit="10" stroke-width=".5"/>
  <polyline points="97.47 .09 84.48 1.48 71.58 3.57 65.05 5.18 58.81 7.63 56.49 9.3 55.18 11.77 55.58 13.77 56.71 15.49 58.05 16.91 59.42 18.29 59.96 19.11 59.33 19.69 55.88 19.62 52.45 19.2 43.62 17.81 34.81 16.3" fill="none" stroke="#aaa" stroke-miterlimit="10" stroke-width=".5"/>
  <polyline points="93.02 .09 79.81 1.5 66.7 3.61 60.06 5.23 53.72 7.71 51.36 9.38 50.02 11.88 50.41 13.9 51.56 15.64 52.91 17.08 54.29 18.47 54.83 19.3 54.18 19.89 50.67 19.82 47.17 19.39 38.19 18 29.22 16.48" fill="none" stroke="#aaa" stroke-miterlimit="10" stroke-width=".5"/>
  <polyline points="88.61 .09 75.19 1.51 61.88 3.63 55.13 5.26 48.68 7.76 46.29 9.44 44.91 11.96 45.3 13.99 46.45 15.74 47.81 17.19 49.2 18.59 49.74 19.44 49.06 20.02 45.48 19.95 41.91 19.53 32.78 18.13 23.65 16.61" fill="none" stroke="#aaa" stroke-miterlimit="10" stroke-width=".5"/>
</svg>