<?xml version="1.0" encoding="utf-8" ?>
<svg baseProfile="full" height="222" version="1.1" width="222" xmlns="http://www.w3.org/2000/svg" xmlns:ev="http://www.w3.org/2001/xml-events" xmlns:xlink="http://www.w3.org/1999/xlink"><defs />
  <polyline fill="none" points ="47.94 197.69 46.15 190.87 41.67 185.58 37.73 184.75 33.75 185.51 32.05 186.13 30.99 186.04 35.6 180.87 40.25 175.74 37.26 184.06 34.39 192.42 33.84 194.8 34.55 196.99 36.99 198.33 39.26 199.96 43.75 205.48 47.05 211.82" stroke="#aaa" stroke-width="1"/>
  <polyline fill="none" points ="48.01 192.74 46.13 186.24 41.55 181.42 37.46 180.7 33.36 181.5 31.64 182.12 30.53 182.17 35.36 177.41 40.18 172.64 37.01 180.67 33.98 188.74 33.41 191.09 34.18 193.22 36.76 194.59 39.17 196.24 43.83 201.65 47.29 207.94" stroke="#aaa" stroke-width="1"/>
  <polyline fill="none" points ="48.14 187.64 46.11 181.46 41.38 177.15 37.07 176.56 32.78 177.4 31.01 178.04 29.83 178.25 34.97 173.93 40.06 169.55 36.62 177.3 33.36 185.12 32.76 187.45 33.63 189.54 36.39 190.94 39 192.63 43.92 197.96 47.62 204.22" stroke="#aaa" stroke-width="1"/>
  <polyline fill="none" points ="48.31 182.5 46.11 176.63 41.22 172.84 36.66 172.37 32.15 173.28 30.32 173.92 29.06 174.31 34.55 170.45 39.94 166.45 36.2 173.93 32.68 181.51 32.03 183.85 33.02 185.89 36.01 187.35 38.85 189.08 44.05 194.31 48.04 200.56" stroke="#aaa" stroke-width="1"/>
  <polyline fill="none" points ="48.25 177.41 45.86 171.88 40.88 168.58 36.13 168.24 31.44 169.19 29.54 169.85 28.24 170.4 33.99 166.98 39.62 163.36 35.6 170.55 31.84 177.88 31.17 180.21 32.27 182.2 35.47 183.7 38.52 185.46 43.97 190.56 48.2 196.75" stroke="#aaa" stroke-width="1"/>
  <polyline fill="none" points ="48.25 172.52 45.74 167.33 40.79 164.47 35.96 164.23 31.21 165.21 29.29 165.88 27.97 166.55 33.82 163.54 39.52 160.26 35.3 167.13 31.38 174.16 30.7 176.47 31.89 178.4 35.21 179.9 38.42 181.65 43.99 186.55 48.37 192.57 48.38 192.55 48.39 192.53 48.41 192.51 48.42 192.49 48.43 192.47 48.45 192.45 48.46 192.43 48.47 192.41" stroke="#aaa" stroke-width="1"/>
  <polyline fill="none" points ="48.21 167.89 45.64 163.06 40.81 160.55 36.02 160.4 31.32 161.38 29.4 162.05 28.11 162.78 33.9 160.13 39.55 157.17 35.28 163.65 31.32 170.32 30.63 172.57 31.84 174.43 35.17 175.9 38.4 177.58 43.93 182.17 48.32 187.88 48.36 187.81 48.41 187.75 48.45 187.68 48.5 187.62 48.54 187.55 48.59 187.49 48.63 187.42 48.68 187.36" stroke="#aaa" stroke-width="1"/>
  <polyline fill="none" points ="48.1 163.53 45.57 159.07 40.96 156.85 36.32 156.75 31.78 157.71 29.93 158.36 28.68 159.11 34.28 156.76 39.73 154.07 35.55 160.14 31.67 166.4 31 168.54 32.18 170.3 35.43 171.71 38.59 173.31 43.93 177.57 48.21 182.92 48.28 182.82 48.35 182.72 48.43 182.62 48.5 182.52 48.57 182.42 48.64 182.32 48.72 182.22 48.79 182.12" stroke="#aaa" stroke-width="1"/>
  <polyline fill="none" points ="48.24 159.4 45.81 155.3 41.48 153.32 37.1 153.25 32.81 154.16 31.05 154.78 29.88 155.51 35.17 153.41 40.32 150.98 36.33 156.59 32.63 162.39 31.99 164.4 33.12 166.05 36.21 167.37 39.22 168.86 44.26 172.79 48.33 177.75 48.42 177.62 48.52 177.5 48.61 177.37 48.71 177.24 48.8 177.12 48.89 177 48.99 176.88 49.08 176.75" stroke="#aaa" stroke-width="1"/>
  <polyline fill="none" points ="48.04 155.36 45.75 151.63 41.74 149.87 37.66 149.82 33.67 150.67 32.02 151.25 30.93 151.95 35.86 150.08 40.65 147.88 36.91 153.03 33.45 158.36 32.85 160.22 33.91 161.74 36.8 162.96 39.61 164.34 44.31 167.94 48.12 172.48 48.23 172.34 48.34 172.19 48.45 172.05 48.56 171.9 48.67 171.76 48.78 171.62 48.89 171.48 49 171.34" stroke="#aaa" stroke-width="1"/>
  <polyline fill="none" points ="47.85 151.29 45.7 147.92 41.99 146.38 38.2 146.37 34.49 147.16 32.96 147.7 31.95 148.38 36.52 146.74 40.97 144.78 37.47 149.47 34.23 154.33 33.67 156.05 34.66 157.44 37.36 158.58 39.99 159.84 44.36 163.1 47.92 167.25 48.04 167.09 48.17 166.93 48.29 166.77 48.41 166.61 48.54 166.46 48.66 166.3 48.79 166.15 48.91 166.01" stroke="#aaa" stroke-width="1"/>
  <polyline fill="none" points ="47.68 147.05 45.6 144.06 42.16 142.77 38.59 142.8 35.1 143.56 33.65 144.07 32.71 144.75 37.01 143.38 41.2 141.69 37.84 145.93 34.74 150.36 34.21 151.96 35.17 153.25 37.73 154.31 40.24 155.47 44.35 158.41 47.74 162.17 47.88 161.99 48.02 161.82 48.17 161.64 48.31 161.47 48.46 161.3 48.6 161.13 48.75 160.97 48.89 160.81" stroke="#aaa" stroke-width="1"/>
  <polyline fill="none" points ="47.56 142.53 45.44 139.93 42.19 138.94 38.72 139.04 35.33 139.79 33.91 140.29 33.01 141.02 37.18 139.99 41.26 138.59 37.9 142.44 34.8 146.49 34.28 148.01 35.23 149.22 37.76 150.23 40.26 151.32 44.26 153.95 47.61 157.38 47.78 157.17 47.96 156.97 48.14 156.77 48.32 156.58 48.5 156.39 48.68 156.2 48.86 156.02 49.04 155.84" stroke="#aaa" stroke-width="1"/>
  <polyline fill="none" points ="47.7 137.61 45.34 135.44 42.14 134.81 38.27 135.03 34.47 135.79 32.34 136.4 30.26 137.16 32.65 136.4 35.06 135.5 33.12 138.99 31.89 142.76 32.54 144.48 34.19 145.41 37.17 146.38 40.11 147.48 44.21 149.81 47.74 152.96 48.02 152.68 48.29 152.41 48.57 152.15 48.85 151.9 49.12 151.65 49.4 151.41 49.68 151.18 49.96 150.95" stroke="#aaa" stroke-width="1"/>
  <polyline fill="none" points ="47.84 132.3 45.11 130.66 41.87 130.37 37.58 130.75 33.35 131.57 30.59 132.29 27.88 133.16 29.23 132.94 31.08 132.4 29.72 135.67 29.4 139.15 30.78 140.9 32.87 141.83 36.27 142.83 39.64 143.93 44.01 146.03 47.89 148.92 48.33 148.55 48.77 148.2 49.22 147.86 49.66 147.53 50.11 147.22 50.56 146.92 51.01 146.63 51.46 146.36" stroke="#aaa" stroke-width="1"/>
  <polyline fill="none" points ="47.97 126.74 44.81 125.73 41.43 125.74 36.65 126.3 31.92 127.21 28.61 128.03 25.37 129.09 25.99 129.52 27.75 129.31 26.62 132.41 26.82 135.63 28.74 137.42 31.21 138.4 35.08 139.45 38.94 140.57 43.66 142.48 48.02 145.12 48.71 144.65 49.42 144.2 50.12 143.78 50.84 143.38 51.55 143.01 52.27 142.65 52.99 142.32 53.71 142" stroke="#aaa" stroke-width="1"/>
  <polyline fill="none" points ="48 121.15 44.47 120.82 40.9 121.09 35.67 121.83 30.48 122.84 26.72 123.75 23.06 125 23.07 126.04 24.96 126.21 23.91 129.13 24.42 132.12 26.78 133.94 29.6 134.98 33.92 136.1 38.23 137.24 43.27 138.97 48.03 141.35 48.99 140.81 49.96 140.31 50.94 139.84 51.93 139.4 52.93 139 53.93 138.61 54.92 138.25 55.93 137.91" stroke="#aaa" stroke-width="1"/>
  <polyline fill="none" points ="47.99 115.77 43.98 116.08 39.99 116.6 34.5 117.49 29.05 118.58 25.17 119.55 21.46 120.98 21.46 122.52 23.53 123.12 22.36 125.78 22.94 128.54 25.55 130.37 28.6 131.43 33.21 132.61 37.84 133.74 43.01 135.29 47.98 137.37 49.18 136.82 50.4 136.3 51.65 135.82 52.91 135.37 54.18 134.95 55.46 134.55 56.73 134.18 58.01 133.83" stroke="#aaa" stroke-width="1"/>
  <polyline fill="none" points ="47.93 110.76 42.74 111.57 37.54 112.4 32.04 113.36 26.58 114.53 23.16 115.5 20.02 117.09 20.62 119.04 22.88 120.02 21.66 122.37 22.33 124.83 25.14 126.61 28.32 127.68 33.08 128.87 37.85 129.96 42.95 131.3 47.92 133.05 49.32 132.51 50.73 132.02 52.21 131.55 53.7 131.12 55.22 130.7 56.75 130.3 58.27 129.92 59.8 129.56" stroke="#aaa" stroke-width="1"/>
  <polyline fill="none" points ="47.77 106.14 42.33 107.42 36.83 108.49 31.43 109.53 26.06 110.71 22.83 111.67 19.94 113.33 20.67 115.58 22.99 116.93 21.77 118.89 22.53 120.99 25.46 122.66 28.69 123.71 33.43 124.86 38.2 125.89 43.01 126.99 47.76 128.34 49.27 127.88 50.79 127.46 52.43 127.04 54.08 126.64 55.78 126.25 57.49 125.86 59.2 125.48 60.91 125.09" stroke="#aaa" stroke-width="1"/>
  <polyline fill="none" points ="47.57 101.83 42.19 103.53 36.7 104.83 31.52 105.9 26.38 107.06 23.33 107.99 20.7 109.67 21.45 112.15 23.74 113.83 22.57 115.37 23.43 117.05 26.43 118.56 29.66 119.55 34.25 120.64 38.88 121.57 43.23 122.42 47.56 123.34 49.08 123 50.61 122.69 52.34 122.34 54.08 122 55.92 121.63 57.75 121.25 59.6 120.86 61.45 120.44" stroke="#aaa" stroke-width="1"/>
  <polyline fill="none" points ="47.32 97.72 42.29 99.82 37.04 101.32 32.22 102.42 27.42 103.53 24.64 104.41 22.33 106.09 23.32 108.78 25.66 110.73 24.38 111.72 25.17 113.03 28.14 114.36 31.27 115.28 35.61 116.28 39.99 117.1 43.65 117.68 47.31 118.14 48.71 117.99 50.11 117.81 51.85 117.55 53.59 117.27 55.52 116.92 57.45 116.54 59.41 116.13 61.36 115.67" stroke="#aaa" stroke-width="1"/>
  <polyline fill="none" points ="47.1 93.69 42.5 96.16 37.57 97.87 33.17 98.98 28.77 100.04 26.3 100.86 24.41 102.53 25.73 105.42 28.2 107.64 26.8 107.99 27.27 109 30.17 110.13 33.18 110.97 37.23 111.87 41.31 112.58 44.19 112.91 47.08 112.87 48.2 112.97 49.33 112.94 51 112.79 52.67 112.57 54.65 112.25 56.61 111.87 58.64 111.43 60.66 110.93" stroke="#aaa" stroke-width="1"/>
  <polyline fill="none" points ="46.95 89.59 42.77 92.42 38.11 94.37 34.13 95.5 30.12 96.52 27.94 97.29 26.49 98.94 28.17 102.05 30.79 104.54 29.34 104.45 28.84 104.98 31.34 105.95 33.93 106.69 37.69 107.53 41.49 108.1 44.25 108.23 46.91 107.66 47.93 108.03 49.01 108.17 50.57 108.19 52.14 108.08 53.97 107.84 55.8 107.52 57.67 107.12 59.52 106.66" stroke="#aaa" stroke-width="1"/>
  <polyline fill="none" points ="46.88 85.32 43.07 88.51 38.63 90.73 34.98 91.91 31.29 92.9 29.36 93.65 28.34 95.3 30.42 98.64 33.26 101.45 31.57 101.05 30.19 101.02 32.33 101.86 34.54 102.51 38.07 103.3 41.65 103.76 44.38 103.69 46.83 102.61 47.7 103.21 48.7 103.53 50.08 103.71 51.47 103.73 53.11 103.6 54.74 103.37 56.41 103.06 58.08 102.67" stroke="#aaa" stroke-width="1"/>
  <polyline fill="none" points ="46.82 80.9 43.39 84.46 39.14 86.98 35.77 88.21 32.34 89.19 30.59 89.95 30 91.61 32.57 95.22 35.75 98.35 33.56 97.63 31.39 97.12 33.17 97.85 35.01 98.42 38.35 99.18 41.75 99.53 44.51 99.24 46.77 97.72 47.5 98.47 48.43 98.98 49.63 99.31 50.87 99.44 52.32 99.44 53.76 99.31 55.27 99.08 56.76 98.77" stroke="#aaa" stroke-width="1"/>
  <polyline fill="none" points ="46.74 76.47 43.71 80.36 39.69 83.22 36.67 84.48 33.58 85.47 32.13 86.33 32.33 87.91 35.9 91.76 39.86 95.26 36.61 94.1 33.29 93.21 34.34 93.87 35.68 94.33 38.73 95.06 41.86 95.31 44.65 94.75 46.69 92.83 47.29 93.69 48.1 94.35 49.1 94.82 50.17 95.09 51.39 95.22 52.63 95.22 53.94 95.1 55.24 94.9" stroke="#aaa" stroke-width="1"/>
  <polyline fill="none" points ="46.87 72.12 44.17 76.31 40.36 79.53 37.62 80.82 34.76 81.8 33.46 82.71 33.83 84.25 37.42 88.34 41.33 92.16 37.78 90.62 34.15 89.28 34.95 89.78 36.15 90.2 39.1 90.89 42.12 91.03 44.97 90.17 46.81 87.87 47.31 88.81 48.02 89.6 48.85 90.18 49.78 90.59 50.84 90.84 51.92 90.96 53.08 90.96 54.23 90.87" stroke="#aaa" stroke-width="1"/>
  <polyline fill="none" points ="46.74 67.83 44.36 72.31 40.81 75.88 38.31 77.22 35.65 78.17 34.41 79.08 34.74 80.6 37.98 84.95 41.54 89.07 38.15 87.14 34.69 85.33 35.46 85.65 36.58 86.04 39.38 86.67 42.24 86.7 45.08 85.48 46.68 82.84 47.09 83.84 47.67 84.73 48.34 85.4 49.12 85.92 49.99 86.3 50.9 86.53 51.87 86.66 52.86 86.69" stroke="#aaa" stroke-width="1"/>
  <polyline fill="none" points ="46.83 63.5 44.74 68.25 41.41 72.2 39.14 73.58 36.66 74.51 35.48 75.44 35.77 76.94 38.71 81.55 41.95 85.97 38.75 83.67 35.53 81.4 36.23 81.53 37.3 81.89 39.92 82.48 42.61 82.4 45.39 80.79 46.78 77.86 47.11 78.88 47.58 79.84 48.1 80.56 48.74 81.19 49.43 81.66 50.17 82.01 50.97 82.25 51.78 82.39" stroke="#aaa" stroke-width="1"/>
  <polyline fill="none" points ="46.8 58.98 44.89 64.03 41.71 68.36 39.59 69.8 37.2 70.74 36.06 71.69 36.32 73.21 39.07 78.12 42.11 82.87 39 80.21 35.92 77.52 36.57 77.5 37.63 77.86 40.16 78.41 42.74 78.25 45.5 76.27 46.76 73.06 47.04 74.11 47.44 75.12 47.88 75.89 48.42 76.6 48.99 77.13 49.62 77.58 50.29 77.9 50.99 78.14" stroke="#aaa" stroke-width="1"/>
  <polyline fill="none" points ="46.81 54.1 44.91 59.53 41.7 64.26 39.58 65.79 37.15 66.77 35.98 67.78 36.25 69.36 38.99 74.64 42.04 79.78 38.87 76.79 35.75 73.77 36.4 73.66 37.49 74.03 40.06 74.59 42.68 74.37 45.52 72.09 46.76 68.6 47.05 69.75 47.45 70.85 47.88 71.71 48.43 72.49 48.99 73.08 49.63 73.59 50.3 73.95 51 74.23" stroke="#aaa" stroke-width="1"/>
  <polyline fill="none" points ="46.83 48.76 44.76 54.67 41.26 59.8 38.95 61.46 36.31 62.53 35.04 63.64 35.32 65.36 38.32 71.1 41.64 76.68 38.2 73.45 34.8 70.18 35.5 70.07 36.68 70.47 39.49 71.08 42.33 70.84 45.42 68.38 46.77 64.59 47.11 65.93 47.6 67.21 48.13 68.18 48.8 69.05 49.49 69.7 50.28 70.22 51.09 70.59 51.94 70.83" stroke="#aaa" stroke-width="1"/>
  <polyline fill="none" points ="46.82 42.95 44.39 49.42 40.35 54.98 37.64 56.82 34.61 58.03 33.14 59.26 33.48 61.19 36.99 67.49 40.87 73.59 36.91 70.17 32.98 66.74 33.8 66.72 35.15 67.18 38.37 67.89 41.65 67.68 45.15 65.14 46.74 61.03 47.21 62.68 47.92 64.24 48.69 65.36 49.66 66.31 50.67 66.97 51.79 67.43 52.95 67.7 54.14 67.82" stroke="#aaa" stroke-width="1"/>
  <polyline fill="none" points ="46.78 36.82 43.85 43.93 39.09 49.92 35.86 51.97 32.29 53.34 30.59 54.72 31 56.93 35.19 63.84 39.82 70.49 35.2 66.94 30.56 63.41 31.56 63.54 33.1 64.06 36.87 64.91 40.72 64.75 44.75 62.21 46.68 57.78 47.34 59.78 48.37 61.61 49.51 62.86 50.9 63.82 52.39 64.43 53.97 64.76 55.61 64.86 57.26 64.77" stroke="#aaa" stroke-width="1"/>
  <polyline fill="none" points ="46.76 30.64 43.29 38.39 37.78 44.81 33.99 47.07 29.86 48.63 27.9 50.16 28.39 52.64 33.32 60.18 38.74 67.4 33.41 63.71 28.04 60.1 29.21 60.38 30.97 60.98 35.32 61.96 39.76 61.87 44.34 59.33 46.64 54.58 47.5 56.89 48.87 58.94 50.41 60.29 52.24 61.23 54.23 61.75 56.27 61.93 58.38 61.85 60.47 61.57" stroke="#aaa" stroke-width="1"/>
  <polyline fill="none" points ="46.76 24.68 42.83 33.03 36.68 39.87 32.43 42.33 27.81 44.03 25.64 45.7 26.19 48.42 31.73 56.55 37.83 64.3 31.9 60.45 25.9 56.72 27.21 57.11 29.17 57.78 34.01 58.87 38.96 58.82 44 56.23 46.62 51.16 47.66 53.76 49.32 55.99 51.22 57.42 53.42 58.34 55.82 58.78 58.27 58.85 60.75 58.63 63.2 58.19" stroke="#aaa" stroke-width="1"/>
  <polyline fill="none" points ="46.72 19.16 42.52 28.03 35.96 35.28 31.42 37.89 26.51 39.7 24.19 41.47 24.78 44.36 30.69 52.99 37.2 61.21 30.87 57.13 24.47 53.18 25.87 53.6 27.96 54.32 33.12 55.48 38.4 55.43 43.77 52.69 46.56 47.32 47.73 50.16 49.6 52.58 51.75 54.1 54.22 55.02 56.91 55.43 59.64 55.43 62.37 55.11 65.06 54.57" stroke="#aaa" stroke-width="1"/>
  <polyline fill="none" points ="46.62 14.26 42.42 23.52 35.79 31.16 31.22 33.86 26.24 35.72 23.88 37.54 24.47 40.51 30.42 49.51 36.97 58.11 30.54 53.72 24.05 49.43 25.46 49.77 27.59 50.5 32.83 51.67 38.18 51.56 43.68 48.55 46.45 42.88 47.66 45.95 49.63 48.57 51.87 50.19 54.46 51.18 57.26 51.6 60.1 51.58 62.92 51.24 65.71 50.66" stroke="#aaa" stroke-width="1"/>
  <polyline fill="none" points ="46.53 10.03 42.63 19.54 36.27 27.55 31.95 30.29 27.17 32.11 24.88 33.94 25.43 36.88 31.04 46.13 37.24 55.01 31.03 50.23 24.81 45.47 26.14 45.6 28.21 46.3 33.26 47.41 38.41 47.19 43.81 43.76 46.37 37.81 47.52 41.06 49.43 43.91 51.56 45.66 54.09 46.77 56.79 47.28 59.54 47.31 62.27 47.01 64.96 46.45" stroke="#aaa" stroke-width="1"/>
</svg>