<?xml version="1.0" encoding="UTF-8"?><svg id="Ebene_1" xmlns="http://www.w3.org/2000/svg" viewBox="0 0 222 222"><polyline points="216.99 .06 224.33 4.31 231.08 9.44 235.55 13.88 239.4 18.84 241.87 22.93 243.97 27.21 245.36 30.37 246.84 33.48 248.15 35.37 250.05 36.6 252.92 36.54 255.63 35.52 260.76 32.55 265.64 29.17 273.94 22.92 282.11 16.51 279.35 21.26 276.71 26.05 275.17 29.02 273.73 32.03 273.14 33.45 272.69 34.93 272.7 35.35 273.06 35.22 273.76 34.35 274.36 33.39 275.28 31.67 276.09 29.9 276.99 27.59 277.74 25.23 278.39 22.57 278.82 19.86" style="fill:none; stroke:#aaa; stroke-miterlimit:10; stroke-width:.5px;"/><polyline points="209.01 .04 216.69 4.65 223.72 10.17 228.4 14.96 232.43 20.31 235.04 24.73 237.26 29.33 238.74 32.74 240.33 36.09 241.73 38.12 243.76 39.45 246.81 39.37 249.68 38.26 255.08 35.05 260.21 31.4 268.91 24.64 277.46 17.71 274.66 22.77 271.97 27.89 270.41 31.06 268.98 34.27 268.4 35.79 267.98 37.36 268.05 37.81 268.45 37.66 269.23 36.71 269.88 35.68 270.87 33.84 271.74 31.93 272.71 29.46 273.52 26.93 274.22 24.08 274.69 21.18" style="fill:none; stroke:#aaa; stroke-miterlimit:10; stroke-width:.5px;"/><polyline points="201.29 .03 209.28 4.93 216.59 10.79 221.48 15.9 225.68 21.57 228.4 26.26 230.74 31.15 232.3 34.78 233.98 38.33 235.45 40.48 237.61 41.89 240.8 41.81 243.82 40.62 249.47 37.2 254.83 33.31 263.9 26.13 272.83 18.75 269.94 24.11 267.18 29.53 265.59 32.88 264.15 36.27 263.58 37.85 263.19 39.49 263.31 39.96 263.76 39.76 264.6 38.74 265.31 37.61 266.36 35.64 267.29 33.6 268.32 30.95 269.17 28.25 269.91 25.21 270.4 22.13" style="fill:none; stroke:#aaa; stroke-miterlimit:10; stroke-width:.5px;"/><polyline points="193.92 .02 202.21 5.14 209.79 11.26 214.85 16.59 219.21 22.51 222.04 27.42 224.47 32.52 226.09 36.31 227.85 40.02 229.38 42.25 231.62 43.73 234.95 43.64 238.08 42.4 243.95 38.82 249.51 34.76 258.93 27.26 268.19 19.55 265.19 25.18 262.32 30.87 260.69 34.35 259.21 37.9 258.64 39.53 258.27 41.21 258.46 41.66 258.92 41.4 259.83 40.27 260.59 39.04 261.71 36.92 262.69 34.72 263.76 31.91 264.64 29.03 265.39 25.82 265.87 22.55" style="fill:none; stroke:#aaa; stroke-miterlimit:10; stroke-width:.5px;"/><polyline points="186.93 0 195.49 5.27 203.32 11.56 208.55 17.04 213.05 23.12 215.97 28.16 218.47 33.41 220.14 37.3 221.94 41.11 223.52 43.42 225.83 44.93 229.25 44.84 232.48 43.57 238.53 39.9 244.27 35.72 253.99 28.01 263.55 20.09 260.4 25.96 257.39 31.89 255.7 35.48 254.16 39.14 253.58 40.79 253.22 42.48 253.49 42.87 253.95 42.54 254.91 41.29 255.73 39.93 256.9 37.65 257.93 35.3 259.02 32.31 259.91 29.26 260.64 25.87 261.07 22.44" style="fill:none; stroke:#aaa; stroke-miterlimit:10; stroke-width:.5px;"/><polyline points="180.25 0 189.07 5.33 197.14 11.72 202.52 17.27 207.15 23.46 210.14 28.57 212.7 33.9 214.4 37.85 216.23 41.72 217.84 44.06 220.18 45.6 223.69 45.52 226.99 44.23 233.2 40.51 239.09 36.28 249.08 28.46 258.91 20.43 255.58 26.49 252.4 32.63 250.63 36.31 249.01 40.05 248.43 41.68 248.06 43.37 248.42 43.64 248.87 43.24 249.88 41.85 250.75 40.36 251.96 37.91 253.02 35.39 254.13 32.23 255.01 29.01 255.69 25.47 256.03 21.89" style="fill:none; stroke:#aaa; stroke-miterlimit:10; stroke-width:.5px;"/><polyline points="173.79 0 182.85 5.35 191.16 11.78 196.67 17.36 201.42 23.59 204.47 28.73 207.08 34.1 208.8 38.07 210.65 41.97 212.27 44.34 214.65 45.89 218.21 45.81 221.57 44.52 227.92 40.79 233.94 36.54 244.19 28.68 254.27 20.6 250.74 26.85 247.36 33.18 245.5 36.91 243.79 40.72 243.19 42.31 242.82 43.96 243.25 44.09 243.7 43.63 244.76 42.08 245.68 40.44 246.93 37.82 248.02 35.12 249.12 31.79 249.97 28.4 250.56 24.71 250.78 20.99" style="fill:none; stroke:#aaa; stroke-miterlimit:10; stroke-width:.5px;"/><polyline points="167.47 0 176.75 5.34 185.3 11.78 190.93 17.35 195.8 23.6 198.91 28.74 201.56 34.12 203.3 38.1 205.15 42.01 206.79 44.39 209.18 45.95 212.79 45.88 216.21 44.59 222.67 40.86 228.83 36.62 239.31 28.76 249.63 20.69 245.88 27.1 242.28 33.59 240.32 37.37 238.52 41.22 237.91 42.77 237.53 44.36 238.03 44.32 238.48 43.79 239.59 42.08 240.56 40.28 241.85 37.48 242.95 34.6 244.02 31.11 244.82 27.55 245.31 23.74 245.36 19.89" style="fill:none; stroke:#aaa; stroke-miterlimit:10; stroke-width:.5px;"/><polyline points="161.22 0 170.73 5.31 179.5 11.75 185.26 17.3 190.24 23.54 193.41 28.67 196.09 34.05 197.84 38.02 199.7 41.93 201.35 44.31 203.74 45.87 207.4 45.81 210.87 44.54 217.45 40.83 223.73 36.6 234.43 28.76 244.99 20.72 241.01 27.25 237.18 33.87 235.13 37.66 233.22 41.53 232.6 43 232.21 44.53 232.77 44.31 233.24 43.7 234.4 41.83 235.41 39.87 236.72 36.91 237.83 33.87 238.87 30.23 239.6 26.52 239.95 22.6 239.81 18.66" style="fill:none; stroke:#aaa; stroke-miterlimit:10; stroke-width:.5px;"/><polyline points="155 0 164.74 5.28 173.74 11.7 179.62 17.22 184.72 23.46 187.93 28.55 190.65 33.93 192.41 37.9 194.28 41.8 195.92 44.18 198.33 45.74 202.02 45.68 205.54 44.42 212.23 40.73 218.63 36.53 229.56 28.73 240.35 20.72 236.14 27.36 232.07 34.09 229.91 37.88 227.91 41.75 227.28 43.14 226.87 44.6 227.48 44.2 227.98 43.51 229.18 41.48 230.24 39.37 231.56 36.26 232.67 33.05 233.67 29.29 234.3 25.44 234.5 21.43 234.13 17.42" style="fill:none; stroke:#aaa; stroke-miterlimit:10; stroke-width:.5px;"/><polyline points="148.82 0 158.77 5.24 168.01 11.65 174.01 17.12 179.21 23.34 182.48 28.42 185.23 33.78 187 37.73 188.87 41.62 190.52 44 192.93 45.56 196.66 45.51 200.22 44.27 207.03 40.6 213.54 36.42 224.7 28.67 235.71 20.71 231.25 27.44 226.95 34.26 224.69 38.05 222.58 41.92 221.95 43.23 221.52 44.61 222.17 44.04 222.7 43.27 223.94 41.09 225.04 38.82 226.38 35.56 227.48 32.21 228.41 28.32 228.94 24.35 228.96 20.25 228.34 16.2" style="fill:none; stroke:#aaa; stroke-miterlimit:10; stroke-width:.5px;"/><polyline points="142.68 0 152.86 5.19 162.32 11.57 168.43 17 173.75 23.2 177.06 28.23 179.85 33.57 181.63 37.5 183.49 41.38 185.14 43.76 187.55 45.3 191.32 45.27 194.92 44.04 201.83 40.41 208.46 36.26 219.83 28.57 231.07 20.67 226.37 27.48 221.81 34.38 219.45 38.16 217.23 42.01 216.59 43.25 216.14 44.54 216.82 43.82 217.39 42.95 218.67 40.64 219.81 38.23 221.15 34.84 222.23 31.35 223.08 27.36 223.49 23.3 223.32 19.12 222.42 15.04" style="fill:none; stroke:#aaa; stroke-miterlimit:10; stroke-width:.5px;"/><polyline points="136.64 0 147.03 5.13 156.72 11.45 162.94 16.82 168.36 22.97 171.71 27.95 174.53 33.25 176.31 37.15 178.17 41 179.82 43.37 182.22 44.9 186.02 44.88 189.65 43.67 196.66 40.09 203.4 35.99 214.98 28.38 226.43 20.56 221.48 27.42 216.66 34.38 214.19 38.13 211.85 41.96 211.21 43.12 210.72 44.33 211.43 43.48 212.03 42.52 213.34 40.08 214.5 37.55 215.83 34.04 216.88 30.44 217.65 26.37 217.92 22.23 217.53 18 216.35 13.93" style="fill:none; stroke:#aaa; stroke-miterlimit:10; stroke-width:.5px;"/><polyline points="130.77 0 141.35 5.04 151.26 11.27 157.58 16.53 163.11 22.61 166.5 27.51 169.33 32.74 171.11 36.58 172.95 40.38 174.59 42.73 176.98 44.24 180.78 44.23 184.44 43.05 191.54 39.54 198.37 35.51 210.14 28.03 221.79 20.36 216.57 27.22 211.48 34.19 208.9 37.9 206.42 41.68 205.76 42.76 205.23 43.88 205.95 42.91 206.57 41.86 207.9 39.31 209.08 36.68 210.39 33.09 211.4 29.4 212.07 25.27 212.17 21.09 211.55 16.83 210.05 12.8" style="fill:none; stroke:#aaa; stroke-miterlimit:10; stroke-width:.5px;"/><polyline points="125.14 .01 135.91 4.9 146.04 10.99 152.44 16.1 158.07 22.04 161.47 26.81 164.31 31.93 166.07 35.68 167.88 39.39 169.5 41.69 171.85 43.18 175.66 43.18 179.33 42.04 186.48 38.63 193.39 34.73 205.33 27.45 217.15 19.98 211.64 26.8 206.26 33.71 203.53 37.35 200.9 41.04 200.23 42.05 199.64 43.06 200.34 41.98 200.99 40.85 202.32 38.22 203.5 35.51 204.78 31.88 205.72 28.13 206.26 23.99 206.18 19.81 205.27 15.56 203.42 11.62" style="fill:none; stroke:#aaa; stroke-miterlimit:10; stroke-width:.5px;"/><polyline points="119.86 .02 130.79 4.69 141.12 10.56 147.59 15.45 153.3 21.19 156.7 25.76 159.54 30.71 161.27 34.32 163.02 37.9 164.6 40.13 166.9 41.57 170.67 41.59 174.33 40.51 181.51 37.25 188.48 33.51 200.54 26.54 212.51 19.38 206.68 26.07 200.96 32.85 198.09 36.37 195.28 39.93 194.57 40.86 193.89 41.74 194.56 40.57 195.22 39.38 196.54 36.71 197.7 33.96 198.92 30.32 199.77 26.57 200.16 22.46 199.85 18.35 198.61 14.14 196.38 10.37" style="fill:none; stroke:#aaa; stroke-miterlimit:10; stroke-width:.5px;"/><polyline points="114.96 .03 126.03 4.42 136.55 9.98 143.06 14.56 148.84 20.02 152.23 24.32 155.04 29.02 156.72 32.44 158.4 35.84 159.92 37.98 162.13 39.34 165.85 39.38 169.46 38.38 176.65 35.33 183.63 31.82 195.79 25.26 207.87 18.52 201.69 24.99 195.6 31.53 192.54 34.89 189.53 38.27 188.75 39.14 187.97 39.86 188.59 38.62 189.23 37.39 190.52 34.73 191.64 31.98 192.78 28.4 193.51 24.73 193.71 20.71 193.15 16.73 191.52 12.63 188.88 9.1" style="fill:none; stroke:#aaa; stroke-miterlimit:10; stroke-width:.5px;"/><polyline points="110.39 .05 121.58 4.09 132.28 9.26 138.8 13.48 144.65 18.58 148.01 22.55 150.78 26.94 152.39 30.12 153.98 33.29 155.42 35.31 157.52 36.58 161.16 36.64 164.72 35.74 171.87 32.93 178.85 29.71 191.08 23.65 203.23 17.44 196.67 23.58 190.18 29.79 186.92 32.95 183.67 36.1 182.8 36.91 181.89 37.47 182.43 36.21 183.05 34.97 184.27 32.36 185.34 29.68 186.37 26.23 186.97 22.68 186.96 18.82 186.13 15.05 184.06 11.12 181.02 7.87" style="fill:none; stroke:#aaa; stroke-miterlimit:10; stroke-width:.5px;"/><polyline points="106.02 .06 117.31 3.73 128.2 8.46 134.71 12.28 140.63 16.98 143.93 20.58 146.67 24.63 148.2 27.54 149.68 30.46 151.04 32.34 153.02 33.5 156.56 33.59 160.04 32.79 167.15 30.26 174.11 27.34 186.38 21.84 198.59 16.21 191.63 21.97 184.72 27.77 181.24 30.71 177.74 33.61 176.76 34.36 175.71 34.78 176.15 33.52 176.73 32.3 177.88 29.79 178.88 27.22 179.79 23.94 180.23 20.57 180 16.9 178.89 13.4 176.36 9.67 172.92 6.75" style="fill:none; stroke:#aaa; stroke-miterlimit:10; stroke-width:.5px;"/><polyline points="101.69 .08 113.09 3.37 124.15 7.66 130.66 11.08 136.64 15.36 139.89 18.59 142.58 22.29 144.03 24.93 145.41 27.59 146.68 29.32 148.53 30.38 151.98 30.48 155.38 29.78 162.43 27.53 169.38 24.93 181.69 19.99 193.95 14.94 186.59 20.29 179.26 25.66 175.55 28.37 171.79 31.02 170.68 31.71 169.5 32 169.82 30.77 170.36 29.59 171.43 27.22 172.35 24.78 173.14 21.71 173.43 18.55 172.97 15.09 171.58 11.88 168.57 8.39 164.77 5.77" style="fill:none; stroke:#aaa; stroke-miterlimit:10; stroke-width:.5px;"/><polyline points="97.24 .1 108.76 3.04 119.99 6.92 126.5 9.97 132.55 13.85 135.75 16.73 138.41 20.11 139.79 22.49 141.06 24.91 142.26 26.51 143.99 27.46 147.35 27.59 150.68 26.98 157.69 24.98 164.62 22.67 176.98 18.26 189.3 13.74 181.56 18.69 173.83 23.64 169.88 26.14 165.89 28.54 164.64 29.19 163.33 29.38 163.54 28.2 164.03 27.07 165.02 24.84 165.86 22.55 166.54 19.69 166.68 16.75 165.99 13.49 164.36 10.58 160.91 7.33 156.77 4.99" style="fill:none; stroke:#aaa; stroke-miterlimit:10; stroke-width:.5px;"/><polyline points="92.53 .11 104.18 2.77 115.59 6.29 122.12 9.03 128.24 12.58 131.4 15.17 134.05 18.28 135.36 20.44 136.55 22.65 137.68 24.13 139.31 25 142.6 25.13 145.88 24.6 152.88 22.82 159.81 20.75 172.25 16.78 184.66 12.72 176.56 17.32 168.46 21.9 164.29 24.22 160.07 26.42 158.69 27.01 157.27 27.14 157.38 26.02 157.83 24.94 158.75 22.84 159.52 20.68 160.1 18 160.11 15.26 159.2 12.17 157.37 9.53 153.51 6.49 149.07 4.37" style="fill:none; stroke:#aaa; stroke-miterlimit:10; stroke-width:.5px;"/><polyline points="87.43 .12 99.24 2.57 110.84 5.82 117.42 8.34 123.63 11.63 126.76 14 129.41 16.9 130.68 18.89 131.81 20.96 132.89 22.35 134.45 23.15 137.7 23.29 140.95 22.82 147.97 21.2 154.93 19.31 167.49 15.67 180.02 11.95 171.59 16.28 163.15 20.59 158.79 22.77 154.37 24.82 152.89 25.37 151.37 25.45 151.41 24.37 151.83 23.33 152.69 21.33 153.41 19.28 153.91 16.73 153.81 14.14 152.71 11.19 150.71 8.75 146.49 5.88 141.77 3.93" style="fill:none; stroke:#aaa; stroke-miterlimit:10; stroke-width:.5px;"/><polyline points="81.99 .13 93.97 2.43 105.78 5.5 112.42 7.86 118.73 10.98 121.86 13.19 124.52 15.95 125.76 17.83 126.85 19.79 127.9 21.11 129.41 21.87 132.65 22.02 135.89 21.59 142.96 20.08 149.99 18.31 162.69 14.9 175.38 11.41 166.66 15.56 157.92 19.69 153.39 21.77 148.8 23.71 147.23 24.24 145.63 24.29 145.6 23.24 146 22.22 146.83 20.29 147.52 18.31 147.96 15.86 147.77 13.38 146.5 10.51 144.36 8.21 139.84 5.47 134.88 3.62" style="fill:none; stroke:#aaa; stroke-miterlimit:10; stroke-width:.5px;"/><polyline points="76.36 .14 88.54 2.32 100.56 5.25 107.27 7.5 113.68 10.48 116.82 12.58 119.5 15.23 120.73 17.02 121.78 18.9 122.81 20.18 124.29 20.9 127.53 21.06 130.77 20.65 137.91 19.23 145 17.56 157.88 14.32 170.74 11.01 161.74 15.03 152.72 19.01 148.03 21.02 143.29 22.88 141.64 23.39 139.97 23.41 139.89 22.39 140.28 21.38 141.08 19.51 141.73 17.58 142.12 15.19 141.86 12.79 140.43 9.99 138.16 7.8 133.36 5.15 128.16 3.38" style="fill:none; stroke:#aaa; stroke-miterlimit:10; stroke-width:.5px;"/><polyline points="70.74 .14 83.11 2.22 95.33 5.01 102.13 7.14 108.64 10 111.78 11.98 114.49 14.52 115.69 16.23 116.72 18.03 117.73 19.27 119.16 19.96 122.41 20.12 125.65 19.74 132.86 18.4 140.02 16.82 153.07 13.76 166.1 10.62 156.82 14.48 147.52 18.29 142.67 20.22 137.77 21.99 136.04 22.47 134.3 22.47 134.18 21.48 134.55 20.49 135.32 18.67 135.95 16.81 136.28 14.49 135.94 12.18 134.35 9.46 131.95 7.38 126.88 4.83 121.43 3.15" style="fill:none; stroke:#aaa; stroke-miterlimit:10; stroke-width:.5px;"/><polyline points="65.25 .15 77.8 2.1 90.23 4.73 97.09 6.73 103.7 9.43 106.84 11.29 109.56 13.7 110.74 15.3 111.73 17.01 112.71 18.2 114.1 18.85 117.34 19.01 120.58 18.67 127.84 17.42 135.07 15.94 148.27 13.08 161.46 10.15 151.88 13.8 142.29 17.4 137.27 19.22 132.21 20.88 130.39 21.33 128.57 21.3 128.39 20.36 128.74 19.39 129.48 17.66 130.07 15.87 130.34 13.65 129.91 11.47 128.15 8.84 125.62 6.9 120.25 4.49 114.56 2.91" style="fill:none; stroke:#aaa; stroke-miterlimit:10; stroke-width:.5px;"/><polyline points="59.92 .16 72.65 1.96 85.27 4.4 92.2 6.24 98.89 8.74 102.02 10.44 104.76 12.7 105.91 14.18 106.85 15.78 107.79 16.9 109.13 17.5 112.35 17.66 115.57 17.36 122.87 16.22 130.14 14.88 143.49 12.25 156.82 9.56 146.93 12.95 137.03 16.3 131.83 17.98 126.59 19.51 124.68 19.92 122.77 19.87 122.52 18.99 122.84 18.05 123.53 16.43 124.08 14.75 124.28 12.66 123.76 10.62 121.79 8.14 119.14 6.36 113.46 4.11 107.51 2.64" style="fill:none; stroke:#aaa; stroke-miterlimit:10; stroke-width:.5px;"/><polyline points="54.73 .17 67.63 1.8 80.43 4.02 87.41 5.69 94.2 7.97 97.3 9.51 100.05 11.58 101.15 12.93 102.04 14.4 102.94 15.44 104.21 15.98 107.4 16.15 110.6 15.89 117.93 14.87 125.24 13.67 138.72 11.3 152.18 8.88 141.97 11.98 131.75 15.02 126.36 16.56 120.93 17.93 118.91 18.3 116.9 18.23 116.58 17.43 116.86 16.54 117.5 15.04 118 13.48 118.12 11.54 117.5 9.69 115.32 7.38 112.55 5.78 106.55 3.71 100.34 2.37" style="fill:none; stroke:#aaa; stroke-miterlimit:10; stroke-width:.5px;"/><polyline points="49.54 .18 62.61 1.64 75.61 3.65 82.64 5.14 89.51 7.21 92.58 8.57 95.35 10.46 96.41 11.67 97.25 13.01 98.1 13.98 99.3 14.46 102.47 14.63 105.63 14.4 112.99 13.51 120.34 12.45 133.95 10.34 147.54 8.19 137.01 10.98 126.47 13.72 120.88 15.1 115.26 16.32 113.14 16.64 111.03 16.56 110.63 15.85 110.87 15 111.46 13.63 111.91 12.21 111.94 10.41 111.22 8.76 108.83 6.63 105.94 5.21 99.63 3.33 93.15 2.12" style="fill:none; stroke:#aaa; stroke-miterlimit:10; stroke-width:.5px;"/><polyline points="44.21 .18 57.46 1.51 70.65 3.33 77.74 4.68 84.7 6.56 87.76 7.78 90.54 9.51 91.56 10.59 92.36 11.83 93.18 12.73 94.32 13.16 97.47 13.33 100.62 13.14 108.02 12.34 115.42 11.4 129.16 9.52 142.9 7.59 132.06 10.12 121.21 12.59 115.44 13.84 109.64 14.93 107.43 15.21 105.22 15.12 104.76 14.49 104.97 13.68 105.51 12.42 105.91 11.12 105.86 9.44 105.06 7.96 102.47 6 99.45 4.72 92.85 3 86.1 1.91" style="fill:none; stroke:#aaa; stroke-miterlimit:10; stroke-width:.5px;"/><polyline points="38.54 .19 51.99 1.43 65.38 3.12 72.56 4.38 79.62 6.14 82.68 7.27 85.5 8.9 86.49 9.9 87.27 11.07 88.07 11.92 89.18 12.33 92.33 12.49 95.48 12.32 102.96 11.59 110.43 10.72 124.35 8.98 138.26 7.2 127.15 9.56 116.02 11.86 110.08 13.02 104.13 14.03 101.85 14.29 99.56 14.19 99.06 13.61 99.24 12.82 99.76 11.64 100.13 10.41 100.01 8.81 99.15 7.44 96.39 5.59 93.26 4.4 86.39 2.79 79.4 1.76" style="fill:none; stroke:#aaa; stroke-miterlimit:10; stroke-width:.5px;"/><polyline points="32.36 .19 46.03 1.41 59.65 3.09 66.94 4.33 74.12 6.07 77.22 7.19 80.08 8.81 81.08 9.79 81.86 10.96 82.67 11.81 83.78 12.2 86.97 12.37 90.17 12.2 97.76 11.49 105.34 10.63 119.48 8.91 133.62 7.15 122.28 9.48 110.92 11.76 104.87 12.91 98.8 13.9 96.47 14.16 94.14 14.05 93.63 13.47 93.82 12.68 94.33 11.5 94.69 10.28 94.54 8.68 93.64 7.33 90.76 5.49 87.52 4.32 80.43 2.73 73.23 1.71" style="fill:none; stroke:#aaa; stroke-miterlimit:10; stroke-width:.5px;"/><polyline points="25.49 .18 39.42 1.5 53.29 3.29 60.73 4.62 68.05 6.48 71.24 7.68 74.16 9.4 75.21 10.46 76.02 11.7 76.87 12.59 78.04 13.02 81.32 13.19 84.6 13 92.36 12.23 100.12 11.3 114.55 9.45 128.98 7.56 117.47 10.06 105.95 12.51 99.83 13.74 93.7 14.81 91.37 15.08 89.04 14.96 88.56 14.32 88.78 13.49 89.33 12.24 89.72 10.92 89.58 9.22 88.66 7.77 85.72 5.81 82.4 4.55 75.14 2.85 67.76 1.78" style="fill:none; stroke:#aaa; stroke-miterlimit:10; stroke-width:.5px;"/><polyline points="17.8 .17 32.03 1.69 46.2 3.76 53.84 5.3 61.32 7.45 64.65 8.85 67.66 10.82 68.79 12.06 69.7 13.46 70.62 14.47 71.9 14.96 75.33 15.14 78.76 14.91 86.76 13.99 94.74 12.9 109.55 10.73 124.34 8.5 112.74 11.42 101.13 14.27 95.01 15.69 88.87 16.94 86.59 17.26 84.31 17.14 83.91 16.36 84.2 15.45 84.83 14 85.28 12.48 85.22 10.55 84.3 8.85 81.4 6.61 78.01 5.14 70.66 3.21 63.14 1.97" style="fill:none; stroke:#aaa; stroke-miterlimit:10; stroke-width:.5px;"/><polyline points="9.27 .15 23.85 2.01 38.33 4.54 46.23 6.44 53.91 9.05 57.43 10.79 60.56 13.16 61.82 14.69 62.85 16.37 63.89 17.55 65.34 18.16 68.97 18.35 72.61 18.05 80.92 16.88 89.21 15.5 104.46 12.8 119.7 10.02 108.09 13.59 96.47 17.1 90.42 18.84 84.32 20.4 82.14 20.79 79.97 20.66 79.73 19.66 80.11 18.62 80.87 16.86 81.42 15.03 81.46 12.74 80.61 10.61 77.81 7.94 74.37 6.13 67 3.79 59.39 2.31" style="fill:none; stroke:#aaa; stroke-miterlimit:10; stroke-width:.5px;"/><polyline points="0 .12 14.98 2.46 29.8 5.62 38 8.02 45.89 11.25 49.66 13.48 52.92 16.37 54.35 18.3 55.55 20.35 56.74 21.77 58.42 22.54 62.31 22.73 66.2 22.32 74.88 20.81 83.53 19.03 99.3 15.58 115.06 12.05 103.51 16.5 91.94 20.89 86.01 23.06 80.03 25.03 77.99 25.51 75.97 25.38 75.93 24.12 76.43 22.88 77.36 20.7 78.05 18.44 78.24 15.67 77.48 13 74.87 9.77 71.39 7.47 64.07 4.6 56.42 2.77" style="fill:none; stroke:#aaa; stroke-miterlimit:10; stroke-width:.5px;"/></svg>