<?xml version="1.0" encoding="UTF-8"?>
<svg id="Ebene_1" xmlns="http://www.w3.org/2000/svg" width="222" height="222" viewBox="0 0 222 222">
  <polyline points="216.25 19 210.93 17.34 205.62 15.61 209.88 16.11 214.14 16.62" fill="none" stroke="#aaa" stroke-miterlimit="10" stroke-width=".5"/>
  <polyline points="218.84 9.62 217.68 11.32 217.36 13.34 217.8 15.07 218.66 16.64" fill="none" stroke="#aaa" stroke-miterlimit="10" stroke-width=".5"/>
  <polyline points="213.42 9.67 212.22 11.37 211.87 13.41 212.31 15.15 213.18 16.73 214.07 17.94 214.98 19.12 215.31 19.72 214.89 20.09 212.68 19.72 210.51 19.13 204.98 17.46 199.46 15.74 203.64 16.2 207.82 16.69 211.19 17.11 214.56 17.54" fill="none" stroke="#aaa" stroke-miterlimit="10" stroke-width=".5"/>
  <polyline points="214.83 6.08 211.1 7.6 207.79 9.85 206.54 11.59 206.17 13.7 206.63 15.48 207.52 17.1 208.43 18.35 209.38 19.56 209.71 20.17 209.27 20.55 206.98 20.17 204.73 19.57 199.01 17.86 193.31 16.09 197.4 16.54 201.5 17.02 204.85 17.42 208.19 17.85 210.87 18.2 213.55 18.57 215.65 18.86 217.75 19.16" fill="none" stroke="#aaa" stroke-miterlimit="10" stroke-width=".5"/>
  <polyline points="209.1 6.25 205.25 7.85 201.84 10.22 200.56 12.06 200.19 14.27 200.68 16.15 201.62 17.86 202.58 19.17 203.58 20.44 203.94 21.07 203.52 21.48 201.18 21.07 198.89 20.44 193.01 18.63 187.15 16.76 191.21 17.22 195.26 17.7 198.61 18.11 201.96 18.55 204.68 18.91 207.4 19.28 209.56 19.59 211.73 19.9 213.42 20.14 215.1 20.38 216.39 20.55 217.68 20.7" fill="none" stroke="#aaa" stroke-miterlimit="10" stroke-width=".5"/>
  <polyline points="219 2.9 210.93 4.33 203.04 6.5 199.05 8.24 195.56 10.79 194.24 12.8 193.91 15.16 194.45 17.19 195.46 19.04 196.49 20.45 197.58 21.82 197.98 22.46 197.63 22.93 195.28 22.47 192.98 21.78 186.98 19.81 180.99 17.78 185.04 18.27 189.08 18.77 192.46 19.21 195.84 19.66 198.61 20.05 201.38 20.45 203.62 20.78 205.86 21.11 207.63 21.37 209.4 21.63 210.79 21.83 212.16 22.01 213.22 22.13 214.27 22.21 215.07 22.25 215.86 22.24" fill="none" stroke="#aaa" stroke-miterlimit="10" stroke-width=".5"/>
  <polyline points="213.21 2.9 204.86 4.46 196.71 6.84 192.58 8.74 189.01 11.53 187.67 13.75 187.38 16.32 187.98 18.54 189.09 20.57 190.22 22.12 191.41 23.62 191.87 24.28 191.63 24.82 189.3 24.29 187.01 23.53 180.92 21.33 174.83 19.09 178.9 19.62 182.96 20.16 186.38 20.63 189.8 21.13 192.64 21.55 195.47 21.98 197.79 22.34 200.11 22.7 201.98 23 203.84 23.29 205.32 23.51 206.79 23.71 207.93 23.86 209.08 23.97 209.96 24.03 210.85 24.05" fill="none" stroke="#aaa" stroke-miterlimit="10" stroke-width=".5"/>
  <polyline points="207.26 2.9 198.62 4.61 190.21 7.22 185.94 9.33 182.3 12.37 180.94 14.85 180.7 17.65 181.38 20.09 182.59 22.32 183.83 24.04 185.15 25.67 185.66 26.36 185.57 26.98 183.26 26.36 181.01 25.52 174.84 23.07 168.67 20.58 172.77 21.15 176.86 21.74 180.34 22.26 183.8 22.8 186.71 23.26 189.62 23.73 192.02 24.13 194.42 24.53 196.38 24.85 198.34 25.18 199.91 25.43 201.47 25.67 202.72 25.84 203.96 25.98 204.93 26.07 205.9 26.11" fill="none" stroke="#aaa" stroke-miterlimit="10" stroke-width=".5"/>
  <polyline points="201.28 2.9 192.34 4.76 183.68 7.61 179.25 9.93 175.55 13.25 174.18 15.98 173.98 19.03 174.74 21.69 176.06 24.14 177.41 26.02 178.87 27.8 179.44 28.53 179.49 29.22 177.22 28.5 175.01 27.59 168.76 24.86 162.51 22.12 166.65 22.74 170.78 23.38 174.31 23.95 177.84 24.53 180.82 25.03 183.8 25.54 186.28 25.98 188.77 26.42 190.81 26.78 192.86 27.13 194.52 27.42 196.18 27.69 197.51 27.88 198.84 28.06 199.9 28.17 200.96 28.24" fill="none" stroke="#aaa" stroke-miterlimit="10" stroke-width=".5"/>
  <polyline points="195.38 2.9 186.15 4.91 177.23 7.98 172.66 10.5 168.89 14.08 167.5 17.05 167.35 20.33 168.18 23.21 169.6 25.86 171.05 27.89 172.63 29.81 173.26 30.58 173.44 31.33 171.2 30.53 169.02 29.54 162.69 26.56 156.36 23.58 160.52 24.24 164.68 24.93 168.26 25.53 171.83 26.15 174.87 26.69 177.91 27.24 180.47 27.71 183.02 28.18 185.15 28.57 187.28 28.96 189.02 29.28 190.77 29.57 192.18 29.8 193.6 30 194.74 30.14 195.88 30.23" fill="none" stroke="#aaa" stroke-miterlimit="10" stroke-width=".5"/>
  <polyline points="189.67 2.9 180.16 5.04 170.99 8.3 166.28 10.99 162.43 14.79 161.02 17.96 160.9 21.44 161.79 24.5 163.3 27.33 164.84 29.49 166.53 31.53 167.2 32.33 167.48 33.13 165.25 32.26 163.07 31.21 156.64 28.02 150.2 24.83 154.38 25.53 158.55 26.24 162.16 26.88 165.77 27.52 168.86 28.09 171.95 28.67 174.57 29.17 177.19 29.67 179.38 30.09 181.58 30.5 183.4 30.84 185.22 31.16 186.71 31.41 188.2 31.64 189.42 31.8 190.63 31.93" fill="none" stroke="#aaa" stroke-miterlimit="10" stroke-width=".5"/>
  <polyline points="184.24 2.9 174.47 5.13 165.05 8.54 160.2 11.36 156.27 15.32 154.83 18.64 154.72 22.27 155.66 25.47 157.23 28.42 158.83 30.68 160.6 32.81 161.3 33.65 161.65 34.48 159.38 33.56 157.19 32.46 150.62 29.11 144.04 25.78 148.22 26.49 152.39 27.22 156.02 27.87 159.65 28.53 162.77 29.12 165.9 29.71 168.56 30.22 171.22 30.74 173.48 31.18 175.72 31.61 177.61 31.97 179.49 32.31 181.04 32.58 182.6 32.84 183.88 33.02 185.15 33.17" fill="none" stroke="#aaa" stroke-miterlimit="10" stroke-width=".5"/>
  <polyline points="179.15 2.9 169.13 5.19 159.47 8.68 154.5 11.57 150.47 15.63 148.99 19.03 148.88 22.75 149.83 26.03 151.44 29.05 153.09 31.37 154.89 33.56 155.61 34.41 155.95 35.27 153.63 34.32 151.37 33.2 144.64 29.77 137.88 26.36 142.03 27.06 146.18 27.78 149.8 28.43 153.42 29.09 156.55 29.67 159.68 30.26 162.38 30.78 165.06 31.3 167.35 31.74 169.64 32.18 171.57 32.55 173.49 32.91 175.1 33.2 176.71 33.47 178.04 33.67 179.37 33.85" fill="none" stroke="#aaa" stroke-miterlimit="10" stroke-width=".5"/>
  <polyline points="174.43 2.9 164.18 5.2 154.29 8.71 149.21 11.61 145.06 15.69 143.53 19.11 143.4 22.84 144.35 26.14 145.96 29.18 147.61 31.51 149.42 33.7 150.14 34.57 150.43 35.43 148 34.49 145.64 33.36 138.69 29.94 131.72 26.52 135.82 27.2 139.91 27.89 143.5 28.51 147.09 29.15 150.21 29.72 153.33 30.29 156.03 30.8 158.73 31.31 161.03 31.75 163.34 32.19 165.3 32.56 167.25 32.92 168.9 33.22 170.54 33.5 171.91 33.72 173.28 33.92" fill="none" stroke="#aaa" stroke-miterlimit="10" stroke-width=".5"/>
  <polyline points="170.07 2.9 159.61 5.18 149.5 8.64 144.32 11.49 140.03 15.52 138.45 18.87 138.27 22.57 139.19 25.82 140.79 28.81 142.41 31.1 144.18 33.27 144.88 34.14 145.05 34.98 142.48 34.09 139.98 32.98 132.78 29.63 125.57 26.28 129.58 26.91 133.6 27.56 137.14 28.15 140.67 28.75 143.76 29.28 146.85 29.83 149.54 30.31 152.22 30.8 154.53 31.22 156.84 31.64 158.82 32.01 160.79 32.36 162.46 32.66 164.12 32.95 165.52 33.18 166.92 33.39" fill="none" stroke="#aaa" stroke-miterlimit="10" stroke-width=".5"/>
  <polyline points="166.03 2.9 155.38 5.11 145.05 8.48 139.77 11.22 135.34 15.14 133.7 18.36 133.44 21.96 134.32 25.11 135.87 28 137.45 30.22 139.15 32.33 139.82 33.2 139.82 34 137.07 33.18 134.4 32.1 126.9 28.91 119.41 25.68 123.33 26.26 127.24 26.85 130.71 27.39 134.17 27.94 137.22 28.43 140.26 28.93 142.92 29.38 145.57 29.84 147.87 30.23 150.17 30.64 152.15 30.98 154.12 31.32 155.8 31.61 157.48 31.9 158.9 32.13 160.32 32.34" fill="none" stroke="#aaa" stroke-miterlimit="10" stroke-width=".5"/>
  <polyline points="162.21 2.9 151.38 5.02 140.84 8.25 135.48 10.85 130.9 14.61 129.18 17.65 128.84 21.12 129.66 24.13 131.15 26.88 132.66 28.99 134.27 31.01 134.89 31.87 134.69 32.63 131.74 31.89 128.86 30.86 121.05 27.87 113.25 24.82 117.06 25.33 120.86 25.86 124.24 26.34 127.62 26.83 130.6 27.28 133.58 27.73 136.2 28.14 138.82 28.56 141.1 28.92 143.37 29.29 145.34 29.62 147.31 29.94 148.99 30.22 150.68 30.49 152.11 30.71 153.54 30.93" fill="none" stroke="#aaa" stroke-miterlimit="10" stroke-width=".5"/>
  <polyline points="158.52 2.9 147.52 4.91 136.78 7.97 131.33 10.42 126.59 13.99 124.81 16.83 124.37 20.13 125.12 22.98 126.53 25.57 127.96 27.56 129.47 29.48 130.03 30.36 129.61 31.04 126.44 30.38 123.35 29.42 115.21 26.65 107.09 23.8 110.77 24.25 114.45 24.71 117.74 25.14 121.02 25.57 123.94 25.97 126.85 26.37 129.42 26.74 131.98 27.11 134.23 27.44 136.48 27.78 138.43 28.07 140.39 28.37 142.07 28.63 143.76 28.89 145.2 29.1 146.64 29.32" fill="none" stroke="#aaa" stroke-miterlimit="10" stroke-width=".5"/>
  <polyline points="154.86 2.9 143.68 4.8 132.73 7.69 127.21 9.98 122.3 13.36 120.46 15.98 119.92 19.13 120.6 21.8 121.93 24.23 123.29 26.1 124.69 27.91 125.18 28.82 124.54 29.4 121.16 28.84 117.84 27.94 109.38 25.39 100.93 22.76 104.49 23.15 108.05 23.55 111.24 23.92 114.42 24.3 117.26 24.65 120.1 25 122.62 25.33 125.14 25.66 127.35 25.95 129.57 26.26 131.51 26.53 133.44 26.8 135.13 27.04 136.81 27.27 138.25 27.48 139.7 27.68" fill="none" stroke="#aaa" stroke-miterlimit="10" stroke-width=".5"/>
  <polyline points="151.12 2.89 139.77 4.7 128.61 7.43 123 9.58 117.94 12.77 116.03 15.2 115.39 18.2 116.01 20.72 117.27 23 118.55 24.75 119.85 26.47 120.26 27.42 119.44 27.9 115.85 27.4 112.32 26.57 103.54 24.23 94.78 21.79 98.21 22.12 101.65 22.47 104.75 22.8 107.84 23.13 110.61 23.43 113.38 23.75 115.85 24.04 118.31 24.33 120.5 24.6 122.68 24.87 124.6 25.11 126.52 25.36 128.2 25.57 129.88 25.79 131.34 25.99 132.79 26.18" fill="none" stroke="#aaa" stroke-miterlimit="10" stroke-width=".5"/>
  <polyline points="147.23 2.89 135.69 4.61 124.33 7.22 118.63 9.24 113.42 12.28 111.46 14.54 110.73 17.42 111.29 19.81 112.49 21.96 113.71 23.62 114.93 25.26 115.22 26.25 114.28 26.63 110.5 26.2 106.76 25.42 97.68 23.26 88.62 20.97 91.95 21.27 95.28 21.58 98.29 21.86 101.3 22.15 104.01 22.42 106.72 22.7 109.14 22.96 111.56 23.22 113.72 23.46 115.88 23.7 117.79 23.92 119.69 24.14 121.37 24.34 123.05 24.54 124.51 24.72 125.97 24.9" fill="none" stroke="#aaa" stroke-miterlimit="10" stroke-width=".5"/>
  <polyline points="143.18 2.89 131.44 4.55 119.87 7.05 114.06 8.98 108.72 11.9 106.71 14.04 105.89 16.82 106.41 19.11 107.56 21.17 108.74 22.75 109.89 24.33 110.05 25.34 109.04 25.66 105.08 25.27 101.17 24.55 91.81 22.51 82.46 20.35 85.7 20.62 88.93 20.89 91.87 21.15 94.81 21.41 97.47 21.65 100.12 21.9 102.5 22.13 104.89 22.37 107.02 22.58 109.16 22.81 111.06 23.01 112.95 23.21 114.63 23.39 116.31 23.58 117.79 23.75 119.26 23.91" fill="none" stroke="#aaa" stroke-miterlimit="10" stroke-width=".5"/>
  <polyline points="138.96 2.89 127.02 4.5 115.23 6.93 109.32 8.8 103.84 11.63 101.79 13.67 100.9 16.39 101.38 18.61 102.5 20.6 103.64 22.12 104.74 23.66 104.79 24.68 103.73 24.96 99.62 24.61 95.55 23.92 85.92 21.98 76.3 19.91 79.46 20.15 82.61 20.4 85.48 20.63 88.35 20.87 90.96 21.09 93.57 21.32 95.92 21.53 98.27 21.75 100.39 21.95 102.5 22.15 104.39 22.34 106.28 22.53 107.96 22.7 109.64 22.87 111.13 23.03 112.62 23.19" fill="none" stroke="#aaa" stroke-miterlimit="10" stroke-width=".5"/>
  <polyline points="134.62 2.89 122.47 4.47 110.46 6.85 104.45 8.67 98.85 11.44 96.75 13.41 95.8 16.08 96.25 18.25 97.35 20.19 98.46 21.67 99.53 23.18 99.47 24.2 98.37 24.47 94.11 24.14 89.89 23.47 80.01 21.61 70.14 19.61 73.23 19.83 76.31 20.06 79.13 20.27 81.95 20.49 84.51 20.7 87.08 20.91 89.4 21.1 91.73 21.31 93.83 21.49 95.93 21.68 97.82 21.86 99.7 22.03 101.39 22.2 103.07 22.36 104.57 22.51 106.07 22.66" fill="none" stroke="#aaa" stroke-miterlimit="10" stroke-width=".5"/>
  <polyline points="130.22 2.88 117.85 4.45 105.62 6.78 99.51 8.57 93.77 11.29 91.64 13.21 90.62 15.85 91.05 17.98 92.13 19.88 93.23 21.33 94.26 22.81 94.11 23.84 92.97 24.09 88.59 23.78 84.23 23.13 74.1 21.33 63.99 19.39 67 19.59 70.01 19.8 72.78 20 75.54 20.2 78.07 20.4 80.59 20.59 82.89 20.78 85.19 20.96 87.27 21.14 89.36 21.32 91.24 21.48 93.12 21.65 94.81 21.8 96.5 21.96 98.01 22.1 99.52 22.24" fill="none" stroke="#aaa" stroke-miterlimit="10" stroke-width=".5"/>
  <polyline points="125.75 2.88 113.17 4.43 100.72 6.74 94.49 8.5 88.63 11.19 86.46 13.06 85.38 15.68 85.79 17.78 86.86 19.65 87.94 21.08 88.96 22.55 88.73 23.57 87.55 23.81 83.04 23.52 78.55 22.89 68.18 21.13 57.83 19.23 60.78 19.42 63.73 19.62 66.45 19.81 69.17 20 71.66 20.18 74.15 20.36 76.42 20.54 78.7 20.71 80.77 20.88 82.84 21.05 84.72 21.2 86.59 21.36 88.29 21.51 89.98 21.66 91.5 21.79 93.02 21.93" fill="none" stroke="#aaa" stroke-miterlimit="10" stroke-width=".5"/>
  <polyline points="121.21 2.88 108.41 4.42 95.73 6.71 89.39 8.46 83.41 11.13 81.2 12.98 80.07 15.58 80.47 17.66 81.53 19.52 82.61 20.93 83.6 22.39 83.31 23.42 82.1 23.65 77.46 23.38 72.85 22.76 62.26 21.03 51.67 19.16 54.56 19.34 57.46 19.52 60.13 19.7 62.8 19.88 65.25 20.05 67.71 20.23 69.96 20.39 72.21 20.56 74.27 20.71 76.33 20.88 78.2 21.02 80.07 21.18 81.77 21.32 83.47 21.46 85 21.59 86.53 21.72" fill="none" stroke="#aaa" stroke-miterlimit="10" stroke-width=".5"/>
  <polyline points="116.59 2.88 103.57 4.42 90.66 6.71 84.21 8.45 78.11 11.12 75.86 12.95 74.69 15.56 75.08 17.63 76.14 19.48 77.21 20.9 78.2 22.35 77.86 23.39 76.62 23.62 71.87 23.35 67.14 22.74 56.32 21.02 45.51 19.17 48.35 19.34 51.2 19.52 53.83 19.68 56.46 19.86 58.88 20.02 61.31 20.19 63.54 20.34 65.77 20.51 67.82 20.66 69.86 20.81 71.73 20.95 73.6 21.1 75.3 21.24 77 21.37 78.55 21.5 80.09 21.63" fill="none" stroke="#aaa" stroke-miterlimit="10" stroke-width=".5"/>
  <polyline points="111.89 2.88 98.64 4.42 85.51 6.73 78.95 8.48 72.73 11.15 70.44 12.99 69.23 15.61 69.62 17.69 70.68 19.55 71.76 20.96 72.75 22.43 72.37 23.47 71.1 23.7 66.24 23.44 61.41 22.83 50.38 21.12 39.35 19.26 42.15 19.43 44.94 19.6 47.54 19.76 50.13 19.92 52.53 20.08 54.93 20.24 57.14 20.4 59.35 20.55 61.39 20.7 63.43 20.85 65.29 20.99 67.16 21.13 68.87 21.26 70.57 21.4 72.12 21.52 73.67 21.65" fill="none" stroke="#aaa" stroke-miterlimit="10" stroke-width=".5"/>
  <polyline points="107.13 2.88 93.65 4.44 80.28 6.77 73.61 8.53 67.28 11.23 64.95 13.08 63.71 15.73 64.09 17.83 65.17 19.7 66.26 21.13 67.25 22.61 66.85 23.67 65.55 23.9 60.6 23.64 55.67 23.02 44.43 21.3 33.2 19.43 35.95 19.59 38.69 19.76 41.25 19.91 43.81 20.08 46.18 20.23 48.55 20.39 50.75 20.54 52.94 20.69 54.97 20.83 57 20.98 58.86 21.11 60.72 21.25 62.43 21.38 64.14 21.52 65.7 21.64 67.27 21.76" fill="none" stroke="#aaa" stroke-miterlimit="10" stroke-width=".5"/>
  <polyline points="102.31 2.88 88.59 4.46 74.99 6.82 68.2 8.61 61.76 11.35 59.39 13.22 58.12 15.9 58.51 18.04 59.6 19.93 60.71 21.38 61.72 22.88 61.3 23.95 59.98 24.19 54.93 23.92 49.91 23.3 38.47 21.56 27.04 19.67 29.75 19.82 32.46 19.99 34.99 20.14 37.52 20.3 39.87 20.45 42.22 20.6 44.4 20.75 46.58 20.9 48.6 21.04 50.62 21.19 52.48 21.32 54.34 21.46 56.06 21.59 57.77 21.72 59.34 21.84 60.91 21.97" fill="none" stroke="#aaa" stroke-miterlimit="10" stroke-width=".5"/>
  <polyline points="97.44 2.88 83.49 4.49 69.66 6.89 62.76 8.71 56.2 11.49 53.79 13.39 52.5 16.12 52.9 18.29 54.01 20.22 55.13 21.69 56.16 23.21 55.73 24.3 54.39 24.54 49.26 24.27 44.15 23.64 32.5 21.87 20.88 19.95 23.55 20.1 26.22 20.26 28.72 20.41 31.22 20.57 33.55 20.72 35.88 20.87 38.04 21.02 40.21 21.16 42.22 21.3 44.23 21.44 46.09 21.58 47.95 21.71 49.67 21.84 51.39 21.97 52.97 22.1 54.55 22.22" fill="none" stroke="#aaa" stroke-miterlimit="10" stroke-width=".5"/>
  <polyline points="92.58 2.88 78.39 4.52 64.33 6.96 57.3 8.81 50.64 11.64 48.18 13.57 46.88 16.35 47.28 18.55 48.41 20.51 49.55 22.01 50.59 23.56 50.16 24.67 48.79 24.91 43.58 24.64 38.38 24 26.54 22.19 14.72 20.24 17.35 20.39 19.99 20.55 22.45 20.7 24.92 20.85 27.22 21 29.52 21.15 31.67 21.29 33.82 21.44 35.82 21.57 37.82 21.72 39.68 21.85 41.53 21.98 43.25 22.11 44.97 22.24 46.56 22.36 48.15 22.49" fill="none" stroke="#aaa" stroke-miterlimit="10" stroke-width=".5"/>
  <polyline points="87.73 2.88 73.31 4.54 59.01 7.02 51.87 8.9 45.1 11.77 42.6 13.73 41.27 16.55 41.68 18.79 42.82 20.78 43.98 22.3 45.04 23.87 44.59 25 43.21 25.25 37.9 24.97 32.62 24.32 20.58 22.49 8.56 20.51 11.16 20.66 13.75 20.81 16.18 20.96 18.61 21.11 20.89 21.26 23.17 21.4 25.3 21.54 27.43 21.69 29.42 21.82 31.41 21.96 33.26 22.09 35.11 22.23 36.83 22.35 38.55 22.48 40.14 22.6 41.73 22.73" fill="none" stroke="#aaa" stroke-miterlimit="10" stroke-width=".5"/>
  <polyline points="82.94 2.88 68.28 4.56 53.75 7.07 46.5 8.97 39.61 11.88 37.07 13.86 35.72 16.71 36.12 18.98 37.28 20.99 38.46 22.52 39.52 24.11 39.06 25.26 37.65 25.5 32.25 25.23 26.87 24.57 14.63 22.73 2.41 20.72 4.95 20.87 7.5 21.02 9.9 21.16 12.29 21.31 14.55 21.45 16.8 21.6 18.9 21.73 21.01 21.87 22.99 22.01 24.96 22.14 26.8 22.27 28.64 22.4 30.36 22.53 32.07 22.65 33.67 22.77 35.26 22.89" fill="none" stroke="#aaa" stroke-miterlimit="10" stroke-width=".5"/>
</svg>