<?xml version="1.0" encoding="UTF-8"?>
<svg id="Ebene_1" xmlns="http://www.w3.org/2000/svg" width="222" height="222" viewBox="0 0 222 222">
  <polyline points="201.98 38.06 202.02 38.06 202.05 38.08 202.08 38.12 202.09 38.16 202.09 43.81 202.09 49.47 206.71 48.58 211.34 47.7 211.34 36.54 211.34 25.38 206.69 26.28 202.04 27.18 202 27.18 201.96 27.16 201.93 27.12 201.92 27.07 201.92 21.57 201.92 16.07 196.45 13.9 190.98 11.73 181.54 13.54 172.11 15.36 177.46 17.49 182.81 19.62 182.85 19.66 182.87 19.72 182.87 25.19 182.87 30.67 187.71 29.74 192.54 28.8 192.59 28.8 192.63 28.82 192.66 28.86 192.67 28.9 192.67 34.38 192.67 39.86 197.32 38.96 201.96 38.06 201.97 38.06 201.98 38.06" fill="none" stroke="#aaa" stroke-miterlimit="10" stroke-width=".5"/>
  <polyline points="201.98 49.69 201.95 49.69 201.92 49.67 201.89 49.63 201.88 49.59 201.88 43.94 201.88 38.29 197.23 39.19 192.58 40.09 192.54 40.09 192.5 40.06 192.47 40.03 192.46 39.99 192.46 34.51 192.46 29.03 187.62 29.96 182.79 30.9 182.74 30.9 182.7 30.88 182.68 30.84 182.67 30.8 182.67 25.29 182.67 19.79 177.18 17.6 171.7 15.42 171.65 15.38 171.63 15.32 171.66 15.26 171.72 15.22 181.35 13.37 190.97 11.52 191 11.52 191.03 11.53 196.55 13.71 202.06 15.9 202.11 15.94 202.13 16 202.13 21.47 202.13 26.95 206.78 26.05 211.42 25.15 211.47 25.15 211.51 25.17 211.54 25.21 211.55 25.25 211.55 36.52 211.55 47.78 211.52 47.85 211.46 47.88 206.73 48.79 202 49.69 201.99 49.69 201.98 49.69" fill="none" stroke="#aaa" stroke-miterlimit="10" stroke-width=".5"/>
  <polyline points="211.44 25.36 211.42 25.36 211.41 25.35 206.69 23.48 201.98 21.62 201.93 21.56 201.93 21.48 201.98 21.42 202.06 21.42 206.77 23.29 211.48 25.16 211.54 25.21 211.54 25.29 211.5 25.34 211.44 25.36" fill="none" stroke="#aaa" stroke-miterlimit="10" stroke-width=".5"/>
  <polyline points="182.77 19.82 182.7 19.8 182.67 19.74 182.68 19.66 182.75 19.61 192.38 17.75 202 15.9 202.08 15.91 202.12 15.98 202.11 16.06 202.04 16.1 192.42 17.96 182.79 19.82 182.78 19.82 182.77 19.82" fill="none" stroke="#aaa" stroke-miterlimit="10" stroke-width=".5"/>
  <polyline points="182.77 30.9 182.75 30.9 182.73 30.89 177.22 28.69 171.7 26.48 171.65 26.44 171.63 26.38 171.63 20.85 171.63 15.33 171.66 15.25 171.74 15.22 171.81 15.25 171.84 15.33 171.84 20.82 171.84 26.31 177.32 28.51 182.81 30.7 182.86 30.76 182.87 30.84 182.83 30.88 182.77 30.9" fill="none" stroke="#aaa" stroke-miterlimit="10" stroke-width=".5"/>
  <polyline points="201.98 49.69 201.96 49.69 201.94 49.69 196.43 47.51 190.92 45.32 190.87 45.29 190.85 45.23 190.85 42.29 190.85 39.35 190.88 39.27 190.95 39.24 191.03 39.27 191.06 39.35 191.06 42.25 191.06 45.16 196.54 47.33 202.02 49.49 202.08 49.55 202.08 49.63 202.04 49.68 201.98 49.69" fill="none" stroke="#aaa" stroke-miterlimit="10" stroke-width=".5"/>
  <polyline points="192.56 40.09 192.54 40.09 192.53 40.08 187.01 37.89 181.49 35.69 181.44 35.65 181.42 35.59 181.42 32.95 181.42 30.3 181.45 30.23 181.53 30.2 181.6 30.23 181.63 30.3 181.63 32.91 181.63 35.52 187.12 37.71 192.6 39.89 192.66 39.94 192.66 40.02 192.62 40.07 192.56 40.09" fill="none" stroke="#aaa" stroke-miterlimit="10" stroke-width=".5"/>
</svg>