<?xml version="1.0" encoding="UTF-8"?>
<svg id="Ebene_1" xmlns="http://www.w3.org/2000/svg" width="222" height="222" viewBox="0 0 222 222">
  <polyline points="171.28 82.66 171.28 82.66 171.28 82.65 171.28 82.65 171.28 82.64 171.28 82.64 171.28 82.63 171.28 82.62 171.29 82.62 171.83 81.49 172.37 80.36 172.91 79.24 173.45 78.11 173.99 76.98 174.54 75.86 175.08 74.73 175.62 73.6 176.73 71.69 178.13 69.98 179.78 68.47 181.63 67.22 183.73 66.21 185.93 65.47 188.35 65 190.81 64.84 194.69 65.17 198.46 66.16 201.94 67.74 205.12 69.85 207.84 72.38 210.09 75.33 211.72 78.57 212.67 82.06 212.81 83.25 212.86 84.45 212.82 85.62 212.69 86.78 212.47 87.91 212.16 89.02 211.77 90.09 211.28 91.14 210.74 92.26 210.21 93.37 209.67 94.49 209.13 95.61 208.6 96.73 208.06 97.85 207.52 98.97 206.98 100.08 206.97 100.1 206.96 100.12 206.94 100.13 206.93 100.14 206.91 100.14 206.89 100.14 206.87 100.14 206.85 100.13 206.83 100.12 206.81 100.11 206.8 100.09 206.79 100.07 206.79 100.05 206.79 100.03 206.79 100.01 206.8 99.99 207.33 98.88 207.87 97.76 208.41 96.64 208.95 95.52 209.48 94.4 210.02 93.28 210.56 92.16 211.1 91.04 211.57 90.02 211.97 88.95 212.27 87.86 212.49 86.74 212.62 85.6 212.65 84.45 212.6 83.27 212.46 82.1 211.52 78.64 209.91 75.43 207.68 72.51 204.99 70 201.84 67.91 198.39 66.36 194.66 65.37 190.81 65.05 188.38 65.21 185.99 65.67 183.81 66.39 181.75 67.4 179.91 68.63 178.28 70.11 176.9 71.81 175.81 73.69 175.26 74.82 174.72 75.95 174.18 77.07 173.64 78.2 173.1 79.33 172.56 80.45 172.02 81.58 171.47 82.71 171.46 82.73 171.45 82.74 171.43 82.75 171.42 82.76 171.4 82.77 171.38 82.77 171.36 82.76 171.34 82.76 171.32 82.75 171.31 82.74 171.3 82.73 171.29 82.72 171.29 82.71 171.28 82.69 171.28 82.68 171.28 82.66" fill="none" stroke="#aaa" stroke-miterlimit="10" stroke-width=".5"/>
  <polyline points="186.21 84.48 186.23 84.43 186.27 84.39 186.35 84.38 186.41 84.43 189.88 88.01 194.69 89.32 195.47 89.28 196.24 89.16 196.32 89.18 196.36 89.24 196.34 89.32 196.28 89.37 195.49 89.48 194.69 89.52 189.77 88.18 186.22 84.53 186.22 84.51 186.21 84.48" fill="none" stroke="#aaa" stroke-miterlimit="10" stroke-width=".5"/>
  <polyline points="181.16 91.58 181.15 91.59 181.14 91.59 181.12 91.59 181.11 91.59 181.1 91.59 181.09 91.6 181.07 91.6 181.06 91.6 181.07 91.6 181.09 91.6 181.1 91.59 181.11 91.59 181.12 91.59 181.14 91.59 181.15 91.59 181.16 91.58 181.55 93.02 182.22 94.36 183.15 95.58 184.27 96.62 185.59 97.49 187.02 98.14 188.58 98.55 190.18 98.68 190.98 98.64 191.78 98.52 192.52 98.33 193.25 98.06 193.91 97.73 194.54 97.33 195.1 96.86 195.6 96.34 195.99 95.83 196.32 95.28 196.58 94.7 196.78 94.1 196.92 93.48 196.98 92.84 196.98 92.18 196.91 91.53 196.52 90.09 195.85 88.75 194.92 87.53 193.8 86.49 192.48 85.62 191.05 84.97 189.49 84.56 187.89 84.43 187.09 84.47 186.29 84.59 185.55 84.79 184.83 85.05 184.16 85.38 183.53 85.79 182.97 86.25 182.47 86.77 182.08 87.28 181.75 87.83 181.49 88.41 181.29 89.01 181.15 89.63 181.09 90.27 181.09 90.93 181.16 91.58" fill="none" stroke="#aaa" stroke-miterlimit="10" stroke-width=".5"/>
  <polyline points="180.87 90.57 180.9 90.03 180.97 89.5 181.08 88.98 181.24 88.47 181.44 87.98 181.69 87.52 181.98 87.06 182.31 86.64 182.83 86.1 183.41 85.62 184.05 85.21 184.74 84.86 185.48 84.59 186.25 84.39 187.07 84.27 187.89 84.22 189.53 84.36 191.12 84.78 192.59 85.44 193.93 86.34 195.08 87.4 196.03 88.65 196.71 90.02 197.11 91.49 197.18 92.17 197.19 92.86 197.12 93.51 196.98 94.16 196.78 94.78 196.5 95.38 196.16 95.94 195.76 96.47 195.24 97.01 194.66 97.49 194.02 97.91 193.33 98.25 192.59 98.52 191.82 98.72 191.01 98.84 190.18 98.89 188.54 98.75 186.95 98.33 185.49 97.67 184.14 96.77 182.99 95.71 182.04 94.46 181.36 93.09 180.96 91.62 180.94 91.48 180.92 91.35 180.91 91.22 180.9 91.09 180.89 90.96 180.88 90.83 180.88 90.7 180.87 90.57" fill="none" stroke="#aaa" stroke-miterlimit="10" stroke-width=".5"/>
  <polyline points="208.06 91.45 208.05 91.45 208.03 91.45 208.02 91.45 208.01 91.45 207.99 91.46 207.98 91.46 207.97 91.46 207.96 91.46 207.02 88 205.41 84.8 203.18 81.87 200.48 79.37 197.33 77.28 193.88 75.72 190.15 74.74 186.31 74.42 184.38 74.52 182.46 74.81 180.67 75.27 178.93 75.91 177.33 76.71 175.82 77.68 174.47 78.79 173.25 80.05 172.32 81.28 171.53 82.61 170.89 83.99 170.42 85.44 170.09 86.94 169.94 88.47 169.94 90.06 170.11 91.65 171.05 95.11 172.66 98.31 174.89 101.24 177.59 103.74 180.74 105.83 184.19 107.39 187.92 108.37 191.77 108.69 193.7 108.59 195.61 108.3 197.4 107.84 199.14 107.2 200.74 106.4 202.25 105.43 203.6 104.32 204.82 103.06 205.75 101.83 206.54 100.5 207.18 99.12 207.65 97.67 207.97 96.17 208.13 94.64 208.13 93.05 207.96 91.46 207.97 91.46 207.98 91.46 207.99 91.46 208.01 91.45 208.02 91.45 208.03 91.45 208.05 91.45 208.06 91.45" fill="none" stroke="#aaa" stroke-miterlimit="10" stroke-width=".5"/>
  <polyline points="169.71 89.21 169.77 87.93 169.93 86.67 170.2 85.45 170.57 84.25 171.05 83.1 171.63 81.99 172.32 80.92 173.1 79.92 174.33 78.64 175.7 77.51 177.22 76.53 178.85 75.73 180.6 75.07 182.42 74.61 184.35 74.31 186.3 74.21 190.19 74.53 193.95 75.53 197.43 77.1 200.62 79.21 203.34 81.74 205.59 84.7 207.22 87.93 208.16 91.43 208.33 93.04 208.34 94.65 208.18 96.2 207.85 97.73 207.37 99.2 206.73 100.6 205.92 101.94 204.97 103.19 203.74 104.47 202.37 105.6 200.85 106.58 199.23 107.38 197.47 108.04 195.65 108.5 193.72 108.8 191.77 108.9 187.89 108.57 184.12 107.58 180.64 106.01 177.45 103.9 174.73 101.37 172.48 98.41 170.85 95.17 169.91 91.68 169.86 91.37 169.82 91.06 169.79 90.75 169.76 90.44 169.74 90.13 169.72 89.82 169.72 89.51 169.71 89.21" fill="none" stroke="#aaa" stroke-miterlimit="10" stroke-width=".5"/>
</svg>