<?xml version="1.0" encoding="UTF-8"?>
<svg id="Ebene_1" xmlns="http://www.w3.org/2000/svg" width="222" height="222" viewBox="0 0 222 222">
  <polyline points="129.44 35.05 129.43 35.08 129.41 35.12 129.38 35.14 129.33 35.15 122.43 35.15 115.53 35.15 116.43 39.76 117.32 44.36 124.24 44.36 131.16 44.36 131.22 44.39 131.26 44.45 132.4 50.35 133.54 56.25 138.97 56.25 144.41 56.25 143.27 50.39 142.14 44.53 142.14 44.49 142.16 44.45 142.2 44.42 142.24 44.41 149.14 44.41 156.04 44.41 155.15 39.8 154.25 35.2 147.33 35.2 140.42 35.2 140.35 35.18 140.31 35.12 139.18 29.22 138.04 23.32 132.6 23.32 127.16 23.32 128.3 29.17 129.43 35.03 129.43 35.04 129.44 35.05" fill="none" stroke="#aaa" stroke-miterlimit="10" stroke-width=".5"/>
  <polyline points="115.3 35.05 115.31 35.02 115.33 34.98 115.36 34.96 115.41 34.95 122.31 34.95 129.21 34.95 128.07 29.09 126.94 23.23 126.94 23.19 126.96 23.15 126.99 23.12 127.04 23.11 132.58 23.11 138.12 23.11 138.19 23.13 138.23 23.19 139.36 29.09 140.5 34.99 147.42 34.99 154.34 34.99 154.41 35.02 154.44 35.08 155.35 39.79 156.27 44.49 156.27 44.54 156.24 44.58 156.21 44.61 156.16 44.62 149.27 44.62 142.37 44.62 143.5 50.48 144.64 56.33 144.64 56.38 144.61 56.42 144.58 56.45 144.54 56.46 138.99 56.46 133.45 56.46 133.38 56.43 133.35 56.37 132.21 50.47 131.07 44.57 124.15 44.57 117.23 44.57 117.17 44.55 117.13 44.49 116.22 39.78 115.31 35.07 115.31 35.06 115.3 35.05" fill="none" stroke="#aaa" stroke-miterlimit="10" stroke-width=".5"/>
  <polyline points="154.24 35.1 154.24 35.08 154.24 35.06 156.44 29.53 158.63 24.01 158.67 23.96 158.74 23.94 158.8 23.97 158.83 24.02 159.74 28.75 160.66 33.47 160.66 33.5 160.65 33.53 158.46 39.04 156.26 44.55 156.21 44.61 156.13 44.61 156.07 44.55 156.07 44.47 158.26 38.98 160.45 33.48 159.57 28.94 158.69 24.41 156.56 29.77 154.44 35.13 154.38 35.19 154.3 35.19 154.25 35.15 154.24 35.1" fill="none" stroke="#aaa" stroke-miterlimit="10" stroke-width=".5"/>
  <polyline points="140.31 35.1 140.31 35.08 140.32 35.06 142.51 29.53 144.71 24.01 144.75 23.96 144.81 23.94 151.77 23.94 158.73 23.94 158.8 23.97 158.83 24.04 158.8 24.12 158.73 24.15 151.8 24.15 144.88 24.15 142.69 29.64 140.51 35.13 140.46 35.19 140.38 35.19 140.33 35.15 140.31 35.1" fill="none" stroke="#aaa" stroke-miterlimit="10" stroke-width=".5"/>
  <polyline points="126.93 23.21 126.94 23.19 126.94 23.17 129.14 17.65 131.33 12.12 131.37 12.07 131.43 12.06 136.97 12.06 142.51 12.06 142.58 12.08 142.61 12.14 143.76 18.08 144.91 24.02 144.89 24.1 144.83 24.15 144.75 24.13 144.7 24.06 143.57 18.16 142.43 12.26 136.96 12.26 131.5 12.26 129.32 17.76 127.13 23.25 127.08 23.31 127 23.31 126.95 23.27 126.93 23.21" fill="none" stroke="#aaa" stroke-miterlimit="10" stroke-width=".5"/>
  <polyline points="138.02 23.21 138.02 23.19 138.03 23.17 140.22 17.65 142.42 12.12 142.47 12.07 142.55 12.06 142.61 12.12 142.61 12.2 140.41 17.72 138.22 23.25 138.16 23.31 138.09 23.31 138.04 23.27 138.02 23.21" fill="none" stroke="#aaa" stroke-miterlimit="10" stroke-width=".5"/>
  <polyline points="144.43 56.35 144.43 56.33 144.44 56.31 146.63 50.81 148.82 45.31 148.74 44.92 148.67 44.53 148.68 44.46 148.75 44.41 148.83 44.43 148.87 44.49 148.95 44.9 149.03 45.3 149.03 45.33 149.02 45.36 146.83 50.88 144.63 56.39 144.58 56.45 144.5 56.45 144.45 56.41 144.43 56.35" fill="none" stroke="#aaa" stroke-miterlimit="10" stroke-width=".5"/>
  <polyline points="115.3 35.05 115.31 35.03 115.31 35.01 117.51 29.48 119.7 23.95 119.74 23.9 119.8 23.88 123.49 23.88 127.19 23.88 127.26 23.91 127.29 23.99 127.26 24.06 127.19 24.09 123.53 24.09 119.87 24.09 117.69 29.59 115.5 35.09 115.45 35.15 115.37 35.15 115.32 35.11 115.3 35.05" fill="none" stroke="#aaa" stroke-miterlimit="10" stroke-width=".5"/>
</svg>