<?xml version="1.0" encoding="UTF-8"?>
<svg id="Ebene_1" xmlns="http://www.w3.org/2000/svg" width="222" height="222" viewBox="0 0 222 222">
  <polyline points="218.35 25.72 214.24 22.67 210.03 19.76" fill="none" stroke="#aaa" stroke-miterlimit="10" stroke-width=".5"/>
  <polyline points="213.07 10.9 212.21 13.87 212.43 16.96 213.46 19.77 215.02 22.33 216.64 24.33 218.46 26.15" fill="none" stroke="#aaa" stroke-miterlimit="10" stroke-width=".5"/>
  <polyline points="213.35 5.21 209.64 7.82 206.86 11.37 205.97 14.47 206.21 17.69 207.28 20.62 208.91 23.29 210.6 25.38 212.49 27.28 213.46 28.09 214.49 28.75 213.54 27.74 212.44 26.83 208.2 23.65 203.86 20.62 211.09 22.25 218.31 23.93" fill="none" stroke="#aaa" stroke-miterlimit="10" stroke-width=".5"/>
  <polyline points="207.66 5.36 203.83 8.03 200.95 11.68 200.02 14.87 200.25 18.19 201.36 21.2 203.03 23.94 204.76 26.09 206.71 28.04 207.69 28.88 208.75 29.56 207.74 28.53 206.59 27.59 202.19 24.32 197.68 21.2 205.18 22.88 212.67 24.61" fill="none" stroke="#aaa" stroke-miterlimit="10" stroke-width=".5"/>
  <polyline points="217.97 .12 209.9 2.23 202.22 5.44 198.27 8.16 195.28 11.88 194.31 15.11 194.53 18.49 195.65 21.55 197.34 24.34 199.1 26.52 201.07 28.51 202.05 29.35 203.1 30.05 202.01 29 200.79 28.04 196.2 24.73 191.5 21.55 199.26 23.26 207.01 25.01 212.54 26.29 218.08 27.54" fill="none" stroke="#aaa" stroke-miterlimit="10" stroke-width=".5"/>
  <polyline points="213.17 .12 204.87 2.24 196.95 5.49 192.88 8.22 189.78 11.98 188.76 15.24 188.96 18.65 190.08 21.74 191.79 24.55 193.56 26.75 195.54 28.76 196.51 29.59 197.52 30.31 196.32 29.27 195.02 28.29 190.22 24.95 185.32 21.74 193.34 23.45 201.33 25.22 207.01 26.5 212.69 27.75" fill="none" stroke="#aaa" stroke-miterlimit="10" stroke-width=".5"/>
  <polyline points="208.46 .12 199.94 2.25 191.78 5.51 187.61 8.25 184.39 12.03 183.32 15.29 183.49 18.72 184.61 21.82 186.32 24.65 188.09 26.86 190.08 28.87 191.02 29.7 191.99 30.44 190.66 29.39 189.27 28.4 184.25 25.06 179.15 21.83 187.4 23.54 195.64 25.3 201.47 26.58 207.29 27.83 211.21 28.62 215.15 29.29" fill="none" stroke="#aaa" stroke-miterlimit="10" stroke-width=".5"/>
  <polyline points="203.81 .12 195.06 2.25 186.68 5.52 182.4 8.25 179.05 12.04 177.93 15.3 178.08 18.75 179.18 21.86 180.89 24.68 182.67 26.89 184.65 28.91 185.56 29.73 186.48 30.48 185.03 29.44 183.54 28.45 178.29 25.1 172.97 21.86 181.47 23.56 189.95 25.32 195.91 26.58 201.87 27.83 205.85 28.62 209.85 29.28 212.43 29.55 215.01 29.53 216.81 29.2 218.49 28.47" fill="none" stroke="#aaa" stroke-miterlimit="10" stroke-width=".5"/>
  <polyline points="199.19 .12 190.22 2.25 181.61 5.52 177.21 8.24 173.75 12.04 172.57 15.29 172.69 18.75 173.78 21.86 175.49 24.69 177.26 26.89 179.23 28.92 180.11 29.72 180.98 30.48 179.4 29.46 177.81 28.45 172.34 25.11 166.79 21.87 175.53 23.55 184.26 25.3 190.35 26.56 196.44 27.8 200.49 28.57 204.54 29.22 207.13 29.48 209.73 29.45 211.53 29.1 213.2 28.35 214.76 27.17 216.15 25.79" fill="none" stroke="#aaa" stroke-miterlimit="10" stroke-width=".5"/>
  <polyline points="194.59 .12 185.4 2.25 176.56 5.51 172.05 8.22 168.47 12.03 167.24 15.27 167.32 18.73 168.4 21.84 170.11 24.67 171.88 26.87 173.83 28.89 174.69 29.68 175.5 30.46 173.79 29.46 172.09 28.43 166.38 25.1 160.61 21.86 169.59 23.52 178.55 25.26 184.77 26.5 191 27.74 195.1 28.5 199.2 29.14 201.81 29.39 204.41 29.35 206.21 28.98 207.88 28.21 209.45 27.01 210.85 25.6 212.72 23.5 214.58 21.38" fill="none" stroke="#aaa" stroke-miterlimit="10" stroke-width=".5"/>
  <polyline points="190.03 .12 180.62 2.24 171.55 5.5 166.93 8.19 163.22 12.01 161.94 15.23 161.99 18.69 163.06 21.8 164.76 24.61 166.52 26.81 168.46 28.83 169.29 29.61 170.02 30.39 168.19 29.4 166.37 28.37 160.43 25.05 154.44 21.81 163.65 23.46 172.85 25.18 179.2 26.41 185.55 27.63 189.69 28.38 193.85 29.01 196.46 29.25 199.07 29.19 200.87 28.81 202.53 28.02 204.11 26.79 205.53 25.37 207.46 23.23 209.4 21.08 212.35 18 215.44 15.03" fill="none" stroke="#aaa" stroke-miterlimit="10" stroke-width=".5"/>
  <polyline points="185.53 .12 175.91 2.23 166.61 5.46 161.89 8.13 158.06 11.92 156.72 15.09 156.72 18.54 157.78 21.62 159.46 24.41 161.21 26.58 163.13 28.59 163.93 29.37 164.58 30.15 162.61 29.2 160.67 28.17 154.49 24.9 148.26 21.69 157.71 23.32 167.13 25.02 173.61 26.23 180.07 27.43 184.26 28.17 188.46 28.79 191.08 29.02 193.68 28.95 195.47 28.55 197.12 27.75 198.71 26.5 200.14 25.06 202.13 22.89 204.15 20.72 207.25 17.59 210.51 14.59" fill="none" stroke="#aaa" stroke-miterlimit="10" stroke-width=".5"/>
  <polyline points="181.17 .12 171.33 2.2 161.81 5.4 156.99 8.01 153.02 11.76 151.62 14.87 151.58 18.28 152.61 21.32 154.27 24.07 156 26.2 157.88 28.19 158.66 28.96 159.2 29.74 157.08 28.83 155 27.8 148.56 24.61 142.08 21.47 151.75 23.05 161.4 24.72 167.98 25.89 174.55 27.08 178.77 27.8 183.01 28.4 185.61 28.62 188.2 28.53 189.97 28.13 191.59 27.32 193.19 26.05 194.63 24.61 196.68 22.42 198.77 20.25 202.03 17.1 205.45 14.09" fill="none" stroke="#aaa" stroke-miterlimit="10" stroke-width=".5"/>
  <polyline points="176.99 .12 166.95 2.15 157.22 5.28 152.29 7.82 148.19 11.49 146.73 14.51 146.62 17.86 147.61 20.82 149.24 23.5 150.92 25.58 152.76 27.53 153.49 28.28 153.89 29.05 151.6 28.2 149.37 27.19 142.65 24.11 135.9 21.06 145.78 22.58 155.64 24.2 162.31 25.33 168.98 26.48 173.21 27.18 177.45 27.76 180.02 27.96 182.59 27.87 184.32 27.45 185.91 26.65 187.49 25.38 188.94 23.95 191.06 21.75 193.22 19.6 196.65 16.44 200.25 13.45" fill="none" stroke="#aaa" stroke-miterlimit="10" stroke-width=".5"/>
  <polyline points="173.06 .12 162.84 2.09 152.89 5.1 147.88 7.54 143.62 11.09 142.09 13.96 141.91 17.21 142.85 20.07 144.42 22.64 146.04 24.64 147.8 26.51 148.49 27.26 148.7 28 146.22 27.22 143.79 26.25 136.76 23.33 129.73 20.41 139.79 21.85 149.84 23.38 156.58 24.46 163.32 25.56 167.53 26.22 171.77 26.77 174.29 26.96 176.79 26.86 178.48 26.44 180.01 25.65 181.57 24.39 183.02 22.99 185.19 20.82 187.43 18.7 191.06 15.58 194.85 12.64" fill="none" stroke="#aaa" stroke-miterlimit="10" stroke-width=".5"/>
  <polyline points="169.42 .12 159.03 1.99 148.87 4.86 143.78 7.14 139.36 10.52 137.76 13.2 137.48 16.3 138.35 19.01 139.84 21.43 141.37 23.32 143.02 25.1 143.66 25.84 143.63 26.53 140.93 25.84 138.28 24.92 130.91 22.21 123.55 19.48 133.78 20.81 144 22.24 150.78 23.24 157.55 24.27 161.73 24.88 165.92 25.4 168.36 25.56 170.79 25.46 172.39 25.05 173.86 24.28 175.38 23.06 176.81 21.71 179.04 19.6 181.36 17.56 185.19 14.52 189.19 11.67" fill="none" stroke="#aaa" stroke-miterlimit="10" stroke-width=".5"/>
  <polyline points="166.02 .12 155.47 1.87 145.12 4.54 139.94 6.65 135.36 9.8 133.69 12.25 133.29 15.18 134.07 17.69 135.46 19.93 136.89 21.68 138.4 23.35 138.98 24.1 138.67 24.7 135.72 24.11 132.81 23.26 125.09 20.81 117.37 18.3 127.75 19.5 138.11 20.8 144.91 21.71 151.71 22.65 155.82 23.21 159.94 23.69 162.28 23.83 164.6 23.73 166.11 23.34 167.48 22.61 168.96 21.43 170.37 20.16 172.66 18.14 175.05 16.21 179.11 13.29 183.33 10.58" fill="none" stroke="#aaa" stroke-miterlimit="10" stroke-width=".5"/>
  <polyline points="162.77 .11 152.06 1.73 141.53 4.19 136.27 6.11 131.52 9.01 129.77 11.19 129.24 13.91 129.92 16.22 131.2 18.26 132.52 19.85 133.88 21.39 134.37 22.17 133.77 22.65 130.56 22.17 127.38 21.4 119.28 19.23 111.19 16.98 121.71 18.03 132.2 19.19 139 20 145.8 20.85 149.83 21.35 153.87 21.78 156.08 21.91 158.29 21.81 159.69 21.44 160.97 20.76 162.39 19.65 163.77 18.47 166.14 16.56 168.61 14.76 172.9 11.99 177.34 9.46" fill="none" stroke="#aaa" stroke-miterlimit="10" stroke-width=".5"/>
  <polyline points="159.55 .11 148.69 1.59 137.96 3.83 132.63 5.56 127.7 8.2 125.9 10.11 125.23 12.63 125.8 14.72 126.97 16.55 128.17 17.98 129.37 19.39 129.71 20.24 128.89 20.57 125.4 20.18 121.95 19.5 113.48 17.6 105.02 15.61 115.65 16.53 126.28 17.54 133.07 18.25 139.86 19 143.81 19.44 147.75 19.82 149.85 19.93 151.94 19.82 153.23 19.48 154.41 18.85 155.78 17.81 157.13 16.73 159.57 14.94 162.11 13.29 166.66 10.7 171.33 8.36" fill="none" stroke="#aaa" stroke-miterlimit="10" stroke-width=".5"/>
  <polyline points="156.24 .11 145.21 1.46 134.3 3.49 128.88 5.05 123.79 7.44 121.94 9.11 121.12 11.43 121.6 13.32 122.66 14.97 123.75 16.25 124.81 17.53 124.89 18.4 123.96 18.62 120.22 18.31 116.51 17.72 107.67 16.08 98.84 14.32 109.61 15.11 120.36 15.99 127.16 16.6 133.95 17.25 137.81 17.63 141.68 17.95 143.67 18.04 145.64 17.92 146.83 17.6 147.91 17.01 149.24 16.03 150.57 15.04 153.08 13.38 155.71 11.87 160.5 9.48 165.4 7.33" fill="none" stroke="#aaa" stroke-miterlimit="10" stroke-width=".5"/>
  <polyline points="152.73 .1 141.53 1.34 130.42 3.2 124.91 4.62 119.67 6.79 117.78 8.27 116.81 10.42 117.21 12.13 118.18 13.62 119.18 14.78 120.12 15.96 119.94 16.8 118.95 16.98 114.98 16.73 111.02 16.21 101.84 14.77 92.66 13.23 103.57 13.91 114.47 14.67 121.28 15.21 128.09 15.78 131.9 16.1 135.7 16.37 137.59 16.44 139.47 16.32 140.57 16 141.58 15.45 142.88 14.53 144.2 13.63 146.8 12.07 149.5 10.69 154.53 8.46 159.67 6.48" fill="none" stroke="#aaa" stroke-miterlimit="10" stroke-width=".5"/>
  <polyline points="148.93 .1 137.54 1.26 126.24 2.99 120.62 4.29 115.24 6.31 113.32 7.64 112.23 9.66 112.57 11.25 113.47 12.62 114.39 13.68 115.24 14.78 114.86 15.59 113.81 15.74 109.63 15.55 105.47 15.08 95.97 13.8 86.48 12.4 97.56 13 108.62 13.69 115.48 14.16 122.33 14.67 126.1 14.95 129.87 15.19 131.69 15.24 133.5 15.11 134.54 14.81 135.49 14.29 136.77 13.41 138.09 12.56 140.78 11.09 143.56 9.8 148.82 7.71 154.17 5.85" fill="none" stroke="#aaa" stroke-miterlimit="10" stroke-width=".5"/>
  <polyline points="144.88 .1 133.29 1.2 121.77 2.84 116.05 4.07 110.54 5.98 108.58 7.21 107.39 9.13 107.68 10.64 108.54 11.92 109.41 12.92 110.19 13.97 109.66 14.75 108.57 14.89 104.21 14.73 99.87 14.3 90.08 13.12 80.31 11.83 91.56 12.38 102.81 13.01 109.73 13.44 116.65 13.9 120.41 14.16 124.17 14.37 125.95 14.41 127.71 14.28 128.71 13.98 129.62 13.48 130.9 12.63 132.22 11.82 135 10.41 137.88 9.18 143.35 7.18 148.91 5.41" fill="none" stroke="#aaa" stroke-miterlimit="10" stroke-width=".5"/>
  <polyline points="140.69 .1 128.9 1.15 117.17 2.73 111.34 3.9 105.7 5.73 103.71 6.88 102.43 8.73 102.68 10.17 103.5 11.4 104.34 12.34 105.06 13.35 104.41 14.1 103.26 14.24 98.74 14.1 94.23 13.71 84.18 12.61 74.13 11.4 85.58 11.91 97.02 12.49 104.02 12.89 111.02 13.32 114.78 13.56 118.54 13.75 120.29 13.78 122.02 13.64 122.98 13.35 123.86 12.86 125.15 12.03 126.49 11.26 129.36 9.88 132.33 8.7 138.02 6.76 143.79 5.06" fill="none" stroke="#aaa" stroke-miterlimit="10" stroke-width=".5"/>
  <polyline points="136.51 .09 124.51 1.11 112.57 2.62 106.63 3.74 100.87 5.48 98.84 6.56 97.47 8.34 97.68 9.71 98.47 10.88 99.26 11.78 99.94 12.75 99.16 13.47 97.95 13.61 93.27 13.49 88.6 13.13 78.27 12.11 67.95 10.98 79.59 11.45 91.23 11.99 98.31 12.36 105.38 12.75 109.15 12.97 112.91 13.14 114.62 13.16 116.32 13.02 117.25 12.73 118.1 12.25 119.4 11.44 120.75 10.7 123.72 9.37 126.78 8.24 132.69 6.37 138.67 4.72" fill="none" stroke="#aaa" stroke-miterlimit="10" stroke-width=".5"/>
  <polyline points="132.42 .09 120.22 1.06 108.08 2.48 102.03 3.54 96.13 5.18 94.07 6.19 92.61 7.88 92.77 9.17 93.52 10.27 94.26 11.11 94.87 12.03 93.96 12.72 92.69 12.86 87.84 12.77 82.99 12.44 72.38 11.51 61.77 10.46 73.6 10.89 85.42 11.38 92.57 11.71 99.71 12.08 103.47 12.27 107.22 12.42 108.89 12.43 110.54 12.28 111.43 12 112.25 11.54 113.55 10.75 114.92 10.06 117.99 8.78 121.13 7.7 127.27 5.92 133.47 4.35" fill="none" stroke="#aaa" stroke-miterlimit="10" stroke-width=".5"/>
  <polyline points="128.46 .09 116.07 .99 103.72 2.32 97.56 3.3 91.53 4.82 89.44 5.74 87.87 7.32 87.98 8.51 88.67 9.53 89.36 10.3 89.89 11.16 88.83 11.82 87.48 11.95 82.44 11.88 77.4 11.59 66.5 10.76 55.6 9.83 67.59 10.2 79.59 10.64 86.79 10.93 93.98 11.25 97.72 11.41 101.46 11.54 103.07 11.54 104.67 11.39 105.51 11.12 106.28 10.68 107.59 9.93 108.95 9.29 112.12 8.09 115.35 7.08 121.72 5.41 128.14 3.95" fill="none" stroke="#aaa" stroke-miterlimit="10" stroke-width=".5"/>
  <polyline points="124.6 .09 112.01 .92 99.46 2.13 93.19 3.03 87.03 4.42 84.91 5.24 83.22 6.69 83.27 7.78 83.9 8.7 84.53 9.39 84.97 10.19 83.75 10.79 82.32 10.92 77.08 10.88 71.84 10.64 60.63 9.92 49.42 9.1 61.58 9.42 73.73 9.79 80.98 10.04 88.22 10.31 91.93 10.45 95.64 10.55 97.19 10.54 98.72 10.39 99.5 10.13 100.23 9.72 101.53 9.02 102.9 8.43 106.16 7.32 109.49 6.4 116.09 4.86 122.74 3.51" fill="none" stroke="#aaa" stroke-miterlimit="10" stroke-width=".5"/>
  <polyline points="120.74 .08 107.96 .84 95.21 1.95 88.83 2.76 82.54 4.01 80.38 4.74 78.57 6.06 78.56 7.03 79.13 7.86 79.7 8.48 80.05 9.21 78.69 9.77 77.15 9.89 71.72 9.88 66.27 9.68 54.76 9.06 43.24 8.35 55.56 8.62 67.88 8.93 75.17 9.14 82.46 9.37 86.14 9.48 89.81 9.56 91.29 9.54 92.76 9.39 93.49 9.14 94.16 8.76 95.47 8.11 96.83 7.58 100.19 6.56 103.61 5.72 110.45 4.32 117.33 3.09" fill="none" stroke="#aaa" stroke-miterlimit="10" stroke-width=".5"/>
  <polyline points="116.77 .08 103.79 .78 90.83 1.79 84.35 2.53 77.93 3.66 75.73 4.32 73.82 5.52 73.75 6.4 74.27 7.15 74.79 7.71 75.06 8.38 73.56 8.89 71.94 9.01 66.32 9.02 60.69 8.85 48.88 8.32 37.06 7.7 49.56 7.93 62.05 8.19 69.39 8.37 76.73 8.56 80.39 8.65 84.04 8.7 85.47 8.68 86.89 8.53 87.56 8.29 88.19 7.95 89.51 7.33 90.88 6.85 94.34 5.91 97.85 5.15 104.93 3.86 112.04 2.75" fill="none" stroke="#aaa" stroke-miterlimit="10" stroke-width=".5"/>
  <polyline points="112.55 .08 99.36 .74 86.19 1.68 79.59 2.38 73.05 3.44 70.81 4.05 68.82 5.17 68.72 5.99 69.21 6.7 69.7 7.23 69.91 7.85 68.32 8.34 66.62 8.45 60.84 8.47 55.05 8.32 42.97 7.85 30.89 7.29 43.57 7.49 56.26 7.72 63.68 7.88 71.1 8.05 74.76 8.12 78.42 8.16 79.82 8.14 81.2 7.99 81.85 7.75 82.45 7.42 83.79 6.84 85.17 6.39 88.74 5.5 92.35 4.78 99.65 3.57 106.99 2.51" fill="none" stroke="#aaa" stroke-miterlimit="10" stroke-width=".5"/>
  <polyline points="107.94 .08 94.52 .73 81.13 1.67 74.42 2.36 67.76 3.41 65.48 4.01 63.44 5.13 63.33 5.94 63.82 6.64 64.3 7.16 64.5 7.79 62.87 8.27 61.13 8.38 55.23 8.4 49.32 8.26 37.02 7.8 24.71 7.25 37.62 7.44 50.54 7.67 58.08 7.82 65.61 7.98 69.32 8.06 73.02 8.09 74.42 8.07 75.81 7.91 76.46 7.68 77.07 7.35 78.43 6.76 79.85 6.31 83.53 5.43 87.25 4.71 94.76 3.5 102.31 2.45" fill="none" stroke="#aaa" stroke-miterlimit="10" stroke-width=".5"/>
  <polyline points="102.81 .08 89.15 .78 75.52 1.78 68.68 2.52 61.92 3.64 59.6 4.29 57.56 5.48 57.47 6.36 58 7.1 58.52 7.66 58.76 8.33 57.15 8.84 55.41 8.96 49.45 8.97 43.49 8.81 31.01 8.3 18.53 7.7 31.72 7.91 44.91 8.17 52.62 8.34 60.32 8.52 64.12 8.6 67.91 8.65 69.37 8.62 70.81 8.46 71.5 8.21 72.15 7.86 73.57 7.23 75.05 6.75 78.83 5.8 82.66 5.02 90.37 3.72 98.1 2.59" fill="none" stroke="#aaa" stroke-miterlimit="10" stroke-width=".5"/>
  <polyline points="97.08 .08 83.15 .88 69.25 2.03 62.3 2.88 55.43 4.18 53.08 4.93 51.09 6.31 51.06 7.33 51.67 8.19 52.27 8.83 52.63 9.6 51.11 10.18 49.43 10.31 43.48 10.3 37.52 10.09 24.94 9.46 12.35 8.73 25.87 9.01 39.38 9.33 47.32 9.54 55.26 9.77 59.21 9.89 63.16 9.96 64.72 9.93 66.27 9.76 67.05 9.48 67.78 9.08 69.29 8.37 70.86 7.8 74.75 6.7 78.69 5.8 86.56 4.29 94.46 2.98" fill="none" stroke="#aaa" stroke-miterlimit="10" stroke-width=".5"/>
  <polyline points="90.72 .09 76.49 1.04 62.31 2.43 55.23 3.46 48.28 5.05 45.89 6 44 7.66 44.08 8.91 44.82 9.96 45.56 10.76 46.09 11.67 44.77 12.36 43.17 12.5 37.3 12.46 31.42 12.17 18.8 11.33 6.18 10.38 20.08 10.76 33.97 11.2 42.21 11.49 50.43 11.81 54.61 11.97 58.77 12.09 60.5 12.07 62.22 11.89 63.13 11.55 63.98 11.07 65.6 10.23 67.29 9.52 71.29 8.19 75.36 7.08 83.36 5.24 91.41 3.63" fill="none" stroke="#aaa" stroke-miterlimit="10" stroke-width=".5"/>
  <polyline points="83.82 .09 69.27 1.26 54.78 2.98 47.57 4.26 40.55 6.24 38.1 7.45 36.38 9.5 36.6 11.06 37.52 12.38 38.44 13.39 39.2 14.5 38.17 15.34 36.68 15.5 30.94 15.38 25.2 14.98 12.59 13.84 0 12.57 14.33 13.1 28.66 13.71 37.24 14.12 45.81 14.57 50.26 14.8 54.7 14.98 56.65 14.98 58.58 14.77 59.68 14.38 60.69 13.79 62.44 12.77 64.27 11.87 68.38 10.23 72.59 8.83 80.69 6.55 88.87 4.53" fill="none" stroke="#aaa" stroke-miterlimit="10" stroke-width=".5"/>
</svg>