<?xml version="1.0" encoding="UTF-8"?>
<svg id="Ebene_1" xmlns="http://www.w3.org/2000/svg" width="222" height="222" viewBox="0 0 222 222">
  <polyline points="42.94 185.73 41.05 180.04 36.66 176.15 32.54 175.73 28.47 176.55 26.36 177.16 24.59 176.77 27.66 171.53 31.27 166.6 28.83 174.96 26.96 183.44 27.18 185.93 29.05 187.49 32.37 189.06 35.15 191.46 39.84 199.35 42.85 208.06 45.54 199.85 49.61 192.26 52.05 189.69 55.07 187.86 56.63 186.98 57.12 185.32 55.63 180.13 53.65 175.08" fill="none" stroke="#aaa" stroke-miterlimit="10" stroke-width=".5"/>
  <polyline points="42.91 181.85 41.17 176.47 37.1 172.72 33.31 172.3 29.54 173.06 27.58 173.62 25.96 173.21 28.76 168.21 32.08 163.5 29.85 171.39 28.15 179.4 28.36 181.72 30.09 183.18 33.16 184.65 35.71 186.91 40.05 194.38 42.81 202.6 45.29 194.84 49.06 187.64 51.29 185.23 54.09 183.52 55.54 182.69 55.97 181.13 54.57 176.19 52.73 171.37" fill="none" stroke="#aaa" stroke-miterlimit="10" stroke-width=".5"/>
  <polyline points="42.88 177.85 41.27 172.78 37.47 169.2 33.94 168.8 30.44 169.51 28.6 170.03 27.1 169.62 29.68 164.88 32.77 160.4 30.71 167.84 29.14 175.39 29.33 177.56 30.95 178.94 33.81 180.32 36.18 182.44 40.22 189.5 42.79 197.25 45.08 189.93 48.59 183.13 50.67 180.86 53.28 179.25 54.62 178.47 55.02 177 53.7 172.32 51.98 167.74" fill="none" stroke="#aaa" stroke-miterlimit="10" stroke-width=".5"/>
  <polyline points="42.86 173.65 41.32 168.86 37.7 165.52 34.33 165.14 30.98 165.82 29.24 166.32 27.8 165.95 30.28 161.5 33.23 157.3 31.25 164.33 29.75 171.46 29.93 173.52 31.47 174.83 34.19 176.14 36.46 178.14 40.31 184.8 42.77 192.12 44.96 185.2 48.31 178.79 50.3 176.65 52.78 175.12 54.07 174.38 54.44 172.98 53.18 168.56 51.54 164.24" fill="none" stroke="#aaa" stroke-miterlimit="10" stroke-width=".5"/>
  <polyline points="42.85 169.24 41.31 164.72 37.78 161.67 34.46 161.34 31.18 162.01 29.49 162.5 28.06 162.21 30.53 158.08 33.43 154.2 31.46 160.84 29.96 167.6 30.13 169.58 31.63 170.84 34.3 172.1 36.54 174.01 40.32 180.28 42.76 187.21 44.93 180.67 48.21 174.64 50.18 172.59 52.62 171.13 53.87 170.42 54.26 169.08 53.03 164.92 51.42 160.86" fill="none" stroke="#aaa" stroke-miterlimit="10" stroke-width=".5"/>
  <polyline points="42.85 164.7 41.27 160.46 37.77 157.72 34.44 157.46 31.15 158.13 29.49 158.61 28.04 158.43 30.58 154.64 33.49 151.1 31.48 157.38 29.93 163.78 30.1 165.72 31.58 166.92 34.23 168.14 36.5 169.98 40.28 175.86 42.76 182.43 44.95 176.25 48.23 170.6 50.23 168.63 52.66 167.23 53.9 166.54 54.32 165.24 53.11 161.34 51.51 157.57" fill="none" stroke="#aaa" stroke-miterlimit="10" stroke-width=".5"/>
  <polyline points="42.85 160.12 41.21 156.15 37.73 153.73 34.37 153.54 31.06 154.22 29.41 154.7 27.94 154.63 30.57 151.2 33.5 147.99 31.42 153.93 29.81 159.98 29.97 161.87 31.44 163.03 34.1 164.22 36.42 165.99 40.23 171.47 42.76 177.69 45 171.87 48.29 166.6 50.33 164.7 52.77 163.35 54.01 162.68 54.48 161.42 53.28 157.78 51.67 154.28" fill="none" stroke="#aaa" stroke-miterlimit="10" stroke-width=".5"/>
  <polyline points="42.84 155.55 41.15 151.86 37.72 149.76 34.35 149.63 31.04 150.32 29.42 150.79 27.93 150.83 30.6 147.76 33.52 144.89 31.37 150.47 29.69 156.17 29.85 158.02 31.3 159.13 33.97 160.29 36.33 161.98 40.16 167.08 42.75 172.94 45.03 167.48 48.33 162.58 50.42 160.76 52.86 159.46 54.11 158.82 54.62 157.6 53.44 154.22 51.84 151" fill="none" stroke="#aaa" stroke-miterlimit="10" stroke-width=".5"/>
  <polyline points="42.83 151 41.08 147.59 37.72 145.79 34.36 145.74 31.05 146.43 29.46 146.9 27.96 147.04 30.67 144.33 33.56 141.79 31.35 147 29.6 152.36 29.75 154.16 31.19 155.22 33.86 156.35 36.26 157.96 40.09 162.68 42.74 168.18 45.06 163.07 48.36 158.56 50.49 156.82 52.94 155.57 54.18 154.95 54.74 153.76 53.58 150.65 52 147.7" fill="none" stroke="#aaa" stroke-miterlimit="10" stroke-width=".5"/>
  <polyline points="42.83 146.43 41 143.31 37.72 141.82 34.35 141.82 31.05 142.52 29.48 142.99 27.97 143.25 30.72 140.9 33.6 138.69 31.31 143.54 29.48 148.56 29.62 150.3 31.04 151.33 33.72 152.43 36.18 153.96 40.02 158.29 42.74 163.43 45.11 158.68 48.41 154.55 50.59 152.89 53.05 151.69 54.29 151.09 54.9 149.94 53.78 147.07 52.21 144.39" fill="none" stroke="#aaa" stroke-miterlimit="10" stroke-width=".5"/>
  <polyline points="42.86 141.76 40.91 138.95 37.68 137.76 34.28 137.85 30.94 138.56 29.36 139.04 27.84 139.42 30.68 137.47 33.57 135.58 31.15 140.09 29.2 144.79 29.34 146.5 30.76 147.49 33.48 148.57 36.02 150.03 39.93 153.98 42.77 158.78 45.23 154.38 48.57 150.61 50.84 149.03 53.34 147.87 54.6 147.28 55.28 146.16 54.18 143.52 52.61 141.09" fill="none" stroke="#aaa" stroke-miterlimit="10" stroke-width=".5"/>
  <polyline points="42.7 136.91 40.54 134.44 37.33 133.56 33.81 133.74 30.35 134.49 28.74 134.99 27.16 135.52 30.17 134.02 33.16 132.48 30.52 136.66 28.36 141.08 28.49 142.79 29.94 143.76 32.78 144.84 35.49 146.25 39.55 149.84 42.61 154.32 45.25 150.24 48.7 146.82 51.12 145.31 53.74 144.17 55.06 143.58 55.84 142.47 54.73 140.01 53.11 137.8" fill="none" stroke="#aaa" stroke-miterlimit="10" stroke-width=".5"/>
  <polyline points="42.62 131.84 40.16 129.75 36.91 129.19 33.14 129.48 29.44 130.29 27.63 130.84 25.92 131.55 29.01 130.55 32.07 129.38 29.22 133.26 26.92 137.45 27.16 139.21 28.72 140.16 31.82 141.27 34.81 142.66 39.13 145.9 42.54 150.1 45.45 146.32 49.1 143.25 51.84 141.77 54.72 140.64 56.31 140.03 57.51 138.92 56.92 136.68 55.58 134.7" fill="none" stroke="#aaa" stroke-miterlimit="10" stroke-width=".5"/>
  <polyline points="42.56 126.61 39.7 124.96 36.34 124.69 32 125.12 27.74 125.99 25.1 126.69 22.51 127.52 24.3 126.99 26.38 126.28 24.42 129.92 23.47 133.88 24.74 135.73 26.86 136.65 30.5 137.78 34.04 139.18 38.67 142.11 42.5 146.04 45.69 142.56 49.53 139.83 52.7 138.35 56.02 137.25 58.26 136.55 60.33 135.49 61.21 133.74 60.86 131.76" fill="none" stroke="#aaa" stroke-miterlimit="10" stroke-width=".5"/>
  <polyline points="42.66 121.36 39.43 120.2 35.93 120.17 31.14 120.74 26.41 121.68 23.22 122.49 20.09 123.49 21.1 123.57 22.94 123.18 21.31 126.61 21 130.32 22.85 132.2 25.36 133.17 29.43 134.33 33.42 135.73 38.36 138.37 42.61 142.01 46.12 138.82 50.19 136.37 53.72 134.94 57.37 133.83 60.01 133.07 62.53 131.99 63.88 130.49 64.04 128.46" fill="none" stroke="#aaa" stroke-miterlimit="10" stroke-width=".5"/>
  <polyline points="42.51 116.2 38.98 115.55 35.36 115.73 30.22 116.42 25.13 117.43 21.52 118.32 18.01 119.48 18.36 120.16 20.19 120.08 18.74 123.29 18.82 126.72 21.08 128.6 23.88 129.62 28.29 130.82 32.66 132.19 37.84 134.56 42.47 137.86 46.31 134.96 50.6 132.78 54.47 131.4 58.42 130.3 61.37 129.48 64.19 128.35 65.77 126.92 66.19 124.85" fill="none" stroke="#aaa" stroke-miterlimit="10" stroke-width=".5"/>
  <polyline points="42.48 111.27 38.8 111.12 35.12 111.46 29.79 112.26 24.51 113.31 20.66 114.26 16.92 115.56 16.72 116.71 18.58 116.97 17.21 119.91 17.53 123.04 20.03 124.9 23.02 125.94 27.65 127.16 32.26 128.48 37.56 130.57 42.46 133.49 46.59 130.9 51.08 128.97 55.21 127.67 59.39 126.58 62.53 125.72 65.54 124.51 67.18 123.08 67.64 120.97" fill="none" stroke="#aaa" stroke-miterlimit="10" stroke-width=".5"/>
  <polyline points="42.47 106.67 38.79 106.97 35.12 107.46 29.8 108.33 24.52 109.39 20.64 110.36 16.91 111.76 16.55 113.23 18.49 113.87 17.09 116.45 17.44 119.25 20.05 121.03 23.07 122.06 27.74 123.26 32.4 124.5 37.59 126.29 42.47 128.78 46.73 126.52 51.25 124.85 55.52 123.65 59.83 122.57 63.01 121.69 66.03 120.41 67.55 118.9 67.67 116.8" fill="none" stroke="#aaa" stroke-miterlimit="10" stroke-width=".5"/>
  <polyline points="42.48 102.46 37.8 103.08 33.12 103.77 28.1 104.63 23.12 105.7 19.93 106.61 16.99 108.08 17.29 109.85 19.25 110.77 17.89 112.92 18.31 115.32 20.93 116.97 23.9 117.95 28.44 119.09 32.98 120.21 37.83 121.68 42.49 123.66 46.75 121.78 51.19 120.39 55.51 119.3 59.83 118.26 62.91 117.36 65.8 115.99 66.98 114.33 66.49 112.33" fill="none" stroke="#aaa" stroke-miterlimit="10" stroke-width=".5"/>
  <polyline points="42.51 98.54 37.8 99.47 33.07 100.31 28.4 101.17 23.77 102.18 20.93 103.04 18.39 104.52 18.81 106.47 20.72 107.67 19.45 109.35 19.93 111.29 22.52 112.75 25.37 113.66 29.64 114.71 33.93 115.69 38.28 116.8 42.52 118.23 46.63 116.81 50.84 115.72 55.09 114.75 59.32 113.74 62.19 112.85 64.81 111.44 65.4 109.61 64.21 107.98" fill="none" stroke="#aaa" stroke-miterlimit="10" stroke-width=".5"/>
  <polyline points="42.52 94.73 38.01 95.96 33.44 96.94 29.17 97.78 24.93 98.73 22.38 99.54 20.19 100.99 20.64 103.09 22.44 104.56 21.28 105.76 21.88 107.21 24.43 108.48 27.18 109.31 31.14 110.25 35.13 111.07 38.85 111.83 42.53 112.69 46.17 111.82 49.85 111.07 53.85 110.24 57.83 109.31 60.55 108.49 63.07 107.22 63.47 105.7 62.16 104.58 62.35 104.46 62.54 104.35 62.71 104.23 62.88 104.12 63.04 104 63.19 103.89 63.34 103.78 63.48 103.67" fill="none" stroke="#aaa" stroke-miterlimit="10" stroke-width=".5"/>
  <polyline points="42.45 90.8 38.24 92.35 33.9 93.47 30 94.32 26.12 95.22 23.87 95.97 22.04 97.42 22.73 99.72 24.58 101.46 23.38 102.11 23.98 103.18 26.56 104.27 29.27 105.03 32.96 105.86 36.69 106.55 39.57 106.98 42.46 107.27 45.32 106.98 48.17 106.55 51.91 105.86 55.62 105.03 58.3 104.28 60.84 103.19 61.19 102.07 59.88 101.51 60.26 101.21 60.64 100.91 60.97 100.63 61.29 100.35 61.55 100.09 61.81 99.83 62.02 99.59 62.22 99.34" fill="none" stroke="#aaa" stroke-miterlimit="10" stroke-width=".5"/>
  <polyline points="42.44 86.57 38.48 88.45 34.29 89.77 30.65 90.64 27.02 91.52 24.97 92.25 23.49 93.74 24.52 96.32 26.55 98.36 25.26 98.48 25.29 99.26 27.76 100.22 30.32 100.93 33.86 101.71 37.45 102.27 39.98 102.47 42.48 102.17 44.93 102.47 47.43 102.27 51.02 101.71 54.57 100.93 57.09 100.23 59.52 99.27 59.26 98.52 57.87 98.43 58.4 97.98 58.91 97.51 59.34 97.1 59.75 96.68 60.08 96.32 60.39 95.94 60.63 95.61 60.85 95.27" fill="none" stroke="#aaa" stroke-miterlimit="10" stroke-width=".5"/>
  <polyline points="42.46 81.96 38.57 84.21 34.35 85.76 30.79 86.69 27.24 87.59 25.29 88.35 24.07 89.93 25.47 92.86 27.76 95.26 26.28 95.09 25.5 95.47 27.82 96.38 30.22 97.06 33.78 97.83 37.4 98.3 40.05 98.31 42.52 97.47 44.94 98.31 47.55 98.31 51.17 97.83 54.73 97.06 57.09 96.39 59.35 95.49 58.3 95.16 56.69 95.35 57.28 94.81 57.86 94.25 58.34 93.76 58.81 93.26 59.19 92.82 59.55 92.38 59.84 91.99 60.1 91.6" fill="none" stroke="#aaa" stroke-miterlimit="10" stroke-width=".5"/>
  <polyline points="42.4 77.02 38.4 79.67 33.97 81.49 30.34 82.51 26.71 83.47 24.77 84.29 23.75 86.01 25.54 89.35 28.18 92.16 26.38 91.76 24.93 91.79 27.19 92.7 29.54 93.38 33.26 94.19 37.05 94.6 39.95 94.42 42.47 93.11 44.93 94.43 47.78 94.6 51.56 94.19 55.29 93.38 57.59 92.72 59.79 91.82 58.06 91.85 56.08 92.28 56.73 91.66 57.36 91.02 57.9 90.47 58.42 89.9 58.86 89.41 59.28 88.91 59.61 88.47 59.93 88.03" fill="none" stroke="#aaa" stroke-miterlimit="10" stroke-width=".5"/>
  <polyline points="42.37 71.87 38.16 74.93 33.4 77.04 29.6 78.18 25.79 79.21 23.8 80.12 22.94 82 25.17 85.8 28.21 89.06 26 88.44 23.95 88.19 26.23 89.13 28.6 89.83 32.57 90.69 36.61 91.06 39.82 90.71 42.45 88.97 45.01 90.72 48.18 91.07 52.22 90.69 56.19 89.84 58.5 89.15 60.71 88.23 58.37 88.54 55.94 89.2 56.64 88.51 57.33 87.81 57.93 87.19 58.51 86.57 59 86.02 59.48 85.46 59.88 84.97 60.26 84.47" fill="none" stroke="#aaa" stroke-miterlimit="10" stroke-width=".5"/>
  <polyline points="42.39 66.61 37.91 70.1 32.78 72.52 28.76 73.77 24.73 74.9 22.65 75.9 21.94 77.97 24.63 82.24 28.12 85.95 25.44 85.13 22.81 84.63 25.13 85.62 27.55 86.35 31.81 87.26 36.15 87.61 39.7 87.08 42.47 84.93 45.16 87.1 48.67 87.62 53 87.26 57.26 86.35 59.61 85.64 61.83 84.67 58.9 85.23 55.96 86.13 56.73 85.37 57.48 84.61 58.14 83.93 58.79 83.24 59.34 82.63 59.88 82.02 60.33 81.48 60.77 80.93" fill="none" stroke="#aaa" stroke-miterlimit="10" stroke-width=".5"/>
  <polyline points="42.4 61.39 37.7 65.3 32.24 68.03 28.02 69.39 23.78 70.61 21.62 71.72 21.09 73.94 24.27 78.69 28.24 82.85 25.04 81.79 21.81 81.06 24.12 82.08 26.56 82.84 31.09 83.81 35.71 84.13 39.59 83.42 42.49 80.86 45.31 83.43 49.14 84.14 53.75 83.81 58.27 82.84 60.62 82.11 62.82 81.1 59.26 81.91 55.75 83.05 56.58 82.24 57.4 81.41 58.12 80.68 58.83 79.94 59.44 79.28 60.05 78.61 60.56 78.02 61.06 77.43" fill="none" stroke="#aaa" stroke-miterlimit="10" stroke-width=".5"/>
  <polyline points="42.43 56.33 37.6 60.63 31.89 63.66 27.57 65.12 23.21 66.41 21.05 67.63 20.8 69.97 24.57 75.15 29.08 79.75 25.24 78.41 21.32 77.42 23.51 78.48 25.87 79.23 30.58 80.25 35.39 80.52 39.55 79.59 42.52 76.63 45.4 79.61 49.52 80.53 54.3 80.25 58.99 79.23 61.24 78.51 63.28 77.47 58.96 78.54 54.72 79.98 55.62 79.11 56.51 78.25 57.3 77.47 58.07 76.69 58.76 75.99 59.43 75.28 60.02 74.65 60.59 74.02" fill="none" stroke="#aaa" stroke-miterlimit="10" stroke-width=".5"/>
  <polyline points="42.59 51.53 37.79 56.19 31.99 59.5 27.72 61.03 23.41 62.37 21.37 63.73 21.59 66.1 26.1 71.64 31.24 76.65 26.56 74.97 21.78 73.7 23.61 74.75 25.78 75.47 30.52 76.51 35.37 76.7 39.75 75.5 42.69 72.12 45.52 75.51 49.84 76.71 54.56 76.51 59.17 75.47 61.12 74.77 62.31 73.75 56.55 75.07 50.92 76.9 51.92 76.03 52.93 75.16 53.83 74.37 54.73 73.58 55.53 72.86 56.33 72.14 57.04 71.49 57.74 70.84" fill="none" stroke="#aaa" stroke-miterlimit="10" stroke-width=".5"/>
  <polyline points="42.36 47.11 37.75 52.06 32.02 55.64 27.88 57.22 23.67 58.55 21.64 59.95 21.83 62.35 26.13 68.19 31.07 73.54 26.29 71.53 21.41 69.84 23.27 70.79 25.42 71.49 30.22 72.49 35.11 72.58 39.64 71.03 42.47 67.22 45.18 71.04 49.65 72.59 54.41 72.5 59.06 71.49 60.99 70.81 62.2 69.9 56.33 71.64 50.6 73.82 51.51 72.95 52.41 72.07 53.23 71.27 54.05 70.47 54.79 69.74 55.52 69.01 56.18 68.35 56.83 67.69" fill="none" stroke="#aaa" stroke-miterlimit="10" stroke-width=".5"/>
  <polyline points="42.49 43.07 38.28 48.25 32.83 52.09 28.98 53.68 25.04 54.97 23.1 56.38 23.26 58.74 27.14 64.8 31.65 70.44 27.1 68.06 22.46 65.85 24.27 66.61 26.31 67.27 30.9 68.2 35.57 68.14 40.07 66.13 42.61 61.91 45.02 66.14 49.45 68.16 53.98 68.21 58.41 67.27 60.23 66.64 61.4 65.91 55.8 68.17 50.33 70.75 51.1 69.89 51.87 69.04 52.57 68.25 53.27 67.47 53.9 66.75 54.53 66.03 55.11 65.37 55.67 64.71" fill="none" stroke="#aaa" stroke-miterlimit="10" stroke-width=".5"/>
  <polyline points="42.67 39.31 38.97 44.65 33.97 48.76 30.55 50.34 26.99 51.55 25.2 52.95 25.32 55.23 28.66 61.45 32.58 67.34 28.37 64.53 24.14 61.76 25.83 62.29 27.72 62.89 31.97 63.72 36.28 63.49 40.62 60.91 42.8 56.32 44.85 60.91 49.1 63.51 53.27 63.73 57.37 62.89 59.03 62.32 60.13 61.83 54.96 64.65 49.9 67.67 50.5 66.87 51.1 66.07 51.66 65.33 52.21 64.58 52.72 63.9 53.22 63.21 53.68 62.57 54.14 61.94" fill="none" stroke="#aaa" stroke-miterlimit="10" stroke-width=".5"/>
  <polyline points="42.45 35.62 39.28 41.09 34.78 45.48 31.8 47.04 28.65 48.17 27.03 49.57 27.12 51.75 29.9 58.11 33.21 64.24 29.36 60.98 25.58 57.65 27.11 57.92 28.85 58.47 32.73 59.2 36.64 58.78 40.73 55.59 42.58 50.66 44.3 55.59 48.29 58.8 52.07 59.21 55.81 58.47 57.33 57.95 58.32 57.72 53.63 61.12 49.01 64.6 49.45 63.87 49.89 63.14 50.3 62.45 50.72 61.77 51.1 61.13 51.48 60.5 51.83 59.9 52.18 59.31" fill="none" stroke="#aaa" stroke-miterlimit="10" stroke-width=".5"/>
  <polyline points="42.47 31.75 39.72 37.37 35.64 42.07 33.05 43.61 30.23 44.69 28.74 46.1 28.8 48.2 31.13 54.75 33.94 61.14 30.37 57.43 26.97 53.6 28.34 53.64 29.99 54.16 33.57 54.79 37.14 54.22 41 50.44 42.6 45.18 44.08 50.43 47.84 54.24 51.29 54.8 54.74 54.16 56.18 53.66 57.04 53.67 52.76 57.59 48.48 61.52 48.81 60.85 49.14 60.19 49.44 59.56 49.75 58.93 50.04 58.34 50.32 57.75 50.59 57.2 50.86 56.64" fill="none" stroke="#aaa" stroke-miterlimit="10" stroke-width=".5"/>
  <polyline points="42.47 27.54 39.95 33.37 36.11 38.37 33.75 39.94 31.12 41.01 29.71 42.44 29.76 44.53 31.81 51.35 34.31 58.03 30.89 53.93 27.69 49.67 28.97 49.54 30.57 50.04 34.01 50.63 37.4 49.92 41.13 45.65 42.6 40.06 43.96 45.64 47.59 49.95 50.86 50.64 54.17 50.04 55.57 49.56 56.35 49.75 52.3 54.11 48.2 58.44 48.46 57.81 48.72 57.18 48.96 56.58 49.21 55.99 49.44 55.42 49.67 54.85 49.89 54.32 50.11 53.78" fill="none" stroke="#aaa" stroke-miterlimit="10" stroke-width=".5"/>
  <polyline points="42.48 22.93 40 29.04 36.18 34.37 33.86 35.99 31.25 37.08 29.85 38.58 29.88 40.72 31.86 47.89 34.28 54.93 30.83 50.49 27.64 45.88 28.91 45.66 30.54 46.17 34 46.75 37.39 45.95 41.15 41.28 42.61 35.35 43.95 41.27 47.61 45.98 50.87 46.76 54.2 46.17 55.64 45.68 56.4 45.96 52.34 50.69 48.22 55.37 48.45 54.74 48.69 54.1 48.92 53.5 49.14 52.9 49.35 52.33 49.57 51.76 49.77 51.21 49.97 50.67" fill="none" stroke="#aaa" stroke-miterlimit="10" stroke-width=".5"/>
  <polyline points="42.48 17.99 39.9 24.45 35.9 30.1 33.49 31.81 30.76 32.96 29.29 34.55 29.33 36.79 31.38 44.38 33.9 51.83 30.28 47.11 26.95 42.2 28.26 41.95 29.98 42.49 33.6 43.1 37.15 42.25 41.09 37.27 42.61 30.99 44.01 37.26 47.86 42.27 51.27 43.11 54.76 42.49 56.27 41.98 57.06 42.29 52.81 47.32 48.5 52.29 48.74 51.63 48.99 50.96 49.22 50.33 49.45 49.69 49.67 49.09 49.89 48.49 50.1 47.92 50.31 47.35" fill="none" stroke="#aaa" stroke-miterlimit="10" stroke-width=".5"/>
  <polyline points="42.49 12.84 39.7 19.69 35.41 25.65 32.79 27.48 29.86 28.7 28.28 30.39 28.32 32.79 30.56 40.83 33.29 48.73 29.41 43.76 25.82 38.6 27.24 38.37 29.07 38.95 32.96 39.6 36.76 38.71 40.99 33.49 42.62 26.85 44.13 33.48 48.25 38.74 51.92 39.61 55.66 38.95 57.27 38.39 58.13 38.7 53.57 43.98 48.95 49.22 49.22 48.5 49.49 47.78 49.75 47.09 50.01 46.41 50.25 45.76 50.49 45.11 50.72 44.49 50.95 43.88" fill="none" stroke="#aaa" stroke-miterlimit="10" stroke-width=".5"/>
  <polyline points="42.5 7.58 39.46 14.84 34.8 21.13 31.95 23.07 28.75 24.39 27.05 26.18 27.1 28.75 29.56 37.27 32.57 45.63 28.39 40.43 24.49 35.04 26.03 34.84 28 35.46 32.19 36.17 36.31 35.26 40.86 29.82 42.63 22.82 44.28 29.81 48.72 35.29 52.7 36.18 56.73 35.46 58.46 34.87 59.4 35.14 54.47 40.67 49.49 46.14 49.79 45.36 50.1 44.57 50.39 43.83 50.69 43.08 50.96 42.38 51.24 41.67 51.5 41.01 51.76 40.34" fill="none" stroke="#aaa" stroke-miterlimit="10" stroke-width=".5"/>
</svg>