<?xml version="1.0" encoding="UTF-8"?><svg id="Ebene_1" xmlns="http://www.w3.org/2000/svg" viewBox="0 0 222 222"><polyline points="242.62 .13 236.26 2.24 230.35 5.37 227.19 8.15 224.97 11.71 224.23 14.93 224.44 18.23 225.33 21.21 226.71 23.99 228.11 26.13 229.72 28.1 230.53 28.93 231.42 29.62 230.68 28.59 229.76 27.64 226.29 24.37 222.69 21.23 222.84 21.27 222.99 21.31 223.13 21.35 223.28 21.39 223.43 21.43 223.57 21.48 223.72 21.52 223.86 21.56 224.01 21.6 224.15 21.64 224.3 21.68 224.44 21.72 224.58 21.76 224.73 21.8 224.87 21.84 225.01 21.88" style="fill:none; stroke:#aaa; stroke-miterlimit:10; stroke-width:.5px;"/><polyline points="237.17 .13 230.53 2.39 224.38 5.74 221.09 8.72 218.81 12.51 218.06 15.95 218.3 19.46 219.26 22.64 220.73 25.62 222.23 27.9 223.95 30.01 224.83 30.9 225.83 31.63 225.13 30.53 224.21 29.51 220.67 26.02 216.98 22.67 217.13 22.72 217.28 22.76 217.43 22.8 217.58 22.85 217.73 22.89 217.88 22.93 218.03 22.98 218.17 23.02 218.32 23.06 218.47 23.1 218.61 23.15 218.76 23.19 218.91 23.23 219.05 23.27 219.2 23.31 219.34 23.36" style="fill:none; stroke:#aaa; stroke-miterlimit:10; stroke-width:.5px;"/><polyline points="231.91 .13 225.01 2.51 218.63 6.04 215.22 9.19 212.86 13.17 212.09 16.8 212.36 20.5 213.37 23.85 214.92 26.99 216.5 29.39 218.31 31.61 219.25 32.56 220.32 33.32 219.64 32.16 218.71 31.09 215.07 27.41 211.27 23.89 211.42 23.93 211.57 23.98 211.72 24.02 211.87 24.06 212.02 24.11 212.16 24.15 212.31 24.19 212.46 24.24 212.61 24.28 212.75 24.32 212.9 24.37 213.04 24.41 213.19 24.45 213.33 24.49 213.48 24.54 213.62 24.58" style="fill:none; stroke:#aaa; stroke-miterlimit:10; stroke-width:.5px;"/><polyline points="226.93 .13 219.78 2.6 213.18 6.26 209.64 9.52 207.2 13.66 206.41 17.42 206.68 21.26 207.73 24.73 209.33 27.99 210.97 30.48 212.85 32.78 213.82 33.77 214.92 34.56 214.22 33.35 213.26 32.25 209.49 28.43 205.56 24.78 205.7 24.82 205.85 24.86 205.99 24.91 206.14 24.95 206.28 24.99 206.43 25.03 206.57 25.08 206.71 25.12 206.86 25.16 207 25.2 207.14 25.24 207.28 25.29 207.43 25.33 207.57 25.37 207.71 25.41 207.85 25.45" style="fill:none; stroke:#aaa; stroke-miterlimit:10; stroke-width:.5px;"/><polyline points="222.23 .13 214.86 2.65 208.03 6.39 204.38 9.73 201.84 13.96 201.01 17.8 201.28 21.73 202.35 25.28 203.99 28.6 205.65 31.15 207.57 33.5 208.55 34.5 209.66 35.31 208.89 34.08 207.87 32.95 203.94 29.06 199.85 25.32 199.98 25.36 200.12 25.4 200.26 25.44 200.4 25.48 200.53 25.52 200.67 25.56 200.81 25.6 200.94 25.64 201.08 25.68 201.21 25.72 201.35 25.76 201.48 25.8 201.62 25.84 201.75 25.87 201.88 25.91 202.02 25.95" style="fill:none; stroke:#aaa; stroke-miterlimit:10; stroke-width:.5px;"/><polyline points="217.76 .13 210.17 2.68 203.13 6.46 199.36 9.82 196.73 14.1 195.86 17.98 196.11 21.95 197.18 25.54 198.83 28.9 200.51 31.47 202.44 33.85 203.41 34.85 204.49 35.68 203.62 34.44 202.54 33.3 198.41 29.37 194.14 25.59 194.26 25.63 194.39 25.66 194.52 25.7 194.64 25.73 194.77 25.77 194.9 25.8 195.02 25.84 195.15 25.87 195.27 25.91 195.4 25.94 195.52 25.98 195.65 26.01 195.77 26.05 195.89 26.08 196.02 26.12 196.14 26.15" style="fill:none; stroke:#aaa; stroke-miterlimit:10; stroke-width:.5px;"/><polyline points="213.44 .13 205.64 2.68 198.39 6.48 194.51 9.83 191.77 14.14 190.85 18.03 191.08 22.01 192.14 25.61 193.79 28.99 195.48 31.56 197.4 33.95 198.35 34.94 199.39 35.79 198.39 34.55 197.23 33.4 192.9 29.46 188.43 25.67 188.54 25.7 188.65 25.73 188.77 25.76 188.88 25.79 188.99 25.82 189.1 25.85 189.22 25.88 189.33 25.91 189.44 25.94 189.55 25.97 189.66 26 189.78 26.03 189.89 26.06 190 26.09 190.11 26.12 190.22 26.15" style="fill:none; stroke:#aaa; stroke-miterlimit:10; stroke-width:.5px;"/><polyline points="209.19 .13 201.19 2.67 193.72 6.47 189.74 9.81 186.89 14.13 185.92 18 186.12 22 187.17 25.59 188.82 28.96 190.5 31.53 192.41 33.92 193.33 34.9 194.31 35.76 193.19 34.53 191.94 33.37 187.39 29.45 182.71 25.65 182.81 25.68 182.91 25.7 183.01 25.73 183.11 25.75 183.21 25.78 183.3 25.8 183.4 25.83 183.5 25.86 183.6 25.88 183.69 25.91 183.79 25.93 183.89 25.96 183.99 25.98 184.08 26.01 184.18 26.03 184.27 26.06" style="fill:none; stroke:#aaa; stroke-miterlimit:10; stroke-width:.5px;"/><polyline points="204.95 .13 196.76 2.67 189.07 6.46 184.99 9.78 182.03 14.11 181 17.97 181.17 21.96 182.21 25.55 183.86 28.91 185.53 31.48 187.43 33.86 188.32 34.83 189.25 35.7 187.98 34.48 186.66 33.32 181.88 29.41 177 25.61 177.09 25.63 177.17 25.65 177.25 25.67 177.34 25.69 177.42 25.71 177.5 25.74 177.58 25.76 177.67 25.78 177.75 25.8 177.83 25.82 177.91 25.84 177.99 25.86 178.08 25.88 178.16 25.9 178.24 25.92 178.32 25.94" style="fill:none; stroke:#aaa; stroke-miterlimit:10; stroke-width:.5px;"/><polyline points="200.7 .13 192.3 2.66 184.4 6.46 180.21 9.76 177.14 14.09 176.07 17.94 176.21 21.94 177.24 25.53 178.88 28.89 180.55 31.45 182.44 33.84 183.3 34.79 184.17 35.67 182.79 34.47 181.36 33.29 176.38 29.39 171.29 25.59 171.36 25.61 171.43 25.62 171.5 25.64 171.56 25.66 171.63 25.67 171.7 25.69 171.77 25.71 171.83 25.72 171.9 25.74 171.97 25.75 172.03 25.77 172.1 25.79 172.17 25.8 172.23 25.82 172.3 25.84 172.37 25.85" style="fill:none; stroke:#aaa; stroke-miterlimit:10; stroke-width:.5px;"/><polyline points="196.41 .13 187.8 2.66 179.69 6.46 175.4 9.75 172.22 14.1 171.1 17.95 171.21 21.96 172.23 25.55 173.87 28.91 175.54 31.47 177.43 33.86 178.26 34.8 179.09 35.7 177.58 34.5 176.07 33.32 170.87 29.42 165.58 25.61 165.63 25.62 165.69 25.64 165.74 25.65 165.79 25.66 165.84 25.67 165.9 25.69 165.95 25.7 166 25.71 166.05 25.72 166.11 25.73 166.16 25.75 166.21 25.76 166.26 25.77 166.31 25.78 166.36 25.79 166.42 25.81" style="fill:none; stroke:#aaa; stroke-miterlimit:10; stroke-width:.5px;"/><polyline points="192.1 .13 183.29 2.66 174.97 6.47 170.57 9.76 167.28 14.13 166.11 17.97 166.19 21.99 167.21 25.59 168.85 28.96 170.52 31.52 172.4 33.92 173.21 34.85 173.99 35.76 172.37 34.58 170.76 33.37 165.35 29.47 159.87 25.66 159.91 25.67 159.95 25.67 159.98 25.68 160.02 25.69 160.06 25.7 160.1 25.71 160.13 25.72 160.17 25.72 160.21 25.73 160.25 25.74 160.28 25.75 160.32 25.76 160.36 25.77 160.39 25.77 160.43 25.78 160.47 25.79" style="fill:none; stroke:#aaa; stroke-miterlimit:10; stroke-width:.5px;"/><polyline points="187.81 .13 178.8 2.66 170.26 6.48 165.76 9.76 162.36 14.14 161.14 17.98 161.19 22.01 162.2 25.62 163.84 28.98 165.51 31.55 167.39 33.95 168.18 34.87 168.9 35.79 167.17 34.62 165.47 33.41 159.85 29.51 154.16 25.68 154.18 25.69 154.2 25.69 154.23 25.7 154.25 25.7 154.27 25.71 154.29 25.71 154.31 25.72 154.34 25.72 154.36 25.73 154.38 25.73 154.4 25.74 154.42 25.74 154.45 25.75 154.47 25.75 154.49 25.75 154.51 25.76" style="fill:none; stroke:#aaa; stroke-miterlimit:10; stroke-width:.5px;"/><polyline points="183.6 .13 174.39 2.65 165.64 6.45 161.04 9.7 157.52 14.08 156.25 17.89 156.27 21.91 157.27 25.5 158.9 28.85 160.56 31.4 162.42 33.79 163.2 34.72 163.85 35.64 162 34.49 160.18 33.28 154.34 29.42 148.45 25.62 148.45 25.62 148.46 25.62 148.46 25.62 148.47 25.62 148.47 25.62 148.47 25.63 148.48 25.63 148.48 25.63 148.48 25.63 148.49 25.63 148.49 25.63 148.5 25.63 148.5 25.63 148.5 25.63 148.51 25.63 148.51 25.63" style="fill:none; stroke:#aaa; stroke-miterlimit:10; stroke-width:.5px;"/><polyline points="179.55 .13 170.15 2.62 161.2 6.37 156.51 9.56 152.87 13.88 151.53 17.62 151.5 21.6 152.46 25.14 154.07 28.44 155.71 30.96 157.54 33.33 158.3 34.25 158.87 35.19 156.92 34.13 155.03 32.95 149.03 29.22 142.99 25.53" style="fill:none; stroke:#aaa; stroke-miterlimit:10; stroke-width:.5px;"/><polyline points="175.73 .13 166.17 2.55 157.04 6.21 152.25 9.29 148.47 13.51 147.05 17.13 146.95 21.01 147.86 24.46 149.42 27.67 151.02 30.13 152.79 32.46 153.53 33.38 154 34.33 151.95 33.38 149.98 32.26 143.83 28.73 137.65 25.21" style="fill:none; stroke:#aaa; stroke-miterlimit:10; stroke-width:.5px;"/><polyline points="172.19 .13 162.5 2.45 153.18 5.96 148.32 8.88 144.38 12.94 142.88 16.37 142.68 20.1 143.52 23.41 145 26.48 146.54 28.84 148.23 31.09 148.93 32.01 149.27 32.95 147.11 32.14 145.03 31.11 138.72 27.84 132.4 24.56" style="fill:none; stroke:#aaa; stroke-miterlimit:10; stroke-width:.5px;"/><polyline points="168.93 .13 159.11 2.32 149.62 5.62 144.69 8.34 140.58 12.17 138.99 15.36 138.68 18.9 139.42 22 140.81 24.89 142.26 27.12 143.84 29.25 144.5 30.16 144.67 31.08 142.39 30.43 140.18 29.49 133.7 26.55 127.24 23.57" style="fill:none; stroke:#aaa; stroke-miterlimit:10; stroke-width:.5px;"/><polyline points="165.85 .13 155.92 2.16 146.28 5.23 141.27 7.72 136.99 11.28 135.31 14.17 134.87 17.48 135.5 20.36 136.78 23.02 138.13 25.1 139.59 27.09 140.19 27.98 140.17 28.87 137.76 28.37 135.41 27.54 128.78 24.97 122.16 22.31" style="fill:none; stroke:#aaa; stroke-miterlimit:10; stroke-width:.5px;"/><polyline points="162.86 .13 152.83 2 143.03 4.8 137.96 7.06 133.5 10.33 131.73 12.91 131.14 15.98 131.67 18.61 132.82 21.04 134.06 22.94 135.39 24.78 135.93 25.66 135.74 26.49 133.2 26.14 130.71 25.44 123.94 23.22 117.19 20.91" style="fill:none; stroke:#aaa; stroke-miterlimit:10; stroke-width:.5px;"/><polyline points="159.84 .13 149.7 1.84 139.76 4.39 134.62 6.42 129.99 9.4 128.15 11.69 127.4 14.52 127.81 16.91 128.85 19.11 129.99 20.84 131.19 22.53 131.67 23.4 131.3 24.16 128.65 23.94 126.03 23.35 119.12 21.47 112.24 19.46" style="fill:none; stroke:#aaa; stroke-miterlimit:10; stroke-width:.5px;"/><polyline points="156.69 .12 146.44 1.69 136.34 4.02 131.13 5.86 126.34 8.58 124.43 10.6 123.53 13.22 123.84 15.39 124.78 17.39 125.83 18.98 126.92 20.53 127.33 21.4 126.81 22.07 124.05 21.95 121.31 21.45 114.27 19.86 107.26 18.12" style="fill:none; stroke:#aaa; stroke-miterlimit:10; stroke-width:.5px;"/><polyline points="153.32 .12 142.94 1.57 132.68 3.73 127.39 5.41 122.45 7.92 120.48 9.74 119.45 12.18 119.68 14.18 120.53 16.01 121.51 17.48 122.51 18.92 122.85 19.79 122.23 20.38 119.37 20.34 116.52 19.92 109.35 18.54 102.21 17.01" style="fill:none; stroke:#aaa; stroke-miterlimit:10; stroke-width:.5px;"/><polyline points="149.66 .12 139.13 1.49 128.7 3.53 123.31 5.11 118.24 7.46 116.22 9.14 115.08 11.46 115.25 13.34 116.04 15.06 116.97 16.44 117.91 17.8 118.19 18.68 117.5 19.22 114.55 19.22 111.61 18.85 104.33 17.62 97.06 16.24" style="fill:none; stroke:#aaa; stroke-miterlimit:10; stroke-width:.5px;"/><polyline points="145.67 .12 134.96 1.45 124.35 3.43 118.86 4.95 113.66 7.24 111.61 8.84 110.38 11.1 110.51 12.92 111.27 14.59 112.18 15.93 113.09 17.25 113.34 18.13 112.6 18.64 109.59 18.67 106.58 18.33 99.17 17.18 91.77 15.87" style="fill:none; stroke:#aaa; stroke-miterlimit:10; stroke-width:.5px;"/><polyline points="141.34 .11 130.42 1.46 119.61 3.43 114.02 4.96 108.71 7.24 106.61 8.84 105.35 11.11 105.46 12.93 106.22 14.59 107.13 15.93 108.05 17.26 108.28 18.16 107.53 18.66 104.46 18.7 101.39 18.37 93.85 17.23 86.32 15.94" style="fill:none; stroke:#aaa; stroke-miterlimit:10; stroke-width:.5px;"/><polyline points="136.69 .12 125.56 1.5 114.53 3.53 108.83 5.1 103.42 7.46 101.28 9.11 100 11.44 100.12 13.32 100.91 15.04 101.84 16.42 102.79 17.78 103.05 18.7 102.29 19.23 99.17 19.26 96.05 18.92 88.38 17.74 80.72 16.4" style="fill:none; stroke:#aaa; stroke-miterlimit:10; stroke-width:.5px;"/><polyline points="131.79 .12 120.42 1.57 109.17 3.71 103.35 5.37 97.85 7.85 95.67 9.6 94.4 12.05 94.55 14.03 95.38 15.84 96.37 17.29 97.37 18.73 97.67 19.66 96.92 20.24 93.77 20.26 90.61 19.89 82.8 18.62 75 17.19" style="fill:none; stroke:#aaa; stroke-miterlimit:10; stroke-width:.5px;"/><polyline points="126.73 .12 115.11 1.66 103.62 3.94 97.68 5.71 92.1 8.35 89.88 10.24 88.64 12.84 88.83 14.95 89.72 16.88 90.77 18.43 91.84 19.96 92.19 20.92 91.47 21.55 88.28 21.54 85.09 21.13 77.13 19.75 69.19 18.19" style="fill:none; stroke:#aaa; stroke-miterlimit:10; stroke-width:.5px;"/><polyline points="121.6 .12 109.73 1.76 98 4.19 91.94 6.09 86.27 8.91 84.02 10.95 82.81 13.71 83.05 15.96 84.01 18.03 85.12 19.69 86.27 21.31 86.67 22.29 85.98 22.99 82.76 22.95 79.55 22.5 71.44 20.98 63.36 19.29" style="fill:none; stroke:#aaa; stroke-miterlimit:10; stroke-width:.5px;"/><polyline points="116.5 .12 104.38 1.86 92.42 4.44 86.23 6.45 80.48 9.45 78.19 11.64 77.01 14.55 77.3 16.95 78.32 19.15 79.5 20.91 80.72 22.63 81.16 23.63 80.51 24.39 77.26 24.33 74.02 23.83 65.77 22.17 57.54 20.34" style="fill:none; stroke:#aaa; stroke-miterlimit:10; stroke-width:.5px;"/><polyline points="111.52 .12 99.15 1.95 86.95 4.65 80.65 6.78 74.81 9.92 72.48 12.24 71.33 15.29 71.65 17.81 72.73 20.12 73.96 21.97 75.24 23.77 75.72 24.8 75.1 25.6 71.81 25.52 68.53 24.98 60.14 23.21 51.78 21.27" style="fill:none; stroke:#aaa; stroke-miterlimit:10; stroke-width:.5px;"/><polyline points="106.68 .12 94.08 2.01 81.66 4.82 75.24 7.02 69.31 10.29 66.95 12.71 65.8 15.86 66.14 18.47 67.26 20.87 68.54 22.79 69.87 24.66 70.37 25.71 69.77 26.55 66.43 26.45 63.11 25.88 54.58 24.03 46.07 21.99" style="fill:none; stroke:#aaa; stroke-miterlimit:10; stroke-width:.5px;"/><polyline points="102.01 .12 89.19 2.06 76.55 4.94 70.02 7.2 63.99 10.54 61.58 13.03 60.42 16.26 60.79 18.93 61.93 21.39 63.24 23.36 64.6 25.27 65.12 26.35 64.51 27.21 61.12 27.1 57.76 26.52 49.07 24.6 40.41 22.52" style="fill:none; stroke:#aaa; stroke-miterlimit:10; stroke-width:.5px;"/><polyline points="97.47 .12 84.43 2.09 71.58 5.01 64.94 7.31 58.81 10.71 56.36 13.23 55.18 16.51 55.55 19.23 56.71 21.73 58.04 23.72 59.42 25.66 59.95 26.76 59.33 27.63 55.88 27.52 52.45 26.93 43.61 24.99 34.81 22.87" style="fill:none; stroke:#aaa; stroke-miterlimit:10; stroke-width:.5px;"/><polyline points="93.02 .12 79.77 2.11 66.7 5.06 59.95 7.38 53.72 10.81 51.23 13.36 50.02 16.67 50.39 19.42 51.56 21.94 52.9 23.95 54.29 25.92 54.83 27.03 54.18 27.91 50.66 27.8 47.17 27.21 38.18 25.25 29.22 23.12" style="fill:none; stroke:#aaa; stroke-miterlimit:10; stroke-width:.5px;"/><polyline points="88.61 .12 75.15 2.13 61.88 5.1 55.02 7.43 48.68 10.88 46.15 13.44 44.91 16.78 45.27 19.54 46.45 22.08 47.8 24.11 49.2 26.08 49.73 27.21 49.06 28.09 45.47 27.99 41.91 27.39 32.77 25.44 23.65 23.3" style="fill:none; stroke:#aaa; stroke-miterlimit:10; stroke-width:.5px;"/></svg>