<?xml version="1.0" encoding="UTF-8"?>
<svg id="Ebene_1" xmlns="http://www.w3.org/2000/svg" width="222" height="222" viewBox="0 0 222 222">
  <polyline points="121.1 192.21 121.1 192.19 121.11 192.17 123.36 187.48 125.62 182.8 125.67 182.75 125.75 182.75 130.45 184.71 135.14 186.68 135.2 186.73 135.2 186.81 135.14 186.87 135.06 186.87 130.41 184.92 125.76 182.98 123.54 187.6 121.31 192.23 122.19 197.79 123.08 203.36 136.49 208.99 149.89 214.62 149.02 209.11 148.15 203.61 148.16 203.55 148.19 203.51 148.24 203.49 148.29 203.49 154.97 206.16 161.64 208.83 160.78 203.38 159.92 197.94 147.28 192.85 134.63 187.76 134.58 187.71 134.58 187.63 134.63 187.57 134.71 187.57 147.38 192.67 160.05 197.76 160.09 197.8 160.12 197.84 161 203.41 161.88 208.98 161.87 209.03 161.84 209.07 161.79 209.09 161.74 209.09 155.06 206.42 148.38 203.75 149.26 209.26 150.13 214.77 150.12 214.82 150.09 214.87 150.04 214.89 149.99 214.88 136.46 209.2 122.94 203.53 122.9 203.5 122.88 203.45 121.99 197.84 121.1 192.23 121.1 192.22 121.1 192.21" fill="none" stroke="#aaa" stroke-miterlimit="10" stroke-width=".5"/>
  <polyline points="149.92 214.78 149.92 214.76 149.93 214.74 152.05 210.34 154.16 205.94 154.22 205.89 154.3 205.9 154.35 205.95 154.35 206.03 152.23 210.43 150.12 214.83 150.06 214.88 149.98 214.88 149.94 214.84 149.92 214.78" fill="none" stroke="#aaa" stroke-miterlimit="10" stroke-width=".5"/>
  <polyline points="121.1 192.21 121.1 192.19 121.11 192.17 121.17 192.12 121.25 192.12 128.76 195.26 136.27 198.4 135.42 193.04 134.57 187.68 134.57 187.65 134.58 187.62 136.83 182.94 139.08 178.25 139.14 178.2 139.22 178.2 151.89 183.3 164.56 188.4 164.6 188.43 164.62 188.48 165.5 194.04 166.38 199.61 166.38 199.64 166.37 199.67 164.12 204.35 161.87 209.04 161.81 209.09 161.73 209.09 161.68 209.03 161.68 208.95 163.93 204.28 166.17 199.61 165.3 194.09 164.42 188.57 151.83 183.5 139.23 178.43 137 183.06 134.78 187.68 135.64 193.11 136.5 198.55 136.49 198.6 136.46 198.64 136.41 198.67 136.36 198.66 128.76 195.48 121.17 192.31 121.12 192.27 121.1 192.21" fill="none" stroke="#aaa" stroke-miterlimit="10" stroke-width=".5"/>
  <polyline points="159.91 197.86 159.91 197.84 159.92 197.82 162.17 193.13 164.42 188.45 164.48 188.4 164.56 188.4 164.62 188.46 164.61 188.54 162.36 193.22 160.11 197.91 160.05 197.96 159.97 197.95 159.92 197.92 159.91 197.86" fill="none" stroke="#aaa" stroke-miterlimit="10" stroke-width=".5"/>
</svg>