<?xml version="1.0" encoding="UTF-8"?><svg id="Ebene_1" xmlns="http://www.w3.org/2000/svg" viewBox="0 0 222 222"><polyline points="221.24 0 226.89 3.57 232.28 7.52 235.57 10.35 238.6 13.46 240.35 15.58 241.96 17.8 242.97 19.22 244.11 20.53 245.35 21.31 246.78 21.61 249.27 21.48 251.73 21.03 256.22 19.95 260.7 18.77 268.06 16.77 275.43 14.79 274.31 15.37 273.19 15.94 272.2 16.45 271.21 16.95 270.34 17.4 269.47 17.85 268.72 18.23 267.97 18.62 267.32 18.95 266.68 19.28 266.13 19.55 265.59 19.83 265.15 20.05 264.7 20.27 264.34 20.44 263.98 20.61" style="fill:none; stroke:#aaa; stroke-miterlimit:10; stroke-width:.5px;"/><polyline points="217.55 0 223 3.39 228.21 7.14 231.38 9.84 234.31 12.79 236 14.81 237.55 16.92 238.51 18.28 239.6 19.52 240.78 20.26 242.15 20.55 244.54 20.43 246.9 20.01 251.22 18.98 255.52 17.86 262.62 15.96 269.71 14.09 268.58 14.66 267.45 15.23 266.46 15.73 265.46 16.23 264.6 16.67 263.73 17.11 262.98 17.49 262.24 17.86 261.61 18.18 260.97 18.5 260.45 18.76 259.92 19.01 259.5 19.22 259.07 19.42 258.74 19.58 258.4 19.73" style="fill:none; stroke:#aaa; stroke-miterlimit:10; stroke-width:.5px;"/><polyline points="213.43 0 218.68 3.35 223.69 7.06 226.76 9.73 229.58 12.64 231.21 14.64 232.72 16.72 233.67 18.06 234.74 19.28 235.9 20.01 237.25 20.3 239.58 20.17 241.89 19.75 246.09 18.73 250.27 17.61 257.13 15.73 264.01 13.87 262.85 14.46 261.7 15.06 260.7 15.58 259.69 16.1 258.83 16.55 257.96 17 257.23 17.38 256.5 17.76 255.89 18.08 255.28 18.39 254.78 18.64 254.29 18.89 253.9 19.08 253.51 19.27 253.21 19.41 252.92 19.54" style="fill:none; stroke:#aaa; stroke-miterlimit:10; stroke-width:.5px;"/><polyline points="208.84 0 213.87 3.49 218.65 7.32 221.61 10.09 224.33 13.09 225.93 15.17 227.42 17.31 228.38 18.69 229.48 19.95 230.66 20.69 232.04 20.97 234.37 20.83 236.67 20.38 240.8 19.3 244.9 18.13 251.59 16.16 258.29 14.2 257.09 14.88 255.88 15.55 254.85 16.13 253.82 16.71 252.95 17.2 252.09 17.69 251.38 18.09 250.66 18.49 250.09 18.82 249.52 19.14 249.08 19.38 248.64 19.62 248.32 19.79 248 19.96 247.78 20.06 247.57 20.15" style="fill:none; stroke:#aaa; stroke-miterlimit:10; stroke-width:.5px;"/><polyline points="203.77 0 208.58 3.79 213.11 7.91 215.97 10.93 218.58 14.15 220.17 16.39 221.66 18.69 222.66 20.17 223.82 21.51 225.07 22.29 226.52 22.59 228.9 22.41 231.24 21.9 235.35 20.71 239.43 19.41 246.01 17.25 252.58 15.1 251.02 16.08 249.47 17.07 248.24 17.86 247.02 18.65 246.1 19.25 245.19 19.85 244.54 20.28 243.89 20.71 243.48 20.98 243.07 21.24 242.87 21.36 242.67 21.46 242.6 21.47 242.62 21.41 242.72 21.25 242.85 21.1" style="fill:none; stroke:#aaa; stroke-miterlimit:10; stroke-width:.5px;"/><polyline points="198.32 0 202.88 4.25 207.15 8.79 209.9 12.17 212.42 15.71 214.01 18.21 215.53 20.74 216.58 22.38 217.84 23.85 219.19 24.69 220.75 25 223.22 24.77 225.64 24.17 229.79 22.82 233.88 21.34 240.38 18.9 246.87 16.46 245.27 17.64 243.69 18.84 242.49 19.76 241.31 20.68 240.48 21.35 239.65 22.02 239.14 22.45 238.63 22.88 238.38 23.1 238.14 23.32 238.09 23.37 238.11 23.35 238.27 23.2 238.44 23.03 238.74 22.71 239.04 22.39" style="fill:none; stroke:#aaa; stroke-miterlimit:10; stroke-width:.5px;"/><polyline points="192.62 0 196.93 4.79 200.93 9.85 203.58 13.66 206.01 17.6 207.59 20.41 209.16 23.23 210.29 25.05 211.67 26.69 213.13 27.61 214.83 27.94 217.42 27.66 219.94 26.95 224.14 25.4 228.29 23.69 234.73 20.91 241.16 18.11 239.62 19.49 238.11 20.88 237.01 21.92 235.93 22.97 235.22 23.7 234.52 24.44 234.14 24.88 233.78 25.34 233.66 25.52 233.6 25.7 233.75 25.68 233.88 25.59 234.2 25.33 234.51 25.05 234.95 24.6 235.38 24.13" style="fill:none; stroke:#aaa; stroke-miterlimit:10; stroke-width:.5px;"/><polyline points="186.87 0 190.92 5.31 194.65 10.84 197.2 15.13 199.53 19.52 201.14 22.82 202.73 26.11 203.97 28.45 205.44 30.65 206.98 32.17 208.87 33.21 211.5 33.79 214.21 33.84 218.46 33.38 222.67 32.6 229.08 31.14 235.45 29.54 233.99 30.45 232.52 31.34 231.55 31.9 230.57 32.43 230.02 32.69 229.46 32.87 229.23 32.88 229.08 32.72 229.14 32.38 229.28 32.05 229.6 31.47 229.94 30.9 230.43 30.12 230.93 29.35 231.53 28.4 232.12 27.44" style="fill:none; stroke:#aaa; stroke-miterlimit:10; stroke-width:.5px;"/><polyline points="181.26 0 185.05 5.78 188.52 11.74 190.96 16.45 193.21 21.25 194.83 24.95 196.44 28.66 197.77 31.45 199.33 34.1 200.97 36.11 203 37.73 205.67 38.97 208.55 39.66 212.8 40.05 217.09 40.04 223.42 39.64 229.74 39 228.41 39.49 227.06 39.9 226.22 40.06 225.38 40.1 224.92 39.98 224.56 39.67 224.43 39.19 224.46 38.68 224.66 37.92 224.94 37.18 225.38 36.2 225.86 35.24 226.46 34.08 227.08 32.93 227.77 31.62 228.46 30.31" style="fill:none; stroke:#aaa; stroke-miterlimit:10; stroke-width:.5px;"/><polyline points="175.96 0 179.49 6.15 182.72 12.44 185.05 17.48 187.21 22.58 188.82 26.6 190.45 30.61 191.85 33.71 193.48 36.7 195.21 39.04 197.33 41.04 200.04 42.7 203.02 43.83 207.25 44.76 211.57 45.25 217.8 45.51 224.03 45.48 222.83 45.7 221.63 45.77 220.88 45.67 220.21 45.37 219.81 44.92 219.63 44.36 219.62 43.57 219.76 42.8 220.06 41.76 220.44 40.75 220.97 39.51 221.54 38.29 222.23 36.88 222.92 35.47 223.68 33.93 224.43 32.38" style="fill:none; stroke:#aaa; stroke-miterlimit:10; stroke-width:.5px;"/><polyline points="171.1 0 174.38 6.37 177.4 12.87 179.61 18.11 181.68 23.4 183.27 27.61 184.9 31.81 186.33 35.12 188 38.32 189.78 40.89 191.94 43.14 194.66 45.07 197.68 46.51 201.85 47.8 206.15 48.63 212.22 49.34 218.32 49.73 217.23 49.74 216.17 49.55 215.5 49.23 214.97 48.71 214.68 48.02 214.6 47.27 214.68 46.29 214.9 45.31 215.28 44.09 215.73 42.89 216.32 41.47 216.95 40.07 217.69 38.5 218.43 36.93 219.23 35.23 220.02 33.53" style="fill:none; stroke:#aaa; stroke-miterlimit:10; stroke-width:.5px;"/><polyline points="166.72 0 169.78 6.44 172.59 12.98 174.68 18.28 176.66 23.62 178.21 27.91 179.81 32.18 181.24 35.59 182.92 38.88 184.7 41.57 186.87 43.96 189.55 46.04 192.55 47.66 196.62 49.16 200.83 50.22 206.7 51.21 212.61 51.88 211.61 51.74 210.67 51.38 210.07 50.9 209.66 50.24 209.45 49.4 209.43 48.53 209.58 47.42 209.85 46.32 210.28 44.98 210.78 43.67 211.41 42.15 212.08 40.64 212.84 38.97 213.61 37.31 214.43 35.53 215.23 33.74" style="fill:none; stroke:#aaa; stroke-miterlimit:10; stroke-width:.5px;"/><polyline points="162.8 0 165.65 6.35 168.29 12.78 170.26 18.02 172.14 23.29 173.63 27.53 175.17 31.76 176.58 35.15 178.22 38.44 179.98 41.14 182.1 43.57 184.71 45.7 187.62 47.4 191.54 49 195.62 50.17 201.22 51.31 206.9 52.13 205.97 51.89 205.13 51.44 204.59 50.86 204.25 50.14 204.1 49.22 204.13 48.28 204.33 47.1 204.63 45.94 205.09 44.56 205.61 43.19 206.26 41.63 206.94 40.08 207.7 38.38 208.47 36.68 209.29 34.88 210.09 33.07" style="fill:none; stroke:#aaa; stroke-miterlimit:10; stroke-width:.5px;"/><polyline points="159.27 0 161.93 6.13 164.39 12.33 166.25 17.39 168.02 22.48 169.43 26.59 170.91 30.67 172.26 33.97 173.84 37.16 175.53 39.8 177.57 42.18 180.07 44.29 182.86 45.98 186.59 47.58 190.48 48.78 195.8 49.97 201.19 50.84 200.32 50.56 199.55 50.07 199.06 49.45 198.78 48.7 198.67 47.76 198.72 46.81 198.94 45.62 199.26 44.45 199.73 43.06 200.26 41.69 200.9 40.13 201.57 38.59 202.33 36.91 203.09 35.23 203.88 33.45 204.66 31.66" style="fill:none; stroke:#aaa; stroke-miterlimit:10; stroke-width:.5px;"/><polyline points="156.02 0 158.5 5.81 160.8 11.7 162.54 16.5 164.2 21.32 165.53 25.23 166.93 29.1 168.21 32.24 169.7 35.28 171.3 37.8 173.23 40.07 175.59 42.08 178.23 43.71 181.74 45.26 185.41 46.43 190.41 47.58 195.48 48.45 194.66 48.16 193.96 47.66 193.5 47.04 193.25 46.3 193.17 45.37 193.24 44.44 193.47 43.28 193.79 42.13 194.25 40.78 194.77 39.45 195.4 37.94 196.05 36.44 196.78 34.82 197.51 33.19 198.27 31.47 199.01 29.74" style="fill:none; stroke:#aaa; stroke-miterlimit:10; stroke-width:.5px;"/><polyline points="152.95 0 155.27 5.43 157.41 10.93 159.03 15.42 160.58 19.93 161.83 23.58 163.13 27.2 164.32 30.14 165.72 32.97 167.21 35.33 169.01 37.46 171.21 39.34 173.67 40.86 176.95 42.31 180.37 43.4 185.04 44.49 189.77 45.3 189 45.02 188.34 44.55 187.92 43.95 187.69 43.25 187.62 42.37 187.69 41.47 187.92 40.37 188.23 39.27 188.68 37.99 189.18 36.71 189.78 35.28 190.4 33.85 191.1 32.31 191.79 30.76 192.51 29.12 193.21 27.48" style="fill:none; stroke:#aaa; stroke-miterlimit:10; stroke-width:.5px;"/><polyline points="149.97 0 152.13 5.02 154.12 10.1 155.62 14.25 157.06 18.41 158.21 21.79 159.41 25.14 160.51 27.85 161.8 30.47 163.18 32.64 164.85 34.6 166.88 36.33 169.16 37.73 172.19 39.06 175.35 40.06 179.67 41.05 184.05 41.78 183.33 41.53 182.71 41.09 182.32 40.54 182.11 39.89 182.04 39.06 182.12 38.23 182.34 37.19 182.64 36.16 183.06 34.95 183.54 33.76 184.11 32.41 184.69 31.08 185.35 29.62 186 28.17 186.67 26.64 187.32 25.1" style="fill:none; stroke:#aaa; stroke-miterlimit:10; stroke-width:.5px;"/><polyline points="146.97 0 148.96 4.61 150.8 9.28 152.18 13.09 153.51 16.92 154.57 20.02 155.67 23.09 156.69 25.58 157.87 27.99 159.14 29.98 160.67 31.78 162.54 33.37 164.63 34.64 167.42 35.86 170.33 36.77 174.31 37.66 178.34 38.33 177.67 38.1 177.09 37.7 176.72 37.18 176.53 36.58 176.48 35.81 176.56 35.03 176.76 34.06 177.05 33.11 177.45 31.98 177.9 30.86 178.43 29.61 178.99 28.36 179.59 27 180.2 25.64 180.82 24.21 181.43 22.78" style="fill:none; stroke:#aaa; stroke-miterlimit:10; stroke-width:.5px;"/><polyline points="143.85 0 145.66 4.24 147.34 8.54 148.61 12.05 149.82 15.57 150.79 18.43 151.81 21.26 152.74 23.55 153.83 25.77 155 27.61 156.4 29.27 158.12 30.74 160.05 31.93 162.61 33.05 165.29 33.9 168.94 34.74 172.63 35.36 172.01 35.14 171.48 34.76 171.15 34.27 170.99 33.7 170.95 32.97 171.03 32.23 171.24 31.32 171.51 30.42 171.9 29.36 172.32 28.31 172.82 27.13 173.34 25.96 173.91 24.69 174.48 23.41 175.06 22.08 175.61 20.74" style="fill:none; stroke:#aaa; stroke-miterlimit:10; stroke-width:.5px;"/><polyline points="140.49 0 142.12 3.95 143.63 7.94 144.78 11.21 145.89 14.49 146.78 17.15 147.72 19.8 148.59 21.94 149.6 24.02 150.69 25.75 151.99 27.32 153.58 28.72 155.37 29.86 157.72 30.95 160.19 31.78 163.53 32.61 166.92 33.25 166.37 33.01 165.91 32.61 165.62 32.11 165.49 31.55 165.48 30.83 165.57 30.12 165.78 29.24 166.06 28.37 166.43 27.35 166.84 26.34 167.32 25.22 167.81 24.1 168.35 22.89 168.88 21.69 169.43 20.42 169.95 19.15" style="fill:none; stroke:#aaa; stroke-miterlimit:10; stroke-width:.5px;"/><polyline points="136.83 0 138.26 3.75 139.6 7.54 140.64 10.64 141.64 13.76 142.46 16.3 143.34 18.83 144.16 20.9 145.12 22.9 146.15 24.58 147.39 26.12 148.88 27.49 150.55 28.65 152.73 29.76 155.02 30.64 158.09 31.54 161.21 32.25 160.73 31.94 160.36 31.51 160.14 30.96 160.06 30.37 160.09 29.64 160.21 28.9 160.44 28.02 160.72 27.15 161.09 26.14 161.49 25.14 161.96 24.04 162.44 22.95 162.96 21.77 163.47 20.6 163.98 19.38 164.48 18.15" style="fill:none; stroke:#aaa; stroke-miterlimit:10; stroke-width:.5px;"/><polyline points="132.83 0 134.05 3.66 135.21 7.35 136.12 10.39 137.02 13.44 137.79 15.94 138.63 18.43 139.42 20.48 140.36 22.48 141.36 24.18 142.56 25.75 143.99 27.17 145.59 28.4 147.63 29.6 149.79 30.6 152.61 31.63 155.5 32.5 155.11 32.07 154.86 31.56 154.72 30.92 154.7 30.27 154.79 29.48 154.95 28.69 155.2 27.77 155.51 26.86 155.89 25.83 156.3 24.81 156.77 23.7 157.25 22.59 157.75 21.42 158.26 20.24 158.76 19.03 159.25 17.81" style="fill:none; stroke:#aaa; stroke-miterlimit:10; stroke-width:.5px;"/><polyline points="128.49 0 129.49 3.61 130.44 7.22 131.24 10.26 132.05 13.29 132.77 15.83 133.58 18.35 134.37 20.48 135.31 22.56 136.32 24.37 137.51 26.07 138.91 27.64 140.48 29.04 142.42 30.42 144.48 31.61 147.1 32.87 149.79 33.95 149.53 33.37 149.39 32.75 149.36 32 149.42 31.25 149.57 30.36 149.79 29.49 150.09 28.49 150.43 27.5 150.84 26.42 151.27 25.34 151.75 24.18 152.24 23.03 152.75 21.83 153.25 20.62 153.76 19.39 154.25 18.15" style="fill:none; stroke:#aaa; stroke-miterlimit:10; stroke-width:.5px;"/><polyline points="123.83 0 124.58 3.57 125.34 7.13 126.01 10.21 126.73 13.27 127.43 15.92 128.22 18.54 129.03 20.83 129.99 23.07 131.04 25.09 132.26 27 133.66 28.8 135.23 30.45 137.1 32.09 139.1 33.56 141.54 35.09 144.08 36.45 143.97 35.7 143.95 34.94 144.03 34.05 144.18 33.17 144.42 32.17 144.7 31.18 145.06 30.08 145.45 29 145.9 27.83 146.36 26.67 146.87 25.45 147.37 24.22 147.9 22.96 148.42 21.7 148.94 20.41 149.45 19.12" style="fill:none; stroke:#aaa; stroke-miterlimit:10; stroke-width:.5px;"/><polyline points="118.92 0 119.42 3.46 119.97 6.92 120.52 10.03 121.16 13.13 121.83 15.93 122.61 18.71 123.47 21.24 124.47 23.73 125.58 26.04 126.85 28.26 128.28 30.39 129.87 32.4 131.7 34.37 133.67 36.2 135.96 38.05 138.37 39.75 138.41 38.82 138.53 37.89 138.73 36.85 138.98 35.82 139.31 34.69 139.67 33.57 140.1 32.36 140.55 31.15 141.05 29.88 141.55 28.62 142.09 27.3 142.64 25.99 143.19 24.65 143.74 23.3 144.28 21.95 144.81 20.59" style="fill:none; stroke:#aaa; stroke-miterlimit:10; stroke-width:.5px;"/><polyline points="113.85 0 114.09 3.1 114.42 6.19 114.86 9.25 115.41 12.28 116.07 15.25 116.85 18.2 117.76 21.07 118.81 23.9 120 26.65 121.33 29.33 122.81 31.94 124.44 34.45 126.25 36.88 128.2 39.18 130.36 41.41 132.66 43.49 132.86 42.39 133.11 41.29 133.44 40.09 133.8 38.9 134.23 37.62 134.68 36.35 135.18 35.01 135.7 33.68 136.26 32.29 136.82 30.91 137.4 29.49 137.99 28.07 138.58 26.63 139.17 25.19 139.74 23.74 140.3 22.29" style="fill:none; stroke:#aaa; stroke-miterlimit:10; stroke-width:.5px;"/><polyline points="108.73 .02 108.69 2.11 108.82 4.2 109.14 6.9 109.6 9.57 110.26 12.69 111.04 15.78 112.02 19.15 113.11 22.48 114.38 25.93 115.77 29.33 117.31 32.69 118.99 35.98 120.77 39.09 122.73 42.09 124.74 44.78 126.95 47.31 127.31 46.03 127.7 44.75 128.16 43.39 128.64 42.04 129.17 40.61 129.71 39.19 130.3 37.71 130.9 36.24 131.52 34.72 132.15 33.21 132.78 31.68 133.42 30.14 134.05 28.59 134.68 27.04 135.29 25.5 135.88 23.95" style="fill:none; stroke:#aaa; stroke-miterlimit:10; stroke-width:.5px;"/><polyline points="103.65 .04 103.31 2.25 103.26 4.48 103.45 7.35 103.83 10.2 104.47 13.52 105.27 16.82 106.29 20.41 107.44 23.97 108.78 27.65 110.24 31.29 111.83 34.87 113.55 38.39 115.33 41.7 117.26 44.92 119.16 47.77 121.24 50.49 121.74 49.08 122.27 47.68 122.85 46.2 123.44 44.72 124.06 43.19 124.7 41.66 125.36 40.08 126.03 38.51 126.71 36.91 127.4 35.3 128.08 33.69 128.76 32.06 129.44 30.44 130.1 28.81 130.74 27.2 131.37 25.58" style="fill:none; stroke:#aaa; stroke-miterlimit:10; stroke-width:.5px;"/><polyline points="98.69 .06 98.07 2.35 97.83 4.72 97.88 7.73 98.2 10.74 98.82 14.24 99.62 17.71 100.68 21.49 101.88 25.23 103.28 29.09 104.8 32.91 106.43 36.65 108.17 40.34 109.93 43.77 111.82 47.13 113.6 50.04 115.53 52.86 116.17 51.36 116.83 49.86 117.52 48.3 118.21 46.74 118.93 45.13 119.65 43.52 120.39 41.88 121.12 40.24 121.86 38.57 122.6 36.9 123.33 35.22 124.05 33.54 124.76 31.87 125.46 30.18 126.13 28.52 126.79 26.85" style="fill:none; stroke:#aaa; stroke-miterlimit:10; stroke-width:.5px;"/><polyline points="93.92 .07 93.02 2.42 92.6 4.9 92.52 8.03 92.76 11.15 93.34 14.79 94.14 18.4 95.22 22.32 96.47 26.21 97.91 30.21 99.47 34.16 101.12 38.02 102.87 41.84 104.6 45.35 106.41 48.81 108.07 51.75 109.82 54.64 110.59 53.06 111.37 51.48 112.16 49.85 112.95 48.22 113.76 46.55 114.56 44.88 115.36 43.19 116.15 41.48 116.95 39.77 117.73 38.05 118.5 36.32 119.26 34.6 119.99 32.88 120.72 31.16 121.41 29.46 122.09 27.76" style="fill:none; stroke:#aaa; stroke-miterlimit:10; stroke-width:.5px;"/><polyline points="89.32 .08 88.16 2.45 87.56 5.02 87.34 8.21 87.51 11.41 88.05 15.14 88.84 18.83 89.94 22.85 91.2 26.82 92.67 30.91 94.25 34.96 95.91 38.89 97.65 42.79 99.32 46.35 101.05 49.89 102.56 52.86 104.11 55.8 105 54.16 105.89 52.51 106.78 50.83 107.66 49.14 108.54 47.42 109.41 45.7 110.28 43.96 111.13 42.21 111.96 40.47 112.79 38.71 113.59 36.96 114.38 35.2 115.14 33.46 115.88 31.71 116.59 29.99 117.29 28.26" style="fill:none; stroke:#aaa; stroke-miterlimit:10; stroke-width:.5px;"/><polyline points="84.87 .09 83.47 2.45 82.68 5.08 82.33 8.3 82.42 11.55 82.91 15.32 83.69 19.05 84.78 23.11 86.06 27.13 87.54 31.26 89.14 35.35 90.78 39.33 92.49 43.28 94.09 46.87 95.71 50.46 97.07 53.45 98.39 56.45 99.41 54.75 100.4 53.05 101.39 51.32 102.36 49.58 103.31 47.83 104.25 46.06 105.17 44.3 106.07 42.52 106.94 40.75 107.8 38.96 108.63 37.19 109.44 35.42 110.22 33.66 110.98 31.9 111.71 30.16 112.41 28.42" style="fill:none; stroke:#aaa; stroke-miterlimit:10; stroke-width:.5px;"/><polyline points="80.5 .1 78.88 2.44 77.89 5.12 77.41 8.35 77.42 11.62 77.86 15.41 78.62 19.16 79.71 23.25 80.99 27.29 82.48 31.44 84.07 35.56 85.7 39.55 87.37 43.53 88.89 47.14 90.4 50.75 91.59 53.75 92.68 56.78 93.81 55.04 94.92 53.29 96 51.52 97.06 49.74 98.08 47.95 99.09 46.15 100.06 44.35 101.01 42.55 101.93 40.75 102.82 38.94 103.68 37.15 104.52 35.35 105.31 33.58 106.09 31.8 106.82 30.06 107.53 28.31" style="fill:none; stroke:#aaa; stroke-miterlimit:10; stroke-width:.5px;"/><polyline points="76.17 .1 74.32 2.42 73.14 5.14 72.52 8.37 72.45 11.67 72.84 15.47 73.58 19.23 74.67 23.34 75.95 27.39 77.44 31.56 79.03 35.69 80.64 39.7 82.26 43.7 83.71 47.31 85.09 50.95 86.12 53.96 86.97 57.01 88.26 55.19 89.52 53.36 90.73 51.54 91.91 49.71 93.04 47.9 94.14 46.08 95.2 44.28 96.22 42.47 97.2 40.69 98.15 38.89 99.05 37.13 99.92 35.35 100.74 33.61 101.54 31.86 102.29 30.15 103.01 28.43" style="fill:none; stroke:#aaa; stroke-miterlimit:10; stroke-width:.5px;"/><polyline points="71.86 .11 69.79 2.4 68.4 5.16 67.66 8.39 67.51 11.7 67.85 15.52 68.55 19.29 69.64 23.41 70.93 27.47 72.42 31.65 74 35.79 75.58 39.8 77.16 43.82 78.53 47.44 79.79 51.09 80.66 54.11 81.26 57.17 82.73 55.27 84.16 53.35 85.51 51.5 86.83 49.62 88.07 47.8 89.29 45.97 90.42 44.18 91.53 42.39 92.57 40.64 93.57 38.87 94.51 37.15 95.42 35.41 96.27 33.72 97.09 32.01 97.86 30.33 98.59 28.65" style="fill:none; stroke:#aaa; stroke-miterlimit:10; stroke-width:.5px;"/><polyline points="67.57 .11 65.28 2.37 63.69 5.17 62.82 8.39 62.58 11.72 62.87 15.54 63.55 19.32 64.63 23.44 65.92 27.51 67.41 31.69 68.99 35.84 70.54 39.86 72.07 43.88 73.36 47.51 74.49 51.17 75.2 54.2 75.55 57.27 77.18 55.3 78.79 53.31 80.27 51.42 81.72 49.5 83.06 47.67 84.37 45.82 85.58 44.04 86.75 42.24 87.84 40.51 88.89 38.76 89.86 37.06 90.8 35.34 91.66 33.67 92.49 31.97 93.26 30.31 94 28.64" style="fill:none; stroke:#aaa; stroke-miterlimit:10; stroke-width:.5px;"/><polyline points="63.3 .11 60.8 2.35 59.01 5.18 58 8.38 57.68 11.73 57.92 15.55 58.58 19.32 59.64 23.45 60.93 27.51 62.42 31.7 63.98 35.85 65.51 39.86 66.99 43.89 68.2 47.51 69.2 51.19 69.74 54.22 69.84 57.29 71.64 55.26 73.41 53.2 75.02 51.27 76.6 49.32 78.04 47.47 79.44 45.6 80.72 43.83 81.96 42.02 83.09 40.3 84.18 38.55 85.17 36.87 86.13 35.16 87.01 33.5 87.85 31.81 88.62 30.15 89.36 28.47" style="fill:none; stroke:#aaa; stroke-miterlimit:10; stroke-width:.5px;"/><polyline points="59.06 .12 56.35 2.32 54.35 5.17 53.22 8.36 52.81 11.71 52.99 15.53 53.62 19.3 54.68 23.42 55.96 27.48 57.45 31.66 59 35.81 60.5 39.81 61.92 43.84 63.04 47.45 63.91 51.13 64.28 54.17 64.13 57.23 66.11 55.14 68.05 53.02 69.79 51.06 71.5 49.07 73.03 47.21 74.52 45.32 75.86 43.54 77.15 41.74 78.32 40.02 79.45 38.28 80.47 36.6 81.44 34.9 82.32 33.24 83.17 31.56 83.94 29.89 84.67 28.21" style="fill:none; stroke:#aaa; stroke-miterlimit:10; stroke-width:.5px;"/><polyline points="54.83 .12 51.93 2.3 49.71 5.16 48.46 8.32 47.96 11.69 48.08 15.49 48.69 19.25 49.73 23.37 51.01 27.41 52.49 31.58 54.03 35.72 55.5 39.71 56.86 43.73 57.9 47.34 58.62 51.01 58.83 54.07 58.42 57.1 60.57 54.96 62.69 52.78 64.56 50.79 66.39 48.76 68.01 46.89 69.59 44.98 70.99 43.21 72.34 41.4 73.54 39.69 74.69 37.95 75.73 36.28 76.71 34.58 77.6 32.92 78.44 31.24 79.22 29.57 79.95 27.88" style="fill:none; stroke:#aaa; stroke-miterlimit:10; stroke-width:.5px;"/><polyline points="50.64 .12 47.54 2.27 45.11 5.14 43.73 8.26 43.15 11.63 43.21 15.4 43.79 19.14 44.81 23.21 46.08 27.21 47.55 31.32 49.08 35.41 50.51 39.32 51.82 43.27 52.76 46.78 53.35 50.35 53.37 53.32 52.71 56.2 55.05 54.07 57.34 51.89 59.35 49.92 61.31 47.92 63.02 46.08 64.69 44.2 66.14 42.46 67.54 40.69 68.78 39.01 69.95 37.3 71 35.67 71.99 33.99 72.88 32.35 73.72 30.68 74.49 29.01 75.22 27.31" style="fill:none; stroke:#aaa; stroke-miterlimit:10; stroke-width:.5px;"/><polyline points="46.54 .13 43.24 2.23 40.6 5.1 39.1 8.17 38.42 11.52 38.42 15.24 38.97 18.92 39.97 22.92 41.23 26.86 42.68 30.87 44.18 34.87 45.57 38.66 46.81 42.49 47.65 45.85 48.09 49.28 47.92 52.11 47 54.77 49.53 52.68 52.01 50.55 54.15 48.64 56.25 46.67 58.04 44.9 59.79 43.07 61.29 41.4 62.74 39.67 63.99 38.06 65.18 36.4 66.23 34.8 67.22 33.16 68.1 31.55 68.93 29.9 69.7 28.22 70.42 26.53" style="fill:none; stroke:#aaa; stroke-miterlimit:10; stroke-width:.5px;"/><polyline points="42.58 .13 39.11 2.17 36.25 5.01 34.63 7.99 33.85 11.3 33.79 14.93 34.29 18.53 35.26 22.42 36.5 26.23 37.92 30.11 39.38 33.96 40.71 37.57 41.87 41.24 42.59 44.39 42.86 47.61 42.48 50.24 41.29 52.61 44.01 50.61 46.69 48.56 48.96 46.74 51.18 44.87 53.05 43.19 54.87 41.45 56.41 39.87 57.89 38.23 59.15 36.69 60.34 35.1 61.38 33.56 62.35 31.98 63.23 30.4 64.04 28.79 64.8 27.12 65.51 25.43" style="fill:none; stroke:#aaa; stroke-miterlimit:10; stroke-width:.5px;"/><polyline points="38.81 .13 35.16 2.1 32.1 4.87 30.37 7.72 29.48 10.95 29.35 14.43 29.8 17.9 30.73 21.62 31.92 25.27 33.29 28.93 34.71 32.57 35.94 35.93 37 39.35 37.59 42.21 37.67 45.13 37.05 47.49 35.58 49.44 38.49 47.6 41.37 45.7 43.76 44.04 46.1 42.31 48.04 40.79 49.92 39.19 51.48 37.74 52.97 36.22 54.23 34.8 55.4 33.31 56.42 31.86 57.36 30.36 58.21 28.84 58.99 27.28 59.74 25.63 60.44 23.96" style="fill:none; stroke:#aaa; stroke-miterlimit:10; stroke-width:.5px;"/><polyline points="35.22 .13 31.42 2 28.15 4.66 26.31 7.36 25.3 10.46 25.09 13.75 25.49 17.04 26.36 20.52 27.5 23.93 28.8 27.3 30.14 30.65 31.28 33.67 32.22 36.74 32.65 39.22 32.53 41.71 31.58 43.71 29.87 45.1 32.98 43.5 36.06 41.85 38.57 40.43 41.02 38.93 43.01 37.62 44.93 36.23 46.5 34.97 47.98 33.62 49.21 32.36 50.35 31.02 51.33 29.69 52.22 28.3 53.04 26.86 53.79 25.37 54.53 23.75 55.23 22.1" style="fill:none; stroke:#aaa; stroke-miterlimit:10; stroke-width:.5px;"/><polyline points="31.77 .13 27.82 1.88 24.34 4.42 22.4 6.91 21.27 9.85 20.98 12.91 21.31 15.96 22.11 19.15 23.19 22.25 24.41 25.24 25.67 28.22 26.69 30.78 27.5 33.4 27.77 35.36 27.41 37.29 26.04 38.73 24.16 39.4 27.47 38.2 30.77 36.93 33.37 35.86 35.94 34.7 37.96 33.69 39.92 32.59 41.46 31.6 42.92 30.5 44.11 29.44 45.19 28.3 46.13 27.12 46.96 25.88 47.75 24.53 48.46 23.13 49.21 21.54 49.92 19.94" style="fill:none; stroke:#aaa; stroke-miterlimit:10; stroke-width:.5px;"/><polyline points="28.37 .13 24.28 1.75 20.6 4.14 18.57 6.42 17.31 9.18 16.93 11.94 17.19 14.72 17.91 17.54 18.93 20.25 20.06 22.77 21.24 25.25 22.11 27.19 22.8 29.19 22.91 30.47 22.3 31.56 20.41 32 18.45 31.83 21.97 31.24 25.48 30.6 28.19 30.04 30.86 29.41 32.89 28.84 34.88 28.16 36.38 27.52 37.81 26.75 38.94 25.98 39.96 25.08 40.84 24.1 41.62 23.04 42.37 21.8 43.06 20.52 43.84 18.98 44.59 17.42" style="fill:none; stroke:#aaa; stroke-miterlimit:10; stroke-width:.5px;"/><polyline points="24.93 .13 20.7 1.64 16.81 3.86 14.71 5.87 13.29 8.39 12.83 10.7 13.02 13.04 13.66 15.17 14.64 17.17 15.63 18.69 16.78 20.1 17.38 20.71 18.08 21.18 17.74 20.44 17.19 19.75 15.02 17.4 12.74 15.15 16.48 16.32 20.21 17.51 23 18.41 25.79 19.29 27.8 19.89 29.83 20.43 31.25 20.72 32.68 20.89 33.71 20.85 34.7 20.61 35.53 20.17 36.25 19.56 37.01 18.66 37.68 17.68 38.52 16.31 39.35 14.92" style="fill:none; stroke:#aaa; stroke-miterlimit:10; stroke-width:.5px;"/><polyline points="21.35 .13 16.95 1.54 12.85 3.65 10.67 5.52 9.11 7.92 8.59 10.09 8.71 12.32 9.29 14.33 10.21 16.22 11.15 17.66 12.22 18.99 12.74 19.54 13.3 20.01 12.71 19.32 12.04 18.67 9.57 16.45 7.02 14.32 10.95 15.39 14.85 16.49 17.73 17.31 20.59 18.12 22.62 18.67 24.65 19.16 26.03 19.42 27.43 19.55 28.41 19.49 29.35 19.23 30.14 18.78 30.82 18.16 31.56 17.25 32.24 16.28 33.13 14.9 34.03 13.52" style="fill:none; stroke:#aaa; stroke-miterlimit:10; stroke-width:.5px;"/><polyline points="17.52 .13 12.95 1.48 8.64 3.51 6.36 5.28 4.68 7.62 4.09 9.69 4.16 11.84 4.71 13.78 5.59 15.59 6.49 16.97 7.5 18.25 7.96 18.76 8.41 19.24 7.64 18.59 6.84 17.94 4.1 15.83 1.31 13.76 5.43 14.76 9.52 15.8 12.49 16.57 15.45 17.33 17.5 17.84 19.56 18.3 20.93 18.53 22.3 18.64 23.25 18.57 24.16 18.29 24.92 17.82 25.57 17.19 26.32 16.27 27.02 15.29 27.98 13.9 28.96 12.51" style="fill:none; stroke:#aaa; stroke-miterlimit:10; stroke-width:.5px;"/><polyline points="13.38 .13 8.62 1.46 4.1 3.47 1.72 5.2 -.07 7.51 -.72 9.55 -.69 11.68 -.16 13.59 .71 15.37 1.6 16.73 2.59 18 3.01 18.49 3.39 18.97 2.49 18.35 1.58 17.7 -1.39 15.61 -4.4 13.58 -.08 14.54 4.22 15.55 7.3 16.29 10.37 17.04 12.47 17.53 14.58 17.97 15.95 18.19 17.34 18.28 18.27 18.19 19.16 17.9 19.92 17.4 20.57 16.77 21.34 15.81 22.07 14.81 23.11 13.38 24.17 11.96" style="fill:none; stroke:#aaa; stroke-miterlimit:10; stroke-width:.5px;"/><polyline points="8.9 .13 3.92 1.48 -.81 3.52 -3.3 5.27 -5.2 7.62 -5.89 9.68 -5.88 11.85 -5.34 13.78 -4.45 15.59 -3.56 16.97 -2.55 18.26 -2.13 18.75 -1.78 19.25 -2.78 18.62 -3.76 17.96 -6.92 15.86 -10.11 13.8 -5.57 14.78 -1.05 15.8 2.17 16.54 5.38 17.3 7.55 17.79 9.73 18.23 11.14 18.45 12.55 18.53 13.51 18.43 14.41 18.11 15.19 17.59 15.86 16.92 16.66 15.92 17.43 14.87 18.55 13.37 19.7 11.9" style="fill:none; stroke:#aaa; stroke-miterlimit:10; stroke-width:.5px;"/><polyline points="4.08 .13 -1.14 1.54 -6.1 3.68 -8.7 5.5 -10.69 7.97 -11.41 10.12 -11.4 12.39 -10.84 14.42 -9.91 16.31 -8.97 17.75 -7.91 19.1 -7.47 19.62 -7.11 20.14 -8.15 19.48 -9.18 18.79 -12.48 16.6 -15.82 14.44 -11.04 15.47 -6.29 16.54 -2.91 17.32 .46 18.11 2.74 18.62 5.02 19.08 6.49 19.3 7.98 19.38 8.97 19.27 9.92 18.93 10.73 18.36 11.43 17.64 12.29 16.57 13.11 15.45 14.31 13.85 15.55 12.28" style="fill:none; stroke:#aaa; stroke-miterlimit:10; stroke-width:.5px;"/><polyline points="-1.06 .13 -6.53 1.64 -11.71 3.93 -14.44 5.9 -16.51 8.54 -17.25 10.85 -17.22 13.28 -16.61 15.45 -15.62 17.48 -14.61 19.02 -13.47 20.47 -12.99 21.03 -12.56 21.58 -13.62 20.87 -14.66 20.13 -18.07 17.77 -21.53 15.45 -16.5 16.56 -11.49 17.72 -7.92 18.57 -4.37 19.42 -1.96 19.98 .45 20.47 2.01 20.7 3.58 20.78 4.65 20.65 5.65 20.27 6.52 19.65 7.27 18.87 8.2 17.69 9.08 16.48 10.35 14.75 11.68 13.04" style="fill:none; stroke:#aaa; stroke-miterlimit:10; stroke-width:.5px;"/><polyline points="-6.42 .13 -12.16 1.78 -17.58 4.26 -20.44 6.4 -22.58 9.25 -23.34 11.77 -23.27 14.39 -22.6 16.75 -21.52 18.95 -20.43 20.63 -19.19 22.19 -18.65 22.8 -18.12 23.39 -19.15 22.61 -20.19 21.82 -23.69 19.26 -27.24 16.76 -21.94 17.99 -16.66 19.27 -12.89 20.2 -9.13 21.14 -6.58 21.74 -4.02 22.28 -2.35 22.53 -.67 22.61 .49 22.46 1.57 22.04 2.52 21.35 3.33 20.49 4.32 19.2 5.27 17.87 6.63 15.97 8.03 14.1" style="fill:none; stroke:#aaa; stroke-miterlimit:10; stroke-width:.5px;"/><polyline points="-11.94 .13 -17.95 1.93 -23.61 4.63 -26.6 6.98 -28.8 10.07 -29.57 12.82 -29.47 15.67 -28.73 18.23 -27.55 20.63 -26.35 22.46 -25 24.16 -24.38 24.84 -23.75 25.47 -24.73 24.6 -25.75 23.76 -29.32 20.97 -32.95 18.25 -27.37 19.62 -21.81 21.03 -17.83 22.07 -13.86 23.1 -11.14 23.77 -8.42 24.36 -6.62 24.63 -4.82 24.71 -3.57 24.54 -2.4 24.07 -1.37 23.3 -.48 22.36 .59 20.94 1.6 19.47 3.04 17.39 4.53 15.33" style="fill:none; stroke:#aaa; stroke-miterlimit:10; stroke-width:.5px;"/><polyline points="-17.5 .13 -23.79 2.09 -29.68 5.02 -32.81 7.58 -35.07 10.92 -35.85 13.91 -35.71 17 -34.89 19.78 -33.61 22.38 -32.31 24.36 -30.83 26.21 -30.13 26.96 -29.39 27.62 -30.32 26.67 -31.32 25.77 -34.95 22.74 -38.66 19.8 -32.79 21.31 -26.95 22.88 -22.75 24.02 -18.56 25.15 -15.68 25.88 -12.79 26.52 -10.87 26.82 -8.95 26.9 -7.6 26.7 -6.33 26.19 -5.21 25.34 -4.26 24.3 -3.1 22.74 -2.02 21.13 -.49 18.84 1.08 16.59" style="fill:none; stroke:#aaa; stroke-miterlimit:10; stroke-width:.5px;"/></svg>