<?xml version="1.0" encoding="UTF-8"?>
<svg id="Ebene_1" xmlns="http://www.w3.org/2000/svg" width="222" height="222" viewBox="0 0 222 222">
  <polyline points="219.73 0 225.4 4.74 230.77 9.8 234.37 13.65 237.76 17.68 240.1 20.7 242.41 23.72 244.31 25.97 246.43 28 248.84 29.55 251.51 30.59 255.4 31.32 259.36 31.57 265.52 31.45 271.67 31.02 280.91 30.11 290.15 29.03 287.24 29.94 284.32 30.75 283.03 31.01 281.72 31.05 281.4 30.65 281.61 30.12 282.39 29.12 283.26 28.18 284.59 26.8 285.92 25.42 287.43 23.76 288.87 22.04 290.21 20.2 291.36 18.25 292.2 16.31 292.67 14.25" fill="none" stroke="#aaa" stroke-miterlimit="10" stroke-width=".5"/>
  <polyline points="213.98 0 219.38 4.99 224.48 10.28 227.97 14.36 231.25 18.6 233.59 21.84 235.92 25.08 237.88 27.57 240.09 29.83 242.58 31.66 245.37 32.99 249.31 34.08 253.37 34.65 259.53 34.98 265.7 34.96 274.84 34.59 283.97 34.02 281.34 34.6 278.69 34.99 277.53 35 276.45 34.64 276.27 33.91 276.55 33.17 277.38 31.94 278.32 30.77 279.69 29.2 281.07 27.63 282.62 25.81 284.12 23.93 285.52 21.95 286.77 19.87 287.72 17.81 288.36 15.63" fill="none" stroke="#aaa" stroke-miterlimit="10" stroke-width=".5"/>
  <polyline points="209.07 0 214.23 5.08 219.09 10.43 222.46 14.6 225.64 18.9 227.94 22.23 230.25 25.55 232.22 28.14 234.45 30.51 236.95 32.45 239.77 33.92 243.69 35.18 247.75 35.93 253.81 36.48 259.91 36.66 268.85 36.58 277.79 36.27 275.36 36.68 272.91 36.85 271.82 36.73 270.91 36.18 270.82 35.3 271.16 34.45 272.01 33.11 272.99 31.84 274.37 30.17 275.76 28.52 277.32 26.63 278.83 24.69 280.25 22.65 281.53 20.52 282.52 18.41 283.22 16.19" fill="none" stroke="#aaa" stroke-miterlimit="10" stroke-width=".5"/>
  <polyline points="205.03 0 209.99 4.98 214.65 10.24 217.9 14.33 220.96 18.56 223.19 21.83 225.43 25.1 227.36 27.66 229.53 30.01 231.98 31.94 234.74 33.42 238.55 34.7 242.51 35.48 248.39 36.09 254.31 36.33 262.96 36.34 271.61 36.11 269.3 36.46 266.97 36.56 265.94 36.4 265.11 35.81 265.06 34.9 265.4 34.03 266.26 32.67 267.23 31.39 268.59 29.73 269.96 28.08 271.49 26.2 272.96 24.28 274.35 22.27 275.6 20.16 276.58 18.08 277.26 15.89" fill="none" stroke="#aaa" stroke-miterlimit="10" stroke-width=".5"/>
  <polyline points="201.82 0 206.59 4.73 211.09 9.72 214.21 13.59 217.15 17.6 219.28 20.7 221.41 23.8 223.24 26.21 225.3 28.42 227.63 30.23 230.23 31.6 233.86 32.77 237.62 33.47 243.24 33.99 248.88 34.16 257.16 34.09 265.44 33.8 263.17 34.18 260.89 34.34 259.89 34.22 259.06 33.7 259 32.85 259.33 32.05 260.15 30.77 261.08 29.57 262.38 27.99 263.69 26.43 265.15 24.64 266.55 22.81 267.87 20.89 269.04 18.88 269.93 16.9 270.54 14.81" fill="none" stroke="#aaa" stroke-miterlimit="10" stroke-width=".5"/>
  <polyline points="199.23 0 203.85 4.34 208.21 8.94 211.2 12.49 214.01 16.17 216.02 18.99 218.02 21.81 219.7 23.98 221.6 25.96 223.74 27.55 226.14 28.72 229.52 29.68 233.01 30.2 238.3 30.5 243.59 30.5 251.43 30.2 259.26 29.73 256.99 30.22 254.7 30.54 253.72 30.53 252.83 30.18 252.72 29.49 253 28.82 253.77 27.7 254.62 26.64 255.84 25.22 257.07 23.8 258.43 22.17 259.73 20.48 260.93 18.72 261.98 16.86 262.74 15.03 263.2 13.1" fill="none" stroke="#aaa" stroke-miterlimit="10" stroke-width=".5"/>
  <polyline points="197.02 0 201.5 3.87 205.73 8 208.59 11.16 211.27 14.45 213.13 16.93 214.98 19.41 216.5 21.27 218.21 22.95 220.14 24.25 222.29 25.14 225.39 25.8 228.57 26.06 233.48 26.04 238.39 25.76 245.74 25.11 253.08 24.33 250.77 25.02 248.44 25.61 247.45 25.77 246.46 25.7 246.3 25.25 246.52 24.77 247.22 23.86 247.99 23 249.12 21.79 250.25 20.57 251.49 19.14 252.66 17.65 253.71 16.08 254.6 14.41 255.19 12.76 255.45 11.03" fill="none" stroke="#aaa" stroke-miterlimit="10" stroke-width=".5"/>
  <polyline points="194.85 0 199.19 3.39 203.3 7.04 206.02 9.77 208.58 12.65 210.3 14.76 211.99 16.87 213.34 18.38 214.86 19.71 216.58 20.66 218.47 21.19 221.3 21.43 224.15 21.33 228.68 20.84 233.19 20.16 240.05 18.97 246.9 17.7 244.52 18.73 242.15 19.74 241.11 20.16 240.06 20.52 239.82 20.47 240 20.22 240.65 19.62 241.32 19.03 242.36 18.09 243.37 17.11 244.49 15.93 245.52 14.67 246.42 13.33 247.13 11.88 247.52 10.43 247.53 8.93" fill="none" stroke="#aaa" stroke-miterlimit="10" stroke-width=".5"/>
  <polyline points="192.43 0 196.6 2.96 200.59 6.16 203.17 8.52 205.61 11.02 207.19 12.78 208.75 14.54 209.94 15.73 211.29 16.71 212.83 17.31 214.48 17.5 217.05 17.33 219.61 16.88 223.78 15.91 227.93 14.83 234.33 13.08 240.73 11.32 238.29 12.72 235.91 14.18 234.8 14.91 233.73 15.7 233.51 15.91 233.55 16.06 234.14 15.8 234.71 15.47 235.66 14.82 236.56 14.1 237.56 13.17 238.46 12.15 239.22 11.03 239.76 9.81 239.97 8.54 239.79 7.27" fill="none" stroke="#aaa" stroke-miterlimit="10" stroke-width=".5"/>
  <polyline points="189.48 0 193.49 2.62 197.32 5.47 199.78 7.55 202.09 9.77 203.56 11.33 205 12.9 206.07 13.95 207.28 14.82 208.67 15.35 210.16 15.53 212.51 15.38 214.84 14.99 218.71 14.14 222.57 13.18 228.56 11.65 234.55 10.1 232.14 11.37 229.76 12.69 228.65 13.35 227.56 14.04 227.34 14.21 227.31 14.33 227.84 14.06 228.36 13.74 229.22 13.13 230.05 12.45 230.95 11.59 231.75 10.64 232.39 9.61 232.81 8.48 232.89 7.3 232.57 6.17" fill="none" stroke="#aaa" stroke-miterlimit="10" stroke-width=".5"/>
  <polyline points="185.86 0 189.68 2.42 193.33 5.05 195.66 6.97 197.85 9.03 199.24 10.47 200.59 11.92 201.59 12.89 202.72 13.7 204.01 14.19 205.39 14.35 207.6 14.21 209.78 13.86 213.42 13.07 217.06 12.2 222.71 10.78 228.37 9.35 226.05 10.54 223.76 11.77 222.68 12.38 221.63 13.02 221.42 13.17 221.38 13.28 221.87 13.01 222.36 12.7 223.18 12.12 223.96 11.47 224.79 10.66 225.53 9.76 226.11 8.8 226.47 7.73 226.49 6.62 226.13 5.57" fill="none" stroke="#aaa" stroke-miterlimit="10" stroke-width=".5"/>
  <polyline points="181.52 0 185.12 2.37 188.56 4.94 190.77 6.83 192.85 8.84 194.18 10.25 195.48 11.66 196.45 12.61 197.55 13.4 198.82 13.88 200.17 14.04 202.3 13.9 204.41 13.55 207.9 12.78 211.39 11.91 216.79 10.52 222.19 9.11 220.03 10.27 217.9 11.47 216.91 12.06 215.95 12.69 215.76 12.84 215.77 12.94 216.27 12.69 216.76 12.39 217.56 11.82 218.32 11.2 219.14 10.41 219.87 9.54 220.44 8.6 220.8 7.57 220.85 6.49 220.53 5.47" fill="none" stroke="#aaa" stroke-miterlimit="10" stroke-width=".5"/>
  <polyline points="176.56 0 179.92 2.45 183.12 5.08 185.21 7.04 187.18 9.1 188.47 10.56 189.76 12.02 190.74 13 191.87 13.81 193.16 14.31 194.53 14.47 196.66 14.33 198.76 13.96 202.18 13.16 205.59 12.25 210.8 10.8 216.02 9.33 214.07 10.49 212.16 11.71 211.3 12.31 210.49 12.96 210.32 13.15 210.44 13.25 210.97 13.02 211.49 12.72 212.3 12.17 213.08 11.55 213.91 10.77 214.67 9.91 215.28 8.97 215.71 7.94 215.86 6.88 215.67 5.82" fill="none" stroke="#aaa" stroke-miterlimit="10" stroke-width=".5"/>
  <polyline points="171.13 0 174.24 2.61 177.18 5.4 179.16 7.53 181.02 9.75 182.31 11.42 183.58 13.1 184.62 14.35 185.8 15.47 187.12 16.33 188.6 16.92 190.73 17.33 192.92 17.48 196.3 17.43 199.69 17.2 204.77 16.71 209.84 16.13 208.18 16.64 206.52 17.09 205.84 17.21 205.16 17.18 205.1 16.84 205.29 16.52 205.83 15.88 206.42 15.26 207.25 14.4 208.06 13.52 208.93 12.51 209.74 11.44 210.43 10.34 210.98 9.16 211.28 7.99 211.29 6.8" fill="none" stroke="#aaa" stroke-miterlimit="10" stroke-width=".5"/>
  <polyline points="165.41 0 168.25 2.85 170.92 5.84 172.79 8.18 174.55 10.59 175.83 12.46 177.12 14.33 178.23 15.8 179.48 17.14 180.89 18.25 182.47 19.1 184.66 19.83 186.94 20.29 190.32 20.64 193.72 20.78 198.69 20.78 203.66 20.66 202.29 20.86 200.92 20.91 200.34 20.79 199.91 20.4 199.96 19.81 200.22 19.27 200.8 18.42 201.44 17.62 202.3 16.59 203.15 15.56 204.07 14.41 204.94 13.23 205.72 12.01 206.39 10.72 206.85 9.47 207.09 8.16" fill="none" stroke="#aaa" stroke-miterlimit="10" stroke-width=".5"/>
  <polyline points="159.49 0 162.05 3.12 164.45 6.36 166.2 8.94 167.86 11.57 169.14 13.67 170.45 15.74 171.65 17.43 172.99 19 174.51 20.34 176.22 21.44 178.49 22.45 180.87 23.18 184.27 23.87 187.71 24.33 192.59 24.75 197.48 25.01 196.38 24.95 195.31 24.66 194.84 24.25 194.67 23.66 194.84 22.85 195.2 22.11 195.83 21.09 196.54 20.11 197.43 18.94 198.34 17.77 199.3 16.5 200.24 15.19 201.11 13.86 201.89 12.48 202.49 11.13 202.93 9.73" fill="none" stroke="#aaa" stroke-miterlimit="10" stroke-width=".5"/>
  <polyline points="153.48 0 155.75 3.42 157.88 6.91 159.5 9.75 161.08 12.61 162.36 14.94 163.71 17.24 164.99 19.15 166.43 20.94 168.07 22.51 169.9 23.85 172.27 25.12 174.77 26.11 178.19 27.11 181.69 27.86 186.48 28.65 191.31 29.26 190.42 28.95 189.68 28.38 189.39 27.69 189.41 26.93 189.71 25.94 190.17 25 190.88 23.82 191.66 22.68 192.61 21.37 193.57 20.07 194.59 18.66 195.59 17.25 196.53 15.8 197.41 14.31 198.13 12.87 198.72 11.36" fill="none" stroke="#aaa" stroke-miterlimit="10" stroke-width=".5"/>
  <polyline points="147.5 0 149.47 3.7 151.35 7.44 152.84 10.52 154.33 13.6 155.61 16.16 156.99 18.67 158.36 20.8 159.9 22.8 161.65 24.59 163.61 26.15 166.07 27.66 168.68 28.9 172.13 30.18 175.67 31.21 180.37 32.32 185.13 33.25 184.44 32.69 184.02 31.91 183.93 30.99 184.1 30.07 184.53 28.91 185.1 27.8 185.89 26.47 186.75 25.18 187.75 23.74 188.78 22.31 189.85 20.79 190.91 19.26 191.92 17.71 192.88 16.13 193.7 14.58 194.41 12.98" fill="none" stroke="#aaa" stroke-miterlimit="10" stroke-width=".5"/>
  <polyline points="141.68 0 143.35 3.85 144.98 7.71 146.35 10.97 147.75 14.21 149.02 16.96 150.43 19.65 151.86 22 153.5 24.21 155.35 26.23 157.42 28.04 159.96 29.8 162.66 31.3 166.12 32.86 169.68 34.17 174.29 35.58 178.95 36.8 178.48 35.99 178.31 35.07 178.41 33.96 178.72 32.88 179.28 31.57 179.95 30.31 180.83 28.86 181.75 27.44 182.82 25.89 183.9 24.34 185.02 22.73 186.13 21.1 187.2 19.45 188.22 17.78 189.12 16.15 189.92 14.47" fill="none" stroke="#aaa" stroke-miterlimit="10" stroke-width=".5"/>
  <polyline points="136.1 0 137.49 3.91 138.88 7.82 140.12 11.19 141.43 14.53 142.69 17.44 144.11 20.28 145.6 22.81 147.3 25.21 149.24 27.44 151.39 29.47 153.98 31.46 156.75 33.21 160.19 35.01 163.75 36.58 168.22 38.25 172.78 39.72 172.53 38.71 172.55 37.66 172.82 36.41 173.26 35.19 173.93 33.76 174.69 32.38 175.64 30.83 176.63 29.3 177.74 27.66 178.87 26.02 180.03 24.33 181.18 22.62 182.29 20.91 183.36 19.16 184.32 17.46 185.19 15.72" fill="none" stroke="#aaa" stroke-miterlimit="10" stroke-width=".5"/>
  <polyline points="130.9 0 132.02 3.87 133.19 7.73 134.29 11.14 135.51 14.51 136.75 17.52 138.15 20.45 139.68 23.12 141.42 25.66 143.41 28.07 145.6 30.29 148.21 32.47 151 34.43 154.38 36.44 157.9 38.22 162.2 40.11 166.6 41.78 166.55 40.62 166.73 39.47 167.14 38.11 167.69 36.79 168.45 35.28 169.29 33.8 170.29 32.18 171.33 30.58 172.48 28.88 173.63 27.18 174.82 25.44 175.99 23.68 177.13 21.92 178.22 20.14 179.21 18.4 180.13 16.62" fill="none" stroke="#aaa" stroke-miterlimit="10" stroke-width=".5"/>
  <polyline points="126.25 0 127.13 3.72 128.09 7.42 129.07 10.77 130.18 14.07 131.37 17.1 132.74 20.04 134.26 22.79 136 25.42 137.98 27.93 140.17 30.28 142.74 32.6 145.49 34.71 148.76 36.86 152.16 38.79 156.24 40.81 160.42 42.62 160.53 41.37 160.83 40.15 161.35 38.73 161.98 37.36 162.8 35.81 163.69 34.29 164.72 32.64 165.78 31.01 166.93 29.29 168.09 27.58 169.27 25.83 170.44 24.07 171.57 22.31 172.66 20.52 173.66 18.79 174.59 17.01" fill="none" stroke="#aaa" stroke-miterlimit="10" stroke-width=".5"/>
  <polyline points="122.3 0 122.96 3.45 123.73 6.87 124.58 10.05 125.58 13.19 126.7 16.14 128 19 129.48 21.74 131.15 24.35 133.08 26.89 135.19 29.28 137.65 31.64 140.28 33.82 143.36 36.03 146.58 38.03 150.36 40.09 154.24 41.95 154.48 40.68 154.86 39.45 155.44 38.03 156.11 36.65 156.95 35.12 157.85 33.61 158.87 31.99 159.92 30.39 161.04 28.71 162.17 27.04 163.31 25.33 164.44 23.62 165.54 21.91 166.59 20.17 167.56 18.49 168.47 16.77" fill="none" stroke="#aaa" stroke-miterlimit="10" stroke-width=".5"/>
  <polyline points="119.05 0 119.53 3.07 120.14 6.12 120.86 9.03 121.74 11.9 122.76 14.67 123.95 17.36 125.33 19.97 126.9 22.48 128.7 24.95 130.67 27.28 132.95 29.6 135.39 31.75 138.2 33.91 141.15 35.9 144.55 37.9 148.07 39.72 148.37 38.49 148.8 37.3 149.4 35.94 150.07 34.61 150.89 33.16 151.76 31.72 152.73 30.19 153.73 28.67 154.78 27.09 155.84 25.51 156.91 23.91 157.97 22.29 158.99 20.69 159.98 19.06 160.89 17.48 161.74 15.88" fill="none" stroke="#aaa" stroke-miterlimit="10" stroke-width=".5"/>
  <polyline points="116.41 0 116.74 2.61 117.2 5.2 117.8 7.76 118.55 10.28 119.45 12.77 120.51 15.2 121.75 17.61 123.15 19.93 124.77 22.23 126.55 24.42 128.58 26.6 130.76 28.64 133.24 30.68 135.85 32.56 138.82 34.44 141.89 36.14 142.23 35 142.66 33.89 143.25 32.64 143.89 31.42 144.66 30.09 145.46 28.78 146.35 27.38 147.26 26 148.22 24.57 149.18 23.13 150.14 21.68 151.1 20.22 152.02 18.77 152.91 17.3 153.72 15.87 154.49 14.42" fill="none" stroke="#aaa" stroke-miterlimit="10" stroke-width=".5"/>
  <polyline points="114.17 0 114.37 2.08 114.7 4.14 115.17 6.27 115.78 8.38 116.55 10.54 117.45 12.65 118.53 14.79 119.74 16.87 121.14 18.96 122.68 20.96 124.43 22.95 126.3 24.84 128.41 26.7 130.63 28.43 133.12 30.12 135.71 31.65 136.06 30.64 136.48 29.65 137.03 28.55 137.62 27.47 138.31 26.29 139.03 25.14 139.81 23.91 140.61 22.7 141.44 21.45 142.29 20.19 143.12 18.92 143.95 17.64 144.75 16.38 145.52 15.1 146.23 13.86 146.9 12.6" fill="none" stroke="#aaa" stroke-miterlimit="10" stroke-width=".5"/>
  <polyline points="112.04 0 112.11 1.2 112.3 2.4 112.66 3.94 113.12 5.47 113.76 7.26 114.49 9.01 115.4 10.94 116.41 12.83 117.6 14.81 118.88 16.73 120.33 18.66 121.89 20.5 123.61 22.29 125.44 23.95 127.43 25.5 129.53 26.89 129.89 26 130.29 25.14 130.79 24.19 131.33 23.26 131.94 22.26 132.56 21.26 133.24 20.22 133.93 19.18 134.63 18.12 135.35 17.05 136.06 15.98 136.75 14.9 137.42 13.83 138.07 12.75 138.67 11.7 139.24 10.64" fill="none" stroke="#aaa" stroke-miterlimit="10" stroke-width=".5"/>
  <polyline points="109.69 .02 109.61 1 109.67 2 109.9 3.28 110.23 4.54 110.73 6.03 111.32 7.49 112.07 9.11 112.9 10.68 113.88 12.33 114.94 13.94 116.12 15.55 117.39 17.1 118.75 18.6 120.2 20.01 121.73 21.31 123.36 22.49 123.72 21.74 124.12 21 124.58 20.2 125.06 19.4 125.6 18.56 126.14 17.73 126.72 16.86 127.3 15.99 127.89 15.11 128.48 14.23 129.07 13.34 129.64 12.45 130.2 11.57 130.73 10.68 131.23 9.82 131.7 8.95" fill="none" stroke="#aaa" stroke-miterlimit="10" stroke-width=".5"/>
  <polyline points="106.83 .03 106.57 .84 106.49 1.69 106.58 2.77 106.8 3.83 107.18 5.09 107.65 6.32 108.27 7.68 108.97 9 109.78 10.39 110.66 11.75 111.63 13.1 112.66 14.41 113.73 15.65 114.85 16.84 115.98 17.9 117.18 18.89 117.58 18.25 118 17.62 118.45 16.94 118.91 16.27 119.4 15.57 119.89 14.87 120.39 14.15 120.9 13.43 121.41 12.7 121.91 11.97 122.4 11.24 122.88 10.51 123.34 9.79 123.79 9.06 124.2 8.36 124.6 7.64" fill="none" stroke="#aaa" stroke-miterlimit="10" stroke-width=".5"/>
  <polyline points="103.22 .05 102.76 .73 102.52 1.51 102.46 2.47 102.57 3.42 102.86 4.54 103.26 5.64 103.8 6.85 104.42 8.03 105.14 9.26 105.91 10.46 106.74 11.65 107.6 12.81 108.46 13.88 109.35 14.92 110.16 15.82 111 16.68 111.48 16.11 111.96 15.53 112.44 14.93 112.93 14.33 113.41 13.72 113.9 13.1 114.38 12.48 114.85 11.86 115.31 11.23 115.77 10.6 116.21 9.98 116.64 9.35 117.05 8.73 117.44 8.11 117.81 7.51 118.16 6.9" fill="none" stroke="#aaa" stroke-miterlimit="10" stroke-width=".5"/>
  <polyline points="98.75 .06 98.06 .68 97.6 1.48 97.4 2.4 97.43 3.34 97.65 4.43 98.01 5.5 98.54 6.68 99.14 7.83 99.85 9.02 100.6 10.2 101.37 11.34 102.17 12.48 102.91 13.51 103.65 14.53 104.25 15.38 104.82 16.24 105.42 15.66 106.01 15.08 106.58 14.49 107.14 13.89 107.68 13.3 108.22 12.69 108.73 12.09 109.23 11.48 109.71 10.88 110.17 10.28 110.61 9.68 111.04 9.08 111.45 8.5 111.84 7.9 112.19 7.33 112.54 6.76" fill="none" stroke="#aaa" stroke-miterlimit="10" stroke-width=".5"/>
  <polyline points="93.4 .07 92.46 .72 91.75 1.61 91.41 2.58 91.35 3.62 91.54 4.81 91.91 5.96 92.48 7.24 93.13 8.48 93.9 9.78 94.71 11.05 95.53 12.28 96.36 13.52 97.08 14.63 97.77 15.75 98.26 16.66 98.65 17.6 99.46 16.95 100.25 16.27 101 15.62 101.73 14.96 102.42 14.32 103.08 13.66 103.71 13.03 104.31 12.38 104.88 11.76 105.42 11.12 105.93 10.51 106.42 9.88 106.87 9.27 107.3 8.66 107.69 8.06 108.07 7.46" fill="none" stroke="#aaa" stroke-miterlimit="10" stroke-width=".5"/>
  <polyline points="87.28 .07 86.04 .82 85.06 1.88 84.57 3.01 84.45 4.23 84.64 5.62 85.05 6.96 85.71 8.46 86.48 9.91 87.38 11.42 88.33 12.91 89.27 14.35 90.2 15.8 90.99 17.09 91.72 18.42 92.18 19.48 92.47 20.59 93.54 19.79 94.6 18.98 95.57 18.21 96.52 17.42 97.39 16.67 98.24 15.91 99.01 15.18 99.77 14.44 100.46 13.73 101.13 13 101.73 12.3 102.32 11.58 102.85 10.89 103.36 10.19 103.83 9.5 104.27 8.8" fill="none" stroke="#aaa" stroke-miterlimit="10" stroke-width=".5"/>
  <polyline points="80.54 .07 78.97 .97 77.71 2.26 77.08 3.62 76.89 5.1 77.1 6.78 77.6 8.4 78.38 10.21 79.31 11.96 80.4 13.79 81.54 15.58 82.67 17.32 83.78 19.08 84.71 20.63 85.53 22.24 86.04 23.52 86.29 24.87 87.66 23.89 89.01 22.89 90.22 21.95 91.43 20.99 92.51 20.09 93.57 19.17 94.53 18.29 95.47 17.4 96.31 16.54 97.13 15.67 97.87 14.83 98.58 13.97 99.23 13.14 99.84 12.29 100.41 11.46 100.94 10.61" fill="none" stroke="#aaa" stroke-miterlimit="10" stroke-width=".5"/>
  <polyline points="73.36 .07 71.44 1.17 69.88 2.73 69.11 4.36 68.87 6.16 69.12 8.19 69.71 10.15 70.66 12.34 71.78 14.46 73.1 16.67 74.48 18.84 75.83 20.94 77.17 23.06 78.28 24.94 79.26 26.89 79.84 28.45 80.11 30.08 81.79 28.89 83.45 27.67 84.94 26.53 86.41 25.36 87.74 24.27 89.04 23.15 90.2 22.09 91.34 21 92.37 19.97 93.36 18.92 94.26 17.9 95.12 16.86 95.9 15.86 96.65 14.83 97.33 13.83 97.97 12.8" fill="none" stroke="#aaa" stroke-miterlimit="10" stroke-width=".5"/>
  <polyline points="65.97 .07 63.67 1.38 61.82 3.23 60.9 5.18 60.62 7.33 60.91 9.74 61.61 12.07 62.74 14.68 64.07 17.19 65.63 19.82 67.26 22.4 68.88 24.9 70.46 27.42 71.77 29.66 72.93 31.98 73.62 33.84 73.94 35.79 75.94 34.36 77.92 32.9 79.7 31.54 81.45 30.15 83.03 28.84 84.57 27.51 85.96 26.24 87.32 24.95 88.54 23.72 89.72 22.46 90.79 21.26 91.81 20.02 92.74 18.82 93.62 17.59 94.43 16.4 95.19 15.17" fill="none" stroke="#aaa" stroke-miterlimit="10" stroke-width=".5"/>
  <polyline points="58.59 .07 55.93 1.58 53.79 3.74 52.71 6 52.38 8.49 52.71 11.29 53.53 13.99 54.83 17.01 56.37 19.92 58.18 22.97 60.07 25.96 61.93 28.87 63.76 31.79 65.27 34.39 66.61 37.07 67.4 39.23 67.76 41.49 70.09 39.83 72.39 38.13 74.45 36.55 76.49 34.93 78.32 33.41 80.12 31.86 81.73 30.39 83.3 28.89 84.71 27.46 86.08 25.99 87.32 24.59 88.5 23.15 89.58 21.76 90.6 20.34 91.53 18.95 92.42 17.52" fill="none" stroke="#aaa" stroke-miterlimit="10" stroke-width=".5"/>
  <polyline points="51.47 .07 48.46 1.78 46.02 4.21 44.8 6.75 44.42 9.55 44.79 12.7 45.7 15.75 47.16 19.15 48.89 22.43 50.92 25.85 53.04 29.22 55.13 32.49 57.18 35.78 58.86 38.71 60.35 41.73 61.21 44.17 61.58 46.71 64.23 44.83 66.84 42.91 69.18 41.12 71.5 39.29 73.57 37.57 75.6 35.82 77.42 34.16 79.19 32.47 80.78 30.86 82.33 29.21 83.71 27.63 85.05 26 86.25 24.44 87.4 22.83 88.45 21.26 89.44 19.65" fill="none" stroke="#aaa" stroke-miterlimit="10" stroke-width=".5"/>
  <polyline points="44.81 .07 41.48 1.93 38.76 4.59 37.39 7.37 36.95 10.43 37.33 13.87 38.32 17.19 39.91 20.9 41.79 24.48 44 28.22 46.3 31.91 48.57 35.47 50.79 39.07 52.6 42.26 54.18 45.57 55.08 48.23 55.4 51.01 58.35 48.94 61.25 46.82 63.85 44.86 66.41 42.84 68.7 40.97 70.94 39.05 72.94 37.24 74.89 35.38 76.64 33.63 78.33 31.82 79.84 30.1 81.3 28.33 82.62 26.61 83.87 24.85 85.01 23.13 86.09 21.37" fill="none" stroke="#aaa" stroke-miterlimit="10" stroke-width=".5"/>
  <polyline points="38.8 .07 35.17 2.03 32.19 4.86 30.68 7.79 30.16 11.04 30.54 14.68 31.57 18.2 33.24 22.13 35.23 25.92 37.56 29.88 39.99 33.78 42.37 37.55 44.68 41.36 46.55 44.74 48.15 48.25 49.02 51.08 49.23 54.01 52.44 51.8 55.61 49.53 58.43 47.44 61.21 45.29 63.68 43.3 66.1 41.26 68.24 39.35 70.33 37.38 72.19 35.53 73.99 33.61 75.6 31.79 77.14 29.91 78.53 28.1 79.86 26.23 81.06 24.4 82.2 22.53" fill="none" stroke="#aaa" stroke-miterlimit="10" stroke-width=".5"/>
  <polyline points="33.58 .08 29.71 2.08 26.47 4.98 24.83 7.97 24.23 11.32 24.57 15.06 25.59 18.67 27.3 22.7 29.33 26.58 31.71 30.64 34.19 34.64 36.6 38.51 38.93 42.42 40.77 45.88 42.29 49.48 43.05 52.4 43.05 55.4 46.49 53.09 49.9 50.73 52.9 48.57 55.86 46.35 58.46 44.31 61.01 42.2 63.25 40.25 65.43 38.23 67.36 36.34 69.22 34.38 70.88 32.51 72.46 30.59 73.89 28.73 75.24 26.81 76.47 24.92 77.64 22.99" fill="none" stroke="#aaa" stroke-miterlimit="10" stroke-width=".5"/>
  <polyline points="29.25 .08 25.17 2.05 21.71 4.95 19.94 7.88 19.23 11.24 19.5 14.94 20.49 18.52 22.16 22.53 24.17 26.38 26.52 30.41 28.96 34.38 31.31 38.21 33.56 42.1 35.28 45.52 36.63 49.11 37.18 52.03 36.87 54.98 40.52 52.65 44.12 50.26 47.25 48.09 50.34 45.87 53.02 43.84 55.65 41.74 57.93 39.81 60.15 37.81 62.09 35.94 63.96 34 65.61 32.16 67.19 30.25 68.6 28.4 69.93 26.5 71.16 24.6 72.32 22.66" fill="none" stroke="#aaa" stroke-miterlimit="10" stroke-width=".5"/>
  <polyline points="25.76 .08 21.53 1.96 17.86 4.75 15.98 7.54 15.13 10.79 15.31 14.34 16.21 17.78 17.8 21.62 19.72 25.32 21.96 29.18 24.29 32.99 26.49 36.65 28.56 40.39 30.07 43.67 31.15 47.11 31.39 49.96 30.69 52.73 34.5 50.44 38.26 48.1 41.48 46 44.66 43.84 47.36 41.89 50.02 39.87 52.28 38.03 54.48 36.11 56.38 34.33 58.2 32.48 59.79 30.72 61.3 28.9 62.66 27.11 63.94 25.28 65.12 23.43 66.24 21.54" fill="none" stroke="#aaa" stroke-miterlimit="10" stroke-width=".5"/>
  <polyline points="22.99 .08 18.64 1.81 14.78 4.42 12.79 6.96 11.8 10.02 11.84 13.3 12.63 16.49 14.08 20.03 15.86 23.42 17.93 26.95 20.08 30.44 22.05 33.74 23.87 37.14 25.1 40.06 25.82 43.14 25.67 45.73 24.52 48.04 28.47 45.96 32.38 43.8 35.65 41.92 38.88 39.95 41.57 38.21 44.21 36.39 46.41 34.75 48.54 33.02 50.34 31.43 52.06 29.75 53.55 28.15 54.95 26.48 56.21 24.83 57.4 23.12 58.52 21.36 59.59 19.56" fill="none" stroke="#aaa" stroke-miterlimit="10" stroke-width=".5"/>
  <polyline points="20.68 .08 16.25 1.63 12.2 4 10.13 6.24 8.96 9.04 8.86 11.96 9.5 14.82 10.79 17.97 12.39 20.98 14.25 24.07 16.16 27.13 17.87 29.97 19.38 32.91 20.28 35.37 20.59 37.95 19.93 40.17 18.34 41.86 22.43 40.08 26.48 38.23 29.79 36.64 33.04 34.96 35.68 33.51 38.26 31.96 40.34 30.58 42.36 29.1 44.02 27.75 45.6 26.3 46.95 24.9 48.22 23.42 49.37 21.93 50.45 20.38 51.51 18.73 52.53 17.06" fill="none" stroke="#aaa" stroke-miterlimit="10" stroke-width=".5"/>
  <polyline points="18.55 .09 14.02 1.44 9.8 3.55 7.65 5.45 6.3 7.97 6.05 10.5 6.54 12.99 7.65 15.7 9.06 18.26 10.69 20.85 12.36 23.41 13.77 25.7 14.97 28.09 15.53 29.99 15.4 31.93 14.09 33.62 12.16 34.59 16.39 33.23 20.6 31.8 23.91 30.61 27.18 29.32 29.73 28.22 32.23 27.02 34.17 25.97 36.05 24.8 37.55 23.72 38.96 22.53 40.16 21.36 41.27 20.1 42.31 18.78 43.3 17.41 44.33 15.88 45.35 14.33" fill="none" stroke="#aaa" stroke-miterlimit="10" stroke-width=".5"/>
  <polyline points="16.25 .09 11.63 1.27 7.23 3.11 5.02 4.71 3.47 6.93 3.07 9.05 3.43 11.19 4.36 13.43 5.6 15.52 7.01 17.56 8.46 19.57 9.57 21.21 10.49 22.97 10.72 24.23 10.17 25.36 8.16 26.17 5.98 26.37 10.37 25.61 14.74 24.79 18.06 24.1 21.35 23.34 23.8 22.68 26.21 21.92 28 21.24 29.73 20.43 31.06 19.66 32.3 18.76 33.36 17.83 34.33 16.8 35.3 15.65 36.23 14.46 37.3 13.04 38.38 11.62" fill="none" stroke="#aaa" stroke-miterlimit="10" stroke-width=".5"/>
  <polyline points="13.51 .09 8.77 1.12 4.19 2.74 1.93 4.07 .17 5.99 -.34 7.68 -.12 9.42 .67 11.1 1.77 12.6 2.97 13.89 4.27 15.1 5.05 15.78 5.81 16.49 5.43 16.56 4.85 16.35 2.32 15.32 -.19 14.26 4.37 14.69 8.93 15.12 12.27 15.42 15.6 15.68 17.95 15.81 20.3 15.87 21.93 15.81 23.55 15.63 24.72 15.35 25.83 14.91 26.78 14.33 27.65 13.64 28.6 12.72 29.51 11.75 30.7 10.47 31.91 9.2" fill="none" stroke="#aaa" stroke-miterlimit="10" stroke-width=".5"/>
  <polyline points="10.14 .09 5.23 1.03 .46 2.49 -1.88 3.67 -3.81 5.41 -4.41 6.86 -4.29 8.42 -3.59 9.84 -2.59 11.08 -1.51 12.09 -.34 12.97 .25 13.36 .86 13.67 .16 13.19 -.61 12.75 -3.47 11.23 -6.37 9.79 -1.65 10.55 3.05 11.34 6.42 11.92 9.79 12.49 12.09 12.85 14.4 13.16 15.94 13.31 17.48 13.33 18.55 13.22 19.58 12.94 20.46 12.51 21.27 11.95 22.21 11.14 23.12 10.3 24.4 9.12 25.71 7.96" fill="none" stroke="#aaa" stroke-miterlimit="10" stroke-width=".5"/>
  <polyline points="6.05 .09 .94 .98 -4.04 2.39 -6.48 3.5 -8.55 5.18 -9.22 6.54 -9.16 8.05 -8.51 9.41 -7.55 10.59 -6.52 11.55 -5.4 12.41 -4.89 12.75 -4.4 13.07 -5.31 12.63 -6.22 12.19 -9.37 10.75 -12.55 9.36 -7.65 10.07 -2.76 10.8 .7 11.34 4.14 11.87 6.47 12.21 8.79 12.5 10.3 12.62 11.81 12.64 12.84 12.53 13.83 12.25 14.69 11.83 15.48 11.28 16.43 10.49 17.37 9.67 18.74 8.51 20.15 7.38" fill="none" stroke="#aaa" stroke-miterlimit="10" stroke-width=".5"/>
  <polyline points="1.28 .09 -4.05 .99 -9.27 2.4 -11.82 3.52 -14.01 5.21 -14.72 6.57 -14.69 8.1 -14.04 9.48 -13.07 10.67 -12.03 11.63 -10.91 12.49 -10.42 12.83 -9.96 13.17 -10.97 12.73 -11.98 12.28 -15.34 10.83 -18.73 9.42 -13.6 10.13 -8.49 10.86 -4.9 11.39 -1.32 11.92 1.08 12.26 3.48 12.55 5.02 12.67 6.56 12.69 7.6 12.57 8.6 12.29 9.47 11.85 10.27 11.3 11.27 10.49 12.25 9.66 13.7 8.46 15.2 7.32" fill="none" stroke="#aaa" stroke-miterlimit="10" stroke-width=".5"/>
  <polyline points="-4.01 .09 -9.6 1.04 -15.06 2.52 -17.73 3.69 -20.02 5.47 -20.77 6.89 -20.73 8.5 -20.05 9.95 -19.03 11.19 -17.93 12.2 -16.76 13.1 -16.24 13.46 -15.75 13.81 -16.8 13.35 -17.85 12.88 -21.37 11.36 -24.9 9.89 -19.53 10.63 -14.17 11.4 -10.4 11.96 -6.64 12.51 -4.12 12.87 -1.61 13.17 0 13.3 1.63 13.31 2.72 13.19 3.77 12.89 4.69 12.43 5.53 11.84 6.58 10.99 7.62 10.11 9.15 8.85 10.73 7.64" fill="none" stroke="#aaa" stroke-miterlimit="10" stroke-width=".5"/>
  <polyline points="-9.65 .09 -15.51 1.11 -21.23 2.7 -24.03 3.96 -26.41 5.86 -27.18 7.41 -27.12 9.12 -26.38 10.67 -25.28 12.01 -24.1 13.09 -22.83 14.06 -22.26 14.45 -21.69 14.82 -22.74 14.32 -23.8 13.83 -27.43 12.2 -31.08 10.62 -25.43 11.42 -19.8 12.26 -15.82 12.86 -11.86 13.46 -9.2 13.84 -6.53 14.17 -4.81 14.31 -3.09 14.33 -1.91 14.19 -.78 13.87 .2 13.37 1.1 12.74 2.22 11.82 3.31 10.88 4.92 9.53 6.57 8.23" fill="none" stroke="#aaa" stroke-miterlimit="10" stroke-width=".5"/>
  <polyline points="-15.52 .09 -21.66 1.2 -27.65 2.92 -30.58 4.3 -33.05 6.36 -33.83 8.04 -33.73 9.9 -32.92 11.58 -31.73 13.03 -30.44 14.21 -29.05 15.26 -28.39 15.69 -27.74 16.08 -28.76 15.53 -29.8 15 -33.51 13.23 -37.26 11.52 -31.32 12.41 -25.4 13.33 -21.2 13.99 -17.01 14.65 -14.18 15.07 -11.35 15.43 -9.5 15.58 -7.65 15.6 -6.38 15.45 -5.16 15.1 -4.09 14.56 -3.11 13.87 -1.93 12.88 -.77 11.85 .91 10.4 2.64 8.98" fill="none" stroke="#aaa" stroke-miterlimit="10" stroke-width=".5"/>
</svg>