<?xml version="1.0" encoding="utf-8" ?>
<svg baseProfile="full" height="222" version="1.1" width="222" xmlns="http://www.w3.org/2000/svg" xmlns:ev="http://www.w3.org/2001/xml-events" xmlns:xlink="http://www.w3.org/1999/xlink"><defs />
  <polyline fill="none" points ="27.13 186.58 24.87 190.72 23.1 195.07 23.54 196.82 25.12 197.82 28.37 199.44 31.35 201.53 36.19 206.8 39.95 212.91 44.07 206.38 49.45 200.88 52.48 198.96 55.69 197.38 56.89 195.54 56.31 193.31 52.74 186.37 48.9 179.57 53.67 182.92 58.53 186.13 57.21 185.59 55.47 184.96 51.21 184.04 46.87 184.35 42.21 187.46 39.87 192.63" stroke="#aaa" stroke-width="1"/>
  <polyline fill="none" points ="27.7 182.76 25.5 186.7 23.79 190.84 24.23 192.53 25.76 193.49 28.93 195.05 31.84 197.05 36.55 202.06 40.22 207.88 44.25 201.66 49.48 196.43 52.44 194.59 55.57 193.06 56.74 191.29 56.17 189.13 52.68 182.5 48.92 176.01 53.55 179.16 58.28 182.15 57 181.59 55.3 180.97 51.16 180.08 46.94 180.35 42.44 183.25 40.14 188.15" stroke="#aaa" stroke-width="1"/>
  <polyline fill="none" points ="27.77 179.02 25.6 182.74 23.93 186.69 24.39 188.34 25.91 189.26 29.05 190.78 31.95 192.71 36.58 197.45 40.24 203.01 44.26 197.06 49.42 192.1 52.37 190.32 55.47 188.83 56.63 187.11 56.05 185.01 52.57 178.66 48.82 172.46 53.38 175.38 58.05 178.11 56.79 177.51 55.12 176.89 51.03 176 46.87 176.22 42.46 178.87 40.16 183.52" stroke="#aaa" stroke-width="1"/>
  <polyline fill="none" points ="27.66 175.31 25.5 178.84 23.85 182.59 24.36 184.21 25.88 185.11 29.02 186.59 31.95 188.46 36.57 192.94 40.25 198.24 44.32 192.55 49.48 187.86 52.46 186.14 55.57 184.67 56.73 182.99 56.15 180.92 52.62 174.83 48.82 168.91 53.36 171.59 58.03 174.04 56.78 173.37 55.1 172.75 51.03 171.85 46.87 172 42.53 174.39 40.17 178.78" stroke="#aaa" stroke-width="1"/>
  <polyline fill="none" points ="27.49 171.61 25.33 174.94 23.7 178.51 24.26 180.1 25.79 180.98 28.95 182.43 31.92 184.24 36.54 188.46 40.27 193.5 44.4 188.07 49.56 183.65 52.59 181.97 55.73 180.52 56.9 178.88 56.3 176.85 52.72 171.01 48.84 165.35 53.39 167.8 58.07 169.96 56.83 169.21 55.14 168.59 51.06 167.67 46.9 167.76 42.61 169.87 40.19 174.01" stroke="#aaa" stroke-width="1"/>
  <polyline fill="none" points ="27.08 167.89 24.93 171.02 23.33 174.42 23.95 175.99 25.49 176.85 28.67 178.26 31.68 180.01 36.28 183.98 40.04 188.76 44.23 183.59 49.39 179.42 52.46 177.8 55.62 176.37 56.82 174.77 56.22 172.78 52.57 167.19 48.63 161.8 53.18 164.01 57.87 165.87 56.64 165.06 54.93 164.43 50.85 163.5 46.68 163.53 42.46 165.37 39.96 169.25" stroke="#aaa" stroke-width="1"/>
  <polyline fill="none" points ="27 164.15 24.86 167.09 23.28 170.33 23.96 171.87 25.51 172.71 28.71 174.08 31.77 175.77 36.35 179.49 40.14 184 44.38 179.1 49.53 175.2 52.66 173.63 55.84 172.22 57.05 170.66 56.45 168.7 52.75 163.36 48.73 158.25 53.28 160.22 57.98 161.79 56.76 160.91 55.04 160.27 50.96 159.34 46.78 159.29 42.64 160.89 40.06 164.49" stroke="#aaa" stroke-width="1"/>
  <polyline fill="none" points ="26.9 160.39 24.76 163.14 23.2 166.22 23.93 167.74 25.5 168.56 28.72 169.9 31.82 171.52 36.37 174.99 40.2 179.25 44.49 174.62 49.63 170.97 52.8 169.45 56.01 168.07 57.24 166.55 56.63 164.62 52.87 159.53 48.79 154.69 53.35 156.43 58.03 157.72 56.84 156.77 55.1 156.12 51.02 155.18 46.84 155.07 42.78 156.42 40.12 159.74" stroke="#aaa" stroke-width="1"/>
  <polyline fill="none" points ="23.04 156.85 21.85 159.42 21.65 162.19 23.16 163.62 25.13 164.44 28.56 165.72 31.87 167.31 36.39 170.5 40.25 174.49 44.61 170.11 49.79 166.73 53.27 165.22 56.8 163.91 58.62 162.66 59 160.54 56.9 155.67 54.12 151.14 57.19 152.49 60.3 153.64 58.09 152.7 55.8 151.97 51.43 151.03 46.97 150.85 42.95 151.95 40.17 154.99" stroke="#aaa" stroke-width="1"/>
  <polyline fill="none" points ="20.57 153.2 19.98 155.71 20.59 158.15 22.55 159.52 24.82 160.35 28.4 161.58 31.85 163.12 36.36 166.07 40.26 169.78 44.73 165.67 49.92 162.54 53.63 161.07 57.38 159.79 59.53 158.62 60.61 156.48 59.58 151.89 57.58 147.58 59.84 148.63 61.85 149.54 59.11 148.59 56.32 147.78 51.74 146.84 47.07 146.58 43.1 147.44 40.19 150.19" stroke="#aaa" stroke-width="1"/>
  <polyline fill="none" points ="18.6 149.53 18.48 152 19.59 154.16 21.88 155.49 24.4 156.34 28.12 157.54 31.73 159.04 36.27 161.75 40.28 165.21 44.9 161.35 50.18 158.46 54.1 157.01 58.07 155.74 60.49 154.58 62.05 152.46 61.73 148.14 60.24 144.03 62.1 144.85 63.24 145.4 60.1 144.39 56.92 143.52 52.12 142.55 47.25 142.2 43.3 142.84 40.21 145.25" stroke="#aaa" stroke-width="1"/>
  <polyline fill="none" points ="16.7 145.83 16.97 148.28 18.45 150.23 21.03 151.54 23.8 152.43 27.7 153.62 31.51 155.07 36.15 157.57 40.32 160.78 45.17 157.17 50.59 154.5 54.77 153.07 58.98 151.79 61.68 150.61 63.65 148.5 63.88 144.44 62.74 140.48 64.39 141.09 64.79 141.21 61.28 140.11 57.72 139.17 52.67 138.16 47.55 137.7 43.58 138.12 40.26 140.17" stroke="#aaa" stroke-width="1"/>
  <polyline fill="none" points ="14.75 142.04 15.35 144.48 17.08 146.3 19.92 147.63 22.94 148.56 27.04 149.74 31.08 151.15 35.86 153.45 40.25 156.43 45.37 153.07 50.96 150.6 55.42 149.18 59.89 147.88 62.84 146.68 65.17 144.56 65.81 140.75 64.94 136.92 66.54 137.33 66.26 136.99 62.42 135.77 58.51 134.77 53.18 133.71 47.78 133.15 43.77 133.36 40.19 135.02" stroke="#aaa" stroke-width="1"/>
  <polyline fill="none" points ="13.09 138.1 13.92 140.55 15.82 142.3 18.87 143.66 22.09 144.63 26.39 145.81 30.64 147.18 35.58 149.29 40.19 152.04 45.56 148.95 51.32 146.66 56.02 145.27 60.72 143.95 63.88 142.72 66.5 140.61 67.44 137.05 66.77 133.37 68.42 133.52 67.55 132.78 63.42 131.46 59.21 130.39 53.64 129.29 48 128.63 43.94 128.65 40.14 129.9" stroke="#aaa" stroke-width="1"/>
  <polyline fill="none" points ="12.04 134 12.99 136.45 14.99 138.17 18.21 139.57 21.58 140.57 26.03 141.74 30.44 143.05 35.45 144.98 40.19 147.48 45.67 144.68 51.46 142.6 56.32 141.24 61.17 139.92 64.5 138.68 67.35 136.6 68.53 133.32 68 129.81 69.68 129.58 68.36 128.63 64.06 127.22 59.66 126.11 53.94 124.98 48.16 124.23 44.09 124.1 40.15 124.95" stroke="#aaa" stroke-width="1"/>
  <polyline fill="none" points ="12 129.79 12.9 132.2 14.87 133.89 18.13 135.32 21.55 136.32 26.04 137.47 30.51 138.71 35.47 140.44 40.23 142.68 45.66 140.2 51.33 138.33 56.21 137.04 61.08 135.73 64.44 134.51 67.37 132.51 68.61 129.51 68.11 126.26 69.68 125.62 68.27 124.57 63.97 123.1 59.56 121.99 53.88 120.86 48.14 120.04 44.14 119.78 40.19 120.24" stroke="#aaa" stroke-width="1"/>
  <polyline fill="none" points ="12.77 125.49 13.54 127.82 15.39 129.46 18.59 130.88 21.96 131.88 26.38 132.99 30.8 134.14 35.6 135.65 40.25 137.6 45.47 135.47 50.88 133.84 55.65 132.63 60.4 131.38 63.71 130.21 66.63 128.31 67.85 125.64 67.35 122.71 68.83 121.77 67.43 120.6 63.26 119.12 58.97 118.04 53.47 116.93 47.92 116.08 44.07 115.71 40.23 115.81" stroke="#aaa" stroke-width="1"/>
  <polyline fill="none" points ="14.2 121.12 14.75 123.33 16.44 124.89 19.51 126.29 22.74 127.26 27.01 128.31 31.29 129.36 35.83 130.65 40.26 132.28 45.14 130.52 50.14 129.15 54.7 128.05 59.22 126.88 62.4 125.78 65.25 124.03 66.45 121.73 65.99 119.15 67.35 117.99 66.01 116.73 62.07 115.27 57.99 114.23 52.78 113.17 47.53 112.31 43.9 111.85 40.26 111.63" stroke="#aaa" stroke-width="1"/>
  <polyline fill="none" points ="16.1 116.53 16.23 118.6 17.66 120.14 20.52 121.54 23.58 122.49 27.68 123.5 31.8 124.44 36.06 125.51 40.24 126.82 44.68 125.45 49.18 124.34 53.44 123.37 57.68 122.29 60.7 121.27 63.45 119.7 64.62 117.81 64.22 115.6 65.62 114.43 64.9 112.9 61.81 111.46 58.52 110.51 53.78 109.48 49 108.66 44.63 108.05 40.24 107.58" stroke="#aaa" stroke-width="1"/>
  <polyline fill="none" points ="18.24 112.01 18.24 112.02 18.25 112.02 18.26 112.03 18.26 112.03 18.27 112.03 18.27 112.04 18.28 112.04 18.29 112.05 17.87 113.86 18.97 115.37 21.63 116.77 24.5 117.7 28.44 118.68 32.42 119.53 36.36 120.38 40.26 121.36 44.2 120.38 48.17 119.53 52.14 118.68 56.07 117.7 58.95 116.77 61.62 115.37 62.77 113.88 62.46 112.05 63.78 110.74 63.34 109.07 60.71 107.67 57.85 106.79 53.51 105.81 49.12 105.01 44.69 104.28 40.26 103.54" stroke="#aaa" stroke-width="1"/>
  <polyline fill="none" points ="18.86 107.55 18.95 107.67 19.06 107.78 19.17 107.89 19.29 108.01 19.41 108.13 19.55 108.25 19.69 108.37 19.84 108.49 19.53 109.96 20.64 111.09 23.29 112.32 26.1 113.19 29.8 114.08 33.55 114.82 36.94 115.43 40.33 116.02 43.75 115.43 47.17 114.82 50.9 114.08 54.6 113.19 57.42 112.32 60.08 111.09 61.22 109.99 61.04 108.49 62.29 107 62.01 105.2 59.71 103.82 57.14 102.99 53.1 102.06 49.04 101.26 44.67 100.39 40.33 99.37" stroke="#aaa" stroke-width="1"/>
  <polyline fill="none" points ="19.82 103.01 19.94 103.24 20.07 103.45 20.23 103.69 20.41 103.92 20.62 104.17 20.84 104.41 21.11 104.68 21.38 104.94 21.13 106.08 22.26 106.88 25.09 107.99 28.02 108.81 31.61 109.63 35.22 110.3 37.8 110.68 40.39 110.9 43 110.68 45.6 110.3 49.21 109.63 52.78 108.81 55.73 107.98 58.58 106.88 59.73 106.1 59.61 104.94 60.95 103.27 60.94 101.25 58.94 99.85 56.6 99.06 52.79 98.15 48.96 97.33 44.63 96.29 40.39 94.98" stroke="#aaa" stroke-width="1"/>
  <polyline fill="none" points ="20.66 98.64 20.78 98.94 20.92 99.23 21.12 99.57 21.33 99.89 21.61 100.25 21.91 100.6 22.28 101 22.66 101.38 22 102.08 22.95 102.74 25.64 103.77 28.42 104.56 31.91 105.35 35.44 105.94 37.92 106.17 40.38 105.99 42.86 106.17 45.37 105.94 48.9 105.35 52.38 104.56 55.18 103.77 57.88 102.74 58.85 102.11 58.33 101.38 59.83 99.51 60.12 97.22 58.34 95.79 56.14 95.01 52.46 94.09 48.76 93.23 44.5 92.02 40.39 90.38" stroke="#aaa" stroke-width="1"/>
  <polyline fill="none" points ="21.26 94.42 21.39 94.78 21.56 95.13 21.79 95.54 22.05 95.93 22.39 96.39 22.75 96.83 23.2 97.34 23.66 97.83 22.58 97.96 23.24 98.65 25.79 99.63 28.43 100.39 31.89 101.17 35.41 101.68 37.94 101.78 40.36 101.2 42.81 101.77 45.37 101.68 48.89 101.17 52.35 100.39 55.01 99.62 57.57 98.65 58.34 98 57.31 97.83 58.99 95.71 59.58 93.16 57.99 91.66 55.89 90.87 52.29 89.95 48.68 89.03 44.42 87.62 40.38 85.66" stroke="#aaa" stroke-width="1"/>
  <polyline fill="none" points ="21.81 90.39 21.98 90.79 22.18 91.18 22.45 91.64 22.76 92.09 23.15 92.61 23.56 93.11 24.08 93.7 24.6 94.28 23.44 94.12 23.42 94.58 25.85 95.51 28.35 96.24 31.81 97.02 35.34 97.47 37.95 97.41 40.33 96.46 42.75 97.41 45.41 97.47 48.93 97.02 52.4 96.24 54.91 95.51 57.35 94.58 57.45 94.12 56.33 94.28 58.22 91.9 59.13 89.07 57.74 87.51 55.73 86.71 52.18 85.77 48.64 84.79 44.35 83.17 40.37 80.9" stroke="#aaa" stroke-width="1"/>
  <polyline fill="none" points ="22.42 86.47 22.64 86.9 22.89 87.33 23.21 87.83 23.56 88.32 24.01 88.89 24.47 89.44 25.03 90.09 25.61 90.72 24.28 90.38 23.62 90.51 25.91 91.4 28.27 92.1 31.73 92.88 35.25 93.26 37.97 93.05 40.3 91.73 42.68 93.04 45.44 93.26 48.97 92.88 52.43 92.1 54.8 91.4 57.1 90.51 56.54 90.38 55.27 90.72 57.41 88.08 58.66 84.99 57.49 83.35 55.57 82.54 52.08 81.58 48.61 80.54 44.27 78.7 40.34 76.12" stroke="#aaa" stroke-width="1"/>
  <polyline fill="none" points ="23.2 82.65 23.48 83.11 23.77 83.57 24.15 84.1 24.55 84.62 25.04 85.22 25.54 85.81 26.15 86.5 26.76 87.17 25.18 86.64 23.92 86.44 26.05 87.3 28.25 87.97 31.7 88.74 35.22 89.06 38.06 88.67 40.32 87.01 42.64 88.67 45.51 89.06 49.04 88.74 52.49 87.97 54.7 87.29 56.85 86.44 55.69 86.64 54.16 87.17 56.57 84.26 58.2 80.9 57.29 79.2 55.46 78.37 52.03 77.38 48.63 76.28 44.25 74.22 40.37 71.33" stroke="#aaa" stroke-width="1"/>
  <polyline fill="none" points ="23.9 78.85 24.23 79.35 24.58 79.83 25.01 80.39 25.46 80.94 25.99 81.57 26.54 82.19 27.19 82.91 27.84 83.62 25.92 82.89 24.09 82.39 26.05 83.22 28.08 83.86 31.53 84.64 35.05 84.89 38.02 84.32 40.22 82.33 42.49 84.32 45.49 84.89 49.02 84.64 52.47 83.86 54.52 83.22 56.49 82.39 54.74 82.89 52.88 83.62 55.61 80.42 57.64 76.79 56.98 75.04 55.22 74.17 51.84 73.14 48.49 71.99 44.08 69.69 40.27 66.5" stroke="#aaa" stroke-width="1"/>
  <polyline fill="none" points ="24.53 75.07 24.92 75.59 25.33 76.09 25.82 76.68 26.32 77.26 26.91 77.92 27.51 78.58 28.2 79.32 28.91 80.06 26.54 79.11 24.15 78.38 25.96 79.21 27.85 79.83 31.33 80.62 34.9 80.83 38.02 80.07 40.2 77.78 42.45 80.06 45.61 80.83 49.18 80.62 52.67 79.83 54.57 79.2 56.38 78.38 54.07 79.12 51.77 80.06 54.89 76.57 57.38 72.64 56.98 70.83 55.27 69.89 51.88 68.82 48.53 67.6 44.04 65.06 40.26 61.55" stroke="#aaa" stroke-width="1"/>
  <polyline fill="none" points ="25.06 71.21 25.52 71.76 25.99 72.3 26.54 72.93 27.1 73.54 27.76 74.25 28.42 74.94 29.18 75.73 29.95 76.51 27.09 75.34 24.17 74.44 25.86 75.3 27.68 75.92 31.28 76.74 34.96 76.92 38.28 75.99 40.52 73.42 42.82 75.99 46.18 76.92 49.87 76.75 53.48 75.92 55.3 75.3 57 74.44 54.15 75.35 51.36 76.51 54.93 72.68 57.91 68.42 57.75 66.52 56.04 65.5 52.56 64.36 49.14 63.05 44.46 60.24 40.58 56.4" stroke="#aaa" stroke-width="1"/>
  <polyline fill="none" points ="24.45 67.26 24.97 67.85 25.49 68.44 26.11 69.11 26.74 69.77 27.47 70.53 28.21 71.27 29.05 72.12 29.89 72.95 26.56 71.61 23.16 70.58 24.81 71.49 26.65 72.14 30.46 73.02 34.37 73.18 37.95 72.12 40.32 69.27 42.75 72.11 46.38 73.18 50.29 73.02 54.1 72.14 55.94 71.49 57.61 70.58 54.28 71.61 51.02 72.95 55.05 68.76 58.52 64.13 58.53 62.11 56.77 60.97 53.09 59.74 49.48 58.32 44.48 55.24 40.38 51.04" stroke="#aaa" stroke-width="1"/>
  <polyline fill="none" points ="23.62 63.25 24.2 63.9 24.79 64.53 25.47 65.25 26.17 65.97 26.97 66.78 27.78 67.59 28.7 68.5 29.63 69.4 25.88 67.9 22.03 66.75 23.7 67.74 25.62 68.42 29.71 69.38 33.9 69.54 37.78 68.35 40.32 65.24 42.93 68.35 46.85 69.54 51.05 69.38 55.14 68.42 57.06 67.74 58.75 66.75 54.97 67.9 51.28 69.4 55.78 64.83 59.7 59.79 59.83 57.63 57.97 56.37 54.02 55.04 50.17 53.51 44.79 50.14 40.38 45.56" stroke="#aaa" stroke-width="1"/>
  <polyline fill="none" points ="23.04 59.28 23.69 59.96 24.34 60.64 25.1 61.42 25.88 62.19 26.76 63.05 27.65 63.92 28.67 64.88 29.69 65.85 25.42 64.17 21.04 62.92 22.68 63.97 24.66 64.7 29 65.72 33.45 65.88 37.62 64.56 40.33 61.18 43.11 64.56 47.32 65.88 51.77 65.72 56.11 64.7 58.09 63.97 59.74 62.92 55.43 64.18 51.23 65.85 56.26 60.9 60.72 55.47 61.02 53.17 59.1 51.79 54.92 50.36 50.83 48.71 45.08 45.06 40.39 40.11" stroke="#aaa" stroke-width="1"/>
  <polyline fill="none" points ="23.51 55.44 24.25 56.16 25 56.87 25.87 57.68 26.74 58.49 27.72 59.39 28.72 60.29 29.84 61.29 30.96 62.29 25.89 60.4 20.68 59.03 21.98 60.13 23.91 60.87 28.39 61.95 32.99 62.09 37.4 60.62 40.23 56.97 43.12 60.62 47.57 62.09 52.17 61.95 56.65 60.87 58.58 60.13 59.9 59.03 54.75 60.4 49.75 62.29 55.53 56.98 60.83 51.2 61.52 48.88 59.68 47.31 55.4 45.78 51.2 44.04 45.17 40.11 40.29 34.82" stroke="#aaa" stroke-width="1"/>
  <polyline fill="none" points ="23.29 51.6 24.03 52.36 24.79 53.1 25.66 53.94 26.53 54.78 27.52 55.72 28.52 56.66 29.64 57.7 30.76 58.74 25.49 56.64 20.06 55.05 21.42 56.13 23.4 56.88 28.03 57.98 32.79 58.08 37.4 56.42 40.26 52.48 43.2 56.42 47.85 58.08 52.61 57.98 57.25 56.88 59.23 56.13 60.6 55.05 55.24 56.64 50.03 58.74 55.93 53.11 61.32 47.03 62.01 44.62 60.13 42.99 55.75 41.42 51.46 39.6 45.27 35.41 40.33 29.8" stroke="#aaa" stroke-width="1"/>
  <polyline fill="none" points ="23.77 47.94 24.49 48.7 25.21 49.47 26.04 50.32 26.88 51.18 27.82 52.13 28.77 53.08 29.83 54.13 30.9 55.18 25.57 52.84 20.08 50.93 21.44 51.92 23.41 52.66 28.07 53.73 32.84 53.76 37.54 51.84 40.32 47.61 43.18 51.84 47.92 53.76 52.69 53.73 57.36 52.66 59.32 51.92 60.7 50.93 55.28 52.84 50.01 55.18 55.79 49.3 61.06 42.99 61.73 40.56 59.85 38.91 55.53 37.33 51.32 35.46 45.19 31.03 40.39 25.16" stroke="#aaa" stroke-width="1"/>
  <polyline fill="none" points ="24.8 44.45 25.46 45.21 26.12 45.97 26.87 46.82 27.63 47.67 28.48 48.61 29.33 49.55 30.28 50.59 31.23 51.63 26.1 48.98 20.81 46.67 22.14 47.5 24 48.19 28.47 49.19 33.05 49.1 37.68 46.83 40.23 42.33 42.85 46.83 47.52 49.1 52.1 49.19 56.59 48.19 58.45 47.5 59.79 46.67 54.57 48.98 49.5 51.63 54.91 45.55 59.84 39.1 60.45 36.71 58.65 35.08 54.55 33.54 50.59 31.66 44.73 26.99 40.3 20.93" stroke="#aaa" stroke-width="1"/>
  <polyline fill="none" points ="26.46 41.13 27.03 41.88 27.6 42.62 28.25 43.44 28.9 44.27 29.62 45.17 30.35 46.08 31.15 47.08 31.95 48.08 27.18 45.08 22.29 42.3 23.54 42.91 25.24 43.54 29.39 44.44 33.62 44.21 38.04 41.5 40.26 36.77 42.56 41.51 47.02 44.21 51.26 44.44 55.42 43.54 57.12 42.91 58.39 42.3 53.56 45.09 48.86 48.08 53.74 41.84 58.17 35.3 58.71 33 57.03 31.42 53.26 29.96 49.68 28.09 44.27 23.18 40.34 16.99" stroke="#aaa" stroke-width="1"/>
  <polyline fill="none" points ="28.25 37.95 28.73 38.66 29.21 39.38 29.75 40.16 30.28 40.94 30.87 41.8 31.47 42.66 32.11 43.59 32.76 44.52 28.39 41.17 23.95 37.91 25.08 38.28 26.63 38.84 30.43 39.64 34.28 39.27 38.41 36.08 40.32 31.13 42.3 36.09 46.49 39.27 50.35 39.64 54.15 38.84 55.71 38.28 56.86 37.91 52.48 41.17 48.17 44.52 52.49 38.15 56.38 31.54 56.84 29.34 55.3 27.81 51.9 26.43 48.72 24.58 43.8 19.41 40.4 13.11" stroke="#aaa" stroke-width="1"/>
  <polyline fill="none" points ="29.62 34.71 30.03 35.39 30.43 36.08 30.88 36.83 31.33 37.58 31.82 38.39 32.31 39.21 32.84 40.09 33.37 40.97 29.32 37.27 25.25 33.58 26.26 33.73 27.72 34.25 31.23 34.96 34.76 34.46 38.65 30.83 40.31 25.67 42.06 30.84 46 34.46 49.54 34.96 53.06 34.25 54.52 33.73 55.55 33.58 51.54 37.27 47.55 40.97 51.4 34.44 54.87 27.71 55.27 25.59 53.84 24.09 50.73 22.77 47.88 20.93 43.39 15.5 40.39 9.07" stroke="#aaa" stroke-width="1"/>
</svg>