<?xml version="1.0" encoding="UTF-8"?>
<svg id="Ebene_1" xmlns="http://www.w3.org/2000/svg" width="222" height="222" viewBox="0 0 222 222">
  <polyline points="26.33 25.57 22.06 28.09 17.8 30.61 23.3 37.39 28.81 44.17 28.83 44.22 28.82 44.28 25.48 51.18 22.14 58.08 27.21 60.55 32.28 63.02 34.47 58.55 36.66 54.08 36.69 54.04 36.74 54.02 36.79 54.03 36.83 54.06 40.44 58.51 44.05 62.95 48.32 60.44 52.58 57.92 47.06 51.1 41.53 44.27 41.51 44.22 41.52 44.16 44.85 37.29 48.17 30.42 43.14 27.96 38.1 25.51 35.91 29.98 33.72 34.45 33.69 34.49 33.64 34.51 33.59 34.5 33.55 34.47 29.94 30.02 26.33 25.57" fill="none" stroke="#aaa" stroke-miterlimit="10" stroke-width=".5"/>
  <polyline points="17.54 30.58 17.54 30.57 17.54 30.56 17.56 30.52 17.59 30.49 21.94 27.92 26.3 25.35 26.37 25.34 26.43 25.37 30.02 29.79 33.61 34.21 35.79 29.77 37.96 25.33 38.02 25.27 38.1 25.28 43.23 27.78 48.35 30.28 48.41 30.34 48.4 30.42 45.07 37.3 41.74 44.19 47.28 51.04 52.82 57.88 52.84 57.92 52.84 57.97 52.82 58.01 52.79 58.04 48.44 60.61 44.08 63.18 44.01 63.19 43.95 63.15 40.36 58.73 36.78 54.31 34.6 58.76 32.42 63.2 32.36 63.25 32.28 63.25 27.12 60.73 21.96 58.22 21.91 58.16 21.91 58.08 25.26 51.16 28.6 44.25 23.08 37.45 17.56 30.64 17.54 30.61 17.54 30.58" fill="none" stroke="#aaa" stroke-miterlimit="10" stroke-width=".5"/>
  <polyline points="17.54 30.58 17.54 30.56 17.55 30.53 19.8 25.85 22.05 21.17 22.07 21.14 22.09 21.12 26.45 18.55 30.81 15.98 30.88 15.97 30.94 16.01 34.6 20.52 38.27 25.03 38.29 25.11 38.25 25.18 38.18 25.2 38.11 25.16 34.47 20.68 30.83 16.21 26.53 18.75 22.23 21.29 19.98 25.96 17.73 30.62 17.68 30.68 17.6 30.67 17.55 30.63 17.54 30.58" fill="none" stroke="#aaa" stroke-miterlimit="10" stroke-width=".5"/>
  <polyline points="37.95 25.37 37.95 25.35 37.96 25.33 40.21 20.64 42.47 15.96 42.49 15.93 42.53 15.91 42.57 15.9 42.6 15.91 47.77 18.43 52.93 20.95 52.96 20.97 52.98 21.01 52.99 21.05 52.98 21.08 50.69 25.75 48.4 30.42 48.34 30.47 48.26 30.46 48.21 30.4 48.22 30.33 50.48 25.71 52.74 21.09 47.68 18.62 42.61 16.15 40.38 20.78 38.15 25.42 38.09 25.47 38.01 25.47 37.97 25.43 37.95 25.37" fill="none" stroke="#aaa" stroke-miterlimit="10" stroke-width=".5"/>
  <polyline points="26.25 25.44 26.25 25.42 26.26 25.39 28.51 20.71 30.76 16.03 30.82 15.98 30.9 15.98 30.96 16.04 30.95 16.12 28.7 20.8 26.45 25.48 26.39 25.54 26.31 25.53 26.27 25.49 26.25 25.44" fill="none" stroke="#aaa" stroke-miterlimit="10" stroke-width=".5"/>
  <polyline points="46.02 34.88 46.03 34.84 46.06 34.8 46.14 34.78 46.21 34.82 51.77 41.67 57.33 48.52 57.35 48.57 57.34 48.63 55.09 53.31 52.83 57.99 52.77 58.05 52.69 58.04 52.64 57.98 52.65 57.9 54.88 53.25 57.12 48.6 51.58 41.77 46.04 34.95 46.03 34.92 46.02 34.88" fill="none" stroke="#aaa" stroke-miterlimit="10" stroke-width=".5"/>
</svg>