<?xml version="1.0" encoding="utf-8" ?>
<svg baseProfile="full" height="222" version="1.1" width="222" xmlns="http://www.w3.org/2000/svg" xmlns:ev="http://www.w3.org/2001/xml-events" xmlns:xlink="http://www.w3.org/1999/xlink"><defs />
  <polyline fill="none" points ="42.88 191.15 41.78 185.63 38.83 180.95 36.27 180.25 33.64 180.76 32.05 181.17 31.07 180.23 32.71 174.53 34.93 169 33.57 176.87 32.61 184.78 32.78 186.74 34.1 188.09 36.34 189.4 37.97 191.44 40.98 199.18 42.79 207.32 44.48 199.26 47.3 191.54 48.75 189.53 50.79 188.14 51.72 186.82 51.59 185.1 49.9 177.75 48.03 170.44" stroke="#aaa" stroke-width="1"/>
  <polyline fill="none" points ="42.89 186.23 41.7 180.97 38.58 176.7 35.81 176.09 33 176.65 31.4 177.09 30.29 176.31 32.13 171.01 34.53 165.9 33.03 173.47 31.93 181.1 32.1 183.07 33.48 184.4 35.83 185.7 37.62 187.72 40.84 195.1 42.81 202.94 44.64 195.19 47.66 187.85 49.25 185.85 51.4 184.46 52.4 183.2 52.27 181.5 50.48 174.57 48.48 167.69" stroke="#aaa" stroke-width="1"/>
  <polyline fill="none" points ="42.92 181.19 41.58 176.17 38.23 172.35 35.2 171.85 32.16 172.47 30.5 172.93 29.24 172.35 31.36 167.46 34 162.8 32.29 170.09 31.02 177.46 31.2 179.47 32.64 180.78 35.16 182.08 37.15 184.09 40.65 191.11 42.83 198.67 44.86 191.22 48.13 184.26 49.92 182.25 52.22 180.86 53.32 179.65 53.19 177.96 51.26 171.44 49.1 164.98" stroke="#aaa" stroke-width="1"/>
  <polyline fill="none" points ="42.94 176.17 41.45 171.39 37.89 168.01 34.59 167.63 31.32 168.29 29.61 168.79 28.2 168.4 30.61 163.92 33.49 159.7 31.57 166.71 30.11 173.81 30.29 175.85 31.8 177.16 34.47 178.45 36.68 180.44 40.45 187.1 42.85 194.39 45.09 187.24 48.6 180.65 50.59 178.64 53.05 177.26 54.23 176.1 54.12 174.4 52.07 168.28 49.75 162.24" stroke="#aaa" stroke-width="1"/>
  <polyline fill="none" points ="42.96 171.23 41.31 166.69 37.6 163.74 34.08 163.46 30.6 164.17 28.84 164.68 27.32 164.47 30 160.4 33.08 156.6 30.95 163.31 29.32 170.14 29.5 172.2 31.07 173.48 33.87 174.78 36.27 176.74 40.27 183.02 42.87 190.03 45.3 183.18 49.01 176.97 51.18 174.99 53.76 173.61 55.02 172.51 54.94 170.8 52.79 165.07 50.34 159.44" stroke="#aaa" stroke-width="1"/>
  <polyline fill="none" points ="42.98 166.33 41.16 162.05 37.35 159.5 33.65 159.32 30 160.07 28.2 160.59 26.58 160.56 29.48 156.91 32.72 153.5 30.4 159.9 28.59 166.45 28.77 168.52 30.38 169.78 33.32 171.08 35.89 173 40.08 178.91 42.89 185.63 45.49 179.09 49.38 173.26 51.71 171.31 54.42 169.93 55.74 168.88 55.7 167.18 53.47 161.81 50.91 156.57" stroke="#aaa" stroke-width="1"/>
  <polyline fill="none" points ="42.99 161.35 40.98 157.34 37.08 155.2 33.19 155.12 29.37 155.92 27.52 156.47 25.79 156.62 28.92 153.4 32.28 150.39 29.73 156.5 27.71 162.79 27.89 164.88 29.56 166.13 32.64 167.44 35.42 169.32 39.85 174.86 42.9 181.31 45.72 175.07 49.81 169.61 52.33 167.68 55.19 166.3 56.58 165.3 56.6 163.6 54.29 158.58 51.61 153.73" stroke="#aaa" stroke-width="1"/>
  <polyline fill="none" points ="43.01 156.21 40.73 152.49 36.71 150.77 32.56 150.81 28.49 151.68 26.56 152.26 24.7 152.62 28.13 149.89 31.68 147.29 28.81 153.13 26.5 159.19 26.68 161.32 28.42 162.57 31.74 163.92 34.79 165.78 39.54 170.96 42.92 177.16 46.04 171.19 50.4 166.1 53.19 164.19 56.26 162.79 57.75 161.82 57.87 160.1 55.44 155.41 52.59 150.93" stroke="#aaa" stroke-width="1"/>
  <polyline fill="none" points ="43.11 150.97 40.48 147.57 36.35 146.26 31.89 146.43 27.52 147.37 25.47 147.99 23.48 148.59 27.26 146.38 31.06 144.19 27.79 149.76 25.13 155.62 25.3 157.82 27.15 159.08 30.74 160.47 34.11 162.32 39.23 167.15 43.02 173.11 46.5 167.41 51.18 162.67 54.27 160.77 57.61 159.33 59.22 158.39 59.45 156.62 56.86 152.19 53.8 148.04" stroke="#aaa" stroke-width="1"/>
  <polyline fill="none" points ="42.86 145.75 39.87 142.72 35.65 141.77 30.9 142.06 26.25 143.08 24.06 143.75 21.97 144.57 26.08 142.9 30.13 141.09 26.46 146.39 23.43 152.04 23.6 154.3 25.54 155.56 29.41 157 33.11 158.83 38.57 163.33 42.78 169.03 46.62 163.6 51.61 159.2 55.01 157.32 58.62 155.86 60.33 154.92 60.68 153.11 57.93 148.9 54.65 145.04" stroke="#aaa" stroke-width="1"/>
  <polyline fill="none" points ="42.74 140.69 39.42 138.05 35.14 137.4 30.04 137.81 25.02 138.88 22.39 139.65 19.83 140.59 23.44 139.37 27.02 137.98 23.65 142.98 21.14 148.41 21.83 150.75 24.06 151.96 28.28 153.4 32.37 155.22 38.1 159.38 42.66 164.8 46.81 159.67 52.01 155.64 55.88 153.75 59.94 152.32 62.15 151.41 63.57 149.6 62.3 145.73 60.05 142.24" stroke="#aaa" stroke-width="1"/>
  <polyline fill="none" points ="42.74 135.86 39.18 133.63 34.91 133.22 29.49 133.73 24.15 134.83 20.95 135.69 17.8 136.71 20.36 135.89 23.16 134.88 20.51 139.57 19.04 144.69 20.49 147.04 23.08 148.21 27.63 149.64 32.04 151.42 37.89 155.23 42.67 160.32 46.98 155.54 52.26 151.86 56.44 150.01 60.76 148.62 63.41 147.68 65.55 145.95 65.46 142.45 63.98 139.19" stroke="#aaa" stroke-width="1"/>
  <polyline fill="none" points ="42.68 131.25 38.99 129.43 34.79 129.21 29.24 129.8 23.77 130.9 20.26 131.81 16.8 132.9 18.66 132.51 21.07 131.78 18.83 136.15 17.97 140.9 19.83 143.19 22.62 144.34 27.3 145.74 31.88 147.45 37.72 150.91 42.62 155.61 47.02 151.21 52.27 147.88 56.57 146.12 61.02 144.77 63.88 143.82 66.36 142.16 66.87 139.02 65.79 135.94" stroke="#aaa" stroke-width="1"/>
  <polyline fill="none" points ="42.79 126.77 39.03 125.36 34.94 125.31 29.36 125.96 23.85 127.05 20.16 127.98 16.53 129.13 17.81 129.17 19.98 128.68 18.04 132.7 17.62 137.07 19.74 139.26 22.65 140.39 27.38 141.75 32.03 143.38 37.79 146.48 42.74 150.77 47.17 146.77 52.34 143.78 56.7 142.12 61.18 140.82 64.17 139.88 66.84 138.28 67.71 135.47 66.92 132.54" stroke="#aaa" stroke-width="1"/>
  <polyline fill="none" points ="42.65 122.34 38.86 121.36 34.89 121.44 29.33 122.15 23.82 123.23 20.01 124.18 16.28 125.39 17.04 125.84 19.07 125.58 17.37 129.26 17.27 133.21 19.59 135.3 22.57 136.41 27.31 137.72 32 139.26 37.64 142.02 42.61 145.87 47.06 142.28 52.14 139.62 56.53 138.07 61.02 136.83 64.09 135.89 66.88 134.34 67.96 131.79 67.35 129.02" stroke="#aaa" stroke-width="1"/>
  <polyline fill="none" points ="42.58 117.92 38.79 117.36 34.94 117.59 29.43 118.35 23.98 119.42 20.09 120.38 16.29 121.65 16.51 122.49 18.46 122.48 16.94 125.8 17.11 129.36 19.57 131.34 22.59 132.42 27.34 133.7 32.03 135.14 37.56 137.57 42.54 140.97 47.04 137.78 52.04 135.44 56.47 134 60.96 132.81 64.08 131.87 66.94 130.35 68.12 127.99 67.61 125.35" stroke="#aaa" stroke-width="1"/>
  <polyline fill="none" points ="42.56 113.5 38.82 113.37 35.07 113.73 29.65 114.54 24.28 115.61 20.35 116.57 16.55 117.9 16.33 119.08 18.24 119.37 16.84 122.34 17.16 125.5 19.71 127.39 22.75 128.44 27.47 129.67 32.17 131.02 37.56 133.13 42.54 136.07 47.12 133.27 52.08 131.24 56.55 129.91 61.07 128.75 64.2 127.81 67.07 126.28 68.2 124.03 67.62 121.51" stroke="#aaa" stroke-width="1"/>
  <polyline fill="none" points ="42.54 109.11 38.87 109.4 35.21 109.89 29.91 110.76 24.65 111.81 20.78 112.77 17.05 114.17 16.7 115.64 18.63 116.27 17.23 118.84 17.59 121.64 20.18 123.42 23.2 124.44 27.86 125.63 32.5 126.87 37.67 128.66 42.55 131.14 47.14 128.74 52.03 127 56.55 125.77 61.08 124.64 64.15 123.68 66.94 122.11 67.8 119.81 66.87 117.46" stroke="#aaa" stroke-width="1"/>
  <polyline fill="none" points ="42.59 104.81 37.89 105.43 33.2 106.13 28.15 106.99 23.15 108.07 19.96 108.99 17 110.47 17.31 112.25 19.29 113.17 17.92 115.33 18.34 117.74 20.97 119.39 23.95 120.38 28.51 121.52 33.07 122.65 37.93 124.12 42.6 126.11 47.22 124.11 52.04 122.64 56.61 121.52 61.17 120.38 64.13 119.4 66.72 117.74 66.96 115.26 65.44 113.13 65.45 113.13 65.46 113.13 65.47 113.13 65.48 113.12 65.48 113.12 65.49 113.12 65.5 113.11 65.51 113.11" stroke="#aaa" stroke-width="1"/>
  <polyline fill="none" points ="42.58 100.67 37.75 101.64 32.9 102.5 28.11 103.38 23.36 104.43 20.44 105.31 17.84 106.82 18.27 108.83 20.23 110.07 18.93 111.79 19.43 113.78 22.08 115.29 25.01 116.22 29.39 117.29 33.79 118.3 38.24 119.44 42.59 120.91 46.88 119.43 51.29 118.29 55.7 117.29 60.09 116.22 63 115.3 65.61 113.78 65.93 111.73 64.46 110.06 64.76 109.92 65.04 109.78 65.3 109.65 65.56 109.51 65.79 109.38 66.01 109.25 66.21 109.12 66.4 108.99" stroke="#aaa" stroke-width="1"/>
  <polyline fill="none" points ="42.48 96.71 37.78 97.99 33 99.01 28.54 99.89 24.1 100.89 21.44 101.73 19.15 103.24 19.62 105.43 21.5 106.96 20.29 108.23 20.9 109.76 23.57 111.09 26.43 111.96 30.57 112.94 34.74 113.8 38.63 114.61 42.49 115.52 46.31 114.6 50.16 113.8 54.34 112.93 58.5 111.96 61.34 111.1 63.97 109.77 64.39 108.17 63.02 106.98 63.49 106.68 63.96 106.36 64.34 106.08 64.7 105.79 64.99 105.53 65.26 105.25 65.47 105 65.65 104.74" stroke="#aaa" stroke-width="1"/>
  <polyline fill="none" points ="42.47 92.83 38.07 94.42 33.53 95.58 29.46 96.46 25.4 97.4 23.04 98.19 21.12 99.69 21.82 102.07 23.73 103.86 22.49 104.57 23.09 105.71 25.77 106.85 28.57 107.65 32.42 108.52 36.31 109.25 39.39 109.72 42.48 110.06 45.53 109.71 48.58 109.24 52.48 108.52 56.35 107.65 59.13 106.86 61.76 105.72 62.12 104.53 60.75 103.91 61.39 103.42 62 102.91 62.46 102.48 62.9 102.02 63.21 101.64 63.48 101.23 63.65 100.89 63.77 100.53" stroke="#aaa" stroke-width="1"/>
  <polyline fill="none" points ="42.48 88.9 38.47 90.79 34.24 92.11 30.56 92.99 26.89 93.87 24.82 94.62 23.31 96.12 24.35 98.71 26.39 100.76 25.09 100.89 25.14 101.68 27.64 102.66 30.23 103.38 33.81 104.16 37.44 104.73 39.99 104.93 42.51 104.65 45 104.94 47.52 104.73 51.15 104.16 54.74 103.38 57.29 102.67 59.74 101.7 59.5 100.93 58.1 100.83 58.86 100.17 59.6 99.49 60.14 98.93 60.64 98.34 60.98 97.86 61.27 97.36 61.43 96.96 61.52 96.54" stroke="#aaa" stroke-width="1"/>
  <polyline fill="none" points ="42.49 84.79 38.82 86.99 34.81 88.5 31.45 89.39 28.11 90.25 26.28 90.97 25.18 92.48 26.58 95.32 28.8 97.66 27.35 97.44 26.46 97.72 28.62 98.57 30.86 99.2 34.24 99.93 37.67 100.36 40.22 100.32 42.56 99.42 44.83 100.33 47.33 100.36 50.77 99.93 54.15 99.2 56.35 98.58 58.46 97.74 57.3 97.51 55.71 97.75 56.49 97.01 57.26 96.25 57.84 95.62 58.4 94.97 58.79 94.45 59.15 93.9 59.37 93.47 59.54 93.02" stroke="#aaa" stroke-width="1"/>
  <polyline fill="none" points ="42.47 80.44 39 82.96 35.08 84.7 31.97 85.63 28.85 86.48 27.21 87.22 26.51 88.77 28.35 91.88 30.85 94.56 29.03 94.05 27.33 93.83 29.2 94.6 31.14 95.17 34.41 95.87 37.73 96.18 40.38 95.88 42.54 94.44 44.64 95.89 47.24 96.18 50.56 95.87 53.82 95.17 55.71 94.62 57.51 93.86 55.56 94.13 53.54 94.68 54.33 93.9 55.11 93.11 55.73 92.45 56.33 91.77 56.8 91.21 57.23 90.64 57.55 90.17 57.83 89.69" stroke="#aaa" stroke-width="1"/>
  <polyline fill="none" points ="42.51 75.92 39.21 78.76 35.34 80.76 32.39 81.73 29.42 82.6 27.93 83.4 27.67 84.98 30.07 88.42 33 91.45 30.56 90.62 28.09 90.01 29.65 90.73 31.31 91.25 34.5 91.94 37.76 92.14 40.56 91.56 42.6 89.65 44.55 91.58 47.3 92.14 50.54 91.94 53.73 91.25 55.31 90.75 56.77 90.05 54.03 90.7 51.32 91.6 52.13 90.81 52.94 90.01 53.62 89.32 54.28 88.62 54.82 88.04 55.34 87.44 55.75 86.94 56.14 86.43" stroke="#aaa" stroke-width="1"/>
  <polyline fill="none" points ="42.68 71.31 39.52 74.49 35.66 76.76 32.84 77.79 30 78.68 28.65 79.59 28.79 81.18 31.73 84.94 35.1 88.35 31.97 87.16 28.78 86.22 30.01 86.9 31.45 87.37 34.62 88.06 37.86 88.16 40.82 87.28 42.77 84.94 44.62 87.29 47.52 88.17 50.67 88.06 53.75 87.37 55.05 86.91 55.84 86.26 51.96 87.23 48.17 88.53 49.06 87.73 49.94 86.94 50.7 86.24 51.46 85.54 52.11 84.94 52.74 84.33 53.27 83.8 53.8 83.28" stroke="#aaa" stroke-width="1"/>
  <polyline fill="none" points ="42.37 66.72 39.32 70.2 35.45 72.76 32.68 73.85 29.87 74.76 28.51 75.73 28.63 77.37 31.45 81.47 34.71 85.25 31.49 83.75 28.22 82.43 29.49 83.02 30.93 83.49 34.18 84.17 37.48 84.18 40.61 82.98 42.49 80.22 44.24 82.98 47.3 84.19 50.5 84.17 53.64 83.49 54.93 83.04 55.75 82.47 51.78 83.82 47.9 85.45 48.7 84.63 49.5 83.81 50.19 83.09 50.88 82.36 51.48 81.73 52.07 81.09 52.57 80.53 53.07 79.97" stroke="#aaa" stroke-width="1"/>
  <polyline fill="none" points ="42.55 62.16 39.61 65.95 35.76 68.79 33.06 69.95 30.3 70.86 28.93 71.88 29.04 73.58 31.72 78.01 34.85 82.15 31.64 80.33 28.38 78.62 29.67 79.12 31.11 79.59 34.36 80.24 37.66 80.17 40.9 78.59 42.67 75.45 44.31 78.59 47.48 80.18 50.67 80.25 53.81 79.59 55.08 79.14 55.92 78.66 51.94 80.41 48.07 82.38 48.78 81.54 49.49 80.71 50.12 79.96 50.74 79.22 51.29 78.56 51.83 77.9 52.3 77.32 52.76 76.74" stroke="#aaa" stroke-width="1"/>
  <polyline fill="none" points ="42.73 57.64 39.91 61.71 36.1 64.85 33.49 66.06 30.78 66.99 29.42 68.06 29.51 69.8 32.05 74.55 35.03 79.05 31.83 76.91 28.63 74.8 29.92 75.2 31.35 75.66 34.59 76.3 37.87 76.12 41.19 74.16 42.86 70.66 44.4 74.16 47.63 76.14 50.81 76.31 53.93 75.66 55.19 75.23 56.03 74.85 52.08 77 48.22 79.3 48.85 78.46 49.48 77.62 50.04 76.86 50.6 76.1 51.09 75.43 51.58 74.75 52.01 74.15 52.44 73.55" stroke="#aaa" stroke-width="1"/>
  <polyline fill="none" points ="42.46 53.09 39.74 57.45 35.96 60.89 33.42 62.15 30.76 63.09 29.4 64.22 29.48 66.01 31.89 71.09 34.75 75.94 31.55 73.47 28.37 70.98 29.66 71.29 31.1 71.75 34.34 72.38 37.62 72.11 41 69.74 42.59 65.89 44.06 69.74 47.36 72.12 50.52 72.38 53.64 71.75 54.9 71.32 55.73 71.04 51.8 73.58 47.94 76.22 48.5 75.38 49.06 74.53 49.56 73.76 50.07 73 50.52 72.31 50.96 71.62 51.36 71 51.75 70.38" stroke="#aaa" stroke-width="1"/>
  <polyline fill="none" points ="42.52 48.41 39.83 53.07 36.01 56.83 33.49 58.15 30.82 59.13 29.44 60.32 29.51 62.18 31.87 67.61 34.67 72.84 31.41 70.06 28.21 67.22 29.51 67.45 30.99 67.92 34.28 68.54 37.6 68.19 41.08 65.46 42.65 61.26 44.09 65.45 47.48 68.21 50.68 68.55 53.86 67.92 55.15 67.48 55.98 67.28 52 70.18 48.07 73.15 48.59 72.29 49.11 71.43 49.57 70.65 50.04 69.87 50.46 69.16 50.88 68.45 51.25 67.81 51.62 67.17" stroke="#aaa" stroke-width="1"/>
  <polyline fill="none" points ="42.54 43.51 39.77 48.52 35.79 52.59 33.19 54 30.42 55.03 28.98 56.3 29.06 58.26 31.46 64.1 34.34 69.74 30.93 66.67 27.61 63.53 28.95 63.73 30.5 64.22 33.94 64.86 37.4 64.45 41.05 61.41 42.66 56.85 44.15 61.4 47.71 64.47 51.05 64.87 54.37 64.22 55.72 63.75 56.58 63.6 52.44 66.8 48.33 70.07 48.84 69.18 49.35 68.29 49.81 67.48 50.27 66.67 50.69 65.93 51.1 65.19 51.48 64.52 51.85 63.85" stroke="#aaa" stroke-width="1"/>
  <polyline fill="none" points ="42.54 38.39 39.59 43.78 35.33 48.17 32.55 49.7 29.59 50.8 28.05 52.17 28.13 54.28 30.7 60.56 33.77 66.64 30.11 63.32 26.55 59.92 28 60.12 29.66 60.65 33.34 61.34 37.05 60.89 40.96 57.59 42.67 52.68 44.27 57.58 48.09 60.91 51.66 61.35 55.21 60.65 56.66 60.15 57.59 59.99 53.15 63.46 48.76 67 49.29 66.06 49.82 65.12 50.31 64.26 50.79 63.4 51.23 62.62 51.66 61.83 52.05 61.12 52.44 60.41" stroke="#aaa" stroke-width="1"/>
  <polyline fill="none" points ="42.55 33.15 39.35 38.95 34.74 43.66 31.73 45.3 28.51 46.49 26.85 47.97 26.94 50.24 29.73 57.01 33.07 63.54 29.11 59.99 25.25 56.35 26.81 56.58 28.61 57.16 32.59 57.9 36.6 57.42 40.82 53.9 42.68 48.63 44.41 53.9 48.55 57.44 52.41 57.91 56.25 57.16 57.82 56.61 58.82 56.43 54.03 60.14 49.28 63.92 49.85 62.92 50.42 61.92 50.94 61 51.46 60.09 51.94 59.25 52.41 58.42 52.83 57.66 53.25 56.9" stroke="#aaa" stroke-width="1"/>
  <polyline fill="none" points ="42.56 27.91 39.11 34.12 34.15 39.16 30.91 40.92 27.44 42.19 25.65 43.77 25.75 46.21 28.76 53.45 32.37 60.43 28.11 56.65 23.95 52.78 25.63 53.04 27.56 53.65 31.84 54.46 36.15 53.95 40.69 50.21 42.69 44.57 44.56 50.2 49 53.97 53.16 54.47 57.29 53.65 58.98 53.07 60.06 52.86 54.9 56.82 49.8 60.84 50.41 59.79 51.02 58.73 51.58 57.76 52.13 56.79 52.64 55.9 53.14 55.02 53.59 54.21 54.04 53.4" stroke="#aaa" stroke-width="1"/>
  <polyline fill="none" points ="42.57 22.81 38.93 29.4 33.69 34.76 30.27 36.62 26.62 37.97 24.72 39.65 24.82 42.23 28 49.92 31.8 57.33 27.29 53.3 22.9 49.16 24.67 49.42 26.71 50.07 31.24 50.92 35.79 50.38 40.59 46.37 42.7 40.38 44.67 46.36 49.38 50.4 53.78 50.93 58.14 50.07 59.93 49.46 61.07 49.25 55.62 53.47 50.23 57.77 50.86 56.67 51.48 55.57 52.06 54.56 52.63 53.55 53.15 52.62 53.67 51.7 54.14 50.86 54.61 50.01" stroke="#aaa" stroke-width="1"/>
  <polyline fill="none" points ="42.58 17.91 38.85 24.84 33.44 30.52 29.92 32.47 26.16 33.87 24.19 35.62 24.29 38.32 27.54 46.41 31.43 54.23 26.75 49.91 22.22 45.48 24.04 45.7 26.17 46.38 30.86 47.24 35.57 46.64 40.55 42.33 42.71 35.98 44.74 42.32 49.63 46.67 54.18 47.26 58.7 46.38 60.56 45.74 61.73 45.57 56.09 50.1 50.51 54.69 51.13 53.57 51.75 52.45 52.32 51.42 52.89 50.38 53.41 49.43 53.92 48.49 54.39 47.62 54.86 46.75" stroke="#aaa" stroke-width="1"/>
  <polyline fill="none" points ="42.59 13.16 38.84 20.41 33.35 26.4 29.82 28.42 26 29.86 24.01 31.69 24.1 34.46 27.34 42.92 31.22 51.13 26.45 46.5 21.85 41.73 23.7 41.89 25.87 42.58 30.66 43.46 35.45 42.78 40.56 38.11 42.72 31.42 44.76 38.1 49.77 42.81 54.39 43.47 59 42.59 60.91 41.93 62.09 41.83 56.36 46.7 50.66 51.62 51.26 50.49 51.85 49.37 52.39 48.33 52.93 47.29 53.43 46.33 53.93 45.37 54.38 44.49 54.83 43.61" stroke="#aaa" stroke-width="1"/>
  <polyline fill="none" points ="42.59 8.51 38.88 16.06 33.37 22.36 29.86 24.45 26.04 25.91 24.04 27.8 24.12 30.64 27.3 39.45 31.12 48.03 26.29 43.07 21.68 37.96 23.53 38.03 25.74 38.73 30.57 39.6 35.4 38.84 40.58 33.79 42.73 26.75 44.75 33.78 49.83 38.86 54.49 39.61 59.14 38.73 61.08 38.07 62.25 38.06 56.49 43.29 50.74 48.54 51.29 47.43 51.84 46.31 52.35 45.28 52.85 44.24 53.32 43.28 53.79 42.33 54.22 41.44 54.65 40.56" stroke="#aaa" stroke-width="1"/>
</svg>