<?xml version="1.0" encoding="UTF-8"?>
<svg id="Ebene_1" xmlns="http://www.w3.org/2000/svg" width="222" height="222" viewBox="0 0 222 222">
  <polyline points="28 141.75 28.01 141.75 28.02 141.75 33.88 142.88 39.73 144.02 39.73 138.58 39.73 133.14 33.83 132.01 27.93 130.87 27.87 130.83 27.85 130.77 27.85 123.85 27.85 116.93 23.24 116.04 18.64 115.14 18.64 122.04 18.64 128.94 18.63 128.98 18.6 129.02 18.56 129.04 18.52 129.04 12.66 127.91 6.8 126.77 6.8 132.21 6.8 137.65 12.7 138.78 18.6 139.92 18.66 139.96 18.69 140.02 18.69 146.94 18.69 153.86 23.29 154.75 27.9 155.65 27.9 148.75 27.9 141.85 27.91 141.81 27.93 141.77 27.96 141.75 28 141.75" fill="none" stroke="#aaa" stroke-miterlimit="10" stroke-width=".5"/>
  <polyline points="28 155.88 27.99 155.88 27.98 155.87 23.27 154.96 18.56 154.05 18.5 154.01 18.48 153.95 18.48 147.03 18.48 140.11 12.58 138.97 6.68 137.83 6.62 137.8 6.59 137.73 6.59 132.19 6.59 126.65 6.6 126.6 6.63 126.57 6.67 126.55 6.72 126.54 12.57 127.68 18.43 128.81 18.43 121.92 18.43 115.02 18.44 114.97 18.47 114.94 18.51 114.92 18.56 114.91 23.26 115.83 27.97 116.74 28.03 116.78 28.06 116.84 28.06 123.76 28.06 130.68 33.96 131.82 39.86 132.96 39.92 132.99 39.94 133.06 39.94 138.6 39.94 144.14 39.93 144.19 39.9 144.22 39.86 144.24 39.82 144.24 33.96 143.11 28.1 141.98 28.1 148.87 28.1 155.77 28.09 155.82 28.07 155.85 28.03 155.87 28 155.88" fill="none" stroke="#aaa" stroke-miterlimit="10" stroke-width=".5"/>
  <polyline points="27.95 116.95 27.97 116.94 27.99 116.94 33.52 114.74 39.04 112.55 39.09 112.51 39.11 112.44 39.08 112.38 39.03 112.35 34.3 111.44 29.58 110.53 29.55 110.52 29.52 110.53 24.01 112.73 18.5 114.92 18.44 114.98 18.44 115.06 18.5 115.11 18.57 115.11 24.07 112.92 29.57 110.73 34.11 111.61 38.64 112.49 33.28 114.62 27.92 116.75 27.86 116.8 27.86 116.88 27.9 116.93 27.95 116.95" fill="none" stroke="#aaa" stroke-miterlimit="10" stroke-width=".5"/>
  <polyline points="27.95 130.87 27.97 130.87 27.99 130.86 33.52 128.67 39.04 126.47 39.09 126.43 39.11 126.38 39.11 119.41 39.11 112.45 39.08 112.38 39.01 112.35 38.93 112.38 38.9 112.45 38.9 119.38 38.9 126.31 33.41 128.49 27.92 130.67 27.86 130.72 27.86 130.8 27.9 130.85 27.95 130.87" fill="none" stroke="#aaa" stroke-miterlimit="10" stroke-width=".5"/>
  <polyline points="39.84 144.25 39.86 144.24 39.88 144.24 45.4 142.04 50.93 139.85 50.98 139.81 50.99 139.75 50.99 134.21 50.99 128.67 50.97 128.6 50.91 128.57 44.97 127.42 39.02 126.27 38.95 126.29 38.9 126.36 38.92 126.43 38.99 126.48 44.89 127.62 50.79 128.75 50.79 134.22 50.79 139.68 45.29 141.86 39.8 144.05 39.74 144.1 39.74 144.18 39.78 144.23 39.84 144.25" fill="none" stroke="#aaa" stroke-miterlimit="10" stroke-width=".5"/>
  <polyline points="39.84 133.16 39.86 133.16 39.88 133.15 45.4 130.96 50.93 128.76 50.98 128.71 50.99 128.63 50.93 128.57 50.85 128.57 45.33 130.77 39.8 132.96 39.74 133.02 39.74 133.1 39.78 133.14 39.84 133.16" fill="none" stroke="#aaa" stroke-miterlimit="10" stroke-width=".5"/>
  <polyline points="6.7 126.75 6.72 126.75 6.73 126.74 12.24 124.55 17.74 122.36 18.13 122.44 18.52 122.51 18.59 122.5 18.64 122.43 18.62 122.35 18.56 122.31 18.15 122.23 17.75 122.15 17.72 122.15 17.69 122.16 12.17 124.36 6.66 126.55 6.6 126.61 6.6 126.68 6.64 126.73 6.7 126.75" fill="none" stroke="#aaa" stroke-miterlimit="10" stroke-width=".5"/>
  <polyline points="28 155.88 28.02 155.87 28.04 155.87 33.57 153.67 39.1 151.48 39.15 151.44 39.17 151.38 39.17 147.69 39.17 143.99 39.14 143.92 39.06 143.89 38.99 143.92 38.96 143.99 38.96 147.65 38.96 151.31 33.46 153.49 27.96 155.68 27.9 155.73 27.9 155.81 27.94 155.86 28 155.88" fill="none" stroke="#aaa" stroke-miterlimit="10" stroke-width=".5"/>
</svg>