<?xml version="1.0" encoding="utf-8" ?>
<svg baseProfile="full" height="222" version="1.1" width="222" xmlns="http://www.w3.org/2000/svg" xmlns:ev="http://www.w3.org/2001/xml-events" xmlns:xlink="http://www.w3.org/1999/xlink"><defs />
  <polyline fill="none" points ="42.85 195.47 41.15 190.41 37.33 186.82 33.95 186.31 30.58 187 29.18 187.52 28.17 187.64 31.9 183.98 35.64 180.34 32.8 186.81 30.15 193.34 29.73 195.27 30.66 196.88 33.17 198.23 35.45 199.96 39.68 205.4 42.77 211.61 45.61 205.73 49.46 200.5 51.7 198.61 54.25 197.19 55.5 196.29 55.72 194.79 54.27 190.55 52.48 186.42" stroke="#aaa" stroke-width="1"/>
  <polyline fill="none" points ="42.87 190.61 41.1 185.78 37.26 182.5 33.8 182.07 30.38 182.78 28.96 183.3 27.92 183.52 31.77 180.17 35.58 176.79 32.66 183.01 29.92 189.3 29.48 191.2 30.43 192.79 32.98 194.13 35.32 195.82 39.62 201 42.79 206.96 45.71 201.33 49.6 196.36 51.9 194.52 54.49 193.12 55.75 192.25 56.02 190.76 54.57 186.72 52.76 182.82" stroke="#aaa" stroke-width="1"/>
  <polyline fill="none" points ="42.94 185.42 41 180.82 37.02 177.92 33.36 177.59 29.75 178.36 28.27 178.9 27.16 179.29 31.25 176.31 35.28 173.23 32.1 179.25 29.13 185.38 28.65 187.31 29.65 188.9 32.36 190.27 34.89 191.95 39.43 196.87 42.86 202.64 45.99 197.22 50.08 192.51 52.57 190.68 55.31 189.27 56.64 188.41 56.99 186.91 55.51 183.07 53.61 179.39" stroke="#aaa" stroke-width="1"/>
  <polyline fill="none" points ="42.76 180.03 40.57 175.65 36.4 173.17 32.46 172.97 28.59 173.81 27.01 174.4 25.81 174.98 30.23 172.42 34.54 169.68 30.99 175.53 27.69 181.53 27.14 183.52 28.24 185.14 31.18 186.56 33.97 188.24 38.86 192.91 42.68 198.53 46.13 193.3 50.5 188.84 53.25 187.01 56.21 185.57 57.66 184.71 58.14 183.16 56.6 179.5 54.59 176.05" stroke="#aaa" stroke-width="1"/>
  <polyline fill="none" points ="42.74 174.55 40.24 170.42 35.88 168.35 31.62 168.28 27.46 169.22 25.73 169.86 24.46 170.65 29.25 168.54 33.89 166.12 29.91 171.82 26.23 177.7 25.62 179.77 26.82 181.43 30.03 182.91 33.14 184.6 38.42 189.04 42.65 194.5 46.46 189.45 51.15 185.23 54.2 183.39 57.43 181.93 59 181.05 59.63 179.45 58.05 175.92 55.91 172.67" stroke="#aaa" stroke-width="1"/>
  <polyline fill="none" points ="42.86 169.13 40.04 165.26 35.54 163.57 30.99 163.63 26.54 164.65 24.66 165.36 23.34 166.33 28.46 164.67 33.43 162.57 29.03 168.09 24.99 173.86 24.32 176 25.65 177.69 29.13 179.22 32.54 180.92 38.15 185.12 42.78 190.41 46.9 185.56 51.86 181.57 55.2 179.73 58.69 178.24 60.39 177.34 61.18 175.69 59.56 172.27 57.3 169.18" stroke="#aaa" stroke-width="1"/>
  <polyline fill="none" points ="42.75 163.89 39.63 160.3 35.03 158.95 30.06 159.13 25.2 160.2 22.87 160.98 20.75 162.08 25.01 160.72 29.17 159.02 25.41 164.31 22.26 169.95 22.24 172.32 24.09 173.83 28 175.37 31.83 177.09 37.72 181.05 42.67 186.15 47.04 181.51 52.2 177.77 55.88 175.93 59.7 174.45 61.77 173.53 63.22 171.88 62.49 168.66 60.79 165.74" stroke="#aaa" stroke-width="1"/>
  <polyline fill="none" points ="42.76 158.87 39.41 155.58 34.77 154.51 29.39 154.79 24.1 155.89 20.97 156.81 17.9 157.91 20.53 156.76 23.34 155.46 20.83 160.54 19.37 165.97 20.46 168.47 22.89 169.84 27.22 171.34 31.47 173.07 37.52 176.79 42.69 181.66 47.2 177.27 52.43 173.78 56.41 171.96 60.52 170.52 63.1 169.56 65.31 167.98 65.91 165.15 65.15 162.28" stroke="#aaa" stroke-width="1"/>
  <polyline fill="none" points ="42.74 154.02 39.24 151.05 34.65 150.2 29.08 150.56 23.61 151.67 20.09 152.66 16.62 153.8 18.36 152.96 20.69 151.91 18.73 156.78 18.03 161.92 19.63 164.4 22.32 165.75 26.84 167.23 31.29 168.92 37.38 172.39 42.67 177 47.25 172.88 52.48 169.63 56.59 167.86 60.82 166.46 63.65 165.48 66.18 163.96 67.32 161.42 67.03 158.59" stroke="#aaa" stroke-width="1"/>
  <polyline fill="none" points ="42.72 149.26 39.11 146.61 34.59 145.96 28.93 146.39 23.36 147.51 19.58 148.53 15.86 149.71 16.92 149.22 18.96 148.36 17.37 153 17.21 157.85 19.14 160.28 22.01 161.6 26.64 163.05 31.21 164.7 37.29 167.93 42.66 172.26 47.27 168.41 52.46 165.4 56.65 163.7 60.94 162.34 63.92 161.35 66.66 159.87 68.12 157.57 68.19 154.82" stroke="#aaa" stroke-width="1"/>
  <polyline fill="none" points ="42.68 144.51 38.97 142.21 34.54 141.74 28.81 142.24 23.17 143.36 19.2 144.41 15.29 145.64 15.76 145.49 17.61 144.8 16.33 149.23 16.56 153.77 18.76 156.13 21.76 157.44 26.48 158.87 31.14 160.47 37.19 163.46 42.61 167.49 47.25 163.92 52.4 161.14 56.64 159.51 60.97 158.19 64.07 157.21 66.96 155.77 68.64 153.67 69.01 150.99" stroke="#aaa" stroke-width="1"/>
  <polyline fill="none" points ="42.69 139.77 38.89 137.82 34.55 137.52 28.77 138.09 23.07 139.22 18.94 140.29 14.87 141.56 14.82 141.77 16.56 141.25 15.52 145.45 16.08 149.68 18.49 151.98 21.61 153.28 26.39 154.68 31.13 156.23 37.16 158.99 42.63 162.73 47.3 159.42 52.41 156.87 56.69 155.32 61.06 154.04 64.25 153.05 67.27 151.64 69.1 149.71 69.72 147.11" stroke="#aaa" stroke-width="1"/>
  <polyline fill="none" points ="42.77 135.05 38.89 133.46 34.63 133.32 28.83 133.95 23.09 135.08 18.83 136.17 14.65 137.5 14.11 138.03 15.81 137.69 14.97 141.67 15.79 145.59 18.37 147.82 21.58 149.1 26.41 150.49 31.21 151.97 37.19 154.51 42.71 157.94 47.41 154.91 52.48 152.57 56.81 151.1 61.2 149.86 64.48 148.87 67.58 147.49 69.52 145.67 70.33 143.15" stroke="#aaa" stroke-width="1"/>
  <polyline fill="none" points ="42.79 130.41 38.88 129.18 34.72 129.18 28.93 129.87 23.21 131 18.88 132.09 14.63 133.46 13.67 134.25 15.37 134.14 14.69 137.88 15.69 141.47 18.4 143.62 21.66 144.88 26.49 146.23 31.32 147.65 37.22 149.96 42.74 153.07 47.45 150.32 52.47 148.2 56.82 146.81 61.21 145.61 64.53 144.63 67.68 143.26 69.66 141.54 70.6 139.1" stroke="#aaa" stroke-width="1"/>
  <polyline fill="none" points ="42.78 125.92 38.91 125.05 34.9 125.17 29.21 125.9 23.59 127.01 19.27 128.09 15.04 129.47 13.78 130.4 15.44 130.59 14.91 134.05 16.05 137.3 18.84 139.35 22.1 140.56 26.87 141.87 31.64 143.2 37.34 145.27 42.74 148.05 47.36 145.59 52.25 143.69 56.55 142.39 60.89 141.25 64.2 140.28 67.36 138.93 69.35 137.3 70.36 134.95" stroke="#aaa" stroke-width="1"/>
  <polyline fill="none" points ="42.74 121.66 39.01 121.12 35.22 121.34 29.8 122.09 24.43 123.15 20.27 124.2 16.21 125.57 14.88 126.52 16.38 127.03 15.92 130.16 17.08 133.05 19.83 134.96 22.99 136.11 27.59 137.34 32.18 138.58 37.56 140.39 42.7 142.81 47.14 140.65 51.79 138.98 55.97 137.8 60.16 136.72 63.38 135.79 66.45 134.48 68.35 132.94 69.31 130.71" stroke="#aaa" stroke-width="1"/>
  <polyline fill="none" points ="42.7 117.57 39.2 117.35 35.68 117.65 30.62 118.4 25.61 119.41 21.7 120.4 17.91 121.72 16.64 122.73 17.99 123.48 17.55 126.22 18.65 128.73 21.29 130.48 24.28 131.55 28.6 132.69 32.94 133.81 37.9 135.35 42.67 137.39 46.85 135.55 51.19 134.13 55.16 133.07 59.14 132.07 62.19 131.17 65.09 129.92 66.83 128.48 67.65 126.4" stroke="#aaa" stroke-width="1"/>
  <polyline fill="none" points ="42.66 113.54 39.42 113.64 36.19 114.01 31.52 114.76 26.89 115.7 23.26 116.62 19.75 117.9 18.56 118.97 19.77 119.92 19.36 122.28 20.42 124.4 22.92 125.97 25.74 126.95 29.76 128 33.79 128.99 38.28 130.26 42.65 131.91 46.54 130.4 50.54 129.22 54.29 128.28 58.03 127.36 60.9 126.51 63.62 125.31 65.18 123.98 65.82 122.05" stroke="#aaa" stroke-width="1"/>
  <polyline fill="none" points ="42.66 109.43 38.87 109.8 35.09 110.31 30.84 111.03 26.63 111.94 23.67 112.78 20.87 114.05 20.17 115.36 21.39 116.37 21.04 118.37 22.07 120.09 24.49 121.5 27.16 122.41 30.91 123.36 34.68 124.24 38.71 125.25 42.66 126.52 46.32 125.32 50.06 124.36 53.66 123.52 57.25 122.64 59.96 121.81 62.51 120.61 63.84 119.3 64.11 117.48" stroke="#aaa" stroke-width="1"/>
  <polyline fill="none" points ="42.66 105.12 38.65 105.78 34.64 106.44 30.67 107.17 26.73 108.06 24.13 108.86 21.75 110.13 21.33 111.64 22.53 112.82 22.25 114.49 23.29 115.86 25.71 117.13 28.31 117.98 31.88 118.87 35.47 119.65 39.08 120.43 42.66 121.32 46.16 120.43 49.7 119.66 53.27 118.89 56.81 118.02 59.43 117.18 61.85 115.94 62.91 114.61 62.65 112.97" stroke="#aaa" stroke-width="1"/>
  <polyline fill="none" points ="42.61 100.59 38.51 101.56 34.38 102.4 30.55 103.16 26.75 104.04 24.32 104.82 22.16 106.13 21.9 107.84 23.08 109.26 22.92 110.67 24 111.7 26.51 112.86 29.17 113.69 32.66 114.53 36.18 115.23 39.39 115.8 42.61 116.34 45.79 115.8 48.97 115.23 52.5 114.53 56 113.69 58.65 112.86 61.15 111.7 62.2 110.64 61.91 109.26 62.04 109.16 62.16 109.06 62.27 108.96 62.38 108.86 62.48 108.76 62.57 108.66 62.66 108.57 62.75 108.47" stroke="#aaa" stroke-width="1"/>
  <polyline fill="none" points ="42.54 95.91 38.4 97.21 34.17 98.23 30.43 99.04 26.71 99.93 24.43 100.71 22.48 102.08 22.49 104.07 23.8 105.71 23.7 106.84 24.84 107.59 27.65 108.67 30.56 109.48 34.06 110.28 37.59 110.94 40.06 111.3 42.54 111.5 45 111.3 47.46 110.94 50.99 110.28 54.5 109.48 57.4 108.67 60.19 107.59 61.31 106.82 61.07 105.71 61.32 105.47 61.57 105.22 61.78 105 61.98 104.76 62.15 104.55 62.31 104.33 62.43 104.13 62.55 103.92" stroke="#aaa" stroke-width="1"/>
  <polyline fill="none" points ="42.54 91.17 38.44 92.81 34.2 94.01 30.52 94.88 26.86 95.79 24.67 96.57 22.89 98 23.19 100.28 24.68 102.15 24.16 102.88 25.12 103.51 27.82 104.53 30.6 105.32 34.07 106.11 37.58 106.7 40.08 106.93 42.56 106.74 45 106.92 47.47 106.7 50.98 106.11 54.46 105.32 57.23 104.53 59.9 103.51 60.85 102.84 60.19 102.15 60.55 101.79 60.89 101.42 61.18 101.09 61.44 100.75 61.66 100.45 61.85 100.13 62 99.85 62.13 99.57" stroke="#aaa" stroke-width="1"/>
  <polyline fill="none" points ="42.55 86.42 38.51 88.38 34.24 89.79 30.63 90.71 27.02 91.64 24.92 92.42 23.33 93.92 23.91 96.48 25.6 98.6 24.56 98.78 25.34 99.43 27.91 100.4 30.56 101.17 34.03 101.95 37.55 102.47 40.11 102.56 42.57 101.98 45 102.56 47.53 102.47 51.05 101.95 54.52 101.17 57.16 100.41 59.71 99.43 60.38 98.74 59.29 98.6 59.74 98.13 60.17 97.65 60.51 97.23 60.84 96.79 61.1 96.42 61.33 96.03 61.51 95.69 61.65 95.34" stroke="#aaa" stroke-width="1"/>
  <polyline fill="none" points ="42.57 81.66 38.58 83.94 34.29 85.55 30.74 86.54 27.2 87.48 25.19 88.28 23.8 89.84 24.71 92.67 26.6 95.05 25.48 94.89 25.58 95.35 28.02 96.28 30.53 97.02 34 97.79 37.52 98.24 40.18 98.19 42.6 97.23 44.98 98.19 47.6 98.24 51.12 97.79 54.58 97.02 57.08 96.28 59.51 95.35 59.5 94.89 58.33 95.05 58.83 94.5 59.32 93.95 59.72 93.46 60.1 92.96 60.4 92.53 60.68 92.09 60.88 91.71 61.06 91.32" stroke="#aaa" stroke-width="1"/>
  <polyline fill="none" points ="42.59 76.88 38.66 79.46 34.32 81.3 30.83 82.34 27.35 83.31 25.42 84.12 24.26 85.75 25.5 88.85 27.64 91.49 26.37 91.15 25.81 91.28 28.12 92.17 30.49 92.88 33.96 93.66 37.49 94.04 40.26 93.83 42.63 92.51 44.96 93.83 47.68 94.04 51.21 93.65 54.68 92.88 57.04 92.18 59.33 91.28 58.67 91.16 57.35 91.49 57.9 90.89 58.44 90.28 58.88 89.74 59.31 89.2 59.65 88.73 59.98 88.24 60.23 87.83 60.46 87.41" stroke="#aaa" stroke-width="1"/>
  <polyline fill="none" points ="42.55 72 38.62 74.9 34.19 76.97 30.73 78.07 27.26 79.07 25.39 79.92 24.45 81.63 26.06 85.01 28.47 87.94 26.96 87.43 25.84 87.25 28.02 88.12 30.28 88.81 33.78 89.59 37.35 89.91 40.25 89.54 42.6 87.89 44.89 89.54 47.76 89.91 51.32 89.59 54.82 88.81 57.06 88.12 59.23 87.25 58.02 87.43 56.45 87.94 57.04 87.29 57.61 86.64 58.1 86.06 58.58 85.48 58.97 84.97 59.34 84.46 59.64 84.01 59.92 83.56" stroke="#aaa" stroke-width="1"/>
  <polyline fill="none" points ="42.66 66.94 38.66 70.17 34.07 72.49 30.55 73.68 27.01 74.73 25.14 75.63 24.37 77.44 26.34 81.15 29.07 84.39 27.26 83.7 25.64 83.28 27.76 84.15 29.95 84.84 33.56 85.65 37.24 85.93 40.33 85.4 42.7 83.44 45.02 85.4 48.07 85.93 51.75 85.65 55.35 84.84 57.53 84.15 59.64 83.28 57.93 83.7 56.06 84.39 56.7 83.69 57.32 82.99 57.86 82.38 58.38 81.75 58.82 81.21 59.24 80.65 59.59 80.17 59.92 79.68" stroke="#aaa" stroke-width="1"/>
  <polyline fill="none" points ="42.69 61.65 38.51 65.24 33.64 67.83 29.95 69.12 26.22 70.26 24.29 71.23 23.62 73.18 25.94 77.25 29.02 80.83 26.89 79.99 24.85 79.39 26.99 80.3 29.22 81.01 33.03 81.87 36.92 82.14 40.25 81.46 42.74 79.21 45.16 81.47 48.46 82.14 52.35 81.87 56.15 81.01 58.37 80.3 60.5 79.39 58.38 79.98 56.18 80.83 56.87 80.08 57.56 79.33 58.15 78.66 58.72 77.99 59.21 77.4 59.68 76.8 60.08 76.28 60.45 75.75" stroke="#aaa" stroke-width="1"/>
  <polyline fill="none" points ="42.7 56.21 38.23 60.17 32.99 63.04 29.04 64.45 25.06 65.68 23.01 66.75 22.39 68.85 25.04 73.32 28.49 77.28 26.04 76.29 23.64 75.56 25.88 76.53 28.2 77.28 32.29 78.2 36.47 78.47 40.1 77.68 42.75 75.15 45.34 77.68 48.93 78.47 53.11 78.2 57.19 77.28 59.51 76.53 61.73 75.56 59.25 76.29 56.74 77.28 57.5 76.47 58.25 75.65 58.89 74.92 59.53 74.19 60.07 73.55 60.6 72.89 61.04 72.32 61.46 71.75" stroke="#aaa" stroke-width="1"/>
  <polyline fill="none" points ="42.7 50.73 37.93 55.07 32.3 58.22 28.07 59.75 23.8 61.08 21.63 62.24 21.05 64.52 24.05 69.39 27.87 73.72 25.1 72.59 22.34 71.73 24.68 72.77 27.12 73.57 31.51 74.56 35.99 74.83 39.93 73.92 42.76 71.12 45.52 73.93 49.42 74.83 53.9 74.56 58.29 73.57 60.72 72.77 63.04 71.73 60.2 72.59 57.37 73.72 58.19 72.85 59.01 71.96 59.72 71.18 60.42 70.38 61.01 69.69 61.6 68.98 62.08 68.36 62.56 67.74" stroke="#aaa" stroke-width="1"/>
  <polyline fill="none" points ="42.7 45.36 37.69 50.07 31.72 53.49 27.28 55.12 22.78 56.55 20.51 57.8 20.03 60.22 23.42 65.48 27.64 70.17 24.5 68.88 21.32 67.87 23.7 68.96 26.2 69.79 30.83 70.84 35.57 71.11 39.78 70.06 42.76 66.98 45.67 70.07 49.84 71.11 54.57 70.84 59.2 69.79 61.69 68.97 64.06 67.87 60.81 68.87 57.6 70.17 58.49 69.23 59.38 68.29 60.14 67.46 60.9 66.61 61.56 65.87 62.19 65.11 62.73 64.45 63.25 63.78" stroke="#aaa" stroke-width="1"/>
  <polyline fill="none" points ="42.69 40.22 37.57 45.26 31.4 48.94 26.87 50.67 22.27 52.16 20.01 53.5 19.77 56.01 23.68 61.6 28.36 66.62 24.71 65.11 20.98 63.93 23.24 65.05 25.67 65.88 30.42 66.96 35.29 67.19 39.71 65.98 42.75 62.62 45.72 65.99 50.1 67.19 54.96 66.96 59.72 65.88 62.13 65.05 64.38 63.93 60.58 65.1 56.87 66.62 57.82 65.64 58.77 64.67 59.6 63.79 60.42 62.91 61.13 62.14 61.83 61.35 62.43 60.66 63.01 59.96" stroke="#aaa" stroke-width="1"/>
  <polyline fill="none" points ="42.62 35.42 37.62 40.75 31.47 44.68 27.15 46.44 22.76 47.98 20.82 49.52 21.4 51.91 26.59 57.73 32.32 63.06 27.43 61.21 22.41 59.86 23.9 60.98 25.91 61.75 30.5 62.84 35.21 63 39.72 61.55 42.68 57.9 45.57 61.56 50.04 63 54.75 62.84 59.33 61.75 61.34 60.99 62.82 59.86 57.73 61.21 52.78 63.06 53.85 62.1 54.92 61.13 55.87 60.26 56.82 59.39 57.66 58.61 58.48 57.82 59.21 57.12 59.93 56.41" stroke="#aaa" stroke-width="1"/>
  <polyline fill="none" points ="42.55 31.04 37.84 36.58 31.9 40.75 27.8 42.53 23.6 44.05 21.78 45.63 22.44 47.96 27.58 53.95 33.21 59.51 28.15 57.36 22.93 55.65 24.26 56.65 26.17 57.37 30.67 58.41 35.27 58.47 39.81 56.73 42.61 52.78 45.34 56.73 49.84 58.47 54.44 58.41 58.93 57.37 60.84 56.65 62.15 55.65 56.87 57.36 51.75 59.51 52.74 58.56 53.74 57.6 54.63 56.73 55.51 55.87 56.31 55.09 57.09 54.3 57.79 53.6 58.47 52.89" stroke="#aaa" stroke-width="1"/>
  <polyline fill="none" points ="42.63 26.99 38.39 32.7 32.83 37.1 29.06 38.88 25.16 40.33 23.45 41.87 24.03 44.14 28.72 50.23 33.88 55.95 29.06 53.48 24.1 51.33 25.37 52.13 27.14 52.78 31.4 53.73 35.76 53.66 40.19 51.55 42.7 47.32 45.13 51.55 49.51 53.66 53.86 53.73 58.12 52.78 59.89 52.13 61.15 51.33 56.12 53.48 51.24 55.95 52.09 55.03 52.95 54.1 53.72 53.26 54.49 52.41 55.19 51.65 55.87 50.88 56.49 50.19 57.1 49.5" stroke="#aaa" stroke-width="1"/>
  <polyline fill="none" points ="42.58 23.09 38.89 28.93 33.8 33.57 30.43 35.33 26.88 36.7 25.3 38.19 25.81 40.36 29.97 46.53 34.56 52.4 30.13 49.58 25.6 46.95 26.79 47.52 28.39 48.1 32.31 48.95 36.3 48.74 40.5 46.18 42.66 41.71 44.75 46.18 48.9 48.74 52.88 48.95 56.79 48.1 58.39 47.52 59.57 46.95 54.96 49.58 50.47 52.4 51.18 51.52 51.88 50.64 52.53 49.84 53.17 49.03 53.75 48.29 54.33 47.56 54.85 46.89 55.36 46.22" stroke="#aaa" stroke-width="1"/>
  <polyline fill="none" points ="42.52 19.1 39.29 25.06 34.64 29.96 31.63 31.71 28.4 33.01 26.94 34.47 27.38 36.55 31.07 42.82 35.16 48.85 31.08 45.68 26.93 42.6 28.02 42.95 29.5 43.48 33.1 44.24 36.75 43.89 40.72 40.89 42.6 36.2 44.41 40.88 48.33 43.89 51.97 44.24 55.57 43.48 57.04 42.95 58.11 42.6 53.9 45.68 49.75 48.85 50.33 48.02 50.91 47.19 51.44 46.43 51.97 45.66 52.45 44.96 52.93 44.25 53.37 43.61 53.8 42.96" stroke="#aaa" stroke-width="1"/>
  <polyline fill="none" points ="42.53 14.8 39.59 20.94 35.21 26.1 32.43 27.86 29.4 29.14 28.02 30.59 28.41 32.63 31.8 39.06 35.57 45.29 31.69 41.81 27.8 38.36 28.81 38.54 30.22 39.05 33.64 39.75 37.08 39.29 40.9 35.9 42.61 30.99 44.24 35.89 48.01 39.29 51.44 39.75 54.85 39.05 56.26 38.54 57.25 38.36 53.29 41.81 49.35 45.29 49.85 44.5 50.34 43.7 50.8 42.96 51.26 42.22 51.68 41.54 52.09 40.85 52.48 40.22 52.86 39.59" stroke="#aaa" stroke-width="1"/>
  <polyline fill="none" points ="42.53 10.1 39.68 16.48 35.35 21.91 32.63 23.72 29.63 25.01 28.26 26.5 28.64 28.57 31.95 35.25 35.63 41.74 31.78 38 27.93 34.26 28.92 34.35 30.33 34.87 33.73 35.55 37.13 35.02 40.95 31.33 42.61 26.19 44.2 31.32 47.96 35.02 51.36 35.55 54.74 34.87 56.16 34.35 57.12 34.26 53.21 38 49.29 41.74 49.76 40.94 50.22 40.15 50.65 39.4 51.08 38.66 51.48 37.97 51.87 37.29 52.24 36.65 52.6 36.01" stroke="#aaa" stroke-width="1"/>
</svg>