<?xml version="1.0" encoding="UTF-8"?>
<svg id="Ebene_1" xmlns="http://www.w3.org/2000/svg" width="222" height="222" viewBox="0 0 222 222">
  <polyline points="173.93 116.31 183.46 132.83 192.99 149.35 202.32 129.84 211.64 110.34 192.79 113.32 173.93 116.31" fill="none" stroke="#aaa" stroke-miterlimit="10" stroke-width=".5"/>
  <polyline points="193 149.68 192.95 149.66 192.91 149.63 183.3 132.95 173.68 116.28 173.66 116.23 173.67 116.19 173.71 116.15 173.75 116.13 192.78 113.11 211.81 110.1 211.86 110.11 211.91 110.14 211.93 110.19 211.92 110.25 202.51 129.93 193.1 149.62 193.06 149.66 193.01 149.68 193 149.68 193 149.68" fill="none" stroke="#aaa" stroke-miterlimit="10" stroke-width=".5"/>
  <polyline points="193 149.68 192.98 149.67 192.96 149.67 188.48 147.51 184 145.36 183.98 145.34 183.96 145.32 174.34 128.65 164.72 111.98 164.71 111.91 164.74 111.85 164.79 111.82 164.86 111.83 169.34 113.98 173.81 116.14 173.87 116.2 173.86 116.27 173.8 116.33 173.72 116.32 169.4 114.24 165.07 112.16 174.6 128.67 184.12 145.19 188.59 147.33 193.05 149.48 193.1 149.54 193.1 149.62 193.06 149.66 193 149.68" fill="none" stroke="#aaa" stroke-miterlimit="10" stroke-width=".5"/>
  <polyline points="164.81 112.03 164.75 112 164.71 111.94 164.73 111.86 164.8 111.82 183.83 108.81 202.85 105.79 202.88 105.79 202.91 105.8 207.39 107.96 211.87 110.11 211.92 110.17 211.92 110.25 211.86 110.3 211.78 110.3 207.32 108.15 202.85 106 183.84 109.01 164.83 112.03 164.82 112.03 164.81 112.03" fill="none" stroke="#aaa" stroke-miterlimit="10" stroke-width=".5"/>
  <polyline points="190.58 124.24 191.72 126.24 192.87 128.23 194 125.88 195.12 123.52 192.85 123.88 190.58 124.24" fill="none" stroke="#aaa" stroke-miterlimit="10" stroke-width=".5"/>
  <polyline points="192.88 128.55 192.83 128.54 192.79 128.5 191.56 126.36 190.32 124.22 190.31 124.17 190.32 124.12 190.35 124.08 190.39 124.06 192.84 123.68 195.28 123.29 195.34 123.29 195.38 123.33 195.4 123.38 195.39 123.44 194.19 125.96 192.98 128.49 192.94 128.54 192.89 128.55 192.88 128.55 192.88 128.55" fill="none" stroke="#aaa" stroke-miterlimit="10" stroke-width=".5"/>
</svg>