<?xml version="1.0" encoding="utf-8" ?>
<svg baseProfile="full" height="222" version="1.1" width="222" xmlns="http://www.w3.org/2000/svg" xmlns:ev="http://www.w3.org/2001/xml-events" xmlns:xlink="http://www.w3.org/1999/xlink"><defs />
  <polyline fill="none" points ="48.83 189.77 47.1 184.12 42.95 180.09 39.12 179.62 35.3 180.39 33.3 180.96 31.66 180.47 34.46 175.15 37.82 170.12 35.59 178.39 33.89 186.78 34.11 189.17 35.88 190.7 39 192.22 41.56 194.56 45.95 202.43 48.74 211.03 48.9 210.38 49.08 209.74 49.25 209.11 49.42 208.5 49.59 207.9 49.76 207.32 49.93 206.75 50.1 206.2" stroke="#aaa" stroke-width="1"/>
  <polyline fill="none" points ="48.84 185.14 47.05 179.75 42.89 176.06 38.99 175.66 35.12 176.45 33.13 177.02 31.45 176.65 34.36 171.69 37.77 167.02 35.46 174.95 33.7 182.99 33.91 185.35 35.68 186.84 38.82 188.33 41.45 190.6 45.9 198.09 48.75 206.35 48.93 205.68 49.12 205.01 49.31 204.37 49.5 203.73 49.69 203.13 49.88 202.52 50.07 201.95 50.26 201.37" stroke="#aaa" stroke-width="1"/>
  <polyline fill="none" points ="48.83 180.62 47 175.5 42.87 172.13 38.97 171.79 35.11 172.58 33.14 173.14 31.45 172.88 34.41 168.25 37.83 163.92 35.48 171.48 33.68 179.17 33.88 181.47 35.63 182.91 38.76 184.36 41.41 186.56 45.86 193.65 48.74 201.55 48.94 200.86 49.14 200.17 49.35 199.52 49.55 198.87 49.76 198.25 49.97 197.64 50.17 197.06 50.38 196.48" stroke="#aaa" stroke-width="1"/>
  <polyline fill="none" points ="48.78 176.27 46.97 171.42 42.94 168.32 39.11 168.03 35.33 168.8 33.42 169.35 31.76 169.16 34.69 164.85 38.05 160.82 35.72 167.99 33.93 175.29 34.12 177.51 35.82 178.88 38.88 180.28 41.49 182.38 45.84 189.08 48.69 196.58 48.9 195.88 49.12 195.18 49.33 194.52 49.55 193.87 49.77 193.25 49.99 192.63 50.2 192.04 50.42 191.46" stroke="#aaa" stroke-width="1"/>
  <polyline fill="none" points ="48.7 172.04 46.94 167.48 43.08 164.61 39.39 164.36 35.75 165.1 33.92 165.63 32.31 165.48 35.16 161.47 38.39 157.72 36.14 164.48 34.39 171.37 34.58 173.48 36.21 174.78 39.14 176.11 41.67 178.11 45.86 184.4 48.61 191.48 48.83 190.77 49.06 190.07 49.28 189.41 49.5 188.75 49.73 188.13 49.95 187.51 50.18 186.93 50.41 186.36" stroke="#aaa" stroke-width="1"/>
  <polyline fill="none" points ="48.62 167.84 46.91 163.57 43.24 160.93 39.7 160.71 36.22 161.42 34.48 161.92 32.94 161.81 35.68 158.09 38.77 154.61 36.6 160.96 34.92 167.43 35.1 169.44 36.65 170.67 39.45 171.93 41.88 173.81 45.88 179.7 48.53 186.34 48.75 185.64 48.98 184.94 49.21 184.28 49.44 183.62 49.67 183.01 49.9 182.4 50.13 181.83 50.37 181.26" stroke="#aaa" stroke-width="1"/>
  <polyline fill="none" points ="48.55 163.55 46.88 159.57 43.35 157.18 39.94 156.99 36.58 157.68 34.91 158.17 33.42 158.12 36.09 154.7 39.07 151.51 36.95 157.46 35.3 163.53 35.46 165.44 36.95 166.6 39.65 167.8 42.01 169.58 45.88 175.07 48.46 181.31 48.69 180.61 48.93 179.91 49.16 179.26 49.4 178.61 49.64 178 49.88 177.4 50.12 176.84 50.36 176.29" stroke="#aaa" stroke-width="1"/>
  <polyline fill="none" points ="48.52 159.06 46.82 155.36 43.38 153.26 40.01 153.14 36.69 153.83 35.06 154.3 33.57 154.35 36.25 151.28 39.18 148.41 37.02 153.99 35.33 159.7 35.49 161.54 36.95 162.66 39.62 163.82 41.99 165.51 45.83 170.61 48.43 176.48 48.68 175.78 48.93 175.09 49.18 174.44 49.44 173.8 49.69 173.21 49.95 172.62 50.2 172.07 50.46 171.52" stroke="#aaa" stroke-width="1"/>
  <polyline fill="none" points ="48.55 154.3 46.72 150.89 43.29 149.14 39.84 149.1 36.44 149.82 34.81 150.3 33.27 150.49 36.06 147.82 39.04 145.31 36.74 150.55 34.91 155.96 35.07 157.79 36.54 158.87 39.28 160.02 41.77 161.66 45.72 166.38 48.46 171.92 48.74 171.23 49.02 170.54 49.3 169.89 49.59 169.26 49.87 168.67 50.16 168.09 50.44 167.55 50.73 167.02" stroke="#aaa" stroke-width="1"/>
  <polyline fill="none" points ="48.66 149.29 46.59 146.18 43.1 144.82 39.45 144.88 35.87 145.65 34.17 146.16 32.54 146.54 35.57 144.33 38.69 142.21 36.12 147.15 34.04 152.31 34.2 154.16 35.72 155.24 38.65 156.41 41.36 158.01 45.54 162.37 48.57 167.63 48.88 166.94 49.22 166.25 49.54 165.62 49.87 164.99 50.2 164.41 50.53 163.83 50.86 163.31 51.2 162.78" stroke="#aaa" stroke-width="1"/>
  <polyline fill="none" points ="48.61 144.1 46.21 141.32 42.63 140.34 38.7 140.54 34.85 141.37 33.04 141.93 31.29 142.52 34.64 140.84 37.99 139.1 35.04 143.78 32.63 148.72 32.78 150.63 34.39 151.71 37.57 152.92 40.59 154.5 45.11 158.52 48.52 163.53 48.91 162.82 49.31 162.12 49.7 161.48 50.11 160.85 50.5 160.26 50.91 159.69 51.31 159.16 51.72 158.64" stroke="#aaa" stroke-width="1"/>
  <polyline fill="none" points ="48.7 138.85 45.92 136.46 42.24 135.82 37.99 136.15 33.81 137.06 31.8 137.68 29.9 138.48 33.5 137.34 37.03 136 33.74 140.4 31.04 145.16 31.26 147.14 33.01 148.22 36.51 149.48 39.88 151.05 44.76 154.73 48.62 159.49 49.08 158.79 49.56 158.09 50.03 157.45 50.51 156.83 50.98 156.25 51.47 155.68 51.95 155.17 52.44 154.66" stroke="#aaa" stroke-width="1"/>
  <polyline fill="none" points ="49.02 133.66 45.85 131.71 42.06 131.35 37.24 131.82 32.5 132.79 29.63 133.56 26.8 134.47 29.02 133.77 31.46 132.9 29.14 137.05 27.9 141.57 29.22 143.65 31.54 144.69 35.58 145.96 39.51 147.54 44.69 150.9 48.95 155.39 49.47 154.7 50.02 154.02 50.56 153.4 51.11 152.79 51.65 152.23 52.21 151.69 52.76 151.19 53.32 150.7" stroke="#aaa" stroke-width="1"/>
  <polyline fill="none" points ="49.44 128.64 45.98 127.15 42.13 127.02 36.97 127.6 31.87 128.62 28.52 129.48 25.23 130.52 26.65 130.36 28.77 129.8 26.84 133.69 26.27 137.92 28.13 140 30.78 141.06 35.15 142.34 39.43 143.89 44.81 146.94 49.38 151.11 49.98 150.42 50.61 149.75 51.23 149.14 51.87 148.54 52.5 147.99 53.14 147.47 53.78 146.98 54.43 146.51" stroke="#aaa" stroke-width="1"/>
  <polyline fill="none" points ="49.29 123.75 45.61 122.73 41.74 122.79 36.34 123.47 31 124.53 27.31 125.44 23.71 126.61 24.51 126.99 26.5 126.7 24.82 130.32 24.68 134.23 26.9 136.28 29.78 137.35 34.39 138.64 38.93 140.15 44.42 142.88 49.24 146.69 49.94 146.01 50.66 145.35 51.37 144.75 52.11 144.17 52.84 143.63 53.58 143.12 54.32 142.65 55.07 142.2" stroke="#aaa" stroke-width="1"/>
  <polyline fill="none" points ="49.25 118.86 45.41 118.32 41.5 118.56 35.92 119.34 30.38 120.43 26.42 121.41 22.56 122.7 22.74 123.59 24.72 123.59 23.19 126.96 23.37 130.54 25.88 132.55 28.96 133.65 33.78 134.94 38.55 136.4 44.15 138.85 49.22 142.28 50.03 141.6 50.87 140.95 51.72 140.36 52.58 139.79 53.44 139.27 54.31 138.77 55.18 138.32 56.06 137.89" stroke="#aaa" stroke-width="1"/>
  <polyline fill="none" points ="49.24 113.89 45.26 113.85 41.27 114.26 35.51 115.15 29.79 116.29 25.6 117.32 21.55 118.76 21.29 120.1 23.34 120.49 21.83 123.58 22.18 126.88 24.92 128.87 28.16 129.99 33.2 131.31 38.21 132.72 43.92 134.91 49.23 137.95 50.2 137.27 51.2 136.63 52.21 136.04 53.25 135.49 54.28 134.98 55.33 134.5 56.37 134.06 57.43 133.64" stroke="#aaa" stroke-width="1"/>
  <polyline fill="none" points ="49.14 108.87 44.28 109.29 39.44 109.93 33.56 110.9 27.71 112.11 23.74 113.19 19.98 114.81 20.05 116.6 22.26 117.39 20.67 120.18 21.09 123.23 24.04 125.22 27.44 126.36 32.69 127.71 37.93 129.08 43.69 131.01 49.15 133.68 50.33 132.99 51.53 132.35 52.76 131.76 54.02 131.21 55.29 130.71 56.57 130.24 57.86 129.8 59.16 129.4" stroke="#aaa" stroke-width="1"/>
  <polyline fill="none" points ="49.07 103.9 43.36 104.75 37.63 105.64 31.63 106.69 25.68 107.97 21.92 109.07 18.48 110.87 18.91 113.09 21.29 114.29 19.66 116.78 20.17 119.57 23.34 121.53 26.91 122.7 32.35 124.06 37.8 125.39 43.55 127.08 49.08 129.34 50.47 128.67 51.88 128.06 53.36 127.49 54.86 126.96 56.4 126.47 57.95 126.01 59.51 125.58 61.08 125.18" stroke="#aaa" stroke-width="1"/>
  <polyline fill="none" points ="48.94 99.14 42.81 100.4 36.65 101.51 30.6 102.63 24.59 103.96 20.91 105.08 17.64 107.01 18.21 109.59 20.71 111.19 19.04 113.34 19.67 115.83 23.04 117.74 26.75 118.92 32.3 120.28 37.87 121.54 43.47 122.96 48.95 124.79 50.51 124.18 52.1 123.64 53.82 123.11 55.55 122.62 57.36 122.16 59.18 121.71 61.02 121.29 62.85 120.87" stroke="#aaa" stroke-width="1"/>
  <polyline fill="none" points ="48.75 94.73 42.51 96.36 36.2 97.66 30.24 98.83 24.33 100.15 20.77 101.27 17.69 103.27 18.32 106.12 20.84 108.08 19.2 109.84 19.97 111.97 23.47 113.76 27.25 114.92 32.76 116.23 38.31 117.41 43.56 118.54 48.75 119.87 50.42 119.39 52.09 118.96 53.99 118.51 55.9 118.08 57.93 117.65 59.97 117.22 62.03 116.8 64.08 116.36" stroke="#aaa" stroke-width="1"/>
  <polyline fill="none" points ="48.48 90.78 42.44 92.72 36.27 94.18 30.64 95.34 25.05 96.62 21.75 97.69 19 99.69 19.78 102.74 22.28 104.98 20.66 106.23 21.47 107.94 24.99 109.56 28.72 110.66 33.99 111.87 39.3 112.91 43.9 113.71 48.49 114.48 50.11 114.2 51.73 113.93 53.72 113.59 55.71 113.24 57.9 112.85 60.09 112.44 62.32 112 64.53 111.53" stroke="#aaa" stroke-width="1"/>
  <polyline fill="none" points ="48.18 87.28 42.72 89.48 37.05 91.05 32 92.18 26.98 93.35 24.09 94.34 21.82 96.27 22.93 99.45 25.47 101.88 23.82 102.48 24.55 103.77 28.06 105.13 31.7 106.13 36.54 107.19 41.42 108.05 44.8 108.49 48.2 108.62 49.43 108.65 50.66 108.58 52.56 108.38 54.47 108.12 56.75 107.75 59.03 107.34 61.39 106.87 63.73 106.35" stroke="#aaa" stroke-width="1"/>
  <polyline fill="none" points ="47.86 84.05 43.16 86.46 38.15 88.13 33.85 89.2 29.55 90.25 27.16 91.13 25.51 92.95 26.94 96.18 29.5 98.78 27.88 98.76 27.48 99.49 30.35 100.61 33.33 101.43 37.57 102.35 41.86 102.97 44.93 103.11 47.9 102.48 49 102.92 50.19 103.08 51.98 103.11 53.77 102.98 55.89 102.73 58 102.38 60.12 101.96 62.23 101.48" stroke="#aaa" stroke-width="1"/>
  <polyline fill="none" points ="47.57 80.83 43.68 83.44 39.36 85.24 35.84 86.23 32.32 87.16 30.45 87.95 29.5 89.63 31.33 92.91 33.95 95.68 32.13 95.25 30.59 95.21 32.77 96.08 35.02 96.73 38.65 97.5 42.34 97.88 45.19 97.67 47.64 96.32 48.52 97.14 49.65 97.59 51.22 97.85 52.82 97.88 54.68 97.76 56.52 97.5 58.33 97.16 60.13 96.73" stroke="#aaa" stroke-width="1"/>
  <polyline fill="none" points ="47.48 77.39 44.36 80.18 40.66 82.15 37.88 83.1 35.08 83.93 33.71 84.72 33.6 86.23 36.12 89.58 39.09 92.57 36.52 91.67 33.91 91.01 35.28 91.69 36.78 92.16 39.82 92.81 42.93 92.98 45.64 92.35 47.57 90.4 48.27 91.53 49.34 92.33 50.71 92.8 52.15 92.99 53.76 92.97 55.36 92.79 56.84 92.5 58.3 92.13" stroke="#aaa" stroke-width="1"/>
  <polyline fill="none" points ="47.19 73.5 44.59 76.51 41.29 78.72 38.94 79.66 36.55 80.43 35.39 81.26 35.49 82.67 37.87 86.2 40.63 89.47 37.89 88.15 35.1 86.97 36.19 87.46 37.43 87.86 40.2 88.43 43.02 88.43 45.71 87.35 47.3 84.95 47.89 86.34 48.9 87.45 50.12 88.11 51.46 88.44 52.9 88.52 54.34 88.41 55.63 88.17 56.9 87.83" stroke="#aaa" stroke-width="1"/>
  <polyline fill="none" points ="47.45 69.07 45.05 72.35 41.85 74.85 39.63 75.84 37.35 76.61 36.21 77.49 36.3 78.92 38.47 82.76 41.01 86.37 38.34 84.72 35.66 83.11 36.74 83.5 37.94 83.88 40.64 84.42 43.39 84.31 46.13 82.83 47.57 80.06 48.12 81.68 49.12 83.07 50.26 83.87 51.58 84.33 52.97 84.48 54.37 84.41 55.63 84.2 56.87 83.87" stroke="#aaa" stroke-width="1"/>
  <polyline fill="none" points ="47.36 64.11 44.86 67.75 41.47 70.57 39.16 71.65 36.76 72.48 35.55 73.44 35.64 74.99 37.88 79.24 40.52 83.27 37.68 81.34 34.85 79.44 35.99 79.8 37.27 80.21 40.14 80.78 43.05 80.62 46 78.85 47.48 75.71 48.08 77.6 49.17 79.22 50.42 80.15 51.88 80.67 53.39 80.84 54.91 80.74 56.25 80.5 57.56 80.13" stroke="#aaa" stroke-width="1"/>
  <polyline fill="none" points ="47.34 58.78 44.55 62.84 40.77 65.99 38.19 67.19 35.51 68.12 34.16 69.19 34.25 70.93 36.76 75.67 39.71 80.17 36.54 78.02 33.37 75.91 34.65 76.31 36.07 76.77 39.27 77.41 42.53 77.23 45.82 75.26 47.47 71.76 48.17 73.94 49.48 75.79 50.97 76.81 52.69 77.35 54.45 77.47 56.21 77.3 57.71 76.98 59.16 76.53" stroke="#aaa" stroke-width="1"/>
  <polyline fill="none" points ="47.34 53.29 44.18 57.8 39.91 61.28 36.99 62.62 33.95 63.67 32.43 64.86 32.54 66.81 35.4 72.08 38.76 77.06 35.18 74.72 31.59 72.43 33.03 72.9 34.63 73.42 38.24 74.14 41.91 73.96 45.6 71.82 47.47 67.96 48.31 70.45 49.9 72.52 51.7 73.62 53.75 74.14 55.82 74.19 57.87 73.92 59.53 73.52 61.14 72.97" stroke="#aaa" stroke-width="1"/>
  <polyline fill="none" points ="47.32 47.88 43.82 52.84 39.11 56.64 35.87 58.12 32.52 59.26 30.83 60.58 30.96 62.72 34.13 68.5 37.85 73.96 33.9 71.41 29.93 68.91 31.51 69.45 33.28 70.02 37.27 70.81 41.32 70.63 45.37 68.31 47.44 64.08 48.44 66.91 50.32 69.22 52.47 70.39 54.86 70.87 57.25 70.83 59.6 70.43 61.35 69.95 63.06 69.32" stroke="#aaa" stroke-width="1"/>
  <polyline fill="none" points ="47.26 42.73 43.55 48.08 38.53 52.2 35.09 53.79 31.52 55.01 29.72 56.42 29.85 58.72 33.21 64.95 37.16 70.86 32.94 68.06 28.7 65.31 30.39 65.86 32.28 66.47 36.54 67.31 40.86 67.09 45.2 64.53 47.39 59.94 48.5 63.12 50.65 65.69 53.07 66.93 55.76 67.39 58.38 67.27 60.95 66.76 62.73 66.23 64.45 65.56" stroke="#aaa" stroke-width="1"/>
  <polyline fill="none" points ="47.18 37.85 43.4 43.55 38.22 47.98 34.7 49.65 31.03 50.93 29.17 52.41 29.3 54.81 32.7 61.45 36.72 67.76 32.35 64.68 27.97 61.62 29.73 62.13 31.68 62.76 36.09 63.62 40.56 63.33 45.09 60.46 47.31 55.52 48.53 59.11 50.96 62 53.66 63.3 56.63 63.7 59.43 63.47 62.15 62.83 63.77 62.29 65.34 61.65" stroke="#aaa" stroke-width="1"/>
  <polyline fill="none" points ="47.15 33.15 43.39 39.16 38.15 43.89 34.64 45.63 30.94 46.94 29.05 48.5 29.17 50.97 32.53 57.97 36.51 64.66 32.07 61.27 27.65 57.86 29.43 58.3 31.42 58.94 35.9 59.81 40.43 59.44 45.09 56.21 47.28 50.91 48.71 55.18 51.71 58.48 54.94 59.7 58.4 59.81 61.3 59.31 64.1 58.43 65.06 58.06 65.57 57.91" stroke="#aaa" stroke-width="1"/>
  <polyline fill="none" points ="47.08 28.5 43.36 34.81 38.1 39.86 34.61 41.66 30.91 42.99 29.01 44.61 29.12 47.15 32.41 54.5 36.33 61.55 31.83 57.85 27.41 54.08 29.19 54.44 31.22 55.09 35.74 55.95 40.3 55.5 45.05 51.89 47.21 46.24 48.68 50.92 51.88 54.57 55.25 55.84 58.86 55.91 61.76 55.35 64.55 54.43 65.5 54.06 65.35 54.34" stroke="#aaa" stroke-width="1"/>
  <polyline fill="none" points ="46.97 23.91 43.31 30.51 38.06 35.86 34.62 37.73 30.95 39.08 29.05 40.75 29.15 43.34 32.34 51.03 36.16 58.45 31.64 54.42 27.23 50.29 29 50.55 31.05 51.2 35.6 52.05 40.17 51.51 44.98 47.51 47.1 41.52 48.59 46.57 51.92 50.59 55.37 51.94 59.08 51.98 61.96 51.39 64.73 50.45 65.77 50.09 65.01 50.79" stroke="#aaa" stroke-width="1"/>
  <polyline fill="none" points ="47.02 19.38 43.46 26.25 38.24 31.92 34.88 33.83 31.26 35.2 29.36 36.93 29.45 39.56 32.53 47.58 36.22 55.35 31.69 50.98 27.32 46.47 29.08 46.63 31.15 47.28 35.69 48.11 40.24 47.48 45.09 43.07 47.15 36.73 48.65 42.15 52.06 46.54 55.53 47.98 59.31 48.03 62.15 47.42 64.89 46.49 65.68 46.42 64.8 47.22" stroke="#aaa" stroke-width="1"/>
  <polyline fill="none" points ="47.06 14.9 43.61 22.03 38.46 28.01 35.2 29.98 31.65 31.35 29.77 33.13 29.85 35.8 32.79 44.13 36.32 52.25 31.81 47.52 27.51 42.63 29.24 42.68 31.31 43.33 35.83 44.14 40.34 43.4 45.19 38.57 47.19 31.89 48.67 37.67 52.14 42.45 55.61 43.97 59.42 44.04 62.22 43.43 64.91 42.5 65.43 42.74 64.48 43.67" stroke="#aaa" stroke-width="1"/>
  <polyline fill="none" points ="47.08 10.44 43.74 17.83 38.68 24.13 35.53 26.13 32.05 27.51 30.2 29.35 30.27 32.04 33.05 40.69 36.43 49.15 31.95 44.06 27.72 38.79 29.41 38.71 31.49 39.37 35.98 40.15 40.42 39.31 45.27 34.05 47.21 27.03 48.67 33.17 52.18 38.33 55.63 39.96 59.46 40.04 62.2 39.43 64.84 38.52 65.13 39.06 64.11 40.13" stroke="#aaa" stroke-width="1"/>
</svg>