<?xml version="1.0" encoding="UTF-8"?>
<svg id="Ebene_1" xmlns="http://www.w3.org/2000/svg" width="222" height="222" viewBox="0 0 222 222">
  <polyline points="195.35 26.72 176.83 33.02 158.3 39.32 162.65 42.48 167 45.64 185.53 39.34 204.05 33.04 199.7 29.88 195.35 26.72" fill="none" stroke="#aaa" stroke-miterlimit="10" stroke-width=".5"/>
  <polyline points="158 39.36 157.98 39.32 157.97 39.27 158 39.22 158.04 39.19 176.69 32.85 195.34 26.51 195.39 26.5 195.43 26.52 199.88 29.76 204.34 32.99 204.37 33.03 204.38 33.09 204.35 33.14 204.31 33.17 185.66 39.51 167.02 45.86 166.97 45.86 166.92 45.84 162.47 42.61 158.02 39.37 158.01 39.37 158 39.36" fill="none" stroke="#aaa" stroke-miterlimit="10" stroke-width=".5"/>
  <polyline points="158 39.36 157.99 39.34 157.98 39.32 156.38 34.75 154.77 30.17 154.77 30.13 154.78 30.09 154.8 30.06 154.84 30.04 173.48 23.7 192.13 17.36 192.18 17.35 192.23 17.37 196.68 20.61 201.13 23.84 201.15 23.86 201.17 23.89 202.77 28.47 204.37 33.04 204.37 33.12 204.31 33.17 204.23 33.17 204.18 33.11 202.58 28.55 200.98 23.99 196.56 20.78 192.15 17.57 173.57 23.89 155 30.2 156.59 34.73 158.17 39.25 158.17 39.33 158.11 39.39 158.05 39.39 158 39.36" fill="none" stroke="#aaa" stroke-miterlimit="10" stroke-width=".5"/>
  <polyline points="195.3 26.68 195.28 26.66 195.27 26.64 193.67 22.06 192.07 17.49 192.07 17.41 192.13 17.36 192.21 17.36 192.26 17.42 193.87 22 195.47 26.57 195.46 26.65 195.4 26.7 195.35 26.71 195.3 26.68" fill="none" stroke="#aaa" stroke-miterlimit="10" stroke-width=".5"/>
  <polyline points="208 35.91 189.47 42.21 170.95 48.51 175.3 51.67 179.65 54.83 198.17 48.53 216.7 42.23 212.35 39.07 208 35.91" fill="none" stroke="#aaa" stroke-miterlimit="10" stroke-width=".5"/>
  <polyline points="170.65 48.55 170.62 48.51 170.62 48.46 170.64 48.41 170.69 48.38 189.34 42.04 207.98 35.7 208.03 35.69 208.08 35.71 212.53 38.94 216.98 42.18 217.02 42.22 217.02 42.28 217 42.33 216.96 42.36 198.31 48.7 179.66 55.05 179.61 55.05 179.57 55.03 175.12 51.8 170.66 48.56 170.66 48.56 170.65 48.55" fill="none" stroke="#aaa" stroke-miterlimit="10" stroke-width=".5"/>
  <polyline points="170.65 48.55 170.64 48.53 170.63 48.51 170 46.73 169.38 44.95 169.38 44.87 169.44 44.81 169.52 44.82 169.57 44.88 170.2 46.66 170.82 48.44 170.82 48.52 170.76 48.57 170.7 48.58 170.65 48.55" fill="none" stroke="#aaa" stroke-miterlimit="10" stroke-width=".5"/>
  <polyline points="216.85 42.34 216.83 42.32 216.82 42.3 215.23 37.74 213.63 33.18 209.21 29.97 204.79 26.76 203.57 27.18 202.35 27.59 202.27 27.59 202.22 27.53 202.23 27.45 202.29 27.4 203.53 26.97 204.78 26.55 204.83 26.54 204.87 26.56 209.32 29.8 213.78 33.03 213.8 33.05 213.81 33.08 215.42 37.66 217.02 42.23 217.02 42.31 216.96 42.36 216.9 42.36 216.85 42.34" fill="none" stroke="#aaa" stroke-miterlimit="10" stroke-width=".5"/>
  <polyline points="207.94 35.87 207.93 35.85 207.92 35.83 206.32 31.25 204.71 26.68 204.72 26.6 204.78 26.55 204.86 26.55 204.91 26.61 206.51 31.19 208.12 35.76 208.11 35.84 208.05 35.89 207.99 35.89 207.94 35.87" fill="none" stroke="#aaa" stroke-miterlimit="10" stroke-width=".5"/>
</svg>