<?xml version="1.0" encoding="UTF-8"?>
<svg id="Ebene_1" xmlns="http://www.w3.org/2000/svg" width="222" height="222" viewBox="0 0 222 222">
  <polyline points="200.38 .07 208.45 3.24 216.13 7.22" fill="none" stroke="#aaa" stroke-miterlimit="10" stroke-width=".5"/>
  <polyline points="192.94 .05 201.31 3.52 209.25 7.85 214.31 11.48 218.83 15.74" fill="none" stroke="#aaa" stroke-miterlimit="10" stroke-width=".5"/>
  <polyline points="185.55 .04 194.21 3.81 202.41 8.48 207.67 12.42 212.36 17.02 215.25 20.73 217.69 24.75" fill="none" stroke="#aaa" stroke-miterlimit="10" stroke-width=".5"/>
  <polyline points="178.35 .02 187.3 4.06 195.76 9.05 201.21 13.27 206.05 18.17 209.06 22.14 211.6 26.41 213.2 29.63 214.78 32.84 216.09 34.92 217.94 36.49" fill="none" stroke="#aaa" stroke-miterlimit="10" stroke-width=".5"/>
  <polyline points="171.46 .01 180.7 4.26 189.4 9.5 195.03 13.94 200.02 19.08 203.13 23.26 205.76 27.75 207.42 31.12 209.06 34.49 210.43 36.65 212.38 38.29 215.27 38.76 218.16 38.15" fill="none" stroke="#aaa" stroke-miterlimit="10" stroke-width=".5"/>
  <polyline points="164.95 0 174.45 4.4 183.4 9.81 189.19 14.4 194.31 19.71 197.5 24.02 200.2 28.65 201.91 32.13 203.6 35.6 205.02 37.83 207.03 39.49 210.03 39.95 213.03 39.3" fill="none" stroke="#aaa" stroke-miterlimit="10" stroke-width=".5"/>
  <polyline points="158.81 0 168.55 4.47 177.74 9.98 183.66 14.65 188.9 20.06 192.16 24.44 194.91 29.15 196.64 32.68 198.37 36.2 199.82 38.46 201.88 40.13 204.98 40.56 208.06 39.87" fill="none" stroke="#aaa" stroke-miterlimit="10" stroke-width=".5"/>
  <polyline points="152.94 0 162.92 4.48 172.33 10.04 178.38 14.73 183.73 20.18 187.04 24.59 189.83 29.33 191.58 32.87 193.31 36.41 194.78 38.67 196.88 40.32 200.07 40.72 203.23 39.99 209.26 37.43 215.05 34.34" fill="none" stroke="#aaa" stroke-miterlimit="10" stroke-width=".5"/>
  <polyline points="147.25 0 157.46 4.47 167.1 10.03 173.25 14.71 178.72 20.16 182.06 24.55 184.88 29.3 186.63 32.83 188.38 36.34 189.86 38.6 191.98 40.22 195.25 40.57 198.48 39.82 204.69 37.2 210.66 34.06" fill="none" stroke="#aaa" stroke-miterlimit="10" stroke-width=".5"/>
  <polyline points="141.66 0 152.09 4.44 161.96 9.98 168.22 14.62 173.79 20.06 177.17 24.42 180.01 29.14 181.76 32.64 183.5 36.14 185 38.37 187.14 39.95 190.48 40.26 193.79 39.48 200.17 36.81 206.33 33.64" fill="none" stroke="#aaa" stroke-miterlimit="10" stroke-width=".5"/>
  <polyline points="136.12 0 146.76 4.4 156.87 9.91 163.23 14.51 168.9 19.92 172.31 24.24 175.17 28.94 176.92 32.41 178.66 35.86 180.16 38.07 182.32 39.61 185.74 39.88 189.12 39.07 195.68 36.37 202.03 33.16" fill="none" stroke="#aaa" stroke-miterlimit="10" stroke-width=".5"/>
  <polyline points="130.58 0 141.45 4.36 151.78 9.84 158.24 14.39 164.01 19.78 167.45 24.06 170.34 28.72 172.08 32.16 173.82 35.58 175.33 37.76 177.5 39.25 181.01 39.49 184.46 38.65 191.2 35.91 197.74 32.67" fill="none" stroke="#aaa" stroke-miterlimit="10" stroke-width=".5"/>
  <polyline points="125.05 0 136.14 4.32 146.7 9.77 153.26 14.27 159.13 19.63 162.6 23.87 165.51 28.5 167.25 31.9 168.98 35.29 170.5 37.45 172.69 38.89 176.28 39.09 179.8 38.23 186.74 35.44 193.47 32.19 205.2 26.03 216.84 19.68" fill="none" stroke="#aaa" stroke-miterlimit="10" stroke-width=".5"/>
  <polyline points="119.54 0 130.85 4.27 141.64 9.68 148.3 14.14 154.28 19.46 157.77 23.65 160.7 28.26 162.43 31.62 164.15 34.97 165.69 37.1 167.89 38.5 171.57 38.65 175.17 37.77 182.29 34.95 189.22 31.67 201.31 25.48 213.31 19.12" fill="none" stroke="#aaa" stroke-miterlimit="10" stroke-width=".5"/>
  <polyline points="114.12 0 125.64 4.21 136.66 9.57 143.41 13.96 149.49 19.24 153.01 23.37 155.94 27.93 157.67 31.24 159.38 34.54 160.93 36.65 163.14 37.99 166.9 38.1 170.58 37.2 177.89 34.35 185.03 31.06 197.49 24.86 209.86 18.49" fill="none" stroke="#aaa" stroke-miterlimit="10" stroke-width=".5"/>
  <polyline points="108.84 .01 120.57 4.13 131.82 9.41 138.66 13.7 144.83 18.91 148.36 22.95 151.3 27.43 153.01 30.68 154.7 33.91 156.25 35.98 158.47 37.26 162.3 37.33 166.06 36.4 173.57 33.55 180.91 30.26 193.74 24.09 206.49 17.75" fill="none" stroke="#aaa" stroke-miterlimit="10" stroke-width=".5"/>
  <polyline points="103.81 .02 115.71 4 127.15 9.12 134.06 13.26 140.31 18.32 143.85 22.23 146.8 26.59 148.48 29.74 150.13 32.88 151.66 34.9 153.84 36.14 157.67 36.21 161.43 35.32 169 32.57 176.42 29.38 189.42 23.4 202.34 17.27 202.29 17.32 202.23 17.37 202.17 17.42 202.12 17.47 202.06 17.51 202.01 17.56 201.95 17.61 201.89 17.66 201.84 17.7 201.78 17.75 201.73 17.8 201.67 17.85 201.62 17.89 201.56 17.94 201.51 17.99 201.45 18.04" fill="none" stroke="#aaa" stroke-miterlimit="10" stroke-width=".5"/>
  <polyline points="99.1 .03 111.14 3.81 122.76 8.7 129.71 12.63 136.04 17.48 139.57 21.19 142.51 25.38 144.16 28.39 145.75 31.4 147.23 33.35 149.35 34.54 153.14 34.62 156.88 33.79 164.47 31.18 171.93 28.16 185.03 22.48 198.07 16.65 197.94 16.75 197.81 16.86 197.68 16.96 197.55 17.06 197.42 17.17 197.29 17.27 197.17 17.37 197.04 17.47 196.91 17.58 196.78 17.68 196.66 17.78 196.53 17.88 196.41 17.98 196.28 18.08 196.16 18.18 196.03 18.28" fill="none" stroke="#aaa" stroke-miterlimit="10" stroke-width=".5"/>
  <polyline points="94.72 .04 106.89 3.56 118.68 8.15 125.65 11.81 132.05 16.38 135.55 19.84 138.47 23.79 140.06 26.61 141.58 29.45 143 31.3 145.03 32.42 148.76 32.52 152.45 31.76 160.04 29.34 167.5 26.53 180.68 21.23 193.8 15.8 193.58 15.97 193.36 16.13 193.14 16.29 192.93 16.44 192.71 16.6 192.5 16.76 192.28 16.92 192.07 17.07 191.86 17.23 191.65 17.38 191.44 17.53 191.23 17.69 191.03 17.84 190.82 17.99 190.62 18.14 190.41 18.29" fill="none" stroke="#aaa" stroke-miterlimit="10" stroke-width=".5"/>
  <polyline points="90.61 .05 102.88 3.28 114.84 7.51 121.81 10.85 128.27 15.09 131.73 18.24 134.61 21.92 136.14 24.52 137.57 27.15 138.92 28.88 140.84 29.92 144.49 30.03 148.12 29.35 155.67 27.15 163.12 24.6 176.35 19.75 189.53 14.79 189.21 15 188.88 15.21 188.56 15.43 188.24 15.64 187.93 15.84 187.61 16.05 187.3 16.26 186.99 16.46 186.69 16.66 186.38 16.86 186.08 17.06 185.78 17.26 185.48 17.46 185.19 17.65 184.9 17.84 184.61 18.04" fill="none" stroke="#aaa" stroke-miterlimit="10" stroke-width=".5"/>
  <polyline points="86.62 .07 98.99 2.98 111.1 6.83 118.07 9.84 124.59 13.71 127.99 16.55 130.85 19.92 132.3 22.28 133.63 24.69 134.9 26.3 136.7 27.24 140.28 27.37 143.83 26.77 151.33 24.8 158.76 22.52 172.03 18.15 185.27 13.68 184.82 13.94 184.38 14.2 183.95 14.45 183.52 14.71 183.09 14.96 182.67 15.2 182.25 15.45 181.84 15.69 181.43 15.93 181.02 16.17 180.62 16.41 180.22 16.64 179.83 16.87 179.44 17.1 179.06 17.32 178.68 17.55" fill="none" stroke="#aaa" stroke-miterlimit="10" stroke-width=".5"/>
  <polyline points="82.6 .09 95.09 2.69 107.35 6.16 114.32 8.85 120.9 12.36 124.24 14.89 127.07 17.97 128.45 20.1 129.68 22.29 130.87 23.77 132.56 24.62 136.05 24.76 139.53 24.24 146.99 22.5 154.4 20.47 167.71 16.57 181 12.58 180.43 12.87 179.87 13.17 179.31 13.45 178.76 13.74 178.22 14.02 177.69 14.3 177.16 14.57 176.64 14.84 176.12 15.11 175.62 15.38 175.11 15.64 174.62 15.89 174.13 16.15 173.65 16.4 173.17 16.65 172.7 16.89" fill="none" stroke="#aaa" stroke-miterlimit="10" stroke-width=".5"/>
  <polyline points="78.42 .1 91.02 2.44 103.44 5.57 110.42 7.98 117.06 11.16 120.35 13.41 123.17 16.23 124.48 18.14 125.63 20.14 126.75 21.5 128.34 22.27 131.76 22.42 135.17 21.98 142.61 20.43 150 18.62 163.38 15.14 176.73 11.58 176.03 11.9 175.35 12.22 174.67 12.53 174 12.84 173.35 13.14 172.7 13.44 172.07 13.73 171.44 14.02 170.82 14.31 170.21 14.59 169.61 14.86 169.02 15.14 168.44 15.4 167.87 15.67 167.31 15.93 166.75 16.18" fill="none" stroke="#aaa" stroke-miterlimit="10" stroke-width=".5"/>
  <polyline points="73.94 .11 86.68 2.24 99.27 5.1 106.27 7.28 112.99 10.19 116.24 12.23 119.05 14.83 120.31 16.57 121.39 18.41 122.46 19.68 123.96 20.38 127.34 20.53 130.7 20.15 138.15 18.76 145.55 17.13 159.01 13.99 172.46 10.77 171.64 11.1 170.84 11.44 170.05 11.76 169.28 12.09 168.51 12.4 167.76 12.71 167.02 13.02 166.3 13.32 165.59 13.62 164.89 13.91 164.2 14.19 163.52 14.47 162.86 14.75 162.21 15.02 161.57 15.28 160.94 15.54" fill="none" stroke="#aaa" stroke-miterlimit="10" stroke-width=".5"/>
  <polyline points="69.05 .12 81.95 2.1 94.72 4.77 101.77 6.8 108.57 9.54 111.81 11.43 114.64 13.87 115.86 15.5 116.91 17.24 117.94 18.45 119.39 19.1 122.74 19.26 126.09 18.9 133.57 17.62 141.02 16.12 154.61 13.2 168.19 10.21 167.28 10.56 166.36 10.9 165.48 11.24 164.6 11.57 163.75 11.89 162.9 12.21 162.08 12.52 161.27 12.83 160.48 13.13 159.69 13.43 158.93 13.72 158.18 14 157.44 14.28 156.72 14.55 156.02 14.81 155.33 15.07" fill="none" stroke="#aaa" stroke-miterlimit="10" stroke-width=".5"/>
  <polyline points="63.62 .12 76.7 2.05 89.67 4.65 96.81 6.61 103.72 9.28 106.98 11.1 109.83 13.5 111.05 15.08 112.08 16.77 113.11 17.96 114.55 18.59 117.92 18.75 121.29 18.41 128.86 17.18 136.39 15.72 150.16 12.9 163.92 10 162.92 10.36 161.92 10.72 160.96 11.07 160 11.41 159.08 11.75 158.15 12.08 157.27 12.4 156.38 12.72 155.53 13.03 154.68 13.33 153.86 13.63 153.04 13.92 152.26 14.2 151.48 14.48 150.73 14.75 149.98 15.02" fill="none" stroke="#aaa" stroke-miterlimit="10" stroke-width=".5"/>
  <polyline points="57.53 .12 70.85 2.09 84.04 4.74 91.31 6.76 98.33 9.48 101.65 11.35 104.56 13.79 105.81 15.41 106.87 17.14 107.92 18.35 109.38 19 112.82 19.16 116.26 18.81 123.96 17.55 131.63 16.06 145.65 13.17 159.65 10.2 158.59 10.59 157.54 10.97 156.52 11.34 155.51 11.71 154.53 12.06 153.56 12.41 152.63 12.75 151.69 13.09 150.8 13.41 149.9 13.74 149.05 14.05 148.19 14.36 147.37 14.65 146.55 14.95 145.77 15.23 144.99 15.51" fill="none" stroke="#aaa" stroke-miterlimit="10" stroke-width=".5"/>
  <polyline points="50.78 .11 64.36 2.23 77.8 5.08 85.24 7.25 92.41 10.17 95.83 12.18 98.81 14.79 100.12 16.53 101.24 18.38 102.35 19.67 103.89 20.36 107.44 20.52 110.99 20.14 118.89 18.77 126.75 17.16 141.07 14.04 155.38 10.84 154.29 11.26 153.21 11.67 152.16 12.08 151.12 12.48 150.12 12.86 149.12 13.25 148.16 13.62 147.2 13.99 146.29 14.34 145.37 14.69 144.49 15.03 143.62 15.37 142.78 15.69 141.94 16.01 141.14 16.31 140.35 16.62" fill="none" stroke="#aaa" stroke-miterlimit="10" stroke-width=".5"/>
  <polyline points="43.44 .1 57.31 2.46 71.03 5.63 78.67 8.06 86 11.3 89.56 13.56 92.64 16.44 94.04 18.38 95.25 20.42 96.44 21.82 98.11 22.59 101.81 22.76 105.51 22.32 113.65 20.77 121.75 18.96 136.44 15.45 151.11 11.86 150.02 12.32 148.92 12.79 147.87 13.23 146.82 13.68 145.81 14.1 144.81 14.53 143.84 14.94 142.88 15.35 141.96 15.74 141.04 16.13 140.15 16.5 139.27 16.87 138.43 17.23 137.59 17.58 136.79 17.92 135.99 18.26" fill="none" stroke="#aaa" stroke-miterlimit="10" stroke-width=".5"/>
</svg>