<?xml version="1.0" encoding="UTF-8"?>
<svg id="Ebene_1" xmlns="http://www.w3.org/2000/svg" width="222" height="222" viewBox="0 0 222 222">
  <polyline points="181.25 117.29 179.04 121.93 176.84 126.56 186.63 126.56 196.43 126.56 196.47 126.57 196.51 126.6 202.65 134.22 208.8 141.84 211 137.26 213.2 132.68 207.06 124.99 200.92 117.29 191.09 117.29 181.25 117.29" fill="none" stroke="#aaa" stroke-miterlimit="10" stroke-width=".5"/>
  <polyline points="176.74 126.77 173.05 134.51 169.37 142.24 175.51 149.88 181.65 157.52 191.49 157.52 201.32 157.52 205.01 149.78 208.7 142.05 202.54 134.41 196.38 126.77 186.56 126.77 176.74 126.77" fill="none" stroke="#aaa" stroke-miterlimit="10" stroke-width=".5"/>
  <polyline points="169.14 142.26 169.15 142.24 169.15 142.21 175.12 129.68 181.09 117.14 181.13 117.1 181.19 117.09 191.08 117.09 200.97 117.09 201.02 117.1 201.05 117.12 207.23 124.86 213.41 132.6 213.43 132.66 213.42 132.71 211.17 137.4 208.91 142.08 205.2 149.87 201.48 157.67 201.44 157.71 201.39 157.73 191.49 157.73 181.6 157.73 181.56 157.72 181.52 157.69 175.34 150.01 169.17 142.32 169.15 142.29 169.14 142.26" fill="none" stroke="#aaa" stroke-miterlimit="10" stroke-width=".5"/>
  <polyline points="196.32 126.67 196.33 126.64 196.34 126.62 198.61 121.88 200.88 117.14 200.94 117.09 201.02 117.1 201.07 117.15 201.07 117.23 198.79 121.97 196.52 126.71 196.46 126.77 196.38 126.76 196.34 126.72 196.32 126.67" fill="none" stroke="#aaa" stroke-miterlimit="10" stroke-width=".5"/>
  <polyline points="184.74 136.71 183.43 139.44 182.13 142.17 184.28 144.86 186.44 147.54 189.9 147.54 193.36 147.54 194.65 144.83 195.94 142.12 193.78 139.41 191.62 136.71 188.18 136.71 184.74 136.71" fill="none" stroke="#aaa" stroke-miterlimit="10" stroke-width=".5"/>
  <polyline points="181.9 142.19 181.9 142.16 181.91 142.14 183.25 139.35 184.58 136.56 184.62 136.52 184.68 136.5 188.18 136.5 191.67 136.5 191.72 136.51 191.75 136.54 193.95 139.29 196.14 142.04 196.17 142.09 196.16 142.15 194.84 144.92 193.52 147.69 193.48 147.73 193.42 147.75 189.91 147.75 186.39 147.75 186.35 147.74 186.31 147.71 184.12 144.98 181.92 142.25 181.91 142.22 181.9 142.19" fill="none" stroke="#aaa" stroke-miterlimit="10" stroke-width=".5"/>
  <polyline points="189.43 136.61 189.44 136.56 189.47 136.53 189.54 136.5 189.61 136.54 190.28 137.37 190.95 138.2 191.99 138.2 193.03 138.2 193.1 138.23 193.13 138.31 193.1 138.38 193.03 138.41 191.96 138.41 190.9 138.41 190.85 138.4 190.82 138.37 190.13 137.52 189.45 136.67 189.43 136.64 189.43 136.61" fill="none" stroke="#aaa" stroke-miterlimit="10" stroke-width=".5"/>
  <polyline points="186.29 147.64 186.29 147.62 186.3 147.6 188.55 142.93 190.8 138.26 190.86 138.21 190.94 138.21 191 138.27 190.99 138.35 188.74 143.02 186.49 147.69 186.43 147.74 186.35 147.74 186.31 147.7 186.29 147.64" fill="none" stroke="#aaa" stroke-miterlimit="10" stroke-width=".5"/>
</svg>