<?xml version="1.0" encoding="UTF-8"?>
<svg id="Ebene_1" xmlns="http://www.w3.org/2000/svg" width="222" height="222" viewBox="0 0 222 222">
  <polyline points="27.3 182.74 27.5 186.38 28.57 189.82 30.03 190.94 31.8 191.56 34.33 192.88 36.34 194.93 39.45 200.7 41.56 206.93 43.52 200.3 46.34 194.01 47.54 192.51 49.08 191.36 49.52 189.64 49.29 187.8 47.91 179.97 46.51 172.13 49.03 177.88 51.34 183.69 50.89 184.49 49.7 184.03 47.32 183.67 45.24 184.83 42.56 191.03 41.57 197.79" fill="none" stroke="#aaa" stroke-miterlimit="10" stroke-width=".5"/>
  <polyline points="26.48 179.63 26.7 183.02 27.83 186.18 29.4 187.28 31.24 187.91 33.88 189.24 36.04 191.27 39.3 196.74 41.55 202.72 43.67 196.32 46.72 190.33 48.08 188.82 49.75 187.68 50.25 185.97 49.98 184.13 48.39 176.58 46.78 169.04 49.56 174.36 52.16 179.76 51.61 180.38 50.4 179.91 47.86 179.49 45.53 180.54 42.64 186.26 41.57 192.66" fill="none" stroke="#aaa" stroke-miterlimit="10" stroke-width=".5"/>
  <polyline points="25.38 176.53 25.62 179.7 26.83 182.59 28.54 183.68 30.49 184.34 33.29 185.68 35.64 187.71 39.09 192.88 41.54 198.61 43.89 192.42 47.22 186.73 48.78 185.21 50.62 184.06 51.2 182.37 50.88 180.5 49.04 173.22 47.14 165.94 50.26 170.83 53.24 175.79 52.57 176.21 51.32 175.73 48.55 175.24 45.91 176.15 42.76 181.36 41.57 187.42" fill="none" stroke="#aaa" stroke-miterlimit="10" stroke-width=".5"/>
  <polyline points="24.31 173.39 24.57 176.36 25.85 179 27.72 180.08 29.78 180.77 32.73 182.12 35.27 184.13 38.89 189 41.52 194.49 44.1 188.51 47.71 183.11 49.48 181.6 51.49 180.43 52.14 178.75 51.78 176.87 49.67 169.85 47.49 162.85 50.94 167.31 54.31 171.82 53.53 172.05 52.23 171.56 49.22 171 46.29 171.78 42.88 176.46 41.56 182.19" fill="none" stroke="#aaa" stroke-miterlimit="10" stroke-width=".5"/>
  <polyline points="23.4 170.14 23.69 172.94 25.04 175.35 27.02 176.43 29.18 177.15 32.25 178.49 34.96 180.47 38.71 185.05 41.49 190.29 44.29 184.53 48.13 179.44 50.08 177.93 52.25 176.76 52.96 175.09 52.55 173.21 50.21 166.46 47.76 159.75 51.51 163.81 55.22 167.89 54.36 167.94 53 167.44 49.79 166.82 46.61 167.47 42.99 171.63 41.54 177.05" fill="none" stroke="#aaa" stroke-miterlimit="10" stroke-width=".5"/>
  <polyline points="22.58 166.79 22.9 169.44 24.29 171.68 26.38 172.76 28.63 173.49 31.81 174.83 34.66 176.77 38.52 181.06 41.45 186.05 44.45 180.52 48.5 175.73 50.63 174.24 52.93 173.06 53.71 171.41 53.26 169.53 50.69 163.07 47.99 156.66 52 160.33 56.04 163.96 55.1 163.85 53.7 163.34 50.29 162.67 46.88 163.2 43.1 166.84 41.51 171.95" fill="none" stroke="#aaa" stroke-miterlimit="10" stroke-width=".5"/>
  <polyline points="21.55 163.36 21.88 165.92 23.32 168.02 25.53 169.12 27.89 169.88 31.21 171.22 34.25 173.12 38.25 177.14 41.37 181.89 44.62 176.58 48.91 172.09 51.24 170.61 53.72 169.4 54.57 167.77 54.07 165.88 51.24 159.68 48.23 153.56 52.56 156.84 56.96 160.01 55.95 159.71 54.47 159.19 50.83 158.46 47.16 158.86 43.21 161.97 41.43 166.76" fill="none" stroke="#aaa" stroke-miterlimit="10" stroke-width=".5"/>
  <polyline points="20.38 160.11 20.76 162.55 22.27 164.48 24.65 165.6 27.18 166.41 30.69 167.75 33.97 169.63 38.16 173.38 41.51 177.9 45.1 172.78 49.69 168.58 52.31 167.1 55.02 165.85 55.99 164.22 55.43 162.29 52.24 156.32 48.82 150.47 53.52 153.33 58.33 156 57.24 155.5 55.65 154.95 51.74 154.14 47.75 154.38 43.63 156.95 41.59 161.4" fill="none" stroke="#aaa" stroke-miterlimit="10" stroke-width=".5"/>
  <polyline points="18.84 156.78 19.26 159.17 20.85 160.98 23.43 162.14 26.15 162.99 29.91 164.36 33.46 166.21 37.88 169.7 41.54 174 45.51 169.07 50.45 165.14 53.39 163.66 56.4 162.36 57.5 160.72 56.87 158.74 53.27 152.96 49.38 147.37 54.43 149.82 59.61 151.96 58.46 151.25 56.74 150.64 52.53 149.75 48.25 149.83 43.98 151.85 41.62 155.94" fill="none" stroke="#aaa" stroke-miterlimit="10" stroke-width=".5"/>
  <polyline points="17.24 153.34 17.67 155.7 19.32 157.43 22.09 158.65 24.99 159.55 29 160.92 32.83 162.74 37.48 166 41.43 170.07 45.8 165.35 51.07 161.68 54.34 160.2 57.64 158.85 58.88 157.21 58.19 155.17 54.17 149.6 49.8 144.28 55.19 146.32 60.72 147.93 59.53 147.02 57.66 146.36 53.18 145.38 48.6 145.31 44.24 146.82 41.53 150.51" fill="none" stroke="#aaa" stroke-miterlimit="10" stroke-width=".5"/>
  <polyline points="15.8 149.57 16.23 151.97 17.91 153.72 20.84 155.01 23.92 155.94 28.15 157.32 32.25 159.08 37.11 162.12 41.35 165.99 46.07 161.49 51.64 158.1 55.44 156.59 59.28 155.24 61.22 153.87 61.44 151.55 58.72 146.17 55.3 141.18 59.49 142.72 63.77 143.95 61.47 142.91 59.01 142.16 54.03 141.13 48.94 140.9 44.52 141.98 41.45 145.25" fill="none" stroke="#aaa" stroke-miterlimit="10" stroke-width=".5"/>
  <polyline points="14.38 145.62 14.93 148.09 16.75 149.86 19.84 151.19 23.07 152.16 27.47 153.51 31.75 155.21 36.75 158.03 41.2 161.67 46.16 157.44 51.88 154.33 56.09 152.82 60.33 151.49 62.77 150.23 63.99 147.85 62.7 142.78 60.29 138.08 63.32 139.18 66.2 140.05 63.08 138.98 59.9 138.11 54.52 137.05 49.05 136.69 44.65 137.43 41.3 140.22" fill="none" stroke="#aaa" stroke-miterlimit="10" stroke-width=".5"/>
  <polyline points="13.71 141.57 14.31 144.07 16.16 145.86 19.32 147.24 22.64 148.23 27.12 149.54 31.51 151.16 36.57 153.76 41.14 157.14 46.22 153.23 51.96 150.39 56.36 148.93 60.79 147.62 63.47 146.4 65.17 144.07 64.56 139.38 62.62 134.99 65.17 135.79 67.23 136.23 63.76 135.1 60.22 134.18 54.68 133.11 49.06 132.64 44.77 133.11 41.24 135.42" fill="none" stroke="#aaa" stroke-miterlimit="10" stroke-width=".5"/>
  <polyline points="13.32 137.46 13.89 139.97 15.73 141.79 18.91 143.2 22.26 144.2 26.77 145.47 31.21 146.99 36.28 149.36 40.93 152.48 46.06 148.92 51.74 146.35 56.24 144.95 60.75 143.67 63.57 142.48 65.57 140.25 65.41 135.95 63.79 131.89 66.07 132.44 67.48 132.46 63.81 131.28 60.06 130.33 54.48 129.26 48.82 128.71 44.66 128.94 41.02 130.76" fill="none" stroke="#aaa" stroke-miterlimit="10" stroke-width=".5"/>
  <polyline points="13.43 133.29 13.92 135.81 15.72 137.66 18.88 139.11 22.23 140.12 26.76 141.36 31.24 142.78 36.31 144.93 41.03 147.76 46.16 144.56 51.76 142.26 56.31 140.93 60.87 139.69 63.77 138.53 65.99 136.4 66.15 132.52 64.76 128.8 66.87 129.11 67.74 128.7 63.94 127.47 60.06 126.52 54.48 125.45 48.82 124.81 44.81 124.85 41.1 126.15" fill="none" stroke="#aaa" stroke-miterlimit="10" stroke-width=".5"/>
  <polyline points="13.8 129.12 14.1 131.63 15.78 133.51 18.9 135.01 22.22 136.03 26.75 137.24 31.26 138.57 36.28 140.5 41.02 143.04 46.15 140.22 51.64 138.18 56.22 136.91 60.8 135.7 63.76 134.58 66.15 132.56 66.56 129.08 65.35 125.7 67.38 125.76 67.76 124.95 63.88 123.67 59.91 122.7 54.34 121.64 48.72 120.92 44.83 120.77 41.07 121.55" fill="none" stroke="#aaa" stroke-miterlimit="10" stroke-width=".5"/>
  <polyline points="14.27 124.9 14.29 127.38 15.82 129.33 18.88 130.88 22.18 131.92 26.73 133.12 31.26 134.37 36.24 136.08 40.99 138.32 46.03 135.87 51.35 134.09 55.95 132.9 60.53 131.72 63.53 130.63 66.05 128.72 66.6 125.62 65.47 122.61 67.48 122.36 67.46 121.19 63.58 119.85 59.59 118.89 54.09 117.82 48.54 117.03 44.77 116.71 41.01 116.94" fill="none" stroke="#aaa" stroke-miterlimit="10" stroke-width=".5"/>
  <polyline points="14.97 120.63 14.64 123.04 15.97 125.08 18.96 126.71 22.22 127.78 26.78 128.96 31.35 130.14 36.25 131.63 40.99 133.58 45.89 131.51 50.99 129.98 55.55 128.86 60.09 127.71 63.09 126.67 65.66 124.86 66.23 122.14 65.07 119.51 67.11 118.93 66.95 117.45 63.15 116.05 59.21 115.09 53.81 114.03 48.37 113.16 44.68 112.67 40.98 112.37" fill="none" stroke="#aaa" stroke-miterlimit="10" stroke-width=".5"/>
  <polyline points="14.94 116.15 15.01 116.24 15.1 116.32 15.19 116.41 15.29 116.5 15.39 116.58 15.51 116.67 15.63 116.76 15.76 116.85 15.33 119.08 16.58 120.98 19.55 122.58 22.76 123.65 27.24 124.8 31.74 125.89 36.4 127.15 40.96 128.73 45.63 127.07 50.42 125.79 54.9 124.76 59.35 123.65 62.33 122.65 64.96 120.98 65.58 118.64 64.44 116.42 66.54 115.53 67.08 113.74 64.11 112.26 60.89 111.35 55.77 110.26 50.6 109.36 45.77 108.61 40.95 107.89" fill="none" stroke="#aaa" stroke-miterlimit="10" stroke-width=".5"/>
  <polyline points="15.57 111.79 15.63 111.99 15.71 112.19 15.83 112.39 15.97 112.59 16.15 112.8 16.35 113 16.6 113.22 16.86 113.43 16.57 115.41 17.86 116.97 20.81 118.46 23.98 119.49 28.26 120.57 32.57 121.54 36.81 122.54 41 123.72 45.32 122.48 49.7 121.47 54.03 120.54 58.33 119.49 61.26 118.55 63.92 117.03 64.61 115.12 63.51 113.32 65.6 112.11 66.26 110.08 63.63 108.58 60.69 107.71 55.82 106.64 50.91 105.7 45.93 104.74 40.99 103.59" fill="none" stroke="#aaa" stroke-miterlimit="10" stroke-width=".5"/>
  <polyline points="17.05 107.49 17.02 107.78 17.04 108.07 17.12 108.38 17.25 108.68 17.44 109.01 17.68 109.33 18 109.68 18.36 110.01 18.27 111.69 19.56 112.91 22.48 114.26 25.57 115.22 29.59 116.21 33.64 117.06 37.33 117.78 41.01 118.53 44.83 117.74 48.66 117.01 52.77 116.19 56.84 115.23 59.71 114.35 62.39 113.02 63.17 111.57 62.14 110.22 64.17 108.71 64.83 106.49 62.5 104.99 59.81 104.17 55.25 103.14 50.66 102.18 45.78 101.01 41 99.47" fill="none" stroke="#aaa" stroke-miterlimit="10" stroke-width=".5"/>
  <polyline points="19.31 103.21 19.18 103.57 19.12 103.94 19.15 104.35 19.26 104.75 19.48 105.2 19.76 105.63 20.18 106.13 20.64 106.59 20.61 107.93 21.82 108.82 24.71 110.02 27.71 110.91 31.42 111.79 35.16 112.51 38.09 112.97 41.03 113.27 44.08 112.95 47.13 112.49 50.95 111.78 54.74 110.92 57.52 110.12 60.17 108.98 60.86 107.89 59.71 107.13 61.8 105.35 62.72 102.93 60.76 101.44 58.35 100.68 54.17 99.7 49.99 98.73 45.4 97.36 41.02 95.43" fill="none" stroke="#aaa" stroke-miterlimit="10" stroke-width=".5"/>
  <polyline points="21.58 99.08 21.38 99.48 21.27 99.92 21.28 100.4 21.39 100.86 21.64 101.42 21.98 101.94 22.5 102.58 23.08 103.18 22.83 104.09 23.85 104.75 26.56 105.82 29.37 106.64 32.79 107.43 36.24 108.02 38.66 108.24 41.06 108.06 43.56 108.26 46.08 108.02 49.63 107.43 53.14 106.64 55.7 105.93 58.16 104.97 58.31 104.18 57.06 104.03 59.29 101.98 60.56 99.34 59.01 97.87 56.9 97.15 53.1 96.22 49.31 95.22 45 93.64 41.03 91.33" fill="none" stroke="#aaa" stroke-miterlimit="10" stroke-width=".5"/>
  <polyline points="23.23 95.18 23.02 95.6 22.93 96.07 22.96 96.6 23.11 97.11 23.42 97.74 23.81 98.33 24.43 99.07 25.09 99.76 24.32 100.15 25.13 100.74 27.56 101.71 30.07 102.47 33.27 103.2 36.52 103.66 38.88 103.69 41.09 103.03 43.42 103.73 45.89 103.69 49.23 103.21 52.53 102.47 54.73 101.84 56.85 101.02 56.07 100.74 54.71 100.94 57.14 98.58 58.78 95.7 57.63 94.21 55.77 93.52 52.28 92.62 48.82 91.58 44.69 89.73 41.06 87.05" fill="none" stroke="#aaa" stroke-miterlimit="10" stroke-width=".5"/>
  <polyline points="24.13 91.39 23.98 91.85 23.95 92.33 24.05 92.9 24.26 93.44 24.64 94.13 25.1 94.77 25.79 95.57 26.53 96.34 25.53 96.26 25.87 96.81 28.09 97.73 30.4 98.44 33.5 99.14 36.65 99.49 39.04 99.32 41.12 98.24 43.3 99.39 45.82 99.54 49.05 99.16 52.22 98.44 54.12 97.88 55.96 97.15 54.39 97.36 52.69 97.84 55.41 95.14 57.48 91.97 56.69 90.44 54.99 89.75 51.69 88.84 48.45 87.75 44.44 85.59 41.08 82.52" fill="none" stroke="#aaa" stroke-miterlimit="10" stroke-width=".5"/>
  <polyline points="24.6 87.66 24.54 88.16 24.59 88.65 24.78 89.25 25.05 89.83 25.51 90.55 26.04 91.24 26.79 92.1 27.59 92.92 26.52 92.66 26.28 92.95 28.37 93.83 30.54 94.52 33.6 95.2 36.73 95.46 39.22 95.09 41.21 93.62 43.29 95.19 45.92 95.53 49.08 95.23 52.18 94.52 53.8 94.01 55.34 93.34 53.05 93.95 50.78 94.75 53.92 91.67 56.53 88.18 56.13 86.6 54.54 85.87 51.36 84.94 48.26 83.77 44.3 81.28 41.17 77.81" fill="none" stroke="#aaa" stroke-miterlimit="10" stroke-width=".5"/>
  <polyline points="24.92 84.01 24.95 84.54 25.09 85.05 25.36 85.68 25.71 86.28 26.23 87.03 26.81 87.75 27.62 88.64 28.46 89.51 27.23 89.09 26.52 89.11 28.51 89.97 30.58 90.64 33.65 91.32 36.79 91.5 39.41 90.91 41.33 89.08 43.3 91.02 46.05 91.59 49.07 91.36 52.01 90.64 53.24 90.19 54.04 89.56 50.47 90.46 46.99 91.65 51.12 88.16 54.93 84.36 55.34 82.85 54.01 81.95 51.03 80.97 48.14 79.73 44.22 76.88 41.28 73.01" fill="none" stroke="#aaa" stroke-miterlimit="10" stroke-width=".5"/>
  <polyline points="24.72 80.34 24.78 80.89 24.93 81.42 25.21 82.08 25.56 82.71 26.07 83.5 26.63 84.25 27.38 85.18 28.18 86.09 26.88 85.52 26.01 85.26 28.06 86.1 30.17 86.76 33.36 87.43 36.62 87.53 39.4 86.71 41.29 84.54 43.22 86.83 46.14 87.64 49.25 87.48 52.28 86.76 53.52 86.32 54.35 85.78 50.62 87.05 46.97 88.56 51.05 84.7 54.8 80.54 55.19 78.97 53.84 78.03 50.87 77.02 48.01 75.7 44.07 72.47 41.24 68.23" fill="none" stroke="#aaa" stroke-miterlimit="10" stroke-width=".5"/>
  <polyline points="24.79 76.7 24.87 77.27 25.03 77.83 25.31 78.51 25.65 79.17 26.14 79.98 26.68 80.77 27.4 81.73 28.15 82.67 26.79 81.94 25.83 81.41 27.91 82.2 30.05 82.85 33.31 83.51 36.64 83.53 39.56 82.45 41.4 79.95 43.25 82.58 46.3 83.66 49.46 83.57 52.55 82.86 53.79 82.43 54.63 81.98 50.81 83.63 47.06 85.46 51.07 81.24 54.72 76.74 55.1 75.11 53.74 74.14 50.79 73.11 47.98 71.7 44.05 68.1 41.33 63.48" fill="none" stroke="#aaa" stroke-miterlimit="10" stroke-width=".5"/>
  <polyline points="24.89 73.11 25 73.7 25.17 74.28 25.45 74.98 25.78 75.66 26.26 76.5 26.77 77.31 27.44 78.29 28.15 79.25 26.73 78.35 25.73 77.54 27.84 78.28 29.98 78.93 33.29 79.56 36.65 79.5 39.68 78.14 41.45 75.33 43.19 78.28 46.32 79.65 49.47 79.63 52.53 78.93 53.77 78.51 54.61 78.17 50.81 80.21 47.08 82.37 50.99 77.78 54.55 72.95 54.9 71.28 53.54 70.26 50.62 69.21 47.88 67.73 43.97 63.74 41.38 58.77" fill="none" stroke="#aaa" stroke-miterlimit="10" stroke-width=".5"/>
  <polyline points="24.78 69.52 24.9 70.13 25.08 70.73 25.36 71.45 25.69 72.16 26.15 73.01 26.64 73.85 27.27 74.85 27.94 75.84 26.47 74.75 25.45 73.68 27.59 74.38 29.74 75.02 33.09 75.64 36.48 75.49 39.61 73.85 41.32 70.74 42.98 73.99 46.18 75.67 49.31 75.71 52.38 75.02 53.62 74.6 54.45 74.37 50.67 76.79 46.93 79.27 50.77 74.32 54.25 69.15 54.59 67.43 53.22 66.37 50.31 65.29 47.63 63.73 43.74 59.36 41.25 54.03" fill="none" stroke="#aaa" stroke-miterlimit="10" stroke-width=".5"/>
  <polyline points="24.59 65.86 24.73 66.5 24.92 67.12 25.21 67.87 25.54 68.61 25.99 69.5 26.47 70.36 27.09 71.4 27.74 72.42 26.22 71.16 25.19 69.87 27.39 70.54 29.58 71.19 33 71.81 36.46 71.59 39.7 69.68 41.39 66.29 43.01 69.82 46.32 71.79 49.5 71.89 52.61 71.19 53.88 70.76 54.71 70.62 50.89 73.38 47.08 76.17 50.92 70.85 54.4 65.3 54.74 63.51 53.34 62.4 50.39 61.28 47.71 59.63 43.78 54.86 41.32 49.16" fill="none" stroke="#aaa" stroke-miterlimit="10" stroke-width=".5"/>
  <polyline points="23.89 62.08 24.04 62.75 24.24 63.41 24.54 64.21 24.88 64.99 25.34 65.92 25.84 66.84 26.47 67.93 27.13 69 25.54 67.6 24.5 66.13 26.8 66.81 29.09 67.49 32.67 68.13 36.28 67.87 39.69 65.72 41.43 62.05 43.09 65.87 46.57 68.08 49.89 68.22 53.14 67.5 54.47 67.04 55.33 66.95 51.34 70 47.36 73.08 51.34 67.34 54.94 61.38 55.3 59.48 53.83 58.3 50.75 57.11 47.98 55.35 43.88 50.19 41.35 44.05" fill="none" stroke="#aaa" stroke-miterlimit="10" stroke-width=".5"/>
  <polyline points="22.67 58.17 22.83 58.89 23.05 59.6 23.37 60.45 23.74 61.29 24.23 62.29 24.76 63.27 25.43 64.43 26.13 65.58 24.42 64.06 23.32 62.47 25.78 63.19 28.24 63.92 32.07 64.61 35.94 64.32 39.6 61.99 41.46 58.03 43.23 62.15 46.97 64.55 50.52 64.7 54 63.93 55.43 63.44 56.34 63.35 52.07 66.66 47.8 69.98 52.06 63.8 55.92 57.38 56.3 55.34 54.73 54.07 51.43 52.8 48.46 50.9 44.07 45.32 41.37 38.72" fill="none" stroke="#aaa" stroke-miterlimit="10" stroke-width=".5"/>
  <polyline points="21.16 54.18 21.34 54.96 21.57 55.73 21.92 56.64 22.32 57.54 22.85 58.62 23.42 59.68 24.14 60.93 24.9 62.17 23.06 60.54 21.87 58.85 24.53 59.64 27.19 60.43 31.33 61.17 35.51 60.87 39.48 58.39 41.49 54.13 43.42 58.56 47.45 61.11 51.29 61.27 55.05 60.43 56.6 59.91 57.59 59.79 52.96 63.33 48.34 66.89 52.96 60.24 57.15 53.34 57.56 51.14 55.85 49.76 52.29 48.39 49.07 46.35 44.32 40.36 41.39 33.26" fill="none" stroke="#aaa" stroke-miterlimit="10" stroke-width=".5"/>
  <polyline points="19.66 50.21 19.85 51.05 20.1 51.86 20.47 52.84 20.9 53.81 21.47 54.96 22.09 56.09 22.87 57.43 23.68 58.75 21.71 57.02 20.42 55.22 23.28 56.08 26.14 56.93 30.59 57.73 35.09 57.41 39.35 54.77 41.53 50.22 43.6 54.96 47.93 57.67 52.06 57.83 56.1 56.93 57.76 56.37 58.83 56.23 53.85 60 48.88 63.79 53.86 56.69 58.37 49.3 58.81 46.94 56.98 45.47 53.14 43.99 49.67 41.8 44.56 35.41 41.41 27.81" fill="none" stroke="#aaa" stroke-miterlimit="10" stroke-width=".5"/>
  <polyline points="18.45 46.33 18.65 47.21 18.92 48.07 19.32 49.11 19.77 50.13 20.37 51.34 21.01 52.53 21.83 53.94 22.68 55.33 20.59 53.48 19.24 51.55 22.27 52.45 25.29 53.35 30 54.19 34.76 53.84 39.26 51.02 41.56 46.18 43.74 51.22 48.32 54.12 52.68 54.3 56.96 53.35 58.72 52.75 59.85 52.63 54.58 56.65 49.33 60.7 54.58 53.15 59.34 45.3 59.8 42.81 57.87 41.25 53.81 39.69 50.15 37.37 44.75 30.57 41.44 22.5" fill="none" stroke="#aaa" stroke-miterlimit="10" stroke-width=".5"/>
  <polyline points="17.68 42.57 17.89 43.49 18.18 44.39 18.58 45.47 19.05 46.52 19.66 47.78 20.32 49.02 21.15 50.47 22.01 51.92 19.84 49.92 18.47 47.82 21.61 48.72 24.74 49.65 29.62 50.51 34.55 50.12 39.24 47.07 41.59 41.95 43.82 47.28 48.58 50.42 53.1 50.63 57.53 49.66 59.35 49.04 60.51 48.95 55.06 53.27 49.62 57.6 55.03 49.64 59.93 41.38 60.4 38.78 58.4 37.15 54.21 35.53 50.44 33.09 44.86 25.89 41.46 17.4" fill="none" stroke="#aaa" stroke-miterlimit="10" stroke-width=".5"/>
  <polyline points="17.28 38.93 17.51 39.87 17.8 40.8 18.21 41.9 18.68 42.99 19.29 44.27 19.95 45.54 20.77 47.03 21.63 48.5 19.41 46.33 18.05 44.03 21.26 44.91 24.45 45.86 29.43 46.73 34.44 46.27 39.25 42.96 41.61 37.55 43.85 43.17 48.73 46.59 53.32 46.85 57.83 45.86 59.71 45.23 60.87 45.22 55.34 49.87 49.78 54.51 55.25 46.16 60.2 37.51 60.67 34.83 58.62 33.14 54.36 31.47 50.55 28.94 44.89 21.34 41.48 12.46" fill="none" stroke="#aaa" stroke-miterlimit="10" stroke-width=".5"/>
  <polyline points="17.11 35.35 17.35 36.32 17.65 37.27 18.07 38.39 18.54 39.5 19.14 40.8 19.79 42.09 20.59 43.59 21.42 45.08 19.17 42.72 17.85 40.2 21.09 41.05 24.32 42 29.35 42.87 34.39 42.34 39.29 38.74 41.63 33.05 43.84 38.95 48.8 42.67 53.43 43 57.98 42.01 59.88 41.37 61.04 41.46 55.47 46.46 49.86 51.41 55.33 42.69 60.26 33.68 60.73 30.93 58.66 29.19 54.37 27.49 50.57 24.87 44.87 16.88 41.49 7.62" fill="none" stroke="#aaa" stroke-miterlimit="10" stroke-width=".5"/>
</svg>