<?xml version="1.0" encoding="UTF-8"?>
<svg id="Ebene_1" xmlns="http://www.w3.org/2000/svg" width="222" height="222" viewBox="0 0 222 222">
  <polyline points="177.32 180.38 186.51 189.1 195.7 197.82 204.94 186.26 214.18 174.7 204.99 165.98 195.79 157.26 186.56 168.82 177.32 180.38" fill="none" stroke="#aaa" stroke-miterlimit="10" stroke-width=".5"/>
  <polyline points="195.71 198.08 195.67 198.07 195.64 198.05 186.37 189.26 177.1 180.46 177.07 180.4 177.1 180.32 186.4 168.68 195.7 157.04 195.74 157.01 195.78 157 195.82 157 195.85 157.03 205.12 165.82 214.39 174.61 214.42 174.68 214.4 174.75 205.09 186.4 195.79 198.04 195.76 198.07 195.71 198.08 195.71 198.08 195.71 198.08" fill="none" stroke="#aaa" stroke-miterlimit="10" stroke-width=".5"/>
  <polyline points="195.71 198.08 195.68 198.07 195.66 198.07 191.51 195.99 187.35 193.92 187.34 193.91 187.33 193.9 178.06 185.11 168.79 176.32 168.76 176.25 168.78 176.18 178.09 164.53 187.39 152.89 187.45 152.85 187.52 152.86 191.67 154.94 195.83 157.01 195.88 157.07 195.88 157.15 195.82 157.2 195.74 157.2 191.62 155.14 187.5 153.09 178.25 164.66 169.01 176.23 178.23 184.99 187.46 193.74 191.61 195.81 195.75 197.88 195.81 197.94 195.8 198.02 195.76 198.06 195.71 198.08" fill="none" stroke="#aaa" stroke-miterlimit="10" stroke-width=".5"/>
  <polyline points="177.18 180.49 177.15 180.49 177.13 180.48 172.97 178.41 168.82 176.34 168.77 176.28 168.77 176.2 168.83 176.14 168.91 176.15 173.07 178.22 177.22 180.3 177.27 180.36 177.27 180.44 177.23 180.48 177.18 180.49" fill="none" stroke="#aaa" stroke-miterlimit="10" stroke-width=".5"/>
  <polyline points="189.94 178.44 192.83 181.19 195.72 183.93 198.64 180.28 201.55 176.64 198.66 173.89 195.77 171.15 192.85 174.79 189.94 178.44" fill="none" stroke="#aaa" stroke-miterlimit="10" stroke-width=".5"/>
  <polyline points="195.73 184.19 195.7 184.18 195.66 184.16 192.69 181.34 189.73 178.53 189.69 178.46 189.72 178.39 192.7 174.66 195.68 170.93 195.71 170.9 195.75 170.89 195.79 170.9 195.83 170.92 198.8 173.73 201.77 176.55 201.8 176.62 201.78 176.69 198.79 180.42 195.81 184.15 195.78 184.18 195.74 184.19 195.74 184.19 195.73 184.19" fill="none" stroke="#aaa" stroke-miterlimit="10" stroke-width=".5"/>
  <polyline points="201.69 176.73 201.67 176.73 201.65 176.72 197.92 174.86 194.19 173 194.13 172.94 194.14 172.86 194.2 172.81 194.28 172.81 198.01 174.67 201.74 176.53 201.79 176.59 201.79 176.67 201.75 176.71 201.69 176.73" fill="none" stroke="#aaa" stroke-miterlimit="10" stroke-width=".5"/>
</svg>