<?xml version="1.0" encoding="utf-8" ?>
<svg baseProfile="full" height="222" version="1.1" width="222" xmlns="http://www.w3.org/2000/svg" xmlns:ev="http://www.w3.org/2001/xml-events" xmlns:xlink="http://www.w3.org/1999/xlink"><defs />
  <polyline fill="none" points ="33.91 203.02 34.5 203.84 35.07 204.67 35.69 205.64 36.27 206.63 36.9 207.77 37.5 208.93 38.14 210.25 38.75 211.59 42.07 205.31 46.57 199.87 49.01 198.1 51.68 196.7 52.68 195.04 52.22 193.05 49.36 186.43 46.31 179.9 50.3 183.49 54.31 187.05 53.23 186.84 51.74 186.3 48.16 185.57 44.55 186.04 40.52 189.52 38.67 194.62" stroke="#aaa" stroke-width="1"/>
  <polyline fill="none" points ="34.75 197.4 35.27 198.17 35.76 198.97 36.3 199.9 36.81 200.84 37.36 201.94 37.89 203.06 38.45 204.34 38.98 205.64 41.76 199.81 45.6 194.67 47.65 193.06 49.92 191.81 50.77 190.33 50.4 188.55 48.01 182.42 45.48 176.35 48.85 179.86 52.2 183.39 51.29 183.35 50 182.88 46.95 182.27 43.9 182.78 40.43 186.27 38.9 191.06" stroke="#aaa" stroke-width="1"/>
  <polyline fill="none" points ="35.22 192.14 35.7 192.88 36.16 193.64 36.66 194.53 37.12 195.44 37.63 196.51 38.12 197.59 38.64 198.85 39.13 200.12 41.57 194.68 44.99 189.81 46.79 188.33 48.81 187.19 49.56 185.83 49.24 184.2 47.15 178.48 44.93 172.79 47.91 176.17 50.84 179.58 50.05 179.62 48.89 179.19 46.19 178.66 43.49 179.17 40.38 182.57 39.05 187.06" stroke="#aaa" stroke-width="1"/>
  <polyline fill="none" points ="35.29 187.33 35.77 188.03 36.22 188.75 36.71 189.62 37.18 190.5 37.69 191.54 38.17 192.6 38.69 193.84 39.18 195.09 41.52 189.95 44.79 185.36 46.51 183.95 48.45 182.87 49.16 181.57 48.85 180.03 46.85 174.61 44.72 169.24 47.57 172.41 50.38 175.6 49.62 175.62 48.52 175.21 45.93 174.69 43.35 175.17 40.38 178.35 39.1 182.59" stroke="#aaa" stroke-width="1"/>
  <polyline fill="none" points ="34.97 182.87 35.48 183.55 35.97 184.25 36.5 185.08 37.01 185.94 37.56 186.96 38.07 188 38.64 189.23 39.16 190.46 41.6 185.55 44.94 181.23 46.73 179.86 48.71 178.79 49.44 177.51 49.11 175.99 47.02 170.81 44.79 165.69 47.73 168.58 50.66 171.48 49.87 171.39 48.76 170.98 46.11 170.44 43.44 170.84 40.43 173.7 39.08 177.71" stroke="#aaa" stroke-width="1"/>
  <polyline fill="none" points ="34.34 178.65 34.92 179.3 35.46 179.98 36.07 180.79 36.63 181.63 37.26 182.63 37.84 183.66 38.48 184.86 39.08 186.1 41.74 181.38 45.3 177.32 47.25 175.96 49.36 174.87 50.15 173.59 49.78 172.05 47.49 167.05 45.03 162.13 48.19 164.72 51.39 167.27 50.52 167.02 49.36 166.59 46.52 166 43.65 166.3 40.5 168.78 38.99 172.57" stroke="#aaa" stroke-width="1"/>
  <polyline fill="none" points ="33.72 174.51 34.38 175.13 35.01 175.79 35.7 176.58 36.36 177.4 37.07 178.39 37.75 179.4 38.48 180.6 39.17 181.83 42.13 177.29 45.96 173.48 48.13 172.14 50.42 171.02 51.27 169.72 50.85 168.14 48.29 163.31 45.55 158.58 48.92 160.86 52.37 163.02 51.43 162.6 50.19 162.14 47.17 161.48 44.08 161.67 40.79 163.77 39.09 167.33" stroke="#aaa" stroke-width="1"/>
  <polyline fill="none" points ="32.94 170.36 33.69 170.96 34.4 171.59 35.19 172.36 35.94 173.16 36.76 174.12 37.53 175.12 38.37 176.31 39.16 177.53 42.42 173.18 46.5 169.63 48.89 168.29 51.34 167.14 52.26 165.84 51.79 164.22 48.98 159.56 45.94 155.02 49.52 157.01 53.21 158.78 52.22 158.2 50.89 157.71 47.68 156.99 44.39 157.07 40.99 158.8 39.08 162.12" stroke="#aaa" stroke-width="1"/>
  <polyline fill="none" points ="32.02 166.15 32.85 166.72 33.66 167.33 34.54 168.07 35.38 168.85 36.29 169.79 37.16 170.77 38.1 171.94 38.99 173.15 42.48 169.02 46.74 165.7 49.32 164.39 51.93 163.22 52.93 161.91 52.43 160.28 49.39 155.79 46.1 151.47 49.86 153.17 53.73 154.56 52.72 153.85 51.3 153.32 47.93 152.55 44.47 152.54 41.02 153.93 38.9 156.99" stroke="#aaa" stroke-width="1"/>
  <polyline fill="none" points ="31.3 161.91 32.22 162.46 33.12 163.04 34.1 163.75 35.05 164.51 36.07 165.42 37.05 166.38 38.09 167.53 39.08 168.74 42.8 164.83 47.23 161.75 49.98 160.46 52.75 159.27 53.82 157.98 53.29 156.32 50.03 152.01 46.49 147.92 50.42 149.34 54.45 150.36 53.43 149.53 51.92 148.96 48.41 148.14 44.81 148.03 41.33 149.12 39.01 151.9" stroke="#aaa" stroke-width="1"/>
  <polyline fill="none" points ="30.1 157.84 31.15 158.36 32.17 158.92 33.28 159.6 34.34 160.33 35.48 161.2 36.57 162.14 37.72 163.25 38.82 164.42 42.85 160.71 47.54 157.88 50.88 156.55 54.27 155.39 56.21 154.33 57.18 152.4 56.26 148.25 54.48 144.36 56.51 145.31 58.3 146.13 55.82 145.27 53.3 144.54 49.17 143.68 44.96 143.44 41.38 144.23 38.75 146.7" stroke="#aaa" stroke-width="1"/>
  <polyline fill="none" points ="28.54 153.83 29.76 154.32 30.96 154.87 32.23 155.52 33.48 156.24 34.8 157.09 36.07 158.02 37.41 159.11 38.68 160.29 43.09 156.78 48.08 154.16 51.85 152.81 55.66 151.61 58.04 150.52 59.68 148.54 59.63 144.6 58.39 140.81 60.02 141.48 60.76 141.83 57.67 140.85 54.54 140 49.95 139.08 45.3 138.71 41.6 139.21 38.61 141.33" stroke="#aaa" stroke-width="1"/>
  <polyline fill="none" points ="26.67 149.89 28.09 150.38 29.5 150.92 30.99 151.55 32.45 152.26 33.99 153.09 35.48 154 37.04 155.08 38.53 156.25 43.38 152.95 48.71 150.51 52.91 149.14 57.14 147.9 59.9 146.75 62.05 144.71 62.56 140.98 61.66 137.25 63.2 137.7 63.11 137.5 59.5 136.36 55.84 135.41 50.79 134.41 45.68 133.9 41.84 134.15 38.47 135.86" stroke="#aaa" stroke-width="1"/>
  <polyline fill="none" points ="24.58 145.92 26.22 146.41 27.85 146.94 29.58 147.56 31.28 148.24 33.07 149.06 34.82 149.95 36.63 151.01 38.38 152.17 43.63 149.11 49.28 146.84 53.87 145.46 58.48 144.16 61.57 142.95 64.11 140.87 65.02 137.34 64.34 133.7 65.96 133.88 65.15 133.18 61.12 131.89 57.01 130.84 51.55 129.76 46.03 129.12 42.04 129.16 38.32 130.43" stroke="#aaa" stroke-width="1"/>
  <polyline fill="none" points ="22.71 141.79 24.57 142.29 26.42 142.82 28.38 143.43 30.33 144.1 32.35 144.88 34.34 145.76 36.38 146.79 38.37 147.93 43.89 145.12 49.72 143.02 54.61 141.66 59.51 140.32 62.87 139.07 65.74 136.97 66.94 133.67 66.42 130.15 68.11 129.88 66.76 128.92 62.42 127.49 57.98 126.38 52.22 125.24 46.39 124.47 42.3 124.33 38.32 125.17" stroke="#aaa" stroke-width="1"/>
  <polyline fill="none" points ="21.41 137.47 23.43 137.98 25.45 138.51 27.59 139.1 29.73 139.75 31.94 140.5 34.11 141.33 36.32 142.3 38.48 143.39 44.07 140.87 49.9 138.97 54.94 137.64 59.97 136.3 63.44 135.04 66.48 132.97 67.75 129.91 67.23 126.59 68.85 125.87 67.39 124.77 62.96 123.24 58.41 122.09 52.55 120.92 46.64 120.07 42.52 119.78 38.45 120.2" stroke="#aaa" stroke-width="1"/>
  <polyline fill="none" points ="20.88 132.83 22.98 133.35 25.08 133.87 27.32 134.44 29.55 135.05 31.85 135.74 34.13 136.51 36.41 137.39 38.64 138.39 44.06 136.21 49.66 134.54 54.64 133.29 59.59 131.99 63.03 130.77 66.08 128.8 67.36 126.06 66.84 123.04 68.37 122.01 66.91 120.78 62.58 119.23 58.11 118.09 52.39 116.93 46.62 116.04 42.62 115.64 38.62 115.69" stroke="#aaa" stroke-width="1"/>
  <polyline fill="none" points ="21.35 127.85 23.41 128.36 25.48 128.85 27.7 129.38 29.92 129.94 32.19 130.55 34.44 131.22 36.66 131.98 38.85 132.84 43.83 131.06 48.93 129.66 53.59 128.54 58.22 127.35 61.47 126.23 64.4 124.44 65.62 122.11 65.15 119.49 66.55 118.28 65.17 116.98 61.14 115.49 56.97 114.42 51.64 113.34 46.28 112.46 42.57 111.98 38.84 111.73" stroke="#aaa" stroke-width="1"/>
  <polyline fill="none" points ="22.58 122.58 24.51 123.08 26.46 123.54 28.58 124.02 30.69 124.51 32.84 125.02 34.98 125.58 37.05 126.19 39.08 126.88 43.4 125.54 47.8 124.45 51.95 123.5 56.07 122.46 59.01 121.47 61.68 119.94 62.82 118.08 62.43 115.93 63.79 114.81 63.07 113.33 60.05 111.93 56.84 111.01 52.22 110.01 47.56 109.22 43.32 108.64 39.08 108.19" stroke="#aaa" stroke-width="1"/>
  <polyline fill="none" points ="24.29 117.27 26.06 117.76 27.85 118.19 29.8 118.63 31.76 119.05 33.72 119.46 35.69 119.89 37.51 120.32 39.31 120.8 42.88 119.92 46.47 119.14 50.06 118.37 53.61 117.49 56.21 116.65 58.62 115.39 59.65 114.04 59.38 112.38 60.57 111.21 60.16 109.72 57.78 108.46 55.19 107.67 51.26 106.79 47.3 106.07 43.3 105.41 39.31 104.76" stroke="#aaa" stroke-width="1"/>
  <polyline fill="none" points ="25.74 112.11 27.4 112.61 29.08 113.04 30.93 113.45 32.79 113.83 34.61 114.16 36.42 114.48 37.96 114.73 39.5 114.97 42.32 114.53 45.15 114.04 48.28 113.42 51.38 112.68 53.76 111.95 56.01 110.93 56.97 110.05 56.85 108.82 57.89 107.55 57.66 106.02 55.75 104.86 53.6 104.17 50.23 103.39 46.83 102.71 43.15 101.96 39.5 101.08" stroke="#aaa" stroke-width="1"/>
  <polyline fill="none" points ="26.59 107.26 28.27 107.8 29.98 108.25 31.9 108.7 33.83 109.08 35.58 109.38 37.32 109.61 38.48 109.71 39.64 109.7 41.69 109.64 43.74 109.38 46.64 108.86 49.52 108.21 51.89 107.54 54.18 106.67 55.07 106.1 54.9 105.27 56.03 103.85 56.11 102.12 54.55 100.98 52.69 100.33 49.64 99.59 46.56 98.91 43.06 98.01 39.64 96.85" stroke="#aaa" stroke-width="1"/>
  <polyline fill="none" points ="26.04 103.02 27.69 103.59 29.36 104.07 31.38 104.56 33.42 104.96 35.3 105.25 37.2 105.41 38.47 105.39 39.7 105.1 41.79 105.42 43.92 105.28 46.88 104.81 49.8 104.15 52.1 103.49 54.32 102.64 55.08 102.13 54.43 101.72 55.75 100.03 56.11 97.99 54.69 96.75 52.88 96.09 49.82 95.31 46.74 94.55 43.16 93.45 39.72 91.94" stroke="#aaa" stroke-width="1"/>
  <polyline fill="none" points ="24.24 99.09 25.98 99.72 27.76 100.26 30.06 100.84 32.38 101.31 34.58 101.63 36.8 101.76 38.32 101.64 39.73 101.12 42.03 101.74 44.45 101.68 47.76 101.2 51.01 100.47 53.48 99.75 55.86 98.84 56.47 98.23 55.47 98.16 57.09 96.1 57.7 93.64 56.25 92.2 54.29 91.46 50.92 90.58 47.54 89.7 43.54 88.32 39.76 86.41" stroke="#aaa" stroke-width="1"/>
  <polyline fill="none" points ="21.46 95.32 23.39 96.07 25.37 96.69 28.08 97.4 30.83 97.98 33.49 98.36 36.17 98.5 38.04 98.31 39.73 97.57 42.4 98.45 45.24 98.44 49.08 97.91 52.87 97.05 55.67 96.23 58.4 95.19 58.83 94.55 57.63 94.61 59.61 92.11 60.44 89.13 58.84 87.44 56.6 86.57 52.7 85.54 48.8 84.48 44.13 82.8 39.76 80.45" stroke="#aaa" stroke-width="1"/>
  <polyline fill="none" points ="18.17 91.63 20.32 92.5 22.53 93.22 25.74 94.08 28.99 94.78 32.19 95.25 35.42 95.42 37.69 95.18 39.73 94.23 42.82 95.34 46.16 95.36 50.64 94.76 55.05 93.76 58.29 92.81 61.43 91.61 61.76 90.92 60.35 91.06 62.71 88.09 63.77 84.55 61.94 82.56 59.35 81.55 54.82 80.34 50.29 79.1 44.83 77.1 39.76 74.28" stroke="#aaa" stroke-width="1"/>
  <polyline fill="none" points ="14.91 87.84 17.17 88.82 19.51 89.61 23.21 90.65 26.96 91.48 30.76 92.07 34.6 92.28 37.31 91.99 39.74 90.83 43.24 92.17 47.06 92.23 52.15 91.57 57.17 90.44 60.82 89.37 64.37 88.01 64.57 87.3 62.94 87.5 65.68 84.07 66.96 80 64.93 77.72 62.01 76.57 56.87 75.19 51.73 73.77 45.53 71.45 39.77 68.18" stroke="#aaa" stroke-width="1"/>
  <polyline fill="none" points ="12.4 83.9 14.5 84.93 16.71 85.71 20.8 86.92 24.97 87.9 29.35 88.62 33.78 88.88 36.95 88.53 39.76 87.1 43.57 88.71 47.78 88.84 53.35 88.14 58.83 86.91 62.77 85.76 66.59 84.29 66.53 83.65 64.72 83.95 67.8 80.11 69.33 75.55 67.2 73.05 64.04 71.78 58.44 70.28 52.85 68.71 46.06 66.09 39.79 62.4" stroke="#aaa" stroke-width="1"/>
  <polyline fill="none" points ="12.01 79.87 11.95 80.4 13.33 81 17.55 82.44 21.84 83.59 27.07 84.61 32.36 85.07 36.29 84.71 39.71 82.87 43.65 84.8 48.12 85.04 53.94 84.36 59.66 83.08 63.67 81.9 67.57 80.4 67.06 79.96 65.07 80.39 68.45 76.22 70.29 71.29 68.21 68.63 64.97 67.31 59.16 65.72 53.37 64.05 46.26 61.17 39.74 57.12" stroke="#aaa" stroke-width="1"/>
  <polyline fill="none" points ="14.12 76.34 12.46 75.96 12.9 76.56 16.85 78 20.89 79.15 26.36 80.29 31.91 80.78 36.18 80.3 39.77 78.07 43.64 80.36 48.21 80.77 54.01 80.17 59.71 78.9 63.55 77.75 67.28 76.3 66.11 76.22 63.92 76.84 67.56 72.41 69.76 67.23 67.94 64.52 64.81 63.18 59.07 61.58 53.38 59.86 46.25 56.77 39.81 52.41" stroke="#aaa" stroke-width="1"/>
  <polyline fill="none" points ="17.5 72.84 15.47 72.18 14.35 72.14 17.82 73.48 21.4 74.54 26.69 75.67 32.09 76.08 36.43 75.39 39.85 72.75 43.46 75.43 47.99 76.08 53.52 75.6 58.95 74.4 62.37 73.35 65.7 72.02 63.69 72.42 61.22 73.28 65.1 68.67 67.76 63.35 66.4 60.68 63.55 59.37 58.17 57.81 52.84 56.09 45.97 52.81 39.9 48.22" stroke="#aaa" stroke-width="1"/>
  <polyline fill="none" points ="21.71 69.25 19.19 68.28 16.89 67.69 19.74 68.89 22.69 69.81 27.55 70.85 32.52 71.11 36.75 70.12 39.8 67.1 43.01 70.16 47.41 71.12 52.47 70.8 57.43 69.7 60.24 68.79 62.93 67.63 59.96 68.53 56.96 69.73 61.16 64.97 64.43 59.58 63.69 57.05 61.22 55.77 56.37 54.28 51.6 52.59 45.26 49.15 39.85 44.36" stroke="#aaa" stroke-width="1"/>
  <polyline fill="none" points ="29.29 65.47 25.37 64.11 21.35 63.24 22.96 64.35 24.92 65.07 29.08 65.99 33.34 66.07 37.35 64.69 39.93 61.37 42.68 64.75 46.87 66.09 51.21 65.95 55.44 64.94 57.26 64.24 58.51 63.2 53.66 64.44 48.94 66.18 54.42 61.24 59.44 55.85 60.09 53.68 58.36 52.22 54.31 50.78 50.33 49.16 44.63 45.52 39.99 40.59" stroke="#aaa" stroke-width="1"/>
  <polyline fill="none" points ="30.05 61.71 26.37 60.1 22.58 58.83 24.14 59.76 25.97 60.4 29.89 61.22 33.9 61.15 37.79 59.4 40.05 55.78 42.48 59.48 46.57 61.19 50.66 61.19 54.66 60.28 56.34 59.65 57.53 58.83 52.87 60.55 48.35 62.62 53.27 57.53 57.75 52.07 58.31 49.98 56.71 48.57 53.02 47.22 49.44 45.61 44.2 41.75 40.12 36.67" stroke="#aaa" stroke-width="1"/>
  <polyline fill="none" points ="30.47 58 27.01 56.14 23.46 54.52 24.97 55.32 26.67 55.91 30.37 56.66 34.14 56.46 37.91 54.34 39.93 50.48 42.1 54.43 46.08 56.51 49.94 56.62 53.71 55.79 55.27 55.21 56.41 54.56 52.02 56.69 47.75 59.07 52.27 53.78 56.37 48.19 56.88 46.15 55.37 44.76 51.93 43.45 48.61 41.83 43.68 37.73 40 32.47" stroke="#aaa" stroke-width="1"/>
  <polyline fill="none" points ="30.8 54.32 27.45 52.24 24.02 50.32 25.5 51.01 27.13 51.58 30.72 52.28 34.35 51.99 38.08 49.53 39.95 45.44 41.97 49.63 45.9 52.05 49.63 52.25 53.29 51.46 54.78 50.91 55.9 50.38 51.66 52.86 47.52 55.52 51.81 50 55.7 44.21 56.17 42.18 54.69 40.78 51.39 39.49 48.23 37.84 43.47 33.48 40.02 28" stroke="#aaa" stroke-width="1"/>
  <polyline fill="none" points ="31.07 50.67 27.76 48.36 24.4 46.16 25.85 46.77 27.44 47.33 30.98 48 34.55 47.63 38.27 44.87 40.05 40.53 41.97 44.97 45.9 47.7 49.56 47.98 53.16 47.21 54.63 46.68 55.73 46.24 51.57 49.04 47.5 51.96 51.64 46.19 55.39 40.18 55.84 38.14 54.38 36.72 51.14 35.43 48.09 33.73 43.42 29.11 40.12 23.4" stroke="#aaa" stroke-width="1"/>
  <polyline fill="none" points ="31.17 47.02 27.87 44.5 24.54 42.04 25.97 42.57 27.55 43.12 31.06 43.78 34.58 43.33 38.31 40.28 40.03 35.7 41.89 40.38 45.83 43.4 49.45 43.76 53.02 43.01 54.48 42.48 55.56 42.14 51.46 45.23 47.41 48.41 51.46 42.38 55.11 36.13 55.54 34.06 54.09 32.61 50.89 31.31 47.91 29.57 43.3 24.68 40.11 18.72" stroke="#aaa" stroke-width="1"/>
  <polyline fill="none" points ="31.24 43.42 27.9 40.66 24.55 37.94 25.97 38.41 27.54 38.96 31.06 39.6 34.57 39.09 38.34 35.76 40.02 30.94 41.84 35.86 45.81 39.17 49.42 39.59 53 38.85 54.47 38.31 55.53 38.06 51.44 41.43 47.39 44.86 51.38 38.56 54.98 32.06 55.4 29.95 53.95 28.46 50.77 27.14 47.82 25.35 43.23 20.18 40.1 13.98" stroke="#aaa" stroke-width="1"/>
  <polyline fill="none" points ="31.26 39.85 27.84 36.86 24.44 33.87 25.85 34.29 27.42 34.84 30.97 35.48 34.52 34.91 38.34 31.32 40.02 26.25 41.82 31.42 45.85 34.99 49.48 35.47 53.09 34.74 54.58 34.19 55.64 34 51.53 37.64 47.44 41.3 51.42 34.73 55 27.95 55.41 25.8 53.96 24.27 50.75 22.92 47.82 21.06 43.2 15.63 40.1 9.16" stroke="#aaa" stroke-width="1"/>
</svg>