<?xml version="1.0" encoding="UTF-8"?>
<svg id="Ebene_1" xmlns="http://www.w3.org/2000/svg" width="222" height="222" viewBox="0 0 222 222">
  <polyline points="206.72 2.77 211.6 7.3 216.17 12.15" fill="none" stroke="#aaa" stroke-miterlimit="10" stroke-width=".5"/>
  <polyline points="200.76 2.77 205.37 7.77 209.66 13.06 212.51 17.05 215.15 21.17 216.88 24.12 218.61 27.07" fill="none" stroke="#aaa" stroke-miterlimit="10" stroke-width=".5"/>
  <polyline points="194.77 2.77 199.11 8.23 203.11 13.92 205.86 18.35 208.38 22.89 210.14 26.31 211.88 29.74 213.26 32.23 214.88 34.56 216.6 36.23 218.67 37.42" fill="none" stroke="#aaa" stroke-miterlimit="10" stroke-width=".5"/>
  <polyline points="188.86 2.77 192.92 8.65 196.65 14.73 199.29 19.53 201.72 24.43 203.48 28.22 205.24 32.01 206.7 34.89 208.41 37.62 210.23 39.72 212.43 41.41 215.36 42.75 218.5 43.53" fill="none" stroke="#aaa" stroke-miterlimit="10" stroke-width=".5"/>
  <polyline points="183.16 2.77 186.94 9.01 190.42 15.42 192.92 20.54 195.26 25.73 197.02 29.83 198.79 33.91 200.33 37.1 202.11 40.15 204.02 42.59 206.33 44.65 209.3 46.39 212.54 47.59" fill="none" stroke="#aaa" stroke-miterlimit="10" stroke-width=".5"/>
  <polyline points="177.74 2.77 181.25 9.28 184.49 15.93 186.87 21.3 189.12 26.72 190.85 31.05 192.63 35.35 194.21 38.78 196.06 42.07 198.04 44.76 200.41 47.1 203.41 49.14 206.71 50.68 211.27 52.08 215.97 53.03" fill="none" stroke="#aaa" stroke-miterlimit="10" stroke-width=".5"/>
  <polyline points="219.99 55.58 219.98 53.19 220.61 50.85" fill="none" stroke="#aaa" stroke-miterlimit="10" stroke-width=".5"/>
  <polyline points="172.64 2.77 175.89 9.46 178.9 16.26 181.16 21.78 183.3 27.35 185 31.83 186.78 36.29 188.38 39.88 190.26 43.34 192.28 46.21 194.69 48.76 197.7 51.03 201.01 52.81 205.5 54.51 210.15 55.74" fill="none" stroke="#aaa" stroke-miterlimit="10" stroke-width=".5"/>
  <polyline points="167.81 2.77 170.81 9.55 173.6 16.42 175.73 22.03 177.77 27.67 179.43 32.25 181.18 36.79 182.8 40.49 184.69 44.06 186.72 47.06 189.15 49.76 192.13 52.19 195.43 54.16 199.82 56.07 204.39 57.54 210.6 59.03 216.89 60.17 215.16 59.15 214.32 57.33 214.45 54.71 215.17 52.16 216.58 48.68 218.16 45.28" fill="none" stroke="#aaa" stroke-miterlimit="10" stroke-width=".5"/>
  <polyline points="220.29 12.8 218.09 9.11 214.98 6.13" fill="none" stroke="#aaa" stroke-miterlimit="10" stroke-width=".5"/>
  <polyline points="163.16 2.77 165.92 9.58 168.5 16.46 170.5 22.11 172.45 27.77 174.06 32.4 175.77 36.98 177.39 40.75 179.27 44.39 181.31 47.47 183.73 50.27 186.67 52.82 189.94 54.94 194.21 57.01 198.67 58.67 204.65 60.38 210.73 61.75 209.19 60.4 208.6 58.43 208.86 55.65 209.65 52.95 211.09 49.38 212.69 45.88 214.6 41.83 216.48 37.76 218.28 33.52 219.82 29.17" fill="none" stroke="#aaa" stroke-miterlimit="10" stroke-width=".5"/>
  <polyline points="158.64 2.77 161.17 9.58 163.54 16.43 165.41 22.08 167.25 27.73 168.81 32.38 170.49 36.98 172.09 40.78 173.96 44.46 175.99 47.61 178.39 50.49 181.29 53.12 184.5 55.36 188.64 57.57 192.99 59.38 198.73 61.28 204.57 62.85 203.25 61.21 202.85 59.13 203.23 56.23 204.08 53.41 205.53 49.78 207.14 46.22 209.04 42.16 210.9 38.08 212.69 33.85 214.25 29.52 215.39 25.34 216.05 21.06 216.03 17.1 215.19 13.23 213.31 9.58 210.53 6.55" fill="none" stroke="#aaa" stroke-miterlimit="10" stroke-width=".5"/>
  <polyline points="154.18 2.77 156.47 9.51 158.64 16.29 160.38 21.91 162.12 27.52 163.62 32.17 165.26 36.76 166.84 40.6 168.7 44.31 170.72 47.52 173.09 50.48 175.93 53.21 179.08 55.56 183.09 57.9 187.31 59.86 192.8 61.93 198.42 63.68 197.31 61.8 197.08 59.62 197.56 56.62 198.47 53.71 199.93 50.05 201.53 46.46 203.41 42.4 205.25 38.34 207.02 34.13 208.59 29.85 209.77 25.71 210.51 21.47 210.63 17.56 209.99 13.7 208.44 10.1 206 7.03" fill="none" stroke="#aaa" stroke-miterlimit="10" stroke-width=".5"/>
  <polyline points="149.74 2.77 151.79 9.4 153.76 16.05 155.37 21.61 157.01 27.16 158.45 31.79 160.04 36.38 161.61 40.25 163.45 44.01 165.46 47.29 167.8 50.33 170.58 53.16 173.67 55.64 177.55 58.12 181.63 60.23 186.88 62.47 192.26 64.39 191.39 62.3 191.31 60.02 191.88 56.95 192.83 53.97 194.29 50.3 195.9 46.68 197.74 42.65 199.56 38.61 201.31 34.45 202.88 30.22 204.1 26.13 204.93 21.95 205.18 18.09 204.75 14.26 203.51 10.72 201.42 7.6" fill="none" stroke="#aaa" stroke-miterlimit="10" stroke-width=".5"/>
  <polyline points="145.3 2.77 147.12 9.26 148.88 15.77 150.37 21.26 151.9 26.74 153.29 31.36 154.84 35.93 156.39 39.85 158.21 43.64 160.2 47 162.52 50.13 165.24 53.07 168.27 55.68 172 58.3 175.96 60.57 180.96 62.97 186.1 65.06 185.46 62.79 185.52 60.41 186.18 57.28 187.18 54.23 188.65 50.56 190.24 46.93 192.05 42.94 193.84 38.94 195.57 34.83 197.14 30.66 198.39 26.63 199.3 22.51 199.69 18.71 199.47 14.91 198.54 11.42 196.81 8.26" fill="none" stroke="#aaa" stroke-miterlimit="10" stroke-width=".5"/>
  <polyline points="140.87 2.77 142.45 9.11 144.02 15.45 145.37 20.86 146.8 26.24 148.13 30.86 149.64 35.41 151.17 39.37 152.97 43.21 154.95 46.64 157.24 49.87 159.9 52.92 162.86 55.67 166.46 58.42 170.29 60.86 175.04 63.41 179.94 65.67 179.53 63.24 179.73 60.78 180.47 57.6 181.51 54.5 182.97 50.84 184.55 47.22 186.33 43.28 188.08 39.32 189.79 35.28 191.36 31.18 192.65 27.21 193.63 23.16 194.14 19.43 194.14 15.66 193.5 12.24 192.12 9.05" fill="none" stroke="#aaa" stroke-miterlimit="10" stroke-width=".5"/>
  <polyline points="136.47 2.77 137.82 8.91 139.18 15.05 140.41 20.36 141.73 25.64 143.01 30.23 144.47 34.76 145.98 38.75 147.76 42.64 149.72 46.16 151.98 49.49 154.58 52.64 157.47 55.54 160.94 58.42 164.62 61.02 169.12 63.72 173.78 66.14 173.59 63.59 173.91 61.05 174.73 57.85 175.8 54.73 177.25 51.11 178.8 47.52 180.53 43.65 182.25 39.77 183.93 35.81 185.49 31.8 186.8 27.92 187.86 23.96 188.5 20.3 188.7 16.59 188.35 13.23 187.35 10.02" fill="none" stroke="#aaa" stroke-miterlimit="10" stroke-width=".5"/>
  <polyline points="132.15 2.77 133.27 8.67 134.44 14.55 135.54 19.73 136.75 24.87 137.97 29.42 139.38 33.91 140.87 37.92 142.62 41.84 144.55 45.43 146.77 48.86 149.31 52.12 152.12 55.15 155.44 58.16 158.98 60.9 163.22 63.73 167.63 66.3 167.63 63.67 168.06 61.08 168.94 57.9 170.03 54.79 171.46 51.24 172.97 47.72 174.65 43.95 176.31 40.17 177.95 36.33 179.49 32.44 180.82 28.67 181.93 24.82 182.69 21.25 183.08 17.62 182.99 14.35 182.35 11.13" fill="none" stroke="#aaa" stroke-miterlimit="10" stroke-width=".5"/>
  <polyline points="127.98 2.77 128.89 8.35 129.86 13.92 130.83 18.9 131.93 23.86 133.09 28.33 134.44 32.74 135.9 36.76 137.6 40.69 139.5 44.34 141.66 47.84 144.12 51.19 146.83 54.34 149.99 57.45 153.36 60.32 157.33 63.25 161.47 65.93 161.65 63.29 162.17 60.68 163.09 57.56 164.19 54.5 165.58 51.06 167.04 47.65 168.64 44.02 170.24 40.38 171.82 36.69 173.32 32.96 174.64 29.33 175.8 25.64 176.64 22.18 177.19 18.67 177.34 15.49 177.04 12.33" fill="none" stroke="#aaa" stroke-miterlimit="10" stroke-width=".5"/>
  <polyline points="124.04 2.77 124.73 7.94 125.52 13.1 126.36 17.83 127.35 22.54 128.44 26.87 129.72 31.16 131.13 35.14 132.77 39.04 134.61 42.72 136.7 46.27 139.05 49.69 141.65 52.92 144.61 56.11 147.8 59.07 151.46 62.06 155.31 64.81 155.64 62.2 156.24 59.63 157.17 56.62 158.26 53.66 159.59 50.37 160.98 47.11 162.5 43.66 164.01 40.21 165.51 36.71 166.95 33.18 168.25 29.73 169.41 26.23 170.32 22.94 170.99 19.59 171.32 16.54 171.3 13.48" fill="none" stroke="#aaa" stroke-miterlimit="10" stroke-width=".5"/>
  <polyline points="120.37 2.77 120.86 7.42 121.47 12.06 122.18 16.45 123.06 20.82 124.06 24.97 125.26 29.06 126.61 32.97 128.17 36.8 129.92 40.47 131.9 44.02 134.13 47.47 136.57 50.76 139.33 53.98 142.29 57 145.63 59.99 149.15 62.77 149.59 60.24 150.24 57.76 151.18 54.9 152.23 52.08 153.49 48.99 154.8 45.92 156.21 42.7 157.63 39.47 159.04 36.2 160.39 32.91 161.64 29.68 162.77 26.42 163.7 23.32 164.45 20.18 164.91 17.3 165.09 14.39" fill="none" stroke="#aaa" stroke-miterlimit="10" stroke-width=".5"/>
  <polyline points="116.95 2.77 117.24 6.74 117.68 10.71 118.28 14.67 119.03 18.6 119.95 22.49 121.04 26.34 122.31 30.13 123.77 33.85 125.43 37.5 127.28 41.05 129.34 44.51 131.61 47.84 134.12 51.07 136.83 54.13 139.82 57.1 142.99 59.85 143.52 57.45 144.21 55.09 145.12 52.42 146.14 49.78 147.31 46.92 148.53 44.07 149.83 41.1 151.14 38.13 152.43 35.12 153.69 32.09 154.86 29.12 155.94 26.11 156.85 23.25 157.63 20.36 158.17 17.67 158.5 14.96" fill="none" stroke="#aaa" stroke-miterlimit="10" stroke-width=".5"/>
  <polyline points="113.69 2.77 113.8 5.59 114.08 8.41 114.55 11.69 115.18 14.94 116.01 18.52 116.99 22.06 118.17 25.79 119.51 29.47 121.05 33.22 122.75 36.9 124.65 40.52 126.72 44.04 128.96 47.41 131.41 50.62 134.01 53.59 136.83 56.34 137.43 54.09 138.14 51.87 139.04 49.4 140 46.95 141.1 44.33 142.22 41.72 143.41 39.01 144.6 36.3 145.78 33.57 146.93 30.82 148.01 28.11 149.02 25.39 149.89 22.78 150.66 20.14 151.24 17.68 151.66 15.2" fill="none" stroke="#aaa" stroke-miterlimit="10" stroke-width=".5"/>
  <polyline points="110.48 2.78 110.4 4.99 110.52 7.19 110.87 10.02 111.37 12.84 112.11 16.12 112.98 19.37 114.07 22.91 115.29 26.42 116.71 30.05 118.27 33.63 119.98 37.17 121.85 40.63 123.84 43.91 126.01 47.07 128.24 49.91 130.68 52.58 131.33 50.48 132.07 48.41 132.94 46.15 133.86 43.9 134.88 41.53 135.91 39.16 136.99 36.71 138.07 34.27 139.13 31.8 140.17 29.33 141.15 26.9 142.08 24.45 142.91 22.1 143.65 19.73 144.24 17.5 144.71 15.25" fill="none" stroke="#aaa" stroke-miterlimit="10" stroke-width=".5"/>
  <polyline points="107.19 2.8 106.91 4.81 106.89 6.85 107.1 9.45 107.49 12.05 108.13 15.07 108.9 18.07 109.89 21.34 111.01 24.58 112.31 27.93 113.73 31.24 115.28 34.51 116.95 37.71 118.69 40.73 120.58 43.66 122.47 46.27 124.52 48.75 125.23 46.82 126 44.91 126.86 42.86 127.74 40.82 128.69 38.68 129.65 36.54 130.63 34.35 131.61 32.16 132.57 29.97 133.51 27.76 134.4 25.59 135.25 23.41 136.01 21.31 136.72 19.19 137.3 17.19 137.8 15.18" fill="none" stroke="#aaa" stroke-miterlimit="10" stroke-width=".5"/>
  <polyline points="103.72 2.82 103.23 4.65 103.06 6.55 103.13 8.96 103.42 11.37 103.95 14.17 104.64 16.95 105.55 19.98 106.58 22.98 107.77 26.07 109.07 29.13 110.47 32.13 111.97 35.09 113.49 37.84 115.12 40.53 116.68 42.87 118.36 45.13 119.14 43.37 119.95 41.62 120.81 39.78 121.68 37.93 122.58 36.01 123.48 34.1 124.39 32.15 125.29 30.2 126.17 28.25 127.03 26.28 127.84 24.36 128.61 22.42 129.32 20.55 129.98 18.66 130.55 16.87 131.06 15.07" fill="none" stroke="#aaa" stroke-miterlimit="10" stroke-width=".5"/>
  <polyline points="99.98 2.84 99.27 4.53 98.93 6.33 98.86 8.6 99.05 10.86 99.49 13.5 100.11 16.11 100.95 18.97 101.91 21.78 103.02 24.68 104.23 27.55 105.51 30.35 106.86 33.11 108.19 35.65 109.59 38.15 110.86 40.28 112.2 42.36 113.07 40.74 113.93 39.11 114.81 37.41 115.69 35.71 116.57 33.97 117.45 32.23 118.31 30.47 119.15 28.7 119.97 26.94 120.77 25.17 121.52 23.44 122.24 21.69 122.9 20.01 123.53 18.31 124.08 16.69 124.58 15.06" fill="none" stroke="#aaa" stroke-miterlimit="10" stroke-width=".5"/>
  <polyline points="95.85 2.85 94.91 4.43 94.39 6.2 94.18 8.37 94.27 10.55 94.64 13.09 95.21 15.6 96 18.34 96.93 21.04 98 23.83 99.15 26.58 100.35 29.26 101.59 31.92 102.78 34.34 103.99 36.74 105.02 38.75 106.05 40.75 107.01 39.19 107.96 37.61 108.9 36 109.82 34.38 110.72 32.74 111.6 31.09 112.45 29.45 113.28 27.79 114.07 26.15 114.84 24.5 115.55 22.89 116.25 21.27 116.88 19.7 117.49 18.12 118.03 16.62 118.53 15.1" fill="none" stroke="#aaa" stroke-miterlimit="10" stroke-width=".5"/>
  <polyline points="91.26 2.86 90.08 4.4 89.35 6.19 89 8.34 89 10.52 89.31 13.05 89.85 15.54 90.63 18.28 91.56 20.96 92.62 23.74 93.76 26.48 94.93 29.14 96.12 31.79 97.21 34.19 98.28 36.59 99.12 38.58 99.89 40.59 100.99 39.03 102.06 37.44 103.09 35.85 104.09 34.23 105.05 32.62 105.98 30.99 106.86 29.38 107.71 27.75 108.51 26.15 109.29 24.54 110 22.97 110.7 21.38 111.33 19.86 111.93 18.32 112.48 16.86 112.99 15.38" fill="none" stroke="#aaa" stroke-miterlimit="10" stroke-width=".5"/>
  <polyline points="86.15 2.87 84.71 4.43 83.75 6.33 83.25 8.55 83.18 10.82 83.45 13.45 83.99 16.04 84.79 18.87 85.75 21.66 86.86 24.54 88.04 27.39 89.23 30.15 90.42 32.91 91.47 35.39 92.46 37.9 93.17 39.96 93.73 42.06 95.06 40.38 96.36 38.68 97.57 37.02 98.75 35.35 99.84 33.72 100.9 32.07 101.88 30.47 102.83 28.85 103.7 27.28 104.54 25.69 105.3 24.15 106.03 22.59 106.7 21.08 107.33 19.55 107.89 18.07 108.42 16.57" fill="none" stroke="#aaa" stroke-miterlimit="10" stroke-width=".5"/>
  <polyline points="80.55 2.87 78.83 4.53 77.63 6.6 76.99 8.98 76.83 11.44 77.09 14.27 77.64 17.06 78.51 20.11 79.54 23.11 80.74 26.21 82 29.28 83.26 32.25 84.51 35.22 85.58 37.89 86.54 40.6 87.18 42.82 87.57 45.09 89.15 43.26 90.7 41.39 92.11 39.63 93.48 37.83 94.73 36.12 95.94 34.39 97.04 32.72 98.09 31.03 99.06 29.41 99.98 27.76 100.81 26.16 101.6 24.54 102.32 22.95 103 21.35 103.61 19.76 104.18 18.17" fill="none" stroke="#aaa" stroke-miterlimit="10" stroke-width=".5"/>
  <polyline points="74.56 2.88 72.53 4.69 71.08 6.99 70.3 9.6 70.08 12.32 70.32 15.43 70.92 18.5 71.87 21.86 73.01 25.16 74.32 28.57 75.71 31.95 77.08 35.22 78.43 38.49 79.55 41.44 80.53 44.42 81.13 46.88 81.41 49.38 83.25 47.35 85.04 45.3 86.66 43.37 88.24 41.41 89.66 39.56 91.03 37.68 92.27 35.9 93.45 34.08 94.53 32.34 95.55 30.57 96.47 28.85 97.35 27.11 98.14 25.4 98.89 23.66 99.57 21.94 100.2 20.2" fill="none" stroke="#aaa" stroke-miterlimit="10" stroke-width=".5"/>
  <polyline points="68.35 2.88 66.01 4.88 64.3 7.44 63.37 10.32 63.09 13.34 63.33 16.79 63.99 20.19 65.03 23.91 66.29 27.57 67.75 31.35 69.28 35.09 70.78 38.71 72.25 42.34 73.45 45.59 74.48 48.91 75.06 51.63 75.26 54.4 77.35 52.17 79.4 49.9 81.23 47.79 83.01 45.64 84.61 43.63 86.16 41.58 87.54 39.64 88.87 37.67 90.06 35.78 91.2 33.86 92.22 32 93.19 30.11 94.07 28.25 94.89 26.36 95.65 24.48 96.36 22.58" fill="none" stroke="#aaa" stroke-miterlimit="10" stroke-width=".5"/>
  <polyline points="62.13 2.88 59.47 5.07 57.51 7.89 56.43 11.06 56.08 14.39 56.33 18.18 57.04 21.91 58.18 26.01 59.56 30.03 61.16 34.17 62.84 38.29 64.48 42.26 66.06 46.26 67.35 49.84 68.42 53.49 68.99 56.49 69.1 59.53 71.44 57.09 73.73 54.62 75.77 52.32 77.76 49.99 79.54 47.81 81.25 45.59 82.78 43.5 84.25 41.37 85.56 39.34 86.81 37.26 87.94 35.26 89 33.22 89.97 31.22 90.87 29.18 91.71 27.15 92.48 25.09" fill="none" stroke="#aaa" stroke-miterlimit="10" stroke-width=".5"/>
  <polyline points="56.11 2.88 53.14 5.24 50.93 8.3 49.71 11.71 49.29 15.32 49.53 19.41 50.28 23.45 51.51 27.87 52.99 32.21 54.72 36.69 56.53 41.14 58.28 45.43 59.97 49.75 61.32 53.62 62.41 57.56 62.95 60.82 62.94 64.1 65.51 61.49 68.04 58.83 70.27 56.38 72.45 53.88 74.38 51.56 76.25 49.2 77.91 46.98 79.51 44.72 80.93 42.57 82.28 40.37 83.49 38.25 84.64 36.09 85.68 33.96 86.66 31.8 87.56 29.64 88.4 27.45" fill="none" stroke="#aaa" stroke-miterlimit="10" stroke-width=".5"/>
  <polyline points="50.46 2.88 47.21 5.36 44.75 8.61 43.38 12.2 42.89 16.02 43.11 20.34 43.89 24.6 45.17 29.27 46.74 33.86 48.55 38.59 50.45 43.28 52.29 47.81 54.03 52.37 55.4 56.46 56.47 60.63 56.94 64.07 56.78 67.54 59.56 64.79 62.29 62 64.69 59.44 67.04 56.83 69.1 54.42 71.1 51.96 72.87 49.66 74.56 47.31 76.07 45.09 77.5 42.81 78.78 40.62 79.99 38.38 81.09 36.18 82.12 33.94 83.07 31.69 83.96 29.42" fill="none" stroke="#aaa" stroke-miterlimit="10" stroke-width=".5"/>
  <polyline points="45.3 2.89 41.79 5.42 39.09 8.78 37.59 12.46 37.01 16.41 37.2 20.85 37.97 25.24 39.29 30.05 40.9 34.77 42.76 39.63 44.7 44.47 46.56 49.13 48.31 53.83 49.65 58.03 50.64 62.32 50.99 65.89 50.62 69.44 53.58 66.63 56.48 63.76 59.02 61.15 61.5 58.49 63.67 56.04 65.77 53.55 67.6 51.23 69.37 48.85 70.93 46.61 72.41 44.31 73.73 42.1 74.97 39.85 76.1 37.62 77.16 35.36 78.14 33.08 79.05 30.78" fill="none" stroke="#aaa" stroke-miterlimit="10" stroke-width=".5"/>
  <polyline points="40.67 2.89 36.95 5.4 34.02 8.8 32.38 12.48 31.71 16.45 31.84 20.9 32.58 25.3 33.89 30.12 35.5 34.84 37.36 39.71 39.29 44.55 41.12 49.2 42.82 53.9 44.08 58.09 44.93 62.38 45.1 65.94 44.46 69.45 47.57 66.65 50.62 63.79 53.27 61.21 55.85 58.58 58.09 56.18 60.25 53.72 62.13 51.45 63.93 49.12 65.51 46.93 67.01 44.68 68.34 42.52 69.59 40.31 70.72 38.13 71.77 35.91 72.76 33.66 73.68 31.38" fill="none" stroke="#aaa" stroke-miterlimit="10" stroke-width=".5"/>
  <polyline points="36.55 2.89 32.63 5.33 29.48 8.68 27.72 12.25 26.93 16.16 26.98 20.5 27.68 24.79 28.94 29.47 30.51 34.07 32.33 38.78 34.21 43.46 35.96 47.92 37.55 52.45 38.67 56.43 39.32 60.51 39.26 63.89 38.31 67.12 41.55 64.46 44.73 61.75 47.46 59.32 50.12 56.83 52.4 54.58 54.6 52.27 56.49 50.14 58.3 47.95 59.87 45.9 61.36 43.78 62.67 41.75 63.89 39.66 65 37.58 66.03 35.46 67 33.3 67.9 31.1" fill="none" stroke="#aaa" stroke-miterlimit="10" stroke-width=".5"/>
  <polyline points="32.81 2.89 28.74 5.21 25.36 8.45 23.48 11.83 22.57 15.6 22.53 19.74 23.16 23.83 24.35 28.28 25.86 32.63 27.59 37.06 29.38 41.47 31.01 45.63 32.45 49.85 33.39 53.5 33.8 57.24 33.45 60.32 32.15 63.13 35.51 60.7 38.81 58.21 41.6 56.01 44.32 53.74 46.62 51.71 48.84 49.61 50.72 47.69 52.51 45.7 54.05 43.84 55.49 41.92 56.75 40.05 57.93 38.13 58.99 36.2 59.98 34.24 60.92 32.2 61.79 30.13" fill="none" stroke="#aaa" stroke-miterlimit="10" stroke-width=".5"/>
  <polyline points="29.35 2.9 25.13 5.05 21.54 8.13 19.54 11.27 18.51 14.85 18.37 18.71 18.91 22.54 20.02 26.66 21.43 30.69 23.06 34.76 24.73 38.8 26.2 42.54 27.48 46.35 28.2 49.55 28.34 52.82 27.65 55.51 25.99 57.72 29.46 55.61 32.88 53.43 35.71 51.54 38.49 49.56 40.79 47.82 43.01 45.99 44.85 44.34 46.61 42.6 48.09 40.98 49.48 39.28 50.68 37.63 51.79 35.91 52.8 34.17 53.72 32.38 54.62 30.49 55.46 28.58" fill="none" stroke="#aaa" stroke-miterlimit="10" stroke-width=".5"/>
  <polyline points="26.07 2.9 21.72 4.88 17.92 7.76 15.81 10.62 14.63 13.96 14.39 17.5 14.84 21.01 15.84 24.75 17.16 28.39 18.65 32 20.19 35.58 21.5 38.8 22.58 42.09 23.07 44.73 22.92 47.4 21.79 49.55 19.83 50.99 23.41 49.31 26.95 47.55 29.82 46.04 32.65 44.45 34.93 43.06 37.15 41.57 38.94 40.24 40.65 38.81 42.06 37.47 43.38 36.05 44.5 34.64 45.54 33.16 46.47 31.63 47.34 30.05 48.19 28.33 48.99 26.58" fill="none" stroke="#aaa" stroke-miterlimit="10" stroke-width=".5"/>
  <polyline points="22.86 2.9 18.38 4.7 14.36 7.36 12.16 9.92 10.83 13.01 10.48 16.17 10.83 19.34 11.72 22.63 12.94 25.81 14.3 28.88 15.71 31.92 16.82 34.49 17.71 37.14 17.98 39.08 17.51 40.95 15.82 42.31 13.68 42.83 17.37 41.71 21.03 40.53 23.94 39.52 26.82 38.43 29.08 37.49 31.28 36.44 33.02 35.5 34.68 34.44 36.01 33.44 37.24 32.32 38.29 31.2 39.23 29.99 40.11 28.68 40.9 27.33 41.71 25.79 42.48 24.23" fill="none" stroke="#aaa" stroke-miterlimit="10" stroke-width=".5"/>
  <polyline points="19.6 2.9 14.98 4.53 10.75 6.97 8.47 9.22 6.97 12.04 6.52 14.79 6.77 17.56 7.55 20.31 8.67 22.95 9.89 25.32 11.18 27.64 12.08 29.33 12.81 31.08 12.86 32.1 12.09 32.7 9.77 32.53 7.52 31.93 11.33 31.7 15.14 31.43 18.09 31.18 21.03 30.87 23.26 30.57 25.46 30.17 27.12 29.76 28.74 29.23 29.98 28.68 31.14 27.99 32.1 27.22 32.97 26.35 33.78 25.32 34.51 24.24 35.3 22.91 36.05 21.57" fill="none" stroke="#aaa" stroke-miterlimit="10" stroke-width=".5"/>
  <polyline points="9.2 19.99 12.18 20.82 15.16 21.65 17.36 22.24 19.56 22.8 21.14 23.14 22.74 23.38 23.87 23.46 25 23.37 25.88 23.14 26.69 22.73 27.45 22.11 28.12 21.4 28.89 20.39 29.62 19.35" fill="none" stroke="#aaa" stroke-miterlimit="10" stroke-width=".5"/>
  <polyline points="6.54 22.78 7.16 23.38 7.84 23.86 7.31 23.12 6.63 22.44" fill="none" stroke="#aaa" stroke-miterlimit="10" stroke-width=".5"/>
  <polyline points="16.16 2.9 11.4 4.38 6.95 6.61" fill="none" stroke="#aaa" stroke-miterlimit="10" stroke-width=".5"/>
  <polyline points="9.23 20.18 11.43 20.71 13.63 21.21 15.18 21.52 16.75 21.75 17.84 21.83 18.93 21.77 19.75 21.57 20.51 21.21 21.22 20.67 21.85 20.03 22.58 19.13 23.28 18.2" fill="none" stroke="#aaa" stroke-miterlimit="10" stroke-width=".5"/>
  <polyline points="7.79 20.13 9.34 20.43 10.9 20.65 11.98 20.73 13.05 20.7 13.83 20.53 14.57 20.22 15.25 19.74 15.84 19.17 16.55 18.36 17.22 17.52" fill="none" stroke="#aaa" stroke-miterlimit="10" stroke-width=".5"/>
  <polyline points="5.19 20.03 6.27 20.12 7.34 20.1 8.11 19.97 8.84 19.69 9.5 19.26 10.08 18.74 10.75 18.01 11.4 17.23" fill="none" stroke="#aaa" stroke-miterlimit="10" stroke-width=".5"/>
  <polyline points="4.44 18.67 5.09 18 5.71 17.3" fill="none" stroke="#aaa" stroke-miterlimit="10" stroke-width=".5"/>
</svg>