<?xml version="1.0" encoding="UTF-8"?>
<svg id="Ebene_1" xmlns="http://www.w3.org/2000/svg" width="222" height="222" viewBox="0 0 222 222">
  <polyline points="42.31 190.36 39.57 185.16 34.47 182.31 29.6 182.11 24.83 183.15 22.87 183.87 21.4 184.63 26.87 181.69 32.2 178.48 27.76 185.47 23.65 192.64 22.96 195.06 24.32 197.02 27.96 198.74 31.45 200.76 37.48 206.3 42.23 213.01 46.5 206.81 51.86 201.54 55.27 199.33 58.94 197.59 60.73 196.57 61.44 194.74 59.69 190.53 57.32 186.59" fill="none" stroke="#aaa" stroke-miterlimit="10" stroke-width=".5"/>
  <polyline points="42.31 186.87 39.93 181.96 35.33 179.11 31.01 178.86 26.76 179.77 25.02 180.4 23.71 181 28.56 178.06 33.31 174.93 29.43 181.45 25.83 188.12 25.24 190.3 26.44 192.09 29.66 193.64 32.71 195.5 38.07 200.73 42.23 206.99 45.99 201.18 50.77 196.19 53.76 194.16 57.01 192.57 58.59 191.64 59.15 189.97 57.54 185.98 55.4 182.22" fill="none" stroke="#aaa" stroke-miterlimit="10" stroke-width=".5"/>
  <polyline points="42.53 183.22 40.46 178.6 36.32 175.78 32.48 175.49 28.7 176.29 27.15 176.85 25.98 177.31 30.29 174.4 34.51 171.38 31.13 177.46 27.98 183.65 27.47 185.63 28.52 187.26 31.37 188.67 34.05 190.38 38.81 195.3 42.45 201.13 45.75 195.69 50.01 190.99 52.64 189.12 55.52 187.67 56.92 186.81 57.36 185.29 55.89 181.52 53.96 177.94" fill="none" stroke="#aaa" stroke-miterlimit="10" stroke-width=".5"/>
  <polyline points="42.49 179.13 40.59 174.78 36.75 172.09 33.2 171.8 29.71 172.54 28.29 173.06 27.21 173.46 31.17 170.7 35.07 167.82 31.97 173.53 29.08 179.33 28.6 181.18 29.58 182.71 32.2 184.01 34.66 185.61 39.06 190.25 42.41 195.72 45.45 190.6 49.39 186.17 51.81 184.42 54.46 183.08 55.76 182.27 56.14 180.85 54.76 177.28 52.96 173.87" fill="none" stroke="#aaa" stroke-miterlimit="10" stroke-width=".5"/>
  <polyline points="42.28 174.48 40.38 170.39 36.64 167.95 33.15 167.72 29.72 168.46 28.32 168.97 27.25 169.42 31.16 166.91 34.99 164.27 31.89 169.69 29.01 175.22 28.54 177.01 29.5 178.49 32.09 179.76 34.54 181.29 38.87 185.66 42.2 190.86 45.22 186.01 49.1 181.84 51.5 180.16 54.12 178.86 55.4 178.08 55.8 176.69 54.44 173.31 52.67 170.1" fill="none" stroke="#aaa" stroke-miterlimit="10" stroke-width=".5"/>
  <polyline points="42.26 169.39 40.2 165.54 36.4 163.44 32.76 163.31 29.2 164.09 27.74 164.64 26.64 165.23 30.72 163.07 34.69 160.72 31.37 165.92 28.29 171.26 27.78 173.07 28.79 174.54 31.51 175.83 34.11 177.34 38.63 181.46 42.18 186.45 45.39 181.82 49.4 177.89 51.97 176.25 54.7 174.95 56.04 174.17 56.52 172.77 55.14 169.55 53.31 166.53" fill="none" stroke="#aaa" stroke-miterlimit="10" stroke-width=".5"/>
  <polyline points="42.47 164.04 40.14 160.44 36.21 158.73 32.31 158.71 28.51 159.58 26.92 160.17 25.78 160.94 30.15 159.21 34.39 157.16 30.7 162.18 27.31 167.39 26.75 169.26 27.86 170.75 30.82 172.09 33.68 173.6 38.49 177.48 42.39 182.29 45.88 177.85 50.15 174.17 52.97 172.53 55.92 171.21 57.37 170.42 57.99 168.98 56.56 165.88 54.62 163.03" fill="none" stroke="#aaa" stroke-miterlimit="10" stroke-width=".5"/>
  <polyline points="42.33 158.57 39.65 155.25 35.57 153.92 31.37 154.03 27.27 154.98 25.52 155.64 24.32 156.6 29.03 155.33 33.62 153.61 29.5 158.46 25.71 163.57 25.1 165.51 26.34 167.04 29.58 168.44 32.76 169.95 37.93 173.61 42.25 178.25 46.09 174 50.64 170.54 53.76 168.9 57 167.55 58.58 166.74 59.36 165.23 57.87 162.2 55.78 159.49" fill="none" stroke="#aaa" stroke-miterlimit="10" stroke-width=".5"/>
  <polyline points="42.28 153.12 39.18 150.1 34.91 149.12 29.93 149.38 25.05 150.4 22.13 151.26 19.27 152.28 21.62 151.23 24.16 150.06 21.9 154.73 20.62 159.73 21.66 162.04 23.92 163.31 27.93 164.7 31.86 166.3 37.43 169.71 42.21 174.2 46.37 170.15 51.2 166.94 54.88 165.26 58.68 163.93 61.08 163.04 63.13 161.58 63.71 158.95 63.03 156.28" fill="none" stroke="#aaa" stroke-miterlimit="10" stroke-width=".5"/>
  <polyline points="42.26 147.81 38.82 145.14 34.45 144.44 29.03 144.83 23.7 145.91 20.16 146.88 16.67 148 17.91 147.4 19.97 146.5 18.32 151.07 17.98 155.85 19.73 158.21 22.43 159.5 26.85 160.91 31.2 162.52 37.06 165.72 42.19 170 46.63 166.17 51.65 163.18 55.66 161.51 59.78 160.18 62.59 159.23 65.15 157.78 66.43 155.43 66.34 152.72" fill="none" stroke="#aaa" stroke-miterlimit="10" stroke-width=".5"/>
  <polyline points="42.21 142.77 38.55 140.45 34.16 139.97 28.5 140.46 22.92 141.58 19.01 142.61 15.16 143.82 15.68 143.64 17.53 142.95 16.23 147.35 16.43 151.87 18.58 154.22 21.54 155.52 26.2 156.93 30.8 158.52 36.79 161.51 42.15 165.53 46.75 161.95 51.87 159.17 56.07 157.55 60.37 156.24 63.42 155.26 66.26 153.82 67.88 151.67 68.18 148.98" fill="none" stroke="#aaa" stroke-miterlimit="10" stroke-width=".5"/>
  <polyline points="42.2 138.1 38.47 136.13 34.18 135.81 28.49 136.37 22.89 137.48 18.84 138.53 14.85 139.77 14.87 139.93 16.6 139.39 15.54 143.56 16.05 147.76 18.4 150.04 21.46 151.31 26.16 152.7 30.82 154.22 36.76 156.97 42.14 160.69 46.76 157.39 51.83 154.84 56.06 153.3 60.37 152.03 63.51 151.06 66.45 149.65 68.21 147.66 68.74 145.05" fill="none" stroke="#aaa" stroke-miterlimit="10" stroke-width=".5"/>
  <polyline points="42.27 133.83 38.63 132.18 34.57 131.98 29.08 132.55 23.67 133.62 19.69 134.64 15.78 135.87 15.46 136.24 17.08 135.84 16.21 139.69 16.88 143.51 19.26 145.65 22.26 146.86 26.81 148.17 31.33 149.6 37.01 152.08 42.21 155.45 46.68 152.46 51.52 150.16 55.62 148.74 59.79 147.54 62.86 146.61 65.75 145.27 67.52 143.45 68.15 140.99" fill="none" stroke="#aaa" stroke-miterlimit="10" stroke-width=".5"/>
  <polyline points="42.29 129.85 38.86 128.49 35.12 128.38 30 128.95 24.94 129.94 21.18 130.9 17.48 132.06 16.95 132.56 18.45 132.29 17.73 135.76 18.47 139.16 20.77 141.11 23.6 142.23 27.86 143.44 32.1 144.74 37.37 146.94 42.23 149.92 46.41 147.27 50.91 145.24 54.76 143.95 58.65 142.86 61.54 141.99 64.28 140.74 65.96 139.1 66.62 136.84" fill="none" stroke="#aaa" stroke-miterlimit="10" stroke-width=".5"/>
  <polyline points="42.29 125.95 39.12 124.88 35.72 124.85 31.02 125.39 26.37 126.31 22.86 127.19 19.42 128.28 18.72 128.88 20.09 128.73 19.52 131.81 20.3 134.78 22.48 136.54 25.11 137.56 29.03 138.66 32.95 139.82 37.76 141.73 42.24 144.32 46.1 142.01 50.22 140.25 53.77 139.1 57.36 138.12 60.05 137.32 62.59 136.18 64.16 134.7 64.82 132.66" fill="none" stroke="#aaa" stroke-miterlimit="10" stroke-width=".5"/>
  <polyline points="42.28 121.88 39.31 121.12 36.2 121.18 31.84 121.72 27.51 122.57 24.21 123.4 20.98 124.45 20.07 125.13 21.35 125.18 20.92 127.89 21.76 130.46 23.86 132.04 26.35 132.98 30.01 133.99 33.67 135.03 38.08 136.67 42.24 138.88 45.83 136.91 49.63 135.39 52.95 134.38 56.31 133.48 58.84 132.73 61.24 131.67 62.73 130.34 63.4 128.48" fill="none" stroke="#aaa" stroke-miterlimit="10" stroke-width=".5"/>
  <polyline points="42.23 117.46 39.36 117.05 36.44 117.22 32.26 117.8 28.13 118.62 24.92 119.43 21.79 120.49 20.76 121.21 21.9 121.62 21.55 124.04 22.45 126.26 24.57 127.73 27.01 128.63 30.55 129.58 34.09 130.53 38.24 131.93 42.2 133.79 45.66 132.11 49.28 130.81 52.52 129.9 55.78 129.06 58.26 128.33 60.62 127.29 62.05 126.04 62.7 124.26" fill="none" stroke="#aaa" stroke-miterlimit="10" stroke-width=".5"/>
  <polyline points="42.19 112.63 39.29 112.62 36.4 112.93 32.24 113.58 28.1 114.42 24.87 115.25 21.74 116.38 20.67 117.29 21.76 118.07 21.39 120.25 22.33 122.21 24.54 123.63 27.04 124.52 30.62 125.46 34.21 126.36 38.26 127.56 42.17 129.11 45.68 127.68 49.3 126.57 52.65 125.71 56 124.87 58.54 124.1 60.95 123.01 62.32 121.75 62.83 119.98" fill="none" stroke="#aaa" stroke-miterlimit="10" stroke-width=".5"/>
  <polyline points="42.2 107.46 38.37 107.84 34.56 108.36 30.28 109.09 26.05 110.01 23.07 110.87 20.27 112.15 19.57 113.49 20.8 114.52 20.45 116.53 21.49 118.28 23.92 119.7 26.61 120.62 30.38 121.59 34.18 122.47 38.22 123.5 42.2 124.78 45.94 123.55 49.75 122.57 53.41 121.71 57.06 120.81 59.78 119.95 62.32 118.69 63.6 117.28 63.72 115.41" fill="none" stroke="#aaa" stroke-miterlimit="10" stroke-width=".5"/>
  <polyline points="42.2 102.07 37.62 102.85 33.04 103.62 28.51 104.45 24.03 105.47 21.07 106.39 18.37 107.85 17.91 109.6 19.28 110.96 18.96 112.87 20.15 114.43 22.9 115.88 25.88 116.85 29.94 117.87 34.04 118.76 38.13 119.65 42.2 120.66 46.23 119.64 50.29 118.76 54.39 117.87 58.47 116.85 61.44 115.88 64.18 114.43 65.32 112.85 64.89 110.96 64.92 110.95 64.95 110.93 64.97 110.91 65 110.89 65.03 110.87 65.06 110.86 65.08 110.84 65.11 110.82" fill="none" stroke="#aaa" stroke-miterlimit="10" stroke-width=".5"/>
  <polyline points="42.14 96.59 36.98 97.77 31.8 98.8 26.94 99.75 22.13 100.87 19.05 101.87 16.29 103.52 15.95 105.66 17.45 107.41 17.2 109.23 18.55 110.6 21.7 112.09 25.03 113.14 29.44 114.22 33.89 115.12 38.02 115.88 42.14 116.63 46.22 115.88 50.32 115.12 54.77 114.22 59.19 113.14 62.52 112.1 65.65 110.6 66.97 109.21 66.6 107.41 66.78 107.26 66.95 107.12 67.11 106.97 67.26 106.83 67.41 106.69 67.54 106.56 67.66 106.42 67.77 106.29" fill="none" stroke="#aaa" stroke-miterlimit="10" stroke-width=".5"/>
  <polyline points="42.08 91.16 36.46 92.74 30.76 94.01 25.61 95.09 20.5 96.3 17.29 97.37 14.5 99.2 14.33 101.75 16.02 103.85 15.8 105.56 17.27 106.76 20.82 108.29 24.53 109.41 29.27 110.53 34.05 111.45 38.06 112.08 42.08 112.55 46.07 112.08 50.06 111.45 54.85 110.53 59.6 109.41 63.3 108.3 66.83 106.76 68.27 105.54 67.92 103.85 68.23 103.57 68.53 103.27 68.79 103 69.04 102.72 69.24 102.46 69.44 102.19 69.59 101.95 69.73 101.69" fill="none" stroke="#aaa" stroke-miterlimit="10" stroke-width=".5"/>
  <polyline points="42.05 85.9 36.12 87.86 30.06 89.37 24.71 90.55 19.39 91.84 16.14 92.96 13.4 94.94 13.5 97.89 15.45 100.3 15.19 101.83 16.77 102.86 20.77 104.4 24.9 105.56 29.91 106.7 34.96 107.63 38.5 108.12 42.05 108.3 45.59 108.11 49.1 107.63 54.16 106.7 59.17 105.56 63.29 104.4 67.28 102.86 68.83 101.8 68.43 100.3 68.88 99.87 69.31 99.42 69.66 99.02 69.99 98.6 70.26 98.22 70.5 97.84 70.67 97.49 70.82 97.13" fill="none" stroke="#aaa" stroke-miterlimit="10" stroke-width=".5"/>
  <polyline points="42.05 80.94 36.04 83.25 29.84 84.97 24.43 86.23 19.04 87.56 15.81 88.7 13.16 90.79 13.54 94.06 15.7 96.75 15.03 97.91 16.47 98.86 20.45 100.37 24.55 101.54 29.65 102.69 34.8 103.57 38.43 103.94 42.07 103.76 45.67 103.94 49.28 103.57 54.43 102.69 59.53 101.54 63.61 100.38 67.58 98.86 69.01 97.88 68.19 96.75 68.75 96.18 69.28 95.6 69.71 95.08 70.12 94.55 70.42 94.08 70.7 93.6 70.89 93.17 71.04 92.73" fill="none" stroke="#aaa" stroke-miterlimit="10" stroke-width=".5"/>
  <polyline points="42.06 76.37 36.19 78.99 30.05 80.89 24.78 82.19 19.53 83.52 16.43 84.64 14.01 86.77 14.69 90.29 17.02 93.19 15.78 93.81 17.06 94.72 20.86 96.15 24.77 97.27 29.78 98.4 34.87 99.19 38.51 99.41 42.08 98.82 45.62 99.41 49.23 99.19 54.32 98.4 59.33 97.27 63.23 96.16 67.01 94.72 68.26 93.76 66.9 93.19 67.55 92.51 68.17 91.81 68.66 91.2 69.13 90.57 69.47 90.02 69.78 89.46 69.98 88.97 70.14 88.47" fill="none" stroke="#aaa" stroke-miterlimit="10" stroke-width=".5"/>
  <polyline points="42.08 72.2 36.57 75.08 30.7 77.14 25.78 78.44 20.87 79.72 18.04 80.8 15.98 82.9 17.01 86.58 19.47 89.64 17.97 89.6 18.59 90.43 22.04 91.73 25.59 92.76 30.35 93.82 35.19 94.49 38.75 94.52 42.11 93.48 45.42 94.52 48.95 94.49 53.78 93.82 58.55 92.76 62.08 91.74 65.52 90.43 66.01 89.59 64.48 89.64 65.19 88.87 65.88 88.08 66.43 87.4 66.94 86.7 67.32 86.1 67.67 85.48 67.9 84.96 68.08 84.42" fill="none" stroke="#aaa" stroke-miterlimit="10" stroke-width=".5"/>
  <polyline points="42.1 68.3 37.12 71.41 31.67 73.61 27.24 74.89 22.81 76.09 20.35 77.1 18.78 79.12 20.2 82.89 22.79 86.09 21.27 85.74 20.83 86.05 23.81 87.18 26.86 88.08 31.24 89.05 35.69 89.57 39.12 89.37 42.14 87.88 45.11 89.37 48.5 89.57 52.95 89.05 57.32 88.08 60.37 87.19 63.32 86.05 62.78 85.74 61.21 86.09 61.95 85.27 62.68 84.44 63.26 83.72 63.81 82.99 64.23 82.38 64.62 81.74 64.9 81.2 65.14 80.65" fill="none" stroke="#aaa" stroke-miterlimit="10" stroke-width=".5"/>
  <polyline points="42.09 64.44 37.66 67.75 32.67 70.11 28.78 71.36 24.88 72.48 22.8 73.43 21.79 75.36 23.69 79.2 26.48 82.53 24.71 81.92 23.31 81.65 25.74 82.62 28.24 83.38 32.19 84.25 36.21 84.61 39.5 84.15 42.13 82.23 44.72 84.15 47.97 84.61 51.98 84.25 55.92 83.38 58.42 82.62 60.83 81.65 59.34 81.92 57.51 82.53 58.26 81.72 58.99 80.89 59.59 80.18 60.17 79.46 60.64 78.84 61.09 78.21 61.43 77.68 61.74 77.13" fill="none" stroke="#aaa" stroke-miterlimit="10" stroke-width=".5"/>
  <polyline points="42.2 60.38 38.34 63.9 33.77 66.45 30.35 67.68 26.9 68.76 25.14 69.69 24.7 71.53 27.18 75.47 30.31 78.98 28.02 78.05 25.73 77.33 27.61 78.16 29.57 78.8 33.12 79.6 36.76 79.81 39.96 79.06 42.26 76.78 44.49 79.07 47.66 79.81 51.29 79.6 54.84 78.8 56.79 78.17 58.65 77.33 56.28 78.04 53.93 78.98 54.68 78.19 55.43 77.39 56.06 76.69 56.69 75.99 57.21 75.38 57.71 74.76 58.12 74.23 58.52 73.69" fill="none" stroke="#aaa" stroke-miterlimit="10" stroke-width=".5"/>
  <polyline points="42.12 55.95 38.62 59.7 34.31 62.48 31.3 63.72 28.25 64.8 26.95 65.91 27.44 67.56 31.22 71.66 35.34 75.42 31.78 74.09 28.12 73.14 29.06 73.92 30.44 74.45 33.64 75.21 36.92 75.32 40.1 74.29 42.18 71.7 44.19 74.29 47.33 75.32 50.61 75.21 53.8 74.45 55.18 73.92 56.11 73.14 52.38 74.09 48.76 75.42 49.63 74.66 50.49 73.9 51.24 73.22 52 72.54 52.65 71.94 53.3 71.33 53.85 70.81 54.4 70.27" fill="none" stroke="#aaa" stroke-miterlimit="10" stroke-width=".5"/>
  <polyline points="42.07 51.11 38.62 55.15 34.28 58.18 31.27 59.49 28.22 60.59 26.9 61.75 27.38 63.45 31.13 67.82 35.24 71.87 31.55 70.31 27.77 69.09 28.74 69.82 30.13 70.35 33.41 71.11 36.77 71.16 40.08 69.9 42.13 67.03 44.12 69.91 47.39 71.16 50.74 71.11 54.02 70.35 55.41 69.82 56.36 69.09 52.51 70.31 48.77 71.87 49.6 71.08 50.43 70.28 51.16 69.57 51.89 68.86 52.52 68.23 53.15 67.6 53.7 67.05 54.23 66.49" fill="none" stroke="#aaa" stroke-miterlimit="10" stroke-width=".5"/>
  <polyline points="42.07 45.94 38.5 50.31 33.93 53.61 30.79 55.01 27.59 56.18 26.19 57.42 26.69 59.23 30.61 63.93 34.9 68.32 30.99 66.57 26.97 65.16 28 65.9 29.46 66.45 32.92 67.25 36.48 67.27 40.01 65.84 42.14 62.7 44.2 65.84 47.68 67.27 51.23 67.25 54.69 66.45 56.16 65.9 57.17 65.16 53.08 66.57 49.11 68.32 49.97 67.47 50.82 66.62 51.58 65.86 52.33 65.1 52.98 64.43 53.64 63.75 54.2 63.16 54.75 62.56" fill="none" stroke="#aaa" stroke-miterlimit="10" stroke-width=".5"/>
  <polyline points="42.07 40.56 38.24 45.28 33.34 48.87 29.97 50.38 26.53 51.65 25.03 52.97 25.57 54.93 29.76 60.02 34.37 64.76 30.16 62.86 25.83 61.3 26.93 62.09 28.5 62.68 32.23 63.54 36.05 63.55 39.86 61.99 42.14 58.57 44.35 61.99 48.11 63.55 51.92 63.54 55.65 62.68 57.22 62.09 58.31 61.3 53.91 62.86 49.64 64.76 50.56 63.84 51.47 62.93 52.28 62.11 53.08 61.28 53.79 60.56 54.49 59.82 55.09 59.18 55.69 58.53" fill="none" stroke="#aaa" stroke-miterlimit="10" stroke-width=".5"/>
  <polyline points="42.07 35.08 37.94 40.19 32.64 44.06 29.01 45.68 25.28 47.05 23.67 48.48 24.24 50.59 28.78 56.09 33.76 61.21 29.21 59.15 24.53 57.48 25.72 58.33 27.42 58.97 31.44 59.89 35.57 59.91 39.68 58.22 42.14 54.54 44.53 58.22 48.59 59.91 52.71 59.89 56.73 58.97 58.43 58.33 59.61 57.48 54.86 59.15 50.25 61.21 51.24 60.21 52.24 59.22 53.11 58.33 53.99 57.44 54.75 56.65 55.5 55.86 56.16 55.16 56.8 54.46" fill="none" stroke="#aaa" stroke-miterlimit="10" stroke-width=".5"/>
  <polyline points="42.07 29.65 37.65 35.13 31.99 39.28 28.11 41.02 24.12 42.48 22.38 44.02 23 46.28 27.85 52.16 33.18 57.65 28.31 55.45 23.29 53.64 24.57 54.55 26.38 55.23 30.69 56.22 35.11 56.23 39.51 54.42 42.14 50.46 44.69 54.42 49.05 56.23 53.46 56.22 57.77 55.23 59.58 54.55 60.84 53.64 55.76 55.44 50.83 57.65 51.89 56.59 52.96 55.52 53.89 54.56 54.83 53.61 55.64 52.76 56.45 51.91 57.15 51.16 57.84 50.41" fill="none" stroke="#aaa" stroke-miterlimit="10" stroke-width=".5"/>
  <polyline points="42.07 24.4 37.46 30.21 31.52 34.64 27.45 36.48 23.27 38.02 21.45 39.64 22.09 42.02 27.17 48.26 32.74 54.1 27.61 51.72 22.32 49.73 23.66 50.67 25.57 51.38 30.1 52.42 34.75 52.41 39.39 50.44 42.14 46.21 44.81 50.44 49.41 52.41 54.05 52.41 58.59 51.38 60.49 50.67 61.82 49.73 56.46 51.71 51.26 54.1 52.37 52.97 53.48 51.84 54.46 50.83 55.43 49.82 56.28 48.93 57.12 48.03 57.85 47.24 58.57 46.44" fill="none" stroke="#aaa" stroke-miterlimit="10" stroke-width=".5"/>
  <polyline points="42.08 19.39 37.41 25.51 31.32 30.21 27.18 32.13 22.91 33.71 21.04 35.39 21.69 37.85 26.85 44.4 32.52 50.55 27.25 47.96 21.82 45.74 23.21 46.66 25.15 47.38 29.81 48.43 34.57 48.39 39.38 46.21 42.15 41.71 44.84 46.21 49.6 48.39 54.36 48.43 59.01 47.38 60.95 46.66 62.32 45.74 56.83 47.95 51.5 50.55 52.61 49.38 53.72 48.2 54.7 47.15 55.68 46.1 56.53 45.17 57.38 44.23 58.12 43.41 58.85 42.58" fill="none" stroke="#aaa" stroke-miterlimit="10" stroke-width=".5"/>
  <polyline points="42.16 14.65 37.58 21.04 31.49 25.99 27.39 27.97 23.13 29.57 21.26 31.28 21.89 33.78 26.99 40.58 32.6 46.99 27.33 44.16 21.9 41.66 23.3 42.51 25.23 43.22 29.89 44.26 34.65 44.15 39.53 41.7 42.23 36.94 44.85 41.7 49.68 44.15 54.44 44.26 59.09 43.22 61.02 42.51 62.41 41.66 56.91 44.16 51.58 46.99 52.65 45.8 53.73 44.6 54.68 43.52 55.63 42.45 56.46 41.49 57.29 40.53 58.01 39.68 58.72 38.83" fill="none" stroke="#aaa" stroke-miterlimit="10" stroke-width=".5"/>
  <polyline points="42.14 10.12 37.75 16.73 31.79 21.94 27.82 23.96 23.66 25.55 21.81 27.27 22.42 29.78 27.34 36.79 32.77 43.44 27.59 40.34 22.27 37.5 23.66 38.24 25.53 38.93 30.11 39.94 34.78 39.74 39.64 36.98 42.21 31.96 44.7 36.98 49.52 39.74 54.18 39.93 58.75 38.93 60.63 38.24 62 37.5 56.61 40.34 51.37 43.44 52.38 42.23 53.39 41.03 54.29 39.95 55.18 38.86 55.97 37.89 56.75 36.92 57.44 36.06 58.12 35.2" fill="none" stroke="#aaa" stroke-miterlimit="10" stroke-width=".5"/>
  <polyline points="42.11 5.69 37.97 12.51 32.2 17.98 28.4 20.02 24.38 21.6 22.59 23.32 23.15 25.81 27.84 33.01 33.02 39.89 27.98 36.5 22.83 33.31 24.19 33.91 26 34.58 30.45 35.53 34.97 35.25 39.77 32.14 42.19 26.88 44.52 32.13 49.28 35.25 53.79 35.53 58.23 34.58 60.05 33.91 61.38 33.31 56.16 36.5 51.07 39.89 52 38.69 52.92 37.48 53.75 36.4 54.58 35.32 55.31 34.34 56.04 33.37 56.68 32.5 57.31 31.63" fill="none" stroke="#aaa" stroke-miterlimit="10" stroke-width=".5"/>
</svg>