<?xml version="1.0" encoding="UTF-8"?>
<svg id="Ebene_1" xmlns="http://www.w3.org/2000/svg" width="222" height="222" viewBox="0 0 222 222">
  <polyline points="222 .71 208.9 2.11 195.98 4.62 189.48 6.78 183.57 10.19 181.27 12.88 180.33 16.27 180.74 19.07 181.82 21.7 182.79 23.48 183.62 25.31 182.73 26.14 181.27 25.95 175.77 24.34 170.36 22.46 158.38 18.1 146.43 13.68 149.83 14.29 153.23 14.91 156.36 15.47 159.48 16.04 162.35 16.56 165.22 17.08 167.84 17.55 170.45 18.03 172.83 18.46 175.21 18.89 177.37 19.28 179.53 19.66 181.47 20.01 183.42 20.36 185.16 20.66 186.91 20.96" fill="none" stroke="#aaa" stroke-miterlimit="10" stroke-width=".5"/>
  <polyline points="213.58 .71 200.79 2.26 188.22 5.07 181.86 7.52 176.25 11.34 174.05 14.46 173.3 18.19 173.84 21.34 175.05 24.3 176.12 26.32 177.12 28.36 176.52 29.27 175.17 29.05 169.96 27.17 164.84 25.04 153.32 20.05 141.79 15.02 145.4 15.76 149.01 16.51 152.31 17.2 155.62 17.88 158.63 18.51 161.64 19.14 164.37 19.71 167.1 20.28 169.57 20.79 172.04 21.3 174.27 21.76 176.49 22.21 178.48 22.62 180.47 23.02 182.24 23.37 184.01 23.71" fill="none" stroke="#aaa" stroke-miterlimit="10" stroke-width=".5"/>
  <polyline points="205.17 .18 192.67 1.89 180.46 4.99 174.24 7.75 168.93 11.96 166.85 15.52 166.28 19.6 166.94 23.1 168.27 26.41 169.46 28.68 170.62 30.93 170.32 31.93 169.06 31.66 164.14 29.51 159.33 27.12 148.24 21.48 137.15 15.82 140.97 16.72 144.79 17.62 148.27 18.44 151.75 19.26 154.9 20.01 158.06 20.75 160.9 21.42 163.75 22.09 166.3 22.69 168.86 23.29 171.14 23.82 173.42 24.35 175.45 24.81 177.48 25.27 179.27 25.66 181.06 26.05" fill="none" stroke="#aaa" stroke-miterlimit="10" stroke-width=".5"/>
  <polyline points="197.04 .18 184.84 2.03 172.97 5.4 166.88 8.45 161.84 12.99 159.89 16.94 159.47 21.32 160.23 25.15 161.67 28.77 162.96 31.24 164.26 33.69 164.25 34.76 163.06 34.46 158.41 32.05 153.87 29.44 143.2 23.22 132.51 17.01 136.52 18.05 140.52 19.1 144.16 20.05 147.78 21 151.06 21.86 154.33 22.72 157.27 23.49 160.21 24.26 162.84 24.94 165.46 25.61 167.79 26.21 170.12 26.8 172.17 27.31 174.23 27.82 176.03 28.25 177.83 28.67" fill="none" stroke="#aaa" stroke-miterlimit="10" stroke-width=".5"/>
  <polyline points="189.45 .18 177.5 2.13 165.96 5.7 159.98 8.97 155.19 13.76 153.34 18 153.04 22.62 153.87 26.68 155.4 30.53 156.76 33.17 158.17 35.76 158.37 36.86 157.24 36.55 152.83 33.95 148.51 31.18 138.21 24.51 127.87 17.88 132.03 19.05 136.18 20.23 139.92 21.29 143.67 22.35 147.03 23.3 150.4 24.26 153.4 25.11 156.41 25.95 159.08 26.7 161.75 27.44 164.1 28.08 166.46 28.72 168.52 29.27 170.59 29.81 172.39 30.27 174.18 30.71" fill="none" stroke="#aaa" stroke-miterlimit="10" stroke-width=".5"/>
  <polyline points="182.52 .18 170.82 2.19 159.55 5.87 153.69 9.27 149.08 14.19 147.31 18.59 147.08 23.34 147.96 27.53 149.53 31.52 150.93 34.24 152.4 36.91 152.73 38 151.66 37.72 147.43 35 143.28 32.14 133.28 25.22 123.23 18.35 127.48 19.62 131.73 20.88 135.56 22.02 139.38 23.16 142.8 24.17 146.22 25.19 149.26 26.09 152.3 26.99 154.99 27.77 157.68 28.56 160.05 29.23 162.41 29.9 164.47 30.47 166.53 31.03 168.31 31.49 170.09 31.94" fill="none" stroke="#aaa" stroke-miterlimit="10" stroke-width=".5"/>
  <polyline points="176.3 .18 164.82 2.2 153.78 5.89 148.04 9.32 143.55 14.24 141.83 18.68 141.64 23.44 142.53 27.65 144.1 31.65 145.5 34.39 146.98 37.07 147.36 38.14 146.33 37.88 142.22 35.13 138.18 32.26 128.41 25.3 118.59 18.39 122.89 19.7 127.18 21 131.03 22.17 134.88 23.35 138.32 24.39 141.75 25.43 144.8 26.35 147.84 27.27 150.52 28.07 153.21 28.86 155.55 29.55 157.9 30.22 159.94 30.79 161.97 31.35 163.73 31.81 165.48 32.26" fill="none" stroke="#aaa" stroke-miterlimit="10" stroke-width=".5"/>
  <polyline points="170.73 .18 159.46 2.16 148.61 5.77 142.97 9.13 138.55 13.96 136.86 18.3 136.66 22.96 137.53 27.09 139.07 31.01 140.44 33.69 141.89 36.32 142.25 37.37 141.23 37.11 137.18 34.42 133.21 31.61 123.61 24.79 113.95 18.03 118.24 19.33 122.52 20.63 126.36 21.79 130.19 22.96 133.61 23.99 137.02 25.03 140.04 25.94 143.06 26.84 145.71 27.63 148.36 28.41 150.68 29.08 152.99 29.74 154.99 30.3 156.99 30.84 158.7 31.28 160.42 31.71" fill="none" stroke="#aaa" stroke-miterlimit="10" stroke-width=".5"/>
  <polyline points="165.69 .18 154.6 2.08 143.91 5.55 138.36 8.76 133.97 13.4 132.29 17.55 132.06 22.03 132.88 25.98 134.36 29.74 135.67 32.31 137.05 34.83 137.34 35.87 136.32 35.6 132.29 33.03 128.34 30.34 118.85 23.82 109.31 17.35 113.55 18.6 117.79 19.85 121.58 20.98 125.36 22.1 128.73 23.1 132.09 24.09 135.06 24.96 138.03 25.83 140.63 26.59 143.23 27.34 145.49 27.98 147.76 28.61 149.71 29.14 151.66 29.65 153.33 30.07 155 30.47" fill="none" stroke="#aaa" stroke-miterlimit="10" stroke-width=".5"/>
  <polyline points="161.01 .18 150.1 1.97 139.55 5.24 134.09 8.25 129.7 12.64 128.01 16.53 127.73 20.76 128.48 24.48 129.87 28.02 131.11 30.43 132.39 32.81 132.57 33.82 131.53 33.54 127.5 31.15 123.54 28.61 114.12 22.51 104.67 16.43 108.83 17.61 112.98 18.79 116.69 19.84 120.4 20.9 123.69 21.83 126.98 22.76 129.88 23.58 132.78 24.4 135.32 25.11 137.85 25.8 140.06 26.4 142.26 26.99 144.15 27.49 146.05 27.96 147.67 28.36 149.28 28.73" fill="none" stroke="#aaa" stroke-miterlimit="10" stroke-width=".5"/>
  <polyline points="156.59 .18 145.84 1.85 135.41 4.89 130.03 7.65 125.63 11.75 123.92 15.32 123.57 19.27 124.25 22.72 125.54 25.99 126.69 28.23 127.86 30.44 127.88 31.39 126.84 31.13 122.77 28.94 118.79 26.59 109.42 20.97 100.03 15.36 104.08 16.44 108.12 17.52 111.73 18.49 115.34 19.46 118.54 20.32 121.74 21.18 124.56 21.93 127.37 22.68 129.84 23.33 132.3 23.97 134.43 24.52 136.57 25.06 138.4 25.51 140.24 25.95 141.8 26.31 143.36 26.65" fill="none" stroke="#aaa" stroke-miterlimit="10" stroke-width=".5"/>
  <polyline points="152.25 .18 141.66 1.72 131.35 4.51 126.07 7.02 121.63 10.8 119.9 14.04 119.48 17.69 120.08 20.85 121.26 23.85 122.32 25.89 123.37 27.92 123.23 28.81 122.17 28.57 118.07 26.6 114.05 24.45 104.73 19.34 95.39 14.22 99.31 15.2 103.23 16.18 106.73 17.06 110.23 17.93 113.33 18.71 116.42 19.49 119.15 20.17 121.88 20.85 124.26 21.43 126.65 22.02 128.71 22.51 130.78 23 132.55 23.41 134.32 23.81 135.83 24.14 137.34 24.45" fill="none" stroke="#aaa" stroke-miterlimit="10" stroke-width=".5"/>
  <polyline points="147.85 .18 137.43 1.59 127.24 4.15 122.04 6.42 117.59 9.89 115.84 12.81 115.34 16.17 115.86 19.05 116.95 21.77 117.91 23.63 118.85 25.49 118.56 26.32 117.49 26.1 113.35 24.34 109.31 22.38 100.03 17.76 90.75 13.12 94.55 14 98.34 14.88 101.73 15.66 105.11 16.45 108.11 17.15 111.11 17.85 113.75 18.46 116.38 19.07 118.69 19.6 120.99 20.13 122.99 20.57 124.98 21.02 126.7 21.39 128.41 21.74 129.86 22.04 131.32 22.32" fill="none" stroke="#aaa" stroke-miterlimit="10" stroke-width=".5"/>
  <polyline points="143.23 .17 132.97 1.48 122.92 3.83 117.81 5.9 113.35 9.08 111.61 11.72 111.04 14.83 111.49 17.47 112.49 19.96 113.38 21.65 114.22 23.36 113.8 24.12 112.72 23.93 108.58 22.35 104.52 20.56 95.31 16.36 86.11 12.14 89.79 12.93 93.48 13.73 96.76 14.44 100.04 15.16 102.95 15.79 105.85 16.42 108.41 16.98 110.97 17.53 113.2 18.01 115.43 18.48 117.36 18.89 119.29 19.29 120.95 19.62 122.61 19.95 124.01 20.21 125.42 20.47" fill="none" stroke="#aaa" stroke-miterlimit="10" stroke-width=".5"/>
  <polyline points="138.25 .17 128.18 1.39 118.28 3.58 113.27 5.49 108.83 8.46 107.1 10.88 106.49 13.79 106.89 16.24 107.82 18.55 108.65 20.12 109.41 21.71 108.91 22.42 107.83 22.25 103.71 20.8 99.66 19.15 90.56 15.28 81.47 11.37 85.07 12.11 88.67 12.84 91.87 13.5 95.07 14.16 97.91 14.75 100.75 15.33 103.24 15.84 105.73 16.35 107.9 16.79 110.07 17.23 111.95 17.6 113.82 17.97 115.43 18.28 117.03 18.57 118.39 18.82 119.75 19.05" fill="none" stroke="#aaa" stroke-miterlimit="10" stroke-width=".5"/>
  <polyline points="132.78 .17 122.9 1.34 113.19 3.43 108.28 5.25 103.91 8.09 102.2 10.39 101.58 13.17 101.96 15.51 102.85 17.71 103.64 19.21 104.36 20.72 103.83 21.41 102.76 21.24 98.7 19.87 94.7 18.29 85.76 14.62 76.83 10.9 80.39 11.61 83.95 12.32 87.11 12.95 90.27 13.58 93.07 14.14 95.86 14.7 98.31 15.19 100.75 15.68 102.88 16.1 105.01 16.52 106.85 16.87 108.68 17.22 110.24 17.51 111.81 17.79 113.13 18.02 114.44 18.24" fill="none" stroke="#aaa" stroke-miterlimit="10" stroke-width=".5"/>
  <polyline points="126.67 .17 117.02 1.33 107.53 3.41 102.73 5.22 98.47 8.03 96.81 10.33 96.22 13.09 96.6 15.41 97.49 17.6 98.28 19.09 99 20.59 98.51 21.27 97.48 21.11 93.52 19.73 89.63 18.17 80.91 14.5 72.19 10.81 75.77 11.53 79.35 12.25 82.52 12.9 85.69 13.54 88.48 14.11 91.27 14.68 93.7 15.17 96.14 15.66 98.25 16.09 100.35 16.5 102.16 16.86 103.97 17.2 105.5 17.49 107.03 17.77 108.31 17.99 109.6 18.2" fill="none" stroke="#aaa" stroke-miterlimit="10" stroke-width=".5"/>
  <polyline points="119.86 .17 110.45 1.37 101.22 3.53 96.54 5.42 92.45 8.35 90.85 10.76 90.34 13.61 90.77 16.03 91.69 18.31 92.51 19.87 93.29 21.43 92.92 22.13 91.93 21.96 88.14 20.5 84.42 18.86 75.99 15.02 67.55 11.14 71.23 11.93 74.9 12.73 78.14 13.43 81.37 14.13 84.21 14.75 87.04 15.36 89.5 15.89 91.96 16.42 94.07 16.87 96.18 17.31 97.98 17.68 99.77 18.04 101.28 18.34 102.79 18.62 104.04 18.84 105.3 19.05" fill="none" stroke="#aaa" stroke-miterlimit="10" stroke-width=".5"/>
  <polyline points="112.35 .18 103.21 1.46 94.3 3.79 89.74 5.87 85.88 9.01 84.37 11.69 83.98 14.73 84.47 17.36 85.47 19.84 86.36 21.54 87.24 23.23 87.07 23.97 86.15 23.77 82.58 22.15 79.08 20.37 71 16.14 62.91 11.9 66.75 12.82 70.59 13.74 73.95 14.55 77.32 15.37 80.24 16.07 83.15 16.77 85.67 17.37 88.18 17.97 90.31 18.47 92.45 18.96 94.25 19.37 96.05 19.76 97.54 20.07 99.03 20.37 100.25 20.59 101.48 20.8" fill="none" stroke="#aaa" stroke-miterlimit="10" stroke-width=".5"/>
  <polyline points="104.31 .18 95.45 1.59 86.87 4.17 82.45 6.51 78.86 9.97 77.47 13.02 77.22 16.35 77.82 19.27 78.92 22.04 79.91 23.94 80.92 25.81 81.02 26.61 80.17 26.39 76.87 24.52 73.64 22.53 65.96 17.75 58.27 12.99 62.33 14.11 66.4 15.22 69.93 16.19 73.45 17.16 76.49 18 79.53 18.83 82.11 19.53 84.7 20.22 86.87 20.79 89.05 21.35 90.85 21.81 92.66 22.24 94.14 22.57 95.62 22.88 96.81 23.11 98.01 23.3" fill="none" stroke="#aaa" stroke-miterlimit="10" stroke-width=".5"/>
  <polyline points="95.94 .18 87.37 1.75 79.16 4.61 74.87 7.3 71.57 11.12 70.33 14.58 70.23 18.27 70.95 21.54 72.18 24.66 73.27 26.8 74.45 28.87 74.79 29.66 74.08 29.49 71.09 27.34 68.13 25.11 60.91 19.68 53.63 14.3 57.96 15.66 62.28 17.03 66 18.2 69.73 19.37 72.9 20.37 76.07 21.35 78.73 22.18 81.4 22.98 83.62 23.64 85.84 24.28 87.65 24.78 89.47 25.25 90.93 25.6 92.4 25.91 93.56 26.12 94.73 26.28" fill="none" stroke="#aaa" stroke-miterlimit="10" stroke-width=".5"/>
  <polyline points="87.52 .18 79.23 1.92 71.4 5.07 67.25 8.11 64.25 12.27 63.16 16.15 63.21 20.2 64.04 23.82 65.4 27.28 66.61 29.65 67.94 31.94 68.37 32.68 67.98 32.61 65.3 30.16 62.62 27.7 55.85 21.63 48.99 15.65 53.59 17.29 58.18 18.94 62.1 20.35 66.02 21.75 69.32 22.92 72.62 24.08 75.37 25.03 78.12 25.96 80.37 26.7 82.63 27.4 84.44 27.94 86.27 28.44 87.71 28.79 89.16 29.08 90.3 29.25 91.43 29.35" fill="none" stroke="#aaa" stroke-miterlimit="10" stroke-width=".5"/>
  <polyline points="79.34 .18 71.33 2.06 63.85 5.46 59.85 8.8 57.12 13.23 56.17 17.45 56.35 21.79 57.29 25.7 58.76 29.44 60.08 32.01 61.56 34.47 62.04 35.2 61.95 35.19 59.58 32.52 57.14 29.89 50.81 23.32 44.35 16.87 49.2 18.81 54.05 20.75 58.15 22.38 62.25 24.01 65.67 25.36 69.09 26.68 71.9 27.75 74.72 28.79 76.99 29.59 79.28 30.36 81.09 30.92 82.91 31.41 84.33 31.74 85.76 31.99 86.86 32.09 87.97 32.1" fill="none" stroke="#aaa" stroke-miterlimit="10" stroke-width=".5"/>
  <polyline points="71.63 .18 63.88 2.18 56.73 5.76 52.88 9.35 50.37 13.97 49.55 18.46 49.84 23.02 50.86 27.14 52.42 31.1 53.81 33.83 55.41 36.42 55.95 37.17 56.09 37.18 53.99 34.33 51.76 31.57 45.82 24.62 39.71 17.8 44.74 19.99 49.76 22.18 53.98 24.01 58.2 25.83 61.69 27.31 65.18 28.78 68.03 29.94 70.88 31.06 73.16 31.91 75.45 32.7 77.25 33.27 79.06 33.75 80.45 34.05 81.86 34.24 82.95 34.28 84.03 34.19" fill="none" stroke="#aaa" stroke-miterlimit="10" stroke-width=".5"/>
  <polyline points="64.58 .18 57.06 2.26 50.21 5.93 46.5 9.68 44.16 14.4 43.43 19.05 43.8 23.74 44.87 27.99 46.48 32.08 47.92 34.89 49.58 37.57 50.17 38.35 50.47 38.35 48.58 35.4 46.51 32.56 40.89 25.38 35.07 18.35 40.22 20.74 45.37 23.11 49.66 25.09 53.95 27.04 57.48 28.62 61.01 30.18 63.86 31.39 66.72 32.56 68.98 33.43 71.26 34.23 73.03 34.78 74.81 35.23 76.18 35.48 77.56 35.6 78.62 35.57 79.67 35.38" fill="none" stroke="#aaa" stroke-miterlimit="10" stroke-width=".5"/>
  <polyline points="58.23 .18 50.93 2.28 44.33 5.97 40.74 9.77 38.53 14.5 37.86 19.18 38.26 23.9 39.35 28.18 40.97 32.29 42.42 35.13 44.1 37.82 44.72 38.61 45.09 38.6 43.34 35.63 41.39 32.78 36.02 25.55 30.43 18.47 35.63 20.96 40.83 23.45 45.14 25.5 49.46 27.52 52.97 29.15 56.5 30.75 59.32 31.98 62.16 33.16 64.38 34.02 66.62 34.8 68.35 35.32 70.09 35.73 71.42 35.93 72.75 35.98 73.79 35.88 74.8 35.61" fill="none" stroke="#aaa" stroke-miterlimit="10" stroke-width=".5"/>
  <polyline points="52.54 .18 45.46 2.25 39.05 5.88 35.56 9.62 33.43 14.27 32.8 18.88 33.2 23.52 34.28 27.73 35.87 31.78 37.29 34.58 38.95 37.22 39.56 38 39.95 37.99 38.28 35.07 36.4 32.26 31.2 25.15 25.79 18.18 31 20.71 36.2 23.22 40.49 25.28 44.78 27.32 48.26 28.94 51.75 30.53 54.52 31.74 57.31 32.89 59.47 33.72 61.65 34.47 63.32 34.94 65 35.3 66.27 35.44 67.55 35.43 68.55 35.26 69.51 34.91" fill="none" stroke="#aaa" stroke-miterlimit="10" stroke-width=".5"/>
  <polyline points="47.4 .18 40.51 2.17 34.26 5.68 30.87 9.29 28.78 13.78 28.15 18.22 28.53 22.7 29.56 26.77 31.1 30.67 32.47 33.37 34.06 35.92 34.65 36.67 35 36.67 33.35 33.85 31.51 31.14 26.43 24.28 21.15 17.56 26.31 20.04 31.47 22.51 35.7 24.53 39.93 26.52 43.34 28.1 46.76 29.63 49.45 30.8 52.17 31.9 54.25 32.68 56.36 33.37 57.95 33.79 59.56 34.09 60.77 34.19 61.98 34.12 62.93 33.89 63.83 33.5" fill="none" stroke="#aaa" stroke-miterlimit="10" stroke-width=".5"/>
  <polyline points="42.67 .18 35.95 2.07 29.84 5.4 26.53 8.81 24.46 13.09 23.82 17.3 24.15 21.56 25.12 25.42 26.57 29.12 27.87 31.68 29.38 34.1 29.91 34.81 30.2 34.81 28.53 32.14 26.7 29.57 21.7 23.06 16.51 16.68 21.59 19.06 26.67 21.44 30.81 23.37 34.95 25.27 38.27 26.77 41.6 28.23 44.19 29.32 46.81 30.35 48.81 31.07 50.83 31.7 52.33 32.07 53.86 32.31 55 32.36 56.13 32.25 57.03 31.98 57.86 31.55" fill="none" stroke="#aaa" stroke-miterlimit="10" stroke-width=".5"/>
  <polyline points="38.2 .18 31.66 1.94 25.67 5.07 22.43 8.24 20.35 12.26 19.69 16.2 19.97 20.19 20.86 23.8 22.22 27.27 23.43 29.66 24.82 31.93 25.31 32.59 25.49 32.59 23.78 30.1 21.94 27.69 16.98 21.6 11.87 15.63 16.85 17.88 21.82 20.12 25.86 21.93 29.89 23.72 33.1 25.11 36.32 26.47 38.81 27.48 41.33 28.43 43.22 29.07 45.14 29.63 46.56 29.95 47.99 30.14 49.05 30.15 50.1 29.99 50.93 29.7 51.7 29.25" fill="none" stroke="#aaa" stroke-miterlimit="10" stroke-width=".5"/>
  <polyline points="33.86 .18 27.49 1.81 21.61 4.71 18.44 7.62 16.35 11.37 15.66 15.01 15.87 18.71 16.68 22.06 17.94 25.27 19.05 27.48 20.33 29.58 20.76 30.19 20.82 30.2 19.05 27.9 17.2 25.66 12.28 20.03 7.23 14.5 12.08 16.59 16.93 18.67 20.85 20.35 24.77 22 27.86 23.28 30.95 24.53 33.34 25.44 35.73 26.3 37.53 26.88 39.34 27.37 40.66 27.63 42 27.77 42.98 27.75 43.94 27.56 44.72 27.25 45.41 26.79" fill="none" stroke="#aaa" stroke-miterlimit="10" stroke-width=".5"/>
  <polyline points="12.04 17.23 15.82 18.77 19.61 20.29 22.58 21.46 25.56 22.59 27.83 23.42 30.11 24.19 31.8 24.7 33.51 25.12 34.74 25.34 35.98 25.44 36.89 25.38 37.77 25.18 38.48 24.85 39.11 24.39" fill="none" stroke="#aaa" stroke-miterlimit="10" stroke-width=".5"/>
  <polyline points="29.49 .18 23.29 1.67 17.52 4.35 14.42 7.01 12.32 10.49 11.6 13.83 11.75 17.25 12.48 20.34 13.63 23.29 14.66 25.32 15.82 27.26 16.2 27.84 16.15 27.83 14.33 25.72 12.46 23.65" fill="none" stroke="#aaa" stroke-miterlimit="10" stroke-width=".5"/>
  <polyline points="7.13 15.93 10.8 17.34 14.46 18.74 17.31 19.81 20.17 20.84 22.33 21.59 24.5 22.28 26.09 22.73 27.7 23.1 28.85 23.28 30 23.34 30.84 23.27 31.65 23.05 32.3 22.71 32.88 22.26" fill="none" stroke="#aaa" stroke-miterlimit="10" stroke-width=".5"/>
  <polyline points="24.92 .18 18.9 1.55 13.25 4.03 10.24 6.46 8.14 9.7 7.39 12.77 7.49 15.94 8.16 18.78 9.22 21.51 10.16 23.38 11.22 25.17 11.56 25.72 11.4 25.7 9.55 23.77 7.68 21.85" fill="none" stroke="#aaa" stroke-miterlimit="10" stroke-width=".5"/>
  <polyline points="9.39 17.52 12.13 18.51 14.89 19.47 16.95 20.15 19.03 20.78 20.53 21.18 22.04 21.5 23.12 21.65 24.19 21.67 24.97 21.57 25.71 21.33 26.31 20.98 26.84 20.52" fill="none" stroke="#aaa" stroke-miterlimit="10" stroke-width=".5"/>
  <polyline points="20.02 .18 14.18 1.46 8.69 3.77 5.76 6.02 3.69 9.06 2.94 11.92 3 14.87 3.61 17.53 4.59 20.07 5.47 21.81 6.45 23.49 6.77 24.02 6.54 23.98 4.69 22.18 2.83 20.39" fill="none" stroke="#aaa" stroke-miterlimit="10" stroke-width=".5"/>
  <polyline points="4.46 16.79 7.13 17.73 9.8 18.64 11.78 19.28 13.77 19.87 15.2 20.23 16.63 20.5 17.64 20.61 18.64 20.59 19.37 20.46 20.05 20.18 20.62 19.78 21.12 19.3" fill="none" stroke="#aaa" stroke-miterlimit="10" stroke-width=".5"/>
  <polyline points="14.66 .18 9.02 1.4 3.7 3.6" fill="none" stroke="#aaa" stroke-miterlimit="10" stroke-width=".5"/>
  <polyline points="4.96 18.54 6.88 19.16 8.81 19.72 10.17 20.05 11.54 20.29 12.49 20.35 13.44 20.28 14.14 20.09 14.77 19.75 15.33 19.29 15.81 18.74" fill="none" stroke="#aaa" stroke-miterlimit="10" stroke-width=".5"/>
  <polyline points="4.12 20.48 5.44 20.79 6.78 20.98 7.7 21 8.61 20.85 9.3 20.58 9.91 20.15 10.48 19.58 10.99 18.93" fill="none" stroke="#aaa" stroke-miterlimit="10" stroke-width=".5"/>
  <polyline points="4.07 22.34 4.79 21.96 5.41 21.44 6.03 20.73 6.58 19.96" fill="none" stroke="#aaa" stroke-miterlimit="10" stroke-width=".5"/>
</svg>