<?xml version="1.0" encoding="UTF-8"?><svg id="Ebene_1" xmlns="http://www.w3.org/2000/svg" viewBox="0 0 222 222"><polyline points="174.23 .18 162.21 1.71 150.42 4.46 144.4 6.87 139.13 10.58 137.03 13.65 136.28 17.28 136.73 20.34 137.81 23.25 138.77 25.23 139.63 27.22 139 28.12 137.67 27.9 132.71 26.09 127.86 24.02 116.98 19.17 106.11 14.27 112.31 15.61 118.51 16.96 123.7 18.09 128.88 19.21 133.16 20.14 137.43 21.06 140.89 21.79 144.35 22.51 147.08 23.06 149.82 23.59 151.93 23.97 154.05 24.31 155.64 24.52 157.23 24.68 158.4 24.75 159.56 24.74" style="fill:none; stroke:#aaa; stroke-miterlimit:10; stroke-width:.5px;"/><polyline points="168.5 .18 156.68 1.71 145.11 4.47 139.19 6.9 134.03 10.62 131.98 13.71 131.27 17.34 131.73 20.42 132.81 23.34 133.77 25.32 134.64 27.33 134.06 28.23 132.76 28.01 127.92 26.18 123.17 24.09 112.5 19.21 101.84 14.29 107.73 15.59 113.6 16.89 118.57 17.99 123.53 19.09 127.66 20.01 131.78 20.91 135.16 21.65 138.53 22.37 141.24 22.93 143.96 23.48 146.08 23.88 148.21 24.25 149.85 24.5 151.48 24.7 152.7 24.81 153.92 24.85" style="fill:none; stroke:#aaa; stroke-miterlimit:10; stroke-width:.5px;"/><polyline points="162.81 .18 151.2 1.71 139.83 4.47 134.02 6.91 128.97 10.63 126.96 13.74 126.28 17.36 126.75 20.45 127.83 23.37 128.79 25.36 129.67 27.37 129.14 28.27 127.87 28.04 123.13 26.2 118.48 24.11 108.03 19.22 97.57 14.28 103.16 15.53 108.75 16.79 113.5 17.87 118.24 18.94 122.23 19.84 126.21 20.73 129.5 21.47 132.8 22.19 135.47 22.76 138.15 23.31 140.28 23.73 142.41 24.13 144.07 24.4 145.73 24.64 147 24.78 148.26 24.87" style="fill:none; stroke:#aaa; stroke-miterlimit:10; stroke-width:.5px;"/><polyline points="157.16 .18 145.76 1.71 134.6 4.47 128.89 6.9 123.95 10.62 121.98 13.73 121.33 17.35 121.8 20.43 122.88 23.36 123.84 25.34 124.73 27.34 124.23 28.24 123 28.02 118.35 26.17 113.81 24.08 103.56 19.18 93.3 14.24 98.62 15.45 103.94 16.67 108.49 17.71 113.03 18.76 116.88 19.64 120.72 20.52 123.93 21.25 127.14 21.96 129.77 22.54 132.4 23.1 134.53 23.54 136.65 23.95 138.33 24.25 140.01 24.51 141.31 24.68 142.61 24.81" style="fill:none; stroke:#aaa; stroke-miterlimit:10; stroke-width:.5px;"/><polyline points="151.56 .18 140.36 1.71 129.4 4.45 123.79 6.89 118.95 10.59 117.03 13.7 116.41 17.3 116.88 20.37 117.96 23.29 118.91 25.27 119.8 27.27 119.35 28.16 118.13 27.93 113.59 26.09 109.15 24 99.09 19.1 89.04 14.17 94.1 15.34 99.16 16.52 103.52 17.54 107.88 18.55 111.59 19.42 115.3 20.28 118.41 21 121.53 21.71 124.12 22.29 126.7 22.85 128.81 23.3 130.92 23.72 132.61 24.04 134.3 24.33 135.63 24.52 136.96 24.68" style="fill:none; stroke:#aaa; stroke-miterlimit:10; stroke-width:.5px;"/><polyline points="145.98 .18 134.98 1.7 124.23 4.43 118.72 6.86 113.98 10.54 112.09 13.64 111.5 17.22 111.98 20.28 113.05 23.19 114 25.16 114.89 27.15 114.47 28.03 113.28 27.81 108.83 25.96 104.49 23.89 94.63 19 84.77 14.09 89.59 15.22 94.41 16.36 98.58 17.34 102.76 18.33 106.33 19.17 109.91 20.01 112.94 20.72 115.97 21.42 118.5 22 121.03 22.57 123.12 23.02 125.21 23.46 126.9 23.79 128.6 24.1 129.94 24.31 131.29 24.5" style="fill:none; stroke:#aaa; stroke-miterlimit:10; stroke-width:.5px;"/><polyline points="140.42 .18 129.62 1.69 119.07 4.41 113.65 6.82 109.02 10.48 107.17 13.58 106.61 17.13 107.09 20.18 108.15 23.07 109.09 25.04 109.98 27.01 109.59 27.89 108.43 27.67 104.08 25.82 99.83 23.76 90.16 18.89 80.5 13.99 85.1 15.09 89.69 16.18 93.7 17.14 97.7 18.1 101.14 18.93 104.59 19.75 107.53 20.45 110.47 21.14 112.95 21.71 115.43 22.28 117.49 22.74 119.55 23.18 121.24 23.52 122.93 23.84 124.29 24.08 125.66 24.29" style="fill:none; stroke:#aaa; stroke-miterlimit:10; stroke-width:.5px;"/><polyline points="134.85 .18 124.25 1.68 113.9 4.38 108.59 6.79 104.06 10.43 102.25 13.52 101.71 17.05 102.19 20.07 103.25 22.95 104.19 24.91 105.07 26.87 104.72 27.75 103.58 27.52 99.33 25.68 95.17 23.63 85.7 18.78 76.23 13.9 80.62 14.96 85.01 16.02 88.84 16.95 92.68 17.88 96.01 18.69 99.33 19.49 102.19 20.18 105.04 20.86 107.46 21.43 109.88 22 111.92 22.46 113.95 22.9 115.63 23.26 117.31 23.59 118.68 23.85 120.05 24.07" style="fill:none; stroke:#aaa; stroke-miterlimit:10; stroke-width:.5px;"/><polyline points="129.27 .18 118.87 1.67 108.73 4.36 103.51 6.76 99.08 10.38 97.32 13.47 96.8 16.97 97.28 19.99 98.34 22.86 99.27 24.81 100.16 26.76 99.83 27.63 98.73 27.41 94.57 25.57 90.51 23.52 81.23 18.68 71.96 13.82 76.16 14.85 80.35 15.87 84.03 16.78 87.72 17.69 90.93 18.48 94.13 19.26 96.9 19.94 99.67 20.61 102.04 21.18 104.4 21.74 106.4 22.21 108.4 22.66 110.06 23.02 111.73 23.37 113.1 23.63 114.48 23.88" style="fill:none; stroke:#aaa; stroke-miterlimit:10; stroke-width:.5px;"/><polyline points="123.65 .18 113.46 1.67 103.52 4.35 98.4 6.75 94.08 10.35 92.36 13.44 91.87 16.93 92.36 19.94 93.41 22.8 94.33 24.75 95.23 26.69 94.94 27.56 93.86 27.33 89.81 25.49 85.84 23.44 76.77 18.61 67.69 13.76 71.71 14.75 75.72 15.76 79.26 16.64 82.8 17.53 85.9 18.3 88.99 19.07 91.68 19.74 94.37 20.41 96.68 20.97 98.99 21.53 100.95 22 102.91 22.45 104.57 22.82 106.22 23.18 107.59 23.46 108.96 23.71" style="fill:none; stroke:#aaa; stroke-miterlimit:10; stroke-width:.5px;"/><polyline points="118 .18 108.01 1.67 98.28 4.34 93.26 6.75 89.05 10.34 87.37 13.43 86.91 16.92 87.4 19.92 88.45 22.79 89.38 24.73 90.28 26.68 90.03 27.54 88.98 27.31 85.03 25.46 81.17 23.41 72.3 18.57 63.42 13.71 67.27 14.69 71.12 15.67 74.52 16.54 77.92 17.4 80.92 18.17 83.91 18.93 86.52 19.59 89.12 20.25 91.38 20.81 93.63 21.37 95.56 21.83 97.49 22.29 99.12 22.67 100.75 23.03 102.12 23.32 103.49 23.6" style="fill:none; stroke:#aaa; stroke-miterlimit:10; stroke-width:.5px;"/><polyline points="112.31 .18 102.52 1.67 93 4.34 88.09 6.76 83.98 10.36 82.35 13.46 81.92 16.94 82.43 19.95 83.47 22.82 84.4 24.77 85.31 26.72 85.11 27.58 84.09 27.35 80.24 25.49 76.48 23.44 67.82 18.57 59.15 13.7 62.85 14.66 66.54 15.61 69.82 16.47 73.09 17.32 75.99 18.08 78.88 18.83 81.41 19.48 83.94 20.14 86.14 20.7 88.34 21.26 90.23 21.73 92.13 22.19 93.74 22.57 95.35 22.95 96.71 23.25 98.07 23.53" style="fill:none; stroke:#aaa; stroke-miterlimit:10; stroke-width:.5px;"/><polyline points="106.58 .18 97 1.67 87.69 4.35 82.87 6.79 78.89 10.39 77.3 13.52 76.9 17 77.42 20.03 78.47 22.91 79.4 24.87 80.32 26.82 80.17 27.68 79.19 27.45 75.45 25.57 71.8 23.51 63.34 18.61 54.88 13.71 58.44 14.65 61.98 15.6 65.15 16.44 68.31 17.28 71.11 18.03 73.91 18.78 76.37 19.43 78.83 20.08 80.97 20.64 83.12 21.2 84.98 21.68 86.83 22.14 88.42 22.54 90.01 22.92 91.36 23.23 92.71 23.52" style="fill:none; stroke:#aaa; stroke-miterlimit:10; stroke-width:.5px;"/><polyline points="100.81 .19 91.43 1.68 82.34 4.38 77.62 6.83 73.76 10.45 72.22 13.61 71.86 17.11 72.39 20.15 73.44 23.05 74.38 25.02 75.31 26.98 75.22 27.84 74.26 27.61 70.64 25.71 67.1 23.63 58.86 18.69 50.61 13.75 54.03 14.68 57.44 15.61 60.5 16.45 63.55 17.28 66.26 18.03 68.97 18.77 71.36 19.42 73.75 20.07 75.84 20.64 77.94 21.2 79.76 21.68 81.58 22.15 83.15 22.55 84.71 22.94 86.05 23.26 87.39 23.56" style="fill:none; stroke:#aaa; stroke-miterlimit:10; stroke-width:.5px;"/><polyline points="94.99 .19 85.82 1.69 76.95 4.4 72.34 6.89 68.59 10.53 67.11 13.73 66.78 17.24 67.33 20.31 68.39 23.24 69.33 25.23 70.28 27.21 70.26 28.07 69.33 27.83 65.82 25.9 62.39 23.8 54.37 18.81 46.34 13.81 49.64 14.74 52.93 15.66 55.88 16.49 58.83 17.33 61.46 18.07 64.08 18.81 66.41 19.46 68.73 20.11 70.78 20.68 72.83 21.25 74.61 21.73 76.4 22.21 77.94 22.62 79.49 23.01 80.81 23.34 82.14 23.66" style="fill:none; stroke:#aaa; stroke-miterlimit:10; stroke-width:.5px;"/><polyline points="89.07 .19 80.11 1.7 71.47 4.45 66.96 6.99 63.34 10.66 61.91 13.92 61.63 17.47 62.19 20.58 63.27 23.55 64.23 25.58 65.2 27.58 65.25 28.44 64.35 28.2 60.97 26.22 57.66 24.1 49.88 19.01 42.07 13.94 45.26 14.86 48.44 15.79 51.3 16.63 54.16 17.46 56.71 18.21 59.26 18.95 61.53 19.61 63.8 20.27 65.8 20.85 67.8 21.42 69.55 21.91 71.3 22.4 72.83 22.82 74.35 23.22 75.66 23.56 76.98 23.89" style="fill:none; stroke:#aaa; stroke-miterlimit:10; stroke-width:.5px;"/><polyline points="82.88 .19 74.14 1.74 65.74 4.56 61.34 7.19 57.87 10.94 56.51 14.31 56.29 17.95 56.88 21.14 57.99 24.2 58.97 26.29 59.99 28.34 60.14 29.2 59.28 28.97 56.05 26.91 52.89 24.73 45.36 19.47 37.81 14.23 40.91 15.18 44 16.13 46.79 16.98 49.58 17.84 52.08 18.61 54.57 19.37 56.79 20.05 59.01 20.73 60.98 21.32 62.94 21.91 64.67 22.42 66.4 22.93 67.9 23.36 69.41 23.78 70.71 24.14 72.02 24.48" style="fill:none; stroke:#aaa; stroke-miterlimit:10; stroke-width:.5px;"/><polyline points="76.27 .19 67.76 1.82 59.63 4.76 55.33 7.55 52.06 11.46 50.78 15.03 50.64 18.82 51.29 22.17 52.45 25.39 53.47 27.58 54.56 29.73 54.84 30.57 54.06 30.38 51.02 28.18 48.03 25.88 40.81 20.32 33.54 14.8 36.59 15.8 39.63 16.81 42.38 17.71 45.13 18.62 47.59 19.43 50.05 20.24 52.24 20.95 54.44 21.67 56.38 22.3 58.33 22.93 60.04 23.47 61.75 24.01 63.25 24.47 64.75 24.92 66.05 25.3 67.35 25.66" style="fill:none; stroke:#aaa; stroke-miterlimit:10; stroke-width:.5px;"/><polyline points="69.17 .19 60.9 1.93 53.07 5.07 48.89 8.11 45.84 12.25 44.68 16.11 44.63 20.15 45.36 23.75 46.6 27.21 47.7 29.57 48.9 31.86 49.26 32.66 48.67 32.54 45.86 30.13 43.08 27.67 36.21 21.65 29.27 15.69 32.3 16.79 35.33 17.88 38.07 18.87 40.8 19.86 43.25 20.75 45.71 21.63 47.9 22.41 50.08 23.19 52.03 23.88 53.97 24.56 55.68 25.16 57.39 25.74 58.89 26.24 60.39 26.74 61.69 27.15 63 27.55" style="fill:none; stroke:#aaa; stroke-miterlimit:10; stroke-width:.5px;"/><polyline points="61.62 .19 53.61 2.08 46.11 5.47 42.07 8.82 39.27 13.24 38.24 17.46 38.32 21.81 39.14 25.71 40.49 29.46 41.68 32.02 43.02 34.49 43.44 35.26 43.12 35.21 40.59 32.56 38.04 29.91 31.57 23.35 25 16.88 28.05 18.11 31.09 19.34 33.84 20.44 36.59 21.55 39.06 22.54 41.52 23.52 43.72 24.4 45.92 25.27 47.88 26.04 49.83 26.8 51.55 27.46 53.28 28.1 54.78 28.66 56.3 29.21 57.61 29.66 58.93 30.1" style="fill:none; stroke:#aaa; stroke-miterlimit:10; stroke-width:.5px;"/><polyline points="53.81 .19 46.04 2.25 38.91 5.91 35.02 9.61 32.47 14.34 31.59 18.94 31.8 23.62 32.74 27.85 34.21 31.92 35.51 34.7 37 37.38 37.49 38.15 37.48 38.15 35.26 35.25 32.95 32.4 26.92 25.28 20.73 18.27 23.81 19.66 26.88 21.04 29.65 22.29 32.43 23.53 34.91 24.65 37.4 25.76 39.62 26.74 41.84 27.72 43.82 28.58 45.79 29.43 47.53 30.17 49.27 30.89 50.8 31.52 52.33 32.12 53.65 32.63 54.99 33.12" style="fill:none; stroke:#aaa; stroke-miterlimit:10; stroke-width:.5px;"/><polyline points="45.94 .19 38.43 2.44 31.66 6.36 27.93 10.44 25.64 15.46 24.9 20.45 25.25 25.49 26.31 30.05 27.9 34.45 29.31 37.46 30.96 40.35 31.54 41.19 31.82 41.19 29.92 38.03 27.86 34.97 22.26 27.27 16.46 19.7 19.55 21.25 22.63 22.79 25.41 24.18 28.19 25.57 30.69 26.81 33.19 28.05 35.43 29.14 37.66 30.23 39.65 31.19 41.63 32.13 43.39 32.95 45.15 33.76 46.69 34.45 48.24 35.12 49.58 35.68 50.94 36.22" style="fill:none; stroke:#aaa; stroke-miterlimit:10; stroke-width:.5px;"/><polyline points="38.31 .19 31.03 2.61 24.62 6.78 21.06 11.2 18.99 16.49 18.4 21.83 18.87 27.19 20.03 32.05 21.73 36.75 23.24 39.97 25.03 43.04 25.72 43.96 26.24 43.93 24.66 40.55 22.8 37.3 17.63 29.07 12.19 21 15.26 22.68 18.33 24.37 21.1 25.89 23.88 27.4 26.37 28.75 28.87 30.1 31.1 31.3 33.34 32.48 35.33 33.53 37.32 34.56 39.08 35.45 40.85 36.33 42.4 37.08 43.96 37.81 45.32 38.42 46.69 39.01" style="fill:none; stroke:#aaa; stroke-miterlimit:10; stroke-width:.5px;"/><polyline points="31.16 .19 24.11 2.75 18.03 7.09 14.62 11.78 12.74 17.26 12.27 22.87 12.84 28.47 14.08 33.57 15.86 38.49 17.45 41.87 19.35 45.08 20.12 46.07 20.83 46.02 19.52 42.47 17.84 39.06 13.04 30.44 7.92 21.98 10.94 23.76 13.96 25.54 16.7 27.15 19.44 28.75 21.9 30.19 24.37 31.62 26.58 32.88 28.8 34.14 30.77 35.25 32.75 36.34 34.51 37.29 36.27 38.23 37.82 39.03 39.38 39.8 40.75 40.46 42.12 41.09" style="fill:none; stroke:#aaa; stroke-miterlimit:10; stroke-width:.5px;"/><polyline points="24.74 .19 17.9 2.83 12.08 7.25 8.82 12.09 7.08 17.67 6.7 23.42 7.33 29.15 8.61 34.37 10.44 39.41 12.06 42.88 14.02 46.16 14.85 47.19 15.68 47.12 14.57 43.49 13.02 39.99 8.51 31.16 3.65 22.5 6.59 24.32 9.52 26.13 12.19 27.78 14.85 29.41 17.26 30.88 19.67 32.34 21.83 33.65 24 34.94 25.94 36.08 27.89 37.2 29.62 38.18 31.35 39.15 32.89 39.98 34.43 40.78 35.79 41.47 37.16 42.12" style="fill:none; stroke:#aaa; stroke-miterlimit:10; stroke-width:.5px;"/><polyline points="19.17 .18 12.53 2.83 6.92 7.24 3.77 12.09 2.12 17.64 1.78 23.38 2.43 29.09 3.71 34.3 5.54 39.33 7.15 42.79 9.11 46.07 9.96 47.1 10.83 47.02 9.82 43.4 8.36 39.91 4.05 31.1 -.62 22.45 2.2 24.24 5.01 26.02 7.57 27.64 10.13 29.25 12.45 30.7 14.77 32.14 16.86 33.43 18.96 34.71 20.84 35.84 22.73 36.96 24.42 37.94 26.11 38.91 27.61 39.74 29.12 40.55 30.45 41.25 31.79 41.92" style="fill:none; stroke:#aaa; stroke-miterlimit:10; stroke-width:.5px;"/><polyline points="14.52 .18 8.05 2.75 2.59 7.03 -.48 11.73 -2.1 17.12 -2.44 22.69 -1.81 28.24 -.57 33.29 1.2 38.18 2.76 41.53 4.65 44.71 5.47 45.71 6.3 45.64 5.31 42.12 3.88 38.74 -.33 30.19 -4.89 21.8 -2.22 23.49 .45 25.17 2.88 26.7 5.31 28.23 7.52 29.61 9.73 30.98 11.73 32.21 13.73 33.43 15.53 34.52 17.34 35.59 18.96 36.54 20.59 37.47 22.03 38.28 23.49 39.08 24.78 39.75 26.08 40.41" style="fill:none; stroke:#aaa; stroke-miterlimit:10; stroke-width:.5px;"/><polyline points="10.74 .19 4.43 2.6 -.95 6.64 -3.98 11.05 -5.61 16.15 -5.98 21.39 -5.43 26.63 -4.27 31.38 -2.61 35.99 -1.14 39.15 .63 42.15 1.37 43.08 2.09 43.02 1.01 39.71 -.44 36.52 -4.65 28.46 -9.16 20.56 -6.67 22.09 -4.17 23.62 -1.9 25.01 .38 26.4 2.46 27.66 4.53 28.92 6.42 30.04 8.3 31.16 10.01 32.17 11.71 33.16 13.25 34.04 14.79 34.9 16.17 35.66 17.55 36.41 18.78 37.05 20.02 37.68" style="fill:none; stroke:#aaa; stroke-miterlimit:10; stroke-width:.5px;"/><polyline points="7.69 .19 1.53 2.37 -3.83 6.09 -6.83 10.08 -8.52 14.78 -8.97 19.57 -8.51 24.36 -7.48 28.72 -5.97 32.92 -4.63 35.81 -3.04 38.55 -2.41 39.38 -1.87 39.35 -3.1 36.33 -4.62 33.41 -8.89 26.05 -13.42 18.83 -11.13 20.15 -8.85 21.48 -6.75 22.69 -4.65 23.89 -2.73 24.99 -.81 26.09 .94 27.08 2.69 28.07 4.27 28.95 5.86 29.83 7.3 30.61 8.73 31.39 10.03 32.07 11.32 32.74 12.48 33.33 13.64 33.9" style="fill:none; stroke:#aaa; stroke-miterlimit:10; stroke-width:.5px;"/><polyline points="5.16 .19 -.87 2.11 -6.24 5.43 -9.22 8.91 -11.01 13.14 -11.55 17.37 -11.23 21.63 -10.34 25.49 -9.01 29.22 -7.84 31.78 -6.45 34.22 -5.95 34.93 -5.65 34.93 -7.08 32.25 -8.69 29.67 -13.1 23.14 -17.69 16.74 -15.63 17.83 -13.57 18.92 -11.67 19.92 -9.77 20.92 -8.03 21.83 -6.29 22.74 -4.69 23.57 -3.1 24.4 -1.65 25.15 -.19 25.89 1.13 26.56 2.45 27.22 3.64 27.81 4.84 28.39 5.91 28.9 6.99 29.41" style="fill:none; stroke:#aaa; stroke-miterlimit:10; stroke-width:.5px;"/><polyline points="2.88 .19 -3.03 1.82 -8.42 4.7 -11.38 7.64 -13.29 11.35 -13.95 14.98 -13.77 18.67 -13.04 21.99 -11.9 25.2 -10.9 27.4 -9.74 29.51 -9.36 30.12 -9.33 30.12 -10.99 27.83 -12.72 25.59 -17.28 19.99 -21.96 14.47 -20.14 15.32 -18.31 16.17 -16.63 16.96 -14.94 17.74 -13.38 18.46 -11.83 19.19 -10.4 19.85 -8.97 20.51 -7.66 21.11 -6.35 21.71 -5.15 22.25 -3.96 22.79 -2.87 23.27 -1.78 23.75 -.79 24.18 .2 24.6" style="fill:none; stroke:#aaa; stroke-miterlimit:10; stroke-width:.5px;"/><polyline points=".56 .18 -5.23 1.55 -10.65 3.99 -13.57 6.39 -15.61 9.57 -16.37 12.6 -16.34 15.72 -15.77 18.52 -14.82 21.21 -13.98 23.05 -13.05 24.82 -12.76 25.39 -13.04 25.34 -14.9 23.45 -16.76 21.54 -21.46 16.85 -26.23 12.21 -24.65 12.84 -23.07 13.47 -21.61 14.06 -20.14 14.65 -18.78 15.19 -17.42 15.73 -16.16 16.23 -14.9 16.74 -13.74 17.2 -12.58 17.66 -11.51 18.08 -10.44 18.49 -9.46 18.88 -8.48 19.25 -7.58 19.6 -6.69 19.93" style="fill:none; stroke:#aaa; stroke-miterlimit:10; stroke-width:.5px;"/></svg>