<?xml version="1.0" encoding="UTF-8"?>
<svg id="Ebene_1" xmlns="http://www.w3.org/2000/svg" width="222" height="222" viewBox="0 0 222 222">
  <polyline points="109.39 2.77 122.74 6.48 135.9 10.8 143.26 13.71 150.37 17.2 153.85 19.39 157.05 21.97 158.61 23.54 160.18 25.07 161.97 26.08 164 26.5 168.37 26.54 172.75 26.22 181.71 25.28 190.67 24.23 206.33 22.35 222 20.49 209.91 23.31 197.79 26.01 192.51 27.05 187.19 27.73 185.8 27.58 185.43 26.45 186.55 24.69 187.74 22.97 188.94 20.64 189.37 18.07 188.11 14.89 185.54 12.57 178.75 9.34 171.49 7.24 157.05 4.59 142.45 2.9 143.86 2.76 145.27 2.61 146.63 2.47 147.99 2.32 149.29 2.16 150.59 2.01 151.84 1.85 153.09 1.7 154.28 1.54 155.48 1.37 156.62 1.21 157.77 1.04 158.86 .88 159.96 .7 161 .53 162.05 .36" fill="none" stroke="#aaa" stroke-miterlimit="10" stroke-width=".5"/>
  <polyline points="103.4 2.77 116.49 6.89 129.35 11.65 136.63 14.9 143.61 18.73 147.12 21.16 150.33 23.98 151.97 25.7 153.65 27.37 155.55 28.45 157.71 28.89 162.19 28.89 166.67 28.51 175.67 27.43 184.66 26.22 200.25 24.09 215.84 21.99 204.12 25.1 192.38 28.1 187.38 29.25 182.31 30.03 181 29.84 180.93 28.65 182.21 26.74 183.52 24.84 184.83 22.29 185.36 19.48 184.26 16.06 181.73 13.45 175.11 9.93 167.93 7.63 153.67 4.74 139.24 2.9 140.59 2.75 141.95 2.6 143.25 2.44 144.56 2.29 145.81 2.13 147.07 1.96 148.27 1.8 149.47 1.63 150.63 1.47 151.79 1.29 152.89 1.12 154 .95 155.06 .77 156.12 .59 157.13 .41 158.15 .23" fill="none" stroke="#aaa" stroke-miterlimit="10" stroke-width=".5"/>
  <polyline points="97.42 2.77 110.25 7.31 122.82 12.53 130.01 16.11 136.86 20.29 140.39 22.98 143.61 26.03 145.33 27.92 147.11 29.71 149.13 30.86 151.42 31.32 156.01 31.29 160.58 30.84 169.63 29.6 178.66 28.24 194.17 25.85 209.69 23.49 198.34 26.86 186.97 30.13 182.23 31.36 177.44 32.23 176.21 31.94 176.43 30.74 177.86 28.69 179.29 26.62 180.71 23.86 181.34 20.82 180.38 17.18 177.92 14.3 171.46 10.51 164.36 8.01 150.29 4.89 136.01 2.9 137.31 2.74 138.62 2.58 139.87 2.42 141.12 2.26 142.33 2.09 143.54 1.92 144.7 1.75 145.86 1.58 146.97 1.41 148.09 1.23 149.16 1.05 150.23 .86 151.25 .68 152.28 .49 153.26 .31 154.24 .11" fill="none" stroke="#aaa" stroke-miterlimit="10" stroke-width=".5"/>
  <polyline points="91.56 2.77 104.14 7.7 116.41 13.35 123.51 17.25 130.25 21.75 133.79 24.68 137.02 27.94 138.8 29.98 140.69 31.9 142.81 33.11 145.22 33.59 149.9 33.52 154.56 33 163.63 31.62 172.68 30.1 188.1 27.47 203.53 24.87 192.54 28.45 181.53 31.94 177.05 33.24 172.51 34.17 171.41 33.76 171.85 32.59 173.42 30.41 174.95 28.19 176.47 25.24 177.19 22.01 176.37 18.18 173.96 15.06 167.67 11.03 160.66 8.35 146.78 5.02 132.66 2.9 133.91 2.74 135.16 2.57 136.36 2.41 137.56 2.24 138.72 2.07 139.88 1.89 141 1.72 142.11 1.54 143.19 1.36 144.26 1.18 145.29 .99 146.32 .8 147.31 .62 148.3 .42 149.25 .23 150.2 .03" fill="none" stroke="#aaa" stroke-miterlimit="10" stroke-width=".5"/>
  <polyline points="85.94 2.77 98.27 8.04 110.26 14.04 117.27 18.21 123.88 22.98 127.42 26.11 130.65 29.55 132.49 31.71 134.46 33.73 136.66 34.99 139.16 35.5 143.91 35.39 148.64 34.81 157.7 33.31 166.75 31.66 182.05 28.81 197.37 26 186.72 29.76 176.04 33.43 171.8 34.79 167.48 35.78 166.56 35.23 167.12 34.11 168.81 31.83 170.42 29.49 172.03 26.39 172.82 22.99 172.11 19.01 169.77 15.69 163.64 11.46 156.71 8.63 143.03 5.13 129.08 2.9 130.27 2.74 131.47 2.57 132.62 2.4 133.77 2.23 134.88 2.06 135.99 1.88 137.06 1.7 138.13 1.52 139.16 1.34 140.19 1.15 141.18 .97 142.17 .78 143.12 .59 144.07 .39 144.99 .2 145.9 0" fill="none" stroke="#aaa" stroke-miterlimit="10" stroke-width=".5"/>
  <polyline points="80.64 2.77 92.73 8.29 104.46 14.54 111.36 18.91 117.85 23.86 121.37 27.14 124.6 30.71 126.47 32.96 128.49 35.05 130.75 36.35 133.31 36.86 138.1 36.73 142.85 36.11 151.88 34.51 160.89 32.76 176.04 29.76 191.21 26.8 180.85 30.67 170.48 34.48 166.43 35.86 162.3 36.9 161.56 36.26 162.18 35.17 163.95 32.82 165.62 30.4 167.29 27.19 168.14 23.68 167.51 19.59 165.23 16.12 159.24 11.76 152.41 8.83 138.94 5.21 125.17 2.9 126.31 2.74 127.44 2.57 128.54 2.4 129.64 2.23 130.7 2.06 131.75 1.89 132.78 1.71 133.8 1.53 134.78 1.35 135.77 1.17 136.72 .98 137.66 .79 138.58 .6 139.49 .41 140.37 .22 141.25 .02" fill="none" stroke="#aaa" stroke-miterlimit="10" stroke-width=".5"/>
  <polyline points="75.76 2.77 87.63 8.41 99.11 14.77 105.9 19.24 112.28 24.28 115.77 27.63 118.97 31.25 120.84 33.55 122.89 35.67 125.16 36.98 127.75 37.49 132.52 37.35 137.26 36.7 146.2 35.06 155.12 33.26 170.08 30.18 185.05 27.14 174.95 31.06 164.83 34.92 160.93 36.32 156.94 37.37 156.32 36.68 156.96 35.62 158.76 33.24 160.47 30.78 162.16 27.52 163.03 23.97 162.46 19.84 160.23 16.31 154.38 11.9 147.64 8.91 134.39 5.24 120.84 2.9 121.91 2.74 122.99 2.58 124.03 2.42 125.07 2.25 126.07 2.08 127.08 1.91 128.05 1.74 129.02 1.57 129.96 1.39 130.9 1.21 131.8 1.04 132.71 .85 133.58 .67 134.45 .48 135.29 .3 136.13 .11" fill="none" stroke="#aaa" stroke-miterlimit="10" stroke-width=".5"/>
  <polyline points="71.41 2.77 83.06 8.37 94.33 14.68 101 19.12 107.26 24.11 110.69 27.44 113.84 31.03 115.69 33.31 117.71 35.41 119.96 36.71 122.51 37.22 127.22 37.07 131.89 36.42 140.69 34.79 149.47 33 164.17 29.94 178.89 26.92 168.98 30.81 159.07 34.63 155.25 36.02 151.36 37.07 150.77 36.37 151.41 35.33 153.19 32.97 154.88 30.53 156.55 27.3 157.42 23.78 156.87 19.7 154.68 16.19 148.94 11.82 142.32 8.86 129.31 5.22 115.99 2.9 117 2.75 118.01 2.6 119 2.44 119.98 2.28 120.93 2.13 121.88 1.96 122.8 1.8 123.72 1.64 124.61 1.47 125.5 1.3 126.36 1.13 127.21 .96 128.05 .79 128.87 .61 129.68 .43 130.48 .25" fill="none" stroke="#aaa" stroke-miterlimit="10" stroke-width=".5"/>
  <polyline points="67.59 2.77 79.04 8.16 90.12 14.25 96.67 18.52 102.81 23.34 106.17 26.54 109.24 30.01 111.04 32.21 112.99 34.24 115.16 35.49 117.63 35.99 122.21 35.86 126.75 35.24 135.35 33.68 143.93 31.96 158.33 29.02 172.74 26.12 162.97 29.88 153.19 33.58 149.4 34.92 145.54 35.93 144.9 35.28 145.51 34.25 147.22 31.97 148.85 29.61 150.45 26.49 151.29 23.09 150.72 19.13 148.57 15.74 142.91 11.52 136.43 8.66 123.66 5.14 110.6 2.9 111.55 2.76 112.5 2.62 113.42 2.48 114.34 2.33 115.24 2.19 116.12 2.04 116.99 1.89 117.85 1.74 118.7 1.58 119.53 1.43 120.35 1.27 121.15 1.11 121.94 .96 122.72 .79 123.48 .63 124.24 .47" fill="none" stroke="#aaa" stroke-miterlimit="10" stroke-width=".5"/>
  <polyline points="64.25 2.77 75.51 7.8 86.43 13.5 92.84 17.49 98.88 22.01 102.13 25 105.11 28.27 106.82 30.33 108.66 32.24 110.72 33.43 113.06 33.91 117.46 33.8 121.83 33.24 130.17 31.79 138.49 30.2 152.53 27.48 166.58 24.78 156.9 28.34 147.21 31.82 143.39 33.1 139.5 34.05 138.75 33.49 139.29 32.47 140.89 30.31 142.41 28.09 143.92 25.15 144.68 21.94 144.07 18.18 141.93 15.01 136.36 11.01 130.01 8.33 117.5 5.01 104.73 2.9 105.62 2.77 106.49 2.65 107.35 2.52 108.21 2.39 109.04 2.26 109.87 2.13 110.68 1.99 111.49 1.86 112.28 1.72 113.06 1.58 113.82 1.45 114.58 1.3 115.32 1.16 116.05 1.02 116.77 .87 117.48 .73" fill="none" stroke="#aaa" stroke-miterlimit="10" stroke-width=".5"/>
  <polyline points="61.26 2.77 72.33 7.33 83.11 12.54 89.38 16.15 95.31 20.3 98.45 23.01 101.32 26.01 102.92 27.89 104.63 29.65 106.54 30.76 108.71 31.2 112.89 31.13 117.05 30.64 125.1 29.35 133.13 27.93 146.77 25.48 160.42 23.06 150.79 26.35 141.15 29.56 137.27 30.75 133.32 31.61 132.41 31.18 132.85 30.16 134.29 28.16 135.68 26.12 137.07 23.41 137.73 20.45 137.05 16.95 134.93 14.06 129.42 10.37 123.22 7.9 110.98 4.85 98.51 2.9 99.33 2.79 100.14 2.68 100.94 2.57 101.73 2.46 102.5 2.34 103.27 2.23 104.02 2.11 104.77 1.99 105.5 1.87 106.23 1.76 106.94 1.63 107.65 1.51 108.34 1.39 109.02 1.26 109.7 1.14 110.36 1.01" fill="none" stroke="#aaa" stroke-miterlimit="10" stroke-width=".5"/>
  <polyline points="58.43 2.77 69.32 6.82 79.96 11.48 86.09 14.68 91.9 18.4 94.92 20.81 97.68 23.52 99.16 25.2 100.72 26.8 102.47 27.81 104.46 28.22 108.41 28.18 112.35 27.77 120.08 26.65 127.8 25.42 141.03 23.27 154.26 21.15 144.67 24.14 135.06 27.05 131.1 28.14 127.07 28.91 126.05 28.63 126.31 27.59 127.58 25.77 128.83 23.94 130.07 21.48 130.63 18.79 129.86 15.59 127.77 13.01 122.31 9.65 116.26 7.43 104.3 4.66 92.14 2.9 92.89 2.81 93.64 2.71 94.37 2.62 95.1 2.52 95.81 2.42 96.52 2.33 97.22 2.23 97.91 2.13 98.58 2.03 99.26 1.92 99.92 1.82 100.57 1.72 101.21 1.61 101.85 1.51 102.48 1.4 103.09 1.29" fill="none" stroke="#aaa" stroke-miterlimit="10" stroke-width=".5"/>
  <polyline points="55.53 2.77 66.24 6.34 76.75 10.46 82.73 13.27 88.44 16.58 91.34 18.69 93.98 21.11 95.35 22.61 96.76 24.04 98.36 24.96 100.18 25.34 103.9 25.34 107.62 25 115.04 24.04 122.46 22.98 135.28 21.12 148.11 19.28 138.55 21.98 128.99 24.59 124.94 25.58 120.85 26.26 119.78 26.08 119.82 25.08 120.91 23.44 122.02 21.8 123.14 19.59 123.6 17.18 122.74 14.25 120.67 11.98 115.27 8.95 109.37 6.96 97.68 4.48 85.83 2.9 86.52 2.82 87.2 2.74 87.88 2.66 88.55 2.58 89.21 2.5 89.86 2.41 90.5 2.33 91.14 2.25 91.76 2.16 92.38 2.07 93 1.99 93.6 1.9 94.2 1.81 94.79 1.72 95.37 1.63 95.95 1.54" fill="none" stroke="#aaa" stroke-miterlimit="10" stroke-width=".5"/>
  <polyline points="52.37 2.77 62.9 5.93 73.26 9.6 79.09 12.09 84.69 15.05 87.48 16.92 90.02 19.09 91.3 20.43 92.59 21.72 94.05 22.57 95.72 22.91 99.25 22.93 102.77 22.65 109.92 21.83 117.06 20.91 129.5 19.29 141.95 17.69 132.46 20.1 122.97 22.4 118.87 23.29 114.74 23.88 113.66 23.75 113.49 22.81 114.44 21.32 115.44 19.86 116.44 17.89 116.81 15.72 115.88 13.05 113.85 11.06 108.51 8.33 102.76 6.56 91.34 4.32 79.78 2.9 80.41 2.83 81.04 2.76 81.66 2.7 82.27 2.63 82.88 2.56 83.48 2.49 84.07 2.42 84.66 2.34 85.24 2.27 85.81 2.2 86.38 2.13 86.94 2.05 87.49 1.98 88.04 1.9 88.58 1.83 89.11 1.75" fill="none" stroke="#aaa" stroke-miterlimit="10" stroke-width=".5"/>
  <polyline points="48.79 2.77 59.12 5.65 69.3 9 75 11.27 80.49 13.98 83.19 15.67 85.65 17.68 86.85 18.9 88.06 20.1 89.43 20.88 90.99 21.21 94.36 21.24 97.74 21 104.66 20.27 111.57 19.45 123.68 17.98 135.79 16.54 126.42 18.74 117.04 20.84 112.95 21.65 108.81 22.18 107.74 22.07 107.43 21.19 108.29 19.82 109.21 18.48 110.13 16.67 110.45 14.68 109.47 12.21 107.48 10.4 102.22 7.89 96.61 6.26 85.44 4.21 74.16 2.9 74.74 2.84 75.31 2.78 75.88 2.72 76.44 2.66 77 2.6 77.55 2.54 78.1 2.48 78.64 2.42 79.17 2.36 79.7 2.29 80.22 2.23 80.74 2.17 81.25 2.1 81.76 2.04 82.26 1.97 82.75 1.91" fill="none" stroke="#aaa" stroke-miterlimit="10" stroke-width=".5"/>
  <polyline points="44.68 2.77 54.8 5.51 64.78 8.71 70.36 10.87 75.74 13.46 78.36 15.08 80.77 17 81.93 18.16 83.09 19.31 84.41 20.06 85.92 20.37 89.2 20.41 92.47 20.18 99.22 19.49 105.97 18.72 117.8 17.33 129.63 15.96 120.43 18.06 111.22 20.06 107.19 20.83 103.12 21.34 102.06 21.23 101.72 20.38 102.53 19.07 103.41 17.79 104.29 16.06 104.59 14.16 103.62 11.79 101.67 10.07 96.51 7.67 91.02 6.12 80.09 4.15 69.05 2.9 69.59 2.85 70.11 2.79 70.63 2.74 71.15 2.69 71.66 2.63 72.17 2.58 72.67 2.52 73.16 2.47 73.65 2.41 74.14 2.36 74.62 2.3 75.1 2.25 75.57 2.19 76.04 2.13 76.5 2.07 76.96 2.01" fill="none" stroke="#aaa" stroke-miterlimit="10" stroke-width=".5"/>
  <polyline points="40.04 2.77 49.94 5.53 59.69 8.74 65.15 10.91 70.42 13.51 73 15.14 75.36 17.06 76.52 18.23 77.68 19.38 79 20.13 80.5 20.44 83.74 20.47 86.98 20.23 93.62 19.53 100.26 18.74 111.86 17.34 123.47 15.95 114.5 18.06 105.52 20.08 101.61 20.86 97.66 21.37 96.63 21.26 96.35 20.42 97.18 19.1 98.06 17.82 98.95 16.09 99.26 14.18 98.33 11.81 96.42 10.08 91.39 7.67 86.01 6.12 75.31 4.15 64.49 2.9 64.97 2.85 65.45 2.8 65.93 2.75 66.4 2.7 66.87 2.65 67.33 2.6 67.79 2.55 68.25 2.5 68.7 2.45 69.15 2.4 69.59 2.34 70.03 2.29 70.46 2.24 70.89 2.19 71.32 2.13 71.74 2.08" fill="none" stroke="#aaa" stroke-miterlimit="10" stroke-width=".5"/>
  <polyline points="34.93 2.77 44.59 5.68 54.09 9.06 59.45 11.35 64.59 14.07 67.16 15.8 69.5 17.8 70.68 19.03 71.87 20.22 73.24 20.99 74.78 21.31 78.03 21.32 81.28 21.06 87.86 20.3 94.44 19.45 105.88 17.95 117.32 16.47 108.63 18.69 99.92 20.82 96.18 21.63 92.4 22.18 91.42 22.06 91.28 21.2 92.18 19.83 93.1 18.49 94.03 16.67 94.39 14.68 93.54 12.23 91.68 10.39 86.78 7.88 81.5 6.26 71.01 4.2 60.39 2.9 60.84 2.85 61.27 2.81 61.71 2.76 62.14 2.71 62.57 2.66 62.99 2.61 63.41 2.56 63.82 2.52 64.24 2.47 64.65 2.42 65.05 2.37 65.45 2.32 65.85 2.27 66.25 2.21 66.64 2.16 67.03 2.11" fill="none" stroke="#aaa" stroke-miterlimit="10" stroke-width=".5"/>
  <polyline points="29.45 2.77 38.86 5.94 48.09 9.61 53.35 12.12 58.37 15.05 60.93 16.94 63.27 19.09 64.49 20.42 65.76 21.69 67.19 22.5 68.82 22.84 72.12 22.82 75.42 22.52 81.98 21.66 88.54 20.71 99.85 19.04 111.16 17.39 102.79 19.79 94.4 22.1 90.88 22.99 87.31 23.6 86.38 23.43 86.46 22.55 87.45 21.09 88.45 19.64 89.45 17.69 89.88 15.54 89.14 12.95 87.33 10.93 82.58 8.25 77.39 6.49 67.1 4.3 56.67 2.9 57.07 2.85 57.47 2.81 57.86 2.76 58.26 2.71 58.65 2.67 59.03 2.62 59.42 2.57 59.8 2.52 60.17 2.47 60.55 2.42 60.92 2.38 61.29 2.33 61.65 2.28 62.02 2.23 62.38 2.18 62.73 2.13" fill="none" stroke="#aaa" stroke-miterlimit="10" stroke-width=".5"/>
  <polyline points="23.7 2.77 32.86 6.3 41.8 10.34 46.97 13.13 51.87 16.36 54.44 18.46 56.78 20.8 58.06 22.26 59.42 23.64 60.95 24.51 62.68 24.87 66.07 24.82 69.44 24.45 76.02 23.46 82.58 22.38 93.79 20.48 105 18.62 96.97 21.21 88.94 23.72 85.66 24.66 82.33 25.33 81.51 25.05 81.81 24.2 82.93 22.63 84.03 21.04 85.12 18.92 85.63 16.6 85.02 13.84 83.27 11.61 78.68 8.72 73.58 6.8 63.48 4.41 53.21 2.9 53.58 2.85 53.94 2.81 54.3 2.76 54.65 2.71 55.01 2.67 55.36 2.62 55.71 2.57 56.06 2.52 56.4 2.48 56.74 2.43 57.08 2.38 57.42 2.33 57.75 2.28 58.08 2.23 58.41 2.18 58.74 2.13" fill="none" stroke="#aaa" stroke-miterlimit="10" stroke-width=".5"/>
  <polyline points="17.77 2.77 26.68 6.72 35.32 11.21 40.4 14.34 45.18 17.9 47.76 20.25 50.12 22.81 51.47 24.43 52.94 25.94 54.57 26.87 56.43 27.25 59.92 27.16 63.39 26.72 70 25.58 76.59 24.32 87.71 22.17 98.84 20.05 91.18 22.85 83.52 25.59 80.5 26.6 77.43 27.35 76.84 26.91 77.28 26.11 78.54 24.41 79.75 22.67 80.95 20.36 81.56 17.83 81.08 14.88 79.39 12.39 74.97 9.26 69.95 7.15 60.05 4.55 49.93 2.9 50.26 2.85 50.59 2.81 50.91 2.76 51.23 2.71 51.55 2.67 51.87 2.62 52.19 2.57 52.5 2.53 52.81 2.48 53.12 2.43 53.43 2.38 53.73 2.33 54.04 2.29 54.34 2.24 54.64 2.19 54.93 2.14" fill="none" stroke="#aaa" stroke-miterlimit="10" stroke-width=".5"/>
  <polyline points="11.78 2.77 20.43 7.18 28.78 12.13 33.76 15.62 38.42 19.54 41.02 22.16 43.39 24.96 44.83 26.75 46.4 28.39 48.15 29.39 50.14 29.79 53.73 29.65 57.3 29.13 63.95 27.82 70.58 26.39 81.63 23.96 92.68 21.55 85.4 24.58 78.11 27.57 75.36 28.63 72.56 29.47 72.26 28.89 72.78 28.12 74.2 26.29 75.53 24.38 76.84 21.87 77.54 19.13 77.19 15.97 75.58 13.22 71.34 9.83 66.39 7.52 56.68 4.7 46.71 2.9 47.01 2.85 47.3 2.81 47.59 2.76 47.87 2.72 48.16 2.67 48.44 2.63 48.73 2.58 49.01 2.53 49.29 2.49 49.56 2.44 49.84 2.39 50.11 2.35 50.39 2.3 50.66 2.25 50.92 2.2 51.19 2.16" fill="none" stroke="#aaa" stroke-miterlimit="10" stroke-width=".5"/>
  <polyline points="5.85 2.77 14.25 7.63 22.3 13.03 27.18 16.89 31.72 21.14 34.33 24.03 36.73 27.07 38.23 29.02 39.92 30.79 41.77 31.86 43.89 32.27 47.58 32.09 51.24 31.48 57.93 30.01 64.59 28.4 75.55 25.69 86.52 23 79.6 26.24 72.68 29.47 70.2 30.59 67.66 31.51 67.65 30.83 68.25 30.06 69.81 28.1 71.25 26.04 72.67 23.33 73.47 20.38 73.23 17.02 71.71 14.02 67.63 10.39 62.76 7.88 53.25 4.84 43.44 2.9 43.69 2.86 43.95 2.81 44.2 2.77 44.46 2.73 44.71 2.68 44.96 2.64 45.21 2.59 45.46 2.55 45.7 2.5 45.95 2.46 46.19 2.42 46.44 2.37 46.68 2.32 46.92 2.28 47.16 2.23 47.39 2.19" fill="none" stroke="#aaa" stroke-miterlimit="10" stroke-width=".5"/>
  <polyline points="16 13.84 20.78 18.03 25.21 22.58 27.81 25.71 30.23 28.96 31.79 31.05 33.57 32.93 35.52 34.06 37.74 34.49 41.53 34.26 45.26 33.58 51.96 31.96 58.63 30.19 69.49 27.22 80.37 24.27 73.78 27.7 67.22 31.14 64.98 32.3 62.69 33.31 62.95 32.55 63.6 31.76 65.29 29.68 66.83 27.49 68.35 24.6 69.23 21.47 69.1 17.94 67.66 14.71 63.75 10.89 58.96 8.19 49.64 4.97 39.99 2.9 40.21 2.86 40.43 2.82 40.65 2.78 40.87 2.74 41.09 2.7 41.31 2.66 41.52 2.62 41.74 2.57 41.95 2.53 42.16 2.49 42.37 2.45 42.58 2.41 42.79 2.37 43 2.32 43.21 2.28 43.42 2.24" fill="none" stroke="#aaa" stroke-miterlimit="10" stroke-width=".5"/>
  <polyline points="9.99 14.49 14.67 18.93 18.98 23.73 21.57 27.04 23.99 30.46 25.6 32.66 27.45 34.64 29.47 35.81 31.78 36.25 35.61 35.99 39.4 35.24 46.09 33.5 52.73 31.59 63.47 28.42 74.21 25.27 67.94 28.83 61.71 32.44 59.68 33.63 57.6 34.71 58.07 33.9 58.79 33.08 60.58 30.92 62.2 28.61 63.78 25.6 64.73 22.33 64.68 18.66 63.32 15.26 59.56 11.28 54.86 8.44 45.75 5.07 36.27 2.9 36.46 2.86 36.65 2.83 36.83 2.79 37.02 2.75 37.2 2.72 37.38 2.68 37.57 2.65 37.75 2.61 37.93 2.57 38.11 2.54 38.29 2.5 38.47 2.46 38.64 2.42 38.82 2.39 39 2.35 39.17 2.31" fill="none" stroke="#aaa" stroke-miterlimit="10" stroke-width=".5"/>
  <polyline points="4.39 14.89 8.95 19.51 13.15 24.45 15.71 27.88 18.13 31.4 19.75 33.67 21.64 35.71 23.7 36.91 26.05 37.35 29.9 37.06 33.69 36.27 40.33 34.46 46.91 32.46 57.48 29.15 68.05 25.86 62.05 29.5 56.11 33.22 54.24 34.41 52.34 35.54 52.97 34.71 53.73 33.87 55.58 31.66 57.24 29.28 58.87 26.19 59.87 22.83 59.87 19.09 58.58 15.58 54.96 11.51 50.36 8.58 41.47 5.13 32.18 2.9 32.33 2.87 32.49 2.84 32.64 2.81 32.79 2.78 32.94 2.74 33.09 2.71 33.24 2.68 33.39 2.65 33.54 2.62 33.69 2.59 33.84 2.56 33.98 2.52 34.13 2.49 34.28 2.46 34.42 2.43 34.57 2.4" fill="none" stroke="#aaa" stroke-miterlimit="10" stroke-width=".5"/>
  <polyline points="7.83 24.62 10.34 28.09 12.72 31.63 14.34 33.92 16.23 35.96 18.29 37.16 20.63 37.6 24.45 37.31 28.2 36.5 34.72 34.66 41.2 32.63 51.54 29.28 61.89 25.94 56.12 29.59 50.41 33.33 48.65 34.51 46.88 35.65 47.58 34.83 48.36 33.98 50.22 31.76 51.89 29.38 53.53 26.27 54.53 22.9 54.58 19.16 53.33 15.62 49.84 11.55 45.34 8.6 36.68 5.14 27.62 2.9 27.73 2.87 27.85 2.85 27.97 2.82 28.09 2.8 28.21 2.78 28.33 2.75 28.44 2.73 28.56 2.7 28.68 2.68 28.79 2.65 28.91 2.63 29.02 2.6 29.14 2.58 29.25 2.55 29.37 2.52 29.48 2.5" fill="none" stroke="#aaa" stroke-miterlimit="10" stroke-width=".5"/>
  <polyline points="3.05 24.2 5.49 27.6 7.81 31.07 9.39 33.31 11.24 35.32 13.25 36.49 15.55 36.92 19.27 36.63 22.93 35.84 29.28 34.03 35.59 32.03 45.66 28.75 55.73 25.47 50.13 29.05 44.6 32.71 42.9 33.86 41.19 34.99 41.89 34.18 42.66 33.35 44.48 31.17 46.12 28.84 47.71 25.79 48.7 22.5 48.75 18.83 47.55 15.36 44.16 11.38 39.78 8.48 31.36 5.09 22.54 2.9 22.62 2.88 22.71 2.86 22.8 2.85 22.88 2.83 22.97 2.81 23.05 2.79 23.13 2.77 23.22 2.76 23.3 2.74 23.39 2.72 23.47 2.7 23.55 2.68 23.64 2.67 23.72 2.65 23.8 2.63 23.89 2.61" fill="none" stroke="#aaa" stroke-miterlimit="10" stroke-width=".5"/>
  <polyline points="3.37 29.77 4.88 31.91 6.65 33.83 8.57 34.96 10.77 35.37 14.35 35.1 17.86 34.35 24 32.62 30.08 30.73 39.83 27.6 49.58 24.48 44.1 27.91 38.69 31.41 37 32.52 35.31 33.59 35.93 32.81 36.65 32.03 38.39 29.94 39.95 27.71 41.48 24.79 42.41 21.64 42.44 18.13 41.26 14.82 37.96 11 33.72 8.24 25.54 5 16.99 2.9 17.05 2.89 17.1 2.88 17.15 2.87 17.21 2.86 17.26 2.84 17.31 2.83 17.36 2.82 17.42 2.81 17.47 2.8 17.52 2.79 17.58 2.78 17.63 2.77 17.68 2.76 17.73 2.75 17.78 2.73 17.84 2.72" fill="none" stroke="#aaa" stroke-miterlimit="10" stroke-width=".5"/>
  <polyline points="6.21 33.15 9.61 32.91 12.95 32.22 18.82 30.63 24.65 28.88 34.03 25.98 43.42 23.09 38.04 26.31 32.7 29.58 30.99 30.64 29.26 31.63 29.76 30.9 30.42 30.17 32.04 28.21 33.49 26.13 34.91 23.4 35.78 20.44 35.76 17.14 34.6 14.06 31.37 10.47 27.27 7.9 19.35 4.86 11.09 2.9 11.11 2.89 11.14 2.89 11.16 2.89 11.18 2.88 11.2 2.88 11.23 2.87 11.25 2.87 11.27 2.86 11.29 2.86 11.32 2.85 11.34 2.85 11.36 2.85 11.38 2.84 11.4 2.84 11.43 2.83 11.45 2.83" fill="none" stroke="#aaa" stroke-miterlimit="10" stroke-width=".5"/>
  <polyline points="8.12 29.76 13.71 28.32 19.26 26.74 28.26 24.11 37.26 21.49 31.95 24.47 26.67 27.48 24.93 28.47 23.14 29.37 23.48 28.71 24.06 28.03 25.54 26.23 26.87 24.31 28.18 21.8 28.96 19.08 28.9 16.03 27.75 13.2 24.6 9.88 20.67 7.52 13.04 4.72 5.11 2.92" fill="none" stroke="#aaa" stroke-miterlimit="10" stroke-width=".5"/>
  <polyline points="3.27 27.32 8.59 26.03 13.87 24.61 22.48 22.25 31.1 19.9 25.88 22.63 20.67 25.38 18.87 26.31 17.03 27.12 17.2 26.53 17.71 25.91 19.04 24.27 20.25 22.54 21.45 20.25 22.16 17.77 22.08 14.98 20.98 12.41 17.97 9.37 14.24 7.22" fill="none" stroke="#aaa" stroke-miterlimit="10" stroke-width=".5"/>
  <polyline points="8.43 22.8 16.68 20.66 24.95 18.53 19.82 21.05 14.72 23.57 12.89 24.45 11.02 25.19 11.06 24.68 11.51 24.1 12.71 22.59 13.82 21.01 14.93 18.92 15.58 16.65 15.49 14.08 14.44 11.73 11.57 8.92 8.04 6.95" fill="none" stroke="#aaa" stroke-miterlimit="10" stroke-width=".5"/>
  <polyline points="2.9 21.55 10.84 19.55 18.79 17.57 13.81 19.94 8.84 22.3 7.04 23.14 5.19 23.83 5.15 23.37 5.56 22.83 6.68 21.42 7.71 19.95 8.76 18 9.38 15.87 9.3 13.46 8.31 11.26" fill="none" stroke="#aaa" stroke-miterlimit="10" stroke-width=".5"/>
  <polyline points="3.66 15.55 3.61 13.23 2.69 11.09" fill="none" stroke="#aaa" stroke-miterlimit="10" stroke-width=".5"/>
  <polyline points="12.63 17.14 7.84 19.43 3.07 21.73" fill="none" stroke="#aaa" stroke-miterlimit="10" stroke-width=".5"/>
</svg>