<?xml version="1.0" encoding="UTF-8"?><svg id="Ebene_1" xmlns="http://www.w3.org/2000/svg" viewBox="0 0 222 222"><polyline points="222 .81 208.88 2.41 195.98 5.27 189.41 7.77 183.57 11.63 181.24 14.77 180.33 18.56 180.74 21.74 181.82 24.75 182.79 26.8 183.62 28.87 182.78 29.82 181.27 29.6 175.76 27.76 170.36 25.62 158.38 20.65 146.43 15.61 149.83 16.31 153.23 17.01 156.36 17.65 159.48 18.3 162.35 18.89 165.22 19.48 167.84 20.03 170.45 20.57 172.83 21.06 175.21 21.55 177.37 21.99 179.53 22.43 181.47 22.83 183.42 23.22 185.16 23.57 186.91 23.92" style="fill:none; stroke:#aaa; stroke-miterlimit:10; stroke-width:.5px;"/><polyline points="213.58 .81 200.75 2.59 188.22 5.79 181.78 8.63 176.25 12.93 174.02 16.56 173.3 20.75 173.83 24.32 175.05 27.72 176.12 30.03 177.12 32.36 176.57 33.4 175.17 33.14 169.95 30.99 164.84 28.57 153.31 22.87 141.79 17.13 145.4 17.98 149.01 18.84 152.31 19.62 155.62 20.4 158.63 21.12 161.64 21.83 164.37 22.48 167.1 23.13 169.57 23.72 172.04 24.3 174.27 24.82 176.49 25.34 178.48 25.8 180.47 26.26 182.24 26.66 184.01 27.05" style="fill:none; stroke:#aaa; stroke-miterlimit:10; stroke-width:.5px;"/><polyline points="205.17 .2 192.63 2.16 180.46 5.7 174.15 8.91 168.93 13.65 166.83 17.77 166.28 22.36 166.93 26.33 168.27 30.14 169.46 32.72 170.62 35.29 170.38 36.42 169.06 36.12 164.13 33.66 159.33 30.94 148.24 24.51 137.15 18.05 140.97 19.08 144.79 20.1 148.27 21.04 151.75 21.98 154.9 22.83 158.06 23.68 160.9 24.44 163.75 25.21 166.3 25.89 168.86 26.57 171.14 27.18 173.42 27.78 175.45 28.31 177.48 28.83 179.27 29.28 181.06 29.72" style="fill:none; stroke:#aaa; stroke-miterlimit:10; stroke-width:.5px;"/><polyline points="197.04 .2 184.79 2.32 172.97 6.16 166.78 9.71 161.84 14.82 159.87 19.38 159.47 24.33 160.22 28.67 161.67 32.82 162.96 35.64 164.26 38.44 164.31 39.64 163.06 39.31 158.4 36.56 153.87 33.59 143.2 26.49 132.51 19.4 136.52 20.6 140.52 21.79 144.16 22.88 147.78 23.96 151.06 24.94 154.33 25.92 157.27 26.8 160.21 27.67 162.84 28.45 165.46 29.22 167.79 29.9 170.12 30.58 172.17 31.16 174.23 31.74 176.03 32.23 177.83 32.71" style="fill:none; stroke:#aaa; stroke-miterlimit:10; stroke-width:.5px;"/><polyline points="189.45 .2 177.45 2.45 165.96 6.5 159.88 10.32 155.19 15.7 153.33 20.58 153.04 25.81 153.86 30.41 155.4 34.84 156.75 37.83 158.17 40.8 158.42 42.01 157.24 41.7 152.82 38.72 148.51 35.57 138.21 27.97 127.87 20.4 132.03 21.74 136.18 23.08 139.92 24.29 143.67 25.5 147.03 26.59 150.4 27.67 153.4 28.64 156.41 29.61 159.08 30.46 161.75 31.3 164.1 32.04 166.46 32.77 168.52 33.4 170.59 34.01 172.39 34.53 174.18 35.04" style="fill:none; stroke:#aaa; stroke-miterlimit:10; stroke-width:.5px;"/><polyline points="182.52 .2 170.76 2.52 159.55 6.69 153.59 10.66 149.08 16.19 147.3 21.26 147.08 26.63 147.95 31.38 149.53 35.96 150.92 39.06 152.4 42.11 152.75 43.3 151.66 43.03 147.42 39.92 143.28 36.66 133.28 28.78 123.23 20.94 127.48 22.38 131.73 23.82 135.56 25.12 139.38 26.42 142.8 27.58 146.22 28.74 149.26 29.77 152.3 30.79 154.99 31.69 157.68 32.58 160.05 33.35 162.41 34.11 164.47 34.76 166.53 35.4 168.31 35.93 170.09 36.44" style="fill:none; stroke:#aaa; stroke-miterlimit:10; stroke-width:.5px;"/><polyline points="176.3 .2 164.76 2.53 153.78 6.71 147.94 10.72 143.55 16.25 141.83 21.35 141.64 26.74 142.52 31.52 144.1 36.11 145.5 39.23 146.98 42.3 147.37 43.46 146.33 43.22 142.21 40.07 138.18 36.8 128.42 28.87 118.59 20.98 122.89 22.47 127.18 23.96 131.03 25.3 134.88 26.63 138.32 27.83 141.75 29.02 144.8 30.07 147.84 31.11 150.52 32.03 153.21 32.93 155.55 33.71 157.9 34.48 159.93 35.13 161.97 35.77 163.72 36.29 165.48 36.8" style="fill:none; stroke:#aaa; stroke-miterlimit:10; stroke-width:.5px;"/><polyline points="170.73 .2 159.4 2.48 148.61 6.58 142.87 10.5 138.55 15.92 136.85 20.92 136.66 26.2 137.53 30.88 139.07 35.38 140.43 38.43 141.89 41.43 142.26 42.58 141.23 42.34 137.18 39.26 133.21 36.06 123.61 28.29 113.95 20.57 118.24 22.05 122.52 23.53 126.36 24.86 130.19 26.19 133.61 27.37 137.02 28.55 140.04 29.59 143.06 30.62 145.71 31.52 148.36 32.41 150.67 33.18 152.99 33.93 154.99 34.56 156.99 35.18 158.7 35.69 160.42 36.18" style="fill:none; stroke:#aaa; stroke-miterlimit:10; stroke-width:.5px;"/><polyline points="165.69 .2 154.54 2.39 143.91 6.33 138.26 10.07 133.97 15.29 132.28 20.06 132.06 25.13 132.88 29.62 134.36 33.93 135.67 36.86 137.05 39.74 137.37 40.87 136.32 40.61 132.28 37.68 128.34 34.61 118.85 27.18 109.31 19.79 113.55 21.22 117.79 22.65 121.58 23.93 125.36 25.21 128.73 26.35 132.09 27.48 135.06 28.48 138.03 29.47 140.63 30.33 143.23 31.19 145.49 31.92 147.76 32.64 149.71 33.24 151.66 33.83 153.33 34.31 155 34.77" style="fill:none; stroke:#aaa; stroke-miterlimit:10; stroke-width:.5px;"/><polyline points="161.01 .2 150.05 2.26 139.55 5.98 133.99 9.48 129.7 14.42 128 18.9 127.73 23.69 128.48 27.91 129.87 31.96 131.11 34.72 132.39 37.43 132.61 38.55 131.53 38.27 127.49 35.53 123.54 32.64 114.13 25.68 104.67 18.74 108.83 20.09 112.98 21.43 116.69 22.64 120.4 23.84 123.69 24.91 126.98 25.97 129.88 26.91 132.78 27.84 135.32 28.64 137.85 29.44 140.06 30.12 142.26 30.79 144.15 31.36 146.05 31.9 147.67 32.35 149.28 32.78" style="fill:none; stroke:#aaa; stroke-miterlimit:10; stroke-width:.5px;"/><polyline points="156.59 .2 145.79 2.12 135.41 5.58 129.95 8.8 125.63 13.4 123.9 17.53 123.57 21.99 124.24 25.9 125.54 29.65 126.69 32.2 127.86 34.72 127.93 35.8 126.84 35.51 122.76 33.02 118.79 30.34 109.42 23.92 100.03 17.52 104.08 18.76 108.12 19.99 111.73 21.1 115.34 22.2 118.54 23.18 121.74 24.16 124.56 25.02 127.37 25.87 129.84 26.62 132.3 27.35 134.43 27.98 136.57 28.59 138.4 29.11 140.24 29.61 141.8 30.02 143.36 30.41" style="fill:none; stroke:#aaa; stroke-miterlimit:10; stroke-width:.5px;"/><polyline points="152.25 .2 141.62 1.97 131.35 5.15 125.99 8.07 121.63 12.32 119.89 16.07 119.48 20.19 120.07 23.77 121.26 27.21 122.32 29.54 123.37 31.85 123.28 32.86 122.17 32.59 118.06 30.34 114.05 27.9 104.73 22.06 95.39 16.22 99.31 17.34 103.23 18.46 106.73 19.46 110.23 20.46 113.33 21.35 116.42 22.23 119.15 23.01 121.88 23.78 124.26 24.45 126.65 25.12 128.71 25.69 130.78 26.24 132.55 26.71 134.32 27.17 135.83 27.54 137.34 27.89" style="fill:none; stroke:#aaa; stroke-miterlimit:10; stroke-width:.5px;"/><polyline points="147.85 .2 137.39 1.82 127.24 4.73 121.97 7.37 117.59 11.28 115.82 14.66 115.34 18.44 115.86 21.71 116.95 24.84 117.91 26.96 118.85 29.08 118.6 30.02 117.49 29.77 113.34 27.76 109.31 25.53 100.03 20.26 90.75 14.96 94.55 15.97 98.34 16.97 101.73 17.87 105.11 18.77 108.11 19.57 111.11 20.37 113.75 21.06 116.38 21.76 118.69 22.36 120.99 22.96 122.99 23.47 124.98 23.98 126.7 24.4 128.41 24.81 129.86 25.14 131.32 25.46" style="fill:none; stroke:#aaa; stroke-miterlimit:10; stroke-width:.5px;"/><polyline points="143.23 .2 132.95 1.69 122.92 4.37 117.75 6.77 113.35 10.36 111.59 13.43 111.04 16.92 111.49 19.91 112.49 22.77 113.38 24.71 114.22 26.65 113.84 27.52 112.72 27.3 108.57 25.49 104.52 23.46 95.31 18.67 86.11 13.85 89.8 14.76 93.48 15.67 96.76 16.48 100.04 17.29 102.95 18.02 105.85 18.74 108.41 19.37 110.97 20 113.2 20.54 115.43 21.09 117.36 21.55 119.29 22 120.95 22.38 122.61 22.76 124.01 23.06 125.42 23.35" style="fill:none; stroke:#aaa; stroke-miterlimit:10; stroke-width:.5px;"/><polyline points="138.25 .2 128.15 1.59 118.28 4.09 113.21 6.3 108.83 9.65 107.08 12.47 106.49 15.74 106.89 18.51 107.82 21.16 108.65 22.96 109.41 24.77 108.95 25.58 107.83 25.39 103.7 23.73 99.66 21.84 90.56 17.43 81.47 12.97 85.07 13.81 88.67 14.65 91.87 15.41 95.07 16.16 97.91 16.82 100.75 17.49 103.24 18.07 105.73 18.65 107.9 19.16 110.07 19.66 111.95 20.08 113.82 20.5 115.43 20.85 117.03 21.19 118.39 21.47 119.75 21.73" style="fill:none; stroke:#aaa; stroke-miterlimit:10; stroke-width:.5px;"/><polyline points="132.78 .2 122.88 1.53 113.19 3.91 108.22 6.02 103.91 9.23 102.18 11.9 101.58 15.03 101.95 17.68 102.85 20.2 103.64 21.92 104.36 23.64 103.87 24.42 102.76 24.24 98.69 22.67 94.7 20.87 85.76 16.67 76.83 12.43 80.39 13.24 83.95 14.05 87.11 14.77 90.27 15.5 93.07 16.13 95.86 16.77 98.31 17.33 100.75 17.89 102.88 18.37 105.01 18.84 106.85 19.25 108.68 19.64 110.24 19.98 111.81 20.3 113.13 20.56 114.44 20.8" style="fill:none; stroke:#aaa; stroke-miterlimit:10; stroke-width:.5px;"/><polyline points="126.67 .2 117 1.52 107.53 3.89 102.67 5.98 98.47 9.17 96.79 11.83 96.22 14.93 96.6 17.57 97.49 20.08 98.28 21.78 99 23.5 98.55 24.27 97.48 24.08 93.51 22.51 89.63 20.73 80.91 16.55 72.19 12.33 75.77 13.15 79.35 13.98 82.52 14.71 85.69 15.45 88.48 16.1 91.27 16.75 93.7 17.31 96.14 17.87 98.25 18.35 100.35 18.83 102.16 19.23 103.97 19.63 105.5 19.95 107.03 20.27 108.31 20.52 109.6 20.76" style="fill:none; stroke:#aaa; stroke-miterlimit:10; stroke-width:.5px;"/><polyline points="119.86 .2 110.42 1.57 101.22 4.02 96.48 6.22 92.45 9.52 90.84 12.33 90.34 15.53 90.76 18.28 91.69 20.89 92.51 22.67 93.29 24.45 92.96 25.25 91.93 25.05 88.13 23.39 84.42 21.52 75.99 17.13 67.55 12.71 71.23 13.62 74.9 14.52 78.14 15.32 81.37 16.12 84.21 16.83 87.04 17.53 89.5 18.13 91.96 18.73 94.07 19.25 96.18 19.75 97.98 20.17 99.77 20.59 101.28 20.92 102.79 21.25 104.04 21.5 105.3 21.73" style="fill:none; stroke:#aaa; stroke-miterlimit:10; stroke-width:.5px;"/><polyline points="112.35 .2 103.18 1.67 94.3 4.32 89.67 6.74 85.88 10.28 84.36 13.38 83.98 16.81 84.47 19.79 85.47 22.64 86.36 24.57 87.24 26.5 87.11 27.34 86.15 27.12 82.57 25.27 79.08 23.23 71 18.41 62.91 13.57 66.75 14.63 70.59 15.68 73.95 16.61 77.32 17.53 80.24 18.33 83.15 19.13 85.67 19.82 88.18 20.5 90.31 21.07 92.45 21.63 94.25 22.09 96.05 22.54 97.54 22.9 99.03 23.24 100.25 23.49 101.48 23.73" style="fill:none; stroke:#aaa; stroke-miterlimit:10; stroke-width:.5px;"/><polyline points="104.31 .2 95.41 1.82 86.87 4.75 82.37 7.49 78.86 11.38 77.46 14.89 77.22 18.65 77.81 21.97 78.92 25.15 79.91 27.31 80.92 29.44 81.06 30.34 80.17 30.1 76.86 27.97 73.64 25.71 65.97 20.26 58.27 14.82 62.33 16.1 66.4 17.37 69.93 18.48 73.46 19.58 76.49 20.53 79.53 21.48 82.11 22.28 84.7 23.07 86.87 23.72 89.05 24.36 90.85 24.88 92.66 25.37 94.14 25.75 95.62 26.11 96.81 26.36 98.01 26.58" style="fill:none; stroke:#aaa; stroke-miterlimit:10; stroke-width:.5px;"/><polyline points="95.94 .2 87.32 2.01 79.16 5.26 74.79 8.4 71.57 12.68 70.32 16.67 70.23 20.84 70.94 24.56 72.18 28.13 73.27 30.57 74.45 32.94 74.78 33.8 74.08 33.65 71.08 31.18 68.13 28.64 60.91 22.45 53.63 16.31 57.96 17.87 62.28 19.42 66 20.76 69.73 22.1 72.9 23.24 76.07 24.36 78.73 25.3 81.4 26.22 83.62 26.97 85.84 27.7 87.65 28.27 89.47 28.81 90.93 29.2 92.4 29.56 93.56 29.8 94.73 29.98" style="fill:none; stroke:#aaa; stroke-miterlimit:10; stroke-width:.5px;"/><polyline points="87.52 .2 79.18 2.21 71.4 5.78 67.17 9.33 64.25 14 63.15 18.45 63.21 23.04 64.03 27.16 65.4 31.12 66.6 33.82 67.94 36.44 68.37 37.27 67.98 37.2 65.29 34.41 62.62 31.61 55.85 24.69 48.99 17.85 53.59 19.73 58.18 21.61 62.1 23.21 66.02 24.81 69.32 26.15 72.62 27.47 75.37 28.55 78.12 29.61 80.37 30.46 82.63 31.27 84.44 31.88 86.27 32.45 87.71 32.84 89.16 33.18 90.3 33.37 91.43 33.48" style="fill:none; stroke:#aaa; stroke-miterlimit:10; stroke-width:.5px;"/><polyline points="79.34 .2 71.26 2.38 63.85 6.23 59.78 10.13 57.12 15.09 56.17 19.93 56.35 24.86 57.29 29.3 58.76 33.59 60.07 36.5 61.56 39.33 62.04 40.16 61.95 40.15 59.58 37.1 57.14 34.1 50.82 26.62 44.35 19.24 49.2 21.46 54.05 23.67 58.15 25.54 62.25 27.39 65.67 28.93 69.09 30.44 71.9 31.66 74.72 32.85 76.99 33.76 79.28 34.63 81.09 35.27 82.91 35.84 84.33 36.21 85.76 36.49 86.86 36.62 87.97 36.62" style="fill:none; stroke:#aaa; stroke-miterlimit:10; stroke-width:.5px;"/><polyline points="71.63 .2 63.8 2.52 56.73 6.57 52.82 10.76 50.37 15.94 49.55 21.07 49.84 26.26 50.86 30.95 52.42 35.48 53.8 38.57 55.41 41.55 55.95 42.41 56.09 42.41 54 39.18 51.76 36.02 45.83 28.1 39.71 20.31 44.74 22.81 49.76 25.31 53.98 27.4 58.2 29.47 61.69 31.16 65.18 32.83 68.02 34.15 70.88 35.43 73.15 36.4 75.45 37.31 77.24 37.95 79.06 38.51 80.45 38.84 81.86 39.06 82.95 39.11 84.03 39" style="fill:none; stroke:#aaa; stroke-miterlimit:10; stroke-width:.5px;"/><polyline points="64.58 .2 56.98 2.61 50.21 6.77 46.44 11.13 44.16 16.43 43.43 21.74 43.8 27.08 44.86 31.92 46.48 36.6 47.91 39.79 49.58 42.86 50.17 43.75 50.47 43.75 48.58 40.4 46.51 37.15 40.9 28.97 35.07 20.94 40.22 23.66 45.37 26.37 49.66 28.62 53.95 30.85 57.48 32.66 61.01 34.43 63.86 35.82 66.72 37.15 68.98 38.14 71.26 39.06 73.02 39.68 74.81 40.2 76.18 40.48 77.56 40.62 78.63 40.58 79.67 40.36" style="fill:none; stroke:#aaa; stroke-miterlimit:10; stroke-width:.5px;"/><polyline points="58.23 .2 50.85 2.63 44.33 6.81 40.68 11.23 38.53 16.54 37.86 21.89 38.26 27.26 39.34 32.13 40.97 36.84 42.4 40.06 44.1 43.14 44.72 44.05 45.09 44.04 43.35 40.66 41.39 37.39 36.03 29.16 30.43 21.08 35.63 23.92 40.83 26.75 45.14 29.09 49.46 31.4 52.97 33.26 56.5 35.08 59.32 36.48 62.16 37.83 64.38 38.81 66.62 39.71 68.34 40.3 70.09 40.77 71.42 40.99 72.75 41.05 73.8 40.93 74.8 40.62" style="fill:none; stroke:#aaa; stroke-miterlimit:10; stroke-width:.5px;"/><polyline points="52.54 .2 45.37 2.6 39.05 6.71 35.51 11.07 33.43 16.28 32.8 21.54 33.2 26.83 34.27 31.62 35.87 36.26 37.28 39.43 38.95 42.46 39.56 43.35 39.95 43.34 38.29 40.02 36.4 36.8 31.21 28.7 25.79 20.74 30.99 23.62 36.2 26.49 40.49 28.84 44.78 31.17 48.26 33.02 51.75 34.83 54.52 36.21 57.31 37.53 59.46 38.47 61.65 39.32 63.31 39.86 65 40.27 66.27 40.43 67.55 40.42 68.56 40.22 69.51 39.83" style="fill:none; stroke:#aaa; stroke-miterlimit:10; stroke-width:.5px;"/><polyline points="47.4 .2 40.43 2.51 34.26 6.48 30.82 10.68 28.78 15.72 28.15 20.8 28.53 25.9 29.56 30.52 31.1 35 32.46 38.05 34.06 40.98 34.64 41.84 35 41.83 33.36 38.63 31.51 35.52 26.44 27.71 21.15 20.03 26.31 22.86 31.47 25.68 35.7 27.98 39.93 30.26 43.34 32.05 46.76 33.81 49.45 35.13 52.17 36.39 54.25 37.28 56.36 38.07 57.95 38.55 59.56 38.9 60.77 39 61.98 38.93 62.94 38.67 63.83 38.22" style="fill:none; stroke:#aaa; stroke-miterlimit:10; stroke-width:.5px;"/><polyline points="42.67 .2 35.88 2.39 29.84 6.16 26.48 10.14 24.46 14.93 23.82 19.75 24.15 24.6 25.12 28.98 26.57 33.23 27.86 36.13 29.38 38.91 29.91 39.72 30.2 39.72 28.54 36.68 26.7 33.73 21.7 26.32 16.51 19.03 21.59 21.75 26.67 24.46 30.81 26.66 34.95 28.83 38.27 30.54 41.6 32.2 44.19 33.45 46.81 34.63 48.8 35.44 50.83 36.16 52.33 36.58 53.86 36.86 55 36.92 56.13 36.79 57.04 36.48 57.86 36" style="fill:none; stroke:#aaa; stroke-miterlimit:10; stroke-width:.5px;"/><polyline points="38.2 .2 31.59 2.24 25.67 5.78 22.38 9.48 20.35 13.99 19.69 18.49 19.97 23.03 20.86 27.14 22.22 31.11 23.42 33.83 24.82 36.43 25.31 37.18 25.49 37.19 23.78 34.35 21.94 31.59 16.99 24.65 11.87 17.83 16.85 20.4 21.82 22.96 25.85 25.02 29.89 27.06 33.1 28.65 36.32 30.2 38.81 31.35 41.33 32.43 43.22 33.17 45.14 33.81 46.55 34.17 47.99 34.38 49.05 34.39 50.1 34.22 50.94 33.88 51.7 33.37" style="fill:none; stroke:#aaa; stroke-miterlimit:10; stroke-width:.5px;"/><polyline points="33.86 .2 27.43 2.08 21.61 5.37 18.39 8.77 16.35 12.97 15.66 17.13 15.87 21.35 16.68 25.15 17.94 28.83 19.05 31.34 20.33 33.75 20.76 34.45 20.82 34.45 19.06 31.83 17.2 29.27 12.29 22.86 7.23 16.54 12.08 18.93 16.93 21.31 20.85 23.21 24.77 25.1 27.85 26.56 30.95 27.98 33.33 29.03 35.73 30.01 37.52 30.66 39.34 31.22 40.66 31.52 42 31.68 42.98 31.66 43.94 31.45 44.72 31.08 45.41 30.56" style="fill:none; stroke:#aaa; stroke-miterlimit:10; stroke-width:.5px;"/><polyline points="29.49 .2 23.23 1.93 17.52 4.97 14.37 8.06 12.32 11.97 11.6 15.79 11.75 19.68 12.48 23.19 13.63 26.57 14.65 28.88 15.82 31.11 16.2 31.76 16.15 31.75 14.33 29.35 12.46 26.98 7.58 21.08 2.59 15.27 7.31 17.47 12.04 19.66 15.82 21.41 19.61 23.15 22.58 24.48 25.56 25.78 27.83 26.72 30.11 27.6 31.8 28.17 33.51 28.66 34.74 28.91 35.98 29.02 36.89 28.96 37.77 28.72 38.48 28.34 39.11 27.83" style="fill:none; stroke:#aaa; stroke-miterlimit:10; stroke-width:.5px;"/><polyline points="24.92 .2 18.85 1.79 13.25 4.6 10.19 7.44 8.14 11.07 7.39 14.58 7.49 18.18 8.15 21.42 9.22 24.54 10.16 26.67 11.22 28.72 11.56 29.34 11.4 29.32 9.55 27.12 7.68 24.92 2.86 19.48 -2.05 14.12 2.54 16.15 7.13 18.18 10.8 19.79 14.46 21.38 17.31 22.6 20.17 23.78 22.33 24.63 24.5 25.42 26.09 25.94 27.7 26.36 28.85 26.56 30 26.63 30.84 26.55 31.65 26.29 32.31 25.9 32.88 25.39" style="fill:none; stroke:#aaa; stroke-miterlimit:10; stroke-width:.5px;"/><polyline points="20.02 .2 14.14 1.68 8.69 4.31 5.71 6.93 3.69 10.33 2.93 13.61 3 16.97 3.6 19.99 4.59 22.9 5.47 24.88 6.45 26.8 6.76 27.39 6.54 27.36 4.69 25.31 2.83 23.26 -1.89 18.19 -6.69 13.19 -2.2 15.09 2.28 17 5.83 18.5 9.39 19.99 12.13 21.12 14.89 22.21 16.95 22.99 19.03 23.71 20.53 24.17 22.04 24.53 23.12 24.7 24.19 24.73 24.97 24.61 25.71 24.33 26.32 23.93 26.84 23.41" style="fill:none; stroke:#aaa; stroke-miterlimit:10; stroke-width:.5px;"/><polyline points="14.66 .2 8.98 1.61 3.7 4.11 .82 6.61 -1.15 9.85 -1.88 12.97 -1.83 16.17 -1.26 19.04 -.31 21.81 .52 23.7 1.46 25.52 1.75 26.1 1.51 26.06 -.29 24.11 -2.1 22.16 -6.68 17.33 -11.33 12.57 -6.91 14.42 -2.49 16.27 .98 17.72 4.46 19.16 7.13 20.23 9.8 21.27 11.78 22 13.77 22.67 15.19 23.08 16.63 23.39 17.64 23.51 18.64 23.49 19.37 23.34 20.05 23.02 20.63 22.57 21.12 22.02" style="fill:none; stroke:#aaa; stroke-miterlimit:10; stroke-width:.5px;"/><polyline points="8.69 .2 3.23 1.59 -1.84 4.05 -4.6 6.51 -6.47 9.69 -7.16 12.76 -7.1 15.91 -6.52 18.73 -5.59 21.46 -4.76 23.32 -3.84 25.11 -3.54 25.67 -3.73 25.64 -5.43 23.72 -7.14 21.8 -11.52 17.05 -15.97 12.37 -11.56 14.26 -7.15 16.14 -3.71 17.61 -.27 19.06 2.34 20.13 4.96 21.16 6.88 21.86 8.81 22.5 10.16 22.88 11.54 23.15 12.5 23.22 13.44 23.14 14.14 22.91 14.77 22.53 15.33 22 15.81 21.38" style="fill:none; stroke:#aaa; stroke-miterlimit:10; stroke-width:.5px;"/><polyline points="2.03 .2 -3.21 1.63 -8.01 4.14 -10.65 6.69 -12.37 9.92 -12.98 13.07 -12.86 16.28 -12.25 19.17 -11.29 21.96 -10.44 23.86 -9.48 25.7 -9.16 26.24 -9.22 26.23 -10.75 24.26 -12.32 22.31 -16.42 17.44 -20.61 12.65 -16.16 14.69 -11.72 16.72 -8.28 18.28 -4.83 19.82 -2.25 20.94 .35 22.01 2.23 22.73 4.12 23.36 5.44 23.71 6.78 23.94 7.7 23.96 8.61 23.79 9.31 23.47 9.91 22.99 10.49 22.33 10.99 21.6" style="fill:none; stroke:#aaa; stroke-miterlimit:10; stroke-width:.5px;"/><polyline points="-5.33 .2 -10.32 1.73 -14.81 4.38 -17.29 7.14 -18.83 10.52 -19.33 13.88 -19.12 17.27 -18.45 20.34 -17.42 23.31 -16.51 25.34 -15.45 27.28 -15.09 27.84 -14.95 27.85 -16.24 25.73 -17.64 23.67 -21.38 18.5 -25.25 13.41 -20.76 15.7 -16.27 17.97 -12.81 19.71 -9.35 21.41 -6.76 22.64 -4.16 23.81 -2.3 24.57 -.41 25.24 .9 25.58 2.23 25.77 3.17 25.74 4.07 25.49 4.8 25.05 5.41 24.46 6.03 23.64 6.58 22.77" style="fill:none; stroke:#aaa; stroke-miterlimit:10; stroke-width:.5px;"/><polyline points="-13.25 .2 -17.99 1.89 -22.11 4.75 -24.43 7.82 -25.74 11.44 -26.11 15.11 -25.79 18.8 -25.02 22.14 -23.89 25.37 -22.89 27.59 -21.71 29.7 -21.25 30.33 -20.88 30.31 -21.87 28 -23.06 25.76 -26.38 20.12 -29.89 14.58 -25.36 17.2 -20.83 19.81 -17.34 21.79 -13.84 23.72 -11.24 25.1 -8.61 26.41 -6.73 27.25 -4.81 27.97 -3.49 28.32 -2.13 28.48 -1.15 28.39 -.23 28.05 .56 27.48 1.21 26.76 1.89 25.76 2.51 24.71" style="fill:none; stroke:#aaa; stroke-miterlimit:10; stroke-width:.5px;"/></svg>