<?xml version="1.0" encoding="UTF-8"?>
<svg id="Ebene_1" xmlns="http://www.w3.org/2000/svg" width="222" height="222" viewBox="0 0 222 222">
  <polyline points="117.22 40.24 121.85 42.44 126.49 44.65 126.49 34.85 126.49 25.06 126.5 25.01 126.53 24.98 134.15 18.83 141.77 12.69 137.19 10.48 132.61 8.28 124.91 14.42 117.22 20.56 117.22 30.4 117.22 40.24" fill="none" stroke="#aaa" stroke-miterlimit="10" stroke-width=".5"/>
  <polyline points="126.7 44.75 134.43 48.43 142.17 52.12 149.81 45.98 157.45 39.84 157.45 30 157.45 20.16 149.71 16.48 141.97 12.79 134.34 18.95 126.7 25.11 126.7 34.93 126.7 44.75" fill="none" stroke="#aaa" stroke-miterlimit="10" stroke-width=".5"/>
  <polyline points="142.19 52.34 142.16 52.34 142.14 52.33 129.61 46.36 117.07 40.39 117.03 40.36 117.01 40.3 117.01 30.41 117.01 20.51 117.02 20.47 117.05 20.43 124.79 14.26 132.53 8.08 132.58 8.06 132.64 8.07 137.32 10.32 142 12.57 149.8 16.29 157.59 20 157.64 20.04 157.65 20.1 157.65 29.99 157.65 39.88 157.64 39.93 157.61 39.97 149.93 46.14 142.25 52.32 142.22 52.34 142.19 52.34" fill="none" stroke="#aaa" stroke-miterlimit="10" stroke-width=".5"/>
  <polyline points="126.59 25.16 126.57 25.16 126.55 25.15 121.81 22.88 117.07 20.61 117.02 20.55 117.02 20.47 117.08 20.42 117.16 20.42 121.9 22.69 126.64 24.96 126.69 25.02 126.69 25.1 126.65 25.15 126.59 25.16" fill="none" stroke="#aaa" stroke-miterlimit="10" stroke-width=".5"/>
  <polyline points="136.64 36.74 139.37 38.05 142.1 39.36 144.78 37.2 147.47 35.04 147.47 31.59 147.47 28.13 144.76 26.84 142.05 25.54 139.34 27.7 136.64 29.86 136.64 33.3 136.64 36.74" fill="none" stroke="#aaa" stroke-miterlimit="10" stroke-width=".5"/>
  <polyline points="142.11 39.59 142.09 39.58 142.07 39.58 139.28 38.24 136.49 36.9 136.45 36.86 136.43 36.81 136.43 33.31 136.43 29.81 136.44 29.77 136.47 29.73 139.22 27.54 141.97 25.34 142.02 25.32 142.08 25.33 144.85 26.65 147.61 27.97 147.66 28.01 147.67 28.06 147.67 31.58 147.67 35.09 147.66 35.14 147.63 35.17 144.91 37.37 142.18 39.56 142.15 39.58 142.11 39.59" fill="none" stroke="#aaa" stroke-miterlimit="10" stroke-width=".5"/>
  <polyline points="136.53 32.06 136.49 32.05 136.45 32.02 136.43 31.94 136.47 31.87 137.3 31.21 138.13 30.54 138.13 29.5 138.13 28.46 138.16 28.38 138.23 28.35 138.31 28.38 138.34 28.46 138.34 29.52 138.34 30.59 138.33 30.63 138.3 30.67 137.45 31.35 136.6 32.04 136.57 32.05 136.53 32.06" fill="none" stroke="#aaa" stroke-miterlimit="10" stroke-width=".5"/>
  <polyline points="147.57 35.2 147.55 35.19 147.53 35.19 142.86 32.93 138.19 30.68 138.13 30.62 138.14 30.54 138.2 30.49 138.28 30.5 142.95 32.75 147.62 35 147.67 35.06 147.66 35.14 147.63 35.18 147.57 35.2" fill="none" stroke="#aaa" stroke-miterlimit="10" stroke-width=".5"/>
</svg>