<?xml version="1.0" encoding="utf-8" ?>
<svg baseProfile="full" height="222" version="1.1" width="222" xmlns="http://www.w3.org/2000/svg" xmlns:ev="http://www.w3.org/2001/xml-events" xmlns:xlink="http://www.w3.org/1999/xlink"><defs />
  <polyline fill="none" points ="42.59 192.21 40.25 187.05 35.61 183.94 31.28 183.63 27.03 184.55 25.29 185.19 23.98 185.73 28.83 182.53 33.58 179.18 29.75 185.99 26.19 192.93 25.61 195.17 26.8 197.01 30.01 198.6 33.03 200.52 38.4 206.03 42.5 212.55 46.37 206.28 51.4 200.91 54.4 198.88 57.65 197.28 59.17 196.05 59.18 194.11 56.77 188.87 53.95 183.82" stroke="#aaa" stroke-width="1"/>
  <polyline fill="none" points ="42.31 186.91 39.74 181.99 34.95 179.27 30.38 179.08 25.9 180.07 24.06 180.74 22.68 181.46 27.82 178.67 32.81 175.63 28.65 182.25 24.79 189.04 24.15 191.33 25.43 193.19 28.84 194.82 32.11 196.73 37.78 201.99 42.22 208.34 46.39 202.26 51.68 197.15 54.92 195.12 58.37 193.5 59.99 192.29 60.08 190.3 57.57 185.27 54.59 180.47" stroke="#aaa" stroke-width="1"/>
  <polyline fill="none" points ="42.29 181.82 39.54 177.15 34.69 174.77 29.96 174.67 25.34 175.71 23.43 176.41 22.02 177.26 27.33 174.83 32.49 172.07 28.09 178.48 24.02 185.08 23.34 187.38 24.68 189.24 28.23 190.89 31.67 192.78 37.52 197.78 42.21 203.93 46.58 198.07 52.02 193.21 55.43 191.21 59.02 189.58 60.71 188.39 60.87 186.39 58.3 181.56 55.23 177.01" stroke="#aaa" stroke-width="1"/>
  <polyline fill="none" points ="42.49 176.88 39.6 172.47 34.76 170.39 29.94 170.37 25.24 171.44 23.28 172.17 21.86 173.12 27.27 171.02 32.52 168.52 27.96 174.68 23.75 181.07 23.05 183.37 24.43 185.2 28.08 186.85 31.64 188.7 37.58 193.46 42.41 199.36 46.9 193.75 52.41 189.14 55.93 187.18 59.62 185.56 61.34 184.4 61.58 182.41 59 177.78 55.88 173.46" stroke="#aaa" stroke-width="1"/>
  <polyline fill="none" points ="42.4 172.01 39.39 167.87 34.58 166.06 29.71 166.12 24.96 167.21 22.95 167.96 21.54 169 27.01 167.22 32.33 164.97 27.63 170.87 23.31 177.03 22.6 179.31 24.02 181.12 27.74 182.76 31.38 184.57 37.38 189.07 42.32 194.72 46.9 189.36 52.44 185.01 56.05 183.1 59.8 181.5 61.56 180.37 61.87 178.39 59.29 173.96 56.15 169.87" stroke="#aaa" stroke-width="1"/>
  <polyline fill="none" points ="42.34 167.15 39.21 163.3 34.45 161.75 29.54 161.88 24.74 162.99 22.69 163.76 21.29 164.88 26.81 163.41 32.18 161.41 27.35 167.05 22.92 172.99 22.2 175.25 23.66 177.03 27.45 178.66 31.17 180.43 37.21 184.67 42.26 190.07 46.93 184.97 52.5 180.86 56.19 179 60 177.43 61.79 176.32 62.17 174.35 59.58 170.11 56.4 166.24" stroke="#aaa" stroke-width="1"/>
  <polyline fill="none" points ="42.29 162.3 38.98 158.72 34.22 157.44 28.9 157.67 23.69 158.78 20.9 159.66 18.21 160.77 21.77 159.42 25.29 157.86 22.1 163.21 19.75 168.95 20.3 171.48 22.51 172.94 26.75 174.5 30.89 176.28 37.02 180.26 42.21 185.42 46.96 180.57 52.56 176.74 56.59 174.89 60.73 173.38 63.05 172.33 64.6 170.4 63.86 166.48 62.03 162.88" stroke="#aaa" stroke-width="1"/>
  <polyline fill="none" points ="42.3 157.48 38.85 154.2 34.13 153.15 28.6 153.46 23.16 154.58 19.87 155.54 16.64 156.67 19.09 155.56 21.82 154.3 19.4 159.43 18.12 164.89 19.36 167.44 21.91 168.83 26.37 170.35 30.75 172.11 36.93 175.83 42.23 180.74 47.05 176.16 52.66 172.58 56.86 170.76 61.18 169.3 63.82 168.24 65.89 166.37 66.07 162.77 64.88 159.3" stroke="#aaa" stroke-width="1"/>
  <polyline fill="none" points ="42.26 152.74 38.7 149.77 34.07 148.94 28.42 149.31 22.88 150.44 19.29 151.44 15.75 152.59 17.42 151.79 19.73 150.75 17.8 155.64 17.17 160.81 18.82 163.31 21.57 164.66 26.16 166.15 30.67 167.86 36.83 171.34 42.19 175.96 47.05 171.66 52.61 168.33 56.91 166.57 61.31 165.15 64.14 164.09 66.52 162.29 67.23 158.99 66.46 155.63" stroke="#aaa" stroke-width="1"/>
  <polyline fill="none" points ="42.23 148.18 38.64 145.53 34.14 144.87 28.52 145.29 22.98 146.4 19.25 147.42 15.56 148.58 16.66 148.06 18.71 147.2 17.1 151.83 16.9 156.66 18.81 159.08 21.65 160.39 26.25 161.84 30.78 163.48 36.83 166.7 42.16 171.02 46.97 167.02 52.42 163.93 56.72 162.26 61.11 160.88 64.03 159.84 66.56 158.12 67.59 155.1 67.11 151.89" stroke="#aaa" stroke-width="1"/>
  <polyline fill="none" points ="42.21 143.86 38.69 141.51 34.4 140.99 28.94 141.44 23.55 142.51 19.83 143.51 16.15 144.66 16.84 144.37 18.68 143.64 17.33 147.96 17.4 152.43 19.41 154.71 22.23 155.97 26.72 157.35 31.15 158.89 36.97 161.85 42.14 165.83 46.8 162.15 52.02 159.33 56.2 157.75 60.47 156.45 63.37 155.45 65.93 153.83 67.12 151.09 66.85 148.07" stroke="#aaa" stroke-width="1"/>
  <polyline fill="none" points ="42.19 139.74 38.82 137.69 34.82 137.28 29.63 137.74 24.52 138.75 20.92 139.7 17.36 140.8 17.75 140.7 19.41 140.09 18.27 144.06 18.51 148.12 20.52 150.25 23.24 151.43 27.51 152.71 31.74 154.15 37.21 156.82 42.12 160.44 46.53 157.1 51.44 154.55 55.41 153.1 59.46 151.89 62.26 150.94 64.76 149.43 65.99 146.96 65.87 144.16" stroke="#aaa" stroke-width="1"/>
  <polyline fill="none" points ="42.25 135.71 39.07 133.95 35.38 133.64 30.53 134.09 25.74 135.04 22.32 135.93 18.94 136.98 19.07 137.03 20.56 136.53 19.61 140.14 19.98 143.79 21.94 145.74 24.53 146.83 28.53 148.02 32.5 149.33 37.59 151.72 42.19 154.96 46.31 151.97 50.85 149.7 54.58 148.37 58.37 147.26 61.02 146.38 63.41 145 64.66 142.79 64.65 140.23" stroke="#aaa" stroke-width="1"/>
  <polyline fill="none" points ="42.23 131.63 39.22 130.16 35.83 129.96 31.29 130.41 26.81 131.3 23.55 132.14 20.33 133.14 20.19 133.36 21.54 132.98 20.77 136.23 21.26 139.47 23.19 141.26 25.65 142.27 29.41 143.36 33.14 144.56 37.86 146.67 42.17 149.54 46.02 146.9 50.23 144.89 53.73 143.69 57.28 142.67 59.79 141.85 62.09 140.58 63.34 138.64 63.45 136.31" stroke="#aaa" stroke-width="1"/>
  <polyline fill="none" points ="42.26 127.36 39.37 126.22 36.21 126.13 31.9 126.6 27.64 127.44 24.46 128.25 21.34 129.23 20.88 129.66 22.14 129.43 21.54 132.35 22.18 135.22 24.11 136.87 26.5 137.81 30.09 138.83 33.66 139.93 38.1 141.78 42.21 144.29 45.88 141.98 49.84 140.22 53.19 139.14 56.57 138.19 59 137.42 61.25 136.23 62.52 134.5 62.74 132.35" stroke="#aaa" stroke-width="1"/>
  <polyline fill="none" points ="42.26 122.79 39.38 122.01 36.35 122.05 32.11 122.57 27.91 123.4 24.71 124.2 21.57 125.22 20.73 125.86 21.97 125.87 21.54 128.54 22.34 131.08 24.36 132.63 26.77 133.55 30.33 134.53 33.87 135.55 38.17 137.17 42.22 139.36 45.85 137.34 49.72 135.8 53.04 134.8 56.39 133.9 58.84 133.13 61.12 131.97 62.43 130.38 62.76 128.34" stroke="#aaa" stroke-width="1"/>
  <polyline fill="none" points ="42.22 117.81 39.23 117.44 36.2 117.64 31.86 118.25 27.57 119.11 24.23 119.95 20.98 121.06 19.9 121.84 21.09 122.32 20.72 124.8 21.66 127.08 23.87 128.6 26.41 129.53 30.09 130.52 33.78 131.51 38.07 132.93 42.18 134.83 45.93 133.05 49.85 131.7 53.34 130.74 56.84 129.83 59.42 129.02 61.82 127.81 63.18 126.25 63.5 124.21" stroke="#aaa" stroke-width="1"/>
  <polyline fill="none" points ="42.19 112.45 38.99 112.54 35.81 112.91 31.22 113.65 26.66 114.59 23.09 115.5 19.63 116.77 18.46 117.82 19.65 118.77 19.25 121.11 20.28 123.22 22.75 124.77 25.52 125.75 29.48 126.79 33.45 127.77 37.88 129.04 42.18 130.68 46.22 129.11 50.39 127.88 54.22 126.93 58.05 125.96 60.86 125.05 63.46 123.69 64.78 122.03 64.87 119.9" stroke="#aaa" stroke-width="1"/>
  <polyline fill="none" points ="42.19 106.87 37.68 107.38 33.17 108.01 28.28 108.86 23.44 109.93 20.08 110.91 16.94 112.4 16.22 114 17.65 115.21 17.25 117.48 18.45 119.43 21.27 121.05 24.36 122.1 28.7 123.21 33.06 124.21 37.66 125.35 42.18 126.75 46.67 125.35 51.23 124.22 55.59 123.21 59.93 122.11 63.02 121.06 65.84 119.44 67 117.48 66.51 115.24" stroke="#aaa" stroke-width="1"/>
  <polyline fill="none" points ="42.13 101.31 36.81 102.22 31.49 103.12 26.24 104.09 21.05 105.27 17.63 106.34 14.51 108.03 13.99 110.07 15.59 111.66 15.21 113.85 16.59 115.64 19.79 117.32 23.24 118.44 27.95 119.62 32.7 120.65 37.43 121.66 42.13 122.81 46.79 121.66 51.49 120.65 56.25 119.62 60.96 118.44 64.41 117.32 67.6 115.64 68.93 113.83 68.44 111.66 68.63 111.53 68.81 111.41 68.98 111.29 69.14 111.16 69.28 111.04 69.42 110.92 69.55 110.81 69.67 110.69" stroke="#aaa" stroke-width="1"/>
  <polyline fill="none" points ="42.07 95.98 36.24 97.29 30.38 98.43 24.87 99.5 19.41 100.77 15.91 101.89 12.77 103.75 12.37 106.15 14.08 108.1 13.78 110.18 15.3 111.76 18.86 113.46 22.62 114.64 27.62 115.86 32.67 116.88 37.37 117.76 42.07 118.63 46.73 117.75 51.4 116.88 56.45 115.86 61.46 114.64 65.22 113.46 68.76 111.76 70.25 110.16 69.83 108.1 70.15 107.84 70.46 107.57 70.72 107.32 70.98 107.06 71.18 106.82 71.37 106.57 71.52 106.34 71.66 106.1" stroke="#aaa" stroke-width="1"/>
  <polyline fill="none" points ="42.03 91.03 35.97 92.69 29.82 94.04 24.24 95.19 18.7 96.49 15.22 97.64 12.18 99.6 11.95 102.31 13.76 104.55 13.53 106.42 15.11 107.75 18.93 109.41 22.92 110.61 28.04 111.82 33.21 112.81 37.62 113.52 42.03 114.07 46.42 113.52 50.8 112.81 55.98 111.82 61.11 110.61 65.09 109.41 68.89 107.75 70.45 106.4 70.09 104.55 70.52 104.15 70.94 103.73 71.27 103.36 71.58 102.96 71.82 102.61 72.02 102.25 72.17 101.92 72.28 101.57" stroke="#aaa" stroke-width="1"/>
  <polyline fill="none" points ="42.01 86.47 35.99 88.44 29.83 89.96 24.39 91.16 18.98 92.46 15.68 93.59 12.88 95.59 12.98 98.56 14.95 101 14.7 102.55 16.31 103.6 20.38 105.16 24.58 106.33 29.67 107.49 34.8 108.43 38.4 108.93 42.01 109.13 45.61 108.92 49.18 108.43 54.32 107.49 59.42 106.33 63.6 105.16 67.66 103.6 69.24 102.53 68.85 101 69.42 100.45 69.95 99.87 70.36 99.37 70.74 98.85 71.01 98.39 71.23 97.92 71.36 97.5 71.44 97.07" stroke="#aaa" stroke-width="1"/>
  <polyline fill="none" points ="42.03 82.2 36.3 84.46 30.37 86.13 25.22 87.34 20.09 88.6 17.02 89.69 14.53 91.68 14.94 94.85 17.03 97.44 16.3 98.47 17.66 99.35 21.43 100.78 25.32 101.88 30.18 102.98 35.09 103.8 38.57 104.13 42.04 103.89 45.48 104.13 48.93 103.8 53.84 102.98 58.71 101.88 62.58 100.79 66.34 99.35 67.68 98.43 66.81 97.44 67.46 96.77 68.08 96.08 68.55 95.48 68.98 94.86 69.27 94.33 69.51 93.78 69.65 93.31 69.71 92.82" stroke="#aaa" stroke-width="1"/>
  <polyline fill="none" points ="42.04 78.11 36.73 80.63 31.13 82.45 26.37 83.65 21.62 84.86 18.84 85.88 16.73 87.84 17.47 91.15 19.67 93.89 18.34 94.19 19.4 95.04 22.8 96.32 26.29 97.32 30.86 98.35 35.48 99.03 38.83 99.17 42.06 98.47 45.27 99.17 48.58 99.03 53.2 98.34 57.76 97.32 61.25 96.32 64.63 95.04 65.6 94.13 64.2 93.89 64.93 93.12 65.62 92.31 66.14 91.64 66.61 90.94 66.94 90.36 67.21 89.75 67.36 89.25 67.43 88.73" stroke="#aaa" stroke-width="1"/>
  <polyline fill="none" points ="42.05 74.08 37.19 76.85 31.96 78.81 27.63 80 23.3 81.15 20.85 82.11 19.15 84.02 20.26 87.45 22.59 90.34 21.21 90.15 21.32 90.7 24.3 91.83 27.36 92.72 31.6 93.67 35.9 94.21 39.13 94.15 42.09 92.99 45 94.15 48.2 94.21 52.5 93.67 56.73 92.72 59.78 91.84 62.75 90.7 62.74 90.15 61.32 90.34 62.09 89.5 62.83 88.63 63.39 87.91 63.91 87.17 64.29 86.55 64.6 85.92 64.8 85.39 64.92 84.85" stroke="#aaa" stroke-width="1"/>
  <polyline fill="none" points ="42.07 69.97 37.63 72.97 32.71 75.1 28.79 76.29 24.85 77.39 22.7 78.3 21.45 80.16 22.97 83.73 25.47 86.78 23.96 86.35 23.15 86.4 25.72 87.39 28.36 88.18 32.29 89.05 36.29 89.46 39.44 89.18 42.12 87.59 44.74 89.18 47.86 89.46 51.85 89.05 55.77 88.18 58.4 87.39 60.96 86.4 60.05 86.35 58.49 86.78 59.28 85.91 60.04 85.03 60.64 84.29 61.21 83.53 61.64 82.9 62.02 82.25 62.28 81.72 62.49 81.17" stroke="#aaa" stroke-width="1"/>
  <polyline fill="none" points ="42.11 65.67 38.01 68.92 33.33 71.24 29.73 72.44 26.11 73.51 24.2 74.41 23.38 76.25 25.34 79.97 28.1 83.23 26.29 82.56 24.69 82.16 26.88 83.05 29.14 83.75 32.82 84.57 36.58 84.87 39.72 84.35 42.16 82.39 44.54 84.35 47.63 84.87 51.39 84.57 55.07 83.75 57.32 83.05 59.49 82.16 57.81 82.55 55.94 83.23 56.74 82.36 57.52 81.47 58.16 80.72 58.78 79.96 59.26 79.32 59.71 78.67 60.05 78.13 60.35 77.57" stroke="#aaa" stroke-width="1"/>
  <polyline fill="none" points ="42.16 61.16 38.35 64.67 33.85 67.21 30.48 68.44 27.08 69.51 25.37 70.44 24.97 72.25 27.47 76.18 30.6 79.67 28.29 78.73 25.96 77.99 27.79 78.82 29.69 79.44 33.2 80.23 36.78 80.44 39.95 79.67 42.21 77.39 44.41 79.68 47.54 80.44 51.12 80.23 54.62 79.44 56.52 78.82 58.32 77.99 55.93 78.72 53.55 79.67 54.38 78.8 55.2 77.92 55.89 77.17 56.56 76.4 57.11 75.75 57.64 75.09 58.05 74.54 58.44 73.97" stroke="#aaa" stroke-width="1"/>
  <polyline fill="none" points ="42.05 56.52 38.47 60.29 34.09 63.08 30.97 64.33 27.81 65.42 26.38 66.48 26.66 68.22 30.16 72.35 34.07 76.12 30.78 74.83 27.4 73.88 28.6 74.67 30.08 75.22 33.38 75.99 36.77 76.12 39.99 75.1 42.11 72.52 44.17 75.11 47.35 76.12 50.73 75.99 54.03 75.22 55.51 74.67 56.69 73.88 53.25 74.83 49.9 76.12 50.83 75.26 51.75 74.4 52.54 73.64 53.33 72.88 53.99 72.23 54.65 71.57 55.19 71 55.72 70.43" stroke="#aaa" stroke-width="1"/>
  <polyline fill="none" points ="42.05 51.81 38.6 55.85 34.25 58.88 31.24 60.18 28.19 61.29 26.86 62.45 27.35 64.15 31.1 68.52 35.21 72.56 31.52 71.01 27.73 69.78 28.7 70.51 30.1 71.04 33.38 71.8 36.74 71.85 40.06 70.6 42.12 67.73 44.1 70.6 47.38 71.85 50.74 71.8 54.02 71.04 55.41 70.51 56.37 69.78 52.51 71.01 48.76 72.56 49.67 71.7 50.58 70.82 51.37 70.06 52.16 69.29 52.83 68.62 53.5 67.94 54.07 67.36 54.62 66.77" stroke="#aaa" stroke-width="1"/>
  <polyline fill="none" points ="42.06 47.06 38.71 51.36 34.36 54.65 31.39 56.02 28.35 57.14 27.02 58.33 27.49 60.07 31.18 64.69 35.23 69.01 31.48 67.21 27.61 65.7 28.6 66.37 29.99 66.88 33.31 67.64 36.71 67.62 40.13 66.12 42.13 62.97 44.06 66.12 47.43 67.62 50.83 67.63 54.14 66.88 55.53 66.37 56.5 65.7 52.57 67.21 48.76 69.01 49.62 68.12 50.48 67.23 51.23 66.44 51.98 65.65 52.62 64.96 53.26 64.26 53.81 63.66 54.35 63.05" stroke="#aaa" stroke-width="1"/>
  <polyline fill="none" points ="42.12 42.28 38.84 46.85 34.48 50.4 31.54 51.82 28.5 52.97 27.16 54.19 27.62 55.98 31.26 60.86 35.26 65.46 31.5 63.43 27.62 61.63 28.63 62.24 30.01 62.75 33.34 63.49 36.75 63.41 40.25 61.65 42.19 58.24 44.06 61.65 47.51 63.41 50.91 63.49 54.24 62.75 55.62 62.24 56.61 61.63 52.67 63.42 48.84 65.46 49.66 64.55 50.47 63.64 51.19 62.83 51.91 62.01 52.53 61.3 53.15 60.58 53.68 59.95 54.2 59.32" stroke="#aaa" stroke-width="1"/>
  <polyline fill="none" points ="42.11 37.44 38.86 42.29 34.46 46.1 31.52 47.59 28.46 48.76 27.11 50.03 27.55 51.88 31.18 57.02 35.18 61.9 31.37 59.64 27.46 57.58 28.48 58.13 29.87 58.65 33.24 59.39 36.69 59.25 40.27 57.25 42.18 53.57 44.02 57.24 47.56 59.25 50.99 59.39 54.36 58.65 55.74 58.13 56.75 57.58 52.77 59.64 48.9 61.9 49.69 60.97 50.47 60.04 51.17 59.21 51.86 58.37 52.46 57.63 53.06 56.89 53.58 56.24 54.1 55.59" stroke="#aaa" stroke-width="1"/>
  <polyline fill="none" points ="42.1 32.48 38.82 37.62 34.32 41.71 31.33 43.27 28.2 44.48 26.81 45.81 27.26 47.72 30.94 53.17 35 58.35 31.1 55.88 27.09 53.58 28.14 54.1 29.56 54.62 33.02 55.37 36.54 55.19 40.26 52.95 42.17 49.02 44.02 52.95 47.68 55.19 51.2 55.37 54.65 54.62 56.07 54.1 57.1 53.58 53.03 55.87 49.06 58.35 49.84 57.39 50.61 56.42 51.3 55.56 51.99 54.7 52.59 53.93 53.19 53.16 53.71 52.48 54.22 51.8" stroke="#aaa" stroke-width="1"/>
  <polyline fill="none" points ="42.1 27.33 38.69 32.8 33.98 37.16 30.87 38.81 27.6 40.09 26.14 41.49 26.61 43.51 30.44 49.29 34.68 54.8 30.58 52.13 26.39 49.64 27.5 50.16 28.98 50.7 32.59 51.49 36.28 51.28 40.18 48.85 42.17 44.66 44.08 48.85 47.94 51.28 51.62 51.49 55.23 50.7 56.7 50.16 57.79 49.64 53.53 52.13 49.38 54.8 50.18 53.79 50.97 52.78 51.68 51.88 52.38 50.97 53.01 50.16 53.62 49.36 54.16 48.64 54.69 47.92" stroke="#aaa" stroke-width="1"/>
  <polyline fill="none" points ="42.1 21.98 38.46 27.81 33.43 32.45 30.11 34.2 26.61 35.57 25.05 37.06 25.55 39.22 29.65 45.37 34.18 51.24 29.81 48.41 25.33 45.77 26.51 46.33 28.09 46.92 31.95 47.76 35.89 47.54 40.05 44.96 42.17 40.51 44.22 44.96 48.33 47.54 52.26 47.76 56.12 46.92 57.7 46.33 58.86 45.77 54.31 48.41 49.88 51.24 50.73 50.18 51.57 49.11 52.33 48.15 53.07 47.19 53.74 46.34 54.39 45.48 54.97 44.72 55.53 43.96" stroke="#aaa" stroke-width="1"/>
  <polyline fill="none" points ="42.11 16.52 38.17 22.72 32.75 27.64 29.17 29.51 25.39 30.98 23.72 32.58 24.26 34.89 28.69 41.45 33.59 47.69 28.88 44.71 24.05 41.94 25.32 42.57 27.02 43.2 31.18 44.11 35.42 43.89 39.88 41.19 42.18 36.46 44.4 41.19 48.82 43.89 53.05 44.11 57.2 43.2 58.91 42.57 60.15 41.94 55.26 44.71 50.49 47.69 51.4 46.56 52.32 45.42 53.13 44.4 53.93 43.38 54.65 42.47 55.36 41.56 55.98 40.75 56.59 39.94" stroke="#aaa" stroke-width="1"/>
  <polyline fill="none" points ="42.11 11.07 37.89 17.64 32.09 22.85 28.24 24.84 24.2 26.41 22.41 28.1 22.99 30.56 27.75 37.52 33 44.14 27.96 41 22.79 38.11 24.15 38.79 25.97 39.47 30.42 40.44 34.96 40.23 39.72 37.4 42.19 32.4 44.58 37.4 49.29 40.23 53.82 40.44 58.27 39.47 60.09 38.79 61.42 38.11 56.19 41 51.09 44.14 52.06 42.94 53.04 41.74 53.9 40.67 54.77 39.59 55.53 38.63 56.28 37.67 56.95 36.82 57.6 35.96" stroke="#aaa" stroke-width="1"/>
  <polyline fill="none" points ="42.11 5.78 37.67 12.7 31.58 18.18 27.53 20.27 23.28 21.92 21.4 23.71 22.01 26.29 27.01 33.62 32.53 40.58 27.23 37.28 21.8 34.22 23.22 34.94 25.13 35.64 29.81 36.67 34.59 36.44 39.59 33.46 42.19 28.19 44.71 33.45 49.67 36.44 54.43 36.67 59.1 35.64 61.02 34.94 62.43 34.22 56.92 37.28 51.56 40.58 52.57 39.34 53.58 38.09 54.49 36.97 55.38 35.85 56.18 34.84 56.97 33.84 57.66 32.94 58.35 32.05" stroke="#aaa" stroke-width="1"/>
</svg>