<?xml version="1.0" encoding="UTF-8"?>
<svg id="Ebene_1" xmlns="http://www.w3.org/2000/svg" width="222" height="222" viewBox="0 0 222 222">
  <polyline points="246.47 1.23 239.84 2.01 233.29 3.21 230.11 4.12 227.15 5.57 226.14 6.59 225.87 7.98 226.42 9.15 227.29 10.12 228.23 10.91 229.21 11.66 229.59 11.98 229.46 12.26 227.65 11.98 225.85 11.59 221.03 10.47 216.21 9.34 223.11 9.92 230.01 10.54 234.4 10.97 238.79 11.41 241.36 11.65 243.92 11.83 245.34 11.86 246.75 11.73 247.71 11.46 248.62 11.02 249.75 10.32 250.88 9.6 252.86 8.45 254.89 7.39 258.41 5.77 262 4.29" fill="none" stroke="#aaa" stroke-miterlimit="10" stroke-width=".5"/>
  <polyline points="241.78 1.23 234.93 2.01 228.14 3.21 224.85 4.13 221.77 5.58 220.73 6.6 220.42 8 220.96 9.17 221.83 10.14 222.78 10.93 223.76 11.68 224.14 12.02 223.93 12.28 222.02 12.02 220.11 11.63 215.07 10.52 210.03 9.38 217.18 9.96 224.32 10.58 228.84 11.01 233.36 11.44 235.98 11.68 238.6 11.86 240.03 11.89 241.45 11.76 242.42 11.48 243.33 11.03 244.5 10.31 245.68 9.59 247.76 8.41 249.91 7.33 253.65 5.68 257.46 4.18" fill="none" stroke="#aaa" stroke-miterlimit="10" stroke-width=".5"/>
  <polyline points="237 1.23 229.91 2.02 222.89 3.24 219.48 4.16 216.29 5.63 215.21 6.65 214.87 8.07 215.41 9.26 216.29 10.23 217.25 11.03 218.24 11.79 218.62 12.14 218.36 12.4 216.35 12.14 214.35 11.75 209.1 10.63 203.86 9.49 211.25 10.07 218.64 10.7 223.31 11.13 227.97 11.56 230.65 11.8 233.33 11.99 234.78 12.01 236.21 11.87 237.21 11.58 238.13 11.12 239.35 10.38 240.58 9.64 242.77 8.43 245.04 7.33 249 5.63 253.03 4.09" fill="none" stroke="#aaa" stroke-miterlimit="10" stroke-width=".5"/>
  <polyline points="232.04 1.23 224.71 2.04 217.46 3.29 213.94 4.24 210.63 5.74 209.51 6.79 209.15 8.24 209.71 9.46 210.62 10.46 211.6 11.28 212.61 12.05 213 12.42 212.72 12.69 210.63 12.42 208.55 12.02 203.11 10.88 197.68 9.71 205.34 10.3 213 10.95 217.82 11.39 222.64 11.83 225.4 12.08 228.15 12.26 229.64 12.28 231.11 12.14 232.13 11.83 233.09 11.35 234.36 10.58 235.64 9.81 237.96 8.55 240.35 7.41 244.53 5.64 248.78 4.05" fill="none" stroke="#aaa" stroke-miterlimit="10" stroke-width=".5"/>
  <polyline points="226.85 1.23 219.27 2.08 211.77 3.38 208.13 4.38 204.72 5.94 203.57 7.04 203.21 8.56 203.79 9.84 204.74 10.88 205.77 11.74 206.83 12.55 207.24 12.92 206.98 13.21 204.83 12.92 202.7 12.5 197.1 11.31 191.5 10.09 199.46 10.71 207.41 11.39 212.41 11.85 217.4 12.32 220.27 12.57 223.12 12.76 224.67 12.78 226.2 12.62 227.26 12.29 228.26 11.79 229.61 10.97 230.96 10.15 233.4 8.83 235.92 7.61 240.31 5.75 244.77 4.06" fill="none" stroke="#aaa" stroke-miterlimit="10" stroke-width=".5"/>
  <polyline points="221.37 1.23 213.53 2.13 205.77 3.53 202.01 4.59 198.5 6.26 197.31 7.45 196.98 9.06 197.6 10.42 198.62 11.54 199.72 12.46 200.86 13.32 201.3 13.7 201.1 14.02 198.94 13.71 196.78 13.26 191.06 11.97 185.32 10.66 193.6 11.33 201.87 12.07 207.08 12.56 212.28 13.07 215.28 13.34 218.26 13.54 219.89 13.56 221.5 13.38 222.64 13.02 223.71 12.47 225.13 11.58 226.57 10.7 229.13 9.27 231.78 7.96 236.38 5.96 241.05 4.14" fill="none" stroke="#aaa" stroke-miterlimit="10" stroke-width=".5"/>
  <polyline points="215.61 1.23 207.5 2.21 199.48 3.72 195.59 4.87 191.99 6.69 190.77 8 190.48 9.73 191.17 11.21 192.27 12.43 193.47 13.43 194.71 14.36 195.19 14.75 195.11 15.11 192.95 14.76 190.81 14.27 184.98 12.85 179.15 11.42 187.77 12.17 196.38 12.98 201.83 13.52 207.27 14.07 210.42 14.37 213.57 14.59 215.31 14.6 217.02 14.4 218.26 14 219.4 13.39 220.93 12.42 222.46 11.44 225.16 9.88 227.94 8.45 232.74 6.26 237.62 4.28" fill="none" stroke="#aaa" stroke-miterlimit="10" stroke-width=".5"/>
  <polyline points="209.67 1.23 201.28 2.3 192.99 3.95 188.97 5.21 185.28 7.2 184.04 8.65 183.8 10.53 184.57 12.14 185.78 13.47 187.08 14.57 188.44 15.58 188.98 16 189.04 16.4 186.91 15.99 184.8 15.46 178.89 13.89 172.97 12.3 181.96 13.14 190.94 14.05 196.64 14.65 202.34 15.26 205.66 15.59 208.99 15.82 210.85 15.83 212.69 15.6 214.03 15.15 215.28 14.47 216.91 13.4 218.54 12.32 221.38 10.6 224.31 9.01 229.3 6.62 234.39 4.43" fill="none" stroke="#aaa" stroke-miterlimit="10" stroke-width=".5"/>
  <polyline points="203.66 1.23 194.98 2.39 186.42 4.19 182.27 5.57 178.5 7.73 177.24 9.35 177.05 11.37 177.91 13.13 179.22 14.59 180.63 15.79 182.13 16.89 182.72 17.33 182.93 17.77 180.84 17.31 178.77 16.72 172.79 14.99 166.79 13.25 176.15 14.19 185.51 15.19 191.47 15.86 197.44 16.53 200.94 16.89 204.46 17.13 206.46 17.14 208.43 16.88 209.88 16.37 211.23 15.62 212.97 14.44 214.72 13.24 217.7 11.36 220.77 9.61 225.96 6.98 231.26 4.58" fill="none" stroke="#aaa" stroke-miterlimit="10" stroke-width=".5"/>
  <polyline points="197.7 1.23 188.73 2.48 179.9 4.42 175.62 5.92 171.77 8.26 170.49 10.03 170.35 12.19 171.28 14.09 172.7 15.67 174.23 16.98 175.85 18.16 176.5 18.62 176.85 19.1 174.79 18.58 172.76 17.95 166.69 16.05 160.61 14.16 170.35 15.2 180.08 16.3 186.3 17.04 192.53 17.76 196.22 18.15 199.91 18.42 202.04 18.41 204.13 18.12 205.69 17.56 207.14 16.74 209 15.44 210.85 14.13 213.98 12.07 217.21 10.16 222.61 7.31 228.13 4.69" fill="none" stroke="#aaa" stroke-miterlimit="10" stroke-width=".5"/>
  <polyline points="191.89 1.23 182.65 2.56 173.56 4.63 169.15 6.23 165.21 8.72 163.9 10.62 163.81 12.91 164.81 14.93 166.31 16.63 167.94 18.02 169.67 19.28 170.37 19.77 170.84 20.28 168.8 19.7 166.78 19.04 160.62 17 154.44 14.98 164.53 16.1 174.62 17.29 181.09 18.08 187.56 18.86 191.41 19.27 195.27 19.55 197.51 19.54 199.71 19.21 201.37 18.6 202.9 17.71 204.87 16.31 206.83 14.89 210.11 12.68 213.48 10.62 219.1 7.56 224.86 4.75" fill="none" stroke="#aaa" stroke-miterlimit="10" stroke-width=".5"/>
  <polyline points="186.35 1.23 176.84 2.62 167.49 4.79 162.96 6.47 158.93 9.08 157.59 11.09 157.52 13.48 158.57 15.59 160.14 17.37 161.85 18.83 163.66 20.15 164.4 20.66 164.94 21.2 162.88 20.58 160.85 19.89 154.57 17.74 148.26 15.62 158.7 16.8 169.12 18.06 175.81 18.89 182.5 19.71 186.48 20.15 190.48 20.43 192.81 20.41 195.1 20.06 196.84 19.41 198.44 18.46 200.5 16.97 202.56 15.47 205.98 13.12 209.52 10.93 215.38 7.69 221.38 4.71" fill="none" stroke="#aaa" stroke-miterlimit="10" stroke-width=".5"/>
  <polyline points="181.1 1.23 171.34 2.67 161.75 4.9 157.1 6.63 152.96 9.32 151.59 11.39 151.52 13.85 152.6 16.04 154.22 17.87 155.98 19.38 157.84 20.73 158.61 21.26 159.17 21.81 157.07 21.18 154.99 20.46 148.55 18.25 142.08 16.06 152.83 17.29 163.57 18.59 170.45 19.45 177.33 20.29 181.42 20.74 185.52 21.03 187.91 21 190.26 20.63 192.05 19.94 193.71 18.94 195.85 17.39 197.99 15.82 201.57 13.37 205.26 11.09 211.39 7.71 217.66 4.6" fill="none" stroke="#aaa" stroke-miterlimit="10" stroke-width=".5"/>
  <polyline points="176.11 1.23 166.11 2.69 156.28 4.96 151.51 6.73 147.26 9.46 145.85 11.56 145.77 14.07 146.87 16.28 148.51 18.15 150.3 19.68 152.19 21.06 152.97 21.6 153.51 22.16 151.33 21.52 149.18 20.79 142.55 18.54 135.9 16.32 146.94 17.57 157.97 18.89 165.01 19.77 172.06 20.63 176.23 21.07 180.4 21.36 182.83 21.33 185.22 20.94 187.05 20.22 188.74 19.2 190.96 17.59 193.18 15.97 196.91 13.44 200.77 11.1 207.17 7.62 213.73 4.42" fill="none" stroke="#aaa" stroke-miterlimit="10" stroke-width=".5"/>
  <polyline points="171.31 1.23 161.08 2.7 151.01 4.99 146.13 6.77 141.76 9.52 140.32 11.62 140.2 14.16 141.31 16.39 142.96 18.27 144.76 19.81 146.66 21.2 147.44 21.74 147.94 22.31 145.66 21.67 143.42 20.94 136.58 18.69 129.73 16.45 141.04 17.71 152.34 19.03 159.52 19.91 166.71 20.77 170.94 21.22 175.18 21.51 177.63 21.47 180.03 21.07 181.88 20.32 183.59 19.28 185.88 17.64 188.17 15.99 192.07 13.41 196.08 11.02 202.78 7.46 209.64 4.2" fill="none" stroke="#aaa" stroke-miterlimit="10" stroke-width=".5"/>
  <polyline points="166.62 1.23 156.16 2.71 145.87 5 140.88 6.77 136.39 9.53 134.89 11.63 134.75 14.17 135.85 16.41 137.5 18.29 139.3 19.82 141.21 21.22 141.97 21.76 142.41 22.33 140.03 21.71 137.67 20.98 130.62 18.73 123.55 16.5 135.12 17.75 146.68 19.08 154 19.95 161.32 20.81 165.59 21.26 169.88 21.54 172.34 21.49 174.75 21.08 176.62 20.32 178.34 19.27 180.69 17.59 183.05 15.93 187.11 13.3 191.29 10.88 198.3 7.27 205.46 3.96" fill="none" stroke="#aaa" stroke-miterlimit="10" stroke-width=".5"/>
  <polyline points="161.99 1.23 151.31 2.71 140.78 5 135.68 6.77 131.07 9.52 129.53 11.6 129.35 14.15 130.44 16.39 132.1 18.25 133.89 19.79 135.79 21.18 136.54 21.73 136.91 22.3 134.41 21.69 131.94 20.96 124.67 18.73 117.37 16.51 129.2 17.75 141.02 19.07 148.46 19.93 155.91 20.79 160.22 21.23 164.55 21.51 167.01 21.46 169.42 21.04 171.3 20.26 173.04 19.2 175.45 17.5 177.88 15.82 182.11 13.16 186.46 10.72 193.79 7.06 201.27 3.71" fill="none" stroke="#aaa" stroke-miterlimit="10" stroke-width=".5"/>
  <polyline points="157.38 1.23 146.47 2.7 135.71 4.99 130.51 6.75 125.78 9.5 124.19 11.56 123.97 14.12 125.05 16.35 126.7 18.21 128.49 19.73 130.38 21.13 131.12 21.68 131.42 22.25 128.8 21.66 126.22 20.92 118.71 18.71 111.19 16.51 123.28 17.73 135.35 19.04 142.92 19.9 150.49 20.76 154.84 21.19 159.21 21.46 161.67 21.4 164.08 20.98 165.97 20.19 167.72 19.12 170.19 17.4 172.7 15.7 177.1 13.01 181.63 10.54 189.28 6.84 197.09 3.46" fill="none" stroke="#aaa" stroke-miterlimit="10" stroke-width=".5"/>
  <polyline points="152.76 1.23 141.63 2.7 130.65 4.99 125.33 6.74 120.48 9.48 118.85 11.52 118.58 14.08 119.65 16.31 121.3 18.16 123.09 19.68 124.97 21.07 125.71 21.63 125.92 22.19 123.19 21.62 120.49 20.88 112.76 18.7 105.02 16.51 117.36 17.72 129.69 19.02 137.38 19.87 145.07 20.72 149.46 21.15 153.86 21.41 156.33 21.35 158.74 20.92 160.64 20.11 162.4 19.04 164.94 17.29 167.52 15.58 172.1 12.86 176.81 10.37 184.8 6.63 192.93 3.21" fill="none" stroke="#aaa" stroke-miterlimit="10" stroke-width=".5"/>
  <polyline points="148.15 1.23 136.8 2.7 125.59 4.98 120.16 6.73 115.19 9.46 113.51 11.48 113.21 14.05 114.27 16.26 115.91 18.11 117.7 19.62 119.57 21.01 120.3 21.57 120.43 22.13 117.58 21.57 114.77 20.84 106.81 18.67 98.84 16.5 111.44 17.7 124.02 18.99 131.84 19.83 139.65 20.68 144.08 21.1 148.51 21.36 150.98 21.3 153.39 20.85 155.3 20.04 157.07 18.95 159.68 17.19 162.34 15.47 167.09 12.72 171.98 10.21 180.31 6.42 188.79 2.97" fill="none" stroke="#aaa" stroke-miterlimit="10" stroke-width=".5"/>
  <polyline points="143.58 1.23 132.01 2.7 120.57 4.97 115.03 6.7 109.94 9.43 108.22 11.42 107.87 13.99 108.92 16.2 110.56 18.03 112.33 19.53 114.19 20.92 114.91 21.48 114.96 22.04 111.99 21.49 109.05 20.76 100.86 18.62 92.66 16.47 105.51 17.65 118.35 18.93 126.28 19.77 134.21 20.6 138.67 21.02 143.14 21.28 145.6 21.21 148.01 20.76 149.92 19.93 151.71 18.84 154.39 17.05 157.12 15.33 162.06 12.55 167.14 10.03 175.82 6.21 184.64 2.73" fill="none" stroke="#aaa" stroke-miterlimit="10" stroke-width=".5"/>
  <polyline points="139.1 1.23 127.3 2.69 115.65 4.94 110 6.66 104.78 9.36 103.02 11.32 102.61 13.88 103.64 16.07 105.27 17.88 107.03 19.37 108.86 20.75 109.58 21.32 109.52 21.86 106.42 21.33 103.35 20.61 94.92 18.51 86.48 16.38 99.58 17.54 112.66 18.81 120.7 19.63 128.74 20.45 133.22 20.87 137.71 21.11 140.16 21.04 142.56 20.59 144.47 19.75 146.26 18.66 149.01 16.86 151.82 15.14 156.95 12.34 162.22 9.81 171.26 5.97 180.44 2.48" fill="none" stroke="#aaa" stroke-miterlimit="10" stroke-width=".5"/>
  <polyline points="134.77 1.23 122.76 2.67 110.89 4.89 105.13 6.58 99.79 9.23 97.98 11.14 97.51 13.67 98.51 15.83 100.11 17.61 101.84 19.07 103.64 20.43 104.34 21.02 104.15 21.53 100.91 21.03 97.69 20.32 89 18.28 80.31 16.19 93.63 17.33 106.94 18.56 115.07 19.36 123.2 20.17 127.69 20.57 132.18 20.81 134.61 20.73 136.97 20.28 138.88 19.44 140.67 18.36 143.48 16.56 146.37 14.85 151.69 12.06 157.16 9.54 166.57 5.71 176.13 2.23" fill="none" stroke="#aaa" stroke-miterlimit="10" stroke-width=".5"/>
  <polyline points="130.67 1.23 118.47 2.63 106.38 4.79 100.52 6.43 95.04 9.02 93.18 10.84 92.63 13.33 93.59 15.43 95.15 17.15 96.83 18.56 98.57 19.89 99.25 20.5 98.88 20.98 95.47 20.51 92.07 19.83 83.1 17.86 74.13 15.85 87.66 16.94 101.17 18.12 109.37 18.89 117.56 19.67 122.03 20.06 126.5 20.29 128.88 20.21 131.2 19.76 133.08 18.94 134.85 17.88 137.72 16.1 140.66 14.43 146.19 11.68 151.84 9.2 161.65 5.41 171.59 1.98" fill="none" stroke="#aaa" stroke-miterlimit="10" stroke-width=".5"/>
  <polyline points="126.86 1.23 114.46 2.58 102.18 4.65 96.22 6.22 90.6 8.69 88.69 10.4 88.04 12.81 88.93 14.82 90.42 16.46 92.03 17.81 93.68 19.09 94.32 19.73 93.74 20.14 90.12 19.72 86.52 19.07 77.24 17.23 67.95 15.32 81.65 16.34 95.34 17.45 103.57 18.18 111.8 18.92 116.22 19.28 120.64 19.5 122.94 19.43 125.18 19 127.02 18.19 128.75 17.18 131.67 15.45 134.66 13.84 140.39 11.16 146.24 8.76 156.46 5.07 166.8 1.73" fill="none" stroke="#aaa" stroke-miterlimit="10" stroke-width=".5"/>
  <polyline points="123.33 1.23 110.76 2.5 98.28 4.46 92.22 5.93 86.45 8.26 84.5 9.82 83.71 12.12 84.53 14.01 85.93 15.54 87.44 16.8 88.98 18.01 89.52 18.72 88.72 19.02 84.86 18.65 81.03 18.05 71.4 16.36 61.77 14.6 75.62 15.52 89.45 16.55 97.68 17.22 105.91 17.91 110.25 18.24 114.59 18.45 116.78 18.38 118.93 17.97 120.69 17.2 122.37 16.25 125.33 14.59 128.37 13.07 134.29 10.51 140.34 8.23 150.99 4.69 161.75 1.5" fill="none" stroke="#aaa" stroke-miterlimit="10" stroke-width=".5"/>
  <polyline points="120 1.23 107.26 2.42 94.6 4.23 88.44 5.59 82.53 7.74 80.54 9.14 79.59 11.31 80.31 13.06 81.61 14.46 83.01 15.61 84.4 16.74 84.7 17.51 83.79 17.69 79.68 17.38 75.58 16.84 65.59 15.33 55.6 13.73 69.56 14.55 83.51 15.48 91.72 16.07 99.93 16.69 104.16 16.99 108.4 17.18 110.47 17.11 112.5 16.72 114.18 16 115.79 15.11 118.78 13.55 121.85 12.15 127.99 9.74 134.24 7.61 145.34 4.28 156.53 1.29" fill="none" stroke="#aaa" stroke-miterlimit="10" stroke-width=".5"/>
  <polyline points="116.77 1.23 103.87 2.32 91.03 3.98 84.76 5.22 78.71 7.19 76.68 8.42 75.56 10.43 76.18 12.03 77.37 13.3 78.64 14.34 79.89 15.39 79.87 16.14 78.9 16.27 74.52 16.03 70.15 15.55 59.79 14.21 49.42 12.79 63.48 13.51 77.54 14.32 85.71 14.84 93.88 15.39 98 15.65 102.13 15.8 104.07 15.73 105.97 15.37 107.56 14.69 109.1 13.88 112.11 12.43 115.2 11.15 121.53 8.92 127.96 6.97 139.48 3.91 151.07 1.15 151.06 1.15 151.05 1.15 151.04 1.14 151.03 1.14 151.02 1.14 151.01 1.14 151 1.13 150.99 1.13 150.98 1.13 150.97 1.13 150.95 1.12 150.94 1.12 150.93 1.12 150.92 1.12 150.91 1.11 150.9 1.11" fill="none" stroke="#aaa" stroke-miterlimit="10" stroke-width=".5"/>
  <polyline points="113.52 1.22 100.45 2.23 87.43 3.74 81.06 4.87 74.86 6.65 72.8 7.73 71.51 9.58 72.03 11.03 73.11 12.18 74.26 13.1 75.37 14.07 75.04 14.78 74 14.89 69.35 14.69 64.72 14.28 53.98 13.12 43.24 11.86 57.38 12.48 71.52 13.18 79.66 13.63 87.79 14.1 91.81 14.33 95.83 14.46 97.66 14.39 99.44 14.05 100.92 13.42 102.38 12.7 105.37 11.37 108.45 10.22 114.89 8.2 121.42 6.44 133.22 3.65 145.09 1.15 145.03 1.14 144.98 1.13 144.92 1.12 144.86 1.1 144.81 1.09 144.75 1.08 144.69 1.07 144.63 1.06 144.58 1.05 144.52 1.04 144.46 1.02 144.41 1.01 144.35 1 144.29 .99 144.24 .98 144.18 .97" fill="none" stroke="#aaa" stroke-miterlimit="10" stroke-width=".5"/>
  <polyline points="110.12 1.22 96.88 2.14 83.68 3.52 77.2 4.55 70.86 6.16 68.76 7.12 67.32 8.82 67.75 10.14 68.73 11.17 69.78 12 70.75 12.89 70.17 13.55 69.04 13.65 64.14 13.5 59.26 13.14 48.16 12.13 37.06 11.02 51.3 11.55 65.53 12.16 73.65 12.55 81.76 12.96 85.7 13.15 89.63 13.25 91.34 13.19 93.02 12.87 94.42 12.29 95.8 11.64 98.78 10.43 101.84 9.39 108.4 7.55 115.04 5.95 127.12 3.42 139.25 1.15 139.14 1.13 139.04 1.11 138.93 1.09 138.83 1.08 138.72 1.06 138.62 1.04 138.52 1.02 138.41 1 138.31 .98 138.2 .96 138.1 .94 138 .93 137.89 .91 137.79 .89 137.69 .87 137.59 .85" fill="none" stroke="#aaa" stroke-miterlimit="10" stroke-width=".5"/>
  <polyline points="106.49 1.22 93.06 2.07 79.67 3.35 73.08 4.29 66.6 5.77 64.47 6.64 62.9 8.21 63.24 9.43 64.15 10.36 65.11 11.12 65.98 11.94 65.18 12.56 63.97 12.66 58.85 12.54 53.74 12.22 42.32 11.33 30.89 10.35 45.24 10.8 59.59 11.34 67.72 11.68 75.84 12.04 79.71 12.2 83.58 12.29 85.21 12.22 86.8 11.93 88.13 11.38 89.45 10.79 92.44 9.67 95.5 8.73 102.17 7.03 108.91 5.57 121.26 3.23 133.65 1.15 133.5 1.13 133.34 1.1 133.19 1.08 133.03 1.05 132.88 1.03 132.73 1 132.58 .98 132.42 .95 132.27 .93 132.12 .9 131.97 .88 131.82 .85 131.67 .83 131.52 .8 131.37 .78 131.22 .76" fill="none" stroke="#aaa" stroke-miterlimit="10" stroke-width=".5"/>
  <polyline points="102.51 1.22 88.88 2.03 75.29 3.23 68.58 4.12 61.98 5.51 59.81 6.31 58.14 7.8 58.43 8.95 59.29 9.82 60.18 10.52 60.98 11.31 60.04 11.9 58.76 12 53.45 11.9 48.15 11.61 36.43 10.8 24.71 9.89 39.22 10.31 53.73 10.79 61.9 11.1 70.06 11.43 73.91 11.57 77.76 11.64 79.33 11.58 80.87 11.29 82.16 10.77 83.44 10.22 86.45 9.16 89.52 8.28 96.31 6.68 103.16 5.3 115.75 3.11 128.39 1.15 128.19 1.12 127.98 1.09 127.78 1.06 127.57 1.03 127.37 1 127.17 .97 126.97 .94 126.77 .91 126.56 .88 126.36 .85 126.16 .82 125.97 .79 125.77 .76 125.57 .73 125.37 .7 125.18 .67" fill="none" stroke="#aaa" stroke-miterlimit="10" stroke-width=".5"/>
  <polyline points="98.08 1.22 84.23 2.01 70.42 3.19 63.6 4.06 56.88 5.42 54.68 6.2 52.93 7.66 53.2 8.78 54.05 9.63 54.92 10.31 55.69 11.09 54.67 11.67 53.34 11.76 47.9 11.68 42.47 11.4 30.5 10.61 18.53 9.74 33.25 10.14 47.96 10.6 56.23 10.89 64.48 11.21 68.36 11.35 72.23 11.41 73.79 11.35 75.32 11.07 76.6 10.56 77.87 10.02 80.92 8.98 84.02 8.12 90.92 6.55 97.89 5.21 110.72 3.06 123.59 1.15 123.33 1.11 123.07 1.08 122.81 1.04 122.56 1 122.3 .97 122.05 .93 121.79 .89 121.54 .86 121.29 .82 121.04 .78 120.79 .75 120.54 .71 120.29 .67 120.05 .64 119.8 .6 119.56 .57" fill="none" stroke="#aaa" stroke-miterlimit="10" stroke-width=".5"/>
  <polyline points="93.13 1.22 79.04 2.03 64.99 3.24 58.06 4.13 51.23 5.52 48.99 6.32 47.22 7.81 47.5 8.96 48.37 9.83 49.27 10.53 50.07 11.33 49.04 11.92 47.7 12.02 42.18 11.93 36.67 11.64 24.51 10.83 12.35 9.94 27.33 10.35 42.31 10.82 50.72 11.13 59.13 11.45 63.09 11.59 67.03 11.66 68.63 11.6 70.2 11.31 71.51 10.79 72.81 10.24 75.91 9.17 79.07 8.29 86.09 6.68 93.17 5.31 106.22 3.11 119.3 1.15 118.98 1.11 118.67 1.06 118.35 1.01 118.04 .97 117.72 .92 117.41 .88 117.1 .83 116.8 .79 116.49 .74 116.18 .7 115.88 .65 115.58 .61 115.28 .56 114.98 .52 114.68 .47 114.38 .43" fill="none" stroke="#aaa" stroke-miterlimit="10" stroke-width=".5"/>
  <polyline points="87.66 1.22 73.32 2.08 59.01 3.37 51.96 4.33 45.02 5.82 42.75 6.68 41.01 8.27 41.34 9.5 42.27 10.44 43.24 11.19 44.11 12.04 43.16 12.67 41.84 12.77 36.29 12.66 30.76 12.35 18.47 11.46 6.18 10.49 21.47 10.94 36.76 11.46 45.39 11.79 54.01 12.15 58.09 12.31 62.17 12.39 63.86 12.32 65.51 12.02 66.89 11.47 68.26 10.87 71.43 9.74 74.68 8.79 81.82 7.07 89.02 5.6 102.25 3.25 115.53 1.15 115.15 1.09 114.77 1.04 114.4 .98 114.02 .92 113.65 .86 113.28 .81 112.91 .75 112.55 .69 112.18 .64 111.82 .58 111.46 .52 111.1 .47 110.74 .41 110.39 .36 110.04 .3 109.69 .25" fill="none" stroke="#aaa" stroke-miterlimit="10" stroke-width=".5"/>
  <polyline points="81.76 1.22 67.14 2.17 52.56 3.58 45.39 4.63 38.36 6.28 36.05 7.25 34.37 9 34.78 10.35 35.8 11.39 36.88 12.24 37.87 13.15 37.07 13.84 35.78 13.94 30.26 13.81 24.75 13.45 12.38 12.44 0 11.34 15.66 11.86 31.31 12.46 40.2 12.84 49.07 13.25 53.34 13.43 57.6 13.53 59.41 13.47 61.18 13.14 62.66 12.54 64.13 11.88 67.4 10.63 70.74 9.58 78 7.69 85.33 6.06 98.74 3.47 112.2 1.15 111.75 1.08 111.31 1 110.87 .93 110.43 .86 109.99 .78 109.56 .71 109.13 .64 108.71 .57 108.28 .5 107.86 .42 107.44 .35 107.03 .28 106.61 .21 106.2 .14 105.79 .07 105.39 0" fill="none" stroke="#aaa" stroke-miterlimit="10" stroke-width=".5"/>
</svg>