<?xml version="1.0" encoding="UTF-8"?>
<svg id="Ebene_1" xmlns="http://www.w3.org/2000/svg" width="222" height="222" viewBox="0 0 222 222">
  <polyline points="42.9 196.71 41.66 191.75 38.63 187.74 36.08 187.09 33.48 187.59 32.32 188.02 31.6 187.79 34.33 183.81 37.17 179.9 35.1 186.09 33.14 192.31 32.85 193.99 33.58 195.42 35.54 196.6 37.22 198.16 40.52 203.57 42.82 209.5 44.97 203.78 48.03 198.53 49.69 196.85 51.68 195.6 52.64 194.69 52.66 193.34 51.38 188.83 49.87 184.38" fill="none" stroke="#aaa" stroke-miterlimit="10" stroke-width=".5"/>
  <polyline points="42.92 191.59 41.56 186.85 38.36 183.21 35.6 182.65 32.82 183.21 31.63 183.65 30.82 183.58 33.82 179.94 36.87 176.35 34.6 182.34 32.47 188.37 32.14 190.06 32.91 191.49 34.99 192.68 36.83 194.23 40.34 199.38 42.84 205.11 45.16 199.62 48.4 194.64 50.2 192.96 52.32 191.7 53.35 190.84 53.42 189.48 52.1 185.27 50.52 181.14" fill="none" stroke="#aaa" stroke-miterlimit="10" stroke-width=".5"/>
  <polyline points="42.95 186.34 41.42 181.81 38 178.58 34.97 178.14 31.96 178.75 30.7 179.22 29.79 179.33 33.13 176.06 36.48 172.79 33.94 178.6 31.56 184.46 31.19 186.19 32.02 187.64 34.27 188.85 36.31 190.4 40.1 195.29 42.87 200.85 45.43 195.56 48.89 190.85 50.9 189.17 53.18 187.9 54.3 187.06 54.45 185.69 53.08 181.75 51.41 177.92" fill="none" stroke="#aaa" stroke-miterlimit="10" stroke-width=".5"/>
  <polyline points="43.01 181.11 41.29 176.79 37.68 173.97 34.4 173.63 31.16 174.31 29.82 174.79 28.83 175.08 32.5 172.19 36.12 169.24 33.3 174.85 30.67 180.55 30.25 182.31 31.15 183.77 33.57 185.02 35.81 186.56 39.88 191.19 42.93 196.57 45.72 191.49 49.4 187.05 51.61 185.37 54.06 184.08 55.26 183.27 55.51 181.89 54.12 178.21 52.38 174.67" fill="none" stroke="#aaa" stroke-miterlimit="10" stroke-width=".5"/>
  <polyline points="43.15 175.97 41.27 171.87 37.55 169.42 34.09 169.18 30.68 169.91 29.3 170.42 28.24 170.86 32.12 168.34 35.91 165.69 32.85 171.1 30 176.61 29.53 178.39 30.48 179.86 33.05 181.12 35.47 182.66 39.77 187.02 43.07 192.21 46.06 187.36 49.92 183.18 52.3 181.51 54.9 180.22 56.16 179.43 56.53 178.04 55.15 174.62 53.36 171.36" fill="none" stroke="#aaa" stroke-miterlimit="10" stroke-width=".5"/>
  <polyline points="42.85 170.86 40.8 167.01 37.01 164.91 33.39 164.76 29.84 165.55 28.39 166.08 27.3 166.66 31.35 164.5 35.3 162.13 32 167.33 28.94 172.65 28.44 174.45 29.45 175.92 32.15 177.2 34.74 178.71 39.23 182.82 42.77 187.8 45.95 183.18 49.95 179.27 52.49 177.62 55.22 176.33 56.55 175.56 57.04 174.17 55.67 170.97 53.86 167.98" fill="none" stroke="#aaa" stroke-miterlimit="10" stroke-width=".5"/>
  <polyline points="43.11 165.68 40.85 162.08 36.98 160.33 33.18 160.29 29.46 161.13 27.91 161.71 26.78 162.43 31.05 160.65 35.2 158.58 31.62 163.57 28.32 168.73 27.77 170.56 28.85 172.03 31.73 173.34 34.52 174.83 39.23 178.7 43.03 183.48 46.42 179.09 50.57 175.42 53.31 173.79 56.19 172.49 57.61 171.73 58.24 170.34 56.91 167.33 55.07 164.57" fill="none" stroke="#aaa" stroke-miterlimit="10" stroke-width=".5"/>
  <polyline points="42.93 160.33 40.37 157 36.39 155.61 32.33 155.69 28.37 156.61 26.68 157.24 25.51 158.14 30.07 156.79 34.5 155.03 30.55 159.83 26.92 164.86 26.32 166.75 27.52 168.24 30.64 169.6 33.7 171.09 38.7 174.73 42.85 179.33 46.51 175.14 50.89 171.71 53.88 170.1 56.99 168.78 58.53 168 59.34 166.58 58.04 163.72 56.14 161.16" fill="none" stroke="#aaa" stroke-miterlimit="10" stroke-width=".5"/>
  <polyline points="42.86 154.87 39.9 151.84 35.73 150.81 30.96 151.04 26.29 152.02 23.61 152.83 20.99 153.81 23.61 152.71 26.31 151.47 23.88 156.09 22.32 161.03 23.12 163.27 25.22 164.52 29.03 165.88 32.78 167.44 38.19 170.84 42.79 175.28 46.75 171.32 51.37 168.14 54.86 166.49 58.48 165.19 60.73 164.34 62.67 162.98 63.16 160.54 62.47 158.09" fill="none" stroke="#aaa" stroke-miterlimit="10" stroke-width=".5"/>
  <polyline points="42.85 149.44 39.5 146.75 35.19 146.02 29.89 146.4 24.68 147.45 21.25 148.4 17.87 149.49 19.22 148.84 21.29 147.92 19.6 152.44 19.17 157.19 20.82 159.52 23.44 160.78 27.75 162.17 32 163.76 37.76 166.95 42.78 171.2 47.03 167.47 51.86 164.52 55.71 162.87 59.69 161.56 62.43 160.65 64.97 159.31 66.32 157.24 66.38 154.75" fill="none" stroke="#aaa" stroke-miterlimit="10" stroke-width=".5"/>
  <polyline points="42.8 144.16 39.13 141.85 34.73 141.37 29.06 141.86 23.47 142.98 19.56 144.02 15.69 145.23 16.2 145.06 18.05 144.36 16.75 148.77 16.96 153.3 19.12 155.65 22.09 156.95 26.75 158.37 31.37 159.96 37.37 162.94 42.73 166.97 47.2 163.48 52.17 160.74 56.29 159.12 60.5 157.81 63.57 156.86 66.47 155.53 68.23 153.72 68.84 151.25" fill="none" stroke="#aaa" stroke-miterlimit="10" stroke-width=".5"/>
  <polyline points="42.84 139.13 38.96 137.2 34.55 136.92 28.67 137.51 22.86 138.66 18.64 139.75 14.48 141.05 14.35 141.31 16.12 140.81 15.09 145.06 15.7 149.31 18.18 151.65 21.37 152.96 26.24 154.39 31.08 155.95 37.2 158.73 42.78 162.49 47.38 159.26 52.4 156.73 56.66 155.17 61 153.88 64.27 152.91 67.39 151.6 69.38 149.94 70.35 147.56" fill="none" stroke="#aaa" stroke-miterlimit="10" stroke-width=".5"/>
  <polyline points="42.91 134.33 38.92 132.77 34.57 132.65 28.61 133.31 22.72 134.47 18.33 135.59 14.02 136.96 13.39 137.56 15.13 137.26 14.3 141.29 15.18 145.25 17.86 147.53 21.16 148.84 26.13 150.25 31.06 151.76 37.19 154.32 42.86 157.78 47.5 154.83 52.5 152.52 56.81 151.03 61.2 149.79 64.56 148.81 67.8 147.53 69.9 145.98 71.12 143.7" fill="none" stroke="#aaa" stroke-miterlimit="10" stroke-width=".5"/>
  <polyline points="42.94 129.66 38.91 128.47 34.65 128.49 28.7 129.21 22.81 130.37 18.34 131.5 13.96 132.91 12.91 133.77 14.66 133.7 13.99 137.5 15.05 141.14 17.86 143.34 21.22 144.63 26.19 146.02 31.16 147.46 37.21 149.8 42.89 152.94 47.53 150.27 52.45 148.18 56.77 146.78 61.15 145.58 64.55 144.61 67.84 143.35 70 141.9 71.38 139.71" fill="none" stroke="#aaa" stroke-miterlimit="10" stroke-width=".5"/>
  <polyline points="42.93 125.05 38.9 124.23 34.75 124.38 28.85 125.15 23.02 126.31 18.52 127.44 14.11 128.88 12.73 129.85 14.44 130.15 13.92 133.7 15.14 137.01 18.06 139.12 21.47 140.39 26.43 141.74 31.4 143.12 37.3 145.22 42.89 148.04 47.45 145.64 52.25 143.77 56.56 142.46 60.91 141.31 64.34 140.36 67.67 139.12 69.86 137.73 71.37 135.64" fill="none" stroke="#aaa" stroke-miterlimit="10" stroke-width=".5"/>
  <polyline points="42.89 120.45 38.89 120 34.86 120.28 29.07 121.1 23.33 122.25 18.87 123.37 14.53 124.86 13.1 125.92 14.69 126.59 14.19 129.87 15.43 132.88 18.4 134.91 21.8 136.14 26.72 137.46 31.65 138.76 37.37 140.64 42.85 143.14 47.34 141.01 52.03 139.35 56.31 138.13 60.62 137.03 64.05 136.08 67.38 134.85 69.56 133.51 71.06 131.49" fill="none" stroke="#aaa" stroke-miterlimit="10" stroke-width=".5"/>
  <polyline points="42.85 115.84 38.9 115.77 34.96 116.17 29.28 117.04 23.64 118.18 19.24 119.3 14.97 120.83 13.53 122.04 15.04 123.04 14.53 126.03 15.79 128.75 18.79 130.69 22.18 131.9 27.06 133.18 31.95 134.42 37.48 136.07 42.83 138.24 47.24 136.38 51.81 134.92 56.08 133.79 60.37 132.72 63.8 131.78 67.13 130.55 69.26 129.25 70.74 127.27" fill="none" stroke="#aaa" stroke-miterlimit="10" stroke-width=".5"/>
  <polyline points="42.81 111.27 38.93 111.57 35.08 112.08 29.5 113.01 23.96 114.14 19.63 115.25 15.44 116.81 14.01 118.2 15.47 119.49 14.97 122.2 16.25 124.61 19.3 126.46 22.69 127.64 27.51 128.88 32.35 130.04 37.64 131.48 42.8 133.31 47.14 131.72 51.58 130.45 55.86 129.4 60.13 128.37 63.57 127.42 66.91 126.17 68.97 124.9 70.36 122.95" fill="none" stroke="#aaa" stroke-miterlimit="10" stroke-width=".5"/>
  <polyline points="42.8 106.79 37.84 107.37 32.89 108.08 27.57 109 22.31 110.15 18.7 111.21 15.31 112.83 14.57 114.6 16.14 115.93 15.7 118.36 17.01 120.44 20.09 122.18 23.46 123.32 28.17 124.51 32.92 125.59 37.9 126.8 42.8 128.28 47.06 126.96 51.39 125.88 55.68 124.9 59.96 123.89 63.39 122.92 66.7 121.62 68.63 120.35 69.78 118.39" fill="none" stroke="#aaa" stroke-miterlimit="10" stroke-width=".5"/>
  <polyline points="42.8 102.48 37.68 103.36 32.56 104.21 27.5 105.14 22.49 106.27 19.2 107.29 16.19 108.91 15.69 110.86 17.23 112.38 16.87 114.49 18.19 116.2 21.28 117.81 24.6 118.89 29.14 120.01 33.71 121 38.27 121.97 42.8 123.08 46.86 122.06 50.96 121.18 55.2 120.28 59.42 119.29 62.8 118.33 66.04 117.01 67.8 115.8 68.67 113.92" fill="none" stroke="#aaa" stroke-miterlimit="10" stroke-width=".5"/>
  <polyline points="42.81 98.36 37.79 99.51 32.74 100.5 28.02 101.42 23.34 102.5 20.34 103.46 17.66 105.06 17.33 107.13 18.79 108.82 18.56 110.58 19.87 111.89 22.93 113.33 26.18 114.34 30.47 115.38 34.8 116.25 38.8 116.98 42.8 117.69 46.58 117.01 50.36 116.32 54.54 115.5 58.68 114.53 61.96 113.57 65.09 112.25 66.58 111.13 66.96 109.41" fill="none" stroke="#aaa" stroke-miterlimit="10" stroke-width=".5"/>
  <polyline points="42.8 94.32 38.04 95.73 33.2 96.85 28.86 97.76 24.56 98.79 21.9 99.68 19.6 101.23 19.54 103.45 21 105.27 20.82 106.63 22.07 107.56 25.14 108.82 28.33 109.75 32.34 110.69 36.38 111.44 39.59 111.92 42.8 112.23 45.99 111.92 49.18 111.44 53.22 110.68 57.23 109.75 60.42 108.83 63.47 107.56 64.69 106.6 64.38 105.27 64.43 105.22 64.49 105.17 64.54 105.12 64.6 105.07 64.65 105.02 64.7 104.97 64.75 104.92 64.8 104.87" fill="none" stroke="#aaa" stroke-miterlimit="10" stroke-width=".5"/>
  <polyline points="42.76 90.22 38.37 91.9 33.84 93.16 29.89 94.07 25.96 95.04 23.6 95.87 21.67 97.38 21.94 99.76 23.5 101.72 23.03 102.57 24.09 103.25 26.99 104.35 29.99 105.2 33.7 106.04 37.46 106.68 40.12 106.95 42.77 106.81 45.4 106.95 48.03 106.68 51.79 106.04 55.51 105.2 58.49 104.35 61.38 103.25 62.42 102.53 61.8 101.72 61.97 101.55 62.13 101.39 62.28 101.24 62.42 101.08 62.56 100.93 62.69 100.78 62.82 100.64 62.93 100.49" fill="none" stroke="#aaa" stroke-miterlimit="10" stroke-width=".5"/>
  <polyline points="42.76 85.94 38.69 87.9 34.39 89.32 30.75 90.24 27.12 91.17 25 91.96 23.39 93.47 23.98 96.04 25.67 98.16 24.63 98.35 25.42 99 28.01 99.98 30.69 100.75 34.19 101.54 37.73 102.06 40.31 102.16 42.79 101.58 45.23 102.16 47.78 102.06 51.32 101.54 54.81 100.75 57.48 99.99 60.05 99 60.74 98.31 59.65 98.16 59.88 97.92 60.11 97.68 60.32 97.45 60.51 97.22 60.7 97 60.88 96.78 61.04 96.57 61.19 96.37" fill="none" stroke="#aaa" stroke-miterlimit="10" stroke-width=".5"/>
  <polyline points="42.79 81.42 38.91 83.67 34.72 85.28 31.27 86.24 27.82 87.16 25.87 87.94 24.54 89.48 25.46 92.26 27.34 94.61 26.23 94.43 26.25 94.84 28.61 95.74 31.05 96.46 34.43 97.21 37.87 97.64 40.47 97.57 42.83 96.6 45.14 97.57 47.71 97.64 51.14 97.21 54.52 96.46 56.95 95.75 59.3 94.84 59.2 94.43 58.05 94.61 58.32 94.32 58.58 94.03 58.83 93.75 59.06 93.49 59.27 93.23 59.48 92.97 59.67 92.73 59.84 92.49" fill="none" stroke="#aaa" stroke-miterlimit="10" stroke-width=".5"/>
  <polyline points="42.73 76.71 38.94 79.27 34.75 81.08 31.4 82.1 28.04 83.03 26.2 83.82 25.13 85.41 26.4 88.45 28.51 91.06 27.24 90.69 26.59 90.75 28.78 91.6 31.04 92.28 34.39 93.02 37.8 93.38 40.49 93.14 42.77 91.8 45 93.14 47.66 93.38 51.06 93.02 54.41 92.28 56.66 91.6 58.84 90.75 58.08 90.69 56.76 91.06 57.05 90.74 57.32 90.44 57.58 90.14 57.83 89.85 58.07 89.58 58.29 89.31 58.5 89.04 58.7 88.79" fill="none" stroke="#aaa" stroke-miterlimit="10" stroke-width=".5"/>
  <polyline points="42.68 71.92 38.95 74.78 34.71 76.82 31.42 77.89 28.13 78.86 26.37 79.67 25.56 81.32 27.21 84.63 29.61 87.5 28.07 86.95 26.81 86.69 28.85 87.5 30.95 88.15 34.29 88.89 37.7 89.19 40.5 88.77 42.73 87.09 44.9 88.77 47.67 89.19 51.07 88.89 54.41 88.15 56.5 87.51 58.52 86.69 57.17 86.95 55.57 87.5 55.86 87.19 56.14 86.88 56.41 86.58 56.67 86.29 56.91 86.01 57.15 85.74 57.37 85.47 57.58 85.21" fill="none" stroke="#aaa" stroke-miterlimit="10" stroke-width=".5"/>
  <polyline points="42.79 67.13 39.16 70.29 34.92 72.56 31.71 73.69 28.48 74.68 26.81 75.53 26.27 77.23 28.36 80.8 31.1 83.95 29.18 83.18 27.31 82.62 29.15 83.41 31.06 84.02 34.37 84.76 37.76 84.99 40.68 84.37 42.84 82.37 44.94 84.38 47.83 84.99 51.21 84.76 54.52 84.02 56.42 83.41 58.24 82.62 56.3 83.18 54.31 83.95 54.6 83.64 54.88 83.35 55.15 83.06 55.41 82.77 55.66 82.5 55.9 82.23 56.13 81.96 56.35 81.71" fill="none" stroke="#aaa" stroke-miterlimit="10" stroke-width=".5"/>
  <polyline points="42.46 62.39 38.97 65.83 34.77 68.34 31.69 69.52 28.58 70.53 27.05 71.45 26.92 73.15 29.61 76.97 32.82 80.39 30.3 79.35 27.73 78.54 29.25 79.3 30.88 79.86 34.11 80.59 37.42 80.75 40.44 79.91 42.51 77.61 44.52 79.92 47.5 80.75 50.81 80.59 54.04 79.86 55.66 79.3 57.17 78.54 54.53 79.35 51.94 80.39 52.22 80.11 52.49 79.84 52.75 79.57 53.01 79.31 53.26 79.05 53.51 78.79 53.75 78.55 53.98 78.31" fill="none" stroke="#aaa" stroke-miterlimit="10" stroke-width=".5"/>
  <polyline points="42.67 57.68 39.35 61.38 35.21 64.15 32.33 65.36 29.42 66.41 28.17 67.49 28.63 69.09 32.23 73.12 36.17 76.84 32.71 75.47 29.15 74.44 30.07 75.17 31.39 75.68 34.48 76.41 37.66 76.48 40.75 75.4 42.73 72.81 44.64 75.41 47.7 76.48 50.87 76.41 53.95 75.68 55.28 75.17 56.18 74.44 52.56 75.47 49.04 76.84 49.3 76.6 49.56 76.36 49.82 76.13 50.07 75.9 50.32 75.67 50.56 75.45 50.8 75.23 51.03 75.01" fill="none" stroke="#aaa" stroke-miterlimit="10" stroke-width=".5"/>
  <polyline points="42.66 52.93 39.44 56.91 35.31 59.93 32.48 61.2 29.59 62.26 28.34 63.37 28.78 65.01 32.31 69.29 36.17 73.29 32.63 71.68 28.99 70.36 29.92 71.02 31.24 71.51 34.38 72.23 37.6 72.24 40.8 70.92 42.72 68.04 44.58 70.92 47.74 72.24 50.95 72.23 54.08 71.51 55.4 71.02 56.32 70.36 52.61 71.68 49.01 73.29 49.22 73.07 49.44 72.86 49.64 72.65 49.85 72.45 50.05 72.24 50.25 72.05 50.45 71.85 50.64 71.66" fill="none" stroke="#aaa" stroke-miterlimit="10" stroke-width=".5"/>
  <polyline points="42.46 48.06 39.27 52.32 35.08 55.61 32.24 56.94 29.32 58.03 28.04 59.19 28.49 60.89 32.01 65.45 35.88 69.73 32.27 67.9 28.56 66.32 29.51 66.94 30.84 67.43 34.04 68.15 37.31 68.11 40.63 66.55 42.53 63.41 44.35 66.55 47.62 68.11 50.89 68.15 54.08 67.43 55.41 66.94 56.35 66.32 52.57 67.9 48.9 69.73 49.08 69.54 49.25 69.35 49.43 69.16 49.6 68.98 49.77 68.79 49.94 68.61 50.11 68.44 50.27 68.26" fill="none" stroke="#aaa" stroke-miterlimit="10" stroke-width=".5"/>
  <polyline points="42.72 42.96 39.43 47.54 35.07 51.1 32.13 52.52 29.09 53.67 27.75 54.9 28.21 56.69 31.85 61.58 35.86 66.18 32.1 64.15 28.22 62.36 29.23 62.98 30.61 63.49 33.94 64.24 37.35 64.16 40.85 62.41 42.79 59 44.66 62.41 48.11 64.16 51.52 64.24 54.84 63.49 56.23 62.97 57.21 62.36 53.27 64.15 49.44 66.18 49.6 66 49.76 65.83 49.92 65.65 50.07 65.48 50.22 65.31 50.37 65.14 50.52 64.98 50.67 64.81" fill="none" stroke="#aaa" stroke-miterlimit="10" stroke-width=".5"/>
  <polyline points="42.72 37.63 39.21 42.57 34.55 46.4 31.4 47.93 28.14 49.16 26.71 50.48 27.2 52.41 31.09 57.67 35.39 62.62 31.35 60.43 27.2 58.49 28.27 59.14 29.75 59.69 33.32 60.49 36.98 60.4 40.72 58.5 42.8 54.82 44.79 58.5 48.49 60.4 52.14 60.49 55.7 59.69 57.18 59.14 58.24 58.49 54.02 60.43 49.93 62.62 50.08 62.46 50.22 62.29 50.37 62.13 50.52 61.96 50.66 61.8 50.8 61.64 50.94 61.48 51.08 61.33" fill="none" stroke="#aaa" stroke-miterlimit="10" stroke-width=".5"/>
  <polyline points="42.73 32.18 38.93 37.48 33.88 41.6 30.47 43.24 26.94 44.58 25.39 46 25.92 48.08 30.14 53.74 34.8 59.07 30.43 56.73 25.94 54.66 27.1 55.37 28.7 55.97 32.56 56.83 36.51 56.75 40.56 54.72 42.8 50.77 44.97 54.72 48.97 56.75 52.92 56.83 56.77 55.97 58.37 55.37 59.52 54.66 54.96 56.72 50.53 59.07 50.67 58.91 50.81 58.76 50.95 58.61 51.08 58.45 51.22 58.3 51.35 58.15 51.49 58 51.62 57.85" fill="none" stroke="#aaa" stroke-miterlimit="10" stroke-width=".5"/>
  <polyline points="42.74 26.73 38.64 32.4 33.21 36.8 29.54 38.56 25.74 40 24.07 41.53 24.64 43.76 29.19 49.81 34.21 55.52 29.51 53.02 24.67 50.83 25.92 51.6 27.64 52.24 31.8 53.17 36.05 53.09 40.39 50.93 42.81 46.71 45.15 50.93 49.45 53.09 53.69 53.17 57.84 52.24 59.56 51.6 60.8 50.83 55.89 53.02 51.13 55.52 51.26 55.37 51.39 55.23 51.52 55.09 51.64 54.95 51.77 54.81 51.9 54.67 52.02 54.53 52.14 54.4" fill="none" stroke="#aaa" stroke-miterlimit="10" stroke-width=".5"/>
  <polyline points="42.74 21.41 38.42 27.44 32.67 32.11 28.8 33.98 24.79 35.5 23.02 37.12 23.62 39.48 28.43 45.91 33.72 51.96 28.75 49.3 23.64 46.95 24.96 47.75 26.78 48.43 31.17 49.41 35.66 49.31 40.26 47.01 42.81 42.52 45.28 47.01 49.84 49.31 54.32 49.41 58.71 48.43 60.53 47.75 61.83 46.95 56.65 49.3 51.62 51.96 51.73 51.84 51.84 51.72 51.95 51.6 52.06 51.48 52.16 51.36 52.27 51.24 52.38 51.12 52.48 51" fill="none" stroke="#aaa" stroke-miterlimit="10" stroke-width=".5"/>
  <polyline points="42.73 16.3 38.3 22.65 32.36 27.59 28.36 29.55 24.21 31.13 22.38 32.81 23 35.28 27.95 42.03 33.41 48.41 28.26 45.55 22.96 43 24.33 43.8 26.21 44.49 30.76 45.51 35.41 45.38 40.19 42.88 42.81 38.12 45.34 42.88 50.08 45.38 54.73 45.51 59.27 44.49 61.15 43.8 62.5 43 57.14 45.55 51.93 48.41 52.01 48.32 52.09 48.23 52.17 48.14 52.25 48.05 52.33 47.95 52.41 47.86 52.49 47.77 52.56 47.69" fill="none" stroke="#aaa" stroke-miterlimit="10" stroke-width=".5"/>
  <polyline points="42.73 11.36 38.26 18 32.22 23.21 28.18 25.24 23.96 26.86 22.09 28.6 22.71 31.13 27.71 38.18 33.23 44.86 27.98 41.78 22.59 38.98 23.99 39.75 25.9 40.46 30.53 41.48 35.27 41.3 40.18 38.57 42.8 33.56 45.34 38.57 50.21 41.3 54.94 41.48 59.56 40.46 61.47 39.75 62.86 38.98 57.4 41.78 52.09 44.86 52.13 44.81 52.17 44.75 52.22 44.7 52.26 44.65 52.3 44.6 52.35 44.55 52.39 44.5 52.43 44.45" fill="none" stroke="#aaa" stroke-miterlimit="10" stroke-width=".5"/>
  <polyline points="42.71 6.52 38.28 13.43 32.19 18.91 28.15 21.01 23.9 22.65 22.02 24.44 22.63 27.02 27.63 34.34 33.14 41.3 27.84 38 22.41 34.94 23.83 35.65 25.75 36.35 30.42 37.38 35.19 37.14 40.2 34.16 42.79 28.89 45.3 34.16 50.26 37.14 55.02 37.38 59.69 36.35 61.61 35.65 63.01 34.94 57.51 38 52.15 41.3 52.15 41.3 52.16 41.3 52.16 41.3 52.16 41.29 52.16 41.29 52.16 41.29 52.16 41.29 52.17 41.28" fill="none" stroke="#aaa" stroke-miterlimit="10" stroke-width=".5"/>
</svg>