<?xml version="1.0" encoding="UTF-8"?><svg id="Ebene_1" xmlns="http://www.w3.org/2000/svg" viewBox="0 0 222 222"><polyline points="226.24 .17 222.5 2.76 219.9 6.49 218.4 11.17 217.91 16.08 218.14 21.67 218.95 27.22 220.17 32.75 221.71 38.21 223.21 42.8 224.86 47.33 225.96 50.12 227.1 52.89 227.43 53.68 227.1 53.15 225.33 49.79 223.55 46.43 228.07 47.87 232.65 49.13 236.19 49.92 239.77 50.47 242.49 50.66 245.22 50.54 247.32 50.17 249.32 49.46 250.95 48.53 252.39 47.32 253.66 45.86 254.73 44.24 255.76 42.31 256.66 40.32 257.61 38 258.5 35.66" style="fill:none; stroke:#aaa; stroke-miterlimit:10; stroke-width:.5px;"/><polyline points="219.16 .16 215.66 2.9 213.35 6.7 212.04 11.58 211.67 16.63 212.01 22.46 212.88 28.24 214.17 34.04 215.75 39.77 217.31 44.66 219.02 49.49 220.21 52.59 221.47 55.65 221.83 56.5 221.84 56.52 220.4 53.44 218.91 50.36 223.35 51.65 227.84 52.73 231.34 53.36 234.86 53.73 237.57 53.76 240.26 53.47 242.37 52.92 244.36 52.05 246.01 50.94 247.45 49.58 248.74 47.94 249.84 46.17 250.9 44.07 251.83 41.92 252.8 39.44 253.73 36.95" style="fill:none; stroke:#aaa; stroke-miterlimit:10; stroke-width:.5px;"/><polyline points="212.77 .16 209.51 2.96 207.44 6.75 206.27 11.7 206.01 16.79 206.41 22.69 207.32 28.54 208.63 34.44 210.22 40.27 211.79 45.29 213.52 50.24 214.76 53.5 216.08 56.71 216.48 57.62 216.71 57.95 215.53 55.07 214.27 52.21 218.59 53.39 222.95 54.34 226.36 54.87 229.79 55.12 232.45 55.05 235.07 54.65 237.16 54.01 239.1 53.04 240.74 51.83 242.17 50.38 243.45 48.66 244.55 46.8 245.61 44.63 246.56 42.4 247.53 39.85 248.47 37.28" style="fill:none; stroke:#aaa; stroke-miterlimit:10; stroke-width:.5px;"/><polyline points="207.07 .16 204.02 2.95 202.14 6.65 201.09 11.54 200.89 16.55 201.33 22.38 202.25 28.16 203.54 34 205.1 39.77 206.65 44.76 208.36 49.69 209.6 52.97 210.93 56.21 211.36 57.15 211.72 57.63 210.72 54.93 209.63 52.25 213.79 53.35 218 54.22 221.29 54.67 224.59 54.85 227.17 54.71 229.71 54.25 231.73 53.55 233.61 52.53 235.2 51.28 236.59 49.8 237.85 48.04 238.92 46.16 239.97 43.96 240.89 41.71 241.86 39.14 242.79 36.56" style="fill:none; stroke:#aaa; stroke-miterlimit:10; stroke-width:.5px;"/><polyline points="201.92 .16 199.07 2.87 197.34 6.42 196.39 11.15 196.24 15.98 196.68 21.62 197.57 27.2 198.82 32.85 200.32 38.44 201.82 43.28 203.47 48.06 204.67 51.27 205.98 54.43 206.41 55.38 206.83 55.92 205.96 53.38 204.99 50.87 208.97 51.89 212.99 52.7 216.13 53.1 219.29 53.23 221.76 53.06 224.17 52.57 226.11 51.85 227.91 50.82 229.43 49.56 230.76 48.09 231.97 46.34 233 44.47 234 42.31 234.9 40.09 235.84 37.57 236.74 35.03" style="fill:none; stroke:#aaa; stroke-miterlimit:10; stroke-width:.5px;"/><polyline points="197.19 .16 194.52 2.74 192.92 6.11 192.05 10.6 191.91 15.18 192.34 20.53 193.19 25.83 194.38 31.19 195.8 36.5 197.22 41.1 198.78 45.65 199.93 48.72 201.17 51.73 201.59 52.64 202.02 53.18 201.24 50.8 200.35 48.46 204.12 49.42 207.93 50.17 210.91 50.53 213.9 50.63 216.24 50.44 218.52 49.95 220.35 49.23 222.04 48.22 223.49 46.99 224.73 45.56 225.87 43.85 226.85 42.05 227.8 39.95 228.66 37.8 229.55 35.36 230.42 32.92" style="fill:none; stroke:#aaa; stroke-miterlimit:10; stroke-width:.5px;"/><polyline points="192.72 .16 190.24 2.58 188.76 5.72 187.94 9.92 187.82 14.21 188.22 19.21 189.01 24.16 190.12 29.18 191.45 34.14 192.77 38.45 194.23 42.7 195.31 45.57 196.47 48.39 196.86 49.24 197.26 49.75 196.54 47.54 195.71 45.35 199.26 46.25 202.85 46.95 205.64 47.28 208.45 47.36 210.63 47.18 212.77 46.69 214.49 46 216.06 45.03 217.41 43.85 218.57 42.48 219.63 40.85 220.54 39.13 221.43 37.12 222.24 35.07 223.08 32.75 223.9 30.42" style="fill:none; stroke:#aaa; stroke-miterlimit:10; stroke-width:.5px;"/><polyline points="188.4 .17 186.09 2.4 184.71 5.31 183.94 9.19 183.82 13.16 184.19 17.78 184.92 22.36 185.94 26.99 187.18 31.58 188.4 35.56 189.74 39.48 190.74 42.13 191.8 44.73 192.16 45.51 192.52 45.98 191.84 43.93 191.07 41.9 194.38 42.74 197.74 43.39 200.34 43.7 202.96 43.77 204.99 43.59 206.97 43.13 208.56 42.47 210.01 41.55 211.26 40.43 212.32 39.13 213.31 37.6 214.15 35.97 214.97 34.08 215.72 32.15 216.51 29.97 217.28 27.77" style="fill:none; stroke:#aaa; stroke-miterlimit:10; stroke-width:.5px;"/><polyline points="184.04 .17 181.91 2.22 180.63 4.9 179.92 8.47 179.81 12.11 180.14 16.36 180.82 20.57 181.75 24.83 182.88 29.04 184.01 32.69 185.24 36.3 186.15 38.73 187.13 41.11 187.46 41.83 187.78 42.25 187.15 40.36 186.43 38.49 189.51 39.28 192.62 39.88 195.03 40.16 197.45 40.22 199.33 40.04 201.16 39.61 202.62 38.98 203.96 38.12 205.1 37.06 206.08 35.85 206.98 34.4 207.75 32.88 208.51 31.11 209.2 29.31 209.94 27.26 210.66 25.21" style="fill:none; stroke:#aaa; stroke-miterlimit:10; stroke-width:.5px;"/><polyline points="179.49 .18 177.55 2.07 176.38 4.53 175.74 7.82 175.64 11.17 175.95 15.08 176.57 18.95 177.44 22.87 178.48 26.75 179.51 30.12 180.65 33.44 181.49 35.68 182.39 37.89 182.7 38.55 183.01 38.96 182.44 37.23 181.79 35.52 184.63 36.24 187.51 36.79 189.74 37.04 191.97 37.08 193.7 36.9 195.38 36.48 196.73 35.89 197.95 35.07 199 34.08 199.9 32.93 200.73 31.58 201.44 30.15 202.14 28.49 202.78 26.8 203.47 24.89 204.14 22.97" style="fill:none; stroke:#aaa; stroke-miterlimit:10; stroke-width:.5px;"/><polyline points="174.61 .18 172.86 1.95 171.83 4.23 171.27 7.29 171.2 10.41 171.51 14.05 172.09 17.65 172.9 21.31 173.87 24.92 174.83 28.07 175.89 31.17 176.68 33.28 177.54 35.36 177.84 36 178.17 36.42 177.7 34.86 177.15 33.32 179.77 33.97 182.42 34.45 184.47 34.66 186.53 34.67 188.13 34.48 189.68 34.06 190.92 33.48 192.05 32.7 193.03 31.74 193.86 30.66 194.63 29.37 195.29 28.01 195.94 26.44 196.54 24.85 197.18 23.04 197.81 21.24" style="fill:none; stroke:#aaa; stroke-miterlimit:10; stroke-width:.5px;"/><polyline points="169.31 .18 167.76 1.88 166.89 4.02 166.44 6.93 166.41 9.88 166.73 13.34 167.3 16.77 168.07 20.26 168.99 23.7 169.91 26.71 170.93 29.69 171.69 31.74 172.53 33.75 172.85 34.41 173.25 34.88 172.94 33.49 172.51 32.12 174.92 32.68 177.36 33.09 179.26 33.25 181.16 33.22 182.64 33 184.08 32.56 185.24 31.98 186.29 31.21 187.21 30.27 187.99 29.21 188.72 27.97 189.35 26.66 189.97 25.15 190.54 23.62 191.14 21.89 191.74 20.16" style="fill:none; stroke:#aaa; stroke-miterlimit:10; stroke-width:.5px;"/><polyline points="163.5 .18 162.19 1.87 161.51 3.92 161.17 6.77 161.22 9.64 161.58 13.02 162.16 16.37 162.92 19.79 163.82 23.18 164.72 26.15 165.71 29.09 166.49 31.15 167.35 33.17 167.72 33.9 168.23 34.45 168.14 33.22 167.87 32 170.1 32.49 172.35 32.82 174.12 32.92 175.88 32.83 177.28 32.57 178.62 32.1 179.73 31.48 180.73 30.69 181.61 29.74 182.36 28.69 183.07 27.45 183.67 26.15 184.28 24.66 184.84 23.15 185.42 21.45 186 19.75" style="fill:none; stroke:#aaa; stroke-miterlimit:10; stroke-width:.5px;"/><polyline points="157.2 .17 156.15 1.93 155.67 3.93 155.48 6.8 155.62 9.68 156.04 13.09 156.65 16.47 157.43 19.92 158.34 23.35 159.25 26.38 160.26 29.38 161.07 31.52 161.99 33.61 162.46 34.47 163.12 35.1 163.33 34.04 163.23 32.91 165.31 33.33 167.4 33.59 169.07 33.63 170.72 33.47 172.06 33.16 173.33 32.64 174.41 31.97 175.36 31.14 176.23 30.15 176.97 29.06 177.67 27.78 178.28 26.46 178.89 24.94 179.45 23.41 180.03 21.69 180.6 19.97" style="fill:none; stroke:#aaa; stroke-miterlimit:10; stroke-width:.5px;"/><polyline points="150.44 .16 149.68 2.02 149.41 4.03 149.4 6.99 149.65 9.95 150.15 13.46 150.82 16.95 151.64 20.53 152.57 24.08 153.52 27.24 154.57 30.37 155.45 32.65 156.47 34.86 157.06 35.85 157.92 36.59 158.48 35.71 158.59 34.6 160.53 34.98 162.49 35.18 164.08 35.17 165.64 34.96 166.94 34.58 168.16 34 169.23 33.26 170.17 32.37 171.04 31.31 171.79 30.16 172.5 28.81 173.13 27.42 173.76 25.84 174.33 24.24 174.93 22.47 175.5 20.68" style="fill:none; stroke:#aaa; stroke-miterlimit:10; stroke-width:.5px;"/><polyline points="143.31 .14 142.88 2.14 142.81 4.2 143 7.3 143.37 10.39 143.98 14.06 144.72 17.71 145.59 21.45 146.58 25.17 147.58 28.49 148.7 31.76 149.67 34.17 150.81 36.49 151.57 37.6 152.65 38.35 153.56 37.57 153.95 36.35 155.77 36.77 157.62 37 159.13 36.99 160.63 36.78 161.9 36.38 163.09 35.78 164.16 35 165.1 34.08 165.99 32.96 166.76 31.75 167.5 30.34 168.16 28.89 168.81 27.24 169.41 25.56 170.03 23.71 170.62 21.86" style="fill:none; stroke:#aaa; stroke-miterlimit:10; stroke-width:.5px;"/><polyline points="135.94 .12 135.87 2.26 136.01 4.42 136.4 7.7 136.91 10.97 137.63 14.86 138.45 18.72 139.4 22.69 140.45 26.62 141.51 30.14 142.72 33.61 143.79 36.18 145.08 38.63 146.02 39.88 147.34 40.65 148.6 39.93 149.31 38.59 151.01 39.04 152.74 39.29 154.19 39.3 155.63 39.08 156.88 38.66 158.04 38.04 159.11 37.23 160.05 36.27 160.96 35.11 161.76 33.86 162.54 32.39 163.23 30.88 163.92 29.16 164.55 27.42 165.19 25.51 165.8 23.58" style="fill:none; stroke:#aaa; stroke-miterlimit:10; stroke-width:.5px;"/><polyline points="128.49 .09 128.76 3.2 129.13 6.31 129.71 10.18 130.38 14.04 131.2 18.23 132.12 22.39 133.13 26.42 134.27 30.42 135.39 33.85 136.7 37.21 137.86 39.63 139.32 41.86 140.49 42.98 142.01 43.44 143.6 42.54 144.67 41.02 146.22 41.49 147.83 41.75 149.19 41.77 150.54 41.56 151.75 41.15 152.87 40.54 153.93 39.73 154.88 38.78 155.8 37.61 156.62 36.36 157.42 34.9 158.14 33.38 158.87 31.66 159.52 29.92 160.18 28 160.81 26.07" style="fill:none; stroke:#aaa; stroke-miterlimit:10; stroke-width:.5px;"/><polyline points="121.1 .08 121.68 3.92 122.3 7.75 123.06 12.11 123.89 16.46 124.82 20.91 125.84 25.35 126.91 29.49 128.12 33.6 129.3 37.02 130.71 40.36 131.96 42.7 133.57 44.8 134.98 45.83 136.69 46.08 138.6 45.04 140.03 43.36 141.46 43.84 142.94 44.11 144.22 44.13 145.49 43.93 146.66 43.51 147.75 42.9 148.8 42.07 149.73 41.11 150.67 39.93 151.49 38.66 152.32 37.17 153.07 35.64 153.82 33.9 154.5 32.13 155.19 30.19 155.83 28.23" style="fill:none; stroke:#aaa; stroke-miterlimit:10; stroke-width:.5px;"/><polyline points="113.89 .07 114.78 4.38 115.64 8.69 116.58 13.39 117.55 18.08 118.58 22.76 119.68 27.42 120.81 31.69 122.08 35.92 123.32 39.4 124.8 42.77 126.15 45.11 127.89 47.16 129.52 48.15 131.4 48.29 133.63 47.15 135.39 45.35 136.69 45.84 138.05 46.12 139.26 46.14 140.45 45.93 141.58 45.5 142.61 44.89 143.64 44.04 144.56 43.07 145.49 41.86 146.33 40.58 147.17 39.06 147.93 37.5 148.7 35.74 149.41 33.94 150.12 31.98 150.78 29.99" style="fill:none; stroke:#aaa; stroke-miterlimit:10; stroke-width:.5px;"/><polyline points="106.94 .06 108.12 4.7 109.21 9.37 110.32 14.31 111.42 19.25 112.53 24.1 113.71 28.94 114.88 33.31 116.2 37.63 117.48 41.15 119.02 44.56 120.45 46.91 122.3 48.92 124.12 49.89 126.17 49.94 128.68 48.73 130.75 46.84 131.92 47.34 133.16 47.62 134.28 47.64 135.38 47.43 136.45 46.99 137.43 46.36 138.43 45.5 139.32 44.52 140.24 43.29 141.06 42 141.91 40.46 142.68 38.89 143.46 37.1 144.18 35.29 144.9 33.31 145.57 31.31" style="fill:none; stroke:#aaa; stroke-miterlimit:10; stroke-width:.5px;"/><polyline points="100.25 .06 101.71 4.93 103.02 9.85 104.29 14.96 105.51 20.08 106.7 25.04 107.93 29.99 109.13 34.42 110.48 38.8 111.78 42.34 113.37 45.75 114.86 48.11 116.81 50.08 118.79 51.03 120.98 51.02 123.75 49.76 126.11 47.81 127.14 48.3 128.25 48.58 129.27 48.6 130.27 48.38 131.28 47.93 132.19 47.3 133.14 46.42 133.99 45.44 134.88 44.2 135.69 42.9 136.52 41.36 137.29 39.78 138.07 37.99 138.79 36.17 139.52 34.19 140.2 32.18" style="fill:none; stroke:#aaa; stroke-miterlimit:10; stroke-width:.5px;"/><polyline points="93.78 .06 95.5 5.09 97.02 10.18 98.44 15.4 99.77 20.64 101.02 25.66 102.3 30.67 103.52 35.12 104.9 39.52 106.21 43.06 107.83 46.46 109.37 48.8 111.39 50.73 113.52 51.64 115.84 51.58 118.85 50.27 121.47 48.27 122.35 48.76 123.33 49.04 124.24 49.05 125.14 48.83 126.06 48.37 126.89 47.75 127.79 46.86 128.59 45.88 129.45 44.64 130.22 43.34 131.04 41.8 131.78 40.22 132.55 38.43 133.27 36.63 134 34.65 134.68 32.66" style="fill:none; stroke:#aaa; stroke-miterlimit:10; stroke-width:.5px;"/><polyline points="87.43 .06 89.41 5.19 91.14 10.42 92.7 15.69 94.14 21 95.45 26.04 96.77 31.07 98 35.5 99.39 39.89 100.71 43.38 102.35 46.71 103.93 48.99 106.01 50.81 108.3 51.61 110.72 51.43 113.96 49.97 116.83 47.83 117.56 48.37 118.39 48.7 119.19 48.75 119.98 48.57 120.82 48.14 121.56 47.55 122.39 46.69 123.13 45.74 123.95 44.52 124.68 43.25 125.47 41.73 126.19 40.19 126.94 38.43 127.65 36.65 128.36 34.7 129.04 32.74" style="fill:none; stroke:#aaa; stroke-miterlimit:10; stroke-width:.5px;"/><polyline points="81.14 .05 83.37 5.25 85.31 10.57 87 15.88 88.54 21.23 89.91 26.28 91.27 31.32 92.52 35.73 93.91 40.08 95.23 43.52 96.9 46.79 98.52 49 100.65 50.7 103.09 51.39 105.61 51.08 109.09 49.46 112.19 47.19 112.76 47.75 113.46 48.14 114.13 48.22 114.79 48.06 115.53 47.64 116.18 47.08 116.93 46.22 117.6 45.3 118.35 44.08 119.04 42.83 119.78 41.32 120.46 39.78 121.19 38.04 121.86 36.27 122.56 34.35 123.22 32.41" style="fill:none; stroke:#aaa; stroke-miterlimit:10; stroke-width:.5px;"/><polyline points="74.86 .05 77.35 5.25 79.49 10.59 81.32 15.9 82.97 21.27 84.39 26.3 85.78 31.34 87.04 35.73 88.45 40.06 89.77 43.46 91.45 46.68 93.12 48.85 95.3 50.45 97.88 51.04 100.5 50.62 104.21 48.85 107.55 46.44 107.99 47.08 108.57 47.57 109.14 47.73 109.73 47.64 110.4 47.29 110.98 46.79 111.69 45.98 112.31 45.11 113.03 43.94 113.69 42.73 114.41 41.25 115.08 39.75 115.8 38.04 116.47 36.3 117.16 34.39 117.82 32.48" style="fill:none; stroke:#aaa; stroke-miterlimit:10; stroke-width:.5px;"/><polyline points="68.62 .05 71.36 5.23 73.71 10.6 75.67 15.89 77.42 21.27 78.9 26.29 80.32 31.32 81.59 35.67 83 39.98 84.33 43.33 86.02 46.5 87.73 48.61 89.97 50.12 92.68 50.6 95.4 50.08 99.34 48.16 102.91 45.61 103.22 46.33 103.7 46.94 104.15 47.19 104.67 47.18 105.28 46.89 105.8 46.45 106.46 45.7 107.04 44.87 107.73 43.73 108.37 42.55 109.07 41.1 109.74 39.62 110.45 37.91 111.12 36.18 111.81 34.27 112.47 32.36" style="fill:none; stroke:#aaa; stroke-miterlimit:10; stroke-width:.5px;"/><polyline points="62.42 .05 65.4 5.21 67.95 10.59 70.05 15.87 71.9 21.24 73.43 26.23 74.89 31.25 76.17 35.56 77.58 39.83 78.91 43.13 80.61 46.24 82.36 48.29 84.64 49.69 87.49 50.06 90.31 49.43 94.46 47.36 98.27 44.69 98.47 45.5 98.82 46.25 99.16 46.57 99.62 46.66 100.16 46.44 100.62 46.06 101.24 45.34 101.78 44.56 102.45 43.44 103.06 42.29 103.76 40.84 104.41 39.37 105.12 37.65 105.79 35.92 106.49 34.01 107.15 32.08" style="fill:none; stroke:#aaa; stroke-miterlimit:10; stroke-width:.5px;"/><polyline points="56.25 .05 59.47 5.18 62.23 10.57 64.47 15.82 66.4 21.19 67.99 26.14 69.48 31.13 70.77 35.4 72.18 39.62 73.5 42.86 75.22 45.9 77.01 47.89 79.33 49.18 82.31 49.43 85.23 48.69 89.6 46.47 93.63 43.66 93.72 44.58 93.93 45.47 94.16 45.86 94.55 46.07 95.03 45.92 95.43 45.59 96.01 44.92 96.52 44.17 97.16 43.07 97.76 41.94 98.45 40.49 99.09 39.02 99.8 37.3 100.47 35.56 101.18 33.62 101.84 31.67" style="fill:none; stroke:#aaa; stroke-miterlimit:10; stroke-width:.5px;"/><polyline points="50.11 .05 53.57 5.14 56.54 10.53 58.9 15.75 60.94 21.1 62.57 26.01 64.09 30.97 65.38 35.18 66.79 39.36 68.12 42.53 69.84 45.49 71.67 47.41 74.03 48.58 77.14 48.7 80.15 47.86 84.73 45.48 88.99 42.54 88.96 43.58 89.04 44.61 89.17 45.06 89.48 45.4 89.89 45.33 90.23 45.06 90.77 44.42 91.25 43.72 91.87 42.63 92.45 41.52 93.13 40.07 93.77 38.6 94.48 36.86 95.16 35.1 95.86 33.14 96.54 31.17" style="fill:none; stroke:#aaa; stroke-miterlimit:10; stroke-width:.5px;"/><polyline points="44.01 .06 47.71 5.1 50.89 10.48 53.38 15.65 55.51 20.98 57.19 25.84 58.74 30.75 60.03 34.9 61.44 39.01 62.76 42.11 64.49 44.98 66.35 46.82 68.74 47.87 71.97 47.86 75.07 46.9 79.87 44.36 84.35 41.28 84.2 42.46 84.14 43.64 84.18 44.16 84.38 44.64 84.72 44.65 85.01 44.43 85.52 43.83 85.95 43.17 86.56 42.11 87.11 41.01 87.79 39.56 88.43 38.09 89.14 36.33 89.82 34.56 90.53 32.58 91.21 30.58" style="fill:none; stroke:#aaa; stroke-miterlimit:10; stroke-width:.5px;"/><polyline points="38.04 .06 41.97 5.03 45.35 10.38 47.95 15.48 50.18 20.75 51.9 25.54 53.47 30.38 54.76 34.45 56.16 38.47 57.46 41.48 59.19 44.24 61.09 45.99 63.5 46.9 66.84 46.74 70.02 45.66 75.02 42.96 79.71 39.74 79.42 41.06 79.21 42.4 79.17 43.01 79.26 43.62 79.5 43.73 79.75 43.57 80.21 43.02 80.61 42.41 81.19 41.37 81.73 40.3 82.4 38.85 83.03 37.39 83.75 35.63 84.42 33.85 85.14 31.85 85.81 29.84" style="fill:none; stroke:#aaa; stroke-miterlimit:10; stroke-width:.5px;"/><polyline points="32.28 .06 36.42 4.92 40 10.2 42.71 15.18 45.02 20.35 46.78 25.02 48.35 29.74 49.63 33.68 51.01 37.58 52.29 40.46 54 43.08 55.93 44.7 58.33 45.45 61.77 45.12 65.02 43.92 70.19 41.04 75.07 37.69 74.63 39.18 74.26 40.67 74.12 41.4 74.08 42.14 74.19 42.37 74.42 42.28 74.83 41.79 75.18 41.24 75.74 40.24 76.25 39.21 76.91 37.79 77.53 36.35 78.24 34.59 78.92 32.82 79.63 30.83 80.29 28.81" style="fill:none; stroke:#aaa; stroke-miterlimit:10; stroke-width:.5px;"/><polyline points="26.79 .07 31.13 4.75 34.9 9.9 37.7 14.7 40.08 19.72 41.86 24.21 43.43 28.76 44.68 32.51 46.03 36.23 47.26 38.93 48.94 41.36 50.89 42.82 53.26 43.38 56.76 42.84 60.06 41.51 65.38 38.45 70.43 34.96 69.82 36.63 69.27 38.3 69.02 39.17 68.83 40.05 68.83 40.32 69 40.41 69.36 40 69.65 39.54 70.17 38.6 70.65 37.63 71.29 36.25 71.9 34.85 72.59 33.14 73.25 31.4 73.95 29.43 74.61 27.44" style="fill:none; stroke:#aaa; stroke-miterlimit:10; stroke-width:.5px;"/><polyline points="21.57 .08 26.08 4.53 30.03 9.49 32.92 14.05 35.36 18.85 37.14 23.09 38.7 27.41 39.91 30.93 41.21 34.4 42.39 36.88 44.01 39.07 45.97 40.32 48.28 40.64 51.83 39.86 55.16 38.37 60.59 35.12 65.79 31.49 64.99 33.35 64.24 35.22 63.85 36.26 63.52 37.3 63.44 37.63 63.48 37.92 63.77 37.62 64 37.27 64.48 36.41 64.93 35.53 65.54 34.23 66.12 32.9 66.8 31.24 67.44 29.56 68.12 27.65 68.75 25.71" style="fill:none; stroke:#aaa; stroke-miterlimit:10; stroke-width:.5px;"/><polyline points="16.55 .09 21.22 4.21 25.36 8.88 28.31 13.12 30.81 17.64 32.58 21.58 34.12 25.62 35.27 28.85 36.51 32.05 37.62 34.27 39.19 36.18 41.15 37.19 43.38 37.26 46.95 36.21 50.29 34.53 55.82 31.05 61.15 27.24 60.14 29.34 59.17 31.45 58.63 32.68 58.13 33.92 57.98 34.4 57.89 34.88 58.1 34.74 58.27 34.5 58.71 33.76 59.11 32.99 59.69 31.78 60.25 30.55 60.9 28.98 61.52 27.39 62.17 25.55 62.76 23.69" style="fill:none; stroke:#aaa; stroke-miterlimit:10; stroke-width:.5px;"/><polyline points="11.61 .1 16.44 3.85 20.76 8.18 23.77 12.07 26.33 16.26 28.08 19.87 29.6 23.58 30.7 26.5 31.86 29.38 32.91 31.31 34.4 32.89 36.39 33.57 38.5 33.35 42.09 31.93 45.44 30 51.06 26.17 56.51 22.08 55.27 24.48 54.07 26.9 53.37 28.4 52.71 29.91 52.45 30.59 52.25 31.3 52.32 31.45 52.48 31.3 52.88 30.72 53.23 30.1 53.79 29.03 54.31 27.94 54.95 26.48 55.53 25.01 56.15 23.28 56.71 21.52" style="fill:none; stroke:#aaa; stroke-miterlimit:10; stroke-width:.5px;"/><polyline points="6.62 .11 11.6 3.49 16.1 7.48 19.17 10.99 21.79 14.84 23.53 18.04 25.03 21.36 26.06 23.83 27.18 26.24 28.16 27.68 29.59 28.64 31.66 28.56 33.6 27.74 37.2 25.39 40.58 22.72 46.28 17.81 51.87 12.77 50.4 15.87 49 19 48.12 21.11 47.31 23.24 46.91 24.47 46.61 25.72 46.55 26.21 46.67 26.66 47.02 26.56 47.31 26.29 47.84 25.58 48.3 24.82 48.91 23.67 49.45 22.49 50.04 21.02 50.55 19.51" style="fill:none; stroke:#aaa; stroke-miterlimit:10; stroke-width:.5px;"/><polyline points="1.41 .12 6.55 3.24 11.25 6.98 14.39 10.23 17.08 13.84 18.83 16.82 20.31 19.93 21.31 22.24 22.37 24.5 23.3 25.86 24.67 26.76 26.7 26.71 28.63 25.96 32.25 23.79 35.68 21.32 41.5 16.77 47.23 12.09 45.5 15.21 43.85 18.37 42.81 20.45 41.85 22.56 41.37 23.72 40.97 24.91 40.89 25.3 40.98 25.66 41.33 25.41 41.61 25.06 42.14 24.24 42.62 23.37 43.22 22.11 43.76 20.81 44.31 19.25 44.77 17.66" style="fill:none; stroke:#aaa; stroke-miterlimit:10; stroke-width:.5px;"/><polyline points="-4.15 .13 1.17 3.06 6.09 6.63 9.31 9.69 12.09 13.15 13.85 15.97 15.34 18.95 16.32 21.14 17.34 23.3 18.25 24.62 19.58 25.47 21.6 25.44 23.53 24.74 27.2 22.7 30.71 20.37 36.69 16.06 42.59 11.63 40.62 14.77 38.72 17.93 37.55 19.98 36.44 22.05 35.9 23.14 35.42 24.26 35.33 24.58 35.39 24.83 35.75 24.46 36.04 24.03 36.59 23.1 37.08 22.13 37.68 20.77 38.21 19.39 38.73 17.75 39.13 16.08" style="fill:none; stroke:#aaa; stroke-miterlimit:10; stroke-width:.5px;"/><polyline points="-10.15 .13 -4.62 2.98 .52 6.48 3.84 9.46 6.73 12.85 8.54 15.61 10.06 18.53 11.03 20.68 12.05 22.79 12.95 24.09 14.27 24.94 16.32 24.92 18.28 24.24 22.05 22.26 25.65 19.99 31.84 15.79 37.95 11.47 35.77 14.64 33.65 17.84 32.36 19.88 31.12 21.93 30.54 22.98 30.01 24.04 29.91 24.31 29.98 24.46 30.35 23.98 30.68 23.47 31.24 22.43 31.76 21.36 32.37 19.92 32.89 18.44 33.37 16.72 33.72 14.98" style="fill:none; stroke:#aaa; stroke-miterlimit:10; stroke-width:.5px;"/><polyline points="-16.66 .13 -10.89 3.01 -5.51 6.55 -2.05 9.55 .97 12.99 2.84 15.78 4.4 18.74 5.4 20.91 6.44 23.06 7.36 24.38 8.71 25.24 10.82 25.22 12.85 24.54 16.75 22.54 20.5 20.25 26.94 16.01 33.31 11.65 30.95 14.93 28.65 18.24 27.27 20.32 25.93 22.42 25.32 23.45 24.77 24.5 24.66 24.76 24.76 24.8 25.17 24.23 25.53 23.63 26.13 22.49 26.68 21.32 27.3 19.76 27.83 18.17 28.29 16.36 28.59 14.51" style="fill:none; stroke:#aaa; stroke-miterlimit:10; stroke-width:.5px;"/><polyline points="-23.67 .12 -17.62 3.13 -11.99 6.83 -8.36 9.97 -5.2 13.57 -3.25 16.48 -1.61 19.58 -.56 21.85 .52 24.1 1.49 25.48 2.9 26.37 5.11 26.36 7.24 25.65 11.33 23.55 15.26 21.16 22 16.72 28.67 12.16 26.17 15.63 23.74 19.13 22.29 21.31 20.89 23.52 20.27 24.57 19.7 25.65 19.6 25.91 19.75 25.89 20.2 25.24 20.6 24.57 21.25 23.32 21.84 22.03 22.49 20.35 23.04 18.64 23.5 16.69 23.78 14.72" style="fill:none; stroke:#aaa; stroke-miterlimit:10; stroke-width:.5px;"/><polyline points="-31.12 .11 -24.78 3.34 -18.87 7.31 -15.06 10.68 -11.74 14.54 -9.68 17.67 -7.94 20.98 -6.82 23.42 -5.66 25.83 -4.63 27.3 -3.12 28.26 -.78 28.24 1.47 27.47 5.79 25.22 9.93 22.65 17.02 17.88 24.03 12.98 21.43 16.71 18.91 20.47 17.42 22.8 15.99 25.16 15.37 26.28 14.81 27.43 14.72 27.72 14.92 27.65 15.42 26.94 15.86 26.19 16.57 24.83 17.21 23.43 17.91 21.62 18.49 19.75 18.97 17.66 19.27 15.53" style="fill:none; stroke:#aaa; stroke-miterlimit:10; stroke-width:.5px;"/><polyline points="-38.92 .09 -32.25 3.63 -26.07 7.94 -22.05 11.63 -18.56 15.82 -16.37 19.23 -14.52 22.83 -13.32 25.49 -12.06 28.11 -10.94 29.71 -9.32 30.75 -6.81 30.71 -4.41 29.87 .16 27.41 4.53 24.6 12.01 19.39 19.39 14.03 16.73 18.08 14.15 22.16 12.64 24.69 11.2 27.25 10.58 28.46 10.04 29.7 9.98 30.03 10.23 29.94 10.8 29.17 11.29 28.36 12.06 26.88 12.75 25.37 13.51 23.39 14.14 21.38 14.68 19.1 15 16.79" style="fill:none; stroke:#aaa; stroke-miterlimit:10; stroke-width:.5px;"/><polyline points="-46.94 .08 -39.93 3.96 -33.47 8.68 -29.23 12.73 -25.56 17.3 -23.23 21.04 -21.25 24.97 -19.96 27.88 -18.59 30.74 -17.38 32.48 -15.62 33.61 -12.93 33.57 -10.38 32.64 -5.53 29.93 -.91 26.84 6.97 21.12 14.75 15.25 12.04 19.64 9.43 24.08 7.9 26.83 6.46 29.62 5.85 30.94 5.36 32.3 5.33 32.68 5.63 32.57 6.26 31.75 6.81 30.86 7.65 29.27 8.4 27.62 9.23 25.48 9.92 23.3 10.51 20.83 10.89 18.32" style="fill:none; stroke:#aaa; stroke-miterlimit:10; stroke-width:.5px;"/><polyline points="-55.01 .06 -47.67 4.31 -40.92 9.44 -36.45 13.88 -32.6 18.84 -30.13 22.93 -28.03 27.21 -26.64 30.37 -25.16 33.48 -23.85 35.37 -21.95 36.6 -19.08 36.54 -16.37 35.52 -11.24 32.55 -6.36 29.17 1.94 22.92 10.11 16.51 7.35 21.26 4.71 26.05 3.17 29.02 1.73 32.03 1.14 33.45 .69 34.93 .7 35.35 1.06 35.22 1.76 34.35 2.36 33.39 3.28 31.67 4.09 29.9 4.99 27.59 5.74 25.23 6.39 22.57 6.82 19.86" style="fill:none; stroke:#aaa; stroke-miterlimit:10; stroke-width:.5px;"/><polyline points="-62.99 .04 -55.31 4.65 -48.28 10.17 -43.6 14.96 -39.57 20.31 -36.96 24.73 -34.74 29.33 -33.26 32.74 -31.67 36.09 -30.27 38.12 -28.24 39.45 -25.19 39.37 -22.32 38.26 -16.92 35.05 -11.79 31.4 -3.09 24.64 5.46 17.71 2.66 22.77 -.03 27.89 -1.59 31.06 -3.02 34.27 -3.6 35.79 -4.02 37.36 -3.95 37.81 -3.55 37.66 -2.77 36.71 -2.12 35.68 -1.13 33.84 -.26 31.93 .71 29.46 1.52 26.93 2.22 24.08 2.69 21.18" style="fill:none; stroke:#aaa; stroke-miterlimit:10; stroke-width:.5px;"/><polyline points="-70.71 .03 -62.72 4.93 -55.41 10.79 -50.52 15.9 -46.32 21.57 -43.6 26.26 -41.26 31.15 -39.7 34.78 -38.02 38.33 -36.55 40.48 -34.39 41.89 -31.2 41.81 -28.18 40.62 -22.53 37.2 -17.17 33.31 -8.1 26.13 .83 18.75 -2.06 24.11 -4.82 29.53 -6.41 32.88 -7.85 36.27 -8.42 37.85 -8.81 39.49 -8.69 39.96 -8.24 39.76 -7.4 38.74 -6.69 37.61 -5.64 35.64 -4.71 33.6 -3.68 30.95 -2.83 28.25 -2.09 25.21 -1.6 22.13" style="fill:none; stroke:#aaa; stroke-miterlimit:10; stroke-width:.5px;"/></svg>