<?xml version="1.0" encoding="UTF-8"?><svg id="Ebene_1" xmlns="http://www.w3.org/2000/svg" viewBox="0 0 222 222"><polyline points="106.46 0 119.75 3.92 132.85 8.46 140.26 11.54 147.4 15.19 151 17.5 154.32 20.17 156.05 21.81 157.83 23.38 159.88 24.39 162.14 24.8 166.81 24.79 171.46 24.41 180.74 23.35 190.01 22.19 206 20.14 222 18.11 213.12 20.33 204.23 22.51 198.83 23.79 193.41 24.97 190.75 25.47 188.07 25.76 187.22 25.68 186.71 25.12 187.17 24.17 187.83 23.31 188.93 21.98 189.96 20.6 190.93 19 191.6 17.25 191.77 15.34 191.27 13.49" style="fill:none; stroke:#aaa; stroke-miterlimit:10; stroke-width:.5px;"/><polyline points="100.98 0 114.03 4.16 126.86 8.95 134.17 12.22 141.19 16.07 144.78 18.52 148.1 21.32 149.87 23.05 151.72 24.69 153.84 25.74 156.18 26.16 160.89 26.12 165.6 25.7 174.85 24.56 184.1 23.3 199.96 21.1 215.82 18.93 207.19 21.24 198.54 23.52 193.32 24.85 188.08 26.09 185.55 26.6 182.98 26.91 182.19 26.84 181.79 26.26 182.33 25.27 183.03 24.39 184.18 23.01 185.26 21.57 186.28 19.9 187.01 18.08 187.24 16.11 186.81 14.18" style="fill:none; stroke:#aaa; stroke-miterlimit:10; stroke-width:.5px;"/><polyline points="95.54 0 108.35 4.39 120.9 9.43 128.11 12.89 135.01 16.92 138.6 19.51 141.91 22.44 143.73 24.27 145.64 25.97 147.82 27.06 150.24 27.48 154.99 27.42 159.74 26.96 168.98 25.74 178.2 24.38 193.92 22.04 209.65 19.72 201.25 22.12 192.84 24.49 187.8 25.87 182.73 27.16 180.32 27.7 177.87 28.03 177.13 27.95 176.84 27.36 177.45 26.35 178.2 25.43 179.39 24 180.52 22.51 181.59 20.78 182.37 18.89 182.67 16.86 182.31 14.84" style="fill:none; stroke:#aaa; stroke-miterlimit:10; stroke-width:.5px;"/><polyline points="90.25 0 102.82 4.59 115.11 9.84 122.22 13.46 129 17.65 132.57 20.36 135.87 23.39 137.72 25.29 139.68 27.05 141.91 28.17 144.39 28.6 149.18 28.52 153.95 28.03 163.15 26.72 172.33 25.29 187.89 22.82 203.47 20.38 195.29 22.85 187.11 25.29 182.23 26.71 177.32 28.06 175.02 28.6 172.69 28.95 171.99 28.86 171.8 28.27 172.47 27.24 173.26 26.28 174.5 24.82 175.66 23.29 176.77 21.49 177.59 19.56 177.94 17.47 177.65 15.38" style="fill:none; stroke:#aaa; stroke-miterlimit:10; stroke-width:.5px;"/><polyline points="85.21 0 97.54 4.73 109.59 10.12 116.59 13.85 123.25 18.14 126.79 20.94 130.07 24.04 131.94 25.99 133.93 27.79 136.2 28.92 138.71 29.36 143.5 29.26 148.27 28.74 157.4 27.39 166.51 25.9 181.9 23.33 197.29 20.81 189.31 23.32 181.32 25.82 176.58 27.27 171.81 28.64 169.61 29.2 167.38 29.56 166.71 29.45 166.63 28.85 167.35 27.8 168.17 26.82 169.44 25.33 170.63 23.76 171.76 21.93 172.6 19.95 172.98 17.82 172.71 15.68" style="fill:none; stroke:#aaa; stroke-miterlimit:10; stroke-width:.5px;"/><polyline points="80.49 0 92.59 4.78 104.41 10.23 111.29 14 117.84 18.33 121.34 21.16 124.58 24.28 126.45 26.25 128.45 28.06 130.71 29.2 133.23 29.64 137.99 29.53 142.73 28.99 151.75 27.61 160.76 26.1 175.93 23.5 191.11 20.93 183.29 23.47 175.46 25.99 170.83 27.44 166.18 28.82 164.06 29.37 161.91 29.73 161.28 29.61 161.27 29.01 162.03 27.95 162.88 26.95 164.16 25.43 165.36 23.84 166.49 21.99 167.33 19.99 167.7 17.84 167.42 15.68" style="fill:none; stroke:#aaa; stroke-miterlimit:10; stroke-width:.5px;"/><polyline points="76.13 0 88.01 4.74 99.61 10.13 106.38 13.87 112.81 18.16 116.26 20.96 119.45 24.05 121.29 26 123.26 27.79 125.5 28.92 127.98 29.36 132.68 29.25 137.35 28.71 146.23 27.34 155.09 25.84 170.01 23.26 184.94 20.71 177.22 23.24 169.5 25.74 164.96 27.18 160.41 28.54 158.36 29.08 156.27 29.42 155.66 29.27 155.71 28.67 156.49 27.6 157.36 26.59 158.64 25.07 159.83 23.47 160.94 21.62 161.75 19.61 162.07 17.46 161.73 15.31" style="fill:none; stroke:#aaa; stroke-miterlimit:10; stroke-width:.5px;"/><polyline points="72.13 0 83.81 4.6 95.21 9.84 101.85 13.46 108.17 17.63 111.54 20.35 114.67 23.36 116.46 25.25 118.38 26.99 120.56 28.09 122.97 28.51 127.56 28.41 132.12 27.9 140.82 26.57 149.49 25.12 164.12 22.62 178.76 20.15 171.11 22.62 163.46 25.07 158.99 26.47 154.49 27.8 152.49 28.31 150.45 28.63 149.86 28.44 149.95 27.85 150.74 26.77 151.61 25.76 152.86 24.24 154.03 22.66 155.09 20.82 155.83 18.84 156.07 16.7 155.63 14.59" style="fill:none; stroke:#aaa; stroke-miterlimit:10; stroke-width:.5px;"/><polyline points="68.45 0 79.94 4.37 91.16 9.36 97.67 12.81 103.87 16.78 107.16 19.36 110.2 22.23 111.93 24.04 113.77 25.7 115.86 26.76 118.18 27.17 122.62 27.08 127.04 26.6 135.51 25.35 143.97 23.97 158.27 21.61 172.58 19.27 164.97 21.66 157.36 24.02 152.92 25.37 148.46 26.63 146.48 27.11 144.47 27.38 143.9 27.18 144 26.58 144.78 25.51 145.64 24.5 146.86 23.02 147.98 21.45 148.97 19.66 149.61 17.72 149.72 15.62 149.14 13.6" style="fill:none; stroke:#aaa; stroke-miterlimit:10; stroke-width:.5px;"/><polyline points="65.03 0 76.32 4.07 87.38 8.74 93.76 11.95 99.84 15.67 103.04 18.08 105.99 20.78 107.63 22.47 109.37 24.04 111.35 25.03 113.54 25.42 117.81 25.36 122.07 24.92 130.29 23.77 138.5 22.5 152.45 20.31 166.4 18.15 158.81 20.42 151.2 22.67 146.77 23.94 142.33 25.12 140.37 25.56 138.37 25.79 137.8 25.57 137.9 24.96 138.65 23.92 139.48 22.93 140.65 21.49 141.7 19.97 142.6 18.24 143.13 16.37 143.08 14.33 142.34 12.42" style="fill:none; stroke:#aaa; stroke-miterlimit:10; stroke-width:.5px;"/><polyline points="61.77 0 72.87 3.74 83.76 8.03 90 10.98 95.98 14.41 99.07 16.62 101.92 19.12 103.47 20.68 105.1 22.14 106.95 23.07 109.01 23.44 113.09 23.4 117.16 23.01 125.12 21.97 133.07 20.82 146.64 18.83 160.23 16.87 152.63 19 145.02 21.11 140.6 22.29 136.16 23.39 134.19 23.79 132.2 23.97 131.62 23.75 131.69 23.14 132.4 22.13 133.2 21.18 134.29 19.8 135.27 18.34 136.07 16.7 136.47 14.92 136.25 12.95 135.34 11.19" style="fill:none; stroke:#aaa; stroke-miterlimit:10; stroke-width:.5px;"/><polyline points="58.54 0 69.46 3.39 80.19 7.31 86.3 9.98 92.16 13.12 95.14 15.12 97.9 17.42 99.35 18.84 100.86 20.18 102.59 21.05 104.5 21.39 108.39 21.37 112.28 21.04 119.96 20.11 127.64 19.09 140.84 17.3 154.05 15.54 146.45 17.53 138.84 19.49 134.42 20.58 129.98 21.59 128 21.95 126 22.09 125.41 21.87 125.45 21.27 126.11 20.3 126.86 19.39 127.88 18.09 128.77 16.7 129.46 15.15 129.73 13.48 129.33 11.6 128.27 9.99" style="fill:none; stroke:#aaa; stroke-miterlimit:10; stroke-width:.5px;"/><polyline points="55.23 0 65.96 3.07 76.54 6.63 82.5 9.04 88.26 11.9 91.14 13.71 93.8 15.82 95.16 17.11 96.56 18.34 98.16 19.15 99.94 19.47 103.65 19.47 107.36 19.18 114.78 18.36 122.2 17.46 135.03 15.86 147.87 14.28 140.29 16.12 132.69 17.93 128.28 18.93 123.84 19.84 121.85 20.16 119.85 20.28 119.26 20.07 119.24 19.47 119.85 18.55 120.55 17.69 121.49 16.47 122.31 15.17 122.9 13.71 123.05 12.16 122.49 10.38 121.3 8.91" style="fill:none; stroke:#aaa; stroke-miterlimit:10; stroke-width:.5px;"/><polyline points="51.74 0 62.27 2.8 72.67 6.05 78.51 8.25 84.15 10.88 86.93 12.52 89.51 14.46 90.79 15.64 92.09 16.78 93.59 17.53 95.26 17.84 98.8 17.85 102.35 17.6 109.53 16.87 116.71 16.06 129.2 14.61 141.7 13.19 134.15 14.89 126.6 16.55 122.2 17.47 117.79 18.29 115.8 18.58 113.79 18.66 113.2 18.46 113.14 17.88 113.71 17.01 114.36 16.19 115.24 15.05 115.99 13.83 116.49 12.47 116.54 11.02 115.83 9.34 114.55 8.01" style="fill:none; stroke:#aaa; stroke-miterlimit:10; stroke-width:.5px;"/><polyline points="47.96 0 58.3 2.59 68.52 5.62 74.22 7.66 79.75 10.11 82.44 11.63 84.95 13.45 86.17 14.54 87.4 15.62 88.82 16.33 90.4 16.61 93.81 16.64 97.22 16.41 104.19 15.74 111.17 15 123.34 13.67 135.52 12.37 128.04 13.95 120.56 15.5 116.2 16.35 111.83 17.11 109.86 17.37 107.87 17.43 107.29 17.24 107.21 16.67 107.74 15.84 108.37 15.06 109.19 13.98 109.89 12.82 110.32 11.53 110.3 10.17 109.47 8.57 108.13 7.33" style="fill:none; stroke:#aaa; stroke-miterlimit:10; stroke-width:.5px;"/><polyline points="43.94 0 54.07 2.46 64.09 5.33 69.67 7.26 75.08 9.58 77.71 11.02 80.14 12.75 81.32 13.79 82.5 14.82 83.86 15.49 85.37 15.77 88.68 15.8 91.99 15.59 98.78 14.96 105.57 14.27 117.45 13.02 129.34 11.78 121.97 13.29 114.59 14.76 110.29 15.57 105.99 16.29 104.04 16.53 102.09 16.58 101.51 16.39 101.42 15.83 101.93 15.03 102.54 14.28 103.33 13.24 103.98 12.13 104.37 10.88 104.3 9.59 103.41 8.04 102.03 6.87" style="fill:none; stroke:#aaa; stroke-miterlimit:10; stroke-width:.5px;"/><polyline points="39.8 0 49.72 2.35 59.53 5.1 64.99 6.95 70.29 9.18 72.85 10.56 75.22 12.22 76.36 13.22 77.5 14.21 78.81 14.86 80.27 15.12 83.48 15.16 86.7 14.96 93.32 14.37 99.94 13.7 111.55 12.51 123.16 11.33 115.91 12.78 108.65 14.2 104.43 14.97 100.2 15.66 98.29 15.88 96.37 15.92 95.8 15.73 95.72 15.19 96.22 14.41 96.81 13.67 97.56 12.67 98.19 11.59 98.54 10.38 98.43 9.13 97.48 7.63 96.07 6.51" style="fill:none; stroke:#aaa; stroke-miterlimit:10; stroke-width:.5px;"/><polyline points="35.66 0 45.37 2.25 54.98 4.88 60.31 6.65 65.5 8.78 67.99 10.1 70.31 11.69 71.41 12.65 72.5 13.6 73.77 14.23 75.17 14.48 78.29 14.51 81.41 14.33 87.87 13.77 94.32 13.13 105.65 12 116.99 10.88 109.85 12.27 102.7 13.63 98.56 14.37 94.4 15.02 92.52 15.24 90.64 15.26 90.09 15.07 90 14.54 90.49 13.78 91.06 13.07 91.79 12.1 92.38 11.05 92.7 9.88 92.54 8.68 91.54 7.23 90.11 6.16" style="fill:none; stroke:#aaa; stroke-miterlimit:10; stroke-width:.5px;"/><polyline points="31.62 0 41.12 2.12 50.54 4.61 55.74 6.28 60.81 8.3 63.23 9.54 65.49 11.05 66.54 11.96 67.59 12.86 68.8 13.46 70.14 13.7 73.15 13.74 76.17 13.57 82.45 13.05 88.72 12.45 99.76 11.39 110.81 10.34 103.78 11.66 96.74 12.94 92.66 13.64 88.56 14.25 86.72 14.45 84.86 14.46 84.32 14.28 84.23 13.77 84.69 13.04 85.24 12.35 85.93 11.43 86.49 10.42 86.76 9.29 86.55 8.15 85.49 6.76 84.03 5.75" style="fill:none; stroke:#aaa; stroke-miterlimit:10; stroke-width:.5px;"/><polyline points="27.71 0 37.01 1.97 46.22 4.28 51.3 5.82 56.26 7.7 58.6 8.85 60.79 10.26 61.79 11.1 62.77 11.94 63.92 12.51 65.18 12.74 68.08 12.79 70.98 12.64 77.06 12.16 83.14 11.62 93.89 10.64 104.63 9.68 97.7 10.91 90.76 12.1 86.73 12.75 82.69 13.31 80.86 13.49 79.03 13.49 78.49 13.32 78.37 12.82 78.8 12.13 79.32 11.48 79.96 10.61 80.47 9.66 80.69 8.59 80.44 7.54 79.3 6.22 77.81 5.29" style="fill:none; stroke:#aaa; stroke-miterlimit:10; stroke-width:.5px;"/><polyline points="23.88 0 32.98 1.79 42.01 3.9 46.96 5.3 51.81 7.02 54.07 8.06 56.18 9.36 57.12 10.13 58.04 10.91 59.11 11.44 60.29 11.65 63.06 11.71 65.84 11.58 71.71 11.16 77.59 10.67 88.02 9.8 98.45 8.93 91.61 10.06 84.76 11.14 80.78 11.73 76.79 12.24 74.97 12.4 73.15 12.38 72.62 12.23 72.45 11.75 72.84 11.11 73.32 10.51 73.91 9.7 74.37 8.82 74.53 7.82 74.23 6.85 73.01 5.63 71.49 4.78" style="fill:none; stroke:#aaa; stroke-miterlimit:10; stroke-width:.5px;"/><polyline points="20.06 0 28.96 1.61 37.8 3.52 42.62 4.78 47.35 6.34 49.53 7.28 51.57 8.46 52.45 9.16 53.3 9.87 54.29 10.36 55.39 10.56 58.04 10.62 60.69 10.51 66.36 10.14 72.03 9.72 82.15 8.94 92.28 8.17 85.53 9.19 78.77 10.17 74.83 10.7 70.89 11.15 69.08 11.29 67.26 11.27 66.73 11.12 66.53 10.67 66.88 10.08 67.32 9.52 67.86 8.79 68.27 7.97 68.37 7.04 68.01 6.18 66.72 5.05 65.18 4.29" style="fill:none; stroke:#aaa; stroke-miterlimit:10; stroke-width:.5px;"/><polyline points="16.11 0 24.81 1.46 33.45 3.2 38.15 4.34 42.77 5.77 44.86 6.61 46.84 7.7 47.67 8.33 48.47 8.99 49.39 9.45 50.42 9.63 52.95 9.69 55.49 9.6 60.97 9.28 66.45 8.9 76.27 8.21 86.1 7.52 79.45 8.44 72.8 9.33 68.92 9.81 65.03 10.22 63.24 10.34 61.44 10.31 60.92 10.18 60.68 9.75 61 9.2 61.4 8.69 61.9 8.01 62.27 7.26 62.31 6.39 61.92 5.6 60.57 4.57 59.01 3.87" style="fill:none; stroke:#aaa; stroke-miterlimit:10; stroke-width:.5px;"/><polyline points="11.91 0 20.39 1.37 28.83 3 33.4 4.08 37.91 5.41 39.94 6.21 41.86 7.23 42.66 7.82 43.41 8.45 44.3 8.88 45.28 9.05 47.72 9.12 50.17 9.04 55.49 8.74 60.81 8.39 70.36 7.74 79.92 7.1 73.4 7.97 66.89 8.8 63.08 9.25 59.27 9.63 57.51 9.74 55.75 9.71 55.24 9.58 55 9.17 55.3 8.64 55.69 8.16 56.16 7.52 56.5 6.8 56.51 5.97 56.09 5.24 54.72 4.26 53.15 3.6" style="fill:none; stroke:#aaa; stroke-miterlimit:10; stroke-width:.5px;"/><polyline points="7.31 0 15.57 1.37 23.78 2.99 28.24 4.07 32.62 5.4 34.61 6.2 36.49 7.22 37.28 7.81 38.03 8.43 38.91 8.85 39.88 9.03 42.28 9.09 44.68 9 49.89 8.7 55.09 8.35 64.42 7.69 73.74 7.05 67.4 7.92 61.06 8.76 57.37 9.21 53.67 9.58 51.97 9.69 50.28 9.66 49.79 9.53 49.59 9.13 49.9 8.6 50.29 8.11 50.76 7.47 51.09 6.76 51.11 5.92 50.69 5.19 49.33 4.21 47.78 3.56" style="fill:none; stroke:#aaa; stroke-miterlimit:10; stroke-width:.5px;"/><polyline points="2.18 0 10.2 1.49 18.16 3.24 22.52 4.41 26.78 5.85 28.76 6.72 30.61 7.8 31.42 8.44 32.21 9.1 33.13 9.55 34.14 9.73 36.55 9.78 38.97 9.67 44.11 9.33 49.25 8.93 58.41 8.2 67.57 7.49 61.45 8.44 55.33 9.35 51.79 9.84 48.25 10.26 46.66 10.38 45.07 10.35 44.62 10.2 44.52 9.78 44.88 9.22 45.3 8.69 45.81 8 46.17 7.24 46.22 6.35 45.83 5.55 44.55 4.51 43.03 3.8" style="fill:none; stroke:#aaa; stroke-miterlimit:10; stroke-width:.5px;"/><polyline points="-3.55 0 4.21 1.76 11.89 3.81 16.15 5.19 20.3 6.86 22.29 7.89 24.13 9.14 25.01 9.88 25.88 10.63 26.89 11.12 28.01 11.32 30.49 11.35 32.98 11.2 38.13 10.76 43.29 10.27 52.34 9.38 61.39 8.5 55.56 9.62 49.72 10.7 46.4 11.28 43.06 11.78 41.63 11.93 40.19 11.92 39.79 11.71 39.84 11.27 40.29 10.64 40.79 10.03 41.37 9.23 41.8 8.35 41.93 7.36 41.62 6.41 40.47 5.22 39.02 4.38" style="fill:none; stroke:#aaa; stroke-miterlimit:10; stroke-width:.5px;"/><polyline points="-9.92 0 -2.43 2.19 4.94 4.73 9.11 6.46 13.14 8.51 15.17 9.8 17.04 11.3 18.02 12.22 19.02 13.1 20.18 13.67 21.46 13.9 24.09 13.89 26.72 13.67 31.96 13.08 37.18 12.42 46.19 11.26 55.21 10.11 49.73 11.48 44.25 12.83 41.19 13.54 38.12 14.18 36.87 14.37 35.62 14.38 35.37 14.06 35.57 13.64 36.15 12.9 36.75 12.16 37.45 11.2 37.99 10.16 38.25 9 38.07 7.83 37.14 6.43 35.8 5.38" style="fill:none; stroke:#aaa; stroke-miterlimit:10; stroke-width:.5px;"/><polyline points="-16.83 0 -9.63 2.8 -2.6 6 1.5 8.22 5.4 10.76 7.49 12.42 9.41 14.26 10.53 15.42 11.72 16.48 13.07 17.15 14.57 17.41 17.4 17.34 20.23 17.03 25.6 16.21 30.96 15.32 40 13.78 49.03 12.26 43.97 13.89 38.89 15.51 36.14 16.36 33.37 17.15 32.35 17.38 31.33 17.42 31.32 16.98 31.62 16.57 32.36 15.7 33.1 14.83 33.94 13.69 34.63 12.46 35.06 11.11 35.07 9.69 34.43 8.08 33.27 6.77" style="fill:none; stroke:#aaa; stroke-miterlimit:10; stroke-width:.5px;"/><polyline points="-24.11 0 -17.2 3.55 -10.53 7.52 -6.51 10.34 -2.73 13.47 -.58 15.58 1.43 17.81 2.7 19.25 4.1 20.53 5.68 21.32 7.43 21.61 10.51 21.48 13.57 21.03 19.13 19.94 24.66 18.75 33.76 16.76 42.86 14.78 38.24 16.69 33.63 18.62 31.2 19.62 28.77 20.59 27.98 20.87 27.19 20.97 27.44 20.48 27.83 20.04 28.74 19.07 29.63 18.06 30.64 16.74 31.5 15.32 32.13 13.75 32.39 12.08 32.09 10.26 31.21 8.63" style="fill:none; stroke:#aaa; stroke-miterlimit:10; stroke-width:.5px;"/><polyline points="-31.52 0 -24.91 4.37 -18.61 9.17 -14.68 12.64 -11.01 16.39 -8.8 18.99 -6.69 21.65 -5.26 23.39 -3.63 24.91 -1.81 25.83 .21 26.15 3.55 25.94 6.85 25.34 12.61 23.96 18.33 22.44 27.5 19.94 36.68 17.44 32.53 19.64 28.41 21.87 26.29 23.04 24.2 24.21 23.63 24.52 23.06 24.75 23.53 24.26 24.03 23.79 25.1 22.74 26.12 21.63 27.3 20.16 28.34 18.58 29.19 16.82 29.72 14.93 29.78 12.93 29.27 10.99" style="fill:none; stroke:#aaa; stroke-miterlimit:10; stroke-width:.5px;"/><polyline points="-38.84 0 -32.53 5.19 -26.58 10.78 -22.74 14.91 -19.18 19.27 -16.92 22.34 -14.71 25.43 -13.13 27.46 -11.27 29.23 -9.22 30.26 -6.95 30.62 -3.35 30.32 .18 29.57 6.13 27.9 12.03 26.05 21.26 23.04 30.5 20.02 26.81 22.47 23.16 24.98 21.34 26.3 19.56 27.67 19.14 28.03 18.81 28.41 19.44 27.98 20.04 27.5 21.23 26.43 22.36 25.27 23.69 23.71 24.88 22.03 25.95 20.12 26.74 18.08 27.14 15.93 27.05 13.75" style="fill:none; stroke:#aaa; stroke-miterlimit:10; stroke-width:.5px;"/><polyline points="-45.81 0 -39.81 5.89 -34.19 12.14 -30.46 16.85 -26.99 21.73 -24.69 25.21 -22.41 28.69 -20.69 30.99 -18.64 32.98 -16.39 34.14 -13.89 34.54 -10.08 34.2 -6.34 33.32 -.24 31.4 5.79 29.26 15.06 25.81 24.32 22.31 21.03 24.96 17.82 27.69 16.24 29.15 14.76 30.7 14.41 31.16 14.35 31.63 15.11 31.29 15.79 30.82 17.08 29.74 18.3 28.57 19.75 26.95 21.06 25.22 22.31 23.21 23.3 21.07 23.97 18.79 24.21 16.44" style="fill:none; stroke:#aaa; stroke-miterlimit:10; stroke-width:.5px;"/><polyline points="-52.27 0 -46.55 6.42 -41.23 13.17 -37.6 18.38 -34.24 23.76 -31.9 27.81 -29.59 31.87 -27.73 34.85 -25.57 37.61 -23.23 39.65 -20.49 41.09 -16.63 42.08 -12.64 42.41 -6.47 42.25 -.33 41.68 8.92 40.45 18.15 39 15.25 40.22 12.32 41.31 11.04 41.67 9.72 41.71 9.41 41.14 9.61 40.47 10.38 39.13 11.26 37.86 12.59 36.01 13.92 34.15 15.44 31.91 16.87 29.61 18.22 27.11 19.36 24.52 20.21 21.88 20.67 19.14" style="fill:none; stroke:#aaa; stroke-miterlimit:10; stroke-width:.5px;"/><polyline points="-58.02 0 -52.57 6.76 -47.52 13.81 -44.01 19.33 -40.75 24.99 -38.41 29.34 -36.08 33.69 -34.15 36.99 -31.91 40.08 -29.49 42.47 -26.63 44.32 -22.73 45.77 -18.63 46.56 -12.48 47 -6.3 46.97 2.84 46.47 11.97 45.7 9.35 46.48 6.69 47 5.5 47.02 4.45 46.54 4.27 45.56 4.55 44.57 5.37 42.92 6.32 41.34 7.69 39.23 9.07 37.12 10.63 34.66 12.12 32.15 13.53 29.47 14.77 26.69 15.73 23.89 16.36 21" style="fill:none; stroke:#aaa; stroke-miterlimit:10; stroke-width:.5px;"/><polyline points="-62.93 0 -57.73 6.88 -52.91 14.02 -49.52 19.64 -46.36 25.4 -44.06 29.87 -41.75 34.33 -39.81 37.76 -37.55 40.99 -35.12 43.54 -32.23 45.57 -28.36 47.25 -24.25 48.27 -18.19 49.01 -12.09 49.26 -3.15 49.15 5.79 48.73 3.37 49.27 .91 49.51 -.23 49.33 -1.09 48.61 -1.18 47.44 -.84 46.29 0 44.5 .99 42.77 2.37 40.54 3.76 38.32 5.33 35.76 6.83 33.17 8.26 30.41 9.53 27.56 10.53 24.7 11.22 21.75" style="fill:none; stroke:#aaa; stroke-miterlimit:10; stroke-width:.5px;"/><polyline points="-66.97 0 -61.97 6.75 -57.35 13.75 -54.08 19.28 -51.04 24.93 -48.81 29.33 -46.57 33.72 -44.66 37.11 -42.47 40.31 -40.08 42.86 -37.26 44.9 -33.5 46.6 -29.49 47.67 -23.62 48.49 -17.69 48.81 -9.04 48.82 -.39 48.52 -2.7 48.98 -5.03 49.12 -6.12 48.88 -6.89 48.11 -6.95 46.9 -6.6 45.71 -5.75 43.91 -4.77 42.18 -3.42 39.95 -2.04 37.73 -.51 35.2 .96 32.62 2.36 29.89 3.6 27.08 4.59 24.26 5.26 21.35" style="fill:none; stroke:#aaa; stroke-miterlimit:10; stroke-width:.5px;"/></svg>