<?xml version="1.0" encoding="UTF-8"?>
<svg id="Ebene_1" xmlns="http://www.w3.org/2000/svg" width="222" height="222" viewBox="0 0 222 222">
  <polyline points="43.23 193.3 41.24 188.18 37.02 184.81 33.19 184.39 29.41 185.18 27.85 185.75 26.69 186.06 30.97 182.6 35.21 179.09 31.94 185.71 28.88 192.42 28.39 194.48 29.44 196.2 32.26 197.65 34.87 199.47 39.61 204.93 43.15 211.28 45.6 206.6 48.61 202.26 50.76 199.98 53.25 198.08 54.87 197.17 56.52 196.35 57.42 195.72 57.86 194.72" fill="none" stroke="#aaa" stroke-miterlimit="10" stroke-width=".5"/>
  <polyline points="43.27 188.47 41.22 183.6 37.01 180.52 33.14 180.18 29.33 180.98 27.77 181.55 26.6 181.95 30.92 178.79 35.18 175.53 31.82 181.9 28.69 188.36 28.18 190.4 29.24 192.08 32.1 193.52 34.77 195.29 39.56 200.49 43.18 206.6 45.7 202.08 48.78 197.92 51 195.72 53.53 193.9 55.18 193.02 56.85 192.21 57.75 191.55 58.14 190.52" fill="none" stroke="#aaa" stroke-miterlimit="10" stroke-width=".5"/>
  <polyline points="43.33 183.76 41.25 179.14 37.1 176.33 33.25 176.05 29.45 176.86 27.91 177.42 26.73 177.89 31.05 175 35.28 171.98 31.88 178.07 28.72 184.27 28.21 186.26 29.27 187.9 32.12 189.31 34.81 191.03 39.59 195.96 43.25 201.8 45.8 197.45 48.91 193.48 51.17 191.37 53.71 189.63 55.37 188.78 57.03 187.98 57.92 187.3 58.25 186.25" fill="none" stroke="#aaa" stroke-miterlimit="10" stroke-width=".5"/>
  <polyline points="43.08 179.22 41.02 174.85 36.99 172.28 33.22 172.04 29.52 172.83 28.01 173.39 26.86 173.89 31.08 171.23 35.21 168.43 31.86 174.21 28.74 180.12 28.23 182.04 29.27 183.62 32.07 184.98 34.72 186.63 39.39 191.28 43 196.83 45.54 192.66 48.63 188.88 50.87 186.87 53.38 185.23 55 184.43 56.62 183.64 57.47 182.94 57.72 181.88" fill="none" stroke="#aaa" stroke-miterlimit="10" stroke-width=".5"/>
  <polyline points="43.07 174.82 41.07 170.71 37.22 168.33 33.59 168.12 30.03 168.89 28.58 169.43 27.48 169.93 31.54 167.48 35.5 164.87 32.26 170.33 29.24 175.91 28.75 177.75 29.75 179.25 32.44 180.55 35.01 182.11 39.5 186.49 42.99 191.73 45.47 187.76 48.49 184.17 50.67 182.28 53.11 180.73 54.67 179.98 56.22 179.22 57.01 178.5 57.17 177.44" fill="none" stroke="#aaa" stroke-miterlimit="10" stroke-width=".5"/>
  <polyline points="43.06 170.44 41.13 166.6 37.47 164.41 34 164.24 30.61 164.97 29.22 165.48 28.17 165.99 32.04 163.73 35.83 161.32 32.71 166.45 29.82 171.7 29.34 173.44 30.3 174.86 32.88 176.1 35.34 177.58 39.63 181.67 42.98 186.6 45.39 182.83 48.31 179.44 50.43 177.66 52.78 176.22 54.27 175.51 55.73 174.78 56.46 174.04 56.53 173" fill="none" stroke="#aaa" stroke-miterlimit="10" stroke-width=".5"/>
  <polyline points="43.05 165.98 41.16 162.39 37.66 160.42 34.32 160.28 31.05 161 29.7 161.49 28.69 162.01 32.43 159.98 36.08 157.76 33.05 162.58 30.23 167.52 29.77 169.18 30.69 170.54 33.18 171.72 35.57 173.11 39.71 176.93 42.97 181.55 45.33 177.99 48.18 174.82 50.25 173.14 52.53 171.79 53.97 171.12 55.37 170.42 56.05 169.66 56.06 168.64" fill="none" stroke="#aaa" stroke-miterlimit="10" stroke-width=".5"/>
  <polyline points="43.04 161.31 41.12 157.98 37.71 156.26 34.4 156.17 31.17 156.89 29.84 157.39 28.85 157.96 32.55 156.19 36.15 154.21 33.09 158.74 30.27 163.41 29.8 165.02 30.72 166.33 33.2 167.49 35.59 168.82 39.69 172.37 42.95 176.72 45.32 173.37 48.15 170.4 50.24 168.82 52.51 167.54 53.94 166.9 55.34 166.2 56 165.45 55.99 164.44" fill="none" stroke="#aaa" stroke-miterlimit="10" stroke-width=".5"/>
  <polyline points="43.23 156.36 41.18 153.3 37.78 151.87 34.4 151.87 31.09 152.62 29.71 153.14 28.72 153.81 32.51 152.38 36.18 150.66 32.98 154.95 30.02 159.4 29.53 161.01 30.5 162.29 33.07 163.45 35.56 164.74 39.74 168.05 43.15 172.15 45.6 169 48.49 166.25 50.66 164.74 53 163.52 54.5 162.87 55.95 162.16 56.64 161.42 56.65 160.41" fill="none" stroke="#aaa" stroke-miterlimit="10" stroke-width=".5"/>
  <polyline points="43.1 151.15 40.81 148.37 37.35 147.27 33.77 147.38 30.29 148.19 28.79 148.75 27.78 149.57 31.78 148.54 35.67 147.1 32.16 151.18 28.94 155.48 28.41 157.13 29.47 158.42 32.23 159.6 34.95 160.89 39.34 163.96 43.03 167.86 45.66 164.89 48.69 162.34 51.04 160.88 53.53 159.7 55.16 159.03 56.74 158.3 57.49 157.56 57.53 156.52" fill="none" stroke="#aaa" stroke-miterlimit="10" stroke-width=".5"/>
  <polyline points="43.12 145.75 40.43 143.28 36.79 142.51 32.5 142.76 28.27 143.63 25.66 144.39 23.09 145.26 24.79 144.47 26.78 143.55 25.04 147.46 24.22 151.63 25.28 153.59 27.29 154.66 30.76 155.84 34.17 157.19 38.94 160.02 43.05 163.75 45.81 161.05 48.93 158.76 51.54 157.33 54.28 156.18 56.42 155.45 58.56 154.73 60.01 154.1 61.23 153.13" fill="none" stroke="#aaa" stroke-miterlimit="10" stroke-width=".5"/>
  <polyline points="43.18 140.27 40.09 138.17 36.32 137.7 31.51 138.09 26.79 139.04 23.52 139.92 20.3 140.93 20.94 140.65 22.58 139.99 21.37 143.84 21.41 147.81 23.15 149.84 25.62 150.95 29.56 152.17 33.45 153.54 38.57 156.18 43.12 159.72 46.11 157.21 49.41 155.11 52.27 153.72 55.25 152.6 57.7 151.83 60.14 151.09 61.93 150.42 63.57 149.45" fill="none" stroke="#aaa" stroke-miterlimit="10" stroke-width=".5"/>
  <polyline points="43.29 134.87 39.84 133.18 35.94 132.94 30.72 133.47 25.57 134.49 21.81 135.46 18.12 136.62 17.96 136.88 19.52 136.44 18.63 140.2 19.19 143.96 21.4 146.03 24.24 147.19 28.56 148.46 32.85 149.84 38.28 152.3 43.23 155.62 46.48 153.27 49.98 151.33 53.11 150 56.33 148.91 59.03 148.12 61.73 147.33 63.78 146.61 65.69 145.6" fill="none" stroke="#aaa" stroke-miterlimit="10" stroke-width=".5"/>
  <polyline points="43.39 129.64 39.67 128.37 35.68 128.32 30.16 128.97 24.7 130.04 20.59 131.09 16.56 132.38 15.76 133.07 17.38 132.89 16.69 136.52 17.6 140.05 20.14 142.13 23.23 143.33 27.84 144.63 32.43 146 38.08 148.27 43.34 151.34 46.83 149.16 50.53 147.37 53.89 146.1 57.32 145.03 60.23 144.23 63.14 143.4 65.36 142.63 67.45 141.55" fill="none" stroke="#aaa" stroke-miterlimit="10" stroke-width=".5"/>
  <polyline points="43.39 124.55 39.48 123.69 35.44 123.82 29.71 124.56 24.04 125.68 19.68 126.78 15.41 128.18 14.11 129.12 15.78 129.33 15.26 132.82 16.42 136.09 19.24 138.15 22.54 139.39 27.35 140.7 32.16 142.05 37.91 144.13 43.35 146.92 47.02 144.91 50.88 143.26 54.44 142.05 58.06 141.02 61.17 140.2 64.25 139.34 66.62 138.5 68.83 137.34" fill="none" stroke="#aaa" stroke-miterlimit="10" stroke-width=".5"/>
  <polyline points="43.32 119.45 39.27 119.03 35.18 119.31 29.31 120.15 23.49 121.32 18.97 122.46 14.57 123.98 13.12 125.07 14.73 125.78 14.21 129.09 15.47 132.13 18.49 134.19 21.94 135.44 26.93 136.78 31.93 138.1 37.73 139.99 43.28 142.51 47.14 140.66 51.14 139.15 54.91 138 58.73 136.99 62.01 136.15 65.27 135.22 67.73 134.32 70.01 133.05" fill="none" stroke="#aaa" stroke-miterlimit="10" stroke-width=".5"/>
  <polyline points="43.24 114.28 39.05 114.29 34.86 114.74 28.81 115.69 22.82 116.91 18.13 118.11 13.59 119.75 12.05 121.09 13.65 122.23 13.1 125.36 14.45 128.2 17.67 130.26 21.29 131.55 26.48 132.91 31.7 134.21 37.55 135.94 43.23 138.18 47.28 136.48 51.46 135.11 55.49 134 59.54 133 63.04 132.12 66.5 131.11 69.05 130.12 71.39 128.71" fill="none" stroke="#aaa" stroke-miterlimit="10" stroke-width=".5"/>
  <polyline points="43.18 109.05 38.06 109.46 32.97 110.12 26.78 111.16 20.64 112.46 16.16 113.7 11.9 115.5 10.69 117.28 12.45 118.67 11.9 121.66 13.35 124.29 16.81 126.36 20.64 127.68 26.06 129.08 31.51 130.37 37.41 131.93 43.18 133.9 47.49 132.36 51.89 131.1 56.24 130.02 60.6 128.99 64.37 128.04 68.07 126.91 70.7 125.8 73.03 124.2" fill="none" stroke="#aaa" stroke-miterlimit="10" stroke-width=".5"/>
  <polyline points="43.13 103.88 37.1 104.66 31.07 105.55 24.75 106.67 18.48 108.05 14.24 109.32 10.28 111.28 9.48 113.46 11.37 115.12 10.84 117.95 12.42 120.36 16.13 122.43 20.17 123.79 25.79 125.21 31.46 126.49 37.33 127.88 43.13 129.56 47.66 128.2 52.25 127.06 56.93 126 61.6 124.93 65.62 123.91 69.56 122.64 72.22 121.42 74.5 119.63" fill="none" stroke="#aaa" stroke-miterlimit="10" stroke-width=".5"/>
  <polyline points="43.09 98.92 36.6 100.05 30.1 101.16 23.71 102.34 17.38 103.77 13.23 105.06 9.44 107.12 8.84 109.62 10.79 111.57 10.32 114.21 12 116.36 15.92 118.39 20.12 119.76 25.86 121.19 31.65 122.43 37.39 123.64 43.09 125.02 47.74 123.87 52.41 122.86 57.35 121.82 62.28 120.72 66.5 119.62 70.62 118.23 73.24 116.95 75.39 115.02" fill="none" stroke="#aaa" stroke-miterlimit="10" stroke-width=".5"/>
  <polyline points="43.06 94.32 36.42 95.77 29.74 97.05 23.45 98.28 17.2 99.71 13.2 100.99 9.6 103.1 9.15 105.81 11.1 108.01 10.74 110.4 12.47 112.22 16.51 114.16 20.8 115.51 26.51 116.89 32.27 118.07 37.67 119.08 43.06 120.11 47.66 119.22 52.27 118.36 57.37 117.36 62.44 116.23 66.76 115.08 70.98 113.6 73.43 112.32 75.29 110.32" fill="none" stroke="#aaa" stroke-miterlimit="10" stroke-width=".5"/>
  <polyline points="43.04 90.19 36.57 91.92 30.02 93.34 24.05 94.56 18.12 95.95 14.4 97.16 11.12 99.24 10.84 102.1 12.76 104.46 12.52 106.48 14.21 107.92 18.27 109.69 22.51 110.97 27.99 112.26 33.51 113.33 38.27 114.1 43.04 114.72 47.36 114.15 51.69 113.47 56.83 112.51 61.93 111.37 66.23 110.19 70.39 108.65 72.48 107.47 73.69 105.52" fill="none" stroke="#aaa" stroke-miterlimit="10" stroke-width=".5"/>
  <polyline points="43.06 86.53 37.09 88.49 31 90 25.61 91.18 20.26 92.46 16.99 93.57 14.23 95.55 14.34 98.5 16.3 100.9 16.04 102.42 17.62 103.45 21.65 104.99 25.8 106.14 30.84 107.28 35.92 108.21 39.48 108.69 43.06 108.87 46.62 108.69 50.16 108.21 55.24 107.28 60.29 106.14 64.43 104.99 68.44 103.45 70 102.4 69.6 100.9 69.64 100.87 69.67 100.84 69.7 100.81 69.74 100.77 69.77 100.74 69.81 100.71 69.84 100.68 69.87 100.65" fill="none" stroke="#aaa" stroke-miterlimit="10" stroke-width=".5"/>
  <polyline points="43.03 83.16 37.85 85.32 32.47 86.9 27.82 88.01 23.19 89.16 20.44 90.14 18.24 91.96 18.72 94.92 20.68 97.35 19.83 98.1 21 98.89 24.39 100.16 27.87 101.14 32.27 102.13 36.73 102.85 39.9 103.1 43.04 102.74 46.15 103.1 49.3 102.85 53.75 102.13 58.16 101.14 61.63 100.16 64.99 98.89 66.15 98.06 65.16 97.35 65.33 97.18 65.5 97.01 65.65 96.85 65.81 96.69 65.95 96.53 66.09 96.37 66.23 96.21 66.36 96.06" fill="none" stroke="#aaa" stroke-miterlimit="10" stroke-width=".5"/>
  <polyline points="43.01 79.82 38.67 82.16 34.02 83.82 30.14 84.86 26.27 85.87 24.06 86.72 22.47 88.38 23.34 91.33 25.33 93.8 24.13 93.71 24.48 94.31 27.19 95.32 29.96 96.12 33.73 96.96 37.55 97.47 40.39 97.46 43.05 96.57 45.66 97.47 48.46 97.47 52.28 96.96 56.05 96.12 58.81 95.33 61.5 94.31 61.73 93.71 60.5 93.8 60.75 93.53 61 93.27 61.23 93.01 61.44 92.76 61.65 92.52 61.85 92.28 62.03 92.05 62.2 91.83" fill="none" stroke="#aaa" stroke-miterlimit="10" stroke-width=".5"/>
  <polyline points="42.88 76.24 39.25 78.76 35.21 80.55 32.01 81.53 28.8 82.43 27.06 83.19 26.09 84.72 27.41 87.69 29.51 90.24 28.22 89.85 27.44 89.82 29.51 90.62 31.64 91.25 34.85 91.96 38.13 92.29 40.74 92.01 42.92 90.65 45.05 92.02 47.63 92.29 50.9 91.96 54.11 91.25 56.23 90.62 58.28 89.82 57.4 89.85 56.06 90.24 56.34 89.94 56.61 89.65 56.86 89.36 57.1 89.09 57.33 88.82 57.55 88.56 57.76 88.31 57.95 88.06" fill="none" stroke="#aaa" stroke-miterlimit="10" stroke-width=".5"/>
  <polyline points="42.97 72.2 39.88 74.93 36.26 76.9 33.54 77.87 30.79 78.71 29.38 79.45 28.97 80.89 30.82 83.97 33.2 86.69 31.5 86 29.82 85.48 31.36 86.15 32.96 86.66 35.78 87.29 38.67 87.48 41.18 86.92 43.02 85.18 44.8 86.93 47.28 87.48 50.16 87.29 52.98 86.66 54.58 86.15 56.09 85.48 54.34 86 52.57 86.69 52.85 86.39 53.13 86.1 53.39 85.82 53.64 85.55 53.88 85.29 54.11 85.03 54.33 84.78 54.55 84.53" fill="none" stroke="#aaa" stroke-miterlimit="10" stroke-width=".5"/>
  <polyline points="42.86 67.6 40.03 70.59 36.55 72.79 34.09 73.79 31.6 74.65 30.47 75.5 30.71 76.87 33.48 80.14 36.58 83.13 33.97 82.11 31.29 81.35 32.23 81.98 33.4 82.42 36.01 83.03 38.68 83.13 41.23 82.32 42.92 80.27 44.54 82.33 47.05 83.13 49.72 83.03 52.32 82.42 53.49 81.99 54.41 81.35 51.67 82.11 49 83.13 49.31 82.85 49.62 82.57 49.91 82.29 50.2 82.03 50.47 81.77 50.74 81.51 51 81.27 51.25 81.03" fill="none" stroke="#aaa" stroke-miterlimit="10" stroke-width=".5"/>
  <polyline points="42.86 62.45 39.92 65.76 36.25 68.24 33.71 69.32 31.14 70.26 30.02 71.22 30.44 72.65 33.61 76.25 37.09 79.58 34.03 78.35 30.88 77.41 31.69 78.06 32.86 78.51 35.6 79.16 38.41 79.22 41.17 78.24 42.92 75.92 44.6 78.24 47.31 79.22 50.12 79.16 52.86 78.51 54.03 78.06 54.83 77.41 51.61 78.35 48.49 79.58 48.83 79.27 49.16 78.96 49.48 78.66 49.8 78.37 50.1 78.09 50.4 77.81 50.68 77.54 50.96 77.28" fill="none" stroke="#aaa" stroke-miterlimit="10" stroke-width=".5"/>
  <polyline points="42.87 56.9 39.59 60.6 35.5 63.36 32.66 64.57 29.78 65.61 28.54 66.7 29 68.29 32.55 72.31 36.44 76.03 33.02 74.65 29.5 73.62 30.41 74.34 31.71 74.84 34.77 75.57 37.91 75.64 40.98 74.55 42.93 71.96 44.81 74.55 47.84 75.64 50.97 75.57 54.03 74.84 55.34 74.34 56.22 73.62 52.64 74.65 49.16 76.03 49.56 75.66 49.94 75.3 50.32 74.96 50.68 74.62 51.03 74.29 51.38 73.97 51.71 73.66 52.03 73.35" fill="none" stroke="#aaa" stroke-miterlimit="10" stroke-width=".5"/>
  <polyline points="42.9 51.18 39.18 55.29 34.57 58.35 31.36 59.7 28.11 60.87 26.71 62.08 27.23 63.87 31.26 68.34 35.66 72.47 31.82 70.98 27.88 69.88 28.89 70.7 30.36 71.27 33.8 72.09 37.32 72.19 40.76 71.02 42.96 68.16 45.1 71.02 48.49 72.19 52.01 72.09 55.44 71.27 56.92 70.7 57.91 69.88 53.9 70.98 50 72.47 50.48 72.04 50.94 71.62 51.39 71.22 51.82 70.82 52.23 70.44 52.64 70.07 53.03 69.7 53.41 69.35" fill="none" stroke="#aaa" stroke-miterlimit="10" stroke-width=".5"/>
  <polyline points="42.92 45.55 38.81 50.06 33.72 53.41 30.17 54.89 26.57 56.18 25.02 57.51 25.6 59.48 30.06 64.39 34.93 68.92 30.7 67.3 26.35 66.11 27.46 67.03 29.09 67.66 32.88 68.56 36.77 68.68 40.54 67.41 42.98 64.29 45.35 67.41 49.09 68.68 52.97 68.56 56.76 67.66 58.39 67.03 59.49 66.11 55.07 67.29 50.78 68.92 51.32 68.43 51.86 67.95 52.36 67.49 52.87 67.03 53.34 66.6 53.81 66.17 54.25 65.76 54.69 65.36" fill="none" stroke="#aaa" stroke-miterlimit="10" stroke-width=".5"/>
  <polyline points="42.91 40.18 38.55 45.05 33.11 48.68 29.33 50.27 25.49 51.65 23.84 53.08 24.45 55.18 29.19 60.48 34.39 65.36 29.84 63.58 25.17 62.25 26.36 63.21 28.1 63.88 32.16 64.84 36.33 64.95 40.38 63.55 42.98 60.15 45.5 63.55 49.52 64.95 53.68 64.84 57.73 63.88 59.48 63.21 60.66 62.25 55.92 63.58 51.31 65.36 51.9 64.83 52.49 64.29 53.04 63.78 53.59 63.28 54.1 62.8 54.61 62.33 55.09 61.88 55.56 61.43" fill="none" stroke="#aaa" stroke-miterlimit="10" stroke-width=".5"/>
  <polyline points="42.88 35.1 38.41 40.29 32.79 44.18 28.91 45.85 24.94 47.29 23.23 48.78 23.85 50.99 28.72 56.6 34.06 61.81 29.3 59.83 24.4 58.29 25.65 59.24 27.45 59.93 31.68 60.92 36.03 60.99 40.29 59.4 42.94 55.73 45.52 59.41 49.75 60.99 54.08 60.92 58.31 59.93 60.11 59.24 61.35 58.29 56.38 59.83 51.56 61.81 52.17 61.23 52.78 60.66 53.35 60.12 53.92 59.57 54.45 59.06 54.98 58.55 55.47 58.07 55.96 57.6" fill="none" stroke="#aaa" stroke-miterlimit="10" stroke-width=".5"/>
  <polyline points="42.86 30.19 38.4 35.67 32.7 39.83 28.79 41.57 24.77 43.05 23.03 44.59 23.65 46.85 28.54 52.76 33.91 58.26 29.01 56.06 23.96 54.26 25.25 55.18 27.07 55.87 31.41 56.86 35.86 56.89 40.27 55.08 42.92 51.13 45.5 55.08 49.88 56.89 54.32 56.86 58.65 55.87 60.48 55.18 61.74 54.26 56.63 56.05 51.67 58.26 52.29 57.65 52.9 57.04 53.47 56.47 54.04 55.9 54.57 55.36 55.1 54.82 55.6 54.32 56.09 53.81" fill="none" stroke="#aaa" stroke-miterlimit="10" stroke-width=".5"/>
  <polyline points="42.86 25.35 38.45 31.12 32.7 35.53 28.79 37.34 24.75 38.84 22.99 40.42 23.6 42.75 28.48 48.92 33.84 54.7 28.86 52.27 23.74 50.21 25.05 51.08 26.89 51.77 31.28 52.76 35.78 52.73 40.31 50.68 42.93 46.46 45.48 50.68 49.97 52.73 54.46 52.76 58.85 51.77 60.69 51.08 61.98 50.21 56.79 52.27 51.75 54.7 52.36 54.06 52.97 53.43 53.54 52.82 54.11 52.22 54.64 51.66 55.17 51.1 55.66 50.57 56.15 50.04" fill="none" stroke="#aaa" stroke-miterlimit="10" stroke-width=".5"/>
  <polyline points="42.94 20.57 38.6 26.61 32.83 31.28 28.95 33.15 24.91 34.67 23.14 36.29 23.74 38.66 28.57 45.09 33.89 51.15 28.9 48.49 23.76 46.14 25.09 46.95 26.92 47.63 31.33 48.62 35.84 48.52 40.45 46.22 43.01 41.73 45.5 46.22 50.07 48.52 54.57 48.62 58.98 47.63 60.81 46.95 62.12 46.14 56.91 48.49 51.86 51.15 52.46 50.48 53.06 49.82 53.62 49.19 54.18 48.57 54.71 47.98 55.23 47.39 55.71 46.84 56.2 46.29" fill="none" stroke="#aaa" stroke-miterlimit="10" stroke-width=".5"/>
  <polyline points="42.93 15.85 38.68 22.14 32.94 27.08 29.1 29 25.09 30.54 23.31 32.19 23.9 34.59 28.66 41.27 33.9 47.6 28.92 44.69 23.8 42.05 25.13 42.79 26.94 43.46 31.35 44.43 35.84 44.27 40.51 41.69 43 36.94 45.42 41.69 50.04 44.27 54.53 44.43 58.92 43.46 60.74 42.79 62.05 42.05 56.86 44.69 51.82 47.6 52.41 46.91 52.99 46.21 53.54 45.57 54.09 44.92 54.61 44.31 55.12 43.7 55.59 43.13 56.07 42.55" fill="none" stroke="#aaa" stroke-miterlimit="10" stroke-width=".5"/>
  <polyline points="42.91 11.19 38.78 17.72 33.09 22.92 29.32 24.9 25.36 26.44 23.59 28.12 24.16 30.54 28.82 37.46 33.96 44.04 29 40.88 23.93 37.94 25.26 38.59 27.05 39.25 31.42 40.2 35.88 39.96 40.57 37.1 42.99 32.1 45.32 37.1 49.97 39.96 54.42 40.2 58.78 39.25 60.57 38.59 61.88 37.94 56.74 40.88 51.73 44.04 52.3 43.33 52.87 42.62 53.4 41.95 53.94 41.28 54.43 40.65 54.93 40.02 55.39 39.44 55.85 38.85" fill="none" stroke="#aaa" stroke-miterlimit="10" stroke-width=".5"/>
  <polyline points="43.14 6.54 39.14 13.32 33.51 18.78 29.83 20.8 25.92 22.35 24.17 24.05 24.71 26.5 29.25 33.65 34.27 40.49 29.37 37.07 24.35 33.82 25.67 34.38 27.44 35.03 31.77 35.96 36.18 35.65 40.89 32.48 43.21 27.24 45.46 32.48 50.12 35.65 54.52 35.96 58.85 35.03 60.62 34.38 61.92 33.82 56.83 37.07 51.86 40.49 52.41 39.76 52.96 39.03 53.48 38.34 53.99 37.65 54.47 37.01 54.95 36.36 55.4 35.76 55.85 35.15" fill="none" stroke="#aaa" stroke-miterlimit="10" stroke-width=".5"/>
</svg>