<?xml version="1.0" encoding="UTF-8"?>
<svg id="Ebene_1" xmlns="http://www.w3.org/2000/svg" width="222" height="222" viewBox="0 0 222 222">
  <polyline points="49.37 148.45 52.71 144.93 56.05 141.4 44.28 132 32.51 122.59 32.47 122.54 32.48 122.48 32.51 122.43 32.57 122.41 36.77 122.41 40.97 122.41 40.2 117.39 39.44 112.37 25.69 112.37 11.94 112.37 9.6 117.06 7.25 121.75 9.17 134.26 11.08 146.77 16.62 146.76 22.16 146.75 24.49 142.08 26.83 137.41 26.24 133.56 25.65 129.7 25.66 129.64 25.7 129.6 25.76 129.59 25.82 129.61 37.59 139.03 49.37 148.45" fill="none" stroke="#aaa" stroke-miterlimit="10" stroke-width=".5"/>
  <polyline points="56.31 141.39 56.3 141.43 56.28 141.46 52.87 145.06 49.46 148.66 49.39 148.69 49.32 148.67 37.6 139.3 25.89 129.94 26.47 133.67 27.04 137.41 27.04 137.44 27.03 137.47 24.67 142.19 22.31 146.9 22.28 146.94 22.22 146.96 16.61 146.97 10.99 146.98 10.92 146.95 10.89 146.89 8.96 134.32 7.04 121.75 7.04 121.72 7.05 121.69 9.42 116.95 11.79 112.22 11.82 112.18 11.88 112.16 25.7 112.16 39.53 112.16 39.59 112.19 39.63 112.25 40.41 117.37 41.19 122.5 41.19 122.54 41.16 122.58 41.13 122.61 41.09 122.61 36.98 122.61 32.87 122.61 44.57 131.96 56.27 141.31 56.3 141.35 56.31 141.39 56.31 141.39 56.31 141.39" fill="none" stroke="#aaa" stroke-miterlimit="10" stroke-width=".5"/>
  <polyline points="49.48 148.59 49.48 148.61 49.47 148.63 47.11 153.37 44.74 158.1 44.71 158.14 44.67 158.16 44.62 158.16 44.58 158.14 34.58 150.12 24.57 142.11 24.53 142.04 24.55 141.96 24.62 141.93 24.7 141.95 34.65 149.92 44.61 157.89 46.95 153.22 49.29 148.54 49.35 148.49 49.43 148.49 49.47 148.53 49.48 148.59" fill="none" stroke="#aaa" stroke-miterlimit="10" stroke-width=".5"/>
  <polyline points="27.04 137.43 27.01 137.5 26.94 137.53 21.33 137.53 15.73 137.53 15.66 137.51 15.62 137.44 13.7 124.86 11.78 112.28 11.8 112.2 11.86 112.16 11.94 112.18 11.98 112.25 13.9 124.79 15.82 137.32 21.38 137.32 26.94 137.32 27.01 137.35 27.04 137.43" fill="none" stroke="#aaa" stroke-miterlimit="10" stroke-width=".5"/>
  <polyline points="15.83 137.43 15.83 137.45 15.82 137.47 13.45 142.2 11.08 146.92 11.02 146.97 10.95 146.97 10.89 146.91 10.9 146.83 13.27 142.1 15.63 137.38 15.69 137.33 15.77 137.34 15.81 137.37 15.83 137.43" fill="none" stroke="#aaa" stroke-miterlimit="10" stroke-width=".5"/>
  <polyline points="41.19 122.51 41.19 122.53 41.18 122.56 39.96 124.99 38.75 127.42 38.69 127.47 38.61 127.46 38.56 127.4 38.56 127.32 39.78 124.89 40.99 122.46 41.05 122.41 41.13 122.42 41.17 122.46 41.19 122.51" fill="none" stroke="#aaa" stroke-miterlimit="10" stroke-width=".5"/>
  <polyline points="56.31 141.39 56.31 141.42 56.3 141.44 53.93 146.17 51.56 150.91 51.55 150.92 51.55 150.93 48.13 154.53 44.72 158.13 44.65 158.16 44.57 158.13 44.54 158.06 44.57 157.98 47.98 154.39 51.38 150.8 53.75 146.07 56.11 141.35 56.17 141.29 56.25 141.3 56.29 141.34 56.31 141.39" fill="none" stroke="#aaa" stroke-miterlimit="10" stroke-width=".5"/>
</svg>