<?xml version="1.0" encoding="UTF-8"?>
<svg id="Ebene_1" xmlns="http://www.w3.org/2000/svg" width="222" height="222" viewBox="0 0 222 222">
  <polyline points="41.11 177.39 32.39 186.58 23.67 195.77 35.23 205.01 46.79 214.25 55.51 205.06 64.23 195.87 52.67 186.63 41.11 177.39" fill="none" stroke="#aaa" stroke-miterlimit="10" stroke-width=".5"/>
  <polyline points="23.41 195.78 23.42 195.74 23.44 195.71 32.23 186.44 41.02 177.18 41.09 177.15 41.16 177.17 52.81 186.47 64.45 195.78 64.48 195.81 64.49 195.85 64.48 195.89 64.46 195.93 55.67 205.19 46.87 214.46 46.8 214.49 46.73 214.47 35.09 205.17 23.45 195.86 23.42 195.83 23.41 195.79 23.41 195.78 23.41 195.78" fill="none" stroke="#aaa" stroke-miterlimit="10" stroke-width=".5"/>
  <polyline points="23.41 195.78 23.41 195.76 23.42 195.73 25.49 191.58 27.57 187.42 27.57 187.41 27.58 187.4 36.38 178.13 45.17 168.87 45.24 168.83 45.31 168.86 56.95 178.16 68.59 187.46 68.63 187.52 68.62 187.59 66.55 191.75 64.48 195.9 64.42 195.96 64.34 195.95 64.29 195.89 64.29 195.81 66.35 191.69 68.4 187.57 56.83 178.33 45.25 169.08 36.5 178.3 27.74 187.53 25.67 191.68 23.61 195.83 23.55 195.88 23.47 195.87 23.42 195.84 23.41 195.78" fill="none" stroke="#aaa" stroke-miterlimit="10" stroke-width=".5"/>
  <polyline points="40.99 177.25 41 177.23 41 177.2 43.08 173.05 45.15 168.89 45.21 168.84 45.29 168.85 45.34 168.91 45.34 168.98 43.26 173.14 41.19 177.3 41.13 177.35 41.05 177.34 41.01 177.3 40.99 177.25" fill="none" stroke="#aaa" stroke-miterlimit="10" stroke-width=".5"/>
  <polyline points="43.04 190.01 40.3 192.9 37.55 195.8 41.2 198.71 44.85 201.63 47.6 198.73 50.34 195.84 46.69 192.93 43.04 190.01" fill="none" stroke="#aaa" stroke-miterlimit="10" stroke-width=".5"/>
  <polyline points="37.3 195.81 37.31 195.77 37.33 195.74 40.14 192.77 42.96 189.8 43.03 189.77 43.1 189.79 46.83 192.77 50.56 195.75 50.58 195.78 50.6 195.82 50.59 195.87 50.57 195.9 47.75 198.87 44.94 201.84 44.87 201.87 44.8 201.85 41.07 198.87 37.34 195.89 37.31 195.86 37.3 195.81 37.3 195.81 37.3 195.81" fill="none" stroke="#aaa" stroke-miterlimit="10" stroke-width=".5"/>
  <polyline points="44.76 201.77 44.76 201.74 44.77 201.72 46.63 197.99 48.49 194.26 48.55 194.21 48.63 194.21 48.68 194.27 48.68 194.35 46.81 198.08 44.95 201.81 44.89 201.87 44.81 201.86 44.77 201.82 44.76 201.77" fill="none" stroke="#aaa" stroke-miterlimit="10" stroke-width=".5"/>
</svg>