<?xml version="1.0" encoding="UTF-8"?>
<svg id="Ebene_1" xmlns="http://www.w3.org/2000/svg" width="222" height="222" viewBox="0 0 222 222">
  <polyline points="41.55 48.75 47.09 44.36 53.12 40.69 56.26 39.27 59.37 37.84 61.71 35.62 63.2 32.74 65.56 25.41 67.49 17.94 67.1 22.59 64.43 26.07 60.77 25.49 57.24 24.2 52.98 23.31 48.84 24.48 44.29 31.13 42.19 39.03 39.87 31.08 35.4 24.22 32.15 23.2 28.86 24.21 27.17 25.2 25.5 25.48 26.59 19.96 28.24 14.54 28.35 15.39 28.45 16.25 28.54 17.06 28.63 17.87 28.71 18.64 28.79 19.4 28.87 20.12 28.93 20.85" fill="none" stroke="#aaa" stroke-miterlimit="10" stroke-width=".5"/>
  <polyline points="41.58 52.15 47.17 47.98 53.21 44.52 56.41 43.14 59.57 41.72 61.9 39.56 63.39 36.72 65.62 29.69 67.41 22.52 67.08 26.88 64.5 30.05 60.85 29.41 57.33 28.12 53.06 27.22 48.89 28.29 44.34 34.57 42.22 42.15 39.88 34.52 35.38 28.05 32.08 27.11 28.76 28.13 27.07 29.11 25.38 29.5 26.58 24.34 28.29 19.29 28.4 20.12 28.5 20.95 28.6 21.74 28.69 22.53 28.77 23.27 28.85 24.01 28.92 24.71 28.99 25.42" fill="none" stroke="#aaa" stroke-miterlimit="10" stroke-width=".5"/>
  <polyline points="41.63 55.38 47.14 51.44 53.07 48.18 56.24 46.86 59.36 45.47 61.65 43.39 63.1 40.64 65.21 33.94 66.87 27.1 66.58 31.19 64.1 34.1 60.53 33.43 57.08 32.17 52.91 31.28 48.81 32.27 44.35 38.19 42.26 45.41 39.95 38.14 35.53 32.04 32.26 31.17 28.99 32.17 27.33 33.13 25.67 33.58 26.9 28.76 28.62 24.05 28.72 24.84 28.82 25.64 28.92 26.39 29.01 27.15 29.09 27.86 29.17 28.57 29.24 29.24 29.31 29.92" fill="none" stroke="#aaa" stroke-miterlimit="10" stroke-width=".5"/>
  <polyline points="41.69 58.54 47.05 54.83 52.8 51.76 55.9 50.5 58.95 49.16 61.16 47.17 62.57 44.53 64.54 38.17 66.08 31.67 65.81 35.52 63.43 38.19 59.98 37.5 56.65 36.28 52.61 35.42 48.64 36.34 44.34 41.9 42.31 48.74 40.05 41.84 35.76 36.12 32.57 35.31 29.39 36.29 27.78 37.21 26.17 37.7 27.4 33.2 29.09 28.8 29.19 29.56 29.29 30.32 29.38 31.03 29.47 31.75 29.55 32.43 29.62 33.11 29.69 33.75 29.76 34.39" fill="none" stroke="#aaa" stroke-miterlimit="10" stroke-width=".5"/>
  <polyline points="41.75 61.7 46.97 58.22 52.54 55.36 55.58 54.15 58.55 52.86 60.69 50.96 62.05 48.42 63.9 42.4 65.32 36.25 65.06 39.85 62.77 42.27 59.45 41.57 56.22 40.39 52.33 39.54 48.48 40.39 44.33 45.59 42.35 52.06 40.15 45.54 35.99 40.18 32.87 39.44 29.77 40.39 28.21 41.29 26.65 41.81 27.89 37.63 29.55 33.55 29.65 34.27 29.74 34.99 29.83 35.68 29.92 36.36 29.99 37 30.07 37.65 30.14 38.25 30.2 38.86" fill="none" stroke="#aaa" stroke-miterlimit="10" stroke-width=".5"/>
  <polyline points="41.8 64.96 46.95 61.71 52.41 59.04 55.43 57.88 58.37 56.63 60.47 54.8 61.79 52.34 63.51 46.65 64.79 40.83 64.55 44.16 62.34 46.31 59.1 45.58 55.95 44.42 52.16 43.58 48.38 44.35 44.34 49.19 42.4 55.3 40.22 49.14 36.13 44.15 33.04 43.48 29.99 44.42 28.46 45.3 26.92 45.88 28.21 42.04 29.86 38.31 29.96 38.99 30.05 39.68 30.14 40.33 30.23 40.99 30.3 41.6 30.38 42.22 30.44 42.79 30.51 43.37" fill="none" stroke="#aaa" stroke-miterlimit="10" stroke-width=".5"/>
  <polyline points="41.84 68.34 47.02 65.33 52.46 62.86 55.52 61.74 58.5 60.5 60.58 58.73 61.89 56.32 63.47 50.93 64.59 45.41 64.38 48.48 62.22 50.3 59.02 49.51 55.9 48.35 52.14 47.5 48.38 48.18 44.39 52.65 42.43 58.43 40.24 52.59 36.16 47.99 33.04 47.4 29.99 48.35 28.45 49.22 26.92 49.91 28.29 46.43 29.96 43.06 30.06 43.72 30.16 44.38 30.25 45.01 30.34 45.64 30.41 46.23 30.49 46.82 30.55 47.38 30.62 47.93" fill="none" stroke="#aaa" stroke-miterlimit="10" stroke-width=".5"/>
  <polyline points="41.86 71.82 47.15 69.05 52.66 66.78 55.8 65.7 58.86 64.45 60.95 62.72 62.27 60.34 63.7 55.22 64.66 49.98 64.45 52.78 62.34 54.25 59.14 53.37 56.01 52.19 52.24 51.33 48.45 51.91 44.46 56 42.46 61.46 40.21 55.95 36.13 51.73 32.96 51.23 29.89 52.2 28.33 53.08 26.79 53.89 28.22 50.82 29.89 47.81 29.99 48.46 30.1 49.1 30.19 49.71 30.28 50.32 30.36 50.89 30.43 51.46 30.5 52 30.56 52.54" fill="none" stroke="#aaa" stroke-miterlimit="10" stroke-width=".5"/>
  <polyline points="41.89 75.32 47.3 72.8 52.9 70.72 56.15 69.68 59.31 68.42 61.41 66.73 62.73 64.38 64.01 59.53 64.78 54.56 64.6 57.09 62.54 58.18 59.33 57.21 56.18 56.02 52.38 55.13 48.55 55.61 44.55 59.32 42.48 64.48 40.17 59.28 36.08 55.45 32.87 55.04 29.77 56.03 28.18 56.93 26.63 57.86 28.11 55.19 29.77 52.57 29.88 53.19 29.98 53.81 30.08 54.4 30.17 54.99 30.25 55.54 30.33 56.09 30.4 56.61 30.47 57.13" fill="none" stroke="#aaa" stroke-miterlimit="10" stroke-width=".5"/>
  <polyline points="41.93 78.8 47.45 76.52 53.11 74.63 56.45 73.63 59.69 72.36 61.79 70.72 63.11 68.4 64.23 63.82 64.82 59.14 64.64 61.41 62.66 62.13 59.46 61.08 56.3 59.88 52.5 58.96 48.64 59.34 44.65 62.68 42.53 67.52 40.16 62.64 36.09 59.19 32.84 58.87 29.72 59.88 28.11 60.81 26.56 61.84 28.1 59.58 29.72 57.32 29.76 57.93 29.8 58.55 29.84 59.12 29.87 59.7 29.89 60.24 29.91 60.79 29.93 61.29 29.94 61.8" fill="none" stroke="#aaa" stroke-miterlimit="10" stroke-width=".5"/>
  <polyline points="42.04 82.22 47.62 80.2 53.31 78.5 56.71 77.53 60.01 76.27 62.09 74.68 63.4 72.4 64.36 68.11 64.75 63.72 64.59 65.73 62.7 66.11 59.54 64.98 56.4 63.77 52.61 62.84 48.74 63.13 44.8 66.1 42.63 70.61 40.22 66.06 36.19 62.99 32.93 62.76 29.82 63.78 28.17 64.73 26.65 65.84 28.22 63.99 29.8 62.07 29.75 62.68 29.7 63.29 29.64 63.86 29.58 64.44 29.52 64.97 29.46 65.51 29.4 66.01 29.34 66.51" fill="none" stroke="#aaa" stroke-miterlimit="10" stroke-width=".5"/>
  <polyline points="42.05 85.6 47.67 83.84 53.35 82.31 56.83 81.38 60.19 80.14 62.34 78.6 63.76 76.37 64.79 72.4 65.23 68.29 64.75 70.08 62.86 70.1 59.63 68.92 56.41 67.7 52.61 66.77 48.73 66.96 44.85 69.56 42.63 73.74 40.16 69.52 36.15 66.83 32.68 66.69 29.33 67.71 27.07 68.79 24.84 69.87 24.58 68.52 25.37 66.83 25.41 67.42 25.44 68 25.47 68.55 25.5 69.11 25.52 69.62 25.54 70.14 25.56 70.62 25.58 71.1" fill="none" stroke="#aaa" stroke-miterlimit="10" stroke-width=".5"/>
  <polyline points="42.25 88.94 47.86 87.43 53.51 86.08 57.11 85.19 60.58 83.98 62.95 82.49 64.74 80.34 66.29 76.71 67.25 72.87 65.86 74.33 63.71 74.1 60.21 72.91 56.72 71.67 52.85 70.73 48.88 70.84 45.08 73.07 42.81 76.91 40.29 73.02 36.33 70.72 32.64 70.67 29.06 71.67 26.14 72.86 23.2 73.91 21.35 73.52 20.97 71.58 21.13 72.13 21.29 72.68 21.43 73.19 21.58 73.71 21.72 74.19 21.86 74.67 21.98 75.12 22.11 75.57" fill="none" stroke="#aaa" stroke-miterlimit="10" stroke-width=".5"/>
  <polyline points="42.5 92.25 48.06 90.99 53.63 89.82 57.3 88.97 60.87 87.79 63.43 86.34 65.52 84.29 67.48 81 68.91 77.45 66.82 78.49 64.4 78.12 60.69 76.91 56.99 75.65 53.07 74.73 49.06 74.74 45.36 76.62 43.04 80.1 40.47 76.57 36.61 74.64 32.81 74.67 29.12 75.66 25.81 76.88 22.46 77.96 20.1 77.99 18.51 76.33 18.74 76.84 18.97 77.35 19.19 77.82 19.41 78.29 19.62 78.75 19.83 79.18 20.03 79.61 20.22 80.02" fill="none" stroke="#aaa" stroke-miterlimit="10" stroke-width=".5"/>
  <polyline points="42.57 95.55 47.96 94.55 53.34 93.56 57.09 92.74 60.74 91.6 63.53 90.2 65.95 88.23 68.29 85.3 70.16 82.03 67.52 82.66 64.79 82.14 60.9 80.91 57.02 79.64 53.08 78.72 49.05 78.65 45.45 80.18 43.08 83.29 40.47 80.14 36.72 78.55 32.85 78.67 29.08 79.65 25.46 80.9 21.8 82.01 19 82.27 16.51 81.09 16.81 81.55 17.09 82 17.38 82.44 17.65 82.86 17.92 83.27 18.18 83.67 18.44 84.06 18.69 84.43" fill="none" stroke="#aaa" stroke-miterlimit="10" stroke-width=".5"/>
  <polyline points="42.64 98.89 47.8 98.14 52.93 97.33 56.76 96.54 60.51 95.43 63.57 94.06 66.35 92.19 69.06 89.58 71.37 86.6 68.22 86.82 65.09 86.15 61.04 84.89 56.99 83.61 53.05 82.69 49.02 82.53 45.56 83.73 43.12 86.46 40.45 83.69 36.82 82.44 32.88 82.65 29.05 83.61 25.15 84.89 21.23 86.05 17.97 86.52 14.78 85.84 15.13 86.24 15.46 86.64 15.79 87.02 16.12 87.39 16.44 87.75 16.75 88.1 17.05 88.44 17.36 88.77" fill="none" stroke="#aaa" stroke-miterlimit="10" stroke-width=".5"/>
  <polyline points="42.7 102.27 47.49 101.79 52.25 101.14 56.21 100.38 60.09 99.3 63.5 97.95 66.71 96.17 69.82 93.86 72.62 91.18 68.99 90.99 65.44 90.14 61.22 88.83 57 87.54 53.04 86.62 49 86.36 45.66 87.25 43.14 89.59 40.4 87.22 36.9 86.29 32.93 86.58 29.05 87.54 24.9 88.85 20.74 90.07 16.96 90.77 13.14 90.59 13.52 90.93 13.89 91.25 14.26 91.57 14.62 91.88 14.98 92.19 15.33 92.49 15.68 92.78 16.03 93.06" fill="none" stroke="#aaa" stroke-miterlimit="10" stroke-width=".5"/>
  <polyline points="42.75 105.7 46.69 105.48 50.61 105.02 54.77 104.26 58.86 103.22 62.92 101.86 66.84 100.18 70.51 98.16 73.92 95.76 69.84 95.17 65.85 94.11 61.45 92.75 57.05 91.42 53.06 90.49 49 90.13 45.77 90.74 43.15 92.67 40.33 90.71 36.95 90.07 32.94 90.46 29.01 91.43 24.63 92.77 20.24 94.07 15.92 95.03 11.52 95.35 11.89 95.59 12.27 95.84 12.65 96.08 13.02 96.31 13.39 96.54 13.76 96.77 14.13 97 14.49 97.22" fill="none" stroke="#aaa" stroke-miterlimit="10" stroke-width=".5"/>
  <polyline points="42.93 109.18 46.06 109.25 49.19 108.94 53.54 108.18 57.84 107.17 62.52 105.81 67.11 104.2 71.23 102.44 75.18 100.34 70.67 99.34 66.24 98.06 61.68 96.63 57.1 95.27 53.09 94.32 49 93.86 45.87 94.21 43.13 95.7 40.23 94.18 36.96 93.81 32.93 94.3 28.97 95.27 24.38 96.66 19.79 98.05 14.95 99.29 10.02 100.1 10.39 100.28 10.76 100.45 11.13 100.63 11.5 100.8 11.88 100.97 12.25 101.14 12.62 101.31 13 101.48" fill="none" stroke="#aaa" stroke-miterlimit="10" stroke-width=".5"/>
  <polyline points="43.08 112.7 46.23 113.09 49.42 112.89 53.89 112.17 58.29 111.15 63.05 109.8 67.75 108.23 71.84 106.68 75.84 104.91 71.07 103.51 66.35 101.99 61.72 100.49 57.07 99.09 53.06 98.12 48.99 97.55 45.94 97.67 43.09 98.71 40.13 97.65 36.98 97.51 32.97 98.1 29.03 99.09 24.33 100.53 19.64 102.02 14.45 103.56 9.19 104.85 9.56 104.98 9.92 105.1 10.29 105.23 10.66 105.36 11.03 105.49 11.4 105.62 11.77 105.74 12.14 105.87" fill="none" stroke="#aaa" stroke-miterlimit="10" stroke-width=".5"/>
  <polyline points="43.16 116.22 46.3 116.94 49.56 116.86 54.08 116.17 58.54 115.14 63.36 113.78 68.13 112.27 72.24 110.9 76.33 109.49 71.35 107.7 66.36 105.92 61.68 104.34 56.97 102.91 52.98 101.91 48.93 101.24 45.94 101.14 43.02 101.71 40.03 101.12 36.97 101.21 33.02 101.89 29.13 102.91 24.38 104.4 19.66 105.99 14.19 107.83 8.69 109.61 9.05 109.68 9.41 109.76 9.76 109.84 10.12 109.92 10.48 110 10.84 110.09 11.2 110.18 11.56 110.27" fill="none" stroke="#aaa" stroke-miterlimit="10" stroke-width=".5"/>
  <polyline points="43.22 119.72 46.34 120.76 49.67 120.8 54.24 120.15 58.74 119.1 63.6 117.75 68.43 116.3 72.57 115.1 76.74 114.07 71.56 111.89 66.33 109.86 61.62 108.21 56.85 106.74 52.89 105.72 48.87 104.95 45.89 104.64 42.92 104.73 39.95 104.63 36.98 104.93 33.1 105.71 29.27 106.74 24.48 108.27 19.73 109.96 14 112.12 8.3 114.36 8.61 114.39 8.92 114.41 9.23 114.44 9.54 114.48 9.86 114.51 10.17 114.55 10.49 114.6 10.8 114.64" fill="none" stroke="#aaa" stroke-miterlimit="10" stroke-width=".5"/>
  <polyline points="43.28 123.18 46.35 124.53 49.74 124.7 54.34 124.09 58.86 123.04 63.74 121.69 68.61 120.32 72.77 119.29 76.98 118.65 72.03 116.14 66.99 113.82 62.78 112.09 58.49 110.6 54.63 109.52 50.7 108.7 46.79 108.13 42.84 107.79 39 108.13 35.19 108.69 31.44 109.52 27.76 110.61 23.43 112.18 19.18 113.95 13.61 116.47 8.07 119.12 8.24 119.11 8.41 119.1 8.58 119.09 8.75 119.09 8.92 119.08 9.09 119.08 9.26 119.08 9.43 119.08" fill="none" stroke="#aaa" stroke-miterlimit="10" stroke-width=".5"/>
  <polyline points="43.33 126.59 46.33 128.24 49.78 128.55 54.38 127.98 58.89 126.94 63.76 125.61 68.65 124.31 72.81 123.46 77.04 123.22 72.29 120.41 67.44 117.79 63.64 116.01 59.72 114.5 55.94 113.37 52.11 112.49 47.5 111.64 42.87 110.88 38.37 111.64 33.9 112.5 30.26 113.38 26.68 114.51 22.72 116.11 18.85 117.95 13.42 120.84 8.07 123.87 8.09 123.87 8.11 123.86 8.13 123.86 8.15 123.85 8.17 123.85 8.19 123.85 8.22 123.84 8.24 123.84" fill="none" stroke="#aaa" stroke-miterlimit="10" stroke-width=".5"/>
  <polyline points="43.09 129.96 46 131.89 49.5 132.36 54.06 131.84 58.55 130.8 63.39 129.49 68.25 128.29 72.41 127.63 76.6 127.8 72.01 124.68 67.28 121.78 63.74 119.95 60.05 118.44 56.36 117.28 52.6 116.33 47.61 115.18 42.61 114.02 37.82 115.19 33.02 116.33 29.51 117.26 26.08 118.4 22.46 119.99 18.97 121.86 13.86 125.02 8.87 128.35" fill="none" stroke="#aaa" stroke-miterlimit="10" stroke-width=".5"/>
  <polyline points="42.96 133.3 45.75 135.5 49.28 136.13 53.77 135.66 58.18 134.64 62.88 133.36 67.62 132.25 71.62 131.79 75.59 132.38 71.29 128.96 66.81 125.79 63.56 123.92 60.13 122.4 56.54 121.22 52.9 120.21 47.67 118.76 42.47 117.19 37.53 118.75 32.56 120.2 29.25 121.17 26 122.33 22.79 123.88 19.76 125.77 15.22 129.14 10.84 132.73" fill="none" stroke="#aaa" stroke-miterlimit="10" stroke-width=".5"/>
  <polyline points="42.86 136.67 45.54 139.12 49.11 139.93 53.51 139.52 57.83 138.5 62.33 137.26 66.89 136.22 70.62 135.96 74.19 136.96 70.3 133.23 66.17 129.79 63.23 127.86 60.07 126.34 56.6 125.13 53.08 124.05 47.68 122.29 42.36 120.32 37.35 122.28 32.26 124.03 29.12 125.06 26.05 126.24 23.22 127.77 20.64 129.69 16.71 133.31 12.98 137.14" fill="none" stroke="#aaa" stroke-miterlimit="10" stroke-width=".5"/>
  <polyline points="42.74 140.2 45.39 142.92 49.06 143.9 53.46 143.53 57.76 142.49 62.16 141.25 66.61 140.27 70.16 140.16 73.37 141.53 69.8 137.48 65.93 133.71 63.22 131.7 60.22 130.15 56.79 128.88 53.31 127.72 47.71 125.66 42.23 123.32 37.1 125.64 31.87 127.7 28.83 128.79 25.86 130.02 23.34 131.57 21.13 133.55 17.75 137.45 14.6 141.56" fill="none" stroke="#aaa" stroke-miterlimit="10" stroke-width=".5"/>
  <polyline points="42.61 143.95 45.31 146.94 49.18 148.1 53.71 147.74 58.14 146.66 62.58 145.38 67.08 144.4 70.58 144.42 73.58 146.11 70.16 141.68 66.39 137.55 63.77 135.41 60.8 133.78 57.29 132.43 53.73 131.18 47.83 128.82 42.07 126.11 36.75 128.78 31.29 131.14 28.24 132.32 25.27 133.62 22.91 135.24 20.94 137.32 17.96 141.56 15.23 145.99" fill="none" stroke="#aaa" stroke-miterlimit="10" stroke-width=".5"/>
  <polyline points="42.48 147.85 45.31 151.15 49.44 152.47 54.21 152.11 58.88 150.96 63.48 149.62 68.15 148.6 71.73 148.71 74.64 150.69 71.21 145.84 67.4 141.31 64.74 139.01 61.69 137.27 58 135.83 54.27 134.46 48 131.81 41.91 128.76 36.3 131.76 30.52 134.41 27.39 135.69 24.32 137.09 22.02 138.8 20.19 141.02 17.47 145.64 15.02 150.41" fill="none" stroke="#aaa" stroke-miterlimit="10" stroke-width=".5"/>
  <polyline points="42.32 151.78 45.3 155.37 49.7 156.86 54.73 156.5 59.64 155.28 64.42 153.87 69.27 152.82 72.94 153.02 75.76 155.27 72.33 150.01 68.47 145.07 65.77 142.61 62.62 140.76 58.73 139.21 54.82 137.73 48.16 134.79 41.72 131.39 35.8 134.73 29.69 137.67 26.46 139.04 23.31 140.55 21.08 142.36 19.42 144.71 17 149.69 14.88 154.81" fill="none" stroke="#aaa" stroke-miterlimit="10" stroke-width=".5"/>
  <polyline points="42.04 155.55 45.1 159.41 49.71 161.08 54.89 160.74 59.93 159.46 64.75 158.01 69.65 156.96 73.27 157.3 75.78 159.85 72.52 154.21 68.79 148.9 66.16 146.3 63.02 144.37 59.04 142.74 55.04 141.16 48.1 137.92 41.42 134.17 35.32 137.84 28.99 141.08 25.79 142.53 22.69 144.13 20.75 146.02 19.52 148.45 17.88 153.75 16.49 159.13" fill="none" stroke="#aaa" stroke-miterlimit="10" stroke-width=".5"/>
  <polyline points="41.57 159.01 44.58 163.1 49.27 164.98 54.4 164.68 59.4 163.4 64.03 161.97 68.75 160.97 72.18 161.57 74.1 164.42 71.22 158.49 67.84 152.85 65.45 150.2 62.47 148.23 58.54 146.56 54.61 144.91 47.62 141.35 40.94 137.22 34.92 141.22 28.66 144.79 25.91 146.23 23.36 147.96 22.65 150.02 22.91 152.25 24.07 157.73 25.14 163.23" fill="none" stroke="#aaa" stroke-miterlimit="10" stroke-width=".5"/>
  <polyline points="41.58 162.08 44.39 166.35 49 168.47 53.97 168.25 58.81 167.02 63.3 165.66 67.9 164.82 71.4 165.81 73.19 169 70.31 162.84 66.9 156.97 64.58 154.35 61.66 152.42 57.88 150.76 54.13 149.06 47.35 145.16 40.96 140.63 35.2 145.02 29.14 148.96 26.55 150.44 24.14 152.16 23.5 154.24 23.76 156.45 24.85 162.21 25.79 168" fill="none" stroke="#aaa" stroke-miterlimit="10" stroke-width=".5"/>
  <polyline points="41.64 164.79 44.13 169.18 48.49 171.59 53.08 171.47 57.56 170.34 61.74 169.11 66.03 168.52 69.49 170.06 71.06 173.58 68.27 167.27 64.94 161.25 62.8 158.73 60.05 156.9 56.57 155.32 53.17 153.58 46.87 149.31 41.06 144.37 35.81 149.17 30.19 153.5 27.89 155.02 25.72 156.69 25.19 158.71 25.44 160.84 26.4 166.84 27.16 172.88" fill="none" stroke="#aaa" stroke-miterlimit="10" stroke-width=".5"/>
  <polyline points="41.75 167.25 43.83 171.69 47.78 174.44 51.83 174.46 55.78 173.46 59.51 172.41 63.34 172.11 66.63 174.32 68.02 178.15 65.43 171.76 62.3 165.63 60.41 163.28 57.92 161.58 54.84 160.11 51.9 158.36 46.27 153.67 41.23 148.33 36.66 153.55 31.64 158.32 29.71 159.83 27.84 161.42 27.46 163.36 27.68 165.37 28.46 171.63 29 177.91" fill="none" stroke="#aaa" stroke-miterlimit="10" stroke-width=".5"/>
  <polyline points="41.9 169.64 43.56 174.09 46.99 177.21 50.42 177.38 53.78 176.53 57 175.65 60.31 175.67 63.38 178.58 64.66 182.73 62.33 176.27 59.47 170.04 57.86 167.87 55.66 166.32 52.99 164.96 50.55 163.22 45.66 158.08 41.43 152.35 37.57 157.97 33.23 163.21 31.67 164.71 30.12 166.2 29.86 168.05 30.05 169.94 30.64 176.47 30.98 183.01" fill="none" stroke="#aaa" stroke-miterlimit="10" stroke-width=".5"/>
  <polyline points="42.03 172.15 43.36 176.63 46.31 180.13 49.19 180.42 52.02 179.7 54.81 178.98 57.64 179.28 60.44 182.83 61.62 187.31 59.56 180.75 56.98 174.39 55.63 172.38 53.7 170.96 51.38 169.67 49.38 167.94 45.15 162.34 41.62 156.26 38.41 162.26 34.72 167.97 33.47 169.45 32.18 170.87 31.99 172.63 32.13 174.43 32.54 181.25 32.71 188.08" fill="none" stroke="#aaa" stroke-miterlimit="10" stroke-width=".5"/>
  <polyline points="42.12 174.96 43.25 179.54 45.85 183.34 48.34 183.74 50.83 183.1 53.33 182.5 55.8 183.02 58.39 187.09 59.51 191.89 57.64 185.17 55.25 178.62 54.07 176.71 52.29 175.35 50.2 174.11 48.5 172.36 44.77 166.33 41.75 159.91 39 166.28 35.79 172.41 34.76 173.9 33.63 175.29 33.46 177.01 33.57 178.75 33.83 185.89 33.89 193.03" fill="none" stroke="#aaa" stroke-miterlimit="10" stroke-width=".5"/>
  <polyline points="42.16 178.12 43.3 182.86 45.85 186.92 48.15 187.4 50.47 186.79 52.8 186.24 55.05 186.91 57.5 191.39 58.57 196.46 56.78 189.5 54.48 182.7 53.37 180.8 51.65 179.46 49.65 178.2 48.09 176.42 44.6 170 41.8 163.24 39.27 169.97 36.27 176.49 35.35 178 34.29 179.41 34.13 181.13 34.21 182.89 34.41 190.35 34.41 197.81" fill="none" stroke="#aaa" stroke-miterlimit="10" stroke-width=".5"/>
</svg>