<?xml version="1.0" encoding="UTF-8"?><svg id="Ebene_1" xmlns="http://www.w3.org/2000/svg" viewBox="0 0 222 222"><polyline points="251.12 1.66 244.69 2.7 238.39 4.31 235.25 5.58 232.48 7.48 231.48 8.97 231.29 10.73 231.81 12.26 232.71 13.62 233.65 14.68 234.64 15.68 235.03 16.11 234.97 16.49 233.26 16.1 231.58 15.58 226.99 14.06 222.39 12.51 229.05 13.3 235.71 14.15 239.98 14.73 244.24 15.32 246.76 15.65 249.28 15.9 250.69 15.94 252.08 15.78 253.06 15.41 253.94 14.84 255.04 13.91 256.13 12.96 257.99 11.45 259.93 10.03 263.21 7.91 266.61 5.94" style="fill:none; stroke:#aaa; stroke-miterlimit:10; stroke-width:.5px;"/><polyline points="246.47 1.66 239.82 2.7 233.29 4.31 230.04 5.57 227.15 7.48 226.11 8.95 225.87 10.72 226.39 12.25 227.29 13.6 228.22 14.65 229.21 15.66 229.59 16.1 229.46 16.47 227.64 16.09 225.85 15.58 221.03 14.07 216.21 12.54 223.11 13.32 230.01 14.17 234.4 14.74 238.79 15.32 241.36 15.65 243.92 15.9 245.35 15.93 246.75 15.76 247.73 15.38 248.62 14.8 249.75 13.86 250.88 12.9 252.84 11.36 254.89 9.93 258.39 7.76 262 5.77" style="fill:none; stroke:#aaa; stroke-miterlimit:10; stroke-width:.5px;"/><polyline points="241.78 1.66 234.9 2.71 228.14 4.32 224.78 5.58 221.77 7.49 220.69 8.95 220.42 10.74 220.93 12.27 221.83 13.62 222.77 14.68 223.76 15.69 224.13 16.14 223.93 16.5 222.01 16.14 220.11 15.62 215.07 14.13 210.03 12.61 217.18 13.38 224.32 14.22 228.84 14.79 233.36 15.37 235.98 15.69 238.6 15.94 240.03 15.97 241.45 15.8 242.44 15.41 243.33 14.82 244.51 13.85 245.68 12.88 247.75 11.31 249.91 9.85 253.63 7.64 257.46 5.62" style="fill:none; stroke:#aaa; stroke-miterlimit:10; stroke-width:.5px;"/><polyline points="237 1.66 229.88 2.72 222.89 4.35 219.42 5.62 216.29 7.56 215.16 9.03 214.87 10.84 215.38 12.39 216.29 13.75 217.24 14.81 218.24 15.84 218.61 16.31 218.36 16.66 216.34 16.31 214.35 15.78 209.1 14.29 203.86 12.75 211.25 13.53 218.64 14.38 223.31 14.95 227.97 15.54 230.65 15.86 233.33 16.1 234.78 16.13 236.21 15.95 237.23 15.55 238.13 14.94 239.35 13.95 240.58 12.95 242.76 11.34 245.04 9.85 248.98 7.58 253.03 5.5" style="fill:none; stroke:#aaa; stroke-miterlimit:10; stroke-width:.5px;"/><polyline points="232.04 1.66 224.69 2.75 217.46 4.42 213.87 5.73 210.63 7.71 209.46 9.21 209.15 11.07 209.68 12.66 210.62 14.05 211.59 15.15 212.61 16.19 212.99 16.68 212.72 17.04 210.62 16.68 208.55 16.15 203.11 14.62 197.68 13.05 205.35 13.84 213 14.71 217.82 15.3 222.64 15.9 225.4 16.23 228.15 16.48 229.64 16.5 231.11 16.31 232.15 15.88 233.09 15.25 234.36 14.22 235.64 13.18 237.95 11.5 240.35 9.96 244.51 7.59 248.78 5.44" style="fill:none; stroke:#aaa; stroke-miterlimit:10; stroke-width:.5px;"/><polyline points="226.85 1.66 219.25 2.8 211.77 4.55 208.06 5.91 204.72 7.99 203.52 9.56 203.21 11.5 203.76 13.16 204.74 14.62 205.76 15.76 206.83 16.86 207.23 17.36 206.98 17.74 204.82 17.36 202.7 16.8 197.1 15.2 191.5 13.55 199.46 14.39 207.41 15.3 212.41 15.92 217.4 16.55 220.27 16.89 223.12 17.15 224.67 17.17 226.2 16.96 227.29 16.51 228.26 15.84 229.6 14.74 230.96 13.64 233.38 11.87 235.92 10.23 240.28 7.74 244.77 5.46" style="fill:none; stroke:#aaa; stroke-miterlimit:10; stroke-width:.5px;"/><polyline points="221.37 1.66 213.5 2.87 205.77 4.74 201.93 6.2 198.5 8.42 197.26 10.11 196.98 12.17 197.57 13.94 198.62 15.5 199.71 16.73 200.86 17.89 201.3 18.41 201.1 18.83 198.93 18.41 196.78 17.81 191.05 16.08 185.32 14.32 193.6 15.23 201.87 16.22 207.08 16.88 212.28 17.56 215.27 17.92 218.26 18.19 219.9 18.21 221.5 17.98 222.67 17.48 223.71 16.75 225.13 15.56 226.57 14.38 229.12 12.47 231.78 10.7 236.35 8.02 241.05 5.57" style="fill:none; stroke:#aaa; stroke-miterlimit:10; stroke-width:.5px;"/><polyline points="215.61 1.66 207.47 2.97 199.48 5 195.51 6.59 191.99 8.99 190.73 10.85 190.48 13.08 191.14 15 192.27 16.7 193.46 18.03 194.71 19.29 195.19 19.82 195.11 20.3 192.94 19.82 190.81 19.17 184.98 17.27 179.15 15.34 187.77 16.34 196.38 17.43 201.83 18.17 207.27 18.91 210.41 19.31 213.57 19.6 215.31 19.61 217.02 19.34 218.28 18.79 219.4 17.99 220.93 16.68 222.46 15.38 225.14 13.29 227.94 11.35 232.71 8.43 237.62 5.74" style="fill:none; stroke:#aaa; stroke-miterlimit:10; stroke-width:.5px;"/><polyline points="209.67 1.66 201.24 3.09 192.99 5.3 188.88 7.05 185.28 9.67 184 11.73 183.8 14.14 184.54 16.24 185.78 18.1 187.07 19.57 188.44 20.94 188.98 21.5 189.04 22.03 186.9 21.48 184.8 20.77 178.89 18.66 172.97 16.53 181.96 17.66 190.94 18.87 196.64 19.69 202.34 20.5 205.66 20.94 208.99 21.25 210.86 21.26 212.69 20.96 214.06 20.33 215.28 19.44 216.91 18 218.54 16.55 221.36 14.26 224.31 12.11 229.27 8.91 234.39 5.96" style="fill:none; stroke:#aaa; stroke-miterlimit:10; stroke-width:.5px;"/><polyline points="203.66 1.66 194.94 3.22 186.42 5.63 182.16 7.54 178.5 10.39 177.2 12.67 177.05 15.28 177.87 17.57 179.22 19.6 180.62 21.2 182.13 22.69 182.73 23.28 182.93 23.88 180.83 23.25 178.77 22.47 172.79 20.13 166.79 17.8 176.16 19.06 185.51 20.41 191.47 21.31 197.44 22.21 200.94 22.69 204.46 23.02 206.46 23.02 208.43 22.67 209.91 21.98 211.23 20.99 212.97 19.4 214.72 17.79 217.67 15.27 220.77 12.91 225.93 9.4 231.26 6.16" style="fill:none; stroke:#aaa; stroke-miterlimit:10; stroke-width:.5px;"/><polyline points="197.7 1.66 188.68 3.34 179.9 5.94 175.51 8.02 171.77 11.09 170.46 13.58 170.35 16.38 171.25 18.85 172.7 21.06 174.21 22.79 175.85 24.4 176.5 25.03 176.85 25.67 174.78 24.96 172.76 24.12 166.69 21.57 160.61 19.03 170.35 20.42 180.08 21.9 186.3 22.89 192.53 23.87 196.21 24.39 199.91 24.74 202.04 24.73 204.13 24.34 205.73 23.57 207.14 22.49 209 20.75 210.85 18.98 213.95 16.24 217.21 13.65 222.57 9.84 228.13 6.3" style="fill:none; stroke:#aaa; stroke-miterlimit:10; stroke-width:.5px;"/><polyline points="191.89 1.66 182.6 3.45 173.56 6.22 169.03 8.45 165.21 11.71 163.88 14.38 163.81 17.35 164.77 19.99 166.31 22.34 167.92 24.19 169.67 25.9 170.38 26.57 170.84 27.24 168.79 26.47 166.78 25.58 160.62 22.84 154.44 20.12 164.54 21.63 174.62 23.22 181.09 24.29 187.56 25.33 191.41 25.89 195.27 26.26 197.52 26.25 199.71 25.81 201.41 24.97 202.9 23.79 204.87 21.92 206.83 20.01 210.08 17.06 213.48 14.27 219.07 10.18 224.86 6.38" style="fill:none; stroke:#aaa; stroke-miterlimit:10; stroke-width:.5px;"/><polyline points="186.35 1.66 176.79 3.54 167.49 6.44 162.83 8.78 158.93 12.2 157.57 15 157.52 18.11 158.53 20.87 160.14 23.34 161.83 25.28 163.66 27.07 164.41 27.77 164.94 28.48 162.88 27.65 160.85 26.72 154.57 23.84 148.26 20.98 158.7 22.58 169.12 24.26 175.81 25.38 182.5 26.49 186.48 27.07 190.48 27.45 192.82 27.42 195.1 26.96 196.88 26.05 198.44 24.8 200.51 22.8 202.56 20.78 205.96 17.65 209.52 14.69 215.34 10.36 221.38 6.33" style="fill:none; stroke:#aaa; stroke-miterlimit:10; stroke-width:.5px;"/><polyline points="181.1 1.66 171.29 3.6 161.75 6.58 156.96 9 152.96 12.52 151.56 15.41 151.52 18.61 152.56 21.46 154.22 24.01 155.95 26.01 157.84 27.86 158.62 28.57 159.17 29.3 157.06 28.45 154.99 27.49 148.55 24.52 142.08 21.58 152.83 23.23 163.57 24.97 170.45 26.13 177.33 27.27 181.41 27.86 185.52 28.25 187.92 28.21 190.26 27.72 192.09 26.76 193.71 25.45 195.85 23.36 197.99 21.25 201.55 17.98 205.26 14.89 211.35 10.38 217.66 6.18" style="fill:none; stroke:#aaa; stroke-miterlimit:10; stroke-width:.5px;"/><polyline points="176.11 1.66 166.05 3.63 156.28 6.67 151.37 9.12 147.26 12.71 145.83 15.64 145.77 18.9 146.83 21.8 148.51 24.38 150.27 26.42 152.19 28.3 152.97 29.02 153.51 29.77 151.33 28.91 149.18 27.93 142.56 24.91 135.9 21.93 146.95 23.61 157.97 25.38 165.01 26.56 172.06 27.71 176.22 28.31 180.4 28.7 182.85 28.65 185.22 28.13 187.09 27.14 188.74 25.79 190.96 23.63 193.18 21.46 196.89 18.09 200.77 14.91 207.13 10.26 213.73 5.94" style="fill:none; stroke:#aaa; stroke-miterlimit:10; stroke-width:.5px;"/><polyline points="171.31 1.66 161.02 3.65 151.01 6.71 145.99 9.18 141.76 12.79 140.28 15.73 140.21 19.02 141.26 21.94 142.96 24.54 144.74 26.59 146.66 28.48 147.44 29.22 147.94 29.97 145.65 29.12 143.42 28.13 136.58 25.11 129.73 22.11 141.04 23.79 152.34 25.57 159.52 26.75 166.71 27.91 170.93 28.51 175.18 28.9 177.64 28.84 180.03 28.3 181.92 27.28 183.59 25.91 185.88 23.7 188.17 21.48 192.04 18.04 196.08 14.8 202.74 10.05 209.64 5.64" style="fill:none; stroke:#aaa; stroke-miterlimit:10; stroke-width:.5px;"/><polyline points="166.62 1.66 156.11 3.65 145.87 6.72 140.74 9.18 136.39 12.8 134.86 15.74 134.75 19.04 135.8 21.96 137.5 24.57 139.28 26.61 141.21 28.51 141.98 29.25 142.41 30.01 140.02 29.17 137.67 28.18 130.62 25.17 123.55 22.17 135.13 23.85 146.68 25.63 154 26.8 161.32 27.96 165.59 28.56 169.88 28.93 172.35 28.87 174.75 28.32 176.66 27.27 178.34 25.89 180.69 23.64 183.05 21.4 187.08 17.9 191.29 14.62 198.26 9.79 205.46 5.32" style="fill:none; stroke:#aaa; stroke-miterlimit:10; stroke-width:.5px;"/><polyline points="161.99 1.66 151.25 3.65 140.78 6.72 135.54 9.17 131.07 12.79 129.5 15.71 129.35 19.01 130.39 21.93 132.1 24.53 133.87 26.57 135.79 28.46 136.55 29.21 136.91 29.96 134.4 29.14 131.94 28.16 124.67 25.17 117.37 22.19 129.21 23.85 141.02 25.62 148.46 26.78 155.91 27.93 160.22 28.52 164.55 28.9 167.02 28.83 169.42 28.26 171.34 27.2 173.04 25.8 175.44 23.52 177.88 21.25 182.08 17.71 186.46 14.4 193.74 9.51 201.27 4.99" style="fill:none; stroke:#aaa; stroke-miterlimit:10; stroke-width:.5px;"/><polyline points="157.38 1.66 146.41 3.65 135.71 6.71 130.37 9.15 125.78 12.76 124.15 15.66 123.97 18.97 125 21.88 126.7 24.46 128.47 26.49 130.38 28.39 131.13 29.13 131.42 29.89 128.79 29.09 126.22 28.11 118.71 25.14 111.19 22.18 123.28 23.83 135.35 25.59 142.92 26.74 150.49 27.88 154.84 28.47 159.21 28.83 161.69 28.76 164.08 28.18 166.01 27.1 167.72 25.68 170.19 23.38 172.7 21.09 177.07 17.5 181.63 14.17 189.24 9.22 197.09 4.65" style="fill:none; stroke:#aaa; stroke-miterlimit:10; stroke-width:.5px;"/><polyline points="152.76 1.66 141.58 3.64 130.65 6.7 125.19 9.13 120.48 12.74 118.8 15.61 118.58 18.92 119.61 21.82 121.3 24.4 123.07 26.42 124.97 28.31 125.71 29.06 125.92 29.82 123.18 29.04 120.49 28.05 112.76 25.12 105.02 22.18 117.36 23.8 129.69 25.55 137.38 26.7 145.07 27.84 149.46 28.41 153.86 28.77 156.34 28.69 158.74 28.1 160.68 27 162.4 25.57 164.93 23.24 167.52 20.94 172.07 17.31 176.81 13.94 184.75 8.93 192.93 4.32" style="fill:none; stroke:#aaa; stroke-miterlimit:10; stroke-width:.5px;"/><polyline points="148.15 1.66 136.75 3.64 125.59 6.69 120.03 9.11 115.19 12.71 113.46 15.56 113.21 18.87 114.22 21.76 115.91 24.33 117.68 26.34 119.57 28.23 120.3 28.99 120.43 29.74 117.57 28.98 114.77 28 106.81 25.09 98.84 22.16 111.44 23.78 124.02 25.51 131.84 26.65 139.65 27.78 144.07 28.35 148.51 28.7 150.99 28.61 153.39 28.01 155.33 26.89 157.07 25.46 159.67 23.1 162.34 20.78 167.06 17.11 171.98 13.71 180.27 8.65 188.79 4" style="fill:none; stroke:#aaa; stroke-miterlimit:10; stroke-width:.5px;"/><polyline points="143.58 1.66 131.95 3.63 120.57 6.67 114.9 9.07 109.94 12.66 108.16 15.49 107.87 18.79 108.87 21.67 110.56 24.22 112.31 26.22 114.19 28.1 114.92 28.87 114.96 29.61 111.98 28.87 109.05 27.9 100.86 25.02 92.66 22.12 105.52 23.72 118.35 25.44 126.28 26.56 134.21 27.68 138.67 28.24 143.14 28.59 145.62 28.49 148.01 27.89 149.96 26.75 151.71 25.31 154.38 22.92 157.12 20.6 162.03 16.89 167.14 13.47 175.77 8.36 184.64 3.67" style="fill:none; stroke:#aaa; stroke-miterlimit:10; stroke-width:.5px;"/><polyline points="139.1 1.66 127.25 3.62 115.65 6.64 109.87 9.01 104.78 12.57 102.96 15.35 102.61 18.65 103.6 21.5 105.27 24.02 107.01 26 108.86 27.87 109.58 28.65 109.52 29.37 106.41 28.66 103.35 27.69 94.92 24.87 86.48 22.01 99.58 23.57 112.66 25.27 120.7 26.37 128.74 27.48 133.22 28.03 137.71 28.37 140.18 28.27 142.56 27.66 144.51 26.51 146.26 25.07 149 22.67 151.82 20.34 156.92 16.61 162.22 13.18 171.22 8.05 180.44 3.33" style="fill:none; stroke:#aaa; stroke-miterlimit:10; stroke-width:.5px;"/><polyline points="134.77 1.66 122.72 3.59 110.89 6.56 105.01 8.89 99.79 12.41 97.91 15.12 97.51 18.37 98.46 21.18 100.11 23.66 101.83 25.6 103.64 27.44 104.34 28.23 104.15 28.93 100.89 28.25 97.69 27.3 89 24.55 80.31 21.76 93.63 23.28 106.94 24.93 115.07 26.01 123.2 27.09 127.69 27.63 132.18 27.96 134.62 27.85 136.97 27.24 138.91 26.1 140.67 24.67 143.47 22.26 146.37 19.95 151.65 16.23 157.16 12.82 166.53 7.69 176.13 2.99" style="fill:none; stroke:#aaa; stroke-miterlimit:10; stroke-width:.5px;"/><polyline points="130.67 1.66 118.42 3.55 106.38 6.44 100.4 8.7 95.04 12.12 93.11 14.72 92.63 17.91 93.54 20.64 95.15 23.04 96.82 24.93 98.57 26.73 99.24 27.53 98.88 28.19 95.45 27.55 92.07 26.64 83.1 24 74.13 21.3 87.66 22.76 101.17 24.35 109.37 25.38 117.56 26.43 122.03 26.95 126.5 27.26 128.9 27.16 131.2 26.55 133.11 25.42 134.85 24.02 137.71 21.65 140.66 19.39 146.15 15.71 151.84 12.36 161.61 7.29 171.59 2.66" style="fill:none; stroke:#aaa; stroke-miterlimit:10; stroke-width:.5px;"/><polyline points="126.86 1.66 114.42 3.47 102.18 6.25 96.11 8.4 90.6 11.68 88.6 14.14 88.04 17.22 88.88 19.83 90.42 22.12 92.02 23.92 93.68 25.64 94.31 26.48 93.74 27.06 90.11 26.49 86.52 25.62 77.23 23.14 67.95 20.59 81.66 21.95 95.34 23.45 103.57 24.42 111.8 25.42 116.21 25.91 120.64 26.2 122.95 26.1 125.18 25.52 127.04 24.42 128.75 23.08 131.65 20.77 134.66 18.59 140.35 15.01 146.24 11.77 156.42 6.83 166.8 2.33" style="fill:none; stroke:#aaa; stroke-miterlimit:10; stroke-width:.5px;"/><polyline points="123.33 1.65 110.72 3.37 98.28 5.99 92.12 8.01 86.45 11.09 84.4 13.35 83.71 16.29 84.48 18.74 85.93 20.88 87.44 22.57 88.98 24.2 89.52 25.09 88.72 25.55 84.85 25.06 81.03 24.25 71.4 21.98 61.77 19.62 75.62 20.86 89.45 22.24 97.68 23.13 105.91 24.06 110.24 24.51 114.59 24.79 116.8 24.7 118.93 24.14 120.72 23.1 122.37 21.83 125.31 19.62 128.37 17.57 134.26 14.14 140.34 11.06 150.96 6.32 161.75 2.02" style="fill:none; stroke:#aaa; stroke-miterlimit:10; stroke-width:.5px;"/><polyline points="120 1.65 107.23 3.25 94.6 5.68 88.36 7.54 82.53 10.4 80.43 12.43 79.59 15.19 80.27 17.46 81.61 19.43 83.01 20.97 84.4 22.49 84.76 23.44 83.79 23.77 79.67 23.35 75.58 22.63 65.58 20.59 55.6 18.45 69.56 19.55 83.51 20.79 91.72 21.59 99.93 22.43 104.16 22.83 108.4 23.08 110.49 22.99 112.5 22.47 114.2 21.48 115.79 20.31 118.76 18.22 121.85 16.32 127.96 13.1 134.24 10.22 145.31 5.77 156.53 1.73" style="fill:none; stroke:#aaa; stroke-miterlimit:10; stroke-width:.5px;"/><polyline points="116.77 1.65 103.84 3.12 91.03 5.35 84.69 7.04 78.71 9.66 76.56 11.46 75.56 14.02 76.14 16.09 77.37 17.87 78.65 19.27 79.89 20.68 79.96 21.64 78.9 21.86 74.51 21.53 70.15 20.89 59.78 19.09 49.42 17.19 63.49 18.15 77.54 19.24 85.71 19.94 93.88 20.67 98 21.02 102.13 21.23 104.09 21.14 105.97 20.65 107.57 19.72 109.1 18.65 112.09 16.72 115.2 14.98 121.5 12 127.96 9.37 139.45 5.26 151.07 1.55 151.06 1.54 151.05 1.54 151.04 1.54 151.03 1.53 151.02 1.53 151.01 1.53 151 1.52 150.99 1.52 150.98 1.52 150.97 1.51 150.95 1.51 150.94 1.51 150.93 1.5 150.92 1.5 150.91 1.5 150.9 1.49" style="fill:none; stroke:#aaa; stroke-miterlimit:10; stroke-width:.5px;"/><polyline points="113.52 1.65 100.43 2.99 87.43 5.02 81 6.56 74.86 8.93 72.67 10.51 71.51 12.87 71.99 14.75 73.11 16.36 74.27 17.61 75.37 18.9 75.13 19.82 74 20 69.35 19.74 64.72 19.18 53.98 17.62 43.24 15.94 57.39 16.76 71.52 17.71 79.66 18.31 87.79 18.95 91.81 19.25 95.83 19.42 97.67 19.33 99.44 18.88 100.94 18.02 102.38 17.06 105.35 15.29 108.45 13.74 114.87 11.02 121.42 8.65 133.2 4.91 145.09 1.55 145.03 1.53 144.98 1.52 144.92 1.5 144.86 1.48 144.81 1.47 144.75 1.45 144.69 1.44 144.63 1.42 144.58 1.41 144.52 1.39 144.46 1.38 144.41 1.36 144.35 1.34 144.29 1.33 144.24 1.31 144.18 1.3" style="fill:none; stroke:#aaa; stroke-miterlimit:10; stroke-width:.5px;"/><polyline points="110.12 1.64 96.86 2.88 83.68 4.73 77.15 6.12 70.86 8.28 68.65 9.67 67.32 11.85 67.71 13.56 68.73 15 69.79 16.13 70.75 17.31 70.24 18.18 69.04 18.34 64.14 18.14 59.26 17.65 48.16 16.29 37.06 14.81 51.3 15.52 65.53 16.33 73.65 16.86 81.76 17.41 85.7 17.66 89.63 17.81 91.36 17.72 93.02 17.29 94.43 16.51 95.8 15.64 98.76 14.02 101.84 12.62 108.38 10.15 115.04 8 127.1 4.6 139.25 1.55 139.14 1.52 139.04 1.5 138.93 1.47 138.83 1.45 138.72 1.42 138.62 1.39 138.52 1.37 138.41 1.34 138.31 1.32 138.2 1.29 138.1 1.27 138 1.24 137.89 1.22 137.79 1.19 137.69 1.17 137.59 1.14" style="fill:none; stroke:#aaa; stroke-miterlimit:10; stroke-width:.5px;"/><polyline points="106.49 1.64 93.04 2.79 79.67 4.5 73.04 5.77 66.6 7.76 64.36 9 62.9 11.03 63.21 12.6 64.15 13.92 65.12 14.95 65.98 16.04 65.25 16.86 63.97 17.01 58.85 16.85 53.74 16.42 42.31 15.22 30.89 13.9 45.24 14.52 59.59 15.23 67.72 15.69 75.84 16.17 79.71 16.39 83.58 16.51 85.22 16.42 86.8 16.02 88.14 15.29 89.45 14.5 92.42 13 95.5 11.72 102.15 9.44 108.91 7.48 121.24 4.35 133.65 1.55 133.5 1.51 133.34 1.48 133.19 1.45 133.03 1.41 132.88 1.38 132.73 1.35 132.58 1.31 132.42 1.28 132.27 1.25 132.12 1.21 131.97 1.18 131.82 1.15 131.67 1.11 131.52 1.08 131.37 1.05 131.22 1.01" style="fill:none; stroke:#aaa; stroke-miterlimit:10; stroke-width:.5px;"/><polyline points="102.51 1.64 88.87 2.73 75.29 4.34 68.55 5.54 61.98 7.41 59.71 8.55 58.14 10.48 58.39 11.96 59.29 13.2 60.2 14.15 60.98 15.2 60.1 15.98 58.76 16.12 53.45 15.99 48.15 15.6 36.43 14.51 24.71 13.29 39.22 13.85 53.73 14.5 61.9 14.91 70.06 15.35 73.91 15.54 77.76 15.64 79.34 15.56 80.87 15.17 82.16 14.47 83.44 13.74 86.43 12.31 89.52 11.12 96.29 8.97 103.16 7.13 115.74 4.18 128.39 1.55 128.19 1.51 127.98 1.46 127.78 1.42 127.57 1.38 127.37 1.34 127.17 1.3 126.97 1.26 126.77 1.22 126.56 1.18 126.36 1.14 126.16 1.1 125.97 1.06 125.77 1.02 125.57 .98 125.37 .94 125.18 .9" style="fill:none; stroke:#aaa; stroke-miterlimit:10; stroke-width:.5px;"/><polyline points="98.08 1.64 84.22 2.7 70.42 4.28 63.57 5.46 56.88 7.28 54.57 8.4 52.93 10.28 53.17 11.73 54.05 12.94 54.94 13.87 55.69 14.89 54.73 15.66 53.34 15.8 47.9 15.69 42.47 15.32 30.5 14.26 18.53 13.08 33.25 13.62 47.96 14.24 56.23 14.64 64.48 15.06 68.36 15.24 72.23 15.34 73.8 15.25 75.32 14.87 76.6 14.18 77.87 13.46 80.9 12.07 84.02 10.91 90.91 8.8 97.89 7 110.7 4.12 123.59 1.55 123.33 1.5 123.07 1.45 122.81 1.4 122.56 1.35 122.3 1.3 122.05 1.25 121.79 1.2 121.54 1.15 121.29 1.1 121.04 1.05 120.79 1 120.54 .96 120.29 .91 120.05 .86 119.8 .81 119.56 .76" style="fill:none; stroke:#aaa; stroke-miterlimit:10; stroke-width:.5px;"/><polyline points="93.13 1.64 79.03 2.73 64.99 4.35 58.03 5.55 51.23 7.42 48.88 8.56 47.22 10.5 47.47 11.98 48.37 13.21 49.29 14.17 50.07 15.22 49.11 16 47.7 16.15 42.18 16.03 36.67 15.64 24.51 14.56 12.35 13.35 27.33 13.9 42.31 14.54 50.72 14.95 59.13 15.38 63.09 15.57 67.03 15.67 68.64 15.58 70.2 15.19 71.51 14.49 72.81 13.75 75.89 12.32 79.07 11.13 86.08 8.98 93.17 7.13 106.2 4.18 119.3 1.55 118.98 1.48 118.67 1.42 118.35 1.36 118.04 1.3 117.72 1.24 117.41 1.18 117.1 1.12 116.8 1.06 116.49 1 116.18 .94 115.88 .88 115.58 .82 115.28 .76 114.98 .7 114.68 .64 114.38 .58" style="fill:none; stroke:#aaa; stroke-miterlimit:10; stroke-width:.5px;"/><polyline points="87.66 1.64 73.3 2.8 59.01 4.53 51.92 5.82 45.02 7.82 42.63 9.05 41.01 11.11 41.3 12.7 42.27 14.03 43.25 15.05 44.11 16.17 43.23 17 41.84 17.15 36.29 17.01 30.76 16.59 18.46 15.4 6.18 14.09 21.47 14.69 36.76 15.4 45.39 15.85 54.01 16.32 58.09 16.54 62.17 16.65 63.87 16.56 65.51 16.15 66.89 15.4 68.26 14.61 71.41 13.09 74.68 11.81 81.8 9.51 89.02 7.53 102.24 4.37 115.53 1.55 115.15 1.47 114.77 1.39 114.4 1.31 114.02 1.24 113.65 1.16 113.28 1.08 112.91 1.01 112.55 .93 112.18 .85 111.82 .78 111.46 .7 111.1 .63 110.74 .55 110.39 .48 110.04 .4 109.69 .33" style="fill:none; stroke:#aaa; stroke-miterlimit:10; stroke-width:.5px;"/><polyline points="81.76 1.64 67.12 2.92 52.56 4.82 45.35 6.24 38.36 8.44 35.92 9.83 34.37 12.09 34.74 13.84 35.8 15.31 36.89 16.45 37.87 17.67 37.15 18.57 35.78 18.73 30.26 18.55 24.75 18.07 12.37 16.71 0 15.23 15.66 15.93 31.31 16.74 40.2 17.25 49.07 17.8 53.34 18.05 57.6 18.18 59.42 18.09 61.18 17.65 62.67 16.84 64.13 15.96 67.37 14.29 70.74 12.87 77.98 10.34 85.33 8.15 98.72 4.66 112.2 1.55 111.75 1.45 111.31 1.35 110.87 1.25 110.43 1.15 109.99 1.05 109.56 .96 109.13 .86 108.71 .76 108.28 .67 107.86 .57 107.44 .47 107.03 .38 106.61 .28 106.2 .19 105.79 .09 105.39 0" style="fill:none; stroke:#aaa; stroke-miterlimit:10; stroke-width:.5px;"/></svg>