<?xml version="1.0" encoding="UTF-8"?>
<svg id="Ebene_1" xmlns="http://www.w3.org/2000/svg" width="222" height="222" viewBox="0 0 222 222">
  <polyline points="109.76 0 123.15 3.07 136.41 6.66 143.76 9.07 150.92 11.99 154.35 13.78 157.55 15.95 159.07 17.26 160.59 18.55 162.34 19.4 164.28 19.75 168.6 19.8 172.91 19.54 181.82 18.78 190.72 17.92 206.36 16.38 222 14.85 221.08 15.03 220.17 15.21 219.27 15.38 218.39 15.55 217.52 15.72 216.67 15.88 215.83 16.05 215.01 16.2 214.2 16.36 213.41 16.51 212.62 16.66 211.85 16.81 211.1 16.95 210.36 17.09 209.63 17.23 208.91 17.36" fill="none" stroke="#aaa" stroke-miterlimit="10" stroke-width=".5"/>
  <polyline points="103.5 0 116.61 3.49 129.56 7.54 136.83 10.28 143.86 13.55 147.34 15.6 150.56 18.01 152.18 19.49 153.82 20.9 155.71 21.84 157.81 22.21 162.25 22.22 166.69 21.9 175.67 20.99 184.64 19.98 200.23 18.18 215.82 16.41 214.94 16.61 214.06 16.8 213.2 17 212.36 17.19 211.52 17.38 210.71 17.56 209.9 17.74 209.11 17.92 208.33 18.09 207.57 18.26 206.82 18.43 206.08 18.6 205.35 18.76 204.64 18.92 203.94 19.07 203.26 19.22" fill="none" stroke="#aaa" stroke-miterlimit="10" stroke-width=".5"/>
  <polyline points="97.24 0 110.09 3.92 122.73 8.45 129.91 11.53 136.82 15.16 140.33 17.47 143.57 20.12 145.28 21.76 147.05 23.32 149.09 24.32 151.33 24.72 155.91 24.69 160.48 24.31 169.53 23.24 178.56 22.06 194.1 20 209.65 17.97 208.79 18.19 207.95 18.4 207.12 18.62 206.31 18.83 205.51 19.03 204.72 19.23 203.95 19.43 203.19 19.63 202.44 19.82 201.7 20.01 200.98 20.19 200.27 20.37 199.58 20.55 198.89 20.73 198.22 20.9 197.56 21.06" fill="none" stroke="#aaa" stroke-miterlimit="10" stroke-width=".5"/>
  <polyline points="91.2 0 103.79 4.31 116.13 9.25 123.22 12.65 130.01 16.6 133.54 19.14 136.8 22.01 138.59 23.8 140.47 25.47 142.62 26.54 145 26.95 149.69 26.9 154.37 26.44 163.45 25.24 172.53 23.91 188 21.6 203.47 19.33 202.64 19.57 201.82 19.8 201.02 20.03 200.23 20.26 199.46 20.48 198.69 20.69 197.94 20.91 197.21 21.12 196.48 21.32 195.77 21.52 195.07 21.72 194.38 21.92 193.71 22.11 193.05 22.29 192.4 22.48 191.76 22.66" fill="none" stroke="#aaa" stroke-miterlimit="10" stroke-width=".5"/>
  <polyline points="85.56 0 97.89 4.6 109.96 9.86 116.95 13.49 123.62 17.68 127.14 20.41 130.41 23.43 132.26 25.34 134.22 27.09 136.45 28.21 138.93 28.64 143.69 28.55 148.42 28.04 157.51 26.73 166.58 25.29 181.93 22.8 197.29 20.34 196.48 20.59 195.67 20.84 194.88 21.08 194.11 21.32 193.34 21.56 192.59 21.79 191.86 22.01 191.13 22.24 190.42 22.46 189.72 22.67 189.04 22.88 188.36 23.09 187.7 23.29 187.05 23.49 186.42 23.68 185.8 23.87" fill="none" stroke="#aaa" stroke-miterlimit="10" stroke-width=".5"/>
  <polyline points="80.41 0 92.51 4.77 104.32 10.21 111.21 13.97 117.75 18.29 121.26 21.12 124.51 24.23 126.38 26.2 128.38 28 130.66 29.14 133.18 29.58 137.95 29.47 142.7 28.93 151.73 27.55 160.74 26.04 175.92 23.44 191.11 20.88 190.3 21.14 189.49 21.4 188.7 21.66 187.92 21.91 187.16 22.16 186.41 22.4 185.67 22.64 184.95 22.87 184.24 23.1 183.54 23.33 182.86 23.55 182.19 23.77 181.53 23.98 180.89 24.18 180.26 24.39 179.64 24.59" fill="none" stroke="#aaa" stroke-miterlimit="10" stroke-width=".5"/>
  <polyline points="75.8 0 87.67 4.8 99.26 10.26 106.03 14.05 112.46 18.38 115.92 21.23 119.12 24.35 120.99 26.32 122.99 28.13 125.25 29.27 127.77 29.7 132.5 29.59 137.2 29.04 146.12 27.65 155.02 26.12 169.97 23.5 184.94 20.91 184.11 21.19 183.28 21.46 182.48 21.73 181.69 21.99 180.91 22.25 180.15 22.5 179.4 22.75 178.67 22.99 177.95 23.23 177.25 23.46 176.56 23.69 175.88 23.91 175.22 24.13 174.57 24.34 173.94 24.55 173.31 24.76" fill="none" stroke="#aaa" stroke-miterlimit="10" stroke-width=".5"/>
  <polyline points="71.66 0 83.33 4.7 94.71 10.04 101.36 13.75 107.67 17.99 111.07 20.78 114.21 23.84 116.04 25.77 117.99 27.54 120.21 28.65 122.67 29.08 127.31 28.97 131.92 28.43 140.67 27.07 149.39 25.58 164.07 23.01 178.76 20.49 177.9 20.77 177.05 21.05 176.23 21.32 175.4 21.59 174.61 21.85 173.82 22.11 173.06 22.36 172.31 22.61 171.58 22.85 170.85 23.09 170.15 23.32 169.45 23.55 168.78 23.78 168.11 23.99 167.47 24.21 166.84 24.41" fill="none" stroke="#aaa" stroke-miterlimit="10" stroke-width=".5"/>
  <polyline points="67.92 0 79.38 4.49 90.58 9.61 97.1 13.15 103.3 17.22 106.61 19.88 109.68 22.82 111.44 24.67 113.32 26.37 115.46 27.44 117.83 27.86 122.33 27.76 126.81 27.25 135.34 25.96 143.86 24.54 158.22 22.1 172.58 19.69 171.69 19.97 170.8 20.26 169.94 20.54 169.08 20.81 168.26 21.08 167.44 21.34 166.65 21.6 165.86 21.85 165.11 22.09 164.35 22.33 163.63 22.56 162.91 22.8 162.22 23.02 161.54 23.24 160.88 23.45 160.22 23.65" fill="none" stroke="#aaa" stroke-miterlimit="10" stroke-width=".5"/>
  <polyline points="64.44 0 75.72 4.21 86.74 9.02 93.13 12.34 99.22 16.17 102.44 18.66 105.41 21.43 107.09 23.17 108.88 24.78 110.91 25.8 113.16 26.2 117.49 26.12 121.81 25.66 130.1 24.46 138.38 23.14 152.39 20.86 166.4 18.62 165.47 18.91 164.53 19.2 163.63 19.47 162.73 19.75 161.88 20.01 161.02 20.28 160.2 20.53 159.37 20.78 158.59 21.03 157.81 21.27 157.06 21.49 156.32 21.72 155.6 21.94 154.89 22.16 154.22 22.36 153.54 22.57" fill="none" stroke="#aaa" stroke-miterlimit="10" stroke-width=".5"/>
  <polyline points="61.15 0 72.24 3.88 83.1 8.33 89.35 11.39 95.33 14.94 98.44 17.24 101.32 19.81 102.91 21.43 104.58 22.93 106.49 23.89 108.61 24.26 112.76 24.2 116.89 23.79 124.92 22.7 132.93 21.5 146.58 19.42 160.23 17.37 159.24 17.66 158.26 17.94 157.32 18.22 156.37 18.49 155.48 18.75 154.58 19.01 153.72 19.26 152.87 19.51 152.05 19.75 151.24 19.98 150.46 20.21 149.69 20.43 148.96 20.64 148.22 20.85 147.53 21.05 146.83 21.25" fill="none" stroke="#aaa" stroke-miterlimit="10" stroke-width=".5"/>
  <polyline points="57.92 0 68.82 3.53 79.53 7.6 85.64 10.39 91.51 13.65 94.52 15.73 97.3 18.11 98.79 19.59 100.35 20.97 102.13 21.87 104.1 22.22 108.06 22.18 112.01 21.82 119.76 20.85 127.51 19.77 140.77 17.9 154.05 16.05 153.01 16.33 151.98 16.61 150.99 16.88 150 17.15 149.06 17.41 148.12 17.66 147.23 17.9 146.34 18.14 145.49 18.37 144.64 18.6 143.84 18.82 143.04 19.03 142.28 19.24 141.52 19.44 140.8 19.63 140.09 19.82" fill="none" stroke="#aaa" stroke-miterlimit="10" stroke-width=".5"/>
  <polyline points="54.65 0 65.36 3.2 75.91 6.91 81.88 9.43 87.64 12.41 90.54 14.29 93.23 16.47 94.63 17.82 96.07 19.1 97.73 19.93 99.56 20.25 103.33 20.24 107.1 19.93 114.59 19.07 122.07 18.11 134.97 16.42 147.87 14.77 146.79 15.04 145.7 15.32 144.67 15.58 143.64 15.84 142.66 16.09 141.68 16.34 140.75 16.57 139.82 16.81 138.94 17.03 138.06 17.25 137.23 17.45 136.4 17.66 135.62 17.86 134.84 18.05 134.11 18.23 133.37 18.41" fill="none" stroke="#aaa" stroke-miterlimit="10" stroke-width=".5"/>
  <polyline points="51.21 0 61.73 2.92 72.1 6.3 77.94 8.6 83.59 11.33 86.39 13.04 88.99 15.05 90.31 16.28 91.65 17.46 93.2 18.23 94.91 18.54 98.52 18.55 102.12 18.28 109.36 17.5 116.6 16.65 129.14 15.13 141.7 13.64 140.57 13.9 139.44 14.17 138.37 14.42 137.3 14.68 136.28 14.91 135.27 15.15 134.31 15.37 133.35 15.6 132.45 15.81 131.55 16.02 130.7 16.21 129.84 16.41 129.05 16.59 128.25 16.78 127.5 16.95 126.75 17.12" fill="none" stroke="#aaa" stroke-miterlimit="10" stroke-width=".5"/>
  <polyline points="47.5 0 57.82 2.7 68.01 5.84 73.72 7.96 79.25 10.5 81.97 12.08 84.49 13.96 85.74 15.1 87.01 16.2 88.47 16.93 90.09 17.22 93.56 17.24 97.02 17 104.04 16.29 111.07 15.51 123.29 14.12 135.52 12.75 134.35 13.01 133.19 13.27 132.09 13.51 130.99 13.76 129.95 13.99 128.91 14.22 127.93 14.43 126.95 14.65 126.03 14.85 125.11 15.05 124.24 15.24 123.38 15.42 122.57 15.6 121.76 15.77 121 15.93 120.24 16.09" fill="none" stroke="#aaa" stroke-miterlimit="10" stroke-width=".5"/>
  <polyline points="43.42 0 53.53 2.57 63.52 5.57 69.11 7.59 74.52 10.01 77.17 11.52 79.63 13.32 80.84 14.4 82.06 15.46 83.47 16.16 85.03 16.44 88.39 16.46 91.76 16.24 98.61 15.57 105.45 14.83 117.4 13.51 129.34 12.21 128.15 12.47 126.96 12.72 125.84 12.97 124.72 13.21 123.67 13.43 122.61 13.66 121.62 13.87 120.63 14.08 119.69 14.28 118.76 14.48 117.89 14.66 117.02 14.84 116.2 15.01 115.39 15.18 114.63 15.33 113.87 15.49" fill="none" stroke="#aaa" stroke-miterlimit="10" stroke-width=".5"/>
  <polyline points="38.86 0 48.76 2.56 58.53 5.54 64 7.56 69.29 9.96 71.9 11.47 74.31 13.25 75.51 14.33 76.72 15.38 78.12 16.08 79.67 16.35 82.98 16.37 86.29 16.14 93.02 15.47 99.74 14.73 111.45 13.41 123.16 12.11 121.97 12.37 120.78 12.64 119.65 12.88 118.53 13.13 117.47 13.36 116.41 13.59 115.42 13.81 114.43 14.02 113.5 14.23 112.57 14.42 111.7 14.61 110.83 14.8 110.03 14.97 109.22 15.14 108.47 15.29 107.72 15.45" fill="none" stroke="#aaa" stroke-miterlimit="10" stroke-width=".5"/>
  <polyline points="33.78 0 43.43 2.68 52.96 5.8 58.32 7.91 63.5 10.42 66.08 11.99 68.47 13.84 69.69 14.97 70.93 16.06 72.37 16.76 73.95 17.05 77.27 17.05 80.59 16.8 87.26 16.08 93.92 15.29 105.45 13.89 116.99 12.51 115.8 12.79 114.62 13.07 113.5 13.34 112.39 13.6 111.35 13.85 110.3 14.09 109.33 14.32 108.35 14.55 107.43 14.76 106.52 14.97 105.67 15.17 104.82 15.36 104.03 15.55 103.24 15.72 102.51 15.89 101.78 16.05" fill="none" stroke="#aaa" stroke-miterlimit="10" stroke-width=".5"/>
  <polyline points="28.19 0 37.59 2.94 46.84 6.33 52.1 8.64 57.16 11.36 59.75 13.09 62.13 15.08 63.4 16.31 64.73 17.47 66.24 18.22 67.91 18.51 71.3 18.49 74.67 18.19 81.33 17.39 87.98 16.49 99.39 14.94 110.81 13.4 109.65 13.7 108.49 14.01 107.4 14.3 106.32 14.58 105.3 14.85 104.28 15.12 103.33 15.37 102.38 15.61 101.49 15.84 100.61 16.07 99.78 16.29 98.96 16.5 98.2 16.69 97.44 16.89 96.73 17.07 96.03 17.24" fill="none" stroke="#aaa" stroke-miterlimit="10" stroke-width=".5"/>
  <polyline points="22.2 0 31.34 3.31 40.29 7.09 45.46 9.7 50.4 12.72 53 14.68 55.4 16.87 56.75 18.24 58.18 19.51 59.81 20.32 61.61 20.63 65.1 20.57 68.58 20.21 75.27 19.27 81.96 18.23 93.29 16.44 104.63 14.68 103.51 15.02 102.38 15.35 101.33 15.67 100.28 15.98 99.29 16.28 98.31 16.57 97.39 16.85 96.48 17.12 95.62 17.38 94.77 17.63 93.98 17.86 93.19 18.09 92.46 18.31 91.73 18.52 91.06 18.72 90.39 18.91" fill="none" stroke="#aaa" stroke-miterlimit="10" stroke-width=".5"/>
  <polyline points="15.97 0 24.85 3.75 33.49 8.02 38.57 10.98 43.39 14.36 46.01 16.59 48.44 19.02 49.88 20.56 51.44 21.96 53.2 22.84 55.16 23.17 58.78 23.07 62.38 22.63 69.14 21.52 75.88 20.31 87.16 18.24 98.45 16.2 97.37 16.57 96.28 16.95 95.26 17.3 94.25 17.65 93.3 17.98 92.35 18.31 91.47 18.61 90.59 18.91 89.77 19.2 88.96 19.48 88.2 19.74 87.45 19.99 86.76 20.23 86.07 20.47 85.43 20.68 84.8 20.9" fill="none" stroke="#aaa" stroke-miterlimit="10" stroke-width=".5"/>
  <polyline points="9.7 0 18.32 4.23 26.65 8.98 31.64 12.33 36.34 16.07 38.98 18.59 41.45 21.26 42.98 22.98 44.67 24.52 46.57 25.47 48.68 25.82 52.44 25.67 56.17 25.14 62.99 23.87 69.8 22.47 81.03 20.1 92.28 17.76 91.22 18.18 90.16 18.6 89.17 18.99 88.19 19.38 87.27 19.75 86.36 20.11 85.51 20.45 84.66 20.79 83.88 21.1 83.09 21.41 82.38 21.7 81.66 21.98 81 22.24 80.34 22.5 79.75 22.74 79.15 22.97" fill="none" stroke="#aaa" stroke-miterlimit="10" stroke-width=".5"/>
  <polyline points="3.62 0 11.97 4.67 20 9.86 24.89 13.56 29.48 17.64 32.14 20.41 34.63 23.32 36.24 25.19 38.05 26.86 40.08 27.88 42.32 28.25 46.19 28.05 50.03 27.44 56.91 26.01 63.76 24.43 74.92 21.79 86.1 19.17 85.05 19.64 84.01 20.1 83.04 20.54 82.08 20.97 81.18 21.38 80.29 21.78 79.46 22.15 78.64 22.53 77.88 22.87 77.13 23.21 76.44 23.52 75.75 23.84 75.13 24.12 74.5 24.41 73.94 24.66 73.37 24.92" fill="none" stroke="#aaa" stroke-miterlimit="10" stroke-width=".5"/>
  <polyline points="13.74 10.55 18.53 14.54 23 18.87 25.65 21.85 28.16 24.93 29.83 26.93 31.73 28.7 33.85 29.76 36.19 30.14 40.14 29.91 44.05 29.24 50.94 27.67 57.79 25.95 68.85 23.09 79.92 20.25 78.88 20.76 77.84 21.28 76.88 21.75 75.92 22.23 75.04 22.67 74.16 23.11 73.36 23.51 72.55 23.92 71.82 24.29 71.08 24.66 70.42 25 69.75 25.34 69.16 25.64 68.56 25.94 68.03 26.22 67.49 26.49" fill="none" stroke="#aaa" stroke-miterlimit="10" stroke-width=".5"/>
  <polyline points="8 10.97 12.68 15.13 17.04 19.62 19.67 22.73 22.17 25.91 23.87 27.99 25.82 29.81 27.98 30.91 30.38 31.29 34.36 31.03 38.29 30.32 45.13 28.67 51.94 26.86 62.84 23.86 73.74 20.88 72.7 21.43 71.66 21.98 70.71 22.49 69.75 23 68.88 23.47 68.01 23.94 67.21 24.37 66.42 24.8 65.7 25.19 64.99 25.59 64.34 25.94 63.7 26.29 63.13 26.61 62.56 26.93 62.05 27.21 61.55 27.49" fill="none" stroke="#aaa" stroke-miterlimit="10" stroke-width=".5"/>
  <polyline points="2.83 11.1 7.39 15.31 11.64 19.84 14.22 22.98 16.69 26.19 18.39 28.29 20.34 30.13 22.51 31.22 24.91 31.61 28.86 31.34 32.75 30.6 39.49 28.93 46.19 27.08 56.87 24.04 67.57 21.01 66.51 21.59 65.45 22.18 64.48 22.72 63.52 23.26 62.64 23.75 61.77 24.24 60.98 24.69 60.19 25.14 59.48 25.54 58.77 25.95 58.14 26.31 57.51 26.68 56.96 27 56.41 27.32 55.92 27.61 55.44 27.89" fill="none" stroke="#aaa" stroke-miterlimit="10" stroke-width=".5"/>
  <polyline points="6.76 19.54 9.28 22.63 11.7 25.8 13.36 27.86 15.27 29.67 17.4 30.75 19.76 31.13 23.62 30.86 27.43 30.13 34.01 28.48 40.55 26.66 50.96 23.66 61.39 20.66 60.31 21.27 59.23 21.87 58.25 22.43 57.27 22.98 56.39 23.48 55.51 23.99 54.72 24.45 53.93 24.9 53.22 25.31 52.52 25.72 51.9 26.09 51.29 26.45 50.75 26.77 50.21 27.09 49.75 27.37 49.29 27.65" fill="none" stroke="#aaa" stroke-miterlimit="10" stroke-width=".5"/>
  <polyline points="2.31 18.82 4.76 21.8 7.09 24.85 8.7 26.84 10.54 28.58 12.59 29.62 14.87 29.99 18.6 29.73 22.28 29.04 28.66 27.45 34.99 25.7 45.1 22.81 55.21 19.93 54.11 20.54 53.01 21.15 52.01 21.71 51.02 22.27 50.13 22.77 49.24 23.28 48.44 23.73 47.65 24.18 46.95 24.59 46.25 24.99 45.64 25.35 45.03 25.71 44.5 26.02 43.97 26.33 43.53 26.59 43.08 26.86" fill="none" stroke="#aaa" stroke-miterlimit="10" stroke-width=".5"/>
  <polyline points="2.78 23.5 4.31 25.38 6.06 27.03 8.01 28.02 10.17 28.37 13.74 28.14 17.27 27.48 23.4 25.99 29.5 24.34 39.27 21.62 49.03 18.91 47.91 19.51 46.79 20.12 45.78 20.67 44.77 21.22 43.87 21.71 42.97 22.21 42.17 22.65 41.37 23.09 40.67 23.48 39.97 23.88 39.36 24.22 38.75 24.56 38.24 24.86 37.72 25.15 37.28 25.4 36.85 25.65" fill="none" stroke="#aaa" stroke-miterlimit="10" stroke-width=".5"/>
  <polyline points="1.75 25.16 3.57 26.09 5.6 26.42 8.99 26.21 12.34 25.61 18.21 24.23 24.06 22.71 33.45 20.19 42.86 17.69 41.71 18.27 40.57 18.86 39.54 19.4 38.52 19.93 37.61 20.41 36.7 20.88 35.89 21.31 35.09 21.73 34.38 22.11 33.68 22.48 33.08 22.8 32.47 23.13 31.96 23.4 31.45 23.67 31.02 23.9 30.6 24.13" fill="none" stroke="#aaa" stroke-miterlimit="10" stroke-width=".5"/>
  <polyline points="7.45 23.6 13.05 22.34 18.63 20.96 27.65 18.66 36.68 16.37 35.51 16.94 34.35 17.51 33.3 18.02 32.26 18.53 31.34 18.98 30.41 19.44 29.6 19.84 28.79 20.24 28.09 20.59 27.38 20.94 26.78 21.25 26.17 21.55 25.67 21.8 25.16 22.05 24.74 22.26 24.32 22.47" fill="none" stroke="#aaa" stroke-miterlimit="10" stroke-width=".5"/>
  <polyline points="2.55 21.61 7.88 20.48 13.19 19.23 21.84 17.14 30.5 15.07 29.32 15.62 28.13 16.16 27.08 16.64 26.03 17.13 25.09 17.56 24.16 17.99 23.34 18.37 22.53 18.74 21.82 19.07 21.12 19.4 20.52 19.68 19.92 19.96 19.41 20.19 18.91 20.42 18.5 20.61 18.08 20.79" fill="none" stroke="#aaa" stroke-miterlimit="10" stroke-width=".5"/>
  <polyline points="7.73 17.68 16.02 15.79 24.32 13.91 23.13 14.42 21.93 14.94 20.86 15.4 19.8 15.87 18.86 16.27 17.92 16.68 17.11 17.04 16.29 17.4 15.58 17.7 14.88 18.01 14.28 18.27 13.69 18.52 13.19 18.74 12.7 18.94 12.29 19.11 11.89 19.28" fill="none" stroke="#aaa" stroke-miterlimit="10" stroke-width=".5"/>
  <polyline points="2.21 16.45 10.18 14.7 18.15 12.97 16.94 13.47 15.73 13.97 14.65 14.41 13.58 14.86 12.64 15.25 11.71 15.64 10.89 15.98 10.08 16.32 9.38 16.61 8.68 16.9 8.1 17.14 7.51 17.38 7.03 17.57 6.54 17.76 6.15 17.91 5.77 18.06" fill="none" stroke="#aaa" stroke-miterlimit="10" stroke-width=".5"/>
  <polyline points="11.97 12.35 10.74 12.85 9.52 13.35 8.44 13.79 7.37 14.23 6.43 14.61 5.49 15 4.69 15.33 3.88 15.66 3.2 15.93 2.51 16.21" fill="none" stroke="#aaa" stroke-miterlimit="10" stroke-width=".5"/>
  <polyline points="5.79 12.15 4.54 12.68 3.3 13.2" fill="none" stroke="#aaa" stroke-miterlimit="10" stroke-width=".5"/>
</svg>