<?xml version="1.0" encoding="UTF-8"?>
<svg id="Ebene_1" xmlns="http://www.w3.org/2000/svg" width="222" height="222" viewBox="0 0 222 222">
  <polyline points="212.63 0 217.8 3.3 222.73 6.93" fill="none" stroke="#aaa" stroke-miterlimit="10" stroke-width=".5"/>
  <polyline points="206.73 0 211.64 3.69 216.28 7.7 219.25 10.64 221.99 13.77" fill="none" stroke="#aaa" stroke-miterlimit="10" stroke-width=".5"/>
  <polyline points="200.58 0 205.21 4.17 209.56 8.63 212.41 11.96 215.05 15.43 216.77 17.89 218.46 20.36 219.7 21.98 221.18 23.39" fill="none" stroke="#aaa" stroke-miterlimit="10" stroke-width=".5"/>
  <polyline points="194.36 0 198.71 4.62 202.76 9.5 205.51 13.24 208.05 17.11 209.79 20 211.51 22.88 212.86 24.96 214.44 26.87 216.15 28.22 218.15 29.11" fill="none" stroke="#aaa" stroke-miterlimit="10" stroke-width=".5"/>
  <polyline points="188.29 0 192.36 5.04 196.13 10.29 198.77 14.4 201.21 18.62 202.96 21.87 204.7 25.12 206.16 27.58 207.83 29.89 209.65 31.69 211.8 33.07 214.72 34.16 217.8 34.76" fill="none" stroke="#aaa" stroke-miterlimit="10" stroke-width=".5"/>
  <polyline points="182.55 0 186.35 5.36 189.87 10.91 192.38 15.31 194.72 19.79 196.47 23.32 198.23 26.83 199.75 29.57 201.51 32.17 203.41 34.26 205.67 35.98 208.64 37.44 211.82 38.42 216.41 39.24 221.07 39.66" fill="none" stroke="#aaa" stroke-miterlimit="10" stroke-width=".5"/>
  <polyline points="177.29 0 180.83 5.57 184.1 11.28 186.49 15.86 188.74 20.51 190.46 24.21 192.22 27.88 193.77 30.81 195.57 33.58 197.53 35.88 199.84 37.82 202.82 39.53 206.04 40.77 210.58 41.9 215.21 42.63" fill="none" stroke="#aaa" stroke-miterlimit="10" stroke-width=".5"/>
  <polyline points="172.56 0 175.85 5.63 178.91 11.38 181.17 16.02 183.31 20.71 184.98 24.47 186.71 28.2 188.27 31.21 190.08 34.08 192.04 36.47 194.35 38.53 197.3 40.38 200.49 41.78 204.92 43.1 209.46 44.02 215.81 44.89 222.19 45.47 221.12 45.35 220.1 45.04 219.46 44.63 219 44.04 218.77 43.31 218.75 42.54 218.92 41.56 219.21 40.6 219.68 39.42 220.22 38.27 220.9 36.94 221.62 35.62" fill="none" stroke="#aaa" stroke-miterlimit="10" stroke-width=".5"/>
  <polyline points="168.32 0 171.39 5.55 174.25 11.2 176.38 15.79 178.41 20.41 180.03 24.14 181.7 27.83 183.23 30.83 185 33.69 186.93 36.09 189.19 38.19 192.05 40.08 195.17 41.54 199.43 42.95 203.81 43.97 209.89 44.97 216.02 45.69 215.03 45.49 214.1 45.09 213.53 44.6 213.16 43.95 212.99 43.14 213.02 42.32 213.24 41.28 213.56 40.27 214.06 39.05 214.62 37.85 215.32 36.48 216.06 35.13 216.89 33.64 217.72 32.15 218.6 30.57 219.47 28.98" fill="none" stroke="#aaa" stroke-miterlimit="10" stroke-width=".5"/>
  <polyline points="164.5 0 167.37 5.36 170.04 10.81 172.04 15.24 173.96 19.7 175.49 23.31 177.09 26.89 178.56 29.8 180.26 32.57 182.12 34.92 184.29 36.97 187.03 38.84 190.02 40.3 194.08 41.71 198.26 42.76 204.02 43.8 209.84 44.57 208.91 44.33 208.07 43.89 207.55 43.36 207.23 42.69 207.11 41.86 207.18 41.03 207.41 39.98 207.76 38.96 208.26 37.74 208.83 36.54 209.53 35.18 210.26 33.83 211.07 32.35 211.89 30.88 212.75 29.32 213.59 27.75" fill="none" stroke="#aaa" stroke-miterlimit="10" stroke-width=".5"/>
  <polyline points="160.98 0 163.66 5.08 166.15 10.25 168.03 14.46 169.83 18.69 171.27 22.12 172.78 25.51 174.17 28.28 175.78 30.92 177.54 33.16 179.6 35.12 182.19 36.91 185 38.31 188.83 39.68 192.77 40.69 198.19 41.71 203.66 42.47 202.8 42.22 202.02 41.78 201.54 41.24 201.26 40.59 201.16 39.77 201.24 38.95 201.49 37.93 201.83 36.93 202.34 35.74 202.89 34.58 203.57 33.25 204.28 31.94 205.07 30.52 205.86 29.09 206.68 27.58 207.48 26.07" fill="none" stroke="#aaa" stroke-miterlimit="10" stroke-width=".5"/>
  <polyline points="157.66 0 160.16 4.75 162.48 9.58 164.24 13.51 165.91 17.47 167.26 20.67 168.67 23.84 169.97 26.43 171.47 28.9 173.11 30.99 175.03 32.83 177.45 34.5 180.08 35.81 183.64 37.09 187.32 38.04 192.38 39 197.48 39.71 196.67 39.47 195.94 39.05 195.49 38.54 195.24 37.91 195.16 37.13 195.24 36.35 195.49 35.38 195.83 34.42 196.31 33.29 196.85 32.18 197.5 30.92 198.18 29.67 198.92 28.32 199.67 26.96 200.45 25.53 201.21 24.09" fill="none" stroke="#aaa" stroke-miterlimit="10" stroke-width=".5"/>
  <polyline points="154.44 0 156.76 4.39 158.92 8.85 160.55 12.48 162.1 16.14 163.35 19.1 164.65 22.03 165.85 24.42 167.24 26.7 168.75 28.63 170.53 30.33 172.76 31.86 175.19 33.07 178.49 34.24 181.9 35.11 186.58 35.98 191.31 36.62 190.54 36.41 189.85 36.02 189.44 35.55 189.2 34.96 189.13 34.24 189.22 33.51 189.45 32.59 189.77 31.7 190.24 30.63 190.75 29.59 191.36 28.41 192 27.24 192.7 25.96 193.41 24.69 194.13 23.35 194.84 22" fill="none" stroke="#aaa" stroke-miterlimit="10" stroke-width=".5"/>
  <polyline points="151.2 0 153.34 4.03 155.33 8.13 156.83 11.47 158.26 14.83 159.41 17.55 160.61 20.24 161.71 22.44 162.98 24.53 164.37 26.3 166.01 27.85 168.06 29.26 170.3 30.37 173.33 31.44 176.46 32.23 180.77 33.01 185.13 33.59 184.41 33.4 183.77 33.04 183.38 32.61 183.17 32.06 183.11 31.39 183.19 30.71 183.42 29.85 183.73 29.02 184.17 28.03 184.65 27.05 185.23 25.95 185.82 24.85 186.48 23.67 187.14 22.47 187.81 21.22 188.46 19.96" fill="none" stroke="#aaa" stroke-miterlimit="10" stroke-width=".5"/>
  <polyline points="147.81 0 149.77 3.71 151.59 7.49 152.96 10.56 154.27 13.65 155.33 16.15 156.43 18.63 157.44 20.66 158.61 22.59 159.89 24.22 161.4 25.66 163.28 26.96 165.34 27.98 168.13 28.98 171 29.71 174.96 30.45 178.95 30.99 178.29 30.81 177.71 30.47 177.36 30.05 177.17 29.54 177.13 28.89 177.22 28.25 177.44 27.45 177.74 26.66 178.16 25.73 178.61 24.81 179.16 23.78 179.72 22.75 180.33 21.64 180.95 20.52 181.57 19.35 182.18 18.18" fill="none" stroke="#aaa" stroke-miterlimit="10" stroke-width=".5"/>
  <polyline points="144.18 0 145.94 3.45 147.58 6.96 148.82 9.82 150.02 12.7 150.99 15.04 152 17.35 152.95 19.25 154.04 21.06 155.23 22.59 156.62 23.95 158.37 25.19 160.27 26.17 162.84 27.13 165.49 27.86 169.11 28.59 172.78 29.14 172.18 28.94 171.68 28.58 171.37 28.16 171.23 27.66 171.21 27.03 171.32 26.4 171.54 25.62 171.84 24.87 172.24 23.97 172.68 23.09 173.2 22.1 173.74 21.12 174.32 20.07 174.9 19.01 175.48 17.9 176.05 16.78" fill="none" stroke="#aaa" stroke-miterlimit="10" stroke-width=".5"/>
  <polyline points="140.22 0 141.77 3.28 143.22 6.61 144.34 9.33 145.42 12.06 146.32 14.29 147.26 16.5 148.16 18.33 149.19 20.07 150.32 21.56 151.64 22.89 153.28 24.11 155.07 25.11 157.44 26.09 159.9 26.86 163.23 27.65 166.6 28.27 166.09 28.01 165.68 27.61 165.44 27.14 165.35 26.62 165.38 25.97 165.51 25.33 165.76 24.56 166.06 23.79 166.47 22.91 166.9 22.04 167.41 21.07 167.93 20.11 168.48 19.09 169.04 18.06 169.6 16.99 170.13 15.91" fill="none" stroke="#aaa" stroke-miterlimit="10" stroke-width=".5"/>
  <polyline points="135.89 0 137.22 3.21 138.47 6.44 139.46 9.11 140.43 11.78 141.27 13.98 142.16 16.15 143.03 17.96 144.04 19.7 145.14 21.21 146.42 22.57 147.99 23.83 149.7 24.89 151.92 25.95 154.24 26.82 157.31 27.73 160.42 28.48 160.01 28.12 159.73 27.66 159.58 27.11 159.56 26.54 159.65 25.84 159.82 25.15 160.1 24.34 160.43 23.54 160.84 22.64 161.29 21.74 161.79 20.77 162.31 19.8 162.86 18.77 163.4 17.74 163.94 16.68 164.47 15.61" fill="none" stroke="#aaa" stroke-miterlimit="10" stroke-width=".5"/>
  <polyline points="131.2 0 132.28 3.16 133.31 6.33 134.17 8.99 135.05 11.65 135.84 13.88 136.7 16.08 137.57 17.96 138.57 19.77 139.68 21.38 140.96 22.85 142.49 24.24 144.17 25.45 146.28 26.67 148.5 27.71 151.34 28.81 154.24 29.76 153.96 29.26 153.81 28.7 153.77 28.05 153.84 27.39 154 26.61 154.24 25.84 154.56 24.97 154.93 24.11 155.38 23.15 155.84 22.21 156.36 21.2 156.89 20.19 157.44 19.13 157.99 18.08 158.53 17 159.06 15.91" fill="none" stroke="#aaa" stroke-miterlimit="10" stroke-width=".5"/>
  <polyline points="126.16 0 126.98 3.13 127.79 6.25 128.52 8.95 129.3 11.63 130.05 13.96 130.9 16.25 131.79 18.27 132.82 20.22 133.97 22 135.28 23.67 136.81 25.26 138.49 26.69 140.53 28.14 142.68 29.42 145.34 30.76 148.07 31.95 147.94 31.3 147.93 30.63 148.01 29.85 148.18 29.07 148.43 28.19 148.74 27.33 149.13 26.37 149.55 25.42 150.03 24.39 150.53 23.38 151.08 22.3 151.63 21.23 152.2 20.13 152.76 19.02 153.32 17.89 153.87 16.76" fill="none" stroke="#aaa" stroke-miterlimit="10" stroke-width=".5"/>
  <polyline points="120.85 0 121.39 3.04 121.98 6.06 122.58 8.8 123.27 11.51 124 13.97 124.84 16.4 125.77 18.63 126.85 20.8 128.06 22.84 129.42 24.77 130.98 26.65 132.69 28.4 134.69 30.14 136.8 31.73 139.3 33.36 141.89 34.84 141.93 34.02 142.06 33.22 142.28 32.3 142.55 31.4 142.91 30.4 143.3 29.42 143.76 28.36 144.25 27.31 144.78 26.19 145.33 25.08 145.92 23.93 146.5 22.78 147.1 21.61 147.7 20.42 148.28 19.24 148.85 18.04" fill="none" stroke="#aaa" stroke-miterlimit="10" stroke-width=".5"/>
  <polyline points="115.37 0 115.62 2.72 115.98 5.43 116.45 8.11 117.05 10.76 117.76 13.38 118.61 15.95 119.6 18.48 120.73 20.95 122.02 23.37 123.45 25.71 125.06 28.01 126.82 30.19 128.79 32.34 130.89 34.34 133.24 36.31 135.71 38.12 135.93 37.15 136.2 36.19 136.55 35.14 136.95 34.1 137.41 32.97 137.9 31.86 138.44 30.69 139 29.52 139.6 28.3 140.21 27.09 140.84 25.85 141.48 24.6 142.12 23.34 142.75 22.08 143.37 20.81 143.97 19.54" fill="none" stroke="#aaa" stroke-miterlimit="10" stroke-width=".5"/>
  <polyline points="109.83 .01 109.78 1.85 109.92 3.69 110.27 6.05 110.76 8.39 111.48 11.13 112.33 13.83 113.39 16.79 114.57 19.71 115.94 22.74 117.44 25.71 119.11 28.66 120.92 31.54 122.86 34.28 124.97 36.89 127.16 39.27 129.53 41.47 129.92 40.34 130.35 39.23 130.84 38.03 131.36 36.85 131.93 35.59 132.53 34.35 133.16 33.05 133.81 31.76 134.47 30.44 135.16 29.11 135.84 27.77 136.53 26.41 137.22 25.06 137.89 23.7 138.55 22.35 139.2 20.99" fill="none" stroke="#aaa" stroke-miterlimit="10" stroke-width=".5"/>
  <polyline points="104.33 .04 103.96 1.96 103.9 3.93 104.11 6.45 104.53 8.94 105.22 11.86 106.08 14.74 107.19 17.9 108.43 21.01 109.89 24.25 111.46 27.42 113.19 30.57 115.04 33.65 116.98 36.56 119.05 39.37 121.12 41.88 123.36 44.26 123.9 43.02 124.47 41.79 125.1 40.49 125.73 39.2 126.41 37.85 127.1 36.51 127.82 35.13 128.54 33.76 129.28 32.35 130.02 30.94 130.76 29.53 131.5 28.1 132.23 26.68 132.94 25.25 133.64 23.84 134.32 22.42" fill="none" stroke="#aaa" stroke-miterlimit="10" stroke-width=".5"/>
  <polyline points="98.97 .05 98.3 2.04 98.04 4.14 98.09 6.78 98.44 9.41 99.1 12.49 99.97 15.52 101.12 18.85 102.42 22.12 103.93 25.51 105.57 28.85 107.34 32.14 109.22 35.36 111.14 38.37 113.16 41.31 115.11 43.87 117.18 46.33 117.88 45.02 118.58 43.7 119.33 42.33 120.08 40.97 120.86 39.56 121.64 38.15 122.43 36.71 123.23 35.27 124.03 33.81 124.83 32.34 125.62 30.87 126.4 29.4 127.17 27.93 127.92 26.46 128.65 25 129.36 23.53" fill="none" stroke="#aaa" stroke-miterlimit="10" stroke-width=".5"/>
  <polyline points="93.8 .06 92.84 2.09 92.37 4.3 92.29 7.04 92.55 9.77 93.18 12.98 94.05 16.12 95.22 19.58 96.56 22.97 98.12 26.49 99.81 29.95 101.6 33.34 103.49 36.67 105.36 39.76 107.32 42.78 109.12 45.37 111 47.89 111.84 46.51 112.68 45.13 113.54 43.7 114.39 42.27 115.26 40.8 116.13 39.34 116.99 37.85 117.86 36.36 118.71 34.86 119.56 33.35 120.39 31.84 121.21 30.33 122.01 28.82 122.79 27.31 123.54 25.83 124.28 24.33" fill="none" stroke="#aaa" stroke-miterlimit="10" stroke-width=".5"/>
  <polyline points="88.83 .07 87.59 2.11 86.92 4.4 86.69 7.2 86.87 10.01 87.46 13.28 88.31 16.5 89.5 20.04 90.87 23.51 92.46 27.1 94.17 30.64 95.96 34.1 97.84 37.51 99.65 40.63 101.52 43.73 103.15 46.33 104.82 48.91 105.79 47.47 106.75 46.03 107.72 44.55 108.67 43.07 109.62 41.57 110.57 40.05 111.5 38.53 112.42 37 113.32 35.47 114.21 33.93 115.08 32.4 115.93 30.85 116.76 29.33 117.56 27.8 118.33 26.29 119.08 24.77" fill="none" stroke="#aaa" stroke-miterlimit="10" stroke-width=".5"/>
  <polyline points="84.01 .08 82.53 2.1 81.64 4.45 81.27 7.27 81.37 10.12 81.9 13.44 82.74 16.69 83.93 20.27 85.31 23.78 86.91 27.41 88.63 30.99 90.41 34.48 92.26 37.93 93.99 41.09 95.75 44.23 97.21 46.85 98.65 49.48 99.74 47.99 100.82 46.5 101.88 44.98 102.93 43.46 103.96 41.92 104.98 40.38 105.97 38.83 106.94 37.27 107.89 35.72 108.82 34.15 109.72 32.6 110.6 31.04 111.44 29.5 112.26 27.96 113.05 26.44 113.81 24.91" fill="none" stroke="#aaa" stroke-miterlimit="10" stroke-width=".5"/>
  <polyline points="79.29 .08 77.57 2.08 76.46 4.49 75.94 7.31 75.96 10.19 76.44 13.52 77.25 16.79 78.44 20.39 79.82 23.92 81.43 27.57 83.15 31.17 84.91 34.67 86.72 38.15 88.37 41.32 90 44.49 91.28 47.11 92.47 49.77 93.69 48.25 94.89 46.71 96.05 45.16 97.2 43.59 98.31 42.03 99.4 40.45 100.45 38.88 101.48 37.29 102.47 35.72 103.43 34.13 104.36 32.57 105.27 30.99 106.13 29.44 106.97 27.88 107.76 26.35 108.53 24.81" fill="none" stroke="#aaa" stroke-miterlimit="10" stroke-width=".5"/>
  <polyline points="74.61 .09 72.65 2.06 71.32 4.51 70.66 7.33 70.59 10.23 71.01 13.57 71.8 16.86 72.98 20.47 74.37 24.01 75.98 27.67 77.7 31.29 79.44 34.8 81.19 38.3 82.76 41.47 84.26 44.66 85.37 47.28 86.29 49.97 87.68 48.38 89.05 46.77 90.35 45.18 91.63 43.57 92.85 41.99 94.05 40.39 95.18 38.82 96.3 37.23 97.35 35.67 98.38 34.09 99.35 32.55 100.29 30.99 101.18 29.47 102.05 27.93 102.86 26.43 103.64 24.92" fill="none" stroke="#aaa" stroke-miterlimit="10" stroke-width=".5"/>
  <polyline points="69.94 .09 67.75 2.04 66.2 4.52 65.4 7.33 65.23 10.26 65.6 13.61 66.37 16.9 67.54 20.53 68.93 24.07 70.55 27.74 72.26 31.37 73.97 34.89 75.68 38.41 77.16 41.57 78.52 44.78 79.46 47.41 80.11 50.11 81.69 48.45 83.25 46.76 84.71 45.14 86.14 43.49 87.48 41.9 88.79 40.29 90.02 38.73 91.22 37.15 92.34 35.62 93.43 34.07 94.45 32.57 95.43 31.04 96.35 29.56 97.24 28.06 98.06 26.59 98.85 25.11" fill="none" stroke="#aaa" stroke-miterlimit="10" stroke-width=".5"/>
  <polyline points="65.3 .1 62.88 2.02 61.11 4.53 60.17 7.33 59.91 10.27 60.22 13.63 60.96 16.93 62.12 20.56 63.51 24.11 65.13 27.78 66.83 31.42 68.52 34.94 70.17 38.46 71.56 41.63 72.79 44.85 73.55 47.49 73.94 50.2 75.7 48.47 77.43 46.73 79.03 45.07 80.61 43.39 82.05 41.79 83.47 40.16 84.78 38.61 86.05 37.03 87.22 35.51 88.36 33.97 89.41 32.49 90.43 30.98 91.36 29.51 92.26 28.03 93.09 26.57 93.89 25.1" fill="none" stroke="#aaa" stroke-miterlimit="10" stroke-width=".5"/>
  <polyline points="60.68 .1 58.05 2 56.04 4.54 54.96 7.31 54.61 10.28 54.86 13.64 55.57 16.93 56.73 20.57 58.12 24.11 59.73 27.79 61.42 31.42 63.08 34.94 64.68 38.47 65.97 41.63 67.06 44.87 67.64 47.51 67.76 50.21 69.7 48.44 71.62 46.63 73.36 44.94 75.07 43.23 76.62 41.61 78.14 39.97 79.52 38.42 80.86 36.83 82.08 35.33 83.26 33.79 84.34 32.32 85.38 30.82 86.33 29.36 87.24 27.88 88.07 26.43 88.87 24.96" fill="none" stroke="#aaa" stroke-miterlimit="10" stroke-width=".5"/>
  <polyline points="56.09 .1 53.24 1.98 51 4.53 49.79 7.29 49.34 10.27 49.53 13.62 50.21 16.92 51.36 20.54 52.74 24.09 54.35 27.75 56.03 31.39 57.65 34.89 59.19 38.43 60.4 41.58 61.34 44.82 61.75 47.48 61.58 50.16 63.71 48.33 65.82 46.48 67.7 44.76 69.55 43.01 71.2 41.38 72.82 39.72 74.26 38.17 75.67 36.58 76.93 35.08 78.15 33.55 79.25 32.09 80.3 30.59 81.26 29.14 82.17 27.66 83.01 26.21 83.8 24.73" fill="none" stroke="#aaa" stroke-miterlimit="10" stroke-width=".5"/>
  <polyline points="51.52 .11 48.46 1.95 45.99 4.52 44.64 7.25 44.09 10.24 44.22 13.59 44.88 16.87 46.01 20.49 47.39 24.03 48.99 27.68 50.65 31.31 52.24 34.8 53.72 38.33 54.83 41.48 55.62 44.71 55.84 47.4 55.4 50.05 57.73 48.17 60.02 46.26 62.04 44.52 64.03 42.74 65.78 41.1 67.49 39.43 68.99 37.88 70.46 36.29 71.76 34.79 73.01 33.26 74.12 31.8 75.19 30.31 76.15 28.86 77.06 27.38 77.9 25.92 78.69 24.43" fill="none" stroke="#aaa" stroke-miterlimit="10" stroke-width=".5"/>
  <polyline points="46.99 .11 43.72 1.93 41.01 4.51 39.53 7.2 38.88 10.19 38.95 13.51 39.58 16.77 40.69 20.36 42.06 23.85 43.65 27.46 45.3 31.04 46.84 34.46 48.26 37.93 49.27 40.99 49.92 44.13 49.94 46.75 49.23 49.26 51.75 47.39 54.24 45.49 56.4 43.76 58.53 42 60.38 40.39 62.18 38.74 63.75 37.22 65.27 35.66 66.6 34.2 67.88 32.7 69.01 31.27 70.08 29.79 71.04 28.36 71.95 26.89 72.78 25.43 73.57 23.94" fill="none" stroke="#aaa" stroke-miterlimit="10" stroke-width=".5"/>
  <polyline points="42.55 .11 39.07 1.9 36.13 4.47 34.53 7.1 33.77 10.09 33.77 13.36 34.36 16.58 35.45 20.11 36.81 23.54 38.38 27.06 40 30.56 41.5 33.88 42.84 37.25 43.75 40.18 44.23 43.2 44.04 45.71 43.05 48.01 45.78 46.18 48.47 44.31 50.78 42.63 53.05 40.91 54.99 39.36 56.89 37.76 58.51 36.29 60.07 34.77 61.43 33.36 62.72 31.9 63.85 30.51 64.92 29.07 65.87 27.66 66.77 26.21 67.6 24.74 68.38 23.25" fill="none" stroke="#aaa" stroke-miterlimit="10" stroke-width=".5"/>
  <polyline points="38.27 .11 34.59 1.86 31.42 4.39 29.7 6.95 28.83 9.9 28.76 13.09 29.31 16.24 30.36 19.66 31.69 23 33.23 26.39 34.81 29.77 36.24 32.92 37.5 36.15 38.28 38.9 38.57 41.73 38.15 44.09 36.87 46.11 39.81 44.36 42.72 42.56 45.16 40.97 47.57 39.33 49.59 37.86 51.57 36.33 53.23 34.95 54.83 33.51 56.19 32.17 57.48 30.77 58.6 29.43 59.66 28.03 60.6 26.66 61.48 25.24 62.3 23.78 63.07 22.29" fill="none" stroke="#aaa" stroke-miterlimit="10" stroke-width=".5"/>
  <polyline points="34.19 .11 30.33 1.79 26.93 4.26 25.09 6.71 24.1 9.59 23.96 12.66 24.45 15.69 25.45 18.97 26.74 22.15 28.22 25.36 29.75 28.55 31.08 31.48 32.24 34.49 32.87 36.99 32.96 39.55 32.24 41.69 30.69 43.33 33.84 41.72 36.96 40.06 39.54 38.6 42.08 37.09 44.17 35.75 46.21 34.35 47.89 33.08 49.51 31.75 50.86 30.51 52.14 29.2 53.23 27.94 54.25 26.61 55.17 25.28 56.02 23.91 56.83 22.47 57.59 21" fill="none" stroke="#aaa" stroke-miterlimit="10" stroke-width=".5"/>
  <polyline points="30.3 .12 26.27 1.71 22.66 4.09 20.71 6.38 19.58 9.17 19.35 12.06 19.78 14.93 20.72 18 21.96 20.97 23.37 23.93 24.82 26.87 26.04 29.5 27.06 32.2 27.53 34.37 27.39 36.56 26.31 38.38 24.52 39.53 27.88 38.13 31.22 36.68 33.92 35.44 36.58 34.12 38.72 32.98 40.82 31.75 42.5 30.66 44.11 29.47 45.43 28.37 46.67 27.19 47.73 26.03 48.7 24.81 49.58 23.54 50.39 22.24 51.2 20.82 51.96 19.37" fill="none" stroke="#aaa" stroke-miterlimit="10" stroke-width=".5"/>
  <polyline points="26.57 .12 22.37 1.61 18.54 3.87 16.49 5.99 15.22 8.64 14.9 11.31 15.26 13.99 16.13 16.8 17.3 19.5 18.62 22.13 19.98 24.74 21.07 26.97 21.95 29.28 22.25 31 21.86 32.68 20.31 33.98 18.34 34.54 21.92 33.48 25.49 32.37 28.3 31.43 31.09 30.41 33.26 29.54 35.39 28.57 37.05 27.7 38.64 26.73 39.91 25.82 41.1 24.8 42.1 23.78 43.01 22.68 43.85 21.5 44.63 20.28 45.44 18.89 46.21 17.48" fill="none" stroke="#aaa" stroke-miterlimit="10" stroke-width=".5"/>
  <polyline points="22.9 .12 18.54 1.51 14.49 3.63 12.35 5.56 10.93 8.05 10.52 10.47 10.8 12.91 11.59 15.39 12.69 17.75 13.91 19.96 15.19 22.13 16.12 23.82 16.87 25.59 16.99 26.74 16.34 27.66 14.28 28.05 12.16 27.9 15.98 27.38 19.78 26.82 22.69 26.33 25.6 25.78 27.78 25.28 29.94 24.68 31.55 24.13 33.11 23.45 34.32 22.78 35.44 21.98 36.38 21.13 37.23 20.19 38.04 19.11 38.79 17.98 39.63 16.63 40.45 15.27" fill="none" stroke="#aaa" stroke-miterlimit="10" stroke-width=".5"/>
  <polyline points="19.18 .12 14.66 1.41 10.39 3.39 8.18 5.09 6.58 7.35 6.09 9.37 6.29 11.43 7 13.32 8.04 15.05 9.13 16.4 10.36 17.62 11.03 18.16 11.77 18.57 11.39 17.91 10.8 17.31 8.44 15.25 5.98 13.28 10.04 14.31 14.07 15.35 17.09 16.13 20.11 16.91 22.29 17.43 24.48 17.91 26.01 18.16 27.56 18.31 28.66 18.28 29.74 18.07 30.63 17.69 31.42 17.15 32.23 16.36 32.96 15.5 33.88 14.3 34.77 13.08" fill="none" stroke="#aaa" stroke-miterlimit="10" stroke-width=".5"/>
  <polyline points="8.28 14.45 11.38 15.17 14.48 15.88 16.68 16.36 18.87 16.79 20.37 17.02 21.88 17.13 22.94 17.09 23.96 16.86 24.8 16.47 25.55 15.92 26.35 15.13 27.08 14.27 28.05 13.06 29.02 11.85" fill="none" stroke="#aaa" stroke-miterlimit="10" stroke-width=".5"/>
  <polyline points="3.26 14.21 4.28 15.49 5.42 16.65 5.99 17.13 6.6 17.54 5.96 16.93 5.23 16.36" fill="none" stroke="#aaa" stroke-miterlimit="10" stroke-width=".5"/>
  <polyline points="15.3 .12 10.6 1.34 6.11 3.2 3.81 4.78 2.07 6.95" fill="none" stroke="#aaa" stroke-miterlimit="10" stroke-width=".5"/>
  <polyline points="2.51 13.85 5.72 14.52 8.92 15.19 11.14 15.64 13.36 16.04 14.85 16.24 16.34 16.34 17.35 16.27 18.34 16.03 19.15 15.63 19.87 15.07 20.68 14.26 21.44 13.4 22.47 12.18 23.53 10.96" fill="none" stroke="#aaa" stroke-miterlimit="10" stroke-width=".5"/>
  <polyline points="3.43 14.93 5.7 15.36 7.98 15.75 9.47 15.94 10.96 16.02 11.97 15.95 12.94 15.69 13.75 15.26 14.46 14.7 15.29 13.86 16.09 12.98 17.21 11.72 18.36 10.49" fill="none" stroke="#aaa" stroke-miterlimit="10" stroke-width=".5"/>
  <polyline points="2.73 15.98 4.26 16.17 5.79 16.24 6.82 16.15 7.8 15.88 8.63 15.42 9.36 14.83 10.23 13.95 11.07 13.04 12.28 11.72 13.52 10.43" fill="none" stroke="#aaa" stroke-miterlimit="10" stroke-width=".5"/>
  <polyline points="2.94 16.59 3.8 16.1 4.58 15.46 5.5 14.52 6.39 13.54 7.69 12.14 9.03 10.76" fill="none" stroke="#aaa" stroke-miterlimit="10" stroke-width=".5"/>
</svg>