<?xml version="1.0" encoding="UTF-8"?>
<svg id="Ebene_1" data-name="Ebene 1" xmlns="http://www.w3.org/2000/svg" width="800" height="800" viewBox="0 0 800 800">
  <polyline points=".16 34.71 .16 17.7 .16 .7 6.18 .7 12.19 .7 13.72 1.13 15.25 1.56 16.36 2.39 17.46 3.22 18.29 4.32 19.12 5.43 19.47 7.12 19.82 8.81 19.74 10.34 19.66 11.87 18.96 13.56 18.26 15.25 17 16.28 15.74 17.3 13.97 17.97 12.19 18.64 10.18 18.72 8.16 18.8 4.08 18.8 0 18.8" fill="none" stroke="#aaa" stroke-miterlimit="10" stroke-width=".5"/>
  <polyline points="42 34.37 44.21 34.04 46.41 33.7 48.61 32.26 50.81 30.82 52.32 28.54 53.82 26.27 54.6 23.29 55.38 20.3 55.38 17.54 55.38 14.77 54.95 12.49 54.52 10.21 53.69 8.33 52.86 6.45 51.49 4.67 50.12 2.9 48.26 1.8 46.41 .7 44.53 .35 42.65 0 41.06 .27 39.48 .54 37.68 1.21 35.88 1.88 34.22 3.33 32.55 4.78 31.26 7.22 29.97 9.67 29.56 11.6 29.14 13.54 29.06 16.44 28.97 19.34 29.31 21.54 29.65 23.74 30.48 25.76 31.32 27.77 32.52 29.38 33.73 30.99 35.08 32.09 36.42 33.19 37.87 33.7 39.32 34.21 40.66 34.29 42 34.37" fill="none" stroke="#aaa" stroke-miterlimit="10" stroke-width=".5"/>
  <polyline points="67.2 34.37 67.2 17.54 67.2 .7 67.79 .7 68.38 .7 78.45 17.54 88.52 34.37 88.52 17.45 88.52 .54" fill="none" stroke="#aaa" stroke-miterlimit="10" stroke-width=".5"/>
  <polyline points="99.84 29.81 101.27 30.99 102.7 32.18 104.07 32.85 105.44 33.53 107.13 33.87 108.83 34.21 110.76 34.29 112.69 34.37 114.82 33.53 116.94 32.68 118.36 31.41 119.78 30.13 120.29 28.44 120.8 26.75 120.72 25.25 120.64 23.74 119.73 22.21 118.82 20.68 116.86 19.42 114.9 18.16 111.43 16.62 107.97 15.09 106.03 13.83 104.1 12.57 103.08 11.2 102.06 9.83 101.98 8.14 101.9 6.45 102.57 4.67 103.24 2.9 105.17 1.72 107.11 .54 108.99 .27 110.87 0 112.64 .19 114.41 .38 115.76 1.05 117.1 1.72 118.36 2.66 119.62 3.6" fill="none" stroke="#aaa" stroke-miterlimit="10" stroke-width=".5"/>
  <polyline points="127.26 .38 132.41 10.61 137.56 20.84 137.56 27.61 137.56 34.37 137.56 27.53 137.56 20.68 142.64 10.61 147.72 .54" fill="none" stroke="#aaa" stroke-miterlimit="10" stroke-width=".5"/>
  <polyline points="157.17 34.54 157.17 17.62 157.17 .7 162.84 .7 168.5 .7 169.87 1.13 171.24 1.56 172.75 2.31 174.25 3.06 175.35 4.75 176.45 6.45 176.45 7.9 176.45 9.35 176.21 10.96 175.97 12.57 174.95 13.99 173.93 15.42 172.67 16.19 171.4 16.97 169.36 17.46 167.32 17.94 162.33 17.94 157.33 17.94 162.16 17.94 167 17.94 171.91 26.24 176.83 34.54" fill="none" stroke="#aaa" stroke-miterlimit="10" stroke-width=".5"/>
  <polyline points="188.65 .38 188.65 12.14 188.65 23.9 188.91 25.41 189.18 26.91 189.94 28.52 190.69 30.13 191.71 31.24 192.73 32.34 194.26 33.19 195.79 34.03 197.21 34.37 198.64 34.71 200.41 34.46 202.18 34.21 203.98 33.27 205.78 32.34 207.04 30.81 208.31 29.27 208.9 27.93 209.49 26.59 209.65 24.74 209.81 22.88 209.81 11.71 209.81 .54" fill="none" stroke="#aaa" stroke-miterlimit="10" stroke-width=".5"/>
  <polyline points="221.19 29.81 222.62 30.99 224.04 32.18 225.41 32.85 226.78 33.53 228.48 33.87 230.17 34.21 232.1 34.29 234.03 34.37 236.16 33.53 238.28 32.68 239.7 31.41 241.13 30.13 241.64 28.44 242.15 26.75 242.07 25.25 241.98 23.74 241.07 22.21 240.16 20.68 238.2 19.42 236.24 18.16 232.77 16.62 229.31 15.09 227.37 13.83 225.44 12.57 224.42 11.2 223.4 9.83 223.32 8.14 223.24 6.45 223.91 4.67 224.58 2.9 226.51 1.72 228.45 .54 230.33 .27 232.21 0 233.98 .19 235.75 .38 237.1 1.05 238.44 1.72 239.7 2.66 240.96 3.6" fill="none" stroke="#aaa" stroke-miterlimit="10" stroke-width=".5"/>
</svg>