<?xml version="1.0" encoding="UTF-8"?>
<svg id="Ebene_1" xmlns="http://www.w3.org/2000/svg" width="222" height="222" viewBox="0 0 222 222">
  <polyline points="109.33 1.15 122.68 3.36 135.95 5.96 143.26 7.69 150.46 9.8 153.87 11.07 157.14 12.65 158.69 13.6 160.23 14.52 162.07 15.14 164.01 15.38 168.36 15.4 172.72 15.22 181.67 14.66 190.63 14.03 206.32 12.91 222 11.81 214.9 12.8 207.81 13.77 202.72 14.46 197.64 15.11 194.26 15.52 190.88 15.88 188.91 16.05 186.94 16.14 186.07 16.12 185.22 15.95 185 15.69 185.12 15.37 185.55 14.89 186.04 14.45 186.72 13.87 187.39 13.27" fill="none" stroke="#aaa" stroke-miterlimit="10" stroke-width=".5"/>
  <polyline points="104.72 1.15 117.83 3.37 130.88 5.98 138.08 7.71 145.16 9.83 148.53 11.11 151.75 12.69 153.29 13.64 154.84 14.56 156.67 15.18 158.6 15.41 162.91 15.44 167.23 15.25 176.07 14.68 184.91 14.05 200.36 12.92 215.82 11.81 208.76 12.81 201.7 13.81 196.67 14.5 191.65 15.16 188.34 15.56 185.05 15.92 183.16 16.08 181.28 16.16 180.48 16.13 179.72 15.93 179.59 15.63 179.77 15.31 180.26 14.81 180.79 14.35 181.49 13.75 182.17 13.12" fill="none" stroke="#aaa" stroke-miterlimit="10" stroke-width=".5"/>
  <polyline points="100.06 1.15 112.95 3.39 125.77 6.01 132.85 7.75 139.82 9.88 143.15 11.17 146.33 12.76 147.87 13.71 149.41 14.63 151.24 15.25 153.17 15.48 157.44 15.5 161.72 15.31 170.44 14.74 179.17 14.1 194.41 12.95 209.65 11.83 202.62 12.86 195.6 13.87 190.64 14.57 185.68 15.23 182.46 15.64 179.24 15.99 177.44 16.15 175.65 16.21 174.93 16.17 174.26 15.95 174.23 15.6 174.45 15.28 174.99 14.77 175.56 14.27 176.28 13.65 176.97 12.99" fill="none" stroke="#aaa" stroke-miterlimit="10" stroke-width=".5"/>
  <polyline points="95.38 1.15 108.05 3.41 120.63 6.05 127.6 7.81 134.45 9.95 137.74 11.25 140.88 12.85 142.42 13.81 143.96 14.73 145.78 15.35 147.71 15.59 151.95 15.6 156.19 15.4 164.81 14.82 173.43 14.17 188.45 13.01 203.47 11.87 196.5 12.92 189.52 13.95 184.63 14.66 179.74 15.34 176.61 15.74 173.48 16.09 171.77 16.24 170.06 16.29 169.41 16.24 168.84 16 168.89 15.61 169.16 15.29 169.75 14.75 170.36 14.23 171.1 13.58 171.79 12.88" fill="none" stroke="#aaa" stroke-miterlimit="10" stroke-width=".5"/>
  <polyline points="90.68 1.15 103.11 3.43 115.47 6.1 122.33 7.88 129.06 10.04 132.31 11.36 135.41 12.96 136.94 13.93 138.49 14.86 140.32 15.48 142.25 15.72 146.45 15.73 150.66 15.52 159.17 14.93 167.69 14.27 182.49 13.09 197.29 11.93 190.38 13 183.46 14.06 178.65 14.78 173.84 15.47 170.79 15.87 167.74 16.22 166.12 16.36 164.5 16.4 163.92 16.34 163.44 16.07 163.58 15.65 163.89 15.31 164.53 14.75 165.18 14.2 165.92 13.53 166.62 12.8" fill="none" stroke="#aaa" stroke-miterlimit="10" stroke-width=".5"/>
  <polyline points="85.97 1.15 98.18 3.45 110.31 6.15 117.05 7.95 123.67 10.13 126.88 11.46 129.95 13.08 131.48 14.06 133.02 14.99 134.85 15.62 136.78 15.85 140.95 15.86 145.13 15.65 153.53 15.04 161.94 14.36 176.53 13.17 191.11 11.99 184.26 13.09 177.4 14.17 172.66 14.9 167.93 15.59 164.96 16 162.01 16.35 160.48 16.47 158.95 16.5 158.44 16.43 158.06 16.14 158.28 15.69 158.64 15.33 159.31 14.74 160 14.16 160.75 13.46 161.44 12.71" fill="none" stroke="#aaa" stroke-miterlimit="10" stroke-width=".5"/>
  <polyline points="81.35 1.15 93.34 3.47 105.24 6.17 111.87 7.98 118.37 10.17 121.53 11.51 124.56 13.13 126.08 14.12 127.62 15.05 129.44 15.67 131.37 15.91 135.5 15.91 139.63 15.69 147.92 15.08 156.21 14.4 170.57 13.19 184.94 12 178.14 13.12 171.34 14.21 166.68 14.95 162.02 15.65 159.14 16.06 156.27 16.4 154.82 16.52 153.38 16.53 152.92 16.45 152.64 16.13 152.93 15.66 153.33 15.28 154.04 14.67 154.75 14.06 155.51 13.34 156.19 12.55" fill="none" stroke="#aaa" stroke-miterlimit="10" stroke-width=".5"/>
  <polyline points="76.88 1.15 88.65 3.45 100.33 6.14 106.84 7.94 113.23 10.12 116.34 11.45 119.32 13.06 120.82 14.04 122.34 14.96 124.15 15.58 126.06 15.81 130.13 15.81 134.2 15.6 142.36 14.98 150.52 14.3 164.64 13.1 178.76 11.91 172.01 13.04 165.26 14.14 160.67 14.88 156.08 15.58 153.28 15.97 150.49 16.3 149.12 16.42 147.75 16.41 147.32 16.31 147.13 15.98 147.48 15.5 147.92 15.09 148.66 14.47 149.38 13.83 150.13 13.1 150.78 12.29" fill="none" stroke="#aaa" stroke-miterlimit="10" stroke-width=".5"/>
  <polyline points="72.61 1.15 84.16 3.41 95.63 6.04 102.02 7.81 108.29 9.94 111.35 11.25 114.27 12.82 115.74 13.78 117.23 14.69 119 15.3 120.87 15.52 124.86 15.52 128.86 15.31 136.86 14.71 144.87 14.04 158.72 12.87 172.58 11.71 165.88 12.82 159.17 13.91 154.64 14.64 150.11 15.32 147.37 15.71 144.64 16.02 143.34 16.12 142.03 16.1 141.64 15.99 141.53 15.64 141.92 15.15 142.39 14.72 143.13 14.09 143.86 13.44 144.58 12.71 145.2 11.88" fill="none" stroke="#aaa" stroke-miterlimit="10" stroke-width=".5"/>
  <polyline points="68.51 1.15 79.86 3.33 91.13 5.88 97.39 7.58 103.55 9.64 106.54 10.9 109.39 12.43 110.82 13.35 112.27 14.23 113.99 14.82 115.8 15.04 119.69 15.05 123.59 14.84 131.42 14.27 139.25 13.62 152.83 12.49 166.4 11.37 159.71 12.46 153.02 13.54 148.53 14.24 144.04 14.9 141.37 15.27 138.7 15.56 137.46 15.65 136.21 15.6 135.85 15.46 135.82 15.11 136.25 14.61 136.74 14.17 137.49 13.53 138.22 12.87 138.9 12.14 139.46 11.31" fill="none" stroke="#aaa" stroke-miterlimit="10" stroke-width=".5"/>
  <polyline points="64.55 1.15 75.69 3.23 86.76 5.66 92.91 7.28 98.94 9.25 101.86 10.45 104.65 11.91 106.03 12.8 107.42 13.64 109.07 14.21 110.81 14.42 114.59 14.43 118.38 14.24 126.02 13.69 133.67 13.09 146.95 12.01 160.23 10.95 153.54 12.01 146.85 13.05 142.4 13.72 137.94 14.36 135.32 14.69 132.7 14.97 131.52 15.03 130.33 14.96 130 14.8 130.04 14.44 130.49 13.94 131.01 13.49 131.75 12.85 132.46 12.19 133.09 11.46 133.57 10.63" fill="none" stroke="#aaa" stroke-miterlimit="10" stroke-width=".5"/>
  <polyline points="60.63 1.15 71.57 3.12 82.44 5.42 88.47 6.96 94.39 8.83 97.22 9.97 99.94 11.36 101.27 12.19 102.6 13 104.18 13.54 105.86 13.75 109.52 13.76 113.19 13.59 120.64 13.08 128.09 12.51 141.07 11.49 154.05 10.49 147.35 11.51 140.66 12.51 136.24 13.15 131.82 13.76 129.25 14.07 126.68 14.31 125.55 14.36 124.43 14.27 124.13 14.07 124.23 13.72 124.71 13.22 125.24 12.75 125.97 12.12 126.65 11.45 127.22 10.74 127.61 9.92" fill="none" stroke="#aaa" stroke-miterlimit="10" stroke-width=".5"/>
  <polyline points="56.65 1.15 67.39 3.02 78.06 5.21 83.96 6.66 89.77 8.44 92.53 9.52 95.18 10.85 96.46 11.64 97.74 12.41 99.26 12.93 100.86 13.13 104.42 13.15 107.97 12.98 115.24 12.51 122.5 11.97 135.19 11.01 147.87 10.07 141.16 11.06 134.45 12.02 130.07 12.63 125.67 13.21 123.17 13.49 120.67 13.71 119.6 13.74 118.56 13.62 118.32 13.37 118.47 13.04 118.99 12.53 119.55 12.05 120.25 11.42 120.9 10.74 121.4 10.03 121.67 9.21" fill="none" stroke="#aaa" stroke-miterlimit="10" stroke-width=".5"/>
  <polyline points="52.51 1.15 63.04 2.94 73.51 5.05 79.28 6.45 84.97 8.16 87.67 9.19 90.26 10.47 91.5 11.24 92.74 11.98 94.21 12.48 95.76 12.67 99.22 12.69 102.69 12.54 109.78 12.08 116.88 11.57 129.29 10.65 141.7 9.75 134.99 10.72 128.28 11.66 123.94 12.25 119.6 12.8 117.17 13.07 114.74 13.26 113.75 13.27 112.78 13.13 112.62 12.83 112.83 12.51 113.38 11.99 113.96 11.5 114.64 10.87 115.26 10.17 115.69 9.45 115.83 8.64" fill="none" stroke="#aaa" stroke-miterlimit="10" stroke-width=".5"/>
  <polyline points="48.11 1.15 58.42 2.91 68.67 4.98 74.33 6.36 79.9 8.04 82.55 9.05 85.09 10.31 86.3 11.06 87.52 11.79 88.96 12.28 90.49 12.47 93.88 12.49 97.28 12.34 104.24 11.89 111.2 11.38 123.36 10.48 135.52 9.59 128.86 10.56 122.21 11.5 117.94 12.08 113.67 12.62 111.32 12.87 108.98 13.05 108.06 13.06 107.18 12.89 107.1 12.55 107.34 12.24 107.92 11.71 108.52 11.19 109.2 10.56 109.79 9.85 110.16 9.11 110.21 8.3" fill="none" stroke="#aaa" stroke-miterlimit="10" stroke-width=".5"/>
  <polyline points="43.38 1.15 53.47 2.94 63.49 5.03 69.03 6.42 74.49 8.12 77.1 9.15 79.6 10.42 80.81 11.18 82.03 11.91 83.48 12.41 85.01 12.59 88.37 12.61 91.74 12.45 98.59 11.99 105.45 11.47 117.39 10.55 129.34 9.65 122.79 10.63 116.24 11.59 112.08 12.18 107.92 12.73 105.66 12.98 103.41 13.15 102.57 13.15 101.77 12.97 101.78 12.6 102.05 12.29 102.67 11.74 103.3 11.2 103.98 10.54 104.57 9.8 104.9 9.04 104.9 8.21" fill="none" stroke="#aaa" stroke-miterlimit="10" stroke-width=".5"/>
  <polyline points="38.31 1.15 48.15 3.02 57.93 5.2 63.37 6.67 68.7 8.43 71.29 9.52 73.77 10.83 75.01 11.63 76.26 12.38 77.74 12.89 79.31 13.08 82.68 13.08 86.05 12.91 92.84 12.41 99.62 11.86 111.39 10.89 123.16 9.93 116.78 10.96 110.39 11.97 106.37 12.59 102.34 13.16 100.19 13.42 98.05 13.6 97.29 13.6 96.59 13.41 96.68 13.01 96.99 12.68 97.65 12.11 98.32 11.54 99.02 10.85 99.62 10.07 99.96 9.27 99.95 8.4" fill="none" stroke="#aaa" stroke-miterlimit="10" stroke-width=".5"/>
  <polyline points="32.9 1.15 42.49 3.16 52 5.51 57.34 7.09 62.56 8.98 65.14 10.15 67.6 11.54 68.89 12.4 70.2 13.2 71.74 13.73 73.38 13.92 76.79 13.91 80.21 13.71 86.97 13.16 93.73 12.55 105.35 11.49 116.99 10.44 110.82 11.53 104.65 12.61 100.79 13.27 96.92 13.88 94.9 14.17 92.88 14.36 92.21 14.36 91.6 14.16 91.78 13.73 92.14 13.39 92.85 12.79 93.56 12.17 94.31 11.44 94.95 10.62 95.33 9.77 95.36 8.84" fill="none" stroke="#aaa" stroke-miterlimit="10" stroke-width=".5"/>
  <polyline points="27.19 1.15 36.53 3.37 45.77 5.93 51 7.67 56.1 9.73 58.69 11.02 61.16 12.53 62.5 13.47 63.89 14.32 65.53 14.88 67.27 15.09 70.75 15.06 74.24 14.82 81 14.2 87.76 13.51 99.28 12.32 110.81 11.14 104.89 12.31 98.98 13.47 95.31 14.17 91.64 14.83 89.75 15.13 87.87 15.35 87.27 15.36 86.77 15.14 87.05 14.7 87.45 14.33 88.23 13.7 88.99 13.04 89.8 12.26 90.5 11.39 90.95 10.49 91.07 9.5" fill="none" stroke="#aaa" stroke-miterlimit="10" stroke-width=".5"/>
  <polyline points="21.28 1.15 30.35 3.61 39.31 6.44 44.44 8.37 49.43 10.64 52.03 12.08 54.51 13.72 55.93 14.75 57.42 15.68 59.17 16.28 61.02 16.5 64.6 16.44 68.18 16.16 74.97 15.45 81.76 14.66 93.19 13.31 104.63 11.98 99 13.24 93.36 14.49 89.9 15.24 86.42 15.96 84.69 16.29 82.94 16.53 82.44 16.55 82.05 16.33 82.42 15.87 82.88 15.48 83.72 14.8 84.56 14.11 85.43 13.27 86.21 12.34 86.74 11.38 86.97 10.32" fill="none" stroke="#aaa" stroke-miterlimit="10" stroke-width=".5"/>
  <polyline points="15.28 1.15 24.08 3.88 32.75 7 37.78 9.15 42.65 11.63 45.28 13.24 47.77 15.03 49.28 16.17 50.87 17.17 52.74 17.81 54.71 18.04 58.4 17.96 62.08 17.63 68.91 16.81 75.74 15.92 87.09 14.39 98.45 12.89 93.1 14.24 87.75 15.59 84.49 16.4 81.23 17.19 79.65 17.54 78.05 17.82 77.62 17.84 77.38 17.62 77.84 17.14 78.37 16.72 79.28 16.01 80.18 15.26 81.13 14.37 81.99 13.39 82.61 12.36 82.95 11.22" fill="none" stroke="#aaa" stroke-miterlimit="10" stroke-width=".5"/>
  <polyline points="9.3 1.15 17.83 4.15 26.21 7.57 31.14 9.93 35.9 12.63 38.54 14.41 41.05 16.34 42.64 17.58 44.33 18.66 46.32 19.34 48.42 19.58 52.21 19.47 55.99 19.09 62.86 18.18 69.71 17.17 80.99 15.47 92.28 13.79 87.2 15.23 82.13 16.68 79.07 17.55 76.02 18.39 74.58 18.77 73.14 19.08 72.77 19.11 72.68 18.89 73.23 18.4 73.83 17.95 74.82 17.2 75.78 16.42 76.81 15.47 77.73 14.42 78.44 13.34 78.88 12.12" fill="none" stroke="#aaa" stroke-miterlimit="10" stroke-width=".5"/>
  <polyline points="3.45 1.15 11.73 4.41 19.82 8.08 24.66 10.65 29.3 13.55 31.94 15.48 34.47 17.54 36.12 18.89 37.91 20.03 40 20.75 42.21 21 46.09 20.86 49.96 20.43 56.85 19.42 63.72 18.31 74.91 16.45 86.1 14.61 81.28 16.13 76.46 17.67 73.6 18.58 70.74 19.49 69.45 19.88 68.14 20.23 67.83 20.26 67.89 20.04 68.53 19.54 69.2 19.06 70.26 18.28 71.29 17.45 72.38 16.45 73.37 15.35 74.15 14.2 74.67 12.92" fill="none" stroke="#aaa" stroke-miterlimit="10" stroke-width=".5"/>
  <polyline points="-2.15 1.15 5.87 4.62 13.69 8.51 18.42 11.25 22.95 14.31 25.59 16.37 28.12 18.54 29.83 19.96 31.69 21.17 33.87 21.92 36.17 22.17 40.11 22.01 44.03 21.54 50.92 20.45 57.78 19.25 68.85 17.25 79.92 15.27 75.33 16.86 70.74 18.47 68.05 19.42 65.37 20.38 64.21 20.79 63.04 21.16 62.77 21.17 62.98 20.96 63.7 20.45 64.43 19.95 65.54 19.14 66.63 18.27 67.77 17.23 68.81 16.09 69.64 14.88 70.22 13.55" fill="none" stroke="#aaa" stroke-miterlimit="10" stroke-width=".5"/>
  <polyline points="-7.46 1.15 .31 4.78 7.87 8.83 12.5 11.7 16.91 14.88 19.53 17.03 22.05 19.28 23.8 20.76 25.71 22 27.95 22.78 30.3 23.04 34.28 22.86 38.23 22.35 45.08 21.2 51.91 19.93 62.82 17.83 73.74 15.75 69.35 17.38 64.97 19.05 62.43 20.03 59.91 21.02 58.86 21.43 57.81 21.82 57.69 21.79 57.92 21.62 58.71 21.1 59.49 20.57 60.66 19.73 61.78 18.84 62.97 17.76 64.04 16.58 64.91 15.34 65.52 13.95" fill="none" stroke="#aaa" stroke-miterlimit="10" stroke-width=".5"/>
  <polyline points="-12.58 1.15 -5.04 4.9 2.26 9.06 6.77 12.03 11.08 15.3 13.67 17.52 16.18 19.82 17.95 21.35 19.9 22.63 22.17 23.41 24.57 23.68 28.56 23.48 32.52 22.95 39.31 21.75 46.07 20.43 56.82 18.25 67.57 16.08 63.36 17.75 59.17 19.46 56.77 20.46 54.39 21.48 53.44 21.89 52.49 22.3 52.5 22.24 52.75 22.09 53.59 21.56 54.43 21.01 55.63 20.16 56.79 19.24 58 18.13 59.1 16.92 59.99 15.65 60.63 14.24" fill="none" stroke="#aaa" stroke-miterlimit="10" stroke-width=".5"/>
  <polyline points="-17.64 1.15 -10.34 5.01 -3.28 9.27 1.12 12.33 5.3 15.67 7.87 17.96 10.36 20.31 12.15 21.88 14.13 23.18 16.44 23.98 18.87 24.24 22.86 24.03 26.83 23.48 33.55 22.24 40.25 20.86 50.82 18.62 61.39 16.37 57.36 18.07 53.35 19.81 51.09 20.83 48.85 21.87 47.99 22.28 47.15 22.7 47.28 22.64 47.55 22.49 48.44 21.96 49.32 21.39 50.55 20.52 51.74 19.58 52.98 18.45 54.1 17.22 55.01 15.92 55.67 14.48" fill="none" stroke="#aaa" stroke-miterlimit="10" stroke-width=".5"/>
  <polyline points="-22.76 1.15 -15.7 5.13 -8.89 9.5 -4.6 12.66 -.53 16.08 2 18.44 4.48 20.84 6.3 22.45 8.32 23.78 10.66 24.6 13.14 24.86 17.14 24.64 21.11 24.06 27.78 22.78 34.42 21.35 44.81 19.02 55.21 16.69 51.37 18.42 47.55 20.2 45.43 21.24 43.33 22.3 42.57 22.71 41.84 23.16 42.07 23.09 42.38 22.94 43.32 22.4 44.24 21.82 45.51 20.93 46.73 19.97 47.99 18.82 49.14 17.56 50.08 16.23 50.77 14.77" fill="none" stroke="#aaa" stroke-miterlimit="10" stroke-width=".5"/>
  <polyline points="-28 1.15 -21.18 5.27 -14.62 9.78 -10.45 13.05 -6.49 16.57 -3.98 19.02 -1.51 21.49 .34 23.15 2.4 24.52 4.8 25.36 7.33 25.62 11.36 25.38 15.35 24.77 21.97 23.43 28.56 21.94 38.79 19.52 49.03 17.09 45.39 18.87 41.78 20.69 39.8 21.74 37.86 22.84 37.19 23.25 36.58 23.72 36.91 23.66 37.27 23.5 38.26 22.95 39.24 22.35 40.55 21.45 41.8 20.46 43.1 19.29 44.28 18 45.25 16.64 45.98 15.14" fill="none" stroke="#aaa" stroke-miterlimit="10" stroke-width=".5"/>
  <polyline points="-33.36 1.15 -26.79 5.43 -20.49 10.08 -16.43 13.49 -12.57 17.12 -10.08 19.67 -7.61 22.22 -5.73 23.95 -3.61 25.36 -1.16 26.22 1.44 26.5 5.51 26.25 9.53 25.6 16.12 24.21 22.67 22.64 32.76 20.12 42.86 17.57 39.41 19.39 36.02 21.27 34.19 22.34 32.41 23.48 31.84 23.89 31.36 24.38 31.78 24.34 32.21 24.17 33.26 23.62 34.29 23 35.64 22.08 36.94 21.07 38.27 19.87 39.49 18.55 40.5 17.16 41.28 15.62" fill="none" stroke="#aaa" stroke-miterlimit="10" stroke-width=".5"/>
  <polyline points="-38.77 1.15 -32.45 5.58 -26.41 10.38 -22.46 13.95 -18.72 17.72 -16.23 20.45 -13.77 23.18 -11.84 25.12 -9.67 26.77 -7.17 27.92 -4.49 28.5 -.4 28.65 3.69 28.37 10.25 27.5 16.77 26.39 26.73 24.53 36.68 22.59 33.45 24.01 30.24 25.44 28.6 26.17 26.96 26.9 26.54 27.07 26.17 27.15 26.68 26.74 27.22 26.35 28.34 25.54 29.46 24.69 30.86 23.54 32.22 22.33 33.59 20.95 34.85 19.46 35.89 17.91 36.7 16.23" fill="none" stroke="#aaa" stroke-miterlimit="10" stroke-width=".5"/>
  <polyline points="-44.13 1.15 -38.06 5.73 -32.28 10.67 -28.43 14.39 -24.81 18.3 -22.33 21.2 -19.89 24.11 -17.9 26.26 -15.69 28.16 -13.15 29.6 -10.38 30.51 -6.28 31.11 -2.13 31.23 4.39 30.94 10.89 30.37 20.7 29.25 30.5 28 27.49 28.98 24.48 29.9 23.01 30.28 21.51 30.53 21.04 30.47 20.95 30.07 21.51 29.33 22.16 28.67 23.33 27.58 24.51 26.5 25.95 25.14 27.36 23.73 28.77 22.16 30.07 20.51 31.15 18.82 32.01 17.01" fill="none" stroke="#aaa" stroke-miterlimit="10" stroke-width=".5"/>
  <polyline points="-49.3 1.15 -43.48 5.85 -37.95 10.89 -34.21 14.72 -30.7 18.74 -28.25 21.76 -25.82 24.79 -23.8 27.08 -21.55 29.14 -18.98 30.77 -16.15 31.88 -12.05 32.73 -7.87 33.1 -1.41 33.16 5.04 32.89 14.69 32.21 24.32 31.35 21.52 32.08 18.7 32.69 17.36 32.88 16.02 32.84 15.58 32.51 15.66 31.96 16.26 31.04 17 30.21 18.2 28.97 19.43 27.74 20.91 26.24 22.34 24.71 23.78 23.03 25.11 21.28 26.23 19.5 27.13 17.6" fill="none" stroke="#aaa" stroke-miterlimit="10" stroke-width=".5"/>
  <polyline points="-54.16 1.15 -48.57 5.92 -43.27 10.99 -39.66 14.89 -36.25 18.95 -33.84 22.05 -31.43 25.14 -29.41 27.52 -27.14 29.67 -24.56 31.41 -21.71 32.66 -17.64 33.68 -13.47 34.21 -7.11 34.49 -.74 34.43 8.71 34.03 18.15 33.44 15.52 34.01 12.87 34.41 11.63 34.47 10.43 34.24 10.08 33.72 10.23 33.09 10.88 32.05 11.67 31.1 12.9 29.76 14.16 28.44 15.65 26.86 17.1 25.25 18.55 23.51 19.9 21.69 21.03 19.86 21.95 17.92" fill="none" stroke="#aaa" stroke-miterlimit="10" stroke-width=".5"/>
  <polyline points="-58.56 1.15 -53.19 5.89 -48.1 10.93 -44.61 14.82 -41.32 18.86 -38.96 21.96 -36.6 25.05 -34.6 27.45 -32.36 29.63 -29.81 31.41 -26.98 32.72 -22.98 33.82 -18.87 34.43 -12.65 34.84 -6.42 34.9 2.78 34.67 11.97 34.23 9.47 34.7 6.97 34.98 5.8 34.97 4.71 34.63 4.43 34.01 4.62 33.33 5.31 32.23 6.12 31.22 7.36 29.84 8.63 28.47 10.11 26.86 11.55 25.22 12.99 23.46 14.33 21.62 15.45 19.77 16.36 17.82" fill="none" stroke="#aaa" stroke-miterlimit="10" stroke-width=".5"/>
  <polyline points="-62.38 1.15 -57.21 5.77 -52.32 10.67 -48.95 14.45 -45.78 18.39 -43.49 21.41 -41.22 24.42 -39.27 26.76 -37.1 28.89 -34.62 30.64 -31.87 31.93 -28 33.02 -24.01 33.64 -18 34.06 -11.97 34.15 -3.09 33.96 5.79 33.58 3.39 34 .98 34.25 -.13 34.22 -1.16 33.86 -1.41 33.21 -1.2 32.53 -.51 31.44 .3 30.43 1.52 29.06 2.77 27.7 4.22 26.11 5.64 24.49 7.03 22.76 8.33 20.94 9.41 19.13 10.27 17.21" fill="none" stroke="#aaa" stroke-miterlimit="10" stroke-width=".5"/>
  <polyline points="-65.58 1.15 -60.59 5.52 -55.86 10.18 -52.62 13.75 -49.57 17.48 -47.39 20.33 -45.22 23.18 -43.37 25.38 -41.31 27.38 -38.97 29.01 -36.37 30.19 -32.68 31.17 -28.89 31.71 -23.15 32.04 -17.39 32.06 -8.89 31.79 -.39 31.34 -2.74 31.8 -5.12 32.1 -6.2 32.11 -7.22 31.81 -7.46 31.23 -7.27 30.61 -6.6 29.58 -5.82 28.63 -4.64 27.33 -3.44 26.05 -2.05 24.53 -.7 22.98 .63 21.33 1.84 19.6 2.84 17.87 3.62 16.03" fill="none" stroke="#aaa" stroke-miterlimit="10" stroke-width=".5"/>
</svg>