<?xml version="1.0" encoding="UTF-8"?>
<svg id="Ebene_1" xmlns="http://www.w3.org/2000/svg" width="222" height="222" viewBox="0 0 222 222">
  <polyline points="23.72 184.67 23.7 184.61 23.72 184.55 23.76 184.51 23.82 184.5 27.67 185.09 31.53 185.68 36.2 183.34 40.87 181.01 40.88 175.47 40.89 169.93 28.38 168.02 15.87 166.1 11.18 168.45 6.49 170.79 6.49 184.54 6.49 198.29 11.5 199.05 16.52 199.82 16.52 195.62 16.52 191.43 16.54 191.37 16.59 191.33 16.66 191.33 16.71 191.36 26.11 203.13 35.52 214.9 39.04 211.56 42.56 208.22 33.14 196.44 23.72 184.67" fill="none" stroke="#aaa" stroke-miterlimit="10" stroke-width=".5"/>
  <polyline points="35.51 215.16 35.51 215.16 35.5 215.16 35.46 215.15 35.43 215.12 26.08 203.42 16.73 191.72 16.73 195.83 16.73 199.94 16.72 199.98 16.7 200.02 16.66 200.04 16.61 200.04 11.49 199.26 6.37 198.48 6.3 198.44 6.28 198.38 6.28 184.55 6.28 170.73 6.29 170.67 6.34 170.64 11.07 168.27 15.8 165.9 15.83 165.89 15.87 165.89 28.44 167.82 41.01 169.74 41.07 169.77 41.1 169.84 41.08 175.46 41.07 181.07 41.06 181.13 41.02 181.16 36.3 183.52 31.59 185.88 31.56 185.89 31.53 185.89 27.79 185.32 24.05 184.74 33.42 196.46 42.79 208.17 42.81 208.24 42.78 208.31 39.18 211.72 35.58 215.13 35.55 215.15 35.51 215.16" fill="none" stroke="#aaa" stroke-miterlimit="10" stroke-width=".5"/>
  <polyline points="42.7 208.34 42.73 208.33 42.75 208.32 47.48 205.96 52.22 203.59 52.25 203.56 52.27 203.52 52.27 203.47 52.25 203.43 44.24 193.43 36.23 183.42 36.16 183.38 36.08 183.4 36.04 183.47 36.07 183.55 44.04 193.51 52.01 203.46 47.33 205.8 42.66 208.14 42.61 208.2 42.61 208.28 42.65 208.32 42.7 208.34" fill="none" stroke="#aaa" stroke-miterlimit="10" stroke-width=".5"/>
  <polyline points="31.54 185.89 31.62 185.86 31.65 185.79 31.65 180.18 31.65 174.58 31.62 174.51 31.56 174.47 18.98 172.55 6.4 170.63 6.32 170.65 6.28 170.71 6.3 170.79 6.37 170.83 18.9 172.75 31.44 174.67 31.44 180.23 31.44 185.79 31.47 185.86 31.54 185.89" fill="none" stroke="#aaa" stroke-miterlimit="10" stroke-width=".5"/>
  <polyline points="31.54 174.68 31.57 174.68 31.59 174.67 36.31 172.3 41.04 169.93 41.09 169.87 41.08 169.8 41.02 169.74 40.95 169.75 36.22 172.12 31.5 174.48 31.45 174.54 31.45 174.62 31.49 174.67 31.54 174.68" fill="none" stroke="#aaa" stroke-miterlimit="10" stroke-width=".5"/>
  <polyline points="16.63 200.04 16.65 200.04 16.67 200.03 19.1 198.81 21.53 197.6 21.59 197.54 21.58 197.46 21.52 197.41 21.44 197.41 19.01 198.63 16.58 199.84 16.53 199.9 16.54 199.98 16.57 200.02 16.63 200.04" fill="none" stroke="#aaa" stroke-miterlimit="10" stroke-width=".5"/>
  <polyline points="35.51 215.16 35.53 215.16 35.56 215.15 40.29 212.78 45.02 210.41 45.04 210.41 45.05 210.4 48.65 206.98 52.24 203.57 52.28 203.5 52.25 203.43 52.17 203.39 52.1 203.42 48.51 206.83 44.92 210.23 40.19 212.6 35.46 214.96 35.41 215.02 35.42 215.1 35.46 215.14 35.51 215.16" fill="none" stroke="#aaa" stroke-miterlimit="10" stroke-width=".5"/>
</svg>