<?xml version="1.0" encoding="UTF-8"?><svg id="Ebene_1" xmlns="http://www.w3.org/2000/svg" viewBox="0 0 222 222"><polyline points="220.3 .06 225.76 3.12 230.9 6.71 234.59 9.91 237.92 13.48 240.27 16.59 242.33 19.89 243.77 22.63 245.08 25.44 246.05 27.56 247.12 29.63 248.1 30.99 249.42 31.99 251.17 32.33 252.93 32.02 255.85 30.8 258.61 29.22" style="fill:none; stroke:#aaa; stroke-miterlimit:10; stroke-width:.5px;"/><polyline points="212.87 .04 218.56 3.36 223.9 7.21 227.77 10.67 231.25 14.51 233.73 17.86 235.9 21.42 237.43 24.38 238.83 27.41 239.87 29.72 241.03 31.97 242.06 33.45 243.46 34.57 245.27 34.98 247.12 34.69 250.13 33.45 252.97 31.81" style="fill:none; stroke:#aaa; stroke-miterlimit:10; stroke-width:.5px;"/><polyline points="205.56 .03 211.48 3.57 217.02 7.67 221.06 11.37 224.69 15.45 227.29 19.04 229.57 22.83 231.2 26 232.68 29.24 233.79 31.72 235.01 34.13 236.1 35.73 237.57 36.97 239.43 37.44 241.36 37.18 244.47 35.91 247.39 34.22" style="fill:none; stroke:#aaa; stroke-miterlimit:10; stroke-width:.5px;"/><polyline points="198.53 .02 204.66 3.74 210.4 8.05 214.59 11.95 218.37 16.24 221.08 20.01 223.46 24 225.16 27.35 226.72 30.76 227.88 33.38 229.16 35.93 230.3 37.63 231.83 38.96 233.75 39.49 235.74 39.25 238.94 37.97 241.94 36.23" style="fill:none; stroke:#aaa; stroke-miterlimit:10; stroke-width:.5px;"/><polyline points="191.86 0 198.2 3.87 204.12 8.33 208.47 12.35 212.37 16.8 215.18 20.71 217.65 24.83 219.41 28.3 221.02 31.84 222.23 34.56 223.55 37.22 224.72 38.98 226.3 40.38 228.26 40.96 230.31 40.73 233.59 39.44 236.67 37.68" style="fill:none; stroke:#aaa; stroke-miterlimit:10; stroke-width:.5px;"/><polyline points="185.56 0 192.1 3.93 198.21 8.48 202.69 12.58 206.71 17.12 209.6 21.1 212.14 25.31 213.96 28.85 215.61 32.46 216.84 35.24 218.19 37.96 219.38 39.77 220.99 41.2 222.99 41.81 225.09 41.59 228.44 40.29 231.58 38.51" style="fill:none; stroke:#aaa; stroke-miterlimit:10; stroke-width:.5px;"/><polyline points="179.58 0 186.3 3.95 192.6 8.54 197.19 12.67 201.33 17.24 204.29 21.25 206.89 25.5 208.74 29.07 210.42 32.71 211.67 35.52 213.03 38.26 214.24 40.09 215.86 41.54 217.89 42.15 220.02 41.94 223.45 40.63 226.66 38.84" style="fill:none; stroke:#aaa; stroke-miterlimit:10; stroke-width:.5px;"/><polyline points="173.79 0 180.7 3.94 187.18 8.54 191.88 12.66 196.13 17.24 199.15 21.25 201.81 25.51 203.68 29.07 205.38 32.72 206.64 35.52 208 38.27 209.22 40.1 210.85 41.55 212.91 42.16 215.07 41.94 218.56 40.63 221.83 38.84" style="fill:none; stroke:#aaa; stroke-miterlimit:10; stroke-width:.5px;"/><polyline points="168.11 0 175.19 3.92 181.85 8.5 186.66 12.6 191.01 17.17 194.1 21.16 196.8 25.41 198.7 28.96 200.41 32.6 201.67 35.39 203.04 38.13 204.26 39.95 205.9 41.39 207.99 42 210.17 41.78 213.72 40.46 217.07 38.67" style="fill:none; stroke:#aaa; stroke-miterlimit:10; stroke-width:.5px;"/><polyline points="162.44 0 169.7 3.89 176.54 8.46 181.46 12.53 185.92 17.09 189.06 21.06 191.82 25.29 193.73 28.82 195.46 32.45 196.73 35.23 198.1 37.95 199.32 39.77 200.96 41.2 203.08 41.79 205.29 41.57 208.9 40.25 212.32 38.46" style="fill:none; stroke:#aaa; stroke-miterlimit:10; stroke-width:.5px;"/><polyline points="156.75 0 164.18 3.87 171.21 8.42 176.24 12.47 180.8 17.02 184 20.96 186.8 25.19 188.74 28.71 190.48 32.32 191.75 35.09 193.12 37.8 194.35 39.62 196 41.04 198.14 41.63 200.38 41.4 204.05 40.09 207.54 38.3" style="fill:none; stroke:#aaa; stroke-miterlimit:10; stroke-width:.5px;"/><polyline points="151.02 0 158.62 3.85 165.83 8.4 170.97 12.43 175.64 16.97 178.9 20.9 181.75 25.13 183.72 28.63 185.48 32.24 186.75 35.01 188.13 37.72 189.36 39.53 191.01 40.94 193.18 41.54 195.44 41.31 199.18 40 202.73 38.21" style="fill:none; stroke:#aaa; stroke-miterlimit:10; stroke-width:.5px;"/><polyline points="145.25 0 153.04 3.84 160.43 8.38 165.68 12.4 170.46 16.95 173.78 20.87 176.68 25.09 178.68 28.6 180.45 32.2 181.73 34.97 183.11 37.68 184.35 39.49 186.01 40.9 188.21 41.49 190.5 41.26 194.29 39.95 197.92 38.16" style="fill:none; stroke:#aaa; stroke-miterlimit:10; stroke-width:.5px;"/><polyline points="139.51 0 147.48 3.82 155.06 8.36 160.41 12.37 165.3 16.91 168.68 20.82 171.64 25.05 173.65 28.54 175.45 32.15 176.73 34.91 178.11 37.61 179.35 39.42 181.03 40.83 183.25 41.42 185.57 41.19 189.43 39.87 193.12 38.08" style="fill:none; stroke:#aaa; stroke-miterlimit:10; stroke-width:.5px;"/><polyline points="133.88 0 142.02 3.8 149.78 8.32 155.24 12.29 160.24 16.82 163.67 20.7 166.68 24.91 168.71 28.38 170.52 31.98 171.81 34.72 173.18 37.41 174.43 39.21 176.1 40.6 178.36 41.19 180.7 40.95 184.64 39.63 188.4 37.85" style="fill:none; stroke:#aaa; stroke-miterlimit:10; stroke-width:.5px;"/><polyline points="128.45 0 136.77 3.74 144.71 8.21 150.26 12.13 155.36 16.61 158.84 20.44 161.89 24.6 163.93 28.03 165.74 31.58 167.02 34.28 168.39 36.94 169.63 38.72 171.31 40.08 173.59 40.64 175.95 40.4 179.96 39.08 183.79 37.29" style="fill:none; stroke:#aaa; stroke-miterlimit:10; stroke-width:.5px;"/><polyline points="123.33 0 131.82 3.65 139.94 8.02 145.58 11.83 150.78 16.22 154.28 19.94 157.36 24.02 159.4 27.36 161.19 30.83 162.46 33.46 163.8 36.05 165.03 37.78 166.69 39.09 169 39.62 171.38 39.36 175.46 38.04 179.38 36.27" style="fill:none; stroke:#aaa; stroke-miterlimit:10; stroke-width:.5px;"/><polyline points="118.6 .02 127.24 3.5 135.55 7.71 141.26 11.36 146.54 15.6 150.06 19.17 153.15 23.1 155.16 26.3 156.93 29.64 158.16 32.17 159.46 34.64 160.67 36.3 162.31 37.53 164.64 38 167.04 37.72 171.2 36.4 175.21 34.65" style="fill:none; stroke:#aaa; stroke-miterlimit:10; stroke-width:.5px;"/><polyline points="114.22 .03 123.02 3.31 131.52 7.31 137.29 10.74 142.65 14.77 146.16 18.13 149.25 21.87 151.22 24.88 152.94 28.04 154.11 30.42 155.36 32.74 156.55 34.31 158.15 35.42 160.52 35.82 162.93 35.5 167.21 34.18 171.35 32.46" style="fill:none; stroke:#aaa; stroke-miterlimit:10; stroke-width:.5px;"/><polyline points="110.1 .04 119.06 3.08 127.74 6.82 133.56 10 138.99 13.78 142.48 16.89 145.55 20.39 147.47 23.19 149.13 26.14 150.24 28.34 151.42 30.49 152.58 31.93 154.14 32.91 156.55 33.24 158.98 32.89 163.37 31.58 167.65 29.91" style="fill:none; stroke:#aaa; stroke-miterlimit:10; stroke-width:.5px;"/><polyline points="106.1 .06 115.21 2.84 124.09 6.3 129.94 9.21 135.45 12.72 138.9 15.55 141.96 18.81 143.81 21.37 145.4 24.09 146.44 26.1 147.55 28.06 148.68 29.39 150.19 30.23 152.64 30.47 155.11 30.11 159.64 28.82 164.08 27.21" style="fill:none; stroke:#aaa; stroke-miterlimit:10; stroke-width:.5px;"/><polyline points="102.06 .07 111.34 2.61 120.41 5.79 126.3 8.43 131.89 11.66 135.3 14.24 138.34 17.24 140.13 19.56 141.64 22.06 142.61 23.89 143.65 25.67 144.75 26.88 146.22 27.6 148.72 27.77 151.23 27.4 155.92 26.14 160.53 24.6" style="fill:none; stroke:#aaa; stroke-miterlimit:10; stroke-width:.5px;"/><polyline points="97.86 .09 107.3 2.4 116.57 5.32 122.5 7.73 128.16 10.71 131.55 13.05 134.58 15.82 136.3 17.94 137.75 20.24 138.65 21.9 139.62 23.52 140.72 24.63 142.15 25.24 144.71 25.36 147.26 24.98 152.11 23.76 156.9 22.3" style="fill:none; stroke:#aaa; stroke-miterlimit:10; stroke-width:.5px;"/><polyline points="93.36 .1 102.98 2.23 112.45 4.94 118.43 7.16 124.17 9.93 127.53 12.08 130.56 14.67 132.24 16.61 133.64 18.75 134.49 20.29 135.41 21.77 136.5 22.8 137.9 23.33 140.52 23.4 143.13 23.03 148.14 21.86 153.11 20.46" style="fill:none; stroke:#aaa; stroke-miterlimit:10; stroke-width:.5px;"/><polyline points="88.47 .11 98.27 2.11 107.93 4.68 113.99 6.76 119.82 9.39 123.18 11.41 126.23 13.86 127.87 15.69 129.24 17.71 130.05 19.16 130.94 20.56 132.03 21.53 133.42 22.01 136.09 22.05 138.76 21.68 143.92 20.55 149.04 19.2" style="fill:none; stroke:#aaa; stroke-miterlimit:10; stroke-width:.5px;"/><polyline points="83.14 .11 93.12 2.05 102.98 4.54 109.12 6.56 115.06 9.12 118.45 11.06 121.53 13.46 123.17 15.22 124.53 17.19 125.32 18.6 126.19 19.95 127.3 20.89 128.68 21.34 131.41 21.38 134.13 21.01 139.42 19.89 144.67 18.57" style="fill:none; stroke:#aaa; stroke-miterlimit:10; stroke-width:.5px;"/><polyline points="77.35 .11 87.53 2.05 97.57 4.54 103.83 6.56 109.88 9.12 113.32 11.06 116.45 13.46 118.11 15.22 119.48 17.2 120.29 18.6 121.16 19.95 122.28 20.9 123.68 21.35 126.46 21.38 129.22 21.02 134.62 19.89 139.98 18.57" style="fill:none; stroke:#aaa; stroke-miterlimit:10; stroke-width:.5px;"/><polyline points="71.14 .1 81.51 2.11 91.76 4.67 98.14 6.74 104.31 9.38 107.83 11.38 111.03 13.85 112.73 15.66 114.15 17.69 114.97 19.14 115.87 20.53 117.01 21.51 118.44 21.98 121.26 22.02 124.07 21.64 129.55 20.5 134.99 19.15" style="fill:none; stroke:#aaa; stroke-miterlimit:10; stroke-width:.5px;"/><polyline points="64.6 .1 75.17 2.2 85.6 4.89 92.13 7.08 98.43 9.84 102.05 11.95 105.34 14.54 107.1 16.45 108.57 18.58 109.43 20.11 110.37 21.57 111.54 22.6 113.01 23.11 115.87 23.16 118.72 22.78 124.27 21.6 129.76 20.19" style="fill:none; stroke:#aaa; stroke-miterlimit:10; stroke-width:.5px;"/><polyline points="57.83 .09 68.61 2.33 79.23 5.19 85.91 7.51 92.35 10.44 96.08 12.69 99.45 15.44 101.29 17.48 102.83 19.74 103.74 21.36 104.73 22.93 105.92 24.02 107.45 24.58 110.35 24.66 113.24 24.27 118.84 23.03 124.39 21.56" style="fill:none; stroke:#aaa; stroke-miterlimit:10; stroke-width:.5px;"/><polyline points="50.97 .08 61.95 2.47 72.77 5.51 79.61 7.99 86.18 11.11 90.02 13.51 93.5 16.42 95.42 18.6 97.02 21.01 97.99 22.74 99.03 24.42 100.26 25.59 101.83 26.2 104.78 26.31 107.71 25.9 113.37 24.62 118.96 23.08" style="fill:none; stroke:#aaa; stroke-miterlimit:10; stroke-width:.5px;"/><polyline points="44.15 .07 55.34 2.6 66.34 5.82 73.34 8.46 80.05 11.75 84.01 14.31 87.57 17.38 89.57 19.7 91.24 22.25 92.26 24.09 93.36 25.87 94.61 27.11 96.24 27.78 99.23 27.91 102.2 27.5 107.91 26.17 113.56 24.56" style="fill:none; stroke:#aaa; stroke-miterlimit:10; stroke-width:.5px;"/><polyline points="37.47 .06 48.87 2.72 60.06 6.09 67.21 8.87 74.05 12.31 78.11 15 81.77 18.22 83.83 20.66 85.56 23.33 86.63 25.26 87.77 27.14 89.06 28.43 90.73 29.16 93.76 29.31 96.78 28.9 102.56 27.52 108.27 25.85" style="fill:none; stroke:#aaa; stroke-miterlimit:10; stroke-width:.5px;"/><polyline points="31 .05 42.6 2.82 53.99 6.31 61.28 9.18 68.25 12.75 72.4 15.54 76.14 18.87 78.26 21.4 80.04 24.17 81.14 26.18 82.32 28.13 83.63 29.47 85.35 30.23 88.43 30.4 91.5 29.98 97.36 28.57 103.14 26.85" style="fill:none; stroke:#aaa; stroke-miterlimit:10; stroke-width:.5px;"/><polyline points="24.75 .05 36.55 2.88 48.14 6.45 55.56 9.4 62.65 13.06 66.88 15.92 70.69 19.33 72.85 21.93 74.67 24.76 75.8 26.82 77 28.82 78.34 30.2 80.09 30.98 83.22 31.16 86.34 30.73 92.3 29.28 98.17 27.53" style="fill:none; stroke:#aaa; stroke-miterlimit:10; stroke-width:.5px;"/><polyline points="18.68 .04 30.68 2.92 42.46 6.55 50 9.55 57.21 13.26 61.52 16.17 65.39 19.64 67.58 22.27 69.43 25.15 70.57 27.24 71.8 29.27 73.16 30.67 74.94 31.46 78.13 31.64 81.3 31.2 87.36 29.73 93.34 27.95" style="fill:none; stroke:#aaa; stroke-miterlimit:10; stroke-width:.5px;"/><polyline points="12.71 .04 24.91 2.95 36.89 6.62 44.55 9.64 51.88 13.39 56.25 16.33 60.17 19.84 62.4 22.5 64.27 25.41 65.43 27.52 66.67 29.56 68.05 30.98 69.85 31.78 73.1 31.95 76.33 31.5 82.5 30.02 88.59 28.21" style="fill:none; stroke:#aaa; stroke-miterlimit:10; stroke-width:.5px;"/><polyline points="6.82 .04 19.21 2.96 31.39 6.66 39.17 9.71 46.61 13.49 51.04 16.45 55.02 19.98 57.27 22.66 59.16 25.58 60.33 27.71 61.58 29.77 62.98 31.19 64.81 31.99 68.11 32.16 71.4 31.7 77.69 30.19 83.9 28.36" style="fill:none; stroke:#aaa; stroke-miterlimit:10; stroke-width:.5px;"/></svg>