<?xml version="1.0" encoding="UTF-8"?>
<svg id="Ebene_1" xmlns="http://www.w3.org/2000/svg" width="222" height="222" viewBox="0 0 222 222">
  <polyline points="220.64 10.44 221.08 10.7 221.52 10.96 221.94 11.22 222.36 11.47" fill="none" stroke="#aaa" stroke-miterlimit="10" stroke-width=".5"/>
  <polyline points="220.13 3.36 218.68 5.52 217.91 8.01 217.73 10.57 218.01 13.13 218.58 15.45 219.4 17.7 220.12 19.25 220.99 20.71 221.36 21.17 221.72 21.14 221.23 19.53 220.54 17.98 218.53 14.06 216.37 10.21 216.81 10.47 217.23 10.74 217.65 11 218.06 11.25 218.47 11.5 218.87 11.75 219.26 11.99 219.65 12.23 220.03 12.47 220.41 12.7 220.78 12.93 221.14 13.15 221.5 13.37 221.86 13.59 222.2 13.8 222.54 14.01" fill="none" stroke="#aaa" stroke-miterlimit="10" stroke-width=".5"/>
  <polyline points="220.15 .18 217.3 1.37 214.93 3.33 213.59 5.49 212.91 7.95 212.79 10.49 213.09 13.03 213.66 15.33 214.47 17.56 215.19 19.1 216.06 20.54 216.45 21.01 216.86 20.97 216.48 19.37 215.87 17.83 214.07 13.94 212.11 10.12 212.53 10.4 212.95 10.68 213.36 10.95 213.77 11.21 214.17 11.47 214.56 11.73 214.95 11.98 215.33 12.23 215.71 12.47 216.08 12.71 216.44 12.94 216.8 13.17 217.15 13.4 217.5 13.62 217.84 13.84 218.17 14.05" fill="none" stroke="#aaa" stroke-miterlimit="10" stroke-width=".5"/>
  <polyline points="214.41 .18 211.76 1.39 209.61 3.34 208.39 5.55 207.81 8.01 207.74 10.62 208.07 13.21 208.66 15.63 209.46 17.98 210.2 19.7 211.07 21.35 211.46 21.95 211.95 22.34 211.66 21.14 211.18 19.99 209.57 16.63 207.84 13.32 208.27 13.58 208.7 13.83 209.13 14.08 209.54 14.32 209.95 14.55 210.35 14.79 210.75 15.02 211.13 15.24 211.52 15.46 211.89 15.67 212.26 15.88 212.62 16.09 212.98 16.29 213.33 16.48 213.67 16.68 214.01 16.86" fill="none" stroke="#aaa" stroke-miterlimit="10" stroke-width=".5"/>
  <polyline points="208.61 .18 206.16 1.42 204.24 3.36 203.14 5.64 202.65 8.13 202.64 10.85 203 13.55 203.61 16.16 204.42 18.72 205.18 20.74 206.04 22.72 206.51 23.68 207.02 24.62 206.8 24.12 206.48 23.52 205.05 21 203.57 18.5 204.02 18.7 204.46 18.89 204.9 19.08 205.32 19.27 205.74 19.45 206.15 19.63 206.56 19.8 206.96 19.96 207.35 20.13 207.73 20.28 208.11 20.44 208.48 20.58 208.84 20.73 209.19 20.87 209.54 21 209.88 21.13" fill="none" stroke="#aaa" stroke-miterlimit="10" stroke-width=".5"/>
  <polyline points="202.79 .17 200.53 1.45 198.84 3.39 197.87 5.72 197.48 8.23 197.53 11.02 197.92 13.79 198.55 16.51 199.36 19.19 200.14 21.38 201.01 23.53 201.53 24.73 202.08 25.92 202.03 25.91 201.77 25.48 200.54 23.38 199.3 21.3 199.75 21.46 200.19 21.63 200.63 21.79 201.05 21.94 201.47 22.09 201.88 22.24 202.29 22.38 202.68 22.51 203.07 22.64 203.45 22.77 203.83 22.89 204.19 23.01 204.55 23.12 204.91 23.23 205.25 23.33 205.59 23.43" fill="none" stroke="#aaa" stroke-miterlimit="10" stroke-width=".5"/>
  <polyline points="196.96 .17 194.91 1.48 193.44 3.42 192.6 5.8 192.3 8.31 192.41 11.17 192.83 13.99 193.48 16.8 194.3 19.57 195.09 21.89 195.97 24.17 196.55 25.56 197.14 26.93 197.3 27.33 197.06 26.95 196.05 25.16 195.03 23.37 195.47 23.52 195.91 23.66 196.34 23.79 196.76 23.92 197.17 24.05 197.58 24.17 197.97 24.29 198.36 24.4 198.75 24.51 199.12 24.61 199.49 24.71 199.85 24.8 200.2 24.89 200.55 24.97 200.89 25.05 201.22 25.13" fill="none" stroke="#aaa" stroke-miterlimit="10" stroke-width=".5"/>
  <polyline points="191.12 .17 189.27 1.52 188.03 3.44 187.32 5.87 187.12 8.4 187.29 11.31 187.74 14.18 188.4 17.07 189.23 19.92 190.04 22.35 190.93 24.74 191.55 26.28 192.19 27.79 192.38 28.21 192.35 28.19 191.57 26.63 190.76 25.08 191.2 25.21 191.63 25.33 192.05 25.45 192.47 25.56 192.88 25.67 193.28 25.77 193.67 25.87 194.05 25.97 194.43 26.05 194.79 26.14 195.16 26.22 195.51 26.29 195.86 26.36 196.2 26.42 196.53 26.48 196.86 26.54" fill="none" stroke="#aaa" stroke-miterlimit="10" stroke-width=".5"/>
  <polyline points="185.22 .17 183.59 1.58 182.56 3.48 182 5.96 181.89 8.51 182.12 11.48 182.6 14.41 183.29 17.38 184.12 20.31 184.95 22.84 185.86 25.34 186.52 27 187.23 28.64 187.45 29.12 187.63 29.36 187.08 27.99 186.49 26.64 186.92 26.75 187.33 26.86 187.74 26.96 188.15 27.06 188.54 27.15 188.93 27.24 189.31 27.32 189.68 27.39 190.04 27.46 190.4 27.53 190.75 27.59 191.09 27.65 191.43 27.7 191.76 27.75 192.08 27.79 192.39 27.83" fill="none" stroke="#aaa" stroke-miterlimit="10" stroke-width=".5"/>
  <polyline points="179.2 .16 177.8 1.65 176.99 3.54 176.57 6.09 176.56 8.68 176.85 11.72 177.38 14.73 178.1 17.8 178.95 20.82 179.79 23.47 180.73 26.08 181.44 27.88 182.22 29.65 182.51 30.23 182.89 30.66 182.61 29.43 182.22 28.24 182.63 28.34 183.03 28.43 183.42 28.52 183.8 28.6 184.18 28.68 184.55 28.75 184.91 28.82 185.27 28.88 185.62 28.94 185.96 28.99 186.3 29.04 186.63 29.08 186.95 29.12 187.26 29.15 187.57 29.18 187.88 29.2" fill="none" stroke="#aaa" stroke-miterlimit="10" stroke-width=".5"/>
  <polyline points="172.98 .16 171.82 1.74 171.23 3.64 170.97 6.29 171.06 8.96 171.44 12.11 172.01 15.23 172.76 18.43 173.64 21.58 174.52 24.37 175.5 27.13 176.27 29.08 177.14 30.98 177.54 31.71 178.1 32.26 178.14 31.18 177.95 30.09 178.33 30.17 178.71 30.25 179.08 30.33 179.44 30.4 179.8 30.47 180.14 30.53 180.49 30.58 180.82 30.63 181.15 30.68 181.48 30.72 181.8 30.75 182.11 30.78 182.41 30.81 182.71 30.83 183.01 30.84 183.3 30.85" fill="none" stroke="#aaa" stroke-miterlimit="10" stroke-width=".5"/>
  <polyline points="166.47 .15 165.58 1.87 165.21 3.8 165.12 6.59 165.32 9.38 165.79 12.7 166.43 15.99 167.24 19.36 168.16 22.7 169.09 25.67 170.13 28.6 170.98 30.73 171.95 32.79 172.5 33.69 173.27 34.35 173.67 33.43 173.68 32.35 174.03 32.43 174.38 32.5 174.72 32.57 175.05 32.63 175.38 32.68 175.7 32.73 176.02 32.78 176.33 32.82 176.63 32.85 176.94 32.89 177.23 32.91 177.52 32.93 177.81 32.95 178.09 32.96 178.36 32.97 178.64 32.97" fill="none" stroke="#aaa" stroke-miterlimit="10" stroke-width=".5"/>
  <polyline points="159.6 .13 159.02 2.02 158.87 4.01 158.97 6.97 159.3 9.93 159.88 13.45 160.6 16.94 161.47 20.53 162.46 24.08 163.46 27.25 164.58 30.38 165.53 32.68 166.64 34.9 167.35 35.94 168.36 36.66 169.14 35.87 169.41 34.71 169.72 34.78 170.03 34.85 170.33 34.91 170.62 34.97 170.91 35.03 171.2 35.08 171.48 35.13 171.76 35.17 172.04 35.2 172.31 35.24 172.58 35.26 172.84 35.29 173.1 35.31 173.35 35.32 173.61 35.33 173.85 35.34" fill="none" stroke="#aaa" stroke-miterlimit="10" stroke-width=".5"/>
  <polyline points="152.42 .1 152.18 2.18 152.24 4.28 152.55 7.47 153.02 10.65 153.73 14.43 154.54 18.19 155.5 22.04 156.57 25.86 157.65 29.28 158.87 32.65 159.94 35.15 161.22 37.53 162.13 38.72 163.39 39.47 164.54 38.74 165.14 37.44 165.4 37.51 165.65 37.58 165.9 37.64 166.15 37.7 166.39 37.76 166.63 37.81 166.87 37.86 167.1 37.9 167.34 37.94 167.57 37.98 167.79 38.01 168.02 38.04 168.24 38.07 168.46 38.09 168.68 38.11 168.89 38.13" fill="none" stroke="#aaa" stroke-miterlimit="10" stroke-width=".5"/>
  <polyline points="145.03 .07 145.16 2.33 145.43 4.6 145.96 8.05 146.58 11.5 147.41 15.59 148.34 19.66 149.39 23.83 150.56 27.97 151.73 31.68 153.07 35.33 154.27 38.05 155.73 40.62 156.86 41.97 158.38 42.74 159.91 42.03 160.87 40.58 161.06 40.64 161.25 40.7 161.43 40.75 161.61 40.81 161.8 40.86 161.98 40.9 162.15 40.95 162.33 40.99 162.51 41.03 162.68 41.07 162.86 41.1 163.03 41.14 163.2 41.17 163.37 41.2 163.53 41.22 163.7 41.24" fill="none" stroke="#aaa" stroke-miterlimit="10" stroke-width=".5"/>
  <polyline points="137.59 .05 138.03 3.69 138.56 7.32 139.28 11.61 140.09 15.89 141.04 20.39 142.1 24.87 143.23 29.12 144.51 33.33 145.76 36.9 147.24 40.37 148.56 42.84 150.22 45.08 151.63 46.2 153.37 46.55 155.25 45.54 156.61 43.86 156.7 43.89 156.78 43.92 156.87 43.95 156.96 43.98 157.05 44.01 157.13 44.04 157.22 44.07 157.31 44.09 157.39 44.12 157.48 44.15 157.56 44.17 157.65 44.2 157.73 44.22 157.82 44.24 157.9 44.27 157.98 44.29" fill="none" stroke="#aaa" stroke-miterlimit="10" stroke-width=".5"/>
  <polyline points="130.24 .04 130.99 4.31 131.78 8.59 132.69 13.37 133.67 18.15 134.74 22.99 135.91 27.82 137.13 32.29 138.51 36.72 139.85 40.4 141.45 43.97 142.9 46.48 144.74 48.69 146.41 49.78 148.37 49.99 150.61 48.85 152.34 46.99 152.35 46.99 152.36 47 152.38 47 152.39 47.01 152.4 47.01 152.42 47.02 152.43 47.03 152.44 47.03 152.46 47.04 152.47 47.04 152.48 47.05 152.5 47.05 152.51 47.06 152.52 47.06 152.54 47.07 152.55 47.07" fill="none" stroke="#aaa" stroke-miterlimit="10" stroke-width=".5"/>
  <polyline points="123.11 .02 124.15 4.68 125.15 9.34 126.23 14.4 127.34 19.45 128.49 24.5 129.73 29.52 130.99 34.16 132.4 38.74 133.78 42.57 135.42 46.28 136.94 48.95 138.85 51.32 140.64 52.6 142.77 53.04 145.21 52.24 147.23 50.61" fill="none" stroke="#aaa" stroke-miterlimit="10" stroke-width=".5"/>
  <polyline points="116.33 .01 117.63 4.92 118.83 9.84 120.06 15.08 121.27 20.31 122.5 25.49 123.79 30.65 125.07 35.39 126.51 40.09 127.9 44.03 129.55 47.87 131.1 50.67 133.05 53.2 134.9 54.66 137.14 55.34 139.7 54.86 141.94 53.5" fill="none" stroke="#aaa" stroke-miterlimit="10" stroke-width=".5"/>
  <polyline points="109.93 0 111.46 5.07 112.85 10.17 114.21 15.51 115.52 20.85 116.81 26.1 118.14 31.34 119.44 36.13 120.88 40.89 122.27 44.9 123.92 48.8 125.48 51.71 127.45 54.35 129.33 55.94 131.63 56.8 134.26 56.58 136.67 55.45" fill="none" stroke="#aaa" stroke-miterlimit="10" stroke-width=".5"/>
  <polyline points="103.86 0 105.6 5.15 107.16 10.35 108.64 15.72 110.04 21.11 111.38 26.37 112.74 31.62 114.05 36.42 115.48 41.19 116.86 45.22 118.49 49.16 120.04 52.12 121.99 54.83 123.89 56.53 126.22 57.55 128.89 57.54 131.4 56.62" fill="none" stroke="#aaa" stroke-miterlimit="10" stroke-width=".5"/>
  <polyline points="98.03 0 99.96 5.17 101.68 10.41 103.27 15.77 104.76 21.15 106.14 26.38 107.52 31.6 108.83 36.37 110.25 41.1 111.61 45.11 113.2 49.03 114.74 52.01 116.66 54.74 118.56 56.5 120.89 57.61 123.57 57.74 126.15 56.98" fill="none" stroke="#aaa" stroke-miterlimit="10" stroke-width=".5"/>
  <polyline points="92.35 0 94.47 5.15 96.34 10.39 98.03 15.7 99.59 21.05 101.02 26.21 102.42 31.37 103.73 36.07 105.12 40.74 106.46 44.7 108.02 48.57 109.52 51.53 111.41 54.25 113.29 56.03 115.6 57.17 118.28 57.39 120.91 56.74" fill="none" stroke="#aaa" stroke-miterlimit="10" stroke-width=".5"/>
  <polyline points="86.75 0 89.04 5.1 91.06 10.3 92.85 15.53 94.48 20.82 95.95 25.89 97.36 30.97 98.67 35.59 100.05 40.19 101.35 44.09 102.87 47.9 104.33 50.83 106.17 53.53 108.02 55.33 110.3 56.51 112.96 56.82 115.59 56.27" fill="none" stroke="#aaa" stroke-miterlimit="10" stroke-width=".5"/>
  <polyline points="81.17 0 83.64 5.01 85.81 10.16 87.71 15.31 89.42 20.52 90.93 25.52 92.37 30.53 93.68 35.09 95.04 39.63 96.33 43.47 97.82 47.24 99.26 50.14 101.07 52.82 102.91 54.6 105.18 55.79 107.86 56.12 110.52 55.61" fill="none" stroke="#aaa" stroke-miterlimit="10" stroke-width=".5"/>
  <polyline points="75.59 0 78.25 4.94 80.57 10.04 82.57 15.11 84.37 20.27 85.92 25.19 87.39 30.14 88.71 34.64 90.07 39.11 91.34 42.91 92.8 46.62 94.22 49.49 96.01 52.13 97.85 53.9 100.11 55.07 102.81 55.4 105.51 54.9" fill="none" stroke="#aaa" stroke-miterlimit="10" stroke-width=".5"/>
  <polyline points="70.03 0 72.86 4.87 75.35 9.92 77.46 14.93 79.33 20.03 80.94 24.89 82.44 29.78 83.76 34.21 85.11 38.63 86.37 42.37 87.81 46.03 89.21 48.85 90.98 51.45 92.82 53.19 95.08 54.33 97.82 54.65 100.55 54.14" fill="none" stroke="#aaa" stroke-miterlimit="10" stroke-width=".5"/>
  <polyline points="64.51 0 67.52 4.8 70.16 9.81 72.38 14.75 74.34 19.79 75.99 24.58 77.52 29.41 78.85 33.78 80.2 38.13 81.44 41.81 82.87 45.42 84.25 48.19 86 50.73 87.85 52.43 90.1 53.52 92.89 53.8 95.65 53.26" fill="none" stroke="#aaa" stroke-miterlimit="10" stroke-width=".5"/>
  <polyline points="59.09 0 62.28 4.72 65.08 9.68 67.4 14.54 69.44 19.51 71.14 24.22 72.7 28.98 74.03 33.27 75.38 37.55 76.6 41.15 78 44.68 79.37 47.38 81.11 49.85 82.96 51.49 85.22 52.51 88.05 52.72 90.85 52.14" fill="none" stroke="#aaa" stroke-miterlimit="10" stroke-width=".5"/>
  <polyline points="53.86 .01 57.23 4.62 60.18 9.5 62.6 14.25 64.71 19.14 66.45 23.74 68.03 28.4 69.36 32.58 70.7 36.76 71.9 40.26 73.27 43.68 74.62 46.29 76.34 48.65 78.19 50.21 80.44 51.12 83.33 51.23 86.16 50.58" fill="none" stroke="#aaa" stroke-miterlimit="10" stroke-width=".5"/>
  <polyline points="48.91 .02 52.44 4.48 55.55 9.25 58.05 13.85 60.24 18.61 62 23.06 63.59 27.58 64.91 31.61 66.22 35.64 67.39 38.99 68.73 42.27 70.04 44.74 71.73 46.95 73.6 48.4 75.83 49.16 78.77 49.14 81.63 48.39" fill="none" stroke="#aaa" stroke-miterlimit="10" stroke-width=".5"/>
  <polyline points="44.31 .03 47.98 4.3 51.24 8.9 53.82 13.3 56.06 17.87 57.84 22.12 59.43 26.44 60.72 30.27 62 34.1 63.12 37.25 64.41 40.33 65.68 42.62 67.34 44.63 69.22 45.9 71.42 46.48 74.41 46.26 77.31 45.37" fill="none" stroke="#aaa" stroke-miterlimit="10" stroke-width=".5"/>
  <polyline points="40.02 .04 43.85 4.07 47.25 8.45 49.89 12.6 52.19 16.94 53.96 20.93 55.54 25.01 56.79 28.57 58.02 32.15 59.08 35.05 60.32 37.87 61.53 39.92 63.15 41.66 65.05 42.71 67.21 43.03 70.28 42.56 73.21 41.48" fill="none" stroke="#aaa" stroke-miterlimit="10" stroke-width=".5"/>
  <polyline points="35.96 .06 39.93 3.81 43.48 7.95 46.18 11.8 48.52 15.88 50.29 19.57 51.84 23.36 53.04 26.62 54.2 29.89 55.19 32.49 56.37 35 57.54 36.77 59.11 38.19 61.08 38.93 63.19 38.96 66.35 38.15 69.35 36.83" fill="none" stroke="#aaa" stroke-miterlimit="10" stroke-width=".5"/>
  <polyline points="31.99 .07 36.1 3.48 39.81 7.31 42.56 10.83 44.94 14.59 46.69 17.95 48.22 21.42 49.35 24.36 50.45 27.31 51.37 29.59 52.49 31.76 53.63 33.24 55.15 34.29 57.19 34.67 59.26 34.39 62.55 33.19 65.67 31.57" fill="none" stroke="#aaa" stroke-miterlimit="10" stroke-width=".5"/>
  <polyline points="27.94 .09 32.21 3.14 36.1 6.64 38.89 9.81 41.33 13.26 43.06 16.28 44.55 19.42 45.63 22.02 46.66 24.63 47.51 26.55 48.57 28.36 49.71 29.49 51.19 30.09 53.34 29.99 55.42 29.32 58.86 27.58 62.16 25.53" fill="none" stroke="#aaa" stroke-miterlimit="10" stroke-width=".5"/>
  <polyline points="23.68 .1 28.12 2.84 32.21 6.06 35.06 8.91 37.56 12.06 39.26 14.75 40.74 17.57 41.75 19.79 42.73 22.01 43.51 23.52 44.55 24.85 45.77 25.5 47.17 25.51 49.46 24.68 51.59 23.46 55.26 20.89 58.82 18.13" fill="none" stroke="#aaa" stroke-miterlimit="10" stroke-width=".5"/>
  <polyline points="19.1 .11 23.69 2.62 27.98 5.62 30.89 8.24 33.46 11.19 35.17 13.66 36.62 16.28 37.6 18.33 38.53 20.38 39.27 21.76 40.26 22.96 41.5 23.53 42.88 23.49 45.24 22.65 47.46 21.45 51.31 18.97 55.07 16.32" fill="none" stroke="#aaa" stroke-miterlimit="10" stroke-width=".5"/>
  <polyline points="14.13 .12 18.9 2.47 23.39 5.32 26.38 7.78 29.03 10.59 30.75 12.91 32.21 15.4 33.16 17.32 34.07 19.26 34.78 20.56 35.75 21.66 37.01 22.18 38.39 22.11 40.82 21.26 43.14 20.08 47.19 17.66 51.14 15.09" fill="none" stroke="#aaa" stroke-miterlimit="10" stroke-width=".5"/>
  <polyline points="8.81 .12 13.78 2.38 18.48 5.16 21.56 7.52 24.31 10.25 26.06 12.49 27.54 14.9 28.48 16.75 29.37 18.62 30.07 19.87 31.03 20.92 32.33 21.4 33.73 21.29 36.27 20.43 38.7 19.26 42.96 16.85 47.15 14.31" fill="none" stroke="#aaa" stroke-miterlimit="10" stroke-width=".5"/>
  <polyline points="3.24 .12 8.41 2.34 13.33 5.08 16.51 7.4 19.37 10.1 21.15 12.3 22.66 14.69 23.61 16.51 24.5 18.35 25.2 19.57 26.17 20.59 27.52 21.04 28.96 20.91 31.62 20.02 34.17 18.83 38.67 16.4 43.09 13.85" fill="none" stroke="#aaa" stroke-miterlimit="10" stroke-width=".5"/>
  <polyline points="8.02 5.08 11.32 7.38 14.29 10.09 16.12 12.28 17.66 14.67 18.62 16.48 19.52 18.31 20.23 19.53 21.21 20.52 22.62 20.95 24.11 20.81 26.89 19.89 29.57 18.67 34.31 16.2 38.97 13.6" fill="none" stroke="#aaa" stroke-miterlimit="10" stroke-width=".5"/>
  <polyline points="2.64 5.1 6.05 7.41 9.13 10.14 11.01 12.34 12.6 14.74 13.57 16.56 14.48 18.4 15.2 19.62 16.21 20.6 17.68 21.02 19.22 20.85 22.14 19.89 24.96 18.64 29.94 16.11 34.86 13.45" fill="none" stroke="#aaa" stroke-miterlimit="10" stroke-width=".5"/>
  <polyline points="3.95 10.23 5.88 12.44 7.51 14.87 8.49 16.69 9.42 18.54 10.15 19.77 11.18 20.74 12.72 21.14 14.32 20.95 17.38 19.95 20.34 18.66 25.58 16.07 30.76 13.35" fill="none" stroke="#aaa" stroke-miterlimit="10" stroke-width=".5"/>
  <polyline points="2.42 14.99 3.42 16.83 4.35 18.69 5.1 19.92 6.16 20.89 7.76 21.27 9.42 21.06 12.63 20.02 15.73 18.69 21.24 16.03 26.69 13.25" fill="none" stroke="#aaa" stroke-miterlimit="10" stroke-width=".5"/>
  <polyline points="4.52 21.19 7.87 20.11 11.13 18.74 16.9 16.01 22.62 13.16" fill="none" stroke="#aaa" stroke-miterlimit="10" stroke-width=".5"/>
  <polyline points="6.52 18.83 12.56 16.03 18.55 13.11" fill="none" stroke="#aaa" stroke-miterlimit="10" stroke-width=".5"/>
</svg>