<?xml version="1.0" encoding="UTF-8"?>
<svg id="Ebene_1" xmlns="http://www.w3.org/2000/svg" width="222" height="222" viewBox="0 0 222 222">
  <polyline points="36.11 22.2 27.47 39.75 18.82 57.31 24.13 56.47 29.44 55.63 38.09 38.07 46.73 20.52 41.42 21.36 36.11 22.2" fill="none" stroke="#aaa" stroke-miterlimit="10" stroke-width=".5"/>
  <polyline points="18.64 57.55 18.59 57.54 18.56 57.51 18.54 57.45 18.55 57.4 27.25 39.73 35.95 22.06 35.98 22.02 36.03 22 41.46 21.14 46.9 20.28 46.95 20.29 47 20.32 47.02 20.37 47.01 20.43 38.31 38.1 29.61 55.77 29.57 55.81 29.53 55.82 24.09 56.69 18.66 57.55 18.65 57.55 18.64 57.55" fill="none" stroke="#aaa" stroke-miterlimit="10" stroke-width=".5"/>
  <polyline points="18.64 57.55 18.62 57.55 18.59 57.54 14.23 55.44 9.86 53.34 9.83 53.31 9.81 53.28 9.8 53.24 9.81 53.2 18.51 35.53 27.21 17.86 27.24 17.82 27.29 17.8 32.73 16.94 38.16 16.08 38.19 16.08 38.22 16.09 42.59 18.19 46.96 20.29 47.01 20.35 47.01 20.43 46.95 20.48 46.87 20.48 42.51 18.38 38.16 16.29 32.77 17.14 27.38 18 18.71 35.6 10.04 53.19 14.36 55.27 18.68 57.35 18.74 57.41 18.73 57.49 18.69 57.53 18.64 57.55" fill="none" stroke="#aaa" stroke-miterlimit="10" stroke-width=".5"/>
  <polyline points="36.04 22.21 36.02 22.21 36 22.2 31.63 20.1 27.26 18 27.21 17.94 27.21 17.86 27.27 17.81 27.35 17.81 31.72 19.91 36.09 22.01 36.14 22.07 36.14 22.15 36.1 22.19 36.04 22.21" fill="none" stroke="#aaa" stroke-miterlimit="10" stroke-width=".5"/>
  <polyline points="51.55 19.75 42.91 37.31 34.26 54.86 39.57 54.02 44.88 53.18 53.53 35.63 62.17 18.07 56.86 18.91 51.55 19.75" fill="none" stroke="#aaa" stroke-miterlimit="10" stroke-width=".5"/>
  <polyline points="34.08 55.1 34.03 55.09 34 55.06 33.98 55.01 33.99 54.95 42.69 37.28 51.39 19.61 51.42 19.58 51.47 19.56 56.9 18.7 62.34 17.84 62.39 17.84 62.44 17.88 62.46 17.93 62.45 17.98 53.75 35.65 45.05 53.32 45.01 53.36 44.97 53.38 39.53 54.24 34.1 55.1 34.09 55.1 34.08 55.1" fill="none" stroke="#aaa" stroke-miterlimit="10" stroke-width=".5"/>
  <polyline points="34.08 55.1 34.06 55.1 34.03 55.09 32.33 54.27 30.63 53.45 30.58 53.39 30.58 53.32 30.64 53.26 30.72 53.27 32.42 54.09 34.12 54.91 34.18 54.96 34.17 55.04 34.13 55.09 34.08 55.1" fill="none" stroke="#aaa" stroke-miterlimit="10" stroke-width=".5"/>
  <polyline points="62.35 18.04 62.33 18.04 62.31 18.03 57.96 15.94 53.6 13.84 48.21 14.7 42.82 15.55 42.25 16.71 41.68 17.87 41.62 17.92 41.54 17.91 41.49 17.85 41.49 17.77 42.07 16.59 42.65 15.41 42.69 15.37 42.73 15.36 48.17 14.5 53.6 13.63 53.63 13.63 53.66 13.64 58.03 15.74 62.4 17.84 62.45 17.9 62.45 17.98 62.41 18.03 62.35 18.04" fill="none" stroke="#aaa" stroke-miterlimit="10" stroke-width=".5"/>
  <polyline points="51.48 19.76 51.46 19.76 51.44 19.75 47.07 17.65 42.7 15.55 42.65 15.49 42.65 15.41 42.71 15.36 42.79 15.36 47.16 17.47 51.53 19.57 51.58 19.63 51.58 19.7 51.54 19.75 51.48 19.76" fill="none" stroke="#aaa" stroke-miterlimit="10" stroke-width=".5"/>
</svg>