<?xml version="1.0" encoding="UTF-8"?>
<svg id="Ebene_1" xmlns="http://www.w3.org/2000/svg" width="222" height="222" viewBox="0 0 222 222">
  <polyline points="40.74 25.44 43.06 30.59 47.69 33.72 52 34.03 56.23 33.12 57.97 32.49 59.27 31.96 54.44 35.18 49.71 38.54 53.52 31.74 57.06 24.81 57.63 22.58 56.45 20.75 53.25 19.17 50.25 17.25 44.91 11.75 40.83 5.23 37.3 11.05 32.82 16.15 29.94 18.33 26.75 20.01 25.13 20.83 24.08 22.23 24.86 25.33 26.29 28.23" fill="none" stroke="#aaa" stroke-miterlimit="10" stroke-width=".5"/>
  <polyline points="41.06 30.38 43.48 35.3 48.14 38.11 52.53 38.34 56.84 37.4 58.6 36.75 59.93 36.11 55 39 50.19 42.09 54.15 35.53 57.82 28.82 58.42 26.6 57.21 24.79 53.93 23.21 50.82 21.33 45.37 16.09 41.14 9.79 37.5 15.39 32.93 20.24 29.95 22.37 26.68 24.03 25.02 24.85 23.92 26.26 24.7 29.27 26.17 32.07" fill="none" stroke="#aaa" stroke-miterlimit="10" stroke-width=".5"/>
  <polyline points="41.13 35.48 43.73 40.14 48.44 42.61 52.98 42.74 57.42 41.76 59.26 41.08 60.62 40.31 55.52 42.83 50.56 45.64 54.74 39.3 58.62 32.78 59.27 30.55 58 28.73 54.59 27.14 51.31 25.28 45.68 20.29 41.21 14.21 37.39 19.6 32.67 24.21 29.54 26.3 26.15 27.94 24.41 28.78 23.23 30.21 24.02 33.14 25.54 35.83" fill="none" stroke="#aaa" stroke-miterlimit="10" stroke-width=".5"/>
  <polyline points="40.95 40.63 43.76 45.04 48.53 47.16 53.25 47.19 57.85 46.15 59.78 45.44 61.17 44.52 55.87 46.67 50.72 49.2 55.18 43.07 59.29 36.72 59.97 34.46 58.62 32.64 55.05 31.02 51.58 29.19 45.75 24.44 41.03 18.57 37.02 23.75 32.15 28.13 28.83 30.18 25.29 31.81 23.46 32.67 22.18 34.13 22.96 37 24.54 39.59" fill="none" stroke="#aaa" stroke-miterlimit="10" stroke-width=".5"/>
  <polyline points="41.13 45.71 44.14 49.85 48.95 51.66 53.81 51.6 58.56 50.51 60.57 49.76 61.97 48.72 56.51 50.5 51.2 52.75 55.9 46.85 60.22 40.68 60.92 38.4 59.51 36.59 55.79 34.96 52.14 33.14 46.15 28.64 41.21 22.99 37.02 27.96 32.03 32.11 28.54 34.12 24.87 35.73 22.97 36.6 21.58 38.08 22.37 40.9 24 43.41" fill="none" stroke="#aaa" stroke-miterlimit="10" stroke-width=".5"/>
  <polyline points="41.25 50.61 44.4 54.47 49.17 56.01 54.11 55.87 58.92 54.75 60.98 53.98 62.39 52.85 56.85 54.31 51.45 56.31 56.31 50.66 60.76 44.71 61.48 42.44 60.02 40.66 56.21 39.02 52.47 37.25 46.4 33 41.32 27.6 37.03 32.34 31.98 36.25 28.39 38.2 24.64 39.78 22.69 40.65 21.25 42.15 22.04 44.91 23.72 47.32" fill="none" stroke="#aaa" stroke-miterlimit="10" stroke-width=".5"/>
  <polyline points="41.16 55.25 44.4 58.84 49.11 60.14 54.31 59.94 59.41 58.84 62.05 57.99 64.57 56.89 60.79 58.25 57.08 59.86 60.44 54.54 63.03 48.83 62.66 46.35 60.57 44.88 56.44 43.33 52.4 41.57 46.35 37.6 41.24 32.46 36.97 36.93 31.99 40.57 28.25 42.47 24.35 43.97 22 44.87 19.92 46.26 19.47 48.66 20.27 51.05" fill="none" stroke="#aaa" stroke-miterlimit="10" stroke-width=".5"/>
  <polyline points="41.15 59.62 44.35 62.92 48.87 64.05 54.02 63.81 59.07 62.75 61.92 61.89 64.7 60.83 61.73 62.04 58.71 63.41 61.44 58.41 63.25 53.04 62.45 50.62 60.22 49.27 56.1 47.8 52.06 46.12 46.21 42.43 41.23 37.61 37.08 41.78 32.27 45.17 28.59 46.97 24.75 48.39 22.3 49.27 20.09 50.59 19.25 52.75 19.7 55.09" fill="none" stroke="#aaa" stroke-miterlimit="10" stroke-width=".5"/>
  <polyline points="41.18 63.76 44.24 66.79 48.5 67.79 53.42 67.53 58.24 66.53 61.08 65.69 63.85 64.69 61.37 65.76 58.75 66.97 61.1 62.32 62.5 57.34 61.55 55.06 59.35 53.8 55.4 52.43 51.52 50.85 45.99 47.44 41.25 42.97 37.31 46.84 32.77 49.97 29.24 51.65 25.58 52.97 23.19 53.81 21.01 55.05 20.07 57.04 20.36 59.27" fill="none" stroke="#aaa" stroke-miterlimit="10" stroke-width=".5"/>
  <polyline points="41.22 67.8 44.1 70.55 48.05 71.43 52.66 71.18 57.19 70.25 59.92 69.45 62.59 68.52 60.49 69.46 58.18 70.52 60.23 66.24 61.35 61.67 60.35 59.55 58.24 58.39 54.53 57.12 50.88 55.66 45.72 52.54 41.3 48.44 37.61 52 33.37 54.86 30.06 56.41 26.63 57.63 24.36 58.41 22.28 59.57 21.32 61.39 21.51 63.49" fill="none" stroke="#aaa" stroke-miterlimit="10" stroke-width=".5"/>
  <polyline points="41.27 71.87 43.97 74.34 47.62 75.1 51.94 74.85 56.19 73.98 58.81 73.23 61.39 72.36 59.67 73.15 57.67 74.08 59.42 70.16 60.26 65.99 59.19 64.03 57.18 62.97 53.69 61.8 50.26 60.45 45.47 57.62 41.34 53.88 37.9 57.12 33.96 59.72 30.86 61.14 27.65 62.26 25.49 62.99 23.5 64.06 22.52 65.72 22.59 67.68" fill="none" stroke="#aaa" stroke-miterlimit="10" stroke-width=".5"/>
  <polyline points="41.31 76.1 43.91 78.28 47.3 78.9 51.42 78.64 55.46 77.82 58.07 77.09 60.63 76.25 59.38 76.85 57.67 77.63 59.11 74.05 59.6 70.26 58.41 68.43 56.42 67.44 53.08 66.35 49.8 65.1 45.29 62.55 41.38 59.16 38.13 62.1 34.44 64.43 31.48 65.74 28.43 66.78 26.33 67.47 24.36 68.46 23.3 69.94 23.21 71.78" fill="none" stroke="#aaa" stroke-miterlimit="10" stroke-width=".5"/>
  <polyline points="41.36 80.61 43.96 82.48 47.19 82.94 51.25 82.62 55.24 81.82 57.95 81.09 60.62 80.24 59.92 80.58 58.48 81.18 59.59 77.87 59.67 74.42 58.27 72.69 56.21 71.74 52.9 70.7 49.62 69.53 45.27 67.23 41.43 64.15 38.25 66.81 34.7 68.9 31.78 70.12 28.79 71.09 26.64 71.77 24.61 72.71 23.41 74.02 23.06 75.78" fill="none" stroke="#aaa" stroke-miterlimit="10" stroke-width=".5"/>
  <polyline points="41.34 85.52 44.1 87.03 47.29 87.29 51.48 86.89 55.62 86.07 58.59 85.29 61.51 84.38 61.44 84.32 60.15 84.74 60.96 81.61 60.62 78.45 58.92 76.75 56.67 75.8 53.21 74.77 49.78 73.63 45.38 71.56 41.4 68.75 38.15 71.15 34.57 73.03 31.56 74.18 28.47 75.12 26.17 75.81 23.96 76.75 22.57 77.94 21.91 79.64" fill="none" stroke="#aaa" stroke-miterlimit="10" stroke-width=".5"/>
  <polyline points="41.23 90.82 44.27 91.91 47.56 91.96 52.08 91.44 56.55 90.56 59.91 89.7 63.21 88.65 63.82 88.11 62.5 88.29 63.08 85.27 62.35 82.33 60.29 80.62 57.76 79.62 53.99 78.55 50.23 77.41 45.59 75.52 41.28 72.96 37.75 75.15 33.97 76.86 30.68 77.97 27.34 78.91 24.78 79.65 22.3 80.64 20.7 81.81 19.75 83.54" fill="none" stroke="#aaa" stroke-miterlimit="10" stroke-width=".5"/>
  <polyline points="41.23 96.37 44.63 97 48.11 96.85 53.07 96.18 57.99 95.2 61.79 94.25 65.51 93.01 66.71 92.19 65.31 91.84 65.73 88.88 64.67 86.13 62.19 84.35 59.3 83.28 55.11 82.14 50.93 80.99 45.98 79.24 41.27 76.91 37.36 78.93 33.26 80.49 29.57 81.59 25.86 82.57 22.94 83.4 20.13 84.49 18.31 85.74 17.15 87.6" fill="none" stroke="#aaa" stroke-miterlimit="10" stroke-width=".5"/>
  <polyline points="41.34 101.97 45.04 102.11 48.75 101.76 54.1 100.95 59.4 99.87 63.54 98.81 67.55 97.39 68.9 96.28 67.47 95.4 67.95 92.53 66.77 89.91 63.97 88.06 60.79 86.92 56.21 85.71 51.62 84.53 46.4 82.93 41.36 80.83 37.08 82.68 32.64 84.13 28.53 85.22 24.41 86.26 21.17 87.18 18.06 88.43 16.14 89.79 15 91.82" fill="none" stroke="#aaa" stroke-miterlimit="10" stroke-width=".5"/>
  <polyline points="41.38 107.35 45.52 107.05 49.65 106.51 55.28 105.57 60.86 104.41 65.14 103.29 69.26 101.69 70.6 100.23 69.09 98.95 69.58 96.2 68.28 93.76 65.19 91.88 61.76 90.69 56.87 89.42 51.97 88.25 46.61 86.79 41.39 84.95 36.78 86.62 32.07 87.95 27.57 89.04 23.07 90.14 19.57 91.16 16.22 92.57 14.27 94.06 13.31 96.27" fill="none" stroke="#aaa" stroke-miterlimit="10" stroke-width=".5"/>
  <polyline points="41.26 112.38 46.59 111.73 51.92 110.96 57.58 109.97 63.18 108.73 67.01 107.6 70.59 105.86 71.35 103.95 69.67 102.51 70.14 99.94 68.74 97.74 65.44 95.89 61.84 94.68 56.82 93.4 51.76 92.25 46.47 90.98 41.26 89.43 36.46 90.88 31.58 92.08 26.79 93.16 22.02 94.32 18.36 95.43 14.88 96.99 13.05 98.61 12.51 100.94" fill="none" stroke="#aaa" stroke-miterlimit="10" stroke-width=".5"/>
  <polyline points="41.2 117.01 46.84 116.04 52.49 115.09 58.05 114.06 63.57 112.81 67.19 111.69 70.5 109.9 71.03 107.74 69.34 106.06 69.74 103.75 68.28 101.87 64.88 100.1 61.22 98.9 56.22 97.66 51.18 96.58 46.17 95.51 41.2 94.3 36.4 95.49 31.56 96.52 26.62 97.58 21.72 98.77 18.03 99.92 14.56 101.59 12.95 103.27 12.99 105.53" fill="none" stroke="#aaa" stroke-miterlimit="10" stroke-width=".5"/>
  <polyline points="41.23 121.33 46.87 120.06 52.55 118.96 57.88 117.92 63.17 116.7 66.55 115.62 69.58 113.83 69.96 111.5 68.31 109.61 68.6 107.61 67.12 106.1 63.68 104.47 60.03 103.33 55.19 102.16 50.31 101.17 45.77 100.33 41.23 99.5 36.73 100.33 32.21 101.17 27.32 102.16 22.48 103.33 18.84 104.47 15.41 106.1 13.97 107.64 14.37 109.61 14.29 109.68 14.21 109.74 14.13 109.81 14.06 109.87 13.98 109.94 13.91 110 13.84 110.06 13.77 110.12" fill="none" stroke="#aaa" stroke-miterlimit="10" stroke-width=".5"/>
  <polyline points="41.61 125.44 47.05 123.91 52.57 122.67 57.55 121.63 62.5 120.46 65.59 119.44 68.27 117.68 68.43 115.21 66.78 113.17 66.99 111.54 65.57 110.41 62.12 108.94 58.52 107.87 53.93 106.8 49.31 105.92 45.46 105.32 41.61 104.89 37.78 105.33 33.96 105.92 29.33 106.8 24.73 107.87 21.14 108.94 17.7 110.41 16.31 111.57 16.66 113.17 16.44 113.37 16.23 113.57 16.03 113.76 15.85 113.95 15.68 114.14 15.53 114.32 15.38 114.5 15.25 114.68" fill="none" stroke="#aaa" stroke-miterlimit="10" stroke-width=".5"/>
  <polyline points="41.78 129.48 46.86 127.67 52.07 126.31 56.64 125.28 61.19 124.17 63.94 123.22 66.23 121.5 66.04 118.87 64.3 116.72 64.66 115.57 63.38 114.74 60 113.45 56.49 112.47 52.21 111.5 47.88 110.73 44.83 110.37 41.78 110.36 38.74 110.37 35.72 110.73 31.39 111.5 27.1 112.47 23.61 113.45 20.24 114.74 18.98 115.6 19.48 116.72 19.14 117.06 18.8 117.41 18.52 117.72 18.24 118.05 18.01 118.34 17.8 118.65 17.63 118.93 17.47 119.21" fill="none" stroke="#aaa" stroke-miterlimit="10" stroke-width=".5"/>
  <polyline points="41.83 133.57 46.49 131.5 51.36 130 55.54 128.97 59.71 127.92 62.17 127.03 64.09 125.35 63.57 122.57 61.74 120.28 62.69 119.76 61.67 119.05 58.66 117.92 55.54 117.03 51.56 116.13 47.53 115.5 44.64 115.32 41.8 115.78 39 115.32 36.14 115.5 32.11 116.13 28.13 117.03 25.04 117.91 22.04 119.05 21.05 119.82 22.13 120.28 21.69 120.73 21.26 121.2 20.91 121.61 20.58 122.04 20.31 122.41 20.07 122.8 19.88 123.14 19.72 123.5" fill="none" stroke="#aaa" stroke-miterlimit="10" stroke-width=".5"/>
  <polyline points="41.8 137.83 46.13 135.49 50.77 133.83 54.63 132.79 58.49 131.77 60.7 130.92 62.28 129.25 61.42 126.3 59.45 123.83 60.63 123.91 60.27 123.31 57.58 122.29 54.81 121.48 51.05 120.64 47.24 120.13 44.41 120.13 41.77 121.03 39.17 120.13 36.38 120.13 32.57 120.64 28.82 121.48 26.06 122.28 23.38 123.31 23.14 123.91 24.36 123.83 23.86 124.37 23.37 124.92 22.97 125.41 22.59 125.91 22.28 126.34 22 126.79 21.78 127.17 21.6 127.57" fill="none" stroke="#aaa" stroke-miterlimit="10" stroke-width=".5"/>
  <polyline points="41.72 142.25 45.8 139.63 50.28 137.78 53.9 136.72 57.52 135.72 59.53 134.89 60.78 133.21 59.55 130.06 57.39 127.38 58.67 127.7 59.13 127.5 56.71 126.58 54.23 125.84 50.64 125.04 46.99 124.63 44.15 124.82 41.68 126.12 39.25 124.82 36.46 124.63 32.81 125.04 29.22 125.84 26.75 126.58 24.35 127.5 24.92 127.7 26.25 127.38 25.7 127.98 25.16 128.59 24.72 129.12 24.29 129.67 23.95 130.14 23.62 130.62 23.37 131.04 23.14 131.47" fill="none" stroke="#aaa" stroke-miterlimit="10" stroke-width=".5"/>
  <polyline points="41.63 146.68 45.47 143.8 49.81 141.75 53.18 140.66 56.56 139.68 58.37 138.85 59.24 137.18 57.6 133.83 55.19 130.94 56.72 131.47 57.92 131.7 55.81 130.86 53.64 130.19 50.22 129.43 46.73 129.12 43.87 129.52 41.58 131.19 39.35 129.52 36.53 129.12 33.04 129.43 29.62 130.19 27.46 130.86 25.37 131.7 26.66 131.47 28.25 130.94 27.67 131.56 27.11 132.2 26.63 132.76 26.16 133.33 25.77 133.82 25.4 134.32 25.1 134.76 24.82 135.2" fill="none" stroke="#aaa" stroke-miterlimit="10" stroke-width=".5"/>
  <polyline points="41.44 151.03 44.92 147.91 49.01 145.65 52.08 144.55 55.17 143.59 56.75 142.75 57.18 141.11 55.02 137.6 52.27 134.49 54.26 135.3 56.24 135.92 54.53 135.17 52.76 134.59 49.57 133.88 46.31 133.68 43.46 134.33 41.39 136.34 39.38 134.32 36.56 133.68 33.31 133.88 30.13 134.59 28.36 135.16 26.67 135.92 28.73 135.3 30.78 134.49 30.18 135.12 29.59 135.76 29.07 136.33 28.56 136.9 28.13 137.4 27.7 137.91 27.35 138.36 27.01 138.81" fill="none" stroke="#aaa" stroke-miterlimit="10" stroke-width=".5"/>
  <polyline points="41.61 155.32 44.66 151.98 48.43 149.5 51.06 148.41 53.72 147.46 54.86 146.48 54.44 145.03 51.15 141.39 47.55 138.04 50.69 139.26 53.92 140.16 53.09 139.49 51.88 139.03 49.07 138.36 46.18 138.29 43.37 139.24 41.55 141.56 39.81 139.24 37.03 138.29 34.15 138.36 31.34 139.03 30.13 139.49 29.32 140.16 32.61 139.26 35.81 138.04 35.14 138.64 34.47 139.24 33.88 139.79 33.29 140.33 32.76 140.82 32.24 141.31 31.79 141.74 31.33 142.18" fill="none" stroke="#aaa" stroke-miterlimit="10" stroke-width=".5"/>
  <polyline points="41.8 159.65 44.52 156.1 48.06 153.38 50.46 152.27 52.93 151.35 54.01 150.38 53.64 148.96 50.65 145.16 47.38 141.6 50.42 143.1 53.56 144.39 52.75 143.86 51.62 143.44 48.92 142.84 46.15 142.86 43.36 144.13 41.73 146.74 40.19 144.13 37.43 142.86 34.67 142.84 31.98 143.44 30.85 143.86 30.06 144.39 33.26 143.1 36.37 141.6 35.79 142.2 35.22 142.8 34.71 143.35 34.2 143.89 33.74 144.38 33.28 144.88 32.88 145.32 32.48 145.77" fill="none" stroke="#aaa" stroke-miterlimit="10" stroke-width=".5"/>
  <polyline points="41.85 164.17 44.35 160.39 47.75 157.42 50.01 156.27 52.37 155.36 53.41 154.38 53.07 152.95 50.28 148.95 47.21 145.15 50.15 146.93 53.15 148.55 52.36 148.14 51.29 147.74 48.69 147.17 46.03 147.29 43.25 148.87 41.78 151.73 40.38 148.87 37.65 147.29 35 147.17 32.4 147.74 31.34 148.14 30.56 148.55 33.64 146.93 36.63 145.15 36.12 145.76 35.61 146.37 35.15 146.92 34.7 147.48 34.29 147.98 33.88 148.48 33.51 148.94 33.15 149.39" fill="none" stroke="#aaa" stroke-miterlimit="10" stroke-width=".5"/>
  <polyline points="41.91 169.03 44.38 164.98 47.82 161.74 50.08 160.52 52.46 159.58 53.52 158.55 53.19 157.07 50.41 152.79 47.34 148.71 50.32 150.71 53.37 152.59 52.56 152.23 51.48 151.83 48.84 151.26 46.14 151.43 43.28 153.26 41.83 156.38 40.46 153.27 37.64 151.43 34.96 151.26 32.32 151.83 31.25 152.23 30.45 152.59 33.57 150.71 36.61 148.71 36.11 149.35 35.62 149.98 35.17 150.57 34.72 151.15 34.32 151.68 33.92 152.21 33.56 152.69 33.2 153.17" fill="none" stroke="#aaa" stroke-miterlimit="10" stroke-width=".5"/>
  <polyline points="41.9 174.36 44.59 169.96 48.32 166.43 50.78 165.11 53.37 164.08 54.53 162.96 54.16 161.35 51.13 156.7 47.79 152.26 51.03 154.43 54.35 156.47 53.47 156.07 52.3 155.64 49.43 155.01 46.5 155.19 43.4 157.18 41.82 160.56 40.33 157.18 37.27 155.19 34.35 155.01 31.49 155.64 30.32 156.07 29.46 156.47 32.84 154.43 36.14 152.26 35.59 152.97 35.05 153.67 34.55 154.32 34.06 154.96 33.61 155.54 33.17 156.13 32.77 156.65 32.38 157.18" fill="none" stroke="#aaa" stroke-miterlimit="10" stroke-width=".5"/>
  <polyline points="41.83 180.16 44.98 175.33 49.28 171.51 52.14 170.04 55.13 168.88 56.45 167.62 56.02 165.8 52.49 160.68 48.6 155.81 52.32 158.09 56.14 160.18 55.13 159.65 53.78 159.15 50.49 158.42 47.13 158.56 43.61 160.61 41.76 164.27 39.99 160.61 36.51 158.56 33.16 158.42 29.87 159.15 28.52 159.65 27.54 160.18 31.42 158.09 35.2 155.81 34.54 156.62 33.87 157.44 33.27 158.17 32.67 158.91 32.13 159.57 31.6 160.24 31.13 160.83 30.66 161.43" fill="none" stroke="#aaa" stroke-miterlimit="10" stroke-width=".5"/>
  <polyline points="41.73 186.28 45.52 180.97 50.57 176.86 53.97 175.21 57.49 173.87 59.04 172.44 58.51 170.36 54.29 164.7 49.65 159.37 54 161.71 58.49 163.77 57.33 163.06 55.73 162.46 51.88 161.59 47.93 161.68 43.9 163.71 41.66 167.65 39.49 163.71 35.5 161.68 31.56 161.59 27.71 162.46 26.11 163.06 24.97 163.77 29.52 161.71 33.94 159.37 33.1 160.3 32.27 161.24 31.52 162.09 30.77 162.94 30.11 163.69 29.45 164.46 28.87 165.14 28.3 165.82" fill="none" stroke="#aaa" stroke-miterlimit="10" stroke-width=".5"/>
  <polyline points="41.71 192.46 46.2 186.67 52.03 182.25 55.99 180.42 60.09 178.9 61.87 177.3 61.25 174.95 56.29 168.74 50.85 162.92 55.88 165.33 61.07 167.35 59.75 166.44 57.89 165.74 53.44 164.72 48.88 164.74 44.31 166.75 41.64 170.98 39.04 166.75 34.51 164.74 29.96 164.73 25.52 165.74 23.65 166.44 22.35 167.35 27.61 165.33 32.71 162.92 31.68 163.99 30.66 165.05 29.75 166.01 28.84 166.97 28.04 167.82 27.25 168.68 26.55 169.45 25.87 170.21" fill="none" stroke="#aaa" stroke-miterlimit="10" stroke-width=".5"/>
  <polyline points="41.6 198.44 46.68 192.2 53.19 187.47 57.65 185.48 62.23 183.8 64.21 182.04 63.5 179.46 57.92 172.73 51.79 166.47 57.37 168.97 63.12 170.99 61.66 169.93 59.58 169.15 54.64 168.01 49.58 167.98 44.56 170.02 41.54 174.51 38.59 170.02 33.61 167.98 28.55 168.01 23.62 169.15 21.54 169.93 20.09 170.99 25.91 168.97 31.55 166.47 30.36 167.65 29.18 168.84 28.13 169.89 27.08 170.95 26.16 171.9 25.25 172.84 24.46 173.68 23.68 174.52" fill="none" stroke="#aaa" stroke-miterlimit="10" stroke-width=".5"/>
  <polyline points="41.57 203.97 47 197.35 53.95 192.34 58.71 190.22 63.61 188.43 65.73 186.56 64.97 183.81 59 176.67 52.45 170.03 58.4 172.66 64.53 174.8 62.98 173.66 60.75 172.82 55.48 171.61 50.08 171.57 44.73 173.72 41.5 178.49 38.35 173.72 33.04 171.57 27.64 171.61 22.38 172.82 20.15 173.66 18.61 174.8 24.81 172.67 30.82 170.03 29.54 171.29 28.26 172.56 27.13 173.7 26 174.84 25.01 175.85 24.03 176.86 23.18 177.76 22.34 178.66" fill="none" stroke="#aaa" stroke-miterlimit="10" stroke-width=".5"/>
  <polyline points="41.65 208.89 47.1 201.97 54.15 196.7 58.96 194.51 63.92 192.69 66.08 190.77 65.32 187.95 59.31 180.52 52.7 173.58 58.81 176.43 65.1 178.82 63.5 177.72 61.24 176.88 55.85 175.65 50.34 175.66 44.83 178.03 41.58 183.07 38.41 178.03 32.94 175.66 27.43 175.66 22.05 176.88 19.79 177.72 18.21 178.82 24.56 176.44 30.73 173.58 29.45 174.89 28.18 176.21 27.04 177.38 25.92 178.56 24.93 179.6 23.94 180.65 23.09 181.58 22.25 182.52" fill="none" stroke="#aaa" stroke-miterlimit="10" stroke-width=".5"/>
  <polyline points="41.66 213.14 46.77 206.03 53.56 200.52 58.14 198.32 62.89 196.53 64.98 194.63 64.28 191.85 58.58 184.27 52.32 177.14 58.21 180.29 64.27 183.07 62.7 182.13 60.55 181.34 55.35 180.18 50.04 180.3 44.6 183.02 41.59 188.33 38.65 183.02 33.26 180.3 27.95 180.18 22.76 181.34 20.6 182.13 19.06 183.07 25.19 180.29 31.14 177.14 29.96 178.45 28.78 179.76 27.73 180.94 26.68 182.12 25.76 183.17 24.85 184.23 24.05 185.17 23.26 186.11" fill="none" stroke="#aaa" stroke-miterlimit="10" stroke-width=".5"/>
</svg>