<?xml version="1.0" encoding="UTF-8"?>
<svg id="Ebene_1" xmlns="http://www.w3.org/2000/svg" width="222" height="222" viewBox="0 0 222 222">
  <polyline points="221.25 3.86 220.02 6.04 218.79 8.22 218.52 10.88 218.24 13.54 218.69 16.45 219.13 19.36 220.06 22.3 220.99 25.24" fill="none" stroke="#aaa" stroke-miterlimit="10" stroke-width=".5"/>
  <polyline points="219.29 .88 217.09 2.38 214.89 3.87 213.79 6.06 212.69 8.25 212.48 10.93 212.26 13.6 212.72 16.55 213.18 19.49 214.11 22.49 215.03 25.49 216.21 28.32 217.39 31.16 218.61 33.62 219.83 36.08 220.88 37.95 221.93 39.82" fill="none" stroke="#aaa" stroke-miterlimit="10" stroke-width=".5"/>
  <polyline points="212.88 .88 210.87 2.37 208.87 3.86 207.88 6.05 206.9 8.24 206.74 10.91 206.59 13.59 207.07 16.54 207.55 19.5 208.47 22.52 209.4 25.54 210.57 28.42 211.74 31.3 212.97 33.83 214.2 36.36 215.29 38.32 216.38 40.29" fill="none" stroke="#aaa" stroke-miterlimit="10" stroke-width=".5"/>
  <polyline points="206.77 .87 204.94 2.36 203.1 3.84 202.23 6.01 201.35 8.19 201.25 10.85 201.15 13.51 201.65 16.46 202.16 19.4 203.08 22.42 204 25.44 205.16 28.34 206.32 31.23 207.55 33.79 208.77 36.35 209.88 38.37 210.99 40.38" fill="none" stroke="#aaa" stroke-miterlimit="10" stroke-width=".5"/>
  <polyline points="200.85 .87 199.18 2.34 197.51 3.81 196.74 5.96 195.96 8.11 195.92 10.75 195.87 13.39 196.39 16.31 196.91 19.23 197.83 22.24 198.75 25.24 199.9 28.13 201.04 31.01 202.26 33.58 203.48 36.15 204.6 38.19 205.72 40.24" fill="none" stroke="#aaa" stroke-miterlimit="10" stroke-width=".5"/>
  <polyline points="195.03 .87 193.52 2.32 192.01 3.77 191.34 5.9 190.66 8.03 190.67 10.64 190.68 13.25 191.22 16.14 191.75 19.04 192.67 22.02 193.58 25 194.72 27.87 195.85 30.74 197.06 33.3 198.27 35.86 199.39 37.92 200.51 39.97" fill="none" stroke="#aaa" stroke-miterlimit="10" stroke-width=".5"/>
  <polyline points="189.24 .86 187.88 2.3 186.53 3.73 185.96 5.84 185.39 7.95 185.45 10.53 185.51 13.11 186.07 15.98 186.63 18.85 187.54 21.8 188.45 24.76 189.57 27.61 190.7 30.46 191.89 33.01 193.09 35.56 194.21 37.62 195.34 39.67" fill="none" stroke="#aaa" stroke-miterlimit="10" stroke-width=".5"/>
  <polyline points="183.44 .86 182.25 2.28 181.05 3.7 180.58 5.78 180.1 7.87 180.22 10.43 180.34 12.99 180.92 15.83 181.5 18.67 182.41 21.6 183.32 24.54 184.44 27.37 185.55 30.2 186.73 32.74 187.92 35.28 189.05 37.33 190.18 39.39" fill="none" stroke="#aaa" stroke-miterlimit="10" stroke-width=".5"/>
  <polyline points="177.64 .86 176.6 2.26 175.56 3.67 175.19 5.73 174.82 7.8 174.99 10.34 175.17 12.87 175.77 15.69 176.37 18.51 177.28 21.42 178.19 24.33 179.3 27.15 180.4 29.96 181.58 32.49 182.76 35.02 183.89 37.07 185.02 39.12" fill="none" stroke="#aaa" stroke-miterlimit="10" stroke-width=".5"/>
  <polyline points="171.86 .85 170.98 2.24 170.09 3.64 169.82 5.68 169.55 7.73 169.78 10.24 170.01 12.75 170.64 15.55 171.26 18.34 172.17 21.23 173.09 24.11 174.18 26.91 175.28 29.7 176.45 32.21 177.61 34.72 178.75 36.76 179.88 38.81" fill="none" stroke="#aaa" stroke-miterlimit="10" stroke-width=".5"/>
  <polyline points="166.16 .85 165.43 2.22 164.7 3.6 164.52 5.62 164.35 7.64 164.63 10.12 164.92 12.6 165.56 15.35 166.21 18.11 167.12 20.96 168.04 23.81 169.12 26.57 170.2 29.33 171.36 31.81 172.52 34.29 173.65 36.32 174.79 38.34" fill="none" stroke="#aaa" stroke-miterlimit="10" stroke-width=".5"/>
  <polyline points="160.61 .84 160.03 2.19 159.45 3.54 159.37 5.53 159.29 7.51 159.62 9.94 159.96 12.38 160.62 15.08 161.28 17.79 162.19 20.58 163.1 23.37 164.16 26.07 165.23 28.78 166.37 31.21 167.51 33.63 168.64 35.61 169.76 37.59" fill="none" stroke="#aaa" stroke-miterlimit="10" stroke-width=".5"/>
  <polyline points="155.33 .84 154.89 2.15 154.45 3.47 154.45 5.39 154.45 7.32 154.83 9.68 155.2 12.04 155.87 14.67 156.54 17.29 157.43 20 158.32 22.71 159.36 25.33 160.39 27.95 161.5 30.31 162.61 32.66 163.72 34.57 164.83 36.49" fill="none" stroke="#aaa" stroke-miterlimit="10" stroke-width=".5"/>
  <polyline points="150.37 .84 150.07 2.1 149.76 3.35 149.83 5.2 149.91 7.04 150.31 9.3 150.71 11.56 151.37 14.07 152.04 16.58 152.89 19.17 153.75 21.76 154.75 24.27 155.74 26.78 156.8 29.03 157.87 31.28 158.94 33.11 160.02 34.94" fill="none" stroke="#aaa" stroke-miterlimit="10" stroke-width=".5"/>
  <polyline points="145.75 .84 145.56 2.02 145.38 3.21 145.51 4.94 145.65 6.67 146.07 8.8 146.49 10.93 147.13 13.29 147.77 15.65 148.58 18.09 149.39 20.52 150.33 22.88 151.26 25.24 152.27 27.36 153.27 29.48 154.3 31.21 155.32 32.93" fill="none" stroke="#aaa" stroke-miterlimit="10" stroke-width=".5"/>
  <polyline points="141.36 .84 141.28 1.94 141.21 3.03 141.4 4.64 141.59 6.24 142.02 8.21 142.44 10.18 143.05 12.36 143.66 14.55 144.42 16.8 145.17 19.06 146.04 21.25 146.9 23.43 147.84 25.4 148.77 27.37 149.73 28.98 150.69 30.59" fill="none" stroke="#aaa" stroke-miterlimit="10" stroke-width=".5"/>
  <polyline points="137.05 .84 137.08 1.84 137.12 2.85 137.36 4.31 137.6 5.78 138.03 7.57 138.45 9.36 139.02 11.36 139.6 13.35 140.29 15.41 140.99 17.48 141.78 19.48 142.57 21.48 143.42 23.29 144.27 25.1 145.16 26.59 146.05 28.08" fill="none" stroke="#aaa" stroke-miterlimit="10" stroke-width=".5"/>
  <polyline points="132.67 .85 132.81 2.05 132.95 3.25 133.23 4.74 133.51 6.23 133.92 7.92 134.33 9.6 134.85 11.39 135.37 13.18 135.98 14.97 136.59 16.77 137.28 18.49 137.97 20.21 138.72 21.75 139.47 23.29 140.26 24.56 141.05 25.84" fill="none" stroke="#aaa" stroke-miterlimit="10" stroke-width=".5"/>
  <polyline points="128.06 .86 128.31 2.14 128.55 3.43 128.88 4.9 129.21 6.36 129.62 7.93 130.02 9.51 130.5 11.12 130.98 12.74 131.53 14.32 132.08 15.91 132.68 17.41 133.29 18.91 133.94 20.25 134.6 21.58 135.31 22.7 136.01 23.81" fill="none" stroke="#aaa" stroke-miterlimit="10" stroke-width=".5"/>
  <polyline points="123.09 .86 124.72 6.5 126.35 12.13 126.84 13.56 127.34 14.99 127.88 16.34 128.43 17.68 129.01 18.88 129.6 20.09 130.23 21.1 130.86 22.11" fill="none" stroke="#aaa" stroke-miterlimit="10" stroke-width=".5"/>
  <polyline points="117.66 .87 118.13 2.15 118.6 3.42 120.45 8.86 122.29 14.3 122.79 15.54 123.28 16.79 123.82 17.9 124.35 19.02 124.93 19.97 125.5 20.92" fill="none" stroke="#aaa" stroke-miterlimit="10" stroke-width=".5"/>
  <polyline points="111.6 .87 112.2 2.15 112.8 3.43 113.35 4.75 113.89 6.08 115.35 10.04 116.8 13.99 117.27 15.19 117.75 16.39 118.25 17.47 118.76 18.55 119.3 19.49 119.84 20.42" fill="none" stroke="#aaa" stroke-miterlimit="10" stroke-width=".5"/>
  <polyline points="104.84 .87 105.58 2.18 106.32 3.49 106.96 4.85 107.61 6.2 108.18 7.56 108.76 8.92 110.26 12.76 111.76 16.59 112.26 17.68 112.75 18.78 113.29 19.73 113.82 20.69" fill="none" stroke="#aaa" stroke-miterlimit="10" stroke-width=".5"/>
  <polyline points="97.36 .86 98.26 2.25 99.15 3.65 99.91 5.07 100.68 6.5 101.35 7.94 102.01 9.37 103.66 13.41 105.31 17.45 105.83 18.61 106.35 19.77 106.9 20.78 107.45 21.8" fill="none" stroke="#aaa" stroke-miterlimit="10" stroke-width=".5"/>
  <polyline points="89.28 .84 90.35 2.37 91.42 3.89 92.32 5.46 93.23 7.02 94.01 8.59 94.78 10.16 95.46 11.7 96.14 13.24 97.33 16.12 98.51 19 99.08 20.27 99.65 21.55 100.25 22.67 100.85 23.79" fill="none" stroke="#aaa" stroke-miterlimit="10" stroke-width=".5"/>
  <polyline points="80.79 .83 82.05 2.53 83.3 4.22 84.36 5.96 85.42 7.7 86.33 9.44 87.23 11.18 88 12.9 88.78 14.62 90.12 17.82 91.46 21.02 92.1 22.44 92.73 23.86 93.4 25.1 94.06 26.35" fill="none" stroke="#aaa" stroke-miterlimit="10" stroke-width=".5"/>
  <polyline points="72.16 .81 73.61 2.7 75.06 4.58 76.28 6.51 77.5 8.44 78.53 10.37 79.56 12.31 80.44 14.21 81.32 16.12 82.83 19.68 84.33 23.23 85.04 24.81 85.74 26.38 86.48 27.76 87.22 29.15" fill="none" stroke="#aaa" stroke-miterlimit="10" stroke-width=".5"/>
  <polyline points="63.68 .8 65.32 2.86 66.96 4.92 68.34 7.03 69.71 9.14 70.86 11.26 72.02 13.38 73 15.47 73.99 17.55 76.42 23.16 78.86 28.78 79.66 30.29 80.46 31.8" fill="none" stroke="#aaa" stroke-miterlimit="10" stroke-width=".5"/>
  <polyline points="55.61 .79 57.43 2.99 59.25 5.2 60.77 7.46 62.29 9.72 63.56 11.99 64.83 14.26 65.9 16.49 66.98 18.72 69.6 24.73 72.23 30.73 73.08 32.35 73.94 33.97" fill="none" stroke="#aaa" stroke-miterlimit="10" stroke-width=".5"/>
  <polyline points="48.16 .78 50.14 3.08 52.12 5.38 53.77 7.74 55.41 10.1 56.78 12.47 58.15 14.84 59.3 17.16 60.45 19.49 63.21 25.75 65.97 32.01 66.86 33.7 67.76 35.39" fill="none" stroke="#aaa" stroke-miterlimit="10" stroke-width=".5"/>
  <polyline points="41.42 .77 43.54 3.11 45.66 5.45 47.41 7.85 49.17 10.25 50.61 12.65 52.06 15.06 53.27 17.42 54.48 19.79 57.32 26.14 60.16 32.5 61.06 34.21 61.97 35.92" fill="none" stroke="#aaa" stroke-miterlimit="10" stroke-width=".5"/>
  <polyline points="35.39 .77 37.63 3.1 39.87 5.42 41.71 7.8 43.56 10.17 45.06 12.56 46.57 14.94 47.82 17.28 49.07 19.62 51.93 25.91 54.79 32.2 55.69 33.9 56.58 35.59" fill="none" stroke="#aaa" stroke-miterlimit="10" stroke-width=".5"/>
  <polyline points="29.97 .78 32.32 3.04 34.67 5.3 36.58 7.61 38.5 9.92 40.06 12.23 41.61 14.55 42.89 16.82 44.16 19.09 45.22 21.28 46.28 23.46 48.06 27.37 49.84 31.28 50.71 32.91 51.57 34.54" fill="none" stroke="#aaa" stroke-miterlimit="10" stroke-width=".5"/>
  <polyline points="25.03 .78 27.48 2.95 29.93 5.12 31.91 7.33 33.89 9.54 35.49 11.76 37.08 13.97 38.37 16.15 39.66 18.32 40.71 20.4 41.77 22.48 43.5 26.2 45.23 29.91 46.06 31.45 46.89 32.99" fill="none" stroke="#aaa" stroke-miterlimit="10" stroke-width=".5"/>
  <polyline points="20.44 .79 22.99 2.85 25.55 4.91 27.59 7.01 29.64 9.11 31.27 11.21 32.9 13.3 34.2 15.35 35.49 17.41 36.54 19.37 37.58 21.33 39.25 24.8 40.91 28.27 41.7 29.7 42.49 31.12" fill="none" stroke="#aaa" stroke-miterlimit="10" stroke-width=".5"/>
  <polyline points="16.08 .81 18.75 2.75 21.42 4.7 23.54 6.68 25.66 8.66 27.32 10.64 28.99 12.61 30.29 14.54 31.58 16.46 32.61 18.29 33.63 20.12 35.23 23.32 36.82 26.52 37.57 27.8 38.32 29.08" fill="none" stroke="#aaa" stroke-miterlimit="10" stroke-width=".5"/>
  <polyline points="11.79 .82 14.6 2.65 17.42 4.49 19.62 6.36 21.83 8.23 23.53 10.08 25.23 11.94 26.53 13.74 27.83 15.54 28.83 17.24 29.83 18.94 31.35 21.85 32.87 24.76 33.59 25.88 34.31 27.01" fill="none" stroke="#aaa" stroke-miterlimit="10" stroke-width=".5"/>
  <polyline points="7.41 .83 10.41 2.55 13.4 4.27 15.72 6.03 18.03 7.79 19.77 9.54 21.52 11.28 22.82 12.97 24.12 14.65 25.09 16.23 26.06 17.8 27.5 20.42 28.95 23.03 29.66 23.97 30.38 24.91" fill="none" stroke="#aaa" stroke-miterlimit="10" stroke-width=".5"/>
  <polyline points="2.79 .84 6.03 2.48 9.27 4.11 11.72 5.79 14.16 7.47 15.96 9.14 17.75 10.8 19.05 12.39 20.34 13.98 21.28 15.43 22.21 16.89 22.94 18.15 23.67 19.41 24.33 20.42 25 21.43 25.74 22.12 26.49 22.82" fill="none" stroke="#aaa" stroke-miterlimit="10" stroke-width=".5"/>
  <polyline points="4.85 4.03 7.44 5.67 10.03 7.31 11.88 8.92 13.73 10.52 15.01 12.03 16.3 13.54 17.2 14.89 18.1 16.23 18.79 17.33 19.49 18.43 20.17 19.23 20.84 20.02 21.68 20.44 22.51 20.85" fill="none" stroke="#aaa" stroke-miterlimit="10" stroke-width=".5"/>
  <polyline points="5.26 7.12 7.16 8.68 9.05 10.24 10.34 11.7 11.63 13.15 12.52 14.44 13.4 15.72 14.08 16.76 14.76 17.81 15.44 18.53 16.12 19.26 17 19.6 17.88 19.94" fill="none" stroke="#aaa" stroke-miterlimit="10" stroke-width=".5"/>
  <polyline points="3.92 10.17 5.23 11.61 6.54 13.05 8.1 15.33 9.66 17.61 10.36 18.29 11.05 18.98 11.99 19.27 12.92 19.56" fill="none" stroke="#aaa" stroke-miterlimit="10" stroke-width=".5"/>
  <polyline points="4.22 17.86 4.95 18.53 5.67 19.21 6.67 19.47 7.67 19.73" fill="none" stroke="#aaa" stroke-miterlimit="10" stroke-width=".5"/>
</svg>