<?xml version="1.0" encoding="utf-8" ?>
<svg baseProfile="full" height="222" version="1.1" width="222" xmlns="http://www.w3.org/2000/svg" xmlns:ev="http://www.w3.org/2001/xml-events" xmlns:xlink="http://www.w3.org/1999/xlink"><defs />
  <polyline fill="none" points ="45.05 162.69 40.68 167.05 35.8 170.82 33.46 172.11 31.11 173.32 29.21 175.34 27.98 177.84 25.56 184.87 23.43 192.01 24.01 187.19 26.5 183.25 29.53 183.46 32.45 184.52 35.92 185.2 39.17 183.93 42.85 177.17 44.51 169.56 46.35 177.23 49.9 184.18 52.32 185.31 54.9 184.52 56.29 183.67 57.59 183.84 57.1 189.65 56.04 195.41 56 195.03 55.96 194.66 55.92 194.29 55.89 193.93 55.85 193.57 55.82 193.21 55.78 192.86 55.75 192.51" stroke="#aaa" stroke-width="1"/>
  <polyline fill="none" points ="44.97 159.78 40.94 163.91 36.45 167.5 34.32 168.71 32.17 169.84 30.43 171.73 29.29 174.06 26.98 180.7 24.94 187.43 25.51 182.84 27.84 179.06 30.65 179.22 33.35 180.21 36.56 180.83 39.54 179.61 42.93 173.19 44.46 166 46.15 173.24 49.41 179.84 51.62 180.92 53.99 180.2 55.28 179.41 56.47 179.62 56.08 185.16 55.14 190.66 55.1 190.3 55.07 189.95 55.03 189.61 55 189.26 54.97 188.93 54.93 188.59 54.9 188.27 54.87 187.94" stroke="#aaa" stroke-width="1"/>
  <polyline fill="none" points ="44.89 156.8 41.16 160.7 36.98 164.1 35.01 165.24 33.03 166.29 31.41 168.07 30.35 170.25 28.17 176.5 26.23 182.85 26.77 178.5 28.96 174.9 31.58 175.04 34.1 175.95 37.08 176.53 39.84 175.37 42.99 169.3 44.41 162.52 45.98 169.34 49.01 175.59 51.05 176.62 53.24 175.95 54.44 175.21 55.55 175.43 55.21 180.68 54.37 185.9 54.34 185.57 54.3 185.24 54.27 184.91 54.24 184.59 54.21 184.27 54.18 183.96 54.15 183.65 54.12 183.34" stroke="#aaa" stroke-width="1"/>
  <polyline fill="none" points ="44.83 153.65 41.26 157.33 37.27 160.53 35.38 161.61 33.48 162.61 31.93 164.29 30.92 166.37 28.88 172.28 27.06 178.27 27.56 174.18 29.63 170.81 32.12 170.96 34.52 171.83 37.37 172.38 40.01 171.3 43.01 165.57 44.36 159.18 45.87 165.62 48.76 171.51 50.72 172.47 52.82 171.83 53.96 171.12 55.03 171.31 54.68 176.25 53.86 181.15 53.83 180.83 53.8 180.51 53.77 180.2 53.73 179.89 53.7 179.58 53.68 179.28 53.65 178.98 53.62 178.68" stroke="#aaa" stroke-width="1"/>
  <polyline fill="none" points ="44.78 150.35 41.25 153.82 37.33 156.8 35.43 157.83 33.52 158.81 31.99 160.42 31.01 162.42 29.1 168.02 27.44 173.7 27.88 169.88 29.84 166.79 32.28 166.98 34.62 167.84 37.41 168.39 40.03 167.38 42.99 162.03 44.31 155.98 45.8 162.07 48.68 167.58 50.65 168.47 52.73 167.83 53.85 167.15 54.9 167.26 54.49 171.85 53.62 176.4 53.59 176.08 53.55 175.77 53.52 175.46 53.49 175.16 53.46 174.86 53.43 174.56 53.4 174.27 53.38 173.98" stroke="#aaa" stroke-width="1"/>
  <polyline fill="none" points ="44.75 146.96 41.18 150.21 37.24 152.97 35.28 153.96 33.32 154.92 31.79 156.47 30.81 158.44 29.05 163.73 27.54 169.12 27.9 165.6 29.78 162.8 32.2 163.07 34.53 163.92 37.32 164.48 39.97 163.57 42.93 158.58 44.27 152.86 45.78 158.63 48.68 163.75 50.72 164.56 52.83 163.91 53.95 163.24 55.02 163.24 54.5 167.47 53.55 171.64 53.51 171.33 53.48 171.02 53.44 170.71 53.41 170.41 53.38 170.11 53.35 169.82 53.32 169.53 53.29 169.25" stroke="#aaa" stroke-width="1"/>
  <polyline fill="none" points ="44.71 143.53 41.08 146.56 37.11 149.11 35.07 150.06 33.05 151.02 31.51 152.51 30.53 154.44 28.9 159.44 27.55 164.54 27.84 161.31 29.63 158.83 32.05 159.17 34.38 160.03 37.19 160.61 39.89 159.78 42.87 155.17 44.23 149.78 45.77 155.22 48.72 159.96 50.84 160.68 52.99 160.02 54.11 159.36 55.21 159.24 54.57 163.09 53.53 166.89 53.49 166.57 53.46 166.26 53.42 165.96 53.39 165.66 53.35 165.36 53.32 165.07 53.29 164.78 53.26 164.5" stroke="#aaa" stroke-width="1"/>
  <polyline fill="none" points ="44.68 140.11 40.99 142.92 37 145.25 34.88 146.17 32.8 147.11 31.26 148.55 30.28 150.44 28.78 155.16 27.58 159.96 27.8 157.02 29.5 154.86 31.92 155.28 34.25 156.13 37.07 156.72 39.82 155.99 42.82 151.76 44.2 146.68 45.76 151.8 48.75 156.16 50.93 156.8 53.13 156.12 54.25 155.47 55.36 155.23 54.62 158.71 53.51 162.13 53.47 161.82 53.43 161.51 53.39 161.21 53.35 160.91 53.32 160.61 53.28 160.32 53.25 160.04 53.22 159.76" stroke="#aaa" stroke-width="1"/>
  <polyline fill="none" points ="44.65 136.71 40.9 139.28 36.9 141.4 34.72 142.29 32.6 143.22 31.05 144.61 30.07 146.45 28.72 150.87 27.67 155.39 27.84 152.72 29.48 150.88 31.88 151.37 34.21 152.22 37.01 152.83 39.78 152.19 42.76 148.33 44.16 143.58 45.75 148.37 48.76 152.34 51 152.9 53.22 152.22 54.35 151.57 55.47 151.22 54.62 154.33 53.46 157.38 53.41 157.07 53.37 156.76 53.33 156.46 53.29 156.17 53.26 155.88 53.22 155.59 53.19 155.31 53.15 155.03" stroke="#aaa" stroke-width="1"/>
  <polyline fill="none" points ="44.61 133.29 40.81 135.63 36.78 137.55 34.54 138.39 32.36 139.32 30.82 140.65 29.85 142.45 28.63 146.59 27.73 150.81 27.89 148.42 29.49 146.91 31.87 147.47 34.18 148.33 36.97 148.95 39.75 148.4 42.71 144.92 44.13 140.49 45.75 144.96 48.78 148.54 51.07 149.02 53.32 148.32 54.46 147.67 55.59 147.22 54.64 149.95 53.42 152.63 53.38 152.32 53.33 152.02 53.29 151.72 53.25 151.43 53.21 151.14 53.17 150.86 53.14 150.58 53.1 150.31" stroke="#aaa" stroke-width="1"/>
  <polyline fill="none" points ="44.58 129.79 40.67 131.9 36.57 133.61 34.24 134.43 31.97 135.36 30.42 136.65 29.44 138.43 28.37 142.28 27.64 146.23 27.78 144.11 29.34 142.97 31.73 143.61 34.05 144.48 36.85 145.13 39.67 144.68 42.63 141.58 44.1 137.46 45.78 141.62 48.83 144.81 51.18 145.2 53.47 144.48 54.63 143.82 55.78 143.24 54.74 145.58 53.5 147.87 53.45 147.57 53.4 147.27 53.36 146.97 53.31 146.68 53.27 146.39 53.23 146.11 53.19 145.84 53.15 145.57" stroke="#aaa" stroke-width="1"/>
  <polyline fill="none" points ="44.56 126.17 40.43 128.02 36.17 129.54 33.67 130.33 31.25 131.29 29.66 132.56 28.65 134.34 27.74 137.95 27.22 141.65 27.34 139.81 28.87 139.08 31.3 139.85 33.69 140.76 36.57 141.44 39.48 141.11 42.5 138.38 44.07 134.56 45.85 138.42 48.96 141.23 51.41 141.51 53.76 140.75 54.98 140.05 56.16 139.32 55.03 141.23 53.8 143.12 53.74 142.81 53.69 142.51 53.64 142.22 53.59 141.92 53.54 141.64 53.49 141.36 53.45 141.09 53.41 140.82" stroke="#aaa" stroke-width="1"/>
  <polyline fill="none" points ="44.66 122.37 40.17 123.95 35.6 125.29 32.86 126.07 30.21 127.08 28.54 128.36 27.5 130.19 26.77 133.59 26.5 137.08 26.62 135.51 28.1 135.27 30.63 136.19 33.14 137.17 36.17 137.92 39.27 137.7 42.41 135.37 44.15 131.8 46.1 135.4 49.33 137.81 51.94 137.99 54.44 137.16 55.77 136.39 56.98 135.47 55.73 136.89 54.48 138.37 54.51 138.02 54.55 137.69 54.59 137.36 54.63 137.04 54.67 136.73 54.71 136.42 54.75 136.13 54.79 135.83" stroke="#aaa" stroke-width="1"/>
  <polyline fill="none" points ="44.38 118.46 39.44 119.76 34.47 120.92 31.28 121.71 28.2 122.78 26.08 124.09 24.46 125.98 23.02 129.14 22.1 132.5 23.45 131.28 25.38 131.5 28.5 132.56 31.62 133.67 35.04 134.5 38.54 134.42 41.87 132.5 43.87 129.16 46.1 132.54 49.58 134.52 52.86 134.55 56.03 133.67 58.68 132.61 61.35 131.67 63.1 131.91 63.67 133.61 63.56 133.27 63.45 132.93 63.34 132.61 63.24 132.29 63.14 131.97 63.04 131.67 62.95 131.37 62.85 131.07" stroke="#aaa" stroke-width="1"/>
  <polyline fill="none" points ="44.17 114.53 38.91 115.54 33.64 116.53 30 117.33 26.45 118.46 23.76 119.84 21.44 121.77 19.19 124.68 17.42 127.92 19.94 127.26 22.56 127.75 26.33 128.96 30.09 130.2 33.93 131.1 37.85 131.16 41.37 129.62 43.67 126.53 46.21 129.66 49.87 131.25 53.64 131.14 57.3 130.19 60.8 128.97 64.33 127.88 67.02 127.65 69.36 128.86 69.16 128.53 68.96 128.21 68.77 127.9 68.58 127.6 68.39 127.3 68.21 127 68.03 126.72 67.85 126.44" stroke="#aaa" stroke-width="1"/>
  <polyline fill="none" points ="44.11 110.67 38.77 111.39 33.45 112.21 29.39 113.03 25.43 114.2 22.14 115.64 19.13 117.59 16.19 120.27 13.64 123.34 17.07 123.21 20.46 123.96 24.76 125.31 29.06 126.66 33.2 127.63 37.44 127.82 41.05 126.63 43.63 123.84 46.45 126.67 50.24 127.91 54.39 127.67 58.43 126.65 62.58 125.3 66.76 124.06 70.3 123.51 73.8 124.11 73.54 123.82 73.28 123.54 73.03 123.27 72.78 122.99 72.54 122.73 72.3 122.47 72.06 122.21 71.82 121.96" stroke="#aaa" stroke-width="1"/>
  <polyline fill="none" points ="44.07 106.98 39 107.42 33.97 108.07 29.58 108.9 25.28 110.07 21.39 111.56 17.69 113.48 14.14 115.92 10.9 118.77 15.02 119.1 19.06 120.1 23.74 121.55 28.42 122.98 32.76 124 37.19 124.32 40.81 123.43 43.61 120.99 46.63 123.46 50.42 124.39 54.78 124.04 59.04 122.98 63.66 121.54 68.29 120.17 72.6 119.32 76.98 119.35 76.7 119.13 76.42 118.9 76.15 118.68 75.87 118.46 75.6 118.25 75.33 118.04 75.07 117.83 74.8 117.62" stroke="#aaa" stroke-width="1"/>
  <polyline fill="none" points ="44.03 103.53 40.41 103.73 36.81 104.18 32.15 105.04 27.55 106.15 22.67 107.64 17.9 109.47 13.57 111.58 9.52 114.19 14.1 114.93 18.59 116.14 23.45 117.65 28.33 119.11 32.71 120.13 37.18 120.55 40.7 119.94 43.61 117.93 46.72 119.97 50.4 120.61 54.81 120.17 59.12 119.1 63.98 117.62 68.85 116.17 73.7 115.06 78.66 114.6 78.42 114.45 78.17 114.3 77.93 114.16 77.69 114.01 77.44 113.87 77.2 113.73 76.96 113.58 76.71 113.44" stroke="#aaa" stroke-width="1"/>
  <polyline fill="none" points ="43.81 100.37 40.51 100.28 37.21 100.6 32.6 101.39 28.05 102.46 23.11 103.89 18.26 105.58 13.9 107.42 9.71 109.61 14.5 110.69 19.21 112.06 24.03 113.56 28.87 115 33.11 116 37.43 116.49 40.72 116.14 43.63 114.6 46.69 116.17 50.13 116.54 54.39 116.02 58.56 114.99 63.42 113.53 68.27 112.06 73.41 110.73 78.64 109.85 78.41 109.74 78.19 109.64 77.96 109.53 77.74 109.43 77.51 109.32 77.28 109.22 77.05 109.12 76.83 109.01" stroke="#aaa" stroke-width="1"/>
  <polyline fill="none" points ="43.67 97.44 40.59 97.06 37.46 97.25 33.1 97.95 28.79 98.95 24.13 100.27 19.54 101.79 15.54 103.31 11.63 105.03 16.28 106.39 20.91 107.88 25.43 109.34 29.98 110.7 33.9 111.65 37.89 112.2 40.87 112.08 43.65 111.07 46.55 112.11 49.64 112.24 53.56 111.67 57.42 110.7 62.02 109.3 66.6 107.85 71.68 106.35 76.82 105.09 76.63 105.03 76.44 104.96 76.25 104.9 76.06 104.83 75.87 104.77 75.67 104.7 75.48 104.63 75.29 104.57" stroke="#aaa" stroke-width="1"/>
  <polyline fill="none" points ="43.59 94.59 40.8 93.93 37.9 93.99 33.88 94.59 29.91 95.51 25.64 96.71 21.39 98.04 17.75 99.24 14.11 100.45 18.55 102.07 23 103.66 27.15 105.07 31.34 106.34 34.88 107.22 38.47 107.82 41.13 107.93 43.72 107.46 46.38 107.94 49.09 107.85 52.6 107.24 56.04 106.33 60.27 105.02 64.47 103.6 69.35 101.94 74.26 100.34 74.12 100.31 73.97 100.28 73.83 100.25 73.69 100.23 73.55 100.2 73.41 100.17 73.27 100.14 73.12 100.11" stroke="#aaa" stroke-width="1"/>
  <polyline fill="none" points ="43.51 91.65 41 90.71 38.28 90.64 34.56 91.15 30.89 92 26.94 93.1 23 94.24 19.64 95.16 16.24 95.88 20.47 97.76 24.78 99.49 28.61 100.85 32.5 102.05 35.72 102.88 38.99 103.53 41.4 103.85 43.84 103.93 46.24 103.86 48.63 103.54 51.76 102.88 54.85 102.04 58.75 100.79 62.61 99.4 67.34 97.54 72.03 95.58 71.99 95.58 71.94 95.58 71.9 95.58 71.86 95.58 71.81 95.58 71.77 95.58 71.73 95.58 71.68 95.57" stroke="#aaa" stroke-width="1"/>
  <polyline fill="none" points ="43.66 88.49 41.33 87.27 38.68 87.05 35.12 87.5 31.62 88.31 27.84 89.34 24.07 90.36 20.85 91.04 17.59 91.3 21.29 93.43 25.05 95.4 28.06 96.77 31.14 97.94 34.08 98.8 37.07 99.48 40.54 100.09 44.04 100.6 47.4 100.09 50.74 99.49 53.54 98.83 56.29 97.99 59.34 96.79 62.33 95.42 66.43 93.32 70.49 91.12" stroke="#aaa" stroke-width="1"/>
  <polyline fill="none" points ="43.73 85.04 41.46 83.53 38.74 83.17 35.17 83.57 31.67 84.38 27.89 85.41 24.09 86.35 20.85 86.86 17.59 86.72 21.17 89.18 24.85 91.44 27.62 92.88 30.49 94.06 33.38 94.97 36.32 95.71 40.22 96.61 44.12 97.53 47.84 96.62 51.54 95.73 54.24 95.02 56.9 94.14 59.66 92.95 62.32 91.53 66.17 89.17 69.94 86.66" stroke="#aaa" stroke-width="1"/>
  <polyline fill="none" points ="43.82 81.35 41.52 79.54 38.61 79.02 34.91 79.41 31.27 80.26 27.39 81.31 23.48 82.24 20.18 82.62 16.91 82.15 20.46 84.98 24.16 87.59 26.85 89.14 29.68 90.39 32.64 91.37 35.65 92.21 39.96 93.4 44.24 94.69 48.27 93.42 52.33 92.24 55.05 91.44 57.71 90.5 60.32 89.26 62.78 87.74 66.42 85.07 69.95 82.22" stroke="#aaa" stroke-width="1"/>
  <polyline fill="none" points ="43.88 77.49 41.48 75.38 38.32 74.71 34.39 75.09 30.54 76 26.49 77.11 22.4 78.06 19.01 78.35 15.73 77.57 19.29 80.8 23.06 83.8 25.75 85.5 28.62 86.85 31.73 87.92 34.89 88.87 39.64 90.35 44.33 91.99 48.73 90.37 53.18 88.9 56 88.01 58.76 86.98 61.33 85.66 63.71 84 67.27 80.97 70.67 77.74" stroke="#aaa" stroke-width="1"/>
  <polyline fill="none" points ="43.95 73.56 41.4 71.14 37.97 70.32 33.77 70.7 29.66 71.68 25.39 72.87 21.07 73.84 17.56 74.05 14.24 72.99 17.87 76.65 21.74 80.04 24.48 81.91 27.45 83.37 30.75 84.55 34.1 85.61 39.31 87.37 44.44 89.37 49.22 87.4 54.08 85.65 57.03 84.65 59.93 83.53 62.51 82.1 64.84 80.29 68.36 76.88 71.67 73.26" stroke="#aaa" stroke-width="1"/>
  <polyline fill="none" points ="44.03 69.65 41.35 66.93 37.65 65.95 33.19 66.33 28.83 67.38 24.37 68.64 19.85 69.64 16.24 69.77 12.94 68.41 16.59 72.49 20.54 76.27 23.31 78.3 26.36 79.87 29.84 81.15 33.37 82.32 39.02 84.38 44.55 86.72 49.7 84.42 54.94 82.37 58.02 81.27 61.03 80.05 63.59 78.53 65.85 76.57 69.25 72.78 72.41 68.78" stroke="#aaa" stroke-width="1"/>
  <polyline fill="none" points ="44.14 65.86 41.38 62.85 37.45 61.7 32.82 62.07 28.29 63.18 23.74 64.48 19.12 65.49 15.51 65.5 12.36 63.84 15.92 68.3 19.82 72.46 22.54 74.63 25.6 76.28 29.19 77.65 32.83 78.91 38.83 81.27 44.69 83.96 50.09 81.32 55.63 78.98 58.75 77.78 61.81 76.48 64.25 74.88 66.32 72.81 69.42 68.66 72.26 64.32" stroke="#aaa" stroke-width="1"/>
  <polyline fill="none" points ="44.33 62.27 41.57 59 37.5 57.66 32.84 58 28.28 59.13 23.81 60.44 19.27 61.42 15.83 61.27 13.1 59.26 16.36 64.06 20.01 68.56 22.57 70.82 25.52 72.53 29.12 73.95 32.77 75.3 38.93 77.96 44.9 81.03 50.37 78.02 56.01 75.38 59.03 74.12 62 72.74 64.14 71.1 65.8 68.96 68.22 64.51 70.36 59.9" stroke="#aaa" stroke-width="1"/>
  <polyline fill="none" points ="44.76 58.95 42.11 55.47 38.04 53.91 33.54 54.19 29.15 55.31 25.05 56.57 20.88 57.46 17.86 57.05 16.02 54.68 18.62 59.74 21.65 64.54 23.8 66.84 26.45 68.54 29.89 69.99 33.37 71.4 39.47 74.38 45.33 77.84 50.63 74.48 56.14 71.5 58.76 70.23 61.27 68.78 62.51 67.11 62.98 65.06 63.32 60.38 63.56 55.69" stroke="#aaa" stroke-width="1"/>
  <polyline fill="none" points ="44.95 55.93 42.52 52.28 38.56 50.47 34.27 50.67 30.1 51.73 26.23 52.9 22.26 53.64 19.26 52.82 17.72 50.1 20.2 55.38 23.13 60.4 25.13 62.66 27.64 64.32 30.9 65.74 34.14 67.2 39.99 70.52 45.5 74.39 50.47 70.65 55.69 67.3 57.93 66.02 60.01 64.54 60.57 62.77 60.35 60.88 59.42 55.98 58.61 51.05" stroke="#aaa" stroke-width="1"/>
  <polyline fill="none" points ="44.9 53.12 42.76 49.33 39 47.25 35.04 47.34 31.18 48.32 27.57 49.38 23.87 49.9 20.9 48.56 19.55 45.52 21.95 50.97 24.82 56.17 26.67 58.34 29.04 59.93 32.04 61.29 34.98 62.79 40.41 66.48 45.41 70.75 49.95 66.6 54.8 62.85 56.78 61.55 58.65 60.11 59.1 58.35 58.89 56.51 58.07 51.32 57.42 46.09" stroke="#aaa" stroke-width="1"/>
  <polyline fill="none" points ="44.83 50.35 42.99 46.47 39.5 44.08 35.92 44.07 32.41 44.95 29.12 45.89 25.73 46.18 22.84 44.28 21.62 40.95 23.9 46.55 26.66 51.92 28.33 54 30.53 55.49 33.26 56.79 35.87 58.32 40.84 62.4 45.3 67.06 49.36 62.51 53.81 58.36 55.53 57.03 57.18 55.63 57.52 53.91 57.31 52.13 56.62 46.61 56.13 41.08" stroke="#aaa" stroke-width="1"/>
  <polyline fill="none" points ="44.76 47.46 43.17 43.47 39.94 40.78 36.68 40.67 33.5 41.48 30.46 42.32 27.34 42.4 24.53 40 23.36 36.37 25.52 42.16 28.16 47.72 29.69 49.73 31.74 51.16 34.25 52.42 36.59 53.99 41.19 58.46 45.21 63.49 48.88 58.56 52.98 53.99 54.49 52.64 55.96 51.27 56.22 49.57 56.04 47.81 55.45 41.96 55.09 36.09" stroke="#aaa" stroke-width="1"/>
  <polyline fill="none" points ="44.73 44.32 43.27 40.18 40.18 37.2 37.11 37.03 34.1 37.8 31.2 38.59 28.23 38.52 25.44 35.7 24.28 31.79 26.38 37.82 28.97 43.64 30.41 45.62 32.4 47.04 34.8 48.3 36.98 49.92 41.38 54.77 45.16 60.15 48.63 54.86 52.54 49.9 53.93 48.51 55.3 47.13 55.51 45.41 55.34 43.64 54.82 37.43 54.54 31.2" stroke="#aaa" stroke-width="1"/>
  <polyline fill="none" points ="44.75 40.87 43.31 36.54 40.2 33.32 37.14 33.1 34.14 33.88 31.22 34.66 28.24 34.52 25.4 31.39 24.21 27.22 26.34 33.55 28.97 39.67 30.41 41.71 32.41 43.17 34.83 44.46 36.99 46.15 41.42 51.36 45.18 57.08 48.63 51.44 52.56 46.12 53.92 44.68 55.29 43.25 55.48 41.46 55.31 39.64 54.81 33.04 54.56 26.43" stroke="#aaa" stroke-width="1"/>
  <polyline fill="none" points ="44.81 37.18 43.3 32.6 40.05 29.18 36.85 28.94 33.7 29.75 30.65 30.57 27.53 30.4 24.54 27.06 23.29 22.64 25.52 29.34 28.29 35.82 29.79 37.96 31.89 39.5 34.43 40.85 36.68 42.64 41.32 48.17 45.25 54.24 48.85 48.25 52.96 42.61 54.38 41.08 55.81 39.58 56.02 37.7 55.84 35.77 55.32 28.78 55.07 21.78" stroke="#aaa" stroke-width="1"/>
  <polyline fill="none" points ="44.89 33.32 43.26 28.46 39.77 24.86 36.33 24.62 32.96 25.49 29.69 26.38 26.34 26.22 23.14 22.73 21.81 18.06 24.2 25.16 27.16 32.03 28.77 34.32 31.02 35.96 33.74 37.4 36.16 39.31 41.13 45.13 45.36 51.54 49.23 45.22 53.64 39.27 55.17 37.65 56.71 36.05 56.93 34.04 56.74 31.99 56.17 24.6 55.89 17.2" stroke="#aaa" stroke-width="1"/>
  <polyline fill="none" points ="44.99 29.39 43.21 24.24 39.44 20.47 35.71 20.23 32.06 21.17 28.53 22.13 24.91 22.01 21.48 18.39 20.05 13.48 22.62 21 25.81 28.27 27.55 30.73 29.97 32.48 32.9 34.03 35.54 36.05 40.9 42.17 45.49 48.92 49.68 42.27 54.45 36.02 56.12 34.29 57.79 32.59 58.04 30.44 57.82 28.26 57.19 20.46 56.87 12.65" stroke="#aaa" stroke-width="1"/>
</svg>