<?xml version="1.0" encoding="UTF-8"?>
<svg id="Ebene_1" xmlns="http://www.w3.org/2000/svg" width="222" height="222" viewBox="0 0 222 222">
  <polyline points="76.44 0 88.77 2.74 100.99 5.94 107.79 8.09 114.42 10.68 117.63 12.27 120.65 14.2 122.12 15.36 123.6 16.49 125.33 17.24 127.21 17.53 131.3 17.56 135.4 17.32 143.74 16.61 152.09 15.83 166.66 14.43 181.23 13.05 178.93 13.48 176.64 13.91 174.55 14.3 172.46 14.69 170.57 15.04 168.68 15.39 166.98 15.7 165.28 16.01 163.76 16.28 162.24 16.55 160.89 16.78 159.54 17.02 158.36 17.22 157.17 17.41 156.14 17.58 155.11 17.74" fill="none" stroke="#aaa" stroke-miterlimit="10" stroke-width=".5"/>
  <polyline points="72.16 0 84.28 2.75 96.29 5.97 102.98 8.13 109.51 10.73 112.68 12.33 115.65 14.26 117.12 15.43 118.6 16.56 120.32 17.31 122.2 17.6 126.25 17.62 130.31 17.37 138.55 16.66 146.8 15.87 161.16 14.45 175.52 13.06 173.38 13.48 171.23 13.89 169.28 14.26 167.32 14.64 165.53 14.97 163.75 15.31 162.14 15.61 160.53 15.91 159.07 16.18 157.62 16.45 156.32 16.68 155.03 16.91 153.87 17.12 152.72 17.31 151.71 17.48 150.7 17.65" fill="none" stroke="#aaa" stroke-miterlimit="10" stroke-width=".5"/>
  <polyline points="67.91 0 79.83 2.76 91.63 5.98 98.21 8.15 104.62 10.75 107.75 12.36 110.69 14.29 112.15 15.46 113.62 16.59 115.34 17.33 117.21 17.63 121.22 17.64 125.24 17.39 133.37 16.67 141.51 15.87 155.66 14.45 169.81 13.05 167.81 13.44 165.81 13.84 163.98 14.19 162.14 14.55 160.47 14.88 158.79 15.2 157.26 15.5 155.73 15.79 154.35 16.05 152.96 16.31 151.72 16.54 150.47 16.77 149.36 16.97 148.24 17.17 147.25 17.35 146.26 17.52" fill="none" stroke="#aaa" stroke-miterlimit="10" stroke-width=".5"/>
  <polyline points="63.69 0 75.4 2.76 87 5.98 93.47 8.15 99.78 10.75 102.87 12.36 105.76 14.28 107.21 15.45 108.67 16.58 110.38 17.32 112.24 17.61 116.21 17.62 120.18 17.37 128.2 16.65 136.22 15.84 150.16 14.42 164.1 13.01 162.23 13.39 160.37 13.76 158.65 14.1 156.93 14.44 155.35 14.75 153.77 15.07 152.32 15.35 150.88 15.63 149.56 15.89 148.24 16.14 147.05 16.37 145.85 16.59 144.77 16.8 143.7 16.99 142.73 17.17 141.77 17.34" fill="none" stroke="#aaa" stroke-miterlimit="10" stroke-width=".5"/>
  <polyline points="59.5 0 71.01 2.76 82.4 5.97 88.77 8.13 94.97 10.72 98.01 12.33 100.86 14.25 102.3 15.42 103.75 16.53 105.45 17.27 107.29 17.56 111.21 17.57 115.14 17.31 123.04 16.59 130.95 15.78 144.67 14.36 158.39 12.95 156.65 13.3 154.92 13.66 153.31 13.98 151.7 14.31 150.21 14.61 148.73 14.91 147.36 15.18 145.99 15.45 144.74 15.7 143.49 15.94 142.34 16.17 141.2 16.39 140.16 16.59 139.13 16.78 138.19 16.96 137.25 17.13" fill="none" stroke="#aaa" stroke-miterlimit="10" stroke-width=".5"/>
  <polyline points="55.33 0 66.64 2.75 77.82 5.95 84.08 8.1 90.17 10.68 93.17 12.29 95.98 14.19 97.4 15.35 98.85 16.47 100.53 17.2 102.35 17.48 106.23 17.49 110.1 17.23 117.89 16.51 125.68 15.7 139.17 14.28 152.68 12.87 151.06 13.2 149.44 13.54 147.94 13.85 146.43 14.16 145.04 14.44 143.64 14.73 142.35 14.99 141.06 15.25 139.87 15.49 138.68 15.73 137.59 15.95 136.5 16.16 135.51 16.36 134.51 16.55 133.6 16.72 132.7 16.9" fill="none" stroke="#aaa" stroke-miterlimit="10" stroke-width=".5"/>
  <polyline points="51.17 0 62.27 2.73 73.25 5.92 79.4 8.06 85.39 10.63 88.34 12.23 91.11 14.13 92.52 15.28 93.95 16.38 95.61 17.11 97.42 17.39 101.25 17.4 105.07 17.14 112.74 16.41 120.41 15.61 133.68 14.18 146.97 12.78 145.46 13.1 143.95 13.41 142.55 13.71 141.14 14 139.83 14.27 138.52 14.54 137.31 14.8 136.09 15.05 134.97 15.28 133.84 15.51 132.8 15.72 131.76 15.93 130.81 16.12 129.85 16.31 128.98 16.48 128.1 16.65" fill="none" stroke="#aaa" stroke-miterlimit="10" stroke-width=".5"/>
  <polyline points="47.01 0 57.9 2.72 68.68 5.89 74.73 8.03 80.6 10.58 83.51 12.18 86.24 14.06 87.63 15.21 89.05 16.31 90.7 17.03 92.49 17.31 96.26 17.31 100.03 17.05 107.58 16.32 115.13 15.52 128.19 14.1 141.25 12.7 139.86 12.99 138.46 13.29 137.15 13.57 135.84 13.85 134.62 14.1 133.39 14.36 132.25 14.6 131.11 14.84 130.04 15.06 128.98 15.28 128 15.49 127.01 15.69 126.1 15.88 125.19 16.06 124.35 16.23 123.51 16.4" fill="none" stroke="#aaa" stroke-miterlimit="10" stroke-width=".5"/>
  <polyline points="42.83 0 53.53 2.71 64.1 5.87 70.03 8 75.8 10.55 78.67 12.14 81.35 14.01 82.73 15.15 84.14 16.24 85.77 16.96 87.55 17.24 91.27 17.23 95 16.97 102.43 16.25 109.86 15.44 122.7 14.02 135.55 12.62 134.25 12.9 132.95 13.18 131.73 13.44 130.51 13.71 129.37 13.95 128.22 14.2 127.15 14.43 126.07 14.66 125.07 14.87 124.07 15.08 123.13 15.28 122.2 15.48 121.33 15.66 120.46 15.84 119.66 16 118.86 16.17" fill="none" stroke="#aaa" stroke-miterlimit="10" stroke-width=".5"/>
  <polyline points="38.64 0 49.12 2.71 59.49 5.86 65.32 7.99 70.98 10.53 73.8 12.12 76.44 13.98 77.81 15.12 79.21 16.21 80.83 16.92 82.6 17.19 86.27 17.19 89.95 16.92 97.27 16.19 104.58 15.38 117.21 13.96 129.83 12.56 128.64 12.82 127.44 13.09 126.31 13.34 125.18 13.58 124.11 13.82 123.05 14.05 122.04 14.27 121.04 14.49 120.1 14.69 119.16 14.89 118.28 15.08 117.4 15.27 116.57 15.45 115.75 15.62 114.98 15.79 114.22 15.95" fill="none" stroke="#aaa" stroke-miterlimit="10" stroke-width=".5"/>
  <polyline points="34.41 0 44.69 2.71 54.85 5.86 60.57 7.99 66.13 10.53 68.9 12.12 71.51 13.98 72.86 15.12 74.25 16.2 75.87 16.91 77.62 17.19 81.26 17.17 84.89 16.91 92.09 16.17 99.3 15.36 111.71 13.93 124.12 12.52 123.02 12.77 121.91 13.02 120.87 13.25 119.82 13.49 118.83 13.71 117.84 13.93 116.91 14.13 115.98 14.34 115.1 14.54 114.22 14.73 113.39 14.91 112.56 15.09 111.78 15.26 111.01 15.43 110.28 15.59 109.55 15.75" fill="none" stroke="#aaa" stroke-miterlimit="10" stroke-width=".5"/>
  <polyline points="30.16 0 40.23 2.72 50.18 5.88 55.8 8.02 61.24 10.56 63.98 12.15 66.54 14.01 67.89 15.16 69.27 16.24 70.88 16.94 72.63 17.22 76.22 17.2 79.81 16.93 86.91 16.19 94.01 15.37 106.21 13.93 118.41 12.51 117.4 12.74 116.38 12.97 115.42 13.19 114.45 13.41 113.54 13.62 112.62 13.83 111.75 14.03 110.89 14.22 110.07 14.41 109.24 14.6 108.47 14.77 107.69 14.94 106.96 15.11 106.23 15.27 105.54 15.42 104.86 15.58" fill="none" stroke="#aaa" stroke-miterlimit="10" stroke-width=".5"/>
  <polyline points="25.87 0 35.74 2.74 45.47 5.91 50.99 8.06 56.32 10.61 59.02 12.22 61.55 14.08 62.89 15.23 64.27 16.31 65.88 17.02 67.62 17.29 71.17 17.27 74.73 16.99 81.72 16.24 88.71 15.41 100.7 13.95 112.7 12.52 111.78 12.74 110.85 12.95 109.97 13.16 109.08 13.37 108.24 13.56 107.4 13.76 106.6 13.95 105.8 14.13 105.04 14.31 104.27 14.49 103.55 14.65 102.83 14.82 102.15 14.98 101.47 15.13 100.82 15.28 100.17 15.43" fill="none" stroke="#aaa" stroke-miterlimit="10" stroke-width=".5"/>
  <polyline points="21.55 0 31.21 2.76 40.74 5.96 46.15 8.13 51.37 10.69 54.03 12.31 56.52 14.18 57.86 15.34 59.24 16.43 60.85 17.13 62.59 17.4 66.11 17.37 69.62 17.09 76.52 16.32 83.41 15.48 95.2 14.01 106.99 12.56 106.15 12.76 105.3 12.96 104.5 13.16 103.69 13.35 102.92 13.53 102.15 13.72 101.41 13.9 100.67 14.07 99.97 14.24 99.27 14.41 98.6 14.57 97.93 14.72 97.29 14.88 96.66 15.03 96.05 15.17 95.45 15.31" fill="none" stroke="#aaa" stroke-miterlimit="10" stroke-width=".5"/>
  <polyline points="17.21 0 26.66 2.79 35.97 6.02 41.27 8.21 46.39 10.79 49.01 12.44 51.47 14.32 52.8 15.49 54.19 16.58 55.79 17.28 57.54 17.55 61.03 17.52 64.51 17.23 71.3 16.45 78.09 15.59 89.68 14.09 101.28 12.62 100.52 12.8 99.75 12.99 99.02 13.17 98.29 13.36 97.58 13.53 96.88 13.7 96.2 13.87 95.53 14.04 94.88 14.2 94.24 14.35 93.62 14.51 93.01 14.65 92.42 14.8 91.84 14.94 91.27 15.08 90.71 15.22" fill="none" stroke="#aaa" stroke-miterlimit="10" stroke-width=".5"/>
  <polyline points="12.78 0 22.02 2.84 31.11 6.11 36.31 8.35 41.32 10.96 43.91 12.64 46.33 14.54 47.67 15.73 49.06 16.83 50.68 17.53 52.43 17.8 55.9 17.76 59.36 17.46 66.07 16.66 72.77 15.77 84.16 14.24 95.57 12.73 94.88 12.91 94.2 13.09 93.54 13.26 92.89 13.42 92.25 13.59 91.62 13.75 91.01 13.9 90.4 14.06 89.81 14.21 89.23 14.36 88.67 14.5 88.11 14.64 87.57 14.78 87.04 14.91 86.52 15.05 86.01 15.18" fill="none" stroke="#aaa" stroke-miterlimit="10" stroke-width=".5"/>
  <polyline points="8.15 0 17.17 2.93 26.03 6.3 31.13 8.61 36.04 11.3 38.6 13.03 41 14.98 42.35 16.21 43.77 17.33 45.41 18.05 47.2 18.32 50.66 18.26 54.12 17.94 60.76 17.1 67.39 16.18 78.62 14.59 89.86 13.02 89.25 13.18 88.65 13.34 88.06 13.5 87.49 13.66 86.92 13.81 86.36 13.96 85.81 14.11 85.27 14.25 84.74 14.39 84.23 14.53 83.72 14.67 83.22 14.8 82.73 14.93 82.25 15.06 81.77 15.19 81.31 15.31" fill="none" stroke="#aaa" stroke-miterlimit="10" stroke-width=".5"/>
  <polyline points="3.2 0 11.99 3.1 20.61 6.65 25.62 9.09 30.41 11.92 32.97 13.75 35.35 15.79 36.74 17.07 38.21 18.24 39.91 18.98 41.75 19.26 45.25 19.19 48.74 18.83 55.35 17.93 61.95 16.94 73.05 15.24 84.15 13.56 83.63 13.71 83.11 13.86 82.61 14 82.11 14.15 81.62 14.29 81.14 14.43 80.67 14.57 80.2 14.7 79.74 14.83 79.29 14.97 78.84 15.09 78.41 15.22 77.98 15.34 77.55 15.47 77.14 15.59 76.73 15.7" fill="none" stroke="#aaa" stroke-miterlimit="10" stroke-width=".5"/>
  <polyline points="14.8 7.18 19.71 9.83 24.39 12.86 26.96 14.85 29.35 17.02 30.79 18.4 32.35 19.64 34.13 20.42 36.07 20.71 39.65 20.61 43.21 20.21 49.83 19.21 56.43 18.11 67.43 16.25 78.44 14.4 78.01 14.54 77.58 14.67 77.17 14.81 76.75 14.94 76.35 15.07 75.95 15.2 75.55 15.32 75.16 15.45 74.77 15.57 74.39 15.69 74.02 15.81 73.65 15.93 73.29 16.05 72.93 16.16 72.58 16.28 72.23 16.39" fill="none" stroke="#aaa" stroke-miterlimit="10" stroke-width=".5"/>
  <polyline points="8.63 7.88 13.45 10.81 18.03 14.1 20.61 16.3 23.03 18.65 24.55 20.16 26.21 21.5 28.11 22.34 30.18 22.64 33.86 22.5 37.53 22.03 44.19 20.91 50.84 19.67 61.78 17.59 72.73 15.53 72.39 15.65 72.06 15.77 71.73 15.88 71.4 16 71.08 16.12 70.76 16.23 70.45 16.34 70.14 16.45 69.83 16.57 69.53 16.67 69.23 16.78 68.93 16.89 68.64 16.99 68.35 17.1 68.06 17.2 67.78 17.3" fill="none" stroke="#aaa" stroke-miterlimit="10" stroke-width=".5"/>
  <polyline points="11.45 15.56 14.05 18 16.51 20.56 18.12 22.22 19.91 23.67 21.94 24.57 24.16 24.88 27.97 24.71 31.76 24.16 38.5 22.89 45.21 21.49 56.11 19.15 67.02 16.83 66.77 16.93 66.53 17.03 66.28 17.13 66.04 17.23 65.81 17.32 65.57 17.42 65.34 17.52 65.1 17.61 64.87 17.7 64.65 17.8 64.42 17.89 64.2 17.98 63.98 18.07 63.76 18.16 63.54 18.25 63.32 18.34" fill="none" stroke="#aaa" stroke-miterlimit="10" stroke-width=".5"/>
  <polyline points="4.84 17.06 7.46 19.76 9.95 22.54 11.66 24.35 13.58 25.93 15.75 26.88 18.11 27.22 22.06 26.99 25.97 26.37 32.79 24.94 39.57 23.37 50.43 20.77 61.31 18.18 61.14 18.25 60.98 18.33 60.82 18.4 60.66 18.47 60.5 18.55 60.34 18.62 60.18 18.69 60.03 18.76 59.87 18.84 59.72 18.91 59.56 18.98 59.41 19.05 59.26 19.12 59.11 19.19 58.96 19.26 58.81 19.33" fill="none" stroke="#aaa" stroke-miterlimit="10" stroke-width=".5"/>
  <polyline points="3.57 24.34 5.36 26.3 7.39 27.98 9.69 29 12.18 29.34 16.25 29.08 20.27 28.38 27.14 26.81 33.97 25.07 44.78 22.23 55.59 19.39 55.5 19.43 55.41 19.48 55.32 19.53 55.23 19.57 55.14 19.62 55.05 19.67 54.96 19.71 54.87 19.76 54.79 19.8 54.7 19.85 54.61 19.9 54.52 19.94 54.44 19.99 54.35 20.03 54.26 20.08 54.18 20.12" fill="none" stroke="#aaa" stroke-miterlimit="10" stroke-width=".5"/>
  <polyline points="6.49 30.97 10.63 30.68 14.72 29.92 21.61 28.24 28.44 26.38 39.16 23.35 49.88 20.3 49.85 20.32 49.82 20.34 49.79 20.36 49.75 20.38 49.72 20.39 49.69 20.41 49.66 20.43 49.63 20.45 49.6 20.47 49.56 20.48 49.53 20.5 49.5 20.52 49.47 20.54 49.44 20.55 49.41 20.57 49.37 20.59" fill="none" stroke="#aaa" stroke-miterlimit="10" stroke-width=".5"/>
  <polyline points="9.33 30.78 16.13 29.05 22.88 27.13 33.39 24 43.9 20.86" fill="none" stroke="#aaa" stroke-miterlimit="10" stroke-width=".5"/>
  <polyline points="4.11 30.81 10.71 29.1 17.25 27.2 27.42 24.11 37.58 20.99" fill="none" stroke="#aaa" stroke-miterlimit="10" stroke-width=".5"/>
  <polyline points="11.88 26.45 21.65 23.49 31.43 20.5" fill="none" stroke="#aaa" stroke-miterlimit="10" stroke-width=".5"/>
  <polyline points="6.75 24.91 16.1 22.16 25.45 19.39" fill="none" stroke="#aaa" stroke-miterlimit="10" stroke-width=".5"/>
</svg>