<?xml version="1.0" encoding="UTF-8"?><svg id="Ebene_1" xmlns="http://www.w3.org/2000/svg" viewBox="0 0 222 222"><polyline points="203.3 .18 191.33 1.8 179.62 4.73 173.62 7.32 168.45 11.27 166.39 14.58 165.73 18.42 166.24 21.7 167.39 24.81 168.41 26.93 169.36 29.05 168.88 30 167.58 29.76 162.73 27.79 157.98 25.57 147.23 20.34 136.49 15.08 136.83 15.16 137.17 15.24 137.51 15.32 137.85 15.4 138.19 15.47 138.53 15.55 138.86 15.63 139.2 15.71 139.53 15.78 139.86 15.86 140.19 15.94 140.52 16.01 140.85 16.09 141.17 16.16 141.5 16.24 141.82 16.31" style="fill:none; stroke:#aaa; stroke-miterlimit:10; stroke-width:.5px;"/><polyline points="197.57 .18 185.8 1.81 174.3 4.74 168.4 7.35 163.35 11.31 161.33 14.65 160.71 18.49 161.23 21.78 162.39 24.91 163.41 27.03 164.38 29.16 163.94 30.11 162.68 29.87 157.93 27.88 153.29 25.65 142.75 20.39 132.22 15.1 132.57 15.18 132.91 15.26 133.25 15.34 133.6 15.42 133.94 15.5 134.28 15.58 134.61 15.66 134.95 15.74 135.29 15.82 135.62 15.9 135.95 15.98 136.28 16.06 136.61 16.13 136.94 16.21 137.27 16.29 137.59 16.37" style="fill:none; stroke:#aaa; stroke-miterlimit:10; stroke-width:.5px;"/><polyline points="191.86 .18 180.29 1.81 169 4.75 163.21 7.37 158.27 11.33 156.3 14.69 155.71 18.54 156.24 21.84 157.39 24.97 158.42 27.1 159.4 29.24 159.01 30.19 157.78 29.95 153.14 27.94 148.61 25.7 138.28 20.41 127.95 15.1 128.3 15.18 128.65 15.27 128.99 15.35 129.34 15.43 129.68 15.52 130.02 15.6 130.36 15.68 130.7 15.76 131.04 15.84 131.37 15.92 131.71 16.01 132.04 16.09 132.37 16.17 132.7 16.24 133.03 16.32 133.36 16.4" style="fill:none; stroke:#aaa; stroke-miterlimit:10; stroke-width:.5px;"/><polyline points="186.17 .18 174.81 1.81 163.73 4.75 158.03 7.38 153.2 11.35 151.28 14.72 150.72 18.57 151.26 21.87 152.42 25.01 153.44 27.15 154.43 29.29 154.09 30.24 152.88 29.99 148.35 27.97 143.92 25.72 133.8 20.42 123.68 15.09 124.03 15.18 124.38 15.26 124.73 15.35 125.08 15.43 125.42 15.52 125.76 15.6 126.11 15.68 126.45 15.77 126.79 15.85 127.12 15.93 127.46 16.02 127.79 16.1 128.13 16.18 128.46 16.26 128.79 16.34 129.12 16.42" style="fill:none; stroke:#aaa; stroke-miterlimit:10; stroke-width:.5px;"/><polyline points="180.5 .18 169.34 1.81 158.48 4.75 152.88 7.39 148.16 11.35 146.28 14.74 145.75 18.58 146.3 21.88 147.45 25.03 148.48 27.17 149.47 29.31 149.17 30.25 148 30 143.57 27.98 139.25 25.73 129.33 20.41 119.41 15.06 119.77 15.15 120.12 15.24 120.47 15.33 120.82 15.42 121.16 15.5 121.51 15.59 121.85 15.67 122.2 15.76 122.54 15.85 122.88 15.93 123.21 16.01 123.55 16.1 123.88 16.18 124.22 16.27 124.55 16.35 124.88 16.43" style="fill:none; stroke:#aaa; stroke-miterlimit:10; stroke-width:.5px;"/><polyline points="174.87 .18 163.92 1.81 153.25 4.74 147.76 7.39 143.14 11.33 141.31 14.73 140.81 18.55 141.36 21.86 142.51 25 143.54 27.14 144.53 29.27 144.27 30.22 143.13 29.97 138.8 27.93 134.58 25.68 124.86 20.36 115.14 15.02 115.5 15.11 115.85 15.2 116.2 15.29 116.55 15.38 116.9 15.46 117.25 15.55 117.59 15.64 117.93 15.73 118.28 15.81 118.62 15.9 118.96 15.99 119.29 16.07 119.63 16.16 119.96 16.24 120.29 16.33 120.63 16.41" style="fill:none; stroke:#aaa; stroke-miterlimit:10; stroke-width:.5px;"/><polyline points="169.34 .18 158.59 1.8 148.13 4.71 142.73 7.34 138.21 11.26 136.42 14.64 135.94 18.44 136.49 21.72 137.64 24.85 138.65 26.97 139.64 29.09 139.41 30.03 138.29 29.78 134.06 27.75 129.92 25.52 120.4 20.22 110.87 14.91 111.22 15 111.58 15.09 111.93 15.18 112.27 15.27 112.62 15.36 112.96 15.44 113.31 15.53 113.65 15.62 113.99 15.71 114.33 15.79 114.66 15.88 115 15.97 115.33 16.05 115.66 16.14 115.99 16.22 116.32 16.31" style="fill:none; stroke:#aaa; stroke-miterlimit:10; stroke-width:.5px;"/><polyline points="164 .18 153.44 1.77 143.17 4.64 137.87 7.23 133.44 11.09 131.67 14.42 131.2 18.15 131.75 21.38 132.87 24.46 133.87 26.55 134.85 28.64 134.63 29.56 133.53 29.32 129.37 27.32 125.31 25.12 115.96 19.91 106.6 14.68 106.95 14.76 107.29 14.85 107.63 14.94 107.97 15.03 108.31 15.12 108.65 15.2 108.98 15.29 109.32 15.37 109.65 15.46 109.98 15.55 110.31 15.63 110.64 15.71 110.96 15.8 111.29 15.88 111.61 15.97 111.93 16.05" style="fill:none; stroke:#aaa; stroke-miterlimit:10; stroke-width:.5px;"/><polyline points="158.9 .18 148.53 1.73 138.43 4.52 133.22 7.03 128.86 10.78 127.12 14.01 126.64 17.65 127.16 20.78 128.26 23.77 129.23 25.8 130.17 27.83 129.93 28.73 128.84 28.49 124.74 26.56 120.74 24.42 111.54 19.36 102.33 14.29 102.66 14.37 102.99 14.46 103.32 14.54 103.64 14.62 103.96 14.7 104.28 14.78 104.6 14.87 104.92 14.95 105.24 15.03 105.55 15.11 105.87 15.19 106.18 15.27 106.49 15.35 106.8 15.43 107.11 15.51 107.41 15.58" style="fill:none; stroke:#aaa; stroke-miterlimit:10; stroke-width:.5px;"/><polyline points="154.03 .18 143.83 1.67 133.9 4.34 128.78 6.74 124.46 10.35 122.73 13.43 122.24 16.92 122.73 19.93 123.78 22.79 124.71 24.73 125.6 26.68 125.32 27.54 124.24 27.32 120.18 25.48 116.22 23.43 107.14 18.6 98.07 13.75 98.37 13.82 98.67 13.9 98.97 13.97 99.27 14.05 99.57 14.12 99.87 14.2 100.17 14.27 100.46 14.34 100.76 14.42 101.05 14.49 101.34 14.56 101.63 14.63 101.92 14.71 102.21 14.78 102.49 14.85 102.78 14.92" style="fill:none; stroke:#aaa; stroke-miterlimit:10; stroke-width:.5px;"/><polyline points="149.32 .18 139.3 1.59 129.51 4.13 124.48 6.39 120.19 9.81 118.48 12.71 117.96 16.03 118.41 18.88 119.4 21.58 120.28 23.42 121.12 25.27 120.77 26.09 119.69 25.88 115.66 24.15 111.72 22.22 102.76 17.67 93.8 13.09 94.07 13.16 94.34 13.22 94.61 13.29 94.89 13.35 95.15 13.42 95.42 13.48 95.69 13.55 95.96 13.61 96.22 13.67 96.49 13.74 96.75 13.8 97.01 13.86 97.27 13.93 97.53 13.99 97.79 14.05 98.05 14.11" style="fill:none; stroke:#aaa; stroke-miterlimit:10; stroke-width:.5px;"/><polyline points="144.67 .18 134.81 1.51 125.17 3.9 120.24 6.02 115.97 9.25 114.27 11.95 113.72 15.09 114.12 17.76 115.06 20.3 115.89 22.02 116.66 23.76 116.24 24.54 115.17 24.34 111.16 22.74 107.24 20.93 98.38 16.68 89.53 12.39 89.77 12.45 90.01 12.5 90.25 12.56 90.49 12.61 90.73 12.67 90.97 12.72 91.2 12.78 91.44 12.83 91.67 12.88 91.91 12.94 92.14 12.99 92.37 13.04 92.61 13.1 92.84 13.15 93.07 13.2 93.3 13.26" style="fill:none; stroke:#aaa; stroke-miterlimit:10; stroke-width:.5px;"/><polyline points="139.94 .18 130.26 1.43 120.77 3.69 115.93 5.67 111.69 8.71 110.01 11.23 109.42 14.2 109.79 16.71 110.67 19.1 111.46 20.72 112.17 22.35 111.68 23.09 110.61 22.91 106.64 21.42 102.74 19.72 94 15.75 85.26 11.73 85.47 11.78 85.69 11.83 85.9 11.87 86.11 11.92 86.32 11.97 86.53 12.01 86.75 12.06 86.95 12.1 87.16 12.15 87.37 12.2 87.58 12.24 87.79 12.29 87.99 12.33 88.2 12.38 88.4 12.42 88.61 12.47" style="fill:none; stroke:#aaa; stroke-miterlimit:10; stroke-width:.5px;"/><polyline points="135 .18 125.5 1.38 116.18 3.52 111.42 5.4 107.24 8.3 105.58 10.67 104.97 13.51 105.31 15.89 106.15 18.16 106.9 19.69 107.57 21.25 107.04 21.95 105.99 21.78 102.05 20.38 98.2 18.77 89.59 15.01 80.99 11.21 81.18 11.25 81.38 11.29 81.57 11.33 81.76 11.37 81.96 11.41 82.15 11.45 82.34 11.49 82.53 11.53 82.72 11.57 82.91 11.61 83.1 11.65 83.29 11.69 83.48 11.73 83.66 11.77 83.85 11.81 84.04 11.85" style="fill:none; stroke:#aaa; stroke-miterlimit:10; stroke-width:.5px;"/><polyline points="129.73 .18 120.42 1.34 111.28 3.42 106.63 5.25 102.52 8.06 100.89 10.36 100.29 13.11 100.62 15.42 101.43 17.62 102.16 19.11 102.8 20.62 102.28 21.3 101.24 21.14 97.38 19.78 93.6 18.22 85.15 14.58 76.72 10.89 76.91 10.93 77.09 10.97 77.28 11.01 77.47 11.05 77.65 11.09 77.84 11.13 78.02 11.17 78.21 11.2 78.39 11.24 78.57 11.28 78.75 11.32 78.94 11.36 79.12 11.4 79.3 11.43 79.48 11.47 79.66 11.51" style="fill:none; stroke:#aaa; stroke-miterlimit:10; stroke-width:.5px;"/><polyline points="124.04 .18 114.94 1.34 106.01 3.42 101.46 5.24 97.46 8.04 95.87 10.35 95.31 13.09 95.64 15.41 96.46 17.6 97.19 19.09 97.84 20.6 97.36 21.28 96.35 21.11 92.6 19.75 88.92 18.19 80.68 14.54 72.45 10.85 72.65 10.89 72.84 10.93 73.04 10.97 73.23 11.02 73.42 11.06 73.62 11.1 73.81 11.14 74 11.18 74.19 11.22 74.39 11.26 74.58 11.3 74.77 11.35 74.95 11.39 75.14 11.43 75.33 11.47 75.52 11.51" style="fill:none; stroke:#aaa; stroke-miterlimit:10; stroke-width:.5px;"/><polyline points="117.91 .18 109.02 1.37 100.33 3.51 95.89 5.4 92.04 8.29 90.5 10.7 90 13.5 90.37 15.89 91.21 18.16 91.96 19.7 92.65 21.25 92.27 21.95 91.3 21.77 87.69 20.34 84.15 18.73 76.16 14.93 68.18 11.1 68.4 11.16 68.62 11.21 68.85 11.26 69.06 11.31 69.28 11.35 69.5 11.4 69.72 11.45 69.94 11.5 70.15 11.55 70.37 11.6 70.58 11.65 70.79 11.7 71.01 11.75 71.22 11.79 71.43 11.84 71.64 11.89" style="fill:none; stroke:#aaa; stroke-miterlimit:10; stroke-width:.5px;"/><polyline points="111.33 .18 102.68 1.44 94.25 3.7 89.91 5.73 86.25 8.78 84.79 11.38 84.37 14.33 84.79 16.87 85.69 19.29 86.48 20.93 87.24 22.58 87 23.31 86.09 23.12 82.66 21.56 79.3 19.84 71.61 15.76 63.91 11.66 64.18 11.72 64.44 11.79 64.7 11.85 64.97 11.92 65.23 11.98 65.49 12.05 65.75 12.11 66 12.17 66.26 12.24 66.51 12.3 66.77 12.36 67.02 12.43 67.27 12.49 67.52 12.55 67.77 12.61 68.02 12.67" style="fill:none; stroke:#aaa; stroke-miterlimit:10; stroke-width:.5px;"/><polyline points="104.36 .18 95.95 1.54 87.81 3.99 83.59 6.22 80.14 9.5 78.77 12.37 78.47 15.54 78.96 18.3 79.93 20.94 80.78 22.73 81.64 24.51 81.6 25.28 80.75 25.07 77.52 23.34 74.37 21.45 67.01 16.96 59.64 12.47 59.96 12.56 60.28 12.65 60.6 12.74 60.91 12.82 61.23 12.91 61.54 13 61.85 13.08 62.16 13.17 62.47 13.25 62.77 13.34 63.08 13.42 63.38 13.5 63.68 13.59 63.98 13.67 64.28 13.75 64.57 13.83" style="fill:none; stroke:#aaa; stroke-miterlimit:10; stroke-width:.5px;"/><polyline points="97.1 .18 88.94 1.66 81.12 4.33 77.01 6.83 73.8 10.39 72.54 13.6 72.36 17.04 72.93 20.07 73.99 22.98 74.92 24.96 75.9 26.9 76.09 27.7 75.3 27.5 72.31 25.53 69.39 23.46 62.4 18.46 55.37 13.49 55.75 13.6 56.13 13.72 56.51 13.84 56.89 13.96 57.26 14.07 57.63 14.19 58 14.3 58.36 14.41 58.73 14.53 59.09 14.64 59.44 14.75 59.8 14.86 60.15 14.97 60.51 15.08 60.86 15.19 61.2 15.3" style="fill:none; stroke:#aaa; stroke-miterlimit:10; stroke-width:.5px;"/><polyline points="89.68 .18 81.78 1.8 74.27 4.72 70.28 7.52 67.33 11.38 66.2 14.95 66.13 18.71 66.8 22.05 67.95 25.25 68.98 27.43 70.08 29.56 70.41 30.33 69.8 30.19 67.07 27.98 64.38 25.69 57.77 20.13 51.1 14.61 51.55 14.77 51.99 14.92 52.43 15.08 52.87 15.23 53.3 15.38 53.73 15.53 54.15 15.68 54.58 15.83 54.99 15.98 55.41 16.12 55.82 16.27 56.23 16.41 56.64 16.55 57.05 16.7 57.45 16.84 57.84 16.98" style="fill:none; stroke:#aaa; stroke-miterlimit:10; stroke-width:.5px;"/><polyline points="82.25 .18 74.59 1.95 67.42 5.11 63.55 8.22 60.84 12.36 59.84 16.28 59.89 20.34 60.65 23.98 61.91 27.47 63.02 29.86 64.26 32.17 64.65 32.9 64.29 32.84 61.83 30.38 59.36 27.9 53.14 21.79 46.84 15.76 47.34 15.96 47.85 16.16 48.35 16.35 48.84 16.55 49.33 16.74 49.82 16.93 50.3 17.12 50.78 17.31 51.26 17.5 51.73 17.68 52.19 17.86 52.66 18.04 53.11 18.22 53.57 18.4 54.02 18.58 54.47 18.76" style="fill:none; stroke:#aaa; stroke-miterlimit:10; stroke-width:.5px;"/><polyline points="74.95 .18 67.53 2.08 60.68 5.45 56.95 8.83 54.47 13.2 53.59 17.42 53.75 21.74 54.6 25.62 55.94 29.36 57.14 31.92 58.49 34.39 58.93 35.11 58.83 35.1 56.63 32.44 54.37 29.81 48.53 23.27 42.57 16.83 43.13 17.07 43.69 17.32 44.25 17.56 44.8 17.79 45.34 18.03 45.88 18.27 46.42 18.5 46.95 18.73 47.47 18.95 47.99 19.18 48.5 19.4 49.01 19.62 49.52 19.84 50.02 20.06 50.51 20.27 51 20.49" style="fill:none; stroke:#aaa; stroke-miterlimit:10; stroke-width:.5px;"/><polyline points="67.91 .19 60.73 2.2 54.18 5.73 50.6 9.36 48.31 13.91 47.54 18.38 47.79 22.91 48.72 27.01 50.14 30.95 51.41 33.66 52.86 36.25 53.35 37 53.46 37 51.5 34.18 49.43 31.42 43.95 24.52 38.3 17.72 38.9 18.01 39.5 18.29 40.1 18.57 40.68 18.85 41.27 19.12 41.84 19.4 42.41 19.66 42.98 19.93 43.54 20.19 44.09 20.45 44.64 20.71 45.18 20.97 45.71 21.22 46.24 21.47 46.77 21.72 47.29 21.96" style="fill:none; stroke:#aaa; stroke-miterlimit:10; stroke-width:.5px;"/><polyline points="61.25 .19 54.28 2.28 48.02 5.95 44.57 9.75 42.45 14.43 41.78 19.08 42.11 23.77 43.09 28.02 44.57 32.12 45.88 34.94 47.41 37.62 47.96 38.4 48.22 38.4 46.48 35.46 44.57 32.61 39.39 25.43 34.03 18.38 34.66 18.7 35.29 19.02 35.91 19.33 36.53 19.64 37.14 19.95 37.74 20.25 38.34 20.55 38.93 20.85 39.51 21.14 40.09 21.43 40.66 21.72 41.22 22 41.78 22.29 42.33 22.56 42.88 22.84 43.42 23.11" style="fill:none; stroke:#aaa; stroke-miterlimit:10; stroke-width:.5px;"/><polyline points="54.94 .19 48.19 2.34 42.19 6.08 38.86 10.01 36.89 14.76 36.29 19.52 36.68 24.32 37.7 28.66 39.22 32.86 40.56 35.74 42.14 38.48 42.73 39.29 43.11 39.28 41.55 36.26 39.77 33.35 34.87 26.01 29.76 18.8 30.41 19.14 31.06 19.49 31.7 19.83 32.33 20.16 32.96 20.49 33.58 20.82 34.19 21.15 34.8 21.47 35.39 21.78 35.99 22.1 36.57 22.41 37.15 22.71 37.72 23.01 38.29 23.31 38.85 23.61 39.4 23.9" style="fill:none; stroke:#aaa; stroke-miterlimit:10; stroke-width:.5px;"/><polyline points="48.93 .19 42.39 2.38 36.63 6.15 33.42 10.15 31.57 14.92 31.04 19.75 31.46 24.6 32.51 28.99 34.04 33.24 35.41 36.16 37.02 38.93 37.63 39.75 38.11 39.73 36.69 36.68 35.02 33.74 30.37 26.3 25.49 19.01 26.15 19.38 26.81 19.74 27.46 20.1 28.1 20.45 28.74 20.8 29.37 21.15 29.99 21.49 30.6 21.83 31.21 22.16 31.81 22.49 32.4 22.82 32.99 23.14 33.56 23.46 34.14 23.77 34.7 24.08 35.26 24.39" style="fill:none; stroke:#aaa; stroke-miterlimit:10; stroke-width:.5px;"/><polyline points="43.13 .19 36.78 2.4 31.25 6.17 28.16 10.21 26.41 14.98 25.94 19.84 26.4 24.7 27.45 29.11 29 33.37 30.36 36.3 31.99 39.08 32.63 39.92 33.17 39.89 31.89 36.82 30.32 33.87 25.89 26.41 21.22 19.08 21.89 19.47 22.55 19.84 23.21 20.22 23.85 20.58 24.49 20.95 25.12 21.31 25.75 21.66 26.37 22.02 26.98 22.36 27.58 22.7 28.17 23.04 28.76 23.38 29.34 23.71 29.92 24.03 30.48 24.35 31.04 24.67" style="fill:none; stroke:#aaa; stroke-miterlimit:10; stroke-width:.5px;"/><polyline points="37.45 .19 31.3 2.41 25.98 6.17 23 10.22 21.35 14.98 20.93 19.83 21.41 24.69 22.48 29.1 24.02 33.36 25.39 36.29 27.03 39.07 27.69 39.92 28.28 39.88 27.12 36.81 25.64 33.86 21.43 26.39 16.95 19.07 17.62 19.47 18.29 19.86 18.94 20.24 19.59 20.62 20.23 21 20.87 21.37 21.49 21.74 22.11 22.1 22.72 22.45 23.32 22.81 23.92 23.15 24.51 23.5 25.09 23.84 25.66 24.17 26.23 24.5 26.79 24.82" style="fill:none; stroke:#aaa; stroke-miterlimit:10; stroke-width:.5px;"/><polyline points="31.81 .19 25.86 2.41 20.76 6.15 17.89 10.22 16.33 14.94 15.96 19.79 16.47 24.63 17.54 29.03 19.08 33.28 20.45 36.2 22.09 38.97 22.77 39.83 23.41 39.78 22.36 36.72 20.97 33.77 16.96 26.33 12.68 19.03 13.35 19.43 14.02 19.83 14.67 20.23 15.32 20.62 15.96 21 16.59 21.38 17.22 21.76 17.84 22.13 18.44 22.5 19.05 22.86 19.64 23.21 20.23 23.57 20.81 23.91 21.38 24.25 21.94 24.59 22.5 24.92" style="fill:none; stroke:#aaa; stroke-miterlimit:10; stroke-width:.5px;"/><polyline points="26.2 .18 20.44 2.41 15.55 6.13 12.8 10.21 11.33 14.9 11.01 19.73 11.53 24.55 12.61 28.94 14.15 33.18 15.51 36.1 17.15 38.85 17.85 39.71 18.54 39.66 17.6 36.61 16.3 33.67 12.5 26.25 8.41 18.97 9.08 19.38 9.74 19.79 10.4 20.2 11.04 20.6 11.68 20.99 12.31 21.38 12.94 21.77 13.55 22.15 14.16 22.52 14.76 22.89 15.35 23.26 15.93 23.62 16.51 23.97 17.08 24.32 17.64 24.66 18.19 25" style="fill:none; stroke:#aaa; stroke-miterlimit:10; stroke-width:.5px;"/><polyline points="20.58 .18 15.02 2.41 10.34 6.11 7.7 10.19 6.33 14.85 6.05 19.67 6.6 24.47 7.68 28.84 9.22 33.07 10.58 35.99 12.22 38.73 12.94 39.6 13.68 39.53 12.85 36.49 11.63 33.56 8.04 26.17 4.14 18.91 4.81 19.33 5.47 19.75 6.12 20.17 6.76 20.58 7.4 20.98 8.03 21.38 8.65 21.77 9.26 22.16 9.86 22.54 10.46 22.92 11.04 23.29 11.62 23.66 12.2 24.02 12.76 24.38 13.32 24.73 13.87 25.07" style="fill:none; stroke:#aaa; stroke-miterlimit:10; stroke-width:.5px;"/><polyline points="14.99 .18 9.63 2.41 5.15 6.09 2.63 10.17 1.35 14.79 1.12 19.6 1.69 24.38 2.77 28.73 4.3 32.95 5.66 35.85 7.3 38.58 8.04 39.46 8.82 39.38 8.1 36.35 6.97 33.43 3.58 26.06 -.13 18.83 .54 19.27 1.19 19.7 1.84 20.12 2.48 20.54 3.11 20.95 3.74 21.36 4.35 21.76 4.96 22.16 5.56 22.55 6.15 22.93 6.73 23.31 7.31 23.69 7.87 24.06 8.44 24.42 8.99 24.78 9.53 25.13" style="fill:none; stroke:#aaa; stroke-miterlimit:10; stroke-width:.5px;"/><polyline points="9.46 .18 4.3 2.41 .03 6.05 -2.38 10.12 -3.58 14.7 -3.77 19.48 -3.18 24.23 -2.1 28.56 -.58 32.75 .77 35.64 2.42 38.35 3.17 39.23 3.99 39.14 3.37 36.14 2.32 33.23 -.88 25.91 -4.4 18.72 -3.74 19.16 -3.09 19.6 -2.44 20.03 -1.81 20.46 -1.19 20.88 -.57 21.29 .04 21.7 .64 22.1 1.23 22.5 1.82 22.89 2.4 23.28 2.97 23.66 3.53 24.03 4.08 24.4 4.63 24.76 5.17 25.12" style="fill:none; stroke:#aaa; stroke-miterlimit:10; stroke-width:.5px;"/><polyline points="4.07 .17 -.9 2.39 -4.98 5.99 -7.28 10.03 -8.4 14.55 -8.55 19.28 -7.95 23.97 -6.87 28.25 -5.37 32.4 -4.03 35.25 -2.41 37.94 -1.64 38.81 -.8 38.72 -1.33 35.75 -2.31 32.87 -5.32 25.63 -8.66 18.52 -8.01 18.97 -7.37 19.41 -6.74 19.85 -6.11 20.28 -5.5 20.7 -4.89 21.12 -4.28 21.53 -3.69 21.94 -3.11 22.34 -2.53 22.73 -1.96 23.12 -1.4 23.51 -.84 23.88 -.3 24.25 .24 24.62 .77 24.98" style="fill:none; stroke:#aaa; stroke-miterlimit:10; stroke-width:.5px;"/></svg>