<?xml version="1.0" encoding="UTF-8"?><svg id="Ebene_1" xmlns="http://www.w3.org/2000/svg" viewBox="0 0 222 222"><polyline points="88.12 0 100.53 3.51 112.75 7.6 119.59 10.37 126.16 13.68 129.38 15.75 132.3 18.2 133.71 19.69 135.11 21.16 136.69 22.12 138.52 22.53 142.51 22.59 146.49 22.3 154.73 21.42 162.97 20.44 177.42 18.68 191.88 16.95 191.02 17.15 190.18 17.35 189.35 17.55 188.54 17.74 187.74 17.94 186.95 18.12 186.18 18.31 185.42 18.49 184.67 18.66 183.93 18.84 183.21 19.01 182.5 19.17 181.8 19.34 181.12 19.5 180.44 19.66 179.78 19.81" style="fill:none; stroke:#aaa; stroke-miterlimit:10; stroke-width:.5px;"/><polyline points="82.33 0 94.49 3.99 106.43 8.61 113.19 11.75 119.64 15.46 122.89 17.83 125.83 20.55 127.32 22.23 128.85 23.85 130.56 24.9 132.54 25.34 136.65 25.35 140.75 24.99 149.05 23.95 157.34 22.79 171.75 20.74 186.17 18.72 185.35 18.95 184.54 19.17 183.74 19.39 182.96 19.61 182.19 19.83 181.44 20.04 180.69 20.24 179.96 20.44 179.24 20.64 178.54 20.84 177.84 21.03 177.16 21.22 176.49 21.4 175.83 21.58 175.18 21.76 174.55 21.93" style="fill:none; stroke:#aaa; stroke-miterlimit:10; stroke-width:.5px;"/><polyline points="76.54 0 88.46 4.49 100.11 9.64 106.79 13.18 113.13 17.3 116.41 19.96 119.37 22.96 120.95 24.82 122.59 26.6 124.43 27.73 126.55 28.2 130.79 28.17 135.01 27.73 143.37 26.51 151.72 25.17 166.09 22.82 180.46 20.5 179.67 20.75 178.89 21 178.12 21.24 177.37 21.48 176.63 21.71 175.9 21.94 175.19 22.17 174.49 22.39 173.79 22.61 173.12 22.83 172.45 23.04 171.79 23.24 171.15 23.45 170.52 23.65 169.9 23.84 169.29 24.03" style="fill:none; stroke:#aaa; stroke-miterlimit:10; stroke-width:.5px;"/><polyline points="70.96 0 82.65 4.93 94.01 10.56 100.61 14.46 106.84 18.94 110.13 21.87 113.11 25.11 114.76 27.14 116.51 29.06 118.45 30.26 120.7 30.75 125.04 30.68 129.35 30.17 137.76 28.79 146.15 27.28 160.44 24.65 174.75 22.06 173.98 22.33 173.23 22.59 172.48 22.85 171.75 23.11 171.04 23.36 170.33 23.61 169.64 23.85 168.96 24.09 168.29 24.33 167.63 24.56 166.98 24.78 166.35 25.01 165.73 25.22 165.11 25.44 164.51 25.65 163.92 25.85" style="fill:none; stroke:#aaa; stroke-miterlimit:10; stroke-width:.5px;"/><polyline points="65.74 0 77.2 5.28 88.3 11.25 94.82 15.43 100.93 20.17 104.22 23.31 107.21 26.74 108.9 28.89 110.73 30.91 112.75 32.17 115.08 32.67 119.49 32.57 123.86 32 132.27 30.5 140.65 28.85 154.84 26.01 169.04 23.21 168.28 23.49 167.54 23.78 166.81 24.05 166.09 24.33 165.39 24.59 164.69 24.86 164.01 25.12 163.34 25.37 162.68 25.62 162.04 25.86 161.4 26.1 160.78 26.34 160.17 26.57 159.57 26.8 158.98 27.02 158.41 27.24" style="fill:none; stroke:#aaa; stroke-miterlimit:10; stroke-width:.5px;"/><polyline points="60.99 0 72.23 5.47 83.09 11.65 89.51 15.98 95.51 20.87 98.78 24.12 101.75 27.65 103.47 29.87 105.33 31.95 107.39 33.23 109.77 33.75 114.18 33.62 118.57 33.01 126.92 31.44 135.25 29.71 149.28 26.75 163.33 23.82 162.57 24.12 161.82 24.42 161.09 24.71 160.37 25 159.67 25.28 158.98 25.56 158.29 25.83 157.63 26.1 156.97 26.36 156.33 26.62 155.7 26.87 155.08 27.11 154.47 27.36 153.87 27.59 153.29 27.82 152.72 28.05" style="fill:none; stroke:#aaa; stroke-miterlimit:10; stroke-width:.5px;"/><polyline points="56.72 0 67.76 5.5 78.41 11.71 84.72 16.07 90.61 20.98 93.84 24.25 96.77 27.78 98.48 30.01 100.34 32.1 102.39 33.37 104.77 33.89 109.14 33.76 113.49 33.13 121.74 31.54 129.96 29.8 143.78 26.81 157.61 23.86 156.84 24.18 156.08 24.49 155.34 24.79 154.61 25.09 153.89 25.38 153.19 25.67 152.5 25.95 151.82 26.23 151.16 26.5 150.51 26.76 149.87 27.02 149.24 27.28 148.63 27.53 148.03 27.77 147.44 28.01 146.87 28.24" style="fill:none; stroke:#aaa; stroke-miterlimit:10; stroke-width:.5px;"/><polyline points="52.9 0 63.74 5.39 74.21 11.46 80.4 15.73 86.19 20.53 89.36 23.73 92.23 27.19 93.91 29.38 95.73 31.42 97.73 32.67 100.06 33.18 104.35 33.05 108.6 32.44 116.69 30.89 124.76 29.18 138.32 26.26 151.9 23.37 151.11 23.69 150.32 24.01 149.56 24.33 148.8 24.63 148.06 24.93 147.34 25.23 146.63 25.52 145.94 25.8 145.26 26.08 144.59 26.35 143.94 26.61 143.3 26.87 142.68 27.13 142.06 27.37 141.47 27.62 140.88 27.85" style="fill:none; stroke:#aaa; stroke-miterlimit:10; stroke-width:.5px;"/><polyline points="49.43 0 60.09 5.15 70.39 10.96 76.46 15.04 82.14 19.65 85.24 22.71 88.04 26.03 89.66 28.13 91.41 30.08 93.34 31.29 95.58 31.78 99.74 31.67 103.88 31.09 111.77 29.62 119.64 28 132.91 25.21 146.19 22.46 145.37 22.79 144.54 23.12 143.75 23.43 142.96 23.75 142.2 24.05 141.44 24.35 140.71 24.64 139.98 24.93 139.28 25.2 138.59 25.48 137.92 25.74 137.25 26.01 136.61 26.26 135.98 26.51 135.37 26.75 134.77 26.99" style="fill:none; stroke:#aaa; stroke-miterlimit:10; stroke-width:.5px;"/><polyline points="46.22 0 56.7 4.82 66.84 10.29 72.79 14.11 78.37 18.45 81.37 21.32 84.1 24.45 85.64 26.42 87.3 28.27 89.14 29.42 91.26 29.89 95.27 29.8 99.26 29.27 106.93 27.9 114.57 26.4 127.52 23.8 140.48 21.24 139.62 21.57 138.75 21.9 137.92 22.22 137.09 22.53 136.3 22.83 135.5 23.14 134.74 23.42 133.98 23.71 133.26 23.99 132.54 24.26 131.85 24.52 131.16 24.78 130.5 25.03 129.84 25.28 129.22 25.51 128.59 25.75" style="fill:none; stroke:#aaa; stroke-miterlimit:10; stroke-width:.5px;"/><polyline points="43.18 0 53.47 4.44 63.47 9.5 69.3 13.02 74.77 17.05 77.68 19.69 80.32 22.61 81.78 24.43 83.33 26.16 85.06 27.24 87.05 27.68 90.89 27.61 94.71 27.14 102.14 25.9 109.54 24.53 122.15 22.16 134.77 19.82 133.86 20.14 132.95 20.47 132.08 20.78 131.21 21.1 130.38 21.39 129.55 21.69 128.76 21.98 127.97 22.26 127.22 22.53 126.46 22.8 125.75 23.05 125.03 23.31 124.35 23.55 123.67 23.79 123.03 24.02 122.39 24.24" style="fill:none; stroke:#aaa; stroke-miterlimit:10; stroke-width:.5px;"/><polyline points="40.2 0 50.32 4.05 60.17 8.68 65.87 11.88 71.25 15.57 74.06 17.98 76.6 20.66 77.97 22.34 79.42 23.93 81.03 24.93 82.89 25.35 86.55 25.31 90.2 24.9 97.37 23.79 104.52 22.56 116.79 20.42 129.06 18.31 128.1 18.63 127.14 18.95 126.23 19.26 125.32 19.57 124.45 19.86 123.58 20.15 122.76 20.43 121.93 20.7 121.15 20.96 120.37 21.22 119.62 21.47 118.88 21.72 118.18 21.95 117.48 22.18 116.82 22.4 116.15 22.61" style="fill:none; stroke:#aaa; stroke-miterlimit:10; stroke-width:.5px;"/><polyline points="37.17 0 47.11 3.67 56.82 7.88 62.39 10.78 67.67 14.15 70.38 16.33 72.83 18.8 74.12 20.32 75.46 21.79 76.96 22.72 78.69 23.11 82.18 23.09 85.66 22.74 92.58 21.75 99.5 20.66 111.42 18.74 123.35 16.85 122.35 17.16 121.34 17.48 120.39 17.78 119.43 18.08 118.53 18.36 117.62 18.64 116.76 18.91 115.91 19.17 115.09 19.43 114.28 19.68 113.52 19.91 112.75 20.15 112.03 20.37 111.3 20.59 110.62 20.8 109.94 21" style="fill:none; stroke:#aaa; stroke-miterlimit:10; stroke-width:.5px;"/><polyline points="33.99 0 43.75 3.34 53.31 7.19 58.74 9.83 63.92 12.92 66.54 14.9 68.92 17.17 70.13 18.57 71.38 19.92 72.78 20.79 74.39 21.15 77.73 21.16 81.05 20.85 87.75 19.97 94.44 18.99 106.04 17.26 117.64 15.56 116.6 15.86 115.55 16.17 114.56 16.46 113.57 16.74 112.64 17.01 111.7 17.29 110.81 17.54 109.93 17.8 109.09 18.04 108.26 18.27 107.47 18.5 106.69 18.72 105.95 18.93 105.21 19.14 104.52 19.33 103.82 19.53" style="fill:none; stroke:#aaa; stroke-miterlimit:10; stroke-width:.5px;"/><polyline points="30.56 0 40.13 3.09 49.53 6.66 54.84 9.1 59.91 11.98 62.46 13.81 64.76 15.92 65.91 17.22 67.09 18.49 68.41 19.31 69.94 19.65 73.14 19.67 76.34 19.39 82.84 18.59 89.33 17.7 100.62 16.11 111.93 14.55 110.85 14.85 109.78 15.14 108.76 15.42 107.74 15.7 106.78 15.96 105.82 16.22 104.92 16.47 104.01 16.71 103.16 16.94 102.31 17.17 101.51 17.38 100.71 17.6 99.96 17.79 99.21 17.99 98.51 18.17 97.81 18.36" style="fill:none; stroke:#aaa; stroke-miterlimit:10; stroke-width:.5px;"/><polyline points="26.79 0 36.16 2.94 45.38 6.35 50.57 8.67 55.54 11.42 58.02 13.17 60.27 15.19 61.38 16.43 62.51 17.64 63.79 18.43 65.26 18.76 68.37 18.78 71.48 18.52 77.81 17.77 84.14 16.92 95.18 15.41 106.22 13.93 105.12 14.22 104.02 14.52 102.99 14.79 101.95 15.07 100.97 15.33 100 15.58 99.08 15.83 98.16 16.07 97.3 16.29 96.44 16.52 95.63 16.72 94.83 16.93 94.08 17.13 93.32 17.32 92.62 17.49 91.92 17.67" style="fill:none; stroke:#aaa; stroke-miterlimit:10; stroke-width:.5px;"/><polyline points="22.58 0 31.75 2.93 40.76 6.32 45.84 8.64 50.71 11.37 53.14 13.11 55.35 15.12 56.45 16.35 57.57 17.55 58.84 18.33 60.3 18.66 63.36 18.67 66.42 18.41 72.64 17.65 78.86 16.81 89.68 15.3 100.51 13.82 99.4 14.12 98.3 14.42 97.26 14.7 96.22 14.98 95.24 15.25 94.27 15.51 93.35 15.76 92.43 16 91.57 16.23 90.71 16.46 89.91 16.67 89.11 16.88 88.36 17.07 87.62 17.27 86.92 17.45 86.23 17.62" style="fill:none; stroke:#aaa; stroke-miterlimit:10; stroke-width:.5px;"/><polyline points="17.88 0 26.83 3.07 35.61 6.61 40.6 9.04 45.35 11.88 47.76 13.71 49.95 15.79 51.07 17.08 52.23 18.32 53.52 19.11 55.02 19.45 58.09 19.45 61.16 19.16 67.32 18.35 73.47 17.44 84.13 15.85 94.8 14.28 93.7 14.6 92.61 14.92 91.58 15.22 90.55 15.52 89.59 15.8 88.62 16.08 87.72 16.34 86.81 16.6 85.97 16.84 85.12 17.08 84.34 17.31 83.55 17.53 82.82 17.74 82.09 17.94 81.41 18.13 80.74 18.31" style="fill:none; stroke:#aaa; stroke-miterlimit:10; stroke-width:.5px;"/><polyline points="12.71 0 21.44 3.36 29.95 7.22 34.85 9.88 39.5 12.96 41.91 14.97 44.09 17.2 45.26 18.6 46.49 19.93 47.85 20.77 49.43 21.12 52.56 21.09 55.68 20.76 61.84 19.84 67.98 18.82 78.53 17.04 89.09 15.29 88.02 15.64 86.95 15.98 85.94 16.31 84.94 16.64 83.99 16.94 83.05 17.25 82.17 17.53 81.3 17.81 80.48 18.08 79.66 18.34 78.9 18.58 78.13 18.82 77.43 19.05 76.72 19.27 76.07 19.47 75.42 19.67" style="fill:none; stroke:#aaa; stroke-miterlimit:10; stroke-width:.5px;"/><polyline points="7.17 0 15.66 3.79 23.9 8.09 28.72 11.1 33.24 14.52 35.67 16.78 37.87 19.25 39.11 20.8 40.43 22.26 41.91 23.17 43.61 23.54 46.84 23.47 50.05 23.06 56.24 21.99 62.41 20.8 72.89 18.76 83.37 16.75 82.34 17.13 81.3 17.52 80.32 17.88 79.35 18.24 78.44 18.57 77.53 18.91 76.69 19.22 75.84 19.53 75.05 19.82 74.26 20.11 73.53 20.38 72.8 20.64 72.13 20.89 71.45 21.13 70.83 21.35 70.21 21.57" style="fill:none; stroke:#aaa; stroke-miterlimit:10; stroke-width:.5px;"/><polyline points="1.41 0 9.66 4.31 17.61 9.14 22.34 12.56 26.76 16.38 29.21 18.95 31.43 21.7 32.75 23.44 34.2 25.05 35.8 26.04 37.64 26.44 40.99 26.32 44.32 25.82 50.57 24.56 56.8 23.17 67.23 20.81 77.67 18.48 76.66 18.91 75.66 19.34 74.72 19.74 73.78 20.14 72.9 20.51 72.02 20.89 71.21 21.23 70.4 21.58 69.64 21.9 68.89 22.22 68.19 22.52 67.5 22.81 66.85 23.08 66.21 23.35 65.63 23.6 65.04 23.84" style="fill:none; stroke:#aaa; stroke-miterlimit:10; stroke-width:.5px;"/><polyline points="-4.38 0 3.63 4.86 11.29 10.24 15.94 14.1 20.24 18.34 22.71 21.22 24.97 24.26 26.37 26.19 27.95 27.97 29.67 29.04 31.65 29.46 35.13 29.29 38.57 28.69 44.89 27.23 51.18 25.63 61.56 22.93 71.95 20.26 70.98 20.74 70 21.22 69.09 21.67 68.17 22.11 67.33 22.53 66.48 22.95 65.7 23.33 64.91 23.72 64.19 24.07 63.47 24.43 62.8 24.75 62.14 25.08 61.53 25.38 60.92 25.67 60.37 25.94 59.82 26.21" style="fill:none; stroke:#aaa; stroke-miterlimit:10; stroke-width:.5px;"/><polyline points="-10 0 -2.23 5.36 5.14 11.25 9.7 15.51 13.9 20.13 16.37 23.31 18.67 26.6 20.14 28.72 21.83 30.65 23.66 31.79 25.78 32.22 29.36 32 32.9 31.31 39.27 29.67 45.59 27.87 55.91 24.86 66.24 21.87 65.28 22.4 64.31 22.94 63.42 23.43 62.53 23.93 61.7 24.39 60.87 24.85 60.11 25.27 59.35 25.7 58.65 26.09 57.95 26.48 57.32 26.84 56.68 27.2 56.1 27.52 55.52 27.84 55 28.14 54.48 28.43" style="fill:none; stroke:#aaa; stroke-miterlimit:10; stroke-width:.5px;"/><polyline points="-15.29 0 -7.76 5.77 -.65 12.04 3.82 16.62 7.91 21.53 10.38 24.94 12.69 28.44 14.21 30.7 15.98 32.74 17.9 33.94 20.11 34.39 23.77 34.12 27.37 33.35 33.75 31.57 40.08 29.6 50.3 26.35 60.53 23.1 59.57 23.69 58.61 24.27 57.72 24.82 56.84 25.36 56.02 25.86 55.21 26.37 54.46 26.83 53.72 27.29 53.04 27.71 52.36 28.14 51.75 28.52 51.13 28.9 50.58 29.25 50.03 29.6 49.54 29.91 49.05 30.22" style="fill:none; stroke:#aaa; stroke-miterlimit:10; stroke-width:.5px;"/><polyline points="-20.14 0 -12.82 6.02 -5.95 12.52 -1.59 17.3 2.4 22.39 4.84 25.94 7.15 29.56 8.7 31.9 10.52 34.01 12.47 35.24 14.74 35.7 18.43 35.41 22.04 34.59 28.38 32.71 34.66 30.64 44.74 27.23 54.82 23.82 53.86 24.45 52.9 25.08 52.02 25.66 51.13 26.24 50.33 26.78 49.52 27.32 48.79 27.81 48.05 28.3 47.39 28.74 46.73 29.19 46.13 29.59 45.54 30 45.01 30.36 44.48 30.72 44.01 31.04 43.55 31.36" style="fill:none; stroke:#aaa; stroke-miterlimit:10; stroke-width:.5px;"/><polyline points="-24.49 0 -17.39 6.09 -10.73 12.66 -6.48 17.5 -2.59 22.63 -.19 26.23 2.08 29.88 3.63 32.24 5.45 34.37 7.41 35.6 9.68 36.06 13.34 35.75 16.93 34.92 23.17 33 29.35 30.9 39.23 27.43 49.11 23.97 48.13 24.64 47.16 25.3 46.26 25.92 45.37 26.53 44.56 27.09 43.75 27.66 43.02 28.17 42.29 28.68 41.63 29.14 40.98 29.61 40.4 30.02 39.82 30.44 39.31 30.81 38.8 31.17 38.35 31.5 37.91 31.82" style="fill:none; stroke:#aaa; stroke-miterlimit:10; stroke-width:.5px;"/><polyline points="-28.39 0 -21.49 6.01 -15.02 12.47 -10.89 17.24 -7.1 22.29 -4.76 25.83 -2.54 29.43 -1.02 31.75 .77 33.85 2.69 35.06 4.92 35.51 8.5 35.2 12.01 34.38 18.1 32.49 24.13 30.41 33.76 26.99 43.4 23.58 42.4 24.26 41.41 24.95 40.5 25.59 39.6 26.22 38.78 26.79 37.97 27.37 37.23 27.89 36.5 28.41 35.85 28.88 35.21 29.35 34.63 29.76 34.06 30.18 33.56 30.54 33.07 30.91 32.64 31.23 32.22 31.54" style="fill:none; stroke:#aaa; stroke-miterlimit:10; stroke-width:.5px;"/><polyline points="-31.92 0 -25.21 5.78 -18.91 12.01 -14.89 16.61 -11.21 21.47 -8.94 24.88 -6.79 28.35 -5.33 30.59 -3.6 32.61 -1.75 33.78 .4 34.22 3.86 33.92 7.25 33.13 13.15 31.31 19 29.32 28.34 26.02 37.69 22.74 36.67 23.43 35.65 24.13 34.73 24.77 33.82 25.4 32.99 25.98 32.17 26.56 31.43 27.07 30.7 27.59 30.05 28.05 29.41 28.52 28.84 28.92 28.28 29.33 27.79 29.68 27.3 30.04 26.89 30.34 26.48 30.64" style="fill:none; stroke:#aaa; stroke-miterlimit:10; stroke-width:.5px;"/><polyline points="-35.18 0 -28.64 5.46 -22.5 11.35 -18.6 15.69 -15.03 20.3 -12.84 23.52 -10.78 26.81 -9.38 28.92 -7.75 30.84 -5.99 31.95 -3.95 32.37 -.63 32.1 2.61 31.35 8.3 29.65 13.93 27.77 22.95 24.67 31.98 21.57 30.94 22.26 29.9 22.95 28.97 23.58 28.04 24.21 27.2 24.77 26.37 25.34 25.63 25.84 24.89 26.35 24.25 26.79 23.6 27.24 23.04 27.63 22.48 28.02 22 28.36 21.52 28.69 21.12 28.98 20.72 29.26" style="fill:none; stroke:#aaa; stroke-miterlimit:10; stroke-width:.5px;"/><polyline points="-38.24 0 -31.88 5.07 -25.89 10.56 -22.12 14.59 -18.65 18.88 -16.55 21.88 -14.58 24.94 -13.27 26.92 -11.73 28.71 -10.09 29.75 -8.17 30.14 -5.03 29.9 -1.94 29.22 3.5 27.64 8.89 25.91 17.58 23.04 26.27 20.18 25.21 20.85 24.16 21.52 23.21 22.13 22.26 22.74 21.42 23.28 20.57 23.83 19.83 24.31 19.09 24.79 18.44 25.22 17.79 25.65 17.23 26.01 16.67 26.38 16.2 26.7 15.72 27.01 15.33 27.27 14.94 27.53" style="fill:none; stroke:#aaa; stroke-miterlimit:10; stroke-width:.5px;"/><polyline points="-41.23 0 -35.04 4.64 -29.2 9.7 -25.54 13.39 -22.19 17.35 -20.18 20.1 -18.3 22.93 -17.08 24.75 -15.65 26.4 -14.12 27.37 -12.34 27.74 -9.38 27.53 -6.46 26.92 -1.28 25.48 3.87 23.91 12.21 21.29 20.56 18.68 19.48 19.32 18.4 19.97 17.44 20.55 16.48 21.14 15.62 21.66 14.77 22.18 14.02 22.64 13.27 23.09 12.61 23.5 11.96 23.9 11.41 24.24 10.85 24.58 10.38 24.87 9.91 25.16 9.52 25.4 9.13 25.63" style="fill:none; stroke:#aaa; stroke-miterlimit:10; stroke-width:.5px;"/><polyline points="-44.24 0 -38.23 4.23 -32.53 8.86 -29 12.22 -25.75 15.85 -23.83 18.36 -22.05 20.95 -20.91 22.62 -19.6 24.14 -18.17 25.04 -16.52 25.38 -13.74 25.21 -10.99 24.66 -6.06 23.36 -1.15 21.94 6.84 19.56 14.85 17.2 13.75 17.82 12.66 18.43 11.68 18.99 10.71 19.54 9.85 20.03 8.99 20.52 8.23 20.95 7.48 21.39 6.83 21.76 6.17 22.13 5.62 22.45 5.06 22.77 4.6 23.03 4.13 23.3 3.75 23.51 3.37 23.72" style="fill:none; stroke:#aaa; stroke-miterlimit:10; stroke-width:.5px;"/><polyline points="-47.39 0 -41.55 3.86 -36 8.11 -32.59 11.18 -29.45 14.51 -27.62 16.81 -25.93 19.19 -24.86 20.72 -23.65 22.12 -22.33 22.96 -20.8 23.28 -18.18 23.13 -15.58 22.64 -10.88 21.46 -6.2 20.17 1.46 18.01 9.14 15.87 8.03 16.46 6.92 17.05 5.94 17.57 4.95 18.1 4.09 18.57 3.22 19.03 2.46 19.44 1.71 19.85 1.06 20.2 .41 20.54 -.14 20.84 -.7 21.13 -1.15 21.37 -1.61 21.61 -1.99 21.81 -2.36 21.99" style="fill:none; stroke:#aaa; stroke-miterlimit:10; stroke-width:.5px;"/><polyline points="-50.76 0 -45.11 3.57 -39.72 7.52 -36.43 10.35 -33.4 13.46 -31.65 15.58 -30.04 17.8 -29.03 19.22 -27.89 20.53 -26.65 21.31 -25.22 21.61 -22.73 21.48 -20.27 21.03 -15.78 19.95 -11.3 18.77 -3.94 16.77 3.43 14.79 2.31 15.37 1.19 15.94 .2 16.45 -.79 16.95 -1.66 17.4 -2.53 17.85 -3.28 18.23 -4.03 18.62 -4.68 18.95 -5.32 19.28 -5.87 19.55 -6.41 19.83 -6.85 20.05 -7.3 20.27 -7.66 20.44 -8.02 20.61" style="fill:none; stroke:#aaa; stroke-miterlimit:10; stroke-width:.5px;"/></svg>