<?xml version="1.0" encoding="UTF-8"?>
<svg id="Ebene_1" xmlns="http://www.w3.org/2000/svg" width="222" height="222" viewBox="0 0 222 222">
  <polyline points="41.18 26.23 42.88 31.29 46.7 34.89 50.08 35.39 53.45 34.71 54.85 34.19 55.86 34.07 52.13 37.72 48.39 41.37 51.23 34.9 53.88 28.36 54.3 26.44 53.37 24.83 50.86 23.47 48.58 21.74 44.35 16.3 41.26 10.1 38.41 15.97 34.56 21.21 32.33 23.09 29.78 24.52 28.53 25.41 28.31 26.91 29.75 31.16 31.55 35.29" fill="none" stroke="#aaa" stroke-miterlimit="10" stroke-width=".5"/>
  <polyline points="41.15 31.09 42.92 35.92 46.77 39.2 50.22 39.63 53.65 38.93 55.06 38.41 56.1 38.19 52.26 41.54 48.44 44.92 51.37 38.7 54.11 32.41 54.54 30.5 53.6 28.92 51.05 27.58 48.71 25.89 44.41 20.71 41.24 14.75 38.32 20.38 34.43 25.35 32.13 27.19 29.55 28.59 28.28 29.46 28.02 30.94 29.46 34.98 31.28 38.89" fill="none" stroke="#aaa" stroke-miterlimit="10" stroke-width=".5"/>
  <polyline points="41.09 36.28 43.03 40.88 47.01 43.79 50.67 44.11 54.27 43.34 55.75 42.8 56.86 42.42 52.77 45.4 48.74 48.48 51.92 42.45 54.89 36.33 55.37 34.4 54.37 32.81 51.66 31.44 49.14 29.76 44.6 24.84 41.17 19.07 38.04 24.49 33.95 29.2 31.47 31.03 28.73 32.44 27.4 33.3 27.05 34.8 28.53 38.64 30.42 42.32" fill="none" stroke="#aaa" stroke-miterlimit="10" stroke-width=".5"/>
  <polyline points="41.27 41.67 43.46 46.05 47.63 48.54 51.56 48.73 55.43 47.89 57.01 47.31 58.2 46.72 53.78 49.28 49.48 52.03 53.03 46.17 56.33 40.18 56.87 38.19 55.78 36.57 52.84 35.15 50.05 33.47 45.16 28.8 41.35 23.18 37.9 28.41 33.53 32.87 30.79 34.7 27.82 36.14 26.38 37 25.9 38.55 27.44 42.21 29.44 45.66" fill="none" stroke="#aaa" stroke-miterlimit="10" stroke-width=".5"/>
  <polyline points="41.29 47.15 43.79 51.28 48.14 53.35 52.4 53.42 56.56 52.49 58.29 51.84 59.55 51.06 54.77 53.17 50.13 55.58 54.11 49.89 57.79 44.01 58.4 41.94 57.19 40.28 53.98 38.8 50.88 37.11 45.61 32.67 41.37 27.22 37.57 32.26 32.89 36.48 29.83 38.32 26.61 39.79 25.04 40.66 24.41 42.26 25.99 45.78 28.13 49.04" fill="none" stroke="#aaa" stroke-miterlimit="10" stroke-width=".5"/>
  <polyline points="41.17 52.57 43.99 56.44 48.48 58.13 53.04 58.07 57.48 57.05 59.35 56.35 60.67 55.37 55.56 57.04 50.6 59.14 54.99 53.62 59.03 47.85 59.69 45.71 58.37 44.02 54.89 42.49 51.48 40.79 45.87 36.59 41.25 31.3 37.13 36.15 32.17 40.14 28.83 41.98 25.35 43.47 23.65 44.37 22.86 46.02 24.48 49.43 26.74 52.52" fill="none" stroke="#aaa" stroke-miterlimit="10" stroke-width=".5"/>
  <polyline points="40.98 57.81 44.09 61.4 48.69 62.76 53.66 62.58 58.51 61.5 60.83 60.72 62.95 59.62 58.68 60.98 54.51 62.69 58.28 57.4 61.43 51.75 61.47 49.39 59.62 47.88 55.71 46.34 51.89 44.62 46 40.66 41.05 35.56 36.68 40.2 31.53 43.94 27.85 45.78 24.03 47.26 21.96 48.17 20.52 49.82 21.26 53.05 22.96 55.96" fill="none" stroke="#aaa" stroke-miterlimit="10" stroke-width=".5"/>
  <polyline points="41.26 62.83 44.61 66.12 49.25 67.2 54.64 66.92 59.92 65.82 63.05 64.9 66.12 63.8 63.49 64.95 60.68 66.24 63.19 61.17 64.65 55.74 63.56 53.24 61.14 51.87 56.81 50.36 52.56 48.64 46.51 44.92 41.34 40.05 36.83 44.44 31.6 47.93 27.62 49.75 23.51 51.19 20.93 52.15 18.72 53.72 18.12 56.56 18.88 59.43" fill="none" stroke="#aaa" stroke-miterlimit="10" stroke-width=".5"/>
  <polyline points="41.28 67.68 44.79 70.66 49.38 71.51 54.95 71.15 60.42 70.03 63.94 69.05 67.4 67.91 65.66 68.74 63.33 69.8 65.3 64.93 65.99 59.78 64.4 57.31 61.71 55.96 57.19 54.48 52.74 52.78 46.65 49.31 41.36 44.71 36.78 48.83 31.55 52.08 27.44 53.84 23.21 55.25 20.38 56.22 17.85 57.75 16.71 60.29 17 63.11" fill="none" stroke="#aaa" stroke-miterlimit="10" stroke-width=".5"/>
  <polyline points="41.3 72.45 44.92 75.1 49.44 75.75 55.1 75.31 60.67 74.19 64.45 73.17 68.17 71.99 67.11 72.49 65.07 73.35 66.65 68.7 66.82 63.86 64.89 61.43 62.02 60.11 57.39 58.65 52.81 57 46.73 53.77 41.37 49.45 36.76 53.3 31.56 56.31 27.38 58.01 23.09 59.37 20.11 60.35 17.37 61.83 15.91 64.13 15.84 66.89" fill="none" stroke="#aaa" stroke-miterlimit="10" stroke-width=".5"/>
  <polyline points="41.35 77.2 45.06 79.5 49.49 79.97 55.22 79.47 60.86 78.34 64.83 77.3 68.74 76.07 68.27 76.22 66.41 76.91 67.7 72.48 67.47 67.94 65.27 65.58 62.27 64.27 57.55 62.84 52.89 61.24 46.83 58.25 41.41 54.21 36.78 57.79 31.63 60.57 27.39 62.19 23.06 63.52 19.96 64.5 17.07 65.94 15.39 68.03 15.02 70.71" fill="none" stroke="#aaa" stroke-miterlimit="10" stroke-width=".5"/>
  <polyline points="41.34 81.94 45.14 83.89 49.48 84.19 55.26 83.62 60.96 82.49 65.09 81.42 69.16 80.14 69.21 79.94 67.47 80.46 68.51 76.25 67.95 72.02 65.54 69.72 62.42 68.43 57.64 67.02 52.89 65.48 46.87 62.72 41.4 58.98 36.73 62.28 31.62 64.84 27.34 66.39 22.97 67.67 19.77 68.65 16.76 70.06 14.93 72 14.31 74.59" fill="none" stroke="#aaa" stroke-miterlimit="10" stroke-width=".5"/>
  <polyline points="41.26 86.66 45.14 88.25 49.39 88.39 55.2 87.76 60.94 86.62 65.2 85.53 69.38 84.21 69.92 83.68 68.22 84.01 69.06 80.03 68.24 76.11 65.66 73.88 62.45 72.6 57.62 71.22 52.81 69.74 46.83 67.2 41.32 63.77 36.62 66.8 31.54 69.13 27.22 70.6 22.82 71.85 19.55 72.83 16.45 74.22 14.51 76.03 13.7 78.55" fill="none" stroke="#aaa" stroke-miterlimit="10" stroke-width=".5"/>
  <polyline points="41.24 91.3 45.15 92.53 49.31 92.53 55.1 91.84 60.82 90.71 65.16 89.62 69.4 88.25 70.37 87.45 68.67 87.57 69.34 83.83 68.34 80.23 65.63 78.08 62.37 76.82 57.54 75.47 52.71 74.05 46.81 71.74 41.29 68.63 36.58 71.38 31.55 73.5 27.21 74.89 22.81 76.09 19.5 77.07 16.34 78.44 14.36 80.16 13.42 82.6" fill="none" stroke="#aaa" stroke-miterlimit="10" stroke-width=".5"/>
  <polyline points="41.25 95.79 45.12 96.66 49.13 96.54 54.82 95.81 60.44 94.7 64.76 93.62 68.99 92.24 70.26 91.31 68.6 91.12 69.13 87.66 67.98 84.4 65.2 82.36 61.93 81.14 57.16 79.84 52.39 78.5 46.69 76.43 41.29 73.65 36.67 76.12 31.78 78.02 27.47 79.31 23.13 80.46 19.82 81.43 16.66 82.77 14.67 84.41 13.66 86.76" fill="none" stroke="#aaa" stroke-miterlimit="10" stroke-width=".5"/>
  <polyline points="41.29 100.06 45.02 100.59 48.81 100.37 54.23 99.62 59.61 98.56 63.77 97.51 67.84 96.14 69.16 95.19 67.66 94.67 68.12 91.55 66.96 88.65 64.21 86.75 61.04 85.59 56.45 84.36 51.85 83.12 46.47 81.31 41.33 78.89 36.88 81.05 32.23 82.72 28.06 83.9 23.86 84.98 20.64 85.92 17.57 87.22 15.67 88.77 14.71 91" fill="none" stroke="#aaa" stroke-miterlimit="10" stroke-width=".5"/>
  <polyline points="41.33 104.15 44.83 104.36 48.35 104.06 53.41 103.31 58.43 102.3 62.34 101.31 66.14 99.99 67.41 98.98 66.05 98.23 66.5 95.48 65.39 92.97 62.75 91.23 59.76 90.15 55.43 89.01 51.1 87.9 46.14 86.35 41.36 84.31 37.17 86.15 32.83 87.57 28.86 88.63 24.88 89.64 21.83 90.53 18.92 91.78 17.18 93.22 16.36 95.3" fill="none" stroke="#aaa" stroke-miterlimit="10" stroke-width=".5"/>
  <polyline points="41.37 108.18 44.61 108.08 47.85 107.7 52.52 106.95 57.15 106.01 60.78 105.09 64.29 103.81 65.49 102.74 64.27 101.78 64.69 99.42 63.63 97.3 61.12 95.74 58.31 94.75 54.28 93.7 50.24 92.71 45.75 91.44 41.38 89.79 37.48 91.3 33.48 92.48 29.73 93.42 25.98 94.34 23.11 95.19 20.39 96.39 18.83 97.73 18.19 99.65" fill="none" stroke="#aaa" stroke-miterlimit="10" stroke-width=".5"/>
  <polyline points="41.37 112.29 45.16 111.92 48.94 111.4 53.2 110.68 57.41 109.77 60.37 108.93 63.17 107.66 63.88 106.34 62.65 105.34 63 103.34 61.97 101.61 59.55 100.21 56.88 99.3 53.13 98.34 49.35 97.47 45.32 96.45 41.37 95.18 37.7 96.38 33.96 97.35 30.36 98.18 26.77 99.06 24.06 99.89 21.51 101.1 20.18 102.41 19.9 104.22" fill="none" stroke="#aaa" stroke-miterlimit="10" stroke-width=".5"/>
  <polyline points="41.37 116.59 45.38 115.93 49.39 115.27 53.37 114.54 57.31 113.65 59.91 112.85 62.29 111.58 62.7 110.07 61.51 108.89 61.79 107.21 60.74 105.85 58.33 104.58 55.72 103.72 52.15 102.84 48.56 102.06 44.95 101.28 41.37 100.38 37.87 101.27 34.33 102.04 30.76 102.81 27.21 103.69 24.6 104.53 22.17 105.77 21.11 107.09 21.37 108.74" fill="none" stroke="#aaa" stroke-miterlimit="10" stroke-width=".5"/>
  <polyline points="41.42 121.12 45.52 120.14 49.65 119.31 53.48 118.55 57.28 117.67 59.71 116.89 61.87 115.58 62.14 113.86 60.95 112.44 61.12 111.04 60.04 110.01 57.52 108.84 54.86 108.02 51.37 107.18 47.85 106.48 44.63 105.91 41.42 105.37 38.24 105.91 35.06 106.48 31.53 107.18 28.03 108.02 25.38 108.84 22.87 110.01 21.83 111.06 22.11 112.44 21.99 112.55 21.87 112.65 21.76 112.75 21.65 112.85 21.55 112.95 21.45 113.04 21.36 113.14 21.28 113.23" fill="none" stroke="#aaa" stroke-miterlimit="10" stroke-width=".5"/>
  <polyline points="41.48 125.79 45.63 124.49 49.86 123.48 53.6 122.67 57.32 121.77 59.6 121 61.55 119.63 61.54 117.64 60.23 116 60.33 114.86 59.19 114.12 56.38 113.04 53.47 112.22 49.97 111.43 46.44 110.77 43.97 110.4 41.49 110.2 39.03 110.41 36.57 110.77 33.04 111.43 29.53 112.22 26.63 113.04 23.84 114.12 22.72 114.88 22.96 116 22.7 116.24 22.46 116.48 22.25 116.71 22.05 116.94 21.88 117.16 21.72 117.38 21.59 117.58 21.48 117.78" fill="none" stroke="#aaa" stroke-miterlimit="10" stroke-width=".5"/>
  <polyline points="41.49 130.53 45.58 128.9 49.82 127.69 53.5 126.83 57.17 125.92 59.36 125.14 61.13 123.7 60.84 121.43 59.35 119.55 59.87 118.83 58.9 118.2 56.21 117.18 53.43 116.39 49.96 115.6 46.45 115.01 43.95 114.78 41.47 114.97 39.03 114.78 36.56 115.01 33.04 115.6 29.57 116.39 26.8 117.17 24.12 118.2 23.18 118.86 23.84 119.55 23.48 119.91 23.14 120.28 22.85 120.62 22.58 120.96 22.37 121.26 22.17 121.57 22.03 121.85 21.9 122.14" fill="none" stroke="#aaa" stroke-miterlimit="10" stroke-width=".5"/>
  <polyline points="41.48 135.29 45.52 133.33 49.79 131.92 53.4 131 57.01 130.07 59.11 129.29 60.7 127.78 60.12 125.23 58.43 123.11 59.47 122.93 58.69 122.28 56.12 121.3 53.47 120.54 50 119.76 46.48 119.24 43.91 119.15 41.45 119.72 39.03 119.15 36.5 119.24 32.98 119.76 29.51 120.54 26.87 121.3 24.32 122.28 23.65 122.97 24.73 123.11 24.29 123.57 23.86 124.06 23.51 124.48 23.19 124.91 22.93 125.29 22.69 125.68 22.52 126.02 22.38 126.37" fill="none" stroke="#aaa" stroke-miterlimit="10" stroke-width=".5"/>
  <polyline points="41.46 140.04 45.45 137.77 49.74 136.15 53.28 135.17 56.83 134.23 58.84 133.43 60.23 131.86 59.32 129.04 57.43 126.66 58.55 126.82 58.45 126.36 56.01 125.43 53.49 124.69 50.03 123.91 46.5 123.46 43.85 123.52 41.43 124.47 39.04 123.52 36.43 123.46 32.91 123.92 29.45 124.69 26.95 125.42 24.52 126.36 24.53 126.81 25.7 126.66 25.2 127.2 24.71 127.76 24.31 128.25 23.93 128.74 23.63 129.17 23.35 129.61 23.14 129.99 22.96 130.39" fill="none" stroke="#aaa" stroke-miterlimit="10" stroke-width=".5"/>
  <polyline points="41.44 144.83 45.37 142.24 49.71 140.41 53.19 139.37 56.68 138.4 58.61 137.59 59.77 135.95 58.53 132.86 56.39 130.21 57.66 130.55 58.21 130.42 55.91 129.53 53.54 128.83 50.07 128.05 46.54 127.67 43.77 127.88 41.4 129.2 39.07 127.88 36.34 127.67 32.82 128.05 29.35 128.83 26.99 129.53 24.7 130.42 25.36 130.55 26.68 130.21 26.13 130.82 25.59 131.43 25.15 131.96 24.72 132.51 24.38 132.98 24.05 133.46 23.8 133.87 23.57 134.3" fill="none" stroke="#aaa" stroke-miterlimit="10" stroke-width=".5"/>
  <polyline points="41.48 149.71 45.41 146.81 49.84 144.74 53.29 143.63 56.77 142.63 58.63 141.78 59.57 140.08 57.96 136.69 55.55 133.77 57.06 134.28 58.19 134.46 56 133.59 53.75 132.9 50.25 132.12 46.68 131.79 43.78 132.17 41.43 133.82 39.13 132.17 36.27 131.79 32.71 132.12 29.21 132.9 26.97 133.59 24.8 134.46 26.02 134.28 27.59 133.77 27 134.41 26.42 135.07 25.93 135.64 25.46 136.23 25.07 136.73 24.69 137.25 24.4 137.69 24.12 138.15" fill="none" stroke="#aaa" stroke-miterlimit="10" stroke-width=".5"/>
  <polyline points="41.37 154.76 45.37 151.53 49.95 149.21 53.47 148.03 57.01 146.97 58.87 146.07 59.65 144.26 57.68 140.56 54.94 137.32 56.76 138.01 58.38 138.43 56.26 137.56 54.07 136.87 50.47 136.06 46.79 135.78 43.7 136.31 41.32 138.27 39.01 136.31 35.96 135.78 32.28 136.06 28.68 136.87 26.5 137.55 24.4 138.43 26.1 138.01 27.98 137.32 27.34 138.01 26.72 138.71 26.18 139.33 25.66 139.95 25.22 140.5 24.8 141.05 24.45 141.53 24.13 142.02" fill="none" stroke="#aaa" stroke-miterlimit="10" stroke-width=".5"/>
  <polyline points="41.34 160.05 45.52 156.46 50.38 153.87 54.07 152.58 57.79 151.45 59.72 150.47 60.39 148.53 58.07 144.46 54.99 140.87 57.12 141.72 59.16 142.32 57.02 141.41 54.8 140.7 50.99 139.84 47.11 139.57 43.77 140.25 41.29 142.5 38.87 140.24 35.57 139.57 31.69 139.85 27.89 140.7 25.67 141.41 23.55 142.32 25.67 141.72 27.87 140.87 27.17 141.62 26.49 142.38 25.9 143.04 25.33 143.72 24.84 144.31 24.36 144.91 23.97 145.43 23.59 145.96" fill="none" stroke="#aaa" stroke-miterlimit="10" stroke-width=".5"/>
  <polyline points="41.33 165.49 45.79 161.53 51.03 158.66 54.97 157.26 58.96 156.02 61 154.96 61.62 152.85 58.96 148.38 55.52 144.43 57.96 145.42 60.37 146.15 58.14 145.18 55.82 144.43 51.73 143.51 47.55 143.24 43.92 144.03 41.28 146.56 38.69 144.03 35.1 143.24 30.93 143.51 26.85 144.43 24.53 145.18 22.32 146.15 24.8 145.42 27.31 144.43 26.56 145.24 25.81 146.06 25.16 146.78 24.52 147.51 23.98 148.16 23.45 148.81 23.01 149.38 22.59 149.96" fill="none" stroke="#aaa" stroke-miterlimit="10" stroke-width=".5"/>
  <polyline points="41.33 170.97 46.09 166.63 51.72 163.48 55.95 161.95 60.21 160.62 62.39 159.46 62.96 157.19 59.96 152.31 56.14 147.98 58.91 149.11 61.67 149.98 59.34 148.94 56.9 148.14 52.51 147.15 48.03 146.88 44.1 147.79 41.27 150.59 38.51 147.79 34.61 146.88 30.14 147.15 25.75 148.14 23.32 148.94 21.01 149.98 23.85 149.12 26.68 147.98 25.86 148.86 25.04 149.74 24.33 150.53 23.63 151.32 23.04 152.02 22.46 152.72 21.97 153.34 21.5 153.97" fill="none" stroke="#aaa" stroke-miterlimit="10" stroke-width=".5"/>
  <polyline points="41.33 176.34 46.34 171.63 52.3 168.22 56.74 166.58 61.24 165.15 63.5 163.9 63.98 161.48 60.59 156.22 56.37 151.54 59.51 152.83 62.69 153.84 60.32 152.75 57.82 151.92 53.19 150.87 48.45 150.61 44.24 151.65 41.27 154.73 38.36 151.64 34.19 150.61 29.46 150.87 24.83 151.92 22.35 152.74 19.99 153.84 23.24 152.83 26.45 151.54 25.55 152.47 24.67 153.41 23.9 154.25 23.14 155.09 22.49 155.84 21.85 156.59 21.32 157.25 20.79 157.92" fill="none" stroke="#aaa" stroke-miterlimit="10" stroke-width=".5"/>
  <polyline points="41.34 181.49 46.46 176.44 52.63 172.76 57.15 171.04 61.75 169.55 64.01 168.2 64.25 165.7 60.34 160.11 55.66 155.09 59.31 156.6 63.04 157.78 60.78 156.66 58.36 155.83 53.6 154.75 48.74 154.52 44.32 155.73 41.28 159.09 38.31 155.72 33.93 154.52 29.07 154.75 24.32 155.83 21.9 156.65 19.66 157.78 23.46 156.6 27.17 155.09 26.22 156.06 25.27 157.04 24.44 157.91 23.62 158.79 22.91 159.57 22.21 160.36 21.61 161.05 21.03 161.75" fill="none" stroke="#aaa" stroke-miterlimit="10" stroke-width=".5"/>
  <polyline points="41.41 186.28 46.41 180.96 52.56 177.03 56.89 175.27 61.28 173.73 63.22 172.19 62.65 169.8 57.46 163.97 51.75 158.64 56.62 160.49 61.63 161.84 60.14 160.72 58.12 159.96 53.53 158.87 48.82 158.71 44.31 160.15 41.35 163.8 38.46 160.15 33.99 158.71 29.28 158.87 24.69 159.96 22.68 160.72 21.2 161.84 26.27 160.5 31.21 158.64 30.14 159.61 29.08 160.57 28.13 161.44 27.18 162.32 26.35 163.1 25.52 163.89 24.79 164.59 24.08 165.29" fill="none" stroke="#aaa" stroke-miterlimit="10" stroke-width=".5"/>
  <polyline points="41.48 190.67 46.19 185.13 52.14 180.96 56.24 179.18 60.44 177.66 62.26 176.08 61.6 173.74 56.46 167.76 50.82 162.2 55.88 164.35 61.1 166.05 59.77 165.05 57.87 164.34 53.37 163.29 48.76 163.23 44.22 164.97 41.42 168.92 38.69 164.97 34.19 163.23 29.58 163.3 25.09 164.34 23.18 165.05 21.87 166.05 27.15 164.35 32.28 162.2 31.28 163.15 30.29 164.11 29.39 164.97 28.51 165.84 27.71 166.62 26.93 167.41 26.23 168.11 25.54 168.81" fill="none" stroke="#aaa" stroke-miterlimit="10" stroke-width=".5"/>
  <polyline points="41.4 194.72 45.64 189.01 51.21 184.62 54.98 182.84 58.89 181.38 60.6 179.84 60.01 177.57 55.32 171.48 50.16 165.75 54.98 168.23 59.95 170.38 58.67 169.58 56.9 168.92 52.63 167.97 48.27 168.04 43.84 170.15 41.33 174.38 38.9 170.15 34.51 168.04 30.16 167.97 25.9 168.92 24.12 169.58 22.86 170.38 27.9 168.23 32.78 165.75 31.93 166.68 31.07 167.61 30.29 168.45 29.52 169.29 28.83 170.06 28.14 170.83 27.53 171.52 26.92 172.21" fill="none" stroke="#aaa" stroke-miterlimit="10" stroke-width=".5"/>
  <polyline points="41.44 198.62 45.14 192.78 50.24 188.15 53.61 186.39 57.16 185.01 58.74 183.52 58.24 181.35 54.07 175.18 49.47 169.31 53.9 172.13 58.45 174.76 57.25 174.18 55.65 173.6 51.73 172.75 47.74 172.96 43.53 175.52 41.37 179.99 39.28 175.52 35.12 172.96 31.13 172.75 27.22 173.6 25.62 174.18 24.44 174.76 29.05 172.13 33.55 169.31 32.84 170.19 32.13 171.07 31.49 171.87 30.85 172.68 30.27 173.42 29.69 174.15 29.17 174.82 28.65 175.49" fill="none" stroke="#aaa" stroke-miterlimit="10" stroke-width=".5"/>
  <polyline points="41.5 202.61 44.74 196.65 49.4 191.76 52.41 190.01 55.64 188.7 57.1 187.24 56.66 185.16 52.97 178.89 48.87 172.86 52.96 176.03 57.11 179.11 56.02 178.75 54.54 178.22 50.94 177.46 47.28 177.81 43.31 180.81 41.42 185.5 39.62 180.82 35.7 177.81 32.05 177.46 28.45 178.22 26.98 178.75 25.9 179.11 30.12 176.03 34.27 172.86 33.69 173.69 33.11 174.52 32.58 175.28 32.05 176.05 31.57 176.75 31.09 177.46 30.65 178.1 30.21 178.75" fill="none" stroke="#aaa" stroke-miterlimit="10" stroke-width=".5"/>
  <polyline points="41.5 206.91 44.44 200.77 48.82 195.61 51.6 193.85 54.63 192.57 56.02 191.12 55.62 189.08 52.23 182.65 48.46 176.41 52.34 179.89 56.23 183.35 55.23 183.17 53.81 182.65 50.39 181.96 46.95 182.41 43.13 185.81 41.42 190.71 39.78 185.81 36.01 182.41 32.58 181.96 29.17 182.65 27.76 183.17 26.77 183.35 30.73 179.89 34.67 176.41 34.18 177.21 33.68 178.01 33.22 178.75 32.77 179.49 32.35 180.17 31.93 180.85 31.55 181.48 31.16 182.12" fill="none" stroke="#aaa" stroke-miterlimit="10" stroke-width=".5"/>
  <polyline points="41.5 211.61 44.35 205.23 48.67 199.79 51.39 197.98 54.39 196.69 55.76 195.21 55.39 193.14 52.07 186.46 48.39 179.97 52.25 183.71 56.09 187.45 55.11 187.35 53.69 186.84 50.3 186.16 46.9 186.69 43.08 190.38 41.42 195.52 39.83 190.38 36.07 186.69 32.67 186.16 29.29 186.84 27.87 187.35 26.91 187.45 30.82 183.71 34.74 179.97 34.27 180.76 33.81 181.56 33.38 182.3 32.95 183.04 32.55 183.73 32.16 184.42 31.79 185.06 31.43 185.69" fill="none" stroke="#aaa" stroke-miterlimit="10" stroke-width=".5"/>
</svg>