<?xml version="1.0" encoding="UTF-8"?><svg id="Ebene_1" xmlns="http://www.w3.org/2000/svg" viewBox="0 0 222 222"><polyline points="243.71 .13 236.88 2.37 230.52 5.7 227.13 8.65 224.73 12.43 223.93 15.84 224.13 19.35 225.07 22.51 226.53 25.47 228.01 27.73 229.71 29.83 230.54 30.7 231.47 31.44 230.61 30.35 229.61 29.34 225.82 25.88 221.92 22.54 228.34 24.32 234.75 26.14 239.37 27.47 243.98 28.78 247.16 29.63 250.36 30.36 252.49 30.69 254.64 30.76 256.17 30.52 257.59 29.9 258.87 28.89 259.95 27.66 261.26 25.83 262.49 23.94 264.19 21.28 265.95 18.64" style="fill:none; stroke:#aaa; stroke-miterlimit:10; stroke-width:.5px;"/><polyline points="238.65 .13 231.57 2.47 224.98 5.94 221.47 9.02 218.99 12.97 218.16 16.53 218.38 20.18 219.36 23.48 220.88 26.57 222.42 28.93 224.19 31.12 225.07 32.03 226.04 32.8 225.17 31.66 224.14 30.61 220.24 27 216.21 23.52 222.9 25.39 229.57 27.3 234.37 28.7 239.17 30.06 242.47 30.95 245.8 31.7 248.01 32.04 250.25 32.11 251.84 31.83 253.31 31.17 254.65 30.08 255.78 28.78 257.15 26.83 258.44 24.82 260.24 22 262.1 19.2" style="fill:none; stroke:#aaa; stroke-miterlimit:10; stroke-width:.5px;"/><polyline points="233.85 .13 226.53 2.53 219.72 6.11 216.09 9.27 213.52 13.33 212.66 16.99 212.88 20.75 213.88 24.14 215.44 27.32 217.03 29.74 218.84 31.99 219.74 32.93 220.73 33.73 219.81 32.56 218.73 31.47 214.68 27.76 210.5 24.19 217.44 26.11 224.36 28.08 229.32 29.51 234.29 30.92 237.69 31.82 241.12 32.59 243.4 32.93 245.69 32.99 247.32 32.68 248.83 31.98 250.21 30.83 251.37 29.47 252.8 27.42 254.16 25.32 256.05 22.37 258.01 19.44" style="fill:none; stroke:#aaa; stroke-miterlimit:10; stroke-width:.5px;"/><polyline points="229.26 .13 221.72 2.57 214.69 6.21 210.94 9.42 208.28 13.55 207.38 17.27 207.59 21.09 208.6 24.54 210.18 27.77 211.79 30.24 213.64 32.52 214.53 33.47 215.51 34.29 214.51 33.1 213.37 32 209.14 28.23 204.79 24.59 211.97 26.54 219.12 28.54 224.24 29.99 229.35 31.42 232.84 32.33 236.35 33.1 238.67 33.44 241 33.48 242.67 33.15 244.19 32.41 245.6 31.21 246.79 29.79 248.27 27.67 249.68 25.5 251.68 22.43 253.75 19.4" style="fill:none; stroke:#aaa; stroke-miterlimit:10; stroke-width:.5px;"/><polyline points="224.82 .13 217.06 2.59 209.82 6.26 205.96 9.49 203.19 13.67 202.25 17.41 202.44 21.27 203.45 24.75 205.05 28.01 206.67 30.5 208.52 32.81 209.41 33.75 210.35 34.59 209.25 33.4 208.04 32.28 203.61 28.48 199.08 24.81 206.48 26.76 213.87 28.77 219.12 30.23 224.38 31.66 227.94 32.57 231.52 33.34 233.87 33.67 236.23 33.69 237.9 33.34 239.43 32.58 240.86 31.33 242.07 29.87 243.6 27.68 245.07 25.45 247.17 22.29 249.36 19.18" style="fill:none; stroke:#aaa; stroke-miterlimit:10; stroke-width:.5px;"/><polyline points="220.47 .13 212.51 2.6 205.05 6.29 201.08 9.51 198.21 13.72 197.22 17.48 197.38 21.36 198.39 24.85 199.99 28.12 201.62 30.62 203.47 32.94 204.33 33.88 205.24 34.72 204.01 33.54 202.73 32.41 198.1 28.6 193.36 24.91 201 26.86 208.61 28.87 214 30.32 219.38 31.75 223 32.66 226.64 33.42 229.01 33.74 231.39 33.74 233.08 33.37 234.61 32.57 236.04 31.29 237.27 29.79 238.85 27.54 240.38 25.25 242.6 22.01 244.91 18.83" style="fill:none; stroke:#aaa; stroke-miterlimit:10; stroke-width:.5px;"/><polyline points="216.17 .13 208 2.6 200.33 6.3 196.26 9.52 193.28 13.74 192.24 17.49 192.38 21.39 193.38 24.89 194.98 28.16 196.6 30.66 198.45 32.98 199.29 33.91 200.14 34.77 198.81 33.6 197.43 32.45 192.59 28.65 187.65 24.95 195.51 26.88 203.35 28.89 208.86 30.33 214.37 31.76 218.05 32.65 221.75 33.4 224.13 33.71 226.52 33.69 228.21 33.3 229.74 32.48 231.19 31.15 232.43 29.62 234.06 27.32 235.65 24.99 237.99 21.67 240.43 18.43" style="fill:none; stroke:#aaa; stroke-miterlimit:10; stroke-width:.5px;"/><polyline points="211.9 .13 203.53 2.59 195.64 6.3 191.47 9.5 188.37 13.74 187.28 17.49 187.39 21.39 188.39 24.89 189.99 28.17 191.61 30.66 193.44 32.99 194.26 33.9 195.06 34.78 193.6 33.62 192.13 32.46 187.08 28.66 181.94 24.95 190.03 26.87 198.09 28.87 203.72 30.3 209.35 31.72 213.09 32.6 216.84 33.34 219.23 33.63 221.63 33.6 223.33 33.19 224.85 32.34 226.31 30.98 227.57 29.42 229.25 27.07 230.91 24.69 233.37 21.3 235.95 17.99" style="fill:none; stroke:#aaa; stroke-miterlimit:10; stroke-width:.5px;"/><polyline points="207.64 .13 199.07 2.59 190.97 6.29 186.7 9.48 183.49 13.73 182.35 17.47 182.43 21.37 183.41 24.87 185.01 28.14 186.63 30.63 188.45 32.96 189.24 33.87 189.99 34.75 188.41 33.6 186.84 32.44 181.57 28.64 176.23 24.93 184.53 26.84 192.81 28.82 198.57 30.24 204.32 31.64 208.1 32.52 211.9 33.25 214.31 33.53 216.72 33.48 218.41 33.05 219.92 32.19 221.4 30.79 222.67 29.21 224.4 26.81 226.12 24.4 228.71 20.95 231.43 17.6" style="fill:none; stroke:#aaa; stroke-miterlimit:10; stroke-width:.5px;"/><polyline points="203.42 .13 194.65 2.58 186.34 6.28 181.96 9.45 178.65 13.7 177.45 17.42 177.5 21.32 178.47 24.82 180.06 28.08 181.67 30.56 183.49 32.89 184.25 33.79 184.93 34.68 183.23 33.54 181.56 32.36 176.07 28.59 170.52 24.88 179.04 26.76 187.54 28.73 193.41 30.13 199.28 31.52 203.11 32.38 206.96 33.1 209.37 33.37 211.79 33.3 213.47 32.86 214.98 31.97 216.46 30.55 217.76 28.94 219.54 26.5 221.33 24.05 224.05 20.55 226.92 17.14" style="fill:none; stroke:#aaa; stroke-miterlimit:10; stroke-width:.5px;"/><polyline points="199.27 .13 190.3 2.56 181.78 6.23 177.3 9.37 173.87 13.59 172.62 17.27 172.63 21.15 173.59 24.62 175.17 27.85 176.77 30.31 178.56 32.62 179.3 33.51 179.9 34.4 178.07 33.31 176.29 32.13 170.57 28.41 164.81 24.75 173.55 26.6 182.26 28.54 188.24 29.92 194.22 31.3 198.09 32.14 201.98 32.85 204.39 33.1 206.8 33.02 208.48 32.56 209.98 31.66 211.46 30.21 212.77 28.59 214.61 26.11 216.48 23.64 219.34 20.08 222.36 16.64" style="fill:none; stroke:#aaa; stroke-miterlimit:10; stroke-width:.5px;"/><polyline points="195.23 .13 186.07 2.53 177.34 6.16 172.77 9.23 169.21 13.41 167.91 17.02 167.88 20.86 168.81 24.28 170.37 27.46 171.95 29.88 173.71 32.16 174.43 33.04 174.92 33.93 172.95 32.88 171.04 31.72 165.09 28.08 159.1 24.49 168.04 26.3 176.96 28.2 183.04 29.54 189.12 30.89 193.02 31.72 196.93 32.4 199.34 32.65 201.74 32.55 203.4 32.08 204.87 31.17 206.36 29.71 207.68 28.08 209.57 25.58 211.5 23.1 214.51 19.52 217.68 16.07" style="fill:none; stroke:#aaa; stroke-miterlimit:10; stroke-width:.5px;"/><polyline points="191.37 .13 182.03 2.48 173.09 6.03 168.43 9.01 164.75 13.11 163.38 16.62 163.3 20.38 164.19 23.71 165.72 26.81 167.26 29.17 168.97 31.4 169.65 32.27 170.02 33.15 167.89 32.16 165.84 31.02 159.63 27.51 153.39 24.03 162.52 25.76 171.63 27.6 177.8 28.9 183.96 30.21 187.87 31 191.8 31.67 194.17 31.9 196.55 31.79 198.18 31.31 199.62 30.4 201.1 28.94 202.42 27.32 204.37 24.82 206.37 22.36 209.53 18.78 212.88 15.34" style="fill:none; stroke:#aaa; stroke-miterlimit:10; stroke-width:.5px;"/><polyline points="187.74 .13 178.23 2.4 169.09 5.82 164.35 8.68 160.53 12.65 159.1 16 158.95 19.64 159.79 22.84 161.26 25.82 162.75 28.09 164.38 30.25 165.03 31.11 165.22 31.94 162.91 31.05 160.68 29.94 154.19 26.62 147.68 23.28 156.99 24.93 166.27 26.68 172.51 27.91 178.73 29.16 182.63 29.91 186.54 30.54 188.87 30.75 191.19 30.64 192.77 30.16 194.16 29.26 195.62 27.81 196.94 26.22 198.95 23.76 201.02 21.34 204.36 17.8 207.88 14.42" style="fill:none; stroke:#aaa; stroke-miterlimit:10; stroke-width:.5px;"/><polyline points="184.37 .13 174.71 2.28 165.38 5.54 160.56 8.22 156.59 12 155.08 15.13 154.85 18.6 155.63 21.64 157.02 24.45 158.44 26.59 159.97 28.64 160.56 29.49 160.53 30.27 158.02 29.47 155.58 28.43 148.77 25.34 141.97 22.22 151.43 23.74 160.87 25.37 167.14 26.52 173.4 27.69 177.26 28.38 181.14 28.97 183.39 29.16 185.64 29.04 187.15 28.57 188.47 27.71 189.9 26.29 191.21 24.77 193.26 22.37 195.41 20.03 198.93 16.58 202.64 13.32" style="fill:none; stroke:#aaa; stroke-miterlimit:10; stroke-width:.5px;"/><polyline points="181.23 .13 171.43 2.14 161.91 5.18 157.03 7.65 152.89 11.19 151.31 14.06 150.98 17.31 151.67 20.14 152.98 22.74 154.3 24.72 155.7 26.64 156.23 27.48 155.95 28.18 153.2 27.5 150.53 26.54 143.39 23.74 136.26 20.88 145.86 22.25 155.43 23.73 161.72 24.77 168 25.84 171.8 26.48 175.61 27.02 177.77 27.19 179.92 27.07 181.34 26.62 182.58 25.8 183.96 24.44 185.25 23 187.36 20.7 189.58 18.49 193.31 15.18 197.23 12.07" style="fill:none; stroke:#aaa; stroke-miterlimit:10; stroke-width:.5px;"/><polyline points="178.23 .13 168.29 1.98 158.59 4.78 153.64 7.02 149.33 10.28 147.69 12.86 147.23 15.87 147.84 18.46 149.04 20.83 150.25 22.64 151.52 24.4 151.96 25.26 151.42 25.84 148.43 25.29 145.51 24.41 138.02 21.94 130.55 19.37 140.27 20.58 149.97 21.9 156.26 22.82 162.54 23.79 166.26 24.36 169.99 24.85 172.05 25 174.09 24.88 175.4 24.45 176.56 23.69 177.88 22.41 179.15 21.07 181.33 18.9 183.62 16.84 187.57 13.7 191.7 10.79" style="fill:none; stroke:#aaa; stroke-miterlimit:10; stroke-width:.5px;"/><polyline points="175.25 .13 165.17 1.82 155.29 4.37 150.28 6.38 145.81 9.35 144.1 11.63 143.52 14.41 144.03 16.75 145.13 18.89 146.23 20.52 147.35 22.13 147.68 23.03 146.9 23.46 143.67 23.02 140.49 22.25 132.66 20.08 124.84 17.81 134.67 18.86 144.49 20.01 150.77 20.82 157.05 21.68 160.69 22.17 164.34 22.61 166.29 22.74 168.21 22.62 169.43 22.22 170.49 21.51 171.77 20.31 173.02 19.08 175.25 17.06 177.62 15.16 181.8 12.23 186.13 9.54" style="fill:none; stroke:#aaa; stroke-miterlimit:10; stroke-width:.5px;"/><polyline points="172.19 .12 161.97 1.67 151.91 3.98 146.83 5.79 142.2 8.48 140.43 10.49 139.72 13.04 140.15 15.15 141.15 17.07 142.15 18.54 143.13 20 143.26 20.93 142.35 21.24 138.89 20.89 135.46 20.22 127.28 18.34 119.12 16.34 129.08 17.24 139.02 18.24 145.3 18.94 151.58 19.69 155.15 20.11 158.73 20.48 160.57 20.58 162.39 20.45 163.51 20.07 164.49 19.4 165.72 18.29 166.95 17.16 169.26 15.28 171.7 13.54 176.11 10.83 180.66 8.36" style="fill:none; stroke:#aaa; stroke-miterlimit:10; stroke-width:.5px;"/><polyline points="168.94 .12 158.57 1.54 148.32 3.66 143.17 5.29 138.38 7.75 136.57 9.52 135.74 11.88 136.1 13.8 137.01 15.54 137.93 16.87 138.8 18.21 138.7 19.13 137.72 19.37 134.04 19.09 130.39 18.5 121.89 16.86 113.41 15.09 123.5 15.87 133.58 16.74 139.87 17.35 146.17 18 149.69 18.36 153.2 18.68 154.95 18.75 156.69 18.62 157.72 18.25 158.64 17.63 159.83 16.58 161.06 15.55 163.44 13.78 165.96 12.19 170.59 9.67 175.36 7.39" style="fill:none; stroke:#aaa; stroke-miterlimit:10; stroke-width:.5px;"/><polyline points="165.43 .12 154.89 1.44 144.45 3.41 139.21 4.92 134.29 7.2 132.44 8.8 131.5 11.02 131.8 12.8 132.65 14.4 133.51 15.62 134.29 16.87 134 17.75 132.97 17.96 129.1 17.74 125.26 17.21 116.47 15.74 107.7 14.15 117.94 14.84 128.17 15.62 134.51 16.15 140.84 16.73 144.32 17.06 147.81 17.33 149.5 17.39 151.17 17.24 152.14 16.89 153 16.3 154.19 15.3 155.41 14.33 157.88 12.67 160.47 11.18 165.31 8.81 170.27 6.68" style="fill:none; stroke:#aaa; stroke-miterlimit:10; stroke-width:.5px;"/><polyline points="161.68 .11 150.96 1.37 140.33 3.24 135 4.66 129.94 6.82 128.06 8.3 127.03 10.42 127.29 12.1 128.09 13.6 128.91 14.75 129.62 15.94 129.2 16.8 128.12 16.99 124.08 16.8 120.07 16.32 111.03 14.97 101.99 13.5 112.4 14.12 122.79 14.84 129.19 15.33 135.59 15.86 139.07 16.15 142.54 16.4 144.19 16.44 145.82 16.29 146.75 15.94 147.58 15.37 148.76 14.41 149.99 13.49 152.54 11.89 155.21 10.47 160.26 8.2 165.42 6.17" style="fill:none; stroke:#aaa; stroke-miterlimit:10; stroke-width:.5px;"/><polyline points="157.81 .11 146.9 1.32 136.07 3.11 130.65 4.47 125.47 6.53 123.55 7.92 122.45 9.97 122.67 11.57 123.44 13 124.22 14.09 124.88 15.23 124.34 16.07 123.21 16.25 119.03 16.09 114.87 15.64 105.57 14.39 96.28 13.01 106.87 13.59 117.44 14.25 123.91 14.71 130.38 15.2 133.86 15.47 137.34 15.69 138.96 15.72 140.55 15.57 141.46 15.22 142.26 14.67 143.44 13.72 144.69 12.84 147.33 11.28 150.08 9.93 155.33 7.72 160.68 5.77" style="fill:none; stroke:#aaa; stroke-miterlimit:10; stroke-width:.5px;"/><polyline points="153.95 .11 142.84 1.27 131.82 2.98 126.3 4.28 121 6.25 119.05 7.55 117.86 9.52 118.05 11.05 118.78 12.41 119.53 13.45 120.14 14.54 119.48 15.36 118.31 15.53 113.98 15.39 109.66 14.98 100.11 13.82 90.57 12.52 101.33 13.06 112.09 13.68 118.63 14.1 125.17 14.55 128.65 14.8 132.13 15 133.72 15.02 135.28 14.86 136.16 14.51 136.93 13.98 138.13 13.06 139.38 12.21 142.11 10.7 144.95 9.4 150.4 7.27 155.95 5.39" style="fill:none; stroke:#aaa; stroke-miterlimit:10; stroke-width:.5px;"/><polyline points="150.17 .11 138.88 1.21 127.66 2.83 122.04 4.05 116.62 5.91 114.65 7.12 113.36 8.99 113.51 10.43 114.2 11.71 114.91 12.68 115.46 13.73 114.67 14.51 113.44 14.67 108.95 14.56 104.47 14.19 94.66 13.13 84.86 11.94 95.79 12.42 106.72 12.98 113.33 13.36 119.93 13.78 123.4 14 126.88 14.17 128.42 14.18 129.94 14.02 130.78 13.68 131.52 13.17 132.72 12.27 133.99 11.47 136.81 10.03 139.73 8.79 145.4 6.76 151.14 4.97" style="fill:none; stroke:#aaa; stroke-miterlimit:10; stroke-width:.5px;"/><polyline points="146.51 .1 135.04 1.13 123.63 2.65 117.92 3.78 112.37 5.5 110.37 6.6 108.98 8.35 109.07 9.68 109.72 10.87 110.37 11.76 110.85 12.74 109.92 13.47 108.63 13.63 103.97 13.56 99.31 13.23 89.23 12.28 79.15 11.21 90.24 11.64 101.33 12.13 107.98 12.47 114.64 12.83 118.09 13.02 121.55 13.17 123.04 13.17 124.51 13 125.3 12.67 126 12.19 127.2 11.34 128.48 10.59 131.39 9.23 134.39 8.08 140.27 6.17 146.22 4.5" style="fill:none; stroke:#aaa; stroke-miterlimit:10; stroke-width:.5px;"/><polyline points="142.94 .1 131.29 1.05 119.7 2.44 113.88 3.47 108.21 5.04 106.18 6.01 104.68 7.63 104.72 8.84 105.31 9.92 105.91 10.73 106.3 11.62 105.22 12.31 103.85 12.46 99.01 12.42 94.16 12.14 83.8 11.32 73.44 10.38 84.68 10.74 95.92 11.17 102.62 11.45 109.31 11.76 112.74 11.92 116.17 12.04 117.6 12.03 119.02 11.86 119.75 11.55 120.41 11.09 121.6 10.3 122.88 9.62 125.88 8.35 128.97 7.3 135.06 5.54 141.22 4.01" style="fill:none; stroke:#aaa; stroke-miterlimit:10; stroke-width:.5px;"/><polyline points="139.37 .09 127.55 .96 115.77 2.22 109.86 3.15 104.06 4.58 102 5.44 100.39 6.91 100.37 8 100.91 8.97 101.45 9.7 101.76 10.51 100.52 11.14 99.08 11.28 94.05 11.27 89.02 11.04 78.38 10.34 67.73 9.53 79.12 9.83 90.51 10.19 97.25 10.43 103.98 10.69 107.38 10.81 110.78 10.9 112.15 10.88 113.51 10.71 114.19 10.42 114.8 10 116 9.26 117.27 8.64 120.37 7.49 123.54 6.53 129.85 4.93 136.22 3.53" style="fill:none; stroke:#aaa; stroke-miterlimit:10; stroke-width:.5px;"/><polyline points="135.7 .09 123.69 .89 111.72 2.04 105.71 2.89 99.79 4.18 97.71 4.95 96 6.29 95.93 7.28 96.42 8.16 96.91 8.82 97.14 9.56 95.78 10.14 94.26 10.28 89.06 10.29 83.86 10.1 72.94 9.5 62.02 8.79 73.57 9.05 85.11 9.35 91.9 9.55 98.69 9.77 102.07 9.87 105.45 9.93 106.77 9.91 108.08 9.73 108.71 9.45 109.28 9.07 110.49 8.37 111.76 7.82 114.96 6.75 118.21 5.87 124.75 4.41 131.33 3.13" style="fill:none; stroke:#aaa; stroke-miterlimit:10; stroke-width:.5px;"/><polyline points="131.8 .09 119.6 .84 107.43 1.92 101.32 2.72 95.29 3.93 93.17 4.64 91.38 5.9 91.27 6.82 91.73 7.65 92.2 8.26 92.38 8.96 90.93 9.51 89.34 9.64 83.99 9.67 78.64 9.5 67.48 8.96 56.31 8.32 68.04 8.54 79.76 8.81 86.62 8.99 93.48 9.18 96.87 9.27 100.25 9.31 101.54 9.28 102.82 9.11 103.42 8.84 103.98 8.47 105.2 7.81 106.49 7.29 109.78 6.28 113.13 5.45 119.87 4.07 126.66 2.87" style="fill:none; stroke:#aaa; stroke-miterlimit:10; stroke-width:.5px;"/><polyline points="127.54 .09 115.13 .83 102.76 1.91 96.53 2.7 90.39 3.9 88.24 4.6 86.4 5.85 86.29 6.76 86.75 7.58 87.21 8.19 87.38 8.88 85.89 9.43 84.26 9.56 78.81 9.59 73.35 9.42 61.97 8.9 50.6 8.27 62.54 8.49 74.47 8.75 81.44 8.92 88.41 9.11 91.83 9.19 95.25 9.24 96.55 9.2 97.84 9.03 98.44 8.75 99 8.39 100.25 7.72 101.57 7.2 104.96 6.19 108.41 5.37 115.35 3.99 122.33 2.79" style="fill:none; stroke:#aaa; stroke-miterlimit:10; stroke-width:.5px;"/><polyline points="122.8 .09 110.16 .89 97.56 2.03 91.23 2.87 84.99 4.16 82.81 4.91 80.97 6.25 80.87 7.23 81.37 8.11 81.86 8.75 82.08 9.5 80.6 10.08 78.98 10.22 73.47 10.23 67.95 10.05 56.42 9.47 44.89 8.78 57.08 9.03 69.27 9.32 76.4 9.51 83.52 9.72 87.03 9.82 90.54 9.87 91.88 9.84 93.21 9.66 93.86 9.36 94.45 8.97 95.76 8.26 97.14 7.7 100.62 6.62 104.17 5.73 111.29 4.25 118.45 2.96" style="fill:none; stroke:#aaa; stroke-miterlimit:10; stroke-width:.5px;"/><polyline points="117.5 .09 104.62 1 91.77 2.32 85.33 3.29 79 4.77 76.77 5.66 74.98 7.2 74.95 8.33 75.52 9.34 76.09 10.1 76.41 10.95 75.03 11.61 73.45 11.76 67.94 11.75 62.44 11.51 50.81 10.8 39.18 9.96 51.67 10.27 64.16 10.64 71.5 10.89 78.84 11.15 82.49 11.28 86.14 11.36 87.59 11.33 89.02 11.14 89.75 10.81 90.41 10.36 91.79 9.55 93.26 8.9 96.84 7.65 100.5 6.62 107.76 4.9 115.08 3.4" style="fill:none; stroke:#aaa; stroke-miterlimit:10; stroke-width:.5px;"/><polyline points="111.62 .1 98.46 1.19 85.35 2.78 78.79 3.96 72.39 5.77 70.1 6.89 68.43 8.74 68.49 10.13 69.19 11.37 69.88 12.29 70.36 13.32 69.18 14.1 67.67 14.27 62.23 14.21 56.8 13.88 45.13 12.93 33.46 11.84 46.32 12.27 59.16 12.78 66.77 13.11 74.38 13.48 78.23 13.66 82.09 13.79 83.69 13.77 85.27 13.56 86.13 13.17 86.9 12.64 88.39 11.68 89.96 10.86 93.64 9.35 97.42 8.08 104.8 5.98 112.26 4.14" style="fill:none; stroke:#aaa; stroke-miterlimit:10; stroke-width:.5px;"/><polyline points="105.24 .11 91.77 1.44 78.39 3.4 71.69 4.87 65.24 7.12 62.89 8.58 61.38 10.83 61.58 12.57 62.44 14.12 63.3 15.29 63.99 16.55 63.1 17.48 61.66 17.68 56.35 17.54 51.05 17.09 39.4 15.79 27.75 14.34 41.01 14.95 54.25 15.64 62.18 16.11 70.11 16.62 74.22 16.88 78.32 17.09 80.13 17.09 81.91 16.85 82.94 16.39 83.85 15.73 85.47 14.57 87.17 13.54 90.95 11.68 94.85 10.08 102.33 7.47 109.91 5.17" style="fill:none; stroke:#aaa; stroke-miterlimit:10; stroke-width:.5px;"/></svg>