<?xml version="1.0" encoding="UTF-8"?><svg id="Ebene_1" xmlns="http://www.w3.org/2000/svg" viewBox="0 0 222 222"><polyline points="253.46 2.9 246.89 4.12 240.48 5.97 237.21 7.45 234.37 9.62 233.28 11.34 232.99 13.34 233.4 15.06 234.21 16.64 235.02 17.85 235.87 19.02 236.17 19.58 235.83 19.97 233.88 19.59 231.96 19 227.03 17.34 222.11 15.61 226.06 16.11 230.01 16.62 233.16 17.06 236.3 17.51 238.74 17.88 241.19 18.26 243.03 18.55 244.88 18.84 246.24 19.04 247.59 19.22 248.56 19.33 249.53 19.4 250.22 19.4 250.9 19.33 251.42 19.21 251.91 19.01" style="fill:none; stroke:#aaa; stroke-miterlimit:10; stroke-width:.5px;"/><polyline points="249.08 2.9 242.3 4.13 235.67 5.99 232.3 7.49 229.35 9.67 228.22 11.39 227.9 13.41 228.31 15.14 229.12 16.73 229.94 17.94 230.79 19.12 231.09 19.71 230.7 20.09 228.65 19.71 226.64 19.13 221.51 17.46 216.4 15.74 220.28 16.2 224.15 16.69 227.28 17.11 230.4 17.54 232.86 17.9 235.33 18.27 237.22 18.56 239.12 18.85 240.54 19.06 241.96 19.26 243 19.39 244.03 19.49 244.78 19.52 245.52 19.51 246.07 19.44 246.6 19.3" style="fill:none; stroke:#aaa; stroke-miterlimit:10; stroke-width:.5px;"/><polyline points="244.5 2.9 237.5 4.16 230.65 6.08 227.17 7.61 224.12 9.85 222.95 11.61 222.62 13.7 223.04 15.47 223.87 17.1 224.72 18.34 225.59 19.56 225.9 20.16 225.49 20.55 223.37 20.17 221.28 19.57 215.98 17.86 210.69 16.09 214.49 16.54 218.29 17.02 221.39 17.42 224.49 17.85 226.98 18.2 229.46 18.57 231.41 18.86 233.36 19.16 234.85 19.38 236.34 19.6 237.46 19.75 238.57 19.88 239.39 19.95 240.2 19.97 240.8 19.95 241.4 19.87" style="fill:none; stroke:#aaa; stroke-miterlimit:10; stroke-width:.5px;"/><polyline points="239.65 2.9 232.41 4.23 225.34 6.25 221.74 7.86 218.6 10.22 217.4 12.08 217.08 14.27 217.52 16.14 218.4 17.86 219.29 19.17 220.21 20.44 220.55 21.06 220.16 21.48 217.99 21.07 215.86 20.44 210.42 18.63 204.98 16.76 208.74 17.22 212.5 17.7 215.61 18.11 218.71 18.55 221.24 18.91 223.76 19.28 225.77 19.59 227.77 19.9 229.34 20.14 230.9 20.38 232.1 20.55 233.29 20.7 234.18 20.8 235.08 20.86 235.74 20.86 236.4 20.82" style="fill:none; stroke:#aaa; stroke-miterlimit:10; stroke-width:.5px;"/><polyline points="234.51 2.9 227.02 4.33 219.72 6.5 215.99 8.25 212.78 10.79 211.55 12.82 211.25 15.16 211.74 17.18 212.69 19.04 213.64 20.45 214.65 21.82 215.02 22.46 214.7 22.93 212.52 22.47 210.38 21.78 204.82 19.81 199.27 17.78 203.02 18.27 206.77 18.77 209.91 19.21 213.03 19.66 215.61 20.05 218.18 20.45 220.26 20.78 222.33 21.11 223.98 21.37 225.62 21.63 226.9 21.83 228.18 22.01 229.15 22.13 230.13 22.21 230.87 22.25 231.6 22.24" style="fill:none; stroke:#aaa; stroke-miterlimit:10; stroke-width:.5px;"/><polyline points="229.14 2.9 221.39 4.46 213.85 6.84 209.99 8.76 206.7 11.53 205.46 13.77 205.19 16.32 205.75 18.53 206.78 20.57 207.82 22.12 208.93 23.62 209.35 24.28 209.14 24.82 206.97 24.29 204.85 23.53 199.2 21.33 193.56 19.09 197.33 19.62 201.09 20.16 204.27 20.63 207.44 21.13 210.07 21.55 212.7 21.98 214.85 22.34 217 22.7 218.73 23 220.46 23.29 221.83 23.51 223.19 23.71 224.25 23.86 225.32 23.97 226.14 24.03 226.95 24.05" style="fill:none; stroke:#aaa; stroke-miterlimit:10; stroke-width:.5px;"/><polyline points="223.63 2.9 215.6 4.61 207.82 7.22 203.82 9.35 200.48 12.37 199.22 14.87 199 17.65 199.62 20.08 200.75 22.32 201.9 24.03 203.13 25.67 203.6 26.36 203.51 26.98 201.37 26.36 199.29 25.52 193.56 23.07 187.84 20.58 191.64 21.15 195.44 21.74 198.66 22.26 201.88 22.8 204.58 23.26 207.27 23.73 209.5 24.13 211.73 24.53 213.54 24.85 215.35 25.18 216.81 25.43 218.26 25.67 219.41 25.84 220.56 25.98 221.47 26.07 222.37 26.11" style="fill:none; stroke:#aaa; stroke-miterlimit:10; stroke-width:.5px;"/><polyline points="218.08 2.9 209.78 4.77 201.76 7.61 197.62 9.95 194.22 13.25 192.95 16 192.77 19.03 193.47 21.68 194.7 24.14 195.94 26.01 197.3 27.8 197.83 28.53 197.87 29.22 195.76 28.5 193.72 27.59 187.93 24.86 182.13 22.12 185.97 22.74 189.8 23.38 193.08 23.95 196.35 24.53 199.11 25.03 201.87 25.54 204.18 25.98 206.48 26.42 208.38 26.78 210.27 27.13 211.81 27.42 213.35 27.69 214.59 27.88 215.82 28.06 216.8 28.17 217.78 28.24" style="fill:none; stroke:#aaa; stroke-miterlimit:10; stroke-width:.5px;"/><polyline points="212.61 2.9 204.03 4.92 195.78 7.98 191.5 10.53 188.05 14.08 186.75 17.07 186.62 20.33 187.38 23.2 188.7 25.86 190.05 27.89 191.52 29.81 192.1 30.58 192.27 31.33 190.18 30.53 188.17 29.54 182.3 26.56 176.42 23.58 180.28 24.24 184.14 24.93 187.46 25.53 190.77 26.15 193.59 26.69 196.41 27.24 198.78 27.71 201.15 28.18 203.13 28.57 205.1 28.96 206.72 29.28 208.33 29.57 209.65 29.8 210.96 30 212.02 30.14 213.08 30.23" style="fill:none; stroke:#aaa; stroke-miterlimit:10; stroke-width:.5px;"/><polyline points="207.32 2.9 198.48 5.05 189.99 8.3 185.58 11.02 182.06 14.79 180.75 17.98 180.64 21.44 181.46 24.49 182.86 27.33 184.29 29.49 185.85 31.53 186.48 32.34 186.74 33.13 184.66 32.26 182.65 31.21 176.69 28.02 170.71 24.83 174.59 25.53 178.46 26.24 181.81 26.88 185.15 27.52 188.02 28.09 190.88 28.67 193.31 29.17 195.74 29.67 197.78 30.09 199.81 30.5 201.5 30.84 203.19 31.16 204.57 31.41 205.96 31.64 207.08 31.8 208.21 31.93" style="fill:none; stroke:#aaa; stroke-miterlimit:10; stroke-width:.5px;"/><polyline points="202.29 2.9 193.19 5.14 184.48 8.54 179.95 11.39 176.34 15.32 175 18.66 174.91 22.27 175.77 25.46 177.23 28.42 178.72 30.68 180.36 32.81 181.01 33.65 181.33 34.48 179.22 33.55 177.19 32.46 171.11 29.11 165 25.78 168.88 26.49 172.75 27.22 176.12 27.87 179.48 28.53 182.38 29.12 185.27 29.71 187.74 30.22 190.21 30.74 192.3 31.18 194.38 31.61 196.13 31.97 197.87 32.31 199.32 32.58 200.76 32.84 201.94 33.02 203.13 33.17" style="fill:none; stroke:#aaa; stroke-miterlimit:10; stroke-width:.5px;"/><polyline points="197.56 2.9 188.24 5.2 179.31 8.68 174.66 11.6 170.96 15.63 169.59 19.05 169.49 22.75 170.37 26.01 171.87 29.05 173.39 31.36 175.06 33.56 175.73 34.41 176.05 35.27 173.89 34.32 171.8 33.2 165.56 29.77 159.29 26.36 163.14 27.06 166.98 27.78 170.34 28.43 173.7 29.09 176.61 29.67 179.51 30.26 182.01 30.78 184.5 31.3 186.62 31.74 188.74 32.18 190.53 32.55 192.31 32.91 193.8 33.2 195.29 33.47 196.53 33.67 197.76 33.85" style="fill:none; stroke:#aaa; stroke-miterlimit:10; stroke-width:.5px;"/><polyline points="193.19 2.9 183.66 5.21 174.51 8.71 169.75 11.64 165.95 15.69 164.53 19.13 164.4 22.84 165.28 26.13 166.79 29.18 168.31 31.5 169.99 33.7 170.66 34.57 170.92 35.43 168.67 34.49 166.49 33.36 160.04 29.94 153.58 26.52 157.38 27.2 161.17 27.89 164.5 28.51 167.83 29.15 170.73 29.72 173.62 30.29 176.12 30.8 178.62 31.31 180.76 31.75 182.9 32.19 184.71 32.56 186.53 32.92 188.05 33.22 189.58 33.5 190.85 33.72 192.12 33.92" style="fill:none; stroke:#aaa; stroke-miterlimit:10; stroke-width:.5px;"/><polyline points="189.14 2.9 179.42 5.18 170.07 8.64 165.22 11.52 161.29 15.52 159.81 18.89 159.65 22.57 160.5 25.8 161.98 28.81 163.49 31.09 165.14 33.27 165.78 34.14 165.94 34.98 163.55 34.09 161.24 32.98 154.56 29.63 147.87 26.28 151.6 26.91 155.32 27.56 158.6 28.15 161.88 28.75 164.75 29.28 167.61 29.83 170.1 30.31 172.59 30.8 174.73 31.22 176.88 31.64 178.7 32.01 180.53 32.36 182.08 32.66 183.63 32.95 184.92 33.18 186.22 33.39" style="fill:none; stroke:#aaa; stroke-miterlimit:10; stroke-width:.5px;"/><polyline points="185.39 2.9 175.49 5.12 165.93 8.48 161 11.25 156.94 15.14 155.4 18.39 155.17 21.96 155.98 25.1 157.42 28 158.89 30.21 160.47 32.33 161.08 33.2 161.09 34 158.53 33.18 156.06 32.1 149.11 28.91 142.16 25.68 145.79 26.26 149.42 26.85 152.64 27.39 155.85 27.94 158.68 28.43 161.5 28.93 163.96 29.38 166.42 29.84 168.56 30.23 170.69 30.64 172.52 30.98 174.35 31.32 175.91 31.61 177.47 31.9 178.78 32.13 180.1 32.34" style="fill:none; stroke:#aaa; stroke-miterlimit:10; stroke-width:.5px;"/><polyline points="181.85 2.9 171.79 5.02 162.04 8.25 157.02 10.87 152.81 14.61 151.21 17.68 150.91 21.12 151.66 24.11 153.04 26.88 154.44 28.98 155.94 31.01 156.51 31.88 156.33 32.63 153.59 31.89 150.92 30.86 143.68 27.87 136.45 24.82 139.98 25.33 143.5 25.86 146.64 26.34 149.77 26.83 152.54 27.28 155.31 27.73 157.73 28.14 160.16 28.56 162.27 28.92 164.38 29.29 166.21 29.62 168.03 29.94 169.6 30.22 171.16 30.49 172.49 30.71 173.81 30.93" style="fill:none; stroke:#aaa; stroke-miterlimit:10; stroke-width:.5px;"/><polyline points="178.43 2.9 168.21 4.92 158.27 7.97 153.18 10.44 148.82 13.99 147.15 16.86 146.76 20.13 147.45 22.96 148.76 25.57 150.09 27.55 151.49 29.48 152.01 30.35 151.62 31.04 148.68 30.38 145.81 29.42 138.27 26.65 130.74 23.8 134.15 24.25 137.56 24.71 140.61 25.14 143.65 25.57 146.36 25.97 149.06 26.37 151.44 26.74 153.82 27.11 155.91 27.44 157.99 27.78 159.8 28.07 161.61 28.37 163.18 28.63 164.74 28.89 166.08 29.1 167.41 29.32" style="fill:none; stroke:#aaa; stroke-miterlimit:10; stroke-width:.5px;"/><polyline points="175.03 2.9 164.66 4.81 154.52 7.69 149.36 10 144.84 13.36 143.12 16.01 142.63 19.13 143.26 21.79 144.5 24.23 145.75 26.09 147.05 27.91 147.51 28.81 146.92 29.4 143.78 28.83 140.7 27.94 132.86 25.39 125.03 22.76 128.33 23.15 131.62 23.55 134.58 23.92 137.53 24.3 140.17 24.65 142.8 25 145.14 25.33 147.47 25.66 149.53 25.95 151.58 26.26 153.38 26.53 155.17 26.8 156.73 27.04 158.29 27.27 159.64 27.48 160.98 27.68" style="fill:none; stroke:#aaa; stroke-miterlimit:10; stroke-width:.5px;"/><polyline points="171.57 2.89 161.02 4.7 150.69 7.43 145.45 9.59 140.8 12.77 139.01 15.23 138.44 18.2 139 20.7 140.18 23 141.36 24.75 142.57 26.47 142.95 27.4 142.19 27.9 138.86 27.4 135.58 26.57 127.44 24.23 119.32 21.79 122.51 22.12 125.69 22.47 128.56 22.8 131.43 23.13 134 23.43 136.57 23.75 138.86 24.04 141.14 24.33 143.17 24.6 145.19 24.87 146.98 25.11 148.76 25.36 150.32 25.57 151.87 25.79 153.22 25.99 154.57 26.18" style="fill:none; stroke:#aaa; stroke-miterlimit:10; stroke-width:.5px;"/><polyline points="167.96 2.89 157.25 4.62 146.72 7.22 141.4 9.25 136.61 12.28 134.77 14.58 134.11 17.42 134.62 19.8 135.74 21.96 136.87 23.62 138 25.26 138.28 26.22 137.4 26.63 133.89 26.2 130.43 25.42 122.01 23.26 113.61 20.97 116.7 21.27 119.78 21.58 122.58 21.86 125.37 22.15 127.88 22.42 130.39 22.7 132.64 22.96 134.88 23.22 136.88 23.46 138.88 23.7 140.65 23.92 142.42 24.14 143.98 24.34 145.53 24.54 146.89 24.72 148.25 24.9" style="fill:none; stroke:#aaa; stroke-miterlimit:10; stroke-width:.5px;"/><polyline points="164.2 2.89 153.31 4.55 142.58 7.05 137.17 9 132.24 11.9 130.37 14.07 129.63 16.82 130.1 19.1 131.17 21.17 132.26 22.75 133.33 24.33 133.5 25.31 132.54 25.66 128.87 25.27 125.25 24.55 116.56 22.51 107.89 20.35 110.9 20.62 113.9 20.89 116.63 21.15 119.35 21.41 121.81 21.65 124.27 21.9 126.48 22.13 128.7 22.37 130.68 22.58 132.65 22.81 134.41 23.01 136.17 23.21 137.73 23.39 139.29 23.58 140.65 23.75 142.02 23.91" style="fill:none; stroke:#aaa; stroke-miterlimit:10; stroke-width:.5px;"/><polyline points="160.29 2.89 149.21 4.5 138.28 6.93 132.78 8.81 127.72 11.63 125.8 13.71 125 16.39 125.44 18.6 126.48 20.6 127.54 22.12 128.56 23.66 128.62 24.66 127.62 24.96 123.8 24.61 120.03 23.92 111.1 21.98 102.18 19.91 105.11 20.15 108.03 20.4 110.7 20.63 113.36 20.87 115.78 21.09 118.19 21.32 120.38 21.53 122.56 21.75 124.52 21.95 126.48 22.15 128.23 22.34 129.99 22.53 131.55 22.7 133.11 22.87 134.48 23.03 135.86 23.19" style="fill:none; stroke:#aaa; stroke-miterlimit:10; stroke-width:.5px;"/><polyline points="156.27 2.89 144.99 4.47 133.87 6.85 128.27 8.68 123.09 11.44 121.13 13.44 120.26 16.08 120.68 18.24 121.7 20.19 122.73 21.67 123.72 23.18 123.69 24.18 122.65 24.47 118.7 24.14 114.79 23.47 105.62 21.61 96.47 19.61 99.33 19.83 102.19 20.06 104.81 20.27 107.42 20.49 109.8 20.7 112.18 20.91 114.33 21.1 116.49 21.31 118.44 21.49 120.38 21.68 122.13 21.86 123.88 22.03 125.45 22.2 127.01 22.36 128.4 22.51 129.79 22.66" style="fill:none; stroke:#aaa; stroke-miterlimit:10; stroke-width:.5px;"/><polyline points="152.18 2.88 140.71 4.45 129.38 6.78 123.68 8.58 118.39 11.29 116.38 13.24 115.46 15.85 115.86 17.96 116.86 19.88 117.88 21.33 118.84 22.81 118.73 23.82 117.65 24.09 113.57 23.78 109.54 23.13 100.14 21.33 90.76 19.39 93.56 19.59 96.35 19.8 98.92 20 101.48 20.2 103.82 20.4 106.16 20.59 108.29 20.78 110.42 20.96 112.36 21.14 114.29 21.32 116.03 21.48 117.78 21.65 119.35 21.8 120.91 21.96 122.31 22.1 123.71 22.24" style="fill:none; stroke:#aaa; stroke-miterlimit:10; stroke-width:.5px;"/><polyline points="148.04 2.88 136.36 4.43 124.83 6.74 119.03 8.51 113.62 11.19 111.58 13.1 110.61 15.68 110.98 17.76 111.98 19.65 112.98 21.08 113.92 22.55 113.74 23.56 112.62 23.81 108.43 23.52 104.27 22.89 94.65 21.13 85.05 19.23 87.79 19.42 90.53 19.62 93.05 19.81 95.57 20 97.88 20.18 100.19 20.36 102.3 20.54 104.41 20.71 106.33 20.88 108.25 21.05 109.99 21.2 111.73 21.36 113.3 21.51 114.87 21.66 116.28 21.79 117.69 21.93" style="fill:none; stroke:#aaa; stroke-miterlimit:10; stroke-width:.5px;"/><polyline points="143.83 2.88 131.95 4.42 120.2 6.71 114.3 8.47 108.78 11.13 106.7 13.01 105.68 15.58 106.05 17.65 107.03 19.52 108.03 20.94 108.95 22.39 108.71 23.41 107.56 23.65 103.26 23.38 98.99 22.76 89.16 21.03 79.34 19.16 82.03 19.34 84.71 19.52 87.19 19.7 89.66 19.88 91.94 20.05 94.22 20.23 96.31 20.39 98.39 20.56 100.3 20.71 102.21 20.88 103.94 21.02 105.68 21.18 107.25 21.32 108.83 21.46 110.25 21.59 111.67 21.72" style="fill:none; stroke:#aaa; stroke-miterlimit:10; stroke-width:.5px;"/><polyline points="139.54 2.88 127.46 4.42 115.5 6.71 109.5 8.46 103.86 11.12 101.75 12.98 100.69 15.56 101.05 17.62 102.03 19.48 103.03 20.9 103.94 22.35 103.65 23.37 102.48 23.62 98.07 23.35 93.69 22.74 83.65 21.02 73.63 19.17 76.27 19.34 78.9 19.52 81.34 19.68 83.78 19.86 86.03 20.02 88.28 20.19 90.35 20.34 92.42 20.51 94.32 20.66 96.21 20.81 97.95 20.95 99.68 21.1 101.26 21.24 102.84 21.37 104.27 21.5 105.7 21.63" style="fill:none; stroke:#aaa; stroke-miterlimit:10; stroke-width:.5px;"/><polyline points="135.19 2.88 122.89 4.43 110.72 6.73 104.62 8.49 98.88 11.15 96.72 13.02 95.63 15.61 95.98 17.68 96.97 19.55 97.98 20.97 98.89 22.43 98.56 23.46 97.36 23.7 92.85 23.44 88.38 22.83 78.14 21.12 67.92 19.26 70.51 19.43 73.1 19.6 75.51 19.76 77.91 19.92 80.14 20.08 82.36 20.24 84.42 20.4 86.47 20.55 88.36 20.7 90.24 20.85 91.98 20.99 93.71 21.13 95.29 21.26 96.87 21.4 98.31 21.52 99.75 21.65" style="fill:none; stroke:#aaa; stroke-miterlimit:10; stroke-width:.5px;"/><polyline points="130.77 2.88 118.26 4.44 105.88 6.77 99.66 8.54 93.82 11.23 91.63 13.11 90.51 15.73 90.86 17.82 91.86 19.7 92.87 21.13 93.79 22.61 93.44 23.65 92.22 23.9 87.62 23.64 83.05 23.02 72.62 21.3 62.21 19.43 64.76 19.59 67.31 19.76 69.68 19.91 72.05 20.08 74.25 20.23 76.45 20.39 78.49 20.54 80.52 20.69 82.4 20.83 84.28 20.98 86.01 21.11 87.74 21.25 89.32 21.38 90.91 21.52 92.36 21.64 93.8 21.76" style="fill:none; stroke:#aaa; stroke-miterlimit:10; stroke-width:.5px;"/><polyline points="126.3 2.88 113.57 4.46 100.97 6.82 94.65 8.62 88.7 11.35 86.47 13.25 85.33 15.9 85.68 18.02 86.7 19.93 87.73 21.39 88.66 22.88 88.3 23.94 87.05 24.19 82.37 23.92 77.71 23.3 67.1 21.56 56.5 19.67 59.01 19.82 61.53 19.99 63.87 20.14 66.22 20.3 68.4 20.45 70.58 20.6 72.6 20.75 74.62 20.9 76.49 21.04 78.36 21.19 80.09 21.32 81.82 21.46 83.41 21.59 85 21.72 86.46 21.84 87.91 21.97" style="fill:none; stroke:#aaa; stroke-miterlimit:10; stroke-width:.5px;"/><polyline points="121.79 2.88 108.85 4.49 96.03 6.89 89.6 8.72 83.55 11.49 81.28 13.42 80.12 16.12 80.48 18.28 81.51 20.22 82.56 21.69 83.5 23.21 83.13 24.29 81.86 24.54 77.1 24.27 72.37 23.64 61.57 21.87 50.79 19.95 53.27 20.1 55.75 20.26 58.06 20.41 60.38 20.57 62.54 20.72 64.7 20.87 66.71 21.02 68.71 21.16 70.58 21.3 72.44 21.44 74.17 21.58 75.89 21.71 77.49 21.84 79.08 21.97 80.54 22.1 82.01 22.22" style="fill:none; stroke:#aaa; stroke-miterlimit:10; stroke-width:.5px;"/><polyline points="117.28 2.88 104.11 4.52 91.08 6.96 84.54 8.82 78.38 11.64 76.08 13.6 74.9 16.35 75.26 18.54 76.31 20.51 77.38 22.01 78.34 23.56 77.97 24.66 76.68 24.91 71.83 24.64 67.02 24 56.04 22.2 45.08 20.24 47.52 20.39 49.96 20.55 52.25 20.7 54.53 20.85 56.67 21 58.8 21.15 60.8 21.29 62.79 21.44 64.64 21.57 66.5 21.72 68.22 21.85 69.94 21.98 71.54 22.11 73.13 22.24 74.6 22.36 76.07 22.49" style="fill:none; stroke:#aaa; stroke-miterlimit:10; stroke-width:.5px;"/><polyline points="112.78 2.88 99.4 4.54 86.15 7.02 79.5 8.91 73.25 11.77 70.9 13.77 69.7 16.55 70.07 18.78 71.14 20.78 72.22 22.31 73.19 23.87 72.81 24.99 71.5 25.25 66.57 24.97 61.68 24.32 50.52 22.49 39.37 20.51 41.77 20.66 44.17 20.81 46.43 20.96 48.69 21.11 50.8 21.26 52.91 21.4 54.89 21.54 56.87 21.69 58.71 21.82 60.55 21.96 62.27 22.09 63.99 22.23 65.58 22.35 67.17 22.48 68.65 22.6 70.13 22.73" style="fill:none; stroke:#aaa; stroke-miterlimit:10; stroke-width:.5px;"/><polyline points="108.34 2.88 94.74 4.56 81.27 7.07 74.52 8.98 68.16 11.88 65.78 13.89 64.55 16.71 64.92 18.96 66 20.99 67.09 22.53 68.08 24.11 67.68 25.24 66.34 25.5 61.33 25.23 56.35 24.57 44.99 22.73 33.66 20.72 36.02 20.87 38.38 21.02 40.6 21.16 42.83 21.31 44.91 21.45 47 21.6 48.96 21.73 50.91 21.87 52.74 22.01 54.57 22.14 56.28 22.27 57.99 22.4 59.58 22.53 61.17 22.65 62.65 22.77 64.12 22.89" style="fill:none; stroke:#aaa; stroke-miterlimit:10; stroke-width:.5px;"/></svg>