<?xml version="1.0" encoding="UTF-8"?><svg id="Ebene_1" xmlns="http://www.w3.org/2000/svg" viewBox="0 0 222 222"><polyline points="222 1.27 214.84 2.09 207.68 2.9 202.32 3.98 196.97 5.06 193.17 6.33 189.38 7.61 186.91 9.02 184.44 10.43 183.05 11.91 181.66 13.39 181.11 14.87 180.56 16.35 180.62 17.78 180.67 19.2 181.08 20.5 181.49 21.8" style="fill:none; stroke:#aaa; stroke-miterlimit:10; stroke-width:.5px;"/><polyline points="214.04 1.28 206.68 2.24 199.31 3.19 193.93 4.48 188.55 5.77 184.87 7.29 181.18 8.82 178.92 10.51 176.65 12.19 175.51 13.94 174.38 15.7 174.1 17.43 173.81 19.17 174.1 20.8 174.39 22.44 174.96 23.88 175.53 25.32" style="fill:none; stroke:#aaa; stroke-miterlimit:10; stroke-width:.5px;"/><polyline points="206.1 1.28 198.62 2.38 191.14 3.48 185.78 4.98 180.42 6.48 176.86 8.27 173.31 10.05 171.24 12.01 169.17 13.98 168.27 16 167.36 18.03 167.31 20.01 167.26 21.99 167.73 23.82 168.21 25.65 168.9 27.21 169.59 28.78" style="fill:none; stroke:#aaa; stroke-miterlimit:10; stroke-width:.5px;"/><polyline points="198.34 1.28 190.81 2.52 183.29 3.75 177.99 5.45 172.69 7.15 169.26 9.17 165.84 11.19 163.95 13.41 162.06 15.63 161.35 17.91 160.65 20.18 160.78 22.39 160.91 24.59 161.53 26.59 162.16 28.58 162.92 30.24 163.69 31.89" style="fill:none; stroke:#aaa; stroke-miterlimit:10; stroke-width:.5px;"/><polyline points="190.89 1.28 183.36 2.63 175.83 3.99 170.61 5.86 165.38 7.73 162.09 9.96 158.79 12.19 157.06 14.63 155.33 17.07 154.79 19.56 154.26 22.06 154.54 24.44 154.82 26.83 155.56 28.96 156.3 31.09 157.12 32.8 157.93 34.51" style="fill:none; stroke:#aaa; stroke-miterlimit:10; stroke-width:.5px;"/><polyline points="183.9 1.28 176.38 2.73 168.85 4.18 163.69 6.19 158.54 8.2 155.37 10.61 152.2 13.01 150.61 15.63 149.03 18.26 148.64 20.92 148.25 23.58 148.67 26.1 149.08 28.62 149.91 30.83 150.73 33.04 151.57 34.76 152.42 36.48" style="fill:none; stroke:#aaa; stroke-miterlimit:10; stroke-width:.5px;"/><polyline points="177.5 1.28 169.99 2.79 162.47 4.3 157.38 6.4 152.3 8.51 149.23 11.03 146.17 13.54 144.71 16.28 143.25 19.01 142.98 21.77 142.72 24.53 143.23 27.12 143.75 29.71 144.63 31.94 145.51 34.17 146.34 35.85 147.17 37.53" style="fill:none; stroke:#aaa; stroke-miterlimit:10; stroke-width:.5px;"/><polyline points="171.76 1.28 164.21 2.82 156.67 4.36 151.63 6.52 146.59 8.68 143.63 11.25 140.66 13.83 139.32 16.61 137.98 19.4 137.84 22.19 137.69 24.98 138.29 27.57 138.89 30.15 139.8 32.33 140.72 34.51 141.5 36.08 142.28 37.65" style="fill:none; stroke:#aaa; stroke-miterlimit:10; stroke-width:.5px;"/><polyline points="166.62 1.28 159.01 2.82 151.4 4.36 146.4 6.53 141.39 8.7 138.52 11.28 135.64 13.85 134.42 16.63 133.2 19.4 133.17 22.15 133.13 24.9 133.81 27.42 134.49 29.93 135.4 31.99 136.31 34.04 136.99 35.43 137.67 36.81" style="fill:none; stroke:#aaa; stroke-miterlimit:10; stroke-width:.5px;"/><polyline points="161.96 1.28 154.1 2.84 146.23 4.41 141.21 6.61 136.19 8.82 133.46 11.43 130.72 14.05 129.72 16.82 128.72 19.6 128.9 22.3 129.07 24.99 129.87 27.37 130.68 29.75 131.55 31.56 132.42 33.37 132.81 34.38 133.2 35.39" style="fill:none; stroke:#aaa; stroke-miterlimit:10; stroke-width:.5px;"/><polyline points="157.54 1.28 149.43 2.84 141.31 4.39 136.29 6.6 131.26 8.81 128.68 11.4 126.09 14 125.3 16.72 124.52 19.43 124.88 22.01 125.24 24.59 126.11 26.76 126.98 28.93 127.7 30.43 128.43 31.93 128.37 32.5 128.3 33.07" style="fill:none; stroke:#aaa; stroke-miterlimit:10; stroke-width:.5px;"/><polyline points="153.12 1.28 144.99 2.75 136.85 4.23 131.87 6.31 126.88 8.4 124.36 10.84 121.83 13.29 121.11 15.83 120.38 18.37 120.77 20.76 121.16 23.15 121.99 25.12 122.82 27.09 123.42 28.4 124.02 29.7 123.71 30.08 123.4 30.46" style="fill:none; stroke:#aaa; stroke-miterlimit:10; stroke-width:.5px;"/><polyline points="148.44 1.28 140.34 2.67 132.25 4.06 127.31 6.03 122.37 8 119.9 10.29 117.44 12.59 116.74 14.97 116.05 17.35 116.45 19.56 116.84 21.78 118.13 24.74 119.41 27.7 118.92 27.96 118.43 28.21" style="fill:none; stroke:#aaa; stroke-miterlimit:10; stroke-width:.5px;"/><polyline points="143.27 1.28 135.25 2.62 127.22 3.96 122.36 5.84 117.49 7.73 115.09 9.93 112.68 12.13 112.03 14.4 111.38 16.67 111.78 18.78 112.19 20.88 112.95 22.57 113.71 24.27 114.12 25.31 114.54 26.36 113.9 26.52 113.26 26.68" style="fill:none; stroke:#aaa; stroke-miterlimit:10; stroke-width:.5px;"/><polyline points="137.5 1.28 129.56 2.61 121.62 3.94 116.85 5.82 112.08 7.7 109.76 9.88 107.43 12.06 106.85 14.31 106.26 16.56 106.71 18.63 107.15 20.69 107.9 22.33 108.65 23.98 109 24.95 109.35 25.93 108.59 25.99 107.83 26.06" style="fill:none; stroke:#aaa; stroke-miterlimit:10; stroke-width:.5px;"/><polyline points="131.08 1.28 123.25 2.65 115.43 4.02 110.77 5.96 106.12 7.91 103.9 10.17 101.69 12.42 101.19 14.74 100.69 17.05 101.19 19.17 101.69 21.28 102.46 22.94 103.23 24.59 103.55 25.53 103.87 26.46 103.01 26.43 102.15 26.39" style="fill:none; stroke:#aaa; stroke-miterlimit:10; stroke-width:.5px;"/><polyline points="124.08 1.28 116.38 2.74 108.69 4.2 104.17 6.29 99.65 8.37 97.57 10.79 95.49 13.21 95.11 15.69 94.73 18.16 95.31 20.4 95.89 22.64 96.7 24.36 97.51 26.08 97.81 26.99 98.11 27.91 97.17 27.73 96.22 27.56" style="fill:none; stroke:#aaa; stroke-miterlimit:10; stroke-width:.5px;"/><polyline points="116.62 1.28 109.08 2.87 101.54 4.47 97.17 6.75 92.81 9.04 90.88 11.7 88.95 14.35 88.7 17.05 88.46 19.76 89.14 22.18 89.83 24.61 90.7 26.43 91.56 28.26 91.87 29.16 92.17 30.06 91.16 29.71 90.15 29.36" style="fill:none; stroke:#aaa; stroke-miterlimit:10; stroke-width:.5px;"/><polyline points="108.87 1.28 101.5 3.03 94.12 4.79 89.93 7.32 85.74 9.85 83.97 12.79 82.2 15.73 82.09 18.71 81.98 21.69 82.78 24.35 83.58 27 84.52 28.96 85.46 30.91 85.79 31.8 86.12 32.69 85.08 32.14 84.03 31.59" style="fill:none; stroke:#aaa; stroke-miterlimit:10; stroke-width:.5px;"/><polyline points="100.93 1.28 93.75 3.21 86.57 5.14 82.56 7.95 78.55 10.75 76.94 14.01 75.34 17.27 75.37 20.57 75.41 23.86 76.32 26.76 77.23 29.67 78.25 31.76 79.28 33.86 79.65 34.73 80.01 35.59 78.96 34.81 77.91 34.02" style="fill:none; stroke:#aaa; stroke-miterlimit:10; stroke-width:.5px;"/><polyline points="92.98 1.28 85.99 3.39 79.01 5.5 75.18 8.58 71.35 11.66 69.92 15.23 68.48 18.8 68.66 22.39 68.84 25.99 69.87 29.13 70.9 32.27 72.41 35.31 73.93 38.35 72.88 37.3 71.83 36.25" style="fill:none; stroke:#aaa; stroke-miterlimit:10; stroke-width:.5px;"/><polyline points="85.16 1.28 78.37 3.56 71.59 5.84 67.94 9.17 64.29 12.49 63.02 16.35 61.74 20.2 62.06 24.06 62.38 27.92 63.52 31.26 64.65 34.61 65.84 36.92 67.02 39.23 67.48 39.98 67.93 40.74 66.88 39.42 65.83 38.1" style="fill:none; stroke:#aaa; stroke-miterlimit:10; stroke-width:.5px;"/><polyline points="77.63 1.28 71.05 3.7 64.47 6.12 60.99 9.65 57.52 13.18 56.38 17.26 55.24 21.35 55.67 25.43 56.1 29.51 57.32 33.02 58.55 36.54 59.8 38.93 61.05 41.32 61.56 42.03 62.07 42.73 61.07 41.2 60.07 39.66" style="fill:none; stroke:#aaa; stroke-miterlimit:10; stroke-width:.5px;"/><polyline points="70.49 1.28 64.11 3.81 57.73 6.33 54.42 10.02 51.1 13.71 50.08 17.97 49.06 22.23 49.58 26.48 50.1 30.72 51.39 34.36 52.68 37.99 53.98 40.43 55.28 42.87 55.83 43.52 56.38 44.16 55.42 42.43 54.45 40.7" style="fill:none; stroke:#aaa; stroke-miterlimit:10; stroke-width:.5px;"/><polyline points="63.87 1.28 57.68 3.87 51.49 6.46 48.31 10.24 45.13 14.02 44.21 18.38 43.29 22.75 43.87 27.08 44.45 31.42 45.78 35.12 47.11 38.82 48.44 41.26 49.77 43.71 50.34 44.29 50.9 44.87 49.96 42.98 49.02 41.09" style="fill:none; stroke:#aaa; stroke-miterlimit:10; stroke-width:.5px;"/><polyline points="57.88 1.28 51.85 3.88 45.83 6.48 42.76 10.28 39.69 14.08 38.84 18.46 37.99 22.84 38.61 27.18 39.23 31.52 40.58 35.2 41.92 38.88 43.24 41.29 44.56 43.69 45.11 44.19 45.67 44.69 44.71 42.67 43.75 40.66" style="fill:none; stroke:#aaa; stroke-miterlimit:10; stroke-width:.5px;"/><polyline points="52.56 1.28 46.67 3.84 40.78 6.39 37.81 10.12 34.83 13.85 34.02 18.15 33.22 22.45 33.84 26.7 34.47 30.95 35.8 34.54 37.12 38.13 38.4 40.43 39.68 42.74 40.18 43.15 40.68 43.56 39.66 41.45 38.64 39.35" style="fill:none; stroke:#aaa; stroke-miterlimit:10; stroke-width:.5px;"/><polyline points="47.86 1.28 42.09 3.73 36.32 6.18 33.41 9.76 30.49 13.35 29.7 17.47 28.91 21.59 29.52 25.66 30.12 29.73 31.4 33.14 32.67 36.56 33.87 38.72 35.08 40.89 35.5 41.21 35.91 41.54 34.81 39.43 33.7 37.31" style="fill:none; stroke:#aaa; stroke-miterlimit:10; stroke-width:.5px;"/><polyline points="43.63 1.28 37.96 3.58 32.3 5.89 29.43 9.25 26.56 12.62 25.76 16.49 24.97 20.36 25.53 24.17 26.09 27.98 27.28 31.17 28.48 34.36 29.59 36.36 30.7 38.35 31 38.6 31.31 38.85 30.1 36.78 28.88 34.71" style="fill:none; stroke:#aaa; stroke-miterlimit:10; stroke-width:.5px;"/><polyline points="39.63 1.28 34.07 3.41 28.5 5.54 25.67 8.65 22.83 11.77 22.02 15.34 21.2 18.92 21.7 22.43 22.2 25.94 23.3 28.87 24.4 31.8 25.4 33.62 26.4 35.44 26.6 35.62 26.79 35.81 25.46 33.84 24.14 31.86" style="fill:none; stroke:#aaa; stroke-miterlimit:10; stroke-width:.5px;"/><polyline points="35.6 1.28 30.14 3.23 24.68 5.19 21.88 8.04 19.08 10.9 18.24 14.18 17.4 17.45 17.84 20.67 18.27 23.88 19.28 26.55 20.29 29.23 21.19 30.87 22.08 32.52 22.16 32.66 22.25 32.79 20.82 30.94 19.4 29.09" style="fill:none; stroke:#aaa; stroke-miterlimit:10; stroke-width:.5px;"/><polyline points="31.27 1.28 25.93 3.08 20.59 4.88 17.83 7.51 15.08 10.13 14.23 13.15 13.38 16.16 13.75 19.12 14.13 22.07 15.06 24.52 15.99 26.97 16.8 28.48 17.6 29.98 17.6 30.09 17.6 30.2 16.12 28.47 14.64 26.74" style="fill:none; stroke:#aaa; stroke-miterlimit:10; stroke-width:.5px;"/><polyline points="26.41 1.28 21.21 2.97 16.01 4.66 13.32 7.12 10.63 9.59 9.79 12.42 8.95 15.25 9.29 18.01 9.64 20.78 10.51 23.07 11.39 25.37 12.13 26.76 12.87 28.16 12.82 28.24 12.77 28.32 11.26 26.67 9.76 25.02" style="fill:none; stroke:#aaa; stroke-miterlimit:10; stroke-width:.5px;"/><polyline points="20.87 1.28 15.83 2.92 10.79 4.56 8.2 6.96 5.6 9.35 4.8 12.09 4 14.84 4.35 17.52 4.7 20.2 5.55 22.41 6.41 24.62 7.12 25.95 7.83 27.28 7.75 27.32 7.68 27.36 6.17 25.7 4.66 24.05" style="fill:none; stroke:#aaa; stroke-miterlimit:10; stroke-width:.5px;"/><polyline points="14.62 1.28 9.76 2.94 4.91 4.6 2.44 7.02 -.04 9.44 -.76 12.21 -1.48 14.99 -1.09 17.69 -.7 20.39 .17 22.6 1.04 24.81 1.75 26.11 2.47 27.41 2.4 27.39 2.32 27.37 .82 25.6 -.67 23.84" style="fill:none; stroke:#aaa; stroke-miterlimit:10; stroke-width:.5px;"/><polyline points="7.74 1.28 3.09 3.02 -1.56 4.75 -3.88 7.29 -6.2 9.83 -6.82 12.73 -7.44 15.63 -6.98 18.44 -6.52 21.25 -5.6 23.54 -4.68 25.83 -3.93 27.14 -3.18 28.46 -3.21 28.36 -3.24 28.26 -4.69 26.3 -6.13 24.35" style="fill:none; stroke:#aaa; stroke-miterlimit:10; stroke-width:.5px;"/><polyline points=".36 1.28 -4.05 3.14 -8.47 5 -10.62 7.72 -12.77 10.44 -13.27 13.54 -13.77 16.64 -13.21 19.64 -12.66 22.64 -11.67 25.07 -10.68 27.49 -9.86 28.85 -9.04 30.21 -9 30.02 -8.95 29.84 -10.29 27.63 -11.63 25.43" style="fill:none; stroke:#aaa; stroke-miterlimit:10; stroke-width:.5px;"/></svg>