<?xml version="1.0" encoding="UTF-8"?>
<svg id="Ebene_1" xmlns="http://www.w3.org/2000/svg" width="222" height="222" viewBox="0 0 222 222">
  <polyline points="222 .91 214.84 1.49 207.68 2.07 202.32 2.84 196.97 3.61 193.17 4.52 189.38 5.42 186.91 6.43 184.44 7.43 183.05 8.49 181.66 9.54 181.11 10.6 180.56 11.66 180.62 12.67 180.67 13.69 181.08 14.61 181.49 15.54" fill="none" stroke="#aaa" stroke-miterlimit="10" stroke-width=".5"/>
  <polyline points="214.04 .91 206.68 1.59 199.31 2.28 193.93 3.19 188.55 4.11 184.87 5.2 181.18 6.29 178.92 7.49 176.65 8.69 175.51 9.94 174.38 11.19 174.1 12.43 173.81 13.66 174.1 14.83 174.39 15.99 174.96 17.02 175.53 18.05" fill="none" stroke="#aaa" stroke-miterlimit="10" stroke-width=".5"/>
  <polyline points="206.1 .91 198.62 1.7 191.14 2.48 185.78 3.55 180.42 4.62 176.86 5.89 173.31 7.17 171.24 8.56 169.17 9.96 168.27 11.41 167.36 12.85 167.31 14.26 167.26 15.68 167.73 16.98 168.21 18.28 168.9 19.4 169.59 20.51" fill="none" stroke="#aaa" stroke-miterlimit="10" stroke-width=".5"/>
  <polyline points="198.34 .91 190.81 1.79 183.29 2.68 177.99 3.88 172.69 5.09 169.26 6.54 165.84 7.98 163.95 9.56 162.06 11.14 161.35 12.76 160.65 14.39 160.78 15.96 160.91 17.53 161.53 18.95 162.16 20.37 162.92 21.55 163.69 22.73" fill="none" stroke="#aaa" stroke-miterlimit="10" stroke-width=".5"/>
  <polyline points="190.89 .91 183.36 1.88 175.83 2.84 170.61 4.17 165.38 5.51 162.09 7.1 158.79 8.69 157.06 10.43 155.33 12.17 154.79 13.95 154.26 15.72 154.54 17.42 154.82 19.13 155.56 20.64 156.3 22.16 157.12 23.38 157.93 24.6" fill="none" stroke="#aaa" stroke-miterlimit="10" stroke-width=".5"/>
  <polyline points="183.9 .91 176.38 1.95 168.85 2.98 163.69 4.41 158.54 5.85 155.37 7.56 152.2 9.28 150.61 11.14 149.03 13.01 148.64 14.91 148.25 16.8 148.67 18.6 149.08 20.4 149.91 21.98 150.73 23.55 151.57 24.78 152.42 26" fill="none" stroke="#aaa" stroke-miterlimit="10" stroke-width=".5"/>
  <polyline points="177.5 .91 169.99 1.99 162.47 3.06 157.38 4.56 152.3 6.07 149.23 7.86 146.17 9.65 144.71 11.6 143.25 13.55 142.98 15.52 142.72 17.48 143.23 19.33 143.75 21.18 144.63 22.77 145.51 24.36 146.34 25.55 147.17 26.75" fill="none" stroke="#aaa" stroke-miterlimit="10" stroke-width=".5"/>
  <polyline points="171.76 .91 164.21 2.01 156.67 3.11 151.63 4.65 146.59 6.19 143.63 8.02 140.66 9.86 139.32 11.84 137.98 13.83 137.84 15.82 137.69 17.8 138.29 19.65 138.89 21.49 139.8 23.05 140.72 24.6 141.5 25.72 142.28 26.84" fill="none" stroke="#aaa" stroke-miterlimit="10" stroke-width=".5"/>
  <polyline points="166.62 .91 159.01 2.01 151.4 3.11 146.4 4.65 141.39 6.2 138.52 8.04 135.64 9.88 134.42 11.85 133.2 13.83 133.17 15.79 133.13 17.75 133.81 19.54 134.49 21.33 135.4 22.8 136.31 24.27 136.99 25.25 137.67 26.24" fill="none" stroke="#aaa" stroke-miterlimit="10" stroke-width=".5"/>
  <polyline points="161.96 .91 154.1 2.03 146.23 3.14 141.21 4.71 136.19 6.29 133.46 8.15 130.72 10.01 129.72 11.99 128.72 13.97 128.9 15.89 129.07 17.81 129.87 19.51 130.68 21.2 131.55 22.5 132.42 23.79 132.81 24.51 133.2 25.23" fill="none" stroke="#aaa" stroke-miterlimit="10" stroke-width=".5"/>
  <polyline points="157.54 .91 149.43 2.02 141.31 3.13 136.29 4.71 131.26 6.28 128.68 8.13 126.09 9.98 125.3 11.91 124.52 13.85 124.88 15.69 125.24 17.52 126.11 19.07 126.98 20.62 127.7 21.69 128.43 22.76 128.37 23.17 128.3 23.57" fill="none" stroke="#aaa" stroke-miterlimit="10" stroke-width=".5"/>
  <polyline points="153.12 .91 144.99 1.96 136.85 3.01 131.87 4.5 126.88 5.99 124.36 7.73 121.83 9.47 121.11 11.28 120.38 13.1 120.77 14.8 121.16 16.5 121.99 17.91 122.82 19.31 123.42 20.24 124.02 21.17 123.71 21.44 123.4 21.71" fill="none" stroke="#aaa" stroke-miterlimit="10" stroke-width=".5"/>
  <polyline points="148.44 .91 140.34 1.9 132.25 2.9 127.31 4.3 122.37 5.7 119.9 7.34 117.44 8.97 116.74 10.67 116.05 12.36 116.45 13.94 116.84 15.52 118.13 17.64 119.41 19.75 118.92 19.93 118.43 20.11" fill="none" stroke="#aaa" stroke-miterlimit="10" stroke-width=".5"/>
  <polyline points="143.27 .91 135.25 1.87 127.22 2.82 122.36 4.17 117.49 5.51 115.09 7.08 112.68 8.65 112.03 10.27 111.38 11.88 111.78 13.38 112.19 14.88 112.95 16.09 113.71 17.3 114.12 18.04 114.54 18.79 113.9 18.91 113.26 19.02" fill="none" stroke="#aaa" stroke-miterlimit="10" stroke-width=".5"/>
  <polyline points="137.5 .91 129.56 1.86 121.62 2.81 116.85 4.15 112.08 5.49 109.76 7.04 107.43 8.6 106.85 10.2 106.26 11.8 106.71 13.28 107.15 14.75 107.9 15.92 108.65 17.09 109 17.79 109.35 18.48 108.59 18.53 107.83 18.57" fill="none" stroke="#aaa" stroke-miterlimit="10" stroke-width=".5"/>
  <polyline points="131.08 .91 123.25 1.89 115.43 2.87 110.77 4.25 106.12 5.64 103.9 7.25 101.69 8.86 101.19 10.51 100.69 12.16 101.19 13.66 101.69 15.17 102.46 16.35 103.23 17.53 103.55 18.2 103.87 18.86 103.01 18.84 102.15 18.81" fill="none" stroke="#aaa" stroke-miterlimit="10" stroke-width=".5"/>
  <polyline points="124.08 .91 116.38 1.96 108.69 3 104.17 4.48 99.65 5.97 97.57 7.69 95.49 9.42 95.11 11.18 94.73 12.94 95.31 14.54 95.89 16.14 96.7 17.36 97.51 18.59 97.81 19.24 98.11 19.89 97.17 19.77 96.22 19.64" fill="none" stroke="#aaa" stroke-miterlimit="10" stroke-width=".5"/>
  <polyline points="116.62 .91 109.08 2.05 101.54 3.18 97.17 4.81 92.81 6.44 90.88 8.34 88.95 10.23 88.7 12.16 88.46 14.08 89.14 15.81 89.83 17.54 90.7 18.84 91.56 20.14 91.87 20.78 92.17 21.42 91.16 21.18 90.15 20.93" fill="none" stroke="#aaa" stroke-miterlimit="10" stroke-width=".5"/>
  <polyline points="108.87 .91 101.5 2.16 94.12 3.41 89.93 5.22 85.74 7.02 83.97 9.12 82.2 11.21 82.09 13.34 81.98 15.46 82.78 17.35 83.58 19.25 84.52 20.64 85.46 22.03 85.79 22.67 86.12 23.3 85.08 22.91 84.03 22.52" fill="none" stroke="#aaa" stroke-miterlimit="10" stroke-width=".5"/>
  <polyline points="100.93 .91 93.75 2.29 86.57 3.67 82.56 5.67 78.55 7.67 76.94 9.99 75.34 12.31 75.37 14.66 75.41 17.01 76.32 19.08 77.23 21.15 78.25 22.64 79.28 24.14 79.65 24.75 80.01 25.37 78.96 24.81 77.91 24.25" fill="none" stroke="#aaa" stroke-miterlimit="10" stroke-width=".5"/>
  <polyline points="92.98 .91 85.99 2.42 79.01 3.92 75.18 6.12 71.35 8.31 69.92 10.86 68.48 13.4 68.66 15.96 68.84 18.52 69.87 20.76 70.9 23 72.41 25.17 73.93 27.33 72.88 26.59 71.83 25.84" fill="none" stroke="#aaa" stroke-miterlimit="10" stroke-width=".5"/>
  <polyline points="85.16 .91 78.37 2.54 71.59 4.16 67.94 6.53 64.29 8.9 63.02 11.65 61.74 14.4 62.06 17.15 62.38 19.9 63.52 22.28 64.65 24.67 65.84 26.31 67.02 27.96 67.48 28.5 67.93 29.04 66.88 28.1 65.83 27.16" fill="none" stroke="#aaa" stroke-miterlimit="10" stroke-width=".5"/>
  <polyline points="77.63 .91 71.05 2.64 64.47 4.36 60.99 6.88 57.52 9.39 56.38 12.31 55.24 15.22 55.67 18.13 56.1 21.03 57.32 23.54 58.55 26.04 59.8 27.75 61.05 29.45 61.56 29.96 62.07 30.46 61.07 29.37 60.07 28.27" fill="none" stroke="#aaa" stroke-miterlimit="10" stroke-width=".5"/>
  <polyline points="70.49 .92 64.11 2.71 57.73 4.51 54.42 7.14 51.1 9.77 50.08 12.81 49.06 15.85 49.58 18.87 50.1 21.9 51.39 24.49 52.68 27.08 53.98 28.82 55.28 30.56 55.83 31.02 56.38 31.48 55.42 30.24 54.45 29.01" fill="none" stroke="#aaa" stroke-miterlimit="10" stroke-width=".5"/>
  <polyline points="63.87 .92 57.68 2.76 51.49 4.6 48.31 7.3 45.13 9.99 44.21 13.1 43.29 16.21 43.87 19.31 44.45 22.4 45.78 25.03 47.11 27.67 48.44 29.41 49.77 31.15 50.34 31.57 50.9 31.98 49.96 30.63 49.02 29.29" fill="none" stroke="#aaa" stroke-miterlimit="10" stroke-width=".5"/>
  <polyline points="57.88 .92 51.85 2.77 45.83 4.62 42.76 7.33 39.69 10.03 38.84 13.16 37.99 16.28 38.61 19.37 39.23 22.47 40.58 25.09 41.92 27.72 43.24 29.43 44.56 31.14 45.11 31.5 45.67 31.86 44.71 30.42 43.75 28.98" fill="none" stroke="#aaa" stroke-miterlimit="10" stroke-width=".5"/>
  <polyline points="52.56 .92 46.67 2.73 40.78 4.55 37.81 7.21 34.83 9.87 34.02 12.94 33.22 16 33.84 19.03 34.47 22.06 35.8 24.62 37.12 27.18 38.4 28.82 39.68 30.46 40.18 30.75 40.68 31.05 39.66 29.55 38.64 28.05" fill="none" stroke="#aaa" stroke-miterlimit="10" stroke-width=".5"/>
  <polyline points="47.86 .91 42.09 2.66 36.32 4.41 33.41 6.96 30.49 9.51 29.7 12.45 28.91 15.39 29.52 18.29 30.12 21.19 31.4 23.62 32.67 26.06 33.87 27.6 35.08 29.15 35.5 29.38 35.91 29.61 34.81 28.1 33.7 26.6" fill="none" stroke="#aaa" stroke-miterlimit="10" stroke-width=".5"/>
  <polyline points="43.63 .91 37.96 2.56 32.3 4.2 29.43 6.6 26.56 9 25.76 11.76 24.97 14.52 25.53 17.23 26.09 19.95 27.28 22.22 28.48 24.49 29.59 25.91 30.7 27.34 31 27.51 31.31 27.69 30.1 26.22 28.88 24.74" fill="none" stroke="#aaa" stroke-miterlimit="10" stroke-width=".5"/>
  <polyline points="39.63 .91 34.07 2.43 28.5 3.95 25.67 6.17 22.83 8.39 22.02 10.94 21.2 13.48 21.7 15.99 22.2 18.49 23.3 20.58 24.4 22.67 25.4 23.96 26.4 25.26 26.6 25.39 26.79 25.52 25.46 24.12 24.14 22.71" fill="none" stroke="#aaa" stroke-miterlimit="10" stroke-width=".5"/>
  <polyline points="35.6 .91 30.14 2.31 24.68 3.7 21.88 5.73 19.08 7.77 18.24 10.1 17.4 12.44 17.84 14.73 18.27 17.02 19.28 18.93 20.29 20.83 21.19 22 22.08 23.18 22.16 23.28 22.25 23.38 20.82 22.06 19.4 20.74" fill="none" stroke="#aaa" stroke-miterlimit="10" stroke-width=".5"/>
  <polyline points="31.27 .91 25.93 2.2 20.59 3.48 17.83 5.35 15.08 7.22 14.23 9.37 13.38 11.52 13.75 13.63 14.13 15.73 15.06 17.48 15.99 19.23 16.8 20.3 17.6 21.37 17.6 21.45 17.6 21.52 16.12 20.29 14.64 19.06" fill="none" stroke="#aaa" stroke-miterlimit="10" stroke-width=".5"/>
  <polyline points="26.41 .91 21.21 2.12 16.01 3.32 13.32 5.08 10.63 6.84 9.79 8.85 8.95 10.87 9.29 12.84 9.64 14.81 10.51 16.45 11.39 18.08 12.13 19.08 12.87 20.07 12.82 20.13 12.77 20.19 11.26 19.01 9.76 17.83" fill="none" stroke="#aaa" stroke-miterlimit="10" stroke-width=".5"/>
  <polyline points="20.87 .91 15.83 2.08 10.79 3.25 8.2 4.96 5.6 6.67 4.8 8.62 4 10.58 4.35 12.49 4.7 14.4 5.55 15.97 6.41 17.55 7.12 18.5 7.83 19.44 7.75 19.47 7.68 19.5 6.17 18.32 4.66 17.14" fill="none" stroke="#aaa" stroke-miterlimit="10" stroke-width=".5"/>
  <polyline points="2.47 19.54 2.4 19.52 2.32 19.51" fill="none" stroke="#aaa" stroke-miterlimit="10" stroke-width=".5"/>
  <polyline points="14.62 .91 9.76 2.09 4.91 3.28" fill="none" stroke="#aaa" stroke-miterlimit="10" stroke-width=".5"/>
</svg>