<?xml version="1.0" encoding="UTF-8"?>
<svg id="Ebene_1" xmlns="http://www.w3.org/2000/svg" width="222" height="222" viewBox="0 0 222 222">
  <polyline points="219.9 5.69 218.41 9.77 217.91 14.09 218.14 19 218.95 23.86" fill="none" stroke="#aaa" stroke-miterlimit="10" stroke-width=".5"/>
  <polyline points="219.16 .14 215.73 2.47 213.35 5.87 212.04 10.13 211.67 14.58 212.01 19.7 212.88 24.75 214.17 29.85 215.75 34.86 217.31 39.15 219.02 43.38" fill="none" stroke="#aaa" stroke-miterlimit="10" stroke-width=".5"/>
  <polyline points="212.77 .14 209.57 2.53 207.44 5.91 206.28 10.24 206.01 14.71 206.41 19.9 207.32 25.02 208.63 30.2 210.22 35.3 211.79 39.7 213.52 44.04 214.76 46.9 216.08 49.71 216.48 50.51 216.71 50.79 215.53 48.27 214.27 45.76" fill="none" stroke="#aaa" stroke-miterlimit="10" stroke-width=".5"/>
  <polyline points="207.07 .14 204.07 2.52 202.14 5.83 201.1 10.1 200.89 14.5 201.33 19.62 202.25 24.68 203.54 29.81 205.1 34.86 206.65 39.24 208.36 43.55 209.6 46.44 210.93 49.27 211.36 50.1 211.72 50.52 210.72 48.14 209.63 45.8 213.8 46.76 218 47.52" fill="none" stroke="#aaa" stroke-miterlimit="10" stroke-width=".5"/>
  <polyline points="201.92 .14 199.12 2.45 197.34 5.63 196.39 9.76 196.24 14.01 196.68 18.96 197.57 23.84 198.82 28.8 200.32 33.69 201.82 37.94 203.47 42.13 204.68 44.95 205.98 47.71 206.41 48.54 206.83 49.01 205.96 46.78 204.99 44.59 208.97 45.49 212.99 46.19 216.13 46.54 219.29 46.65" fill="none" stroke="#aaa" stroke-miterlimit="10" stroke-width=".5"/>
  <polyline points="197.19 .14 194.57 2.34 192.92 5.35 192.05 9.28 191.91 13.3 192.34 18 193.19 22.64 194.38 27.35 195.8 31.99 197.22 36.03 198.78 40.01 199.93 42.7 201.17 45.34 201.59 46.14 202.02 46.61 201.24 44.53 200.35 42.47 204.13 43.32 207.93 43.97 210.91 44.29 213.9 44.38 216.23 44.21 218.52 43.78" fill="none" stroke="#aaa" stroke-miterlimit="10" stroke-width=".5"/>
  <polyline points="192.72 .14 190.29 2.21 188.76 5.02 187.94 8.69 187.82 12.45 188.22 16.84 189.01 21.18 190.12 25.59 191.45 29.93 192.78 33.71 194.23 37.43 195.31 39.95 196.47 42.41 196.86 43.16 197.26 43.61 196.53 41.66 195.71 39.75 199.26 40.54 202.85 41.15 205.64 41.45 208.45 41.52 210.63 41.35 212.77 40.93 214.47 40.33 216.06 39.47 217.39 38.44 218.57 37.23 219.63 35.81 220.54 34.29" fill="none" stroke="#aaa" stroke-miterlimit="10" stroke-width=".5"/>
  <polyline points="188.4 .15 186.13 2.05 184.71 4.66 183.94 8.05 183.82 11.53 184.19 15.59 184.92 19.6 185.95 23.67 187.17 27.68 188.4 31.17 189.74 34.61 190.74 36.93 191.8 39.21 192.16 39.9 192.52 40.3 191.84 38.5 191.07 36.72 194.39 37.46 197.74 38.03 200.34 38.31 202.96 38.37 204.98 38.21 206.97 37.8 208.54 37.23 210.01 36.42 211.25 35.45 212.32 34.3 213.3 32.96 214.15 31.53 214.97 29.88 215.72 28.18 216.51 26.27 217.28 24.34" fill="none" stroke="#aaa" stroke-miterlimit="10" stroke-width=".5"/>
  <polyline points="184.04 .15 181.95 1.9 180.63 4.3 179.92 7.41 179.81 10.62 180.15 14.34 180.82 18.03 181.75 21.77 182.88 25.45 184.01 28.66 185.24 31.82 186.15 33.95 187.13 36.04 187.46 36.67 187.78 37.04 187.15 35.37 186.43 33.74 189.51 34.43 192.62 34.95 195.03 35.2 197.45 35.25 199.32 35.1 201.16 34.71 202.61 34.17 203.96 33.41 205.09 32.5 206.08 31.42 206.98 30.16 207.75 28.82 208.51 27.27 209.2 25.69 209.94 23.9 210.66 22.1" fill="none" stroke="#aaa" stroke-miterlimit="10" stroke-width=".5"/>
  <polyline points="179.49 .15 177.58 1.77 176.38 3.97 175.74 6.84 175.64 9.79 175.95 13.22 176.57 16.61 177.44 20.06 178.48 23.45 179.51 26.4 180.65 29.31 181.49 31.28 182.39 33.21 182.7 33.79 183.01 34.15 182.44 32.63 181.79 31.13 184.64 31.77 187.51 32.25 189.74 32.47 191.97 32.5 193.69 32.35 195.38 31.98 196.72 31.46 197.95 30.74 199 29.88 199.9 28.87 200.73 27.68 201.44 26.43 202.14 24.97 202.78 23.49 203.47 21.82 204.14 20.13" fill="none" stroke="#aaa" stroke-miterlimit="10" stroke-width=".5"/>
  <polyline points="174.61 .16 172.89 1.67 171.83 3.71 171.27 6.38 171.2 9.12 171.51 12.31 172.09 15.47 172.9 18.68 173.87 21.85 174.83 24.6 175.89 27.32 176.69 29.18 177.54 30.99 177.84 31.56 178.17 31.92 177.7 30.55 177.15 29.21 179.77 29.77 182.42 30.2 184.47 30.38 186.53 30.39 188.12 30.22 189.68 29.85 190.91 29.35 192.05 28.66 193.02 27.83 193.86 26.87 194.62 25.74 195.29 24.55 195.94 23.18 196.54 21.78 197.18 20.2 197.81 18.61" fill="none" stroke="#aaa" stroke-miterlimit="10" stroke-width=".5"/>
  <polyline points="169.31 .16 167.79 1.61 166.89 3.53 166.44 6.07 166.41 8.66 166.73 11.7 167.3 14.7 168.08 17.76 168.99 20.78 169.91 23.42 170.93 26.02 171.69 27.82 172.53 29.58 172.85 30.16 173.25 30.58 172.94 29.35 172.51 28.15 174.92 28.65 177.36 29.01 179.26 29.15 181.16 29.12 182.64 28.93 184.08 28.54 185.23 28.04 186.29 27.35 187.2 26.54 187.99 25.61 188.72 24.52 189.35 23.37 189.97 22.05 190.54 20.7 191.14 19.19 191.74 17.67" fill="none" stroke="#aaa" stroke-miterlimit="10" stroke-width=".5"/>
  <polyline points="163.5 .15 162.21 1.61 161.51 3.44 161.17 5.93 161.22 8.45 161.58 11.42 162.16 14.35 162.92 17.35 163.82 20.31 164.72 22.92 165.71 25.5 166.49 27.31 167.35 29.07 167.73 29.72 168.23 30.2 168.14 29.12 167.87 28.05 170.1 28.48 172.35 28.77 174.12 28.85 175.88 28.77 177.28 28.55 178.62 28.13 179.72 27.6 180.73 26.9 181.6 26.08 182.36 25.15 183.06 24.06 183.67 22.92 184.28 21.62 184.84 20.29 185.42 18.8 186 17.31" fill="none" stroke="#aaa" stroke-miterlimit="10" stroke-width=".5"/>
  <polyline points="157.2 .15 156.16 1.66 155.67 3.45 155.48 5.96 155.62 8.48 156.04 11.47 156.65 14.43 157.43 17.47 158.34 20.47 159.25 23.13 160.26 25.75 161.07 27.64 161.99 29.46 162.47 30.22 163.12 30.77 163.33 29.85 163.23 28.84 165.31 29.21 167.4 29.44 169.07 29.47 170.72 29.34 172.05 29.06 173.33 28.61 174.4 28.03 175.36 27.3 176.22 26.43 176.97 25.47 177.67 24.36 178.28 23.19 178.89 21.86 179.45 20.52 180.03 19.01 180.6 17.51" fill="none" stroke="#aaa" stroke-miterlimit="10" stroke-width=".5"/>
  <polyline points="150.44 .14 149.69 1.76 149.41 3.53 149.4 6.13 149.65 8.72 150.15 11.8 150.82 14.86 151.64 18 152.57 21.1 153.52 23.88 154.57 26.62 155.45 28.62 156.47 30.55 157.08 31.44 157.92 32.07 158.47 31.32 158.59 30.33 160.53 30.66 162.49 30.84 164.08 30.83 165.64 30.64 166.93 30.31 168.16 29.8 169.22 29.16 170.17 28.38 171.03 27.45 171.79 26.43 172.5 25.26 173.13 24.03 173.76 22.65 174.33 21.25 174.92 19.69 175.5 18.13" fill="none" stroke="#aaa" stroke-miterlimit="10" stroke-width=".5"/>
  <polyline points="143.31 .13 142.88 1.87 142.81 3.68 143 6.4 143.37 9.11 143.98 12.33 144.72 15.52 145.6 18.81 146.58 22.06 147.58 24.97 148.7 27.84 149.67 29.96 150.81 31.98 151.59 32.98 152.65 33.61 153.55 32.96 153.95 31.86 155.77 32.23 157.62 32.43 159.13 32.43 160.63 32.24 161.9 31.89 163.09 31.36 164.15 30.68 165.1 29.87 165.98 28.89 166.76 27.83 167.5 26.6 168.16 25.32 168.81 23.87 169.41 22.41 170.03 20.79 170.62 19.16" fill="none" stroke="#aaa" stroke-miterlimit="10" stroke-width=".5"/>
  <polyline points="135.94 .1 135.87 1.98 136.01 3.87 136.4 6.75 136.91 9.62 137.63 13.03 138.45 16.41 139.4 19.89 140.45 23.33 141.52 26.42 142.72 29.46 143.79 31.72 145.08 33.86 146.05 34.98 147.34 35.63 148.57 35.03 149.31 33.83 151.01 34.22 152.74 34.44 154.19 34.44 155.63 34.25 156.87 33.89 158.04 33.35 159.1 32.64 160.05 31.79 160.96 30.78 161.76 29.67 162.53 28.39 163.23 27.06 163.92 25.56 164.55 24.04 165.19 22.36 165.8 20.67" fill="none" stroke="#aaa" stroke-miterlimit="10" stroke-width=".5"/>
  <polyline points="128.49 .08 128.76 2.81 129.13 5.53 129.71 8.92 130.38 12.31 131.2 15.98 132.12 19.62 133.13 23.16 134.27 26.66 135.39 29.68 136.7 32.62 137.87 34.75 139.32 36.69 140.52 37.69 142.01 38.07 143.56 37.32 144.67 35.96 146.23 36.37 147.83 36.6 149.19 36.61 150.54 36.43 151.74 36.07 152.87 35.54 153.93 34.83 154.88 33.99 155.8 32.97 156.62 31.87 157.42 30.59 158.14 29.26 158.86 27.76 159.52 26.23 160.18 24.55 160.81 22.85" fill="none" stroke="#aaa" stroke-miterlimit="10" stroke-width=".5"/>
  <polyline points="121.1 .07 121.68 3.44 122.3 6.8 123.06 10.62 123.89 14.42 124.82 18.33 125.84 22.22 126.91 25.86 128.12 29.45 129.31 32.46 130.71 35.37 131.98 37.44 133.57 39.27 135.01 40.18 136.69 40.39 138.57 39.5 140.03 38 141.46 38.43 142.94 38.66 144.22 38.68 145.49 38.5 146.66 38.14 147.75 37.6 148.79 36.88 149.73 36.04 150.66 35 151.49 33.89 152.32 32.59 153.07 31.24 153.82 29.72 154.5 28.16 155.19 26.47 155.83 24.75" fill="none" stroke="#aaa" stroke-miterlimit="10" stroke-width=".5"/>
  <polyline points="113.89 .06 114.78 3.84 115.64 7.62 116.58 11.73 117.55 15.84 118.58 19.95 119.68 24.03 120.81 27.78 122.08 31.48 123.32 34.54 124.8 37.49 126.17 39.56 127.89 41.33 129.54 42.22 131.4 42.32 133.59 41.35 135.39 39.75 136.7 40.18 138.05 40.42 139.26 40.44 140.45 40.26 141.57 39.89 142.61 39.34 143.63 38.61 144.56 37.75 145.49 36.7 146.33 35.57 147.17 34.24 147.93 32.87 148.7 31.33 149.41 29.75 150.11 28.03 150.78 26.29" fill="none" stroke="#aaa" stroke-miterlimit="10" stroke-width=".5"/>
  <polyline points="106.94 .06 108.12 4.12 109.21 8.21 110.32 12.54 111.42 16.88 112.53 21.13 113.71 25.36 114.88 29.2 116.2 32.98 117.48 36.08 119.02 39.05 120.47 41.14 122.3 42.88 124.14 43.73 126.17 43.78 128.64 42.74 130.75 41.06 131.93 41.5 133.16 41.74 134.28 41.76 135.38 41.57 136.44 41.19 137.43 40.64 138.42 39.89 139.32 39.02 140.24 37.95 141.06 36.81 141.91 35.47 142.68 34.08 143.46 32.52 144.18 30.93 144.9 29.2 145.57 27.44" fill="none" stroke="#aaa" stroke-miterlimit="10" stroke-width=".5"/>
  <polyline points="100.25 .05 101.7 4.32 103.02 8.63 104.28 13.11 105.51 17.6 106.7 21.95 107.93 26.28 109.13 30.17 110.48 34.01 111.79 37.12 113.37 40.1 114.89 42.19 116.81 43.9 118.81 44.73 120.98 44.72 123.72 43.64 126.11 41.9 127.15 42.34 128.25 42.58 129.27 42.6 130.27 42.41 131.27 42.01 132.19 41.46 133.13 40.7 133.99 39.83 134.88 38.75 135.69 37.6 136.52 36.25 137.29 34.86 138.07 33.3 138.79 31.7 139.52 29.97 140.2 28.21" fill="none" stroke="#aaa" stroke-miterlimit="10" stroke-width=".5"/>
  <polyline points="93.78 .05 95.5 4.45 97.02 8.93 98.44 13.5 99.77 18.09 101.02 22.49 102.3 26.88 103.53 30.79 104.9 34.64 106.22 37.76 107.83 40.72 109.4 42.8 111.39 44.46 113.54 45.26 115.84 45.21 118.81 44.08 121.47 42.31 122.36 42.74 123.33 42.99 124.24 43 125.14 42.8 126.05 42.4 126.89 41.85 127.78 41.08 128.59 40.21 129.44 39.13 130.22 37.99 131.03 36.64 131.78 35.25 132.55 33.69 133.27 32.1 133.99 30.37 134.68 28.63" fill="none" stroke="#aaa" stroke-miterlimit="10" stroke-width=".5"/>
  <polyline points="87.43 .05 89.41 4.54 91.14 9.13 92.7 13.75 94.14 18.41 95.45 22.82 96.77 27.24 98 31.13 99.39 34.96 100.72 38.03 102.35 40.95 103.96 42.97 106.01 44.53 108.31 45.24 110.72 45.08 113.93 43.82 116.83 41.93 117.57 42.4 118.39 42.69 119.19 42.73 119.98 42.57 120.81 42.2 121.56 41.68 122.39 40.93 123.13 40.09 123.94 39.03 124.68 37.91 125.47 36.58 126.19 35.22 126.94 33.68 127.65 32.12 128.36 30.42 129.04 28.7" fill="none" stroke="#aaa" stroke-miterlimit="10" stroke-width=".5"/>
  <polyline points="81.14 .05 83.36 4.59 85.31 9.26 87 13.91 88.54 18.61 89.91 23.03 91.27 27.45 92.52 31.32 93.91 35.13 95.24 38.16 96.9 41.01 98.55 42.98 100.65 44.44 103.1 45.04 105.61 44.77 109.05 43.37 112.19 41.36 112.77 41.86 113.46 42.19 114.13 42.26 114.79 42.13 115.53 41.76 116.18 41.26 116.93 40.52 117.6 39.7 118.35 38.64 119.04 37.54 119.78 36.22 120.46 34.87 121.18 33.34 121.86 31.8 122.56 30.11 123.22 28.41" fill="none" stroke="#aaa" stroke-miterlimit="10" stroke-width=".5"/>
  <polyline points="74.86 .05 77.34 4.58 79.49 9.28 81.32 13.93 82.97 18.64 84.39 23.05 85.78 27.47 87.05 31.32 88.45 35.12 89.78 38.11 91.45 40.92 93.15 42.84 95.3 44.22 97.88 44.74 100.5 44.37 104.18 42.84 107.55 40.71 107.99 41.27 108.57 41.69 109.15 41.83 109.73 41.76 110.39 41.45 110.98 41.01 111.68 40.31 112.31 39.54 113.03 38.52 113.69 37.45 114.41 36.16 115.08 34.85 115.79 33.34 116.47 31.82 117.16 30.15 117.82 28.46" fill="none" stroke="#aaa" stroke-miterlimit="10" stroke-width=".5"/>
  <polyline points="68.62 .05 71.35 4.57 73.71 9.29 75.67 13.92 77.42 18.64 78.9 23.04 80.32 27.45 81.6 31.27 83 35.04 84.34 38 86.02 40.76 87.76 42.64 89.97 43.93 92.68 44.35 95.4 43.89 99.3 42.23 102.91 39.98 103.23 40.62 103.7 41.15 104.16 41.36 104.67 41.36 105.27 41.11 105.8 40.72 106.46 40.06 107.04 39.33 107.73 38.33 108.37 37.3 109.07 36.02 109.74 34.72 110.44 33.23 111.12 31.71 111.81 30.04 112.47 28.36" fill="none" stroke="#aaa" stroke-miterlimit="10" stroke-width=".5"/>
  <polyline points="62.42 .05 65.39 4.54 67.95 9.28 70.05 13.9 71.9 18.62 73.43 22.99 74.89 27.39 76.17 31.18 77.58 34.92 78.92 37.82 80.61 40.53 82.4 42.36 84.64 43.56 87.48 43.88 90.31 43.33 94.43 41.53 98.27 39.17 98.47 39.89 98.82 40.54 99.17 40.83 99.62 40.9 100.15 40.71 100.62 40.37 101.23 39.75 101.78 39.06 102.45 38.08 103.06 37.07 103.76 35.8 104.41 34.51 105.12 33.01 105.79 31.49 106.49 29.81 107.15 28.12" fill="none" stroke="#aaa" stroke-miterlimit="10" stroke-width=".5"/>
  <polyline points="56.25 .05 59.46 4.52 62.23 9.26 64.46 13.85 66.4 18.57 67.99 22.91 69.48 27.28 70.77 31.03 72.18 34.73 73.51 37.59 75.22 40.23 77.05 42 79.33 43.11 82.3 43.33 85.23 42.68 89.57 40.75 93.63 38.27 93.72 39.08 93.93 39.86 94.17 40.21 94.55 40.38 95.02 40.25 95.43 39.96 96.01 39.37 96.52 38.72 97.16 37.76 97.76 36.76 98.45 35.5 99.09 34.21 99.8 32.7 100.47 31.17 101.18 29.47 101.84 27.76" fill="none" stroke="#aaa" stroke-miterlimit="10" stroke-width=".5"/>
  <polyline points="50.11 .05 53.55 4.48 56.54 9.23 58.89 13.79 60.94 18.49 62.57 22.8 64.09 27.14 65.38 30.84 66.79 34.5 68.13 37.3 69.84 39.87 71.71 41.58 74.03 42.58 77.12 42.69 80.15 41.95 84.7 39.88 88.99 37.28 88.96 38.2 89.04 39.1 89.17 39.51 89.48 39.8 89.88 39.74 90.23 39.5 90.77 38.94 91.25 38.32 91.87 37.37 92.45 36.39 93.13 35.12 93.77 33.83 94.48 32.31 95.16 30.77 95.86 29.05 96.54 27.32" fill="none" stroke="#aaa" stroke-miterlimit="10" stroke-width=".5"/>
  <polyline points="44.01 .05 47.69 4.44 50.89 9.19 53.37 13.7 55.51 18.38 57.19 22.64 58.74 26.95 60.03 30.59 61.44 34.19 62.77 36.93 64.49 39.43 66.4 41.07 68.74 41.96 71.95 41.95 75.07 41.11 79.84 38.9 84.35 36.18 84.2 37.21 84.14 38.25 84.18 38.71 84.38 39.13 84.72 39.14 85.01 38.95 85.51 38.43 85.95 37.84 86.55 36.91 87.11 35.95 87.79 34.68 88.43 33.39 89.14 31.85 89.82 30.3 90.53 28.56 91.21 26.81" fill="none" stroke="#aaa" stroke-miterlimit="10" stroke-width=".5"/>
  <polyline points="38.04 .05 41.94 4.38 45.35 9.1 47.94 13.55 50.18 18.19 51.9 22.38 53.47 26.63 54.76 30.2 56.16 33.72 57.47 36.38 59.19 38.78 61.13 40.33 63.5 41.11 66.82 40.97 70.02 40.02 74.99 37.67 79.71 34.83 79.42 35.99 79.21 37.16 79.17 37.7 79.26 38.23 79.5 38.33 79.75 38.19 80.21 37.71 80.61 37.17 81.19 36.26 81.73 35.32 82.4 34.06 83.03 32.77 83.75 31.23 84.42 29.67 85.14 27.92 85.81 26.15" fill="none" stroke="#aaa" stroke-miterlimit="10" stroke-width=".5"/>
  <polyline points="32.28 .05 36.39 4.28 40 8.94 42.7 13.28 45.02 17.84 46.77 21.92 48.35 26.07 49.63 29.53 51.01 32.94 52.3 35.48 54 37.76 55.97 39.2 58.33 39.84 61.74 39.55 65.02 38.5 70.16 35.99 75.07 33.03 74.64 34.34 74.26 35.65 74.12 36.29 74.08 36.94 74.2 37.14 74.42 37.06 74.83 36.63 75.18 36.15 75.74 35.27 76.25 34.37 76.91 33.12 77.53 31.86 78.24 30.32 78.92 28.77 79.63 27.02 80.29 25.26" fill="none" stroke="#aaa" stroke-miterlimit="10" stroke-width=".5"/>
  <polyline points="26.79 .06 31.1 4.13 34.9 8.68 37.69 12.86 40.08 17.29 41.85 21.21 43.43 25.21 44.68 28.5 46.03 31.75 47.28 34.14 48.94 36.25 50.93 37.55 53.26 38.02 56.73 37.56 60.06 36.38 65.36 33.72 70.43 30.65 69.82 32.1 69.27 33.57 69.02 34.33 68.83 35.11 68.83 35.35 69 35.42 69.35 35.06 69.65 34.66 70.17 33.83 70.65 32.98 71.29 31.78 71.9 30.55 72.59 29.05 73.25 27.52 73.95 25.8 74.61 24.05" fill="none" stroke="#aaa" stroke-miterlimit="10" stroke-width=".5"/>
  <polyline points="21.57 .07 26.05 3.94 30.03 8.32 32.91 12.29 35.36 16.52 37.14 20.23 38.7 24.03 39.91 27.11 41.21 30.15 42.4 32.35 44.01 34.24 46.01 35.35 48.28 35.62 51.8 34.95 55.16 33.63 60.57 30.79 65.79 27.6 64.99 29.23 64.24 30.87 63.85 31.78 63.52 32.7 63.44 32.99 63.48 33.24 63.77 32.98 64 32.67 64.48 31.92 64.93 31.15 65.54 30 66.12 28.84 66.8 27.39 67.44 25.91 68.12 24.24 68.75 22.54" fill="none" stroke="#aaa" stroke-miterlimit="10" stroke-width=".5"/>
  <polyline points="16.55 .08 21.19 3.66 25.36 7.78 28.29 11.48 30.81 15.46 32.57 18.91 34.12 22.45 35.28 25.29 36.51 28.09 37.64 30.06 39.19 31.72 41.18 32.6 43.38 32.66 46.92 31.75 50.29 30.27 55.81 27.22 61.15 23.87 60.14 25.71 59.17 27.56 58.63 28.64 58.13 29.74 57.98 30.15 57.89 30.57 58.1 30.45 58.27 30.24 58.7 29.59 59.11 28.92 59.69 27.86 60.25 26.78 60.9 25.4 61.52 24 62.17 22.4 62.76 20.76" fill="none" stroke="#aaa" stroke-miterlimit="10" stroke-width=".5"/>
  <polyline points="11.61 .09 16.41 3.35 20.76 7.17 23.75 10.55 26.33 14.25 28.08 17.41 29.6 20.67 30.7 23.23 31.86 25.75 32.93 27.47 34.4 28.83 36.4 29.43 38.5 29.23 42.06 28 45.44 26.3 51.05 22.94 56.51 19.35 55.27 21.46 54.07 23.58 53.37 24.89 52.71 26.21 52.45 26.81 52.25 27.44 52.33 27.56 52.48 27.43 52.88 26.93 53.23 26.39 53.79 25.45 54.31 24.49 54.95 23.22 55.53 21.92 56.15 20.4 56.71 18.87" fill="none" stroke="#aaa" stroke-miterlimit="10" stroke-width=".5"/>
  <polyline points="6.62 .1 11.56 3.04 16.1 6.56 19.15 9.61 21.79 13 23.52 15.8 25.03 18.73 26.06 20.89 27.18 23 28.19 24.29 29.59 25.1 31.65 25.04 33.6 24.31 37.18 22.26 40.58 19.92 46.27 15.62 51.87 11.19 50.4 13.91 49 16.65 48.12 18.5 47.31 20.37 46.91 21.44 46.61 22.54 46.55 22.97 46.67 23.37 47.02 23.28 47.31 23.04 47.83 22.43 48.3 21.76 48.9 20.75 49.45 19.71 50.04 18.42 50.55 17.1" fill="none" stroke="#aaa" stroke-miterlimit="10" stroke-width=".5"/>
  <polyline points="11.25 6.12 14.36 8.94 17.08 12.13 18.82 14.73 20.31 17.47 21.31 19.49 22.37 21.47 23.33 22.7 24.67 23.46 26.69 23.42 28.63 22.75 32.23 20.86 35.68 18.69 41.49 14.7 47.23 10.59 45.51 13.33 43.85 16.1 42.82 17.92 41.85 19.77 41.37 20.79 40.97 21.83 40.89 22.18 40.98 22.49 41.33 22.28 41.61 21.97 42.14 21.25 42.62 20.48 43.22 19.38 43.76 18.24 44.31 16.88 44.77 15.48" fill="none" stroke="#aaa" stroke-miterlimit="10" stroke-width=".5"/>
  <polyline points="6.09 5.81 9.28 8.47 12.09 11.52 13.84 13.99 15.34 16.61 16.32 18.53 17.34 20.42 18.28 21.6 19.58 22.33 21.59 22.3 23.53 21.69 27.19 19.9 30.71 17.85 36.68 14.08 42.59 10.19 40.63 12.94 38.72 15.71 37.55 17.51 36.44 19.33 35.9 20.28 35.42 21.26 35.33 21.55 35.39 21.76 35.75 21.44 36.04 21.06 36.59 20.25 37.08 19.39 37.68 18.21 38.21 16.99 38.72 15.56 39.13 14.1" fill="none" stroke="#aaa" stroke-miterlimit="10" stroke-width=".5"/>
  <polyline points="6.73 11.26 8.53 13.67 10.06 16.24 11.03 18.13 12.05 19.98 12.98 21.14 14.27 21.86 16.31 21.84 18.28 21.25 22.03 19.52 25.65 17.52 31.83 13.84 37.95 10.05 35.77 12.83 33.65 15.64 32.36 17.42 31.12 19.23 30.54 20.14 30.01 21.07 29.91 21.31 29.98 21.44 30.35 21.02 30.68 20.57 31.24 19.66 31.76 18.72 32.37 17.46 32.89 16.16 33.37 14.66 33.72 13.13" fill="none" stroke="#aaa" stroke-miterlimit="10" stroke-width=".5"/>
  <polyline points="6.44 20.21 7.39 21.4 8.71 22.12 10.81 22.11 12.85 21.51 16.74 19.76 20.5 17.75 26.94 14.03 33.31 10.21 30.95 13.08 28.65 15.99 27.27 17.81 25.93 19.65 25.33 20.55 24.77 21.48 24.66 21.7 24.76 21.74 25.17 21.24 25.53 20.72 26.13 19.72 26.68 18.69 27.3 17.33 27.83 15.93 28.29 14.34 28.59 12.72" fill="none" stroke="#aaa" stroke-miterlimit="10" stroke-width=".5"/>
  <polyline points="7.24 22.48 11.31 20.65 15.26 18.55 21.99 14.66 28.67 10.66 26.17 13.7 23.74 16.77 22.29 18.68 20.89 20.61 20.27 21.53 19.7 22.48 19.6 22.72 19.75 22.69 20.19 22.13 20.6 21.53 21.25 20.44 21.84 19.31 22.49 17.84 23.04 16.33 23.49 14.64 23.78 12.9" fill="none" stroke="#aaa" stroke-miterlimit="10" stroke-width=".5"/>
  <polyline points="9.93 19.85 17.01 15.67 24.03 11.37 21.44 14.64 18.91 17.94 17.42 19.98 15.99 22.05 15.37 23.03 14.81 24.04 14.72 24.3 14.92 24.23 15.42 23.61 15.86 22.95 16.57 21.77 17.21 20.54 17.91 18.95 18.49 17.31 18.97 15.48 19.27 13.61" fill="none" stroke="#aaa" stroke-miterlimit="10" stroke-width=".5"/>
  <polyline points="4.53 21.56 12 17 19.39 12.3 16.73 15.84 14.15 19.42 12.64 21.64 11.2 23.88 10.58 24.94 10.04 26.04 9.99 26.34 10.23 26.24 10.79 25.57 11.29 24.85 12.06 23.57 12.75 22.23 13.51 20.51 14.14 18.74 14.67 16.75 15 14.72" fill="none" stroke="#aaa" stroke-miterlimit="10" stroke-width=".5"/>
  <polyline points="14.75 13.36 12.04 17.21 9.43 21.11 7.9 23.51 6.46 25.96 5.85 27.11 5.36 28.31 5.34 28.65 5.63 28.54 6.26 27.83 6.81 27.05 7.65 25.66 8.4 24.21 9.23 22.34 9.92 20.42 10.51 18.26 10.89 16.06" fill="none" stroke="#aaa" stroke-miterlimit="10" stroke-width=".5"/>
  <polyline points="5.74 22.12 6.39 19.79 6.82 17.41" fill="none" stroke="#aaa" stroke-miterlimit="10" stroke-width=".5"/>
  <polyline points="10.11 14.47 7.36 18.63 4.71 22.83" fill="none" stroke="#aaa" stroke-miterlimit="10" stroke-width=".5"/>
</svg>