<?xml version="1.0" encoding="UTF-8"?><svg id="Ebene_1" xmlns="http://www.w3.org/2000/svg" viewBox="0 0 222 222"><polyline points="219.73 0 225.45 6.42 230.77 13.17 234.4 18.38 237.76 23.76 240.1 27.81 242.41 31.87 244.27 34.85 246.43 37.61 248.77 39.65 251.51 41.09 255.37 42.08 259.36 42.41 265.53 42.25 271.67 41.68 280.92 40.45 290.15 39 287.25 40.22 284.32 41.31 283.04 41.67 281.72 41.71 281.41 41.14 281.61 40.47 282.38 39.13 283.26 37.86 284.59 36.01 285.92 34.15 287.44 31.91 288.87 29.61 290.22 27.11 291.36 24.52 292.21 21.88 292.67 19.14" style="fill:none; stroke:#aaa; stroke-miterlimit:10; stroke-width:.5px;"/><polyline points="213.98 0 219.43 6.76 224.48 13.81 227.99 19.33 231.25 24.99 233.59 29.34 235.92 33.69 237.85 36.99 240.09 40.08 242.51 42.47 245.37 44.32 249.27 45.77 253.37 46.56 259.52 47 265.7 46.97 274.84 46.47 283.97 45.7 281.35 46.48 278.69 47 277.5 47.02 276.45 46.54 276.27 45.56 276.55 44.57 277.37 42.92 278.32 41.34 279.69 39.23 281.07 37.12 282.63 34.66 284.12 32.15 285.53 29.47 286.77 26.69 287.73 23.89 288.36 21" style="fill:none; stroke:#aaa; stroke-miterlimit:10; stroke-width:.5px;"/><polyline points="209.07 0 214.27 6.88 219.09 14.02 222.48 19.64 225.64 25.4 227.94 29.87 230.25 34.33 232.19 37.76 234.45 40.99 236.88 43.54 239.77 45.57 243.64 47.25 247.75 48.27 253.81 49.01 259.91 49.26 268.85 49.15 277.79 48.73 275.37 49.27 272.91 49.51 271.77 49.33 270.91 48.61 270.82 47.44 271.16 46.29 272 44.5 272.99 42.77 274.37 40.54 275.76 38.32 277.33 35.76 278.83 33.17 280.26 30.41 281.53 27.56 282.53 24.7 283.22 21.75" style="fill:none; stroke:#aaa; stroke-miterlimit:10; stroke-width:.5px;"/><polyline points="205.03 0 210.03 6.75 214.65 13.75 217.92 19.28 220.96 24.93 223.19 29.33 225.43 33.72 227.34 37.11 229.53 40.31 231.92 42.86 234.74 44.9 238.5 46.6 242.51 47.67 248.38 48.49 254.31 48.81 262.96 48.82 271.61 48.52 269.3 48.98 266.97 49.12 265.88 48.88 265.11 48.11 265.05 46.9 265.4 45.71 266.25 43.91 267.23 42.18 268.58 39.95 269.96 37.73 271.49 35.2 272.96 32.62 274.36 29.89 275.6 27.08 276.59 24.26 277.26 21.35" style="fill:none; stroke:#aaa; stroke-miterlimit:10; stroke-width:.5px;"/><polyline points="201.82 0 206.63 6.4 211.09 13.05 214.23 18.3 217.15 23.65 219.28 27.82 221.41 31.97 223.22 35.17 225.3 38.18 227.56 40.56 230.23 42.45 233.82 44.02 237.62 44.97 243.23 45.67 248.88 45.9 257.16 45.8 265.44 45.42 263.18 45.92 260.89 46.14 259.84 45.96 259.06 45.27 259 44.15 259.33 43.06 260.14 41.36 261.08 39.72 262.38 37.61 263.69 35.51 265.16 33.1 266.55 30.64 267.88 28.04 269.04 25.36 269.94 22.67 270.54 19.9" style="fill:none; stroke:#aaa; stroke-miterlimit:10; stroke-width:.5px;"/><polyline points="199.23 0 203.89 5.88 208.21 12.01 211.22 16.81 214.01 21.73 216.02 25.52 218.02 29.3 219.68 32.18 221.6 34.88 223.68 36.97 226.14 38.59 229.49 39.87 233.01 40.57 238.29 40.98 243.59 40.97 251.43 40.58 259.26 39.94 257 40.6 254.71 41.03 253.69 41.02 252.83 40.55 252.72 39.63 253 38.72 253.76 37.23 254.62 35.79 255.84 33.88 257.07 31.98 258.44 29.77 259.73 27.52 260.94 25.13 261.98 22.65 262.75 20.16 263.2 17.6" style="fill:none; stroke:#aaa; stroke-miterlimit:10; stroke-width:.5px;"/><polyline points="197.02 0 201.53 5.25 205.73 10.75 208.61 15.02 211.27 19.41 213.14 22.74 214.98 26.08 216.48 28.54 218.21 30.83 220.08 32.54 222.29 33.78 225.37 34.66 228.57 35.01 233.48 34.98 238.39 34.61 245.74 33.74 253.08 32.69 250.78 33.61 248.44 34.41 247.45 34.62 246.46 34.53 246.3 33.91 246.52 33.28 247.21 32.07 247.99 30.91 249.12 29.28 250.25 27.64 251.5 25.7 252.66 23.71 253.72 21.58 254.6 19.36 255.2 17.12 255.45 14.82" style="fill:none; stroke:#aaa; stroke-miterlimit:10; stroke-width:.5px;"/><polyline points="194.85 0 199.22 4.6 203.3 9.45 206.04 13.16 208.58 17 210.3 19.83 211.99 22.67 213.31 24.66 214.86 26.48 216.53 27.72 218.47 28.47 221.29 28.8 224.15 28.66 228.69 28 233.19 27.09 240.06 25.48 246.9 23.77 244.53 25.16 242.15 26.52 241.12 27.09 240.06 27.57 239.83 27.47 240 27.17 240.64 26.36 241.32 25.56 242.36 24.3 243.37 22.99 244.5 21.39 245.52 19.71 246.43 17.89 247.13 15.97 247.52 14 247.53 12" style="fill:none; stroke:#aaa; stroke-miterlimit:10; stroke-width:.5px;"/><polyline points="192.43 0 196.64 4.01 200.59 8.28 203.19 11.47 205.61 14.8 207.19 17.17 208.75 19.54 209.91 21.1 211.29 22.45 212.8 23.24 214.48 23.51 217.07 23.28 219.61 22.68 223.79 21.38 227.93 19.92 234.33 17.58 240.73 15.21 238.28 17.1 235.91 19.05 234.79 20.04 233.73 21.09 233.51 21.37 233.55 21.58 234.15 21.22 234.71 20.78 235.67 19.9 236.56 18.94 237.58 17.67 238.46 16.32 239.23 14.79 239.76 13.17 239.97 11.47 239.79 9.77" style="fill:none; stroke:#aaa; stroke-miterlimit:10; stroke-width:.5px;"/><polyline points="189.48 0 193.53 3.55 197.32 7.35 199.8 10.17 202.09 13.13 203.56 15.23 205 17.33 206.05 18.71 207.28 19.92 208.64 20.62 210.16 20.86 212.52 20.65 214.84 20.13 218.72 18.99 222.57 17.71 228.56 15.65 234.55 13.57 232.13 15.29 229.76 17.05 228.64 17.94 227.56 18.87 227.34 19.09 227.31 19.26 227.85 18.88 228.36 18.46 229.23 17.63 230.05 16.73 230.96 15.55 231.75 14.29 232.4 12.88 232.81 11.39 232.89 9.82 232.57 8.28" style="fill:none; stroke:#aaa; stroke-miterlimit:10; stroke-width:.5px;"/><polyline points="185.86 0 189.71 3.28 193.33 6.79 195.68 9.39 197.85 12.13 199.24 14.07 200.59 16.01 201.57 17.29 202.72 18.4 203.98 19.06 205.39 19.28 207.6 19.09 209.78 18.62 213.43 17.56 217.06 16.39 222.71 14.48 228.37 12.56 226.04 14.17 223.76 15.82 222.68 16.64 221.63 17.5 221.42 17.7 221.38 17.84 221.89 17.47 222.36 17.07 223.19 16.27 223.96 15.41 224.8 14.3 225.53 13.11 226.12 11.79 226.47 10.39 226.49 8.91 226.13 7.48" style="fill:none; stroke:#aaa; stroke-miterlimit:10; stroke-width:.5px;"/><polyline points="181.52 0 185.16 3.21 188.56 6.64 190.79 9.2 192.85 11.87 194.18 13.77 195.48 15.67 196.43 16.92 197.55 18.01 198.79 18.64 200.17 18.86 202.3 18.67 204.41 18.2 207.91 17.16 211.39 16 216.79 14.13 222.19 12.24 220.02 13.8 217.9 15.41 216.9 16.2 215.95 17.05 215.76 17.25 215.77 17.38 216.27 17.04 216.76 16.64 217.57 15.87 218.32 15.04 219.15 13.97 219.87 12.81 220.45 11.53 220.8 10.17 220.85 8.74 220.53 7.34" style="fill:none; stroke:#aaa; stroke-miterlimit:10; stroke-width:.5px;"/><polyline points="176.56 0 179.95 3.32 183.12 6.83 185.23 9.47 187.18 12.22 188.47 14.18 189.76 16.14 190.72 17.44 191.87 18.56 193.13 19.21 194.53 19.44 196.67 19.25 198.76 18.75 202.19 17.67 205.59 16.46 210.8 14.51 216.02 12.53 214.06 14.11 212.16 15.73 211.29 16.55 210.49 17.42 210.32 17.66 210.44 17.79 210.98 17.48 211.49 17.09 212.31 16.34 213.08 15.52 213.92 14.46 214.67 13.31 215.29 12.03 215.71 10.67 215.86 9.24 215.67 7.82" style="fill:none; stroke:#aaa; stroke-miterlimit:10; stroke-width:.5px;"/><polyline points="171.13 0 174.27 3.54 177.18 7.26 179.18 10.14 181.02 13.11 182.31 15.35 183.58 17.59 184.61 19.25 185.8 20.78 187.08 21.92 188.6 22.73 190.72 23.28 192.92 23.48 196.3 23.41 199.69 23.11 204.77 22.45 209.84 21.67 208.19 22.36 206.52 22.96 205.84 23.13 205.16 23.08 205.1 22.63 205.29 22.2 205.83 21.34 206.42 20.5 207.25 19.34 208.06 18.17 208.94 16.79 209.74 15.37 210.44 13.87 210.98 12.3 211.28 10.73 211.29 9.13" style="fill:none; stroke:#aaa; stroke-miterlimit:10; stroke-width:.5px;"/><polyline points="165.41 0 168.27 3.85 170.92 7.85 172.8 11 174.55 14.23 175.83 16.75 177.12 19.25 178.21 21.2 179.48 23.03 180.85 24.49 182.47 25.66 184.64 26.64 186.94 27.25 190.31 27.72 193.72 27.92 198.69 27.92 203.66 27.75 202.3 28.02 200.92 28.09 200.3 27.91 199.91 27.41 199.96 26.63 200.22 25.89 200.8 24.76 201.44 23.67 202.3 22.29 203.15 20.91 204.08 19.35 204.94 17.77 205.73 16.11 206.39 14.4 206.86 12.71 207.09 10.97" style="fill:none; stroke:#aaa; stroke-miterlimit:10; stroke-width:.5px;"/><polyline points="159.49 0 162.06 4.22 164.45 8.54 166.2 12.02 167.86 15.54 169.14 18.36 170.45 21.15 171.63 23.39 172.99 25.52 174.47 27.29 176.22 28.8 178.45 30.15 180.87 31.14 184.26 32.07 187.71 32.69 192.58 33.25 197.49 33.6 196.36 33.52 195.31 33.13 194.82 32.54 194.67 31.78 194.84 30.72 195.2 29.7 195.83 28.34 196.54 27.02 197.43 25.45 198.34 23.88 199.31 22.16 200.24 20.41 201.11 18.61 201.89 16.76 202.5 14.94 202.93 13.07" style="fill:none; stroke:#aaa; stroke-miterlimit:10; stroke-width:.5px;"/><polyline points="153.48 0 155.76 4.61 157.88 9.28 159.51 13.1 161.08 16.94 162.36 20.07 163.71 23.16 164.97 25.7 166.43 28.13 168.03 30.2 169.9 32.04 172.23 33.72 174.77 35.08 178.17 36.41 181.69 37.44 186.47 38.49 191.31 39.3 190.38 38.87 189.68 38.13 189.39 37.18 189.41 36.18 189.71 34.86 190.17 33.59 190.88 32.01 191.66 30.47 192.61 28.71 193.57 26.96 194.59 25.07 195.59 23.17 196.54 21.22 197.41 19.23 198.14 17.27 198.72 15.26" style="fill:none; stroke:#aaa; stroke-miterlimit:10; stroke-width:.5px;"/><polyline points="147.5 0 149.48 4.98 151.35 9.99 152.84 14.14 154.33 18.28 155.61 21.7 156.99 25.08 158.34 27.91 159.9 30.63 161.62 32.99 163.61 35.14 166.03 37.14 168.68 38.83 172.1 40.53 175.67 41.94 180.36 43.42 185.13 44.67 184.41 43.87 184.02 42.88 183.93 41.63 184.1 40.4 184.53 38.85 185.1 37.34 185.89 35.57 186.75 33.83 187.75 31.9 188.78 29.97 189.85 27.93 190.91 25.88 191.93 23.79 192.88 21.67 193.7 19.58 194.41 17.44" style="fill:none; stroke:#aaa; stroke-miterlimit:10; stroke-width:.5px;"/><polyline points="141.68 0 143.36 5.18 144.98 10.36 146.35 14.73 147.75 19.09 149.02 22.78 150.43 26.41 151.85 29.52 153.5 32.52 155.32 35.2 157.42 37.67 159.92 40 162.66 42.06 166.09 44.13 169.68 45.91 174.27 47.8 178.95 49.44 178.47 48.32 178.31 47.12 178.41 45.63 178.72 44.17 179.28 42.43 179.95 40.72 180.82 38.78 181.75 36.86 182.82 34.78 183.9 32.7 185.02 30.53 186.13 28.34 187.2 26.13 188.22 23.89 189.12 21.68 189.92 19.43" style="fill:none; stroke:#aaa; stroke-miterlimit:10; stroke-width:.5px;"/><polyline points="136.1 0 137.49 5.26 138.88 10.51 140.12 15.03 141.43 19.52 142.68 23.41 144.11 27.24 145.59 30.61 147.3 33.87 149.21 36.82 151.39 39.59 153.95 42.23 156.75 44.62 160.16 47.02 163.75 49.14 168.2 51.38 172.78 53.37 172.53 52 172.55 50.6 172.82 48.92 173.26 47.28 173.92 45.37 174.69 43.5 175.63 41.42 176.63 39.37 177.74 37.16 178.87 34.96 180.03 32.68 181.18 30.39 182.3 28.08 183.36 25.74 184.32 23.45 185.19 21.12" style="fill:none; stroke:#aaa; stroke-miterlimit:10; stroke-width:.5px;"/><polyline points="130.9 0 132.02 5.2 133.19 10.39 134.29 14.96 135.51 19.49 136.74 23.51 138.15 27.47 139.67 31.03 141.42 34.48 143.38 37.68 145.6 40.69 148.18 43.59 151 46.26 154.35 48.94 157.9 51.35 162.18 53.87 166.6 56.13 166.55 54.58 166.73 53.03 167.14 51.21 167.69 49.42 168.44 47.4 169.29 45.41 170.29 43.24 171.33 41.08 172.48 38.8 173.63 36.52 174.82 34.17 175.99 31.81 177.13 29.44 178.22 27.05 179.21 24.71 180.13 22.33" style="fill:none; stroke:#aaa; stroke-miterlimit:10; stroke-width:.5px;"/><polyline points="126.25 0 127.13 4.99 128.09 9.97 129.06 14.45 130.18 18.91 131.36 22.95 132.74 26.93 134.25 30.59 136 34.15 137.96 37.49 140.17 40.68 142.71 43.76 145.49 46.63 148.73 49.49 152.16 52.12 156.21 54.81 160.42 57.26 160.53 55.59 160.83 53.95 161.35 52.05 161.98 50.19 162.8 48.11 163.69 46.07 164.71 43.86 165.78 41.66 166.93 39.36 168.09 37.06 169.27 34.7 170.44 32.33 171.57 29.96 172.66 27.57 173.66 25.23 174.59 22.86" style="fill:none; stroke:#aaa; stroke-miterlimit:10; stroke-width:.5px;"/><polyline points="122.3 0 122.96 4.63 123.73 9.23 124.58 13.5 125.58 17.72 126.69 21.66 128 25.53 129.46 29.17 131.15 32.72 133.05 36.1 135.19 39.33 137.63 42.48 140.28 45.44 143.33 48.38 146.58 51.1 150.33 53.84 154.24 56.36 154.47 54.67 154.86 53 155.44 51.1 156.11 49.24 156.95 47.19 157.85 45.16 158.87 42.99 159.92 40.83 161.04 38.58 162.17 36.33 163.31 34.03 164.44 31.73 165.54 29.43 166.59 27.1 167.57 24.83 168.47 22.53" style="fill:none; stroke:#aaa; stroke-miterlimit:10; stroke-width:.5px;"/><polyline points="119.05 0 119.53 4.12 120.14 8.22 120.86 12.12 121.74 15.99 122.75 19.68 123.95 23.32 125.32 26.81 126.9 30.2 128.68 33.49 130.67 36.65 132.93 39.73 135.39 42.65 138.17 45.54 141.15 48.23 144.53 50.9 148.07 53.37 148.37 51.73 148.8 50.11 149.39 48.29 150.07 46.5 150.89 44.55 151.76 42.62 152.73 40.56 153.73 38.52 154.78 36.4 155.84 34.27 156.92 32.12 157.97 29.95 159 27.79 159.98 25.61 160.89 23.48 161.74 21.33" style="fill:none; stroke:#aaa; stroke-miterlimit:10; stroke-width:.5px;"/><polyline points="116.41 0 116.74 3.5 117.2 6.99 117.8 10.42 118.55 13.81 119.44 17.14 120.51 20.43 121.74 23.64 123.15 26.77 124.76 29.84 126.55 32.81 128.56 35.72 130.76 38.48 133.22 41.2 135.85 43.75 138.79 46.25 141.89 48.55 142.22 47.03 142.66 45.53 143.24 43.86 143.89 42.22 144.66 40.43 145.46 38.66 146.35 36.79 147.26 34.93 148.22 33 149.18 31.08 150.14 29.12 151.1 27.16 152.02 25.21 152.91 23.24 153.73 21.32 154.49 19.37" style="fill:none; stroke:#aaa; stroke-miterlimit:10; stroke-width:.5px;"/><polyline points="114.17 0 114.37 2.78 114.7 5.56 115.17 8.42 115.78 11.25 116.54 14.14 117.45 16.99 118.52 19.86 119.74 22.66 121.13 25.45 122.68 28.15 124.41 30.82 126.3 33.37 128.39 35.85 130.63 38.19 133.1 40.45 135.71 42.53 136.06 41.17 136.48 39.84 137.03 38.36 137.62 36.9 138.31 35.33 139.03 33.77 139.81 32.13 140.61 30.49 141.45 28.81 142.29 27.12 143.13 25.42 143.95 23.71 144.75 22 145.52 20.29 146.23 18.62 146.9 16.93" style="fill:none; stroke:#aaa; stroke-miterlimit:10; stroke-width:.5px;"/><polyline points="112.04 0 112.11 1.61 112.3 3.22 112.66 5.29 113.12 7.35 113.76 9.74 114.49 12.11 115.4 14.69 116.41 17.24 117.59 19.88 118.88 22.47 120.32 25.05 121.89 27.54 123.59 29.92 125.44 32.18 127.4 34.24 129.53 36.12 129.89 34.94 130.29 33.78 130.79 32.51 131.33 31.25 131.93 29.9 132.56 28.57 133.24 27.17 133.93 25.77 134.63 24.35 135.35 22.91 136.06 21.46 136.75 20.01 137.43 18.58 138.07 17.13 138.67 15.72 139.24 14.29" style="fill:none; stroke:#aaa; stroke-miterlimit:10; stroke-width:.5px;"/><polyline points="109.69 .02 109.61 1.35 109.67 2.68 109.9 4.4 110.23 6.11 110.73 8.1 111.32 10.07 112.07 12.22 112.9 14.35 113.88 16.56 114.94 18.73 116.11 20.88 117.39 22.98 118.74 24.97 120.2 26.88 121.72 28.61 123.36 30.22 123.72 29.21 124.12 28.21 124.58 27.14 125.06 26.07 125.6 24.94 126.14 23.82 126.72 22.65 127.3 21.49 127.89 20.31 128.48 19.11 129.07 17.92 129.64 16.72 130.2 15.54 130.73 14.35 131.23 13.19 131.7 12.02" style="fill:none; stroke:#aaa; stroke-miterlimit:10; stroke-width:.5px;"/><polyline points="106.83 .04 106.56 1.14 106.49 2.27 106.58 3.71 106.8 5.15 107.17 6.83 107.65 8.49 108.27 10.3 108.97 12.09 109.78 13.95 110.66 15.78 111.62 17.59 112.66 19.35 113.72 21.01 114.85 22.62 115.97 24.04 117.18 25.38 117.58 24.52 118 23.67 118.45 22.76 118.91 21.86 119.4 20.91 119.89 19.97 120.39 19.01 120.9 18.04 121.41 17.07 121.91 16.08 122.4 15.1 122.88 14.12 123.34 13.15 123.79 12.17 124.21 11.22 124.6 10.27" style="fill:none; stroke:#aaa; stroke-miterlimit:10; stroke-width:.5px;"/><polyline points="103.22 .06 102.75 1 102.52 2.03 102.46 3.31 102.57 4.59 102.86 6.09 103.26 7.57 103.8 9.19 104.42 10.79 105.13 12.44 105.91 14.06 106.74 15.64 107.6 17.21 108.46 18.64 109.35 20.05 110.16 21.25 111 22.41 111.48 21.64 111.96 20.86 112.44 20.06 112.93 19.25 113.41 18.43 113.9 17.6 114.38 16.77 114.85 15.93 115.31 15.08 115.77 14.24 116.21 13.4 116.64 12.56 117.05 11.73 117.44 10.89 117.81 10.08 118.16 9.26" style="fill:none; stroke:#aaa; stroke-miterlimit:10; stroke-width:.5px;"/><polyline points="98.75 .08 98.04 .95 97.6 1.99 97.4 3.23 97.43 4.48 97.65 5.95 98.01 7.38 98.53 8.96 99.14 10.51 99.84 12.12 100.6 13.7 101.37 15.24 102.17 16.76 102.91 18.15 103.65 19.53 104.25 20.67 104.82 21.82 105.42 21.04 106.01 20.26 106.58 19.47 107.14 18.67 107.69 17.86 108.22 17.05 108.73 16.25 109.23 15.43 109.71 14.62 110.17 13.81 110.61 13.01 111.04 12.2 111.45 11.41 111.84 10.62 112.2 9.85 112.54 9.08" style="fill:none; stroke:#aaa; stroke-miterlimit:10; stroke-width:.5px;"/><polyline points="93.4 .09 92.42 1.01 91.75 2.16 91.41 3.49 91.35 4.86 91.54 6.45 91.91 8 92.47 9.71 93.13 11.39 93.9 13.13 94.71 14.84 95.53 16.5 96.36 18.16 97.08 19.65 97.77 21.16 98.26 22.39 98.65 23.65 99.46 22.76 100.25 21.86 101 20.99 101.73 20.1 102.42 19.23 103.08 18.35 103.71 17.5 104.31 16.63 104.88 15.79 105.42 14.94 105.93 14.11 106.42 13.27 106.87 12.46 107.3 11.63 107.69 10.83 108.07 10.02" style="fill:none; stroke:#aaa; stroke-miterlimit:10; stroke-width:.5px;"/><polyline points="87.28 .1 85.99 1.15 85.06 2.52 84.57 4.07 84.45 5.68 84.64 7.53 85.05 9.35 85.7 11.35 86.48 13.31 87.38 15.34 88.33 17.35 89.27 19.29 90.2 21.23 91 22.97 91.72 24.74 92.18 26.18 92.47 27.66 93.54 26.59 94.6 25.5 95.57 24.46 96.52 23.4 97.39 22.4 98.24 21.37 99.02 20.39 99.77 19.4 100.46 18.44 101.13 17.46 101.73 16.52 102.32 15.56 102.85 14.63 103.36 13.68 103.83 12.76 104.27 11.82" style="fill:none; stroke:#aaa; stroke-miterlimit:10; stroke-width:.5px;"/><polyline points="80.54 .1 78.91 1.37 77.71 3.04 77.07 4.89 76.89 6.85 77.1 9.09 77.6 11.29 78.38 13.7 79.31 16.07 80.4 18.52 81.54 20.94 82.67 23.28 83.78 25.63 84.71 27.73 85.53 29.88 86.04 31.62 86.29 33.42 87.66 32.1 89.01 30.76 90.23 29.49 91.43 28.21 92.51 26.99 93.57 25.75 94.53 24.57 95.47 23.37 96.31 22.22 97.13 21.05 97.87 19.92 98.58 18.77 99.23 17.65 99.84 16.51 100.41 15.39 100.94 14.26" style="fill:none; stroke:#aaa; stroke-miterlimit:10; stroke-width:.5px;"/><polyline points="73.36 .1 71.37 1.63 69.88 3.66 69.1 5.91 68.87 8.28 69.11 10.99 69.71 13.64 70.65 16.56 71.78 19.42 73.09 22.38 74.48 25.31 75.84 28.14 77.17 30.98 78.28 33.53 79.26 36.12 79.84 38.24 80.11 40.42 81.8 38.81 83.45 37.17 84.95 35.64 86.41 34.08 87.74 32.6 89.04 31.1 90.21 29.67 91.34 28.22 92.37 26.83 93.36 25.41 94.26 24.05 95.12 22.66 95.9 21.3 96.65 19.93 97.33 18.57 97.97 17.2" style="fill:none; stroke:#aaa; stroke-miterlimit:10; stroke-width:.5px;"/><polyline points="65.97 .1 63.59 1.93 61.82 4.34 60.89 7.02 60.62 9.84 60.9 13.06 61.61 16.22 62.73 19.7 64.07 23.09 65.63 26.61 67.26 30.1 68.88 33.46 70.46 36.84 71.78 39.87 72.93 42.96 73.62 45.49 73.94 48.08 75.94 46.16 77.92 44.2 79.7 42.37 81.45 40.5 83.03 38.75 84.57 36.95 85.97 35.25 87.32 33.52 88.54 31.86 89.72 30.18 90.79 28.55 91.81 26.89 92.74 25.28 93.62 23.64 94.43 22.02 95.19 20.38" style="fill:none; stroke:#aaa; stroke-miterlimit:10; stroke-width:.5px;"/><polyline points="58.59 .1 55.84 2.23 53.79 5.03 52.7 8.13 52.38 11.41 52.71 15.14 53.53 18.8 54.82 22.83 56.37 26.77 58.17 30.85 60.07 34.88 61.93 38.79 63.76 42.71 65.28 46.22 66.61 49.81 67.41 52.74 67.76 55.75 70.09 53.51 72.39 51.23 74.46 49.1 76.49 46.93 78.33 44.88 80.12 42.8 81.73 40.82 83.3 38.81 84.72 36.89 86.08 34.92 87.32 33.03 88.5 31.11 89.58 29.23 90.6 27.33 91.54 25.45 92.42 23.54" style="fill:none; stroke:#aaa; stroke-miterlimit:10; stroke-width:.5px;"/><polyline points="51.47 .1 48.35 2.49 46.02 5.65 44.79 9.14 44.42 12.84 44.78 17.04 45.7 21.16 47.15 25.69 48.89 30.13 50.91 34.72 53.04 39.26 55.13 43.66 57.18 48.07 58.87 52.03 60.35 56.07 61.22 59.37 61.58 62.76 64.23 60.23 66.84 57.65 69.19 55.24 71.5 52.78 73.57 50.47 75.6 48.12 77.42 45.89 79.19 43.62 80.79 41.45 82.33 39.24 83.72 37.11 85.05 34.94 86.26 32.82 87.4 30.67 88.45 28.55 89.44 26.4" style="fill:none; stroke:#aaa; stroke-miterlimit:10; stroke-width:.5px;"/><polyline points="44.81 .1 41.36 2.71 38.76 6.17 37.38 9.98 36.95 14.01 37.33 18.6 38.32 23.1 39.9 28.05 41.79 32.89 43.99 37.91 46.3 42.87 48.58 47.66 50.79 52.49 52.61 56.8 54.18 61.22 55.08 64.83 55.4 68.53 58.35 65.74 61.25 62.9 63.86 60.26 66.41 57.56 68.71 55.04 70.94 52.46 72.95 50.02 74.89 47.54 76.65 45.17 78.33 42.75 79.85 40.43 81.3 38.05 82.62 35.74 83.87 33.39 85.01 31.07 86.09 28.71" style="fill:none; stroke:#aaa; stroke-miterlimit:10; stroke-width:.5px;"/><polyline points="38.8 .1 35.04 2.86 32.19 6.53 30.66 10.55 30.16 14.83 30.54 19.69 31.57 24.45 33.23 29.7 35.23 34.82 37.55 40.13 39.99 45.38 42.37 50.46 44.68 55.57 46.57 60.14 48.15 64.82 49.02 68.65 49.23 72.57 52.45 69.58 55.61 66.54 58.44 63.72 61.21 60.85 63.69 58.17 66.1 55.43 68.25 52.85 70.33 50.22 72.2 47.72 73.99 45.16 75.61 42.7 77.14 40.19 78.54 37.74 79.86 35.24 81.07 32.77 82.2 30.26" style="fill:none; stroke:#aaa; stroke-miterlimit:10; stroke-width:.5px;"/><polyline points="33.58 .1 29.57 2.91 26.47 6.7 24.81 10.81 24.23 15.21 24.56 20.19 25.59 25.08 27.29 30.46 29.33 35.71 31.7 41.15 34.19 46.54 36.6 51.75 38.93 56.99 40.78 61.68 42.29 66.48 43.05 70.43 43.05 74.43 46.5 71.32 49.9 68.16 52.91 65.25 55.86 62.27 58.47 59.52 61.01 56.7 63.26 54.06 65.43 51.36 67.37 48.81 69.22 46.19 70.89 43.67 72.46 41.1 73.89 38.58 75.24 36.02 76.48 33.47 77.64 30.88" style="fill:none; stroke:#aaa; stroke-miterlimit:10; stroke-width:.5px;"/><polyline points="29.25 .1 25.03 2.87 21.71 6.65 19.91 10.71 19.23 15.1 19.49 20.04 20.49 24.89 22.15 30.23 24.17 35.44 26.52 40.84 28.96 46.19 31.32 51.35 33.56 56.56 35.29 61.2 36.63 65.97 37.18 69.92 36.87 73.87 40.52 70.73 44.12 67.52 47.26 64.61 50.34 61.62 53.03 58.88 55.65 56.08 57.94 53.47 60.15 50.79 62.1 48.27 63.96 45.68 65.62 43.19 67.19 40.65 68.6 38.15 69.93 35.6 71.16 33.04 72.32 30.44" style="fill:none; stroke:#aaa; stroke-miterlimit:10; stroke-width:.5px;"/><polyline points="25.76 .11 21.4 2.73 17.86 6.39 15.94 10.25 15.13 14.5 15.3 19.23 16.21 23.89 17.79 29.01 19.72 34.02 21.96 39.19 24.29 44.32 26.5 49.26 28.56 54.26 30.08 58.71 31.15 63.29 31.4 67.1 30.69 70.85 34.51 67.77 38.26 64.62 41.49 61.79 44.66 58.89 47.37 56.27 50.02 53.56 52.29 51.08 54.48 48.52 56.39 46.11 58.2 43.64 59.8 41.26 61.3 38.82 62.66 36.42 63.94 33.96 65.13 31.46 66.24 28.93" style="fill:none; stroke:#aaa; stroke-miterlimit:10; stroke-width:.5px;"/><polyline points="22.99 .11 18.52 2.52 14.78 5.94 12.74 9.49 11.8 13.47 11.84 17.84 12.63 22.15 14.07 26.87 15.86 31.47 17.93 36.2 20.08 40.89 22.06 45.36 23.87 49.9 25.11 53.87 25.82 57.96 25.68 61.36 24.52 64.54 28.48 61.74 32.38 58.85 35.67 56.31 38.88 53.68 41.59 51.33 44.21 48.89 46.42 46.67 48.54 44.36 50.35 42.21 52.06 39.97 53.55 37.81 54.95 35.58 56.22 33.34 57.4 31.06 58.53 28.69 59.59 26.29" style="fill:none; stroke:#aaa; stroke-miterlimit:10; stroke-width:.5px;"/><polyline points="20.68 .11 16.13 2.26 12.2 5.38 10.06 8.52 8.96 12.15 8.86 16.06 9.5 19.92 10.78 24.11 12.39 28.19 14.25 32.33 16.16 36.45 17.88 40.29 19.38 44.22 20.29 47.55 20.59 50.98 19.98 53.83 18.34 56.24 22.44 53.84 26.48 51.36 29.8 49.21 33.04 46.97 35.69 45.01 38.26 42.94 40.36 41.07 42.36 39.1 44.04 37.26 45.6 35.33 46.96 33.43 48.22 31.47 49.37 29.45 50.45 27.38 51.51 25.16 52.53 22.92" style="fill:none; stroke:#aaa; stroke-miterlimit:10; stroke-width:.5px;"/><polyline points="18.55 .12 13.93 1.99 9.8 4.77 7.57 7.46 6.3 10.71 6.05 14.09 6.54 17.46 7.63 21.05 9.06 24.53 10.69 28.01 12.36 31.46 13.78 34.55 14.97 37.74 15.53 40.3 15.4 42.9 14.2 45.06 12.16 46.47 16.4 44.64 20.6 42.73 23.92 41.11 27.18 39.39 29.74 37.91 32.23 36.31 34.19 34.87 36.05 33.32 37.56 31.85 38.96 30.27 40.17 28.68 41.27 27.01 42.32 25.22 43.3 23.39 44.33 21.33 45.35 19.25" style="fill:none; stroke:#aaa; stroke-miterlimit:10; stroke-width:.5px;"/><polyline points="16.25 .12 11.55 1.74 7.23 4.18 4.93 6.45 3.47 9.31 3.07 12.17 3.43 15.03 4.35 18 5.6 20.85 7 23.58 8.46 26.29 9.59 28.53 10.49 30.85 10.73 32.51 10.17 34.07 8.22 35.14 5.98 35.43 10.38 34.4 14.74 33.3 18.06 32.38 21.35 31.35 23.81 30.47 26.21 29.45 28.02 28.52 29.73 27.45 31.08 26.39 32.3 25.2 33.37 23.93 34.33 22.58 35.31 21.02 36.23 19.43 37.3 17.52 38.38 15.61" style="fill:none; stroke:#aaa; stroke-miterlimit:10; stroke-width:.5px;"/><polyline points="13.51 .12 8.71 1.53 4.19 3.68 1.84 5.56 .17 8.05 -.34 10.33 -.12 12.66 .65 14.87 1.77 16.92 2.96 18.65 4.27 20.28 5.06 21.21 5.81 22.15 5.44 22.25 4.85 21.97 2.32 20.58 -.19 19.16 4.37 19.74 8.93 20.31 12.27 20.71 15.6 21.06 17.95 21.24 20.3 21.32 21.94 21.25 23.55 21 24.73 20.62 25.83 20.03 26.8 19.24 27.65 18.32 28.61 17.08 29.51 15.79 30.7 14.08 31.91 12.37" style="fill:none; stroke:#aaa; stroke-miterlimit:10; stroke-width:.5px;"/><polyline points="10.14 .12 5.18 1.4 .46 3.35 -1.96 5.01 -3.81 7.27 -4.41 9.25 -4.29 11.31 -3.62 13.18 -2.59 14.89 -1.53 16.22 -.34 17.43 .25 17.94 .86 18.37 .16 17.73 -.61 17.13 -3.46 15.1 -6.37 13.15 -1.65 14.18 3.05 15.24 6.42 16.01 9.79 16.78 12.09 17.27 14.4 17.69 15.94 17.88 17.48 17.91 18.56 17.76 19.58 17.39 20.48 16.79 21.27 16.05 22.21 14.97 23.12 13.84 24.39 12.25 25.71 10.69" style="fill:none; stroke:#aaa; stroke-miterlimit:10; stroke-width:.5px;"/><polyline points="6.05 .12 .9 1.33 -4.04 3.21 -6.56 4.77 -8.55 6.95 -9.22 8.82 -9.16 10.81 -8.53 12.6 -7.55 14.23 -6.53 15.5 -5.4 16.67 -4.9 17.13 -4.4 17.57 -5.31 16.97 -6.22 16.38 -9.36 14.45 -12.55 12.57 -7.64 13.52 -2.76 14.51 .7 15.23 4.14 15.94 6.47 16.4 8.79 16.79 10.3 16.96 11.81 16.99 12.85 16.83 13.83 16.46 14.71 15.88 15.48 15.16 16.44 14.09 17.37 13 18.73 11.44 20.15 9.92" style="fill:none; stroke:#aaa; stroke-miterlimit:10; stroke-width:.5px;"/><polyline points="1.28 .12 -4.09 1.34 -9.27 3.23 -11.9 4.79 -14.01 7 -14.73 8.88 -14.69 10.89 -14.06 12.69 -13.07 14.33 -12.05 15.61 -10.91 16.79 -10.42 17.24 -9.96 17.69 -10.97 17.1 -11.98 16.5 -15.34 14.56 -18.73 12.66 -13.6 13.61 -8.49 14.6 -4.9 15.31 -1.32 16.02 1.08 16.47 3.48 16.86 5.02 17.03 6.56 17.05 7.61 16.89 8.6 16.51 9.49 15.91 10.27 15.18 11.27 14.09 12.25 12.97 13.7 11.38 15.2 9.83" style="fill:none; stroke:#aaa; stroke-miterlimit:10; stroke-width:.5px;"/><polyline points="-4.01 .12 -9.64 1.4 -15.06 3.38 -17.82 5.03 -20.02 7.34 -20.78 9.31 -20.73 11.42 -20.07 13.31 -19.03 15.03 -17.95 16.37 -16.76 17.6 -16.24 18.09 -15.75 18.56 -16.8 17.94 -17.85 17.31 -21.36 15.27 -24.9 13.28 -19.53 14.28 -14.17 15.32 -10.4 16.07 -6.64 16.81 -4.12 17.29 -1.61 17.69 0 17.87 1.63 17.89 2.73 17.72 3.77 17.32 4.7 16.68 5.53 15.91 6.59 14.76 7.62 13.58 9.14 11.9 10.73 10.27" style="fill:none; stroke:#aaa; stroke-miterlimit:10; stroke-width:.5px;"/><polyline points="-9.65 .12 -15.56 1.5 -21.23 3.63 -24.13 5.4 -26.41 7.88 -27.19 10 -27.12 12.26 -26.4 14.29 -25.28 16.13 -24.12 17.57 -22.83 18.89 -22.26 19.42 -21.69 19.92 -22.74 19.25 -23.8 18.58 -27.42 16.39 -31.08 14.26 -25.43 15.34 -19.8 16.47 -15.82 17.28 -11.86 18.09 -9.2 18.6 -6.53 19.04 -4.81 19.23 -3.09 19.25 -1.9 19.06 -.78 18.63 .22 17.95 1.1 17.11 2.22 15.88 3.31 14.61 4.91 12.81 6.57 11.06" style="fill:none; stroke:#aaa; stroke-miterlimit:10; stroke-width:.5px;"/><polyline points="-15.52 .12 -21.72 1.62 -27.65 3.93 -30.68 5.86 -33.05 8.55 -33.84 10.86 -33.73 13.3 -32.94 15.5 -31.73 17.5 -30.46 19.07 -29.05 20.5 -28.4 21.08 -27.74 21.61 -28.75 20.87 -29.8 20.16 -33.5 17.78 -37.26 15.48 -31.32 16.67 -25.4 17.91 -21.2 18.8 -17.01 19.68 -14.18 20.25 -11.35 20.73 -9.5 20.94 -7.65 20.96 -6.36 20.76 -5.16 20.29 -4.07 19.54 -3.11 18.64 -1.92 17.3 -.77 15.93 .9 13.98 2.64 12.07" style="fill:none; stroke:#aaa; stroke-miterlimit:10; stroke-width:.5px;"/></svg>