<?xml version="1.0" encoding="UTF-8"?><svg id="Ebene_1" xmlns="http://www.w3.org/2000/svg" viewBox="0 0 222 222"><polyline points="217.84 1.55 223.48 8 228.73 14.77 232.37 20.04 235.75 25.46 238.16 29.62 240.57 33.78 242.56 36.93 244.86 39.87 247.37 42.15 250.29 43.87 254.32 45.24 258.53 45.96 264.89 46.33 271.26 46.26 280.71 45.73 290.15 44.93 287.53 45.68 284.87 46.23 283.62 46.31 282.43 46 282.08 45.28 282.23 44.45 282.87 43.08 283.67 41.78 284.9 39.99 286.16 38.21 287.65 36.08 289.1 33.92 290.56 31.57 291.9 29.14 293.04 26.65 293.95 24.07" style="fill:none; stroke:#aaa; stroke-miterlimit:10; stroke-width:.5px;"/><polyline points="213.44 1.55 218.86 7.97 223.9 14.69 227.41 19.94 230.68 25.34 233.04 29.5 235.4 33.66 237.37 36.84 239.64 39.81 242.13 42.15 245.02 43.96 248.98 45.43 253.13 46.26 259.35 46.8 265.58 46.89 274.78 46.58 283.97 45.99 281.48 46.61 278.97 47 277.78 46.98 276.71 46.52 276.43 45.67 276.62 44.77 277.3 43.32 278.12 41.95 279.36 40.09 280.63 38.25 282.11 36.08 283.55 33.88 285 31.49 286.33 29.04 287.46 26.54 288.36 23.94" style="fill:none; stroke:#aaa; stroke-miterlimit:10; stroke-width:.5px;"/><polyline points="209.62 1.55 214.83 7.8 219.68 14.33 223.07 19.45 226.22 24.7 228.51 28.76 230.78 32.81 232.7 35.92 234.9 38.82 237.31 41.11 240.13 42.89 243.96 44.35 247.99 45.19 253.99 45.76 260.03 45.88 268.91 45.63 277.79 45.11 275.4 45.68 272.98 46.02 271.84 45.97 270.84 45.49 270.59 44.61 270.8 43.71 271.48 42.26 272.3 40.89 273.52 39.04 274.77 37.22 276.22 35.07 277.64 32.9 279.04 30.55 280.33 28.14 281.42 25.68 282.27 23.13" style="fill:none; stroke:#aaa; stroke-miterlimit:10; stroke-width:.5px;"/><polyline points="206.42 1.55 211.45 7.47 216.14 13.67 219.4 18.51 222.43 23.49 224.61 27.32 226.78 31.14 228.6 34.06 230.69 36.79 232.97 38.92 235.63 40.56 239.28 41.87 243.11 42.6 248.85 43.05 254.61 43.07 263.12 42.71 271.61 42.1 269.26 42.72 266.88 43.13 265.78 43.14 264.78 42.74 264.54 41.95 264.73 41.12 265.39 39.76 266.18 38.47 267.36 36.73 268.56 34.99 269.96 32.95 271.3 30.88 272.64 28.64 273.84 26.33 274.85 23.98 275.62 21.54" style="fill:none; stroke:#aaa; stroke-miterlimit:10; stroke-width:.5px;"/><polyline points="203.82 1.55 208.7 6.99 213.25 12.7 216.38 17.14 219.28 21.71 221.34 25.19 223.38 28.68 225.05 31.29 226.98 33.72 229.08 35.58 231.54 36.95 234.95 37.99 238.5 38.47 243.91 38.63 249.32 38.41 257.38 37.75 265.44 36.88 263.08 37.66 260.69 38.28 259.6 38.43 258.54 38.26 258.26 37.67 258.42 37 259.04 35.83 259.77 34.71 260.88 33.15 262.01 31.59 263.32 29.73 264.58 27.84 265.8 25.78 266.89 23.64 267.77 21.47 268.39 19.21" style="fill:none; stroke:#aaa; stroke-miterlimit:10; stroke-width:.5px;"/><polyline points="201.7 1.55 206.43 6.38 210.86 11.5 213.86 15.42 216.63 19.48 218.54 22.51 220.43 25.54 221.93 27.74 223.66 29.76 225.55 31.22 227.74 32.18 230.88 32.77 234.09 32.87 239.12 32.52 244.12 31.88 251.7 30.66 259.26 29.29 256.83 30.39 254.39 31.43 253.29 31.83 252.14 32.08 251.8 31.88 251.91 31.46 252.48 30.59 253.12 29.76 254.16 28.48 255.19 27.19 256.39 25.6 257.53 23.96 258.62 22.15 259.55 20.27 260.25 18.33 260.67 16.32" style="fill:none; stroke:#aaa; stroke-miterlimit:10; stroke-width:.5px;"/><polyline points="199.83 1.55 204.43 5.71 208.76 10.15 211.61 13.47 214.26 16.93 216.01 19.39 217.74 21.85 219.03 23.49 220.56 24.89 222.25 25.71 224.12 25.99 226.98 25.75 229.8 25.13 234.42 23.77 238.99 22.26 246.04 19.81 253.08 17.35 250.54 19.23 248.05 21.17 246.81 22.2 245.64 23.3 245.36 23.63 245.26 23.97 245.8 23.73 246.3 23.4 247.25 22.65 248.15 21.82 249.24 20.67 250.22 19.45 251.15 18.03 251.89 16.51 252.39 14.91 252.57 13.24" style="fill:none; stroke:#aaa; stroke-miterlimit:10; stroke-width:.5px;"/><polyline points="197.99 1.55 202.45 5 206.68 8.72 209.39 11.47 211.92 14.37 213.51 16.42 215.06 18.48 216.18 19.84 217.47 21.01 218.92 21.7 220.51 21.94 223.03 21.74 225.52 21.24 229.71 20.13 233.86 18.9 240.38 16.89 246.9 14.88 244.26 16.53 241.65 18.22 240.35 19.1 239.09 20.02 238.79 20.25 238.56 20.49 239.02 20.19 239.45 19.85 240.29 19.11 241.1 18.32 242.03 17.26 242.87 16.11 243.61 14.82 244.13 13.43 244.37 11.98 244.24 10.51" style="fill:none; stroke:#aaa; stroke-miterlimit:10; stroke-width:.5px;"/><polyline points="195.93 1.55 200.25 4.32 204.37 7.37 206.94 9.58 209.34 11.97 210.79 13.61 212.18 15.31 213.13 16.42 214.21 17.38 215.42 17.97 216.75 18.17 218.96 18.03 221.14 17.64 224.92 16.76 228.69 15.79 234.71 14.19 240.73 12.59 237.99 14.01 235.29 15.45 233.92 16.19 232.57 16.93 232.23 17.11 231.91 17.24 232.27 16.91 232.63 16.58 233.36 15.89 234.06 15.15 234.85 14.19 235.54 13.15 236.08 12 236.38 10.78 236.35 9.47 235.93 8.23" style="fill:none; stroke:#aaa; stroke-miterlimit:10; stroke-width:.5px;"/><polyline points="193.45 1.55 197.59 3.77 201.59 6.25 204.03 8.02 206.31 9.97 207.63 11.29 208.88 12.68 209.69 13.58 210.59 14.38 211.61 14.87 212.73 15.04 214.65 14.95 216.57 14.66 220 13.97 223.42 13.2 228.98 11.93 234.55 10.67 231.77 11.87 229.02 13.09 227.61 13.71 226.2 14.31 225.8 14.46 225.41 14.51 225.67 14.19 225.98 13.88 226.6 13.25 227.2 12.6 227.85 11.75 228.4 10.83 228.78 9.84 228.9 8.78 228.64 7.62 228.01 6.61" style="fill:none; stroke:#aaa; stroke-miterlimit:10; stroke-width:.5px;"/><polyline points="190.37 1.55 194.34 3.38 198.19 5.45 200.49 6.91 202.65 8.54 203.87 9.63 205 10.8 205.71 11.55 206.48 12.22 207.35 12.64 208.32 12.79 210.04 12.73 211.75 12.5 214.89 11.94 218.03 11.32 223.2 10.29 228.37 9.26 225.62 10.3 222.89 11.34 221.47 11.87 220.05 12.37 219.61 12.5 219.19 12.51 219.37 12.21 219.62 11.94 220.16 11.38 220.68 10.79 221.23 10.05 221.68 9.25 221.94 8.37 221.95 7.46 221.54 6.43 220.81 5.59" style="fill:none; stroke:#aaa; stroke-miterlimit:10; stroke-width:.5px;"/><polyline points="186.66 1.55 190.43 3.16 194.09 4.99 196.26 6.26 198.31 7.71 199.45 8.67 200.5 9.71 201.14 10.38 201.84 10.97 202.63 11.35 203.49 11.49 205.08 11.44 206.65 11.24 209.57 10.75 212.5 10.22 217.34 9.31 222.19 8.41 219.54 9.35 216.89 10.28 215.51 10.75 214.13 11.2 213.7 11.31 213.27 11.31 213.41 11.03 213.65 10.77 214.13 10.26 214.6 9.72 215.09 9.05 215.48 8.31 215.69 7.52 215.63 6.69 215.15 5.76 214.39 5.01" style="fill:none; stroke:#aaa; stroke-miterlimit:10; stroke-width:.5px;"/><polyline points="182.36 1.55 185.92 3.09 189.36 4.84 191.41 6.06 193.35 7.44 194.43 8.36 195.43 9.35 196.04 9.99 196.7 10.56 197.46 10.92 198.29 11.05 199.79 11 201.3 10.81 204.06 10.34 206.84 9.82 211.42 8.95 216.02 8.09 213.51 8.99 211.01 9.88 209.72 10.33 208.43 10.75 208.04 10.86 207.65 10.86 207.81 10.58 208.04 10.33 208.51 9.83 208.97 9.32 209.44 8.67 209.81 7.96 210 7.19 209.93 6.41 209.45 5.5 208.7 4.8" style="fill:none; stroke:#aaa; stroke-miterlimit:10; stroke-width:.5px;"/><polyline points="177.56 1.55 180.89 3.15 184.11 4.95 186.04 6.22 187.86 7.64 188.9 8.6 189.87 9.61 190.48 10.27 191.16 10.85 191.92 11.21 192.77 11.34 194.25 11.28 195.72 11.07 198.4 10.58 201.07 10.03 205.45 9.12 209.84 8.21 207.53 9.12 205.24 10.03 204.08 10.49 202.92 10.92 202.59 11.03 202.28 11.03 202.49 10.75 202.75 10.49 203.24 9.99 203.71 9.47 204.19 8.81 204.57 8.09 204.78 7.31 204.75 6.51 204.33 5.6 203.64 4.87" style="fill:none; stroke:#aaa; stroke-miterlimit:10; stroke-width:.5px;"/><polyline points="172.41 1.55 175.5 3.31 178.46 5.26 180.29 6.67 181.99 8.2 183 9.25 183.96 10.34 184.6 11.06 185.31 11.68 186.12 12.06 187.01 12.19 188.51 12.11 190 11.87 192.61 11.32 195.23 10.7 199.44 9.68 203.66 8.67 201.59 9.63 199.54 10.6 198.54 11.08 197.54 11.55 197.3 11.65 197.1 11.67 197.38 11.39 197.68 11.12 198.21 10.6 198.71 10.04 199.23 9.35 199.65 8.59 199.91 7.78 199.95 6.93 199.64 5.98 199.05 5.19" style="fill:none; stroke:#aaa; stroke-miterlimit:10; stroke-width:.5px;"/><polyline points="167.03 1.55 169.87 3.54 172.57 5.71 174.29 7.3 175.88 8.99 176.87 10.18 177.83 11.38 178.51 12.17 179.28 12.86 180.15 13.27 181.1 13.41 182.64 13.3 184.17 13.02 186.76 12.37 189.34 11.66 193.41 10.5 197.49 9.33 195.68 10.36 193.89 11.41 193.06 11.92 192.24 12.45 192.07 12.57 192.01 12.61 192.37 12.34 192.72 12.04 193.3 11.5 193.85 10.91 194.42 10.18 194.9 9.37 195.23 8.51 195.36 7.59 195.2 6.6 194.74 5.72" style="fill:none; stroke:#aaa; stroke-miterlimit:10; stroke-width:.5px;"/><polyline points="161.56 1.55 164.15 3.8 166.59 6.2 168.19 7.99 169.68 9.87 170.65 11.2 171.61 12.54 172.33 13.42 173.17 14.18 174.11 14.63 175.14 14.78 176.73 14.65 178.3 14.31 180.87 13.57 183.43 12.75 187.36 11.42 191.31 10.08 189.76 11.18 188.26 12.32 187.59 12.87 186.96 13.47 186.83 13.63 186.94 13.68 187.37 13.42 187.77 13.12 188.41 12.56 188.99 11.95 189.62 11.18 190.16 10.34 190.58 9.42 190.82 8.45 190.82 7.42 190.53 6.44" style="fill:none; stroke:#aaa; stroke-miterlimit:10; stroke-width:.5px;"/><polyline points="156.12 1.55 158.46 4.02 160.63 6.62 162.12 8.63 163.5 10.72 164.47 12.29 165.42 13.87 166.2 15.04 167.09 16.12 168.07 16.93 169.2 17.51 170.8 17.92 172.45 18.08 174.98 18.05 177.52 17.87 181.33 17.44 185.13 16.92 183.88 17.39 182.62 17.79 182.13 17.88 181.65 17.8 181.64 17.44 181.82 17.09 182.27 16.44 182.75 15.8 183.4 14.94 184.04 14.06 184.71 13.06 185.31 12.01 185.82 10.92 186.18 9.78 186.33 8.64 186.24 7.5" style="fill:none; stroke:#aaa; stroke-miterlimit:10; stroke-width:.5px;"/><polyline points="150.78 1.55 152.86 4.22 154.79 6.99 156.15 9.19 157.43 11.43 158.38 13.19 159.33 14.94 160.15 16.31 161.09 17.59 162.12 18.63 163.32 19.47 164.93 20.18 166.64 20.64 169.13 21.01 171.64 21.18 175.29 21.24 178.95 21.18 177.96 21.33 176.96 21.32 176.51 21.15 176.28 20.75 176.37 20.15 176.61 19.57 177.08 18.73 177.6 17.9 178.27 16.89 178.94 15.87 179.64 14.73 180.29 13.57 180.87 12.38 181.33 11.14 181.63 9.93 181.73 8.69" style="fill:none; stroke:#aaa; stroke-miterlimit:10; stroke-width:.5px;"/><polyline points="145.56 1.55 147.38 4.39 149.07 7.31 150.31 9.65 151.49 12.03 152.41 13.94 153.35 15.83 154.21 17.36 155.19 18.8 156.27 20.01 157.52 21.04 159.14 21.97 160.88 22.66 163.31 23.31 165.79 23.76 169.27 24.17 172.78 24.44 171.97 24.35 171.24 24.05 170.91 23.6 170.84 23.04 171.01 22.27 171.32 21.52 171.82 20.55 172.38 19.59 173.06 18.47 173.75 17.35 174.47 16.14 175.15 14.9 175.78 13.64 176.32 12.34 176.71 11.07 176.96 9.77" style="fill:none; stroke:#aaa; stroke-miterlimit:10; stroke-width:.5px;"/><polyline points="140.41 1.55 141.97 4.54 143.43 7.58 144.54 10.06 145.62 12.55 146.51 14.59 147.45 16.6 148.33 18.26 149.35 19.84 150.47 21.21 151.77 22.4 153.39 23.51 155.15 24.4 157.51 25.28 159.94 25.96 163.25 26.66 166.6 27.2 165.96 26.9 165.48 26.38 165.31 25.72 165.35 25.02 165.61 24.11 165.97 23.23 166.51 22.15 167.1 21.09 167.8 19.89 168.51 18.68 169.24 17.4 169.95 16.11 170.61 14.79 171.2 13.44 171.67 12.13 172.02 10.79" style="fill:none; stroke:#aaa; stroke-miterlimit:10; stroke-width:.5px;"/><polyline points="135.23 1.55 136.53 4.67 137.76 7.82 138.74 10.43 139.73 13.03 140.59 15.2 141.52 17.33 142.43 19.13 143.49 20.85 144.65 22.36 145.99 23.72 147.63 25.01 149.41 26.1 151.71 27.19 154.1 28.1 157.23 29.06 160.42 29.87 159.95 29.33 159.71 28.65 159.69 27.81 159.85 26.98 160.19 25.94 160.62 24.94 161.21 23.75 161.83 22.59 162.55 21.31 163.28 20.03 164.03 18.69 164.77 17.33 165.46 15.96 166.09 14.57 166.62 13.21 167.06 11.82" style="fill:none; stroke:#aaa; stroke-miterlimit:10; stroke-width:.5px;"/><polyline points="129.9 1.55 130.92 4.73 131.92 7.92 132.77 10.64 133.67 13.34 134.5 15.65 135.43 17.92 136.39 19.91 137.49 21.81 138.72 23.53 140.12 25.11 141.79 26.63 143.6 27.96 145.86 29.32 148.22 30.5 151.2 31.75 154.24 32.84 153.99 32.05 153.95 31.23 154.09 30.22 154.36 29.24 154.8 28.07 155.31 26.92 155.95 25.64 156.63 24.36 157.38 22.99 158.14 21.62 158.93 20.2 159.69 18.77 160.42 17.34 161.1 15.88 161.69 14.47 162.2 13.02" style="fill:none; stroke:#aaa; stroke-miterlimit:10; stroke-width:.5px;"/><polyline points="124.3 1.55 125.03 4.75 125.79 7.95 126.52 10.77 127.32 13.57 128.14 16.07 129.09 18.52 130.1 20.74 131.27 22.88 132.59 24.88 134.07 26.75 135.8 28.57 137.68 30.23 139.92 31.9 142.28 33.41 145.13 34.97 148.07 36.38 148.05 35.37 148.2 34.36 148.51 33.18 148.91 32.02 149.47 30.7 150.08 29.4 150.79 27.99 151.54 26.58 152.35 25.1 153.16 23.62 153.99 22.1 154.79 20.57 155.57 19.05 156.3 17.5 156.95 16 157.54 14.47" style="fill:none; stroke:#aaa; stroke-miterlimit:10; stroke-width:.5px;"/><polyline points="118.46 1.55 118.88 4.63 119.4 7.7 120 10.59 120.72 13.45 121.54 16.15 122.51 18.81 123.6 21.35 124.86 23.81 126.28 26.19 127.87 28.46 129.68 30.68 131.65 32.77 133.9 34.85 136.29 36.77 139.03 38.7 141.89 40.46 142.12 39.23 142.45 38.02 142.94 36.64 143.5 35.29 144.19 33.8 144.91 32.33 145.72 30.77 146.56 29.21 147.44 27.59 148.32 25.97 149.2 24.33 150.07 22.68 150.9 21.04 151.7 19.39 152.42 17.78 153.07 16.15" style="fill:none; stroke:#aaa; stroke-miterlimit:10; stroke-width:.5px;"/><polyline points="112.48 1.55 112.59 3.83 112.87 6.1 113.35 8.74 113.97 11.36 114.81 14.26 115.79 17.11 116.98 20.14 118.32 23.1 119.87 26.14 121.58 29.11 123.49 32.05 125.56 34.88 127.83 37.62 130.27 40.2 132.9 42.62 135.71 44.82 136.18 43.37 136.72 41.93 137.4 40.35 138.12 38.8 138.95 37.13 139.81 35.47 140.73 33.73 141.67 32 142.64 30.23 143.61 28.45 144.57 26.66 145.51 24.87 146.4 23.1 147.27 21.31 148.05 19.57 148.78 17.82" style="fill:none; stroke:#aaa; stroke-miterlimit:10; stroke-width:.5px;"/><polyline points="106.47 1.57 106.25 3.66 106.31 5.76 106.65 8.46 107.19 11.13 108.04 14.27 109.04 17.35 110.33 20.74 111.77 24.07 113.44 27.55 115.27 30.95 117.29 34.35 119.46 37.65 121.77 40.8 124.24 43.81 126.8 46.56 129.53 49.11 130.23 47.44 130.98 45.8 131.84 44.03 132.73 42.27 133.7 40.43 134.7 38.59 135.73 36.69 136.78 34.8 137.84 32.88 138.89 30.95 139.93 29.02 140.94 27.08 141.91 25.18 142.84 23.26 143.69 21.4 144.49 19.52" style="fill:none; stroke:#aaa; stroke-miterlimit:10; stroke-width:.5px;"/><polyline points="100.56 1.59 99.99 3.8 99.84 6.08 100.04 8.99 100.52 11.86 101.35 15.24 102.39 18.56 103.76 22.21 105.29 25.79 107.08 29.52 109.02 33.18 111.13 36.81 113.4 40.36 115.74 43.7 118.24 46.93 120.71 49.82 123.36 52.54 124.27 50.73 125.22 48.93 126.26 47.03 127.31 45.13 128.43 43.16 129.55 41.19 130.7 39.17 131.85 37.15 133 35.11 134.14 33.06 135.25 31.03 136.33 28.98 137.36 26.97 138.36 24.94 139.27 22.98 140.13 21" style="fill:none; stroke:#aaa; stroke-miterlimit:10; stroke-width:.5px;"/><polyline points="94.85 1.6 93.96 3.9 93.6 6.35 93.64 9.43 94.06 12.49 94.87 16.07 95.94 19.59 97.37 23.47 98.98 27.26 100.87 31.21 102.9 35.09 105.1 38.91 107.43 42.65 109.78 46.16 112.28 49.56 114.66 52.54 117.18 55.4 118.3 53.46 119.44 51.53 120.64 49.51 121.85 47.49 123.1 45.4 124.34 43.31 125.6 41.19 126.85 39.06 128.08 36.93 129.29 34.78 130.47 32.65 131.62 30.5 132.7 28.41 133.75 26.29 134.71 24.25 135.62 22.18" style="fill:none; stroke:#aaa; stroke-miterlimit:10; stroke-width:.5px;"/><polyline points="89.43 1.61 88.24 3.97 87.67 6.56 87.56 9.77 87.9 12.97 88.69 16.71 89.77 20.38 91.24 24.42 92.92 28.39 94.87 32.5 96.97 36.53 99.21 40.5 101.58 44.4 103.92 48.01 106.38 51.54 108.64 54.58 111 57.54 112.32 55.49 113.63 53.45 114.98 51.33 116.33 49.21 117.69 47.03 119.05 44.85 120.39 42.65 121.72 40.43 123.02 38.22 124.3 36 125.53 33.8 126.72 31.58 127.85 29.42 128.94 27.24 129.93 25.14 130.88 23.01" style="fill:none; stroke:#aaa; stroke-miterlimit:10; stroke-width:.5px;"/><polyline points="84.3 1.61 82.83 4 82.05 6.7 81.8 9.98 82.06 13.28 82.8 17.12 83.88 20.9 85.38 25.05 87.09 29.11 89.09 33.33 91.23 37.47 93.49 41.53 95.86 45.53 98.16 49.2 100.54 52.82 102.65 55.89 104.82 58.92 106.31 56.79 107.79 54.65 109.27 52.46 110.75 50.26 112.21 48.02 113.66 45.77 115.08 43.51 116.48 41.24 117.83 38.97 119.16 36.7 120.42 34.45 121.65 32.19 122.8 29.99 123.92 27.77 124.94 25.63 125.91 23.47" style="fill:none; stroke:#aaa; stroke-miterlimit:10; stroke-width:.5px;"/><polyline points="79.41 1.62 77.68 4 76.68 6.77 76.29 10.09 76.46 13.43 77.17 17.33 78.23 21.15 79.73 25.35 81.46 29.47 83.48 33.74 85.64 37.94 87.9 42.04 90.25 46.1 92.48 49.81 94.75 53.49 96.7 56.58 98.65 59.67 100.3 57.48 101.92 55.27 103.53 53.02 105.12 50.76 106.67 48.48 108.2 46.18 109.69 43.88 111.14 41.56 112.54 39.27 113.9 36.96 115.19 34.69 116.45 32.4 117.62 30.18 118.74 27.94 119.78 25.78 120.76 23.61" style="fill:none; stroke:#aaa; stroke-miterlimit:10; stroke-width:.5px;"/><polyline points="74.68 1.62 72.71 3.98 71.49 6.8 70.96 10.12 71.05 13.5 71.69 17.42 72.74 21.25 74.24 25.48 75.97 29.62 78 33.91 80.16 38.13 82.4 42.25 84.7 46.33 86.85 50.05 89 53.77 90.77 56.86 92.47 59.98 94.27 57.74 96.05 55.47 97.78 53.19 99.47 50.87 101.11 48.56 102.71 46.22 104.26 43.9 105.76 41.55 107.19 39.24 108.58 36.9 109.89 34.62 111.16 32.32 112.34 30.09 113.48 27.84 114.52 25.68 115.51 23.49" style="fill:none; stroke:#aaa; stroke-miterlimit:10; stroke-width:.5px;"/><polyline points="70.05 1.63 67.85 3.95 66.41 6.81 65.73 10.12 65.73 13.51 66.32 17.43 67.34 21.27 68.83 25.5 70.57 29.64 72.59 33.93 74.74 38.16 76.95 42.28 79.2 46.37 81.26 50.08 83.27 53.81 84.85 56.89 86.29 60.04 88.26 57.76 90.18 55.44 92.02 53.12 93.83 50.76 95.55 48.42 97.23 46.05 98.83 43.7 100.38 41.33 101.84 39 103.26 36.65 104.59 34.35 105.87 32.04 107.05 29.8 108.19 27.54 109.23 25.38 110.22 23.19" style="fill:none; stroke:#aaa; stroke-miterlimit:10; stroke-width:.5px;"/><polyline points="65.45 1.63 63.03 3.92 61.37 6.81 60.55 10.1 60.46 13.5 60.99 17.42 61.98 21.25 63.46 25.48 65.19 29.61 67.21 33.89 69.35 38.12 71.52 42.22 73.72 46.32 75.67 50.02 77.55 53.76 78.95 56.82 80.11 59.98 82.3 57.61 84.44 55.21 86.46 52.85 88.43 50.45 90.28 48.1 92.08 45.72 93.76 43.39 95.4 41.03 96.92 38.74 98.38 36.41 99.74 34.16 101.04 31.88 102.24 29.67 103.38 27.44 104.41 25.3 105.4 23.13" style="fill:none; stroke:#aaa; stroke-miterlimit:10; stroke-width:.5px;"/><polyline points="60.87 1.63 58.23 3.89 56.34 6.8 55.38 10.07 55.2 13.48 55.67 17.39 56.63 21.22 58.09 25.44 59.82 29.56 61.83 33.84 63.96 38.06 66.1 42.15 68.24 46.24 70.1 49.93 71.83 53.67 73.04 56.73 73.94 59.89 76.37 57.43 78.76 54.93 80.97 52.54 83.13 50.1 85.11 47.76 87.04 45.38 88.81 43.1 90.53 40.77 92.1 38.53 93.62 36.25 95 34.04 96.32 31.81 97.52 29.64 98.66 27.44 99.7 25.3 100.66 23.13" style="fill:none; stroke:#aaa; stroke-miterlimit:10; stroke-width:.5px;"/><polyline points="56.29 1.64 53.43 3.86 51.31 6.79 50.21 10.04 49.93 13.46 50.35 17.37 51.28 21.19 52.73 25.4 54.45 29.52 56.46 33.78 58.57 38 60.68 42.08 62.76 46.17 64.52 49.85 66.11 53.59 67.14 56.65 67.76 59.8 70.43 57.27 73.05 54.7 75.43 52.27 77.75 49.8 79.85 47.46 81.9 45.08 83.74 42.81 85.53 40.49 87.14 38.28 88.69 36.02 90.08 33.84 91.41 31.62 92.62 29.45 93.75 27.26 94.78 25.09 95.74 22.9" style="fill:none; stroke:#aaa; stroke-miterlimit:10; stroke-width:.5px;"/><polyline points="51.72 1.64 48.64 3.83 46.29 6.79 45.06 10 44.69 13.44 45.04 17.33 45.94 21.15 47.38 25.35 49.1 29.46 51.1 33.71 53.2 37.92 55.27 41.99 57.29 46.08 58.95 49.74 60.4 53.48 61.25 56.54 61.58 59.68 64.49 57.09 67.35 54.44 69.89 51.99 72.38 49.48 74.59 47.14 76.73 44.74 78.64 42.49 80.49 40.18 82.13 37.98 83.7 35.73 85.11 33.56 86.44 31.34 87.64 29.17 88.77 26.96 89.8 24.76 90.76 22.54" style="fill:none; stroke:#aaa; stroke-miterlimit:10; stroke-width:.5px;"/><polyline points="47.2 1.64 43.91 3.8 41.33 6.77 39.96 9.95 39.49 13.39 39.78 17.27 40.65 21.06 42.07 25.25 43.78 29.34 45.77 33.57 47.85 37.76 49.88 41.81 51.83 45.89 53.4 49.53 54.69 53.27 55.36 56.33 55.4 59.45 58.55 56.79 61.64 54.08 64.34 51.6 66.98 49.07 69.29 46.73 71.54 44.33 73.5 42.09 75.39 39.78 77.06 37.6 78.64 35.36 80.05 33.2 81.38 30.98 82.58 28.8 83.7 26.58 84.74 24.34 85.7 22.07" style="fill:none; stroke:#aaa; stroke-miterlimit:10; stroke-width:.5px;"/><polyline points="42.79 1.64 39.29 3.77 36.48 6.72 34.98 9.86 34.41 13.29 34.64 17.13 35.47 20.9 36.86 25.05 38.55 29.1 40.52 33.29 42.57 37.45 44.55 41.46 46.43 45.51 47.88 49.11 49.01 52.82 49.47 55.88 49.23 58.95 52.6 56.25 55.92 53.49 58.78 51 61.57 48.45 63.97 46.12 66.29 43.72 68.3 41.5 70.23 39.22 71.9 37.06 73.49 34.83 74.9 32.68 76.21 30.48 77.41 28.28 78.52 26.05 79.56 23.76 80.53 21.45" style="fill:none; stroke:#aaa; stroke-miterlimit:10; stroke-width:.5px;"/><polyline points="38.55 1.65 34.86 3.72 31.83 6.64 30.2 9.7 29.52 13.1 29.67 16.87 30.46 20.58 31.82 24.67 33.48 28.65 35.41 32.77 37.41 36.86 39.32 40.8 41.1 44.79 42.43 48.33 43.37 51.98 43.61 55.03 43.05 58.02 46.65 55.29 50.19 52.5 53.19 50.02 56.11 47.47 58.59 45.17 60.98 42.79 63.01 40.62 64.95 38.36 66.62 36.24 68.19 34.05 69.58 31.92 70.87 29.74 72.05 27.54 73.15 25.3 74.2 22.98 75.19 20.63" style="fill:none; stroke:#aaa; stroke-miterlimit:10; stroke-width:.5px;"/><polyline points="34.57 1.65 30.7 3.64 27.44 6.5 25.69 9.44 24.89 12.77 24.97 16.42 25.69 20.01 27 23.96 28.61 27.79 30.48 31.76 32.42 35.69 34.22 39.44 35.88 43.26 37.05 46.6 37.78 50.06 37.77 52.94 36.87 55.67 40.7 53.05 44.46 50.34 47.58 47.98 50.63 45.52 53.15 43.35 55.59 41.08 57.62 39.01 59.56 36.86 61.2 34.83 62.74 32.73 64.09 30.66 65.34 28.54 66.5 26.37 67.58 24.16 68.64 21.81 69.66 19.44" style="fill:none; stroke:#aaa; stroke-miterlimit:10; stroke-width:.5px;"/><polyline points="30.88 1.65 26.85 3.54 23.37 6.3 21.5 9.07 20.57 12.28 20.55 15.76 21.21 19.17 22.44 22.92 23.98 26.55 25.76 30.28 27.6 33.98 29.28 37.47 30.79 41.03 31.77 44.1 32.25 47.27 31.94 49.93 30.69 52.28 34.73 49.83 38.71 47.29 41.93 45.11 45.08 42.83 47.63 40.83 50.08 38.72 52.09 36.82 53.98 34.81 55.57 32.92 57.05 30.94 58.35 28.97 59.54 26.94 60.67 24.81 61.73 22.65 62.83 20.29 63.89 17.91" style="fill:none; stroke:#aaa; stroke-miterlimit:10; stroke-width:.5px;"/><polyline points="27.44 1.65 23.26 3.42 19.57 6.03 17.59 8.59 16.53 11.65 16.41 14.89 16.98 18.09 18.12 21.57 19.57 24.93 21.24 28.35 22.96 31.75 24.48 34.89 25.81 38.12 26.58 40.82 26.78 43.62 26.1 45.97 24.52 47.82 28.75 45.64 32.92 43.37 36.22 41.46 39.45 39.42 41.99 37.67 44.43 35.79 46.37 34.11 48.2 32.3 49.72 30.59 51.1 28.78 52.34 26.94 53.46 25.03 54.57 22.98 55.62 20.89 56.76 18.54 57.9 16.18" style="fill:none; stroke:#aaa; stroke-miterlimit:10; stroke-width:.5px;"/><polyline points="24.16 1.66 19.85 3.28 15.95 5.72 13.87 8.05 12.66 10.92 12.43 13.89 12.9 16.83 13.94 19.99 15.29 23.04 16.83 26.09 18.42 29.11 19.76 31.83 20.9 34.64 21.44 36.9 21.34 39.2 20.22 41.13 18.34 42.38 22.75 40.58 27.12 38.69 30.47 37.12 33.76 35.43 36.26 33.99 38.67 32.41 40.54 31 42.28 29.44 43.69 27.95 44.98 26.34 46.14 24.65 47.2 22.9 48.29 20.94 49.34 18.95 50.57 16.62 51.83 14.3" style="fill:none; stroke:#aaa; stroke-miterlimit:10; stroke-width:.5px;"/><polyline points="20.94 1.66 16.49 3.14 12.38 5.4 10.22 7.48 8.84 10.15 8.51 12.81 8.88 15.48 9.81 18.28 11.06 20.96 12.46 23.58 13.91 26.18 15.07 28.39 16.02 30.69 16.33 32.41 15.91 34.09 14.24 35.39 12.16 35.93 16.75 34.66 21.31 33.31 24.7 32.2 28.04 30.96 30.49 29.92 32.86 28.72 34.62 27.63 36.26 26.38 37.57 25.13 38.75 23.76 39.84 22.25 40.84 20.68 41.94 18.82 43.03 16.95 44.39 14.65 45.82 12.38" style="fill:none; stroke:#aaa; stroke-miterlimit:10; stroke-width:.5px;"/><polyline points="17.64 1.66 13.05 3.01 8.73 5.08 6.49 6.93 4.95 9.38 4.51 11.71 4.79 14.08 5.62 16.48 6.76 18.74 8.03 20.85 9.36 22.91 10.32 24.47 11.1 26.13 11.19 27.19 10.47 27.94 8.23 28.16 5.98 27.89 10.74 27.41 15.48 26.85 18.9 26.38 22.29 25.8 24.66 25.27 26.99 24.57 28.64 23.9 30.19 23.02 31.4 22.09 32.48 21 33.52 19.71 34.47 18.35 35.6 16.63 36.74 14.91 38.28 12.7 39.89 10.54" style="fill:none; stroke:#aaa; stroke-miterlimit:10; stroke-width:.5px;"/><polyline points="14.16 1.66 9.41 2.9 4.89 4.8 2.59 6.4 .86 8.6 .33 10.53 .52 12.52 1.24 14.34 2.31 15.99 3.43 17.29 4.69 18.46 5.36 18.98 6.1 19.37 5.63 18.73 4.99 18.17 2.44 16.18 -.19 14.3 4.74 15.43 9.66 16.58 13.1 17.39 16.54 18.17 18.84 18.63 21.15 18.98 22.66 19.08 24.17 18.97 25.28 18.63 26.29 18.04 27.3 17.14 28.2 16.13 29.4 14.65 30.6 13.17 32.34 11.09 34.16 9.08" style="fill:none; stroke:#aaa; stroke-miterlimit:10; stroke-width:.5px;"/><polyline points="10.41 1.66 5.48 2.81 .75 4.59 -1.64 6.07 -3.52 8.16 -4.13 9.94 -4.02 11.82 -3.36 13.53 -2.37 15.07 -1.32 16.29 -.16 17.39 .4 17.84 .98 18.24 .24 17.66 -.55 17.12 -3.44 15.27 -6.37 13.49 -1.27 14.5 3.82 15.55 7.32 16.28 10.81 16.99 13.08 17.4 15.36 17.72 16.8 17.8 18.24 17.68 19.29 17.35 20.23 16.78 21.21 15.91 22.1 14.95 23.35 13.52 24.62 12.1 26.54 10.1 28.56 8.17" style="fill:none; stroke:#aaa; stroke-miterlimit:10; stroke-width:.5px;"/><polyline points="6.36 1.66 1.25 2.76 -3.7 4.46 -6.19 5.86 -8.21 7.86 -8.9 9.54 -8.85 11.36 -8.24 12.99 -7.29 14.46 -6.29 15.62 -5.2 16.67 -4.72 17.09 -4.26 17.49 -5.21 16.95 -6.15 16.42 -9.33 14.66 -12.55 12.95 -7.25 13.89 -1.97 14.86 1.6 15.53 5.17 16.19 7.44 16.58 9.71 16.87 11.12 16.94 12.51 16.81 13.52 16.48 14.42 15.93 15.39 15.08 16.28 14.14 17.6 12.74 18.95 11.36 21.06 9.39 23.27 7.51" style="fill:none; stroke:#aaa; stroke-miterlimit:10; stroke-width:.5px;"/><polyline points="2.07 1.66 -3.26 2.72 -8.42 4.38 -11.02 5.72 -13.17 7.67 -13.92 9.29 -13.92 11.06 -13.34 12.65 -12.42 14.07 -11.45 15.18 -10.4 16.21 -9.97 16.6 -9.62 17.01 -10.72 16.51 -11.81 15.98 -15.26 14.3 -18.73 12.65 -13.22 13.53 -7.73 14.45 -4.06 15.09 -.4 15.72 1.89 16.08 4.18 16.36 5.57 16.43 6.94 16.29 7.92 15.96 8.8 15.42 9.77 14.57 10.69 13.65 12.08 12.25 13.51 10.9 15.81 8.93 18.21 7.07" style="fill:none; stroke:#aaa; stroke-miterlimit:10; stroke-width:.5px;"/><polyline points="-2.4 1.66 -7.94 2.71 -13.34 4.33 -16.04 5.64 -18.32 7.57 -19.12 9.14 -19.17 10.89 -18.6 12.45 -17.69 13.84 -16.75 14.93 -15.72 15.94 -15.3 16.33 -15.05 16.73 -16.29 16.27 -17.51 15.74 -21.2 14.12 -24.9 12.51 -19.18 13.35 -13.47 14.25 -9.69 14.87 -5.92 15.48 -3.59 15.83 -1.27 16.1 .12 16.16 1.49 16.02 2.46 15.69 3.33 15.14 4.31 14.29 5.26 13.37 6.73 11.96 8.26 10.61 10.74 8.63 13.32 6.77" style="fill:none; stroke:#aaa; stroke-miterlimit:10; stroke-width:.5px;"/><polyline points="-6.98 1.66 -12.74 2.7 -18.36 4.31 -21.17 5.61 -23.57 7.52 -24.42 9.06 -24.51 10.81 -23.96 12.36 -23.06 13.73 -22.12 14.81 -21.1 15.81 -20.7 16.21 -20.53 16.6 -21.89 16.17 -23.23 15.64 -27.15 14.05 -31.08 12.47 -25.13 13.29 -19.19 14.17 -15.28 14.78 -11.4 15.38 -9.02 15.72 -6.65 15.99 -5.27 16.04 -3.89 15.9 -2.92 15.56 -2.05 15 -1.05 14.13 -.07 13.21 1.49 11.79 3.11 10.42 5.78 8.41 8.56 6.53" style="fill:none; stroke:#aaa; stroke-miterlimit:10; stroke-width:.5px;"/><polyline points="-11.6 1.66 -17.59 2.7 -23.43 4.31 -26.35 5.59 -28.88 7.5 -29.78 9.02 -29.9 10.78 -29.36 12.31 -28.46 13.68 -27.52 14.75 -26.51 15.76 -26.12 16.16 -26.02 16.55 -27.5 16.13 -28.95 15.61 -33.1 14.04 -37.26 12.47 -31.07 13.29 -24.89 14.15 -20.87 14.75 -16.85 15.35 -14.43 15.68 -12.01 15.94 -10.62 15.99 -9.24 15.84 -8.27 15.49 -7.39 14.93 -6.36 14.04 -5.35 13.12 -3.7 11.66 -1.97 10.28 .9 8.23 3.88 6.33" style="fill:none; stroke:#aaa; stroke-miterlimit:10; stroke-width:.5px;"/></svg>