<?xml version="1.0" encoding="UTF-8"?>
<svg id="Ebene_1" xmlns="http://www.w3.org/2000/svg" width="222" height="222" viewBox="0 0 222 222">
  <polyline points="43.05 186.57 41.56 180.97 37.83 176.7 34.44 176.15 31.06 176.83 29.21 177.35 27.8 176.69 30.16 171.23 33.12 166.03 31.21 174.16 29.79 182.37 29.99 184.61 31.6 186.07 34.41 187.51 36.63 189.75 40.54 197.57 42.96 206.01 45.11 198.07 48.45 190.57 50.38 188.15 52.93 186.41 54.25 185.64 54.69 184.21 53.58 179.41 52.06 174.7" fill="none" stroke="#aaa" stroke-miterlimit="10" stroke-width=".5"/>
  <polyline points="43.05 181.9 41.51 176.56 37.74 172.64 34.28 172.17 30.83 172.86 28.99 173.39 27.53 172.86 30.01 167.76 33.03 162.93 31.04 170.72 29.55 178.6 29.74 180.81 31.36 182.23 34.2 183.64 36.49 185.83 40.47 193.27 42.96 201.37 45.18 193.77 48.57 186.64 50.57 184.28 53.14 182.58 54.48 181.84 54.95 180.43 53.83 175.87 52.29 171.41" fill="none" stroke="#aaa" stroke-miterlimit="10" stroke-width=".5"/>
  <polyline points="43.07 176.91 41.37 171.82 37.43 168.34 33.73 167.96 30.07 168.71 28.18 169.26 26.59 168.92 29.35 164.23 32.58 159.83 30.39 167.33 28.72 174.94 28.91 177.17 30.59 178.58 33.56 180 36.06 182.16 40.27 189.24 42.98 197.05 45.37 189.75 48.97 182.99 51.14 180.65 53.85 178.97 55.25 178.22 55.81 176.81 54.65 172.5 53.03 168.31" fill="none" stroke="#aaa" stroke-miterlimit="10" stroke-width=".5"/>
  <polyline points="43.1 171.73 41.16 166.87 36.97 163.87 32.94 163.63 28.97 164.44 26.99 165.02 25.23 164.91 28.37 160.68 31.91 156.72 29.42 163.96 27.49 171.35 27.69 173.64 29.46 175.05 32.65 176.49 35.43 178.64 39.99 185.36 43.01 192.94 45.66 185.91 49.54 179.51 51.96 177.17 54.88 175.49 56.37 174.74 57.06 173.3 55.86 169.23 54.13 165.32" fill="none" stroke="#aaa" stroke-miterlimit="10" stroke-width=".5"/>
  <polyline points="43.11 166.47 40.89 161.87 36.5 159.35 32.15 159.23 27.87 160.13 25.79 160.74 23.86 160.87 27.35 157.12 31.13 153.62 28.3 160.61 26.06 167.79 26.26 170.15 28.13 171.57 31.59 173.05 34.68 175.19 39.64 181.56 43.02 188.91 45.97 182.14 50.17 176.09 52.88 173.76 56.03 172.07 57.64 171.3 58.49 169.83 57.24 165.98 55.4 162.33" fill="none" stroke="#aaa" stroke-miterlimit="10" stroke-width=".5"/>
  <polyline points="43.13 161.27 40.61 156.94 36.08 154.87 31.43 154.88 26.86 155.85 24.69 156.5 22.61 156.85 26.43 153.59 30.43 150.52 27.25 157.24 24.7 164.21 24.9 166.63 26.87 168.05 30.58 169.57 33.97 171.7 39.29 177.7 43.04 184.83 46.28 178.32 50.76 172.63 53.75 170.31 57.13 168.62 58.86 167.82 59.87 166.33 58.6 162.68 56.67 159.29" fill="none" stroke="#aaa" stroke-miterlimit="10" stroke-width=".5"/>
  <polyline points="43.17 156.24 40.39 152.22 35.79 150.52 30.92 150.64 26.15 151.67 23.89 152.35 21.72 152.89 25.8 150.11 29.96 147.42 26.48 153.85 23.67 160.57 23.87 163.01 25.9 164.43 29.81 165.97 33.44 168.07 39.02 173.71 43.07 180.56 46.55 174.35 51.24 169.01 54.45 166.74 58.01 165.05 59.83 164.24 60.98 162.74 59.72 159.28 57.73 156.12" fill="none" stroke="#aaa" stroke-miterlimit="10" stroke-width=".5"/>
  <polyline points="43.26 151.42 40.29 147.73 35.7 146.35 30.72 146.56 25.83 147.62 23.54 148.31 21.32 149.01 25.57 146.66 29.82 144.32 26.13 150.42 23.11 156.85 23.31 159.29 25.37 160.68 29.39 162.22 33.18 164.26 38.9 169.53 43.17 176.07 46.81 170.18 51.61 165.2 54.97 162.99 58.64 161.33 60.51 160.52 61.76 159.02 60.5 155.73 58.47 152.77" fill="none" stroke="#aaa" stroke-miterlimit="10" stroke-width=".5"/>
  <polyline points="42.97 146.76 39.85 143.41 35.35 142.31 30.32 142.59 25.4 143.66 23.09 144.37 20.86 145.18 25.2 143.25 29.48 141.21 25.65 146.96 22.49 153.08 22.67 155.48 24.73 156.83 28.81 158.36 32.7 160.33 38.47 165.23 42.88 171.41 46.63 165.86 51.47 161.24 54.92 159.11 58.64 157.51 60.55 156.7 61.86 155.21 60.61 152.09 58.57 149.32" fill="none" stroke="#aaa" stroke-miterlimit="10" stroke-width=".5"/>
  <polyline points="42.94 142.19 39.7 139.19 35.3 138.33 30.28 138.67 25.35 139.76 23.03 140.47 20.84 141.38 25.21 139.85 29.52 138.11 25.56 143.49 22.28 149.27 22.45 151.63 24.49 152.94 28.61 154.44 32.56 156.33 38.34 160.86 42.85 166.67 46.68 161.47 51.52 157.2 55.03 155.18 58.79 153.63 60.71 152.82 62.07 151.36 60.83 148.39 58.78 145.82" fill="none" stroke="#aaa" stroke-miterlimit="10" stroke-width=".5"/>
  <polyline points="42.85 137.63 39.49 135 35.19 134.36 30.02 134.78 24.95 135.86 22.25 136.64 19.63 137.59 23.19 136.38 26.73 135.01 23.4 140.02 20.94 145.46 21.7 147.82 23.97 149.03 28.24 150.48 32.39 152.31 38.16 156.47 42.77 161.91 46.63 157.1 51.41 153.22 55.14 151.25 59.08 149.78 61.48 148.95 63.59 147.6 63.83 145.09 62.76 142.69" fill="none" stroke="#aaa" stroke-miterlimit="10" stroke-width=".5"/>
  <polyline points="42.79 133.08 39.31 130.83 35.1 130.4 29.79 130.89 24.56 131.97 21.46 132.81 18.41 133.8 21.04 132.94 23.86 131.91 21.18 136.57 19.64 141.65 21 143.97 23.52 145.12 27.97 146.53 32.28 148.29 38.03 152.08 42.72 157.14 46.6 152.71 51.31 149.19 55.15 147.31 59.18 145.92 61.87 145.06 64.36 143.8 65.36 141.69 64.88 139.34" fill="none" stroke="#aaa" stroke-miterlimit="10" stroke-width=".5"/>
  <polyline points="42.78 128.55 39.19 126.7 35.08 126.45 29.68 127.01 24.36 128.09 20.98 128.97 17.65 130.02 19.58 129.56 21.99 128.81 19.73 133.13 18.81 137.83 20.55 140.08 23.25 141.2 27.8 142.57 32.24 144.26 37.95 147.69 42.71 152.35 46.61 148.31 51.25 145.13 55.15 143.36 59.23 142.02 62.09 141.16 64.81 139.95 66.19 138.16 66.15 135.86" fill="none" stroke="#aaa" stroke-miterlimit="10" stroke-width=".5"/>
  <polyline points="42.93 124.09 39.28 122.65 35.28 122.56 29.86 123.19 24.51 124.25 20.95 125.15 17.45 126.26 18.78 126.22 20.94 125.7 19 129.68 18.52 133.99 20.54 136.14 23.35 137.24 27.95 138.57 32.45 140.17 38.07 143.25 42.87 147.49 46.78 143.83 51.32 140.99 55.26 139.33 59.33 138.07 62.31 137.21 65.15 136.05 66.73 134.47 67.02 132.26" fill="none" stroke="#aaa" stroke-miterlimit="10" stroke-width=".5"/>
  <polyline points="42.77 119.78 39.13 118.74 35.29 118.8 29.94 119.46 24.65 120.51 21.01 121.41 17.45 122.56 18.28 122.91 20.26 122.6 18.58 126.21 18.42 130.09 20.61 132.12 23.46 133.19 28.01 134.46 32.5 135.95 37.95 138.68 42.72 142.47 46.59 139.2 51 136.7 54.91 135.18 58.93 133.99 61.93 133.15 64.82 132.03 66.47 130.61 66.99 128.51" fill="none" stroke="#aaa" stroke-miterlimit="10" stroke-width=".5"/>
  <polyline points="42.69 115.69 39.16 115.03 35.54 115.2 30.4 115.89 25.31 116.89 21.71 117.77 18.2 118.93 18.57 119.6 20.4 119.5 18.94 122.7 19.02 126.12 21.27 128 24.07 129.01 28.48 130.2 32.84 131.57 38.02 133.93 42.65 137.22 46.42 134.37 50.63 132.22 54.44 130.84 58.33 129.75 61.28 128.95 64.12 127.87 65.76 126.58 66.37 124.61" fill="none" stroke="#aaa" stroke-miterlimit="10" stroke-width=".5"/>
  <polyline points="42.65 111.77 39.33 111.48 35.98 111.74 31.17 112.43 26.39 113.37 22.93 114.22 19.56 115.36 19.5 116.27 21.18 116.4 19.93 119.16 20.18 122.09 22.41 123.79 25.09 124.72 29.26 125.83 33.41 127.05 38.22 129.03 42.63 131.8 46.25 129.39 50.21 127.58 53.85 126.37 57.55 125.38 60.38 124.63 63.1 123.6 64.65 122.42 65.26 120.6" fill="none" stroke="#aaa" stroke-miterlimit="10" stroke-width=".5"/>
  <polyline points="42.64 107.9 39.56 107.97 36.5 108.32 32.06 109.01 27.65 109.89 24.42 110.69 21.29 111.81 21.04 112.91 22.62 113.3 21.47 115.58 21.75 118.04 23.89 119.55 26.39 120.41 30.28 121.42 34.15 122.48 38.54 124.09 42.63 126.33 46.07 124.35 49.75 122.87 53.21 121.84 56.71 120.95 59.36 120.24 61.9 119.25 63.28 118.14 63.72 116.46" fill="none" stroke="#aaa" stroke-miterlimit="10" stroke-width=".5"/>
  <polyline points="42.64 103.95 39.05 104.34 35.47 104.83 31.43 105.51 27.43 106.36 24.81 107.09 22.36 108.23 22.51 109.56 24.05 110.19 22.97 112.02 23.29 114.02 25.36 115.36 27.72 116.14 31.34 117.06 34.96 117.98 38.9 119.23 42.65 120.94 45.96 119.37 49.43 118.2 52.78 117.32 56.15 116.5 58.63 115.8 60.98 114.79 62.1 113.63 62.07 112.04" fill="none" stroke="#aaa" stroke-miterlimit="10" stroke-width=".5"/>
  <polyline points="42.66 99.81 38.87 100.53 35.07 101.2 31.31 101.89 27.57 102.71 25.27 103.41 23.21 104.59 23.53 106.14 25.06 107.09 24.04 108.48 24.44 110.06 26.51 111.25 28.81 111.99 32.25 112.84 35.71 113.63 39.23 114.55 42.67 115.74 45.91 114.58 49.24 113.7 52.61 112.92 55.97 112.12 58.31 111.42 60.49 110.33 61.17 109 60.43 107.65" fill="none" stroke="#aaa" stroke-miterlimit="10" stroke-width=".5"/>
  <polyline points="42.68 95.45 38.84 96.54 34.94 97.4 31.31 98.12 27.71 98.94 25.55 99.63 23.7 100.87 24.08 102.69 25.6 103.99 24.63 104.98 25.16 106.18 27.35 107.25 29.7 107.96 33.07 108.76 36.47 109.45 39.59 110.07 42.69 110.76 45.75 110.07 48.84 109.45 52.25 108.75 55.63 107.96 57.96 107.26 60.11 106.19 60.46 104.92 59.35 104.01 59.49 103.92 59.62 103.83 59.75 103.74 59.88 103.65 60 103.56 60.12 103.48 60.23 103.39 60.34 103.31" fill="none" stroke="#aaa" stroke-miterlimit="10" stroke-width=".5"/>
  <polyline points="42.64 90.97 38.83 92.43 34.89 93.48 31.36 94.26 27.86 95.08 25.83 95.77 24.21 97.1 24.89 99.25 26.59 100.89 25.49 101.43 26.13 102.35 28.6 103.31 31.17 104.02 34.54 104.76 37.93 105.38 40.29 105.73 42.65 105.93 44.99 105.73 47.31 105.38 50.72 104.76 54.1 104.02 56.64 103.32 59.07 102.36 59.46 101.39 58.25 100.93 58.6 100.66 58.94 100.38 59.23 100.13 59.52 99.87 59.76 99.64 60 99.4 60.2 99.18 60.38 98.96" fill="none" stroke="#aaa" stroke-miterlimit="10" stroke-width=".5"/>
  <polyline points="42.64 86.41 38.9 88.25 34.94 89.52 31.51 90.36 28.1 91.19 26.17 91.89 24.81 93.31 25.83 95.8 27.78 97.79 26.54 97.85 26.46 98.54 28.77 99.44 31.17 100.11 34.52 100.84 37.91 101.36 40.32 101.52 42.68 101.16 44.99 101.52 47.36 101.37 50.76 100.84 54.12 100.11 56.48 99.45 58.74 98.55 58.38 97.89 57.04 97.85 57.51 97.45 57.97 97.03 58.36 96.66 58.74 96.28 59.05 95.94 59.34 95.6 59.58 95.29 59.8 94.98" fill="none" stroke="#aaa" stroke-miterlimit="10" stroke-width=".5"/>
  <polyline points="42.64 81.85 38.99 84.04 35 85.55 31.68 86.44 28.35 87.29 26.54 88.01 25.45 89.52 26.85 92.35 29.06 94.68 27.62 94.46 26.72 94.73 28.87 95.58 31.09 96.21 34.45 96.94 37.85 97.36 40.39 97.32 42.7 96.41 44.96 97.32 47.45 97.36 50.86 96.94 54.22 96.21 56.4 95.59 58.49 94.75 57.33 94.54 55.74 94.78 56.27 94.29 56.78 93.79 57.22 93.34 57.65 92.89 58.01 92.49 58.35 92.09 58.63 91.74 58.89 91.37" fill="none" stroke="#aaa" stroke-miterlimit="10" stroke-width=".5"/>
  <polyline points="42.56 77.28 38.99 79.82 34.98 81.57 31.77 82.52 28.56 83.39 26.86 84.14 26.1 85.72 27.93 88.88 30.45 91.58 28.64 91.1 26.99 90.92 28.93 91.72 30.95 92.31 34.3 93.03 37.71 93.35 40.4 93.08 42.63 91.66 44.79 93.09 47.44 93.36 50.84 93.03 54.19 92.31 56.16 91.73 58.04 90.95 56.13 91.18 54.12 91.7 54.67 91.17 55.21 90.63 55.68 90.15 56.14 89.66 56.53 89.23 56.92 88.79 57.24 88.4 57.55 88.01" fill="none" stroke="#aaa" stroke-miterlimit="10" stroke-width=".5"/>
  <polyline points="42.59 72.68 39.14 75.56 35.13 77.58 32.04 78.58 28.94 79.47 27.37 80.28 27 81.92 29.35 85.41 32.28 88.48 29.9 87.68 27.51 87.13 29.19 87.88 30.97 88.43 34.3 89.14 37.68 89.37 40.54 88.84 42.68 86.94 44.73 88.85 47.54 89.38 50.92 89.15 54.23 88.43 55.94 87.9 57.54 87.16 54.87 87.77 52.24 88.63 52.81 88.07 53.37 87.52 53.87 87.01 54.36 86.51 54.79 86.05 55.22 85.59 55.59 85.18 55.95 84.77" fill="none" stroke="#aaa" stroke-miterlimit="10" stroke-width=".5"/>
  <polyline points="42.73 68 39.39 71.22 35.36 73.51 32.39 74.57 29.41 75.5 28 76.44 28.15 78.08 31.27 81.91 34.83 85.38 31.61 84.23 28.32 83.37 29.59 84.1 31.09 84.6 34.38 85.32 37.73 85.46 40.77 84.64 42.83 82.32 44.78 84.65 47.76 85.47 51.03 85.33 54.22 84.6 55.57 84.12 56.4 83.4 52.4 84.3 48.49 85.55 49.13 85 49.77 84.45 50.36 83.94 50.94 83.43 51.47 82.97 51.99 82.5 52.46 82.08 52.93 81.65" fill="none" stroke="#aaa" stroke-miterlimit="10" stroke-width=".5"/>
  <polyline points="42.53 63.14 39.16 66.71 34.98 69.3 31.96 70.44 28.89 71.42 27.42 72.44 27.57 74.18 30.7 78.41 34.3 82.28 30.85 80.85 27.33 79.66 28.68 80.37 30.25 80.88 33.72 81.62 37.27 81.69 40.56 80.6 42.64 77.87 44.61 80.61 47.83 81.7 51.28 81.62 54.65 80.88 56.06 80.38 56.94 79.71 52.67 80.93 48.5 82.48 49.12 81.9 49.73 81.31 50.29 80.78 50.85 80.24 51.35 79.75 51.86 79.25 52.31 78.8 52.77 78.35" fill="none" stroke="#aaa" stroke-miterlimit="10" stroke-width=".5"/>
  <polyline points="42.49 58.06 38.97 62.02 34.53 64.92 31.35 66.17 28.11 67.21 26.55 68.32 26.69 70.21 29.95 74.87 33.72 79.17 30.02 77.5 26.25 76.04 27.7 76.74 29.37 77.28 33.09 78.06 36.88 78.1 40.45 76.76 42.61 73.65 44.64 76.77 48.14 78.11 51.82 78.07 55.42 77.29 56.91 76.76 57.84 76.09 53.29 77.58 48.85 79.4 49.47 78.77 50.09 78.15 50.66 77.57 51.22 76.99 51.74 76.45 52.26 75.92 52.72 75.43 53.19 74.94" fill="none" stroke="#aaa" stroke-miterlimit="10" stroke-width=".5"/>
  <polyline points="42.47 52.83 38.71 57.2 33.93 60.42 30.51 61.79 27.04 62.92 25.35 64.13 25.5 66.18 28.98 71.32 33 76.07 29.01 74.16 24.95 72.47 26.52 73.2 28.31 73.78 32.32 74.61 36.41 74.62 40.3 73.07 42.59 69.59 44.75 73.08 48.56 74.63 52.53 74.62 56.41 73.78 58.01 73.22 59.03 72.52 54.12 74.26 49.33 76.33 49.98 75.64 50.64 74.96 51.24 74.32 51.83 73.69 52.38 73.11 52.92 72.52 53.42 71.99 53.91 71.45" fill="none" stroke="#aaa" stroke-miterlimit="10" stroke-width=".5"/>
  <polyline points="42.45 47.57 38.43 52.36 33.29 55.89 29.63 57.38 25.89 58.6 24.07 59.92 24.23 62.14 27.94 67.76 32.24 72.97 27.95 70.83 23.57 68.9 25.27 69.67 27.19 70.29 31.52 71.19 35.92 71.17 40.13 69.41 42.57 65.56 44.87 69.41 49.01 71.18 53.28 71.19 57.46 70.29 59.18 69.69 60.28 68.96 54.99 70.94 49.84 73.25 50.53 72.51 51.22 71.76 51.86 71.08 52.49 70.39 53.07 69.76 53.64 69.12 54.17 68.54 54.69 67.96" fill="none" stroke="#aaa" stroke-miterlimit="10" stroke-width=".5"/>
  <polyline points="42.4 42.41 38.18 47.6 32.72 51.45 28.86 53.05 24.91 54.35 22.97 55.76 23.14 58.14 27.03 64.21 31.56 69.87 27 67.49 22.35 65.3 24.17 66.08 26.2 66.74 30.79 67.69 35.47 67.63 39.98 65.64 42.52 61.42 44.93 65.64 49.36 67.65 53.89 67.7 58.33 66.74 60.15 66.11 61.33 65.37 55.72 67.6 50.25 70.17 50.97 69.38 51.68 68.58 52.34 67.85 52.99 67.12 53.59 66.44 54.19 65.76 54.73 65.13 55.27 64.51" fill="none" stroke="#aaa" stroke-miterlimit="10" stroke-width=".5"/>
  <polyline points="42.68 37.48 38.36 43.02 32.71 47.18 28.75 48.87 24.67 50.23 22.66 51.72 22.82 54.22 26.79 60.7 31.41 66.76 26.68 64.12 21.87 61.63 23.76 62.38 25.87 63.06 30.64 64.03 35.49 63.92 40.22 61.64 42.8 57.06 45.25 61.64 49.9 63.94 54.6 64.04 59.21 63.07 61.09 62.41 62.32 61.7 56.5 64.24 50.83 67.1 51.54 66.27 52.24 65.44 52.9 64.68 53.55 63.91 54.14 63.2 54.74 62.49 55.28 61.83 55.83 61.18" fill="none" stroke="#aaa" stroke-miterlimit="10" stroke-width=".5"/>
  <polyline points="42.94 32.88 38.7 38.73 33.03 43.18 29.11 44.93 25.05 46.3 23.02 47.86 23.18 50.41 27.04 57.23 31.57 63.66 26.81 60.7 22 57.83 23.91 58.5 26.04 59.19 30.84 60.14 35.71 59.95 40.56 57.29 43.07 52.34 45.45 57.29 50.21 59.96 54.93 60.15 59.56 59.19 61.44 58.53 62.69 57.91 56.84 60.83 51.13 64.02 51.79 63.19 52.45 62.35 53.06 61.57 53.67 60.8 54.24 60.07 54.8 59.35 55.31 58.68 55.83 58.02" fill="none" stroke="#aaa" stroke-miterlimit="10" stroke-width=".5"/>
  <polyline points="42.82 28.67 38.84 34.75 33.38 39.5 29.68 41.27 25.8 42.62 23.83 44.2 23.96 46.74 27.53 53.82 31.75 60.56 27.12 57.23 22.5 53.9 24.35 54.41 26.43 55.07 31.09 55.98 35.81 55.65 40.62 52.52 42.95 47.21 45.14 52.52 49.86 55.67 54.43 55.99 58.93 55.07 60.75 54.45 61.96 53.98 56.3 57.37 50.75 60.95 51.32 60.14 51.88 59.33 52.41 58.57 52.94 57.81 53.43 57.11 53.92 56.4 54.37 55.74 54.82 55.08" fill="none" stroke="#aaa" stroke-miterlimit="10" stroke-width=".5"/>
  <polyline points="42.65 24.79 39.09 31.03 34.01 36.07 30.67 37.84 27.12 39.13 25.28 40.71 25.38 43.19 28.5 50.46 32.22 57.46 27.86 53.7 23.59 49.86 25.32 50.14 27.29 50.77 31.67 51.59 36.09 51.1 40.71 47.4 42.78 41.75 44.72 47.39 49.25 51.12 53.51 51.6 57.74 50.77 59.46 50.18 60.57 49.94 55.29 53.86 50.07 57.87 50.51 57.12 50.96 56.37 51.38 55.66 51.8 54.95 52.19 54.29 52.58 53.62 52.94 53 53.31 52.38" fill="none" stroke="#aaa" stroke-miterlimit="10" stroke-width=".5"/>
  <polyline points="42.67 21.04 39.57 27.41 34.98 32.75 32.06 34.5 28.89 35.72 27.21 37.3 27.28 39.68 29.9 47.12 33.05 54.36 29.02 50.13 25.18 45.76 26.73 45.79 28.58 46.38 32.62 47.1 36.65 46.43 41 42.11 42.8 36.15 44.47 42.11 48.72 46.46 52.61 47.11 56.5 46.38 58.13 45.82 59.1 45.85 54.28 50.32 49.46 54.79 49.79 54.12 50.11 53.44 50.42 52.8 50.73 52.16 51.02 51.56 51.31 50.95 51.59 50.37 51.86 49.8" fill="none" stroke="#aaa" stroke-miterlimit="10" stroke-width=".5"/>
  <polyline points="42.67 17.21 39.97 23.71 35.82 29.35 33.29 31.08 30.45 32.25 28.93 33.85 28.97 36.14 31.14 43.77 33.79 51.26 30.06 46.57 26.59 41.7 27.97 41.49 29.73 42.05 33.47 42.67 37.15 41.84 41.21 36.93 42.8 30.64 44.26 36.92 48.23 41.87 51.77 42.68 55.37 42.05 56.92 41.52 57.75 41.79 53.35 46.78 48.89 51.72 49.13 51.11 49.36 50.51 49.58 49.93 49.8 49.36 50.02 48.8 50.23 48.26 50.43 47.73 50.63 47.21" fill="none" stroke="#aaa" stroke-miterlimit="10" stroke-width=".5"/>
  <polyline points="42.67 13.08 40.21 19.77 36.36 25.72 34.08 27.46 31.46 28.61 30.04 30.25 30.06 32.5 31.94 40.38 34.25 48.15 30.7 43.04 27.47 37.74 28.72 37.35 30.44 37.89 34 38.45 37.45 37.49 41.34 32.06 42.8 25.43 44.14 32.05 47.91 37.51 51.23 38.46 54.65 37.89 56.16 37.37 56.89 37.84 52.77 43.28 48.54 48.64 48.72 48.08 48.9 47.53 49.07 46.99 49.24 46.46 49.4 45.94 49.56 45.44 49.72 44.94 49.87 44.45" fill="none" stroke="#aaa" stroke-miterlimit="10" stroke-width=".5"/>
  <polyline points="42.67 8.56 40.28 15.52 36.5 21.79 34.32 23.57 31.75 24.74 30.36 26.43 30.36 28.72 32.13 36.93 34.31 45.05 30.81 39.58 27.67 33.92 28.88 33.42 30.61 33.96 34.14 34.5 37.52 33.44 41.38 27.6 42.8 20.63 44.1 27.59 47.84 33.47 51.07 34.51 54.46 33.96 55.98 33.44 56.67 34.02 52.65 39.84 48.5 45.57 48.65 45.01 48.8 44.47 48.95 43.94 49.1 43.42 49.25 42.9 49.39 42.4 49.53 41.91 49.66 41.43" fill="none" stroke="#aaa" stroke-miterlimit="10" stroke-width=".5"/>
</svg>