<?xml version="1.0" encoding="UTF-8"?>
<svg id="Ebene_1" xmlns="http://www.w3.org/2000/svg" width="800" height="800" viewBox="0 0 800 800">
  <polyline points="299.5 49 297.4 48.5 295.3 47.9 293.8 46.4 292.4 44.9 291.8 42.8 291.3 40.8 291.3 24.6 291.3 8.4 291.8 6.3 292.4 4.2 293.8 2.7 295.3 1.2 297.4 .6 299.5 0 316 0 332.5 0 334.5 .6 336.6 1.2 338.1 2.7 339.5 4.2 340.1 6.3 340.7 8.4 340.7 24.6 340.7 40.8 340.1 42.8 339.5 44.9 338.1 46.4 336.6 47.9 334.5 48.5 332.5 49 316 49 299.5 49 299.5 49 299.5 49"  fill="none" stroke="#aaa" stroke-miterlimit="10" stroke-width="1"/>
  <polyline points="297.5 43.4 315 43.4 332.5 43.4 333.4 43.1 334.3 42.7 334.7 41.7 335.1 40.8 335.1 26.6 335.1 12.4 316.3 27.9 297.5 43.4 297.5 43.4 297.5 43.4"  fill="none" stroke="#aaa" stroke-miterlimit="10" stroke-width="1"/>
  <polyline points="296.9 36.7 315.6 21.2 334.4 5.7 316.9 5.7 299.5 5.7 298.6 6.1 297.6 6.5 297.2 7.4 296.9 8.4 296.9 22.5 296.9 36.7 296.9 36.7 296.9 36.7"  fill="none" stroke="#aaa" stroke-miterlimit="10" stroke-width="1"/>
  <polyline points="276.6 49 276.6 46.2 276.6 43.4 279.3 43.4 282.1 43.4 282.1 46.2 282.1 49 279.3 49 276.6 49 276.6 49 276.6 49"  fill="none" stroke="#aaa" stroke-miterlimit="10" stroke-width="1"/>
  <polyline points="228.6 49 226.5 48.5 224.4 47.9 222.9 46.4 221.4 44.9 220.9 42.8 220.3 40.8 220.3 40.2 220.3 39.7 223.2 39.7 226 39.7 226 40.2 226 40.8 226.4 41.7 226.7 42.7 227.7 43.1 228.6 43.4 245.1 43.4 261.6 43.4 262.5 43.1 263.4 42.7 263.8 41.7 264.2 40.8 264.2 35.1 264.2 29.4 263.8 28.5 263.4 27.6 262.5 27.2 261.6 26.8 245.7 26.8 229.7 26.8 229.7 24 229.7 21.2 244.6 21.2 259.4 21.2 260.3 20.8 261.3 20.5 261.7 19.5 262.1 18.6 262.1 13.4 262.1 8.3 261.7 7.4 261.3 6.5 260.3 6 259.4 5.6 244 5.6 228.6 5.6 227.7 6 226.7 6.5 226.4 7.4 226 8.3 226 9.2 226 10.1 223.2 10.1 220.3 10.1 220.3 9.2 220.3 8.3 220.9 6.2 221.4 4.1 222.9 2.7 224.4 1.2 226.5 .6 228.6 0 244 0 259.4 0 261.5 .6 263.6 1.2 265.1 2.7 266.6 4.1 267.1 6.2 267.6 8.3 267.6 13.4 267.6 18.6 267.5 19.5 267.4 20.5 267.1 21.3 266.8 22.1 268 23.9 269.1 25.7 269.5 27.6 269.8 29.4 269.8 35.1 269.8 40.8 269.2 42.8 268.7 44.9 267.2 46.4 265.7 47.9 263.6 48.5 261.6 49 245.1 49 228.6 49 228.6 49 228.6 49"  fill="none" stroke="#aaa" stroke-miterlimit="10" stroke-width="1"/>
  <polyline points="154.3 49 154.3 49 154.3 48.9 162.5 38.9 170.7 29 162.5 19.3 154.3 9.6 154.3 9.6 154.3 9.6 158 9.6 161.6 9.6 168 17.1 174.4 24.5 180.8 17.1 187.3 9.6 190.9 9.6 194.5 9.6 194.5 9.6 194.5 9.6 186.3 19.3 178.1 29 186.3 38.9 194.6 48.9 194.6 49 194.6 49 190.9 49 187.3 49 180.8 41.1 174.4 33.2 168 41.1 161.6 49 158 49 154.3 49 154.3 49 154.3 49"  fill="none" stroke="#aaa" stroke-miterlimit="10" stroke-width="1"/>
  <polyline points="103.1 49 103.1 24.5 103.1 0 125.4 0 147.7 0 147.7 2.8 147.7 5.6 128.2 5.6 108.6 5.6 108.6 13.7 108.6 21.7 124.3 21.7 140 21.7 140 24.5 140 27.3 124.3 27.3 108.6 27.3 108.6 35.4 108.6 43.5 128.2 43.5 147.7 43.5 147.7 46.2 147.7 49 125.4 49 103.1 49 103.1 49 103.1 49"  fill="none" stroke="#aaa" stroke-miterlimit="10" stroke-width="1"/>
  <polyline points="63.8 49 61.7 48.5 59.6 47.9 58.1 46.4 56.6 44.9 56.1 42.8 55.5 40.8 55.5 29.3 55.5 17.8 56.1 15.8 56.6 13.7 58.1 12.2 59.6 10.7 61.7 10.2 63.8 9.6 75.6 9.6 87.4 9.6 89.5 10.2 91.6 10.7 93.1 12.2 94.6 13.7 95.1 15.8 95.7 17.8 95.7 29.3 95.7 40.8 95.1 42.8 94.6 44.9 93.1 46.4 91.6 47.9 89.5 48.5 87.4 49 75.6 49 63.8 49 63.8 49 63.8 49"  fill="none" stroke="#aaa" stroke-miterlimit="10" stroke-width="1"/>
  <polyline points="63.8 43.4 75.6 43.4 87.4 43.4 88.3 43.1 89.3 42.7 89.7 41.7 90.1 40.8 90.1 29.3 90.1 17.8 89.7 16.9 89.3 16 88.3 15.6 87.4 15.2 75.6 15.2 63.8 15.2 62.8 15.6 61.9 16 61.5 16.9 61.1 17.8 61.1 29.3 61.1 40.8 61.5 41.7 61.9 42.7 62.8 43.1 63.8 43.4 63.8 43.4 63.8 43.4"  fill="none" stroke="#aaa" stroke-miterlimit="10" stroke-width="1"/>
  <polyline points="8.2 49 6.1 48.5 4 47.9 2.5 46.5 1.1 45 .5 42.9 0 40.8 0 24.5 0 8.2 .5 6.2 1.1 4.1 2.5 2.6 4 1.2 6.1 .6 8.2 0 28.5 0 48.8 0 48.8 2.8 48.8 5.6 28.5 5.6 8.2 5.6 7.2 6 6.3 6.4 5.9 7.3 5.5 8.2 5.5 24.5 5.5 40.8 5.9 41.8 6.3 42.7 7.2 43.1 8.2 43.5 28.5 43.5 48.8 43.5 48.8 46.2 48.8 49 28.5 49 8.2 49 8.2 49 8.2 49"  fill="none" stroke="#aaa" stroke-miterlimit="10" stroke-width="1"/>
</svg>