<?xml version="1.0" encoding="UTF-8"?>
<svg id="Ebene_1" xmlns="http://www.w3.org/2000/svg" width="222" height="222" viewBox="0 0 222 222">
  <polyline points="78.83 196.92 78.83 202.4 78.83 207.88 91.76 205.9 104.7 203.91 104.7 198.43 104.7 192.95 100.8 193.55 96.91 194.15 96.87 194.15 96.83 194.13 96.8 194.09 96.79 194.05 96.79 181.56 96.79 169.08 91.79 169.84 86.8 170.6 86.8 183.11 86.8 195.61 86.77 195.68 86.71 195.71 82.77 196.31 78.83 196.92" fill="none" stroke="#aaa" stroke-miterlimit="10" stroke-width=".5"/>
  <polyline points="78.72 208.11 78.69 208.1 78.65 208.08 78.63 208.04 78.62 208 78.62 202.42 78.62 196.83 78.64 196.76 78.71 196.73 82.65 196.12 86.59 195.52 86.59 183.02 86.59 170.52 86.62 170.45 86.68 170.41 91.78 169.63 96.88 168.86 96.92 168.86 96.96 168.88 96.99 168.91 97 168.96 97 181.44 97 193.93 100.89 193.33 104.78 192.73 104.83 192.73 104.87 192.75 104.89 192.79 104.9 192.83 104.9 198.42 104.9 204 104.88 204.07 104.82 204.1 91.78 206.1 78.74 208.1 78.73 208.1 78.72 208.11" fill="none" stroke="#aaa" stroke-miterlimit="10" stroke-width=".5"/>
  <polyline points="104.8 192.93 104.78 192.93 104.75 192.92 100.8 190.96 96.85 189 96.8 188.94 96.8 188.86 96.86 188.81 96.94 188.81 100.89 190.77 104.85 192.74 104.9 192.8 104.89 192.88 104.85 192.92 104.8 192.93" fill="none" stroke="#aaa" stroke-miterlimit="10" stroke-width=".5"/>
  <polyline points="86.69 195.71 86.67 195.71 86.65 195.7 81.94 193.35 77.24 191 77.2 190.96 77.18 190.91 77.18 178.35 77.18 165.8 77.21 165.73 77.27 165.7 82.35 164.92 87.43 164.14 87.46 164.14 87.49 164.15 92.21 166.51 96.94 168.86 96.99 168.93 96.99 169 96.93 169.06 96.85 169.05 92.14 166.7 87.42 164.35 82.41 165.12 77.39 165.89 77.39 178.37 77.39 190.84 82.07 193.18 86.74 195.52 86.79 195.58 86.79 195.65 86.75 195.7 86.69 195.71" fill="none" stroke="#aaa" stroke-miterlimit="10" stroke-width=".5"/>
  <polyline points="78.72 208.11 78.7 208.1 78.68 208.09 73.96 205.73 69.24 203.38 69.2 203.34 69.19 203.28 69.19 197.7 69.19 192.11 69.21 192.04 69.27 192.01 73.27 191.41 77.27 190.81 77.35 190.83 77.39 190.89 77.37 190.97 77.3 191.01 73.35 191.61 69.39 192.2 69.39 197.71 69.39 203.22 74.08 205.56 78.77 207.91 78.82 207.97 78.82 208.05 78.78 208.09 78.72 208.11" fill="none" stroke="#aaa" stroke-miterlimit="10" stroke-width=".5"/>
  <polyline points="78.72 196.93 78.7 196.93 78.68 196.92 73.96 194.56 69.24 192.21 69.19 192.15 69.2 192.07 69.26 192.01 69.34 192.02 74.05 194.38 78.77 196.74 78.82 196.8 78.82 196.87 78.78 196.92 78.72 196.93" fill="none" stroke="#aaa" stroke-miterlimit="10" stroke-width=".5"/>
  <polyline points="86.69 170.62 86.67 170.62 86.65 170.61 81.94 168.25 77.24 165.89 77.19 165.83 77.19 165.75 77.26 165.7 77.33 165.71 82.04 168.07 86.74 170.42 86.79 170.48 86.79 170.56 86.75 170.6 86.69 170.62" fill="none" stroke="#aaa" stroke-miterlimit="10" stroke-width=".5"/>
</svg>