<?xml version="1.0" encoding="utf-8" ?>
<svg baseProfile="full" height="222" version="1.1" width="222" xmlns="http://www.w3.org/2000/svg" xmlns:ev="http://www.w3.org/2001/xml-events" xmlns:xlink="http://www.w3.org/1999/xlink"><defs />
  <polyline fill="none" points ="42.83 194.31 41.09 189.25 37.23 185.68 33.79 185.19 30.38 185.89 28.95 186.42 27.92 186.57 31.72 182.95 35.52 179.32 32.63 185.82 29.93 192.38 29.5 194.32 30.44 195.95 32.99 197.32 35.31 199.07 39.61 204.52 42.75 210.74 45.65 204.84 49.57 199.58 51.84 197.69 54.43 196.26 55.69 195.33 55.89 193.8 54.38 189.46 52.51 185.24" stroke="#aaa" stroke-width="1"/>
  <polyline fill="none" points ="42.89 188.99 40.94 184.14 36.86 180.99 33.14 180.62 29.47 181.39 27.96 181.95 26.84 182.29 31 179.07 35.1 175.77 31.9 182.09 28.91 188.5 28.42 190.49 29.44 192.15 32.19 193.55 34.74 195.3 39.35 200.49 42.81 206.55 45.98 200.84 50.16 195.84 52.67 193.95 55.45 192.5 56.81 191.58 57.1 190.01 55.51 185.87 53.53 181.88" stroke="#aaa" stroke-width="1"/>
  <polyline fill="none" points ="42.74 183.53 40.53 178.9 36.23 176.19 32.2 175.95 28.24 176.81 26.63 177.4 25.4 177.96 29.92 175.17 34.34 172.22 30.73 178.38 27.39 184.67 26.84 186.73 27.95 188.42 30.95 189.89 33.79 191.64 38.79 196.59 42.66 202.5 46.18 196.97 50.69 192.23 53.48 190.33 56.51 188.84 57.98 187.91 58.4 186.29 56.75 182.34 54.62 178.59" stroke="#aaa" stroke-width="1"/>
  <polyline fill="none" points ="42.72 178.07 40.21 173.67 35.72 171.38 31.37 171.27 27.12 172.22 25.36 172.87 24.06 173.63 28.95 171.29 33.69 168.66 29.66 174.66 25.94 180.84 25.32 182.98 26.54 184.71 29.8 186.23 32.95 188 38.34 192.71 42.64 198.46 46.52 193.11 51.35 188.62 54.44 186.71 57.73 185.18 59.32 184.25 59.88 182.58 58.16 178.77 55.9 175.23" stroke="#aaa" stroke-width="1"/>
  <polyline fill="none" points ="42.89 172.73 40.1 168.59 35.48 166.67 30.87 166.68 26.38 167.71 24.49 168.41 23.14 169.35 28.32 167.43 33.34 165.11 28.95 170.92 24.9 176.97 24.23 179.16 25.56 180.91 29.07 182.48 32.48 184.24 38.17 188.72 42.81 194.29 46.98 189.14 52.04 184.89 55.4 182.98 58.91 181.44 60.62 180.5 61.32 178.78 59.57 175.11 57.2 171.75" stroke="#aaa" stroke-width="1"/>
  <polyline fill="none" points ="42.8 167.64 39.8 163.78 35.15 162.17 30.38 162.28 25.74 163.35 23.76 164.09 22.4 165.15 27.74 163.6 32.94 161.55 28.3 167.14 24.03 173.01 23.33 175.22 24.74 176.96 28.4 178.55 31.99 180.29 37.85 184.52 42.72 189.87 47.07 184.95 52.27 180.93 55.8 179.06 59.45 177.52 61.24 176.58 62.05 174.85 60.28 171.3 57.84 168.11" stroke="#aaa" stroke-width="1"/>
  <polyline fill="none" points ="42.96 162.92 39.86 159.34 35.27 157.97 30.34 158.15 25.53 159.22 23.27 159.99 21.25 161.08 25.65 159.73 29.95 158 26.07 163.28 22.76 168.92 22.63 171.26 24.42 172.79 28.29 174.32 32.08 176.03 37.95 179.99 42.89 185.08 47.27 180.43 52.44 176.68 56.1 174.85 59.9 173.37 61.92 172.45 63.24 170.77 62.29 167.46 60.44 164.48" stroke="#aaa" stroke-width="1"/>
  <polyline fill="none" points ="42.74 158.61 39.69 155.3 35.29 154.11 30.4 154.31 25.6 155.33 23.06 156.14 20.63 157.16 24 155.91 27.33 154.45 24.31 159.39 22.05 164.68 22.5 167.01 24.51 168.36 28.41 169.8 32.21 171.44 37.88 175.12 42.66 179.88 46.89 175.54 51.85 172.07 55.48 170.33 59.25 168.94 61.41 168.05 63.09 166.49 62.9 163.48 61.63 160.67" stroke="#aaa" stroke-width="1"/>
  <polyline fill="none" points ="42.73 154.61 39.88 151.57 35.79 150.49 31.21 150.69 26.72 151.64 24.28 152.4 21.93 153.35 24.9 152.2 27.85 150.89 25.17 155.45 23.24 160.34 23.77 162.51 25.69 163.75 29.34 165.08 32.92 166.6 38.19 169.98 42.66 174.38 46.6 170.37 51.21 167.18 54.61 165.57 58.13 164.29 60.19 163.46 61.82 162.01 61.77 159.25 60.68 156.66" stroke="#aaa" stroke-width="1"/>
  <polyline fill="none" points ="42.72 150.71 40.1 147.94 36.37 146.96 32.18 147.14 28.07 148.01 25.83 148.7 23.66 149.57 26.35 148.53 29.02 147.34 26.6 151.5 24.87 155.96 25.37 157.94 27.13 159.07 30.47 160.28 33.74 161.67 38.56 164.76 42.65 168.77 46.24 165.12 50.46 162.2 53.57 160.73 56.79 159.57 58.68 158.8 60.18 157.49 60.15 154.97 59.16 152.59" stroke="#aaa" stroke-width="1"/>
  <polyline fill="none" points ="42.7 146.67 40.27 144.17 36.84 143.31 32.95 143.49 29.13 144.29 26.98 144.95 24.88 145.74 27.13 144.82 29.42 143.78 27.35 147.57 25.97 151.63 26.57 153.45 28.25 154.48 31.36 155.59 34.42 156.86 38.85 159.66 42.63 163.3 45.94 159.99 49.81 157.35 52.7 156.01 55.69 154.94 57.49 154.23 58.95 153.03 59.08 150.77 58.29 148.6" stroke="#aaa" stroke-width="1"/>
  <polyline fill="none" points ="42.67 142.3 40.3 140.08 37.07 139.39 33.28 139.6 29.56 140.37 27.28 141.03 25.04 141.8 26.63 141.07 28.44 140.23 26.85 143.71 26.04 147.41 26.93 149.15 28.69 150.09 31.75 151.13 34.75 152.32 38.97 154.85 42.6 158.17 45.77 155.16 49.43 152.79 52.24 151.54 55.14 150.55 57 149.87 58.59 148.76 59.1 146.79 58.63 144.75" stroke="#aaa" stroke-width="1"/>
  <polyline fill="none" points ="42.65 137.52 40.17 135.63 37.02 135.14 33.13 135.43 29.29 136.2 26.73 136.9 24.2 137.71 25.02 137.31 26.47 136.68 25.32 139.94 25.13 143.34 26.41 145.03 28.36 145.95 31.54 146.96 34.68 148.12 38.89 150.4 42.59 153.44 45.78 150.71 49.4 148.57 52.29 147.39 55.26 146.43 57.29 145.75 59.14 144.69 60.06 143 59.99 141.03" stroke="#aaa" stroke-width="1"/>
  <polyline fill="none" points ="42.67 132.39 39.94 130.87 36.76 130.61 32.6 131 28.49 131.82 25.55 132.59 22.65 133.5 22.74 133.55 24.02 133.12 23.21 136.24 23.53 139.4 25.22 141.08 27.45 142.03 30.88 143.06 34.29 144.19 38.66 146.26 42.61 149.06 45.99 146.57 49.71 144.65 52.81 143.5 55.97 142.56 58.25 141.84 60.39 140.79 61.66 139.29 61.99 137.35" stroke="#aaa" stroke-width="1"/>
  <polyline fill="none" points ="42.72 127.03 39.68 125.94 36.39 125.88 31.86 126.41 27.38 127.29 24.02 128.15 20.72 129.21 20.1 129.75 21.42 129.57 20.85 132.59 21.57 135.53 23.64 137.25 26.17 138.25 29.95 139.32 33.71 140.46 38.36 142.35 42.67 144.91 46.37 142.64 50.34 140.89 53.74 139.77 57.19 138.81 59.77 138.03 62.21 136.93 63.73 135.5 64.36 133.51" stroke="#aaa" stroke-width="1"/>
  <polyline fill="none" points ="42.71 121.56 39.34 120.92 35.88 121.07 30.95 121.73 26.07 122.7 22.29 123.65 18.6 124.87 17.41 125.68 18.79 126.02 18.39 128.97 19.44 131.71 21.9 133.47 24.76 134.53 28.92 135.67 33.08 136.82 38 138.55 42.67 140.88 46.72 138.8 50.98 137.19 54.76 136.08 58.57 135.08 61.47 134.23 64.23 133.02 65.95 131.56 66.78 129.47" stroke="#aaa" stroke-width="1"/>
  <polyline fill="none" points ="42.66 116.11 39.03 115.94 35.39 116.27 30.15 117.07 24.95 118.12 20.9 119.15 16.97 120.55 15.65 121.62 17.05 122.46 16.58 125.29 17.73 127.88 20.47 129.69 23.59 130.81 28.07 132 32.57 133.15 37.7 134.74 42.64 136.82 47.01 134.93 51.55 133.46 55.7 132.36 59.86 131.3 63.03 130.36 66.04 129.02 67.82 127.46 68.57 125.25" stroke="#aaa" stroke-width="1"/>
  <polyline fill="none" points ="42.64 110.81 38.82 111.1 35.02 111.6 29.53 112.52 24.07 113.64 19.79 114.74 15.67 116.28 14.26 117.64 15.69 118.91 15.21 121.6 16.47 123.99 19.47 125.82 22.81 126.98 27.55 128.22 32.32 129.37 37.54 130.79 42.63 132.61 47.27 130.92 52.03 129.58 56.52 128.49 61 127.38 64.4 126.34 67.61 124.86 69.38 123.21 69.93 120.89" stroke="#aaa" stroke-width="1"/>
  <polyline fill="none" points ="42.68 105.8 37.51 106.42 32.35 107.16 26.85 108.12 21.39 109.32 17.66 110.42 14.17 112.11 13.42 113.96 15.05 115.36 14.59 117.86 15.95 120 19.15 121.81 22.65 122.99 27.54 124.23 32.45 125.35 37.6 126.6 42.68 128.12 47.51 126.65 52.41 125.45 57.19 124.36 61.94 123.19 65.48 122.07 68.79 120.43 70.4 118.63 70.47 116.25" stroke="#aaa" stroke-width="1"/>
  <polyline fill="none" points ="42.66 101.17 37.18 102.11 31.69 103.03 26.28 104.03 20.92 105.24 17.39 106.33 14.18 108.07 13.65 110.17 15.3 111.8 14.91 114.05 16.33 115.88 19.63 117.6 23.19 118.76 28.05 119.97 32.95 121.02 37.82 122.06 42.66 123.24 47.47 122.06 52.31 121.02 57.21 119.97 62.08 118.76 65.63 117.61 68.93 115.88 70.3 114.03 69.8 111.8 69.82 111.79 69.83 111.78 69.85 111.77 69.87 111.76 69.89 111.74 69.9 111.73 69.92 111.72 69.94 111.71" stroke="#aaa" stroke-width="1"/>
  <polyline fill="none" points ="42.59 96.94 37.15 98.16 31.67 99.23 26.53 100.23 21.44 101.41 18.18 102.45 15.26 104.18 14.9 106.42 16.49 108.25 16.22 110.17 17.64 111.61 20.97 113.19 24.48 114.28 29.15 115.41 33.86 116.36 38.23 117.16 42.59 117.96 46.93 117.16 51.27 116.36 55.98 115.41 60.65 114.28 64.17 113.19 67.48 111.61 68.87 110.15 68.48 108.25 68.64 108.12 68.8 107.99 68.95 107.86 69.09 107.73 69.22 107.61 69.35 107.48 69.47 107.36 69.58 107.24" stroke="#aaa" stroke-width="1"/>
  <polyline fill="none" points ="42.52 92.98 37.36 94.46 32.12 95.65 27.4 96.64 22.73 97.74 19.82 98.71 17.29 100.38 17.17 102.74 18.75 104.69 18.55 106.2 19.89 107.25 23.18 108.63 26.61 109.64 30.96 110.66 35.34 111.49 38.93 112.03 42.52 112.41 46.09 112.03 49.65 111.49 54.04 110.66 58.39 109.64 61.82 108.63 65.09 107.25 66.41 106.18 66.07 104.69 66.36 104.43 66.63 104.17 66.86 103.92 67.09 103.66 67.28 103.43 67.46 103.19 67.61 102.97 67.74 102.74" stroke="#aaa" stroke-width="1"/>
  <polyline fill="none" points ="42.5 89.07 37.79 90.8 32.94 92.11 28.7 93.08 24.49 94.11 21.95 94.99 19.84 96.6 20.08 99.1 21.72 101.14 21.31 102.13 22.47 102.88 25.59 104.06 28.82 104.97 32.81 105.87 36.83 106.57 39.67 106.88 42.51 106.81 45.33 106.88 48.14 106.57 52.16 105.87 56.15 104.97 59.37 104.07 62.48 102.88 63.62 102.1 63.06 101.14 63.45 100.75 63.83 100.35 64.14 99.99 64.44 99.62 64.67 99.29 64.88 98.94 65.04 98.64 65.17 98.33" stroke="#aaa" stroke-width="1"/>
  <polyline fill="none" points ="42.51 84.97 38.22 86.97 33.7 88.41 29.86 89.38 26.02 90.35 23.78 91.18 22.05 92.75 22.62 95.4 24.36 97.59 23.34 97.9 24.23 98.57 26.98 99.61 29.82 100.42 33.5 101.25 37.22 101.81 39.92 101.93 42.53 101.4 45.11 101.93 47.78 101.81 51.5 101.25 55.18 100.42 58.01 99.61 60.74 98.57 61.56 97.84 60.45 97.59 60.93 97.09 61.38 96.57 61.75 96.13 62.1 95.66 62.36 95.27 62.6 94.85 62.77 94.5 62.9 94.13" stroke="#aaa" stroke-width="1"/>
  <polyline fill="none" points ="42.53 80.51 38.46 82.8 34.09 84.42 30.48 85.42 26.86 86.38 24.81 87.19 23.37 88.78 24.27 91.63 26.18 94.03 25.04 93.89 25.2 94.39 27.7 95.33 30.27 96.09 33.81 96.88 37.39 97.34 40.09 97.3 42.56 96.36 44.99 97.3 47.65 97.34 51.23 96.88 54.76 96.09 57.32 95.34 59.81 94.39 59.85 93.89 58.67 94.03 59.2 93.46 59.71 92.87 60.13 92.36 60.52 91.84 60.83 91.39 61.11 90.93 61.31 90.53 61.48 90.13" stroke="#aaa" stroke-width="1"/>
  <polyline fill="none" points ="42.55 75.64 38.5 78.25 34.05 80.11 30.47 81.17 26.88 82.16 24.89 82.99 23.65 84.66 24.87 87.8 27.03 90.48 25.75 90.16 25.29 90.35 27.68 91.27 30.14 92 33.7 92.8 37.32 93.2 40.14 93.01 42.59 91.71 44.99 93.01 47.77 93.2 51.39 92.79 54.95 92 57.39 91.27 59.77 90.35 59.2 90.16 57.87 90.48 58.45 89.84 59.02 89.19 59.48 88.62 59.93 88.04 60.28 87.55 60.61 87.04 60.85 86.61 61.07 86.17" stroke="#aaa" stroke-width="1"/>
  <polyline fill="none" points ="42.55 70.46 38.34 73.42 33.65 75.52 29.93 76.68 26.2 77.74 24.17 78.63 23.05 80.43 24.59 83.92 27.04 86.92 25.54 86.46 24.62 86.42 27.02 87.36 29.49 88.11 33.23 88.95 37.03 89.33 40.07 89 42.6 87.39 45.07 89.01 48.07 89.33 51.88 88.95 55.61 88.11 58.07 87.36 60.45 86.42 59.43 86.46 57.88 86.92 58.52 86.22 59.14 85.5 59.66 84.88 60.16 84.25 60.56 83.7 60.94 83.14 61.24 82.67 61.5 82.18" stroke="#aaa" stroke-width="1"/>
  <polyline fill="none" points ="42.52 65.06 38.03 68.39 32.96 70.77 29.01 72.04 25.04 73.19 22.91 74.16 21.84 76.12 23.69 80.01 26.46 83.37 24.72 82.78 23.42 82.57 25.91 83.56 28.48 84.35 32.49 85.25 36.57 85.62 39.88 85.18 42.56 83.28 45.19 85.19 48.47 85.62 52.55 85.25 56.55 84.35 59.11 83.56 61.59 82.57 60.19 82.78 58.39 83.37 59.09 82.59 59.78 81.81 60.36 81.12 60.92 80.43 61.37 79.83 61.81 79.22 62.15 78.69 62.46 78.16" stroke="#aaa" stroke-width="1"/>
  <polyline fill="none" points ="42.53 59.58 37.71 63.29 32.24 65.95 28.01 67.34 23.75 68.59 21.49 69.65 20.44 71.79 22.59 76.08 25.7 79.82 23.71 79.1 22.05 78.75 24.68 79.8 27.38 80.64 31.69 81.61 36.09 81.98 39.71 81.44 42.58 79.26 45.38 81.44 48.97 81.98 53.36 81.61 57.67 80.64 60.36 79.81 62.97 78.75 61.23 79.1 59.17 79.82 59.94 78.97 60.7 78.11 61.34 77.35 61.96 76.59 62.47 75.93 62.96 75.26 63.34 74.69 63.71 74.1" stroke="#aaa" stroke-width="1"/>
  <polyline fill="none" points ="42.63 54.15 37.54 58.24 31.69 61.17 27.2 62.68 22.68 64.03 20.29 65.17 19.28 67.47 21.76 72.16 25.21 76.26 22.93 75.41 20.92 74.91 23.64 76.02 26.45 76.9 31.05 77.93 35.74 78.3 39.65 77.64 42.68 75.18 45.65 77.65 49.53 78.3 54.22 77.93 58.81 76.9 61.61 76.02 64.32 74.91 62.22 75.41 59.87 76.26 60.72 75.34 61.54 74.41 62.24 73.6 62.92 72.77 63.49 72.06 64.03 71.33 64.46 70.7 64.87 70.06" stroke="#aaa" stroke-width="1"/>
  <polyline fill="none" points ="42.66 48.9 37.39 53.35 31.28 56.54 26.62 58.15 21.92 59.57 19.47 60.78 18.57 63.22 21.4 68.27 25.21 72.71 22.61 71.7 20.15 71 22.89 72.15 25.73 73.05 30.52 74.12 35.42 74.48 39.58 73.67 42.71 70.91 45.78 73.68 49.91 74.48 54.8 74.12 59.59 73.05 62.42 72.15 65.14 71 62.61 71.69 59.94 72.71 60.85 71.73 61.73 70.74 62.49 69.88 63.23 69 63.85 68.24 64.44 67.46 64.93 66.8 65.39 66.12" stroke="#aaa" stroke-width="1"/>
  <polyline fill="none" points ="42.69 43.87 37.38 48.64 31.12 52.09 26.42 53.77 21.66 55.24 19.23 56.52 18.54 59.04 21.8 64.4 25.98 69.15 22.98 67.94 20 67.02 22.63 68.18 25.37 69.06 30.25 70.16 35.24 70.47 39.59 69.5 42.74 66.44 45.83 69.5 50.15 70.47 55.13 70.16 60.01 69.06 62.74 68.18 65.36 67.02 62.3 67.93 59.23 69.15 60.18 68.14 61.13 67.11 61.94 66.21 62.73 65.3 63.4 64.5 64.06 63.69 64.6 62.99 65.11 62.28" stroke="#aaa" stroke-width="1"/>
  <polyline fill="none" points ="42.67 39 37.42 44.07 31.12 47.76 26.47 49.51 21.76 51.02 19.41 52.37 19.06 54.92 22.88 60.56 27.52 65.6 23.97 64.13 20.35 62.98 22.74 64.13 25.28 64.98 30.15 66.09 35.13 66.34 39.61 65.16 42.72 61.8 45.77 65.17 50.22 66.34 55.19 66.09 60.06 64.98 62.59 64.13 64.97 62.98 61.27 64.13 57.65 65.6 58.66 64.56 59.66 63.52 60.53 62.59 61.38 61.66 62.12 60.84 62.83 60.01 63.44 59.29 64.02 58.55" stroke="#aaa" stroke-width="1"/>
  <polyline fill="none" points ="42.51 34.21 37.38 39.56 31.11 43.5 26.62 45.29 22.05 46.84 19.92 48.32 20.16 50.83 24.88 56.71 30.26 62.05 25.81 60.27 21.24 58.92 23.12 60.06 25.32 60.85 30.08 61.96 34.95 62.14 39.53 60.73 42.57 57.08 45.53 60.74 50.07 62.14 54.94 61.96 59.69 60.85 61.89 60.06 63.76 58.92 59.13 60.26 54.61 62.05 55.7 61.01 56.79 59.96 57.74 59.03 58.69 58.09 59.51 57.26 60.32 56.42 61.02 55.69 61.71 54.94" stroke="#aaa" stroke-width="1"/>
  <polyline fill="none" points ="42.58 29.45 37.57 35.08 31.32 39.27 26.99 41.1 22.57 42.69 20.67 44.32 21.37 46.75 26.82 52.85 32.78 58.49 27.54 56.41 22.14 54.84 23.52 55.94 25.52 56.7 30.19 57.8 34.99 57.92 39.67 56.27 42.64 52.34 45.54 56.27 50.18 57.92 54.97 57.8 59.64 56.7 61.64 55.94 63 54.84 57.54 56.41 52.24 58.49 53.37 57.45 54.5 56.41 55.5 55.47 56.5 54.53 57.39 53.7 58.26 52.85 59.03 52.1 59.78 51.35" stroke="#aaa" stroke-width="1"/>
  <polyline fill="none" points ="42.51 24.7 37.6 30.6 31.35 35.05 27.06 36.93 22.66 38.54 20.75 40.21 21.44 42.67 26.82 49.03 32.72 54.94 27.38 52.62 21.89 50.76 23.29 51.79 25.29 52.54 30.01 53.64 34.86 53.68 39.65 51.8 42.57 47.58 45.42 51.8 50.17 53.68 55.01 53.64 59.73 52.54 61.73 51.79 63.12 50.76 57.56 52.62 52.16 54.94 53.25 53.88 54.34 52.81 55.31 51.86 56.27 50.9 57.13 50.04 57.98 49.17 58.72 48.41 59.46 47.63" stroke="#aaa" stroke-width="1"/>
  <polyline fill="none" points ="42.51 19.99 37.71 26.15 31.49 30.85 27.25 32.79 22.88 34.41 20.97 36.1 21.64 38.6 26.94 45.21 32.75 51.39 27.37 48.82 21.82 46.67 23.23 47.63 25.22 48.37 29.98 49.44 34.84 49.42 39.73 47.29 42.58 42.78 45.36 47.29 50.2 49.42 55.06 49.44 59.81 48.37 61.8 47.63 63.19 46.67 57.58 48.82 52.13 51.39 53.18 50.31 54.22 49.23 55.15 48.25 56.08 47.27 56.91 46.4 57.73 45.51 58.45 44.73 59.17 43.94" stroke="#aaa" stroke-width="1"/>
  <polyline fill="none" points ="42.6 15.36 37.95 21.77 31.8 26.72 27.65 28.71 23.34 30.33 21.45 32.05 22.09 34.57 27.26 41.4 32.94 47.83 27.61 45.02 22.12 42.54 23.54 43.41 25.49 44.14 30.2 45.19 35.01 45.09 39.93 42.67 42.67 37.9 45.34 42.67 50.21 45.09 55.01 45.19 59.72 44.14 61.67 43.41 63.07 42.54 57.51 45.01 52.12 47.83 53.11 46.74 54.09 45.66 54.98 44.67 55.86 43.68 56.65 42.79 57.43 41.9 58.12 41.1 58.81 40.3" stroke="#aaa" stroke-width="1"/>
  <polyline fill="none" points ="42.57 10.9 38.16 17.53 32.17 22.73 28.18 24.75 23.99 26.36 22.14 28.08 22.75 30.6 27.7 37.62 33.16 44.28 27.96 41.19 22.61 38.36 24 39.11 25.89 39.8 30.49 40.81 35.18 40.63 40.06 37.87 42.65 32.86 45.16 37.87 50 40.63 54.68 40.81 59.27 39.8 61.16 39.11 62.53 38.36 57.12 41.18 51.86 44.28 52.77 43.19 53.68 42.11 54.5 41.12 55.32 40.14 56.05 39.24 56.78 38.35 57.43 37.54 58.08 36.74" stroke="#aaa" stroke-width="1"/>
  <polyline fill="none" points ="42.54 6.66 38.47 13.46 32.76 18.92 29.01 20.95 25.05 22.52 23.27 24.23 23.83 26.7 28.45 33.87 33.55 40.72 28.57 37.33 23.48 34.1 24.82 34.68 26.62 35.33 31.01 36.28 35.49 35.98 40.25 32.84 42.62 27.59 44.92 32.84 49.63 35.98 54.09 36.28 58.48 35.33 60.28 34.68 61.6 34.1 56.44 37.32 51.4 40.72 52.21 39.66 53.02 38.6 53.75 37.63 54.48 36.66 55.15 35.78 55.8 34.9 56.39 34.1 56.98 33.3" stroke="#aaa" stroke-width="1"/>
</svg>