<?xml version="1.0" encoding="UTF-8"?>
<svg id="Ebene_1" xmlns="http://www.w3.org/2000/svg" width="222" height="222" viewBox="0 0 222 222">
  <polyline points="42.34 163.16 37.64 167.54 32.45 171.27 29.87 172.61 27.31 173.88 25.29 175.96 23.99 178.57 21.61 185.69 19.56 192.93 20.08 188.17 22.6 184.36 25.81 184.69 28.89 185.81 32.58 186.56 36.07 185.32 39.99 178.58 41.77 170.89 43.73 178.64 47.54 185.57 50.21 186.66 52.99 185.81 54.46 184.92 55.86 184.95 55.19 190.67 53.95 196.33 53.88 195.7 53.81 195.09 53.75 194.48 53.69 193.89 53.63 193.31 53.58 192.74 53.52 192.18 53.47 191.64" fill="none" stroke="#aaa" stroke-miterlimit="10" stroke-width=".5"/>
  <polyline points="42.35 159.36 37.28 163.52 31.75 167.02 28.9 168.34 26.07 169.67 23.93 171.74 22.56 174.41 20.32 181.32 18.47 188.35 18.86 183.93 21.35 180.55 24.73 181.04 27.97 182.23 31.88 183.04 35.66 181.92 39.83 175.59 41.74 168.15 43.86 175.65 47.97 182.16 50.92 183.15 53.93 182.23 55.48 181.31 57.01 181.11 56.06 186.39 54.58 191.58 54.51 190.94 54.43 190.31 54.36 189.69 54.3 189.09 54.23 188.5 54.17 187.92 54.11 187.36 54.06 186.81" fill="none" stroke="#aaa" stroke-miterlimit="10" stroke-width=".5"/>
  <polyline points="42.34 155.7 37.02 159.64 31.28 162.91 28.23 164.22 25.22 165.57 23 167.62 21.59 170.32 19.49 176.98 17.81 183.77 18.11 179.66 20.55 176.68 24.02 177.3 27.37 178.53 31.42 179.39 35.39 178.38 39.71 172.45 41.72 165.27 43.96 172.5 48.24 178.61 51.39 179.5 54.55 178.52 56.15 177.59 57.76 177.2 56.61 182.06 54.97 186.83 54.89 186.18 54.81 185.55 54.74 184.93 54.66 184.33 54.6 183.74 54.53 183.16 54.47 182.6 54.41 182.05" fill="none" stroke="#aaa" stroke-miterlimit="10" stroke-width=".5"/>
  <polyline points="42.32 152.15 36.83 155.86 30.97 158.92 27.78 160.2 24.65 161.56 22.39 163.58 20.96 166.27 19 172.66 17.48 179.2 17.75 175.36 20.17 172.76 23.68 173.49 27.08 174.74 31.18 175.63 35.24 174.72 39.62 169.17 41.7 162.3 44.01 169.23 48.39 174.94 51.67 175.74 54.93 174.73 56.57 173.79 58.22 173.25 56.92 177.71 55.18 182.07 55.09 181.43 55 180.81 54.93 180.19 54.85 179.6 54.78 179.01 54.71 178.44 54.65 177.88 54.58 177.34" fill="none" stroke="#aaa" stroke-miterlimit="10" stroke-width=".5"/>
  <polyline points="42.3 148.65 36.68 152.12 30.73 154.97 27.44 156.22 24.21 157.59 21.93 159.57 20.49 162.24 18.66 168.36 17.31 174.62 17.57 171.06 19.96 168.82 23.49 169.64 26.91 170.91 31.04 171.83 35.14 171.02 39.54 165.85 41.67 159.28 44.04 165.9 48.49 171.23 51.87 171.93 55.19 170.9 56.86 169.95 58.54 169.28 57.1 173.35 55.29 177.32 55.2 176.69 55.11 176.07 55.03 175.46 54.95 174.87 54.87 174.3 54.8 173.74 54.73 173.19 54.67 172.65" fill="none" stroke="#aaa" stroke-miterlimit="10" stroke-width=".5"/>
  <polyline points="42.27 145.16 36.53 148.4 30.51 151.04 27.12 152.26 23.8 153.64 21.51 155.57 20.06 158.21 18.38 164.06 17.19 170.04 17.43 166.76 19.8 164.88 23.32 165.78 26.76 167.07 30.91 168.01 35.06 167.3 39.47 162.5 41.64 156.25 44.07 162.57 48.56 167.5 52.02 168.11 55.4 167.06 57.09 166.1 58.79 165.3 57.24 168.98 55.38 172.57 55.28 171.94 55.19 171.33 55.1 170.74 55.02 170.16 54.94 169.6 54.87 169.04 54.8 168.51 54.74 167.98" fill="none" stroke="#aaa" stroke-miterlimit="10" stroke-width=".5"/>
  <polyline points="42.26 141.67 36.4 144.66 30.31 147.12 26.82 148.3 23.41 149.68 21.11 151.57 19.66 154.19 18.12 159.76 17.11 165.47 17.33 162.45 19.65 160.94 23.18 161.93 26.63 163.23 30.79 164.19 34.98 163.58 39.4 159.16 41.62 153.22 44.1 159.22 48.6 163.77 52.1 164.29 55.49 163.22 57.21 162.24 58.92 161.32 57.32 164.61 55.48 167.81 55.38 167.2 55.28 166.6 55.19 166.02 55.1 165.45 55.02 164.9 54.95 164.36 54.88 163.83 54.81 163.32" fill="none" stroke="#aaa" stroke-miterlimit="10" stroke-width=".5"/>
  <polyline points="42.23 138.21 36.27 140.95 30.12 143.21 26.54 144.35 23.06 145.74 20.76 147.59 19.3 150.17 17.92 155.46 17.08 160.89 17.29 158.14 19.55 156.98 23.07 158.06 26.53 159.37 30.7 160.35 34.92 159.84 39.31 155.8 41.59 150.17 44.12 155.85 48.61 160.02 52.14 160.45 55.55 159.36 57.3 158.37 59 157.34 57.36 160.22 55.54 163.06 55.43 162.46 55.33 161.88 55.24 161.31 55.15 160.75 55.06 160.21 54.99 159.68 54.91 159.17 54.85 158.67" fill="none" stroke="#aaa" stroke-miterlimit="10" stroke-width=".5"/>
  <polyline points="42.18 134.8 36.17 137.3 30.01 139.37 26.37 140.47 22.85 141.85 20.56 143.64 19.12 146.18 17.88 151.18 17.23 156.31 17.42 153.82 19.6 153 23.09 154.15 26.52 155.46 30.67 156.45 34.88 156.03 39.23 152.37 41.54 147.07 44.11 152.41 48.55 156.2 52.09 156.55 55.49 155.45 57.25 154.44 58.93 153.33 57.25 155.82 55.48 158.31 55.43 157.72 55.38 157.13 55.33 156.56 55.3 156.01 55.26 155.48 55.23 154.96 55.2 154.45 55.18 153.96" fill="none" stroke="#aaa" stroke-miterlimit="10" stroke-width=".5"/>
  <polyline points="42.09 131.53 36.13 133.78 30.05 135.66 26.42 136.71 22.91 138.06 20.67 139.79 19.27 142.24 18.18 146.93 17.69 151.73 17.87 149.49 19.93 148.97 23.34 150.15 26.7 151.45 30.77 152.43 34.91 152.09 39.15 148.79 41.46 143.85 44.03 148.83 48.36 152.25 51.85 152.53 55.19 151.44 56.94 150.43 58.58 149.26 56.9 151.39 55.19 153.55 55.21 152.97 55.24 152.38 55.27 151.83 55.31 151.28 55.34 150.75 55.38 150.23 55.42 149.73 55.46 149.24" fill="none" stroke="#aaa" stroke-miterlimit="10" stroke-width=".5"/>
  <polyline points="42.17 128.42 36.39 130.43 30.52 132.14 27 133.12 23.58 134.41 21.44 136.04 20.1 138.38 19.15 142.72 18.8 147.15 18.98 145.16 20.88 144.86 24.14 146.04 27.37 147.29 31.27 148.25 35.26 147.98 39.31 145.02 41.57 140.47 44.07 145.05 48.21 148.12 51.57 148.34 54.78 147.28 56.48 146.3 58.05 145.12 56.41 146.92 54.79 148.8 54.85 148.23 54.92 147.67 54.99 147.14 55.06 146.61 55.13 146.11 55.2 145.61 55.27 145.13 55.35 144.67" fill="none" stroke="#aaa" stroke-miterlimit="10" stroke-width=".5"/>
  <polyline points="41.96 125.46 36.49 127.24 30.94 128.76 27.58 129.67 24.33 130.89 22.3 132.4 21.01 134.58 20.14 138.53 19.84 142.58 20.08 140.81 21.85 140.69 24.93 141.83 27.99 143.01 31.68 143.92 35.45 143.71 39.24 141.1 41.39 136.96 43.78 141.13 47.69 143.84 50.97 144 54.12 143.01 56.01 142.01 57.84 140.92 57.15 142.44 56.04 144.04 56.06 143.52 56.09 142.99 56.11 142.49 56.14 142 56.17 141.53 56.21 141.06 56.24 140.62 56.27 140.19" fill="none" stroke="#aaa" stroke-miterlimit="10" stroke-width=".5"/>
  <polyline points="41.78 122.57 36.66 124.11 31.48 125.45 28.28 126.29 25.18 127.41 23.17 128.8 21.78 130.8 20.7 134.34 20.17 138 20.85 136.44 22.63 136.5 25.64 137.57 28.65 138.69 32.13 139.54 35.69 139.38 39.21 137.11 41.24 133.39 43.51 137.15 47.16 139.49 50.4 139.6 53.53 138.68 55.79 137.66 58.06 136.7 58.9 137.67 58.44 139.29 58.38 138.8 58.31 138.33 58.25 137.87 58.19 137.43 58.14 137 58.09 136.58 58.03 136.17 57.99 135.78" fill="none" stroke="#aaa" stroke-miterlimit="10" stroke-width=".5"/>
  <polyline points="41.66 119.63 36.87 120.94 32.04 122.1 28.98 122.87 26.02 123.9 24.02 125.17 22.52 127.01 21.25 130.13 20.47 133.42 21.59 132.15 23.39 132.32 26.35 133.34 29.31 134.39 32.61 135.19 35.98 135.09 39.23 133.16 41.16 129.86 43.32 133.2 46.7 135.19 49.84 135.24 52.88 134.39 55.33 133.39 57.79 132.49 59.31 132.89 59.53 134.54 59.41 134.1 59.29 133.67 59.18 133.26 59.08 132.86 58.97 132.47 58.87 132.09 58.77 131.73 58.68 131.37" fill="none" stroke="#aaa" stroke-miterlimit="10" stroke-width=".5"/>
  <polyline points="41.5 116.57 36.95 117.63 32.37 118.62 29.39 119.32 26.49 120.29 24.44 121.47 22.79 123.17 21.27 125.89 20.19 128.84 21.78 127.92 23.7 128.2 26.69 129.19 29.68 130.21 32.86 130.96 36.12 130.94 39.16 129.35 41.03 126.45 43.13 129.38 46.31 131.02 49.39 131.01 52.39 130.2 55.03 129.21 57.71 128.34 59.56 128.37 60.69 129.78 60.52 129.39 60.36 129.01 60.2 128.64 60.04 128.28 59.89 127.93 59.75 127.59 59.6 127.27 59.46 126.95" fill="none" stroke="#aaa" stroke-miterlimit="10" stroke-width=".5"/>
  <polyline points="41.33 113.28 36.96 114.09 32.6 114.9 29.55 115.56 26.59 116.49 24.33 117.63 22.36 119.23 20.47 121.61 18.96 124.27 21.09 123.76 23.3 124.17 26.46 125.18 29.61 126.2 32.8 126.95 36.07 127.01 38.98 125.77 40.9 123.24 43.02 125.8 46.07 127.09 49.21 126.99 52.27 126.2 55.21 125.18 58.18 124.28 60.46 124.07 62.49 125.03 62.27 124.68 62.05 124.34 61.84 124.01 61.63 123.69 61.42 123.38 61.22 123.08 61.03 122.78 60.84 122.5" fill="none" stroke="#aaa" stroke-miterlimit="10" stroke-width=".5"/>
  <polyline points="41.27 109.7 37.03 110.24 32.8 110.87 29.53 111.53 26.33 112.46 23.64 113.61 21.17 115.16 18.76 117.27 16.66 119.69 19.47 119.64 22.24 120.27 25.71 121.35 29.18 122.44 32.51 123.21 35.92 123.38 38.79 122.47 40.86 120.29 43.14 122.5 46.17 123.45 49.51 123.25 52.76 122.43 56.13 121.35 59.52 120.34 62.45 119.87 65.36 120.28 65.07 119.98 64.79 119.68 64.51 119.4 64.24 119.12 63.97 118.85 63.71 118.58 63.45 118.32 63.19 118.07" fill="none" stroke="#aaa" stroke-miterlimit="10" stroke-width=".5"/>
  <polyline points="41.23 105.85 37.39 106.1 33.56 106.56 29.87 107.25 26.23 108.2 22.76 109.43 19.42 110.98 16.27 112.87 13.35 115.11 16.94 115.56 20.45 116.47 24.38 117.7 28.31 118.89 31.91 119.74 35.57 120.04 38.51 119.43 40.85 117.59 43.38 119.45 46.47 120.1 50.08 119.76 53.61 118.89 57.52 117.68 61.44 116.51 65.23 115.7 69.1 115.52 68.77 115.29 68.45 115.07 68.12 114.85 67.81 114.63 67.49 114.41 67.17 114.2 66.86 113.99 66.55 113.79" fill="none" stroke="#aaa" stroke-miterlimit="10" stroke-width=".5"/>
  <polyline points="41.07 101.84 38.02 101.78 34.97 102.09 30.73 102.83 26.54 103.82 21.98 105.15 17.51 106.74 13.5 108.46 9.65 110.54 14.04 111.5 18.35 112.75 22.79 114.15 27.25 115.48 31.16 116.41 35.15 116.86 38.2 116.51 40.87 115.03 43.7 116.53 46.89 116.91 50.82 116.43 54.68 115.47 59.15 114.12 63.62 112.75 68.33 111.55 73.12 110.77 72.78 110.61 72.44 110.44 72.1 110.28 71.76 110.12 71.42 109.96 71.08 109.8 70.73 109.64 70.39 109.49" fill="none" stroke="#aaa" stroke-miterlimit="10" stroke-width=".5"/>
  <polyline points="40.92 97.84 37.64 97.42 34.31 97.63 29.66 98.38 25.07 99.45 20.12 100.86 15.23 102.5 10.97 104.12 6.8 105.96 11.77 107.43 16.69 109.02 21.51 110.6 26.36 112.06 30.53 113.07 34.77 113.67 37.95 113.55 40.91 112.47 43.99 113.57 47.28 113.71 51.45 113.09 55.55 112.05 60.45 110.55 65.33 108.99 70.74 107.38 76.21 106.02 75.85 105.89 75.49 105.77 75.13 105.65 74.76 105.52 74.4 105.39 74.03 105.27 73.66 105.14 73.3 105.01" fill="none" stroke="#aaa" stroke-miterlimit="10" stroke-width=".5"/>
  <polyline points="40.85 94.01 37.43 93.25 33.9 93.34 29.01 94.09 24.17 95.21 18.96 96.69 13.79 98.33 9.33 99.83 4.9 101.38 10.29 103.31 15.69 105.22 20.75 106.93 25.86 108.49 30.18 109.57 34.57 110.29 37.82 110.39 40.99 109.74 44.22 110.41 47.54 110.32 51.83 109.59 56.05 108.49 61.2 106.87 66.32 105.15 72.23 103.16 78.16 101.26 77.79 101.18 77.42 101.1 77.04 101.01 76.66 100.93 76.29 100.84 75.91 100.74 75.53 100.65 75.15 100.55" fill="none" stroke="#aaa" stroke-miterlimit="10" stroke-width=".5"/>
  <polyline points="40.78 90.46 37.36 89.37 33.74 89.34 28.75 90.06 23.84 91.2 18.53 92.68 13.26 94.27 8.74 95.62 4.18 96.8 9.82 99.13 15.51 101.31 20.65 103.1 25.85 104.7 30.19 105.82 34.58 106.64 37.84 106.95 41.08 106.77 44.34 106.96 47.59 106.66 51.84 105.83 56.04 104.7 61.27 103.03 66.46 101.2 72.68 98.89 78.88 96.51 78.54 96.48 78.19 96.44 77.85 96.4 77.5 96.36 77.16 96.31 76.81 96.26 76.46 96.21 76.11 96.15" fill="none" stroke="#aaa" stroke-miterlimit="10" stroke-width=".5"/>
  <polyline points="40.73 87.18 37.42 85.79 33.81 85.64 28.9 86.3 24.07 87.41 18.85 88.86 13.65 90.34 9.21 91.47 4.7 92.22 10.06 94.84 15.51 97.27 20.13 99.1 24.83 100.69 28.98 101.83 33.2 102.71 37.18 103.26 41.18 103.55 45.08 103.26 48.96 102.71 52.99 101.83 56.96 100.69 61.69 99.01 66.35 97.14 72.36 94.51 78.32 91.75 78.1 91.76 77.89 91.77 77.67 91.77 77.45 91.77 77.23 91.77 77.01 91.77 76.79 91.77 76.57 91.76" fill="none" stroke="#aaa" stroke-miterlimit="10" stroke-width=".5"/>
  <polyline points="40.68 84.11 37.59 82.45 34.07 82.15 29.36 82.73 24.74 83.8 19.75 85.16 14.75 86.49 10.49 87.37 6.16 87.65 11.03 90.5 16 93.15 19.93 94.97 23.96 96.5 27.83 97.65 31.76 98.55 36.44 99.4 41.14 100.14 45.71 99.4 50.24 98.55 53.98 97.65 57.65 96.5 61.73 94.87 65.71 92.99 71.28 90.06 76.77 87 76.72 87.01 76.66 87.02 76.61 87.03 76.56 87.04 76.51 87.05 76.46 87.06 76.41 87.06 76.36 87.07" fill="none" stroke="#aaa" stroke-miterlimit="10" stroke-width=".5"/>
  <polyline points="40.93 81.18 38.12 79.27 34.73 78.8 30.32 79.29 25.98 80.29 21.3 81.55 16.6 82.7 12.57 83.3 8.52 83.07 12.95 86.14 17.51 88.97 20.9 90.75 24.44 92.21 28 93.33 31.63 94.26 36.51 95.42 41.39 96.61 46.08 95.41 50.77 94.26 54.14 93.35 57.45 92.24 60.9 90.7 64.22 88.88 69.12 85.77 73.9 82.49" fill="none" stroke="#aaa" stroke-miterlimit="10" stroke-width=".5"/>
  <polyline points="41.06 78.28 38.57 76.15 35.34 75.49 31.29 75.88 27.32 76.81 23.13 77.95 18.9 78.92 15.39 79.24 11.97 78.49 15.68 81.76 19.59 84.78 22.39 86.51 25.38 87.89 28.59 88.98 31.85 89.93 36.71 91.41 41.52 93.04 46.09 91.41 50.7 89.94 53.64 89.02 56.52 87.96 59.26 86.54 61.81 84.79 65.69 81.55 69.4 78.12" fill="none" stroke="#aaa" stroke-miterlimit="10" stroke-width=".5"/>
  <polyline points="41.23 75.33 39.03 72.99 35.94 72.12 32.26 72.42 28.66 73.29 25.01 74.32 21.32 75.12 18.42 75.16 15.85 73.91 18.74 77.38 21.89 80.61 24.09 82.31 26.55 83.61 29.42 84.68 32.32 85.67 37.05 87.47 41.68 89.53 46.02 87.49 50.46 85.68 52.97 84.75 55.43 83.7 57.46 82.38 59.2 80.69 61.88 77.29 64.37 73.73" fill="none" stroke="#aaa" stroke-miterlimit="10" stroke-width=".5"/>
  <polyline points="41.51 72.23 39.54 69.7 36.54 68.6 33.17 68.82 29.89 69.65 26.78 70.59 23.62 71.26 21.3 71.02 19.76 69.34 21.81 73.02 24.19 76.5 25.87 78.19 27.89 79.45 30.48 80.51 33.08 81.54 37.61 83.67 41.95 86.14 45.96 83.72 50.11 81.57 52.16 80.63 54.14 79.57 55.32 78.29 56.01 76.67 56.93 73.07 57.71 69.42" fill="none" stroke="#aaa" stroke-miterlimit="10" stroke-width=".5"/>
  <polyline points="41.86 68.99 40.04 66.27 37.06 64.93 33.83 65.09 30.69 65.89 27.77 66.78 24.79 67.34 22.56 66.77 21.4 64.76 23.25 68.7 25.43 72.45 26.94 74.15 28.84 75.4 31.29 76.47 33.74 77.56 38.14 80.02 42.3 82.89 46.09 80.1 50.06 77.6 51.74 76.65 53.3 75.53 53.68 74.13 53.49 72.65 52.76 68.8 52.13 64.93" fill="none" stroke="#aaa" stroke-miterlimit="10" stroke-width=".5"/>
  <polyline points="41.88 65.66 40.14 62.72 37.15 61.17 33.97 61.27 30.86 62.06 27.97 62.92 25.01 63.38 22.67 62.48 21.58 60.18 23.47 64.41 25.73 68.44 27.22 70.17 29.11 71.43 31.53 72.52 33.91 73.69 38.27 76.48 42.31 79.72 46.01 76.55 49.94 73.71 51.55 72.69 53.05 71.55 53.39 70.09 53.2 68.58 52.5 64.38 51.95 60.15" fill="none" stroke="#aaa" stroke-miterlimit="10" stroke-width=".5"/>
  <polyline points="41.9 62.27 40.22 59.13 37.2 57.34 34.03 57.4 30.93 58.18 28.04 59.03 25.08 59.4 22.66 58.17 21.61 55.6 23.54 60.13 25.87 64.45 27.35 66.23 29.26 67.51 31.66 68.61 34 69.86 38.35 72.99 42.33 76.6 45.97 73.06 49.9 69.87 51.47 68.79 52.92 67.61 53.23 66.1 53.04 64.54 52.37 59.97 51.88 55.38" fill="none" stroke="#aaa" stroke-miterlimit="10" stroke-width=".5"/>
  <polyline points="41.92 58.86 40.29 55.51 37.24 53.49 34.07 53.5 30.98 54.28 28.09 55.12 25.11 55.41 22.61 53.86 21.56 51.03 23.54 55.86 25.93 60.48 27.41 62.29 29.33 63.61 31.74 64.74 34.05 66.06 38.42 69.53 42.36 73.5 45.96 69.6 49.9 66.06 51.42 64.92 52.86 63.7 53.14 62.13 52.95 60.51 52.31 55.57 51.86 50.61" fill="none" stroke="#aaa" stroke-miterlimit="10" stroke-width=".5"/>
  <polyline points="41.95 55.42 40.35 51.87 37.27 49.62 34.11 49.58 31.02 50.37 28.11 51.2 25.11 51.4 22.52 49.55 21.44 46.45 23.47 51.59 25.93 56.51 27.4 58.38 29.36 59.72 31.77 60.89 34.06 62.29 38.46 66.1 42.38 70.42 45.97 66.17 49.93 62.27 51.43 61.07 52.85 59.81 53.11 58.17 52.91 56.5 52.3 51.17 51.89 45.83" fill="none" stroke="#aaa" stroke-miterlimit="10" stroke-width=".5"/>
  <polyline points="41.97 51.94 40.4 48.18 37.26 45.7 34.09 45.63 30.98 46.42 28.03 47.25 25 47.38 22.31 45.24 21.19 41.87 23.27 47.32 25.81 52.56 27.3 54.49 29.28 55.87 31.73 57.08 34.02 58.56 38.48 62.71 42.41 67.38 46.02 62.78 50.03 58.53 51.51 57.26 52.93 55.95 53.17 54.25 52.98 52.51 52.38 46.8 52.01 41.07" fill="none" stroke="#aaa" stroke-miterlimit="10" stroke-width=".5"/>
  <polyline points="42.01 48.38 40.42 44.39 37.2 41.69 33.96 41.59 30.78 42.4 27.76 43.24 24.65 43.32 21.84 40.92 20.68 37.29 22.83 43.08 25.47 48.65 26.98 50.66 29.03 52.1 31.53 53.35 33.87 54.92 38.45 59.4 42.46 64.42 46.14 59.47 50.25 54.88 51.75 53.54 53.2 52.17 53.43 50.39 53.23 48.57 52.63 42.47 52.28 36.35" fill="none" stroke="#aaa" stroke-miterlimit="10" stroke-width=".5"/>
  <polyline points="42.07 44.68 40.42 40.44 37.04 37.54 33.65 37.42 30.34 38.27 27.17 39.15 23.91 39.21 20.95 36.59 19.73 32.72 21.99 38.87 24.76 44.8 26.35 46.91 28.5 48.43 31.12 49.75 33.55 51.42 38.35 56.21 42.53 61.58 46.37 56.29 50.68 51.37 52.23 49.95 53.75 48.5 53.98 46.62 53.78 44.7 53.16 38.2 52.8 31.68" fill="none" stroke="#aaa" stroke-miterlimit="10" stroke-width=".5"/>
  <polyline points="42.15 40.84 40.38 36.32 36.77 33.24 33.15 33.11 29.61 34.02 26.23 34.96 22.75 35.03 19.59 32.26 18.28 28.14 20.7 34.69 23.66 41 25.35 43.26 27.64 44.88 30.45 46.29 33.04 48.07 38.17 53.17 42.64 58.88 46.74 53.25 51.33 48.02 53 46.51 54.62 44.96 54.87 42.96 54.65 40.91 53.99 34.01 53.6 27.08" fill="none" stroke="#aaa" stroke-miterlimit="10" stroke-width=".5"/>
  <polyline points="42.25 36.91 40.33 32.1 36.45 28.85 32.54 28.73 28.72 29.71 25.08 30.72 21.34 30.82 17.95 27.93 16.55 23.56 19.14 30.54 22.32 37.25 24.14 39.66 26.61 41.4 29.62 42.91 32.42 44.8 37.94 50.2 42.76 56.25 47.18 50.28 52.13 44.76 53.93 43.14 55.68 41.49 55.96 39.36 55.72 37.17 55 29.86 54.56 22.52" fill="none" stroke="#aaa" stroke-miterlimit="10" stroke-width=".5"/>
  <polyline points="42.35 33 40.28 27.9 36.12 24.48 31.94 24.36 27.85 25.4 23.96 26.49 19.95 26.62 16.35 23.59 14.84 18.98 17.61 26.37 21 33.48 22.96 36.05 25.59 37.9 28.82 39.51 31.81 41.52 37.72 47.21 42.89 53.6 47.62 47.31 52.9 41.48 54.84 39.77 56.72 38.01 57.02 35.74 56.77 33.42 55.99 25.71 55.51 17.97" fill="none" stroke="#aaa" stroke-miterlimit="10" stroke-width=".5"/>
  <polyline points="42.42 29.19 40.25 23.83 35.88 20.22 31.48 20.09 27.18 21.19 23.09 22.33 18.87 22.46 15.08 19.27 13.49 14.41 16.41 22.18 19.98 29.67 22.03 32.38 24.8 34.32 28.19 36.02 31.34 38.12 37.55 44.12 42.99 50.86 47.96 44.23 53.52 38.09 55.55 36.28 57.53 34.43 57.85 32.06 57.58 29.62 56.76 21.51 56.26 13.37" fill="none" stroke="#aaa" stroke-miterlimit="10" stroke-width=".5"/>
</svg>