<?xml version="1.0" encoding="UTF-8"?><svg id="Ebene_1" xmlns="http://www.w3.org/2000/svg" viewBox="0 0 222 222"><polyline points="216.01 1.15 221.17 4.04 226.33 6.93 230.03 9.91 233.72 12.88 236.25 15.78 238.79 18.69 240.47 21.38 242.15 24.08 244.18 28.24 246.21 32.41 247.18 33.6 248.14 34.78 249.48 35.17 250.82 35.56" style="fill:none; stroke:#aaa; stroke-miterlimit:10; stroke-width:.5px;"/><polyline points="208.88 1.14 214.25 4.17 219.62 7.2 223.46 10.31 227.3 13.42 229.93 16.47 232.56 19.51 234.31 22.33 236.05 25.14 238.17 29.49 240.28 33.84 241.3 35.06 242.31 36.28 243.73 36.66 245.14 37.05" style="fill:none; stroke:#aaa; stroke-miterlimit:10; stroke-width:.5px;"/><polyline points="201.99 1.13 207.57 4.27 213.15 7.41 217.13 10.64 221.11 13.86 223.83 17.02 226.56 20.17 228.35 23.08 230.15 26 232.33 30.47 234.51 34.95 235.57 36.19 236.63 37.43 238.12 37.79 239.61 38.15" style="fill:none; stroke:#aaa; stroke-miterlimit:10; stroke-width:.5px;"/><polyline points="195.31 1.13 201.11 4.35 206.9 7.57 211.02 10.89 215.14 14.2 217.95 17.43 220.75 20.66 222.59 23.65 224.44 26.63 226.67 31.2 228.9 35.76 230 37 231.1 38.24 232.67 38.56 234.24 38.89" style="fill:none; stroke:#aaa; stroke-miterlimit:10; stroke-width:.5px;"/><polyline points="188.81 1.12 194.82 4.41 200.83 7.7 205.08 11.07 209.34 14.45 212.22 17.74 215.1 21.04 216.98 24.07 218.86 27.11 220.12 29.72 221.38 32.32 222.39 34.33 223.4 36.33 224.55 37.56 225.69 38.78 227.34 39.06 228.98 39.34" style="fill:none; stroke:#aaa; stroke-miterlimit:10; stroke-width:.5px;"/><polyline points="182.41 1.12 188.64 4.46 194.86 7.79 199.25 11.22 203.64 14.65 206.6 17.99 209.55 21.33 211.46 24.41 213.38 27.48 214.65 30.11 215.92 32.74 216.95 34.75 217.98 36.75 219.16 37.96 220.35 39.16 222.08 39.38 223.81 39.6" style="fill:none; stroke:#aaa; stroke-miterlimit:10; stroke-width:.5px;"/><polyline points="176.11 1.12 182.54 4.49 188.98 7.86 193.5 11.33 198.02 14.79 201.05 18.17 204.07 21.54 206.02 24.65 207.96 27.75 209.24 30.39 210.53 33.03 211.57 35.03 212.61 37.03 213.83 38.21 215.06 39.38 216.87 39.54 218.69 39.71" style="fill:none; stroke:#aaa; stroke-miterlimit:10; stroke-width:.5px;"/><polyline points="169.9 1.12 176.55 4.51 183.2 7.91 187.85 11.39 192.5 14.88 195.59 18.28 198.68 21.67 200.65 24.79 202.62 27.9 203.91 30.55 205.2 33.19 206.26 35.17 207.31 37.16 208.57 38.3 209.83 39.44 211.73 39.54 213.63 39.64" style="fill:none; stroke:#aaa; stroke-miterlimit:10; stroke-width:.5px;"/><polyline points="163.8 1.12 170.67 4.52 177.54 7.92 182.31 11.42 187.09 14.92 190.24 18.32 193.39 21.73 195.38 24.84 197.37 27.95 198.66 30.59 199.96 33.22 201.02 35.18 202.08 37.14 203.38 38.23 204.67 39.33 206.66 39.36 208.66 39.4" style="fill:none; stroke:#aaa; stroke-miterlimit:10; stroke-width:.5px;"/><polyline points="157.8 1.12 164.89 4.52 171.98 7.92 176.88 11.41 181.78 14.91 184.99 18.3 188.19 21.7 190.2 24.8 192.2 27.9 193.49 30.51 194.78 33.12 195.85 35.04 196.92 36.97 198.25 38.01 199.59 39.05 201.68 39.02 203.78 38.98" style="fill:none; stroke:#aaa; stroke-miterlimit:10; stroke-width:.5px;"/><polyline points="151.9 1.12 159.21 4.5 166.51 7.88 171.54 11.36 176.57 14.84 179.83 18.22 183.09 21.6 185.1 24.67 187.11 27.75 188.39 30.33 189.68 32.9 190.75 34.78 191.82 36.66 193.2 37.64 194.58 38.62 196.78 38.51 198.98 38.4" style="fill:none; stroke:#aaa; stroke-miterlimit:10; stroke-width:.5px;"/><polyline points="146.07 1.12 153.6 4.48 161.13 7.83 166.28 11.28 171.42 14.73 174.73 18.07 178.04 21.42 180.06 24.46 182.08 27.5 183.35 30.04 184.62 32.57 185.69 34.4 186.77 36.22 188.19 37.14 189.61 38.06 191.92 37.87 194.23 37.68" style="fill:none; stroke:#aaa; stroke-miterlimit:10; stroke-width:.5px;"/><polyline points="140.32 1.13 148.07 4.44 155.82 7.75 161.09 11.17 166.35 14.58 169.7 17.88 173.06 21.18 175.08 24.18 177.09 27.18 178.35 29.66 179.61 32.14 180.68 33.91 181.76 35.68 183.22 36.53 184.69 37.38 187.12 37.12 189.55 36.85" style="fill:none; stroke:#aaa; stroke-miterlimit:10; stroke-width:.5px;"/><polyline points="134.62 1.13 142.6 4.4 150.57 7.66 155.96 11.02 161.34 14.39 164.73 17.64 168.13 20.9 170.14 23.84 172.16 26.78 173.4 29.21 174.64 31.63 175.71 33.34 176.79 35.05 178.3 35.83 179.81 36.61 182.38 36.26 184.94 35.91" style="fill:none; stroke:#aaa; stroke-miterlimit:10; stroke-width:.5px;"/><polyline points="128.97 1.14 137.18 4.34 145.38 7.55 150.88 10.86 156.37 14.16 159.81 17.35 163.24 20.55 165.25 23.43 167.25 26.31 168.47 28.68 169.69 31.04 170.77 32.68 171.84 34.32 173.4 35.03 174.97 35.74 177.66 35.32 180.36 34.9" style="fill:none; stroke:#aaa; stroke-miterlimit:10; stroke-width:.5px;"/><polyline points="123.37 1.14 131.8 4.28 140.23 7.43 145.84 10.67 151.45 13.91 154.92 17.04 158.39 20.16 160.38 22.98 162.38 25.79 163.58 28.09 164.77 30.38 165.84 31.95 166.92 33.52 168.54 34.16 170.16 34.8 173 34.31 175.84 33.82" style="fill:none; stroke:#aaa; stroke-miterlimit:10; stroke-width:.5px;"/><polyline points="117.8 1.15 126.45 4.22 135.11 7.29 140.83 10.46 146.55 13.62 150.05 16.68 153.55 19.74 155.53 22.48 157.52 25.22 158.69 27.45 159.86 29.67 160.93 31.17 162 32.67 163.68 33.24 165.35 33.82 168.34 33.26 171.33 32.7" style="fill:none; stroke:#aaa; stroke-miterlimit:10; stroke-width:.5px;"/><polyline points="112.23 1.15 121.12 4.15 130 7.15 135.83 10.24 141.67 13.33 145.2 16.32 148.73 19.3 150.69 21.97 152.66 24.63 153.81 26.78 154.96 28.94 156.03 30.37 157.1 31.8 158.83 32.3 160.57 32.81 163.72 32.19 166.86 31.57" style="fill:none; stroke:#aaa; stroke-miterlimit:10; stroke-width:.5px;"/><polyline points="106.67 1.16 115.77 4.08 124.88 7 130.82 10.02 136.77 13.04 140.33 15.94 143.89 18.85 145.84 21.44 147.79 24.03 148.91 26.11 150.03 28.19 151.11 29.56 152.18 30.92 153.98 31.37 155.78 31.81 159.08 31.14 162.38 30.47" style="fill:none; stroke:#aaa; stroke-miterlimit:10; stroke-width:.5px;"/><polyline points="101.07 1.16 110.41 4.01 119.74 6.86 125.8 9.81 131.85 12.75 135.44 15.58 139.02 18.41 140.96 20.93 142.9 23.45 143.99 25.47 145.09 27.48 146.17 28.78 147.24 30.08 149.11 30.47 150.97 30.86 154.45 30.13 157.92 29.41" style="fill:none; stroke:#aaa; stroke-miterlimit:10; stroke-width:.5px;"/><polyline points="95.44 1.17 105 3.95 114.56 6.73 120.73 9.6 126.89 12.48 130.51 15.24 134.12 18 136.05 20.46 137.97 22.91 139.04 24.86 140.12 26.8 141.2 28.05 142.28 29.29 144.21 29.62 146.15 29.96 149.79 29.19 153.43 28.43" style="fill:none; stroke:#aaa; stroke-miterlimit:10; stroke-width:.5px;"/><polyline points="89.75 1.17 99.54 3.89 109.33 6.61 115.6 9.42 121.88 12.23 125.52 14.93 129.17 17.63 131.08 20.02 132.99 22.42 134.04 24.3 135.1 26.19 136.19 27.38 137.28 28.57 139.28 28.86 141.29 29.15 145.1 28.35 148.91 27.54" style="fill:none; stroke:#aaa; stroke-miterlimit:10; stroke-width:.5px;"/><polyline points="84.01 1.17 94.02 3.84 104.03 6.51 110.42 9.26 116.81 12.02 120.49 14.66 124.17 17.31 126.07 19.65 127.96 21.99 129 23.82 130.04 25.66 131.14 26.81 132.24 27.95 134.32 28.2 136.4 28.44 140.39 27.6 144.38 26.76" style="fill:none; stroke:#aaa; stroke-miterlimit:10; stroke-width:.5px;"/><polyline points="78.19 1.18 88.43 3.8 98.67 6.42 105.17 9.13 111.67 11.83 115.39 14.43 119.1 17.03 120.99 19.33 122.88 21.62 123.91 23.42 124.93 25.21 126.04 26.32 127.15 27.42 129.31 27.63 131.47 27.84 135.63 26.97 139.79 26.09" style="fill:none; stroke:#aaa; stroke-miterlimit:10; stroke-width:.5px;"/><polyline points="72.31 1.18 82.77 3.77 93.24 6.35 99.85 9.02 106.46 11.69 110.22 14.25 113.97 16.82 115.86 19.08 117.75 21.33 118.76 23.09 119.77 24.85 120.9 25.92 122.02 26.99 124.26 27.17 126.49 27.35 130.82 26.45 135.16 25.54" style="fill:none; stroke:#aaa; stroke-miterlimit:10; stroke-width:.5px;"/><polyline points="66.34 1.18 77.03 3.74 87.72 6.3 94.45 8.95 101.18 11.6 104.98 14.13 108.77 16.67 110.66 18.9 112.55 21.14 113.55 22.87 114.56 24.6 115.7 25.64 116.85 26.68 119.16 26.84 121.47 26.99 125.98 26.05 130.48 25.12" style="fill:none; stroke:#aaa; stroke-miterlimit:10; stroke-width:.5px;"/><polyline points="60.28 1.18 71.19 3.73 82.11 6.28 88.96 8.92 95.81 11.55 99.65 14.08 103.49 16.6 105.39 18.82 107.28 21.04 108.28 22.76 109.28 24.47 110.45 25.49 111.62 26.51 114.01 26.64 116.4 26.77 121.08 25.8 125.76 24.84" style="fill:none; stroke:#aaa; stroke-miterlimit:10; stroke-width:.5px;"/><polyline points="54.12 1.18 65.26 3.73 76.4 6.29 83.37 8.92 90.35 11.56 94.24 14.09 98.13 16.62 100.03 18.83 101.93 21.05 102.93 22.76 103.94 24.47 105.13 25.48 106.32 26.49 108.8 26.59 111.27 26.7 116.11 25.7 120.96 24.71" style="fill:none; stroke:#aaa; stroke-miterlimit:10; stroke-width:.5px;"/><polyline points="47.86 1.18 59.23 3.75 70.6 6.32 77.69 8.97 84.79 11.63 88.74 14.17 92.68 16.71 94.6 18.94 96.52 21.17 97.52 22.88 98.53 24.6 99.75 25.6 100.97 26.6 103.52 26.69 106.08 26.77 111.08 25.74 116.09 24.72" style="fill:none; stroke:#aaa; stroke-miterlimit:10; stroke-width:.5px;"/><polyline points="41.52 1.18 53.11 3.78 64.71 6.38 71.93 9.06 79.15 11.75 83.16 14.32 87.16 16.89 89.1 19.14 91.03 21.39 92.05 23.11 93.07 24.84 94.32 25.84 95.57 26.84 98.21 26.91 100.84 26.98 106 25.92 111.17 24.86" style="fill:none; stroke:#aaa; stroke-miterlimit:10; stroke-width:.5px;"/><polyline points="35.1 1.18 46.92 3.82 58.73 6.46 66.09 9.18 73.44 11.91 77.51 14.52 81.58 17.13 83.54 19.41 85.49 21.7 86.53 23.44 87.56 25.19 88.84 26.2 90.13 27.2 92.84 27.26 95.56 27.31 100.88 26.21 106.21 25.11" style="fill:none; stroke:#aaa; stroke-miterlimit:10; stroke-width:.5px;"/><polyline points="28.55 1.17 40.6 3.87 52.65 6.57 60.13 9.36 67.62 12.14 71.76 14.81 75.89 17.47 77.88 19.8 79.87 22.13 80.92 23.91 81.97 25.69 83.29 26.71 84.61 27.73 87.41 27.77 90.21 27.82 95.69 26.67 101.17 25.52" style="fill:none; stroke:#aaa; stroke-miterlimit:10; stroke-width:.5px;"/><polyline points="21.81 1.17 34.08 3.95 46.36 6.74 53.98 9.61 61.61 12.49 65.82 15.24 70.04 17.99 72.07 20.39 74.1 22.79 75.18 24.62 76.26 26.46 77.62 27.5 78.98 28.54 81.86 28.58 84.74 28.61 90.36 27.41 95.99 26.21" style="fill:none; stroke:#aaa; stroke-miterlimit:10; stroke-width:.5px;"/><polyline points="14.8 1.16 27.3 4.07 39.8 6.98 47.58 9.98 55.35 12.99 59.66 15.86 63.96 18.73 66.04 21.24 68.13 23.74 69.25 25.66 70.37 27.57 71.78 28.65 73.2 29.74 76.15 29.77 79.11 29.8 84.87 28.54 90.63 27.28" style="fill:none; stroke:#aaa; stroke-miterlimit:10; stroke-width:.5px;"/><polyline points="7.51 1.15 20.24 4.22 32.97 7.3 40.91 10.48 48.84 13.65 53.25 16.68 57.65 19.72 59.81 22.37 61.96 25.01 63.14 27.03 64.31 29.05 65.78 30.2 67.25 31.34 70.28 31.37 73.32 31.4 79.2 30.07 85.07 28.74" style="fill:none; stroke:#aaa; stroke-miterlimit:10; stroke-width:.5px;"/><polyline points="0 1.14 12.96 4.41 25.92 7.69 34.02 11.07 42.12 14.45 46.64 17.68 51.16 20.91 53.4 23.73 55.63 26.55 56.87 28.7 58.11 30.84 59.64 32.07 61.17 33.29 64.29 33.32 67.4 33.36 73.39 31.95 79.37 30.54" style="fill:none; stroke:#aaa; stroke-miterlimit:10; stroke-width:.5px;"/></svg>