<?xml version="1.0" encoding="UTF-8"?>
<svg id="Ebene_1" xmlns="http://www.w3.org/2000/svg" width="222" height="222" viewBox="0 0 222 222">
  <polyline points="41.32 26.13 43.65 31.29 48.3 34.4 52.63 34.71 56.88 33.79 58.62 33.15 59.94 32.61 55.08 35.8 50.33 39.16 54.16 32.35 57.73 25.4 58.31 23.16 57.11 21.32 53.9 19.73 50.88 17.81 45.51 12.3 41.4 5.77 37.53 12.05 32.5 17.42 29.5 19.45 26.25 21.05 24.73 22.28 24.71 24.23 27.12 29.47 29.95 34.51" fill="none" stroke="#aaa" stroke-miterlimit="10" stroke-width=".5"/>
  <polyline points="41.6 31.43 44.17 36.35 48.96 39.07 53.53 39.26 58.01 38.27 59.85 37.59 61.23 36.87 56.1 39.67 51.1 42.71 55.26 36.08 59.12 29.29 59.76 27.01 58.48 25.14 55.07 23.52 51.8 21.6 46.13 16.34 41.68 9.99 37.51 16.07 32.22 21.18 28.98 23.21 25.52 24.83 23.91 26.05 23.81 28.03 26.33 33.07 29.31 37.87" fill="none" stroke="#aaa" stroke-miterlimit="10" stroke-width=".5"/>
  <polyline points="41.62 36.51 44.37 41.19 49.22 43.57 53.94 43.67 58.57 42.63 60.48 41.92 61.89 41.07 56.58 43.5 51.42 46.26 55.82 39.86 59.89 33.25 60.57 30.95 59.23 29.09 55.68 27.45 52.24 25.55 46.38 20.55 41.7 14.41 37.32 20.27 31.88 25.12 28.47 27.12 24.88 28.75 23.19 29.94 23.03 31.94 25.6 36.77 28.67 41.33" fill="none" stroke="#aaa" stroke-miterlimit="10" stroke-width=".5"/>
  <polyline points="41.41 41.46 44.3 45.87 49.15 47.95 53.96 47.96 58.66 46.9 60.63 46.17 62.05 45.22 56.63 47.32 51.38 49.82 55.95 43.66 60.16 37.26 60.86 34.97 59.47 33.13 55.82 31.49 52.27 29.63 46.32 24.88 41.5 18.97 37 24.59 31.49 29.19 27.97 31.15 24.29 32.77 22.56 33.93 22.32 35.93 24.91 40.56 28.03 44.88" fill="none" stroke="#aaa" stroke-miterlimit="10" stroke-width=".5"/>
  <polyline points="41.51 46.33 44.52 50.47 49.33 52.27 54.19 52.21 58.94 51.13 60.95 50.38 62.36 49.34 56.89 51.12 51.58 53.37 56.28 47.47 60.6 41.3 61.31 39.02 59.89 37.21 56.17 35.58 52.53 33.76 46.53 29.26 41.59 23.61 37 28.97 31.46 33.32 27.85 35.24 24.1 36.83 22.34 37.96 22.03 39.94 24.62 44.37 27.76 48.46" fill="none" stroke="#aaa" stroke-miterlimit="10" stroke-width=".5"/>
  <polyline points="41.57 51.18 44.7 55.04 49.46 56.59 54.37 56.45 59.16 55.34 61.21 54.57 62.61 53.45 57.1 54.92 51.73 56.92 56.55 51.28 60.99 45.34 61.71 43.08 60.25 41.3 56.45 39.68 52.73 37.91 46.69 33.66 41.64 28.26 36.97 33.37 31.41 37.47 27.72 39.33 23.9 40.91 22.11 42.01 21.73 43.98 24.33 48.23 27.5 52.1" fill="none" stroke="#aaa" stroke-miterlimit="10" stroke-width=".5"/>
  <polyline points="41.62 56.03 44.93 59.62 49.69 60.9 55.01 60.67 60.22 59.56 63.01 58.68 65.7 57.57 62.14 58.92 58.62 60.48 61.81 55.13 64.16 49.39 63.61 46.86 61.4 45.4 57.16 43.83 53.02 42.06 46.88 38.08 41.7 32.92 36.94 37.76 31.34 41.59 27.32 43.45 23.17 44.96 20.85 46 19.3 47.94 20.04 51.85 21.87 55.46" fill="none" stroke="#aaa" stroke-miterlimit="10" stroke-width=".5"/>
  <polyline points="41.6 60.86 45.06 64.14 49.77 65.18 55.31 64.88 60.75 63.75 64.04 62.8 67.27 61.67 64.82 62.77 62.09 64.03 64.5 58.91 65.79 53.44 64.54 50.9 62 49.51 57.53 47.98 53.15 46.23 46.98 42.5 41.68 37.6 36.85 42.18 31.25 45.76 27.05 47.57 22.72 49.04 20.09 50.09 18.01 51.96 17.84 55.56 19.02 59.04" fill="none" stroke="#aaa" stroke-miterlimit="10" stroke-width=".5"/>
  <polyline points="41.65 65.59 45.2 68.56 49.84 69.4 55.48 69.02 61.03 67.89 64.62 66.9 68.15 65.74 66.48 66.54 64.17 67.58 66.11 62.69 66.74 57.53 65.08 55.03 62.33 53.67 57.75 52.18 53.23 50.47 47.08 46.99 41.72 42.37 36.86 46.67 31.3 50 27 51.76 22.6 53.19 19.77 54.24 17.39 56.05 16.68 59.34 17.45 62.7" fill="none" stroke="#aaa" stroke-miterlimit="10" stroke-width=".5"/>
  <polyline points="41.67 70.15 45.26 72.8 49.76 73.46 55.38 73.04 60.92 71.93 64.65 70.92 68.33 69.75 67.23 70.27 65.19 71.14 66.79 66.51 66.99 61.67 65.09 59.26 62.25 57.95 57.65 56.5 53.12 54.86 47.07 51.64 41.74 47.32 36.93 51.32 31.49 54.4 27.19 56.08 22.8 57.45 19.89 58.49 17.35 60.22 16.33 63.23 16.8 66.45" fill="none" stroke="#aaa" stroke-miterlimit="10" stroke-width=".5"/>
  <polyline points="41.7 74.47 45.22 76.82 49.5 77.34 54.96 76.89 60.34 75.82 64.07 74.83 67.74 73.68 67.05 73.97 65.21 74.69 66.56 70.37 66.49 65.91 64.49 63.62 61.66 62.37 57.18 60.99 52.75 59.45 46.94 56.49 41.76 52.51 37.11 56.19 31.89 59.01 27.71 60.59 23.45 61.88 20.55 62.89 17.99 64.51 16.8 67.25 17.07 70.27" fill="none" stroke="#aaa" stroke-miterlimit="10" stroke-width=".5"/>
  <polyline points="41.72 78.59 45.09 80.64 49.08 81.05 54.27 80.59 59.37 79.58 62.97 78.63 66.52 77.53 66.14 77.64 64.47 78.25 65.61 74.28 65.37 70.21 63.37 68.09 60.65 66.91 56.38 65.63 52.16 64.19 46.69 61.52 41.78 57.9 37.38 61.24 32.47 63.79 28.5 65.25 24.45 66.45 21.66 67.4 19.17 68.91 17.93 71.38 18.06 74.17" fill="none" stroke="#aaa" stroke-miterlimit="10" stroke-width=".5"/>
  <polyline points="41.65 82.62 44.83 84.38 48.52 84.69 53.37 84.24 58.15 83.29 61.57 82.4 64.94 81.35 64.81 81.31 63.32 81.8 64.27 78.2 63.9 74.55 61.94 72.6 59.36 71.51 55.36 70.32 51.39 69.01 46.31 66.62 41.72 63.38 37.6 66.37 33.05 68.64 29.33 69.97 25.54 71.08 22.9 71.95 20.51 73.34 19.26 75.54 19.27 78.1" fill="none" stroke="#aaa" stroke-miterlimit="10" stroke-width=".5"/>
  <polyline points="41.68 86.7 44.68 88.17 48.07 88.37 52.61 87.92 57.08 87.04 60.35 86.2 63.56 85.2 63.7 84.98 62.35 85.35 63.12 82.11 62.63 78.86 60.7 77.08 58.24 76.07 54.49 74.98 50.76 73.79 46.04 71.67 41.74 68.8 37.89 71.44 33.68 73.45 30.18 74.65 26.64 75.67 24.13 76.48 21.83 77.76 20.58 79.7 20.48 82.03" fill="none" stroke="#aaa" stroke-miterlimit="10" stroke-width=".5"/>
  <polyline points="41.64 90.97 44.53 92.11 47.69 92.2 52 91.73 56.26 90.89 59.44 90.08 62.55 89.1 63.01 88.68 61.76 88.91 62.35 85.98 61.72 83.11 59.79 81.47 57.4 80.52 53.81 79.5 50.24 78.41 45.8 76.55 41.7 74.04 38.03 76.36 34.06 78.11 30.72 79.2 27.34 80.14 24.91 80.92 22.67 82.11 21.4 83.84 21.18 85.98" fill="none" stroke="#aaa" stroke-miterlimit="10" stroke-width=".5"/>
  <polyline points="41.64 95.55 44.53 96.33 47.55 96.29 51.8 95.76 56 94.94 59.2 94.13 62.33 93.12 63.18 92.47 61.93 92.46 62.37 89.79 61.57 87.26 59.54 85.7 57.13 84.79 53.58 83.8 50.03 82.78 45.73 81.16 41.69 78.97 38.05 81 34.19 82.53 30.86 83.54 27.51 84.44 25.06 85.21 22.79 86.36 21.47 87.95 21.15 89.99" fill="none" stroke="#aaa" stroke-miterlimit="10" stroke-width=".5"/>
  <polyline points="41.69 100.53 44.68 100.9 47.71 100.7 52.05 100.09 56.35 99.23 59.68 98.39 62.94 97.28 64.01 96.5 62.83 96.02 63.2 93.54 62.26 91.25 60.05 89.73 57.5 88.8 53.82 87.81 50.13 86.83 45.83 85.4 41.72 83.5 37.97 85.28 34.05 86.63 30.56 87.59 27.06 88.5 24.48 89.31 22.07 90.52 20.72 92.08 20.4 94.12" fill="none" stroke="#aaa" stroke-miterlimit="10" stroke-width=".5"/>
  <polyline points="41.72 105.89 44.91 105.8 48.1 105.43 52.7 104.69 57.26 103.75 60.83 102.84 64.29 101.57 65.47 100.52 64.27 99.57 64.68 97.23 63.64 95.12 61.17 93.56 58.4 92.58 54.44 91.54 50.46 90.56 46.03 89.29 41.73 87.65 37.68 89.22 33.51 90.44 29.67 91.4 25.84 92.38 23.03 93.28 20.43 94.64 19.1 96.31 19.02 98.43" fill="none" stroke="#aaa" stroke-miterlimit="10" stroke-width=".5"/>
  <polyline points="41.72 111.47 46.23 110.97 50.74 110.33 55.64 109.48 60.49 108.41 63.84 107.43 66.99 105.94 67.71 104.34 66.27 103.12 66.68 100.86 65.48 98.9 62.65 97.28 59.56 96.23 55.22 95.12 50.86 94.12 46.25 92.97 41.72 91.57 37.23 92.98 32.67 94.11 28.3 95.12 23.96 96.22 20.87 97.27 18.05 98.89 16.89 100.85 17.37 103.09" fill="none" stroke="#aaa" stroke-miterlimit="10" stroke-width=".5"/>
  <polyline points="41.78 117.03 47.1 116.12 52.42 115.22 57.67 114.25 62.87 113.07 66.29 112 69.42 110.31 69.93 108.27 68.33 106.68 68.71 104.48 67.33 102.69 64.13 101.02 60.68 99.89 55.96 98.71 51.21 97.68 46.48 96.67 41.78 95.52 37.11 96.67 32.41 97.68 27.65 98.71 22.93 99.89 19.48 101.01 16.29 102.69 14.95 104.51 15.44 106.68 15.25 106.8 15.08 106.92 14.91 107.05 14.75 107.17 14.6 107.29 14.47 107.41 14.34 107.53 14.22 107.65" fill="none" stroke="#aaa" stroke-miterlimit="10" stroke-width=".5"/>
  <polyline points="41.84 122.36 47.67 121.05 53.53 119.91 59.04 118.84 64.51 117.57 68.01 116.45 71.15 114.59 71.54 112.19 69.83 110.23 70.13 108.15 68.61 106.57 65.06 104.88 61.29 103.69 56.29 102.48 51.24 101.45 46.54 100.57 41.84 99.7 37.17 100.58 32.5 101.45 27.45 102.48 22.44 103.69 18.68 104.87 15.13 106.57 13.65 108.17 14.07 110.23 13.75 110.49 13.43 110.76 13.17 111.01 12.92 111.27 12.72 111.51 12.52 111.76 12.37 111.99 12.24 112.23" fill="none" stroke="#aaa" stroke-miterlimit="10" stroke-width=".5"/>
  <polyline points="41.87 127.3 47.94 125.65 54.08 124.3 59.66 123.15 65.2 121.84 68.68 120.69 71.73 118.74 71.96 116.03 70.14 113.79 70.38 111.91 68.79 110.58 64.98 108.93 60.99 107.73 55.86 106.52 50.69 105.52 46.29 104.82 41.87 104.26 37.48 104.82 33.11 105.52 27.93 106.52 22.8 107.73 18.82 108.93 15.01 110.58 13.46 111.93 13.82 113.79 13.38 114.19 12.97 114.6 12.64 114.98 12.33 115.37 12.09 115.72 11.88 116.09 11.74 116.42 11.63 116.76" fill="none" stroke="#aaa" stroke-miterlimit="10" stroke-width=".5"/>
  <polyline points="41.89 131.86 47.92 129.89 54.07 128.37 59.51 127.18 64.92 125.87 68.22 124.75 71.02 122.74 70.91 119.77 68.94 117.34 69.19 115.78 67.59 114.73 63.52 113.18 59.32 112 54.23 110.85 49.1 109.91 45.5 109.41 41.89 109.21 38.3 109.41 34.73 109.91 29.59 110.85 24.5 112 20.31 113.18 16.25 114.73 14.67 115.81 15.06 117.34 14.5 117.89 13.96 118.46 13.55 118.96 13.18 119.49 12.91 119.94 12.69 120.42 12.55 120.83 12.47 121.26" fill="none" stroke="#aaa" stroke-miterlimit="10" stroke-width=".5"/>
  <polyline points="41.88 136.13 47.6 133.87 53.52 132.2 58.68 130.99 63.8 129.73 66.87 128.65 69.36 126.65 68.95 123.49 66.86 120.89 67.59 119.87 66.24 118.98 62.46 117.55 58.58 116.45 53.72 115.36 48.81 114.54 45.33 114.21 41.86 114.45 38.43 114.21 34.98 114.54 30.07 115.36 25.21 116.45 21.33 117.55 17.58 118.98 16.24 119.91 17.11 120.89 16.46 121.56 15.84 122.26 15.37 122.85 14.95 123.47 14.65 124 14.41 124.55 14.28 125.02 14.21 125.51" fill="none" stroke="#aaa" stroke-miterlimit="10" stroke-width=".5"/>
  <polyline points="41.86 140.21 47.18 137.7 52.77 135.88 57.53 134.68 62.27 133.47 65.04 132.45 67.16 130.49 66.41 127.18 64.22 124.45 65.55 124.15 64.49 123.3 61.09 122.02 57.6 121.02 53.04 120 48.42 119.31 45.08 119.17 41.84 119.88 38.64 119.17 35.33 119.31 30.71 120 26.15 121.02 22.67 122.01 19.29 123.3 18.32 124.2 19.72 124.45 19 125.22 18.31 126.02 17.79 126.69 17.31 127.39 16.99 127.97 16.72 128.58 16.57 129.08 16.5 129.6" fill="none" stroke="#aaa" stroke-miterlimit="10" stroke-width=".5"/>
  <polyline points="41.85 144.24 46.71 141.48 51.94 139.52 56.27 138.33 60.59 137.18 63.04 136.22 64.74 134.32 63.62 130.88 61.3 128 62.68 128.19 62.57 127.63 59.59 126.51 56.53 125.61 52.3 124.67 48 124.13 44.78 124.19 41.82 125.35 38.9 124.19 35.71 124.13 31.42 124.67 27.19 125.61 24.14 126.5 21.18 127.63 21.18 128.19 22.6 128 21.83 128.84 21.1 129.7 20.53 130.42 20.01 131.16 19.64 131.78 19.32 132.41 19.13 132.94 19.01 133.48" fill="none" stroke="#aaa" stroke-miterlimit="10" stroke-width=".5"/>
  <polyline points="41.83 148.36 46.27 145.36 51.18 143.23 55.11 142.04 59.04 140.95 61.19 140.03 62.44 138.17 60.92 134.6 58.42 131.55 59.93 131.99 60.74 131.94 58.17 130.95 55.53 130.16 51.61 129.29 47.62 128.88 44.46 129.17 41.79 130.75 39.16 129.16 36.05 128.88 32.06 129.29 28.14 130.16 25.51 130.95 22.96 131.94 23.87 131.99 25.43 131.55 24.64 132.42 23.88 133.3 23.28 134.04 22.71 134.8 22.29 135.43 21.9 136.08 21.64 136.61 21.43 137.16" fill="none" stroke="#aaa" stroke-miterlimit="10" stroke-width=".5"/>
  <polyline points="41.8 152.66 45.89 149.42 50.57 147.09 54.17 145.9 57.79 144.83 59.7 143.92 60.52 142.09 58.55 138.36 55.8 135.11 57.61 135.78 59.2 136.18 57.01 135.29 54.76 134.59 51.08 133.77 47.32 133.47 44.18 133.99 41.75 135.95 39.37 133.99 36.27 133.47 32.52 133.77 28.84 134.59 26.6 135.29 24.42 136.18 26.1 135.78 27.98 135.11 27.18 135.98 26.39 136.86 25.76 137.61 25.14 138.37 24.66 139.01 24.21 139.66 23.87 140.2 23.57 140.76" fill="none" stroke="#aaa" stroke-miterlimit="10" stroke-width=".5"/>
  <polyline points="41.75 157.17 45.55 153.66 50.06 151.12 53.42 149.89 56.82 148.83 58.53 147.89 58.93 146.08 56.43 142.15 53.3 138.66 55.61 139.61 57.94 140.34 56.11 139.52 54.21 138.89 50.7 138.11 47.12 137.9 43.96 138.66 41.7 140.95 39.5 138.66 36.37 137.9 32.79 138.11 29.29 138.89 27.39 139.52 25.59 140.34 27.98 139.61 30.36 138.66 29.53 139.53 28.71 140.41 28.02 141.17 27.35 141.93 26.81 142.58 26.28 143.24 25.86 143.79 25.47 144.36" fill="none" stroke="#aaa" stroke-miterlimit="10" stroke-width=".5"/>
  <polyline points="41.85 161.81 45.43 158.04 49.82 155.26 52.94 154 56.09 152.91 57.53 151.85 57.24 150.12 53.74 145.99 49.83 142.21 53.12 143.5 56.5 144.46 55.3 143.66 53.82 143.12 50.52 142.34 47.14 142.22 43.92 143.23 41.79 145.81 39.73 143.23 36.56 142.22 33.17 142.34 29.88 143.12 28.4 143.66 27.22 144.46 30.66 143.51 34.02 142.21 33.09 143.07 32.17 143.94 31.37 144.69 30.59 145.45 29.92 146.1 29.27 146.76 28.73 147.33 28.2 147.9" fill="none" stroke="#aaa" stroke-miterlimit="10" stroke-width=".5"/>
  <polyline points="41.85 166.53 45.3 162.49 49.65 159.46 52.66 158.15 55.72 157.04 57.04 155.89 56.56 154.19 52.8 149.82 48.69 145.77 52.38 147.33 56.17 148.55 55.2 147.82 53.81 147.3 50.53 146.53 47.16 146.48 43.84 147.74 41.79 150.61 39.8 147.74 36.53 146.48 33.17 146.53 29.89 147.3 28.49 147.82 27.54 148.55 31.4 147.33 35.15 145.77 34.24 146.64 33.33 147.51 32.54 148.27 31.75 149.04 31.08 149.71 30.41 150.39 29.85 150.97 29.29 151.56" fill="none" stroke="#aaa" stroke-miterlimit="10" stroke-width=".5"/>
  <polyline points="41.84 171.28 45.2 166.97 49.54 163.68 52.51 162.32 55.55 161.2 56.88 160.01 56.42 158.26 52.73 153.65 48.68 149.32 52.43 151.12 56.29 152.63 55.3 151.97 53.91 151.45 50.59 150.7 47.19 150.72 43.78 152.22 41.78 155.37 39.85 152.22 36.47 150.72 33.08 150.7 29.76 151.45 28.37 151.97 27.4 152.63 31.33 151.12 35.14 149.32 34.28 150.21 33.43 151.1 32.68 151.89 31.93 152.68 31.29 153.37 30.65 154.06 30.1 154.67 29.57 155.28" fill="none" stroke="#aaa" stroke-miterlimit="10" stroke-width=".5"/>
  <polyline points="41.79 176.06 45.07 171.48 49.43 167.93 52.37 166.51 55.41 165.37 56.74 164.14 56.29 162.35 52.65 157.47 48.64 152.88 52.41 154.91 56.28 156.7 55.28 156.1 53.9 155.59 50.56 154.84 47.15 154.92 43.66 156.68 41.71 160.09 39.85 156.68 36.4 154.92 32.99 154.84 29.66 155.59 28.28 156.1 27.29 156.7 31.24 154.91 35.06 152.88 34.25 153.79 33.43 154.7 32.71 155.5 32 156.32 31.38 157.03 30.76 157.75 30.23 158.38 29.71 159.01" fill="none" stroke="#aaa" stroke-miterlimit="10" stroke-width=".5"/>
  <polyline points="41.8 180.9 45.04 176.05 49.44 172.23 52.38 170.75 55.45 169.57 56.8 168.3 56.36 166.46 52.73 161.31 48.73 156.43 52.54 158.69 56.45 160.75 55.43 160.2 54.04 159.69 50.66 158.94 47.22 159.08 43.63 161.09 41.72 164.76 39.89 161.09 36.35 159.08 32.91 158.95 29.54 159.69 28.16 160.2 27.15 160.75 31.13 158.69 35 156.43 34.22 157.36 33.44 158.29 32.74 159.12 32.05 159.96 31.45 160.69 30.85 161.43 30.33 162.08 29.81 162.74" fill="none" stroke="#aaa" stroke-miterlimit="10" stroke-width=".5"/>
  <polyline points="41.81 185.86 45.08 180.71 49.59 176.63 52.58 175.07 55.71 173.85 57.1 172.53 56.65 170.61 52.97 165.17 48.9 159.99 52.81 162.46 56.82 164.76 55.77 164.24 54.35 163.72 50.89 162.96 47.36 163.14 43.65 165.38 41.73 169.31 39.89 165.38 36.22 163.14 32.7 162.96 29.25 163.72 27.84 164.24 26.8 164.76 30.87 162.46 34.84 159.99 34.07 160.95 33.29 161.91 32.6 162.77 31.92 163.63 31.32 164.4 30.72 165.17 30.2 165.85 29.68 166.53" fill="none" stroke="#aaa" stroke-miterlimit="10" stroke-width=".5"/>
  <polyline points="41.81 191.01 45.21 185.54 49.93 181.18 53.04 179.53 56.32 178.25 57.78 176.85 57.31 174.83 53.47 169.05 49.23 163.54 53.33 166.2 57.52 168.7 56.42 168.17 54.94 167.63 51.32 166.84 47.63 167.05 43.72 169.48 41.73 173.67 39.82 169.48 35.97 167.05 32.28 166.84 28.67 167.63 27.19 168.17 26.1 168.7 30.37 166.2 34.52 163.54 33.73 164.55 32.93 165.55 32.22 166.45 31.52 167.36 30.9 168.16 30.28 168.97 29.74 169.69 29.21 170.4" fill="none" stroke="#aaa" stroke-miterlimit="10" stroke-width=".5"/>
  <polyline points="41.81 196.36 45.45 190.53 50.48 185.89 53.81 184.14 57.31 182.77 58.87 181.28 58.37 179.12 54.26 172.96 49.73 167.09 54.1 169.92 58.59 172.56 57.41 172 55.83 171.42 51.96 170.57 48.02 170.79 43.86 173.37 41.73 177.82 39.68 173.37 35.57 170.79 31.63 170.57 27.77 171.42 26.19 172 25.03 172.56 29.58 169.92 34.02 167.09 33.17 168.16 32.33 169.22 31.58 170.18 30.83 171.14 30.17 171.99 29.51 172.85 28.94 173.61 28.37 174.37" fill="none" stroke="#aaa" stroke-miterlimit="10" stroke-width=".5"/>
  <polyline points="41.8 201.82 45.74 195.62 51.16 190.7 54.75 188.83 58.53 187.36 60.2 185.76 59.66 183.45 55.22 176.89 50.33 170.65 55.04 173.62 59.87 176.39 58.6 175.76 56.9 175.13 52.73 174.22 48.49 174.44 44.03 177.14 41.72 181.87 39.5 177.14 35.08 174.44 30.85 174.22 26.69 175.13 24.99 175.76 23.74 176.39 28.64 173.63 33.41 170.65 32.5 171.78 31.59 172.91 30.77 173.93 29.97 174.95 29.25 175.85 28.55 176.76 27.93 177.57 27.32 178.38" fill="none" stroke="#aaa" stroke-miterlimit="10" stroke-width=".5"/>
  <polyline points="41.79 207.27 46.02 200.7 51.82 195.49 55.67 193.5 59.72 191.93 61.51 190.24 60.93 187.77 56.17 180.82 50.91 174.2 55.95 177.33 61.12 180.22 59.77 179.54 57.94 178.86 53.49 177.89 48.95 178.1 44.19 180.93 41.72 185.93 39.32 180.93 34.61 178.1 30.07 177.89 25.63 178.86 23.8 179.54 22.47 180.22 27.71 177.33 32.81 174.2 31.84 175.39 30.87 176.59 30 177.66 29.14 178.73 28.38 179.69 27.62 180.65 26.96 181.51 26.3 182.36" fill="none" stroke="#aaa" stroke-miterlimit="10" stroke-width=".5"/>
  <polyline points="41.79 212.56 46.23 205.64 52.33 200.16 56.38 198.06 60.63 196.42 62.52 194.63 61.91 192.04 56.9 184.72 51.38 177.75 56.68 181.06 62.12 184.11 60.7 183.4 58.78 182.69 54.1 181.66 49.32 181.89 44.31 184.87 41.72 190.14 39.2 184.88 34.24 181.89 29.47 181.66 24.79 182.69 22.88 183.4 21.47 184.11 26.98 181.06 32.34 177.75 31.33 179 30.32 180.24 29.42 181.36 28.52 182.48 27.73 183.48 26.94 184.48 26.25 185.37 25.57 186.27" fill="none" stroke="#aaa" stroke-miterlimit="10" stroke-width=".5"/>
</svg>