<?xml version="1.0" encoding="UTF-8"?>
<svg id="Ebene_1" xmlns="http://www.w3.org/2000/svg" width="222" height="222" viewBox="0 0 222 222">
  <polyline points="73.04 49.44 76.56 52.78 80.08 56.13 89.49 44.35 98.89 32.58 98.95 32.55 99.01 32.55 99.06 32.59 99.08 32.65 99.08 36.84 99.08 41.04 104.1 40.27 109.12 39.51 109.12 25.76 109.12 12.02 104.43 9.67 99.74 7.32 87.23 9.24 74.72 11.15 74.73 16.69 74.74 22.23 79.41 24.57 84.08 26.9 87.93 26.31 91.78 25.72 91.84 25.73 91.89 25.77 91.9 25.83 91.88 25.89 82.46 37.67 73.04 49.44" fill="none" stroke="#aaa" stroke-miterlimit="10" stroke-width=".5"/>
  <polyline points="80.09 56.38 80.05 56.37 80.02 56.35 76.42 52.94 72.83 49.53 72.8 49.46 72.82 49.39 82.18 37.68 91.55 25.97 87.81 26.54 84.07 27.11 84.04 27.11 84.01 27.1 79.3 24.74 74.59 22.39 74.54 22.35 74.53 22.29 74.52 16.68 74.51 11.06 74.53 11 74.6 10.96 87.17 9.04 99.74 7.11 99.77 7.11 99.8 7.12 104.53 9.49 109.27 11.86 109.31 11.9 109.32 11.95 109.32 25.78 109.32 39.6 109.3 39.67 109.24 39.7 104.11 40.48 98.99 41.26 98.95 41.26 98.91 41.24 98.88 41.2 98.87 41.16 98.87 37.05 98.87 32.94 89.52 44.64 80.17 56.34 80.14 56.37 80.1 56.38 80.1 56.38 80.09 56.38" fill="none" stroke="#aaa" stroke-miterlimit="10" stroke-width=".5"/>
  <polyline points="72.9 49.56 72.88 49.56 72.85 49.55 68.12 47.18 63.39 44.81 63.35 44.78 63.33 44.74 63.33 44.7 63.35 44.65 71.36 34.65 79.38 24.64 79.45 24.6 79.52 24.63 79.56 24.7 79.54 24.77 71.57 34.73 63.59 44.68 68.27 47.02 72.95 49.36 73 49.42 72.99 49.5 72.95 49.54 72.9 49.56" fill="none" stroke="#aaa" stroke-miterlimit="10" stroke-width=".5"/>
  <polyline points="84.06 27.11 83.98 27.08 83.95 27.01 83.95 21.4 83.95 15.8 83.98 15.73 84.04 15.7 96.62 13.77 109.21 11.85 109.28 11.87 109.32 11.94 109.3 12.01 109.24 12.05 96.7 13.97 84.16 15.89 84.16 21.45 84.16 27.01 84.13 27.08 84.06 27.11" fill="none" stroke="#aaa" stroke-miterlimit="10" stroke-width=".5"/>
  <polyline points="84.06 15.9 84.03 15.9 84.01 15.89 79.29 13.52 74.57 11.16 74.51 11.1 74.52 11.02 74.58 10.97 74.66 10.97 79.38 13.34 84.1 15.71 84.16 15.77 84.15 15.85 84.11 15.89 84.06 15.9" fill="none" stroke="#aaa" stroke-miterlimit="10" stroke-width=".5"/>
  <polyline points="98.98 41.26 98.95 41.26 98.93 41.25 96.5 40.04 94.07 38.82 94.02 38.76 94.02 38.68 94.08 38.63 94.16 38.64 96.59 39.85 99.02 41.07 99.07 41.13 99.07 41.21 99.03 41.25 98.98 41.26" fill="none" stroke="#aaa" stroke-miterlimit="10" stroke-width=".5"/>
  <polyline points="80.09 56.38 80.07 56.38 80.05 56.37 75.31 54 70.58 51.64 70.57 51.63 70.55 51.62 66.96 48.21 63.36 44.79 63.33 44.72 63.36 44.65 63.43 44.62 63.5 44.64 67.09 48.05 70.69 51.46 75.41 53.82 80.14 56.19 80.19 56.25 80.19 56.32 80.15 56.37 80.09 56.38" fill="none" stroke="#aaa" stroke-miterlimit="10" stroke-width=".5"/>
</svg>