<?xml version="1.0" encoding="UTF-8"?>
<svg id="Ebene_1" xmlns="http://www.w3.org/2000/svg" width="222" height="222" viewBox="0 0 222 222">
  <polyline points="217.84 1.15 223.43 5.92 228.73 10.99 232.34 14.89 235.75 18.95 238.16 22.05 240.57 25.14 242.59 27.52 244.86 29.67 247.44 31.41 250.29 32.66 254.36 33.68 258.53 34.21 264.89 34.49 271.26 34.43 280.71 34.03 290.15 33.44 287.52 34.01 284.87 34.41 283.63 34.47 282.43 34.24 282.08 33.72 282.23 33.09 282.88 32.05 283.67 31.1 284.9 29.76 286.16 28.44 287.65 26.86 289.1 25.25 290.55 23.51 291.9 21.69 293.03 19.86 293.95 17.92" fill="none" stroke="#aaa" stroke-miterlimit="10" stroke-width=".5"/>
  <polyline points="213.44 1.15 218.81 5.89 223.9 10.93 227.39 14.82 230.68 18.86 233.04 21.96 235.4 25.05 237.4 27.45 239.64 29.63 242.19 31.41 245.02 32.72 249.02 33.82 253.13 34.43 259.35 34.84 265.58 34.9 274.78 34.67 283.97 34.23 281.47 34.7 278.97 34.98 277.8 34.97 276.71 34.63 276.43 34.01 276.62 33.33 277.31 32.23 278.12 31.22 279.36 29.84 280.63 28.47 282.11 26.86 283.55 25.22 284.99 23.46 286.33 21.62 287.45 19.77 288.36 17.82" fill="none" stroke="#aaa" stroke-miterlimit="10" stroke-width=".5"/>
  <polyline points="209.62 1.15 214.79 5.77 219.68 10.67 223.05 14.45 226.22 18.39 228.51 21.41 230.78 24.42 232.73 26.76 234.9 28.89 237.38 30.64 240.13 31.93 244 33.02 247.99 33.64 254 34.06 260.03 34.15 268.91 33.96 277.79 33.58 275.39 34 272.98 34.25 271.87 34.22 270.84 33.86 270.59 33.21 270.8 32.53 271.49 31.44 272.3 30.43 273.52 29.06 274.77 27.7 276.22 26.11 277.64 24.49 279.03 22.76 280.33 20.94 281.41 19.13 282.27 17.21" fill="none" stroke="#aaa" stroke-miterlimit="10" stroke-width=".5"/>
  <polyline points="206.42 1.15 211.41 5.52 216.14 10.18 219.38 13.75 222.43 17.48 224.61 20.33 226.78 23.18 228.63 25.38 230.69 27.38 233.03 29.01 235.63 30.19 239.32 31.17 243.11 31.71 248.85 32.04 254.61 32.06 263.11 31.79 271.61 31.34 269.26 31.8 266.88 32.1 265.8 32.11 264.78 31.81 264.54 31.23 264.73 30.61 265.4 29.58 266.18 28.63 267.36 27.33 268.56 26.05 269.95 24.53 271.3 22.98 272.63 21.33 273.84 19.6 274.84 17.87 275.62 16.03" fill="none" stroke="#aaa" stroke-miterlimit="10" stroke-width=".5"/>
  <polyline points="203.82 1.15 208.66 5.17 213.25 9.46 216.36 12.73 219.28 16.16 221.34 18.75 223.38 21.34 225.08 23.32 226.98 25.1 229.14 26.51 231.54 27.5 234.98 28.28 238.5 28.64 243.91 28.75 249.32 28.59 257.38 28.1 265.44 27.45 263.07 28.03 260.69 28.5 259.61 28.61 258.54 28.48 258.26 28.05 258.42 27.54 259.05 26.66 259.77 25.84 260.88 24.67 262.01 23.51 263.32 22.14 264.58 20.72 265.79 19.2 266.89 17.6 267.76 16 268.39 14.3" fill="none" stroke="#aaa" stroke-miterlimit="10" stroke-width=".5"/>
  <polyline points="201.7 1.15 206.39 4.72 210.86 8.56 213.84 11.45 216.63 14.5 218.54 16.75 220.43 19.01 221.95 20.68 223.66 22.15 225.6 23.26 227.74 23.95 230.89 24.39 234.09 24.46 239.11 24.21 244.12 23.73 251.7 22.82 259.26 21.8 256.83 22.62 254.39 23.39 253.28 23.7 252.14 23.88 251.81 23.76 251.91 23.42 252.49 22.76 253.12 22.15 254.16 21.2 255.19 20.24 256.39 19.06 257.53 17.83 258.6 16.51 259.55 15.08 260.25 13.67 260.67 12.15" fill="none" stroke="#aaa" stroke-miterlimit="10" stroke-width=".5"/>
  <polyline points="199.83 1.15 204.39 4.22 208.76 7.55 211.59 10 214.26 12.6 216.01 14.43 217.74 16.27 219.06 17.51 220.56 18.52 222.28 19.14 224.12 19.35 226.97 19.16 229.8 18.7 234.41 17.7 238.99 16.57 246.04 14.75 253.08 12.91 250.54 14.31 248.05 15.76 246.82 16.52 245.64 17.34 245.36 17.58 245.26 17.84 245.8 17.67 246.3 17.42 247.24 16.86 248.15 16.24 249.22 15.4 250.22 14.47 251.13 13.44 251.89 12.29 252.39 11.11 252.57 9.85" fill="none" stroke="#aaa" stroke-miterlimit="10" stroke-width=".5"/>
  <polyline points="197.99 1.15 202.42 3.69 206.68 6.49 209.37 8.52 211.92 10.7 213.51 12.21 215.06 13.75 216.2 14.78 217.47 15.64 218.95 16.16 220.51 16.33 223.02 16.19 225.52 15.81 229.7 14.99 233.86 14.07 240.38 12.58 246.9 11.08 244.26 12.3 241.65 13.56 240.36 14.21 239.09 14.9 238.79 15.07 238.56 15.25 239.01 15.03 239.45 14.78 240.29 14.23 241.1 13.64 242.02 12.85 242.87 11.99 243.59 11.05 244.13 10 244.37 8.92 244.24 7.82" fill="none" stroke="#aaa" stroke-miterlimit="10" stroke-width=".5"/>
  <polyline points="195.93 1.15 200.21 3.2 204.37 5.49 206.92 7.12 209.34 8.91 210.79 10.13 212.18 11.4 213.15 12.24 214.21 12.94 215.45 13.38 216.75 13.52 218.95 13.42 221.14 13.13 224.92 12.48 228.69 11.75 234.71 10.56 240.73 9.37 238 10.43 235.29 11.5 233.92 12.05 232.57 12.6 232.23 12.74 231.91 12.83 232.27 12.59 232.63 12.34 233.36 11.83 234.06 11.28 234.84 10.57 235.54 9.79 236.07 8.95 236.38 8.02 236.35 7.03 235.93 6.13" fill="none" stroke="#aaa" stroke-miterlimit="10" stroke-width=".5"/>
  <polyline points="193.45 1.15 197.57 2.8 201.59 4.65 204 5.96 206.31 7.42 207.62 8.4 208.88 9.44 209.7 10.12 210.59 10.7 211.63 11.07 212.73 11.2 214.65 11.13 216.57 10.91 219.99 10.39 223.42 9.83 228.98 8.88 234.55 7.94 231.77 8.84 229.02 9.74 227.61 10.2 226.2 10.65 225.8 10.76 225.41 10.8 225.67 10.56 225.97 10.33 226.6 9.87 227.2 9.38 227.84 8.76 228.4 8.06 228.77 7.34 228.9 6.53 228.62 5.64 228.01 4.92" fill="none" stroke="#aaa" stroke-miterlimit="10" stroke-width=".5"/>
  <polyline points="190.37 1.15 194.32 2.51 198.19 4.06 200.46 5.13 202.65 6.35 203.86 7.16 205 8.04 205.72 8.61 206.48 9.1 207.37 9.41 208.32 9.52 210.04 9.47 211.75 9.3 214.89 8.89 218.03 8.43 223.2 7.66 228.37 6.89 225.62 7.66 222.89 8.44 221.47 8.83 220.05 9.21 219.61 9.3 219.19 9.31 219.37 9.08 219.62 8.88 220.15 8.47 220.68 8.03 221.22 7.49 221.68 6.88 221.94 6.24 221.95 5.55 221.51 4.75 220.81 4.16" fill="none" stroke="#aaa" stroke-miterlimit="10" stroke-width=".5"/>
  <polyline points="186.66 1.15 190.41 2.34 194.09 3.71 196.24 4.65 198.31 5.74 199.44 6.45 200.5 7.23 201.15 7.73 201.84 8.17 202.64 8.45 203.49 8.55 205.07 8.51 206.65 8.36 209.57 8 212.5 7.6 217.34 6.93 222.19 6.26 219.54 6.96 216.89 7.65 215.51 8 214.13 8.33 213.69 8.42 213.27 8.42 213.42 8.2 213.65 8.02 214.13 7.64 214.6 7.24 215.08 6.75 215.48 6.19 215.69 5.6 215.63 4.98 215.12 4.26 214.39 3.73" fill="none" stroke="#aaa" stroke-miterlimit="10" stroke-width=".5"/>
  <polyline points="182.36 1.15 185.9 2.3 189.36 3.6 191.4 4.5 193.35 5.54 194.41 6.22 195.43 6.96 196.05 7.44 196.7 7.86 197.47 8.13 198.29 8.22 199.79 8.19 201.3 8.04 204.06 7.7 206.84 7.31 211.43 6.66 216.02 6.02 213.51 6.69 211.01 7.35 209.72 7.69 208.43 8 208.03 8.08 207.65 8.08 207.82 7.87 208.04 7.69 208.51 7.32 208.97 6.93 209.43 6.46 209.81 5.93 210 5.36 209.93 4.77 209.42 4.07 208.7 3.57" fill="none" stroke="#aaa" stroke-miterlimit="10" stroke-width=".5"/>
  <polyline points="177.56 1.15 180.87 2.34 184.11 3.68 186.02 4.62 187.86 5.69 188.89 6.39 189.87 7.16 190.49 7.65 191.16 8.08 191.94 8.35 192.77 8.44 194.24 8.4 195.72 8.24 198.39 7.88 201.07 7.47 205.45 6.79 209.84 6.11 207.53 6.79 205.24 7.47 204.08 7.81 202.92 8.13 202.59 8.21 202.28 8.21 202.5 8 202.75 7.81 203.24 7.44 203.71 7.05 204.18 6.57 204.57 6.02 204.78 5.45 204.75 4.84 204.3 4.14 203.64 3.63" fill="none" stroke="#aaa" stroke-miterlimit="10" stroke-width=".5"/>
  <polyline points="172.41 1.15 175.48 2.46 178.46 3.92 180.27 4.95 181.99 6.1 183 6.88 183.96 7.7 184.61 8.24 185.31 8.69 186.14 8.98 187.01 9.08 188.5 9.02 190 8.84 192.61 8.42 195.23 7.96 199.44 7.21 203.66 6.45 201.6 7.16 199.54 7.89 198.54 8.24 197.54 8.6 197.3 8.67 197.1 8.69 197.38 8.48 197.68 8.28 198.2 7.89 198.71 7.47 199.22 6.97 199.65 6.4 199.91 5.8 199.95 5.15 199.62 4.43 199.05 3.86" fill="none" stroke="#aaa" stroke-miterlimit="10" stroke-width=".5"/>
  <polyline points="167.03 1.15 169.85 2.62 172.57 4.25 174.27 5.42 175.88 6.69 176.87 7.57 177.83 8.47 178.52 9.07 179.28 9.57 180.17 9.88 181.1 9.98 182.64 9.9 184.17 9.69 186.75 9.21 189.34 8.68 193.41 7.81 197.48 6.94 195.68 7.71 193.89 8.49 193.06 8.87 192.24 9.27 192.07 9.35 192.01 9.39 192.36 9.19 192.72 8.96 193.3 8.56 193.85 8.12 194.41 7.58 194.9 6.98 195.23 6.35 195.36 5.65 195.19 4.89 194.74 4.26" fill="none" stroke="#aaa" stroke-miterlimit="10" stroke-width=".5"/>
  <polyline points="161.56 1.15 164.13 2.81 166.59 4.61 168.18 5.94 169.68 7.35 170.65 8.34 171.61 9.33 172.35 10.01 173.17 10.56 174.13 10.89 175.14 11 176.73 10.9 178.3 10.65 180.87 10.1 183.43 9.49 187.36 8.5 191.31 7.5 189.77 8.32 188.26 9.17 187.59 9.58 186.96 10.02 186.83 10.15 186.94 10.18 187.36 9.99 187.77 9.76 188.4 9.35 188.99 8.89 189.61 8.33 190.16 7.7 190.57 7.03 190.82 6.29 190.82 5.51 190.53 4.79" fill="none" stroke="#aaa" stroke-miterlimit="10" stroke-width=".5"/>
  <polyline points="156.12 1.15 158.44 2.98 160.63 4.93 162.11 6.42 163.5 7.98 164.47 9.15 165.42 10.32 166.21 11.21 167.09 12 168.09 12.61 169.2 13.03 170.81 13.34 172.45 13.45 174.98 13.44 177.52 13.3 181.32 12.98 185.13 12.59 183.88 12.95 182.62 13.24 182.13 13.31 181.65 13.25 181.65 12.98 181.82 12.72 182.27 12.23 182.75 11.76 183.4 11.12 184.04 10.47 184.7 9.73 185.31 8.94 185.81 8.14 186.18 7.28 186.33 6.43 186.24 5.58" fill="none" stroke="#aaa" stroke-miterlimit="10" stroke-width=".5"/>
  <polyline points="150.78 1.15 152.84 3.13 154.79 5.21 156.15 6.83 157.43 8.51 158.38 9.82 159.33 11.12 160.16 12.15 161.09 13.1 162.15 13.89 163.32 14.49 164.95 15.03 166.64 15.36 169.13 15.64 171.64 15.77 175.29 15.81 178.95 15.76 177.95 15.88 176.96 15.87 176.54 15.76 176.28 15.44 176.37 14.99 176.61 14.57 177.09 13.93 177.6 13.33 178.27 12.57 178.94 11.81 179.64 10.97 180.29 10.1 180.86 9.23 181.33 8.29 181.62 7.4 181.73 6.47" fill="none" stroke="#aaa" stroke-miterlimit="10" stroke-width=".5"/>
  <polyline points="145.56 1.15 147.37 3.25 149.07 5.44 150.31 7.18 151.49 8.96 152.41 10.38 153.35 11.78 154.22 12.93 155.19 13.99 156.29 14.91 157.52 15.66 159.16 16.36 160.88 16.87 163.32 17.36 165.79 17.69 169.27 17.99 172.78 18.19 171.99 18.13 171.24 17.9 170.92 17.59 170.84 17.15 171.02 16.56 171.32 16.02 171.83 15.29 172.38 14.58 173.06 13.75 173.75 12.91 174.47 12.01 175.15 11.09 175.77 10.16 176.32 9.18 176.71 8.25 176.96 7.27" fill="none" stroke="#aaa" stroke-miterlimit="10" stroke-width=".5"/>
  <polyline points="140.41 1.15 141.96 3.37 143.43 5.64 144.54 7.49 145.62 9.34 146.52 10.87 147.45 12.36 148.34 13.61 149.35 14.77 150.49 15.8 151.77 16.68 153.42 17.51 155.15 18.16 157.53 18.82 159.94 19.32 163.26 19.84 166.6 20.25 165.98 20.04 165.48 19.63 165.31 19.15 165.35 18.63 165.61 17.94 165.97 17.29 166.52 16.48 167.1 15.7 167.8 14.8 168.51 13.91 169.24 12.96 169.95 11.99 170.61 11.02 171.2 10.01 171.67 9.04 172.02 8.03" fill="none" stroke="#aaa" stroke-miterlimit="10" stroke-width=".5"/>
  <polyline points="135.23 1.15 136.52 3.47 137.76 5.82 138.74 7.76 139.73 9.7 140.59 11.32 141.52 12.9 142.44 14.25 143.49 15.52 144.67 16.66 145.99 17.66 147.66 18.63 149.41 19.42 151.73 20.25 154.1 20.91 157.24 21.63 160.42 22.23 159.97 21.85 159.71 21.33 159.69 20.7 159.85 20.08 160.19 19.3 160.62 18.56 161.21 17.68 161.83 16.82 162.55 15.86 163.28 14.91 164.03 13.91 164.77 12.9 165.45 11.89 166.09 10.84 166.62 9.84 167.06 8.8" fill="none" stroke="#aaa" stroke-miterlimit="10" stroke-width=".5"/>
  <polyline points="129.9 1.15 130.92 3.52 131.92 5.9 132.77 7.92 133.67 9.93 134.5 11.66 135.43 13.34 136.4 14.83 137.49 16.23 138.74 17.53 140.12 18.69 141.81 19.83 143.6 20.81 145.88 21.83 148.22 22.7 151.21 23.63 154.24 24.44 153.99 23.87 153.95 23.24 154.09 22.49 154.36 21.76 154.8 20.88 155.31 20.04 155.95 19.08 156.63 18.13 157.38 17.11 158.14 16.1 158.93 15.04 159.69 13.97 160.41 12.91 161.1 11.82 161.68 10.78 162.2 9.69" fill="none" stroke="#aaa" stroke-miterlimit="10" stroke-width=".5"/>
  <polyline points="124.3 1.15 125.03 3.54 125.79 5.92 126.52 8.02 127.32 10.1 128.15 11.97 129.09 13.78 130.11 15.45 131.27 17.03 132.61 18.53 134.07 19.91 135.82 21.28 137.68 22.5 139.94 23.76 142.28 24.87 145.15 26.04 148.07 27.08 148.05 26.32 148.2 25.58 148.51 24.69 148.91 23.83 149.47 22.84 150.08 21.89 150.8 20.83 151.54 19.79 152.35 18.68 153.16 17.58 153.98 16.45 154.79 15.31 155.56 14.18 156.3 13.03 156.95 11.92 157.54 10.77" fill="none" stroke="#aaa" stroke-miterlimit="10" stroke-width=".5"/>
  <polyline points="118.46 1.15 118.89 3.45 119.4 5.73 120 7.89 120.72 10.01 121.55 12.03 122.51 14 123.61 15.91 124.86 17.72 126.3 19.51 127.87 21.18 129.7 22.86 131.65 24.39 133.92 25.95 136.29 27.37 139.05 28.81 141.89 30.12 142.12 29.19 142.45 28.3 142.95 27.27 143.5 26.27 144.19 25.16 144.91 24.07 145.73 22.9 146.56 21.74 147.44 20.54 148.32 19.33 149.2 18.11 150.07 16.88 150.9 15.67 151.7 14.43 152.41 13.24 153.07 12.02" fill="none" stroke="#aaa" stroke-miterlimit="10" stroke-width=".5"/>
  <polyline points="112.48 1.15 112.59 2.85 112.87 4.54 113.35 6.52 113.97 8.46 114.81 10.62 115.79 12.73 116.99 15 118.32 17.2 119.88 19.48 121.58 21.66 123.5 23.87 125.56 25.97 127.85 28.02 130.27 29.92 132.93 31.74 135.71 33.36 136.18 32.27 136.72 31.21 137.4 30.03 138.12 28.88 138.95 27.63 139.81 26.4 140.73 25.11 141.67 23.82 142.64 22.5 143.61 21.18 144.56 19.85 145.51 18.51 146.4 17.19 147.27 15.86 148.05 14.57 148.78 13.26" fill="none" stroke="#aaa" stroke-miterlimit="10" stroke-width=".5"/>
  <polyline points="106.47 1.17 106.25 2.72 106.31 4.29 106.65 6.31 107.19 8.29 108.04 10.63 109.04 12.92 110.34 15.45 111.77 17.92 113.45 20.52 115.27 23.04 117.3 25.58 119.46 28.02 121.79 30.39 124.24 32.61 126.82 34.67 129.53 36.55 130.23 35.31 130.98 34.09 131.84 32.77 132.73 31.47 133.71 30.09 134.7 28.72 135.74 27.31 136.78 25.9 137.84 24.47 138.89 23.03 139.93 21.6 140.94 20.16 141.9 18.74 142.84 17.31 143.68 15.94 144.49 14.53" fill="none" stroke="#aaa" stroke-miterlimit="10" stroke-width=".5"/>
  <polyline points="100.56 1.18 100 2.81 99.84 4.53 100.04 6.7 100.52 8.83 101.35 11.36 102.39 13.81 103.76 16.55 105.29 19.2 107.09 21.99 109.02 24.7 111.15 27.42 113.4 30.04 115.76 32.55 118.24 34.93 120.73 37.1 123.36 39.11 124.28 37.76 125.22 36.42 126.26 35 127.31 33.59 128.43 32.12 129.55 30.66 130.7 29.16 131.85 27.65 133 26.13 134.14 24.61 135.25 23.1 136.33 21.57 137.36 20.08 138.36 18.57 139.26 17.11 140.13 15.63" fill="none" stroke="#aaa" stroke-miterlimit="10" stroke-width=".5"/>
  <polyline points="94.85 1.19 93.97 2.87 93.6 4.73 93.64 7.03 94.06 9.3 94.88 11.98 95.94 14.58 97.38 17.48 98.98 20.29 100.88 23.25 102.9 26.11 105.11 28.98 107.43 31.75 109.8 34.37 112.28 36.89 114.67 39.12 117.18 41.24 118.3 39.79 119.44 38.36 120.64 36.85 121.85 35.35 123.1 33.79 124.34 32.24 125.6 30.66 126.85 29.08 128.08 27.49 129.29 25.89 130.46 24.3 131.61 22.7 132.7 21.15 133.75 19.57 134.7 18.05 135.62 16.51" fill="none" stroke="#aaa" stroke-miterlimit="10" stroke-width=".5"/>
  <polyline points="89.43 1.2 88.27 2.9 87.67 4.88 87.56 7.28 87.9 9.65 88.7 12.46 89.77 15.17 91.25 18.2 92.92 21.13 94.88 24.2 96.97 27.19 99.23 30.16 101.58 33.05 103.94 35.75 106.38 38.37 108.65 40.64 111 42.83 112.32 41.31 113.63 39.78 114.98 38.21 116.33 36.62 117.69 35.01 119.05 33.38 120.39 31.75 121.72 30.1 123.02 28.45 124.3 26.79 125.52 25.16 126.72 23.51 127.85 21.9 128.94 20.27 129.93 18.71 130.88 17.13" fill="none" stroke="#aaa" stroke-miterlimit="10" stroke-width=".5"/>
  <polyline points="84.3 1.2 82.87 2.91 82.05 4.98 81.8 7.43 82.06 9.88 82.81 12.77 83.88 15.55 85.39 18.66 87.09 21.67 89.1 24.82 91.23 27.89 93.5 30.92 95.86 33.89 98.17 36.63 100.54 39.32 102.66 41.61 104.82 43.85 106.31 42.27 107.79 40.68 109.27 39.05 110.75 37.41 112.21 35.75 113.66 34.07 115.08 32.39 116.48 30.69 117.83 29.01 119.16 27.31 120.42 25.65 121.65 23.96 122.8 22.33 123.92 20.67 124.94 19.08 125.91 17.47" fill="none" stroke="#aaa" stroke-miterlimit="10" stroke-width=".5"/>
  <polyline points="79.41 1.2 77.74 2.9 76.68 5.04 76.29 7.5 76.46 10 77.17 12.92 78.23 15.74 79.74 18.89 81.46 21.94 83.49 25.13 85.64 28.24 87.91 31.3 90.25 34.31 92.48 37.08 94.75 39.81 96.7 42.12 98.65 44.41 100.29 42.78 101.92 41.14 103.53 39.47 105.12 37.78 106.67 36.09 108.2 34.37 109.68 32.66 111.14 30.94 112.53 29.23 113.9 27.51 115.19 25.83 116.45 24.12 117.61 22.47 118.74 20.8 119.77 19.2 120.76 17.57" fill="none" stroke="#aaa" stroke-miterlimit="10" stroke-width=".5"/>
  <polyline points="74.68 1.21 72.78 2.88 71.49 5.06 70.96 7.52 71.05 10.04 71.7 12.99 72.74 15.82 74.25 18.99 75.97 22.04 78.01 25.25 80.16 28.38 82.4 31.45 84.7 34.48 86.85 37.26 89 40.02 90.76 42.31 92.47 44.64 94.27 42.98 96.05 41.29 97.77 39.59 99.47 37.87 101.11 36.15 102.71 34.4 104.25 32.68 105.76 30.93 107.19 29.21 108.58 27.47 109.89 25.77 111.16 24.06 112.34 22.4 113.48 20.72 114.51 19.12 115.51 17.49" fill="none" stroke="#aaa" stroke-miterlimit="10" stroke-width=".5"/>
  <polyline points="70.05 1.21 67.93 2.86 66.41 5.07 65.73 7.51 65.73 10.05 66.33 13 67.34 15.83 68.84 19 70.57 22.06 72.6 25.27 74.74 28.4 76.95 31.47 79.2 34.51 81.25 37.27 83.27 40.05 84.84 42.33 86.29 44.69 88.25 42.99 90.18 41.26 92.02 39.54 93.83 37.78 95.55 36.04 97.23 34.27 98.82 32.53 100.38 30.76 101.84 29.03 103.26 27.28 104.58 25.58 105.87 23.85 107.05 22.19 108.19 20.5 109.23 18.89 110.22 17.26" fill="none" stroke="#aaa" stroke-miterlimit="10" stroke-width=".5"/>
  <polyline points="65.45 1.21 63.12 2.84 61.37 5.07 60.56 7.49 60.46 10.05 61 12.99 61.98 15.82 63.47 18.99 65.19 22.04 67.22 25.24 69.35 28.37 71.52 31.43 73.72 34.48 75.67 37.22 77.55 40.01 78.93 42.28 80.11 44.64 82.3 42.89 84.44 41.09 86.45 39.34 88.43 37.55 90.27 35.81 92.08 34.03 93.76 32.3 95.4 30.54 96.91 28.84 98.38 27.1 99.73 25.43 101.04 23.73 102.23 22.09 103.38 20.43 104.41 18.84 105.4 17.22" fill="none" stroke="#aaa" stroke-miterlimit="10" stroke-width=".5"/>
  <polyline points="60.87 1.22 58.32 2.82 56.34 5.06 55.39 7.46 55.2 10.03 55.67 12.97 56.63 15.79 58.1 18.96 59.82 22 61.84 25.2 63.96 28.33 66.1 31.37 68.24 34.42 70.09 37.15 71.83 39.95 73.03 42.2 73.94 44.58 76.37 42.75 78.76 40.89 80.96 39.11 83.13 37.29 85.1 35.56 87.04 33.78 88.81 32.08 90.53 30.35 92.1 28.68 93.62 26.98 95 25.35 96.32 23.67 97.52 22.07 98.66 20.42 99.69 18.84 100.66 17.22" fill="none" stroke="#aaa" stroke-miterlimit="10" stroke-width=".5"/>
  <polyline points="56.29 1.22 53.53 2.8 51.31 5.06 50.22 7.43 49.93 10.02 50.35 12.95 51.28 15.77 52.74 18.93 54.45 21.97 56.47 25.16 58.57 28.28 60.68 31.32 62.76 34.37 64.51 37.08 66.11 39.89 67.13 42.14 67.76 44.51 70.42 42.63 73.05 40.71 75.42 38.91 77.75 37.07 79.85 35.33 81.9 33.55 83.74 31.87 85.53 30.14 87.13 28.5 88.69 26.81 90.08 25.19 91.41 23.53 92.61 21.93 93.75 20.29 94.78 18.69 95.74 17.05" fill="none" stroke="#aaa" stroke-miterlimit="10" stroke-width=".5"/>
  <polyline points="51.72 1.22 48.75 2.78 46.29 5.05 45.08 7.39 44.69 10 45.05 12.93 45.94 15.74 47.39 18.9 49.1 21.92 51.1 25.1 53.2 28.22 55.26 31.25 57.29 34.3 58.94 37 60.4 39.81 61.24 42.06 61.58 44.42 64.48 42.5 67.35 40.52 69.88 38.7 72.38 36.83 74.58 35.09 76.73 33.3 78.64 31.63 80.49 29.9 82.12 28.28 83.7 26.59 85.1 24.99 86.44 23.33 87.64 21.72 88.77 20.07 89.8 18.44 90.76 16.77" fill="none" stroke="#aaa" stroke-miterlimit="10" stroke-width=".5"/>
  <polyline points="47.2 1.22 44.02 2.76 41.33 5.04 39.99 7.34 39.49 9.97 39.79 12.88 40.65 15.68 42.09 18.82 43.78 21.84 45.78 25 47.85 28.11 49.87 31.11 51.83 34.16 53.39 36.84 54.69 39.65 55.35 41.91 55.4 44.25 58.54 42.28 61.64 40.25 64.33 38.42 66.98 36.52 69.28 34.79 71.54 32.99 73.49 31.33 75.39 29.61 77.05 28 78.64 26.32 80.05 24.72 81.38 23.06 82.58 21.45 83.7 19.78 84.73 18.12 85.7 16.42" fill="none" stroke="#aaa" stroke-miterlimit="10" stroke-width=".5"/>
  <polyline points="42.79 1.22 39.4 2.74 36.48 5 35.01 7.26 34.41 9.89 34.64 12.77 35.47 15.55 36.88 18.67 38.55 21.66 40.53 24.79 42.57 27.87 44.54 30.85 46.43 33.87 47.87 36.53 49.01 39.32 49.47 41.59 49.23 43.88 52.59 41.88 55.92 39.81 58.77 37.97 61.57 36.06 63.96 34.33 66.29 32.54 68.29 30.9 70.23 29.19 71.89 27.59 73.49 25.93 74.89 24.34 76.21 22.68 77.4 21.06 78.52 19.39 79.55 17.69 80.53 15.96" fill="none" stroke="#aaa" stroke-miterlimit="10" stroke-width=".5"/>
  <polyline points="38.55 1.23 34.97 2.71 31.83 4.94 30.24 7.14 29.52 9.75 29.68 12.58 30.46 15.32 31.83 18.39 33.48 21.32 35.41 24.4 37.41 27.44 39.31 30.35 41.1 33.33 42.41 35.94 43.37 38.69 43.61 40.97 43.05 43.18 46.64 41.16 50.19 39.08 53.18 37.24 56.11 35.33 58.57 33.63 60.98 31.85 63 30.24 64.95 28.55 66.61 26.99 68.19 25.34 69.57 23.77 70.87 22.13 72.05 20.51 73.15 18.83 74.19 17.11 75.19 15.35" fill="none" stroke="#aaa" stroke-miterlimit="10" stroke-width=".5"/>
  <polyline points="34.57 1.23 30.81 2.66 27.44 4.84 25.74 6.94 24.89 9.5 24.97 12.24 25.69 14.89 27.01 17.86 28.61 20.69 30.48 23.64 32.42 26.56 34.21 29.34 35.88 32.2 37.04 34.66 37.78 37.26 37.76 39.45 36.87 41.44 40.69 39.49 44.46 37.47 47.57 35.72 50.63 33.88 53.14 32.27 55.59 30.57 57.61 29.05 59.56 27.43 61.19 25.94 62.74 24.36 64.08 22.84 65.34 21.24 66.49 19.64 67.58 17.98 68.64 16.24 69.66 14.47" fill="none" stroke="#aaa" stroke-miterlimit="10" stroke-width=".5"/>
  <polyline points="30.88 1.23 26.95 2.59 23.37 4.69 21.56 6.66 20.57 9.14 20.56 11.74 21.21 14.27 22.46 17.09 23.98 19.76 25.77 22.54 27.6 25.29 29.27 27.87 30.79 30.54 31.76 32.79 32.25 35.19 31.91 37.23 30.69 38.91 34.72 37.09 38.71 35.2 41.92 33.58 45.08 31.88 47.61 30.4 50.08 28.82 52.07 27.42 53.98 25.91 55.56 24.52 57.05 23.03 58.34 21.58 59.54 20.05 60.67 18.48 61.73 16.86 62.83 15.1 63.89 13.33" fill="none" stroke="#aaa" stroke-miterlimit="10" stroke-width=".5"/>
  <polyline points="27.44 1.23 23.35 2.51 19.57 4.49 17.66 6.3 16.53 8.67 16.41 11.1 16.98 13.47 18.13 16.08 19.57 18.56 21.24 21.11 22.96 23.63 24.47 25.95 25.81 28.37 26.57 30.36 26.78 32.47 26.04 34.3 24.52 35.59 28.74 33.98 32.92 32.28 36.21 30.86 39.45 29.34 41.97 28.05 44.43 26.64 46.36 25.4 48.2 24.04 49.7 22.78 51.1 21.42 52.33 20.06 53.46 18.63 54.57 17.11 55.62 15.55 56.76 13.8 57.9 12.04" fill="none" stroke="#aaa" stroke-miterlimit="10" stroke-width=".5"/>
  <polyline points="24.16 1.23 19.93 2.41 15.95 4.26 13.95 5.9 12.66 8.13 12.43 10.34 12.9 12.53 13.96 14.91 15.29 17.15 16.84 19.42 18.42 21.67 19.75 23.68 20.9 25.79 21.44 27.45 21.34 29.18 20.11 30.69 18.34 31.54 22.74 30.21 27.12 28.8 30.46 27.64 33.76 26.37 36.25 25.31 38.67 24.13 40.52 23.09 42.28 21.92 43.68 20.81 44.98 19.6 46.13 18.36 47.2 17.05 48.29 15.59 49.34 14.11 50.58 12.37 51.83 10.64" fill="none" stroke="#aaa" stroke-miterlimit="10" stroke-width=".5"/>
  <polyline points="20.94 1.23 16.56 2.32 12.38 4.02 10.3 5.49 8.84 7.55 8.51 9.54 8.88 11.52 9.83 13.63 11.06 15.6 12.47 17.56 13.91 19.48 15.06 21.11 16.02 22.85 16.33 24.14 15.91 25.37 14.16 26.36 12.16 26.75 16.75 25.8 21.31 24.79 24.69 23.97 28.04 23.05 30.47 22.27 32.86 21.37 34.6 20.57 36.26 19.63 37.56 18.72 38.75 17.69 39.83 16.57 40.84 15.39 41.94 14.01 43.03 12.62 44.4 10.9 45.82 9.22" fill="none" stroke="#aaa" stroke-miterlimit="10" stroke-width=".5"/>
  <polyline points="17.64 1.23 13.1 2.23 8.73 3.78 6.58 5.09 4.95 6.98 4.51 8.71 4.79 10.48 5.63 12.29 6.76 13.95 8.04 15.52 9.36 17.05 10.31 18.2 11.1 19.45 11.16 20.3 10.47 20.8 8.23 20.96 5.98 20.76 10.74 20.4 15.48 19.99 18.89 19.64 22.29 19.2 24.65 18.81 26.99 18.29 28.62 17.79 30.19 17.14 31.38 16.46 32.48 15.63 33.51 14.68 34.47 13.66 35.6 12.38 36.74 11.1 38.28 9.45 39.89 7.85" fill="none" stroke="#aaa" stroke-miterlimit="10" stroke-width=".5"/>
  <polyline points="14.16 1.23 9.46 2.15 4.89 3.57 2.67 4.71 .86 6.4 .33 7.82 .52 9.32 1.27 10.71 2.31 11.9 3.45 12.88 4.69 13.74 5.37 14.13 6.1 14.42 5.61 13.93 4.99 13.52 2.43 12.04 -.19 10.64 4.74 11.48 9.66 12.34 13.1 12.94 16.54 13.52 18.84 13.87 21.15 14.13 22.66 14.2 24.17 14.12 25.26 13.87 26.29 13.43 27.28 12.77 28.2 12 29.4 10.91 30.6 9.8 32.35 8.25 34.16 6.76" fill="none" stroke="#aaa" stroke-miterlimit="10" stroke-width=".5"/>
  <polyline points="10.41 1.23 5.52 2.09 .75 3.42 -1.56 4.47 -3.52 6.07 -4.13 7.37 -4.02 8.8 -3.34 10.11 -2.37 11.22 -1.3 12.14 -.16 12.94 .4 13.28 .98 13.58 .23 13.14 -.55 12.74 -3.45 11.36 -6.37 10.04 -1.27 10.8 3.82 11.57 7.32 12.12 10.81 12.64 13.08 12.95 15.36 13.19 16.8 13.25 18.24 13.16 19.27 12.92 20.23 12.49 21.2 11.85 22.1 11.13 23.35 10.06 24.62 9.01 26.56 7.51 28.56 6.08" fill="none" stroke="#aaa" stroke-miterlimit="10" stroke-width=".5"/>
  <polyline points="6.36 1.23 1.28 2.05 -3.7 3.32 -6.12 4.32 -8.21 5.85 -8.89 7.07 -8.85 8.45 -8.21 9.71 -7.29 10.76 -6.28 11.64 -5.2 12.41 -4.72 12.72 -4.26 13.02 -5.21 12.62 -6.15 12.22 -9.34 10.91 -12.55 9.64 -7.26 10.33 -1.97 11.06 1.6 11.56 5.17 12.05 7.44 12.34 9.71 12.56 11.12 12.61 12.51 12.51 13.5 12.28 14.42 11.86 15.37 11.23 16.28 10.53 17.6 9.48 18.95 8.46 21.07 6.98 23.27 5.59" fill="none" stroke="#aaa" stroke-miterlimit="10" stroke-width=".5"/>
  <polyline points="2.07 1.23 -3.22 2.02 -8.42 3.26 -10.94 4.22 -13.17 5.71 -13.9 6.87 -13.92 8.23 -13.32 9.45 -12.42 10.47 -11.44 11.31 -10.4 12.06 -9.97 12.36 -9.62 12.66 -10.72 12.29 -11.81 11.89 -15.26 10.64 -18.73 9.41 -13.22 10.07 -7.73 10.76 -4.06 11.23 -.4 11.7 1.89 11.97 4.18 12.18 5.56 12.23 6.94 12.13 7.9 11.89 8.8 11.48 9.76 10.85 10.69 10.16 12.08 9.12 13.51 8.11 15.83 6.64 18.21 5.26" fill="none" stroke="#aaa" stroke-miterlimit="10" stroke-width=".5"/>
  <polyline points="-2.4 1.23 -7.91 2.01 -13.34 3.22 -15.96 4.17 -18.32 5.63 -19.1 6.75 -19.17 8.11 -18.58 9.3 -17.69 10.3 -16.73 11.12 -15.72 11.86 -15.31 12.15 -15.05 12.45 -16.29 12.11 -17.51 11.72 -21.2 10.51 -24.9 9.31 -19.18 9.94 -13.47 10.61 -9.69 11.07 -5.92 11.52 -3.59 11.78 -1.27 11.99 .12 12.03 1.49 11.92 2.44 11.68 3.33 11.27 4.31 10.64 5.26 9.95 6.73 8.9 8.26 7.9 10.75 6.41 13.32 5.04" fill="none" stroke="#aaa" stroke-miterlimit="10" stroke-width=".5"/>
  <polyline points="-6.98 1.23 -12.71 2.01 -18.36 3.21 -21.09 4.14 -23.57 5.6 -24.4 6.69 -24.51 8.05 -23.94 9.23 -23.06 10.22 -22.1 11.03 -21.1 11.77 -20.7 12.06 -20.53 12.36 -21.89 12.04 -23.23 11.64 -27.15 10.46 -31.08 9.28 -25.13 9.89 -19.19 10.55 -15.28 11 -11.4 11.45 -9.02 11.7 -6.65 11.9 -5.27 11.94 -3.89 11.83 -2.94 11.59 -2.05 11.17 -1.05 10.52 -.07 9.83 1.5 8.77 3.11 7.76 5.8 6.25 8.56 4.86" fill="none" stroke="#aaa" stroke-miterlimit="10" stroke-width=".5"/>
  <polyline points="-11.6 1.23 -17.56 2 -23.43 3.21 -26.28 4.13 -28.88 5.58 -29.75 6.66 -29.9 8.02 -29.33 9.2 -28.46 10.18 -27.51 10.99 -26.51 11.73 -26.12 12.02 -26.02 12.32 -27.5 12.01 -28.95 11.62 -33.1 10.45 -37.26 9.28 -31.07 9.89 -24.89 10.54 -20.87 10.98 -16.85 11.42 -14.43 11.67 -12.01 11.87 -10.62 11.9 -9.24 11.79 -8.28 11.54 -7.39 11.12 -6.37 10.46 -5.35 9.76 -3.69 8.67 -1.97 7.65 .91 6.12 3.88 4.71" fill="none" stroke="#aaa" stroke-miterlimit="10" stroke-width=".5"/>
</svg>