<?xml version="1.0" encoding="UTF-8"?>
<svg id="Ebene_1" xmlns="http://www.w3.org/2000/svg" width="222" height="222" viewBox="0 0 222 222">
  <polyline points="151.47 21.21 151.47 21.19 151.46 21.17 149.21 16.49 146.95 11.8 146.9 11.75 146.82 11.75 142.13 13.72 137.43 15.68 137.37 15.74 137.37 15.81 137.43 15.87 137.51 15.87 142.16 13.93 146.81 11.98 149.03 16.61 151.26 21.23 150.38 26.8 149.5 32.36 136.09 37.99 122.68 43.62 123.55 38.11 124.42 32.61 124.42 32.56 124.38 32.51 124.33 32.49 124.28 32.5 117.6 35.16 110.93 37.83 111.79 32.38 112.65 26.94 125.3 21.85 137.94 16.76 137.99 16.71 138 16.63 137.94 16.57 137.86 16.57 125.19 21.67 112.52 26.77 112.48 26.8 112.46 26.85 111.57 32.41 110.69 37.98 110.7 38.03 110.73 38.08 110.78 38.1 110.83 38.09 117.51 35.42 124.19 32.76 123.32 38.26 122.44 43.77 122.45 43.82 122.48 43.87 122.53 43.89 122.59 43.88 136.11 38.21 149.63 32.53 149.67 32.5 149.69 32.45 150.58 26.84 151.47 21.23 151.47 21.22 151.47 21.21" fill="none" stroke="#aaa" stroke-miterlimit="10" stroke-width=".5"/>
  <polyline points="122.65 43.79 122.65 43.76 122.64 43.74 120.52 39.34 118.41 34.95 118.35 34.89 118.27 34.9 118.22 34.96 118.22 35.04 120.34 39.43 122.45 43.83 122.51 43.88 122.59 43.88 122.63 43.84 122.65 43.79" fill="none" stroke="#aaa" stroke-miterlimit="10" stroke-width=".5"/>
  <polyline points="151.47 21.21 151.47 21.19 151.46 21.17 151.4 21.12 151.33 21.12 143.82 24.26 136.3 27.4 137.15 22.04 138 16.68 138 16.65 137.99 16.62 135.74 11.94 133.49 7.26 133.43 7.21 133.36 7.21 120.69 12.3 108.02 17.4 107.97 17.43 107.95 17.48 107.07 23.05 106.19 28.61 106.19 28.64 106.2 28.67 108.45 33.36 110.7 38.04 110.76 38.09 110.84 38.09 110.89 38.03 110.89 37.95 108.64 33.28 106.4 28.61 107.27 23.09 108.15 17.57 120.75 12.5 133.34 7.43 135.57 12.06 137.79 16.68 136.93 22.12 136.07 27.55 136.08 27.6 136.11 27.65 136.16 27.67 136.21 27.66 143.81 24.49 151.41 21.31 151.45 21.27 151.47 21.21" fill="none" stroke="#aaa" stroke-miterlimit="10" stroke-width=".5"/>
  <polyline points="112.66 26.86 112.66 26.84 112.65 26.82 110.4 22.14 108.15 17.45 108.09 17.4 108.01 17.4 107.96 17.46 107.96 17.54 110.21 22.23 112.47 26.91 112.52 26.96 112.6 26.96 112.65 26.92 112.66 26.86" fill="none" stroke="#aaa" stroke-miterlimit="10" stroke-width=".5"/>
</svg>