<?xml version="1.0" encoding="UTF-8"?>
<svg id="Ebene_1" xmlns="http://www.w3.org/2000/svg" width="222" height="222" viewBox="0 0 222 222">
  <polyline points="30.35 185.24 28.49 189.46 26.97 193.8 27.17 195.33 28.44 196.26 31.02 197.69 33.3 199.58 37.21 204.84 40.11 210.74 43.25 204.52 47.55 199.07 49.86 197.32 52.41 195.95 53.35 194.33 52.93 192.38 50.22 185.82 47.33 179.33 51.13 182.95 54.93 186.57 53.9 186.42 52.48 185.9 49.06 185.2 45.63 185.69 41.77 189.26 40.03 194.32" fill="none" stroke="#aaa" stroke-miterlimit="10" stroke-width=".5"/>
  <polyline points="29.34 181.89 27.35 185.87 25.77 190.01 26.07 191.58 27.42 192.5 30.2 193.95 32.7 195.84 36.88 200.84 40.05 206.55 43.51 200.49 48.12 195.3 50.66 193.55 53.4 192.15 54.42 190.49 53.94 188.5 50.95 182.09 47.75 175.77 51.86 179.07 56.01 182.3 54.89 181.95 53.38 181.4 49.71 180.63 45.99 181 41.91 184.15 39.97 189" fill="none" stroke="#aaa" stroke-miterlimit="10" stroke-width=".5"/>
  <polyline points="28.24 178.59 26.12 182.34 24.47 186.3 24.89 187.92 26.36 188.84 29.39 190.33 32.18 192.23 36.68 196.97 40.2 202.5 44.06 196.59 49.06 191.64 51.9 189.89 54.89 188.42 56.01 186.73 55.46 184.67 52.11 178.38 48.51 172.22 52.93 175.18 57.45 177.97 56.22 177.41 54.6 176.82 50.65 175.96 46.62 176.2 42.32 178.91 40.12 183.54" fill="none" stroke="#aaa" stroke-miterlimit="10" stroke-width=".5"/>
  <polyline points="26.96 175.24 24.71 178.78 22.99 182.58 23.55 184.25 25.14 185.18 28.43 186.71 31.52 188.62 36.34 193.11 40.22 198.46 44.51 192.7 49.9 188 53.05 186.23 56.31 184.71 57.53 182.98 56.91 180.85 53.18 174.67 49.16 168.67 53.91 171.29 58.79 173.64 57.49 172.88 55.73 172.23 51.48 171.28 47.14 171.39 42.65 173.68 40.14 178.08" fill="none" stroke="#aaa" stroke-miterlimit="10" stroke-width=".5"/>
  <polyline points="25.66 171.76 23.3 175.11 21.55 178.79 22.25 180.5 23.96 181.44 27.48 182.98 30.82 184.89 35.89 189.14 40.05 194.29 44.69 188.72 50.37 184.24 53.79 182.48 57.29 180.91 58.61 179.16 57.95 176.97 53.9 170.93 49.51 165.11 54.54 167.43 59.71 169.35 58.36 168.42 56.48 167.71 51.98 166.69 47.37 166.68 42.76 168.6 39.97 172.74" fill="none" stroke="#aaa" stroke-miterlimit="10" stroke-width=".5"/>
  <polyline points="25.01 168.12 22.58 171.31 20.81 174.86 21.63 176.59 23.41 177.53 27.07 179.07 30.59 180.93 35.79 184.95 40.14 189.87 45.01 184.52 50.87 180.29 54.47 178.55 58.12 176.97 59.52 175.22 58.82 173.02 54.56 167.15 49.92 161.56 55.11 163.6 60.46 165.15 59.09 164.09 57.12 163.35 52.47 162.28 47.71 162.18 43.06 163.78 40.06 167.65" fill="none" stroke="#aaa" stroke-miterlimit="10" stroke-width=".5"/>
  <polyline points="22.39 164.49 20.55 167.47 19.6 170.78 20.93 172.46 22.95 173.38 26.76 174.86 30.42 176.68 35.59 180.43 39.97 185.09 44.91 180 50.78 176.04 54.58 174.32 58.44 172.79 60.24 171.27 60.11 168.93 56.81 163.29 52.93 158.01 57.23 159.73 61.63 161.09 59.6 159.99 57.34 159.22 52.52 158.15 47.59 157.98 43 159.34 39.9 162.92" fill="none" stroke="#aaa" stroke-miterlimit="10" stroke-width=".5"/>
  <polyline points="21.19 160.68 19.93 163.49 19.75 166.49 21.43 168.06 23.6 168.95 27.37 170.34 31 172.08 35.96 175.55 40.19 179.89 44.99 175.13 50.65 171.45 54.47 169.81 58.36 168.37 60.37 167.02 60.83 164.69 58.58 159.39 55.57 154.45 58.89 155.91 62.26 157.16 59.81 156.14 57.27 155.34 52.47 154.31 47.57 154.11 43.17 155.3 40.12 158.61" fill="none" stroke="#aaa" stroke-miterlimit="10" stroke-width=".5"/>
  <polyline points="22.14 156.67 21.05 159.27 21.01 162.02 22.65 163.47 24.71 164.3 28.24 165.58 31.64 167.19 36.26 170.39 40.2 174.39 44.67 169.99 49.95 166.61 53.54 165.08 57.19 163.76 59.11 162.52 59.65 160.35 57.73 155.46 55.06 150.9 58 152.21 60.97 153.35 58.6 152.4 56.16 151.64 51.66 150.69 47.07 150.49 42.98 151.57 40.12 154.61" fill="none" stroke="#aaa" stroke-miterlimit="10" stroke-width=".5"/>
  <polyline points="23.65 152.6 22.67 154.98 22.65 157.49 24.16 158.81 26.05 159.58 29.28 160.75 32.4 162.21 36.61 165.13 40.21 168.78 44.3 164.77 49.13 161.68 52.42 160.29 55.75 159.08 57.52 157.95 58.03 155.97 56.3 151.5 53.89 147.34 56.55 148.53 59.23 149.57 57.05 148.7 54.81 148.01 50.69 147.14 46.49 146.96 42.76 147.94 40.14 150.71" fill="none" stroke="#aaa" stroke-miterlimit="10" stroke-width=".5"/>
  <polyline points="24.54 148.61 23.75 150.78 23.89 153.04 25.36 154.24 27.16 154.95 30.16 156.02 33.05 157.36 36.92 160 40.23 163.31 44.01 159.66 48.45 156.87 51.51 155.59 54.62 154.49 56.31 153.46 56.91 151.63 55.53 147.57 53.47 143.79 55.75 144.83 58 145.75 55.9 144.95 53.74 144.29 49.92 143.49 46.02 143.31 42.59 144.17 40.16 146.67" fill="none" stroke="#aaa" stroke-miterlimit="10" stroke-width=".5"/>
  <polyline points="24.22 144.76 23.75 146.79 24.26 148.77 25.86 149.88 27.71 150.55 30.62 151.55 33.43 152.79 37.09 155.17 40.26 158.17 43.89 154.85 48.11 152.33 51.12 151.13 54.17 150.1 55.93 149.15 56.82 147.42 56.02 143.71 54.43 140.23 56.24 141.07 57.82 141.8 55.58 141.03 53.3 140.37 49.58 139.61 45.79 139.39 42.56 140.09 40.18 142.3" fill="none" stroke="#aaa" stroke-miterlimit="10" stroke-width=".5"/>
  <polyline points="22.88 141.03 22.81 143 23.73 144.7 25.57 145.75 27.6 146.44 30.57 147.39 33.46 148.58 37.08 150.71 40.27 153.44 43.97 150.4 48.18 148.12 51.32 146.97 54.49 145.96 56.45 145.03 57.72 143.35 57.53 139.94 56.38 136.68 57.84 137.31 58.66 137.72 56.13 136.91 53.56 136.21 49.73 135.43 45.83 135.15 42.69 135.63 40.2 137.52" fill="none" stroke="#aaa" stroke-miterlimit="10" stroke-width=".5"/>
  <polyline points="20.88 137.35 21.21 139.29 22.48 140.79 24.61 141.84 26.9 142.56 30.06 143.5 33.15 144.65 36.87 146.57 40.25 149.06 44.2 146.26 48.56 144.19 51.97 143.06 55.4 142.03 57.63 141.08 59.31 139.4 59.63 136.25 58.83 133.13 60.1 133.55 60.2 133.51 57.3 132.6 54.35 131.83 50.25 131.01 46.09 130.61 42.92 130.88 40.19 132.4" fill="none" stroke="#aaa" stroke-miterlimit="10" stroke-width=".5"/>
  <polyline points="18.51 133.52 19.15 135.5 20.66 136.93 23.1 138.03 25.68 138.81 29.13 139.77 32.53 140.89 36.49 142.64 40.18 144.91 44.5 142.35 49.14 140.46 52.9 139.32 56.67 138.25 59.2 137.25 61.27 135.54 61.99 132.6 61.42 129.57 62.74 129.75 62.12 129.21 58.82 128.16 55.47 127.3 50.99 126.41 46.46 125.89 43.18 125.95 40.13 127.04" fill="none" stroke="#aaa" stroke-miterlimit="10" stroke-width=".5"/>
  <polyline points="16.1 129.48 16.93 131.56 18.64 133.02 21.41 134.23 24.31 135.08 28.11 136.08 31.89 137.19 36.15 138.79 40.19 140.88 44.86 138.55 49.78 136.81 53.93 135.67 58.08 134.53 60.95 133.47 63.41 131.71 64.45 128.97 64.05 126.02 65.43 125.69 64.24 124.88 60.55 123.66 56.78 122.71 51.9 121.74 46.98 121.08 43.52 120.93 40.15 121.57" fill="none" stroke="#aaa" stroke-miterlimit="10" stroke-width=".5"/>
  <polyline points="14.31 125.26 15.06 127.47 16.83 129.02 19.84 130.36 23.01 131.3 27.17 132.36 31.32 133.45 35.85 134.92 40.22 136.82 45.16 134.74 50.28 133.15 54.78 132 59.26 130.81 62.37 129.69 65.11 127.88 66.26 125.29 65.8 122.47 67.19 121.63 65.88 120.56 61.94 119.16 57.89 118.13 52.7 117.08 47.46 116.28 43.82 115.95 40.2 116.12" fill="none" stroke="#aaa" stroke-miterlimit="10" stroke-width=".5"/>
  <polyline points="12.94 120.9 13.49 123.22 15.26 124.86 18.47 126.35 21.87 127.38 26.35 128.49 30.83 129.58 35.59 130.92 40.22 132.61 45.32 130.79 50.53 129.37 55.3 128.22 60.05 126.99 63.38 125.82 66.38 123.99 67.64 121.6 67.16 118.91 68.59 117.65 67.18 116.28 63.06 114.74 58.78 113.64 53.33 112.52 47.84 111.61 44.04 111.11 40.22 110.82" fill="none" stroke="#aaa" stroke-miterlimit="10" stroke-width=".5"/>
  <polyline points="12.39 116.26 12.46 118.64 14.08 120.43 17.38 122.08 20.92 123.19 25.68 124.37 30.45 125.45 35.36 126.65 40.18 128.12 45.26 126.6 50.4 125.35 55.32 124.24 60.21 122.99 63.7 121.82 66.9 120.01 68.27 117.86 67.81 115.36 69.44 113.96 68.68 112.11 65.2 110.43 61.46 109.33 56.01 108.12 50.51 107.17 45.35 106.42 40.18 105.8" fill="none" stroke="#aaa" stroke-miterlimit="10" stroke-width=".5"/>
  <polyline points="12.92 111.72 12.93 111.73 12.95 111.74 12.97 111.75 12.98 111.76 13 111.77 13.02 111.78 13.04 111.79 13.05 111.81 12.55 114.03 13.93 115.89 17.22 117.61 20.77 118.77 25.64 119.97 30.55 121.03 35.39 122.06 40.2 123.25 45.04 122.07 49.92 121.03 54.82 119.97 59.68 118.77 63.23 117.61 66.54 115.89 67.96 114.06 67.57 111.81 69.22 110.17 68.69 108.08 65.47 106.33 61.95 105.25 56.59 104.03 51.18 103.04 45.68 102.11 40.2 101.17" fill="none" stroke="#aaa" stroke-miterlimit="10" stroke-width=".5"/>
  <polyline points="13.27 107.24 13.38 107.37 13.5 107.49 13.62 107.61 13.76 107.74 13.9 107.86 14.05 107.99 14.2 108.12 14.37 108.25 13.98 110.15 15.36 111.62 18.68 113.2 22.19 114.29 26.87 115.42 31.58 116.37 35.93 117.17 40.27 117.97 44.64 117.17 49.01 116.37 53.72 115.42 58.39 114.29 61.91 113.19 65.23 111.62 66.66 110.17 66.39 108.25 67.98 106.42 67.61 104.18 64.69 102.45 61.43 101.41 56.33 100.23 51.19 99.23 45.71 98.16 40.26 96.93" fill="none" stroke="#aaa" stroke-miterlimit="10" stroke-width=".5"/>
  <polyline points="15.1 102.74 15.23 102.97 15.38 103.19 15.56 103.44 15.75 103.67 15.97 103.92 16.21 104.17 16.48 104.44 16.76 104.7 16.43 106.19 17.75 107.26 21.03 108.64 24.45 109.65 28.81 110.67 33.2 111.5 36.77 112.04 40.34 112.42 43.94 112.04 47.53 111.5 51.92 110.67 56.26 109.65 59.7 108.64 62.99 107.26 64.34 106.21 64.13 104.7 65.71 102.75 65.59 100.38 63.06 98.71 60.15 97.74 55.47 96.63 50.75 95.65 45.5 94.46 40.34 92.97" fill="none" stroke="#aaa" stroke-miterlimit="10" stroke-width=".5"/>
  <polyline points="17.67 98.33 17.8 98.65 17.96 98.95 18.17 99.29 18.4 99.62 18.7 99.99 19.01 100.35 19.38 100.75 19.78 101.14 19.22 102.1 20.36 102.88 23.48 104.07 26.7 104.98 30.69 105.88 34.72 106.58 37.53 106.89 40.35 106.82 43.19 106.89 46.03 106.58 50.06 105.88 54.05 104.98 57.28 104.07 60.41 102.88 61.57 102.13 61.16 101.14 62.8 99.1 63.04 96.6 60.93 94.99 58.39 94.11 54.17 93.07 49.92 92.11 45.07 90.8 40.36 89.06" fill="none" stroke="#aaa" stroke-miterlimit="10" stroke-width=".5"/>
  <polyline points="19.94 94.13 20.08 94.5 20.25 94.86 20.48 95.27 20.75 95.67 21.09 96.13 21.46 96.58 21.92 97.09 22.39 97.59 21.28 97.84 22.11 98.57 24.84 99.62 27.67 100.43 31.35 101.25 35.08 101.82 37.74 101.94 40.33 101.41 42.94 101.94 45.64 101.82 49.37 101.25 53.05 100.43 55.89 99.61 58.64 98.57 59.54 97.9 58.51 97.59 60.26 95.4 60.82 92.76 59.09 91.18 56.84 90.35 53.01 89.38 49.16 88.41 44.65 86.97 40.35 84.97" fill="none" stroke="#aaa" stroke-miterlimit="10" stroke-width=".5"/>
  <polyline points="21.38 90.13 21.55 90.54 21.75 90.93 22.03 91.39 22.33 91.84 22.73 92.36 23.14 92.87 23.66 93.46 24.19 94.04 23 93.9 23.05 94.39 25.54 95.34 28.09 96.09 31.63 96.88 35.21 97.34 37.87 97.3 40.3 96.36 42.77 97.3 45.47 97.34 49.05 96.88 52.59 96.09 55.16 95.34 57.66 94.39 57.82 93.89 56.68 94.04 58.59 91.64 59.49 88.78 58.06 87.19 56 86.38 52.38 85.42 48.77 84.43 44.39 82.8 40.33 80.51" fill="none" stroke="#aaa" stroke-miterlimit="10" stroke-width=".5"/>
  <polyline points="21.8 86.17 22.01 86.62 22.26 87.05 22.59 87.56 22.94 88.05 23.38 88.63 23.85 89.19 24.41 89.84 25 90.48 23.67 90.16 23.1 90.35 25.47 91.27 27.92 92 31.48 92.8 35.09 93.2 37.87 93.01 40.27 91.71 42.72 93.01 45.54 93.2 49.16 92.8 52.72 92 55.18 91.27 57.57 90.35 57.1 90.16 55.82 90.48 57.98 87.81 59.2 84.67 57.97 83 55.98 82.16 52.38 81.17 48.8 80.11 44.36 78.26 40.31 75.65" fill="none" stroke="#aaa" stroke-miterlimit="10" stroke-width=".5"/>
  <polyline points="21.37 82.19 21.64 82.68 21.93 83.15 22.31 83.71 22.72 84.25 23.22 84.89 23.73 85.51 24.36 86.22 24.99 86.93 23.44 86.46 22.42 86.42 24.8 87.37 27.26 88.11 30.99 88.95 34.79 89.33 37.79 89.01 40.26 87.39 42.79 89 45.83 89.33 49.63 88.95 53.36 88.11 55.83 87.36 58.23 86.42 57.3 86.46 55.81 86.93 58.26 83.92 59.79 80.43 58.67 78.64 56.65 77.75 52.92 76.68 49.21 75.53 44.51 73.43 40.31 70.47" fill="none" stroke="#aaa" stroke-miterlimit="10" stroke-width=".5"/>
  <polyline points="20.42 78.16 20.73 78.7 21.08 79.22 21.51 79.84 21.96 80.44 22.52 81.13 23.1 81.81 23.79 82.6 24.49 83.37 22.69 82.78 21.29 82.57 23.77 83.57 26.32 84.35 30.32 85.25 34.39 85.62 37.67 85.19 40.29 83.28 42.97 85.18 46.29 85.62 50.37 85.25 54.36 84.35 56.93 83.56 59.43 82.57 58.12 82.78 56.38 83.37 59.15 80.01 61 76.13 59.93 74.17 57.81 73.2 53.83 72.05 49.89 70.78 44.83 68.4 40.34 65.07" fill="none" stroke="#aaa" stroke-miterlimit="10" stroke-width=".5"/>
  <polyline points="19.18 74.11 19.54 74.7 19.93 75.27 20.41 75.94 20.92 76.6 21.54 77.36 22.18 78.11 22.94 78.97 23.71 79.82 21.65 79.1 19.91 78.75 22.51 79.81 25.2 80.64 29.5 81.61 33.89 81.98 37.48 81.44 40.28 79.25 43.14 81.44 46.77 81.98 51.16 81.61 55.47 80.64 58.17 79.81 60.79 78.75 59.13 79.1 57.13 79.82 60.25 76.09 62.4 71.79 61.35 69.66 59.1 68.6 54.83 67.35 50.61 65.96 45.14 63.3 40.33 59.59" fill="none" stroke="#aaa" stroke-miterlimit="10" stroke-width=".5"/>
  <polyline points="18 70.07 18.41 70.71 18.85 71.34 19.39 72.06 19.95 72.78 20.64 73.6 21.33 74.42 22.16 75.35 23 76.27 20.66 75.41 18.55 74.91 21.26 76.03 24.06 76.9 28.65 77.93 33.33 78.3 37.21 77.64 40.18 75.17 43.2 77.64 47.12 78.3 51.81 77.93 56.4 76.9 59.21 76.02 61.93 74.91 59.91 75.42 57.63 76.27 61.09 72.17 63.56 67.48 62.55 65.18 60.17 64.03 55.64 62.69 51.16 61.18 45.32 58.25 40.23 54.16" fill="none" stroke="#aaa" stroke-miterlimit="10" stroke-width=".5"/>
  <polyline points="17.48 66.12 17.94 66.81 18.43 67.47 19.03 68.25 19.64 69.01 20.38 69.88 21.14 70.75 22.03 71.73 22.93 72.71 20.26 71.7 17.73 71 20.45 72.15 23.27 73.05 28.06 74.12 32.95 74.48 37.08 73.68 40.14 70.91 43.27 73.68 47.44 74.48 52.33 74.12 57.12 73.05 59.96 72.15 62.69 71 60.24 71.7 57.64 72.71 61.45 68.27 64.28 63.22 63.37 60.79 60.93 59.57 56.22 58.15 51.58 56.55 45.47 53.35 40.2 48.91" fill="none" stroke="#aaa" stroke-miterlimit="10" stroke-width=".5"/>
  <polyline points="17.75 62.29 18.27 63 18.81 63.7 19.46 64.51 20.14 65.3 20.93 66.22 21.74 67.12 22.68 68.14 23.64 69.16 20.56 67.94 17.51 67.02 20.12 68.18 22.86 69.07 27.73 70.16 32.72 70.48 37.03 69.5 40.12 66.44 43.27 69.5 47.61 70.48 52.6 70.16 57.48 69.07 60.23 68.18 62.86 67.02 59.87 67.94 56.87 69.16 61.05 64.41 64.32 59.04 63.63 56.53 61.2 55.25 56.43 53.77 51.74 52.09 45.48 48.65 40.17 43.88" fill="none" stroke="#aaa" stroke-miterlimit="10" stroke-width=".5"/>
  <polyline points="18.84 58.56 19.43 59.29 20.03 60.01 20.75 60.84 21.48 61.66 22.33 62.6 23.2 63.52 24.2 64.57 25.21 65.6 21.59 64.13 17.89 62.99 20.27 64.14 22.8 64.99 27.67 66.09 32.64 66.34 37.09 65.17 40.14 61.81 43.25 65.17 47.73 66.34 52.71 66.09 57.58 64.99 60.12 64.13 62.51 62.99 58.89 64.14 55.34 65.6 59.98 60.56 63.8 54.92 63.44 52.37 61.1 51.02 56.37 49.51 51.74 47.77 45.44 44.08 40.19 39.01" fill="none" stroke="#aaa" stroke-miterlimit="10" stroke-width=".5"/>
  <polyline points="21.16 54.95 21.84 55.7 22.54 56.43 23.35 57.27 24.18 58.1 25.12 59.03 26.07 59.97 27.16 61.01 28.25 62.05 23.73 60.27 19.1 58.92 20.97 60.06 23.17 60.86 27.92 61.96 32.79 62.15 37.32 60.74 40.29 57.09 43.33 60.74 47.91 62.15 52.78 61.96 57.53 60.86 59.73 60.06 61.62 58.92 57.05 60.27 52.6 62.05 57.98 56.71 62.7 50.83 62.94 48.32 60.81 46.85 56.23 45.29 51.75 43.51 45.48 39.57 40.35 34.22" fill="none" stroke="#aaa" stroke-miterlimit="10" stroke-width=".5"/>
  <polyline points="23.08 51.36 23.84 52.11 24.6 52.86 25.47 53.7 26.36 54.54 27.36 55.48 28.36 56.42 29.49 57.46 30.62 58.5 25.32 56.41 19.85 54.85 21.22 55.94 23.22 56.71 27.89 57.81 32.68 57.92 37.32 56.28 40.22 52.34 43.19 56.28 47.87 57.92 52.67 57.81 57.34 56.71 59.34 55.94 60.72 54.85 55.32 56.42 50.08 58.5 56.04 52.86 61.49 46.75 62.19 44.33 60.29 42.69 55.87 41.1 51.53 39.27 45.29 35.08 40.28 29.46" fill="none" stroke="#aaa" stroke-miterlimit="10" stroke-width=".5"/>
  <polyline points="23.4 47.64 24.14 48.41 24.88 49.18 25.73 50.04 26.59 50.9 27.55 51.86 28.52 52.82 29.61 53.88 30.7 54.94 25.3 52.62 19.74 50.76 21.12 51.79 23.13 52.55 27.85 53.64 32.69 53.69 37.44 51.81 40.29 47.58 43.21 51.8 48 53.69 52.85 53.64 57.57 52.55 59.57 51.79 60.97 50.76 55.48 52.62 50.14 54.94 56.04 49.03 61.42 42.67 62.11 40.21 60.2 38.54 55.8 36.94 51.5 35.05 45.26 30.6 40.35 24.71" fill="none" stroke="#aaa" stroke-miterlimit="10" stroke-width=".5"/>
  <polyline points="23.7 43.94 24.41 44.73 25.13 45.52 25.95 46.4 26.78 47.28 27.71 48.26 28.64 49.23 29.68 50.31 30.72 51.39 25.27 48.82 19.67 46.67 21.06 47.63 23.05 48.37 27.8 49.45 32.66 49.43 37.5 47.29 40.28 42.79 43.13 47.29 48.01 49.43 52.88 49.45 57.64 48.37 59.63 47.63 61.04 46.67 55.49 48.83 50.11 51.39 55.92 45.21 61.22 38.61 61.89 36.11 59.98 34.41 55.61 32.79 51.37 30.85 45.15 26.15 40.35 19.99" fill="none" stroke="#aaa" stroke-miterlimit="10" stroke-width=".5"/>
  <polyline points="24.05 40.31 24.74 41.11 25.43 41.91 26.21 42.8 27 43.69 27.88 44.68 28.77 45.66 29.75 46.75 30.74 47.84 25.34 45.02 19.79 42.55 21.19 43.42 23.14 44.14 27.84 45.19 32.65 45.1 37.52 42.67 40.19 37.91 42.93 42.67 47.85 45.1 52.66 45.2 57.37 44.14 59.33 43.42 60.74 42.55 55.25 45.02 49.92 47.84 55.61 41.4 60.77 34.57 61.42 32.05 59.52 30.33 55.21 28.71 51.06 26.73 44.91 21.77 40.26 15.36" fill="none" stroke="#aaa" stroke-miterlimit="10" stroke-width=".5"/>
  <polyline points="24.78 36.74 25.42 37.55 26.07 38.35 26.8 39.25 27.54 40.14 28.35 41.13 29.18 42.11 30.09 43.2 31 44.28 25.73 41.19 20.32 38.37 21.7 39.11 23.58 39.81 28.18 40.82 32.86 40.63 37.7 37.88 40.21 32.87 42.8 37.88 47.68 40.63 52.37 40.82 56.97 39.81 58.86 39.11 60.26 38.37 54.91 41.19 49.7 44.28 55.16 37.62 60.12 30.6 60.72 28.08 58.87 26.36 54.69 24.75 50.69 22.73 44.7 17.53 40.28 10.9" fill="none" stroke="#aaa" stroke-miterlimit="10" stroke-width=".5"/>
  <polyline points="25.87 33.31 26.46 34.11 27.05 34.91 27.71 35.79 28.37 36.67 29.1 37.64 29.84 38.61 30.65 39.67 31.46 40.73 26.41 37.33 21.25 34.11 22.57 34.69 24.37 35.34 28.76 36.29 33.22 35.99 37.94 32.85 40.24 27.6 42.61 32.85 47.38 35.99 51.85 36.29 56.25 35.34 58.05 34.69 59.39 34.11 54.29 37.33 49.31 40.73 54.42 33.87 59.04 26.7 59.6 24.23 57.82 22.52 53.85 20.95 50.1 18.92 44.39 13.46 40.32 6.66" fill="none" stroke="#aaa" stroke-miterlimit="10" stroke-width=".5"/>
</svg>