<?xml version="1.0" encoding="UTF-8"?>
<svg id="Ebene_1" xmlns="http://www.w3.org/2000/svg" width="222" height="222" viewBox="0 0 222 222">
  <polyline points="203.98 71.63 203.94 71.7 203.87 71.72 191.37 71.72 178.87 71.72 178.11 76.72 177.35 81.71 189.83 81.71 202.32 81.71 202.36 81.72 202.4 81.75 202.42 81.79 202.42 81.83 201.82 85.73 201.22 89.62 206.7 89.62 212.18 89.62 214.16 76.68 216.15 63.75 210.67 63.75 205.18 63.75 204.58 67.69 203.98 71.63" fill="none" stroke="#aaa" stroke-miterlimit="10" stroke-width=".5"/>
  <polyline points="216.37 63.65 216.37 63.65 216.37 63.66 214.37 76.7 212.37 89.74 212.34 89.8 212.27 89.83 206.68 89.83 201.1 89.83 201.05 89.82 201.02 89.79 201 89.75 200.99 89.71 201.59 85.81 202.2 81.92 189.71 81.92 177.22 81.92 177.18 81.91 177.15 81.89 177.12 81.85 177.12 81.8 177.9 76.7 178.68 71.6 178.72 71.54 178.78 71.51 191.28 71.51 203.79 71.51 204.39 67.57 204.99 63.63 205.03 63.57 205.1 63.54 210.68 63.54 216.27 63.54 216.31 63.55 216.35 63.58 216.37 63.61 216.37 63.65" fill="none" stroke="#aaa" stroke-miterlimit="10" stroke-width=".5"/>
  <polyline points="201.2 89.72 201.2 89.7 201.19 89.68 199.23 85.72 197.26 81.77 197.2 81.72 197.12 81.72 197.07 81.79 197.08 81.86 199.04 85.82 201 89.77 201.06 89.82 201.14 89.82 201.18 89.78 201.2 89.72" fill="none" stroke="#aaa" stroke-miterlimit="10" stroke-width=".5"/>
  <polyline points="203.98 71.62 203.98 71.59 203.97 71.57 201.62 66.87 199.27 62.16 199.23 62.12 199.18 62.11 186.62 62.11 174.07 62.11 174 62.13 173.96 62.19 173.19 67.27 172.41 72.35 172.41 72.38 172.42 72.41 174.77 77.14 177.13 81.86 177.19 81.92 177.27 81.91 177.32 81.85 177.32 81.77 174.97 77.06 172.62 72.35 173.39 67.33 174.16 62.31 186.63 62.31 199.11 62.31 201.45 66.99 203.78 71.66 203.84 71.72 203.92 71.71 203.96 71.67 203.98 71.62" fill="none" stroke="#aaa" stroke-miterlimit="10" stroke-width=".5"/>
  <polyline points="216.37 63.65 216.37 63.62 216.36 63.6 214 58.88 211.64 54.17 211.6 54.12 211.55 54.11 205.96 54.11 200.38 54.11 200.31 54.13 200.28 54.2 199.68 58.2 199.07 62.2 199.09 62.27 199.16 62.31 199.24 62.29 199.28 62.23 199.87 58.27 200.47 54.32 205.98 54.32 211.49 54.32 213.83 59 216.18 63.69 216.24 63.74 216.32 63.74 216.36 63.7 216.37 63.65" fill="none" stroke="#aaa" stroke-miterlimit="10" stroke-width=".5"/>
  <polyline points="205.2 63.65 205.2 63.62 205.19 63.6 202.83 58.88 200.47 54.17 200.41 54.11 200.33 54.12 200.28 54.18 200.29 54.26 202.64 58.97 205 63.69 205.06 63.74 205.14 63.74 205.18 63.7 205.2 63.65" fill="none" stroke="#aaa" stroke-miterlimit="10" stroke-width=".5"/>
  <polyline points="178.89 71.62 178.88 71.59 178.88 71.57 176.52 66.87 174.16 62.16 174.1 62.11 174.02 62.12 173.97 62.18 173.97 62.26 176.33 66.96 178.69 71.66 178.75 71.72 178.83 71.71 178.87 71.67 178.89 71.62" fill="none" stroke="#aaa" stroke-miterlimit="10" stroke-width=".5"/>
</svg>