<?xml version="1.0" encoding="UTF-8"?>
<svg id="Ebene_1" xmlns="http://www.w3.org/2000/svg" width="222" height="222" viewBox="0 0 222 222">
  <polyline points="186.21 40.59 186.21 40.58 186.21 40.57 187.11 35.92 188.01 31.27 182.53 31.27 177.05 31.27 177.01 31.27 176.97 31.24 176.95 31.2 176.95 31.15 177.89 26.32 178.82 21.48 173.34 21.48 167.87 21.48 167.81 21.46 167.77 21.42 165.64 16.06 163.51 10.71 161.7 20.15 159.88 29.59 162.05 35.06 164.22 40.53 169.72 40.53 175.23 40.53 175.27 40.54 175.31 40.56 175.33 40.6 175.33 40.65 174.43 45.3 173.53 49.95 184.69 49.95 195.85 49.95 196.73 45.32 197.62 40.69 191.96 40.69 186.31 40.69 186.27 40.68 186.23 40.66 186.21 40.63 186.21 40.59" fill="none" stroke="#aaa" stroke-miterlimit="10" stroke-width=".5"/>
  <polyline points="197.84 40.59 197.84 40.6 197.84 40.61 196.94 45.34 196.03 50.07 196 50.13 195.93 50.16 184.67 50.16 173.4 50.16 173.36 50.15 173.32 50.12 173.3 50.08 173.3 50.03 174.2 45.38 175.1 40.73 169.62 40.73 164.15 40.73 164.09 40.72 164.05 40.67 161.86 35.15 159.68 29.64 159.67 29.61 159.67 29.58 161.52 19.95 163.37 10.33 163.41 10.27 163.47 10.24 163.53 10.26 163.57 10.31 165.75 15.79 167.94 21.27 173.44 21.27 178.95 21.27 178.99 21.28 179.03 21.31 179.05 21.35 179.05 21.4 178.11 26.23 177.18 31.07 182.66 31.07 188.14 31.07 188.18 31.08 188.22 31.11 188.24 31.15 188.24 31.19 187.34 35.84 186.44 40.49 192.09 40.49 197.74 40.49 197.79 40.5 197.82 40.52 197.84 40.56 197.84 40.59" fill="none" stroke="#aaa" stroke-miterlimit="10" stroke-width=".5"/>
  <polyline points="173.51 50.05 173.51 50.03 173.5 50.01 171.63 45.3 169.77 40.59 169.71 40.53 169.63 40.53 169.57 40.59 169.57 40.67 171.44 45.38 173.31 50.09 173.36 50.15 173.44 50.15 173.49 50.11 173.51 50.05" fill="none" stroke="#aaa" stroke-miterlimit="10" stroke-width=".5"/>
  <polyline points="167.97 21.38 167.95 21.31 167.89 21.27 167.81 21.29 167.76 21.36 165.9 30.98 164.05 40.61 164.06 40.69 164.13 40.73 164.21 40.72 164.25 40.65 166.11 31.02 167.97 21.4 167.97 21.39 167.97 21.38" fill="none" stroke="#aaa" stroke-miterlimit="10" stroke-width=".5"/>
  <polyline points="179.05 21.38 179.05 21.36 179.04 21.34 176.84 15.82 174.63 10.31 174.59 10.26 174.53 10.24 169.01 10.24 163.48 10.24 163.4 10.27 163.37 10.35 163.4 10.42 163.48 10.45 168.97 10.45 174.46 10.45 176.66 15.93 178.85 21.42 178.91 21.47 178.99 21.47 179.03 21.43 179.05 21.38" fill="none" stroke="#aaa" stroke-miterlimit="10" stroke-width=".5"/>
  <polyline points="197.84 40.59 197.84 40.57 197.84 40.55 195.66 35.04 193.47 29.52 193.44 29.48 193.38 29.46 190.44 29.46 187.5 29.46 187.42 29.49 187.39 29.56 187.42 29.64 187.5 29.67 190.4 29.67 193.31 29.67 195.48 35.15 197.64 40.63 197.7 40.69 197.78 40.69 197.83 40.65 197.84 40.59" fill="none" stroke="#aaa" stroke-miterlimit="10" stroke-width=".5"/>
  <polyline points="188.24 31.17 188.24 31.15 188.23 31.13 186.04 25.62 183.84 20.1 183.8 20.05 183.74 20.03 181.1 20.03 178.45 20.03 178.38 20.06 178.35 20.14 178.38 20.21 178.45 20.24 181.06 20.24 183.67 20.24 185.86 25.72 188.04 31.21 188.09 31.27 188.17 31.27 188.22 31.23 188.24 31.17" fill="none" stroke="#aaa" stroke-miterlimit="10" stroke-width=".5"/>
</svg>