<?xml version="1.0" encoding="UTF-8"?>
<svg id="Ebene_1" xmlns="http://www.w3.org/2000/svg" width="222" height="222" viewBox="0 0 222 222">
  <polyline points="82.59 50.21 82.58 50.21 82.58 50.21 82.57 50.21 82.57 50.21 82.56 50.21 82.56 50.2 82.55 50.2 82.55 50.2 81.42 49.66 80.29 49.12 79.16 48.57 78.04 48.03 76.91 47.49 75.78 46.95 74.66 46.41 73.53 45.87 71.62 44.76 69.9 43.36 68.4 41.71 67.15 39.85 66.13 37.76 65.4 35.55 64.93 33.13 64.77 30.68 65.1 26.8 66.09 23.03 67.66 19.55 69.77 16.36 72.3 13.64 75.26 11.39 78.5 9.77 81.99 8.82 83.18 8.68 84.38 8.62 85.54 8.66 86.7 8.79 87.83 9.01 88.94 9.32 90.02 9.72 91.06 10.2 92.18 10.74 93.3 11.28 94.42 11.82 95.54 12.35 96.66 12.89 97.77 13.43 98.89 13.96 100.01 14.5 100.03 14.51 100.04 14.53 100.06 14.54 100.06 14.56 100.07 14.58 100.07 14.6 100.07 14.62 100.06 14.64 100.05 14.66 100.04 14.67 100.02 14.68 100 14.69 99.98 14.7 99.96 14.7 99.94 14.7 99.92 14.69 98.8 14.15 97.68 13.61 96.57 13.08 95.45 12.54 94.33 12 93.21 11.46 92.09 10.93 90.97 10.39 89.94 9.91 88.88 9.52 87.79 9.21 86.67 9 85.53 8.87 84.37 8.83 83.2 8.88 82.02 9.03 78.56 9.96 75.36 11.57 72.43 13.8 69.93 16.5 67.84 19.65 66.28 23.1 65.3 26.83 64.98 30.68 65.14 33.1 65.6 35.49 66.32 37.67 67.33 39.74 68.56 41.57 70.04 43.21 71.73 44.58 73.62 45.68 74.75 46.22 75.87 46.76 77 47.31 78.13 47.85 79.25 48.39 80.38 48.93 81.51 49.47 82.64 50.01 82.65 50.02 82.67 50.04 82.68 50.05 82.69 50.07 82.69 50.09 82.69 50.11 82.69 50.13 82.68 50.15 82.68 50.16 82.67 50.18 82.66 50.19 82.64 50.19 82.63 50.2 82.62 50.21 82.6 50.21 82.59 50.21" fill="none" stroke="#aaa" stroke-miterlimit="10" stroke-width=".5"/>
  <polyline points="84.41 35.27 84.35 35.26 84.32 35.22 84.31 35.14 84.36 35.08 87.93 31.61 89.24 26.8 89.2 26.02 89.09 25.25 89.11 25.17 89.17 25.13 89.25 25.14 89.29 25.21 89.41 26 89.45 26.8 88.11 31.72 84.46 35.26 84.43 35.27 84.41 35.27" fill="none" stroke="#aaa" stroke-miterlimit="10" stroke-width=".5"/>
  <polyline points="91.51 40.32 91.51 40.34 91.51 40.35 91.52 40.36 91.52 40.37 91.52 40.39 91.52 40.4 91.52 40.41 91.53 40.43 91.52 40.41 91.52 40.4 91.52 40.39 91.52 40.37 91.52 40.36 91.51 40.35 91.51 40.34 91.51 40.32 92.95 39.93 94.28 39.26 95.5 38.33 96.55 37.21 97.42 35.9 98.06 34.46 98.47 32.91 98.61 31.31 98.56 30.5 98.44 29.71 98.25 28.96 97.99 28.24 97.65 27.57 97.25 26.95 96.79 26.39 96.27 25.88 95.76 25.49 95.21 25.17 94.63 24.9 94.03 24.7 93.41 24.57 92.77 24.51 92.11 24.51 91.45 24.58 90.01 24.97 88.68 25.64 87.46 26.57 86.42 27.69 85.55 29 84.9 30.44 84.49 31.99 84.36 33.59 84.4 34.4 84.52 35.19 84.71 35.94 84.98 36.66 85.31 37.33 85.71 37.95 86.17 38.52 86.7 39.02 87.21 39.41 87.76 39.74 88.33 40 88.93 40.2 89.56 40.33 90.19 40.4 90.85 40.39 91.51 40.32" fill="none" stroke="#aaa" stroke-miterlimit="10" stroke-width=".5"/>
  <polyline points="90.5 40.61 89.96 40.59 89.42 40.52 88.91 40.41 88.4 40.25 87.91 40.04 87.44 39.8 86.99 39.51 86.57 39.18 86.02 38.66 85.55 38.08 85.13 37.43 84.79 36.75 84.52 36 84.32 35.24 84.19 34.42 84.15 33.6 84.29 31.96 84.71 30.37 85.37 28.9 86.26 27.56 87.33 26.41 88.58 25.46 89.94 24.77 91.42 24.37 92.1 24.3 92.78 24.3 93.44 24.37 94.09 24.5 94.71 24.71 95.3 24.98 95.87 25.32 96.4 25.72 96.94 26.24 97.42 26.82 97.83 27.47 98.17 28.15 98.45 28.9 98.65 29.66 98.77 30.48 98.81 31.3 98.68 32.94 98.26 34.53 97.59 36 96.7 37.34 95.63 38.49 94.39 39.44 93.02 40.13 91.54 40.53 91.41 40.55 91.28 40.56 91.15 40.58 91.02 40.59 90.89 40.6 90.76 40.61 90.63 40.61 90.5 40.61" fill="none" stroke="#aaa" stroke-miterlimit="10" stroke-width=".5"/>
  <polyline points="91.37 13.43 91.37 13.44 91.38 13.45 91.38 13.47 91.38 13.48 91.38 13.49 91.39 13.5 91.39 13.52 91.39 13.53 87.93 14.47 84.73 16.08 81.8 18.31 79.3 21 77.21 24.16 75.65 27.6 74.67 31.34 74.34 35.18 74.44 37.11 74.74 39.02 75.2 40.82 75.84 42.55 76.64 44.16 77.6 45.66 78.72 47.02 79.98 48.23 81.21 49.17 82.53 49.96 83.92 50.59 85.36 51.07 86.87 51.39 88.4 51.55 89.99 51.54 91.57 51.37 95.03 50.44 98.24 48.83 101.16 46.6 103.67 43.9 105.76 40.75 107.31 37.3 108.3 33.56 108.62 29.72 108.52 27.79 108.23 25.88 107.77 24.09 107.12 22.35 106.33 20.75 105.36 19.24 104.25 17.88 102.98 16.67 101.75 15.74 100.43 14.94 99.05 14.31 97.6 13.83 96.1 13.51 94.56 13.35 92.97 13.36 91.39 13.53 91.39 13.52 91.39 13.5 91.38 13.49 91.38 13.48 91.38 13.47 91.38 13.45 91.37 13.44 91.37 13.43" fill="none" stroke="#aaa" stroke-miterlimit="10" stroke-width=".5"/>
  <polyline points="89.13 51.77 87.86 51.72 86.6 51.56 85.37 51.29 84.18 50.91 83.02 50.43 81.92 49.85 80.85 49.17 79.85 48.39 78.57 47.16 77.44 45.79 76.46 44.26 75.65 42.64 75 40.88 74.53 39.07 74.24 37.13 74.13 35.18 74.46 31.3 75.46 27.53 77.03 24.05 79.14 20.87 81.67 18.15 84.63 15.9 87.86 14.27 91.36 13.33 92.96 13.15 94.58 13.15 96.13 13.31 97.66 13.63 99.12 14.12 100.53 14.76 101.87 15.57 103.12 16.51 104.4 17.74 105.52 19.12 106.5 20.64 107.31 22.26 107.96 24.02 108.43 25.83 108.72 27.77 108.83 29.72 108.5 33.6 107.51 37.37 105.93 40.85 103.82 44.03 101.29 46.75 98.34 49 95.1 50.63 91.61 51.58 91.29 51.62 90.98 51.66 90.67 51.7 90.36 51.72 90.05 51.75 89.75 51.76 89.44 51.77 89.13 51.77" fill="none" stroke="#aaa" stroke-miterlimit="10" stroke-width=".5"/>
</svg>