<?xml version="1.0" encoding="UTF-8"?>
<svg id="Ebene_1" xmlns="http://www.w3.org/2000/svg" width="222" height="222" viewBox="0 0 222 222">
  <polyline points="197.47 .16 186.06 1.79 174.9 4.65 168.89 7.25 163.64 11.11 161.32 14.42 160.31 18.32 160.53 21.74 161.5 25.04 162.6 27.56 163.82 30.01 164.27 31.12 163.88 32.01 161.03 31.09 158.29 29.79 150.96 26 143.65 22.11" fill="none" stroke="#aaa" stroke-miterlimit="10" stroke-width=".5"/>
  <polyline points="190.16 .17 178.95 1.92 168.04 5.02 162.16 7.88 157.16 12.06 154.96 15.73 154.12 19.91 154.47 23.62 155.54 27.2 156.73 29.91 158.04 32.54 158.53 33.67 158.23 34.58 155.41 33.42 152.72 31.93 145.41 27.6 138.13 23.21" fill="none" stroke="#aaa" stroke-miterlimit="10" stroke-width=".5"/>
  <polyline points="183 .17 171.98 2.04 161.32 5.37 155.56 8.47 150.8 12.94 148.73 16.94 148.04 21.39 148.5 25.38 149.68 29.21 150.94 32.09 152.35 34.89 152.86 36.01 152.65 36.94 149.87 35.54 147.23 33.85 139.96 29 132.69 24.11" fill="none" stroke="#aaa" stroke-miterlimit="10" stroke-width=".5"/>
  <polyline points="176.12 .17 165.3 2.14 154.89 5.66 149.23 8.98 144.69 13.68 142.74 17.95 142.18 22.62 142.74 26.83 144.01 30.88 145.32 33.9 146.8 36.83 147.33 37.95 147.21 38.87 144.48 37.24 141.88 35.39 134.68 30.08 127.46 24.77" fill="none" stroke="#aaa" stroke-miterlimit="10" stroke-width=".5"/>
  <polyline points="169.65 .17 159.02 2.21 148.83 5.86 143.29 9.34 138.94 14.2 137.08 18.67 136.63 23.49 137.25 27.85 138.58 32.05 139.93 35.16 141.46 38.18 142.01 39.29 141.94 40.19 139.26 38.38 136.71 36.39 129.57 30.74 122.41 25.1" fill="none" stroke="#aaa" stroke-miterlimit="10" stroke-width=".5"/>
  <polyline points="163.65 .17 153.2 2.25 143.23 5.95 137.79 9.51 133.58 14.44 131.8 19.01 131.41 23.9 132.08 28.33 133.44 32.6 134.81 35.75 136.35 38.8 136.91 39.9 136.88 40.77 134.24 38.85 131.71 36.78 124.65 30.92 117.56 25.09" fill="none" stroke="#aaa" stroke-miterlimit="10" stroke-width=".5"/>
  <polyline points="158.16 .17 147.88 2.24 138.09 5.94 132.75 9.5 128.65 14.41 126.92 18.97 126.57 23.84 127.24 28.25 128.6 32.5 129.97 35.62 131.5 38.65 132.04 39.73 132.02 40.57 129.4 38.61 126.9 36.51 119.92 30.61 112.89 24.74" fill="none" stroke="#aaa" stroke-miterlimit="10" stroke-width=".5"/>
  <polyline points="153.14 .17 143.04 2.2 133.41 5.81 128.16 9.28 124.12 14.09 122.42 18.54 122.07 23.3 122.73 27.61 124.06 31.76 125.39 34.81 126.88 37.77 127.41 38.82 127.35 39.62 124.75 37.7 122.26 35.63 115.36 29.85 108.41 24.09" fill="none" stroke="#aaa" stroke-miterlimit="10" stroke-width=".5"/>
  <polyline points="148.55 .17 138.62 2.11 129.13 5.58 123.96 8.9 119.95 13.52 118.26 17.78 117.88 22.36 118.49 26.49 119.77 30.46 121.04 33.39 122.47 36.22 122.97 37.25 122.86 38.01 120.26 36.19 117.78 34.21 110.95 28.68 104.1 23.18" fill="none" stroke="#aaa" stroke-miterlimit="10" stroke-width=".5"/>
  <polyline points="144.28 .17 134.51 2.01 125.15 5.28 120.07 8.39 116.05 12.76 114.35 16.76 113.92 21.09 114.48 24.98 115.67 28.73 116.88 31.49 118.22 34.17 118.69 35.16 118.5 35.89 115.9 34.21 113.42 32.36 106.68 27.21 99.92 22.06" fill="none" stroke="#aaa" stroke-miterlimit="10" stroke-width=".5"/>
  <polyline points="140.21 .16 130.61 1.88 121.36 4.93 116.36 7.8 112.33 11.88 110.6 15.57 110.11 19.61 110.59 23.23 111.7 26.72 112.82 29.29 114.07 31.79 114.5 32.75 114.22 33.43 111.63 31.94 109.15 30.24 102.49 25.52 95.83 20.8" fill="none" stroke="#aaa" stroke-miterlimit="10" stroke-width=".5"/>
  <polyline points="136.19 .16 126.76 1.75 117.62 4.57 112.71 7.18 108.66 10.96 106.91 14.33 106.35 18.07 106.75 21.41 107.76 24.62 108.8 26.99 109.95 29.31 110.34 30.24 109.98 30.87 107.39 29.56 104.91 28.02 98.35 23.76 91.8 19.48" fill="none" stroke="#aaa" stroke-miterlimit="10" stroke-width=".5"/>
  <polyline points="132.1 .16 122.83 1.63 113.81 4.22 108.99 6.6 104.91 10.09 103.15 13.15 102.52 16.61 102.85 19.68 103.77 22.62 104.74 24.81 105.79 26.95 106.14 27.85 105.7 28.43 103.12 27.29 100.65 25.9 94.2 22.07 87.76 18.2" fill="none" stroke="#aaa" stroke-miterlimit="10" stroke-width=".5"/>
  <polyline points="127.78 .16 118.67 1.52 109.8 3.92 105.05 6.1 100.98 9.34 99.22 12.13 98.53 15.36 98.8 18.19 99.64 20.91 100.54 22.94 101.51 24.92 101.83 25.79 101.34 26.32 98.77 25.32 96.31 24.05 89.96 20.58 83.63 17.04" fill="none" stroke="#aaa" stroke-miterlimit="10" stroke-width=".5"/>
  <polyline points="123.17 .16 114.24 1.44 105.5 3.69 100.85 5.72 96.81 8.76 95.06 11.35 94.33 14.38 94.56 17.03 95.34 19.57 96.19 21.47 97.1 23.33 97.39 24.17 96.85 24.66 94.31 23.75 91.86 22.58 85.62 19.37 79.39 16.09" fill="none" stroke="#aaa" stroke-miterlimit="10" stroke-width=".5"/>
  <polyline points="118.35 .16 109.59 1.37 101.02 3.5 96.46 5.42 92.45 8.29 90.73 10.73 89.98 13.61 90.18 16.11 90.92 18.51 91.72 20.3 92.58 22.06 92.84 22.89 92.28 23.34 89.76 22.5 87.33 21.39 81.19 18.38 75.07 15.3" fill="none" stroke="#aaa" stroke-miterlimit="10" stroke-width=".5"/>
  <polyline points="113.49 .16 104.9 1.31 96.48 3.33 92.01 5.14 88.06 7.87 86.35 10.16 85.59 12.9 85.76 15.26 86.46 17.54 87.22 19.24 88.03 20.9 88.27 21.71 87.68 22.12 85.19 21.34 82.79 20.3 76.75 17.46 70.72 14.56" fill="none" stroke="#aaa" stroke-miterlimit="10" stroke-width=".5"/>
  <polyline points="108.69 .16 100.27 1.24 92.01 3.14 87.63 4.84 83.72 7.41 82.04 9.54 81.25 12.13 81.39 14.35 82.04 16.48 82.76 18.08 83.52 19.65 83.72 20.43 83.12 20.8 80.66 20.09 78.27 19.12 72.34 16.48 66.42 13.78" fill="none" stroke="#aaa" stroke-miterlimit="10" stroke-width=".5"/>
  <polyline points="104.02 .16 95.77 1.17 87.67 2.93 83.37 4.49 79.5 6.88 77.83 8.82 77.01 11.24 77.11 13.29 77.7 15.27 78.37 16.74 79.07 18.2 79.24 18.96 78.61 19.29 76.18 18.66 73.82 17.78 68 15.38 62.2 12.9" fill="none" stroke="#aaa" stroke-miterlimit="10" stroke-width=".5"/>
  <polyline points="99.47 .16 91.4 1.08 83.44 2.69 79.23 4.11 75.38 6.28 73.73 8.02 72.86 10.24 72.9 12.11 73.44 13.9 74.05 15.25 74.68 16.58 74.8 17.31 74.16 17.6 71.77 17.06 69.44 16.28 63.75 14.15 58.07 11.94" fill="none" stroke="#aaa" stroke-miterlimit="10" stroke-width=".5"/>
  <polyline points="94.95 .16 87.05 1 79.25 2.45 75.12 3.71 71.3 5.66 69.66 7.19 68.73 9.21 68.73 10.89 69.2 12.5 69.75 13.71 70.32 14.91 70.38 15.61 69.73 15.85 67.38 15.41 65.08 14.73 59.52 12.87 53.98 10.93" fill="none" stroke="#aaa" stroke-miterlimit="10" stroke-width=".5"/>
  <polyline points="90.34 .16 82.61 .92 74.96 2.22 70.92 3.35 67.12 5.1 65.51 6.45 64.53 8.28 64.48 9.77 64.89 11.22 65.4 12.3 65.9 13.38 65.91 14.05 65.26 14.26 62.95 13.89 60.68 13.3 55.26 11.68 49.85 9.98" fill="none" stroke="#aaa" stroke-miterlimit="10" stroke-width=".5"/>
  <polyline points="85.45 .16 77.9 .86 70.41 2.05 66.46 3.08 62.72 4.68 61.14 5.89 60.13 7.58 60.05 8.94 60.42 10.25 60.89 11.25 61.35 12.24 61.31 12.87 60.67 13.05 58.4 12.73 56.16 12.2 50.86 10.75 45.58 9.22" fill="none" stroke="#aaa" stroke-miterlimit="10" stroke-width=".5"/>
  <polyline points="80.13 .16 72.76 .83 65.45 1.97 61.6 2.95 57.94 4.49 56.4 5.63 55.41 7.25 55.33 8.55 55.68 9.81 56.13 10.76 56.57 11.7 56.5 12.31 55.88 12.47 53.64 12.17 51.43 11.66 46.23 10.27 41.04 8.81" fill="none" stroke="#aaa" stroke-miterlimit="10" stroke-width=".5"/>
  <polyline points="74.22 .16 67.03 .84 59.92 2.01 56.17 3.02 52.64 4.6 51.16 5.8 50.25 7.44 50.2 8.78 50.58 10.07 51.04 11.04 51.49 12 51.44 12.6 50.82 12.75 48.6 12.41 46.42 11.86 41.28 10.39 36.15 8.85" fill="none" stroke="#aaa" stroke-miterlimit="10" stroke-width=".5"/>
  <polyline points="67.58 .16 60.6 .91 53.7 2.21 50.08 3.35 46.73 5.1 45.32 6.48 44.55 8.28 44.59 9.78 45.03 11.21 45.54 12.27 46.04 13.33 46.05 13.95 45.43 14.1 43.23 13.64 41.08 12.98 35.97 11.22 30.86 9.4" fill="none" stroke="#aaa" stroke-miterlimit="10" stroke-width=".5"/>
  <polyline points="60.17 .16 53.39 1.04 46.74 2.59 43.25 3.97 40.16 6.06 38.85 7.79 38.29 9.88 38.46 11.67 39.02 13.38 39.61 14.62 40.2 15.86 40.31 16.49 39.71 16.65 37.54 15.95 35.42 15.06 30.3 12.75 25.19 10.4" fill="none" stroke="#aaa" stroke-miterlimit="10" stroke-width=".5"/>
  <polyline points="52.02 .16 45.46 1.23 39.1 3.15 35.74 4.91 32.97 7.48 31.83 9.75 31.52 12.26 31.85 14.47 32.58 16.59 33.29 18.1 34.03 19.59 34.24 20.22 33.72 20.35 31.59 19.25 29.52 18 24.4 14.82 19.28 11.63" fill="none" stroke="#aaa" stroke-miterlimit="10" stroke-width=".5"/>
  <polyline points="43.31 .16 36.97 1.49 30.95 3.87 27.73 6.16 25.35 9.3 24.43 12.22 24.36 15.29 24.9 18.04 25.83 20.67 26.68 22.5 27.62 24.28 27.91 24.89 27.57 24.95 25.54 23.25 23.54 21.5 18.49 17.12 13.39 12.78" fill="none" stroke="#aaa" stroke-miterlimit="10" stroke-width=".5"/>
  <polyline points="34.28 .16 28.19 1.77 22.58 4.61 19.53 7.49 17.53 11.16 16.83 14.73 16.99 18.36 17.73 21.64 18.87 24.8 19.89 26.96 21.05 29.04 21.43 29.64 21.41 29.64 19.66 27.39 17.85 25.18 13.1 19.66 8.24 14.23 8.29 14.25 8.33 14.27 8.38 14.29 8.42 14.31 8.47 14.33 8.51 14.35 8.56 14.37 8.6 14.39 8.65 14.41 8.69 14.43 8.74 14.45 8.78 14.47 8.83 14.49 8.87 14.51 8.91 14.53 8.96 14.55" fill="none" stroke="#aaa" stroke-miterlimit="10" stroke-width=".5"/>
  <polyline points="25.23 .17 19.41 2.06 14.26 5.32 11.4 8.76 9.72 12.91 9.23 17.08 9.59 21.27 10.5 25.07 11.84 28.74 13.02 31.26 14.43 33.65 14.95 34.36 15.33 34.35 14.03 31.71 12.52 29.17 8.35 22.75 3.97 16.45 4.09 16.52 4.22 16.58 4.34 16.65 4.46 16.72 4.58 16.78 4.71 16.85 4.83 16.91 4.95 16.98 5.07 17.04 5.19 17.11 5.31 17.17 5.43 17.24 5.55 17.3 5.67 17.37 5.79 17.43 5.91 17.49" fill="none" stroke="#aaa" stroke-miterlimit="10" stroke-width=".5"/>
  <polyline points="1.78 19.81 1.94 19.92 2.11 20.02 2.28 20.13 2.45 20.23" fill="none" stroke="#aaa" stroke-miterlimit="10" stroke-width=".5"/>
  <polyline points="16.45 .16 10.89 2.34 6.18 5.98 3.53 9.96 2.14 14.54 1.85 19.26 2.38 23.97 3.45 28.25 4.96 32.39 6.31 35.25 7.93 37.94 8.63 38.78 9.34 38.72 8.48 35.74 7.25 32.87" fill="none" stroke="#aaa" stroke-miterlimit="10" stroke-width=".5"/>
  <polyline points="1.7 43.94 2.52 45.35 3.54 46.56 2.96 44.55 2.08 42.61" fill="none" stroke="#aaa" stroke-miterlimit="10" stroke-width=".5"/>
</svg>