<?xml version="1.0" encoding="UTF-8"?><svg id="Ebene_1" xmlns="http://www.w3.org/2000/svg" viewBox="0 0 222 222"><polyline points="244.46 .12 237.68 1.9 231.22 4.61 227.9 6.9 225.4 10.04 224.58 12.78 224.78 15.62 225.73 18.21 227.16 20.57 228.65 22.41 230.33 24.09 231.16 24.8 232.06 25.39 231.16 24.5 230.15 23.69 226.32 20.89 222.39 18.2 228.92 19.65 235.44 21.14 240.1 22.22 244.75 23.28 247.94 23.96 251.14 24.53 253.26 24.78 255.39 24.81 256.89 24.57 258.3 24.02 259.57 23.14 260.68 22.07 262.03 20.51 263.32 18.89 265.15 16.61 267.02 14.37" style="fill:none; stroke:#aaa; stroke-miterlimit:10; stroke-width:.5px;"/><polyline points="238.56 .12 231.49 2.02 224.77 4.93 221.31 7.39 218.73 10.74 217.91 13.67 218.14 16.71 219.16 19.48 220.69 22 222.29 23.97 224.08 25.76 225 26.54 226 27.16 225.16 26.2 224.15 25.34 220.23 22.34 216.21 19.47 223.03 21.04 229.84 22.65 234.73 23.81 239.61 24.96 242.97 25.69 246.34 26.31 248.59 26.57 250.84 26.6 252.45 26.35 253.95 25.75 255.31 24.82 256.49 23.67 257.91 21.99 259.27 20.26 261.18 17.82 263.13 15.42" style="fill:none; stroke:#aaa; stroke-miterlimit:10; stroke-width:.5px;"/><polyline points="232.88 .12 225.53 2.13 218.56 5.19 214.97 7.8 212.3 11.32 211.46 14.42 211.72 17.62 212.8 20.54 214.41 23.2 216.09 25.28 217.99 27.17 218.97 27.99 220.05 28.64 219.22 27.63 218.19 26.73 214.17 23.56 210.03 20.53 217.14 22.2 224.23 23.91 229.33 25.14 234.42 26.35 237.92 27.13 241.45 27.78 243.8 28.06 246.17 28.09 247.86 27.82 249.44 27.19 250.87 26.2 252.11 24.98 253.6 23.2 255.03 21.37 257.01 18.79 259.05 16.26" style="fill:none; stroke:#aaa; stroke-miterlimit:10; stroke-width:.5px;"/><polyline points="227.49 .12 219.87 2.21 212.66 5.39 208.94 8.09 206.18 11.75 205.31 14.97 205.58 18.29 206.69 21.32 208.37 24.08 210.11 26.24 212.08 28.2 213.1 29.05 214.21 29.73 213.36 28.68 212.3 27.74 208.14 24.45 203.86 21.32 211.22 23.05 218.58 24.82 223.86 26.11 229.14 27.37 232.78 28.17 236.42 28.84 238.87 29.14 241.32 29.16 243.07 28.87 244.71 28.21 246.18 27.17 247.48 25.9 249.03 24.05 250.51 22.13 252.58 19.44 254.7 16.79" style="fill:none; stroke:#aaa; stroke-miterlimit:10; stroke-width:.5px;"/><polyline points="222.39 .12 214.52 2.26 207.06 5.51 203.22 8.28 200.36 12.02 199.45 15.31 199.72 18.72 200.85 21.82 202.57 24.64 204.35 26.85 206.35 28.86 207.38 29.73 208.5 30.42 207.58 29.35 206.47 28.39 202.14 25.03 197.68 21.82 205.29 23.58 212.9 25.4 218.34 26.71 223.79 27.99 227.53 28.81 231.28 29.49 233.78 29.79 236.29 29.81 238.08 29.5 239.75 28.82 241.27 27.74 242.59 26.43 244.19 24.52 245.73 22.54 247.88 19.77 250.1 17.04" style="fill:none; stroke:#aaa; stroke-miterlimit:10; stroke-width:.5px;"/><polyline points="217.51 .12 209.41 2.28 201.72 5.58 197.76 8.37 194.79 12.17 193.83 15.5 194.08 18.95 195.22 22.09 196.95 24.95 198.75 27.18 200.77 29.22 201.79 30.09 202.9 30.8 201.87 29.72 200.69 28.74 196.15 25.34 191.5 22.09 199.35 23.87 207.19 25.69 212.78 27.01 218.38 28.3 222.2 29.13 226.03 29.82 228.57 30.11 231.12 30.12 232.93 29.8 234.63 29.1 236.16 28 237.51 26.66 239.16 24.7 240.74 22.68 242.98 19.84 245.3 17.05" style="fill:none; stroke:#aaa; stroke-miterlimit:10; stroke-width:.5px;"/><polyline points="212.78 .12 204.46 2.29 196.53 5.61 192.46 8.41 189.37 12.24 188.36 15.57 188.59 19.05 189.73 22.2 191.47 25.08 193.27 27.32 195.29 29.37 196.29 30.23 197.36 30.96 196.2 29.88 194.94 28.9 190.18 25.48 185.32 22.21 193.4 23.98 201.47 25.8 207.19 27.12 212.92 28.41 216.81 29.23 220.71 29.91 223.28 30.2 225.86 30.2 227.68 29.88 229.38 29.16 230.93 28.03 232.29 26.67 233.98 24.68 235.61 22.63 237.95 19.74 240.37 16.91" style="fill:none; stroke:#aaa; stroke-miterlimit:10; stroke-width:.5px;"/><polyline points="208.14 .12 199.6 2.29 191.44 5.61 187.26 8.4 184.05 12.25 182.99 15.58 183.18 19.07 184.31 22.23 186.05 25.11 187.85 27.36 189.87 29.41 190.84 30.26 191.85 31 190.57 29.93 189.2 28.93 184.22 25.52 179.15 22.24 187.45 23.99 195.73 25.8 201.59 27.11 207.45 28.39 211.4 29.2 215.36 29.88 217.95 30.16 220.54 30.15 222.36 29.82 224.06 29.09 225.62 27.94 226.99 26.57 228.72 24.55 230.4 22.48 232.84 19.55 235.36 16.69" style="fill:none; stroke:#aaa; stroke-miterlimit:10; stroke-width:.5px;"/><polyline points="203.54 .12 194.77 2.29 186.39 5.61 182.09 8.39 178.76 12.24 177.65 15.56 177.81 19.06 178.93 22.22 180.66 25.09 182.46 27.34 184.47 29.39 185.4 30.23 186.36 30.99 184.94 29.93 183.48 28.92 178.27 25.52 172.97 22.23 181.49 23.96 189.99 25.76 195.98 27.05 201.96 28.32 205.97 29.12 209.99 29.8 212.59 30.07 215.2 30.05 217.02 29.71 218.72 28.97 220.28 27.81 221.66 26.42 223.43 24.38 225.16 22.29 227.7 19.33 230.34 16.44" style="fill:none; stroke:#aaa; stroke-miterlimit:10; stroke-width:.5px;"/><polyline points="198.95 .12 189.96 2.28 181.34 5.6 176.94 8.37 173.49 12.23 172.32 15.53 172.45 19.04 173.56 22.2 175.29 25.07 177.08 27.31 179.07 29.36 179.98 30.18 180.88 30.96 179.33 29.91 177.76 28.89 172.31 25.5 166.79 22.21 175.53 23.92 184.26 25.7 190.36 26.98 196.47 28.24 200.53 29.03 204.61 29.7 207.23 29.96 209.85 29.94 211.67 29.59 213.36 28.84 214.93 27.66 216.33 26.27 218.13 24.19 219.92 22.09 222.56 19.1 225.31 16.19" style="fill:none; stroke:#aaa; stroke-miterlimit:10; stroke-width:.5px;"/><polyline points="194.36 .12 185.15 2.28 176.31 5.6 171.79 8.35 168.22 12.22 167 15.51 167.09 19.02 168.19 22.17 169.91 25.04 171.7 27.27 173.68 29.33 174.56 30.14 175.39 30.92 173.72 29.89 172.04 28.86 166.36 25.48 160.61 22.18 169.57 23.88 178.52 25.64 184.75 26.9 190.98 28.16 195.1 28.94 199.22 29.59 201.86 29.85 204.49 29.82 206.31 29.46 208 28.7 209.58 27.51 210.98 26.11 212.83 24.01 214.67 21.9 217.42 18.87 220.29 15.94" style="fill:none; stroke:#aaa; stroke-miterlimit:10; stroke-width:.5px;"/><polyline points="189.79 .12 180.37 2.27 171.29 5.58 166.67 8.32 162.97 12.19 161.69 15.46 161.75 18.98 162.84 22.13 164.56 24.99 166.34 27.21 168.31 29.27 169.15 30.07 169.92 30.86 168.12 29.85 166.32 28.8 160.41 25.43 154.44 22.14 163.61 23.81 172.77 25.56 179.12 26.8 185.47 28.04 189.65 28.82 193.83 29.46 196.47 29.72 199.11 29.68 200.93 29.31 202.61 28.55 204.2 27.34 205.61 25.93 207.51 23.82 209.39 21.69 212.25 18.64 215.24 15.69" style="fill:none; stroke:#aaa; stroke-miterlimit:10; stroke-width:.5px;"/><polyline points="185.29 .12 175.64 2.26 166.35 5.55 161.62 8.27 157.79 12.12 156.46 15.35 156.48 18.86 157.55 21.99 159.25 24.83 161.02 27.03 162.97 29.08 163.79 29.87 164.48 30.66 162.53 29.68 160.62 28.63 154.46 25.31 148.26 22.04 157.65 23.68 167.02 25.4 173.49 26.63 179.95 27.86 184.17 28.61 188.4 29.25 191.05 29.5 193.69 29.45 195.5 29.08 197.18 28.31 198.76 27.1 200.19 25.68 202.12 23.56 204.06 21.43 207.04 18.35 210.15 15.4" style="fill:none; stroke:#aaa; stroke-miterlimit:10; stroke-width:.5px;"/><polyline points="180.9 .12 171.05 2.24 161.53 5.49 156.7 8.15 152.74 11.96 151.35 15.14 151.32 18.61 152.37 21.7 154.05 24.5 155.8 26.68 157.71 28.69 158.5 29.47 159.08 30.27 156.99 29.33 154.95 28.29 148.53 25.03 142.08 21.83 151.68 23.43 161.25 25.11 167.82 26.31 174.39 27.51 178.64 28.25 182.91 28.88 185.55 29.12 188.19 29.07 189.98 28.69 191.64 27.92 193.22 26.7 194.65 25.3 196.62 23.17 198.62 21.04 201.71 17.96 204.94 15.02" style="fill:none; stroke:#aaa; stroke-miterlimit:10; stroke-width:.5px;"/><polyline points="176.71 .12 166.66 2.19 156.92 5.38 151.99 7.97 147.9 11.71 146.44 14.79 146.36 18.2 147.36 21.21 149.01 23.94 150.72 26.07 152.58 28.04 153.33 28.81 153.77 29.6 151.51 28.71 149.31 27.69 142.62 24.55 135.9 21.43 145.69 22.97 155.46 24.6 162.12 25.76 168.78 26.92 173.04 27.64 177.33 28.25 179.94 28.47 182.56 28.41 184.32 28.04 185.94 27.27 187.51 26.06 188.93 24.67 190.95 22.56 192.99 20.46 196.22 17.4 199.59 14.48" style="fill:none; stroke:#aaa; stroke-miterlimit:10; stroke-width:.5px;"/><polyline points="172.79 .12 162.55 2.12 152.6 5.2 147.57 7.68 143.33 11.3 141.81 14.24 141.65 17.54 142.6 20.45 144.19 23.08 145.84 25.12 147.62 27.03 148.32 27.79 148.58 28.54 146.13 27.73 143.73 26.74 136.74 23.76 129.73 20.78 139.69 22.23 149.63 23.78 156.36 24.88 163.08 25.99 167.34 26.67 171.61 27.25 174.18 27.47 176.75 27.4 178.45 27.04 180.02 26.28 181.56 25.09 182.97 23.74 185.02 21.66 187.12 19.62 190.48 16.6 194 13.75" style="fill:none; stroke:#aaa; stroke-miterlimit:10; stroke-width:.5px;"/><polyline points="169.15 .12 158.74 2.02 148.58 4.95 143.48 7.28 139.08 10.72 137.48 13.47 137.22 16.63 138.1 19.38 139.61 21.86 141.17 23.78 142.84 25.6 143.5 26.35 143.51 27.06 140.84 26.34 138.22 25.4 130.88 22.63 123.55 19.84 133.66 21.18 143.76 22.62 150.52 23.64 157.29 24.68 161.51 25.32 165.74 25.86 168.24 26.06 170.73 25.99 172.36 25.64 173.85 24.91 175.35 23.76 176.73 22.47 178.81 20.45 180.96 18.49 184.48 15.56 188.15 12.82" style="fill:none; stroke:#aaa; stroke-miterlimit:10; stroke-width:.5px;"/><polyline points="165.76 .12 155.19 1.9 144.84 4.63 139.65 6.79 135.08 10 133.41 12.51 133.04 15.49 133.83 18.05 135.24 20.34 136.69 22.13 138.23 23.83 138.82 24.58 138.56 25.2 135.63 24.59 132.76 23.73 125.06 21.21 117.37 18.65 127.62 19.86 137.85 21.17 144.63 22.1 151.41 23.05 155.57 23.63 159.74 24.13 162.14 24.31 164.53 24.24 166.06 23.9 167.47 23.22 168.91 22.12 170.26 20.9 172.37 18.98 174.57 17.13 178.27 14.34 182.11 11.74" style="fill:none; stroke:#aaa; stroke-miterlimit:10; stroke-width:.5px;"/><polyline points="162.51 .11 151.79 1.76 141.25 4.28 135.99 6.24 131.24 9.2 129.5 11.44 128.99 14.21 129.69 16.56 130.98 18.65 132.32 20.28 133.71 21.85 134.22 22.63 133.66 23.14 130.47 22.63 127.32 21.85 119.25 19.62 111.19 17.31 121.57 18.38 131.92 19.55 138.71 20.37 145.48 21.24 149.57 21.75 153.66 22.21 155.94 22.36 158.22 22.3 159.65 21.99 160.96 21.35 162.33 20.32 163.64 19.19 165.79 17.38 168.04 15.66 171.92 13.02 175.94 10.6" style="fill:none; stroke:#aaa; stroke-miterlimit:10; stroke-width:.5px;"/><polyline points="159.3 .11 148.42 1.62 137.69 3.91 132.34 5.68 127.43 8.38 125.63 10.36 124.97 12.92 125.57 15.05 126.75 16.94 127.97 18.4 129.21 19.84 129.58 20.68 128.78 21.04 125.32 20.63 121.9 19.94 113.45 17.98 105.02 15.94 115.5 16.87 125.98 17.89 132.76 18.62 139.53 19.38 143.53 19.84 147.54 20.24 149.71 20.38 151.88 20.31 153.19 20.02 154.4 19.44 155.71 18.47 156.98 17.45 159.17 15.76 161.47 14.18 165.54 11.72 169.74 9.48" style="fill:none; stroke:#aaa; stroke-miterlimit:10; stroke-width:.5px;"/><polyline points="155.98 .11 144.94 1.49 134.02 3.57 128.6 5.17 123.52 7.62 121.67 9.35 120.87 11.71 121.36 13.65 122.44 15.34 123.55 16.65 124.64 17.97 124.77 18.84 123.85 19.08 120.14 18.76 116.45 18.15 107.64 16.45 98.84 14.65 109.45 15.45 120.04 16.34 126.82 16.96 133.6 17.63 137.53 18.02 141.46 18.37 143.53 18.48 145.59 18.4 146.8 18.13 147.91 17.58 149.16 16.68 150.39 15.74 152.64 14.17 154.98 12.74 159.24 10.46 163.62 8.41" style="fill:none; stroke:#aaa; stroke-miterlimit:10; stroke-width:.5px;"/><polyline points="152.47 .11 141.25 1.37 130.14 3.29 124.62 4.74 119.39 6.97 117.5 8.5 116.56 10.69 116.98 12.46 117.97 13.99 118.98 15.18 119.95 16.39 119.82 17.24 118.84 17.43 114.89 17.17 110.96 16.63 101.81 15.14 92.66 13.54 103.4 14.24 114.13 15.02 120.93 15.56 127.73 16.15 131.61 16.49 135.48 16.79 137.46 16.87 139.43 16.79 140.55 16.53 141.59 16.01 142.8 15.17 144 14.31 146.29 12.84 148.69 11.52 153.14 9.41 157.69 7.52" style="fill:none; stroke:#aaa; stroke-miterlimit:10; stroke-width:.5px;"/><polyline points="148.66 .1 137.26 1.29 125.94 3.07 120.32 4.42 114.95 6.49 113.02 7.87 111.96 9.94 112.32 11.57 113.24 12.99 114.19 14.09 115.06 15.22 114.74 16.04 113.7 16.2 109.54 15.99 105.41 15.51 95.95 14.17 86.48 12.72 97.38 13.34 108.26 14.04 115.11 14.52 121.95 15.05 125.8 15.35 129.65 15.61 131.57 15.68 133.47 15.59 134.53 15.34 135.51 14.85 136.69 14.04 137.88 13.24 140.23 11.86 142.68 10.63 147.31 8.64 152.02 6.87" style="fill:none; stroke:#aaa; stroke-miterlimit:10; stroke-width:.5px;"/><polyline points="144.5 .1 132.89 1.24 121.37 2.94 115.64 4.23 110.14 6.21 108.18 7.5 107.02 9.49 107.34 11.05 108.23 12.4 109.13 13.44 109.95 14.52 109.49 15.32 108.4 15.47 104.08 15.29 99.78 14.85 90.04 13.6 80.31 12.24 91.38 12.81 102.44 13.46 109.37 13.91 116.29 14.4 120.14 14.67 124 14.92 125.88 14.98 127.76 14.88 128.78 14.63 129.73 14.16 130.9 13.37 132.09 12.6 134.5 11.27 137.01 10.09 141.79 8.18 146.65 6.48" style="fill:none; stroke:#aaa; stroke-miterlimit:10; stroke-width:.5px;"/><polyline points="139.96 .1 128.14 1.23 116.39 2.91 110.55 4.17 104.93 6.13 102.93 7.39 101.72 9.37 102.02 10.91 102.9 12.23 103.79 13.25 104.59 14.33 104.06 15.12 102.94 15.27 98.5 15.1 94.08 14.67 84.1 13.45 74.13 12.13 85.41 12.68 96.68 13.31 103.72 13.75 110.74 14.22 114.65 14.49 118.54 14.73 120.43 14.78 122.31 14.68 123.33 14.43 124.27 13.96 125.45 13.18 126.66 12.42 129.13 11.08 131.7 9.92 136.62 8.02 141.62 6.34" style="fill:none; stroke:#aaa; stroke-miterlimit:10; stroke-width:.5px;"/><polyline points="135.08 .1 123.01 1.25 111.03 2.97 105.08 4.25 99.34 6.25 97.3 7.54 96.07 9.55 96.38 11.12 97.28 12.47 98.19 13.51 99.01 14.61 98.47 15.42 97.33 15.57 92.8 15.39 88.29 14.95 78.12 13.71 67.95 12.36 79.47 12.93 90.98 13.57 98.15 14.02 105.32 14.5 109.3 14.77 113.28 15.01 115.21 15.07 117.12 14.97 118.16 14.71 119.12 14.22 120.33 13.42 121.57 12.65 124.11 11.29 126.74 10.1 131.78 8.15 136.91 6.43" style="fill:none; stroke:#aaa; stroke-miterlimit:10; stroke-width:.5px;"/><polyline points="129.89 .1 117.58 1.3 105.35 3.1 99.28 4.45 93.44 6.53 91.36 7.89 90.13 9.99 90.47 11.63 91.4 13.05 92.36 14.14 93.23 15.29 92.74 16.13 91.59 16.29 87 16.1 82.44 15.63 72.11 14.32 61.77 12.89 73.55 13.49 85.31 14.18 92.66 14.65 100.01 15.16 104.09 15.45 108.17 15.7 110.16 15.77 112.14 15.66 113.23 15.39 114.23 14.88 115.49 14.05 116.76 13.23 119.37 11.81 122.07 10.56 127.22 8.52 132.46 6.72" style="fill:none; stroke:#aaa; stroke-miterlimit:10; stroke-width:.5px;"/><polyline points="124.5 .1 111.93 1.38 99.44 3.28 93.25 4.72 87.31 6.94 85.19 8.4 83.99 10.62 84.36 12.37 85.36 13.87 86.38 15.04 87.32 16.26 86.9 17.14 85.75 17.31 81.14 17.09 76.55 16.59 66.07 15.17 55.6 13.64 67.65 14.29 79.69 15.03 87.22 15.54 94.76 16.1 98.97 16.41 103.18 16.69 105.25 16.76 107.31 16.65 108.46 16.37 109.52 15.83 110.83 14.95 112.16 14.07 114.84 12.56 117.61 11.23 122.86 9.07 128.21 7.15" style="fill:none; stroke:#aaa; stroke-miterlimit:10; stroke-width:.5px;"/><polyline points="119 .1 106.16 1.46 93.43 3.49 87.11 5.03 81.07 7.4 78.91 8.99 77.74 11.34 78.16 13.22 79.23 14.83 80.32 16.09 81.34 17.38 81.03 18.31 79.87 18.49 75.24 18.24 70.63 17.69 60.02 16.15 49.42 14.49 61.75 15.21 74.07 16.01 81.81 16.57 89.55 17.18 93.9 17.52 98.24 17.83 100.41 17.91 102.56 17.8 103.78 17.49 104.9 16.92 106.28 15.98 107.66 15.05 110.4 13.44 113.25 12.01 118.6 9.7 124.05 7.64" style="fill:none; stroke:#aaa; stroke-miterlimit:10; stroke-width:.5px;"/><polyline points="113.51 .1 100.41 1.54 87.42 3.71 80.97 5.34 74.84 7.87 72.63 9.58 71.5 12.07 71.97 14.07 73.1 15.79 74.26 17.13 75.36 18.5 75.15 19.47 73.99 19.68 69.34 19.4 64.72 18.8 53.98 17.14 43.24 15.34 55.86 16.12 68.46 17 76.4 17.61 84.34 18.26 88.82 18.64 93.3 18.97 95.56 19.06 97.81 18.94 99.09 18.62 100.28 18.02 101.71 17.02 103.16 16.02 105.97 14.31 108.88 12.79 114.33 10.33 119.89 8.14" style="fill:none; stroke:#aaa; stroke-miterlimit:10; stroke-width:.5px;"/><polyline points="108.12 .11 94.76 1.62 81.52 3.89 74.95 5.62 68.73 8.28 66.48 10.1 65.36 12.72 65.87 14.82 67.06 16.64 68.28 18.06 69.45 19.49 69.33 20.51 68.16 20.73 63.48 20.42 58.82 19.78 47.94 18.01 37.06 16.1 49.96 16.94 62.83 17.87 70.96 18.52 79.09 19.22 83.7 19.62 88.31 19.98 90.65 20.07 92.97 19.96 94.32 19.62 95.56 18.99 97.05 17.94 98.55 16.88 101.43 15.08 104.42 13.47 109.97 10.88 115.64 8.57" style="fill:none; stroke:#aaa; stroke-miterlimit:10; stroke-width:.5px;"/><polyline points="102.91 .11 89.3 1.68 75.81 4.04 69.12 5.84 62.79 8.6 60.5 10.51 59.4 13.21 59.93 15.4 61.17 17.29 62.44 18.77 63.66 20.26 63.58 21.3 62.41 21.54 57.68 21.21 52.97 20.54 41.92 18.68 30.89 16.69 44.04 17.57 57.18 18.55 65.48 19.23 73.78 19.97 78.5 20.39 83.22 20.76 85.63 20.86 88.02 20.74 89.41 20.39 90.69 19.73 92.24 18.64 93.78 17.54 96.72 15.67 99.78 13.99 105.45 11.29 111.24 8.88" style="fill:none; stroke:#aaa; stroke-miterlimit:10; stroke-width:.5px;"/><polyline points="97.89 .11 84.04 1.71 70.32 4.14 63.51 5.98 57.07 8.81 54.74 10.77 53.62 13.54 54.18 15.77 55.44 17.72 56.74 19.23 57.99 20.76 57.93 21.82 56.74 22.06 51.94 21.73 47.16 21.04 35.92 19.13 24.71 17.09 38.11 17.99 51.5 19 59.96 19.7 68.41 20.45 73.22 20.89 78.03 21.27 80.48 21.37 82.92 21.25 84.35 20.89 85.66 20.21 87.24 19.09 88.81 17.96 91.83 16.04 94.96 14.31 100.75 11.54 106.67 9.06" style="fill:none; stroke:#aaa; stroke-miterlimit:10; stroke-width:.5px;"/><polyline points="93.06 .11 78.97 1.74 65.01 4.19 58.09 6.05 51.54 8.92 49.17 10.9 48.02 13.7 48.58 15.97 49.86 17.94 51.17 19.46 52.44 21.01 52.37 22.09 51.15 22.34 46.25 22 41.38 21.3 29.95 19.38 18.53 17.32 32.17 18.22 45.79 19.24 54.39 19.95 62.98 20.71 67.86 21.15 72.74 21.53 75.23 21.64 77.7 21.51 79.14 21.14 80.47 20.45 82.07 19.31 83.68 18.16 86.76 16.21 89.97 14.45 95.89 11.64 101.95 9.12" style="fill:none; stroke:#aaa; stroke-miterlimit:10; stroke-width:.5px;"/><polyline points="88.34 .11 74.02 1.74 59.83 4.21 52.79 6.08 46.13 8.96 43.72 10.94 42.54 13.77 43.09 16.04 44.38 18.01 45.7 19.55 46.96 21.1 46.85 22.19 45.61 22.44 40.61 22.1 35.64 21.41 23.99 19.48 12.35 17.42 26.21 18.33 40.06 19.34 48.79 20.05 57.51 20.81 62.45 21.25 67.4 21.63 69.9 21.73 72.39 21.6 73.85 21.22 75.18 20.53 76.81 19.38 78.44 18.22 81.59 16.24 84.86 14.47 90.92 11.64 97.12 9.1" style="fill:none; stroke:#aaa; stroke-miterlimit:10; stroke-width:.5px;"/><polyline points="83.66 .11 69.12 1.75 54.7 4.22 47.55 6.09 40.77 8.98 38.32 10.95 37.1 13.78 37.65 16.06 38.93 18.03 40.25 19.57 41.52 21.13 41.36 22.22 40.09 22.46 34.98 22.13 29.9 21.45 18.03 19.53 6.18 17.47 20.26 18.37 34.33 19.39 43.18 20.09 52.03 20.85 57.03 21.28 62.02 21.66 64.54 21.76 67.05 21.62 68.51 21.24 69.85 20.54 71.49 19.38 73.15 18.21 76.37 16.23 79.71 14.45 85.92 11.6 92.26 9.05" style="fill:none; stroke:#aaa; stroke-miterlimit:10; stroke-width:.5px;"/><polyline points="79 .1 64.24 1.75 49.59 4.22 42.32 6.1 35.43 8.98 32.94 10.94 31.67 13.79 32.21 16.06 33.5 18.03 34.82 19.57 36.08 21.13 35.88 22.24 34.58 22.47 29.36 22.15 24.16 21.47 12.07 19.56 0 17.51 14.3 18.41 28.59 19.42 37.57 20.12 46.54 20.87 51.59 21.3 56.64 21.67 59.17 21.77 61.7 21.63 63.16 21.24 64.5 20.53 66.17 19.36 67.85 18.19 71.14 16.2 74.55 14.41 80.9 11.55 87.39 8.99" style="fill:none; stroke:#aaa; stroke-miterlimit:10; stroke-width:.5px;"/></svg>