<?xml version="1.0" encoding="UTF-8"?>
<svg id="Ebene_1" xmlns="http://www.w3.org/2000/svg" width="222" height="222" viewBox="0 0 222 222">
  <polyline points="183.43 202.06 183.42 202.09 183.41 202.12 183.37 202.15 183.33 202.16 177.67 202.16 172.02 202.16 172.91 206.79 173.79 211.41 184.95 211.41 196.11 211.41 195.21 206.76 194.31 202.12 194.31 202.07 194.33 202.03 194.37 202 194.41 201.99 199.92 201.99 205.42 201.99 207.59 196.52 209.76 191.06 207.94 181.62 206.13 172.18 204 177.53 201.87 182.88 201.83 182.93 201.77 182.95 196.29 182.95 190.81 182.95 191.75 187.78 192.69 192.62 192.69 192.66 192.67 192.7 192.63 192.73 192.59 192.74 187.11 192.74 181.63 192.74 182.53 197.39 183.43 202.04 183.43 202.05 183.43 202.06" fill="none" stroke="#aaa" stroke-miterlimit="10" stroke-width=".5"/>
  <polyline points="171.79 202.06 171.8 202.02 171.82 201.99 171.85 201.96 171.9 201.95 177.55 201.95 183.2 201.95 182.3 197.3 181.4 192.66 181.4 192.61 181.42 192.57 181.46 192.54 181.5 192.53 186.98 192.53 192.46 192.53 191.52 187.7 190.59 182.86 190.59 182.82 190.61 182.78 190.64 182.75 190.69 182.74 196.19 182.74 201.7 182.74 203.88 177.26 206.06 171.77 206.11 171.72 206.17 171.71 206.23 171.73 206.26 171.79 208.11 181.42 209.97 191.05 209.97 191.08 209.96 191.1 207.77 196.62 205.59 202.13 205.55 202.18 205.49 202.2 200.01 202.2 194.54 202.2 195.44 206.85 196.33 211.5 196.33 211.54 196.31 211.58 196.28 211.61 196.23 211.62 184.97 211.62 173.7 211.62 173.64 211.6 173.6 211.54 172.7 206.81 171.79 202.08 171.79 202.07 171.79 202.06" fill="none" stroke="#aaa" stroke-miterlimit="10" stroke-width=".5"/>
  <polyline points="196.13 211.52 196.13 211.5 196.14 211.48 198 206.77 199.87 202.06 199.93 202 200.01 202 200.06 202.05 200.06 202.13 198.2 206.84 196.33 211.56 196.27 211.61 196.19 211.61 196.15 211.58 196.13 211.52" fill="none" stroke="#aaa" stroke-miterlimit="10" stroke-width=".5"/>
  <polyline points="201.67 182.84 201.69 182.78 201.75 182.74 201.83 182.76 201.87 182.82 203.73 192.45 205.59 202.08 205.57 202.15 205.51 202.2 205.43 202.18 205.39 202.12 203.53 192.49 201.67 182.86 201.67 182.85 201.67 182.84" fill="none" stroke="#aaa" stroke-miterlimit="10" stroke-width=".5"/>
  <polyline points="190.58 182.84 190.59 182.82 190.59 182.8 192.8 177.29 195.01 171.77 195.04 171.73 195.1 171.71 200.63 171.71 206.16 171.71 206.23 171.74 206.26 171.81 206.23 171.88 206.16 171.91 200.67 171.91 195.17 171.91 192.98 177.4 190.78 182.88 190.73 182.94 190.65 182.94 190.6 182.9 190.58 182.84" fill="none" stroke="#aaa" stroke-miterlimit="10" stroke-width=".5"/>
  <polyline points="171.79 202.06 171.79 202.04 171.8 202.02 173.98 196.5 176.16 190.99 176.2 190.94 176.26 190.92 179.2 190.92 182.14 190.92 182.21 190.95 182.24 191.03 182.21 191.1 182.14 191.13 179.23 191.13 176.33 191.13 174.16 196.61 171.99 202.09 171.94 202.15 171.86 202.15 171.81 202.11 171.79 202.06" fill="none" stroke="#aaa" stroke-miterlimit="10" stroke-width=".5"/>
  <polyline points="181.4 192.64 181.4 192.62 181.4 192.6 183.6 187.08 185.8 181.56 185.84 181.52 185.89 181.5 188.54 181.5 191.18 181.5 191.26 181.53 191.29 181.6 191.26 181.67 191.18 181.7 188.57 181.7 185.96 181.7 183.78 187.19 181.6 192.67 181.54 192.73 181.46 192.73 181.42 192.69 181.4 192.64" fill="none" stroke="#aaa" stroke-miterlimit="10" stroke-width=".5"/>
</svg>