<?xml version="1.0" encoding="UTF-8"?>
<svg id="Ebene_1" xmlns="http://www.w3.org/2000/svg" width="222" height="222" viewBox="0 0 222 222">
  <polyline points="24.57 78.9 19.09 78.9 13.61 78.9 15.59 91.83 17.57 104.77 23.05 104.77 28.54 104.77 27.93 100.88 27.33 96.98 27.34 96.94 27.36 96.9 27.39 96.87 27.44 96.86 39.92 96.86 52.41 96.86 51.64 91.87 50.88 86.87 38.38 86.87 25.88 86.87 25.81 86.85 25.78 86.78 25.17 82.84 24.57 78.9" fill="none" stroke="#aaa" stroke-miterlimit="10" stroke-width=".5"/>
  <polyline points="13.38 78.8 13.39 78.76 13.41 78.73 13.44 78.7 13.48 78.69 19.07 78.69 24.66 78.69 24.73 78.72 24.76 78.78 25.36 82.72 25.97 86.66 38.47 86.66 50.97 86.66 51.04 86.69 51.07 86.75 51.85 91.85 52.63 96.95 52.63 97 52.61 97.04 52.57 97.06 52.53 97.07 40.04 97.07 27.56 97.07 28.16 100.96 28.76 104.86 28.76 104.9 28.74 104.94 28.7 104.97 28.66 104.98 23.07 104.98 17.48 104.98 17.42 104.95 17.38 104.89 15.38 91.85 13.38 78.81 13.38 78.8 13.38 78.8" fill="none" stroke="#aaa" stroke-miterlimit="10" stroke-width=".5"/>
  <polyline points="28.55 104.87 28.56 104.85 28.56 104.83 30.53 100.87 32.49 96.92 32.55 96.87 32.63 96.88 32.68 96.94 32.68 97.01 30.71 100.97 28.75 104.92 28.69 104.97 28.61 104.97 28.57 104.93 28.55 104.87" fill="none" stroke="#aaa" stroke-miterlimit="10" stroke-width=".5"/>
  <polyline points="25.77 86.77 25.78 86.74 25.79 86.72 28.14 82.02 30.48 77.31 30.52 77.27 30.58 77.26 43.13 77.26 55.69 77.26 55.75 77.28 55.79 77.35 56.57 82.42 57.35 87.5 57.35 87.53 57.34 87.56 54.98 92.29 52.62 97.01 52.56 97.07 52.48 97.06 52.43 97 52.44 96.92 54.79 92.21 57.14 87.5 56.37 82.48 55.6 77.46 43.12 77.46 30.64 77.46 28.31 82.14 25.97 86.81 25.91 86.87 25.83 86.86 25.79 86.82 25.77 86.77" fill="none" stroke="#aaa" stroke-miterlimit="10" stroke-width=".5"/>
  <polyline points="13.38 78.8 13.38 78.77 13.39 78.75 15.75 74.03 18.11 69.32 18.15 69.27 18.2 69.26 23.79 69.26 29.37 69.26 29.44 69.28 29.48 69.35 30.08 73.35 30.68 77.35 30.66 77.42 30.59 77.46 30.52 77.44 30.47 77.38 29.88 73.42 29.28 69.47 23.78 69.47 18.27 69.47 15.92 74.15 13.58 78.84 13.52 78.89 13.44 78.89 13.4 78.85 13.38 78.8" fill="none" stroke="#aaa" stroke-miterlimit="10" stroke-width=".5"/>
  <polyline points="24.55 78.8 24.56 78.77 24.56 78.75 26.92 74.03 29.28 69.32 29.34 69.26 29.42 69.27 29.47 69.33 29.47 69.41 27.11 74.13 24.75 78.84 24.69 78.89 24.61 78.89 24.57 78.85 24.55 78.8" fill="none" stroke="#aaa" stroke-miterlimit="10" stroke-width=".5"/>
  <polyline points="50.87 86.77 50.87 86.74 50.88 86.72 53.24 82.02 55.59 77.31 55.65 77.26 55.73 77.27 55.78 77.33 55.78 77.41 53.42 82.11 51.06 86.81 51 86.87 50.92 86.86 50.88 86.82 50.87 86.77" fill="none" stroke="#aaa" stroke-miterlimit="10" stroke-width=".5"/>
</svg>