<?xml version="1.0" encoding="UTF-8"?>
<svg id="Ebene_1" xmlns="http://www.w3.org/2000/svg" width="222" height="222" viewBox="0 0 222 222">
  <polyline points="201.99 .81 207.57 3.04 213.15 5.28" fill="none" stroke="#aaa" stroke-miterlimit="10" stroke-width=".5"/>
  <polyline points="195.31 .8 201.11 3.1 206.9 5.4 211.02 7.76 215.14 10.12" fill="none" stroke="#aaa" stroke-miterlimit="10" stroke-width=".5"/>
  <polyline points="188.81 .8 194.82 3.14 200.83 5.49 205.08 7.89 209.34 10.3 212.22 12.65 215.1 14.99 216.98 17.16 218.86 19.32" fill="none" stroke="#aaa" stroke-miterlimit="10" stroke-width=".5"/>
  <polyline points="182.41 .8 188.64 3.18 194.86 5.55 199.25 8 203.64 10.44 206.6 12.82 209.55 15.2 211.46 17.4 213.38 19.59 214.65 21.46 215.92 23.34 216.95 24.77 217.98 26.2" fill="none" stroke="#aaa" stroke-miterlimit="10" stroke-width=".5"/>
  <polyline points="176.11 .8 182.54 3.2 188.98 5.6 193.5 8.07 198.02 10.54 201.05 12.95 204.07 15.36 206.02 17.57 207.96 19.78 209.24 21.66 210.53 23.54 211.57 24.97 212.61 26.4 213.83 27.23 215.06 28.07 216.87 28.19 218.69 28.3" fill="none" stroke="#aaa" stroke-miterlimit="10" stroke-width=".5"/>
  <polyline points="169.9 .8 176.55 3.22 183.2 5.64 187.85 8.12 192.5 10.61 195.59 13.03 198.68 15.45 200.65 17.67 202.62 19.89 203.91 21.77 205.2 23.66 206.26 25.07 207.31 26.49 208.57 27.3 209.83 28.11 211.73 28.18 213.63 28.26" fill="none" stroke="#aaa" stroke-miterlimit="10" stroke-width=".5"/>
  <polyline points="163.8 .8 170.67 3.22 177.54 5.65 182.31 8.14 187.09 10.64 190.24 13.06 193.39 15.49 195.38 17.7 197.37 19.92 198.66 21.8 199.96 23.68 201.02 25.07 202.08 26.47 203.38 27.25 204.67 28.03 206.66 28.06 208.66 28.08" fill="none" stroke="#aaa" stroke-miterlimit="10" stroke-width=".5"/>
  <polyline points="157.8 .8 164.89 3.22 171.98 5.64 176.88 8.13 181.78 10.62 184.99 13.05 188.19 15.47 190.2 17.68 192.2 19.89 193.49 21.75 194.78 23.61 195.85 24.98 196.92 26.35 198.25 27.09 199.59 27.84 201.68 27.81 203.78 27.78" fill="none" stroke="#aaa" stroke-miterlimit="10" stroke-width=".5"/>
  <polyline points="151.9 .8 159.21 3.21 166.51 5.62 171.54 8.1 176.57 10.58 179.83 12.99 183.09 15.39 185.1 17.59 187.11 19.78 188.39 21.62 189.68 23.45 190.75 24.79 191.82 26.13 193.2 26.83 194.58 27.53 196.78 27.45 198.98 27.37" fill="none" stroke="#aaa" stroke-miterlimit="10" stroke-width=".5"/>
  <polyline points="146.07 .8 153.6 3.19 161.13 5.58 166.28 8.04 171.42 10.5 174.73 12.88 178.04 15.27 180.06 17.44 182.08 19.6 183.35 21.41 184.62 23.22 185.69 24.52 186.77 25.82 188.19 26.47 189.61 27.13 191.92 26.99 194.23 26.86" fill="none" stroke="#aaa" stroke-miterlimit="10" stroke-width=".5"/>
  <polyline points="140.32 .8 148.07 3.17 155.82 5.53 161.09 7.96 166.35 10.39 169.7 12.74 173.06 15.1 175.08 17.24 177.09 19.37 178.35 21.14 179.61 22.91 180.68 24.17 181.76 25.43 183.22 26.04 184.69 26.65 187.12 26.46 189.55 26.26" fill="none" stroke="#aaa" stroke-miterlimit="10" stroke-width=".5"/>
  <polyline points="134.62 .81 142.6 3.13 150.57 5.46 155.96 7.86 161.34 10.25 164.73 12.57 168.13 14.89 170.14 16.99 172.16 19.09 173.4 20.82 174.64 22.55 175.71 23.76 176.79 24.98 178.3 25.54 179.81 26.09 182.38 25.85 184.94 25.6" fill="none" stroke="#aaa" stroke-miterlimit="10" stroke-width=".5"/>
  <polyline points="128.97 .81 137.18 3.1 145.38 5.38 150.88 7.74 156.37 10.09 159.81 12.37 163.24 14.65 165.25 16.7 167.25 18.76 168.47 20.44 169.69 22.12 170.77 23.29 171.84 24.46 173.4 24.97 174.97 25.48 177.66 25.18 180.36 24.88" fill="none" stroke="#aaa" stroke-miterlimit="10" stroke-width=".5"/>
  <polyline points="123.37 .81 131.8 3.05 140.23 5.3 145.84 7.6 151.45 9.91 154.92 12.14 158.39 14.37 160.38 16.38 162.38 18.39 163.58 20.02 164.77 21.66 165.84 22.78 166.92 23.89 168.54 24.35 170.16 24.81 173 24.46 175.84 24.1" fill="none" stroke="#aaa" stroke-miterlimit="10" stroke-width=".5"/>
  <polyline points="117.8 .82 126.45 3.01 135.11 5.2 140.83 7.45 146.55 9.71 150.05 11.89 153.55 14.07 155.53 16.02 157.52 17.98 158.69 19.56 159.86 21.15 160.93 22.22 162 23.29 163.68 23.7 165.35 24.11 168.34 23.71 171.33 23.31" fill="none" stroke="#aaa" stroke-miterlimit="10" stroke-width=".5"/>
  <polyline points="112.23 .82 121.12 2.96 130 5.1 135.83 7.3 141.67 9.5 145.2 11.63 148.73 13.76 150.69 15.66 152.66 17.56 153.81 19.09 154.96 20.63 156.03 21.65 157.1 22.66 158.83 23.03 160.57 23.39 163.72 22.95 166.86 22.5" fill="none" stroke="#aaa" stroke-miterlimit="10" stroke-width=".5"/>
  <polyline points="106.67 .82 115.77 2.91 124.88 4.99 130.82 7.14 136.77 9.29 140.33 11.36 143.89 13.43 145.84 15.28 147.79 17.13 148.91 18.61 150.03 20.1 151.11 21.07 152.18 22.04 153.98 22.36 155.78 22.68 159.08 22.2 162.38 21.72" fill="none" stroke="#aaa" stroke-miterlimit="10" stroke-width=".5"/>
  <polyline points="101.07 .83 110.41 2.86 119.74 4.89 125.8 6.99 131.85 9.09 135.44 11.1 139.02 13.12 140.96 14.92 142.9 16.72 143.99 18.15 145.09 19.59 146.17 20.51 147.24 21.44 149.11 21.72 150.97 21.99 154.45 21.48 157.92 20.96" fill="none" stroke="#aaa" stroke-miterlimit="10" stroke-width=".5"/>
  <polyline points="95.44 .83 105 2.82 114.56 4.8 120.73 6.85 126.89 8.89 130.51 10.86 134.12 12.83 136.05 14.58 137.97 16.33 139.04 17.72 140.12 19.11 141.2 19.99 142.28 20.88 144.21 21.12 146.15 21.36 149.79 20.81 153.43 20.26" fill="none" stroke="#aaa" stroke-miterlimit="10" stroke-width=".5"/>
  <polyline points="89.75 .83 99.54 2.77 109.33 4.71 115.6 6.71 121.88 8.72 125.52 10.64 129.17 12.57 131.08 14.27 132.99 15.98 134.04 17.32 135.1 18.67 136.19 19.52 137.28 20.37 139.28 20.57 141.29 20.78 145.1 20.21 148.91 19.63" fill="none" stroke="#aaa" stroke-miterlimit="10" stroke-width=".5"/>
  <polyline points="84.01 .84 94.02 2.74 104.03 4.64 110.42 6.6 116.81 8.56 120.49 10.45 124.17 12.34 126.07 14 127.96 15.67 129 16.98 130.04 18.29 131.14 19.11 132.24 19.92 134.32 20.1 136.4 20.27 140.39 19.68 144.38 19.08" fill="none" stroke="#aaa" stroke-miterlimit="10" stroke-width=".5"/>
  <polyline points="78.19 .84 88.43 2.71 98.67 4.58 105.17 6.51 111.67 8.44 115.39 10.29 119.1 12.14 120.99 13.78 122.88 15.41 123.91 16.69 124.93 17.97 126.04 18.76 127.15 19.54 129.31 19.69 131.47 19.84 135.63 19.22 139.79 18.6" fill="none" stroke="#aaa" stroke-miterlimit="10" stroke-width=".5"/>
  <polyline points="72.31 .84 82.77 2.68 93.24 4.53 99.85 6.43 106.46 8.33 110.22 10.16 113.97 11.99 115.86 13.6 117.75 15.21 118.76 16.46 119.77 17.72 120.9 18.48 122.02 19.24 124.26 19.37 126.49 19.49 130.82 18.85 135.16 18.21" fill="none" stroke="#aaa" stroke-miterlimit="10" stroke-width=".5"/>
  <polyline points="66.34 .84 77.03 2.67 87.72 4.49 94.45 6.38 101.18 8.27 104.98 10.07 108.77 11.88 110.66 13.47 112.55 15.07 113.55 16.3 114.56 17.54 115.7 18.28 116.85 19.02 119.16 19.13 121.47 19.24 125.98 18.57 130.48 17.91" fill="none" stroke="#aaa" stroke-miterlimit="10" stroke-width=".5"/>
  <polyline points="60.28 .84 71.19 2.66 82.11 4.48 88.96 6.36 95.81 8.23 99.65 10.03 103.49 11.83 105.39 13.42 107.28 15 108.28 16.22 109.28 17.45 110.45 18.17 111.62 18.9 114.01 18.99 116.4 19.08 121.08 18.39 125.76 17.71" fill="none" stroke="#aaa" stroke-miterlimit="10" stroke-width=".5"/>
  <polyline points="54.12 .84 65.26 2.66 76.4 4.48 83.37 6.36 90.35 8.24 94.24 10.04 98.13 11.84 100.03 13.42 101.93 15.01 102.93 16.22 103.94 17.44 105.13 18.16 106.32 18.88 108.8 18.95 111.27 19.03 116.11 18.32 120.96 17.61" fill="none" stroke="#aaa" stroke-miterlimit="10" stroke-width=".5"/>
  <polyline points="47.86 .84 59.23 2.67 70.6 4.5 77.69 6.4 84.79 8.29 88.74 10.1 92.68 11.91 94.6 13.5 96.52 15.09 97.52 16.31 98.53 17.53 99.75 18.25 100.97 18.96 103.52 19.02 106.08 19.08 111.08 18.35 116.09 17.62" fill="none" stroke="#aaa" stroke-miterlimit="10" stroke-width=".5"/>
  <polyline points="41.52 .84 53.11 2.69 64.71 4.54 71.93 6.46 79.15 8.37 83.16 10.2 87.16 12.04 89.1 13.64 91.03 15.24 92.05 16.48 93.07 17.71 94.32 18.42 95.57 19.13 98.21 19.18 100.84 19.23 106 18.48 111.17 17.72" fill="none" stroke="#aaa" stroke-miterlimit="10" stroke-width=".5"/>
  <polyline points="35.1 .84 46.92 2.72 58.73 4.6 66.09 6.55 73.44 8.49 77.51 10.35 81.58 12.21 83.54 13.84 85.49 15.46 86.53 16.71 87.56 17.96 88.84 18.67 90.13 19.39 92.84 19.43 95.56 19.47 100.88 18.68 106.21 17.9" fill="none" stroke="#aaa" stroke-miterlimit="10" stroke-width=".5"/>
  <polyline points="28.55 .84 40.6 2.76 52.65 4.68 60.13 6.67 67.62 8.66 71.76 10.56 75.89 12.46 77.88 14.12 79.87 15.78 80.92 17.05 81.97 18.31 83.29 19.04 84.61 19.77 87.41 19.8 90.21 19.83 95.69 19.01 101.17 18.19" fill="none" stroke="#aaa" stroke-miterlimit="10" stroke-width=".5"/>
  <polyline points="21.81 .83 34.08 2.82 46.36 4.8 53.98 6.85 61.61 8.9 65.82 10.86 70.04 12.82 72.07 14.53 74.1 16.25 75.18 17.55 76.26 18.86 77.62 19.6 78.98 20.34 81.86 20.37 84.74 20.39 90.36 19.54 95.99 18.68" fill="none" stroke="#aaa" stroke-miterlimit="10" stroke-width=".5"/>
  <polyline points="14.8 .83 27.3 2.9 39.8 4.97 47.58 7.12 55.35 9.26 59.66 11.3 63.96 13.35 66.04 15.14 68.13 16.93 69.25 18.29 70.37 19.65 71.78 20.42 73.2 21.2 76.15 21.22 79.11 21.24 84.87 20.34 90.63 19.44" fill="none" stroke="#aaa" stroke-miterlimit="10" stroke-width=".5"/>
  <polyline points="7.51 .82 20.24 3.01 32.97 5.2 40.91 7.47 48.84 9.73 53.25 11.89 57.65 14.06 59.81 15.94 61.96 17.83 63.14 19.27 64.31 20.71 65.78 21.52 67.25 22.34 70.28 22.36 73.32 22.38 79.2 21.43 85.07 20.49" fill="none" stroke="#aaa" stroke-miterlimit="10" stroke-width=".5"/>
  <polyline points="0 .81 12.96 3.15 25.92 5.48 34.02 7.89 42.12 10.3 46.64 12.6 51.16 14.9 53.4 16.91 55.63 18.92 56.87 20.45 58.11 21.99 59.64 22.86 61.17 23.73 64.29 23.75 67.4 23.78 73.39 22.77 79.37 21.77" fill="none" stroke="#aaa" stroke-miterlimit="10" stroke-width=".5"/>
</svg>