<?xml version="1.0" encoding="UTF-8"?><svg id="Ebene_1" xmlns="http://www.w3.org/2000/svg" viewBox="0 0 222 222"><polyline points="220.95 .02 228.02 3.91 234.6 8.57 239.06 12.64 242.99 17.21 245.59 21.05 247.81 25.1 249.29 28.24 250.74 31.39 251.89 33.48 253.46 35.25 255.48 36.04 257.67 35.85 261.47 34.36 265.04 32.34 271.24 28.23 277.28 23.89" style="fill:none; stroke:#aaa; stroke-miterlimit:10; stroke-width:.5px;"/><polyline points="215.52 .02 222.8 3.84 229.6 8.46 234.16 12.46 238.19 16.99 240.82 20.76 243.06 24.76 244.54 27.85 245.98 30.95 247.13 33 248.71 34.71 250.79 35.45 253.02 35.21 256.96 33.66 260.67 31.61 267.14 27.46 273.45 23.07" style="fill:none; stroke:#aaa; stroke-miterlimit:10; stroke-width:.5px;"/><polyline points="209.92 .02 217.42 3.81 224.45 8.41 229.12 12.37 233.26 16.88 235.92 20.62 238.19 24.6 239.67 27.66 241.11 30.73 242.27 32.75 243.86 34.42 246.02 35.11 248.29 34.83 252.38 33.23 256.24 31.13 262.98 26.91 269.57 22.47" style="fill:none; stroke:#aaa; stroke-miterlimit:10; stroke-width:.5px;"/><polyline points="204.11 .02 211.84 3.81 219.09 8.43 223.88 12.4 228.13 16.94 230.85 20.68 233.16 24.68 234.65 27.74 236.1 30.8 237.27 32.82 238.89 34.46 241.12 35.11 243.46 34.8 247.71 33.13 251.74 30.97 258.76 26.65 265.65 22.12" style="fill:none; stroke:#aaa; stroke-miterlimit:10; stroke-width:.5px;"/><polyline points="198.08 .02 206.05 3.85 213.53 8.54 218.46 12.56 222.82 17.16 225.6 20.95 227.96 25 229.47 28.08 230.95 31.18 232.14 33.21 233.8 34.84 236.13 35.47 238.54 35.11 242.96 33.36 247.16 31.12 254.49 26.67 261.69 22" style="fill:none; stroke:#aaa; stroke-miterlimit:10; stroke-width:.5px;"/><polyline points="191.9 .01 200.11 3.92 207.84 8.71 212.9 12.8 217.39 17.51 220.23 21.36 222.64 25.49 224.19 28.64 225.69 31.78 226.92 33.84 228.63 35.48 231.06 36.08 233.55 35.68 238.16 33.84 242.55 31.5 250.19 26.88 257.71 22.04" style="fill:none; stroke:#aaa; stroke-miterlimit:10; stroke-width:.5px;"/><polyline points="185.66 0 194.12 4 202.09 8.91 207.29 13.09 211.91 17.9 214.82 21.84 217.29 26.07 218.86 29.27 220.41 32.48 221.66 34.56 223.43 36.21 225.96 36.79 228.55 36.35 233.34 34.41 237.92 31.97 245.89 27.17 253.73 22.15" style="fill:none; stroke:#aaa; stroke-miterlimit:10; stroke-width:.5px;"/><polyline points="179.48 0 188.2 4.08 196.4 9.09 201.74 13.35 206.48 18.26 209.46 22.28 211.98 26.58 213.58 29.84 215.16 33.1 216.45 35.21 218.27 36.86 220.9 37.42 223.57 36.93 228.56 34.9 233.33 32.36 241.63 27.38 249.79 22.19" style="fill:none; stroke:#aaa; stroke-miterlimit:10; stroke-width:.5px;"/><polyline points="173.48 0 182.44 4.12 190.88 9.2 196.35 13.5 201.21 18.49 204.24 22.55 206.81 26.91 208.43 30.19 210.03 33.48 211.35 35.61 213.21 37.25 215.94 37.77 218.69 37.24 223.87 35.12 228.83 32.49 237.46 27.37 245.96 22.03" style="fill:none; stroke:#aaa; stroke-miterlimit:10; stroke-width:.5px;"/><polyline points="167.77 0 176.96 4.11 185.63 9.2 191.22 13.51 196.18 18.5 199.26 22.55 201.86 26.92 203.48 30.2 205.09 33.48 206.42 35.6 208.31 37.2 211.12 37.67 213.95 37.1 219.32 34.91 224.46 32.22 233.42 27 242.26 21.57" style="fill:none; stroke:#aaa; stroke-miterlimit:10; stroke-width:.5px;"/><polyline points="162.42 0 171.82 4.05 180.72 9.08 186.4 13.3 191.46 18.25 194.56 22.23 197.17 26.54 198.79 29.76 200.37 32.98 201.71 35.05 203.6 36.59 206.5 37.01 209.39 36.41 214.92 34.17 220.25 31.46 229.55 26.2 238.73 20.76" style="fill:none; stroke:#aaa; stroke-miterlimit:10; stroke-width:.5px;"/><polyline points="157.47 0 167.06 3.91 176.18 8.8 181.93 12.87 187.08 17.68 190.17 21.52 192.78 25.71 194.36 28.82 195.91 31.93 197.23 33.93 199.11 35.38 202.06 35.73 205 35.11 210.7 32.86 216.21 30.16 225.84 24.96 235.36 19.58" style="fill:none; stroke:#aaa; stroke-miterlimit:10; stroke-width:.5px;"/><polyline points="152.89 .02 162.67 3.71 172 8.38 177.8 12.23 183.02 16.83 186.09 20.46 188.67 24.46 190.2 27.4 191.7 30.35 192.99 32.25 194.83 33.57 197.84 33.85 200.81 33.21 206.68 30.99 212.38 28.34 222.36 23.28 232.26 18.05" style="fill:none; stroke:#aaa; stroke-miterlimit:10; stroke-width:.5px;"/><polyline points="148.63 .03 158.57 3.46 168.12 7.83 173.94 11.4 179.22 15.73 182.25 19.1 184.79 22.86 186.25 25.59 187.67 28.33 188.92 30.11 190.72 31.29 193.76 31.49 196.77 30.85 202.81 28.69 208.7 26.14 219.05 21.29 229.33 16.29" style="fill:none; stroke:#aaa; stroke-miterlimit:10; stroke-width:.5px;"/><polyline points="144.56 .05 154.66 3.17 164.42 7.21 170.25 10.46 175.59 14.48 178.56 17.55 181.05 21.02 182.43 23.52 183.76 26.04 184.97 27.67 186.7 28.7 189.78 28.84 192.83 28.21 199.03 26.14 205.12 23.73 215.85 19.15 226.54 14.45" style="fill:none; stroke:#aaa; stroke-miterlimit:10; stroke-width:.5px;"/><polyline points="140.55 .06 150.79 2.88 160.75 6.56 166.59 9.48 171.99 13.15 174.9 15.91 177.33 19.1 178.63 21.36 179.87 23.64 181.03 25.13 182.67 26.03 185.77 26.12 188.83 25.52 195.17 23.59 201.42 21.36 212.49 17.14 223.52 12.8 223.49 12.82 223.47 12.84 223.45 12.85 223.42 12.87 223.4 12.88 223.38 12.9 223.36 12.91 223.33 12.93 223.31 12.95 223.29 12.96 223.27 12.98 223.24 12.99 223.22 13.01 223.2 13.02 223.17 13.04 223.15 13.05" style="fill:none; stroke:#aaa; stroke-miterlimit:10; stroke-width:.5px;"/><polyline points="136.46 .08 146.81 2.59 156.93 5.91 162.77 8.51 168.22 11.84 171.09 14.29 173.49 17.19 174.73 19.22 175.87 21.29 176.95 22.67 178.49 23.48 181.51 23.58 184.5 23.06 190.81 21.36 197.04 19.38 208.16 15.61 219.25 11.75 219.12 11.83 219 11.91 218.87 11.98 218.75 12.06 218.62 12.13 218.5 12.21 218.38 12.28 218.26 12.35 218.13 12.43 218.01 12.5 217.89 12.57 217.77 12.65 217.65 12.72 217.53 12.79 217.41 12.86 217.29 12.94" style="fill:none; stroke:#aaa; stroke-miterlimit:10; stroke-width:.5px;"/><polyline points="132.14 .09 142.61 2.35 152.89 5.35 158.75 7.68 164.28 10.71 167.1 12.91 169.49 15.56 170.66 17.4 171.73 19.29 172.75 20.56 174.2 21.29 177.15 21.41 180.1 20.96 186.39 19.44 192.62 17.68 203.81 14.3 214.98 10.84 214.75 10.97 214.52 11.09 214.3 11.21 214.07 11.33 213.85 11.45 213.63 11.57 213.41 11.69 213.19 11.8 212.97 11.92 212.75 12.04 212.54 12.15 212.33 12.27 212.11 12.38 211.9 12.49 211.69 12.6 211.48 12.72" style="fill:none; stroke:#aaa; stroke-miterlimit:10; stroke-width:.5px;"/><polyline points="127.47 .1 138.09 2.17 148.55 4.93 154.45 7.06 160.05 9.86 162.85 11.86 165.24 14.33 166.37 16.02 167.38 17.77 168.36 18.96 169.73 19.64 172.65 19.76 175.57 19.36 181.87 17.99 188.14 16.38 199.43 13.3 210.71 10.15 210.38 10.31 210.06 10.46 209.74 10.62 209.42 10.77 209.11 10.92 208.8 11.07 208.49 11.22 208.18 11.37 207.88 11.52 207.58 11.67 207.28 11.81 206.98 11.95 206.69 12.1 206.39 12.24 206.11 12.38 205.82 12.52" style="fill:none; stroke:#aaa; stroke-miterlimit:10; stroke-width:.5px;"/><polyline points="122.41 .11 133.2 2.05 143.84 4.67 149.81 6.67 155.5 9.32 158.3 11.19 160.7 13.54 161.81 15.14 162.79 16.81 163.74 17.95 165.08 18.58 167.99 18.71 170.9 18.35 177.25 17.06 183.57 15.56 195.01 12.67 206.44 9.71 206.03 9.9 205.62 10.08 205.21 10.26 204.81 10.44 204.42 10.62 204.02 10.8 203.63 10.97 203.25 11.14 202.87 11.31 202.49 11.48 202.12 11.65 201.75 11.82 201.38 11.98 201.02 12.14 200.66 12.3 200.31 12.46" style="fill:none; stroke:#aaa; stroke-miterlimit:10; stroke-width:.5px;"/><polyline points="117.01 .11 127.98 2 138.83 4.53 144.87 6.47 150.67 9.05 153.49 10.85 155.92 13.15 157.03 14.69 157.98 16.32 158.93 17.44 160.25 18.05 163.18 18.18 166.1 17.84 172.54 16.6 178.95 15.16 190.56 12.36 202.17 9.5 201.68 9.71 201.19 9.92 200.71 10.12 200.24 10.33 199.77 10.53 199.31 10.72 198.85 10.92 198.4 11.11 197.95 11.3 197.51 11.49 197.07 11.68 196.64 11.86 196.21 12.04 195.79 12.22 195.38 12.4 194.97 12.58" style="fill:none; stroke:#aaa; stroke-miterlimit:10; stroke-width:.5px;"/><polyline points="111.36 .11 122.54 1.98 133.59 4.48 139.74 6.4 145.64 8.96 148.5 10.74 150.97 13.02 152.08 14.55 153.04 16.16 153.98 17.27 155.3 17.88 158.27 18.02 161.23 17.68 167.77 16.46 174.27 15.03 186.09 12.28 197.9 9.45 197.34 9.68 196.79 9.91 196.24 10.14 195.7 10.36 195.17 10.59 194.64 10.8 194.12 11.02 193.61 11.23 193.1 11.44 192.6 11.65 192.11 11.85 191.63 12.05 191.15 12.25 190.68 12.45 190.21 12.64 189.75 12.83" style="fill:none; stroke:#aaa; stroke-miterlimit:10; stroke-width:.5px;"/><polyline points="105.59 .11 116.98 1.98 128.24 4.49 134.5 6.4 140.51 8.96 143.41 10.75 145.92 13.03 147.04 14.56 148.01 16.18 148.96 17.3 150.29 17.91 153.3 18.05 156.31 17.71 162.96 16.49 169.58 15.07 181.61 12.31 193.63 9.49 193 9.74 192.38 10 191.76 10.25 191.16 10.49 190.56 10.74 189.97 10.98 189.39 11.21 188.82 11.44 188.26 11.67 187.7 11.9 187.15 12.12 186.62 12.34 186.09 12.55 185.56 12.76 185.05 12.97 184.54 13.18" style="fill:none; stroke:#aaa; stroke-miterlimit:10; stroke-width:.5px;"/><polyline points="99.79 .11 111.39 1.98 122.87 4.5 129.24 6.42 135.36 9 138.3 10.79 140.86 13.08 141.99 14.62 142.96 16.25 143.92 17.38 145.27 17.99 148.32 18.13 151.37 17.79 158.14 16.57 164.87 15.15 177.12 12.38 189.36 9.55 188.66 9.83 187.96 10.11 187.28 10.38 186.61 10.65 185.95 10.91 185.3 11.17 184.66 11.43 184.03 11.68 183.41 11.93 182.8 12.17 182.2 12.41 181.61 12.65 181.02 12.88 180.45 13.11 179.89 13.33 179.34 13.55" style="fill:none; stroke:#aaa; stroke-miterlimit:10; stroke-width:.5px;"/><polyline points="94.02 .11 105.83 1.98 117.52 4.51 124 6.43 130.23 9.01 133.22 10.8 135.82 13.1 136.96 14.64 137.94 16.28 138.91 17.41 140.26 18.02 143.36 18.17 146.45 17.83 153.33 16.61 160.18 15.19 172.64 12.42 185.09 9.59 184.31 9.89 183.55 10.2 182.79 10.49 182.05 10.78 181.33 11.07 180.61 11.35 179.91 11.62 179.21 11.9 178.53 12.16 177.87 12.42 177.21 12.68 176.57 12.93 175.94 13.18 175.32 13.42 174.71 13.66 174.11 13.89" style="fill:none; stroke:#aaa; stroke-miterlimit:10; stroke-width:.5px;"/><polyline points="88.32 .11 100.34 1.97 112.23 4.49 118.82 6.4 125.16 8.98 128.18 10.75 130.82 13.06 131.97 14.59 132.95 16.22 133.93 17.35 135.29 17.96 138.42 18.11 141.56 17.78 148.54 16.57 155.49 15.16 168.16 12.4 180.82 9.59 179.97 9.92 179.11 10.24 178.29 10.56 177.46 10.88 176.66 11.18 175.88 11.48 175.1 11.78 174.34 12.07 173.6 12.35 172.87 12.63 172.16 12.91 171.46 13.17 170.77 13.44 170.1 13.69 169.44 13.94 168.79 14.19" style="fill:none; stroke:#aaa; stroke-miterlimit:10; stroke-width:.5px;"/><polyline points="82.67 .11 94.9 1.96 107 4.45 113.68 6.34 120.13 8.9 123.19 10.66 125.87 12.94 127.02 14.46 128 16.09 128.98 17.21 130.34 17.82 133.51 17.97 136.68 17.64 143.76 16.45 150.82 15.05 163.69 12.33 176.55 9.55 175.61 9.9 174.67 10.25 173.76 10.59 172.85 10.92 171.98 11.25 171.11 11.57 170.27 11.88 169.44 12.19 168.63 12.49 167.83 12.79 167.06 13.07 166.3 13.36 165.56 13.63 164.82 13.9 164.12 14.16 163.42 14.42" style="fill:none; stroke:#aaa; stroke-miterlimit:10; stroke-width:.5px;"/><polyline points="77.05 .11 89.47 1.94 101.78 4.41 108.57 6.28 115.12 8.81 118.22 10.54 120.93 12.81 122.09 14.31 123.07 15.92 124.04 17.04 125.41 17.64 128.61 17.8 131.81 17.48 138.99 16.3 146.15 14.92 159.22 12.24 172.28 9.49 171.25 9.86 170.22 10.24 169.22 10.59 168.23 10.95 167.28 11.29 166.33 11.64 165.42 11.96 164.51 12.29 163.64 12.6 162.78 12.92 161.95 13.21 161.12 13.51 160.33 13.8 159.54 14.08 158.78 14.35 158.03 14.62" style="fill:none; stroke:#aaa; stroke-miterlimit:10; stroke-width:.5px;"/><polyline points="71.37 .11 84 1.92 96.52 4.38 103.4 6.23 110.06 8.75 113.2 10.47 115.95 12.73 117.11 14.22 118.09 15.82 119.07 16.94 120.44 17.54 123.68 17.69 126.92 17.38 134.21 16.22 141.47 14.85 154.75 12.19 168.02 9.46 166.89 9.86 165.76 10.26 164.68 10.64 163.6 11.02 162.56 11.38 161.53 11.74 160.55 12.09 159.57 12.43 158.63 12.76 157.69 13.09 156.8 13.4 155.91 13.71 155.07 14 154.22 14.3 153.42 14.58 152.62 14.86" style="fill:none; stroke:#aaa; stroke-miterlimit:10; stroke-width:.5px;"/><polyline points="65.52 .11 78.37 1.93 91.1 4.4 98.1 6.27 104.88 8.8 108.06 10.53 110.85 12.81 112.03 14.31 113.02 15.92 114.02 17.05 115.4 17.65 118.69 17.81 121.98 17.49 129.38 16.33 136.76 14.95 150.26 12.28 163.75 9.53 162.53 9.96 161.3 10.38 160.14 10.79 158.98 11.19 157.87 11.58 156.76 11.96 155.71 12.33 154.66 12.69 153.66 13.04 152.66 13.38 151.71 13.71 150.76 14.04 149.87 14.34 148.97 14.65 148.13 14.94 147.28 15.23" style="fill:none; stroke:#aaa; stroke-miterlimit:10; stroke-width:.5px;"/><polyline points="59.41 .1 72.48 1.98 85.44 4.52 92.57 6.44 99.47 9.04 102.71 10.82 105.56 13.16 106.77 14.7 107.79 16.36 108.8 17.52 110.22 18.14 113.58 18.3 116.93 17.97 124.48 16.77 131.99 15.35 145.74 12.6 159.48 9.78 158.18 10.23 156.87 10.69 155.64 11.13 154.4 11.56 153.22 11.98 152.05 12.39 150.94 12.78 149.82 13.17 148.77 13.54 147.72 13.9 146.72 14.25 145.73 14.6 144.79 14.93 143.85 15.25 142.97 15.56 142.08 15.86" style="fill:none; stroke:#aaa; stroke-miterlimit:10; stroke-width:.5px;"/><polyline points="52.93 .1 66.25 2.08 79.45 4.77 86.73 6.8 93.76 9.55 97.09 11.43 100 13.9 101.26 15.53 102.32 17.27 103.38 18.49 104.86 19.14 108.31 19.3 111.76 18.95 119.47 17.67 127.16 16.17 141.19 13.25 155.21 10.25 153.84 10.75 152.47 11.26 151.17 11.73 149.87 12.21 148.64 12.66 147.41 13.11 146.24 13.54 145.08 13.96 143.98 14.36 142.88 14.76 141.85 15.14 140.81 15.52 139.84 15.87 138.87 16.22 137.95 16.55 137.04 16.88" style="fill:none; stroke:#aaa; stroke-miterlimit:10; stroke-width:.5px;"/><polyline points="46.05 .09 59.64 2.25 73.09 5.15 80.55 7.37 87.73 10.34 91.17 12.4 94.16 15.05 95.48 16.82 96.62 18.7 97.74 20.01 99.31 20.71 102.88 20.88 106.45 20.49 114.37 19.08 122.25 17.44 136.6 14.25 150.94 10.98 149.51 11.54 148.09 12.1 146.74 12.64 145.39 13.17 144.11 13.67 142.84 14.17 141.63 14.64 140.43 15.11 139.29 15.56 138.16 16 137.1 16.42 136.03 16.83 135.03 17.22 134.04 17.61 133.1 17.97 132.17 18.33" style="fill:none; stroke:#aaa; stroke-miterlimit:10; stroke-width:.5px;"/><polyline points="38.86 .07 52.74 2.46 66.46 5.66 74.11 8.11 81.44 11.37 85.01 13.66 88.1 16.56 89.5 18.52 90.72 20.57 91.92 21.99 93.6 22.76 97.31 22.93 101.02 22.49 109.18 20.92 117.28 19.09 131.99 15.55 146.67 11.92 145.2 12.55 143.73 13.18 142.34 13.77 140.95 14.37 139.64 14.93 138.33 15.49 137.09 16.02 135.86 16.54 134.7 17.04 133.54 17.53 132.45 17.99 131.36 18.45 130.35 18.89 129.33 19.32 128.38 19.72 127.43 20.12" style="fill:none; stroke:#aaa; stroke-miterlimit:10; stroke-width:.5px;"/></svg>