<?xml version="1.0" encoding="UTF-8"?>
<svg id="Ebene_1" xmlns="http://www.w3.org/2000/svg" width="222" height="222" viewBox="0 0 222 222">
  <polyline points="45.99 74.66 45.99 74.66 45.99 74.65 45.99 74.64 45.99 74.64 45.99 74.63 45.99 74.63 45.99 74.62 45.98 74.62 45.44 73.49 44.9 72.36 44.36 71.24 43.82 70.11 43.28 68.98 42.74 67.85 42.2 66.73 41.65 65.6 40.54 63.69 39.15 61.97 37.49 60.47 35.64 59.22 33.55 58.2 31.34 57.47 28.92 57 26.46 56.84 22.58 57.17 18.81 58.16 15.33 59.73 12.15 61.84 9.43 64.38 7.18 67.33 5.55 70.57 4.61 74.06 4.46 75.25 4.41 76.45 4.45 77.61 4.58 78.77 4.8 79.91 5.11 81.01 5.51 82.09 5.99 83.13 6.53 84.25 7.06 85.37 7.6 86.49 8.14 87.61 8.68 88.73 9.21 89.85 9.75 90.96 10.29 92.08 10.3 92.1 10.31 92.12 10.33 92.13 10.35 92.14 10.37 92.14 10.39 92.14 10.41 92.14 10.43 92.13 10.44 92.12 10.46 92.11 10.47 92.09 10.48 92.07 10.48 92.05 10.48 92.03 10.48 92.01 10.47 91.99 9.94 90.87 9.4 89.76 8.86 88.64 8.33 87.52 7.79 86.4 7.25 85.28 6.71 84.16 6.18 83.04 5.7 82.01 5.3 80.95 5 79.86 4.78 78.74 4.66 77.6 4.62 76.45 4.67 75.27 4.81 74.09 5.75 70.63 7.36 67.43 9.59 64.51 12.28 62 15.44 59.91 18.89 58.36 22.62 57.37 26.46 57.05 28.89 57.21 31.28 57.67 33.46 58.39 35.53 59.4 37.36 60.63 38.99 62.11 40.37 63.8 41.47 65.69 42.01 66.82 42.55 67.94 43.09 69.07 43.63 70.2 44.17 71.33 44.72 72.45 45.26 73.58 45.8 74.71 45.81 74.72 45.82 74.74 45.84 74.75 45.86 74.76 45.88 74.76 45.9 74.77 45.92 74.76 45.94 74.76 45.95 74.75 45.96 74.74 45.97 74.73 45.98 74.72 45.99 74.7 45.99 74.69 45.99 74.68 45.99 74.66" fill="none" stroke="#aaa" stroke-miterlimit="10" stroke-width=".5"/>
  <polyline points="31.06 76.48 31.04 76.43 31 76.39 30.92 76.38 30.86 76.43 27.4 80 22.59 81.31 21.81 81.27 21.03 81.16 20.96 81.18 20.91 81.24 20.93 81.32 20.99 81.36 21.79 81.48 22.59 81.52 27.5 80.18 31.05 76.53 31.06 76.5 31.06 76.48" fill="none" stroke="#aaa" stroke-miterlimit="10" stroke-width=".5"/>
  <polyline points="36.11 83.58 36.18 82.92 36.18 82.26 36.12 81.63 35.98 81 35.79 80.4 35.52 79.83 35.19 79.28 34.81 78.77 34.3 78.25 33.74 77.78 33.11 77.38 32.45 77.05 31.72 76.78 30.98 76.59 30.18 76.47 29.38 76.43 27.78 76.56 26.22 76.97 24.79 77.62 23.48 78.49 22.35 79.53 21.43 80.75 20.75 82.08 20.37 83.52 20.29 84.18 20.29 84.84 20.36 85.48 20.49 86.1 20.69 86.7 20.95 87.28 21.28 87.83 21.67 88.34 22.17 88.86 22.74 89.32 23.36 89.73 24.03 90.06 24.75 90.32 25.49 90.52 26.29 90.64 27.09 90.68 28.69 90.54 30.25 90.13 31.68 89.49 33 88.62 34.12 87.57 35.05 86.36 35.72 85.02 36.11 83.58 36.12 83.58 36.13 83.59 36.15 83.59 36.16 83.59 36.17 83.59 36.19 83.59 36.2 83.6 36.21 83.6 36.2 83.6 36.19 83.59 36.17 83.59 36.16 83.59 36.15 83.59 36.13 83.59 36.12 83.58 36.11 83.58" fill="none" stroke="#aaa" stroke-miterlimit="10" stroke-width=".5"/>
  <polyline points="36.4 82.57 36.4 82.7 36.39 82.83 36.39 82.96 36.38 83.09 36.37 83.22 36.35 83.35 36.33 83.48 36.31 83.61 35.92 85.09 35.23 86.46 34.28 87.7 33.13 88.77 31.79 89.66 30.32 90.33 28.73 90.75 27.09 90.89 26.27 90.84 25.45 90.72 24.68 90.52 23.94 90.24 23.25 89.9 22.61 89.49 22.03 89.01 21.51 88.47 21.11 87.94 20.77 87.37 20.5 86.78 20.29 86.16 20.15 85.51 20.08 84.85 20.09 84.17 20.16 83.49 20.56 82.02 21.25 80.65 22.19 79.4 23.34 78.33 24.69 77.44 26.15 76.78 27.74 76.36 29.38 76.22 30.21 76.27 31.02 76.39 31.79 76.59 32.53 76.86 33.22 77.2 33.86 77.62 34.44 78.1 34.96 78.64 35.29 79.06 35.58 79.51 35.83 79.98 36.03 80.47 36.19 80.98 36.31 81.49 36.37 82.03 36.4 82.57" fill="none" stroke="#aaa" stroke-miterlimit="10" stroke-width=".5"/>
  <polyline points="9.24 83.45 9.25 83.45 9.27 83.45 9.28 83.45 9.29 83.46 9.3 83.46 9.32 83.46 9.15 85.04 9.14 86.63 9.3 88.17 9.62 89.67 10.1 91.12 10.73 92.5 11.52 93.83 12.46 95.05 13.67 96.32 15.03 97.43 16.53 98.4 18.13 99.19 19.87 99.84 21.67 100.3 23.58 100.59 25.51 100.69 29.35 100.37 33.08 99.38 36.53 97.83 39.69 95.74 42.38 93.23 44.61 90.31 46.22 87.1 47.16 83.64 47.33 82.06 47.33 80.47 47.18 78.94 46.86 77.43 46.38 75.99 45.74 74.6 44.95 73.28 44.02 72.05 42.8 70.79 41.45 69.68 39.94 68.71 38.34 67.91 36.6 67.27 34.81 66.81 32.9 66.52 30.97 66.41 27.12 66.74 23.39 67.72 19.94 69.28 16.79 71.37 14.09 73.87 11.86 76.8 10.25 80 9.32 83.46 9.3 83.46 9.29 83.46 9.28 83.45 9.27 83.45 9.25 83.45 9.24 83.45 9.23 83.45 9.21 83.44 9.23 83.45 9.24 83.45" fill="none" stroke="#aaa" stroke-miterlimit="10" stroke-width=".5"/>
  <polyline points="47.56 81.2 47.56 81.51 47.55 81.82 47.53 82.13 47.51 82.43 47.48 82.74 47.45 83.05 47.41 83.37 47.36 83.68 46.42 87.17 44.79 90.41 42.54 93.36 39.82 95.89 36.63 98.01 33.15 99.58 29.39 100.57 25.5 100.9 23.55 100.79 21.62 100.5 19.8 100.03 18.05 99.38 16.42 98.58 14.9 97.59 13.53 96.47 12.3 95.19 11.35 93.94 10.55 92.6 9.9 91.19 9.42 89.73 9.09 88.2 8.93 86.65 8.94 85.03 9.11 83.43 10.06 79.93 11.68 76.7 13.93 73.74 16.66 71.21 19.84 69.1 23.32 67.53 27.09 66.53 30.97 66.21 32.92 66.31 34.85 66.61 36.67 67.07 38.43 67.72 40.05 68.53 41.57 69.51 42.95 70.64 44.18 71.92 44.95 72.92 45.64 73.99 46.22 75.1 46.7 76.25 47.07 77.45 47.34 78.67 47.51 79.93 47.56 81.2" fill="none" stroke="#aaa" stroke-miterlimit="10" stroke-width=".5"/>
</svg>