<?xml version="1.0" encoding="UTF-8"?>
<svg id="Ebene_1" xmlns="http://www.w3.org/2000/svg" width="222" height="222" viewBox="0 0 222 222">
  <polyline points="65.36 202.61 82.92 193.97 100.47 185.32 101.31 180.01 102.16 174.7 84.6 183.35 67.04 191.99 66.2 197.3 65.36 202.61" fill="none" stroke="#aaa" stroke-miterlimit="10" stroke-width=".5"/>
  <polyline points="102.39 174.52 102.39 174.53 102.39 174.54 101.53 179.97 100.67 185.41 100.65 185.45 100.61 185.49 82.94 194.19 65.27 202.89 65.22 202.9 65.17 202.88 65.13 202.83 65.13 202.78 65.99 197.34 66.85 191.91 66.87 191.86 66.9 191.83 84.57 183.13 102.24 174.43 102.3 174.42 102.35 174.44 102.38 174.47 102.39 174.52" fill="none" stroke="#aaa" stroke-miterlimit="10" stroke-width=".5"/>
  <polyline points="102.39 174.52 102.39 174.5 102.38 174.48 100.28 170.11 98.18 165.74 98.16 165.71 98.12 165.69 98.08 165.68 98.04 165.69 80.37 174.39 62.7 183.09 62.67 183.13 62.65 183.17 61.79 188.61 60.92 194.04 60.92 194.07 60.93 194.1 63.03 198.47 65.14 202.84 65.19 202.89 65.27 202.89 65.33 202.83 65.32 202.75 63.23 198.4 61.13 194.04 61.99 188.65 62.84 183.26 80.44 174.59 98.04 165.92 100.12 170.24 102.2 174.57 102.26 174.62 102.33 174.61 102.38 174.58 102.39 174.52" fill="none" stroke="#aaa" stroke-miterlimit="10" stroke-width=".5"/>
  <polyline points="67.05 191.92 67.05 191.9 67.04 191.88 64.94 187.51 62.84 183.14 62.78 183.09 62.7 183.09 62.65 183.15 62.66 183.23 64.76 187.6 66.86 191.97 66.92 192.02 66.99 192.02 67.04 191.98 67.05 191.92" fill="none" stroke="#aaa" stroke-miterlimit="10" stroke-width=".5"/>
  <polyline points="62.92 218.05 80.47 209.41 98.03 200.76 98.87 195.45 99.71 190.14 82.15 198.79 64.6 207.43 63.76 212.74 62.92 218.05" fill="none" stroke="#aaa" stroke-miterlimit="10" stroke-width=".5"/>
  <polyline points="99.95 189.96 99.95 189.97 99.95 189.98 99.09 195.41 98.22 200.85 98.21 200.9 98.17 200.93 80.5 209.63 62.83 218.33 62.77 218.34 62.72 218.32 62.69 218.27 62.68 218.22 63.54 212.78 64.4 207.35 64.42 207.3 64.46 207.27 82.13 198.57 99.8 189.87 99.85 189.86 99.91 189.88 99.94 189.91 99.95 189.96" fill="none" stroke="#aaa" stroke-miterlimit="10" stroke-width=".5"/>
  <polyline points="99.95 189.96 99.95 189.94 99.94 189.92 99.12 188.21 98.3 186.51 98.24 186.46 98.16 186.46 98.11 186.52 98.11 186.6 98.93 188.3 99.75 190.01 99.81 190.06 99.89 190.05 99.93 190.02 99.95 189.96" fill="none" stroke="#aaa" stroke-miterlimit="10" stroke-width=".5"/>
  <polyline points="62.89 218.23 62.88 218.21 62.88 218.19 60.78 213.84 58.69 209.48 59.54 204.09 60.4 198.7 61.55 198.13 62.71 197.56 62.76 197.5 62.76 197.42 62.7 197.37 62.62 197.37 61.44 197.95 60.26 198.53 60.22 198.57 60.2 198.61 59.34 204.05 58.48 209.48 58.48 209.51 58.49 209.54 60.59 213.91 62.69 218.28 62.75 218.33 62.83 218.33 62.87 218.29 62.89 218.23" fill="none" stroke="#aaa" stroke-miterlimit="10" stroke-width=".5"/>
  <polyline points="64.61 207.36 64.61 207.34 64.6 207.32 62.5 202.95 60.4 198.58 60.34 198.53 60.26 198.53 60.21 198.59 60.21 198.67 62.31 203.04 64.41 207.41 64.47 207.46 64.55 207.46 64.59 207.42 64.61 207.36" fill="none" stroke="#aaa" stroke-miterlimit="10" stroke-width=".5"/>
</svg>