<?xml version="1.0" encoding="UTF-8"?>
<svg id="Ebene_1" xmlns="http://www.w3.org/2000/svg" width="222" height="222" viewBox="0 0 222 222">
  <polyline points="68.55 8.24 62.41 15.93 56.27 23.63 58.47 28.21 60.67 32.79 66.82 25.17 72.96 17.55 73 17.52 73.04 17.51 82.84 17.51 92.63 17.51 90.43 12.88 88.22 8.24 78.38 8.24 68.55 8.24" fill="none" stroke="#aaa" stroke-miterlimit="10" stroke-width=".5"/>
  <polyline points="73.09 17.72 66.93 25.36 60.77 32.99 64.46 40.73 68.15 48.47 77.98 48.47 87.82 48.47 93.96 40.83 100.1 33.19 96.42 25.46 92.73 17.72 82.91 17.72 73.09 17.72" fill="none" stroke="#aaa" stroke-miterlimit="10" stroke-width=".5"/>
  <polyline points="100.33 33.21 100.32 33.24 100.3 33.27 94.13 40.95 87.95 48.63 87.91 48.66 87.87 48.67 77.98 48.67 68.08 48.67 68.03 48.66 67.99 48.61 64.27 40.82 60.56 33.02 58.3 28.34 56.05 23.66 56.04 23.6 56.06 23.55 62.24 15.81 68.42 8.07 68.45 8.04 68.5 8.03 78.39 8.03 88.29 8.03 88.34 8.05 88.38 8.09 94.35 20.63 100.32 33.16 100.32 33.18 100.33 33.21" fill="none" stroke="#aaa" stroke-miterlimit="10" stroke-width=".5"/>
  <polyline points="73.15 17.61 73.14 17.59 73.14 17.57 70.86 12.83 68.59 8.09 68.53 8.04 68.45 8.04 68.4 8.1 68.4 8.18 70.68 12.92 72.95 17.66 73.01 17.71 73.09 17.71 73.13 17.67 73.15 17.61" fill="none" stroke="#aaa" stroke-miterlimit="10" stroke-width=".5"/>
  <polyline points="77.85 27.66 75.69 30.36 73.53 33.07 74.82 35.78 76.11 38.49 79.57 38.49 83.03 38.49 85.19 35.8 87.35 33.12 86.04 30.39 84.73 27.66 81.29 27.66 77.85 27.66" fill="none" stroke="#aaa" stroke-miterlimit="10" stroke-width=".5"/>
  <polyline points="87.57 33.13 87.56 33.17 87.55 33.2 85.35 35.93 83.16 38.66 83.12 38.68 83.08 38.69 79.56 38.69 76.05 38.69 75.99 38.68 75.96 38.63 74.63 35.87 73.31 33.1 73.3 33.04 73.33 32.99 75.52 30.24 77.72 27.49 77.75 27.46 77.8 27.45 81.3 27.45 84.79 27.45 84.85 27.47 84.89 27.51 86.22 30.3 87.56 33.09 87.57 33.11 87.57 33.13" fill="none" stroke="#aaa" stroke-miterlimit="10" stroke-width=".5"/>
  <polyline points="80.04 27.55 80.03 27.51 80 27.47 79.93 27.45 79.86 27.49 79.19 28.32 78.52 29.15 77.48 29.15 76.44 29.15 76.37 29.18 76.34 29.25 76.37 29.33 76.44 29.36 77.51 29.36 78.57 29.36 78.62 29.35 78.65 29.32 79.34 28.47 80.02 27.62 80.04 27.59 80.04 27.55" fill="none" stroke="#aaa" stroke-miterlimit="10" stroke-width=".5"/>
  <polyline points="83.18 38.59 83.18 38.57 83.17 38.55 80.92 33.88 78.67 29.21 78.61 29.15 78.53 29.16 78.48 29.22 78.48 29.3 80.73 33.97 82.98 38.64 83.04 38.69 83.12 38.68 83.17 38.65 83.18 38.59" fill="none" stroke="#aaa" stroke-miterlimit="10" stroke-width=".5"/>
</svg>