<?xml version="1.0" encoding="UTF-8"?>
<svg id="Ebene_1" xmlns="http://www.w3.org/2000/svg" width="222" height="222" viewBox="0 0 222 222">
  <polyline points="49.4 19.34 49.43 18.91 49.46 18.46 49.49 18.01 49.52 17.55 49.56 17.09 49.59 16.61 49.62 16.13 49.66 15.63 49.06 21.93 48 28.15 47.37 29 46.51 28.38 45.37 28.07 44.68 29.22 43.05 36.32 42.01 43.54 40.98 36.33 38.73 29.45 36.97 28.05 34.72 28.38 32.76 29.09 30.78 28.75 28.58 24.15 27.69 19.04 30 25.67 32.44 32.24 33.3 34.16 34.48 35.87 35.69 36.79 36.79 37.85 39.73 41.84 42.32 46.08" fill="none" stroke="#aaa" stroke-miterlimit="10" stroke-width=".5"/>
  <polyline points="49.83 24.02 49.86 23.59 49.89 23.16 49.93 22.72 49.96 22.27 50 21.81 50.03 21.34 50.07 20.87 50.11 20.39 50.2 26.23 49.83 32.05 49.06 32.72 48.09 32.06 46.53 31.6 45.33 32.75 43.19 39.44 42 46.39 40.9 39.48 38.45 32.97 36.44 31.66 34.05 32.06 31.99 32.81 29.87 32.62 27.74 28.39 26.97 23.61 29.4 30.01 31.94 36.35 32.84 38.27 34.06 39.99 35.31 40.94 36.48 41.98 39.58 45.74 42.36 49.77" fill="none" stroke="#aaa" stroke-miterlimit="10" stroke-width=".5"/>
  <polyline points="50.38 28.73 50.41 28.31 50.45 27.89 50.48 27.45 50.52 27 50.56 26.55 50.6 26.09 50.64 25.62 50.68 25.14 51.17 30.52 51.18 35.91 50.27 36.36 49.22 35.68 47.4 35.12 45.82 36.19 43.3 42.48 41.97 49.17 40.76 42.53 38.06 36.4 35.77 35.2 33.18 35.67 30.98 36.48 28.69 36.44 26.6 32.62 25.97 28.19 28.12 34.38 30.44 40.49 31.38 42.47 32.74 44.17 34.28 45.14 35.76 46.2 39.27 49.69 42.38 53.53" fill="none" stroke="#aaa" stroke-miterlimit="10" stroke-width=".5"/>
  <polyline points="50.89 33.44 50.93 33.02 50.97 32.6 51.01 32.17 51.05 31.73 51.09 31.29 51.13 30.83 51.18 30.37 51.23 29.89 52 34.82 52.3 39.77 51.27 39.99 50.15 39.3 48.1 38.67 46.21 39.64 43.39 45.53 41.92 51.95 40.61 45.58 37.67 39.85 35.1 38.75 32.32 39.29 29.97 40.15 27.53 40.27 25.49 36.87 24.98 32.77 26.8 38.74 28.85 44.63 29.84 46.68 31.35 48.35 33.2 49.35 35.01 50.41 38.91 53.62 42.38 57.29" fill="none" stroke="#aaa" stroke-miterlimit="10" stroke-width=".5"/>
  <polyline points="51.32 38.12 51.36 37.71 51.4 37.3 51.44 36.88 51.48 36.45 51.53 36.01 51.58 35.57 51.63 35.11 51.68 34.65 52.67 39.13 53.21 43.66 52.08 43.68 50.9 42.97 48.67 42.28 46.53 43.15 43.47 48.64 41.88 54.79 40.47 48.69 37.34 43.35 34.55 42.37 31.6 42.96 29.13 43.86 26.57 44.13 24.57 41.12 24.18 37.35 25.79 43.09 27.68 48.75 28.72 50.83 30.33 52.48 32.4 53.5 34.46 54.56 38.62 57.52 42.38 60.99" fill="none" stroke="#aaa" stroke-miterlimit="10" stroke-width=".5"/>
  <polyline points="51.69 42.79 51.73 42.39 51.77 41.99 51.82 41.58 51.86 41.16 51.91 40.73 51.96 40.3 52.01 39.85 52.07 39.4 53.24 43.45 53.99 47.56 52.78 47.39 51.55 46.66 49.16 45.93 46.81 46.69 43.55 51.78 41.85 57.66 40.35 51.83 37.06 46.88 34.06 46.01 30.97 46.66 28.4 47.59 25.74 48 23.79 45.38 23.5 41.92 24.94 47.44 26.68 52.85 27.76 54.96 29.46 56.58 31.71 57.63 33.98 58.67 38.35 61.4 42.37 64.66" fill="none" stroke="#aaa" stroke-miterlimit="10" stroke-width=".5"/>
  <polyline points="52.13 47.47 52.18 47.08 52.22 46.69 52.27 46.29 52.32 45.88 52.37 45.46 52.43 45.03 52.48 44.6 52.54 44.15 53.89 47.76 54.86 51.44 53.57 51.06 52.26 50.31 49.7 49.52 47.13 50.18 43.66 54.86 41.84 60.48 40.21 54.9 36.75 50.36 33.55 49.6 30.3 50.3 27.61 51.29 24.83 51.84 22.91 49.64 22.7 46.5 23.95 51.79 25.55 56.97 26.69 59.12 28.47 60.73 30.93 61.82 33.42 62.85 38.05 65.35 42.37 68.38" fill="none" stroke="#aaa" stroke-miterlimit="10" stroke-width=".5"/>
  <polyline points="52.76 52.22 52.81 51.84 52.86 51.44 52.91 51.04 52.97 50.63 53.03 50.21 53.09 49.79 53.16 49.35 53.22 48.91 54.74 52.05 55.98 55.27 54.58 54.66 53.18 53.86 50.39 52.99 47.55 53.54 43.82 57.8 41.82 63.18 40.04 57.85 36.4 53.71 32.97 53.08 29.54 53.85 26.69 54.91 23.76 55.63 21.79 53.92 21.6 51.08 22.64 56.17 24.09 61.15 25.29 63.36 27.19 64.98 29.91 66.13 32.69 67.15 37.66 69.44 42.37 72.23" fill="none" stroke="#aaa" stroke-miterlimit="10" stroke-width=".5"/>
  <polyline points="53.53 56.95 53.59 56.57 53.64 56.18 53.7 55.78 53.77 55.38 53.83 54.96 53.9 54.54 53.97 54.1 54.05 53.66 55.65 56.34 57.06 59.06 55.56 58.21 54.04 57.34 51.06 56.39 47.97 56.82 44.02 60.67 41.82 65.82 39.85 60.72 35.99 56.98 32.31 56.48 28.65 57.34 25.62 58.48 22.52 59.39 20.52 58.2 20.34 55.66 21.15 60.57 22.43 65.36 23.71 67.65 25.73 69.3 28.75 70.51 31.85 71.54 37.22 73.62 42.4 76.15" fill="none" stroke="#aaa" stroke-miterlimit="10" stroke-width=".5"/>
  <polyline points="54.78 61.78 54.78 61.4 54.78 61 54.78 60.59 54.78 60.17 54.79 59.75 54.8 59.31 54.81 58.87 54.82 58.41 56.46 60.64 58.03 62.87 56.46 61.79 54.81 60.84 51.64 59.81 48.34 60.12 44.2 63.56 41.78 68.47 39.62 63.6 35.57 60.27 31.64 59.9 27.77 60.84 24.56 62.07 21.32 63.16 19.32 62.49 19.14 60.23 19.7 64.95 20.81 69.56 22.15 71.92 24.28 73.59 27.59 74.88 31 75.9 36.76 77.79 42.39 80.05" fill="none" stroke="#aaa" stroke-miterlimit="10" stroke-width=".5"/>
  <polyline points="56.13 66.62 56.06 66.22 55.98 65.82 55.91 65.4 55.84 64.97 55.77 64.54 55.69 64.09 55.62 63.64 55.55 63.17 57.22 65.01 58.92 66.72 57.31 65.46 55.54 64.44 52.23 63.34 48.76 63.54 44.5 66.59 41.91 71.23 39.56 66.62 35.39 63.68 31.27 63.43 27.24 64.43 23.9 65.73 20.56 66.98 18.64 66.78 18.46 64.81 18.75 69.31 19.67 73.71 21.04 76.12 23.25 77.8 26.8 79.14 30.46 80.15 36.53 81.85 42.52 83.85" fill="none" stroke="#aaa" stroke-miterlimit="10" stroke-width=".5"/>
  <polyline points="64.24 71.18 64.33 70.8 64.43 70.42 64.53 70.03 64.63 69.62 64.73 69.21 64.83 68.79 64.94 68.36 65.05 67.92 64.91 70.06 63.01 70.64 59.85 69.47 56.74 68.18 52.81 67.07 48.75 67.14 44.36 69.77 41.59 74.14 39.08 69.82 34.85 67.27 30.47 67.14 26.2 68.17 22.38 69.55 18.55 70.87 16.23 71.08 14.84 69.39 15.81 73.7 17.44 77.79 19.35 80.19 21.93 81.86 25.77 83.21 29.71 84.21 35.98 85.73 42.19 87.46" fill="none" stroke="#aaa" stroke-miterlimit="10" stroke-width=".5"/>
  <polyline points="67.25 75.65 67.4 75.31 67.56 74.96 67.71 74.6 67.87 74.23 68.03 73.85 68.2 73.47 68.37 73.08 68.54 72.68 66.95 74.62 64.37 74.64 60.64 73.42 56.97 72.05 52.83 70.93 48.56 70.9 44.18 73.16 41.31 77.21 38.7 73.21 34.49 71.03 29.97 70.99 25.56 72.04 21.41 73.46 17.26 74.83 14.58 75.22 12.32 73.97 13.86 78.03 16 81.8 18.31 84.14 21.16 85.79 25.17 87.13 29.29 88.1 35.6 89.45 41.89 90.91" fill="none" stroke="#aaa" stroke-miterlimit="10" stroke-width=".5"/>
  <polyline points="69.32 80.09 69.51 79.78 69.7 79.46 69.89 79.14 70.09 78.81 70.29 78.48 70.49 78.13 70.7 77.79 70.91 77.43 68.31 78.9 65.25 78.67 61.17 77.41 57.14 76 52.88 74.89 48.5 74.77 44.21 76.67 41.27 80.36 38.58 76.71 34.46 74.88 29.88 74.94 25.41 75.99 21.04 77.43 16.67 78.83 13.65 79.37 10.79 78.54 12.8 82.34 15.37 85.77 18.04 88.03 21.14 89.64 25.26 90.94 29.5 91.89 35.67 93.06 41.83 94.27" fill="none" stroke="#aaa" stroke-miterlimit="10" stroke-width=".5"/>
  <polyline points="70.87 84.46 71.08 84.19 71.3 83.92 71.51 83.64 71.73 83.36 71.96 83.07 72.18 82.78 72.41 82.49 72.64 82.18 69.3 83.16 65.8 82.72 61.45 81.42 57.14 79.98 52.82 78.89 48.39 78.69 44.22 80.24 41.23 83.55 38.48 80.28 34.49 78.78 29.92 78.93 25.45 79.98 20.92 81.42 16.39 82.85 13.01 83.54 9.62 83.12 12.07 86.62 15 89.72 18 91.88 21.35 93.45 25.56 94.72 29.87 95.63 35.81 96.63 41.76 97.58" fill="none" stroke="#aaa" stroke-miterlimit="10" stroke-width=".5"/>
  <polyline points="72.23 88.78 72.45 88.56 72.68 88.34 72.9 88.11 73.13 87.88 73.36 87.65 73.59 87.42 73.83 87.18 74.06 86.94 70.12 87.42 66.17 86.77 61.6 85.42 57.07 83.97 52.72 82.89 48.26 82.6 44.24 83.83 41.19 86.74 38.39 83.87 34.56 82.69 30.01 82.93 25.55 83.96 20.89 85.41 16.23 86.87 12.46 87.72 8.63 87.7 11.51 90.89 14.78 93.67 18.14 95.72 21.77 97.26 26.06 98.5 30.45 99.37 36.06 100.19 41.69 100.89" fill="none" stroke="#aaa" stroke-miterlimit="10" stroke-width=".5"/>
  <polyline points="73.54 93.04 73.75 92.88 73.96 92.71 74.17 92.55 74.39 92.38 74.6 92.21 74.82 92.04 75.04 91.86 75.26 91.69 70.77 91.7 66.35 90.82 61.61 89.42 56.9 87.96 52.56 86.88 48.11 86.52 44.26 87.44 41.18 89.93 38.32 87.48 34.64 86.59 30.12 86.92 25.7 87.95 20.92 89.41 16.15 90.89 12.01 91.91 7.78 92.28 11.11 95.16 14.76 97.62 18.56 99.57 22.55 101.08 26.94 102.27 31.42 103.11 36.52 103.76 41.64 104.2" fill="none" stroke="#aaa" stroke-miterlimit="10" stroke-width=".5"/>
  <polyline points="74.91 97.17 75.06 97.08 75.21 96.99 75.37 96.9 75.52 96.81 75.67 96.72 75.82 96.63 75.97 96.54 76.12 96.44 71.18 95.99 66.34 94.88 61.49 93.44 56.65 91.96 52.35 90.9 47.95 90.45 44.28 91.09 41.18 93.14 38.27 91.12 34.76 90.52 30.31 90.93 25.94 91.95 21.07 93.41 16.23 94.91 11.75 96.12 7.18 96.85 11.2 99.45 15.5 101.56 20.22 103.39 25.05 104.87 29.64 105.99 34.27 106.83 37.93 107.29 41.59 107.49" fill="none" stroke="#aaa" stroke-miterlimit="10" stroke-width=".5"/>
  <polyline points="75.55 101.56 75.65 101.51 75.75 101.47 75.85 101.42 75.94 101.38 76.04 101.33 76.14 101.29 76.24 101.24 76.34 101.2 71.08 100.3 65.93 98.97 61.05 97.49 56.18 96.02 51.99 94.98 47.72 94.46 44.27 94.84 41.19 96.41 38.28 94.87 34.97 94.51 30.64 95.01 26.39 96.02 21.53 97.46 16.7 98.97 11.96 100.35 7.15 101.43 11.36 103.63 15.73 105.47 20.61 107.18 25.57 108.61 30.13 109.68 34.75 110.48 38.07 110.8 41.38 110.7" fill="none" stroke="#aaa" stroke-miterlimit="10" stroke-width=".5"/>
  <polyline points="74.98 106.03 75.01 106.02 75.04 106.01 75.07 106 75.1 105.99 75.13 105.98 75.17 105.97 75.2 105.96 75.23 105.95 69.95 104.65 64.75 103.11 60.04 101.62 55.33 100.18 51.38 99.18 47.36 98.6 44.19 98.73 41.22 99.8 38.37 98.76 35.31 98.64 31.23 99.2 27.21 100.18 22.54 101.58 17.9 103.08 13.16 104.61 8.38 106.01 12.39 107.77 16.5 109.33 21.21 110.9 25.98 112.25 30.4 113.27 34.87 114 38.08 114.19 41.24 113.8" fill="none" stroke="#aaa" stroke-miterlimit="10" stroke-width=".5"/>
  <polyline points="72.88 110.56 67.84 108.91 62.83 107.2 58.51 105.75 54.16 104.41 50.61 103.48 46.99 102.87 44.19 102.78 41.45 103.31 38.74 102.8 35.96 102.9 32.2 103.53 28.5 104.45 24.12 105.78 19.78 107.25 15.14 108.91 10.5 110.59 14.3 111.87 18.12 113.14 22.55 114.53 27.02 115.78 31.17 116.74 35.37 117.38 38.39 117.45 41.31 116.76" fill="none" stroke="#aaa" stroke-miterlimit="10" stroke-width=".5"/>
  <polyline points="70.02 115 65.33 113.09 60.6 111.28 56.72 109.9 52.8 108.66 49.68 107.83 46.52 107.19 44.09 106.89 41.65 106.86 39.11 106.91 36.58 107.22 33.17 107.9 29.8 108.77 25.75 110.02 21.74 111.44 17.25 113.22 12.83 115.16 16.38 115.94 19.89 116.92 24.01 118.12 28.14 119.27 31.97 120.15 35.86 120.69 38.7 120.63 41.33 119.67" fill="none" stroke="#aaa" stroke-miterlimit="10" stroke-width=".5"/>
  <polyline points="67.3 119.27 63.47 117.23 59.6 115.3 56.72 114.01 53.77 112.89 51.06 112.08 48.31 111.45 45.04 110.88 41.74 110.39 38.23 110.9 34.73 111.5 31.7 112.18 28.73 113.06 25.6 114.23 22.56 115.61 18.74 117.6 15 119.74 18.3 120.01 21.55 120.71 25.37 121.74 29.19 122.78 32.73 123.6 36.33 124.05 39.01 123.84 41.37 122.61" fill="none" stroke="#aaa" stroke-miterlimit="10" stroke-width=".5"/>
  <polyline points="64.98 123.57 61.77 121.37 58.47 119.32 56.14 118.07 53.71 117.04 51.27 116.25 48.79 115.58 45.31 114.71 41.83 113.79 38.07 114.74 34.3 115.65 31.53 116.37 28.79 117.24 26.09 118.36 23.5 119.73 20.02 121.93 16.64 124.32 19.73 124.11 22.81 124.56 26.42 125.44 30 126.4 33.33 127.17 36.72 127.55 39.32 127.17 41.45 125.68" fill="none" stroke="#aaa" stroke-miterlimit="10" stroke-width=".5"/>
  <polyline points="62.62 127.85 60.07 125.48 57.4 123.27 55.53 122.04 53.52 121.05 51.28 120.25 49.01 119.53 45.45 118.35 41.91 117.04 38.04 118.4 34.14 119.62 31.54 120.39 28.98 121.27 26.62 122.38 24.41 123.78 21.34 126.23 18.41 128.9 21.09 128.25 23.87 128.48 27.23 129.26 30.56 130.17 33.73 130.92 36.96 131.23 39.55 130.68 41.52 128.93" fill="none" stroke="#aaa" stroke-miterlimit="10" stroke-width=".5"/>
  <polyline points="60.44 132.11 58.56 129.57 56.51 127.17 55.07 125.92 53.42 124.96 51.34 124.11 49.23 123.33 45.59 121.84 42.02 120.16 38.08 121.91 34.05 123.44 31.56 124.29 29.12 125.2 27.01 126.31 25.11 127.76 22.42 130.52 19.94 133.47 22.15 132.42 24.63 132.47 27.79 133.16 30.9 134.04 33.97 134.79 37.11 135.05 39.75 134.31 41.62 132.32" fill="none" stroke="#aaa" stroke-miterlimit="10" stroke-width=".5"/>
  <polyline points="57.62 136.32 56.61 133.63 55.41 131.04 54.48 129.76 53.23 128.81 51.33 127.91 49.39 127.06 45.76 125.26 42.24 123.23 38.29 125.36 34.21 127.21 31.82 128.12 29.45 129.07 27.55 130.21 25.93 131.73 23.63 134.79 21.62 138.05 23.23 136.63 25.42 136.47 28.37 137.11 31.26 137.97 34.26 138.72 37.33 138.93 40.03 137.99 41.83 135.76" fill="none" stroke="#aaa" stroke-miterlimit="10" stroke-width=".5"/>
  <polyline points="52.09 140.44 52.64 137.66 53.18 134.88 53.24 133.69 52.72 132.66 51.17 131.67 49.55 130.79 45.96 128.67 42.52 126.3 38.6 128.81 34.48 130.97 32.17 131.96 29.86 132.95 28.1 134.11 26.69 135.69 24.69 139.07 23 142.63 24.1 140.89 26.13 140.48 28.92 141.05 31.64 141.89 34.58 142.64 37.6 142.81 40.36 141.66 42.1 139.2" fill="none" stroke="#aaa" stroke-miterlimit="10" stroke-width=".5"/>
  <polyline points="52.03 144.93 52.53 141.89 53.06 138.86 53.14 137.65 52.65 136.57 51.13 135.54 49.55 134.59 45.95 132.13 42.55 129.4 38.68 132.29 34.55 134.77 32.26 135.85 29.97 136.86 28.18 138.05 26.77 139.67 24.67 143.35 22.91 147.21 23.96 145.17 26.12 144.47 28.93 144.96 31.67 145.78 34.61 146.53 37.64 146.66 40.45 145.29 42.13 142.61" fill="none" stroke="#aaa" stroke-miterlimit="10" stroke-width=".5"/>
  <polyline points="51.93 149.43 52.38 146.13 52.9 142.85 52.98 141.62 52.52 140.51 51.04 139.43 49.51 138.41 45.92 135.61 42.57 132.53 38.77 135.79 34.64 138.6 32.4 139.75 30.12 140.79 28.32 141.99 26.91 143.66 24.74 147.63 22.92 151.78 23.93 149.47 26.19 148.45 29 148.85 31.74 149.65 34.68 150.4 37.69 150.48 40.54 148.88 42.15 146" fill="none" stroke="#aaa" stroke-miterlimit="10" stroke-width=".5"/>
  <polyline points="51.87 153.92 52.28 150.36 52.78 146.82 52.87 145.57 52.44 144.43 50.98 143.3 49.49 142.2 45.9 139.07 42.59 135.63 38.84 139.25 34.7 142.41 32.49 143.63 30.22 144.7 28.4 145.93 27 147.64 24.76 151.9 22.9 156.36 23.88 153.78 26.21 152.44 29.03 152.75 31.78 153.55 34.71 154.29 37.72 154.32 40.61 152.5 42.17 149.4" fill="none" stroke="#aaa" stroke-miterlimit="10" stroke-width=".5"/>
  <polyline points="51.99 158.35 52.38 154.53 52.88 150.73 52.97 149.44 52.55 148.25 51.08 147.07 49.6 145.9 45.96 142.43 42.62 138.65 38.85 142.63 34.64 146.11 32.42 147.43 30.12 148.53 28.26 149.81 26.84 151.57 24.51 156.16 22.59 160.94 23.61 158.1 26.05 156.47 28.92 156.72 31.71 157.52 34.67 158.27 37.71 158.26 40.66 156.22 42.2 152.9" fill="none" stroke="#aaa" stroke-miterlimit="10" stroke-width=".5"/>
  <polyline points="52.45 162.67 52.84 158.6 53.35 154.54 53.44 153.18 53.01 151.94 51.48 150.67 49.95 149.42 46.16 145.63 42.69 141.52 38.77 145.85 34.37 149.65 32.07 151.06 29.67 152.22 27.72 153.58 26.24 155.44 23.78 160.38 21.76 165.52 22.83 162.42 25.43 160.57 28.42 160.78 31.33 161.62 34.42 162.4 37.58 162.37 40.67 160.12 42.26 156.57" fill="none" stroke="#aaa" stroke-miterlimit="10" stroke-width=".5"/>
  <polyline points="53.24 166.91 53.66 162.56 54.19 158.24 54.3 156.8 53.82 155.47 52.19 154.11 50.55 152.75 46.49 148.67 42.79 144.24 38.6 148.91 33.89 153.02 31.43 154.53 28.85 155.79 26.76 157.24 25.19 159.24 22.54 164.56 20.37 170.09 21.53 166.75 24.31 164.74 27.52 164.96 30.64 165.85 33.94 166.7 37.32 166.66 40.63 164.23 42.34 160.4" fill="none" stroke="#aaa" stroke-miterlimit="10" stroke-width=".5"/>
  <polyline points="54.23 171.05 54.69 166.45 55.27 161.87 55.37 160.33 54.85 158.92 53.06 157.45 51.29 155.99 46.91 151.62 42.92 146.88 38.38 151.88 33.28 156.29 30.62 157.92 27.83 159.27 25.57 160.84 23.86 163 21.01 168.72 18.66 174.67 19.92 171.09 22.92 168.95 26.39 169.2 29.77 170.16 33.34 171.08 37 171.04 40.58 168.44 42.43 164.32" fill="none" stroke="#aaa" stroke-miterlimit="10" stroke-width=".5"/>
  <polyline points="55.23 175.17 55.72 170.32 56.34 165.49 56.44 163.86 55.87 162.37 53.94 160.8 52.03 159.23 47.33 154.57 43.04 149.52 38.15 154.87 32.66 159.57 29.8 161.31 26.81 162.76 24.38 164.44 22.54 166.77 19.47 172.88 16.95 179.25 18.3 175.42 21.53 173.16 25.26 173.43 28.89 174.47 32.73 175.45 36.68 175.42 40.53 172.64 42.53 168.24" fill="none" stroke="#aaa" stroke-miterlimit="10" stroke-width=".5"/>
  <polyline points="56.04 179.31 56.56 174.23 57.2 169.17 57.3 167.46 56.69 165.9 54.65 164.24 52.62 162.57 47.67 157.62 43.14 152.25 37.98 157.94 32.17 162.95 29.16 164.8 25.98 166.33 23.41 168.11 21.47 170.57 18.22 177.06 15.54 183.83 16.98 179.75 20.4 177.32 24.35 177.6 28.19 178.7 32.25 179.73 36.42 179.69 40.49 176.74 42.61 172.05" fill="none" stroke="#aaa" stroke-miterlimit="10" stroke-width=".5"/>
  <polyline points="56.56 183.51 57.08 178.22 57.74 172.94 57.84 171.17 57.2 169.57 55.09 167.83 53.01 166.06 47.88 160.8 43.22 155.11 37.88 161.15 31.87 166.47 28.76 168.42 25.47 170.02 22.8 171.87 20.79 174.44 17.4 181.28 14.61 188.4 16.11 184.07 19.69 181.43 23.78 181.68 27.76 182.81 31.96 183.88 36.27 183.82 40.5 180.66 42.67 175.73" fill="none" stroke="#aaa" stroke-miterlimit="10" stroke-width=".5"/>
  <polyline points="56.83 187.75 57.34 182.26 57.99 176.78 58.09 174.98 57.45 173.34 55.31 171.53 53.21 169.69 47.99 164.1 43.27 158.08 37.85 164.47 31.72 170.13 28.57 172.16 25.22 173.81 22.49 175.71 20.45 178.35 16.95 185.52 14.09 192.98 15.64 188.39 19.34 185.48 23.51 185.68 27.56 186.82 31.83 187.91 36.2 187.81 40.52 184.43 42.71 179.28" fill="none" stroke="#aaa" stroke-miterlimit="10" stroke-width=".5"/>
  <polyline points="56.94 192.01 57.43 186.33 58.07 180.66 58.18 178.84 57.54 177.18 55.39 175.31 53.29 173.39 48.04 167.47 43.3 161.12 37.87 167.86 31.67 173.86 28.52 175.97 25.13 177.66 22.36 179.6 20.31 182.3 16.74 189.79 13.83 197.56 15.41 192.7 19.21 189.5 23.42 189.62 27.51 190.77 31.8 191.86 36.2 191.73 40.56 188.12 42.74 182.76" fill="none" stroke="#aaa" stroke-miterlimit="10" stroke-width=".5"/>
</svg>