<?xml version="1.0" encoding="utf-8" ?>
<svg baseProfile="full" height="222" version="1.1" width="222" xmlns="http://www.w3.org/2000/svg" xmlns:ev="http://www.w3.org/2001/xml-events" xmlns:xlink="http://www.w3.org/1999/xlink"><defs />
  <polyline fill="none" points ="45.74 163.89 42.19 168.19 38.19 172.07 36.46 173.27 34.69 174.35 33.13 176.25 32.07 178.49 29.52 185.33 27.17 192.25 27.87 187.31 30.21 183.08 32.8 183.06 35.3 183.98 38.23 184.51 40.85 183.18 43.92 176.36 45.29 168.93 46.8 176.41 49.66 183.42 51.48 184.6 53.56 183.97 54.75 183.2 55.78 183.68 55.72 189.67 55.13 195.65 55.11 195.45 55.09 195.25 55.07 195.05 55.06 194.85 55.04 194.66 55.02 194.46 55 194.27 54.99 194.08" stroke="#aaa" stroke-width="1"/>
  <polyline fill="none" points ="45.71 160.07 41.76 164.2 37.34 167.79 35.25 169 33.15 170.12 31.44 172.01 30.31 174.32 28.02 180.95 25.99 187.67 26.56 183.08 28.87 179.28 31.63 179.43 34.29 180.41 37.45 181.02 40.37 179.8 43.71 173.37 45.21 166.2 46.87 173.43 50.08 180.04 52.23 181.12 54.56 180.4 55.83 179.61 57 179.84 56.63 185.39 55.72 190.9 55.7 190.67 55.68 190.45 55.66 190.22 55.63 190 55.61 189.78 55.59 189.56 55.57 189.35 55.55 189.13" stroke="#aaa" stroke-width="1"/>
  <polyline fill="none" points ="45.72 156.15 41.32 160.08 36.46 163.41 34.02 164.62 31.59 165.81 29.7 167.7 28.49 170.11 26.37 176.55 24.57 183.09 25 178.86 27.28 175.52 30.27 175.87 33.13 176.92 36.57 177.62 39.85 176.53 43.51 170.51 45.17 163.57 47.02 170.56 50.61 176.76 53.14 177.72 55.75 176.92 57.12 176.09 58.45 176.05 57.75 181.13 56.53 186.14 56.51 185.89 56.48 185.63 56.45 185.38 56.42 185.14 56.4 184.89 56.37 184.65 56.34 184.4 56.32 184.16" stroke="#aaa" stroke-width="1"/>
  <polyline fill="none" points ="45.75 152.22 40.88 155.93 35.6 159.02 32.81 160.24 30.07 161.49 28.03 163.4 26.73 165.9 24.75 172.15 23.16 178.51 23.45 174.62 25.72 171.76 28.92 172.31 32 173.44 35.72 174.23 39.35 173.27 43.33 167.66 45.17 160.94 47.21 167.71 51.15 173.48 54.02 174.33 56.92 173.44 58.4 172.57 59.87 172.25 58.85 176.86 57.37 181.39 57.34 181.11 57.3 180.83 57.27 180.55 57.24 180.28 57.2 180.01 57.17 179.75 57.14 179.48 57.11 179.22" stroke="#aaa" stroke-width="1"/>
  <polyline fill="none" points ="45.75 148.38 40.48 151.86 34.86 154.73 31.79 155.94 28.77 157.25 26.61 159.17 25.25 161.73 23.41 167.77 22.02 173.94 22.27 170.35 24.57 167.96 27.92 168.68 31.17 169.89 35.09 170.75 38.97 169.91 43.15 164.7 45.15 158.22 47.37 164.76 51.57 170.11 54.73 170.85 57.86 169.88 59.43 168.97 61.01 168.42 59.73 172.58 58.06 176.64 58.01 176.34 57.97 176.04 57.93 175.74 57.89 175.45 57.85 175.16 57.82 174.88 57.78 174.6 57.74 174.32" stroke="#aaa" stroke-width="1"/>
  <polyline fill="none" points ="45.7 144.73 40.17 147.97 34.34 150.62 31.08 151.81 27.89 153.15 25.66 155.05 24.25 157.63 22.56 163.43 21.35 169.36 21.58 166.06 23.89 164.09 27.32 164.94 30.66 166.18 34.69 167.09 38.71 166.36 42.99 161.55 45.08 155.35 47.43 161.61 51.78 166.56 55.12 167.19 58.39 166.18 60.03 165.24 61.67 164.51 60.2 168.25 58.41 171.88 58.36 171.57 58.31 171.26 58.27 170.96 58.22 170.66 58.18 170.36 58.14 170.07 58.1 169.78 58.06 169.49" stroke="#aaa" stroke-width="1"/>
  <polyline fill="none" points ="45.61 141.33 40.03 144.34 34.19 146.79 30.87 147.95 27.64 149.27 25.42 151.12 24.02 153.65 22.47 159.15 21.41 164.78 21.63 161.75 23.88 160.11 27.29 161.02 30.61 162.26 34.61 163.18 38.63 162.54 42.88 158.1 45 152.23 47.37 158.16 51.7 162.73 55.05 163.28 58.32 162.26 59.96 161.32 61.6 160.5 60.09 163.86 58.31 167.13 58.26 166.82 58.21 166.51 58.16 166.21 58.11 165.91 58.07 165.61 58.02 165.32 57.98 165.03 57.94 164.74" stroke="#aaa" stroke-width="1"/>
  <polyline fill="none" points ="45.42 138.24 40.02 141 34.4 143.27 31.18 144.36 28.04 145.63 25.91 147.38 24.57 149.79 23.14 154.93 22.2 160.2 22.4 157.41 24.54 156 27.8 156.91 30.99 158.1 34.84 158.99 38.7 158.42 42.77 154.34 44.82 148.84 47.12 154.39 51.27 158.59 54.5 159.08 57.64 158.1 59.23 157.2 60.8 156.36 59.34 159.4 57.64 162.38 57.59 162.08 57.54 161.78 57.49 161.49 57.44 161.2 57.4 160.91 57.36 160.63 57.31 160.35 57.27 160.08" stroke="#aaa" stroke-width="1"/>
  <polyline fill="none" points ="45.14 135.36 40.1 137.9 34.87 139.99 31.86 140.99 28.93 142.17 26.96 143.79 25.71 146.02 24.4 150.77 23.55 155.63 23.73 153.07 25.71 151.79 28.74 152.65 31.71 153.76 35.28 154.59 38.88 154.07 42.66 150.32 44.57 145.26 46.72 150.37 50.58 154.23 53.59 154.67 56.51 153.76 57.99 152.92 59.45 152.13 58.09 154.9 56.51 157.62 56.47 157.34 56.42 157.06 56.37 156.79 56.33 156.52 56.29 156.25 56.25 155.99 56.21 155.73 56.17 155.47" stroke="#aaa" stroke-width="1"/>
  <polyline fill="none" points ="44.82 132.56 40.22 134.88 35.44 136.77 32.68 137.69 30.01 138.77 28.2 140.24 27.06 142.29 25.87 146.62 25.1 151.05 25.26 148.72 27.07 147.56 29.84 148.34 32.55 149.36 35.81 150.11 39.1 149.64 42.55 146.23 44.29 141.61 46.25 146.27 49.79 149.79 52.54 150.19 55.21 149.35 56.56 148.58 57.9 147.86 56.66 150.39 55.23 152.87 55.18 152.61 55.14 152.36 55.1 152.1 55.06 151.85 55.02 151.61 54.98 151.37 54.94 151.13 54.91 150.89" stroke="#aaa" stroke-width="1"/>
  <polyline fill="none" points ="44.54 129.65 40.3 131.74 35.89 133.46 33.35 134.3 30.88 135.29 29.22 136.63 28.17 138.51 27.11 142.44 26.43 146.47 26.57 144.37 28.22 143.37 30.76 144.1 33.25 145.04 36.25 145.73 39.27 145.32 42.43 142.24 44.03 138.05 45.85 142.28 49.1 145.45 51.63 145.81 54.09 145.03 55.34 144.32 56.56 143.64 55.42 145.9 54.12 148.11 54.07 147.87 54.03 147.64 53.99 147.4 53.96 147.17 53.92 146.95 53.88 146.72 53.85 146.5 53.81 146.28" stroke="#aaa" stroke-width="1"/>
  <polyline fill="none" points ="44.34 126.51 40.27 128.36 36.06 129.89 33.61 130.67 31.23 131.61 29.65 132.87 28.66 134.63 27.74 138.22 27.2 141.89 27.32 140.04 28.84 139.28 31.25 140.02 33.6 140.91 36.45 141.59 39.32 141.24 42.31 138.52 43.84 134.71 45.6 138.55 48.67 141.36 51.09 141.65 53.42 140.91 54.62 140.22 55.78 139.52 54.67 141.45 53.45 143.36 53.41 143.13 53.37 142.91 53.33 142.68 53.29 142.46 53.26 142.25 53.22 142.04 53.19 141.83 53.15 141.62" stroke="#aaa" stroke-width="1"/>
  <polyline fill="none" points ="44.2 123.08 40.07 124.68 35.84 126.02 33.33 126.76 30.89 127.7 29.34 128.91 28.36 130.62 27.6 133.93 27.24 137.32 27.35 135.73 28.79 135.31 31.15 136.13 33.49 137.03 36.31 137.72 39.19 137.47 42.13 135.11 43.7 131.63 45.5 135.14 48.53 137.58 50.95 137.78 53.27 137.02 54.49 136.32 55.63 135.52 54.49 137.06 53.31 138.61 53.32 138.36 53.32 138.12 53.33 137.88 53.33 137.65 53.34 137.42 53.35 137.19 53.36 136.97 53.36 136.75" stroke="#aaa" stroke-width="1"/>
  <polyline fill="none" points ="43.42 119.39 39.03 120.73 34.59 121.88 31.83 122.61 29.17 123.58 27.44 124.78 26.24 126.52 25.31 129.57 24.85 132.74 25.43 131.4 26.97 131.45 29.56 132.38 32.14 133.35 35.13 134.08 38.19 133.95 41.21 131.98 42.94 128.77 44.9 132.02 48.04 134.05 50.83 134.14 53.52 133.34 55.48 132.45 57.44 131.62 58.21 132.45 57.84 133.85 57.81 133.6 57.77 133.34 57.74 133.09 57.7 132.85 57.67 132.61 57.64 132.37 57.6 132.14 57.57 131.91" stroke="#aaa" stroke-width="1"/>
  <polyline fill="none" points ="42.44 115.54 37.69 116.59 32.92 117.58 29.75 118.31 26.67 119.33 24.44 120.57 22.59 122.34 20.85 125.12 19.57 128.16 21.44 127.32 23.56 127.66 26.78 128.72 29.99 129.8 33.35 130.6 36.8 130.6 39.97 129.03 41.96 126.07 44.17 129.07 47.49 130.69 50.77 130.65 53.95 129.8 56.85 128.73 59.78 127.8 61.88 127.74 63.41 129.1 63.29 128.86 63.17 128.62 63.06 128.38 62.94 128.15 62.83 127.92 62.72 127.69 62.61 127.47 62.51 127.26" stroke="#aaa" stroke-width="1"/>
  <polyline fill="none" points ="41.98 111.61 37.04 112.37 32.11 113.18 28.49 113.94 24.95 115.01 22.1 116.33 19.53 118.12 17.03 120.68 14.92 123.58 17.82 123.3 20.71 123.9 24.53 125.11 28.34 126.33 32.08 127.2 35.91 127.34 39.22 126.13 41.52 123.45 44.04 126.17 47.52 127.42 51.24 127.24 54.87 126.32 58.52 125.11 62.19 124.01 65.21 123.6 68.12 124.35 67.94 124.13 67.77 123.92 67.6 123.71 67.44 123.5 67.27 123.3 67.11 123.1 66.95 122.9 66.79 122.71" stroke="#aaa" stroke-width="1"/>
  <polyline fill="none" points ="41.68 107.69 36.82 108.16 31.99 108.8 27.91 109.59 23.9 110.7 20.35 112.1 17 113.92 13.76 116.27 10.83 119.01 14.61 119.24 18.3 120.14 22.65 121.5 27.01 122.84 31.07 123.79 35.22 124.07 38.64 123.17 41.24 120.81 44.05 123.21 47.64 124.14 51.72 123.82 55.71 122.83 59.99 121.48 64.29 120.21 68.23 119.46 72.21 119.59 72.02 119.43 71.83 119.26 71.64 119.1 71.45 118.94 71.26 118.78 71.07 118.62 70.89 118.47 70.7 118.31" stroke="#aaa" stroke-width="1"/>
  <polyline fill="none" points ="41.47 103.89 37.7 104.08 33.96 104.54 29.4 105.38 24.91 106.48 20.23 107.95 15.68 109.76 11.5 111.86 7.6 114.43 12.09 115.15 16.49 116.33 21.26 117.82 26.04 119.25 30.35 120.27 34.74 120.67 38.2 120.07 41.06 118.06 44.11 120.1 47.73 120.74 52.06 120.3 56.3 119.25 61.07 117.79 65.84 116.36 70.6 115.28 75.45 114.84 75.3 114.75 75.15 114.65 74.99 114.56 74.84 114.46 74.69 114.37 74.54 114.28 74.38 114.19 74.23 114.09" stroke="#aaa" stroke-width="1"/>
  <polyline fill="none" points ="41.14 100.28 37.7 100.16 34.27 100.49 29.48 101.32 24.74 102.43 19.6 103.92 14.55 105.68 10.01 107.59 5.64 109.85 10.64 111 15.57 112.44 20.58 114.01 25.62 115.51 30.02 116.56 34.51 117.08 37.93 116.72 40.96 115.14 44.14 116.75 47.71 117.13 52.13 116.58 56.47 115.51 61.53 113.98 66.58 112.44 71.95 111.04 77.41 110.09 77.29 110.03 77.17 109.98 77.05 109.92 76.93 109.87 76.81 109.81 76.69 109.76 76.58 109.71 76.46 109.65" stroke="#aaa" stroke-width="1"/>
  <polyline fill="none" points ="40.92 96.96 37.54 96.52 34.1 96.73 29.31 97.5 24.58 98.6 19.47 100.05 14.43 101.73 10.04 103.39 5.74 105.27 10.86 106.78 15.95 108.43 20.91 110.04 25.91 111.54 30.21 112.58 34.58 113.19 37.85 113.07 40.91 111.96 44.09 113.09 47.47 113.23 51.77 112.6 56 111.53 61.04 109.99 66.07 108.39 71.65 106.73 77.29 105.33 77.22 105.31 77.14 105.28 77.07 105.26 76.99 105.23 76.91 105.2 76.84 105.18 76.76 105.15 76.68 105.13" stroke="#aaa" stroke-width="1"/>
  <polyline fill="none" points ="40.86 93.91 37.68 93.19 34.39 93.27 29.82 93.96 25.32 95.01 20.45 96.37 15.63 97.89 11.48 99.28 7.34 100.7 12.38 102.5 17.42 104.29 22.14 105.88 26.9 107.33 30.93 108.34 35.02 109.01 38.05 109.11 41 108.53 44.02 109.13 47.11 109.04 51.1 108.35 55.03 107.32 59.84 105.83 64.61 104.23 70.13 102.37 75.68 100.58 75.67 100.58 75.66 100.57 75.65 100.57 75.63 100.57 75.62 100.57 75.61 100.56 75.6 100.56 75.58 100.56" stroke="#aaa" stroke-width="1"/>
  <polyline fill="none" points ="41.19 91.07 38.32 90.07 35.24 90.01 31.01 90.61 26.85 91.57 22.36 92.82 17.89 94.14 14.07 95.22 10.21 96.12 15.01 98.17 19.87 100.08 24.22 101.61 28.63 102.96 32.29 103.9 36 104.63 38.75 104.94 41.5 104.92 44.21 104.95 46.91 104.65 50.43 103.94 53.9 103.01 58.26 101.62 62.58 100.1 67.81 98.11 73.02 96.03" stroke="#aaa" stroke-width="1"/>
  <polyline fill="none" points ="41.53 88.26 38.98 87 36.12 86.8 32.26 87.29 28.47 88.16 24.38 89.28 20.29 90.4 16.81 91.18 13.27 91.54 17.31 93.77 21.43 95.84 24.76 97.31 28.17 98.57 31.37 99.49 34.62 100.21 38.26 100.8 41.92 101.27 45.39 100.82 48.84 100.24 51.85 99.56 54.81 98.68 58.11 97.44 61.34 96.01 65.67 93.9 69.96 91.68" stroke="#aaa" stroke-width="1"/>
  <polyline fill="none" points ="41.86 85.31 39.6 83.8 36.88 83.44 33.32 83.84 29.82 84.65 26.05 85.66 22.25 86.6 19.01 87.11 15.76 86.96 19.33 89.41 23.01 91.67 25.77 93.1 28.64 94.28 31.52 95.18 34.45 95.93 38.35 96.83 42.26 97.75 45.93 96.85 49.59 95.97 52.26 95.27 54.88 94.42 57.57 93.28 60.16 91.92 63.86 89.67 67.48 87.28" stroke="#aaa" stroke-width="1"/>
  <polyline fill="none" points ="42.32 82.11 40.25 80.34 37.56 79.8 34.18 80.14 30.86 80.92 27.35 81.88 23.8 82.7 20.86 82.98 17.99 82.39 21.11 85.11 24.39 87.61 26.75 89.05 29.26 90.21 31.95 91.12 34.69 91.91 38.72 93.12 42.73 94.46 46.44 93.16 50.2 91.97 52.62 91.22 55 90.37 57.22 89.28 59.3 87.93 62.34 85.51 65.25 82.91" stroke="#aaa" stroke-width="1"/>
  <polyline fill="none" points ="42.72 78.62 40.7 76.59 37.92 75.87 34.56 76.16 31.27 76.96 27.88 77.91 24.46 78.67 21.72 78.78 19.19 77.81 21.98 80.85 24.99 83.67 27.11 85.19 29.43 86.37 32.07 87.33 34.74 88.2 38.98 89.72 43.14 91.44 46.97 89.76 50.88 88.27 53.19 87.45 55.47 86.55 57.4 85.45 59.13 84.04 61.68 81.36 64.06 78.51" stroke="#aaa" stroke-width="1"/>
  <polyline fill="none" points ="43.2 74.89 41.13 72.58 38.16 71.69 34.68 71.97 31.27 72.8 27.86 73.79 24.4 74.54 21.71 74.53 19.41 73.23 22.04 76.64 24.93 79.82 26.95 81.47 29.23 82.73 31.94 83.76 34.68 84.73 39.22 86.54 43.64 88.63 47.67 86.6 51.81 84.81 54.13 83.91 56.41 82.92 58.19 81.77 59.69 80.26 61.87 77.25 63.86 74.1" stroke="#aaa" stroke-width="1"/>
  <polyline fill="none" points ="43.76 71.01 41.57 68.42 38.36 67.36 34.65 67.63 31.04 68.53 27.48 69.57 23.88 70.35 21.14 70.24 18.97 68.65 21.56 72.47 24.47 76.04 26.5 77.85 28.85 79.2 31.72 80.33 34.61 81.41 39.49 83.52 44.23 85.95 48.53 83.59 52.96 81.51 55.36 80.5 57.72 79.42 59.41 78.18 60.75 76.54 62.65 73.18 64.32 69.7" stroke="#aaa" stroke-width="1"/>
  <polyline fill="none" points ="44.42 67.07 42.09 64.18 38.6 62.96 34.63 63.23 30.77 64.2 27.03 65.32 23.24 66.14 20.41 65.93 18.33 64.08 20.93 68.31 23.89 72.29 25.97 74.26 28.42 75.73 31.47 76.97 34.55 78.16 39.83 80.55 44.92 83.33 49.54 80.64 54.31 78.27 56.81 77.17 59.26 75.98 60.88 74.63 62.05 72.86 63.64 69.13 65 65.3" stroke="#aaa" stroke-width="1"/>
  <polyline fill="none" points ="45.25 63.17 42.79 59.99 39.03 58.6 34.83 58.87 30.74 59.91 26.87 61.09 22.92 61.94 20.03 61.62 18.12 59.5 20.68 64.14 23.63 68.52 25.72 70.65 28.24 72.23 31.46 73.56 34.71 74.86 40.35 77.55 45.78 80.67 50.68 77.66 55.76 74.99 58.31 73.8 60.78 72.5 62.24 71.05 63.1 69.16 64.12 65.08 64.95 60.95" stroke="#aaa" stroke-width="1"/>
  <polyline fill="none" points ="47.26 59.4 44.72 55.95 40.75 54.37 36.4 54.63 32.16 55.72 28.24 56.94 24.24 57.79 21.36 57.31 19.73 54.92 22.15 59.93 25 64.7 27.03 66.95 29.56 68.62 32.88 70.04 36.22 71.43 42.15 74.42 47.82 77.9 52.87 74.57 58.13 71.59 60.47 70.37 62.66 68.92 63.33 67.28 63.16 65.45 62.25 61.1 61.37 56.73" stroke="#aaa" stroke-width="1"/>
  <polyline fill="none" points ="47.52 55.78 44.95 52.08 40.84 50.31 36.37 50.54 32.01 51.66 27.97 52.89 23.85 53.71 20.78 53.02 19.15 50.34 21.69 55.7 24.69 60.81 26.78 63.15 29.4 64.88 32.8 66.35 36.21 67.85 42.31 71.15 48.09 74.98 53.26 71.3 58.66 68 61.03 66.7 63.26 65.18 63.92 63.45 63.73 61.55 62.8 56.85 61.94 52.12" stroke="#aaa" stroke-width="1"/>
  <polyline fill="none" points ="47.71 52.28 45.16 48.34 40.95 46.36 36.42 46.56 32.01 47.69 27.91 48.93 23.72 49.68 20.51 48.72 18.89 45.77 21.53 51.45 24.65 56.87 26.76 59.28 29.43 61.05 32.88 62.57 36.29 64.14 42.47 67.76 48.28 71.96 53.48 67.92 58.96 64.29 61.32 62.91 63.54 61.34 64.18 59.54 63.98 57.58 63.04 52.54 62.22 47.48" stroke="#aaa" stroke-width="1"/>
  <polyline fill="none" points ="47.85 48.84 45.34 44.68 41.07 42.48 36.52 42.64 32.08 43.77 27.96 45 23.73 45.68 20.4 44.43 18.81 41.19 21.52 47.19 24.74 52.9 26.86 55.37 29.56 57.17 33.01 58.72 36.41 60.37 42.63 64.32 48.42 68.89 53.61 64.48 59.13 60.51 61.45 59.06 63.66 57.45 64.26 55.58 64.05 53.58 63.12 48.19 62.34 42.78" stroke="#aaa" stroke-width="1"/>
  <polyline fill="none" points ="47.96 45.42 45.5 41.04 41.18 38.63 36.62 38.74 32.18 39.86 28.04 41.09 23.78 41.68 20.35 40.12 18.8 36.61 21.57 42.91 24.87 48.93 26.99 51.44 29.72 53.27 33.17 54.85 36.54 56.58 42.78 60.86 48.54 65.8 53.7 61.03 59.24 56.72 61.53 55.19 63.7 53.54 64.27 51.61 64.05 49.56 63.14 43.83 62.41 38.08" stroke="#aaa" stroke-width="1"/>
  <polyline fill="none" points ="48.06 42.01 45.65 37.42 41.28 34.78 36.72 34.84 32.28 35.97 28.12 37.18 23.85 37.69 20.34 35.81 18.81 32.03 21.63 38.64 25.01 44.96 27.13 47.51 29.87 49.37 33.32 50.97 36.66 52.79 42.93 57.4 48.63 62.7 53.77 57.57 59.32 52.91 61.57 51.32 63.72 49.62 64.25 47.63 64.03 45.54 63.14 39.46 62.45 33.35" stroke="#aaa" stroke-width="1"/>
  <polyline fill="none" points ="48.14 38.62 45.78 33.83 41.39 30.95 36.86 30.97 32.43 32.09 28.28 33.29 24.01 33.7 20.42 31.51 18.89 27.46 21.75 34.36 25.19 40.97 27.3 43.56 30.05 45.45 33.49 47.07 36.8 48.96 43.06 53.92 48.71 59.58 53.8 54.09 59.35 49.08 61.55 47.42 63.67 45.69 64.17 43.64 63.94 41.5 63.08 35.08 62.43 28.62" stroke="#aaa" stroke-width="1"/>
  <polyline fill="none" points ="48.17 35.29 45.89 30.32 41.52 27.19 37.05 27.16 32.69 28.27 28.58 29.44 24.34 29.75 20.68 27.2 19.14 22.88 22.01 30.07 25.49 36.96 27.57 39.58 30.33 41.47 33.74 43.12 36.97 45.08 43.18 50.38 48.73 56.41 53.74 50.55 59.25 45.18 61.39 43.46 63.46 41.7 63.92 39.61 63.69 37.44 62.85 30.67 62.27 23.87" stroke="#aaa" stroke-width="1"/>
  <polyline fill="none" points ="48.11 32.09 45.95 26.95 41.67 23.56 37.33 23.46 33.1 24.54 29.08 25.66 24.95 25.84 21.26 22.9 19.72 18.3 22.57 25.74 26.04 32.89 28.06 35.52 30.77 37.4 34.1 39.04 37.22 41.07 43.3 46.73 48.66 53.12 53.52 46.9 58.9 41.15 60.93 39.39 62.93 37.6 63.34 35.49 63.11 33.3 62.33 26.19 61.81 19.05" stroke="#aaa" stroke-width="1"/>
  <polyline fill="none" points ="47.93 29.04 45.94 23.77 41.83 20.09 37.72 19.91 33.71 20.94 29.86 21.99 25.91 22 22.26 18.61 20.73 13.72 23.51 21.38 26.92 28.76 28.84 31.35 31.45 33.2 34.64 34.83 37.57 36.89 43.4 42.95 48.46 49.69 53.06 43.1 58.22 36.95 60.1 35.16 61.97 33.38 62.32 31.26 62.1 29.07 61.39 21.62 60.96 14.14" stroke="#aaa" stroke-width="1"/>
</svg>