<?xml version="1.0" encoding="UTF-8"?>
<svg id="Ebene_1" xmlns="http://www.w3.org/2000/svg" width="222" height="222" viewBox="0 0 222 222">
  <polyline points="34.98 92.05 35.01 92.06 35.04 92.07 35.07 92.11 35.08 92.15 35.08 99.05 35.08 105.95 39.69 105.06 44.29 104.17 44.29 97.25 44.29 90.33 44.31 90.26 44.37 90.23 50.28 89.09 56.18 87.95 56.18 82.51 56.18 77.08 50.32 78.21 44.46 79.35 44.41 79.34 44.37 79.32 44.35 79.29 44.34 79.24 44.34 72.35 44.34 65.45 39.73 66.34 35.13 67.23 35.13 74.15 35.13 81.07 35.1 81.14 35.04 81.17 29.14 82.31 23.24 83.45 23.24 88.89 23.24 94.32 29.1 93.19 34.96 92.05 34.97 92.05 34.98 92.05" fill="none" stroke="#aaa" stroke-miterlimit="10" stroke-width=".5"/>
  <polyline points="34.98 106.18 34.94 106.18 34.91 106.16 34.88 106.12 34.87 106.08 34.87 99.18 34.87 92.28 29.02 93.41 23.16 94.55 23.11 94.55 23.07 94.53 23.05 94.49 23.04 94.45 23.04 88.91 23.04 83.36 23.06 83.3 23.12 83.26 29.02 82.12 34.92 80.98 34.92 74.07 34.92 67.15 34.94 67.08 35 67.05 39.71 66.13 44.42 65.22 44.47 65.22 44.51 65.24 44.53 65.28 44.54 65.32 44.54 72.22 44.54 79.12 50.4 77.98 56.26 76.85 56.31 76.85 56.35 76.87 56.37 76.91 56.38 76.95 56.38 82.49 56.38 88.04 56.36 88.1 56.3 88.14 50.4 89.28 44.5 90.41 44.5 97.33 44.5 104.25 44.47 104.32 44.41 104.35 39.7 105.27 35 106.18 34.99 106.18 34.98 106.18" fill="none" stroke="#aaa" stroke-miterlimit="10" stroke-width=".5"/>
  <polyline points="35.02 67.25 35 67.25 34.99 67.24 29.46 65.05 23.93 62.85 23.88 62.81 23.87 62.75 23.89 62.69 23.95 62.66 28.67 61.74 33.39 60.83 33.42 60.83 33.45 60.84 38.97 63.03 44.48 65.23 44.54 65.28 44.54 65.36 44.48 65.42 44.4 65.42 38.9 63.23 33.4 61.04 28.87 61.92 24.34 62.79 29.7 64.92 35.06 67.05 35.12 67.11 35.12 67.19 35.08 67.23 35.02 67.25" fill="none" stroke="#aaa" stroke-miterlimit="10" stroke-width=".5"/>
  <polyline points="35.02 81.17 35 81.17 34.99 81.17 29.46 78.97 23.93 76.78 23.89 76.74 23.87 76.68 23.87 69.72 23.87 62.76 23.9 62.68 23.97 62.65 24.04 62.68 24.07 62.76 24.07 69.68 24.07 76.61 29.57 78.79 35.06 80.97 35.12 81.03 35.12 81.11 35.08 81.16 35.02 81.17" fill="none" stroke="#aaa" stroke-miterlimit="10" stroke-width=".5"/>
  <polyline points="23.14 94.55 23.12 94.55 23.1 94.54 17.57 92.35 12.05 90.15 12 90.12 11.98 90.06 11.98 84.52 11.98 78.97 12.01 78.91 12.07 78.87 18.01 77.72 23.95 76.58 24.03 76.59 24.07 76.66 24.06 76.74 23.99 76.78 18.09 77.92 12.19 79.06 12.19 84.52 12.19 89.99 17.68 92.17 23.18 94.35 23.23 94.41 23.24 94.49 23.2 94.53 23.14 94.55" fill="none" stroke="#aaa" stroke-miterlimit="10" stroke-width=".5"/>
  <polyline points="23.14 83.47 23.12 83.46 23.1 83.46 17.57 81.26 12.05 79.07 11.99 79.01 11.99 78.94 12.05 78.88 12.13 78.88 17.65 81.07 23.18 83.27 23.23 83.32 23.24 83.4 23.2 83.45 23.14 83.47" fill="none" stroke="#aaa" stroke-miterlimit="10" stroke-width=".5"/>
  <polyline points="56.28 77.05 56.26 77.05 56.24 77.05 50.74 74.86 45.24 72.67 44.85 72.74 44.46 72.82 44.38 72.8 44.34 72.74 44.35 72.66 44.42 72.62 44.82 72.54 45.23 72.46 45.26 72.46 45.29 72.47 50.8 74.66 56.32 76.85 56.38 76.91 56.38 76.99 56.34 77.04 56.28 77.05" fill="none" stroke="#aaa" stroke-miterlimit="10" stroke-width=".5"/>
  <polyline points="34.98 106.18 34.96 106.18 34.94 106.17 29.41 103.98 23.87 101.78 23.83 101.75 23.81 101.69 23.81 97.99 23.81 94.3 23.84 94.22 23.91 94.19 23.99 94.22 24.02 94.3 24.02 97.96 24.02 101.62 29.52 103.8 35.02 105.98 35.07 106.04 35.07 106.12 35.03 106.16 34.98 106.18" fill="none" stroke="#aaa" stroke-miterlimit="10" stroke-width=".5"/>
</svg>