<?xml version="1.0" encoding="UTF-8"?>
<svg id="Ebene_1" xmlns="http://www.w3.org/2000/svg" width="222" height="222" viewBox="0 0 222 222">
  <polyline points="20 128.64 14.32 128.64 8.65 128.64 11.09 144.5 13.53 160.36 30.97 160.36 48.41 160.36 47.63 155.21 46.84 150.06 40.88 150.06 34.92 150.06 34.85 150.04 34.81 149.97 34.02 144.75 33.22 139.53 27.48 139.53 21.75 139.53 21.68 139.51 21.65 139.44 20.82 134.04 20 128.64" fill="none" stroke="#aaa" stroke-miterlimit="10" stroke-width=".5"/>
  <polyline points="8.42 128.54 8.43 128.5 8.45 128.47 8.48 128.44 8.53 128.43 14.31 128.43 20.09 128.43 20.15 128.46 20.19 128.52 21.01 133.92 21.84 139.32 27.57 139.32 33.31 139.32 33.38 139.35 33.41 139.41 34.21 144.63 35.01 149.86 40.97 149.86 46.93 149.86 47 149.88 47.03 149.94 47.83 155.2 48.64 160.45 48.63 160.49 48.61 160.53 48.58 160.56 48.53 160.57 30.99 160.57 13.44 160.57 13.37 160.54 13.33 160.48 10.88 144.52 8.43 128.55 8.42 128.55 8.42 128.54" fill="none" stroke="#aaa" stroke-miterlimit="10" stroke-width=".5"/>
  <polyline points="34.81 149.96 34.82 149.94 34.82 149.91 37.26 145.04 39.69 140.17 39.73 140.13 39.79 140.12 45.8 140.12 51.81 140.12 51.88 140.14 51.91 140.21 52.71 145.46 53.5 150.72 53.5 150.75 53.49 150.78 51.06 155.64 48.63 160.51 48.57 160.56 48.49 160.56 48.43 160.5 48.44 160.42 50.86 155.57 53.29 150.71 52.5 145.52 51.72 140.32 45.79 140.32 39.85 140.32 37.43 145.16 35.01 150.01 34.95 150.06 34.87 150.05 34.83 150.01 34.81 149.96" fill="none" stroke="#aaa" stroke-miterlimit="10" stroke-width=".5"/>
  <polyline points="46.82 149.96 46.83 149.94 46.84 149.91 49.28 145.04 51.72 140.17 51.78 140.12 51.86 140.13 51.91 140.19 51.9 140.27 49.46 145.14 47.02 150.01 46.96 150.06 46.88 150.05 46.84 150.01 46.82 149.96" fill="none" stroke="#aaa" stroke-miterlimit="10" stroke-width=".5"/>
  <polyline points="33.2 139.43 33.21 139.4 33.22 139.38 35.66 134.51 38.1 129.64 38.14 129.6 38.21 129.59 38.26 129.62 38.29 129.67 39.09 134.94 39.89 140.21 39.87 140.28 39.8 140.32 39.72 140.3 39.68 140.24 38.91 135.13 38.14 130.03 35.77 134.75 33.4 139.47 33.34 139.53 33.26 139.52 33.22 139.48 33.2 139.43" fill="none" stroke="#aaa" stroke-miterlimit="10" stroke-width=".5"/>
  <polyline points="21.65 139.43 21.65 139.4 21.66 139.38 24.09 134.51 26.53 129.64 26.57 129.6 26.62 129.58 32.41 129.58 38.19 129.58 38.26 129.62 38.29 129.69 38.26 129.76 38.19 129.79 32.44 129.79 26.69 129.79 24.26 134.63 21.84 139.47 21.78 139.53 21.7 139.52 21.66 139.48 21.65 139.43" fill="none" stroke="#aaa" stroke-miterlimit="10" stroke-width=".5"/>
  <polyline points="19.98 128.54 19.99 128.51 19.99 128.49 22.43 123.62 24.87 118.75 24.92 118.71 24.98 118.7 25.04 118.73 25.07 118.78 25.9 124.23 26.72 129.67 26.71 129.75 26.64 129.79 26.56 129.77 26.52 129.7 25.72 124.42 24.91 119.14 22.55 123.86 20.18 128.58 20.12 128.64 20.04 128.63 20 128.59 19.98 128.54" fill="none" stroke="#aaa" stroke-miterlimit="10" stroke-width=".5"/>
  <polyline points="8.42 128.54 8.43 128.51 8.43 128.49 10.88 123.61 13.32 118.73 13.35 118.69 13.41 118.67 19.19 118.68 24.97 118.69 25.04 118.73 25.07 118.8 25.04 118.87 24.97 118.9 19.22 118.89 13.47 118.88 11.05 123.73 8.62 128.58 8.56 128.64 8.48 128.63 8.44 128.59 8.42 128.54" fill="none" stroke="#aaa" stroke-miterlimit="10" stroke-width=".5"/>
</svg>