<?xml version='1.0' encoding='UTF-8'?>
<svg xmlns="http://www.w3.org/2000/svg" width="800" height="800" viewBox="0 0 800 800" fill="none">
    <polyline points="533.5 79.8 533.3 80.8 533.3 81.5 533.1 82.4 532.8 83.3 532.6 84.1 532.2 84.8 531.7 85.5 531.3 86.3 530.7 87.0 528.9 88.9 528.2 89.2 527.4 89.8 526.5 90.1 525.8 90.3 524.8 90.7 523.9 90.9 520.4 90.9 519.5 90.7 518.6 90.3 517.9 90.1 516.9 89.8 516.2 89.2 515.5 88.9 513.6 87.0 513.1 86.3 512.7 85.5 512.2 84.8 511.8 84.1 511.6 83.3 511.2 82.4 511.0 81.5 511.0 78.0 511.2 77.1 511.6 76.2 511.8 75.4 512.2 74.7 512.7 74.0 513.1 73.2 513.6 72.5 514.9 71.2 515.5 70.8 516.2 70.3 516.9 69.9 517.9 69.5 518.6 69.2 521.4 68.6 523.2 68.6 523.9 68.8 525.8 69.2 526.5 69.5 527.4 69.9 528.2 70.3 528.9 70.8 529.4 71.2 530.7 72.5 531.3 73.2 531.7 74.0 532.2 74.7 532.6 75.4 532.8 76.2 533.1 77.1 533.3 78.0 533.3 78.9 533.5 79.8 533.5 79.8" fill="none" stroke="#aaa" stroke-miterlimit="10" stroke-width="1" />
    <polyline points="411.1 68.6 413.4 68.8 415.7 69.6 417.7 70.7 419.4 72.3 420.8 74.2 421.7 76.3 422.2 78.6 422.2 80.9 421.7 83.2 420.8 85.4 419.4 87.2 417.7 88.8 415.7 90.0 413.4 90.7 411.1 90.9 408.8 90.7 406.6 90.0 404.6 88.8 402.8 87.2 401.4 85.4 400.5 83.2 400.0 80.9 400.0 78.6 400.5 76.3 401.4 74.2 402.8 72.3 404.6 70.7 406.6 69.6 408.8 68.8 411.1 68.6 411.1 68.6" fill="none" stroke="#aaa" stroke-miterlimit="10" stroke-width="1" />
    <polyline points="466.5 68.6 468.8 68.8 471.1 69.6 473.1 70.7 474.8 72.3 476.2 74.2 477.1 76.3 477.6 78.6 477.6 80.9 477.1 83.2 476.2 85.4 474.8 87.2 473.1 88.8 471.1 90.0 468.8 90.7 466.5 90.9 464.2 90.7 462.0 90.0 460.0 88.8 458.2 87.2 456.8 85.4 455.9 83.2 455.4 80.9 455.4 78.6 455.9 76.3 456.8 74.2 458.2 72.3 460.0 70.7 462.0 69.6 464.2 68.8 466.5 68.6 466.5 68.6" fill="none" stroke="#aaa" stroke-miterlimit="10" stroke-width="1" />
    <polyline points="522.2 68.6 524.5 68.8 526.8 69.6 528.8 70.7 530.5 72.3 531.9 74.2 532.8 76.3 533.3 78.6 533.3 80.9 532.8 83.2 531.9 85.4 530.5 87.2 528.8 88.8 526.8 90.0 524.5 90.7 522.2 90.9 519.9 90.7 517.7 90.0 515.7 88.8 513.9 87.2 512.5 85.4 511.6 83.2 511.1 80.9 511.1 78.6 511.6 76.3 512.5 74.2 513.9 72.3 515.7 70.7 517.7 69.6 519.9 68.8 522.2 68.6 522.2 68.6" fill="none" stroke="#aaa" stroke-miterlimit="10" stroke-width="1" />
    <polyline points="633.3 68.6 635.6 68.8 637.9 69.6 639.9 70.7 641.6 72.3 643.0 74.2 643.9 76.3 644.4 78.6 644.4 80.9 643.9 83.2 643.0 85.4 641.6 87.2 639.9 88.8 637.9 90.0 635.6 90.7 633.3 90.9 631.0 90.7 628.8 90.0 626.8 88.8 625.0 87.2 623.6 85.4 622.7 83.2 622.2 80.9 622.2 78.6 622.7 76.3 623.6 74.2 625.0 72.3 626.8 70.7 628.8 69.6 631.0 68.8 633.3 68.6 633.3 68.6" fill="none" stroke="#aaa" stroke-miterlimit="10" stroke-width="1" />
    <polyline points="641.2 0.0 625.3 0.0 625.3 55.4 641.2 55.4 641.2 0.0 641.2 0.0" fill="none" stroke="#aaa" stroke-miterlimit="10" stroke-width="1" />
    <polyline points="799.9 41.4 744.4 41.4 744.4 56.2 799.9 56.2 799.9 41.4 799.9 41.4" fill="none" stroke="#aaa" stroke-miterlimit="10" stroke-width="1" />
</svg>