<?xml version="1.0" encoding="UTF-8"?>
<svg id="Ebene_1" xmlns="http://www.w3.org/2000/svg" width="222" height="222" viewBox="0 0 222 222">
  <polyline points="244.46 .09 237.74 1.39 231.22 3.43 228.02 5.06 225.4 7.47 224.59 9.48 224.78 11.63 225.76 13.6 227.16 15.31 228.68 16.7 230.33 17.93 231.17 18.47 232.06 18.9 231.15 18.23 230.15 17.63 226.3 15.54 222.39 13.55 228.92 14.62 235.44 15.73 240.1 16.54 244.75 17.33 247.94 17.83 251.14 18.26 253.26 18.44 255.39 18.46 256.87 18.29 258.3 17.88 259.55 17.24 260.68 16.43 262.02 15.27 263.32 14.06 265.15 12.36 267.02 10.7" fill="none" stroke="#aaa" stroke-miterlimit="10" stroke-width=".5"/>
  <polyline points="238.56 .09 231.56 1.49 224.77 3.67 221.44 5.42 218.73 7.99 217.91 10.15 218.14 12.44 219.19 14.55 220.69 16.38 222.32 17.87 224.08 19.18 225.02 19.76 226 20.22 225.14 19.49 224.15 18.86 220.22 16.62 216.21 14.49 223.03 15.66 229.84 16.86 234.73 17.73 239.61 18.58 242.97 19.12 246.34 19.58 248.59 19.78 250.84 19.8 252.43 19.61 253.95 19.17 255.28 18.49 256.49 17.62 257.91 16.38 259.27 15.08 261.18 13.26 263.13 11.48" fill="none" stroke="#aaa" stroke-miterlimit="10" stroke-width=".5"/>
  <polyline points="232.88 .09 225.61 1.57 218.56 3.86 215.1 5.71 212.3 8.43 211.46 10.7 211.72 13.12 212.83 15.34 214.41 17.27 216.12 18.84 217.99 20.22 218.99 20.84 220.05 21.32 219.2 20.55 218.19 19.89 214.15 17.52 210.03 15.28 217.14 16.52 224.23 17.79 229.33 18.72 234.42 19.62 237.93 20.19 241.45 20.68 243.81 20.89 246.17 20.91 247.84 20.71 249.44 20.24 250.84 19.52 252.11 18.59 253.6 17.28 255.03 15.9 257.02 13.98 259.05 12.1" fill="none" stroke="#aaa" stroke-miterlimit="10" stroke-width=".5"/>
  <polyline points="227.49 .09 219.96 1.62 212.66 4.01 209.07 5.93 206.18 8.75 205.31 11.11 205.58 13.61 206.73 15.92 208.37 17.92 210.14 19.56 212.08 20.99 213.12 21.64 214.21 22.13 213.34 21.33 212.3 20.65 208.12 18.19 203.86 15.87 211.22 17.16 218.58 18.48 223.86 19.43 229.14 20.37 232.78 20.97 236.42 21.47 238.87 21.69 241.32 21.7 243.04 21.49 244.71 21 246.15 20.24 247.48 19.28 249.02 17.91 250.51 16.47 252.58 14.46 254.7 12.5" fill="none" stroke="#aaa" stroke-miterlimit="10" stroke-width=".5"/>
  <polyline points="222.39 .09 214.6 1.66 207.06 4.1 203.36 6.07 200.36 8.95 199.45 11.36 199.72 13.93 200.89 16.29 202.57 18.34 204.38 20.01 206.35 21.48 207.4 22.14 208.5 22.64 207.56 21.84 206.47 21.13 202.11 18.62 197.68 16.24 205.29 17.55 212.9 18.9 218.34 19.88 223.79 20.83 227.53 21.44 231.28 21.95 233.78 22.17 236.29 22.19 238.05 21.97 239.75 21.45 241.24 20.67 242.59 19.67 244.19 18.26 245.73 16.78 247.89 14.71 250.1 12.68" fill="none" stroke="#aaa" stroke-miterlimit="10" stroke-width=".5"/>
  <polyline points="217.51 .09 209.49 1.68 201.72 4.15 197.9 6.14 194.79 9.06 193.83 11.5 194.08 14.1 195.26 16.5 196.95 18.57 198.78 20.26 200.77 21.75 201.81 22.4 202.9 22.93 201.85 22.11 200.69 21.39 196.13 18.85 191.5 16.44 199.35 17.76 207.19 19.12 212.78 20.1 218.38 21.07 222.2 21.68 226.03 22.19 228.58 22.41 231.12 22.42 232.91 22.19 234.63 21.66 236.13 20.86 237.51 19.84 239.15 18.39 240.74 16.88 242.99 14.76 245.3 12.69" fill="none" stroke="#aaa" stroke-miterlimit="10" stroke-width=".5"/>
  <polyline points="212.78 .09 204.54 1.69 196.53 4.17 192.61 6.16 189.37 9.11 188.37 11.55 188.59 14.18 189.77 16.58 191.47 18.67 193.3 20.36 195.29 21.86 196.3 22.51 197.36 23.05 196.19 22.23 194.94 21.51 190.17 18.96 185.32 16.53 193.4 17.85 201.47 19.2 207.19 20.18 212.92 21.14 216.82 21.75 220.71 22.26 223.29 22.48 225.86 22.48 227.65 22.24 229.38 21.7 230.9 20.88 232.29 19.85 233.97 18.37 235.61 16.84 237.96 14.69 240.37 12.59" fill="none" stroke="#aaa" stroke-miterlimit="10" stroke-width=".5"/>
  <polyline points="208.14 .09 199.68 1.69 191.44 4.18 187.4 6.16 184.05 9.12 182.99 11.55 183.18 14.19 184.35 16.6 186.05 18.69 187.88 20.38 189.87 21.89 190.85 22.53 191.85 23.07 190.56 22.27 189.2 21.53 184.21 18.99 179.15 16.55 187.44 17.86 195.73 19.21 201.59 20.18 207.45 21.13 211.4 21.74 215.36 22.24 217.95 22.45 220.54 22.44 222.34 22.2 224.06 21.65 225.59 20.82 226.99 19.78 228.71 18.28 230.4 16.73 232.85 14.54 235.36 12.43" fill="none" stroke="#aaa" stroke-miterlimit="10" stroke-width=".5"/>
  <polyline points="203.54 .09 194.85 1.69 186.39 4.17 182.24 6.16 178.76 9.11 177.66 11.53 177.81 14.19 178.97 16.6 180.66 18.68 182.49 20.37 184.47 21.88 185.41 22.5 186.36 23.06 184.94 22.27 183.48 21.52 178.25 18.99 172.97 16.54 181.49 17.84 189.99 19.17 195.98 20.13 201.96 21.08 205.97 21.68 209.99 22.18 212.59 22.38 215.2 22.37 216.99 22.12 218.72 21.56 220.25 20.72 221.66 19.67 223.43 18.15 225.16 16.59 227.71 14.38 230.34 12.24" fill="none" stroke="#aaa" stroke-miterlimit="10" stroke-width=".5"/>
  <polyline points="198.95 .09 190.04 1.68 181.34 4.17 177.09 6.14 173.49 9.1 172.33 11.51 172.45 14.17 173.6 16.58 175.29 18.66 177.11 20.35 179.07 21.85 179.98 22.47 180.88 23.04 179.33 22.26 177.76 21.5 172.3 18.97 166.79 16.53 175.53 17.81 184.26 19.13 190.36 20.08 196.47 21.02 200.54 21.61 204.61 22.1 207.23 22.3 209.85 22.28 211.64 22.03 213.36 21.46 214.91 20.61 216.33 19.55 218.13 18.01 219.92 16.44 222.57 14.2 225.31 12.05" fill="none" stroke="#aaa" stroke-miterlimit="10" stroke-width=".5"/>
  <polyline points="194.36 .09 185.23 1.68 176.31 4.17 171.94 6.13 168.22 9.09 167.01 11.48 167.09 14.15 168.23 16.56 169.91 18.64 171.73 20.32 173.68 21.83 174.55 22.43 175.39 23.01 173.72 22.25 172.04 21.48 166.35 18.96 160.61 16.51 169.57 17.77 178.52 19.09 184.75 20.02 190.98 20.96 195.1 21.54 199.22 22.03 201.86 22.22 204.49 22.2 206.28 21.94 208 21.37 209.55 20.5 210.98 19.43 212.83 17.88 214.67 16.3 217.43 14.03 220.29 11.86" fill="none" stroke="#aaa" stroke-miterlimit="10" stroke-width=".5"/>
  <polyline points="189.79 .09 180.44 1.68 171.29 4.16 166.82 6.11 162.97 9.07 161.71 11.45 161.75 14.12 162.88 16.53 164.56 18.6 166.36 20.28 168.31 21.78 169.15 22.38 169.92 22.97 168.12 22.22 166.32 21.44 160.4 18.93 154.44 16.48 163.61 17.72 172.77 19.02 179.12 19.95 185.47 20.87 189.65 21.45 193.83 21.93 196.47 22.12 199.11 22.09 200.9 21.83 202.61 21.25 204.17 20.37 205.61 19.3 207.5 17.73 209.39 16.15 212.27 13.86 215.24 11.68" fill="none" stroke="#aaa" stroke-miterlimit="10" stroke-width=".5"/>
  <polyline points="185.29 .09 175.72 1.67 166.35 4.13 161.76 6.07 157.79 9.02 156.48 11.36 156.48 14.03 157.59 16.43 159.25 18.48 161.05 20.14 162.97 21.64 163.78 22.23 164.48 22.82 162.54 22.09 160.62 21.31 154.46 18.83 148.26 16.4 157.65 17.63 167.02 18.91 173.49 19.82 179.95 20.73 184.17 21.3 188.4 21.77 191.05 21.96 193.69 21.92 195.47 21.65 197.18 21.07 198.74 20.19 200.19 19.12 202.12 17.54 204.06 15.95 207.06 13.65 210.15 11.46" fill="none" stroke="#aaa" stroke-miterlimit="10" stroke-width=".5"/>
  <polyline points="180.9 .09 171.12 1.65 161.53 4.09 156.84 5.99 152.74 8.91 151.37 11.2 151.32 13.85 152.41 16.21 154.05 18.23 155.82 19.87 157.71 21.36 158.49 21.93 159.08 22.53 157 21.83 154.95 21.06 148.53 18.63 142.08 16.25 151.67 17.44 161.25 18.69 167.82 19.58 174.39 20.48 178.65 21.03 182.91 21.5 185.55 21.67 188.19 21.63 189.95 21.36 191.64 20.78 193.2 19.89 194.65 18.83 196.63 17.24 198.62 15.66 201.73 13.36 204.94 11.18" fill="none" stroke="#aaa" stroke-miterlimit="10" stroke-width=".5"/>
  <polyline points="176.71 .09 166.73 1.62 156.92 4 152.13 5.86 147.9 8.71 146.47 10.93 146.36 13.54 147.4 15.85 149.01 17.82 150.74 19.42 152.58 20.87 153.32 21.44 153.77 22.03 151.53 21.38 149.31 20.61 142.62 18.27 135.9 15.95 145.69 17.1 155.46 18.31 162.12 19.17 168.78 20.04 173.05 20.57 177.33 21.02 179.95 21.19 182.56 21.15 184.29 20.88 185.94 20.3 187.49 19.41 188.93 18.37 190.95 16.79 192.99 15.23 196.24 12.93 199.59 10.78" fill="none" stroke="#aaa" stroke-miterlimit="10" stroke-width=".5"/>
  <polyline points="172.78 .09 162.61 1.57 152.6 3.87 147.71 5.66 143.33 8.41 141.84 10.51 141.65 13.06 142.64 15.28 144.19 17.18 145.85 18.71 147.62 20.12 148.32 20.68 148.58 21.24 146.14 20.65 143.73 19.91 136.74 17.68 129.73 15.46 139.68 16.55 149.63 17.7 156.36 18.52 163.08 19.35 167.34 19.85 171.61 20.29 174.18 20.44 176.75 20.4 178.42 20.13 180.02 19.56 181.54 18.69 182.97 17.67 185.03 16.12 187.12 14.6 190.5 12.34 194 10.23" fill="none" stroke="#aaa" stroke-miterlimit="10" stroke-width=".5"/>
  <polyline points="169.15 .09 158.79 1.5 148.58 3.68 143.61 5.37 139.08 7.98 137.52 9.93 137.22 12.38 138.14 14.49 139.61 16.27 141.19 17.72 142.84 19.06 143.49 19.61 143.51 20.14 140.85 19.61 138.22 18.91 130.89 16.85 123.55 14.77 133.66 15.77 143.76 16.84 150.52 17.6 157.29 18.37 161.51 18.84 165.74 19.25 168.24 19.39 170.73 19.34 172.33 19.09 173.85 18.54 175.33 17.7 176.73 16.72 178.82 15.22 180.96 13.76 184.51 11.57 188.15 9.54" fill="none" stroke="#aaa" stroke-miterlimit="10" stroke-width=".5"/>
  <polyline points="165.76 .09 155.24 1.41 144.84 3.45 139.77 5.01 135.08 7.44 133.47 9.21 133.04 11.53 133.86 13.49 135.24 15.14 136.7 16.48 138.23 17.74 138.82 18.3 138.56 18.76 135.64 18.31 132.76 17.66 125.06 15.79 117.37 13.88 127.62 14.78 137.85 15.76 144.63 16.45 151.41 17.16 155.57 17.59 159.74 17.96 162.14 18.09 164.53 18.04 166.04 17.8 167.47 17.28 168.89 16.48 170.26 15.56 172.39 14.12 174.57 12.75 178.29 10.66 182.11 8.74" fill="none" stroke="#aaa" stroke-miterlimit="10" stroke-width=".5"/>
  <polyline points="162.51 .09 151.83 1.31 141.25 3.18 136.09 4.61 131.24 6.85 129.57 8.41 128.99 10.58 129.72 12.38 130.98 13.88 132.33 15.1 133.71 16.26 134.23 16.87 133.66 17.22 130.48 16.85 127.32 16.26 119.26 14.6 111.19 12.89 121.56 13.68 131.92 14.55 138.7 15.17 145.48 15.81 149.57 16.19 153.66 16.53 155.95 16.65 158.22 16.6 159.62 16.37 160.96 15.89 162.32 15.13 163.64 14.29 165.81 12.93 168.04 11.66 171.95 9.68 175.94 7.89" fill="none" stroke="#aaa" stroke-miterlimit="10" stroke-width=".5"/>
  <polyline points="159.3 .08 148.45 1.2 137.69 2.91 132.43 4.21 127.43 6.24 125.71 7.61 124.97 9.62 125.6 11.26 126.75 12.61 127.98 13.7 129.21 14.77 129.55 15.45 128.78 15.66 125.33 15.36 121.9 14.84 113.46 13.39 105.02 11.86 115.5 12.55 125.98 13.32 132.75 13.86 139.53 14.43 143.54 14.76 147.54 15.07 149.71 15.17 151.88 15.12 153.17 14.91 154.4 14.47 155.7 13.76 156.98 12.99 159.19 11.72 161.47 10.55 165.56 8.71 169.74 7.06" fill="none" stroke="#aaa" stroke-miterlimit="10" stroke-width=".5"/>
  <polyline points="155.98 .08 144.97 1.1 134.02 2.66 128.67 3.83 123.52 5.67 121.77 6.86 120.87 8.72 121.4 10.21 122.44 11.42 123.55 12.4 124.64 13.38 124.69 14.07 123.85 14.2 120.15 13.96 116.45 13.51 107.65 12.24 98.84 10.9 109.44 11.5 120.04 12.16 126.82 12.62 133.6 13.12 137.53 13.41 141.46 13.67 143.53 13.75 145.58 13.7 146.78 13.5 147.91 13.08 149.16 12.42 150.39 11.72 152.65 10.54 154.98 9.48 159.26 7.78 163.62 6.26" fill="none" stroke="#aaa" stroke-miterlimit="10" stroke-width=".5"/>
  <polyline points="152.47 .08 141.27 1.02 130.14 2.45 124.68 3.51 119.39 5.19 117.6 6.24 116.56 7.96 117.01 9.32 117.97 10.41 118.98 11.3 119.95 12.2 119.74 12.86 118.84 12.97 114.9 12.78 110.96 12.38 101.81 11.27 92.66 10.08 103.4 10.6 114.13 11.18 120.93 11.58 127.73 12.02 131.61 12.27 135.48 12.49 137.46 12.56 139.43 12.5 140.53 12.31 141.59 11.92 142.79 11.29 144 10.65 146.31 9.55 148.69 8.58 153.16 7 157.69 5.6" fill="none" stroke="#aaa" stroke-miterlimit="10" stroke-width=".5"/>
  <polyline points="148.66 .08 137.27 .96 125.94 2.29 120.37 3.28 114.95 4.83 113.13 5.78 111.96 7.4 112.35 8.66 113.24 9.67 114.18 10.48 115.06 11.33 114.66 11.96 113.7 12.06 109.55 11.9 105.41 11.54 95.95 10.55 86.48 9.47 97.38 9.93 108.26 10.45 115.11 10.81 121.95 11.2 125.8 11.42 129.65 11.62 131.57 11.67 133.47 11.61 134.52 11.42 135.51 11.05 136.69 10.45 137.88 9.85 140.25 8.82 142.68 7.91 147.32 6.42 152.02 5.11" fill="none" stroke="#aaa" stroke-miterlimit="10" stroke-width=".5"/>
  <polyline points="144.5 .07 132.91 .92 121.37 2.19 115.69 3.14 110.14 4.62 108.28 5.51 107.02 7.06 107.37 8.27 108.23 9.23 109.12 9.99 109.95 10.81 109.41 11.42 108.4 11.52 104.09 11.38 99.78 11.05 90.05 10.12 80.31 9.11 91.38 9.54 102.44 10.02 109.37 10.36 116.29 10.72 120.14 10.92 124 11.1 125.88 11.15 127.76 11.08 128.77 10.89 129.73 10.54 130.9 9.95 132.09 9.38 134.52 8.38 137.01 7.51 141.8 6.08 146.65 4.82" fill="none" stroke="#aaa" stroke-miterlimit="10" stroke-width=".5"/>
  <polyline points="139.96 .07 128.15 .91 116.39 2.17 110.59 3.1 104.93 4.56 103.04 5.44 101.72 6.97 102.05 8.16 102.9 9.1 103.78 9.86 104.59 10.67 103.99 11.27 102.94 11.37 98.5 11.24 94.08 10.92 84.1 10.02 74.13 9.03 85.41 9.44 96.68 9.91 103.72 10.24 110.74 10.59 114.65 10.79 118.54 10.96 120.43 11 122.31 10.93 123.32 10.74 124.27 10.39 125.46 9.81 126.66 9.24 129.15 8.24 131.7 7.39 136.63 5.97 141.62 4.72" fill="none" stroke="#aaa" stroke-miterlimit="10" stroke-width=".5"/>
  <polyline points="135.08 .07 123.03 .93 111.03 2.21 105.12 3.16 99.34 4.65 97.41 5.54 96.07 7.11 96.41 8.32 97.28 9.28 98.18 10.05 99.01 10.87 98.4 11.49 97.33 11.59 92.81 11.46 88.29 11.13 78.12 10.21 67.95 9.2 79.47 9.62 90.98 10.1 98.15 10.43 105.32 10.79 109.3 11 113.28 11.17 115.2 11.22 117.12 11.14 118.15 10.95 119.12 10.59 120.34 9.99 121.57 9.41 124.12 8.39 126.74 7.51 131.8 6.06 136.91 4.79" fill="none" stroke="#aaa" stroke-miterlimit="10" stroke-width=".5"/>
  <polyline points="129.89 .07 117.59 .97 105.35 2.3 99.32 3.3 93.44 4.86 91.47 5.8 90.13 7.44 90.5 8.71 91.4 9.71 92.35 10.52 93.23 11.38 92.66 12.02 91.59 12.12 87.01 11.98 82.44 11.63 72.11 10.66 61.77 9.6 73.55 10.04 85.31 10.55 92.66 10.9 100.01 11.28 104.09 11.5 108.17 11.69 110.16 11.73 112.14 11.66 113.21 11.46 114.23 11.08 115.49 10.46 116.76 9.85 119.39 8.78 122.07 7.86 127.24 6.34 132.46 5" fill="none" stroke="#aaa" stroke-miterlimit="10" stroke-width=".5"/>
  <polyline points="124.5 .08 111.94 1.02 99.44 2.44 93.3 3.5 87.31 5.16 85.3 6.17 83.99 7.9 84.39 9.26 85.36 10.33 86.37 11.19 87.32 12.1 86.82 12.78 85.75 12.88 81.14 12.72 76.55 12.35 66.07 11.29 55.6 10.15 67.65 10.64 79.69 11.19 87.22 11.57 94.76 11.98 98.97 12.22 103.18 12.42 105.25 12.47 107.31 12.39 108.45 12.19 109.52 11.78 110.84 11.12 112.16 10.48 114.85 9.34 117.61 8.36 122.88 6.74 128.21 5.32" fill="none" stroke="#aaa" stroke-miterlimit="10" stroke-width=".5"/>
  <polyline points="119 .08 106.18 1.08 93.43 2.6 87.16 3.73 81.07 5.51 79.03 6.6 77.74 8.44 78.2 9.89 79.23 11.04 80.31 11.97 81.34 12.93 80.93 13.65 79.87 13.76 75.25 13.58 70.63 13.17 60.03 12.02 49.42 10.78 61.75 11.32 74.07 11.92 81.81 12.34 89.55 12.79 93.9 13.04 98.24 13.27 100.41 13.33 102.56 13.25 103.76 13.03 104.9 12.6 106.28 11.9 107.66 11.2 110.42 9.99 113.25 8.94 118.62 7.21 124.05 5.69" fill="none" stroke="#aaa" stroke-miterlimit="10" stroke-width=".5"/>
  <polyline points="113.51 .08 100.43 1.15 87.42 2.76 81.04 3.96 74.84 5.86 72.76 7.03 71.5 8.99 72.01 10.52 73.1 11.75 74.25 12.75 75.36 13.77 75.05 14.52 73.99 14.65 69.35 14.44 64.72 13.99 53.98 12.76 43.24 11.42 55.86 12 68.46 12.65 76.4 13.11 84.34 13.59 88.82 13.87 93.3 14.12 95.56 14.18 97.81 14.1 99.07 13.87 100.28 13.41 101.71 12.67 103.16 11.93 105.99 10.65 108.88 9.52 114.35 7.68 119.89 6.06" fill="none" stroke="#aaa" stroke-miterlimit="10" stroke-width=".5"/>
  <polyline points="108.12 .08 94.79 1.2 81.52 2.9 75.02 4.17 68.73 6.17 66.6 7.42 65.36 9.47 65.91 11.09 67.06 12.39 68.28 13.44 69.45 14.51 69.23 15.3 68.16 15.43 63.49 15.2 58.82 14.72 47.94 13.4 37.06 11.98 49.95 12.61 62.83 13.3 70.96 13.79 79.09 14.31 83.7 14.61 88.31 14.87 90.65 14.94 92.97 14.86 94.3 14.61 95.56 14.13 97.05 13.35 98.55 12.57 101.45 11.22 104.42 10.03 109.99 8.09 115.64 6.38" fill="none" stroke="#aaa" stroke-miterlimit="10" stroke-width=".5"/>
  <polyline points="102.91 .08 89.32 1.25 75.81 3.01 69.19 4.33 62.79 6.4 60.63 7.71 59.4 9.84 59.97 11.52 61.17 12.87 62.43 13.97 63.66 15.08 63.48 15.89 62.41 16.03 57.68 15.79 52.97 15.29 41.93 13.91 30.89 12.43 44.04 13.08 57.18 13.81 65.48 14.32 73.78 14.86 78.5 15.18 83.22 15.45 85.63 15.53 88.02 15.44 89.39 15.18 90.69 14.69 92.23 13.88 93.78 13.06 96.74 11.65 99.78 10.41 105.48 8.4 111.24 6.61" fill="none" stroke="#aaa" stroke-miterlimit="10" stroke-width=".5"/>
  <polyline points="97.89 .08 84.07 1.27 70.32 3.08 63.58 4.43 57.07 6.56 54.87 7.9 53.62 10.08 54.22 11.8 55.44 13.19 56.74 14.31 57.99 15.45 57.83 16.28 56.74 16.42 51.94 16.17 47.16 15.66 35.93 14.24 24.71 12.72 38.11 13.39 51.5 14.14 59.96 14.67 68.41 15.22 73.22 15.55 78.03 15.83 80.48 15.91 82.92 15.82 84.33 15.55 85.66 15.04 87.23 14.21 88.81 13.37 91.85 11.93 94.96 10.65 100.78 8.58 106.67 6.75" fill="none" stroke="#aaa" stroke-miterlimit="10" stroke-width=".5"/>
  <polyline points="93.06 .08 79 1.29 65.01 3.12 58.16 4.49 51.54 6.64 49.3 8 48.02 10.2 48.62 11.95 49.86 13.35 51.17 14.48 52.44 15.64 52.26 16.48 51.15 16.63 46.26 16.37 41.38 15.86 29.95 14.42 18.53 12.89 32.17 13.56 45.79 14.32 54.39 14.85 62.98 15.42 67.86 15.74 72.74 16.03 75.23 16.1 77.7 16.01 79.12 15.74 80.47 15.22 82.07 14.37 83.68 13.52 86.79 12.05 89.97 10.75 95.92 8.66 101.95 6.79" fill="none" stroke="#aaa" stroke-miterlimit="10" stroke-width=".5"/>
  <polyline points="88.34 .08 74.05 1.3 59.83 3.13 52.87 4.51 46.13 6.67 43.85 8.03 42.54 10.25 43.13 12 44.38 13.41 45.69 14.54 46.96 15.71 46.74 16.56 45.61 16.7 40.62 16.45 35.64 15.93 23.99 14.5 12.35 12.96 26.21 13.64 40.06 14.4 48.79 14.93 57.51 15.49 62.46 15.82 67.4 16.1 69.9 16.18 72.39 16.08 73.82 15.8 75.18 15.28 76.81 14.42 78.44 13.56 81.61 12.08 84.86 10.77 90.95 8.66 97.12 6.78" fill="none" stroke="#aaa" stroke-miterlimit="10" stroke-width=".5"/>
  <polyline points="83.66 .08 69.15 1.3 54.7 3.14 47.63 4.52 40.77 6.68 38.46 8.04 37.1 10.26 37.69 12.01 38.93 13.42 40.25 14.56 41.52 15.72 41.25 16.58 40.09 16.72 34.99 16.48 29.9 15.96 18.03 14.54 6.18 13 20.26 13.68 34.33 14.43 43.18 14.96 52.03 15.52 57.03 15.84 62.02 16.12 64.54 16.2 67.05 16.09 68.48 15.82 69.85 15.29 71.5 14.42 73.15 13.56 76.39 12.07 79.71 10.75 85.94 8.63 92.26 6.74" fill="none" stroke="#aaa" stroke-miterlimit="10" stroke-width=".5"/>
  <polyline points="79 .08 64.26 1.3 49.59 3.14 42.4 4.52 35.43 6.69 33.07 8.03 31.67 10.26 32.25 12.02 33.5 13.42 34.82 14.56 36.08 15.73 35.77 16.58 34.58 16.73 29.36 16.49 24.16 15.98 12.08 14.56 0 13.03 14.3 13.7 28.59 14.45 37.57 14.97 46.54 15.53 51.59 15.85 56.64 16.13 59.17 16.2 61.7 16.1 63.14 15.82 64.5 15.28 66.17 14.41 67.85 13.54 71.16 12.05 74.55 10.73 80.93 8.59 87.39 6.69" fill="none" stroke="#aaa" stroke-miterlimit="10" stroke-width=".5"/>
</svg>