<?xml version="1.0" encoding="UTF-8"?>
<svg id="Ebene_1" xmlns="http://www.w3.org/2000/svg" width="222" height="222" viewBox="0 0 222 222">
  <polyline points="202.71 116.45 202.68 116.51 202.61 116.54 196.87 116.54 191.14 116.54 190.34 121.76 189.54 126.98 189.51 127.05 189.44 127.07 183.48 127.07 177.52 127.07 176.73 132.22 175.95 137.37 193.39 137.37 210.83 137.37 213.27 121.51 215.71 105.65 210.04 105.65 204.36 105.65 203.54 111.05 202.71 116.45" fill="none" stroke="#aaa" stroke-miterlimit="10" stroke-width=".5"/>
  <polyline points="215.93 105.55 215.93 105.55 215.93 105.56 213.48 121.53 211.02 137.49 210.99 137.55 210.92 137.58 193.37 137.58 175.83 137.58 175.78 137.57 175.75 137.54 175.73 137.5 175.72 137.46 176.53 132.2 177.33 126.95 177.36 126.89 177.43 126.86 183.39 126.86 189.35 126.86 190.15 121.64 190.95 116.42 190.98 116.36 191.05 116.33 196.78 116.33 202.52 116.33 203.34 110.93 204.17 105.53 204.2 105.47 204.27 105.44 210.05 105.44 215.83 105.44 215.87 105.45 215.91 105.48 215.93 105.51 215.93 105.55" fill="none" stroke="#aaa" stroke-miterlimit="10" stroke-width=".5"/>
  <polyline points="189.55 126.97 189.54 126.94 189.53 126.92 187.1 122.05 184.66 117.18 184.63 117.14 184.57 117.13 178.56 117.13 172.55 117.13 172.48 117.15 172.45 117.21 171.65 122.47 170.86 127.72 170.86 127.76 170.87 127.79 173.3 132.65 175.73 137.52 175.79 137.57 175.87 137.57 175.92 137.51 175.92 137.43 173.49 132.57 171.07 127.72 171.85 122.53 172.64 117.33 178.57 117.33 184.51 117.33 186.93 122.17 189.35 127.01 189.41 127.07 189.49 127.06 189.53 127.02 189.55 126.97" fill="none" stroke="#aaa" stroke-miterlimit="10" stroke-width=".5"/>
  <polyline points="177.53 126.97 177.53 126.94 177.52 126.92 175.08 122.05 172.64 117.18 172.58 117.13 172.5 117.14 172.45 117.2 172.46 117.28 174.9 122.14 177.34 127.01 177.4 127.07 177.48 127.06 177.52 127.02 177.53 126.97" fill="none" stroke="#aaa" stroke-miterlimit="10" stroke-width=".5"/>
  <polyline points="191.15 116.44 191.15 116.41 191.14 116.39 188.7 111.52 186.26 106.65 186.22 106.6 186.15 106.59 186.1 106.62 186.07 106.68 185.27 111.95 184.47 117.21 184.49 117.29 184.56 117.33 184.63 117.31 184.67 117.24 185.45 112.14 186.22 107.04 188.59 111.76 190.96 116.48 191.02 116.53 191.1 116.53 191.14 116.49 191.15 116.44" fill="none" stroke="#aaa" stroke-miterlimit="10" stroke-width=".5"/>
  <polyline points="202.71 116.44 202.71 116.41 202.7 116.39 200.26 111.52 197.83 106.65 197.79 106.6 197.74 106.59 191.95 106.59 186.17 106.59 186.1 106.62 186.06 106.7 186.1 106.77 186.17 106.8 191.92 106.8 197.67 106.8 200.09 111.64 202.52 116.48 202.58 116.53 202.66 116.53 202.7 116.49 202.71 116.44" fill="none" stroke="#aaa" stroke-miterlimit="10" stroke-width=".5"/>
  <polyline points="204.38 105.55 204.37 105.52 204.36 105.5 201.92 100.63 199.48 95.76 199.44 95.72 199.37 95.7 199.32 95.73 199.29 95.79 198.46 101.23 197.63 106.68 197.65 106.75 197.72 106.8 197.8 106.78 197.84 106.71 198.64 101.43 199.44 96.15 201.81 100.87 204.18 105.59 204.24 105.64 204.32 105.64 204.36 105.6 204.38 105.55" fill="none" stroke="#aaa" stroke-miterlimit="10" stroke-width=".5"/>
  <polyline points="215.93 105.55 215.93 105.52 215.92 105.5 213.48 100.62 211.04 95.74 211 95.7 210.95 95.68 205.17 95.69 199.39 95.7 199.32 95.73 199.29 95.81 199.32 95.88 199.39 95.91 205.14 95.9 210.89 95.89 213.31 100.74 215.74 105.59 215.8 105.64 215.88 105.64 215.92 105.6 215.93 105.55" fill="none" stroke="#aaa" stroke-miterlimit="10" stroke-width=".5"/>
</svg>