<?xml version="1.0" encoding="UTF-8"?>
<svg id="Ebene_1" xmlns="http://www.w3.org/2000/svg" width="222" height="222" viewBox="0 0 222 222">
  <polyline points="132.4 183.69 132.35 183.72 132.3 183.73 132.26 183.71 132.22 183.67 130.03 179.2 127.84 174.73 122.81 177.18 117.77 179.64 121.1 186.51 124.42 193.38 124.43 193.44 124.41 193.49 118.89 200.31 113.36 207.14 117.63 209.66 121.89 212.17 125.5 207.73 129.11 203.28 129.15 203.25 129.2 203.24 129.25 203.26 129.28 203.3 131.48 207.77 133.67 212.24 138.73 209.77 143.8 207.29 140.46 200.4 137.13 193.5 137.12 193.44 137.14 193.39 142.64 186.61 148.15 179.83 143.88 177.31 139.62 174.79 136.01 179.24 132.4 183.69" fill="none" stroke="#aaa" stroke-miterlimit="10" stroke-width=".5"/>
  <polyline points="148.41 179.8 148.4 179.83 148.38 179.86 142.86 186.67 137.34 193.47 140.69 200.38 144.03 207.3 144.04 207.38 143.99 207.44 138.83 209.95 133.66 212.47 133.58 212.47 133.53 212.42 131.35 207.98 129.17 203.53 125.58 207.95 122 212.37 121.93 212.41 121.86 212.4 117.51 209.83 113.15 207.26 113.12 207.23 113.1 207.19 113.1 207.14 113.12 207.1 118.67 200.26 124.21 193.41 120.88 186.52 117.54 179.64 117.54 179.56 117.59 179.5 122.72 177 127.84 174.5 127.92 174.49 127.98 174.55 130.16 178.99 132.34 183.43 135.92 179.01 139.51 174.59 139.57 174.56 139.65 174.57 144 177.14 148.36 179.71 148.39 179.74 148.41 179.78 148.41 179.79 148.41 179.8" fill="none" stroke="#aaa" stroke-miterlimit="10" stroke-width=".5"/>
  <polyline points="148.41 179.8 148.4 179.78 148.4 179.75 146.14 175.07 143.89 170.39 143.88 170.36 143.85 170.34 139.5 167.77 135.14 165.2 135.07 165.19 135.01 165.23 131.34 169.74 127.68 174.25 127.65 174.33 127.69 174.4 127.77 174.42 127.84 174.38 131.47 169.9 135.11 165.43 139.42 167.97 143.72 170.51 145.96 175.18 148.21 179.84 148.27 179.9 148.35 179.89 148.39 179.85 148.41 179.8" fill="none" stroke="#aaa" stroke-miterlimit="10" stroke-width=".5"/>
  <polyline points="127.99 174.59 127.99 174.57 127.98 174.55 125.73 169.86 123.48 165.18 123.45 165.15 123.42 165.13 123.38 165.12 123.34 165.13 118.18 167.65 113.02 170.16 112.99 170.19 112.97 170.22 112.96 170.26 112.97 170.3 115.26 174.97 117.54 179.64 117.6 179.69 117.68 179.68 117.73 179.62 117.73 179.54 115.47 174.92 113.2 170.31 118.27 167.84 123.34 165.36 125.57 170 127.8 174.64 127.86 174.69 127.94 174.68 127.98 174.65 127.99 174.59" fill="none" stroke="#aaa" stroke-miterlimit="10" stroke-width=".5"/>
  <polyline points="139.7 174.66 139.69 174.64 139.69 174.61 137.43 169.93 135.18 165.25 135.12 165.19 135.04 165.2 134.99 165.26 134.99 165.34 137.25 170.02 139.5 174.7 139.56 174.76 139.64 174.75 139.68 174.71 139.7 174.66" fill="none" stroke="#aaa" stroke-miterlimit="10" stroke-width=".5"/>
  <polyline points="119.92 184.1 119.91 184.06 119.89 184.02 119.81 184 119.74 184.04 114.18 190.89 108.62 197.74 108.6 197.79 108.61 197.85 110.86 202.53 113.11 207.21 113.17 207.27 113.25 207.26 113.3 207.2 113.3 207.12 111.06 202.47 108.82 197.82 114.36 190.99 119.9 184.17 119.92 184.14 119.92 184.1" fill="none" stroke="#aaa" stroke-miterlimit="10" stroke-width=".5"/>
</svg>