<?xml version="1.0" encoding="UTF-8"?><svg id="Ebene_1" xmlns="http://www.w3.org/2000/svg" viewBox="0 0 222 222"><polyline points="218.77 2.77 224.01 6.31 228.98 10.21 232.06 13.03 234.88 16.09 236.54 18.19 238.07 20.38 239.05 21.78 240.17 23.06 241.38 23.82 242.79 24.11 245.18 23.97 247.54 23.51 251.81 22.43 256.05 21.24 262.97 19.24 269.91 17.26 265.7 19.56 261.5 21.88 260.01 22.68 258.48 23.39 258.54 22.94 258.92 22.44 259.94 21.08 260.88 19.66 261.85 17.76 262.45 15.72 262.47 13.41 261.7 11.23 259.51 8.7 256.69 6.86 251.23 4.67 245.51 3.24" style="fill:none; stroke:#aaa; stroke-miterlimit:10; stroke-width:.5px;"/><polyline points="213.93 2.77 218.95 6.53 223.69 10.64 226.65 13.64 229.37 16.85 231.01 19.08 232.54 21.37 233.54 22.85 234.71 24.19 235.96 24.98 237.42 25.28 239.83 25.11 242.22 24.6 246.44 23.43 250.63 22.15 257.41 20.01 264.2 17.89 260.26 20.27 256.34 22.69 255.01 23.51 253.65 24.27 253.85 23.8 254.26 23.29 255.35 21.9 256.33 20.43 257.35 18.46 258.01 16.34 258.11 13.96 257.43 11.68 255.43 9.07 252.75 7.12 247.58 4.84 242.12 3.33" style="fill:none; stroke:#aaa; stroke-miterlimit:10; stroke-width:.5px;"/><polyline points="208.77 2.77 213.55 6.88 218.03 11.31 220.9 14.58 223.52 18.04 225.14 20.47 226.68 22.94 227.73 24.53 228.97 25.97 230.3 26.8 231.84 27.11 234.31 26.9 236.74 26.33 240.96 25.04 245.14 23.61 251.81 21.26 258.49 18.91 254.84 21.43 251.25 24.01 250.1 24.86 248.95 25.7 249.35 25.21 249.81 24.68 250.99 23.22 252.05 21.66 253.14 19.56 253.87 17.32 254.07 14.82 253.51 12.37 251.7 9.62 249.16 7.52 244.28 5.08 239.06 3.45" style="fill:none; stroke:#aaa; stroke-miterlimit:10; stroke-width:.5px;"/><polyline points="203.37 2.77 207.91 7.32 212.14 12.15 214.9 15.77 217.42 19.54 219.04 22.22 220.6 24.91 221.71 26.65 223.04 28.22 224.46 29.11 226.11 29.43 228.67 29.18 231.17 28.53 235.42 27.07 239.6 25.46 246.19 22.84 252.77 20.21 249.44 22.91 246.2 25.69 245.24 26.58 244.35 27.53 244.94 27.04 245.5 26.45 246.79 24.89 247.94 23.22 249.13 20.97 249.96 18.57 250.26 15.9 249.82 13.25 248.23 10.33 245.82 8.02 241.23 5.39 236.24 3.6" style="fill:none; stroke:#aaa; stroke-miterlimit:10; stroke-width:.5px;"/><polyline points="197.84 2.77 202.13 7.79 206.09 13.06 208.75 17.06 211.18 21.17 212.79 24.12 214.39 27.07 215.56 28.99 217 30.7 218.52 31.67 220.29 32.02 222.95 31.72 225.54 30.99 229.83 29.36 234.04 27.55 240.56 24.63 247.07 21.67 244.05 24.57 241.18 27.59 240.38 28.54 239.8 29.59 240.58 29.12 241.27 28.45 242.69 26.79 243.94 24.99 245.24 22.57 246.16 19.99 246.59 17.13 246.27 14.26 244.88 11.15 242.63 8.59 238.34 5.75 233.57 3.79" style="fill:none; stroke:#aaa; stroke-miterlimit:10; stroke-width:.5px;"/><polyline points="192.28 2.77 196.32 8.24 200.02 13.92 202.57 18.35 204.91 22.89 206.54 26.31 208.15 29.74 209.43 32.22 210.93 34.56 212.51 36.22 214.45 37.42 217.12 38.2 219.9 38.42 224.19 38.19 228.47 37.62 234.93 36.45 241.35 35.11 238.81 36.49 236.16 37.65 235.32 37.69 235.25 36.91 236.08 35.23 237.04 33.61 238.54 31.08 239.95 28.48 241.33 25.42 242.38 22.23 242.92 18.93 242.75 15.59 241.58 12.19 239.46 9.28 235.49 6.19 230.93 4.02" style="fill:none; stroke:#aaa; stroke-miterlimit:10; stroke-width:.5px;"/><polyline points="186.81 2.77 190.58 8.66 194.03 14.73 196.48 19.54 198.73 24.43 200.36 28.22 201.99 32.01 203.35 34.88 204.94 37.62 206.61 39.71 208.67 41.41 211.37 42.74 214.29 43.53 218.58 44.03 222.91 44.12 229.28 43.85 235.64 43.33 233.41 44.02 231.11 44.13 230.45 43.17 230.66 41.92 231.61 39.62 232.75 37.39 234.34 34.33 235.87 31.23 237.34 27.75 238.5 24.15 239.15 20.52 239.12 16.84 238.16 13.21 236.22 9.99 232.58 6.69 228.26 4.31" style="fill:none; stroke:#aaa; stroke-miterlimit:10; stroke-width:.5px;"/><polyline points="181.52 2.77 185.03 9.02 188.25 15.42 190.58 20.54 192.74 25.73 194.37 29.83 196.02 33.91 197.44 37.1 199.1 40.15 200.85 42.57 203.01 44.65 205.75 46.38 208.77 47.59 213.03 48.61 217.4 49.18 223.66 49.55 229.93 49.61 227.9 49.82 226.03 49.16 225.62 47.54 225.98 45.87 227.06 43.11 228.32 40.43 230 36.99 231.62 33.51 233.18 29.71 234.43 25.8 235.18 21.92 235.29 17.96 234.52 14.15 232.76 10.68 229.46 7.21 225.4 4.64" style="fill:none; stroke:#aaa; stroke-miterlimit:10; stroke-width:.5px;"/><polyline points="176.5 2.77 179.76 9.29 182.76 15.93 184.97 21.3 187.04 26.72 188.65 31.04 190.3 35.35 191.77 38.77 193.48 42.07 195.3 44.74 197.52 47.1 200.29 49.13 203.36 50.68 207.58 52.08 211.95 53.03 218.06 53.88 224.22 54.39 222.31 54.15 220.89 52.92 220.7 50.86 221.18 48.81 222.36 45.72 223.72 42.69 225.46 38.98 227.15 35.24 228.76 31.21 230.09 27.09 230.93 23.03 231.16 18.89 230.57 14.96 229.01 11.31 226.04 7.72 222.25 4.99" style="fill:none; stroke:#aaa; stroke-miterlimit:10; stroke-width:.5px;"/><polyline points="171.77 2.77 174.78 9.47 177.57 16.26 179.66 21.79 181.65 27.35 183.23 31.83 184.87 36.29 186.36 39.87 188.11 43.34 189.97 46.2 192.22 48.76 194.98 51.02 198.08 52.81 202.23 54.5 206.55 55.74 212.5 56.95 218.51 57.82 216.72 57.15 215.68 55.58 215.66 53.19 216.25 50.85 217.5 47.53 218.93 44.27 220.7 40.38 222.43 36.46 224.08 32.3 225.46 28.04 226.37 23.88 226.72 19.64 226.28 15.64 224.92 11.87 222.28 8.21 218.77 5.36" style="fill:none; stroke:#aaa; stroke-miterlimit:10; stroke-width:.5px;"/><polyline points="167.28 2.77 170.07 9.56 172.65 16.42 174.63 22.04 176.52 27.67 178.06 32.25 179.68 36.79 181.18 40.49 182.94 44.06 184.82 47.05 187.08 49.76 189.82 52.17 192.9 54.16 196.96 56.06 201.21 57.54 206.96 59.02 212.8 60.17 211.17 59.12 210.41 57.33 210.54 54.71 211.21 52.16 212.51 48.69 213.98 45.28 215.76 41.28 217.5 37.26 219.17 33.03 220.58 28.7 221.56 24.5 222 20.2 221.71 16.19 220.54 12.35 218.21 8.67 215 5.73" style="fill:none; stroke:#aaa; stroke-miterlimit:10; stroke-width:.5px;"/><polyline points="162.98 2.77 165.54 9.59 167.93 16.46 169.78 22.11 171.58 27.77 173.08 32.4 174.67 36.98 176.16 40.74 177.92 44.39 179.8 47.46 182.05 50.27 184.76 52.81 187.81 54.94 191.76 57.01 195.91 58.67 201.45 60.38 207.09 61.75 205.64 60.37 205.11 58.43 205.35 55.65 206.09 52.95 207.42 49.38 208.9 45.88 210.68 41.83 212.42 37.76 214.09 33.51 215.52 29.17 216.54 24.96 217.07 20.67 216.92 16.67 215.95 12.8 213.93 9.14 211.03 6.13" style="fill:none; stroke:#aaa; stroke-miterlimit:10; stroke-width:.5px;"/><polyline points="158.78 2.77 161.12 9.58 163.33 16.43 165.06 22.08 166.77 27.73 168.21 32.38 169.77 36.98 171.25 40.78 172.99 44.46 174.87 47.6 177.1 50.49 179.77 53.11 182.76 55.36 186.59 57.57 190.63 59.38 195.95 61.27 201.38 62.85 200.14 61.19 199.78 59.13 200.13 56.23 200.92 53.41 202.26 49.79 203.76 46.22 205.52 42.16 207.25 38.08 208.9 33.84 210.35 29.52 211.41 25.34 212.02 21.06 212 17.11 211.22 13.23 209.5 9.61 206.9 6.55" style="fill:none; stroke:#aaa; stroke-miterlimit:10; stroke-width:.5px;"/><polyline points="154.65 2.77 156.77 9.52 158.78 16.29 160.4 21.91 162.01 27.52 163.4 32.16 164.92 36.76 166.38 40.59 168.11 44.31 169.97 47.51 172.19 50.48 174.8 53.19 177.74 55.56 181.44 57.89 185.37 59.86 190.46 61.92 195.67 63.68 194.64 61.78 194.43 59.62 194.87 56.63 195.71 53.71 197.07 50.06 198.56 46.46 200.3 42.4 202.01 38.34 203.65 34.13 205.1 29.85 206.2 25.7 206.89 21.47 206.99 17.56 206.4 13.7 204.98 10.13 202.7 7.03" style="fill:none; stroke:#aaa; stroke-miterlimit:10; stroke-width:.5px;"/><polyline points="150.53 2.77 152.43 9.4 154.26 16.05 155.75 21.61 157.27 27.16 158.61 31.79 160.08 36.38 161.54 40.25 163.25 44.01 165.1 47.28 167.28 50.33 169.85 53.15 172.72 55.64 176.3 58.11 180.1 60.23 184.96 62.46 189.96 64.39 189.15 62.29 189.07 60.02 189.6 56.96 190.49 53.97 191.85 50.3 193.33 46.68 195.04 42.65 196.73 38.61 198.35 34.45 199.81 30.22 200.94 26.12 201.7 21.95 201.94 18.09 201.55 14.26 200.41 10.74 198.46 7.6" style="fill:none; stroke:#aaa; stroke-miterlimit:10; stroke-width:.5px;"/><polyline points="146.41 2.77 148.1 9.27 149.74 15.77 151.11 21.26 152.53 26.74 153.82 31.36 155.25 35.94 156.69 39.84 158.38 43.64 160.22 46.99 162.38 50.13 164.89 53.05 167.71 55.68 171.16 58.29 174.84 60.57 179.47 62.96 184.25 65.06 183.65 62.78 183.71 60.41 184.32 57.29 185.25 54.23 186.61 50.56 188.08 46.93 189.76 42.94 191.42 38.94 193.03 34.83 194.49 30.66 195.65 26.62 196.49 22.51 196.85 18.71 196.65 14.91 195.79 11.44 194.18 8.26" style="fill:none; stroke:#aaa; stroke-miterlimit:10; stroke-width:.5px;"/><polyline points="142.3 2.77 143.77 9.11 145.22 15.45 146.48 20.86 147.8 26.24 149.04 30.85 150.43 35.41 151.85 39.36 153.52 43.21 155.35 46.63 157.48 49.87 159.94 52.91 162.7 55.67 166.03 58.42 169.58 60.86 173.98 63.41 178.54 65.67 178.16 63.24 178.34 60.78 179.03 57.6 179.99 54.5 181.35 50.84 182.81 47.22 184.46 43.27 186.09 39.32 187.67 35.27 189.13 31.18 190.32 27.21 191.23 23.16 191.71 19.43 191.7 15.66 191.11 12.25 189.83 9.05" style="fill:none; stroke:#aaa; stroke-miterlimit:10; stroke-width:.5px;"/><polyline points="138.22 2.77 139.47 8.91 140.74 15.05 141.88 20.36 143.1 25.64 144.28 30.23 145.64 34.76 147.04 38.75 148.69 42.64 150.5 46.15 152.6 49.49 155.01 52.63 157.7 55.54 160.9 58.41 164.33 61.02 168.5 63.71 172.83 66.14 172.65 63.59 172.94 61.05 173.7 57.86 174.7 54.73 176.04 51.11 177.48 47.52 179.08 43.65 180.68 39.77 182.24 35.81 183.68 31.8 184.9 27.91 185.88 23.96 186.47 20.29 186.65 16.59 186.33 13.24 185.4 10.02" style="fill:none; stroke:#aaa; stroke-miterlimit:10; stroke-width:.5px;"/><polyline points="134.22 2.77 135.26 8.67 136.34 14.55 137.36 19.73 138.48 24.87 139.61 29.41 140.92 33.91 142.3 37.92 143.92 41.84 145.71 45.42 147.77 48.86 150.12 52.11 152.74 55.15 155.8 58.15 159.09 60.9 163.02 63.73 167.11 66.3 167.12 63.68 167.52 61.08 168.33 57.91 169.35 54.79 170.67 51.24 172.07 47.72 173.63 43.95 175.17 40.17 176.69 36.32 178.12 32.44 179.35 28.66 180.38 24.82 181.08 21.25 181.44 17.62 181.36 14.35 180.77 11.13" style="fill:none; stroke:#aaa; stroke-miterlimit:10; stroke-width:.5px;"/><polyline points="130.35 2.77 131.19 8.35 132.09 13.92 132.99 18.9 134.01 23.86 135.09 28.32 136.34 32.74 137.69 36.75 139.27 40.69 141.03 44.33 143.03 47.84 145.31 51.18 147.83 54.34 150.75 57.44 153.89 60.32 157.56 63.25 161.4 65.93 161.57 63.29 162.06 60.68 162.91 57.57 163.93 54.5 165.21 51.06 166.57 47.65 168.06 44.02 169.54 40.38 171 36.68 172.39 32.96 173.62 29.32 174.69 25.64 175.48 22.18 175.99 18.67 176.13 15.49 175.84 12.33" style="fill:none; stroke:#aaa; stroke-miterlimit:10; stroke-width:.5px;"/><polyline points="126.7 2.77 127.34 7.94 128.07 13.1 128.85 17.83 129.77 22.54 130.77 26.87 131.96 31.16 133.27 35.14 134.8 39.04 136.49 42.72 138.43 46.27 140.61 49.68 143.02 52.92 145.77 56.1 148.73 59.07 152.12 62.05 155.69 64.81 156 62.2 156.55 59.63 157.42 56.62 158.43 53.66 159.66 50.37 160.95 47.11 162.36 43.66 163.76 40.21 165.16 36.71 166.49 33.18 167.69 29.73 168.77 26.23 169.61 22.94 170.23 19.59 170.54 16.54 170.52 13.48" style="fill:none; stroke:#aaa; stroke-miterlimit:10; stroke-width:.5px;"/><polyline points="123.29 2.77 123.74 7.42 124.31 12.06 124.97 16.45 125.78 20.82 126.72 24.96 127.82 29.06 129.07 32.96 130.52 36.8 132.15 40.46 133.99 44.02 136.05 47.46 138.32 50.76 140.86 53.97 143.62 57 146.71 59.99 149.98 62.77 150.39 60.25 150.99 57.76 151.86 54.9 152.84 52.08 154.01 48.99 155.22 45.92 156.53 42.7 157.84 39.47 159.15 36.2 160.41 32.91 161.56 29.68 162.61 26.42 163.47 23.32 164.17 20.18 164.6 17.3 164.77 14.39" style="fill:none; stroke:#aaa; stroke-miterlimit:10; stroke-width:.5px;"/><polyline points="120.12 2.77 120.39 6.74 120.8 10.71 121.35 14.66 122.05 18.6 122.9 22.49 123.91 26.34 125.09 30.13 126.45 33.85 127.98 37.49 129.7 41.05 131.61 44.5 133.72 47.84 136.04 51.06 138.56 54.13 141.32 57.09 144.27 59.85 144.76 57.45 145.4 55.09 146.25 52.42 147.19 49.78 148.28 46.92 149.41 44.07 150.61 41.1 151.82 38.13 153.03 35.11 154.19 32.09 155.27 29.12 156.28 26.11 157.13 23.25 157.84 20.36 158.35 17.67 158.65 14.96" style="fill:none; stroke:#aaa; stroke-miterlimit:10; stroke-width:.5px;"/><polyline points="117.09 2.77 117.2 5.59 117.46 8.41 117.9 11.69 118.47 14.94 119.25 18.51 120.15 22.06 121.25 25.79 122.49 29.47 123.92 33.22 125.5 36.9 127.25 40.52 129.18 44.04 131.26 47.4 133.53 50.62 135.94 53.58 138.56 56.34 139.11 54.09 139.77 51.87 140.6 49.4 141.5 46.95 142.51 44.33 143.56 41.72 144.66 39.01 145.76 36.3 146.86 33.57 147.92 30.82 148.92 28.11 149.86 25.39 150.67 22.78 151.38 20.14 151.92 17.68 152.31 15.2" style="fill:none; stroke:#aaa; stroke-miterlimit:10; stroke-width:.5px;"/><polyline points="114.12 2.78 114.05 4.99 114.16 7.19 114.49 10.02 114.95 12.84 115.63 16.11 116.44 19.37 117.45 22.91 118.58 26.42 119.9 30.05 121.34 33.63 122.93 37.16 124.67 40.63 126.5 43.9 128.52 47.07 130.58 49.9 132.85 52.58 133.46 50.48 134.14 48.41 134.95 46.15 135.8 43.9 136.74 41.53 137.7 39.16 138.7 36.71 139.7 34.27 140.69 31.8 141.66 29.33 142.57 26.9 143.43 24.45 144.19 22.1 144.88 19.73 145.43 17.5 145.86 15.25" style="fill:none; stroke:#aaa; stroke-miterlimit:10; stroke-width:.5px;"/><polyline points="111.07 2.8 110.81 4.81 110.79 6.85 110.99 9.45 111.35 12.05 111.94 15.07 112.66 18.07 113.58 21.34 114.61 24.58 115.82 27.93 117.13 31.24 118.57 34.5 120.12 37.71 121.74 40.73 123.49 43.66 125.23 46.27 127.14 48.75 127.8 46.83 128.51 44.91 129.31 42.86 130.13 40.82 131.01 38.68 131.9 36.54 132.81 34.35 133.72 32.16 134.61 29.97 135.48 27.76 136.31 25.59 137.09 23.41 137.8 21.31 138.45 19.19 138.99 17.19 139.46 15.18" style="fill:none; stroke:#aaa; stroke-miterlimit:10; stroke-width:.5px;"/><polyline points="107.85 2.82 107.4 4.66 107.24 6.55 107.31 8.96 107.57 11.37 108.07 14.17 108.71 16.95 109.55 19.98 110.5 22.98 111.61 26.07 112.81 29.13 114.11 32.13 115.5 35.09 116.91 37.83 118.42 40.53 119.87 42.87 121.43 45.13 122.16 43.37 122.9 41.62 123.7 39.78 124.51 37.93 125.34 36.01 126.18 34.1 127.02 32.15 127.86 30.2 128.67 28.25 129.46 26.28 130.22 24.36 130.94 22.42 131.59 20.55 132.21 18.66 132.73 16.87 133.2 15.07" style="fill:none; stroke:#aaa; stroke-miterlimit:10; stroke-width:.5px;"/><polyline points="104.38 2.84 103.72 4.53 103.41 6.33 103.34 8.6 103.52 10.86 103.93 13.5 104.5 16.11 105.28 18.96 106.17 21.78 107.2 24.68 108.33 27.55 109.51 30.35 110.77 33.11 112 35.65 113.3 38.15 114.48 40.28 115.72 42.36 116.52 40.74 117.32 39.11 118.14 37.41 118.95 35.71 119.77 33.97 120.58 32.23 121.38 30.47 122.16 28.7 122.92 26.94 123.66 25.17 124.35 23.44 125.02 21.69 125.64 20.01 126.22 18.31 126.73 16.69 127.2 15.06" style="fill:none; stroke:#aaa; stroke-miterlimit:10; stroke-width:.5px;"/><polyline points="100.55 2.85 99.68 4.44 99.2 6.2 99 8.37 99.09 10.55 99.43 13.09 99.96 15.6 100.7 18.34 101.55 21.04 102.54 23.83 103.61 26.58 104.72 29.26 105.88 31.92 106.98 34.34 108.1 36.74 109.05 38.75 110.01 40.75 110.9 39.19 111.78 37.61 112.65 36 113.51 34.38 114.34 32.74 115.16 31.09 115.95 29.45 116.72 27.79 117.45 26.15 118.16 24.5 118.83 22.89 119.47 21.27 120.06 19.7 120.62 18.12 121.12 16.62 121.59 15.1" style="fill:none; stroke:#aaa; stroke-miterlimit:10; stroke-width:.5px;"/><polyline points="96.29 2.86 95.2 4.41 94.53 6.19 94.2 8.34 94.2 10.52 94.49 13.05 94.99 15.54 95.72 18.27 96.57 20.96 97.56 23.73 98.62 26.48 99.7 29.14 100.8 31.79 101.81 34.19 102.81 36.59 103.59 38.58 104.3 40.59 105.32 39.03 106.31 37.44 107.27 35.85 108.19 34.23 109.08 32.62 109.94 30.99 110.76 29.37 111.55 27.75 112.3 26.15 113.01 24.54 113.68 22.96 114.32 21.38 114.91 19.86 115.47 18.32 115.97 16.86 116.45 15.38" style="fill:none; stroke:#aaa; stroke-miterlimit:10; stroke-width:.5px;"/><polyline points="91.56 2.87 90.21 4.45 89.33 6.33 88.87 8.55 88.8 10.82 89.05 13.45 89.55 16.04 90.3 18.87 91.19 21.66 92.22 24.54 93.31 27.39 94.41 30.15 95.52 32.91 96.49 35.39 97.41 37.9 98.07 39.96 98.59 42.06 99.82 40.38 101.03 38.68 102.15 37.02 103.24 35.35 104.26 33.72 105.24 32.07 106.15 30.47 107.03 28.85 107.84 27.28 108.61 25.69 109.32 24.15 110 22.59 110.61 21.08 111.2 19.55 111.72 18.07 112.21 16.57" style="fill:none; stroke:#aaa; stroke-miterlimit:10; stroke-width:.5px;"/><polyline points="86.36 2.87 84.75 4.55 83.65 6.6 83.06 8.99 82.92 11.44 83.15 14.27 83.67 17.06 84.47 20.11 85.43 23.11 86.54 26.21 87.71 29.28 88.88 32.25 90.04 35.22 91.03 37.9 91.92 40.6 92.51 42.82 92.88 45.09 94.34 43.25 95.77 41.39 97.08 39.62 98.35 37.83 99.51 36.12 100.63 34.39 101.65 32.72 102.63 31.03 103.53 29.41 104.38 27.76 105.15 26.16 105.89 24.54 106.56 22.95 107.18 21.35 107.75 19.76 108.28 18.17" style="fill:none; stroke:#aaa; stroke-miterlimit:10; stroke-width:.5px;"/><polyline points="80.81 2.88 78.91 4.71 77.59 6.99 76.85 9.6 76.65 12.32 76.88 15.43 77.44 18.5 78.31 21.86 79.37 25.16 80.59 28.57 81.88 31.95 83.15 35.22 84.4 38.49 85.44 41.44 86.35 44.42 86.91 46.88 87.17 49.38 88.87 47.35 90.53 45.3 92.03 43.37 93.49 41.41 94.81 39.56 96.08 37.68 97.23 35.9 98.33 34.08 99.33 32.34 100.27 30.57 101.13 28.85 101.94 27.11 102.68 25.39 103.37 23.66 104 21.94 104.59 20.2" style="fill:none; stroke:#aaa; stroke-miterlimit:10; stroke-width:.5px;"/><polyline points="75.05 2.88 72.86 4.9 71.3 7.44 70.43 10.33 70.17 13.34 70.4 16.79 71 20.19 71.97 23.91 73.14 27.57 74.49 31.34 75.91 35.09 77.31 38.71 78.67 42.34 79.78 45.6 80.73 48.91 81.28 51.64 81.45 54.4 83.4 52.17 85.29 49.9 86.99 47.79 88.65 45.64 90.13 43.63 91.56 41.58 92.85 39.64 94.08 37.67 95.19 35.78 96.24 33.86 97.19 32 98.09 30.11 98.9 28.25 99.67 26.36 100.37 24.48 101.02 22.58" style="fill:none; stroke:#aaa; stroke-miterlimit:10; stroke-width:.5px;"/><polyline points="69.28 2.88 66.79 5.09 65 7.89 64 11.07 63.67 14.39 63.9 18.17 64.56 21.91 65.62 26 66.9 30.03 68.38 34.17 69.94 38.29 71.46 42.27 72.93 46.26 74.12 49.84 75.12 53.49 75.65 56.49 75.74 59.53 77.92 57.09 80.04 54.62 81.94 52.32 83.78 49.99 85.43 47.81 87.01 45.59 88.43 43.5 89.79 41.37 91.01 39.33 92.17 37.26 93.22 35.26 94.2 33.22 95.1 31.21 95.94 29.18 96.71 27.15 97.43 25.09" style="fill:none; stroke:#aaa; stroke-miterlimit:10; stroke-width:.5px;"/><polyline points="63.7 2.88 60.92 5.26 58.89 8.3 57.76 11.73 57.37 15.32 57.6 19.41 58.29 23.45 59.43 27.87 60.81 32.21 62.41 36.69 64.09 41.14 65.71 45.43 67.28 49.75 68.53 53.62 69.54 57.56 70.04 60.82 70.03 64.1 72.42 61.48 74.76 58.83 76.84 56.37 78.86 53.88 80.65 51.56 82.38 49.2 83.92 46.98 85.4 44.72 86.72 42.56 87.97 40.37 89.1 38.25 90.16 36.09 91.13 33.96 92.03 31.8 92.87 29.64 93.65 27.45" style="fill:none; stroke:#aaa; stroke-miterlimit:10; stroke-width:.5px;"/><polyline points="58.46 2.88 55.42 5.39 53.16 8.61 51.89 12.22 51.44 16.02 51.64 20.34 52.36 24.6 53.56 29.27 55.01 33.86 56.69 38.59 58.45 43.28 60.15 47.81 61.77 52.37 63.04 56.46 64.04 60.63 64.47 64.08 64.32 67.54 66.9 64.79 69.43 62 71.66 59.44 73.83 56.83 75.75 54.42 77.6 51.96 79.24 49.66 80.81 47.31 82.21 45.08 83.53 42.81 84.72 40.61 85.84 38.38 86.86 36.17 87.82 33.94 88.7 31.69 89.52 29.42" style="fill:none; stroke:#aaa; stroke-miterlimit:10; stroke-width:.5px;"/><polyline points="53.67 2.89 50.39 5.44 47.92 8.78 46.52 12.48 45.99 16.41 46.16 20.85 46.88 25.24 48.1 30.04 49.59 34.77 51.32 39.63 53.12 44.47 54.84 49.13 56.47 53.83 57.71 58.04 58.63 62.32 58.95 65.89 58.61 69.44 61.36 66.62 64.05 63.76 66.4 61.15 68.7 58.49 70.71 56.04 72.65 53.55 74.36 51.22 76 48.85 77.44 46.61 78.81 44.31 80.04 42.1 81.19 39.85 82.24 37.62 83.22 35.36 84.13 33.08 84.98 30.78" style="fill:none; stroke:#aaa; stroke-miterlimit:10; stroke-width:.5px;"/><polyline points="49.38 2.89 45.9 5.43 43.21 8.8 41.69 12.5 41.07 16.45 41.19 20.9 41.88 25.3 43.09 30.11 44.58 34.84 46.31 39.71 48.11 44.55 49.8 49.2 51.38 53.9 52.54 58.1 53.33 62.38 53.49 65.94 52.9 69.45 55.78 66.64 58.61 63.79 61.07 61.21 63.46 58.58 65.53 56.17 67.54 53.72 69.28 51.45 70.96 49.12 72.42 46.93 73.81 44.68 75.04 42.52 76.2 40.31 77.25 38.13 78.22 35.91 79.14 33.65 79.99 31.38" style="fill:none; stroke:#aaa; stroke-miterlimit:10; stroke-width:.5px;"/><polyline points="45.56 2.89 41.9 5.36 39.01 8.68 37.36 12.27 36.64 16.16 36.69 20.49 37.34 24.79 38.51 29.47 39.96 34.07 41.65 38.77 43.39 43.46 45.02 47.93 46.49 52.45 47.53 56.44 48.13 60.51 48.08 63.88 47.19 67.12 50.2 64.46 53.15 61.75 55.68 59.32 58.15 56.83 60.26 54.58 62.3 52.27 64.06 50.14 65.74 47.95 67.19 45.9 68.57 43.78 69.78 41.74 70.91 39.66 71.94 37.58 72.9 35.46 73.8 33.3 74.64 31.1" style="fill:none; stroke:#aaa; stroke-miterlimit:10; stroke-width:.5px;"/><polyline points="42.09 2.89 38.28 5.23 35.19 8.45 33.43 11.85 32.6 15.6 32.56 19.73 33.15 23.83 34.25 28.27 35.65 32.63 37.25 37.06 38.91 41.47 40.42 45.64 41.76 49.85 42.63 53.51 43.01 57.24 42.69 60.31 41.48 63.13 44.59 60.7 47.66 58.21 50.24 56.01 52.77 53.74 54.9 51.71 56.96 49.61 58.7 47.69 60.36 45.7 61.79 43.84 63.13 41.92 64.3 40.05 65.39 38.13 66.37 36.2 67.29 34.24 68.16 32.19 68.97 30.13" style="fill:none; stroke:#aaa; stroke-miterlimit:10; stroke-width:.5px;"/><polyline points="38.89 2.9 34.94 5.07 31.65 8.13 29.78 11.29 28.83 14.85 28.7 18.71 29.21 22.54 30.23 26.66 31.54 30.69 33.05 34.76 34.6 38.8 35.97 42.54 37.15 46.35 37.82 49.56 37.95 52.82 37.32 55.48 35.77 57.72 38.99 55.61 42.16 53.43 44.79 51.53 47.36 49.56 49.49 47.81 51.55 45.99 53.26 44.33 54.89 42.6 56.27 40.98 57.55 39.28 58.67 37.62 59.69 35.91 60.63 34.17 61.49 32.38 62.32 30.49 63.1 28.58" style="fill:none; stroke:#aaa; stroke-miterlimit:10; stroke-width:.5px;"/><polyline points="35.85 2.9 31.78 4.9 28.28 7.76 26.31 10.64 25.24 13.96 25.01 17.49 25.43 21.01 26.35 24.74 27.58 28.39 28.96 31.99 30.39 35.58 31.6 38.8 32.6 42.09 33.06 44.73 32.92 47.4 31.9 49.52 30.06 50.99 33.38 49.3 36.66 47.55 39.32 46.04 41.94 44.45 44.06 43.06 46.11 41.57 47.78 40.24 49.36 38.81 50.68 37.47 51.89 36.05 52.94 34.64 53.89 33.16 54.77 31.62 55.56 30.05 56.35 28.32 57.1 26.58" style="fill:none; stroke:#aaa; stroke-miterlimit:10; stroke-width:.5px;"/><polyline points="32.87 2.9 28.69 4.72 24.99 7.36 22.93 9.95 21.71 13.01 21.39 16.17 21.71 19.34 22.54 22.62 23.66 25.82 24.92 28.88 26.23 31.92 27.27 34.5 28.09 37.14 28.34 39.08 27.9 40.95 26.36 42.3 24.35 42.83 27.77 41.71 31.17 40.53 33.87 39.52 36.54 38.43 38.63 37.49 40.68 36.44 42.29 35.49 43.82 34.44 45.06 33.43 46.2 32.32 47.18 31.2 48.05 29.99 48.86 28.68 49.59 27.33 50.35 25.79 51.06 24.23" style="fill:none; stroke:#aaa; stroke-miterlimit:10; stroke-width:.5px;"/><polyline points="29.84 2.9 25.54 4.54 21.63 6.97 19.5 9.25 18.13 12.04 17.71 14.79 17.95 17.56 18.67 20.3 19.71 22.95 20.83 25.32 22.03 27.64 22.88 29.33 23.55 31.08 23.6 32.08 22.88 32.7 20.73 32.53 18.64 31.93 22.18 31.7 25.71 31.43 28.44 31.18 31.17 30.87 33.23 30.57 35.28 30.17 36.82 29.76 38.31 29.23 39.47 28.68 40.54 27.99 41.44 27.22 42.24 26.35 42.99 25.32 43.67 24.24 44.4 22.91 45.1 21.57" style="fill:none; stroke:#aaa; stroke-miterlimit:10; stroke-width:.5px;"/><polyline points="26.65 2.9 22.22 4.39 18.11 6.61 15.91 8.59 14.38 11.12 13.87 13.41 14.03 15.75 14.65 17.87 15.62 19.86 16.6 21.37 17.73 22.78 18.31 23.37 18.94 23.86 18.44 23.12 17.81 22.44 15.42 20.1 12.93 17.86 16.57 18.91 20.2 19.99 22.96 20.82 25.72 21.65 27.76 22.24 29.81 22.8 31.27 23.14 32.75 23.38 33.81 23.46 34.85 23.37 35.67 23.14 36.42 22.73 37.13 22.11 37.74 21.4 38.46 20.39 39.13 19.35" style="fill:none; stroke:#aaa; stroke-miterlimit:10; stroke-width:.5px;"/><polyline points="23.22 2.9 18.63 4.28 14.33 6.35 12.04 8.17 10.37 10.54 9.79 12.66 9.86 14.86 10.43 16.83 11.33 18.68 12.24 20.09 13.27 21.4 13.75 21.93 14.23 22.41 13.48 21.74 12.7 21.09 9.98 18.92 7.21 16.82 10.93 17.75 14.63 18.7 17.43 19.44 20.22 20.18 22.26 20.71 24.31 21.21 25.75 21.52 27.2 21.75 28.21 21.83 29.22 21.77 29.98 21.57 30.69 21.21 31.35 20.67 31.93 20.03 32.61 19.13 33.26 18.2" style="fill:none; stroke:#aaa; stroke-miterlimit:10; stroke-width:.5px;"/><polyline points="19.5 2.9 14.74 4.2 10.23 6.18 7.86 7.88 6.05 10.16 5.4 12.16 5.42 14.26 5.94 16.14 6.79 17.89 7.66 19.22 8.63 20.48 9.03 20.96 9.38 21.44 8.45 20.83 7.52 20.18 4.53 18.14 1.51 16.14 5.3 16.97 9.09 17.83 11.93 18.5 14.77 19.18 16.83 19.67 18.89 20.13 20.33 20.42 21.78 20.65 22.77 20.73 23.76 20.7 24.5 20.53 25.18 20.22 25.81 19.74 26.36 19.17 27.01 18.36 27.63 17.52" style="fill:none; stroke:#aaa; stroke-miterlimit:10; stroke-width:.5px;"/><polyline points="15.51 2.9 10.57 4.16 5.85 6.07 3.38 7.7 1.45 9.92 .74 11.83 .72 13.87 1.21 15.68 2.04 17.37 2.88 18.66 3.81 19.87 4.19 20.34 4.43 20.81 3.34 20.25 2.29 19.62 -.95 17.69 -4.21 15.77 -.32 16.54 3.55 17.34 6.46 17.97 9.36 18.61 11.46 19.07 13.55 19.52 15.01 19.8 16.48 20.03 17.48 20.12 18.47 20.1 19.19 19.96 19.87 19.69 20.48 19.26 21.01 18.74 21.64 18.01 22.24 17.23" style="fill:none; stroke:#aaa; stroke-miterlimit:10; stroke-width:.5px;"/><polyline points="11.34 2.9 6.2 4.14 1.27 6.03 -1.3 7.62 -3.34 9.81 -4.11 11.68 -4.17 13.69 -3.69 15.48 -2.87 17.14 -2.04 18.4 -1.13 19.59 -.77 20.06 -.61 20.53 -1.82 20 -2.98 19.39 -6.44 17.51 -9.92 15.63 -5.96 16.36 -2.01 17.12 .96 17.72 3.92 18.33 6.07 18.78 8.22 19.22 9.71 19.5 11.21 19.74 12.23 19.84 13.25 19.85 13.97 19.74 14.66 19.5 15.26 19.14 15.78 18.67 16.39 18 16.96 17.3" style="fill:none; stroke:#aaa; stroke-miterlimit:10; stroke-width:.5px;"/><polyline points="7.06 2.9 1.72 4.14 -3.43 6.02 -6.09 7.59 -8.25 9.78 -9.06 11.63 -9.15 13.64 -8.69 15.42 -7.87 17.07 -7.04 18.32 -6.14 19.51 -5.78 19.99 -5.69 20.45 -7.01 19.95 -8.28 19.33 -11.95 17.48 -15.63 15.63 -11.61 16.33 -7.6 17.06 -4.57 17.64 -1.54 18.23 .66 18.67 2.86 19.1 4.41 19.39 5.95 19.63 7 19.75 8.05 19.79 8.79 19.72 9.5 19.52 10.09 19.21 10.62 18.79 11.2 18.19 11.75 17.56" style="fill:none; stroke:#aaa; stroke-miterlimit:10; stroke-width:.5px;"/><polyline points="2.75 2.9 -2.8 4.14 -8.16 6.03 -10.92 7.59 -13.2 9.79 -14.05 11.62 -14.17 13.64 -13.71 15.41 -12.89 17.06 -12.06 18.31 -11.16 19.5 -10.81 19.99 -10.79 20.44 -12.21 19.96 -13.58 19.35 -17.46 17.52 -21.34 15.68 -17.27 16.35 -13.22 17.05 -10.14 17.61 -7.07 18.19 -4.81 18.62 -2.55 19.05 -.96 19.34 .64 19.6 1.74 19.73 2.83 19.79 3.59 19.76 4.33 19.6 4.92 19.35 5.46 18.99 6.01 18.47 6.53 17.91" style="fill:none; stroke:#aaa; stroke-miterlimit:10; stroke-width:.5px;"/><polyline points="-1.55 2.9 -7.31 4.14 -12.88 6.03 -15.75 7.58 -18.13 9.78 -19.03 11.61 -19.18 13.63 -18.73 15.4 -17.91 17.04 -17.08 18.28 -16.19 19.48 -15.84 19.98 -15.89 20.43 -17.41 19.97 -18.88 19.35 -22.97 17.55 -27.05 15.72 -22.96 16.36 -18.88 17.03 -15.76 17.57 -12.64 18.13 -10.33 18.55 -8.02 18.97 -6.37 19.27 -4.72 19.54 -3.58 19.69 -2.44 19.78 -1.66 19.77 -.88 19.67 -.29 19.47 .26 19.16 .8 18.72 1.29 18.23" style="fill:none; stroke:#aaa; stroke-miterlimit:10; stroke-width:.5px;"/></svg>