<?xml version="1.0" encoding="utf-8" ?>
<svg baseProfile="full" height="222" version="1.1" width="222" xmlns="http://www.w3.org/2000/svg" xmlns:ev="http://www.w3.org/2001/xml-events" xmlns:xlink="http://www.w3.org/1999/xlink"><defs />
  <polyline fill="none" points ="31.03 195.96 31.02 196.13 31 196.29 30.99 196.46 30.97 196.63 30.96 196.81 30.94 196.98 30.93 197.15 30.91 197.33 30.37 191.32 30.37 185.31 31.38 184.81 32.55 185.56 34.58 186.18 36.34 184.99 39.14 177.97 40.62 170.51 41.98 177.92 45 184.75 47.56 186.09 50.45 185.57 52.92 184.67 55.47 184.71 57.82 188.97 58.53 193.92 56.11 187.03 53.5 180.21 52.45 178 50.93 176.11 49.21 175.03 47.57 173.86 43.66 169.96 40.18 165.67" stroke="#aaa" stroke-width="1"/>
  <polyline fill="none" points ="30.98 191.12 30.97 191.3 30.95 191.48 30.93 191.66 30.92 191.84 30.9 192.02 30.88 192.2 30.86 192.39 30.85 192.57 30.14 186.96 29.96 181.34 31.02 180.98 32.2 181.73 34.32 182.37 36.23 181.27 39.15 174.63 40.67 167.49 42.06 174.58 45.14 181.03 47.81 182.28 50.75 181.73 53.24 180.82 55.82 180.77 58.08 184.7 58.71 189.35 56.57 182.72 54.23 176.18 53.17 173.98 51.6 172.15 49.72 171.08 47.9 169.92 43.83 166.28 40.21 162.18" stroke="#aaa" stroke-width="1"/>
  <polyline fill="none" points ="30.54 186.21 30.52 186.4 30.5 186.6 30.48 186.8 30.46 187 30.44 187.2 30.42 187.41 30.39 187.61 30.37 187.82 29.42 182.66 28.97 177.46 30.15 177.32 31.39 178.08 33.7 178.79 35.88 177.78 39.07 171.55 40.72 164.67 42.2 171.5 45.5 177.56 48.4 178.7 51.51 178.09 54.13 177.13 56.85 176.93 59.06 180.46 59.56 184.77 57.68 178.36 55.52 172.05 54.42 169.8 52.72 167.99 50.6 166.9 48.51 165.74 44.14 162.36 40.22 158.45" stroke="#aaa" stroke-width="1"/>
  <polyline fill="none" points ="29.85 181.25 29.82 181.47 29.8 181.69 29.77 181.92 29.75 182.14 29.72 182.37 29.69 182.6 29.67 182.83 29.64 183.07 28.41 178.39 27.66 173.65 28.97 173.76 30.31 174.56 32.89 175.35 35.4 174.46 38.93 168.63 40.75 162 42.38 168.58 45.96 174.24 49.2 175.26 52.56 174.56 55.36 173.54 58.27 173.15 60.46 176.22 60.83 180.19 59.16 173.97 57.17 167.87 55.99 165.54 54.14 163.72 51.72 162.57 49.3 161.41 44.54 158.28 40.2 154.58" stroke="#aaa" stroke-width="1"/>
  <polyline fill="none" points ="29.05 176.31 29.02 176.55 28.99 176.79 28.96 177.04 28.93 177.29 28.9 177.54 28.86 177.8 28.83 178.05 28.8 178.31 27.31 174.13 26.25 169.86 27.7 170.24 29.15 171.08 32.01 171.97 34.86 171.19 38.73 165.79 40.76 159.37 42.57 165.74 46.46 170.98 50.05 171.87 53.7 171.09 56.71 169.98 59.83 169.4 62 171.99 62.25 175.61 60.78 169.57 58.93 163.65 57.67 161.23 55.67 159.4 52.93 158.18 50.17 157.01 44.99 154.13 40.18 150.64" stroke="#aaa" stroke-width="1"/>
  <polyline fill="none" points ="28.32 171.39 28.29 171.65 28.25 171.91 28.21 172.18 28.18 172.45 28.14 172.72 28.1 173 28.06 173.28 28.02 173.56 26.32 169.85 24.98 166.05 26.55 166.68 28.11 167.58 31.22 168.54 34.38 167.88 38.55 162.91 40.77 156.71 42.75 162.85 46.86 167.68 50.7 168.44 54.56 167.58 57.76 166.39 61.05 165.62 63.29 167.71 63.53 171.04 62.27 165.18 60.57 159.45 59.22 156.96 57.09 155.11 54.06 153.82 50.99 152.66 45.42 149.99 40.17 146.74" stroke="#aaa" stroke-width="1"/>
  <polyline fill="none" points ="27.79 166.53 27.75 166.8 27.71 167.08 27.67 167.36 27.62 167.64 27.58 167.93 27.53 168.22 27.49 168.51 27.44 168.81 25.66 165.54 24.13 162.19 25.78 163.02 27.43 163.96 30.7 164.99 34.06 164.44 38.4 159.87 40.78 153.94 42.9 159.82 47.16 164.25 51.19 164.89 55.2 163.97 58.53 162.72 61.94 161.8 64.2 163.43 64.42 166.46 63.36 160.82 61.81 155.31 60.41 152.77 58.19 150.92 54.94 149.59 51.62 148.43 45.76 145.98 40.16 142.98" stroke="#aaa" stroke-width="1"/>
  <polyline fill="none" points ="27.52 161.73 27.48 162.01 27.43 162.29 27.39 162.57 27.34 162.86 27.29 163.15 27.24 163.45 27.19 163.75 27.13 164.05 25.35 161.18 23.75 158.26 25.42 159.24 27.12 160.22 30.47 161.28 33.92 160.83 38.32 156.65 40.8 151.01 43.02 156.61 47.33 160.66 51.46 161.18 55.55 160.22 58.94 158.94 62.39 157.9 64.62 159.12 64.83 161.88 63.97 156.49 62.58 151.24 61.15 148.69 58.89 146.87 55.49 145.51 52.01 144.38 45.98 142.12 40.17 139.37" stroke="#aaa" stroke-width="1"/>
  <polyline fill="none" points ="27.34 156.92 27.31 157.21 27.28 157.49 27.25 157.78 27.21 158.08 27.17 158.38 27.14 158.68 27.1 158.99 27.05 159.3 25.3 156.8 23.64 154.28 25.31 155.38 27.05 156.37 30.41 157.46 33.9 157.1 38.3 153.31 40.84 147.98 43.12 153.26 47.43 156.93 51.59 157.36 55.69 156.38 59.1 155.08 62.55 153.96 64.71 154.81 64.9 157.3 64.23 152.2 62.99 147.21 61.56 144.7 59.3 142.91 55.81 141.55 52.23 140.46 46.14 138.38 40.21 135.89" stroke="#aaa" stroke-width="1"/>
  <polyline fill="none" points ="26.96 152 26.98 152.3 27 152.61 27.02 152.92 27.05 153.24 27.07 153.56 27.08 153.88 27.1 154.21 27.12 154.55 25.4 152.39 23.71 150.28 25.36 151.47 27.12 152.48 30.48 153.58 33.98 153.3 38.34 149.89 40.92 144.9 43.25 149.85 47.51 153.15 51.68 153.49 55.76 152.49 59.16 151.18 62.57 149.99 64.63 150.49 64.81 152.73 64.33 147.91 63.25 143.21 61.84 140.74 59.59 139.01 56.05 137.65 52.41 136.59 46.29 134.7 40.29 132.46" stroke="#aaa" stroke-width="1"/>
  <polyline fill="none" points ="26.41 147.18 26.46 147.49 26.51 147.8 26.57 148.12 26.62 148.44 26.67 148.77 26.72 149.11 26.78 149.45 26.83 149.79 25.19 147.97 23.54 146.27 25.2 147.53 27 148.57 30.36 149.68 33.87 149.49 38.17 146.44 40.79 141.79 43.17 146.41 47.37 149.35 51.53 149.59 55.6 148.58 58.97 147.27 62.33 146.01 64.26 146.18 64.45 148.15 64.17 143.63 63.26 139.22 61.87 136.8 59.64 135.11 56.06 133.76 52.36 132.75 46.22 131.04 40.18 129.05" stroke="#aaa" stroke-width="1"/>
  <polyline fill="none" points ="19.18 142.55 19.11 142.84 19.05 143.14 18.98 143.44 18.91 143.75 18.84 144.07 18.77 144.38 18.7 144.71 18.62 145.04 18.57 142.97 20.28 142.26 23.29 143.4 26.27 144.67 30.09 145.76 34.05 145.68 38.37 143.03 41.09 138.69 43.54 142.98 47.71 145.54 52 145.69 56.18 144.67 59.89 143.32 63.61 142.03 65.85 141.86 67.08 143.57 66.2 139.3 64.68 135.23 62.86 132.86 60.36 131.22 56.61 129.89 52.75 128.9 46.59 127.38 40.49 125.64" stroke="#aaa" stroke-width="1"/>
  <polyline fill="none" points ="16.17 137.95 16.06 138.23 15.95 138.51 15.84 138.79 15.72 139.08 15.6 139.37 15.48 139.67 15.36 139.98 15.24 140.28 16.57 138.32 18.99 138.24 22.54 139.41 26.04 140.75 30.05 141.84 34.19 141.85 38.47 139.58 41.26 135.57 43.79 139.53 47.9 141.73 52.29 141.77 56.57 140.75 60.57 139.37 64.57 138.05 67.12 137.69 69.19 138.99 67.79 134.98 65.78 131.24 63.6 128.95 60.86 127.34 56.98 126.03 52.98 125.08 46.82 123.72 40.68 122.25" stroke="#aaa" stroke-width="1"/>
  <polyline fill="none" points ="14.19 133.39 14.05 133.64 13.9 133.9 13.75 134.16 13.6 134.42 13.45 134.69 13.3 134.97 13.14 135.25 12.98 135.53 15.36 134.01 18.25 134.2 22.16 135.41 26.02 136.78 30.14 137.86 34.38 137.96 38.57 136.05 41.42 132.41 44.02 136.01 48.04 137.85 52.48 137.81 56.82 136.79 61.03 135.4 65.24 134.04 68.11 133.54 70.8 134.42 68.93 130.68 66.5 127.28 63.97 125.07 61 123.5 57.01 122.22 52.91 121.3 46.89 120.13 40.86 118.91" stroke="#aaa" stroke-width="1"/>
  <polyline fill="none" points ="13.01 128.89 12.85 129.11 12.68 129.34 12.51 129.57 12.34 129.81 12.16 130.04 11.99 130.28 11.81 130.53 11.63 130.78 14.7 129.73 17.97 130.11 22.09 131.35 26.18 132.73 30.32 133.78 34.57 133.96 38.6 132.39 41.46 129.14 44.09 132.35 47.95 133.86 52.34 133.73 56.64 132.73 60.96 131.35 65.28 129.98 68.45 129.35 71.59 129.84 69.33 126.41 66.6 123.37 63.79 121.28 60.62 119.76 56.6 118.53 52.47 117.65 46.71 116.66 40.94 115.69" stroke="#aaa" stroke-width="1"/>
  <polyline fill="none" points ="12.77 124.45 12.6 124.64 12.42 124.83 12.24 125.02 12.06 125.22 11.88 125.42 11.7 125.62 11.52 125.82 11.33 126.02 14.82 125.42 18.35 125.96 22.53 127.2 26.68 128.54 30.73 129.55 34.88 129.79 38.67 128.55 41.5 125.72 44.08 128.51 47.7 129.7 51.94 129.51 56.09 128.55 60.39 127.2 64.68 125.86 68.07 125.12 71.49 125.26 68.95 122.2 66.02 119.52 63.01 117.58 59.73 116.14 55.76 114.98 51.7 114.17 46.37 113.35 41.01 112.62" stroke="#aaa" stroke-width="1"/>
  <polyline fill="none" points ="13.26 120.06 13.09 120.2 12.92 120.35 12.75 120.5 12.58 120.65 12.4 120.8 12.23 120.96 12.05 121.11 11.88 121.27 15.64 121.07 19.36 121.75 23.47 122.96 27.56 124.25 31.4 125.2 35.33 125.49 38.81 124.56 41.52 122.2 44.01 124.52 47.32 125.42 51.32 125.16 55.24 124.25 59.41 122.98 63.58 121.69 67.08 120.85 70.65 120.68 67.9 118.02 64.85 115.73 61.68 113.97 58.32 112.63 54.49 111.57 50.57 110.81 45.84 110.17 41.08 109.69" stroke="#aaa" stroke-width="1"/>
  <polyline fill="none" points ="13.96 115.73 13.82 115.83 13.68 115.93 13.54 116.02 13.39 116.12 13.25 116.22 13.11 116.32 12.96 116.42 12.82 116.52 16.75 116.71 20.61 117.53 24.6 118.71 28.57 119.92 32.16 120.81 35.83 121.14 38.95 120.5 41.53 118.63 43.91 120.48 46.89 121.09 50.61 120.78 54.26 119.93 58.26 118.73 62.26 117.49 65.83 116.57 69.48 116.11 66.5 113.85 63.29 111.95 59.89 110.39 56.35 109.16 52.65 108.2 48.89 107.5 45.03 107.04 41.14 106.79" stroke="#aaa" stroke-width="1"/>
  <polyline fill="none" points ="14.47 111.4 14.38 111.44 14.29 111.49 14.2 111.53 14.11 111.58 14.02 111.63 13.93 111.67 13.84 111.72 13.75 111.76 17.83 112.34 21.83 113.33 25.68 114.49 29.52 115.65 32.87 116.47 36.28 116.86 39.07 116.49 41.52 115.12 43.81 116.47 46.47 116.82 49.93 116.45 53.32 115.65 57.16 114.51 60.99 113.32 64.65 112.29 68.37 111.53 65.08 109.68 61.62 108.15 57.77 106.78 53.85 105.63 50.23 104.78 46.57 104.13 43.94 103.85 41.3 103.84" stroke="#aaa" stroke-width="1"/>
  <polyline fill="none" points ="15.1 106.88 15.05 106.89 15 106.91 14.95 106.93 14.91 106.94 14.86 106.96 14.81 106.98 14.76 106.99 14.72 107.01 18.86 108 22.95 109.19 26.66 110.36 30.36 111.49 33.47 112.27 36.64 112.72 39.15 112.6 41.49 111.73 43.72 112.59 46.13 112.69 49.35 112.26 52.51 111.49 56.18 110.39 59.83 109.21 63.53 108.03 67.27 106.95 64.12 105.54 60.9 104.3 57.2 103.06 53.44 101.99 49.97 101.19 46.45 100.62 43.94 100.45 41.46 100.74" stroke="#aaa" stroke-width="1"/>
  <polyline fill="none" points ="15.52 102.31 19.68 103.71 23.82 105.15 27.36 106.35 30.92 107.47 33.82 108.23 36.77 108.75 39.05 108.85 41.29 108.49 43.49 108.84 45.73 108.73 48.78 108.21 51.77 107.45 55.33 106.37 58.85 105.17 62.64 103.79 66.42 102.37 63.33 101.38 60.25 100.37 56.65 99.24 53.02 98.22 49.65 97.44 46.24 96.93 43.78 96.89 41.43 97.49" stroke="#aaa" stroke-width="1"/>
  <polyline fill="none" points ="16.27 97.82 20.34 99.58 24.43 101.25 27.72 102.48 31.05 103.58 33.74 104.32 36.48 104.9 38.77 105.22 41.08 105.34 43.48 105.2 45.87 104.88 48.81 104.28 51.71 103.51 55.12 102.42 58.48 101.17 62.32 99.56 66.1 97.8 63.02 97.21 59.98 96.4 56.41 95.37 52.83 94.37 49.51 93.6 46.14 93.14 43.68 93.23 41.41 94.13" stroke="#aaa" stroke-width="1"/>
  <polyline fill="none" points ="16.76 93.45 20.41 95.48 24.09 97.39 26.78 98.64 29.54 99.72 32.08 100.5 34.66 101.11 37.83 101.71 41.02 102.24 44.4 101.69 47.75 101.07 50.57 100.43 53.33 99.6 56.21 98.5 59 97.19 62.54 95.28 66.01 93.22 62.93 93.03 59.89 92.41 56.32 91.46 52.75 90.48 49.45 89.71 46.09 89.3 43.57 89.52 41.38 90.72" stroke="#aaa" stroke-width="1"/>
  <polyline fill="none" points ="17.49 89.06 20.79 91.35 24.17 93.49 26.54 94.78 29 95.85 31.44 96.65 33.92 97.33 37.42 98.21 40.92 99.14 44.66 98.19 48.4 97.28 51.16 96.56 53.87 95.7 56.55 94.58 59.12 93.22 62.57 91.02 65.92 88.64 62.86 88.86 59.8 88.41 56.22 87.54 52.66 86.58 49.36 85.81 46 85.44 43.41 85.82 41.3 87.31" stroke="#aaa" stroke-width="1"/>
  <polyline fill="none" points ="18.94 84.67 21.74 87.21 24.66 89.59 26.66 90.91 28.8 91.97 31.13 92.81 33.49 93.55 37.18 94.74 40.83 96.05 44.78 94.7 48.76 93.49 51.43 92.7 54.06 91.8 56.51 90.67 58.81 89.24 62 86.76 65.04 84.06 62.25 84.68 59.38 84.42 55.91 83.62 52.48 82.68 49.22 81.91 45.91 81.59 43.26 82.13 41.23 83.89" stroke="#aaa" stroke-width="1"/>
  <polyline fill="none" points ="20.75 80.28 22.95 83.06 25.32 85.68 26.93 87.05 28.75 88.11 30.94 88.99 33.18 89.79 36.99 91.29 40.73 92.97 44.79 91.24 48.94 89.72 51.53 88.86 54.09 87.92 56.32 86.77 58.34 85.28 61.21 82.49 63.87 79.49 61.48 80.5 58.85 80.41 55.54 79.68 52.27 78.76 49.07 77.99 45.81 77.71 43.09 78.44 41.14 80.45" stroke="#aaa" stroke-width="1"/>
  <polyline fill="none" points ="22.93 75.9 24.41 78.91 26.08 81.8 27.26 83.22 28.75 84.3 30.82 85.24 32.92 86.11 36.79 87.92 40.55 89.96 44.69 87.85 48.96 86.02 51.49 85.08 54 84.1 56.06 82.91 57.85 81.34 60.39 78.23 62.67 74.91 60.76 76.29 58.37 76.38 55.21 75.69 52.1 74.79 48.93 74 45.69 73.76 42.88 74.68 40.97 76.94" stroke="#aaa" stroke-width="1"/>
  <polyline fill="none" points ="25.9 71.6 26.39 74.82 27.02 78.01 27.6 79.47 28.67 80.6 30.58 81.63 32.54 82.56 36.52 84.68 40.35 87.07 44.61 84.59 49.04 82.45 51.59 81.43 54.11 80.37 56.07 79.13 57.68 77.46 59.94 73.99 61.9 70.33 60.47 72.02 58.24 72.29 55.16 71.63 52.15 70.71 48.95 69.89 45.66 69.68 42.71 70.79 40.8 73.31" stroke="#aaa" stroke-width="1"/>
  <polyline fill="none" points ="29.19 67.3 28.52 70.8 27.8 74.28 27.67 75.73 28.21 77.04 29.95 78.2 31.81 79.18 35.98 81.61 40 84.32 44.5 81.49 49.22 79.05 51.88 77.92 54.52 76.79 56.54 75.45 58.15 73.65 60.43 69.8 62.36 65.75 61.09 67.71 58.78 68.14 55.59 67.46 52.47 66.5 49.09 65.63 45.63 65.43 42.47 66.72 40.46 69.51" stroke="#aaa" stroke-width="1"/>
  <polyline fill="none" points ="28.25 62.81 27.54 66.69 26.77 70.55 26.62 72.13 27.19 73.56 29.06 74.82 31.05 75.91 35.56 78.63 39.88 81.67 44.72 78.5 49.81 75.77 52.67 74.53 55.52 73.29 57.7 71.85 59.44 69.88 61.94 65.64 64.05 61.18 62.69 63.38 60.15 63.93 56.69 63.23 53.32 62.2 49.68 61.26 45.95 61.05 42.51 62.52 40.37 65.6" stroke="#aaa" stroke-width="1"/>
  <polyline fill="none" points ="27.26 58.33 26.5 62.59 25.67 66.84 25.51 68.54 26.11 70.1 28.12 71.47 30.24 72.66 35.11 75.68 39.75 79.04 44.95 75.53 50.44 72.51 53.51 71.15 56.58 69.82 58.93 68.25 60.81 66.13 63.53 61.48 65.83 56.6 64.37 59.05 61.59 59.72 57.87 58.99 54.23 57.87 50.31 56.86 46.28 56.66 42.57 58.29 40.27 61.66" stroke="#aaa" stroke-width="1"/>
  <polyline fill="none" points ="26.4 53.82 25.61 58.46 24.74 63.08 24.56 64.9 25.18 66.57 27.3 68.04 29.55 69.33 34.72 72.65 39.63 76.35 45.14 72.49 50.98 69.17 54.23 67.7 57.48 66.28 59.99 64.61 61.99 62.34 64.91 57.3 67.38 52.02 65.84 54.73 62.84 55.53 58.88 54.79 55.02 53.61 50.85 52.54 46.57 52.34 42.6 54.14 40.18 57.8" stroke="#aaa" stroke-width="1"/>
  <polyline fill="none" points ="25.86 49.26 25.07 54.26 24.17 59.22 23.98 61.14 24.6 62.9 26.78 64.45 29.09 65.82 34.46 69.46 39.55 73.51 45.24 69.3 51.31 65.67 54.67 64.1 58.03 62.61 60.66 60.86 62.73 58.48 65.81 53.1 68.42 47.44 66.84 50.41 63.66 51.42 59.54 50.7 55.52 49.48 51.19 48.38 46.74 48.19 42.6 50.19 40.11 54.1" stroke="#aaa" stroke-width="1"/>
  <polyline fill="none" points ="25.81 44.58 25.06 49.92 24.16 55.22 23.96 57.19 24.56 59.02 26.72 60.61 29 62.05 34.42 66.03 39.51 70.44 45.2 65.86 51.32 61.9 54.67 60.25 58.05 58.73 60.71 56.95 62.8 54.52 65.98 48.83 68.66 42.87 67.11 46.11 63.81 47.41 59.65 46.77 55.58 45.56 51.22 44.45 46.75 44.31 42.53 46.52 40.08 50.66" stroke="#aaa" stroke-width="1"/>
  <polyline fill="none" points ="26.33 39.78 25.67 45.43 24.82 51.06 24.62 53.02 25.15 54.87 27.21 56.48 29.36 57.97 34.64 62.32 39.53 67.11 44.99 62.15 50.95 57.84 54.15 56.13 57.43 54.62 60.04 52.86 62.07 50.44 65.27 44.5 67.94 38.29 66.48 41.82 63.15 43.53 59.09 43.03 55.13 41.87 50.89 40.8 46.55 40.73 42.4 43.19 40.08 47.51" stroke="#aaa" stroke-width="1"/>
  <polyline fill="none" points ="27.33 34.85 26.79 40.81 26.04 46.75 25.84 48.67 26.27 50.52 28.17 52.1 30.1 53.63 35.08 58.37 39.61 63.55 44.65 58.21 50.27 53.52 53.21 51.77 56.29 50.3 58.77 48.6 60.66 46.25 63.79 40.11 66.38 33.71 64.99 37.54 61.71 39.75 57.88 39.45 54.15 38.39 50.2 37.39 46.15 37.41 42.21 40.16 40.14 44.6" stroke="#aaa" stroke-width="1"/>
  <polyline fill="none" points ="28.54 29.86 28.13 36.13 27.49 42.38 27.3 44.26 27.64 46.08 29.33 47.62 31.03 49.17 35.62 54.34 39.72 59.9 44.26 54.19 49.45 49.1 52.08 47.32 54.92 45.9 57.24 44.28 58.96 42.01 61.95 35.7 64.4 29.13 63.06 33.26 59.87 36.01 56.35 35.94 52.92 34.99 49.34 34.07 45.66 34.2 42.02 37.27 40.21 41.8" stroke="#aaa" stroke-width="1"/>
  <polyline fill="none" points ="29.62 24.88 29.33 31.48 28.78 38.06 28.61 39.9 28.87 41.7 30.38 43.22 31.88 44.79 36.1 50.37 39.83 56.31 43.92 50.24 48.72 44.74 51.07 42.93 53.69 41.55 55.86 39.99 57.42 37.81 60.27 31.3 62.58 24.56 61.29 28.98 58.22 32.25 54.99 32.38 51.82 31.53 48.56 30.7 45.23 30.92 41.87 34.3 40.29 38.93" stroke="#aaa" stroke-width="1"/>
  <polyline fill="none" points ="30.28 19.99 30.07 26.93 29.62 33.86 29.47 35.7 29.7 37.51 31.11 39.04 32.47 40.63 36.44 46.62 39.89 52.92 43.71 46.5 48.26 40.61 50.43 38.76 52.93 37.38 55.01 35.85 56.46 33.69 59.23 26.94 61.44 19.98 60.18 24.69 57.18 28.39 54.13 28.68 51.13 27.9 48.06 27.11 44.96 27.41 41.77 31.08 40.33 35.84" stroke="#aaa" stroke-width="1"/>
  <polyline fill="none" points ="30.38 15.23 30.21 22.53 29.8 29.82 29.66 31.72 29.88 33.57 31.28 35.14 32.59 36.79 36.5 43.14 39.89 49.79 43.64 43.03 48.16 36.77 50.28 34.86 52.77 33.45 54.85 31.9 56.28 29.7 59.06 22.66 61.28 15.4 60 20.39 56.97 24.42 53.96 24.8 50.97 24.03 47.95 23.25 44.89 23.59 41.73 27.51 40.32 32.46" stroke="#aaa" stroke-width="1"/>
</svg>