<?xml version="1.0" encoding="UTF-8"?>
<svg id="Ebene_1" xmlns="http://www.w3.org/2000/svg" width="222" height="222" viewBox="0 0 222 222">
  <polyline points="25.5 195.16 28.02 199.42 30.53 203.69 37.32 198.18 44.1 192.68 44.15 192.66 44.21 192.67 51.1 196.01 58 199.34 60.47 194.28 62.94 189.21 58.47 187.02 54 184.83 53.97 184.79 53.95 184.74 53.95 184.69 53.98 184.65 58.43 181.04 62.88 177.43 60.36 173.17 57.85 168.9 51.02 174.43 44.2 179.95 44.14 179.98 44.09 179.97 37.22 176.64 30.35 173.32 27.89 178.35 25.44 183.38 29.91 185.57 34.38 187.76 34.42 187.8 34.43 187.84 34.43 187.9 34.4 187.94 29.95 191.55 25.5 195.16" fill="none" stroke="#aaa" stroke-miterlimit="10" stroke-width=".5"/>
  <polyline points="30.51 203.95 30.5 203.95 30.49 203.95 30.45 203.93 30.42 203.9 27.85 199.54 25.28 195.19 25.26 195.11 25.3 195.05 29.72 191.47 34.14 187.88 29.7 185.7 25.25 183.52 25.2 183.46 25.21 183.39 27.71 178.26 30.2 173.13 30.26 173.08 30.34 173.08 37.23 176.42 44.12 179.75 50.96 174.21 57.81 168.67 57.85 168.65 57.89 168.64 57.93 168.66 57.96 168.69 60.53 173.05 63.1 177.4 63.12 177.48 63.08 177.54 58.66 181.12 54.24 184.71 58.68 186.89 63.13 189.07 63.18 189.13 63.17 189.2 60.66 194.37 58.14 199.53 58.08 199.58 58.01 199.58 51.09 196.23 44.18 192.88 37.37 198.4 30.57 203.93 30.54 203.94 30.51 203.95" fill="none" stroke="#aaa" stroke-miterlimit="10" stroke-width=".5"/>
  <polyline points="30.51 203.95 30.48 203.95 30.46 203.94 25.78 201.69 21.1 199.43 21.07 199.42 21.05 199.39 18.48 195.04 15.91 190.68 15.9 190.61 15.94 190.55 20.45 186.88 24.96 183.22 25.03 183.19 25.1 183.23 25.13 183.31 25.09 183.38 20.61 187.02 16.13 190.65 18.67 194.96 21.21 199.26 25.88 201.51 30.55 203.75 30.6 203.81 30.6 203.89 30.56 203.93 30.51 203.95" fill="none" stroke="#aaa" stroke-miterlimit="10" stroke-width=".5"/>
  <polyline points="25.3 183.53 25.28 183.53 25.25 183.52 20.57 181.27 15.89 179.02 15.86 179 15.84 178.96 15.83 178.92 15.84 178.88 18.36 173.72 20.87 168.56 20.9 168.53 20.93 168.51 20.97 168.5 21.01 168.51 25.68 170.8 30.34 173.08 30.4 173.14 30.39 173.22 30.33 173.28 30.25 173.27 25.63 171.01 21.01 168.74 18.54 173.81 16.07 178.88 20.71 181.11 25.34 183.34 25.4 183.4 25.39 183.48 25.35 183.52 25.3 183.53" fill="none" stroke="#aaa" stroke-miterlimit="10" stroke-width=".5"/>
  <polyline points="25.37 195.24 25.34 195.23 25.32 195.23 20.64 192.97 15.96 190.72 15.9 190.66 15.91 190.58 15.97 190.53 16.05 190.53 20.73 192.79 25.41 195.04 25.46 195.1 25.46 195.18 25.42 195.22 25.37 195.24" fill="none" stroke="#aaa" stroke-miterlimit="10" stroke-width=".5"/>
  <polyline points="34.81 175.46 34.77 175.45 34.73 175.43 34.71 175.35 34.75 175.28 41.59 169.72 48.44 164.16 48.5 164.14 48.55 164.15 53.24 166.4 57.92 168.65 57.97 168.71 57.97 168.79 57.91 168.84 57.83 168.84 53.18 166.6 48.52 164.36 41.7 169.9 34.88 175.44 34.84 175.46 34.81 175.46" fill="none" stroke="#aaa" stroke-miterlimit="10" stroke-width=".5"/>
</svg>