<?xml version="1.0" encoding="utf-8" ?>
<svg baseProfile="full" height="222" version="1.1" width="222" xmlns="http://www.w3.org/2000/svg" xmlns:ev="http://www.w3.org/2001/xml-events" xmlns:xlink="http://www.w3.org/1999/xlink"><defs />
  <polyline fill="none" points ="42.99 192.62 40.64 187.46 35.99 184.34 31.65 184.03 27.38 184.95 25.64 185.59 24.32 186.12 29.19 182.92 33.95 179.56 30.11 186.37 26.54 193.3 25.96 195.54 27.16 197.38 30.38 198.96 33.41 200.88 38.78 206.38 42.9 212.91 46.67 206.8 51.51 201.53 54.49 199.44 57.74 197.82 59.32 196.82 59.76 195.07 58 190.72 55.74 186.58" stroke="#aaa" stroke-width="1"/>
  <polyline fill="none" points ="42.72 188.14 40.42 183.24 35.91 180.34 31.69 180.07 27.55 180.96 25.85 181.58 24.57 182.14 29.3 179.16 33.93 176.01 30.17 182.5 26.68 189.13 26.11 191.29 27.28 193.06 30.41 194.59 33.37 196.43 38.6 201.65 42.63 207.88 46.31 202.05 51.01 197.05 53.93 195.05 57.09 193.49 58.63 192.53 59.08 190.84 57.36 186.7 55.16 182.76" stroke="#aaa" stroke-width="1"/>
  <polyline fill="none" points ="42.7 183.51 40.39 178.87 35.99 176.21 31.82 176 27.74 176.89 26.07 177.5 24.81 178.11 29.48 175.38 34.03 172.46 30.28 178.66 26.8 185 26.23 187.11 27.38 188.82 30.49 190.32 33.44 192.1 38.6 197.05 42.62 203 46.27 197.45 50.91 192.71 53.81 190.78 56.94 189.26 58.46 188.33 58.93 186.69 57.26 182.74 55.09 179.02" stroke="#aaa" stroke-width="1"/>
  <polyline fill="none" points ="42.68 178.77 40.33 174.38 35.98 172 31.83 171.84 27.75 172.74 26.08 173.36 24.83 174.03 29.5 171.59 34.04 168.9 30.23 174.83 26.71 180.92 26.12 182.98 27.28 184.66 30.4 186.13 33.38 187.86 38.54 192.55 42.6 198.23 46.29 192.94 50.91 188.46 53.84 186.59 56.98 185.11 58.5 184.21 59.01 182.59 57.36 178.84 55.2 175.32" stroke="#aaa" stroke-width="1"/>
  <polyline fill="none" points ="42.67 174 40.24 169.87 35.96 167.76 31.79 167.67 27.72 168.58 26.03 169.21 24.79 169.95 29.47 167.79 34.01 165.35 30.14 171.01 26.55 176.85 25.96 178.88 27.13 180.52 30.27 181.97 33.29 183.64 38.46 188.07 42.59 193.49 46.32 188.46 50.93 184.23 53.91 182.42 57.06 180.98 58.59 180.1 59.15 178.51 57.53 174.93 55.37 171.61" stroke="#aaa" stroke-width="1"/>
  <polyline fill="none" points ="42.9 169.24 40.4 165.37 36.18 163.52 32 163.5 27.92 164.42 26.22 165.05 24.99 165.87 29.68 164 34.23 161.79 30.28 167.18 26.64 172.77 26.04 174.77 27.23 176.37 30.39 177.8 33.47 179.42 38.63 183.59 42.81 188.75 46.57 183.97 51.17 180.01 54.19 178.25 57.37 176.84 58.91 175.98 59.53 174.42 57.93 171.02 55.78 167.89" stroke="#aaa" stroke-width="1"/>
  <polyline fill="none" points ="42.8 164.48 40.22 160.88 36.07 159.29 31.89 159.33 27.82 160.27 26.09 160.91 24.88 161.79 29.57 160.21 34.13 158.24 30.11 163.36 26.41 168.69 25.8 170.66 27.02 172.22 30.21 173.63 33.33 175.19 38.48 179.1 42.71 184 46.51 179.48 51.09 175.77 54.15 174.08 57.34 172.7 58.9 171.86 59.57 170.32 58 167.09 55.86 164.15" stroke="#aaa" stroke-width="1"/>
  <polyline fill="none" points ="42.73 159.74 40.08 156.42 36.01 155.07 31.83 155.17 27.76 156.11 26.02 156.77 24.82 157.71 29.51 156.42 34.07 154.69 29.98 159.52 26.22 164.61 25.61 166.54 26.85 168.06 30.07 169.45 33.23 170.96 38.37 174.61 42.66 179.24 46.48 174.98 51.04 171.52 54.14 169.89 57.36 168.56 58.93 167.73 59.65 166.22 58.1 163.14 55.96 160.38" stroke="#aaa" stroke-width="1"/>
  <polyline fill="none" points ="42.69 154.99 39.91 151.94 35.89 150.84 31.43 151.03 27.06 151.96 24.76 152.7 22.55 153.64 25.67 152.48 28.74 151.13 25.96 155.67 23.86 160.53 24.24 162.66 26.06 163.9 29.6 165.22 33.07 166.73 38.24 170.11 42.61 174.48 46.46 170.5 50.99 167.3 54.3 165.71 57.73 164.44 59.7 163.62 61.21 162.18 61.01 159.42 59.82 156.84" stroke="#aaa" stroke-width="1"/>
  <polyline fill="none" points ="42.67 150.18 39.75 147.44 35.78 146.57 31.12 146.83 26.54 147.78 23.75 148.59 21.01 149.54 23.02 148.63 25.28 147.58 23.29 151.88 22.25 156.47 23.33 158.61 25.48 159.78 29.24 161.06 32.93 162.54 38.13 165.66 42.59 169.78 46.49 166.06 51 163.12 54.46 161.57 58.03 160.35 60.3 159.51 62.26 158.15 62.87 155.71 62.29 153.2" stroke="#aaa" stroke-width="1"/>
  <polyline fill="none" points ="42.65 145.25 39.55 142.83 35.61 142.19 30.74 142.54 25.94 143.51 22.76 144.39 19.63 145.4 20.77 144.84 22.63 144.02 21.13 148.14 20.81 152.45 22.37 154.58 24.8 155.74 28.77 157.01 32.68 158.46 37.96 161.35 42.58 165.2 46.58 161.74 51.12 159.03 54.74 157.54 58.45 156.34 60.97 155.48 63.26 154.15 64.37 151.99 64.25 149.52" stroke="#aaa" stroke-width="1"/>
  <polyline fill="none" points ="42.6 140.17 39.28 138.12 35.31 137.7 30.19 138.15 25.14 139.16 21.58 140.1 18.08 141.2 18.48 141.08 20.13 140.47 18.99 144.43 19.22 148.49 21.19 150.61 23.88 151.78 28.1 153.06 32.27 154.49 37.69 157.17 42.54 160.77 46.71 157.56 51.34 155.07 55.15 153.61 59.05 152.42 61.82 151.54 64.4 150.22 65.87 148.27 66.15 145.83" stroke="#aaa" stroke-width="1"/>
  <polyline fill="none" points ="42.67 135.02 39.09 133.36 35.08 133.15 29.68 133.71 24.36 134.76 20.45 135.77 16.6 136.98 16.33 137.32 17.93 136.92 17.05 140.74 17.7 144.55 20.02 146.67 22.97 147.87 27.45 149.17 31.9 150.59 37.49 153.07 42.61 156.42 47 153.44 51.78 151.14 55.81 149.73 59.91 148.55 62.92 147.62 65.76 146.29 67.5 144.48 68.1 142.04" stroke="#aaa" stroke-width="1"/>
  <polyline fill="none" points ="42.71 129.9 38.91 128.65 34.85 128.62 29.22 129.29 23.65 130.39 19.44 131.45 15.32 132.78 14.44 133.52 16.1 133.36 15.42 137.04 16.37 140.6 18.98 142.71 22.14 143.94 26.85 145.26 31.54 146.65 37.29 148.94 42.66 152.03 47.28 149.28 52.21 147.17 56.46 145.81 60.76 144.62 63.98 143.66 67.03 142.29 68.93 140.54 69.76 138.1" stroke="#aaa" stroke-width="1"/>
  <polyline fill="none" points ="42.71 124.94 38.77 124.1 34.7 124.23 28.92 124.98 23.2 126.11 18.8 127.21 14.5 128.62 13.17 129.57 14.86 129.81 14.33 133.31 15.51 136.6 18.36 138.67 21.68 139.91 26.54 141.24 31.4 142.59 37.19 144.68 42.66 147.48 47.41 144.97 52.41 143.05 56.83 141.74 61.27 140.56 64.65 139.57 67.86 138.17 69.86 136.44 70.82 134" stroke="#aaa" stroke-width="1"/>
  <polyline fill="none" points ="42.66 120.24 38.71 119.77 34.71 120.04 28.98 120.85 23.29 121.98 18.88 123.1 14.58 124.56 13.17 125.61 14.75 126.26 14.25 129.5 15.48 132.5 18.41 134.51 21.78 135.73 26.65 137.03 31.53 138.33 37.2 140.19 42.63 142.68 47.39 140.44 52.35 138.71 56.82 137.47 61.31 136.32 64.73 135.31 67.99 133.89 69.96 132.2 70.87 129.78" stroke="#aaa" stroke-width="1"/>
  <polyline fill="none" points ="42.63 115.8 38.78 115.7 34.93 116.07 29.38 116.92 23.88 118.03 19.58 119.12 15.42 120.6 14.02 121.76 15.49 122.7 14.99 125.64 16.22 128.31 19.14 130.2 22.45 131.38 27.2 132.63 31.98 133.83 37.38 135.47 42.61 137.6 47.25 135.65 52.06 134.13 56.48 132.99 60.91 131.88 64.28 130.88 67.47 129.46 69.33 127.82 70.09 125.48" stroke="#aaa" stroke-width="1"/>
  <polyline fill="none" points ="42.6 111.61 38.95 111.84 35.32 112.3 30.07 113.16 24.86 114.22 20.78 115.26 16.83 116.72 15.48 117.98 16.85 119.15 16.39 121.73 17.59 124.03 20.44 125.78 23.62 126.88 28.15 128.05 32.71 129.15 37.71 130.52 42.59 132.29 47.03 130.65 51.57 129.36 55.85 128.31 60.12 127.26 63.36 126.29 66.43 124.89 68.12 123.32 68.67 121.11" stroke="#aaa" stroke-width="1"/>
  <polyline fill="none" points ="42.61 107.57 38.23 108.04 33.85 108.65 29.06 109.47 24.32 110.5 21.03 111.45 17.94 112.89 17.22 114.43 18.62 115.59 18.22 117.8 19.39 119.7 22.14 121.27 25.17 122.29 29.4 123.37 33.67 124.34 38.18 125.46 42.61 126.83 46.8 125.51 51.06 124.44 55.18 123.5 59.28 122.49 62.35 121.54 65.21 120.14 66.64 118.6 66.77 116.53" stroke="#aaa" stroke-width="1"/>
  <polyline fill="none" points ="42.6 103.53 38.16 104.27 33.73 105 29.34 105.8 24.99 106.78 22.13 107.66 19.5 109.06 19.06 110.73 20.38 112.04 20.07 113.88 21.22 115.37 23.89 116.76 26.77 117.7 30.71 118.68 34.68 119.53 38.65 120.38 42.59 121.36 46.5 120.38 50.44 119.53 54.42 118.68 58.37 117.7 61.24 116.77 63.9 115.37 65.01 113.85 64.59 112.04 64.59 112.04 64.6 112.03 64.6 112.03 64.61 112.03 64.62 112.02 64.62 112.02 64.63 112.01 64.64 112.01" stroke="#aaa" stroke-width="1"/>
  <polyline fill="none" points ="42.53 99.36 38.19 100.38 33.81 101.25 29.74 102.05 25.71 102.99 23.13 103.81 20.84 105.19 20.55 107 21.81 108.49 21.63 109.98 22.77 111.08 25.43 112.32 28.25 113.19 31.95 114.08 35.69 114.82 39.11 115.43 42.53 116.02 45.92 115.43 49.32 114.82 53.06 114.08 56.77 113.19 59.58 112.32 62.23 111.08 63.33 109.96 63.03 108.49 63.18 108.36 63.32 108.24 63.46 108.12 63.58 108 63.7 107.89 63.81 107.77 63.91 107.66 64.01 107.55" stroke="#aaa" stroke-width="1"/>
  <polyline fill="none" points ="42.47 94.97 38.22 96.29 33.9 97.32 30.06 98.14 26.25 99.06 23.91 99.85 21.91 101.24 21.9 103.27 23.24 104.93 23.12 106.1 24.27 106.87 27.12 107.98 30.07 108.81 33.64 109.63 37.25 110.3 39.86 110.68 42.47 110.9 45.06 110.68 47.64 110.3 51.26 109.63 54.84 108.81 57.78 107.98 60.61 106.87 61.73 106.08 61.48 104.93 61.76 104.67 62.02 104.41 62.24 104.16 62.46 103.91 62.63 103.68 62.8 103.45 62.92 103.23 63.04 103.01" stroke="#aaa" stroke-width="1"/>
  <polyline fill="none" points ="42.47 90.38 38.35 92.01 34.09 93.22 30.4 94.09 26.72 95 24.52 95.78 22.73 97.22 23.02 99.5 24.52 101.38 24 102.11 24.97 102.74 27.68 103.77 30.47 104.56 33.96 105.35 37.49 105.94 39.99 106.17 42.48 105.98 44.94 106.17 47.42 105.94 50.95 105.35 54.44 104.56 57.22 103.77 59.91 102.74 60.86 102.07 60.2 101.38 60.58 100.99 60.95 100.6 61.24 100.24 61.52 99.88 61.74 99.56 61.94 99.23 62.08 98.94 62.2 98.64" stroke="#aaa" stroke-width="1"/>
  <polyline fill="none" points ="42.48 85.66 38.44 87.61 34.18 89.02 30.57 89.94 26.97 90.87 24.87 91.65 23.28 93.15 23.87 95.7 25.55 97.82 24.51 98 25.28 98.65 27.85 99.62 30.5 100.38 33.97 101.16 37.48 101.68 40.04 101.77 42.5 101.19 44.92 101.77 47.45 101.68 50.96 101.16 54.43 100.38 57.07 99.62 59.62 98.65 60.28 97.96 59.19 97.82 59.66 97.33 60.11 96.82 60.47 96.38 60.81 95.93 61.07 95.53 61.3 95.13 61.47 94.78 61.6 94.42" stroke="#aaa" stroke-width="1"/>
  <polyline fill="none" points ="42.49 80.89 38.51 83.17 34.21 84.78 30.67 85.76 27.13 86.71 25.12 87.5 23.73 89.07 24.63 91.89 26.53 94.27 25.4 94.11 25.5 94.57 27.95 95.5 30.46 96.24 33.93 97.01 37.45 97.46 40.1 97.41 42.52 96.45 44.91 97.41 47.52 97.46 51.04 97.01 54.51 96.24 57.01 95.51 59.43 94.57 59.42 94.12 58.25 94.27 58.78 93.7 59.29 93.11 59.71 92.6 60.1 92.08 60.4 91.64 60.68 91.18 60.88 90.78 61.05 90.38" stroke="#aaa" stroke-width="1"/>
  <polyline fill="none" points ="42.51 76.11 38.58 78.7 34.25 80.53 30.77 81.57 27.28 82.54 25.36 83.35 24.2 84.98 25.45 88.08 27.58 90.72 26.31 90.38 25.75 90.5 28.06 91.39 30.43 92.1 33.89 92.87 37.42 93.25 40.18 93.04 42.55 91.72 44.88 93.04 47.6 93.25 51.13 92.87 54.59 92.1 56.94 91.39 59.23 90.5 58.57 90.38 57.25 90.72 57.83 90.08 58.39 89.44 58.85 88.88 59.29 88.31 59.64 87.82 59.97 87.32 60.22 86.9 60.44 86.46" stroke="#aaa" stroke-width="1"/>
  <polyline fill="none" points ="42.49 71.33 38.61 74.22 34.23 76.28 30.82 77.37 27.4 78.36 25.57 79.2 24.66 80.89 26.28 84.25 28.7 87.16 27.17 86.64 26.01 86.44 28.15 87.29 30.36 87.96 33.82 88.73 37.34 89.05 40.22 88.66 42.53 87 44.8 88.67 47.63 89.05 51.15 88.73 54.61 87.96 56.8 87.29 58.93 86.44 57.68 86.64 56.1 87.16 56.71 86.49 57.31 85.81 57.82 85.22 58.3 84.61 58.7 84.09 59.08 83.56 59.38 83.11 59.66 82.65" stroke="#aaa" stroke-width="1"/>
  <polyline fill="none" points ="42.58 66.5 38.78 69.69 34.37 71.99 31.02 73.14 27.64 74.16 25.88 75.04 25.22 76.79 27.25 80.42 29.98 83.61 28.12 82.88 26.37 82.39 28.34 83.21 30.39 83.86 33.84 84.63 37.37 84.89 40.37 84.31 42.63 82.33 44.84 84.31 47.8 84.89 51.32 84.63 54.77 83.86 56.81 83.21 58.77 82.39 56.94 82.88 55.01 83.61 55.66 82.9 56.31 82.19 56.86 81.56 57.4 80.93 57.84 80.38 58.27 79.82 58.62 79.34 58.96 78.85" stroke="#aaa" stroke-width="1"/>
  <polyline fill="none" points ="42.6 61.55 38.81 65.05 34.33 67.6 30.98 68.82 27.6 69.89 25.88 70.82 25.49 72.64 27.98 76.56 31.09 80.06 28.79 79.11 26.48 78.38 28.3 79.2 30.19 79.83 33.68 80.61 37.25 80.82 40.4 80.06 42.65 77.77 44.84 80.06 47.96 80.82 51.52 80.61 55 79.83 56.9 79.2 58.69 78.38 56.31 79.11 53.94 80.06 54.64 79.32 55.34 78.57 55.94 77.92 56.53 77.26 57.03 76.68 57.52 76.09 57.92 75.58 58.32 75.06" stroke="#aaa" stroke-width="1"/>
  <polyline fill="none" points ="42.28 56.4 38.4 60.24 33.73 63.05 30.3 64.36 26.83 65.49 25.12 66.52 24.96 68.42 27.95 72.68 31.52 76.5 28.72 75.34 25.87 74.44 27.57 75.29 29.39 75.91 32.99 76.74 36.68 76.91 40.04 75.98 42.34 73.41 44.57 75.98 47.9 76.91 51.58 76.74 55.17 75.91 56.99 75.29 58.67 74.44 55.75 75.34 52.89 76.5 53.66 75.72 54.42 74.94 55.08 74.24 55.74 73.54 56.3 72.92 56.85 72.3 57.32 71.76 57.77 71.21" stroke="#aaa" stroke-width="1"/>
  <polyline fill="none" points ="42.48 51.04 38.38 55.24 33.39 58.32 29.77 59.74 26.11 60.97 24.35 62.1 24.36 64.13 27.84 68.76 31.88 72.95 28.61 71.61 25.27 70.57 26.93 71.48 28.77 72.13 32.58 73.01 36.48 73.17 40.1 72.1 42.54 69.26 44.9 72.11 48.49 73.17 52.39 73.01 56.19 72.13 58.03 71.48 59.67 70.57 56.27 71.6 52.93 72.95 53.78 72.11 54.62 71.27 55.35 70.52 56.08 69.77 56.71 69.11 57.33 68.44 57.86 67.85 58.38 67.26" stroke="#aaa" stroke-width="1"/>
  <polyline fill="none" points ="42.47 45.56 38.08 50.14 32.7 53.51 28.83 55.05 24.91 56.37 23.05 57.63 23.19 59.79 27.12 64.83 31.62 69.39 27.92 67.89 24.13 66.75 25.81 67.73 27.73 68.41 31.82 69.37 36.01 69.53 39.93 68.34 42.53 65.23 45.07 68.34 48.95 69.53 53.14 69.36 57.22 68.41 59.13 67.73 60.8 66.75 56.94 67.89 53.18 69.39 54.11 68.49 55.03 67.59 55.84 66.78 56.65 65.97 57.34 65.25 58.03 64.53 58.62 63.89 59.2 63.25" stroke="#aaa" stroke-width="1"/>
  <polyline fill="none" points ="42.47 40.11 37.79 45.06 32.04 48.71 27.94 50.36 23.78 51.79 21.86 53.18 22.17 55.47 26.64 60.89 31.68 65.84 27.47 64.17 23.15 62.91 24.78 63.96 26.76 64.69 31.1 65.71 35.55 65.87 39.76 64.55 42.53 61.17 45.24 64.55 49.41 65.87 53.85 65.71 58.19 64.69 60.16 63.97 61.79 62.91 57.4 64.17 53.12 65.84 54.14 64.88 55.15 63.91 56.05 63.05 56.94 62.18 57.71 61.42 58.47 60.64 59.13 59.96 59.78 59.28" stroke="#aaa" stroke-width="1"/>
  <polyline fill="none" points ="42.57 34.82 37.69 40.11 31.66 44.04 27.45 45.78 23.18 47.31 21.35 48.87 22.04 51.2 27.33 56.97 33.11 62.29 28.11 60.4 22.96 59.03 24.28 60.12 26.21 60.87 30.69 61.94 35.29 62.08 39.74 60.61 42.63 56.96 45.45 60.61 49.86 62.08 54.46 61.94 58.94 60.87 60.87 60.12 62.17 59.03 56.96 60.4 51.89 62.29 53.01 61.29 54.13 60.28 55.13 59.38 56.12 58.48 56.98 57.68 57.85 56.87 58.6 56.16 59.34 55.43" stroke="#aaa" stroke-width="1"/>
  <polyline fill="none" points ="42.53 29.79 37.58 35.4 31.4 39.59 27.11 41.41 22.73 42.99 20.85 44.61 21.54 47.02 26.93 53.11 32.83 58.73 27.62 56.64 22.26 55.05 23.63 56.12 25.61 56.88 30.25 57.97 35.01 58.08 39.66 56.41 42.59 52.48 45.46 56.42 50.07 58.08 54.82 57.97 59.46 56.88 61.44 56.12 62.79 55.05 57.37 56.64 52.1 58.73 53.22 57.69 54.34 56.65 55.34 55.72 56.33 54.78 57.2 53.94 58.07 53.1 58.82 52.35 59.57 51.6" stroke="#aaa" stroke-width="1"/>
  <polyline fill="none" points ="42.47 25.15 37.67 31.02 31.53 35.46 27.32 37.32 23 38.9 21.12 40.55 21.79 42.98 27.06 49.3 32.84 55.18 27.58 52.83 22.15 50.93 23.53 51.92 25.5 52.66 30.16 53.73 34.94 53.75 39.68 51.84 42.54 47.61 45.32 51.84 50.02 53.75 54.79 53.72 59.45 52.66 61.42 51.92 62.78 50.93 57.29 52.83 51.96 55.18 53.03 54.13 54.09 53.07 55.04 52.12 55.98 51.17 56.82 50.32 57.65 49.46 58.38 48.7 59.1 47.93" stroke="#aaa" stroke-width="1"/>
  <polyline fill="none" points ="42.56 20.92 38.12 26.97 32.26 31.65 28.3 33.53 24.19 35.07 22.39 36.7 23.01 39.09 27.93 45.55 33.36 51.63 28.28 48.98 23.05 46.66 24.4 47.5 26.26 48.18 30.75 49.19 35.33 49.1 40 46.83 42.63 42.34 45.18 46.83 49.81 49.1 54.39 49.19 58.87 48.18 60.73 47.5 62.06 46.66 56.77 48.98 51.63 51.63 52.58 50.59 53.53 49.55 54.39 48.6 55.24 47.66 55.99 46.81 56.75 45.96 57.41 45.2 58.07 44.44" stroke="#aaa" stroke-width="1"/>
  <polyline fill="none" points ="42.52 16.97 38.59 23.17 33.17 28.08 29.58 29.95 25.81 31.41 24.13 32.99 24.67 35.3 29.1 41.84 33.99 48.07 29.28 45.08 24.45 42.3 25.72 42.91 27.42 43.54 31.59 44.44 35.83 44.22 40.29 41.51 42.6 36.77 44.82 41.51 49.24 44.22 53.47 44.44 57.63 43.54 59.34 42.91 60.58 42.3 55.69 45.08 50.91 48.07 51.72 47.07 52.52 46.08 53.25 45.17 53.97 44.26 54.62 43.43 55.27 42.61 55.85 41.86 56.42 41.12" stroke="#aaa" stroke-width="1"/>
  <polyline fill="none" points ="42.46 13.1 39.05 19.4 34.13 24.57 30.95 26.42 27.54 27.8 26 29.33 26.46 31.53 30.36 38.15 34.68 44.52 30.36 41.17 25.98 37.91 27.13 38.28 28.69 38.84 32.5 39.64 36.36 39.27 40.55 36.09 42.54 31.14 44.45 36.09 48.59 39.27 52.44 39.64 56.24 38.84 57.79 38.28 58.93 37.91 54.48 41.17 50.1 44.52 50.75 43.58 51.4 42.65 51.99 41.79 52.59 40.93 53.12 40.15 53.66 39.37 54.14 38.65 54.62 37.94" stroke="#aaa" stroke-width="1"/>
  <polyline fill="none" points ="42.46 9.06 39.47 15.49 34.97 20.92 32.12 22.76 29 24.08 27.58 25.58 27.98 27.7 31.45 34.43 35.3 40.96 31.3 37.26 27.3 33.58 28.33 33.73 29.79 34.25 33.31 34.96 36.85 34.46 40.79 30.84 42.54 25.67 44.21 30.83 48.11 34.46 51.63 34.96 55.14 34.25 56.61 33.73 57.62 33.58 53.55 37.26 49.49 40.96 50.02 40.08 50.56 39.2 51.05 38.39 51.54 37.57 51.99 36.82 52.43 36.07 52.84 35.38 53.25 34.7" stroke="#aaa" stroke-width="1"/>
</svg>