<?xml version="1.0" encoding="UTF-8"?><svg id="Ebene_1" xmlns="http://www.w3.org/2000/svg" viewBox="0 0 222 222"><polyline points="109.33 1.55 122.7 4.52 135.95 8.01 143.3 10.34 150.46 13.16 153.91 14.9 157.14 17 158.68 18.26 160.23 19.5 162.04 20.33 164.01 20.66 168.36 20.7 172.72 20.45 181.68 19.69 190.63 18.85 206.31 17.35 222 15.86 214.91 17.19 207.81 18.51 202.72 19.42 197.64 20.3 194.26 20.85 190.88 21.34 188.91 21.56 186.94 21.68 186.06 21.65 185.22 21.43 185 21.07 185.12 20.64 185.55 20.01 186.04 19.42 186.73 18.63 187.39 17.83" style="fill:none; stroke:#aaa; stroke-miterlimit:10; stroke-width:.5px;"/><polyline points="104.72 1.55 117.86 4.54 130.88 8.03 138.11 10.37 145.16 13.2 148.57 14.95 151.75 17.05 153.29 18.32 154.84 19.56 156.63 20.38 158.6 20.71 162.91 20.74 167.23 20.49 176.07 19.73 184.91 18.88 200.36 17.36 215.82 15.86 208.76 17.22 201.7 18.55 196.67 19.48 191.65 20.37 188.35 20.91 185.05 21.39 183.16 21.6 181.28 21.71 180.47 21.67 179.72 21.41 179.59 20.99 179.77 20.57 180.25 19.91 180.79 19.28 181.5 18.46 182.17 17.62" style="fill:none; stroke:#aaa; stroke-miterlimit:10; stroke-width:.5px;"/><polyline points="100.06 1.55 112.98 4.56 125.77 8.07 132.89 10.43 139.82 13.27 143.19 15.03 146.33 17.14 147.87 18.41 149.41 19.65 151.2 20.48 153.17 20.8 157.44 20.83 161.72 20.57 170.44 19.8 179.17 18.94 194.41 17.4 209.65 15.89 202.62 17.27 195.6 18.63 190.65 19.57 185.68 20.47 182.46 21.01 179.24 21.49 177.45 21.69 175.65 21.78 174.92 21.72 174.26 21.43 174.22 20.97 174.45 20.53 174.98 19.84 175.56 19.18 176.29 18.33 176.97 17.45" style="fill:none; stroke:#aaa; stroke-miterlimit:10; stroke-width:.5px;"/><polyline points="95.38 1.55 108.07 4.58 120.63 8.12 127.64 10.5 134.45 13.37 137.78 15.14 140.88 17.26 142.41 18.55 143.96 19.79 145.75 20.62 147.71 20.94 151.95 20.96 156.19 20.7 164.81 19.91 173.43 19.04 188.45 17.48 203.47 15.95 196.5 17.36 189.52 18.75 184.64 19.7 179.74 20.61 176.61 21.15 173.48 21.62 171.77 21.82 170.06 21.89 169.4 21.82 168.84 21.49 168.88 20.99 169.16 20.54 169.74 19.82 170.36 19.11 171.1 18.23 171.79 17.31" style="fill:none; stroke:#aaa; stroke-miterlimit:10; stroke-width:.5px;"/><polyline points="90.68 1.55 103.14 4.62 115.47 8.19 122.36 10.6 129.06 13.49 132.35 15.28 135.41 17.42 136.94 18.72 138.49 19.97 140.28 20.79 142.25 21.12 146.45 21.13 150.66 20.86 159.17 20.06 167.69 19.17 182.49 17.58 197.29 16.03 190.38 17.47 183.46 18.89 178.65 19.85 173.84 20.78 170.79 21.32 167.74 21.79 166.12 21.98 164.5 22.03 163.9 21.94 163.44 21.59 163.57 21.05 163.89 20.57 164.52 19.82 165.18 19.08 165.93 18.16 166.62 17.2" style="fill:none; stroke:#aaa; stroke-miterlimit:10; stroke-width:.5px;"/><polyline points="85.97 1.55 98.21 4.65 110.31 8.26 117.09 10.7 123.67 13.61 126.92 15.42 129.95 17.57 131.47 18.88 133.02 20.14 134.82 20.97 136.78 21.3 140.96 21.3 145.13 21.02 153.54 20.2 161.94 19.3 176.53 17.69 191.11 16.11 184.26 17.58 177.4 19.03 172.67 20.01 167.93 20.95 164.97 21.49 162.01 21.96 160.48 22.13 158.95 22.17 158.41 22.06 158.06 21.68 158.27 21.1 158.64 20.6 159.31 19.81 160 19.03 160.76 18.08 161.44 17.07" style="fill:none; stroke:#aaa; stroke-miterlimit:10; stroke-width:.5px;"/><polyline points="81.35 1.55 93.37 4.67 105.24 8.29 111.91 10.74 118.37 13.66 121.57 15.49 124.56 17.65 126.07 18.96 127.62 20.22 129.41 21.05 131.37 21.37 135.5 21.38 139.63 21.08 147.92 20.26 156.21 19.34 170.57 17.72 184.94 16.12 178.14 17.62 171.34 19.1 166.68 20.08 162.02 21.03 159.14 21.57 156.27 22.03 154.82 22.19 153.38 22.21 152.88 22.08 152.64 21.67 152.92 21.06 153.33 20.53 154.04 19.71 154.75 18.89 155.52 17.91 156.19 16.87" style="fill:none; stroke:#aaa; stroke-miterlimit:10; stroke-width:.5px;"/><polyline points="76.88 1.55 88.68 4.65 100.33 8.25 106.88 10.69 113.23 13.59 116.38 15.41 119.32 17.55 120.81 18.86 122.34 20.1 124.12 20.92 126.06 21.25 130.13 21.25 134.2 20.95 142.36 20.13 150.52 19.21 164.64 17.6 178.76 16.01 172.01 17.51 165.26 19 160.68 19.98 156.08 20.93 153.28 21.46 150.49 21.91 149.12 22.05 147.75 22.05 147.29 21.89 147.13 21.47 147.47 20.84 147.92 20.27 148.66 19.44 149.38 18.59 150.14 17.59 150.78 16.51" style="fill:none; stroke:#aaa; stroke-miterlimit:10; stroke-width:.5px;"/><polyline points="72.61 1.55 84.19 4.59 95.63 8.12 102.06 10.51 108.29 13.35 111.38 15.13 114.27 17.23 115.73 18.51 117.23 19.74 118.97 20.54 120.87 20.86 124.86 20.86 128.86 20.57 136.86 19.76 144.87 18.87 158.72 17.28 172.58 15.73 165.88 17.22 159.17 18.69 154.64 19.66 150.11 20.59 147.37 21.1 144.64 21.53 143.34 21.66 142.03 21.63 141.6 21.45 141.53 21.01 141.91 20.37 142.39 19.78 143.13 18.93 143.86 18.06 144.6 17.05 145.2 15.97" style="fill:none; stroke:#aaa; stroke-miterlimit:10; stroke-width:.5px;"/><polyline points="68.51 1.55 79.89 4.48 91.13 7.89 97.43 10.2 103.55 12.95 106.57 14.67 109.39 16.7 110.82 17.93 112.27 19.12 113.96 19.9 115.8 20.21 119.7 20.21 123.59 19.94 131.42 19.17 139.25 18.3 152.83 16.78 166.4 15.28 159.71 16.74 153.02 18.19 148.54 19.13 144.04 20.02 141.37 20.51 138.7 20.91 137.46 21.02 136.21 20.96 135.82 20.74 135.82 20.3 136.24 19.64 136.74 19.03 137.49 18.18 138.22 17.29 138.91 16.28 139.46 15.19" style="fill:none; stroke:#aaa; stroke-miterlimit:10; stroke-width:.5px;"/><polyline points="64.55 1.55 75.72 4.34 86.76 7.6 92.94 9.8 98.94 12.43 101.89 14.06 104.65 16.01 106.02 17.19 107.42 18.33 109.04 19.08 110.81 19.37 114.6 19.39 118.38 19.13 126.02 18.4 133.67 17.58 146.95 16.14 160.23 14.71 153.54 16.13 146.85 17.53 142.4 18.43 137.94 19.29 135.32 19.74 132.7 20.11 131.52 20.2 130.33 20.1 129.98 19.84 130.04 19.4 130.48 18.74 131.01 18.12 131.75 17.26 132.46 16.37 133.1 15.37 133.57 14.28" style="fill:none; stroke:#aaa; stroke-miterlimit:10; stroke-width:.5px;"/><polyline points="60.63 1.55 71.6 4.2 82.44 7.28 88.5 9.36 94.39 11.86 97.26 13.41 99.94 15.26 101.27 16.38 102.6 17.47 104.16 18.19 105.86 18.47 109.52 18.49 113.19 18.25 120.64 17.57 128.09 16.8 141.07 15.44 154.05 14.1 147.36 15.47 140.66 16.81 136.24 17.67 131.82 18.48 129.25 18.9 126.68 19.23 125.55 19.3 124.43 19.17 124.12 18.87 124.23 18.43 124.7 17.76 125.24 17.13 125.97 16.28 126.65 15.39 127.23 14.4 127.61 13.32" style="fill:none; stroke:#aaa; stroke-miterlimit:10; stroke-width:.5px;"/><polyline points="56.65 1.55 67.41 4.06 78.06 6.99 83.99 8.97 89.77 11.34 92.57 12.81 95.18 14.57 96.46 15.64 97.74 16.68 99.23 17.37 100.86 17.64 104.42 17.66 107.97 17.44 115.24 16.8 122.5 16.08 135.19 14.8 147.87 13.53 141.16 14.86 134.45 16.15 130.07 16.97 125.67 17.74 123.17 18.13 120.67 18.42 119.6 18.46 118.56 18.3 118.32 17.95 118.47 17.52 118.98 16.84 119.55 16.19 120.26 15.34 120.9 14.43 121.41 13.45 121.67 12.38" style="fill:none; stroke:#aaa; stroke-miterlimit:10; stroke-width:.5px;"/><polyline points="52.51 1.55 63.06 3.96 73.51 6.78 79.31 8.67 84.97 10.96 87.7 12.37 90.26 14.07 91.5 15.09 92.74 16.1 94.18 16.76 95.76 17.03 99.22 17.05 102.69 16.85 109.78 16.23 116.88 15.54 129.29 14.31 141.7 13.1 134.99 14.4 128.28 15.67 123.95 16.46 119.6 17.19 117.17 17.55 114.74 17.81 113.74 17.83 112.78 17.64 112.62 17.23 112.83 16.81 113.37 16.12 113.96 15.44 114.65 14.59 115.26 13.67 115.69 12.68 115.83 11.61" style="fill:none; stroke:#aaa; stroke-miterlimit:10; stroke-width:.5px;"/><polyline points="48.11 1.55 58.44 3.92 68.67 6.69 74.36 8.55 79.9 10.8 82.58 12.18 85.09 13.85 86.3 14.86 87.52 15.84 88.94 16.5 90.49 16.76 93.89 16.78 97.28 16.58 104.24 15.97 111.2 15.29 123.36 14.08 135.52 12.89 128.86 14.18 122.21 15.45 117.95 16.22 113.67 16.95 111.33 17.29 108.98 17.53 108.05 17.54 107.18 17.32 107.1 16.87 107.34 16.45 107.92 15.74 108.52 15.04 109.21 14.17 109.79 13.23 110.16 12.22 110.21 11.14" style="fill:none; stroke:#aaa; stroke-miterlimit:10; stroke-width:.5px;"/><polyline points="43.38 1.55 53.49 3.95 63.49 6.76 69.06 8.64 74.49 10.91 77.13 12.32 79.6 14 80.81 15.02 82.03 16.01 83.45 16.66 85.01 16.92 88.38 16.94 91.74 16.73 98.6 16.11 105.45 15.41 117.39 14.18 129.34 12.96 122.79 14.28 116.24 15.57 112.08 16.36 107.92 17.1 105.66 17.44 103.41 17.67 102.56 17.67 101.77 17.43 101.77 16.94 102.05 16.51 102.67 15.77 103.3 15.04 103.99 14.15 104.57 13.17 104.91 12.13 104.9 11.03" style="fill:none; stroke:#aaa; stroke-miterlimit:10; stroke-width:.5px;"/><polyline points="38.31 1.55 48.18 4.06 57.93 6.99 63.4 8.97 68.7 11.33 71.32 12.81 73.77 14.55 75 15.61 76.26 16.64 77.71 17.31 79.31 17.57 82.68 17.58 86.05 17.34 92.84 16.68 99.62 15.94 111.39 14.63 123.16 13.34 116.78 14.72 110.39 16.08 106.37 16.91 102.34 17.68 100.2 18.03 98.05 18.28 97.28 18.28 96.59 18.01 96.67 17.49 96.99 17.04 97.65 16.27 98.32 15.5 99.04 14.56 99.62 13.53 99.97 12.43 99.95 11.28" style="fill:none; stroke:#aaa; stroke-miterlimit:10; stroke-width:.5px;"/><polyline points="32.9 1.55 42.52 4.26 52 7.4 57.37 9.54 62.56 12.06 65.17 13.66 67.6 15.51 68.88 16.65 70.2 17.73 71.72 18.43 73.38 18.71 76.8 18.69 80.21 18.42 86.97 17.69 93.73 16.87 105.35 15.43 116.99 14.02 110.82 15.49 104.65 16.95 100.79 17.83 96.92 18.65 94.91 19.03 92.88 19.29 92.19 19.3 91.6 19.02 91.77 18.47 92.14 17.99 92.85 17.18 93.56 16.36 94.32 15.35 94.95 14.27 95.33 13.1 95.36 11.88" style="fill:none; stroke:#aaa; stroke-miterlimit:10; stroke-width:.5px;"/><polyline points="27.19 1.55 36.56 4.53 45.77 7.97 51.04 10.32 56.1 13.07 58.72 14.83 61.16 16.83 62.49 18.08 63.89 19.24 65.5 19.99 67.27 20.27 70.76 20.23 74.24 19.92 81 19.08 87.76 18.15 99.28 16.55 110.81 14.96 104.89 16.54 98.98 18.09 95.31 19.03 91.64 19.93 89.76 20.33 87.87 20.62 87.25 20.63 86.77 20.35 87.04 19.76 87.45 19.26 88.23 18.4 88.99 17.52 89.81 16.46 90.5 15.3 90.96 14.07 91.07 12.76" style="fill:none; stroke:#aaa; stroke-miterlimit:10; stroke-width:.5px;"/><polyline points="21.28 1.55 30.39 4.86 39.31 8.66 44.48 11.27 49.43 14.29 52.06 16.25 54.51 18.43 55.92 19.81 57.42 21.06 59.14 21.86 61.02 22.16 64.6 22.09 68.18 21.72 74.97 20.76 81.76 19.7 93.19 17.88 104.63 16.1 99 17.79 93.36 19.46 89.9 20.48 86.42 21.45 84.69 21.88 82.94 22.21 82.41 22.23 82.05 21.94 82.41 21.33 82.88 20.79 83.73 19.88 84.56 18.95 85.45 17.81 86.21 16.58 86.75 15.26 86.97 13.86" style="fill:none; stroke:#aaa; stroke-miterlimit:10; stroke-width:.5px;"/><polyline points="15.28 1.55 24.13 5.23 32.75 9.41 37.83 12.32 42.65 15.63 45.3 17.82 47.77 20.19 49.26 21.7 50.87 23.06 52.7 23.92 54.71 24.23 58.4 24.12 62.08 23.68 68.91 22.59 75.74 21.38 87.09 19.34 98.45 17.32 93.1 19.13 87.76 20.94 84.49 22.04 81.23 23.09 79.65 23.56 78.05 23.94 77.59 23.96 77.38 23.67 77.83 23.04 78.37 22.46 79.29 21.5 80.18 20.51 81.15 19.29 81.99 17.98 82.62 16.58 82.95 15.07" style="fill:none; stroke:#aaa; stroke-miterlimit:10; stroke-width:.5px;"/><polyline points="9.3 1.55 17.88 5.6 26.21 10.17 31.19 13.38 35.9 16.97 38.56 19.38 41.05 21.95 42.61 23.6 44.33 25.07 46.28 25.98 48.42 26.31 52.21 26.16 55.99 25.65 62.86 24.42 69.71 23.07 80.99 20.79 92.28 18.53 87.2 20.47 82.13 22.41 79.07 23.57 76.02 24.71 74.59 25.22 73.14 25.64 72.74 25.67 72.68 25.38 73.23 24.73 73.83 24.12 74.82 23.11 75.78 22.05 76.82 20.76 77.73 19.38 78.45 17.88 78.88 16.28" style="fill:none; stroke:#aaa; stroke-miterlimit:10; stroke-width:.5px;"/><polyline points="3.45 1.55 11.78 5.95 19.82 10.86 24.7 14.35 29.3 18.21 31.96 20.82 34.47 23.57 36.1 25.35 37.91 26.91 39.96 27.87 42.21 28.22 46.1 28.03 49.96 27.45 56.85 26.1 63.72 24.6 74.91 22.11 86.1 19.63 81.28 21.67 76.46 23.73 73.6 24.97 70.74 26.18 69.45 26.71 68.14 27.18 67.8 27.21 67.89 26.92 68.53 26.25 69.2 25.61 70.26 24.55 71.29 23.44 72.39 22.08 73.37 20.63 74.16 19.05 74.67 17.36" style="fill:none; stroke:#aaa; stroke-miterlimit:10; stroke-width:.5px;"/><polyline points="-2.15 1.55 5.93 6.24 13.69 11.44 18.47 15.16 22.95 19.23 25.6 22.02 28.12 24.91 29.8 26.79 31.69 28.44 33.83 29.44 36.17 29.79 40.12 29.57 44.03 28.94 50.92 27.47 57.78 25.86 68.85 23.18 79.92 20.52 75.33 22.65 70.74 24.81 68.05 26.1 65.37 27.38 64.21 27.92 63.04 28.43 62.77 28.42 62.98 28.16 63.7 27.48 64.43 26.8 65.55 25.7 66.63 24.55 67.79 23.13 68.81 21.61 69.66 19.96 70.22 18.2" style="fill:none; stroke:#aaa; stroke-miterlimit:10; stroke-width:.5px;"/><polyline points="-7.46 1.55 .37 6.46 7.87 11.86 12.54 15.76 16.91 19.99 19.54 22.9 22.05 25.9 23.77 27.86 25.71 29.56 27.9 30.59 30.3 30.95 34.29 30.71 38.23 30.03 45.09 28.48 51.91 26.78 62.82 23.96 73.74 21.15 69.35 23.36 64.97 25.59 62.43 26.91 59.91 28.24 58.86 28.79 57.81 29.32 57.69 29.27 57.92 29.05 58.71 28.35 59.49 27.64 60.67 26.5 61.78 25.31 62.98 23.84 64.04 22.27 64.92 20.57 65.52 18.75" style="fill:none; stroke:#aaa; stroke-miterlimit:10; stroke-width:.5px;"/><polyline points="-12.58 1.55 -4.98 6.62 2.26 12.18 6.82 16.21 11.08 20.55 13.68 23.56 16.18 26.63 17.91 28.65 19.9 30.4 22.13 31.45 24.57 31.81 28.57 31.55 32.52 30.83 39.32 29.22 46.07 27.44 56.82 24.52 67.57 21.61 63.35 23.85 59.17 26.14 56.76 27.49 54.39 28.85 53.44 29.41 52.49 29.96 52.51 29.88 52.75 29.67 53.6 28.97 54.43 28.23 55.64 27.07 56.79 25.84 58.01 24.34 59.1 22.74 60 20.99 60.63 19.13" style="fill:none; stroke:#aaa; stroke-miterlimit:10; stroke-width:.5px;"/><polyline points="-17.64 1.55 -10.28 6.77 -3.28 12.46 1.16 16.61 5.3 21.05 7.87 24.14 10.36 27.29 12.11 29.35 14.13 31.14 16.39 32.2 18.87 32.57 22.88 32.28 26.83 31.54 33.56 29.87 40.25 28.03 50.82 25.01 61.39 21.99 57.36 24.28 53.35 26.62 51.09 27.98 48.85 29.38 47.99 29.93 47.15 30.5 47.28 30.41 47.55 30.21 48.45 29.49 49.32 28.74 50.56 27.56 51.74 26.3 52.99 24.77 54.1 23.13 55.02 21.35 55.67 19.45" style="fill:none; stroke:#aaa; stroke-miterlimit:10; stroke-width:.5px;"/><polyline points="-22.76 1.55 -15.64 6.93 -8.89 12.77 -4.56 17.05 -.53 21.6 2.01 24.78 4.48 28 6.26 30.13 8.32 31.95 10.61 33.04 13.14 33.41 17.15 33.1 21.11 32.33 27.79 30.6 34.42 28.68 44.81 25.56 55.21 22.43 51.36 24.76 47.55 27.15 45.42 28.53 43.33 29.96 42.57 30.52 41.84 31.11 42.07 31.02 42.38 30.82 43.33 30.09 44.24 29.31 45.52 28.11 46.73 26.83 48.01 25.26 49.14 23.59 50.09 21.77 50.77 19.84" style="fill:none; stroke:#aaa; stroke-miterlimit:10; stroke-width:.5px;"/><polyline points="-28 1.55 -21.12 7.13 -14.62 13.14 -10.42 17.58 -6.49 22.26 -3.97 25.56 -1.51 28.87 .3 31.06 2.4 32.94 4.75 34.05 7.33 34.43 11.37 34.1 15.35 33.28 21.98 31.48 28.56 29.48 38.8 26.23 49.03 22.96 45.38 25.35 41.78 27.8 39.79 29.21 37.86 30.68 37.18 31.24 36.58 31.86 36.91 31.79 37.27 31.57 38.27 30.83 39.24 30.03 40.56 28.8 41.8 27.49 43.11 25.89 44.28 24.19 45.26 22.32 45.98 20.34" style="fill:none; stroke:#aaa; stroke-miterlimit:10; stroke-width:.5px;"/><polyline points="-33.36 1.55 -26.73 7.35 -20.49 13.55 -16.39 18.16 -12.57 23 -10.08 26.42 -7.61 29.85 -5.77 32.12 -3.61 34.07 -1.2 35.22 1.44 35.6 5.52 35.26 9.53 34.4 16.13 32.52 22.67 30.42 32.77 27.03 42.86 23.61 39.4 26.06 36.02 28.57 34.18 30.02 32.41 31.54 31.83 32.11 31.36 32.76 31.79 32.71 32.21 32.47 33.28 31.73 34.29 30.91 35.66 29.65 36.94 28.31 38.29 26.67 39.49 24.92 40.52 23.01 41.28 20.99" style="fill:none; stroke:#aaa; stroke-miterlimit:10; stroke-width:.5px;"/><polyline points="-38.77 1.55 -32.39 7.56 -26.41 13.95 -22.43 18.78 -18.72 23.81 -16.23 27.48 -13.77 31.15 -11.88 33.7 -9.67 35.97 -7.24 37.48 -4.49 38.28 -.39 38.49 3.69 38.11 10.26 36.94 16.77 35.46 26.74 32.96 36.68 30.35 33.45 32.26 30.24 34.18 28.6 35.16 26.96 36.14 26.54 36.37 26.17 36.47 26.68 35.93 27.22 35.4 28.35 34.3 29.46 33.17 30.87 31.62 32.22 30.01 33.61 28.12 34.85 26.14 35.91 24.03 36.7 21.81" style="fill:none; stroke:#aaa; stroke-miterlimit:10; stroke-width:.5px;"/><polyline points="-44.13 1.55 -38 7.76 -32.28 14.33 -28.4 19.37 -24.81 24.59 -22.33 28.49 -19.89 32.39 -17.94 35.24 -15.69 37.84 -13.22 39.73 -10.38 41 -6.29 41.79 -2.13 41.96 4.39 41.57 10.89 40.8 20.71 39.3 30.5 37.62 27.5 38.93 24.48 40.17 23.02 40.68 21.51 41.02 20.99 40.9 20.95 40.4 21.49 39.42 22.16 38.52 23.33 37.06 24.51 35.6 25.96 33.76 27.36 31.87 28.78 29.75 30.07 27.55 31.17 25.25 32.01 22.85" style="fill:none; stroke:#aaa; stroke-miterlimit:10; stroke-width:.5px;"/><polyline points="-49.3 1.55 -43.43 7.92 -37.95 14.63 -34.19 19.82 -30.7 25.17 -28.25 29.24 -25.82 33.31 -23.83 36.34 -21.55 39.15 -19.05 41.29 -16.15 42.83 -12.07 43.97 -7.87 44.47 -1.41 44.55 5.04 44.19 14.69 43.28 24.32 42.13 21.53 43.1 18.7 43.92 17.37 44.18 16.02 44.13 15.57 43.63 15.66 42.94 16.25 41.73 17 40.58 18.2 38.92 19.43 37.26 20.91 35.25 22.34 33.19 23.79 30.93 25.11 28.59 26.24 26.17 27.13 23.65" style="fill:none; stroke:#aaa; stroke-miterlimit:10; stroke-width:.5px;"/><polyline points="-54.16 1.55 -48.52 8 -43.27 14.77 -39.63 20.04 -36.25 25.46 -33.84 29.62 -31.43 33.78 -29.44 36.93 -27.14 39.87 -24.63 42.15 -21.71 43.87 -17.68 45.24 -13.47 45.96 -7.11 46.33 -.74 46.26 8.71 45.73 18.15 44.93 15.53 45.68 12.87 46.23 11.62 46.31 10.43 46 10.08 45.28 10.23 44.45 10.87 43.08 11.67 41.78 12.9 39.99 14.16 38.21 15.65 36.08 17.1 33.92 18.56 31.57 19.9 29.14 21.04 26.65 21.95 24.07" style="fill:none; stroke:#aaa; stroke-miterlimit:10; stroke-width:.5px;"/><polyline points="-58.56 1.55 -53.14 7.97 -48.1 14.69 -44.59 19.94 -41.32 25.34 -38.96 29.5 -36.6 33.66 -34.63 36.84 -32.36 39.81 -29.87 42.15 -26.98 43.96 -23.02 45.43 -18.87 46.26 -12.65 46.8 -6.42 46.89 2.78 46.58 11.97 45.99 9.48 46.61 6.97 47 5.78 46.98 4.71 46.52 4.43 45.67 4.62 44.77 5.3 43.32 6.12 41.95 7.36 40.09 8.63 38.25 10.11 36.08 11.55 33.88 13 31.49 14.33 29.04 15.46 26.54 16.36 23.94" style="fill:none; stroke:#aaa; stroke-miterlimit:10; stroke-width:.5px;"/><polyline points="-62.38 1.55 -57.17 7.8 -52.32 14.33 -48.93 19.45 -45.78 24.7 -43.49 28.76 -41.22 32.81 -39.3 35.92 -37.1 38.82 -34.69 41.11 -31.87 42.89 -28.04 44.35 -24.01 45.19 -18.01 45.76 -11.97 45.88 -3.09 45.63 5.79 45.11 3.4 45.68 .98 46.02 -.16 45.97 -1.16 45.49 -1.41 44.61 -1.2 43.71 -.52 42.26 .3 40.89 1.52 39.04 2.77 37.22 4.22 35.07 5.64 32.9 7.04 30.55 8.33 28.14 9.42 25.68 10.27 23.13" style="fill:none; stroke:#aaa; stroke-miterlimit:10; stroke-width:.5px;"/><polyline points="-65.58 1.55 -60.55 7.47 -55.86 13.67 -52.6 18.51 -49.57 23.49 -47.39 27.32 -45.22 31.14 -43.4 34.06 -41.31 36.79 -39.03 38.92 -36.37 40.56 -32.72 41.87 -28.89 42.6 -23.15 43.05 -17.39 43.07 -8.88 42.71 -.39 42.1 -2.74 42.72 -5.12 43.13 -6.22 43.14 -7.22 42.74 -7.46 41.95 -7.27 41.12 -6.61 39.76 -5.82 38.47 -4.64 36.73 -3.44 34.99 -2.04 32.95 -.7 30.88 .64 28.64 1.84 26.33 2.85 23.98 3.62 21.54" style="fill:none; stroke:#aaa; stroke-miterlimit:10; stroke-width:.5px;"/></svg>