<?xml version="1.0" encoding="UTF-8"?><svg id="Ebene_1" xmlns="http://www.w3.org/2000/svg" viewBox="0 0 222 222"><polyline points="93.35 2.77 105.74 6.48 117.93 10.8 124.78 13.72 131.35 17.2 134.6 19.4 137.55 21.97 138.99 23.54 140.45 25.07 142.09 26.08 143.99 26.5 148.05 26.54 152.1 26.22 160.42 25.28 168.72 24.23 183.25 22.35 197.78 20.49 186.56 23.32 175.33 26.01 170.44 27.05 165.49 27.73 164.18 27.57 163.86 26.45 164.9 24.69 166.01 22.97 167.13 20.63 167.52 18.07 166.38 14.93 163.97 12.57 157.7 9.35 150.94 7.24 137.56 4.59 124.01 2.9 125.32 2.76 126.63 2.61 127.89 2.47 129.14 2.32 130.35 2.16 131.56 2.01 132.71 1.85 133.87 1.7 134.98 1.54 136.09 1.37 137.15 1.21 138.21 1.04 139.23 .88 140.24 .7 141.21 .53 142.18 .36" style="fill:none; stroke:#aaa; stroke-miterlimit:10; stroke-width:.5px;"/><polyline points="87.8 2.77 99.95 6.89 111.86 11.65 118.63 14.91 125.09 18.73 128.36 21.18 131.32 23.98 132.83 25.7 134.39 27.37 136.14 28.44 138.16 28.89 142.32 28.89 146.47 28.51 154.81 27.43 163.15 26.22 177.61 24.09 192.07 21.99 181.2 25.1 170.31 28.1 165.68 29.25 160.98 30.03 159.73 29.82 159.7 28.65 160.88 26.74 162.09 24.84 163.32 22.27 163.8 19.48 162.8 16.1 160.44 13.45 154.33 9.94 147.64 7.63 134.43 4.74 121.03 2.9 122.29 2.75 123.54 2.6 124.75 2.44 125.96 2.29 127.13 2.13 128.29 1.96 129.41 1.8 130.52 1.63 131.6 1.47 132.67 1.29 133.69 1.12 134.72 .95 135.7 .77 136.68 .59 137.63 .41 138.56 .23" style="fill:none; stroke:#aaa; stroke-miterlimit:10; stroke-width:.5px;"/><polyline points="82.25 2.77 94.17 7.31 105.8 12.53 112.49 16.12 118.83 20.29 122.11 22.99 125.09 26.03 126.67 27.91 128.33 29.71 130.19 30.85 132.33 31.32 136.58 31.29 140.83 30.84 149.21 29.6 157.58 28.24 171.97 25.85 186.36 23.49 175.84 26.86 165.29 30.13 160.91 31.36 156.45 32.23 155.29 31.91 155.52 30.74 156.85 28.69 158.17 26.62 159.49 23.84 160.07 20.82 159.21 17.22 156.9 14.3 150.95 10.52 144.33 8.01 131.3 4.89 118.04 2.9 119.24 2.74 120.45 2.58 121.62 2.42 122.78 2.26 123.9 2.09 125.02 1.92 126.09 1.75 127.17 1.58 128.2 1.41 129.24 1.23 130.23 1.05 131.22 .86 132.17 .68 133.12 .49 134.03 .31 134.94 .11" style="fill:none; stroke:#aaa; stroke-miterlimit:10; stroke-width:.5px;"/><polyline points="76.82 2.77 88.5 7.71 99.86 13.35 106.47 17.26 112.69 21.75 115.99 24.69 118.97 27.94 120.62 29.97 122.37 31.9 124.32 33.1 126.57 33.59 130.92 33.52 135.24 33 143.65 31.62 152.04 30.1 166.34 27.47 180.65 24.87 170.46 28.45 160.25 31.94 156.1 33.24 151.88 34.17 150.86 33.73 151.27 32.59 152.73 30.41 154.15 28.19 155.57 25.23 156.23 22.01 155.48 18.22 153.23 15.06 147.44 11.05 140.89 8.35 128.04 5.02 114.93 2.9 116.09 2.74 117.24 2.57 118.36 2.41 119.48 2.24 120.55 2.07 121.63 1.89 122.66 1.72 123.7 1.54 124.69 1.36 125.69 1.18 126.64 .99 127.6 .8 128.52 .62 129.43 .42 130.31 .23 131.19 .03" style="fill:none; stroke:#aaa; stroke-miterlimit:10; stroke-width:.5px;"/><polyline points="71.6 2.77 83.06 8.05 94.16 14.04 100.67 18.23 106.78 22.98 110.08 26.12 113.07 29.55 114.76 31.71 116.6 33.73 118.62 34.99 120.96 35.5 125.37 35.39 129.75 34.81 138.16 33.31 146.54 31.66 160.74 28.81 174.94 26 165.06 29.76 155.16 33.43 151.23 34.78 147.22 35.78 146.37 35.21 146.89 34.11 148.45 31.82 149.95 29.49 151.45 26.37 152.18 22.99 151.53 19.05 149.35 15.69 143.7 11.48 137.23 8.63 124.57 5.14 111.61 2.9 112.72 2.74 113.82 2.57 114.89 2.4 115.96 2.23 116.99 2.06 118.02 1.88 119.01 1.7 120 1.52 120.96 1.34 121.91 1.15 122.83 .97 123.75 .78 124.63 .59 125.51 .39 126.36 .2 127.21 0" style="fill:none; stroke:#aaa; stroke-miterlimit:10; stroke-width:.5px;"/><polyline points="66.69 2.77 77.92 8.3 88.77 14.54 95.19 18.92 101.19 23.86 104.47 27.15 107.45 30.71 109.18 32.96 111.06 35.05 113.14 36.34 115.54 36.86 119.97 36.73 124.38 36.11 132.76 34.51 141.11 32.76 155.16 29.76 169.23 26.8 159.62 30.67 150 34.48 146.25 35.86 142.42 36.9 141.74 36.24 142.31 35.17 143.95 32.82 145.5 30.4 147.05 27.17 147.83 23.68 147.26 19.63 145.13 16.12 139.63 11.79 133.24 8.83 120.77 5.21 107.99 2.9 109.04 2.74 110.09 2.57 111.11 2.4 112.13 2.23 113.11 2.06 114.09 1.89 115.04 1.71 115.98 1.53 116.9 1.35 117.81 1.17 118.69 .98 119.57 .79 120.42 .6 121.26 .41 122.08 .22 122.89 .02" style="fill:none; stroke:#aaa; stroke-miterlimit:10; stroke-width:.5px;"/><polyline points="62.17 2.77 73.19 8.42 83.82 14.77 90.14 19.25 96.03 24.28 99.27 27.64 102.23 31.25 103.97 33.54 105.87 35.67 107.96 36.97 110.37 37.49 114.8 37.34 119.19 36.7 127.49 35.06 135.76 33.26 149.63 30.18 163.52 27.14 154.15 31.06 144.76 34.92 141.15 36.31 137.45 37.37 136.87 36.67 137.47 35.62 139.14 33.24 140.72 30.78 142.29 27.51 143.1 23.97 142.58 19.88 140.5 16.31 135.12 11.92 128.82 8.91 116.56 5.25 103.97 2.9 104.96 2.74 105.96 2.58 106.93 2.42 107.89 2.25 108.82 2.08 109.75 1.91 110.65 1.74 111.55 1.57 112.43 1.39 113.29 1.21 114.13 1.04 114.97 .85 115.79 .67 116.59 .48 117.38 .3 118.15 .11" style="fill:none; stroke:#aaa; stroke-miterlimit:10; stroke-width:.5px;"/><polyline points="58.13 2.77 68.95 8.38 79.38 14.68 85.59 19.13 91.37 24.11 94.57 27.45 97.48 31.03 99.19 33.3 101.07 35.41 103.13 36.7 105.52 37.22 109.88 37.07 114.21 36.42 122.38 34.79 130.51 33 144.15 29.94 157.81 26.92 148.62 30.81 139.42 34.63 135.89 36.01 132.27 37.07 131.72 36.36 132.32 35.33 133.97 32.97 135.54 30.53 137.09 27.29 137.89 23.78 137.39 19.73 135.35 16.19 130.07 11.84 123.89 8.86 111.84 5.23 99.47 2.9 100.42 2.75 101.35 2.6 102.27 2.44 103.17 2.28 104.06 2.13 104.93 1.96 105.79 1.8 106.64 1.64 107.47 1.47 108.29 1.3 109.09 1.13 109.88 .96 110.66 .79 111.42 .61 112.17 .43 112.91 .25" style="fill:none; stroke:#aaa; stroke-miterlimit:10; stroke-width:.5px;"/><polyline points="54.59 2.77 65.22 8.17 75.48 14.25 81.57 18.53 87.25 23.34 90.37 26.55 93.21 30.01 94.87 32.2 96.69 34.24 98.68 35.49 100.99 35.99 105.24 35.86 109.45 35.24 117.43 33.68 125.38 31.96 138.73 29.02 152.1 26.12 143.04 29.88 133.97 33.58 130.46 34.92 126.87 35.93 126.28 35.27 126.84 34.25 128.44 31.97 129.94 29.61 131.44 26.47 132.2 23.09 131.69 19.16 129.68 15.74 124.48 11.54 118.42 8.66 106.6 5.15 94.47 2.9 95.36 2.76 96.23 2.62 97.09 2.48 97.94 2.33 98.77 2.19 99.59 2.04 100.4 1.89 101.2 1.74 101.98 1.58 102.75 1.43 103.51 1.27 104.26 1.11 104.99 .96 105.71 .79 106.42 .63 107.12 .47" style="fill:none; stroke:#aaa; stroke-miterlimit:10; stroke-width:.5px;"/><polyline points="51.49 2.77 61.95 7.81 72.06 13.5 78.02 17.5 83.6 22.01 86.63 25.01 89.38 28.27 90.96 30.32 92.68 32.24 94.57 33.43 96.75 33.91 100.83 33.8 104.88 33.24 112.62 31.79 120.34 30.2 133.36 27.48 146.39 24.78 137.41 28.34 128.42 31.82 124.89 33.1 121.28 34.05 120.58 33.47 121.08 32.47 122.56 30.3 123.97 28.09 125.38 25.13 126.07 21.94 125.52 18.21 123.53 15.01 118.4 11.04 112.47 8.33 100.89 5.02 89.03 2.9 89.85 2.77 90.66 2.65 91.46 2.52 92.25 2.39 93.03 2.26 93.8 2.13 94.55 1.99 95.29 1.86 96.03 1.72 96.75 1.58 97.46 1.45 98.16 1.3 98.85 1.16 99.53 1.02 100.2 .87 100.85 .73" style="fill:none; stroke:#aaa; stroke-miterlimit:10; stroke-width:.5px;"/><polyline points="48.72 2.77 59 7.34 68.98 12.54 74.81 16.16 80.29 20.3 83.22 23.02 85.86 26.01 87.35 27.88 88.93 29.65 90.69 30.75 92.72 31.2 96.6 31.13 100.46 30.64 107.92 29.35 115.37 27.93 128.02 25.48 140.67 23.06 131.75 26.35 122.81 29.56 119.21 30.75 115.54 31.61 114.7 31.16 115.11 30.16 116.44 28.16 117.73 26.12 119.02 23.39 119.63 20.45 119.01 16.99 117.04 14.06 111.96 10.39 106.17 7.9 94.84 4.85 83.26 2.9 84.02 2.79 84.77 2.68 85.51 2.57 86.24 2.46 86.96 2.34 87.67 2.23 88.38 2.11 89.07 1.99 89.75 1.87 90.42 1.76 91.08 1.63 91.73 1.51 92.38 1.39 93.01 1.26 93.64 1.14 94.25 1.01" style="fill:none; stroke:#aaa; stroke-miterlimit:10; stroke-width:.5px;"/><polyline points="46.09 2.77 56.21 6.83 66.06 11.48 71.76 14.69 77.13 18.4 79.95 20.82 82.49 23.52 83.86 25.2 85.31 26.8 86.92 27.81 88.78 28.22 92.44 28.18 96.09 27.77 103.26 26.65 110.42 25.42 122.69 23.27 134.96 21.15 126.07 24.14 117.16 27.05 113.48 28.14 109.75 28.91 108.79 28.6 109.05 27.59 110.22 25.77 111.37 23.94 112.54 21.47 113.05 18.79 112.35 15.62 110.39 13.01 105.36 9.67 99.72 7.43 88.64 4.66 77.35 2.9 78.05 2.81 78.74 2.71 79.42 2.62 80.09 2.52 80.76 2.42 81.41 2.33 82.06 2.23 82.7 2.13 83.33 2.03 83.95 1.92 84.57 1.82 85.17 1.72 85.77 1.61 86.36 1.51 86.94 1.4 87.51 1.29" style="fill:none; stroke:#aaa; stroke-miterlimit:10; stroke-width:.5px;"/><polyline points="43.41 2.77 53.35 6.34 63.08 10.46 68.64 13.28 73.92 16.58 76.62 18.7 79.06 21.11 80.33 22.61 81.64 24.04 83.11 24.96 84.81 25.34 88.26 25.34 91.71 25 98.59 24.04 105.47 22.98 117.36 21.12 129.25 19.28 120.4 21.98 111.52 24.59 107.78 25.58 103.98 26.26 102.96 26.06 103.02 25.08 104.03 23.44 105.06 21.8 106.1 19.58 106.52 17.18 105.75 14.28 103.81 11.98 98.83 8.96 93.33 6.96 82.5 4.48 71.5 2.9 72.14 2.82 72.78 2.74 73.4 2.66 74.02 2.58 74.63 2.5 75.24 2.41 75.83 2.33 76.42 2.25 77.01 2.16 77.58 2.07 78.15 1.99 78.71 1.9 79.26 1.81 79.81 1.72 80.35 1.63 80.88 1.54" style="fill:none; stroke:#aaa; stroke-miterlimit:10; stroke-width:.5px;"/><polyline points="40.48 2.77 50.25 5.93 59.84 9.6 65.26 12.1 70.45 15.05 73.04 16.92 75.39 19.09 76.57 20.43 77.77 21.72 79.12 22.56 80.68 22.91 83.95 22.93 87.21 22.65 93.84 21.83 100.47 20.91 112 19.29 123.54 17.69 114.75 20.1 105.94 22.4 102.15 23.29 98.31 23.88 97.28 23.73 97.15 22.81 98.03 21.33 98.96 19.86 99.89 17.87 100.24 15.72 99.39 13.09 97.48 11.06 92.56 8.34 87.2 6.56 76.62 4.32 65.89 2.9 66.48 2.83 67.06 2.76 67.64 2.7 68.2 2.63 68.77 2.56 69.32 2.49 69.87 2.42 70.42 2.34 70.95 2.27 71.49 2.2 72.01 2.13 72.53 2.05 73.04 1.98 73.55 1.9 74.05 1.83 74.55 1.75" style="fill:none; stroke:#aaa; stroke-miterlimit:10; stroke-width:.5px;"/><polyline points="37.15 2.77 46.74 5.65 56.17 9 61.47 11.27 66.55 13.98 69.06 15.68 71.33 17.68 72.45 18.9 73.57 20.1 74.83 20.88 76.29 21.21 79.42 21.24 82.54 21 88.96 20.27 95.38 19.45 106.6 17.98 117.83 16.54 109.14 18.74 100.44 20.84 96.65 21.65 92.82 22.18 91.79 22.06 91.53 21.19 92.33 19.82 93.18 18.48 94.04 16.66 94.33 14.68 93.45 12.24 91.58 10.4 86.73 7.9 81.5 6.26 71.15 4.21 60.68 2.9 61.21 2.84 61.75 2.78 62.28 2.72 62.8 2.66 63.31 2.6 63.83 2.54 64.33 2.48 64.83 2.42 65.33 2.36 65.82 2.29 66.3 2.23 66.78 2.17 67.25 2.1 67.72 2.04 68.19 1.97 68.65 1.91" style="fill:none; stroke:#aaa; stroke-miterlimit:10; stroke-width:.5px;"/><polyline points="33.34 2.77 42.73 5.51 51.98 8.71 57.16 10.88 62.14 13.46 64.59 15.08 66.81 17 67.88 18.16 68.96 19.31 70.18 20.06 71.58 20.37 74.62 20.41 77.66 20.18 83.92 19.49 90.18 18.72 101.15 17.33 112.12 15.96 103.59 18.06 95.05 20.06 91.31 20.83 87.53 21.34 86.53 21.22 86.23 20.38 86.99 19.07 87.8 17.79 88.63 16.05 88.9 14.16 88.02 11.82 86.19 10.07 81.43 7.68 76.32 6.12 66.19 4.15 55.94 2.9 56.44 2.85 56.93 2.79 57.41 2.74 57.89 2.69 58.36 2.63 58.83 2.58 59.29 2.52 59.75 2.47 60.21 2.41 60.66 2.36 61.11 2.3 61.55 2.25 61.99 2.19 62.42 2.13 62.85 2.07 63.27 2.01" style="fill:none; stroke:#aaa; stroke-miterlimit:10; stroke-width:.5px;"/><polyline points="29.04 2.77 38.23 5.53 47.26 8.74 52.34 10.92 57.21 13.51 59.61 15.15 61.8 17.06 62.87 18.23 63.94 19.38 65.16 20.12 66.56 20.44 69.57 20.47 72.57 20.23 78.73 19.53 84.88 18.74 95.64 17.34 106.41 15.95 98.09 18.06 89.76 20.08 86.14 20.86 82.47 21.37 81.49 21.25 81.26 20.42 82.02 19.1 82.84 17.82 83.67 16.08 83.96 14.18 83.11 11.84 81.33 10.08 76.68 7.68 71.67 6.12 61.75 4.15 51.71 2.9 52.16 2.85 52.61 2.8 53.05 2.75 53.49 2.7 53.92 2.65 54.35 2.6 54.78 2.55 55.2 2.5 55.62 2.45 56.03 2.4 56.44 2.34 56.85 2.29 57.25 2.24 57.65 2.19 58.04 2.13 58.43 2.08" style="fill:none; stroke:#aaa; stroke-miterlimit:10; stroke-width:.5px;"/><polyline points="24.3 2.77 33.27 5.68 42.07 9.06 47.05 11.36 51.81 14.07 54.19 15.8 56.36 17.8 57.45 19.03 58.56 20.22 59.81 20.99 61.26 21.31 64.27 21.32 67.28 21.06 73.39 20.3 79.49 19.45 90.09 17.95 100.7 16.47 92.64 18.69 84.57 20.82 81.11 21.63 77.6 22.18 76.66 22.05 76.56 21.2 77.39 19.84 78.25 18.49 79.11 16.66 79.44 14.68 78.67 12.26 76.93 10.39 72.41 7.89 67.49 6.26 57.77 4.21 47.91 2.9 48.32 2.85 48.73 2.81 49.13 2.76 49.53 2.71 49.93 2.66 50.32 2.61 50.71 2.56 51.1 2.52 51.48 2.47 51.86 2.42 52.23 2.37 52.61 2.32 52.98 2.27 53.34 2.21 53.71 2.16 54.07 2.11" style="fill:none; stroke:#aaa; stroke-miterlimit:10; stroke-width:.5px;"/><polyline points="19.22 2.77 27.96 5.95 36.5 9.61 41.39 12.12 46.04 15.05 48.42 16.95 50.58 19.09 51.71 20.41 52.89 21.69 54.21 22.5 55.73 22.84 58.79 22.82 61.85 22.52 67.94 21.66 74.02 20.71 84.5 19.04 94.99 17.39 87.23 19.79 79.45 22.1 76.19 22.98 72.87 23.6 72 23.41 72.09 22.55 73.01 21.09 73.93 19.64 74.87 17.67 75.26 15.54 74.59 12.98 72.89 10.93 68.51 8.26 63.68 6.49 54.15 4.3 44.46 2.9 44.83 2.85 45.2 2.81 45.57 2.76 45.93 2.71 46.29 2.67 46.65 2.62 47.01 2.57 47.36 2.52 47.71 2.47 48.06 2.42 48.4 2.38 48.74 2.33 49.08 2.28 49.42 2.23 49.75 2.18 50.08 2.13" style="fill:none; stroke:#aaa; stroke-miterlimit:10; stroke-width:.5px;"/><polyline points="13.88 2.77 22.39 6.3 30.67 10.34 35.47 13.14 40.01 16.36 42.4 18.47 44.56 20.8 45.75 22.26 47.01 23.64 48.41 24.51 50.03 24.87 53.17 24.82 56.3 24.45 62.4 23.46 68.49 22.38 78.88 20.48 89.28 18.62 81.84 21.21 74.39 23.72 71.35 24.66 68.26 25.33 67.49 25.03 67.77 24.2 68.81 22.63 69.83 21.04 70.85 18.91 71.32 16.6 70.76 13.87 69.12 11.61 64.9 8.73 60.14 6.8 50.79 4.42 41.25 2.9 41.59 2.85 41.93 2.81 42.26 2.76 42.59 2.71 42.92 2.67 43.25 2.62 43.57 2.57 43.89 2.52 44.21 2.48 44.53 2.43 44.84 2.38 45.15 2.33 45.46 2.28 45.77 2.23 46.07 2.18 46.38 2.13" style="fill:none; stroke:#aaa; stroke-miterlimit:10; stroke-width:.5px;"/><polyline points="8.39 2.77 16.66 6.73 24.67 11.21 29.38 14.35 33.8 17.9 36.21 20.26 38.38 22.81 39.64 24.43 41 25.94 42.5 26.87 44.24 27.25 47.47 27.16 50.69 26.72 56.82 25.58 62.93 24.32 73.25 22.17 83.57 20.05 76.47 22.85 69.36 25.59 66.57 26.6 63.71 27.35 63.17 26.89 63.57 26.11 64.75 24.41 65.87 22.67 66.99 20.35 67.54 17.83 67.11 14.91 65.53 12.39 61.47 9.27 56.78 7.15 47.61 4.56 38.21 2.9 38.52 2.85 38.82 2.81 39.12 2.76 39.42 2.71 39.72 2.67 40.01 2.62 40.3 2.57 40.59 2.53 40.88 2.48 41.17 2.43 41.45 2.38 41.74 2.33 42.02 2.29 42.3 2.24 42.57 2.19 42.85 2.14" style="fill:none; stroke:#aaa; stroke-miterlimit:10; stroke-width:.5px;"/><polyline points="2.83 2.77 10.87 7.19 18.6 12.13 23.23 15.64 27.53 19.54 29.95 22.17 32.15 24.96 33.47 26.74 34.94 28.39 36.55 29.39 38.4 29.79 41.74 29.65 45.05 29.13 51.22 27.82 57.36 26.39 67.61 23.96 77.86 21.55 71.1 24.58 64.34 27.57 61.8 28.63 59.19 29.47 58.92 28.89 59.4 28.12 60.72 26.28 61.95 24.38 63.17 21.86 63.82 19.13 63.5 16 62 13.22 58.1 9.85 53.47 7.52 44.48 4.71 35.23 2.9 35.5 2.85 35.77 2.81 36.04 2.76 36.3 2.72 36.57 2.67 36.83 2.63 37.09 2.58 37.35 2.53 37.61 2.49 37.87 2.44 38.13 2.39 38.38 2.35 38.63 2.3 38.88 2.25 39.13 2.2 39.38 2.16" style="fill:none; stroke:#aaa; stroke-miterlimit:10; stroke-width:.5px;"/><polyline points="-2.67 2.77 5.14 7.64 12.59 13.03 17.13 16.9 21.33 21.14 23.74 24.04 25.97 27.07 27.36 29.01 28.92 30.79 30.63 31.85 32.61 32.27 36.04 32.09 39.43 31.48 45.63 30.01 51.8 28.4 61.97 25.69 72.15 23 65.72 26.24 59.31 29.47 57.01 30.59 54.65 31.51 54.65 30.83 55.2 30.06 56.65 28.09 57.98 26.04 59.3 23.31 60.04 20.38 59.83 17.04 58.41 14.02 54.67 10.42 50.11 7.88 41.31 4.85 32.19 2.9 32.43 2.86 32.66 2.81 32.9 2.77 33.14 2.73 33.37 2.68 33.6 2.64 33.83 2.59 34.06 2.55 34.29 2.5 34.52 2.46 34.74 2.42 34.97 2.37 35.19 2.32 35.42 2.28 35.64 2.23 35.86 2.19" style="fill:none; stroke:#aaa; stroke-miterlimit:10; stroke-width:.5px;"/><polyline points="-8.01 2.77 -.44 8.05 6.74 13.84 11.19 18.04 15.28 22.58 17.7 25.71 19.94 28.96 21.38 31.04 23.04 32.93 24.83 34.05 26.91 34.49 30.42 34.26 33.88 33.58 40.1 31.96 46.28 30.19 56.35 27.22 66.43 24.27 60.33 27.7 54.25 31.14 52.17 32.3 50.04 33.31 50.28 32.55 50.89 31.76 52.46 29.68 53.89 27.49 55.3 24.59 56.11 21.47 55.99 17.96 54.65 14.71 51.06 10.92 46.58 8.19 37.96 4.98 28.99 2.9 29.2 2.86 29.4 2.82 29.61 2.78 29.81 2.74 30.01 2.7 30.21 2.66 30.41 2.62 30.61 2.57 30.81 2.53 31.01 2.49 31.2 2.45 31.4 2.41 31.59 2.37 31.79 2.32 31.98 2.28 32.17 2.24" style="fill:none; stroke:#aaa; stroke-miterlimit:10; stroke-width:.5px;"/><polyline points="-13.1 2.77 -5.76 8.38 1.17 14.49 5.52 18.95 9.51 23.73 11.91 27.05 14.16 30.46 15.64 32.65 17.36 34.64 19.22 35.8 21.38 36.25 24.94 35.99 28.44 35.24 34.65 33.5 40.81 31.59 50.76 28.42 60.73 25.27 54.91 28.83 49.13 32.44 47.25 33.62 45.32 34.71 45.76 33.9 46.42 33.08 48.09 30.91 49.58 28.61 51.06 25.58 51.94 22.33 51.89 18.68 50.63 15.26 47.18 11.31 42.78 8.44 34.36 5.08 25.55 2.9 25.72 2.86 25.89 2.83 26.06 2.79 26.23 2.75 26.41 2.72 26.57 2.68 26.74 2.65 26.91 2.61 27.08 2.57 27.25 2.54 27.41 2.5 27.58 2.46 27.74 2.42 27.91 2.39 28.07 2.35 28.23 2.31" style="fill:none; stroke:#aaa; stroke-miterlimit:10; stroke-width:.5px;"/><polyline points="-17.84 2.77 -10.72 8.59 -4.02 14.89 .22 19.52 4.11 24.45 6.48 27.89 8.72 31.4 10.22 33.66 11.98 35.71 13.87 36.9 16.07 37.35 19.64 37.06 23.15 36.27 29.31 34.45 35.41 32.46 45.21 29.15 55.01 25.86 49.45 29.5 43.94 33.22 42.21 34.41 40.45 35.54 41.02 34.71 41.73 33.87 43.45 31.65 44.99 29.28 46.51 26.17 47.42 22.83 47.43 19.11 46.23 15.58 42.92 11.55 38.61 8.58 30.39 5.14 21.75 2.9 21.89 2.87 22.03 2.84 22.17 2.81 22.32 2.78 22.45 2.74 22.59 2.71 22.73 2.68 22.87 2.65 23.01 2.62 23.15 2.59 23.28 2.56 23.42 2.52 23.56 2.49 23.69 2.46 23.83 2.43 23.96 2.4" style="fill:none; stroke:#aaa; stroke-miterlimit:10; stroke-width:.5px;"/><polyline points="-22.15 2.77 -15.24 8.65 -8.75 14.99 -4.62 19.67 -.83 24.62 1.49 28.09 3.7 31.63 5.2 33.91 6.96 35.96 8.85 37.16 11.04 37.6 14.58 37.3 18.06 36.5 24.11 34.65 30.11 32.63 39.7 29.28 49.3 25.94 43.95 29.6 38.65 33.33 37.02 34.51 35.38 35.65 36.03 34.83 36.75 33.98 38.49 31.75 40.03 29.38 41.55 26.25 42.48 22.9 42.52 19.17 41.37 15.62 38.17 11.59 33.96 8.6 25.95 5.15 17.52 2.9 17.63 2.87 17.74 2.85 17.85 2.82 17.96 2.8 18.07 2.78 18.17 2.75 18.28 2.73 18.39 2.7 18.5 2.68 18.61 2.65 18.71 2.63 18.82 2.6 18.93 2.58 19.03 2.55 19.14 2.52 19.25 2.5" style="fill:none; stroke:#aaa; stroke-miterlimit:10; stroke-width:.5px;"/><polyline points="-25.98 2.77 -19.26 8.54 -12.96 14.75 -8.95 19.34 -5.27 24.2 -3 27.6 -.85 31.07 .61 33.3 2.33 35.32 4.18 36.49 6.32 36.92 9.78 36.63 13.17 35.84 19.07 34.03 24.91 32.03 34.25 28.75 43.59 25.47 38.4 29.05 33.26 32.71 31.69 33.86 30.11 34.99 30.75 34.18 31.47 33.35 33.16 31.17 34.67 28.84 36.16 25.78 37.07 22.5 37.12 18.84 36 15.36 32.9 11.42 28.8 8.48 21.02 5.1 12.81 2.9 12.89 2.88 12.97 2.86 13.05 2.85 13.13 2.83 13.2 2.81 13.28 2.79 13.36 2.77 13.44 2.76 13.52 2.74 13.59 2.72 13.67 2.7 13.75 2.68 13.83 2.67 13.91 2.65 13.98 2.63 14.06 2.61" style="fill:none; stroke:#aaa; stroke-miterlimit:10; stroke-width:.5px;"/><polyline points="-29.37 2.77 -22.84 8.27 -16.7 14.2 -12.81 18.58 -9.23 23.22 -7.04 26.46 -4.97 29.77 -3.57 31.9 -1.93 33.83 -.16 34.95 1.89 35.37 5.21 35.1 8.47 34.35 14.17 32.62 19.81 30.73 28.84 27.6 37.88 24.48 32.8 27.91 27.78 31.41 26.22 32.52 24.65 33.59 25.23 32.81 25.9 32.03 27.52 29.93 28.96 27.71 30.38 24.78 31.24 21.64 31.27 18.14 30.17 14.82 27.15 11.04 23.17 8.24 15.62 5 7.67 2.9 7.72 2.89 7.77 2.88 7.81 2.87 7.86 2.86 7.91 2.84 7.96 2.83 8.01 2.82 8.06 2.81 8.11 2.8 8.16 2.79 8.21 2.78 8.25 2.77 8.3 2.76 8.35 2.75 8.4 2.73 8.45 2.72" style="fill:none; stroke:#aaa; stroke-miterlimit:10; stroke-width:.5px;"/><polyline points="-32.44 2.77 -26.08 7.88 -20.1 13.41 -16.32 17.47 -12.85 21.8 -10.75 24.82 -8.77 27.91 -7.46 29.9 -5.91 31.7 -4.26 32.75 -2.33 33.15 .82 32.91 3.92 32.22 9.37 30.63 14.77 28.88 23.47 25.98 32.17 23.09 27.18 26.31 22.23 29.58 20.65 30.64 19.04 31.63 19.51 30.9 20.12 30.17 21.62 28.21 22.96 26.13 24.29 23.38 25.08 20.44 25.07 17.16 23.99 14.06 21.03 10.5 17.19 7.9 9.87 4.87 2.19 2.9 2.21 2.89 2.23 2.89 2.26 2.89 2.28 2.88 2.3 2.88 2.32 2.87 2.34 2.87 2.36 2.86 2.38 2.86 2.4 2.85 2.42 2.85 2.44 2.85 2.46 2.84 2.48 2.84 2.5 2.83 2.52 2.83" style="fill:none; stroke:#aaa; stroke-miterlimit:10; stroke-width:.5px;"/><polyline points="-35.34 2.77 -29.15 7.42 -23.31 12.49 -19.65 16.19 -16.3 20.17 -14.29 22.92 -12.41 25.76 -11.19 27.58 -9.76 29.24 -8.23 30.21 -6.44 30.58 -3.49 30.37 -.57 29.76 4.62 28.32 9.77 26.74 18.11 24.11 26.46 21.49 21.54 24.47 16.64 27.48 15.03 28.47 13.36 29.37 13.68 28.71 14.22 28.03 15.59 26.22 16.82 24.31 18.04 21.79 18.76 19.08 18.71 16.04 17.64 13.2 14.76 9.91 11.07 7.52 4.02 4.73 -3.35 2.92" style="fill:none; stroke:#aaa; stroke-miterlimit:10; stroke-width:.5px;"/><polyline points="-38.26 2.77 -32.25 6.97 -26.54 11.58 -23.01 14.93 -19.76 18.54 -17.85 21.04 -16.08 23.62 -14.94 25.28 -13.63 26.8 -12.21 27.69 -10.57 28.04 -7.8 27.86 -5.06 27.32 -.13 26.03 4.77 24.61 12.75 22.25 20.75 19.9 15.9 22.63 11.08 25.38 9.41 26.31 7.7 27.12 7.86 26.53 8.33 25.91 9.56 24.27 10.68 22.54 11.8 20.24 12.46 17.77 12.39 14.99 11.36 12.41 8.6 9.39 5.11 7.22 -1.59 4.65 -8.58 2.99" style="fill:none; stroke:#aaa; stroke-miterlimit:10; stroke-width:.5px;"/><polyline points="-41.39 2.77 -35.55 6.59 -30 10.81 -26.59 13.86 -23.45 17.17 -21.62 19.45 -19.94 21.82 -18.87 23.34 -17.67 24.73 -16.35 25.55 -14.83 25.88 -12.22 25.73 -9.64 25.24 -4.94 24.08 -.28 22.8 7.38 20.66 15.04 18.53 10.29 21.05 5.55 23.57 3.87 24.45 2.13 25.19 2.16 24.68 2.58 24.1 3.7 22.59 4.72 21.01 5.75 18.91 6.36 16.65 6.28 14.09 5.3 11.73 2.66 8.95 -.63 6.95 -7.01 4.59 -13.64 3.05" style="fill:none; stroke:#aaa; stroke-miterlimit:10; stroke-width:.5px;"/><polyline points="-44.88 2.77 -39.23 6.34 -33.84 10.29 -30.55 13.13 -27.52 16.24 -25.76 18.37 -24.15 20.59 -23.14 22.01 -22 23.32 -20.76 24.1 -19.33 24.4 -16.84 24.27 -14.38 23.82 -9.88 22.74 -5.41 21.55 1.96 19.55 9.33 17.57 4.71 19.94 .11 22.3 -1.57 23.14 -3.28 23.83 -3.32 23.37 -2.94 22.83 -1.9 21.42 -.94 19.95 .03 17.99 .61 15.87 .54 13.48 -.39 11.26 -2.89 8.65 -6.01 6.78 -12.07 4.55 -18.37 3.11" style="fill:none; stroke:#aaa; stroke-miterlimit:10; stroke-width:.5px;"/><polyline points="-48.82 2.77 -43.37 6.24 -38.18 10.08 -34.99 12.85 -32.07 15.87 -30.37 17.93 -28.81 20.09 -27.83 21.48 -26.72 22.74 -25.51 23.5 -24.12 23.8 -21.7 23.67 -19.31 23.23 -14.96 22.17 -10.63 21.02 -3.51 19.07 3.62 17.14 -.82 19.43 -5.25 21.73 -6.85 22.53 -8.5 23.22 -8.53 22.78 -8.16 22.26 -7.16 20.9 -6.23 19.49 -5.27 17.59 -4.7 15.55 -4.74 13.24 -5.6 11.09 -7.95 8.56 -10.91 6.75 -16.67 4.58 -22.66 3.17" style="fill:none; stroke:#aaa; stroke-miterlimit:10; stroke-width:.5px;"/></svg>