<?xml version="1.0" encoding="UTF-8"?>
<svg id="Ebene_1" xmlns="http://www.w3.org/2000/svg" width="222" height="222" viewBox="0 0 222 222">
  <polyline points="207.64 0 212.98 1.25 218.27 2.7" fill="none" stroke="#aaa" stroke-miterlimit="10" stroke-width=".5"/>
  <polyline points="203.54 0 208.67 1.21 213.75 2.62 216.59 3.58 219.36 4.72" fill="none" stroke="#aaa" stroke-miterlimit="10" stroke-width=".5"/>
  <polyline points="199.03 0 203.93 1.26 208.77 2.73 211.52 3.73 214.17 4.92 215.51 5.67 216.76 6.54 217.41 7.09 218.07 7.6 218.81 7.94 219.63 8.08" fill="none" stroke="#aaa" stroke-miterlimit="10" stroke-width=".5"/>
  <polyline points="194.24 0 198.9 1.38 203.49 2.98 206.13 4.08 208.68 5.36 210 6.19 211.24 7.13 211.92 7.73 212.61 8.28 213.38 8.65 214.22 8.8 215.86 8.81 217.5 8.68" fill="none" stroke="#aaa" stroke-miterlimit="10" stroke-width=".5"/>
  <polyline points="189.3 0 193.72 1.54 198.04 3.31 200.59 4.54 203.02 5.95 204.34 6.88 205.57 7.91 206.28 8.57 207.02 9.18 207.82 9.58 208.7 9.75 210.32 9.76 211.94 9.61 215.01 9.21 218.07 8.76" fill="none" stroke="#aaa" stroke-miterlimit="10" stroke-width=".5"/>
  <polyline points="184.33 0 188.5 1.72 192.56 3.66 195 5.03 197.33 6.57 198.64 7.61 199.86 8.74 200.61 9.47 201.4 10.15 202.23 10.58 203.16 10.78 204.76 10.78 206.37 10.62 209.32 10.18 212.27 9.68" fill="none" stroke="#aaa" stroke-miterlimit="10" stroke-width=".5"/>
  <polyline points="179.42 0 183.35 1.88 187.15 3.98 189.49 5.49 191.7 7.16 193 8.3 194.21 9.52 194.99 10.32 195.82 11.05 196.68 11.52 197.65 11.74 199.24 11.76 200.83 11.58 203.68 11.11 206.52 10.55 211.17 9.6 215.83 8.65" fill="none" stroke="#aaa" stroke-miterlimit="10" stroke-width=".5"/>
  <polyline points="174.62 0 178.31 2.02 181.86 4.25 184.1 5.88 186.2 7.65 187.47 8.89 188.68 10.18 189.47 11.04 190.33 11.82 191.22 12.32 192.21 12.57 193.78 12.59 195.35 12.41 198.09 11.91 200.81 11.32 205.22 10.31 209.63 9.3" fill="none" stroke="#aaa" stroke-miterlimit="10" stroke-width=".5"/>
  <polyline points="169.93 0 173.39 2.14 176.71 4.47 178.83 6.19 180.83 8.05 182.07 9.36 183.25 10.71 184.06 11.62 184.94 12.45 185.84 12.98 186.85 13.25 188.4 13.27 189.95 13.09 192.57 12.57 195.18 11.96 199.35 10.92 203.53 9.85" fill="none" stroke="#aaa" stroke-miterlimit="10" stroke-width=".5"/>
  <polyline points="165.29 0 168.52 2.24 171.6 4.67 173.62 6.47 175.51 8.4 176.71 9.78 177.87 11.19 178.69 12.14 179.59 13.01 180.5 13.57 181.53 13.85 183.05 13.89 184.57 13.7 187.1 13.18 189.6 12.54 193.55 11.47 197.5 10.36" fill="none" stroke="#aaa" stroke-miterlimit="10" stroke-width=".5"/>
  <polyline points="160.58 0 163.58 2.36 166.43 4.89 168.33 6.79 170.12 8.8 171.29 10.25 172.43 11.73 173.25 12.74 174.17 13.65 175.1 14.24 176.15 14.55 177.66 14.6 179.16 14.41 181.59 13.87 184.01 13.21 187.75 12.1 191.49 10.94" fill="none" stroke="#aaa" stroke-miterlimit="10" stroke-width=".5"/>
  <polyline points="155.67 0 158.44 2.5 161.05 5.14 162.84 7.19 164.52 9.32 165.67 10.93 166.79 12.54 167.64 13.72 168.58 14.82 169.53 15.61 170.63 16.17 172.12 16.52 173.65 16.6 176.01 16.44 178.37 16.11 181.93 15.46 185.5 14.73" fill="none" stroke="#aaa" stroke-miterlimit="10" stroke-width=".5"/>
  <polyline points="150.5 0 153.03 2.69 155.4 5.52 157.08 7.75 158.65 10.06 159.78 11.86 160.89 13.67 161.79 15.07 162.77 16.4 163.78 17.45 164.94 18.32 166.45 19.02 168.05 19.46 170.38 19.77 172.73 19.88 176.19 19.82 179.64 19.63" fill="none" stroke="#aaa" stroke-miterlimit="10" stroke-width=".5"/>
  <polyline points="145.1 0 147.38 2.94 149.51 5.99 151.07 8.45 152.54 10.96 153.66 12.98 154.77 14.99 155.72 16.61 156.76 18.16 157.84 19.45 159.1 20.56 160.65 21.54 162.34 22.26 164.67 22.92 167.05 23.35 170.43 23.71 173.82 23.9" fill="none" stroke="#aaa" stroke-miterlimit="10" stroke-width=".5"/>
  <polyline points="139.58 0 141.59 3.23 143.48 6.52 144.92 9.23 146.3 11.97 147.4 14.22 148.52 16.45 149.53 18.3 150.64 20.07 151.82 21.58 153.16 22.94 154.79 24.17 156.58 25.16 158.94 26.11 161.38 26.84 164.7 27.55 168.07 28.08" fill="none" stroke="#aaa" stroke-miterlimit="10" stroke-width=".5"/>
  <polyline points="134.03 0 135.78 3.52 137.44 7.08 138.76 10.05 140.05 13.02 141.13 15.5 142.26 17.96 143.33 20.02 144.52 22.01 145.79 23.75 147.24 25.33 148.96 26.79 150.84 28.03 153.25 29.25 155.76 30.25 159.06 31.27 162.42 32.11" fill="none" stroke="#aaa" stroke-miterlimit="10" stroke-width=".5"/>
  <polyline points="128.57 0 130.06 3.73 131.5 7.47 132.7 10.64 133.9 13.81 134.96 16.5 136.11 19.16 137.23 21.44 138.49 23.64 139.85 25.6 141.41 27.42 143.22 29.12 145.2 30.61 147.67 32.1 150.25 33.37 153.53 34.69 156.89 35.83" fill="none" stroke="#aaa" stroke-miterlimit="10" stroke-width=".5"/>
  <polyline points="123.29 0 124.54 3.83 125.77 7.67 126.84 10.98 127.96 14.28 129 17.14 130.15 19.96 131.32 22.45 132.65 24.85 134.09 27.03 135.73 29.07 137.63 31.01 139.7 32.75 142.21 34.5 144.85 36.03 148.11 37.63 151.47 39.04" fill="none" stroke="#aaa" stroke-miterlimit="10" stroke-width=".5"/>
  <polyline points="118.27 0 119.28 3.85 120.3 7.68 121.26 11.07 122.28 14.44 123.3 17.43 124.45 20.37 125.65 23.03 127.03 25.6 128.55 27.98 130.25 30.22 132.22 32.38 134.36 34.36 136.89 36.34 139.56 38.12 142.78 39.97 146.11 41.62" fill="none" stroke="#aaa" stroke-miterlimit="10" stroke-width=".5"/>
  <polyline points="113.5 0 114.26 3.76 115.1 7.51 115.93 10.9 116.87 14.27 117.86 17.35 118.99 20.37 120.22 23.17 121.63 25.88 123.2 28.44 124.96 30.88 126.96 33.24 129.15 35.44 131.68 37.64 134.36 39.65 137.51 41.71 140.78 43.58" fill="none" stroke="#aaa" stroke-miterlimit="10" stroke-width=".5"/>
  <polyline points="108.9 0 109.45 3.57 110.09 7.12 110.81 10.45 111.66 13.76 112.61 16.88 113.73 19.95 114.98 22.87 116.41 25.71 118.01 28.45 119.81 31.08 121.84 33.65 124.04 36.08 126.56 38.49 129.23 40.73 132.29 42.99 135.47 45.07" fill="none" stroke="#aaa" stroke-miterlimit="10" stroke-width=".5"/>
  <polyline points="104.43 0 104.75 3.21 105.21 6.41 105.81 9.59 106.57 12.75 107.49 15.88 108.58 18.97 109.85 22.02 111.29 25.01 112.93 27.96 114.75 30.81 116.8 33.63 119.02 36.32 121.51 38.98 124.15 41.49 127.1 43.96 130.2 46.25" fill="none" stroke="#aaa" stroke-miterlimit="10" stroke-width=".5"/>
  <polyline points="100.02 0 100.12 2.09 100.39 4.16 100.9 6.82 101.56 9.45 102.48 12.53 103.53 15.56 104.84 18.89 106.29 22.17 107.98 25.61 109.83 28.97 111.91 32.37 114.16 35.65 116.62 38.86 119.26 41.91 122.1 44.77 125.14 47.42" fill="none" stroke="#aaa" stroke-miterlimit="10" stroke-width=".5"/>
  <polyline points="95.62 .02 95.47 2.11 95.58 4.22 95.97 6.91 96.54 9.57 97.41 12.69 98.44 15.76 99.75 19.15 101.21 22.48 102.93 25.97 104.79 29.4 106.87 32.86 109.11 36.21 111.52 39.48 114.1 42.61 116.81 45.54 119.7 48.28" fill="none" stroke="#aaa" stroke-miterlimit="10" stroke-width=".5"/>
  <polyline points="91.23 .03 90.83 2.13 90.78 4.27 91.03 6.99 91.53 9.68 92.35 12.84 93.36 15.95 94.66 19.38 96.13 22.75 97.86 26.3 99.73 29.77 101.81 33.27 104.03 36.67 106.39 39.97 108.9 43.15 111.48 46.09 114.22 48.88" fill="none" stroke="#aaa" stroke-miterlimit="10" stroke-width=".5"/>
  <polyline points="86.83 .04 86.19 2.13 85.97 4.31 86.09 7.06 86.51 9.78 87.28 12.98 88.26 16.12 89.57 19.59 91.04 22.99 92.78 26.57 94.66 30.07 96.73 33.59 98.94 37.02 101.24 40.32 103.68 43.52 106.12 46.43 108.7 49.22" fill="none" stroke="#aaa" stroke-miterlimit="10" stroke-width=".5"/>
  <polyline points="82.47 .04 81.59 2.12 81.19 4.35 81.18 7.12 81.52 9.87 82.24 13.1 83.2 16.27 84.5 19.77 85.97 23.21 87.72 26.81 89.61 30.34 91.67 33.87 93.85 37.33 96.1 40.62 98.46 43.83 100.76 46.72 103.18 49.51" fill="none" stroke="#aaa" stroke-miterlimit="10" stroke-width=".5"/>
  <polyline points="78.17 .05 77.06 2.11 76.49 4.37 76.35 7.15 76.6 9.93 77.26 13.18 78.2 16.37 79.49 19.9 80.97 23.35 82.72 26.96 84.61 30.51 86.65 34.05 88.8 37.51 90.98 40.79 93.26 44.01 95.41 46.86 97.65 49.65" fill="none" stroke="#aaa" stroke-miterlimit="10" stroke-width=".5"/>
  <polyline points="74 .06 72.68 2.07 71.92 4.37 71.65 7.14 71.82 9.93 72.43 13.18 73.33 16.37 74.6 19.89 76.08 23.34 77.82 26.95 79.7 30.49 81.71 34.01 83.83 37.47 85.93 40.72 88.1 43.92 90.09 46.73 92.15 49.5" fill="none" stroke="#aaa" stroke-miterlimit="10" stroke-width=".5"/>
  <polyline points="70.03 .06 68.5 2.02 67.57 4.33 67.17 7.06 67.26 9.82 67.8 13.04 68.66 16.19 69.91 19.68 71.37 23.09 73.09 26.65 74.95 30.16 76.92 33.63 78.97 37.05 80.98 40.26 83.02 43.43 84.84 46.18 86.68 48.93" fill="none" stroke="#aaa" stroke-miterlimit="10" stroke-width=".5"/>
  <polyline points="66.32 .07 64.61 1.95 63.5 4.23 62.97 6.89 62.97 9.6 63.44 12.75 64.26 15.83 65.47 19.23 66.89 22.56 68.58 26.04 70.38 29.47 72.29 32.85 74.25 36.2 76.13 39.31 78.03 42.41 79.64 45.08 81.22 47.77" fill="none" stroke="#aaa" stroke-miterlimit="10" stroke-width=".5"/>
  <polyline points="62.9 .07 61.02 1.86 59.73 4.1 59.08 6.65 58.99 9.29 59.4 12.33 60.17 15.31 61.33 18.6 62.71 21.82 64.34 25.18 66.09 28.48 67.9 31.74 69.76 34.97 71.48 37.95 73.18 40.95 74.56 43.48 75.83 46.07" fill="none" stroke="#aaa" stroke-miterlimit="10" stroke-width=".5"/>
  <polyline points="59.72 .07 57.66 1.77 56.18 3.97 55.42 6.44 55.27 9.01 55.64 11.97 56.39 14.85 57.54 18.05 58.9 21.16 60.5 24.4 62.19 27.59 63.91 30.7 65.64 33.81 67.17 36.63 68.62 39.49 69.68 41.84 70.52 44.27" fill="none" stroke="#aaa" stroke-miterlimit="10" stroke-width=".5"/>
  <polyline points="56.69 .08 54.48 1.65 52.8 3.76 51.93 6.07 51.7 8.53 51.99 11.33 52.68 14.06 53.78 17.08 55.08 20.02 56.6 23.07 58.19 26.08 59.77 29 61.32 31.93 62.63 34.56 63.79 37.24 64.52 39.42 64.9 41.68 64.92 41.66 64.93 41.65 64.95 41.64 64.97 41.62 64.98 41.61 65 41.6 65.01 41.58 65.03 41.57 65.04 41.56 65.06 41.54 65.07 41.53 65.09 41.52 65.1 41.5 65.12 41.49 65.14 41.48 65.15 41.46" fill="none" stroke="#aaa" stroke-miterlimit="10" stroke-width=".5"/>
  <polyline points="53.71 .08 51.37 1.5 49.5 3.49 48.51 5.6 48.16 7.9 48.36 10.49 48.96 13.01 49.96 15.81 51.16 18.53 52.56 21.35 54.02 24.14 55.44 26.84 56.8 29.56 57.89 31.98 58.77 34.47 59.21 36.51 59.19 38.58 59.23 38.55 59.28 38.51 59.32 38.48 59.36 38.45 59.4 38.42 59.44 38.38 59.48 38.35 59.53 38.32 59.57 38.29 59.61 38.26 59.65 38.22 59.69 38.19 59.73 38.16 59.77 38.13 59.82 38.09 59.86 38.06" fill="none" stroke="#aaa" stroke-miterlimit="10" stroke-width=".5"/>
  <polyline points="50.66 .09 48.19 1.38 46.12 3.23 45.03 5.14 44.56 7.3 44.65 9.68 45.17 12.01 46.08 14.6 47.19 17.1 48.47 19.7 49.81 22.28 51.07 24.76 52.26 27.27 53.13 29.5 53.74 31.8 53.89 33.71 53.48 35.58 53.55 35.54 53.61 35.49 53.67 35.45 53.74 35.41 53.8 35.36 53.86 35.32 53.92 35.27 53.99 35.23 54.05 35.19 54.11 35.14 54.17 35.1 54.24 35.06 54.3 35.01 54.36 34.97 54.42 34.93 54.48 34.88" fill="none" stroke="#aaa" stroke-miterlimit="10" stroke-width=".5"/>
  <polyline points="47.43 .09 44.82 1.27 42.56 3 41.36 4.73 40.77 6.76 40.77 8.95 41.22 11.1 42.04 13.47 43.07 15.75 44.26 18.11 45.49 20.45 46.61 22.66 47.63 24.92 48.31 26.87 48.67 28.89 48.53 30.59 47.77 32.1 47.86 32.05 47.94 32 48.03 31.95 48.11 31.9 48.2 31.85 48.29 31.8 48.37 31.75 48.45 31.7 48.54 31.65 48.62 31.61 48.71 31.56 48.79 31.51 48.87 31.46 48.96 31.41 49.04 31.36 49.12 31.31" fill="none" stroke="#aaa" stroke-miterlimit="10" stroke-width=".5"/>
  <polyline points="43.97 .09 41.2 1.19 38.74 2.82 37.43 4.41 36.72 6.34 36.64 8.37 37.02 10.37 37.78 12.56 38.75 14.66 39.86 16.81 41 18.94 42.02 20.9 42.9 22.93 43.42 24.62 43.55 26.37 43.1 27.85 42.06 29 42.16 28.95 42.27 28.9 42.37 28.85 42.48 28.81 42.58 28.76 42.68 28.71 42.78 28.66 42.89 28.61 42.99 28.56 43.09 28.51 43.19 28.46 43.29 28.42 43.39 28.37 43.49 28.32 43.59 28.27 43.68 28.22" fill="none" stroke="#aaa" stroke-miterlimit="10" stroke-width=".5"/>
  <polyline points="40.25 .09 37.32 1.13 34.64 2.7 33.24 4.18 32.41 6.04 32.25 7.95 32.58 9.84 33.29 11.88 34.21 13.84 35.27 15.81 36.36 17.76 37.28 19.51 38.06 21.33 38.44 22.78 38.38 24.27 37.61 25.53 36.35 26.33 36.47 26.28 36.59 26.24 36.7 26.19 36.82 26.15 36.94 26.1 37.05 26.06 37.17 26.01 37.29 25.97 37.4 25.93 37.51 25.88 37.63 25.84 37.74 25.8 37.85 25.75 37.97 25.71 38.08 25.67 38.19 25.62" fill="none" stroke="#aaa" stroke-miterlimit="10" stroke-width=".5"/>
  <polyline points="36.32 .09 33.21 1.09 30.33 2.62 28.82 4.03 27.87 5.84 27.65 7.66 27.94 9.47 28.62 11.4 29.51 13.24 30.53 15.05 31.58 16.85 32.43 18.4 33.13 20.03 33.4 21.26 33.16 22.48 32.07 23.47 30.64 23.94 30.77 23.91 30.9 23.87 31.03 23.83 31.16 23.8 31.29 23.76 31.41 23.72 31.54 23.69 31.67 23.65 31.79 23.61 31.92 23.58 32.04 23.54 32.17 23.51 32.29 23.47 32.41 23.43 32.53 23.4 32.66 23.36" fill="none" stroke="#aaa" stroke-miterlimit="10" stroke-width=".5"/>
  <polyline points="32.24 .09 28.94 1.07 25.85 2.57 24.25 3.93 23.18 5.71 22.9 7.46 23.15 9.21 23.8 11.04 24.68 12.78 25.68 14.45 26.7 16.1 27.5 17.46 28.14 18.88 28.3 19.9 27.91 20.83 26.5 21.47 24.93 21.64 25.07 21.61 25.21 21.58 25.35 21.56 25.49 21.53 25.63 21.5 25.76 21.47 25.9 21.45 26.04 21.42 26.17 21.39 26.31 21.37 26.44 21.34 26.57 21.31 26.71 21.29 26.84 21.26 26.97 21.23 27.1 21.21" fill="none" stroke="#aaa" stroke-miterlimit="10" stroke-width=".5"/>
  <polyline points="28.07 .09 24.57 1.06 21.27 2.55 19.57 3.86 18.38 5.63 18.04 7.31 18.26 9.01 18.9 10.74 19.77 12.37 20.75 13.89 21.76 15.37 22.5 16.51 23.1 17.71 23.17 18.49 22.63 19.04 20.93 19.22 19.22 19.05 19.37 19.04 19.52 19.02 19.67 19.01 19.82 18.99 19.97 18.98 20.11 18.96 20.26 18.95 20.41 18.94 20.55 18.92 20.7 18.91 20.84 18.89 20.98 18.88 21.12 18.86 21.26 18.85 21.4 18.84 21.54 18.82" fill="none" stroke="#aaa" stroke-miterlimit="10" stroke-width=".5"/>
  <polyline points="23.84 .09 20.14 1.05 16.62 2.53 14.83 3.8 13.52 5.55 13.13 7.15 13.32 8.78 13.94 10.38 14.81 11.86 15.77 13.17 16.79 14.42 17.45 15.23 18.04 16.09 17.89 16.53 17.35 16.51 15.41 15.98 13.51 15.31 13.67 15.32 13.83 15.32 14 15.33 14.16 15.33 14.32 15.34 14.48 15.35 14.64 15.35 14.79 15.36 14.95 15.36 15.11 15.37 15.26 15.37 15.42 15.38 15.57 15.38 15.72 15.39 15.87 15.39 16.02 15.4" fill="none" stroke="#aaa" stroke-miterlimit="10" stroke-width=".5"/>
  <polyline points="19.58 .09 15.68 1.05 11.94 2.52 10.06 3.75 8.63 5.46 8.19 6.95 8.35 8.49 8.95 9.91 9.83 11.17 10.76 12.18 11.79 13.08 12.35 13.49 12.96 13.79 12.57 13.29 12.05 12.85 9.96 11.31 7.8 9.86 7.96 9.89 8.13 9.93 8.29 9.96 8.46 10 8.62 10.03 8.78 10.07 8.94 10.1 9.1 10.14 9.26 10.17 9.42 10.21 9.58 10.24 9.74 10.27 9.89 10.31 10.05 10.34 10.2 10.37 10.35 10.41" fill="none" stroke="#aaa" stroke-miterlimit="10" stroke-width=".5"/>
  <polyline points="4.82 11.19 5.75 12.2 6.77 13.1 7.3 13.5 7.87 13.81 7.35 13.32 6.75 12.88" fill="none" stroke="#aaa" stroke-miterlimit="10" stroke-width=".5"/>
  <polyline points="15.28 .09 11.18 1.05 7.23 2.52" fill="none" stroke="#aaa" stroke-miterlimit="10" stroke-width=".5"/>
</svg>