<?xml version="1.0" encoding="UTF-8"?>
<svg id="Ebene_1" xmlns="http://www.w3.org/2000/svg" width="222" height="222" viewBox="0 0 222 222">
  <polyline points="192.14 100.38 192.12 100.38 192.09 100.37 187.41 98.12 182.73 95.87 182.68 95.81 182.68 95.74 184.64 91.04 186.6 86.34 186.66 86.29 186.74 86.29 186.79 86.35 186.79 86.42 184.85 91.07 182.91 95.73 187.53 97.95 192.15 100.17 197.72 99.29 203.29 98.41 208.92 85 214.54 71.59 209.04 72.46 203.53 73.34 203.48 73.33 203.44 73.3 203.41 73.25 203.42 73.2 206.09 66.52 208.76 59.84 203.31 60.7 197.86 61.57 192.78 74.21 187.69 86.85 187.63 86.91 187.55 86.91 187.5 86.85 187.5 86.78 192.59 74.11 197.69 61.43 197.72 61.39 197.77 61.37 203.34 60.49 208.9 59.61 208.96 59.61 209 59.65 209.02 59.7 209.02 59.75 206.35 66.43 203.68 73.1 209.19 72.23 214.69 71.36 214.75 71.36 214.79 71.4 214.81 71.45 214.81 71.5 209.13 85.02 203.46 98.54 203.42 98.58 203.38 98.61 197.77 99.49 192.16 100.38 192.15 100.38 192.14 100.38" fill="none" stroke="#aaa" stroke-miterlimit="10" stroke-width=".5"/>
  <polyline points="214.71 71.56 214.69 71.56 214.67 71.55 210.27 69.44 205.87 67.32 205.82 67.26 205.82 67.19 205.88 67.13 205.96 67.14 210.36 69.25 214.76 71.37 214.81 71.43 214.8 71.51 214.77 71.55 214.71 71.56" fill="none" stroke="#aaa" stroke-miterlimit="10" stroke-width=".5"/>
  <polyline points="192.14 100.38 192.12 100.38 192.1 100.38 192.04 100.32 192.04 100.24 195.18 92.73 198.32 85.22 192.97 86.07 187.61 86.92 187.58 86.92 187.55 86.91 182.86 84.66 178.18 82.4 178.13 82.35 178.13 82.27 183.23 69.6 188.33 56.93 188.36 56.89 188.41 56.87 193.97 55.98 199.54 55.1 199.57 55.1 199.6 55.11 204.28 57.36 208.96 59.62 209.02 59.68 209.01 59.76 208.95 59.81 208.87 59.8 204.21 57.56 199.54 55.31 194.02 56.19 188.5 57.06 183.43 69.66 178.36 82.26 182.98 84.48 187.61 86.71 193.04 85.85 198.47 84.99 198.53 84.99 198.57 85.02 198.59 85.07 198.59 85.13 195.41 92.72 192.23 100.32 192.2 100.37 192.14 100.38" fill="none" stroke="#aaa" stroke-miterlimit="10" stroke-width=".5"/>
  <polyline points="197.79 61.58 197.77 61.57 197.74 61.57 193.06 59.31 188.38 57.06 188.32 57 188.33 56.92 188.39 56.87 188.47 56.88 193.15 59.13 197.83 61.38 197.89 61.44 197.88 61.52 197.84 61.56 197.79 61.58" fill="none" stroke="#aaa" stroke-miterlimit="10" stroke-width=".5"/>
</svg>