<?xml version="1.0" encoding="UTF-8"?><svg id="Ebene_1" xmlns="http://www.w3.org/2000/svg" viewBox="0 0 222 222"><polyline points="226.08 1.25 223.67 3.33 221.25 5.41 220.02 8.47 218.79 11.54 218.52 15.26 218.24 18.99 218.69 23.07 219.13 27.16 220.06 31.28 220.99 35.41 222.16 39.27 223.34 43.13 224.54 46.41 225.73 49.69 226.71 52.08 227.69 54.47" style="fill:none; stroke:#aaa; stroke-miterlimit:10; stroke-width:.5px;"/><polyline points="219.29 1.24 217.09 3.33 214.89 5.43 213.79 8.5 212.69 11.58 212.48 15.33 212.26 19.08 212.72 23.21 213.18 27.34 214.11 31.55 215.03 35.76 216.21 39.74 217.39 43.72 218.61 47.17 219.83 50.62 220.88 53.24 221.93 55.86" style="fill:none; stroke:#aaa; stroke-miterlimit:10; stroke-width:.5px;"/><polyline points="212.88 1.23 210.87 3.32 208.87 5.42 207.88 8.49 206.9 11.56 206.74 15.31 206.59 19.07 207.07 23.21 207.55 27.35 208.47 31.59 209.4 35.83 210.57 39.87 211.74 43.91 212.97 47.46 214.2 51.01 215.29 53.76 216.38 56.52" style="fill:none; stroke:#aaa; stroke-miterlimit:10; stroke-width:.5px;"/><polyline points="206.77 1.23 204.94 3.31 203.1 5.39 202.23 8.44 201.35 11.49 201.25 15.22 201.15 18.96 201.65 23.09 202.16 27.22 203.08 31.46 204 35.7 205.16 39.75 206.32 43.81 207.55 47.4 208.77 50.99 209.88 53.82 210.99 56.66" style="fill:none; stroke:#aaa; stroke-miterlimit:10; stroke-width:.5px;"/><polyline points="200.85 1.22 199.18 3.28 197.51 5.34 196.74 8.36 195.96 11.38 195.92 15.08 195.87 18.78 196.39 22.88 196.91 26.98 197.83 31.2 198.75 35.41 199.9 39.46 201.04 43.51 202.26 47.11 203.48 50.71 204.6 53.58 205.72 56.45" style="fill:none; stroke:#aaa; stroke-miterlimit:10; stroke-width:.5px;"/><polyline points="195.03 1.22 193.52 3.25 192.01 5.29 191.34 8.28 190.66 11.26 190.67 14.93 190.68 18.59 191.22 22.65 191.75 26.71 192.67 30.89 193.58 35.07 194.72 39.1 195.85 43.12 197.06 46.72 198.27 50.31 199.39 53.19 200.51 56.08" style="fill:none; stroke:#aaa; stroke-miterlimit:10; stroke-width:.5px;"/><polyline points="189.24 1.21 187.88 3.22 186.53 5.24 185.96 8.19 185.39 11.15 185.45 14.77 185.51 18.4 186.07 22.42 186.63 26.44 187.54 30.58 188.45 34.73 189.57 38.73 190.7 42.73 191.89 46.31 193.09 49.89 194.21 52.77 195.34 55.66" style="fill:none; stroke:#aaa; stroke-miterlimit:10; stroke-width:.5px;"/><polyline points="183.44 1.21 182.25 3.2 181.05 5.19 180.58 8.12 180.1 11.04 180.22 14.63 180.34 18.22 180.92 22.21 181.5 26.2 182.41 30.31 183.32 34.42 184.44 38.4 185.55 42.37 186.73 45.93 187.92 49.49 189.05 52.38 190.18 55.26" style="fill:none; stroke:#aaa; stroke-miterlimit:10; stroke-width:.5px;"/><polyline points="177.64 1.2 176.6 3.17 175.56 5.15 175.19 8.05 174.82 10.94 174.99 14.5 175.17 18.06 175.77 22.02 176.37 25.97 177.28 30.05 178.19 34.14 179.3 38.09 180.4 42.03 181.58 45.58 182.76 49.12 183.89 52 185.02 54.88" style="fill:none; stroke:#aaa; stroke-miterlimit:10; stroke-width:.5px;"/><polyline points="171.86 1.19 170.98 3.15 170.09 5.1 169.82 7.97 169.55 10.84 169.78 14.37 170.01 17.89 170.64 21.81 171.26 25.73 172.17 29.78 173.09 33.83 174.18 37.75 175.28 41.66 176.45 45.19 177.61 48.71 178.75 51.58 179.88 54.44" style="fill:none; stroke:#aaa; stroke-miterlimit:10; stroke-width:.5px;"/><polyline points="166.16 1.19 165.43 3.12 164.7 5.05 164.52 7.88 164.35 10.71 164.63 14.19 164.92 17.67 165.56 21.54 166.21 25.41 167.12 29.41 168.04 33.41 169.12 37.28 170.2 41.14 171.36 44.63 172.52 48.11 173.65 50.95 174.79 53.79" style="fill:none; stroke:#aaa; stroke-miterlimit:10; stroke-width:.5px;"/><polyline points="160.61 1.18 160.03 3.08 159.45 4.97 159.37 7.75 159.29 10.54 159.62 13.95 159.96 17.37 160.62 21.16 161.28 24.95 162.19 28.87 163.1 32.79 164.16 36.58 165.23 40.37 166.37 43.78 167.51 47.19 168.64 49.96 169.76 52.73" style="fill:none; stroke:#aaa; stroke-miterlimit:10; stroke-width:.5px;"/><polyline points="155.33 1.18 154.89 3.02 154.45 4.86 154.45 7.56 154.45 10.27 154.83 13.58 155.2 16.9 155.87 20.58 156.54 24.26 157.43 28.06 158.32 31.86 159.36 35.54 160.39 39.22 161.5 42.52 162.61 45.82 163.72 48.5 164.83 51.19" style="fill:none; stroke:#aaa; stroke-miterlimit:10; stroke-width:.5px;"/><polyline points="150.37 1.17 150.07 2.94 149.76 4.7 149.83 7.29 149.91 9.88 150.31 13.05 150.71 16.22 151.37 19.74 152.04 23.26 152.89 26.9 153.75 30.53 154.75 34.05 155.74 37.56 156.8 40.72 157.87 43.88 158.94 46.45 160.02 49.02" style="fill:none; stroke:#aaa; stroke-miterlimit:10; stroke-width:.5px;"/><polyline points="145.75 1.17 145.56 2.84 145.38 4.5 145.51 6.93 145.65 9.36 146.07 12.35 146.49 15.33 147.13 18.64 147.77 21.95 148.58 25.37 149.39 28.79 150.33 32.1 151.26 35.41 152.27 38.38 153.27 41.36 154.3 43.78 155.32 46.2" style="fill:none; stroke:#aaa; stroke-miterlimit:10; stroke-width:.5px;"/><polyline points="141.36 1.18 141.28 2.72 141.21 4.26 141.4 6.51 141.59 8.76 142.02 11.52 142.44 14.28 143.05 17.34 143.66 20.41 144.42 23.57 145.17 26.74 146.04 29.81 146.9 32.87 147.84 35.63 148.77 38.4 149.73 40.65 150.69 42.91" style="fill:none; stroke:#aaa; stroke-miterlimit:10; stroke-width:.5px;"/><polyline points="137.05 1.18 137.08 2.59 137.12 3.99 137.36 6.05 137.6 8.1 138.03 10.62 138.45 13.14 139.02 15.93 139.6 18.73 140.29 21.62 140.99 24.52 141.78 27.33 142.57 30.13 143.42 32.67 144.27 35.21 145.16 37.3 146.05 39.39" style="fill:none; stroke:#aaa; stroke-miterlimit:10; stroke-width:.5px;"/><polyline points="132.67 1.19 132.81 2.87 132.95 4.56 133.23 6.65 133.51 8.74 133.92 11.1 134.33 13.47 134.85 15.98 135.37 18.49 135.98 21.01 136.59 23.53 137.28 25.94 137.97 28.35 138.72 30.51 139.47 32.67 140.26 34.46 141.05 36.25" style="fill:none; stroke:#aaa; stroke-miterlimit:10; stroke-width:.5px;"/><polyline points="128.06 1.2 128.31 3.01 128.55 4.82 128.88 6.87 129.21 8.93 129.62 11.13 130.02 13.34 130.5 15.6 130.98 17.87 131.53 20.1 132.08 22.32 132.68 24.42 133.29 26.52 133.94 28.4 134.6 30.28 135.31 31.84 136.01 33.4" style="fill:none; stroke:#aaa; stroke-miterlimit:10; stroke-width:.5px;"/><polyline points="123.09 1.21 124.72 9.11 126.35 17.01 126.84 19.03 127.34 21.04 127.88 22.92 128.43 24.81 129.01 26.49 129.6 28.18 130.23 29.6 130.86 31.01" style="fill:none; stroke:#aaa; stroke-miterlimit:10; stroke-width:.5px;"/><polyline points="117.66 1.22 118.13 3.01 118.6 4.8 120.45 12.43 122.29 20.06 122.79 21.81 123.28 23.55 123.82 25.12 124.35 26.68 124.93 28.02 125.5 29.35" style="fill:none; stroke:#aaa; stroke-miterlimit:10; stroke-width:.5px;"/><polyline points="111.6 1.22 112.2 3.01 112.8 4.81 113.35 6.67 113.89 8.53 115.35 14.08 116.8 19.63 117.27 21.31 117.75 22.99 118.25 24.51 118.76 26.03 119.3 27.34 119.84 28.65" style="fill:none; stroke:#aaa; stroke-miterlimit:10; stroke-width:.5px;"/><polyline points="104.84 1.21 105.58 3.06 106.32 4.9 106.96 6.8 107.61 8.7 108.18 10.61 108.76 12.52 110.26 17.9 111.76 23.27 112.26 24.81 112.75 26.35 113.29 27.68 113.82 29.02" style="fill:none; stroke:#aaa; stroke-miterlimit:10; stroke-width:.5px;"/><polyline points="97.36 1.2 98.26 3.16 99.15 5.11 99.91 7.12 100.68 9.12 101.35 11.14 102.01 13.15 103.66 18.81 105.31 24.48 105.83 26.11 106.35 27.73 106.9 29.16 107.45 30.58" style="fill:none; stroke:#aaa; stroke-miterlimit:10; stroke-width:.5px;"/><polyline points="89.28 1.19 90.35 3.32 91.42 5.46 92.32 7.66 93.23 9.85 94.01 12.05 94.78 14.25 95.46 16.41 96.14 18.58 97.33 22.62 98.51 26.66 99.08 28.44 99.65 30.23 100.25 31.8 100.85 33.37" style="fill:none; stroke:#aaa; stroke-miterlimit:10; stroke-width:.5px;"/><polyline points="80.79 1.16 82.05 3.54 83.3 5.92 84.36 8.36 85.42 10.8 86.33 13.24 87.23 15.69 88 18.1 88.78 20.5 90.12 25 91.46 29.49 92.1 31.48 92.73 33.47 93.4 35.22 94.06 36.97" style="fill:none; stroke:#aaa; stroke-miterlimit:10; stroke-width:.5px;"/><polyline points="72.16 1.14 73.61 3.78 75.06 6.42 76.28 9.13 77.5 11.84 78.53 14.55 79.56 17.27 80.44 19.94 81.32 22.61 82.83 27.61 84.33 32.6 85.04 34.8 85.74 37.01 86.48 38.95 87.22 40.89" style="fill:none; stroke:#aaa; stroke-miterlimit:10; stroke-width:.5px;"/><polyline points="63.68 1.12 65.32 4.01 66.96 6.9 68.34 9.86 69.71 12.83 70.86 15.8 72.02 18.77 73 21.7 73.99 24.62 76.42 32.5 78.86 40.37 79.66 42.5 80.46 44.62" style="fill:none; stroke:#aaa; stroke-miterlimit:10; stroke-width:.5px;"/><polyline points="55.61 1.1 57.43 4.2 59.25 7.29 60.77 10.47 62.29 13.64 63.56 16.82 64.83 20 65.9 23.14 66.98 26.27 69.6 34.69 72.23 43.12 73.08 45.39 73.94 47.66" style="fill:none; stroke:#aaa; stroke-miterlimit:10; stroke-width:.5px;"/><polyline points="48.16 1.09 50.14 4.32 52.12 7.55 53.77 10.86 55.41 14.17 56.78 17.49 58.15 20.81 59.3 24.08 60.45 27.34 63.21 36.13 65.97 44.91 66.86 47.28 67.76 49.65" style="fill:none; stroke:#aaa; stroke-miterlimit:10; stroke-width:.5px;"/><polyline points="41.42 1.08 43.54 4.37 45.66 7.65 47.41 11.02 49.17 14.38 50.61 17.75 52.06 21.13 53.27 24.44 54.48 27.76 57.32 36.67 60.16 45.59 61.06 47.99 61.97 50.39" style="fill:none; stroke:#aaa; stroke-miterlimit:10; stroke-width:.5px;"/><polyline points="35.39 1.08 37.63 4.34 39.87 7.6 41.71 10.94 43.56 14.27 45.06 17.62 46.57 20.96 47.82 24.24 49.07 27.53 51.93 36.36 54.79 45.18 55.69 47.55 56.58 49.93" style="fill:none; stroke:#aaa; stroke-miterlimit:10; stroke-width:.5px;"/><polyline points="29.97 1.09 32.32 4.26 34.67 7.43 36.58 10.67 38.5 13.91 40.06 17.16 41.61 20.41 42.89 23.6 44.16 26.79 45.22 29.85 46.28 32.91 48.06 38.39 49.84 43.88 50.71 46.17 51.57 48.46" style="fill:none; stroke:#aaa; stroke-miterlimit:10; stroke-width:.5px;"/><polyline points="25.03 1.1 27.48 4.14 29.93 7.18 31.91 10.28 33.89 13.39 35.49 16.5 37.08 19.61 38.37 22.65 39.66 25.7 40.71 28.62 41.77 31.54 43.5 36.75 45.23 41.96 46.06 44.12 46.89 46.28" style="fill:none; stroke:#aaa; stroke-miterlimit:10; stroke-width:.5px;"/><polyline points="20.44 1.11 22.99 4 25.55 6.89 27.59 9.83 29.64 12.78 31.27 15.72 32.9 18.66 34.2 21.54 35.49 24.42 36.54 27.17 37.58 29.92 39.25 34.79 40.91 39.66 41.7 41.66 42.49 43.66" style="fill:none; stroke:#aaa; stroke-miterlimit:10; stroke-width:.5px;"/><polyline points="16.08 1.13 18.75 3.86 21.42 6.59 23.54 9.37 25.66 12.15 27.32 14.92 28.99 17.69 30.29 20.39 31.58 23.09 32.61 25.66 33.63 28.23 35.23 32.72 36.82 37.2 37.57 39 38.32 40.8" style="fill:none; stroke:#aaa; stroke-miterlimit:10; stroke-width:.5px;"/><polyline points="11.79 1.15 14.6 3.72 17.42 6.3 19.62 8.92 21.83 11.54 23.53 14.15 25.23 16.75 26.53 19.28 27.83 21.8 28.83 24.19 29.83 26.57 31.35 30.65 32.87 34.74 33.59 36.31 34.31 37.89" style="fill:none; stroke:#aaa; stroke-miterlimit:10; stroke-width:.5px;"/><polyline points="7.41 1.16 10.41 3.58 13.4 5.99 15.72 8.46 18.03 10.93 19.77 13.38 21.52 15.83 22.82 18.19 24.12 20.56 25.09 22.77 26.06 24.97 27.5 28.64 28.95 32.31 29.66 33.63 30.38 34.95" style="fill:none; stroke:#aaa; stroke-miterlimit:10; stroke-width:.5px;"/><polyline points="2.79 1.18 6.03 3.47 9.27 5.77 11.72 8.13 14.16 10.49 15.96 12.82 17.75 15.15 19.05 17.38 20.34 19.61 21.28 21.65 22.21 23.69 22.94 25.46 23.67 27.23 24.33 28.65 25 30.06 25.74 31.04 26.49 32.01" style="fill:none; stroke:#aaa; stroke-miterlimit:10; stroke-width:.5px;"/><polyline points="-2.19 1.19 1.33 3.42 4.85 5.66 7.44 7.96 10.03 10.25 11.88 12.51 13.73 14.76 15.01 16.88 16.3 19 17.2 20.88 18.1 22.77 18.79 24.31 19.49 25.86 20.17 26.98 20.84 28.09 21.68 28.67 22.51 29.26" style="fill:none; stroke:#aaa; stroke-miterlimit:10; stroke-width:.5px;"/><polyline points="-7.61 1.2 -3.88 3.36 -.16 5.53 2.55 7.76 5.26 9.99 7.16 12.18 9.05 14.36 10.34 16.41 11.63 18.45 12.52 20.26 13.4 22.06 14.08 23.52 14.76 24.98 15.44 26 16.12 27.02 17 27.49 17.88 27.97" style="fill:none; stroke:#aaa; stroke-miterlimit:10; stroke-width:.5px;"/><polyline points="-13.52 1.2 -9.59 3.35 -5.67 5.5 -2.83 7.72 0 9.93 1.96 12.1 3.92 14.27 5.23 16.29 6.54 18.31 8.1 21.51 9.66 24.7 10.36 25.66 11.05 26.63 11.99 27.03 12.92 27.44" style="fill:none; stroke:#aaa; stroke-miterlimit:10; stroke-width:.5px;"/><polyline points="-19.92 1.2 -15.79 3.39 -11.65 5.58 -8.69 7.84 -5.72 10.09 -3.69 12.3 -1.65 14.51 -.3 16.56 1.04 18.62 2.63 21.84 4.22 25.05 4.95 26 5.67 26.95 6.67 27.31 7.67 27.68" style="fill:none; stroke:#aaa; stroke-miterlimit:10; stroke-width:.5px;"/><polyline points="-26.76 1.19 -22.42 3.47 -18.08 5.76 -14.98 8.1 -11.87 10.45 -9.75 12.75 -7.63 15.04 -6.23 17.18 -4.83 19.31 -3.17 22.64 -1.52 25.97 -.76 26.94 0 27.9 1.06 28.25 2.12 28.61" style="fill:none; stroke:#aaa; stroke-miterlimit:10; stroke-width:.5px;"/></svg>