<?xml version="1.0" encoding="UTF-8"?>
<svg id="Ebene_1" xmlns="http://www.w3.org/2000/svg" width="222" height="222" viewBox="0 0 222 222">
  <polyline points="128.57 201.49 128.57 207.16 128.57 212.84 144.43 210.4 160.29 207.96 160.29 190.52 160.29 173.07 155.14 173.86 149.99 174.65 149.99 180.61 149.99 186.57 149.96 186.64 149.9 186.67 144.68 187.47 139.46 188.27 139.46 194 139.46 199.74 139.43 199.8 139.37 199.84 133.97 200.66 128.57 201.49" fill="none" stroke="#aaa" stroke-miterlimit="10" stroke-width=".5"/>
  <polyline points="128.46 213.06 128.43 213.06 128.4 213.04 128.37 213 128.36 212.96 128.36 207.18 128.36 201.4 128.39 201.33 128.45 201.3 133.85 200.47 139.25 199.65 139.25 193.91 139.25 188.18 139.28 188.11 139.34 188.08 144.56 187.28 149.78 186.48 149.78 180.52 149.78 174.56 149.81 174.49 149.87 174.46 155.12 173.65 160.38 172.85 160.42 172.85 160.46 172.87 160.49 172.91 160.5 172.95 160.5 190.5 160.5 208.05 160.47 208.12 160.41 208.15 144.44 210.61 128.48 213.06 128.47 213.06 128.46 213.06" fill="none" stroke="#aaa" stroke-miterlimit="10" stroke-width=".5"/>
  <polyline points="149.89 186.67 149.86 186.67 149.84 186.66 144.97 184.23 140.1 181.79 140.06 181.75 140.04 181.7 140.04 175.69 140.04 169.68 140.07 169.61 140.13 169.57 145.39 168.78 150.64 167.99 150.67 167.99 150.7 168 155.57 170.43 160.44 172.86 160.49 172.92 160.48 173 160.42 173.05 160.35 173.05 155.49 170.62 150.64 168.2 145.45 168.98 140.25 169.77 140.25 175.7 140.25 181.64 145.09 184.06 149.93 186.48 149.98 186.54 149.98 186.62 149.94 186.66 149.89 186.67" fill="none" stroke="#aaa" stroke-miterlimit="10" stroke-width=".5"/>
  <polyline points="149.89 174.66 149.86 174.66 149.84 174.65 144.97 172.21 140.1 169.77 140.05 169.71 140.05 169.63 140.11 169.58 140.19 169.58 145.06 172.02 149.93 174.47 149.98 174.53 149.98 174.6 149.94 174.65 149.89 174.66" fill="none" stroke="#aaa" stroke-miterlimit="10" stroke-width=".5"/>
  <polyline points="139.35 188.28 139.33 188.28 139.31 188.27 134.44 185.83 129.57 183.39 129.52 183.34 129.51 183.28 129.54 183.22 129.6 183.19 134.87 182.4 140.13 181.6 140.21 181.62 140.25 181.68 140.23 181.76 140.16 181.8 135.06 182.58 129.95 183.35 134.68 185.72 139.4 188.09 139.45 188.15 139.45 188.22 139.41 188.27 139.35 188.28" fill="none" stroke="#aaa" stroke-miterlimit="10" stroke-width=".5"/>
  <polyline points="139.35 199.84 139.33 199.84 139.31 199.83 134.44 197.39 129.56 194.96 129.52 194.92 129.51 194.86 129.51 189.08 129.51 183.3 129.54 183.22 129.62 183.19 129.69 183.22 129.72 183.3 129.72 189.05 129.71 194.8 134.56 197.22 139.4 199.64 139.45 199.7 139.45 199.78 139.41 199.82 139.35 199.84" fill="none" stroke="#aaa" stroke-miterlimit="10" stroke-width=".5"/>
  <polyline points="128.46 201.5 128.44 201.5 128.42 201.49 123.55 199.05 118.68 196.61 118.63 196.57 118.62 196.5 118.65 196.45 118.71 196.42 124.15 195.59 129.6 194.76 129.67 194.78 129.71 194.85 129.69 194.93 129.63 194.97 124.34 195.77 119.06 196.57 123.79 198.94 128.51 201.31 128.56 201.37 128.56 201.45 128.52 201.49 128.46 201.5" fill="none" stroke="#aaa" stroke-miterlimit="10" stroke-width=".5"/>
  <polyline points="128.46 213.06 128.44 213.06 128.42 213.05 123.54 210.61 118.66 208.17 118.62 208.13 118.6 208.08 118.61 202.3 118.62 196.52 118.65 196.45 118.73 196.41 118.8 196.45 118.83 196.52 118.82 202.27 118.81 208.01 123.66 210.44 128.51 212.87 128.56 212.93 128.56 213.01 128.52 213.05 128.46 213.06" fill="none" stroke="#aaa" stroke-miterlimit="10" stroke-width=".5"/>
</svg>