<?xml version="1.0" encoding="UTF-8"?>
<svg id="Ebene_1" xmlns="http://www.w3.org/2000/svg" width="222" height="222" viewBox="0 0 222 222">
  <polyline points="215.88 7.07 216.73 7.31 217.58 7.55 218.38 7.78 219.19 8 219.95 8.22 220.71 8.43" fill="none" stroke="#aaa" stroke-miterlimit="10" stroke-width=".5"/>
  <polyline points="218.99 13.26 215.32 10.45 211.62 7.66 212.47 7.94 213.33 8.22 214.14 8.49 214.95 8.75 215.72 9 216.49 9.25 217.21 9.49 217.93 9.72 218.62 9.95 219.3 10.17 219.94 10.38 220.58 10.59" fill="none" stroke="#aaa" stroke-miterlimit="10" stroke-width=".5"/>
  <polyline points="221.05 5.93 220.4 7.74 220.32 9.66" fill="none" stroke="#aaa" stroke-miterlimit="10" stroke-width=".5"/>
  <polyline points="218.75 2.74 216.68 4.35 215.2 6.49 214.64 8.51 214.64 10.61 215.03 12.49 215.68 14.29 216.25 15.52 216.88 16.71 217.07 17.1 216.83 17.06 215.48 15.8 214.13 14.53 210.76 11.39 207.35 8.29 208.21 8.62 209.08 8.94 209.9 9.25 210.71 9.56 211.49 9.85 212.26 10.14 212.99 10.41 213.72 10.69 214.4 10.95 215.09 11.2 215.73 11.44 216.37 11.68 216.98 11.91 217.58 12.13 218.14 12.34 218.71 12.55" fill="none" stroke="#aaa" stroke-miterlimit="10" stroke-width=".5"/>
  <polyline points="220.14 .18 216.26 1.17 212.67 2.93 210.72 4.69 209.41 6.95 208.95 9.14 209.02 11.38 209.46 13.39 210.16 15.33 210.77 16.65 211.47 17.93 211.7 18.31 211.63 18.3 210.47 16.94 209.28 15.58 206.21 12.2 203.08 8.87 203.95 9.25 204.82 9.62 205.65 9.97 206.47 10.33 207.25 10.66 208.03 10.99 208.76 11.3 209.49 11.61 210.18 11.91 210.86 12.2 211.51 12.47 212.15 12.74 212.76 13 213.36 13.25 213.92 13.49 214.49 13.72" fill="none" stroke="#aaa" stroke-miterlimit="10" stroke-width=".5"/>
  <polyline points="213.72 .18 210.06 1.24 206.73 3.09 204.9 4.98 203.75 7.34 203.37 9.66 203.51 12.01 203.99 14.14 204.73 16.19 205.38 17.59 206.14 18.94 206.4 19.33 206.47 19.33 205.5 17.87 204.45 16.45 201.67 12.87 198.81 9.36 199.67 9.77 200.54 10.19 201.36 10.58 202.17 10.97 202.94 11.33 203.71 11.7 204.44 12.05 205.16 12.39 205.84 12.71 206.52 13.03 207.16 13.34 207.8 13.64 208.4 13.91 208.99 14.19 209.55 14.45 210.11 14.71" fill="none" stroke="#aaa" stroke-miterlimit="10" stroke-width=".5"/>
  <polyline points="207.45 .18 204 1.3 200.93 3.21 199.23 5.21 198.21 7.64 197.91 10.07 198.1 12.52 198.62 14.73 199.4 16.87 200.08 18.34 200.89 19.74 201.19 20.15 201.38 20.15 200.57 18.61 199.66 17.14 197.16 13.4 194.54 9.74 195.39 10.19 196.24 10.64 197.04 11.06 197.84 11.48 198.6 11.88 199.35 12.27 200.06 12.64 200.77 13.02 201.44 13.36 202.11 13.71 202.73 14.03 203.36 14.36 203.94 14.66 204.53 14.95 205.08 15.23 205.63 15.51" fill="none" stroke="#aaa" stroke-miterlimit="10" stroke-width=".5"/>
  <polyline points="201.24 .18 198 1.35 195.18 3.31 193.61 5.42 192.73 7.9 192.5 10.43 192.75 12.95 193.3 15.25 194.1 17.46 194.81 18.99 195.66 20.43 196.01 20.87 196.3 20.86 195.67 19.26 194.88 17.74 192.64 13.87 190.27 10.07 191.1 10.55 191.92 11.03 192.7 11.48 193.48 11.93 194.22 12.35 194.96 12.77 195.65 13.17 196.34 13.56 196.99 13.93 197.64 14.3 198.25 14.64 198.86 14.99 199.44 15.3 200.01 15.62 200.54 15.92 201.08 16.21" fill="none" stroke="#aaa" stroke-miterlimit="10" stroke-width=".5"/>
  <polyline points="194.94 .18 191.91 1.41 189.36 3.44 187.92 5.66 187.17 8.21 187.02 10.84 187.32 13.46 187.92 15.84 188.75 18.14 189.5 19.73 190.4 21.23 190.79 21.7 191.19 21.67 190.74 20.01 190.08 18.42 188.12 14.4 186 10.46 186.8 10.96 187.6 11.47 188.36 11.95 189.12 12.43 189.83 12.88 190.55 13.33 191.22 13.75 191.89 14.17 192.52 14.56 193.16 14.96 193.75 15.32 194.35 15.69 194.9 16.03 195.46 16.36 195.98 16.67 196.51 16.98" fill="none" stroke="#aaa" stroke-miterlimit="10" stroke-width=".5"/>
  <polyline points="188.39 .18 185.57 1.5 183.3 3.62 182.01 6.04 181.4 8.73 181.35 11.61 181.72 14.48 182.37 17.19 183.25 19.84 184.06 21.85 185 23.79 185.45 24.59 185.99 25.3 185.69 24.31 185.23 23.34 183.53 20.08 181.73 16.88 182.55 17.3 183.36 17.72 184.13 18.11 184.9 18.5 185.63 18.87 186.35 19.23 187.03 19.57 187.71 19.9 188.35 20.2 188.99 20.51 189.59 20.79 190.19 21.06 190.75 21.31 191.32 21.56 191.84 21.79 192.37 22.01" fill="none" stroke="#aaa" stroke-miterlimit="10" stroke-width=".5"/>
  <polyline points="181.48 .17 178.88 1.64 176.91 3.87 175.79 6.56 175.35 9.44 175.4 12.66 175.85 15.86 176.58 19 177.52 22.08 178.43 24.6 179.43 27.09 180.04 28.47 180.67 29.85 180.61 29.84 180.32 29.34 178.9 26.92 177.46 24.52 178.29 24.83 179.12 25.13 179.9 25.41 180.69 25.68 181.42 25.94 182.16 26.18 182.85 26.4 183.54 26.62 184.18 26.82 184.83 27 185.44 27.17 186.05 27.33 186.61 27.48 187.18 27.61 187.71 27.73 188.24 27.84" fill="none" stroke="#aaa" stroke-miterlimit="10" stroke-width=".5"/>
  <polyline points="174.26 .17 171.89 1.81 170.25 4.19 169.33 7.17 169.04 10.29 169.22 13.86 169.77 17.39 170.59 20.93 171.61 24.42 172.61 27.38 173.71 30.3 174.46 32.13 175.24 33.95 175.46 34.46 175.35 34.29 174.28 32.28 173.19 30.27 174.02 30.52 174.85 30.76 175.63 30.98 176.41 31.19 177.15 31.38 177.88 31.57 178.57 31.73 179.27 31.88 179.91 32.02 180.56 32.15 181.17 32.25 181.78 32.35 182.35 32.43 182.92 32.5 183.45 32.56 183.99 32.6" fill="none" stroke="#aaa" stroke-miterlimit="10" stroke-width=".5"/>
  <polyline points="166.87 .16 164.75 2.03 163.43 4.54 162.72 7.84 162.59 11.22 162.91 15.16 163.56 19.05 164.48 23 165.59 26.89 166.69 30.27 167.9 33.6 168.79 35.83 169.74 38.03 170.06 38.68 170.34 39.04 169.67 37.25 168.92 35.48 169.74 35.69 170.56 35.9 171.33 36.08 172.1 36.25 172.82 36.4 173.55 36.55 174.24 36.67 174.92 36.78 175.57 36.88 176.21 36.96 176.82 37.03 177.42 37.08 177.99 37.12 178.56 37.15 179.1 37.16 179.63 37.16" fill="none" stroke="#aaa" stroke-miterlimit="10" stroke-width=".5"/>
  <polyline points="159.44 .14 157.6 2.26 156.59 4.9 156.08 8.51 156.11 12.17 156.57 16.47 157.33 20.73 158.35 25.07 159.55 29.36 160.75 33.13 162.08 36.85 163.11 39.44 164.24 41.97 164.7 42.86 165.32 43.51 165.1 41.87 164.65 40.25 165.44 40.44 166.23 40.61 166.97 40.77 167.72 40.91 168.42 41.04 169.13 41.15 169.79 41.25 170.46 41.33 171.09 41.4 171.72 41.46 172.32 41.5 172.91 41.52 173.47 41.53 174.04 41.53 174.56 41.52 175.09 41.49" fill="none" stroke="#aaa" stroke-miterlimit="10" stroke-width=".5"/>
  <polyline points="152.14 .13 150.59 2.48 149.85 5.23 149.55 9.13 149.73 13.05 150.32 17.69 151.18 22.28 152.29 26.99 153.58 31.64 154.88 35.76 156.32 39.83 157.47 42.74 158.77 45.56 159.42 46.69 160.34 47.53 160.57 46.03 160.39 44.46 161.13 44.62 161.88 44.78 162.58 44.91 163.29 45.04 163.97 45.15 164.64 45.24 165.28 45.32 165.92 45.39 166.53 45.44 167.13 45.48 167.71 45.5 168.29 45.51 168.84 45.51 169.38 45.49 169.9 45.46 170.41 45.41" fill="none" stroke="#aaa" stroke-miterlimit="10" stroke-width=".5"/>
  <polyline points="145.08 .11 143.83 2.67 143.33 5.51 143.24 9.64 143.55 13.78 144.26 18.69 145.21 23.57 146.4 28.57 147.77 33.53 149.14 37.94 150.68 42.29 151.94 45.46 153.4 48.52 154.22 49.87 155.39 50.85 156.06 49.52 156.12 47.93 156.8 48.08 157.49 48.22 158.15 48.34 158.81 48.45 159.45 48.55 160.07 48.63 160.68 48.69 161.27 48.75 161.85 48.79 162.41 48.82 162.97 48.83 163.51 48.83 164.03 48.82 164.55 48.8 165.05 48.76 165.54 48.71" fill="none" stroke="#aaa" stroke-miterlimit="10" stroke-width=".5"/>
  <polyline points="138.36 .09 137.41 2.81 137.12 5.7 137.21 10 137.65 14.28 138.46 19.38 139.48 24.45 140.73 29.64 142.16 34.79 143.59 39.39 145.2 43.93 146.55 47.25 148.14 50.46 149.12 51.94 150.51 52.98 151.54 51.77 151.85 50.09 152.48 50.24 153.09 50.38 153.69 50.5 154.28 50.6 154.86 50.7 155.43 50.78 155.99 50.85 156.53 50.91 157.06 50.95 157.58 50.99 158.1 51.01 158.6 51.02 159.09 51.01 159.56 51 160.03 50.97 160.49 50.93" fill="none" stroke="#aaa" stroke-miterlimit="10" stroke-width=".5"/>
  <polyline points="131.96 .07 131.31 2.9 131.2 5.82 131.46 10.23 132.01 14.61 132.9 19.83 133.99 25.02 135.28 30.34 136.75 35.61 138.22 40.33 139.88 44.98 141.3 48.4 143 51.69 144.12 53.27 145.69 54.31 147.02 53.19 147.58 51.43 148.13 51.57 148.67 51.7 149.21 51.82 149.73 51.93 150.25 52.03 150.75 52.11 151.25 52.18 151.74 52.25 152.22 52.3 152.69 52.34 153.15 52.37 153.6 52.39 154.05 52.4 154.49 52.4 154.91 52.39 155.34 52.37" fill="none" stroke="#aaa" stroke-miterlimit="10" stroke-width=".5"/>
  <polyline points="125.81 .05 125.45 2.95 125.51 5.89 125.93 10.36 126.57 14.81 127.54 20.1 128.68 25.36 130 30.76 131.49 36.11 132.99 40.9 134.69 45.62 136.17 49.11 137.94 52.44 139.19 54.1 140.93 55.14 142.51 54.09 143.31 52.27 143.78 52.4 144.25 52.53 144.7 52.64 145.15 52.74 145.6 52.84 146.03 52.92 146.46 53 146.89 53.06 147.3 53.12 147.71 53.17 148.12 53.21 148.52 53.24 148.91 53.26 149.29 53.28 149.67 53.28 150.05 53.28" fill="none" stroke="#aaa" stroke-miterlimit="10" stroke-width=".5"/>
  <polyline points="119.82 .03 119.75 2.98 119.96 5.93 120.53 10.44 121.27 14.93 122.3 20.26 123.48 25.57 124.83 31.01 126.33 36.41 127.85 41.25 129.57 46.01 131.1 49.54 132.94 52.9 134.31 54.62 136.19 55.65 137.99 54.66 139.04 52.8 139.43 52.91 139.81 53.02 140.18 53.13 140.55 53.22 140.92 53.31 141.28 53.39 141.64 53.46 141.99 53.53 142.34 53.59 142.68 53.64 143.02 53.69 143.36 53.73 143.69 53.76 144.02 53.79 144.34 53.8 144.66 53.82" fill="none" stroke="#aaa" stroke-miterlimit="10" stroke-width=".5"/>
  <polyline points="113.92 0 114.11 3.29 114.49 6.58 115.2 11.26 116.03 15.93 117.12 21.32 118.33 26.69 119.7 32.09 121.22 37.46 122.75 42.21 124.5 46.88 126.06 50.31 127.97 53.55 129.46 55.21 131.46 56.1 133.48 55.09 134.77 53.16 135.06 53.25 135.34 53.34 135.62 53.42 135.9 53.5 136.18 53.58 136.45 53.65 136.72 53.71 136.99 53.78 137.26 53.83 137.52 53.89 137.78 53.93 138.04 53.98 138.29 54.02 138.55 54.05 138.8 54.08 139.05 54.11" fill="none" stroke="#aaa" stroke-miterlimit="10" stroke-width=".5"/>
  <polyline points="108.04 0 108.48 4.26 109.05 8.5 109.87 13.66 110.81 18.8 111.94 24.28 113.21 29.73 114.58 34.96 116.13 40.14 117.65 44.56 119.44 48.88 121.02 51.96 123.01 54.78 124.66 56.2 126.74 56.69 128.95 55.49 130.5 53.45 130.68 53.52 130.85 53.58 131.02 53.63 131.2 53.69 131.37 53.74 131.54 53.8 131.71 53.85 131.88 53.89 132.05 53.94 132.21 53.98 132.38 54.03 132.54 54.07 132.71 54.1 132.87 54.14 133.03 54.18 133.19 54.21" fill="none" stroke="#aaa" stroke-miterlimit="10" stroke-width=".5"/>
  <polyline points="102.16 0 102.85 4.69 103.6 9.37 104.55 14.74 105.6 20.1 106.78 25.64 108.09 31.15 109.47 36.32 111.04 41.44 112.57 45.73 114.38 49.91 116 52.86 118.06 55.5 119.86 56.8 122.03 57.13 124.44 55.85 126.23 53.75 126.32 53.78 126.4 53.81 126.48 53.84 126.56 53.87 126.64 53.9 126.73 53.93 126.81 53.96 126.89 53.99 126.97 54.01 127.05 54.04 127.13 54.07 127.21 54.09 127.29 54.12 127.37 54.14 127.45 54.17 127.53 54.19" fill="none" stroke="#aaa" stroke-miterlimit="10" stroke-width=".5"/>
  <polyline points="96.29 0 97.21 4.98 98.15 9.96 99.23 15.48 100.37 21 101.61 26.57 102.96 32.12 104.35 37.26 105.92 42.34 107.46 46.55 109.28 50.64 110.94 53.51 113.06 56.04 114.99 57.3 117.26 57.54 119.86 56.25 121.89 54.13" fill="none" stroke="#aaa" stroke-miterlimit="10" stroke-width=".5"/>
  <polyline points="90.44 0 91.58 5.05 92.67 10.1 93.84 15.58 95.04 21.05 96.28 26.52 97.62 31.97 98.97 37 100.48 41.99 101.97 46.17 103.72 50.23 105.34 53.19 107.4 55.84 109.29 57.32 111.59 57.94 114.19 57.26 116.38 55.66" fill="none" stroke="#aaa" stroke-miterlimit="10" stroke-width=".5"/>
  <polyline points="84.69 0 86.02 5.07 87.26 10.15 88.53 15.56 89.78 20.97 91.04 26.33 92.36 31.67 93.68 36.61 95.15 41.5 96.58 45.65 98.26 49.69 99.84 52.7 101.82 55.45 103.67 57.1 105.96 58.03 108.51 57.82 110.81 56.65" fill="none" stroke="#aaa" stroke-miterlimit="10" stroke-width=".5"/>
  <polyline points="79.11 0 80.62 5.03 82 10.1 83.35 15.41 84.65 20.73 85.93 25.96 87.25 31.19 88.54 36.01 89.95 40.8 91.32 44.88 92.93 48.88 94.46 51.92 96.36 54.74 98.16 56.52 100.4 57.69 102.87 57.84 105.23 57.06" fill="none" stroke="#aaa" stroke-miterlimit="10" stroke-width=".5"/>
  <polyline points="73.79 0 75.46 4.94 76.97 9.93 78.39 15.09 79.75 20.27 81.04 25.34 82.34 30.41 83.59 35.09 84.95 39.74 86.26 43.73 87.78 47.64 89.24 50.68 91.05 53.52 92.78 55.4 94.94 56.76 97.31 57.2 99.68 56.75" fill="none" stroke="#aaa" stroke-miterlimit="10" stroke-width=".5"/>
  <polyline points="68.83 .01 70.63 4.78 72.25 9.62 73.74 14.57 75.13 19.54 76.42 24.39 77.7 29.24 78.91 33.71 80.2 38.16 81.44 42 82.86 45.77 84.24 48.73 85.92 51.53 87.56 53.44 89.61 54.9 91.85 55.53 94.17 55.34" fill="none" stroke="#aaa" stroke-miterlimit="10" stroke-width=".5"/>
  <polyline points="64.25 .02 66.16 4.54 67.87 9.15 69.4 13.8 70.82 18.5 72.1 23.04 73.35 27.6 74.5 31.8 75.71 35.98 76.87 39.6 78.18 43.17 79.44 46 80.99 48.69 82.5 50.57 84.4 52.07 86.47 52.81 88.67 52.83" fill="none" stroke="#aaa" stroke-miterlimit="10" stroke-width=".5"/>
  <polyline points="59.99 .04 62 4.21 63.78 8.48 65.35 12.77 66.78 17.12 68.04 21.31 69.25 25.52 70.35 29.4 71.48 33.27 72.54 36.64 73.73 39.96 74.87 42.63 76.27 45.17 77.65 47 79.37 48.49 81.26 49.31 83.32 49.49" fill="none" stroke="#aaa" stroke-miterlimit="10" stroke-width=".5"/>
  <polyline points="55.93 .05 58.03 3.84 59.88 7.76 61.49 11.67 62.93 15.64 64.18 19.47 65.35 23.31 66.4 26.86 67.45 30.41 68.42 33.5 69.49 36.56 70.53 39.03 71.78 41.39 73.03 43.11 74.6 44.53 76.33 45.36 78.23 45.62" fill="none" stroke="#aaa" stroke-miterlimit="10" stroke-width=".5"/>
  <polyline points="51.94 .07 54.12 3.49 56.05 7.07 57.69 10.6 59.15 14.21 60.39 17.66 61.53 21.16 62.52 24.37 63.5 27.59 64.38 30.4 65.36 33.17 66.28 35.43 67.41 37.58 68.53 39.17 69.95 40.49 71.54 41.28 73.29 41.56" fill="none" stroke="#aaa" stroke-miterlimit="10" stroke-width=".5"/>
  <polyline points="47.86 .08 50.13 3.18 52.15 6.45 53.83 9.65 55.32 12.94 56.56 16.07 57.68 19.24 58.63 22.15 59.55 25.07 60.37 27.61 61.25 30.12 62.09 32.15 63.11 34.1 64.13 35.52 65.43 36.7 66.92 37.41 68.55 37.64" fill="none" stroke="#aaa" stroke-miterlimit="10" stroke-width=".5"/>
  <polyline points="43.55 .09 45.94 2.93 48.07 5.97 49.81 8.89 51.34 11.93 52.59 14.8 53.7 17.71 54.63 20.37 55.51 23.03 56.27 25.33 57.09 27.61 57.86 29.44 58.8 31.18 59.76 32.44 60.99 33.45 62.43 34.02 63.99 34.14" fill="none" stroke="#aaa" stroke-miterlimit="10" stroke-width=".5"/>
  <polyline points="38.92 .1 41.45 2.76 43.72 5.63 45.53 8.36 47.12 11.22 48.39 13.89 49.52 16.61 50.43 19.07 51.28 21.55 52.01 23.66 52.78 25.74 53.51 27.39 54.41 28.94 55.34 30.04 56.53 30.87 57.99 31.28 59.52 31.26" fill="none" stroke="#aaa" stroke-miterlimit="10" stroke-width=".5"/>
  <polyline points="33.95 .11 36.63 2.64 39.07 5.41 40.96 8.01 42.64 10.76 43.94 13.29 45.09 15.9 46 18.21 46.84 20.55 47.54 22.51 48.29 24.45 48.99 25.95 49.87 27.34 50.81 28.3 51.99 28.94 53.52 29.18 55.06 28.99" fill="none" stroke="#aaa" stroke-miterlimit="10" stroke-width=".5"/>
  <polyline points="28.71 .11 31.56 2.55 34.17 5.25 36.16 7.76 37.93 10.44 39.28 12.87 40.46 15.4 41.37 17.61 42.21 19.86 42.9 21.71 43.64 23.54 44.33 24.92 45.21 26.17 46.18 27.01 47.36 27.48 48.98 27.54 50.57 27.19" fill="none" stroke="#aaa" stroke-miterlimit="10" stroke-width=".5"/>
  <polyline points="23.25 .12 26.29 2.48 29.08 5.13 31.19 7.57 33.05 10.2 34.45 12.57 35.67 15.04 36.59 17.19 37.44 19.36 38.12 21.14 38.86 22.88 39.55 24.16 40.44 25.3 41.46 26.02 42.67 26.33 44.39 26.2 46.05 25.69" fill="none" stroke="#aaa" stroke-miterlimit="10" stroke-width=".5"/>
  <polyline points="17.67 .12 20.9 2.42 23.88 5.04 26.1 7.44 28.07 10.04 29.52 12.37 30.79 14.8 31.72 16.89 32.58 19.02 33.26 20.71 34 22.38 34.69 23.56 35.6 24.58 36.69 25.16 37.92 25.31 39.76 24.96 41.51 24.26" fill="none" stroke="#aaa" stroke-miterlimit="10" stroke-width=".5"/>
  <polyline points="12.02 .12 15.44 2.38 18.62 4.98 20.95 7.34 23.03 9.92 24.53 12.21 25.85 14.61 26.8 16.65 27.67 18.72 28.35 20.32 29.1 21.89 29.8 22.96 30.73 23.81 31.91 24.21 33.17 24.14 35.14 23.48 37 22.53" fill="none" stroke="#aaa" stroke-miterlimit="10" stroke-width=".5"/>
  <polyline points="6.32 .12 9.95 2.36 13.32 4.95 15.77 7.29 17.96 9.86 19.52 12.11 20.88 14.48 21.84 16.45 22.74 18.44 23.41 19.94 24.18 21.38 24.89 22.29 25.86 22.92 27.15 23.04 28.42 22.71 30.53 21.66 32.53 20.38" fill="none" stroke="#aaa" stroke-miterlimit="10" stroke-width=".5"/>
  <polyline points="7.95 4.93 10.51 7.25 12.81 9.83 14.43 12.06 15.84 14.43 16.83 16.39 17.73 18.38 18.41 19.87 19.18 21.3 19.9 22.22 20.88 22.84 22.21 22.95 23.52 22.61 25.72 21.56 27.8 20.27" fill="none" stroke="#aaa" stroke-miterlimit="10" stroke-width=".5"/>
  <polyline points="7.61 9.82 9.28 12.06 10.75 14.43 11.76 16.39 12.68 18.38 13.37 19.87 14.15 21.31 14.88 22.22 15.87 22.84 17.25 22.95 18.6 22.61 20.88 21.55 23.05 20.25" fill="none" stroke="#aaa" stroke-miterlimit="10" stroke-width=".5"/>
  <polyline points="5.58 14.52 6.62 16.49 7.56 18.5 8.26 20 9.05 21.45 9.8 22.38 10.81 22.99 12.22 23.1 13.62 22.76 15.98 21.69 18.24 20.38" fill="none" stroke="#aaa" stroke-miterlimit="10" stroke-width=".5"/>
  <polyline points="5.65 23.39 7.11 23.51 8.54 23.17 11 22.09 13.34 20.77" fill="none" stroke="#aaa" stroke-miterlimit="10" stroke-width=".5"/>
</svg>