<?xml version="1.0" encoding="utf-8" ?>
<svg baseProfile="full" height="222" version="1.1" width="222" xmlns="http://www.w3.org/2000/svg" xmlns:ev="http://www.w3.org/2001/xml-events" xmlns:xlink="http://www.w3.org/1999/xlink"><defs />
  <polyline fill="none" points ="20.44 189 21.62 191.03 23.57 192.33 26.17 193.26 28.77 194.19 32.28 196.11 35.32 198.73 39.39 204.12 42.5 210.12 45.98 202.87 50.78 196.44 53.22 194.55 55.93 193.07 56.82 190.98 56.31 188.61 53.39 180.12 50.32 171.67 55.01 176.79 59.66 181.94 58.59 182.02 56.89 181.39 52.88 180.62 48.9 181.44 44.39 186.71 42.59 193.53" stroke="#aaa" stroke-width="1"/>
  <polyline fill="none" points ="19.24 185.59 20.56 187.55 22.58 188.78 25.33 189.73 28.07 190.7 31.73 192.61 34.96 195.19 39.17 200.3 42.46 206.05 46.23 199 51.34 192.88 54.01 190.99 56.92 189.48 57.9 187.39 57.34 185 54.1 176.75 50.7 168.57 55.77 173.28 60.86 177.96 59.68 177.83 57.91 177.18 53.61 176.34 49.31 177.02 44.55 181.73 42.56 188.24" stroke="#aaa" stroke-width="1"/>
  <polyline fill="none" points ="18.42 181.92 19.79 183.86 21.85 185.06 24.69 186.04 27.54 187.03 31.3 188.89 34.67 191.41 38.99 196.26 42.41 201.8 46.39 194.98 51.69 189.16 54.55 187.29 57.6 185.77 58.64 183.7 58.03 181.32 54.57 173.35 50.9 165.48 56.24 169.8 61.65 174.04 60.41 173.75 58.57 173.1 54.09 172.2 49.57 172.76 44.66 176.96 42.51 183.16" stroke="#aaa" stroke-width="1"/>
  <polyline fill="none" points ="17.93 178.3 19.38 180.16 21.45 181.31 24.35 182.29 27.25 183.29 31.05 185.1 34.49 187.54 38.83 192.13 42.32 197.4 46.45 190.83 51.87 185.33 54.85 183.49 58 181.98 59.09 179.95 58.45 177.58 54.82 169.93 50.96 162.38 56.48 166.35 62.1 170.17 60.82 169.75 58.95 169.09 54.33 168.16 49.67 168.61 44.7 172.34 42.43 178.22" stroke="#aaa" stroke-width="1"/>
  <polyline fill="none" points ="17.85 174.62 19.34 176.41 21.42 177.51 24.36 178.5 27.3 179.49 31.12 181.25 34.61 183.61 38.95 187.93 42.48 192.93 46.73 186.64 52.22 181.44 55.31 179.65 58.54 178.14 59.67 176.16 59.01 173.83 55.24 166.49 51.22 159.29 56.85 162.91 62.6 166.33 61.3 165.79 59.4 165.12 54.71 164.17 49.95 164.52 44.98 167.81 42.59 173.35" stroke="#aaa" stroke-width="1"/>
  <polyline fill="none" points ="17.63 170.91 19.18 172.64 21.25 173.7 24.22 174.69 27.2 175.68 31.03 177.38 34.57 179.66 38.91 183.71 42.48 188.46 46.84 182.44 52.39 177.54 55.58 175.8 58.89 174.3 60.07 172.37 59.39 170.07 55.48 163.05 51.3 156.19 56.98 159.47 62.79 162.49 61.48 161.84 59.57 161.17 54.84 160.19 50.03 160.43 45.09 163.31 42.6 168.5" stroke="#aaa" stroke-width="1"/>
  <polyline fill="none" points ="17.42 167.19 19 168.86 21.08 169.89 24.08 170.88 27.09 171.86 30.94 173.51 34.53 175.69 38.86 179.49 42.48 183.97 46.95 178.24 52.55 173.65 55.85 171.94 59.24 170.46 60.47 168.58 59.77 166.31 55.73 159.61 51.37 153.09 57.1 156.04 62.98 158.65 61.67 157.89 59.72 157.21 54.96 156.21 50.1 156.35 45.22 158.82 42.6 163.64" stroke="#aaa" stroke-width="1"/>
  <polyline fill="none" points ="17.03 163.42 18.63 165.05 20.71 166.05 23.74 167.04 26.78 168.01 30.64 169.61 34.28 171.69 38.6 175.24 42.27 179.47 46.84 174.02 52.48 169.72 55.87 168.07 59.34 166.6 60.62 164.78 59.9 162.54 55.73 156.16 51.22 150 56.98 152.61 62.9 154.82 61.6 153.96 59.62 153.27 54.83 152.25 49.93 152.29 45.13 154.37 42.38 158.82" stroke="#aaa" stroke-width="1"/>
  <polyline fill="none" points ="17.1 159.58 18.71 161.17 20.76 162.15 23.79 163.13 26.84 164.09 30.7 165.62 34.36 167.6 38.65 170.9 42.35 174.87 46.99 169.73 52.62 165.73 56.08 164.14 59.6 162.69 60.91 160.93 60.18 158.74 55.91 152.69 51.28 146.9 57.05 149.19 62.96 151.02 61.68 150.08 59.69 149.38 54.9 148.35 50.01 148.3 45.31 150.02 42.46 154.09" stroke="#aaa" stroke-width="1"/>
  <polyline fill="none" points ="17.51 155.67 19.08 157.2 21.09 158.15 24.08 159.11 27.09 160.05 30.89 161.49 34.51 163.36 38.72 166.41 42.38 170.1 47.01 165.3 52.55 161.61 56.03 160.08 59.52 158.67 60.85 156.99 60.12 154.88 55.83 149.2 51.17 143.81 56.85 145.8 62.67 147.29 61.42 146.29 59.45 145.6 54.73 144.57 49.91 144.44 45.4 145.86 42.49 149.53" stroke="#aaa" stroke-width="1"/>
  <polyline fill="none" points ="18.4 151.61 19.88 153.08 21.79 153.99 24.68 154.93 27.58 155.81 31.26 157.17 34.78 158.9 38.83 161.69 42.39 165.1 46.9 160.67 52.24 157.29 55.63 155.86 59.03 154.52 60.33 152.94 59.62 150.93 55.42 145.67 50.86 140.71 56.33 142.43 61.93 143.63 60.74 142.62 58.82 141.95 54.28 140.95 49.64 140.77 45.37 141.94 42.48 145.22" stroke="#aaa" stroke-width="1"/>
  <polyline fill="none" points ="19.34 147.34 20.73 148.78 22.54 149.68 25.29 150.57 28.07 151.4 31.58 152.64 34.95 154.23 38.82 156.77 42.23 159.9 46.55 155.86 51.62 152.83 55.13 151.46 58.66 150.25 60.48 149.04 60.82 146.92 58.56 142.09 55.61 137.62 59.24 138.96 62.92 140.04 60.72 139.11 58.4 138.41 53.82 137.48 49.15 137.26 45.14 138.2 42.31 141.11" stroke="#aaa" stroke-width="1"/>
  <polyline fill="none" points ="20.65 143.15 21.96 144.51 23.67 145.36 26.25 146.2 28.86 146.97 32.16 148.1 35.33 149.54 38.95 151.81 42.16 154.63 46.22 151 50.95 148.3 54.33 147.04 57.73 145.93 59.6 144.86 60.3 142.89 58.78 138.54 56.46 134.52 59.33 135.59 62.19 136.48 59.85 135.61 57.43 134.93 53.07 134.06 48.63 133.81 44.93 134.56 42.23 137.08" stroke="#aaa" stroke-width="1"/>
  <polyline fill="none" points ="21.86 138.96 23.09 140.26 24.71 141.07 27.14 141.86 29.6 142.57 32.69 143.59 35.69 144.88 39.08 146.9 42.12 149.41 45.94 146.19 50.34 143.82 53.59 142.67 56.86 141.65 58.74 140.69 59.71 138.87 58.75 135.01 56.94 131.43 59.23 132.25 61.39 132.9 58.97 132.08 56.51 131.41 52.36 130.6 48.15 130.32 44.77 130.87 42.17 132.99" stroke="#aaa" stroke-width="1"/>
  <polyline fill="none" points ="22.63 134.77 23.79 136.04 25.34 136.84 27.67 137.62 30.04 138.29 33.01 139.21 35.9 140.37 39.14 142.14 42.08 144.37 45.76 141.54 49.91 139.48 53.09 138.42 56.28 137.48 58.21 136.59 59.42 134.91 58.97 131.51 57.56 128.33 59.41 128.92 60.91 129.26 58.41 128.45 55.86 127.79 51.86 127.01 47.8 126.68 44.68 127.03 42.12 128.72" stroke="#aaa" stroke-width="1"/>
  <polyline fill="none" points ="22.47 130.52 23.55 131.85 25.06 132.7 27.39 133.5 29.76 134.16 32.75 135.03 35.68 136.08 38.93 137.64 41.93 139.63 45.6 137.16 49.65 135.37 52.88 134.39 56.11 133.48 58.14 132.63 59.62 131.06 59.58 128.07 58.49 125.23 60.07 125.58 60.94 125.51 58.29 124.66 55.58 123.98 51.59 123.22 47.54 122.8 44.59 122.94 41.97 124.14" stroke="#aaa" stroke-width="1"/>
  <polyline fill="none" points ="21.71 126.27 22.68 127.74 24.19 128.69 26.61 129.59 29.1 130.28 32.26 131.14 35.39 132.12 38.8 133.5 42.02 135.28 45.87 133.13 50 131.58 53.42 130.63 56.84 129.72 59.06 128.87 60.83 127.35 61.12 124.7 60.22 122.14 61.74 122.2 62.03 121.63 59.14 120.67 56.17 119.95 52 119.15 47.78 118.61 44.86 118.52 42.04 119.14" stroke="#aaa" stroke-width="1"/>
  <polyline fill="none" points ="20.19 121.95 20.95 123.64 22.46 124.76 25.07 125.82 27.78 126.6 31.28 127.5 34.76 128.46 38.45 129.7 42 131.3 46.08 129.44 50.36 128.08 54.11 127.13 57.84 126.17 60.3 125.29 62.38 123.76 62.84 121.37 61.91 119.04 63.56 118.71 63.46 117.61 60.32 116.49 57.06 115.7 52.61 114.82 48.11 114.14 45.06 113.8 42 113.78" stroke="#aaa" stroke-width="1"/>
  <polyline fill="none" points ="18.29 117.41 18.61 119.36 20.07 120.74 22.92 122.05 25.93 122.97 29.89 123.97 33.87 124.95 37.94 126.09 41.92 127.52 46.24 125.94 50.69 124.74 54.82 123.77 58.92 122.74 61.66 121.81 64.08 120.25 64.65 118.05 63.6 115.95 65.53 115.16 65.99 113.53 63.22 112.17 60.22 111.32 55.49 110.32 50.72 109.49 46.31 108.82 41.91 108.2" stroke="#aaa" stroke-width="1"/>
  <polyline fill="none" points ="16.64 112.91 16.65 112.91 16.66 112.92 16.67 112.93 16.67 112.93 16.68 112.94 16.69 112.95 16.7 112.95 16.71 112.96 16.41 115.03 17.76 116.67 20.84 118.23 24.14 119.3 28.6 120.43 33.09 121.45 37.5 122.49 41.86 123.72 46.36 122.43 50.92 121.38 55.42 120.4 59.9 119.31 62.95 118.31 65.72 116.73 66.44 114.73 65.29 112.85 67.48 111.58 68.17 109.45 65.44 107.87 62.38 106.96 57.3 105.84 52.19 104.86 47 103.84 41.85 102.63" stroke="#aaa" stroke-width="1"/>
  <polyline fill="none" points ="14.4 108.49 14.5 108.61 14.6 108.74 14.72 108.87 14.84 109 14.96 109.14 15.1 109.27 15.25 109.41 15.4 109.54 15.27 111.54 16.78 113 20.18 114.59 23.77 115.72 28.47 116.88 33.2 117.89 37.56 118.77 41.9 119.69 46.4 118.72 50.92 117.83 55.71 116.86 60.47 115.73 63.81 114.69 66.91 113.12 67.8 111.37 66.58 109.76 68.95 108.02 69.74 105.45 67 103.7 63.85 102.74 58.51 101.53 53.15 100.42 47.46 99.08 41.9 97.32" stroke="#aaa" stroke-width="1"/>
  <polyline fill="none" points ="13.8 104.05 13.91 104.3 14.04 104.54 14.2 104.8 14.38 105.05 14.59 105.32 14.82 105.57 15.09 105.85 15.37 106.12 15.33 107.95 16.88 109.2 20.49 110.78 24.26 111.92 29.03 113.08 33.84 114.03 37.89 114.72 41.95 115.28 46.17 114.69 50.38 114 55.28 113.06 60.13 111.93 63.62 110.9 66.91 109.39 67.8 107.86 66.39 106.66 68.98 104.54 70.02 101.59 67.4 99.72 64.27 98.73 58.87 97.49 53.46 96.27 47.59 94.64 41.94 92.38" stroke="#aaa" stroke-width="1"/>
  <polyline fill="none" points ="14.57 99.64 14.67 99.99 14.8 100.34 14.99 100.71 15.21 101.08 15.5 101.48 15.82 101.87 16.21 102.3 16.63 102.71 16.64 104.27 18.2 105.28 22.02 106.77 25.97 107.91 30.67 109 35.41 109.88 38.69 110.34 41.98 110.51 45.41 110.34 48.81 109.87 53.66 108.99 58.48 107.92 62.13 106.91 65.64 105.53 66.51 104.26 64.93 103.57 67.74 101.12 69.13 97.85 66.77 95.92 63.79 94.95 58.53 93.7 53.28 92.42 47.45 90.54 41.97 87.83" stroke="#aaa" stroke-width="1"/>
  <polyline fill="none" points ="16.21 95.51 16.29 95.93 16.43 96.34 16.64 96.8 16.89 97.24 17.24 97.74 17.62 98.22 18.11 98.77 18.63 99.29 18.25 100.42 19.56 101.27 23.08 102.66 26.74 103.73 31.2 104.76 35.71 105.51 38.88 105.78 42.02 105.46 45.29 105.8 48.6 105.52 53.24 104.76 57.82 103.73 61.13 102.81 64.32 101.57 64.34 100.6 62.68 100.47 65.67 97.72 67.41 94.21 65.43 92.27 62.69 91.33 57.73 90.11 52.79 88.79 47.15 86.67 41.99 83.57" stroke="#aaa" stroke-width="1"/>
  <polyline fill="none" points ="18.35 91.65 18.44 92.11 18.59 92.55 18.83 93.06 19.12 93.54 19.51 94.11 19.95 94.65 20.51 95.27 21.1 95.87 20.15 96.43 21.23 97.19 24.41 98.46 27.69 99.44 31.86 100.4 36.1 101 39.16 101.05 42.07 100.24 45.1 101.11 48.3 101.03 52.66 100.41 56.95 99.45 59.83 98.63 62.62 97.55 61.66 97.14 59.9 97.37 63.04 94.35 65.16 90.63 63.64 88.71 61.2 87.81 56.64 86.64 52.11 85.3 46.75 82.93 42.02 79.49" stroke="#aaa" stroke-width="1"/>
  <polyline fill="none" points ="20.67 88.02 20.81 88.49 21 88.95 21.28 89.48 21.61 89.99 22.05 90.58 22.52 91.15 23.12 91.82 23.75 92.46 22.52 92.39 23.03 93.1 25.83 94.24 28.73 95.13 32.59 96 36.53 96.45 39.5 96.27 42.12 94.97 44.85 96.35 47.98 96.51 52.01 96.02 55.97 95.13 58.37 94.43 60.69 93.51 58.82 93.72 56.74 94.28 60.1 90.97 62.64 87.07 61.61 85.19 59.47 84.33 55.34 83.2 51.27 81.85 46.27 79.22 42.06 75.46" stroke="#aaa" stroke-width="1"/>
  <polyline fill="none" points ="22.9 84.57 23.1 85.05 23.34 85.5 23.68 86.03 24.05 86.55 24.52 87.14 25.02 87.72 25.64 88.39 26.28 89.04 25.02 88.72 24.71 89.04 27.15 90.07 29.69 90.86 33.27 91.66 36.93 91.96 39.86 91.52 42.19 89.78 44.61 91.63 47.7 92.04 51.39 91.7 55.01 90.87 56.89 90.28 58.67 89.5 55.93 90.23 53.22 91.18 56.94 87.58 60.05 83.48 59.6 81.65 57.75 80.79 54.03 79.7 50.41 78.33 45.79 75.41 42.13 71.34" stroke="#aaa" stroke-width="1"/>
  <polyline fill="none" points ="24.58 81.22 24.82 81.69 25.1 82.14 25.46 82.66 25.84 83.17 26.31 83.76 26.8 84.33 27.4 84.98 28.01 85.62 26.63 85.12 25.79 85.04 28.01 85.98 30.3 86.71 33.74 87.45 37.24 87.63 40.19 86.9 42.31 84.77 44.47 87.03 47.56 87.73 50.92 87.51 54.2 86.72 55.56 86.22 56.45 85.56 52.45 86.67 48.54 88.09 53.08 84.13 57.27 79.83 57.71 78.14 56.23 77.15 52.95 76.06 49.78 74.67 45.45 71.41 42.24 67.03" stroke="#aaa" stroke-width="1"/>
  <polyline fill="none" points ="24.93 77.78 25.17 78.25 25.43 78.71 25.76 79.23 26.11 79.75 26.54 80.33 26.99 80.91 27.52 81.56 28.06 82.2 26.65 81.52 25.67 81.1 27.88 81.97 30.14 82.67 33.59 83.37 37.09 83.44 40.14 82.44 42.13 79.96 44.15 82.58 47.33 83.57 50.67 83.43 53.93 82.68 55.26 82.21 56.15 81.68 52.12 83.23 48.17 84.99 52.48 80.7 56.44 76.11 56.84 74.4 55.4 73.39 52.24 72.3 49.22 70.85 45.02 67.23 42.06 62.52" stroke="#aaa" stroke-width="1"/>
  <polyline fill="none" points ="25.52 74.28 25.75 74.76 26 75.23 26.32 75.77 26.65 76.29 27.05 76.89 27.47 77.47 27.96 78.13 28.46 78.79 27 77.93 25.95 77.21 28.17 78.02 30.43 78.71 33.9 79.39 37.43 79.36 40.58 78.08 42.48 75.28 44.37 78.22 47.63 79.51 50.96 79.45 54.2 78.71 55.51 78.26 56.4 77.85 52.37 79.8 48.43 81.9 52.6 77.26 56.41 72.34 56.8 70.6 55.36 69.55 52.26 68.45 49.34 66.93 45.2 62.93 42.41 57.88" stroke="#aaa" stroke-width="1"/>
  <polyline fill="none" points ="25.37 70.79 25.6 71.28 25.85 71.76 26.15 72.3 26.47 72.84 26.85 73.44 27.24 74.04 27.69 74.71 28.16 75.37 26.65 74.33 25.58 73.35 27.82 74.1 30.09 74.78 33.59 75.44 37.15 75.34 40.39 73.77 42.23 70.67 44.02 73.91 47.35 75.51 50.66 75.52 53.89 74.79 55.19 74.34 56.07 74.04 52.08 76.37 48.14 78.8 52.23 73.8 55.94 68.54 56.31 66.76 54.87 65.67 51.79 64.55 48.94 62.95 44.83 58.57 42.15 53.16" stroke="#aaa" stroke-width="1"/>
  <polyline fill="none" points ="25.53 67.3 25.75 67.8 26 68.29 26.29 68.85 26.59 69.39 26.95 70 27.32 70.61 27.75 71.28 28.19 71.95 26.63 70.73 25.55 69.49 27.82 70.21 30.09 70.88 33.64 71.53 37.23 71.34 40.57 69.49 42.35 66.09 44.06 69.63 47.47 71.53 50.77 71.61 54 70.89 55.31 70.44 56.19 70.25 52.2 72.95 48.26 75.71 52.27 70.34 55.91 64.74 56.27 62.9 54.82 61.77 51.76 60.62 48.95 58.94 44.86 54.17 42.27 48.41" stroke="#aaa" stroke-width="1"/>
  <polyline fill="none" points ="25.53 63.8 25.76 64.31 25.99 64.82 26.28 65.38 26.57 65.94 26.92 66.56 27.27 67.18 27.68 67.86 28.1 68.53 26.51 67.12 25.47 65.65 27.77 66.32 30.06 67 33.63 67.63 37.24 67.37 40.65 65.22 42.38 61.54 44.04 65.37 47.52 67.58 50.83 67.72 54.08 67 55.41 66.55 56.27 66.46 52.28 69.53 48.31 72.61 52.28 66.88 55.87 60.93 56.22 59.04 54.76 57.86 51.69 56.68 48.92 54.92 44.82 49.76 42.3 43.63" stroke="#aaa" stroke-width="1"/>
  <polyline fill="none" points ="25.39 60.27 25.61 60.79 25.85 61.31 26.13 61.89 26.42 62.46 26.75 63.1 27.1 63.73 27.49 64.43 27.9 65.12 26.27 63.52 25.28 61.82 27.62 62.46 29.94 63.15 33.55 63.78 37.2 63.44 40.7 61 42.4 57.05 44.03 61.16 47.6 63.67 50.94 63.87 54.22 63.15 55.59 62.69 56.43 62.7 52.42 66.11 48.39 69.51 52.36 63.41 55.94 57.09 56.28 55.14 54.79 53.9 51.7 52.69 48.93 50.84 44.81 45.29 42.32 38.79" stroke="#aaa" stroke-width="1"/>
  <polyline fill="none" points ="25 56.67 25.22 57.22 25.46 57.76 25.74 58.36 26.03 58.96 26.36 59.61 26.71 60.27 27.1 60.99 27.5 61.7 25.83 59.93 24.85 58.04 27.24 58.66 29.63 59.37 33.35 60.01 37.08 59.61 40.7 56.91 42.42 52.67 44.06 57.07 47.74 59.86 51.17 60.11 54.53 59.37 55.95 58.9 56.8 58.98 52.7 62.72 48.55 66.42 52.58 59.92 56.22 53.22 56.57 51.18 55.03 49.88 51.86 48.62 49.05 46.67 44.84 40.72 42.33 33.82" stroke="#aaa" stroke-width="1"/>
  <polyline fill="none" points ="24.19 52.98 24.43 53.55 24.68 54.13 24.96 54.76 25.27 55.39 25.61 56.08 25.97 56.77 26.38 57.53 26.8 58.28 25.04 56.36 24.03 54.32 26.54 54.96 29.05 55.7 32.94 56.36 36.85 55.92 40.65 53 42.44 48.48 44.14 53.17 48.01 56.19 51.59 56.47 55.12 55.7 56.61 55.2 57.49 55.32 53.2 59.34 48.85 63.32 53.06 56.41 56.85 49.28 57.21 47.13 55.61 45.76 52.28 44.42 49.36 42.36 44.95 36 42.34 28.67" stroke="#aaa" stroke-width="1"/>
  <polyline fill="none" points ="22.95 49.17 23.2 49.78 23.46 50.4 23.78 51.08 24.1 51.75 24.47 52.5 24.86 53.24 25.3 54.05 25.75 54.87 23.87 52.83 22.79 50.66 25.48 51.35 28.15 52.14 32.31 52.86 36.49 52.39 40.55 49.29 42.47 44.48 44.28 49.48 48.41 52.67 52.24 52.97 56.01 52.15 57.6 51.61 58.54 51.73 53.95 56 49.3 60.23 53.8 52.86 57.86 45.27 58.25 42.97 56.54 41.51 52.99 40.09 49.86 37.89 45.14 31.12 42.36 23.32" stroke="#aaa" stroke-width="1"/>
  <polyline fill="none" points ="21.45 45.29 21.72 45.96 22.01 46.62 22.34 47.35 22.7 48.08 23.11 48.89 23.53 49.69 24.01 50.57 24.5 51.45 22.49 49.31 21.32 47.05 24.2 47.8 27.08 48.65 31.56 49.42 36.05 48.94 40.42 45.69 42.5 40.59 44.46 45.89 48.89 49.25 53.02 49.54 57.07 48.66 58.78 48.08 59.8 48.17 54.85 52.68 49.85 57.13 54.71 49.3 59.1 41.22 59.52 38.77 57.67 37.21 53.85 35.68 50.47 33.33 45.39 26.16 42.38 17.85" stroke="#aaa" stroke-width="1"/>
  <polyline fill="none" points ="19.99 41.43 20.28 42.14 20.58 42.85 20.95 43.64 21.33 44.42 21.77 45.28 22.23 46.14 22.75 47.09 23.28 48.03 21.14 45.79 19.87 43.42 22.96 44.24 26.03 45.15 30.82 45.97 35.63 45.48 40.29 42.07 42.53 36.68 44.64 42.28 49.36 45.8 53.78 46.1 58.11 45.15 59.93 44.54 61.03 44.61 55.72 49.35 50.38 54.04 55.59 45.75 60.3 37.19 60.76 34.57 58.78 32.91 54.69 31.28 51.06 28.79 45.63 21.21 42.39 12.41" stroke="#aaa" stroke-width="1"/>
  <polyline fill="none" points ="18.85 37.65 19.15 38.4 19.47 39.15 19.86 39.98 20.26 40.8 20.72 41.71 21.2 42.62 21.75 43.62 22.31 44.61 20.06 42.25 18.73 39.74 21.98 40.6 25.21 41.55 30.24 42.42 35.3 41.9 40.2 38.3 42.55 32.62 44.77 38.52 49.74 42.23 54.37 42.56 58.93 41.56 60.84 40.92 62 41 56.42 45.99 50.8 50.94 56.28 42.22 61.23 33.2 61.7 30.45 59.62 28.71 55.32 27 51.51 24.38 45.8 16.39 42.41 7.12" stroke="#aaa" stroke-width="1"/>
</svg>