<?xml version="1.0" encoding="UTF-8"?><svg id="Ebene_1" xmlns="http://www.w3.org/2000/svg" viewBox="0 0 222 222"><polyline points="76.44 0 88.82 3.86 100.99 8.33 107.85 11.37 114.42 14.98 117.68 17.26 120.65 19.92 122.11 21.54 123.6 23.13 125.27 24.16 127.21 24.6 131.3 24.63 135.4 24.29 143.75 23.31 152.09 22.2 166.66 20.24 181.23 18.31 178.93 18.91 176.64 19.52 174.55 20.07 172.46 20.61 170.57 21.1 168.68 21.59 166.98 22.03 165.28 22.46 163.76 22.84 162.24 23.22 160.89 23.55 159.54 23.87 158.36 24.15 157.17 24.43 156.14 24.66 155.11 24.89" style="fill:none; stroke:#aaa; stroke-miterlimit:10; stroke-width:.5px;"/><polyline points="72.16 0 84.33 3.88 96.29 8.37 103.04 11.43 109.51 15.05 112.73 17.35 115.65 20.01 117.11 21.64 118.6 23.23 120.27 24.26 122.2 24.69 126.26 24.72 130.31 24.37 138.56 23.38 146.8 22.26 161.16 20.28 175.52 18.33 173.38 18.91 171.23 19.48 169.28 20.01 167.32 20.53 165.54 21.01 163.75 21.48 162.14 21.9 160.53 22.33 159.07 22.7 157.62 23.07 156.32 23.4 155.03 23.73 153.87 24.01 152.72 24.29 151.71 24.53 150.7 24.76" style="fill:none; stroke:#aaa; stroke-miterlimit:10; stroke-width:.5px;"/><polyline points="67.91 0 79.88 3.89 91.63 8.39 98.27 11.46 104.62 15.08 107.81 17.39 110.69 20.05 112.14 21.68 113.62 23.27 115.29 24.3 117.21 24.73 121.23 24.75 125.24 24.4 133.38 23.39 141.51 22.27 155.66 20.27 169.81 18.31 167.81 18.86 165.81 19.41 163.98 19.91 162.14 20.42 160.47 20.87 158.79 21.33 157.26 21.74 155.73 22.15 154.35 22.52 152.96 22.88 151.72 23.21 150.47 23.53 149.36 23.81 148.24 24.09 147.25 24.33 146.26 24.57" style="fill:none; stroke:#aaa; stroke-miterlimit:10; stroke-width:.5px;"/><polyline points="63.69 0 75.45 3.89 87 8.39 93.53 11.46 99.78 15.08 102.92 17.39 105.76 20.04 107.2 21.67 108.67 23.26 110.33 24.28 112.24 24.71 116.21 24.72 120.18 24.37 128.21 23.36 136.22 22.23 150.16 20.23 164.1 18.25 162.23 18.78 160.37 19.3 158.65 19.78 156.93 20.26 155.35 20.7 153.77 21.14 152.32 21.54 150.88 21.93 149.56 22.29 148.24 22.65 147.05 22.96 145.85 23.28 144.77 23.56 143.7 23.84 142.73 24.09 141.77 24.33" style="fill:none; stroke:#aaa; stroke-miterlimit:10; stroke-width:.5px;"/><polyline points="59.5 0 71.06 3.88 82.4 8.37 88.83 11.44 94.97 15.04 98.06 17.35 100.86 19.99 102.29 21.62 103.75 23.2 105.39 24.21 107.29 24.64 111.22 24.65 115.14 24.29 123.05 23.27 130.95 22.14 144.67 20.14 158.39 18.17 156.65 18.66 154.92 19.16 153.31 19.62 151.7 20.07 150.21 20.49 148.73 20.91 147.36 21.29 145.99 21.68 144.74 22.02 143.49 22.37 142.34 22.68 141.2 22.99 140.16 23.27 139.13 23.55 138.19 23.79 137.25 24.03" style="fill:none; stroke:#aaa; stroke-miterlimit:10; stroke-width:.5px;"/><polyline points="55.33 0 66.69 3.87 77.82 8.34 84.14 11.4 90.17 14.99 93.22 17.28 95.98 19.91 97.4 21.53 98.85 23.1 100.47 24.11 102.35 24.53 106.23 24.54 110.1 24.18 117.89 23.16 125.68 22.03 139.17 20.03 152.68 18.06 151.06 18.53 149.44 18.99 147.94 19.43 146.43 19.86 145.04 20.26 143.64 20.66 142.35 21.03 141.06 21.4 139.87 21.73 138.68 22.07 137.59 22.37 136.5 22.67 135.51 22.95 134.51 23.22 133.6 23.46 132.7 23.7" style="fill:none; stroke:#aaa; stroke-miterlimit:10; stroke-width:.5px;"/><polyline points="51.17 0 62.32 3.86 73.25 8.3 79.47 11.35 85.39 14.92 88.39 17.2 91.11 19.82 92.51 21.43 93.95 22.99 95.56 23.99 97.42 24.4 101.25 24.41 105.07 24.05 112.74 23.03 120.41 21.9 133.68 19.9 146.97 17.93 145.46 18.38 143.95 18.82 142.55 19.23 141.14 19.64 139.83 20.02 138.52 20.41 137.31 20.76 136.09 21.11 134.97 21.43 133.84 21.76 132.8 22.05 131.76 22.34 130.81 22.61 129.85 22.88 128.98 23.12 128.1 23.36" style="fill:none; stroke:#aaa; stroke-miterlimit:10; stroke-width:.5px;"/><polyline points="47.01 0 57.96 3.84 68.68 8.27 74.79 11.3 80.6 14.85 83.56 17.13 86.24 19.73 87.62 21.33 89.05 22.88 90.64 23.87 92.49 24.28 96.27 24.28 100.03 23.92 107.59 22.9 115.13 21.77 128.19 19.78 141.25 17.81 139.86 18.23 138.46 18.65 137.15 19.04 135.84 19.42 134.62 19.79 133.39 20.15 132.25 20.49 131.11 20.82 130.04 21.13 128.98 21.44 128 21.73 127.01 22.01 126.1 22.28 125.19 22.53 124.35 22.77 123.51 23.01" style="fill:none; stroke:#aaa; stroke-miterlimit:10; stroke-width:.5px;"/><polyline points="42.83 0 53.58 3.83 64.1 8.24 70.1 11.26 75.8 14.8 78.72 17.07 81.35 19.65 82.72 21.25 84.14 22.79 85.72 23.77 87.55 24.18 91.28 24.18 95 23.81 102.43 22.79 109.86 21.66 122.7 19.67 135.55 17.7 134.25 18.1 132.95 18.49 131.73 18.86 130.51 19.23 129.37 19.58 128.22 19.92 127.15 20.24 126.07 20.56 125.07 20.86 124.07 21.16 123.13 21.44 122.2 21.71 121.33 21.97 120.46 22.22 119.66 22.45 118.86 22.68" style="fill:none; stroke:#aaa; stroke-miterlimit:10; stroke-width:.5px;"/><polyline points="38.64 0 49.18 3.82 59.49 8.22 65.38 11.24 70.98 14.77 73.85 17.04 76.44 19.61 77.8 21.21 79.21 22.74 80.78 23.71 82.6 24.12 86.28 24.11 89.95 23.74 97.27 22.72 104.58 21.58 117.21 19.59 129.83 17.62 128.64 17.99 127.44 18.36 126.31 18.71 125.18 19.06 124.11 19.39 123.05 19.71 122.04 20.02 121.04 20.32 120.1 20.61 119.16 20.9 118.28 21.16 117.4 21.43 116.57 21.67 115.75 21.92 114.98 22.15 114.22 22.37" style="fill:none; stroke:#aaa; stroke-miterlimit:10; stroke-width:.5px;"/><polyline points="34.41 0 44.75 3.83 54.85 8.23 60.63 11.25 66.13 14.77 68.95 17.05 71.51 19.61 72.85 21.21 74.25 22.73 75.82 23.71 77.62 24.11 81.26 24.09 84.89 23.72 92.1 22.69 99.3 21.55 111.71 19.54 124.12 17.57 123.02 17.92 121.91 18.26 120.87 18.59 119.82 18.92 118.83 19.23 117.84 19.54 116.91 19.83 115.98 20.12 115.1 20.39 114.22 20.67 113.39 20.92 112.56 21.18 111.78 21.41 111.01 21.65 110.28 21.87 109.55 22.09" style="fill:none; stroke:#aaa; stroke-miterlimit:10; stroke-width:.5px;"/><polyline points="30.16 0 40.28 3.84 50.18 8.25 55.86 11.28 61.24 14.81 64.02 17.09 66.54 19.66 67.88 21.26 69.27 22.78 70.83 23.75 72.63 24.15 76.23 24.13 79.81 23.75 86.91 22.71 94.01 21.56 106.21 19.54 118.41 17.55 117.4 17.87 116.38 18.2 115.42 18.51 114.45 18.82 113.54 19.11 112.62 19.4 111.75 19.68 110.89 19.96 110.07 20.22 109.24 20.48 108.47 20.72 107.69 20.97 106.96 21.2 106.23 21.43 105.54 21.64 104.86 21.85" style="fill:none; stroke:#aaa; stroke-miterlimit:10; stroke-width:.5px;"/><polyline points="25.87 0 35.79 3.86 45.47 8.29 51.05 11.35 56.32 14.89 59.07 17.18 61.55 19.76 62.88 21.36 64.27 22.89 65.82 23.85 67.62 24.25 71.18 24.22 74.73 23.84 81.72 22.78 88.71 21.61 100.7 19.57 112.7 17.56 111.78 17.87 110.85 18.17 109.97 18.46 109.08 18.75 108.24 19.03 107.4 19.31 106.6 19.57 105.8 19.83 105.04 20.08 104.27 20.32 103.55 20.56 102.83 20.79 102.15 21.01 101.47 21.23 100.82 21.44 100.17 21.65" style="fill:none; stroke:#aaa; stroke-miterlimit:10; stroke-width:.5px;"/><polyline points="21.55 0 31.27 3.9 40.74 8.36 46.21 11.44 51.37 15 54.08 17.32 56.52 19.9 57.85 21.51 59.24 23.04 60.79 24.01 62.59 24.41 66.11 24.37 69.62 23.97 76.52 22.9 83.41 21.72 95.19 19.65 106.99 17.61 106.15 17.9 105.3 18.18 104.5 18.46 103.69 18.73 102.92 18.99 102.15 19.25 101.41 19.49 100.67 19.74 99.97 19.98 99.27 20.21 98.6 20.44 97.93 20.66 97.29 20.87 96.66 21.08 96.05 21.28 95.45 21.48" style="fill:none; stroke:#aaa; stroke-miterlimit:10; stroke-width:.5px;"/><polyline points="17.21 0 26.71 3.94 35.97 8.44 41.33 11.56 46.39 15.14 49.06 17.49 51.47 20.09 52.79 21.72 54.19 23.26 55.74 24.22 57.54 24.62 61.03 24.57 64.51 24.17 71.31 23.07 78.09 21.86 89.68 19.77 101.28 17.7 100.52 17.96 99.75 18.23 99.02 18.48 98.29 18.74 97.58 18.98 96.88 19.22 96.2 19.46 95.53 19.69 94.88 19.92 94.24 20.14 93.62 20.35 93.01 20.56 92.42 20.76 91.84 20.96 91.27 21.16 90.71 21.35" style="fill:none; stroke:#aaa; stroke-miterlimit:10; stroke-width:.5px;"/><polyline points="12.78 0 22.08 4.01 31.11 8.57 36.37 11.75 41.32 15.38 43.95 17.77 46.33 20.4 47.65 22.05 49.06 23.6 50.63 24.58 52.43 24.98 55.9 24.92 59.36 24.49 66.07 23.37 72.77 22.13 84.16 19.98 95.57 17.87 94.88 18.11 94.2 18.36 93.54 18.6 92.89 18.83 92.25 19.06 91.62 19.29 91.01 19.51 90.4 19.72 89.81 19.93 89.23 20.14 88.67 20.34 88.11 20.54 87.57 20.74 87.04 20.92 86.52 21.11 86.01 21.29" style="fill:none; stroke:#aaa; stroke-miterlimit:10; stroke-width:.5px;"/><polyline points="8.15 0 17.23 4.14 26.03 8.84 31.19 12.13 36.04 15.86 38.64 18.32 41 21.02 42.34 22.72 43.77 24.31 45.36 25.3 47.2 25.7 50.67 25.62 54.12 25.17 60.77 23.99 67.39 22.7 78.62 20.46 89.86 18.26 89.25 18.49 88.65 18.72 88.06 18.94 87.49 19.16 86.92 19.37 86.36 19.58 85.81 19.79 85.27 19.99 84.74 20.19 84.23 20.39 83.72 20.58 83.22 20.77 82.73 20.95 82.25 21.13 81.77 21.31 81.31 21.48" style="fill:none; stroke:#aaa; stroke-miterlimit:10; stroke-width:.5px;"/><polyline points="3.2 0 12.06 4.38 20.61 9.33 25.68 12.8 30.41 16.72 33 19.33 35.35 22.15 36.72 23.93 38.21 25.59 39.85 26.61 41.75 27.02 45.26 26.92 48.74 26.42 55.36 25.15 61.95 23.76 73.05 21.38 84.15 19.02 83.63 19.23 83.11 19.44 82.61 19.65 82.11 19.85 81.62 20.05 81.14 20.24 80.67 20.44 80.2 20.63 79.74 20.81 79.29 21 78.84 21.18 78.41 21.35 77.98 21.53 77.55 21.7 77.14 21.87 76.73 22.03" style="fill:none; stroke:#aaa; stroke-miterlimit:10; stroke-width:.5px;"/><polyline points="-2.12 0 6.51 4.75 14.8 10.07 19.77 13.84 24.39 18.04 26.99 20.87 29.35 23.88 30.77 25.79 32.35 27.56 34.07 28.63 36.07 29.06 39.65 28.91 43.21 28.35 49.83 26.95 56.43 25.41 67.43 22.79 78.44 20.21 78.01 20.4 77.58 20.59 77.17 20.78 76.75 20.96 76.35 21.14 75.95 21.32 75.55 21.5 75.16 21.67 74.77 21.85 74.39 22.02 74.02 22.19 73.65 22.35 73.29 22.51 72.93 22.67 72.58 22.83 72.23 22.99" style="fill:none; stroke:#aaa; stroke-miterlimit:10; stroke-width:.5px;"/><polyline points="-7.77 0 .63 5.25 8.63 11.05 13.52 15.22 18.03 19.79 20.63 22.9 23.03 26.17 24.52 28.25 26.21 30.17 28.05 31.31 30.18 31.76 33.87 31.56 37.53 30.91 44.2 29.33 50.84 27.59 61.78 24.67 72.73 21.78 72.39 21.95 72.06 22.12 71.73 22.28 71.4 22.45 71.08 22.61 70.76 22.77 70.45 22.93 70.14 23.08 69.83 23.24 69.53 23.39 69.23 23.54 68.93 23.69 68.64 23.84 68.35 23.99 68.06 24.13 67.78 24.28" style="fill:none; stroke:#aaa; stroke-miterlimit:10; stroke-width:.5px;"/><polyline points="-13.61 0 -5.47 5.83 2.25 12.2 7.04 16.83 11.45 21.83 14.07 25.28 16.51 28.84 18.09 31.13 19.91 33.21 21.88 34.44 24.16 34.91 27.99 34.66 31.76 33.9 38.51 32.11 45.21 30.14 56.11 26.87 67.02 23.61 66.77 23.75 66.53 23.89 66.28 24.03 66.04 24.17 65.81 24.3 65.57 24.44 65.34 24.57 65.1 24.71 64.87 24.84 64.65 24.97 64.42 25.1 64.2 25.22 63.98 25.35 63.76 25.48 63.54 25.6 63.32 25.73" style="fill:none; stroke:#aaa; stroke-miterlimit:10; stroke-width:.5px;"/><polyline points="-19.49 0 -11.6 6.43 -4.17 13.39 .53 18.5 4.84 23.94 7.47 27.74 9.95 31.62 11.62 34.12 13.58 36.37 15.68 37.69 18.11 38.18 22.08 37.87 25.97 37 32.8 34.99 39.57 32.78 50.43 29.13 61.31 25.5 61.14 25.6 60.98 25.71 60.82 25.81 60.66 25.92 60.5 26.02 60.34 26.12 60.18 26.22 60.03 26.33 59.87 26.43 59.72 26.53 59.56 26.63 59.41 26.72 59.26 26.82 59.11 26.92 58.96 27.02 58.81 27.11" style="fill:none; stroke:#aaa; stroke-miterlimit:10; stroke-width:.5px;"/><polyline points="-25.19 0 -17.55 6.99 -10.4 14.47 -5.8 20.03 -1.58 25.87 1.05 29.98 3.57 34.15 5.32 36.84 7.39 39.26 9.61 40.65 12.18 41.16 16.27 40.79 20.27 39.82 27.15 37.61 33.97 35.18 44.78 31.19 55.59 27.2 55.5 27.27 55.41 27.33 55.32 27.4 55.23 27.46 55.14 27.53 55.05 27.59 54.96 27.66 54.87 27.72 54.79 27.78 54.7 27.85 54.61 27.91 54.52 27.98 54.44 28.04 54.35 28.1 54.26 28.16 54.18 28.23" style="fill:none; stroke:#aaa; stroke-miterlimit:10; stroke-width:.5px;"/><polyline points="-30.52 0 -23.12 7.42 -16.23 15.3 -11.73 21.2 -7.61 27.35 -4.99 31.71 -2.44 36.09 -.65 38.93 1.51 41.47 3.82 42.93 6.49 43.45 10.66 43.04 14.72 41.98 21.63 39.62 28.44 37.01 39.16 32.75 49.88 28.48 49.85 28.51 49.82 28.53 49.79 28.56 49.75 28.59 49.72 28.61 49.69 28.64 49.66 28.66 49.63 28.69 49.6 28.71 49.56 28.74 49.53 28.76 49.5 28.79 49.47 28.81 49.44 28.84 49.41 28.86 49.37 28.89" style="fill:none; stroke:#aaa; stroke-miterlimit:10; stroke-width:.5px;"/><polyline points="-35.32 0 -28.15 7.65 -21.49 15.74 -17.11 21.82 -13.08 28.14 -10.49 32.63 -7.95 37.13 -6.13 40.05 -3.93 42.67 -1.6 44.16 1.11 44.71 5.28 44.28 9.33 43.19 16.15 40.75 22.88 38.06 33.39 33.67 43.9 29.27" style="fill:none; stroke:#aaa; stroke-miterlimit:10; stroke-width:.5px;"/><polyline points="-39.46 0 -32.52 7.64 -26.08 15.7 -21.81 21.78 -17.89 28.07 -15.34 32.56 -12.85 37.06 -11.05 39.99 -8.87 42.62 -6.58 44.12 -3.91 44.69 .16 44.29 4.11 43.22 10.73 40.82 17.25 38.16 27.42 33.82 37.58 29.45" style="fill:none; stroke:#aaa; stroke-miterlimit:10; stroke-width:.5px;"/><polyline points="-42.93 0 -36.18 7.39 -29.92 15.18 -25.77 21.06 -21.96 27.16 -19.49 31.51 -17.06 35.87 -15.33 38.71 -13.23 41.27 -11.03 42.74 -8.45 43.32 -4.55 42.96 -.75 41.94 5.61 39.66 11.88 37.11 21.65 32.95 31.43 28.76" style="fill:none; stroke:#aaa; stroke-miterlimit:10; stroke-width:.5px;"/><polyline points="-45.74 0 -39.17 6.91 -33.05 14.22 -29.03 19.71 -25.33 25.43 -22.95 29.51 -20.64 33.61 -19 36.28 -17.02 38.69 -14.97 40.08 -12.55 40.64 -8.86 40.33 -5.27 39.41 .78 37.3 6.75 34.95 16.1 31.09 25.45 27.21" style="fill:none; stroke:#aaa; stroke-miterlimit:10; stroke-width:.5px;"/><polyline points="-48.01 0 -41.59 6.23 -35.59 12.87 -31.69 17.83 -28.11 23.03 -25.84 26.72 -23.66 30.45 -22.14 32.87 -20.34 35.07 -18.47 36.35 -16.25 36.87 -12.84 36.61 -9.49 35.8 -3.78 33.92 1.86 31.82 10.77 28.37 19.68 24.9" style="fill:none; stroke:#aaa; stroke-miterlimit:10; stroke-width:.5px;"/><polyline points="-49.9 0 -43.61 5.42 -37.71 11.26 -33.93 15.58 -30.47 20.15 -28.33 23.37 -26.3 26.65 -24.93 28.77 -23.33 30.72 -21.65 31.85 -19.68 32.32 -16.56 32.12 -13.48 31.43 -8.14 29.82 -2.85 28.02 5.61 25.03 14.08 22.04" style="fill:none; stroke:#aaa; stroke-miterlimit:10; stroke-width:.5px;"/><polyline points="-51.6 0 -45.44 4.55 -39.62 9.52 -35.97 13.14 -32.62 17.04 -30.61 19.75 -28.75 22.55 -27.54 24.36 -26.15 26.01 -24.69 27 -22.97 27.41 -20.14 27.26 -17.34 26.7 -12.35 25.36 -7.41 23.87 .64 21.37 8.68 18.88" style="fill:none; stroke:#aaa; stroke-miterlimit:10; stroke-width:.5px;"/><polyline points="-53.34 0 -47.31 3.7 -41.56 7.81 -38.05 10.76 -34.8 13.99 -32.94 16.2 -31.23 18.53 -30.18 20.02 -29 21.4 -27.74 22.23 -26.27 22.57 -23.72 22.47 -21.19 22.04 -16.54 20.96 -11.92 19.77 -4.27 17.75 3.38 15.74" style="fill:none; stroke:#aaa; stroke-miterlimit:10; stroke-width:.5px;"/></svg>