<?xml version="1.0" encoding="UTF-8"?>
<svg id="Ebene_1" xmlns="http://www.w3.org/2000/svg" width="222" height="222" viewBox="0 0 222 222">
  <polyline points="71.57 18.93 58.91 18.6 46.24 18.27 44.6 32.98 42.96 47.68 55.62 48.02 68.29 48.35 69.93 33.64 71.57 18.93" fill="none" stroke="#aaa" stroke-miterlimit="10" stroke-width=".5"/>
  <polyline points="42.77 47.86 42.77 47.86 42.77 47.85 42.74 47.82 42.74 47.77 44.39 32.96 46.05 18.15 46.08 18.08 46.15 18.06 58.92 18.39 71.69 18.73 71.73 18.74 71.77 18.76 71.79 18.8 71.79 18.84 70.14 33.65 68.48 48.47 68.45 48.53 68.38 48.56 55.61 48.22 42.84 47.89 42.8 47.88 42.77 47.86" fill="none" stroke="#aaa" stroke-miterlimit="10" stroke-width=".5"/>
  <polyline points="42.77 47.86 42.79 47.87 42.81 47.88 47.21 49.36 51.62 50.83 51.63 50.83 51.65 50.83 64.42 51.17 77.19 51.5 77.26 51.48 77.29 51.41 78.95 36.6 80.6 21.79 80.59 21.72 80.53 21.68 76.13 20.21 71.72 18.73 71.64 18.74 71.59 18.8 71.6 18.88 71.66 18.93 76.02 20.39 80.39 21.85 78.74 36.57 77.1 51.29 64.38 50.96 51.67 50.63 47.27 49.16 42.88 47.69 42.8 47.69 42.75 47.75 42.74 47.81 42.77 47.86" fill="none" stroke="#aaa" stroke-miterlimit="10" stroke-width=".5"/>
  <polyline points="68.31 48.53 68.33 48.54 68.35 48.55 72.75 50.03 77.16 51.5 77.24 51.49 77.29 51.43 77.28 51.35 77.22 51.3 72.82 49.83 68.41 48.36 68.34 48.36 68.28 48.42 68.28 48.48 68.31 48.53" fill="none" stroke="#aaa" stroke-miterlimit="10" stroke-width=".5"/>
  <polyline points="61.77 28.77 57.78 28.67 53.8 28.56 53.28 33.2 52.76 37.85 56.75 37.95 60.73 38.05 61.25 33.41 61.77 28.77" fill="none" stroke="#aaa" stroke-miterlimit="10" stroke-width=".5"/>
  <polyline points="52.57 38.02 52.57 38.02 52.57 38.01 52.55 37.98 52.54 37.93 53.07 33.19 53.6 28.45 53.64 28.38 53.71 28.35 57.8 28.46 61.89 28.57 61.93 28.58 61.96 28.6 61.98 28.64 61.99 28.68 61.46 33.43 60.93 38.17 60.89 38.24 60.82 38.26 56.73 38.16 52.64 38.05 52.6 38.04 52.57 38.02" fill="none" stroke="#aaa" stroke-miterlimit="10" stroke-width=".5"/>
  <polyline points="53.63 28.53 53.65 28.55 53.67 28.56 57.63 29.88 61.58 31.2 61.66 31.19 61.71 31.13 61.71 31.06 61.65 31 57.69 29.68 53.74 28.36 53.66 28.36 53.61 28.42 53.6 28.48 53.63 28.53" fill="none" stroke="#aaa" stroke-miterlimit="10" stroke-width=".5"/>
</svg>