<?xml version="1.0" encoding="UTF-8"?>
<svg id="Ebene_1" xmlns="http://www.w3.org/2000/svg" width="222" height="222" viewBox="0 0 222 222">
  <polyline points="42.79 192.57 39.97 187.37 34.79 184.58 29.81 184.4 24.94 185.48 22.93 186.22 21.44 187.04 27.03 184.17 32.47 181 27.91 188.04 23.67 195.26 22.97 197.72 24.36 199.72 28.09 201.48 31.67 203.53 37.84 209.08 42.71 215.83 47.3 209.35 53.08 203.94 56.63 201.78 60.4 200.04 62.15 198.71 62.2 196.54 59.36 191.08 56.03 185.87" fill="none" stroke="#aaa" stroke-miterlimit="10" stroke-width=".5"/>
  <polyline points="42.78 187.85 39.9 182.9 34.79 180.37 29.81 180.26 24.95 181.34 22.94 182.09 21.45 182.97 27.05 180.38 32.48 177.45 27.85 184.21 23.58 191.18 22.86 193.6 24.27 195.55 28.01 197.28 31.62 199.27 37.78 204.56 42.7 211.05 47.32 204.84 53.07 199.69 56.66 197.6 60.44 195.88 62.19 194.6 62.3 192.47 59.49 187.26 56.18 182.33" fill="none" stroke="#aaa" stroke-miterlimit="10" stroke-width=".5"/>
  <polyline points="42.77 183.35 39.9 178.67 34.94 176.35 30.07 176.28 25.31 177.34 23.33 178.08 21.88 178.98 27.36 176.62 32.67 173.89 28.11 180.34 23.89 187.01 23.19 189.35 24.57 191.24 28.25 192.92 31.81 194.84 37.84 199.86 42.68 206.04 47.22 200.13 52.84 195.26 56.37 193.24 60.09 191.58 61.82 190.35 61.96 188.3 59.25 183.35 56.02 178.7" fill="none" stroke="#aaa" stroke-miterlimit="10" stroke-width=".5"/>
  <polyline points="43.02 178.96 40.21 174.54 35.43 172.42 30.71 172.38 26.11 173.41 24.18 174.13 22.79 175.03 28.09 172.87 33.24 170.34 28.79 176.46 24.68 182.8 24 185.06 25.35 186.87 28.92 188.48 32.39 190.32 38.22 195.05 42.93 200.92 47.34 195.33 52.76 190.72 56.2 188.79 59.8 187.2 61.49 186.04 61.67 184.06 59.06 179.4 55.95 175.02" fill="none" stroke="#aaa" stroke-miterlimit="10" stroke-width=".5"/>
  <polyline points="42.95 174.55 40.19 170.41 35.6 168.47 31.04 168.46 26.57 169.47 24.7 170.17 23.36 171.07 28.5 169.12 33.48 166.79 29.14 172.58 25.14 178.6 24.48 180.77 25.79 182.5 29.26 184.05 32.63 185.8 38.28 190.27 42.87 195.82 47.14 190.53 52.38 186.21 55.73 184.36 59.22 182.83 60.86 181.73 61.08 179.84 58.59 175.45 55.6 171.36" fill="none" stroke="#aaa" stroke-miterlimit="10" stroke-width=".5"/>
  <polyline points="42.89 170.02 40.14 166.15 35.7 164.42 31.22 164.46 26.86 165.46 25.02 166.14 23.72 167.07 28.74 165.36 33.62 163.23 29.32 168.72 25.37 174.44 24.72 176.54 26.02 178.21 29.43 179.72 32.76 181.39 38.28 185.59 42.8 190.85 47.01 185.85 52.11 181.79 55.42 180.02 58.85 178.55 60.47 177.5 60.73 175.67 58.33 171.54 55.42 167.71" fill="none" stroke="#aaa" stroke-miterlimit="10" stroke-width=".5"/>
  <polyline points="42.83 165.32 40.02 161.72 35.67 160.23 31.22 160.33 26.88 161.33 25.03 162.02 23.76 163.01 28.75 161.58 33.61 159.68 29.27 164.88 25.28 170.35 24.63 172.41 25.94 174.03 29.36 175.51 32.72 177.13 38.19 181.06 42.75 186.04 46.96 181.33 52 177.52 55.34 175.82 58.78 174.38 60.39 173.37 60.72 171.58 58.37 167.67 55.49 164.09" fill="none" stroke="#aaa" stroke-miterlimit="10" stroke-width=".5"/>
  <polyline points="42.73 160.47 39.77 157.16 35.45 155.93 30.71 156.12 26.06 157.12 23.72 157.89 21.5 158.9 25.13 157.64 28.68 156.13 25.46 161.04 22.91 166.3 23.14 168.56 25.01 169.93 28.76 171.36 32.43 172.97 37.98 176.64 42.66 181.38 46.94 176.93 52.01 173.39 55.59 171.7 59.29 170.32 61.28 169.38 62.47 167.61 61.45 163.99 59.54 160.7" fill="none" stroke="#aaa" stroke-miterlimit="10" stroke-width=".5"/>
  <polyline points="42.77 155.6 39.63 152.58 35.33 151.6 30.31 151.87 25.38 152.9 22.43 153.76 19.53 154.78 21.86 153.75 24.4 152.57 22.14 157.26 20.88 162.26 21.96 164.58 24.24 165.85 28.29 167.24 32.25 168.84 37.88 172.26 42.69 176.75 47.07 172.56 52.16 169.28 55.96 167.62 59.88 166.28 62.26 165.33 64.11 163.63 64.22 160.36 63.11 157.21" fill="none" stroke="#aaa" stroke-miterlimit="10" stroke-width=".5"/>
  <polyline points="42.72 150.77 39.45 148.07 35.2 147.31 30.01 147.66 24.91 148.69 21.6 149.61 18.34 150.67 19.81 149.96 21.92 149.02 20.17 153.49 19.63 158.21 21.18 160.5 23.71 161.74 27.92 163.11 32.07 164.67 37.73 167.85 42.65 172.07 47.09 168.16 52.18 165.12 56.12 163.51 60.16 162.21 62.77 161.24 64.99 159.61 65.7 156.66 65.06 153.63" fill="none" stroke="#aaa" stroke-miterlimit="10" stroke-width=".5"/>
  <polyline points="42.69 146 39.31 143.63 35.13 143.07 29.85 143.49 24.66 144.53 21.1 145.49 17.59 146.59 18.41 146.22 20.25 145.46 18.86 149.72 18.82 154.14 20.69 156.37 23.39 157.6 27.71 158.94 31.98 160.45 37.63 163.39 42.62 167.33 47.11 163.7 52.15 160.9 56.17 159.35 60.28 158.08 63.06 157.12 65.51 155.55 66.61 152.89 66.32 149.97" fill="none" stroke="#aaa" stroke-miterlimit="10" stroke-width=".5"/>
  <polyline points="42.98 141.3 39.51 139.27 35.44 138.89 30.12 139.37 24.88 140.41 21.15 141.38 17.49 142.53 17.76 142.49 19.44 141.91 18.32 145.94 18.64 150.04 20.75 152.2 23.56 153.41 27.94 154.72 32.29 156.18 37.88 158.88 42.92 162.52 47.41 159.18 52.39 156.62 56.45 155.14 60.59 153.91 63.47 152.95 66.08 151.44 67.44 149.04 67.43 146.24" fill="none" stroke="#aaa" stroke-miterlimit="10" stroke-width=".5"/>
  <polyline points="42.72 136.65 39.2 134.97 35.24 134.75 29.93 135.29 24.69 136.32 20.86 137.31 17.09 138.49 16.88 138.78 18.46 138.35 17.57 142.14 18.17 145.92 20.44 148.01 23.33 149.19 27.73 150.47 32.11 151.86 37.62 154.33 42.66 157.66 47.14 154.61 52.04 152.28 56.11 150.88 60.24 149.7 63.2 148.74 65.91 147.29 67.43 145.11 67.65 142.44" fill="none" stroke="#aaa" stroke-miterlimit="10" stroke-width=".5"/>
  <polyline points="42.76 132.05 39.22 130.72 35.38 130.64 30.1 131.23 24.89 132.26 20.99 133.25 17.16 134.46 16.52 135.04 18.06 134.8 17.36 138.34 18.17 141.79 20.56 143.79 23.5 144.94 27.89 146.19 32.27 147.51 37.68 149.74 42.7 152.76 47.16 150 51.97 147.9 56.04 146.58 60.15 145.44 63.14 144.5 65.92 143.09 67.54 141.09 67.92 138.54" fill="none" stroke="#aaa" stroke-miterlimit="10" stroke-width=".5"/>
  <polyline points="42.76 127.45 39.21 126.49 35.49 126.53 30.26 127.18 25.08 128.2 21.14 129.19 17.27 130.44 16.25 131.24 17.79 131.25 17.24 134.53 18.22 137.66 20.72 139.57 23.69 140.7 28.07 141.91 32.44 143.16 37.74 145.16 42.72 147.85 47.15 145.38 51.87 143.5 55.94 142.27 60.04 141.17 63.06 140.24 65.88 138.85 67.55 137 68.06 134.55" fill="none" stroke="#aaa" stroke-miterlimit="10" stroke-width=".5"/>
  <polyline points="42.73 122.81 39.18 122.22 35.56 122.4 30.39 123.1 25.27 124.12 21.3 125.11 17.43 126.4 16.17 127.28 17.61 127.69 17.18 130.73 18.28 133.54 20.89 135.37 23.9 136.47 28.27 137.65 32.64 138.84 37.79 140.61 42.69 142.98 47.09 140.8 51.71 139.13 55.8 137.97 59.9 136.9 62.96 135.97 65.83 134.59 67.52 132.83 68.07 130.46" fill="none" stroke="#aaa" stroke-miterlimit="10" stroke-width=".5"/>
  <polyline points="42.69 118.1 39.15 117.9 35.61 118.21 30.5 118.97 25.43 119.99 21.49 121 17.65 122.34 16.37 123.36 17.74 124.14 17.29 126.91 18.4 129.44 21.07 131.2 24.09 132.29 28.46 133.44 32.84 134.57 37.84 136.13 42.66 138.18 47.06 136.26 51.62 134.79 55.75 133.71 59.88 132.65 62.96 131.7 65.85 130.3 67.46 128.59 67.9 126.28" fill="none" stroke="#aaa" stroke-miterlimit="10" stroke-width=".5"/>
  <polyline points="42.67 113.33 39.13 113.52 35.61 113.96 30.52 114.79 25.46 115.83 21.5 116.84 17.68 118.25 16.37 119.47 17.7 120.59 17.25 123.11 18.41 125.37 21.17 127.07 24.25 128.15 28.64 129.29 33.05 130.36 37.92 131.71 42.66 133.45 47.08 131.8 51.62 130.51 55.86 129.47 60.08 128.41 63.21 127.43 66.13 125.97 67.65 124.25 67.87 121.98" fill="none" stroke="#aaa" stroke-miterlimit="10" stroke-width=".5"/>
  <polyline points="42.67 108.48 38.03 109 33.39 109.66 28.37 110.53 23.4 111.61 19.97 112.62 16.75 114.14 16.02 115.79 17.5 117.03 17.08 119.34 18.32 121.33 21.22 122.98 24.39 124.05 28.84 125.18 33.32 126.21 38.03 127.37 42.67 128.79 47.19 127.39 51.78 126.25 56.2 125.24 60.59 124.14 63.79 123.09 66.73 121.52 68.07 119.69 67.82 117.44" fill="none" stroke="#aaa" stroke-miterlimit="10" stroke-width=".5"/>
  <polyline points="42.66 103.59 37.56 104.46 32.45 105.32 27.41 106.25 22.41 107.38 19.13 108.39 16.13 110.01 15.63 111.96 17.16 113.48 16.8 115.58 18.12 117.3 21.2 118.9 24.51 119.98 29.03 121.11 33.6 122.09 38.14 123.07 42.66 124.17 47.14 123.06 51.66 122.09 56.23 121.11 60.76 119.98 64.06 118.91 67.13 117.3 68.41 115.56 67.94 113.48 68.04 113.41 68.13 113.35 68.23 113.28 68.32 113.22 68.41 113.16 68.49 113.09 68.58 113.03 68.66 112.96" fill="none" stroke="#aaa" stroke-miterlimit="10" stroke-width=".5"/>
  <polyline points="42.58 98.69 37.19 99.91 31.76 100.97 26.68 101.97 21.64 103.13 18.41 104.17 15.52 105.88 15.15 108.11 16.73 109.92 16.46 111.83 17.88 113.27 21.17 114.82 24.65 115.92 29.27 117.03 33.93 117.98 38.25 118.77 42.58 119.56 46.87 118.77 51.16 117.98 55.83 117.03 60.45 115.92 63.93 114.83 67.21 113.27 68.59 111.81 68.2 109.92 68.43 109.74 68.65 109.55 68.84 109.38 69.03 109.19 69.2 109.02 69.36 108.84 69.5 108.67 69.62 108.51" fill="none" stroke="#aaa" stroke-miterlimit="10" stroke-width=".5"/>
  <polyline points="42.53 93.82 36.96 95.39 31.31 96.65 26.2 97.71 21.14 98.91 17.97 99.96 15.21 101.76 15.04 104.29 16.72 106.37 16.5 108.05 17.95 109.23 21.48 110.73 25.16 111.83 29.85 112.94 34.59 113.84 38.56 114.46 42.53 114.92 46.48 114.46 50.41 113.84 55.16 112.94 59.86 111.83 63.53 110.74 67.05 109.23 68.47 108.03 68.12 106.37 68.46 106.06 68.79 105.73 69.06 105.44 69.32 105.13 69.54 104.86 69.73 104.57 69.89 104.3 70.02 104.03" fill="none" stroke="#aaa" stroke-miterlimit="10" stroke-width=".5"/>
  <polyline points="42.51 89.01 36.88 90.91 31.11 92.37 26.03 93.49 20.97 94.72 17.9 95.78 15.31 97.66 15.45 100.5 17.32 102.82 17.03 104.21 18.5 105.17 22.29 106.62 26.2 107.72 30.96 108.8 35.76 109.66 39.13 110.11 42.51 110.23 45.87 110.11 49.22 109.66 54.02 108.8 58.78 107.72 62.68 106.62 66.46 105.17 67.91 104.19 67.48 102.82 67.94 102.37 68.38 101.9 68.73 101.49 69.07 101.06 69.33 100.68 69.56 100.28 69.72 99.93 69.86 99.57" fill="none" stroke="#aaa" stroke-miterlimit="10" stroke-width=".5"/>
  <polyline points="42.52 84.25 36.93 86.49 31.14 88.14 26.11 89.33 21.11 90.57 18.12 91.63 15.7 93.59 16.12 96.7 18.18 99.26 17.43 100.23 18.74 101.09 22.41 102.49 26.2 103.56 30.95 104.64 35.75 105.43 39.15 105.74 42.53 105.47 45.89 105.74 49.26 105.43 54.06 104.64 58.81 103.56 62.58 102.49 66.24 101.09 67.54 100.19 66.64 99.26 67.19 98.7 67.72 98.12 68.14 97.61 68.53 97.09 68.83 96.63 69.09 96.15 69.28 95.73 69.42 95.3" fill="none" stroke="#aaa" stroke-miterlimit="10" stroke-width=".5"/>
  <polyline points="42.53 79.56 37.03 82.12 31.25 83.96 26.31 85.2 21.39 86.45 18.51 87.51 16.29 89.53 17.01 92.91 19.25 95.71 17.94 96.12 19.09 96.99 22.63 98.33 26.26 99.37 30.98 100.43 35.75 101.16 39.2 101.32 42.55 100.66 45.87 101.32 49.28 101.16 54.06 100.43 58.77 99.37 62.4 98.33 65.92 96.99 67 96.06 65.6 95.71 66.23 95.05 66.83 94.36 67.31 93.77 67.76 93.16 68.09 92.63 68.39 92.08 68.6 91.62 68.75 91.13" fill="none" stroke="#aaa" stroke-miterlimit="10" stroke-width=".5"/>
  <polyline points="42.54 74.92 37.16 77.79 31.42 79.83 26.61 81.11 21.8 82.36 19.05 83.42 17.06 85.49 18.09 89.12 20.53 92.16 19.06 92.09 19.58 92.87 22.94 94.15 26.4 95.15 31.06 96.19 35.8 96.84 39.29 96.85 42.57 95.79 45.82 96.85 49.28 96.84 54.01 96.19 58.67 95.15 62.11 94.15 65.46 92.87 65.86 92.08 64.36 92.16 65.05 91.41 65.71 90.65 66.24 89.99 66.74 89.32 67.12 88.74 67.46 88.14 67.7 87.63 67.89 87.11" fill="none" stroke="#aaa" stroke-miterlimit="10" stroke-width=".5"/>
  <polyline points="42.56 70.23 37.29 73.4 31.55 75.65 26.85 76.98 22.15 78.25 19.51 79.32 17.76 81.43 19.13 85.32 21.77 88.6 20.22 88.31 20.02 88.77 23.22 89.99 26.5 90.95 31.12 91.99 35.82 92.55 39.39 92.41 42.6 90.97 45.76 92.41 49.3 92.55 54 91.99 58.61 90.95 61.89 89.99 65.06 88.77 64.76 88.31 63.16 88.6 63.89 87.8 64.59 86.98 65.17 86.28 65.71 85.56 66.14 84.94 66.53 84.3 66.81 83.77 67.06 83.21" fill="none" stroke="#aaa" stroke-miterlimit="10" stroke-width=".5"/>
  <polyline points="42.59 65.32 37.3 68.81 31.46 71.29 26.77 72.7 22.07 74 19.48 75.09 17.92 77.3 19.62 81.48 22.52 85.05 20.79 84.59 20.01 84.75 23.11 85.95 26.29 86.9 30.97 87.94 35.72 88.46 39.44 88.16 42.63 86.38 45.78 88.17 49.45 88.46 54.21 87.94 58.88 86.9 62.05 85.95 65.13 84.75 64.25 84.59 62.47 85.05 63.24 84.2 63.98 83.34 64.6 82.6 65.19 81.83 65.66 81.18 66.1 80.51 66.43 79.94 66.73 79.35" fill="none" stroke="#aaa" stroke-miterlimit="10" stroke-width=".5"/>
  <polyline points="42.62 60.1 37.15 63.95 31.05 66.69 26.21 68.19 21.36 69.56 18.73 70.72 17.27 73.06 19.29 77.59 22.49 81.49 20.53 80.89 19.3 80.83 22.42 82.06 25.63 83.03 30.49 84.11 35.44 84.6 39.38 84.18 42.66 82.09 45.89 84.19 49.8 84.6 54.74 84.11 59.59 83.03 62.79 82.06 65.9 80.83 64.57 80.89 62.56 81.49 63.37 80.6 64.16 79.69 64.82 78.9 65.46 78.09 65.98 77.39 66.47 76.68 66.85 76.07 67.2 75.44" fill="none" stroke="#aaa" stroke-miterlimit="10" stroke-width=".5"/>
  <polyline points="42.58 54.66 36.81 58.89 30.31 61.9 25.23 63.51 20.1 64.99 17.35 66.23 15.93 68.73 18.26 73.67 21.78 77.94 19.58 77.21 17.99 77 21.23 78.28 24.55 79.29 29.7 80.44 34.94 80.93 39.18 80.4 42.63 78.02 46.02 80.41 50.22 80.93 55.46 80.44 60.6 79.29 63.92 78.28 67.13 77 65.45 77.21 63.19 77.94 64.06 76.99 64.9 76.02 65.62 75.17 66.31 74.31 66.87 73.57 67.42 72.8 67.84 72.15 68.24 71.48" fill="none" stroke="#aaa" stroke-miterlimit="10" stroke-width=".5"/>
  <polyline points="42.54 49.2 36.44 53.8 29.54 57.09 24.18 58.83 18.78 60.4 15.9 61.72 14.51 64.4 17.14 69.75 21.01 74.39 18.55 73.53 16.61 73.17 19.96 74.51 23.42 75.57 28.87 76.79 34.42 77.28 38.96 76.64 42.59 73.98 46.16 76.65 50.66 77.28 56.21 76.79 61.66 75.57 65.1 74.51 68.44 73.17 66.41 73.53 63.9 74.39 64.81 73.38 65.71 72.35 66.47 71.46 67.22 70.55 67.83 69.75 68.42 68.95 68.9 68.25 69.34 67.54" fill="none" stroke="#aaa" stroke-miterlimit="10" stroke-width=".5"/>
  <polyline points="42.46 43.95 36.18 48.91 29.01 52.46 23.47 54.3 17.89 55.94 14.95 57.34 13.66 60.15 16.63 65.86 20.83 70.83 18.09 69.83 15.71 69.26 19.09 70.64 22.57 71.72 28.23 72.98 33.99 73.45 38.78 72.68 42.51 69.71 46.18 72.68 50.93 73.45 56.69 72.98 62.34 71.72 65.81 70.64 69.18 69.26 66.71 69.82 63.91 70.83 64.86 69.79 65.8 68.73 66.61 67.8 67.39 66.85 68.05 66.02 68.69 65.18 69.21 64.45 69.7 63.7" fill="none" stroke="#aaa" stroke-miterlimit="10" stroke-width=".5"/>
  <polyline points="42.76 39.14 36.56 44.41 29.36 48.19 23.88 50.08 18.34 51.76 15.48 53.19 14.45 56.05 17.85 62.03 22.39 67.28 19.27 66.06 16.29 65.2 19.49 66.55 22.8 67.6 28.45 68.86 34.21 69.27 39.13 68.3 42.81 65.02 46.43 68.31 51.31 69.27 57.07 68.86 62.72 67.6 66.02 66.55 69.21 65.2 66.15 66.05 62.95 67.28 63.93 66.23 64.89 65.17 65.72 64.23 66.54 63.28 67.24 62.44 67.91 61.59 68.48 60.84 69.03 60.08" fill="none" stroke="#aaa" stroke-miterlimit="10" stroke-width=".5"/>
  <polyline points="42.71 34.87 36.93 40.36 30.02 44.35 24.9 46.25 19.7 47.9 17.11 49.35 16.64 52.14 20.72 58.27 25.72 63.72 21.93 62.17 18.09 60.96 20.77 62.21 23.61 63.15 28.96 64.36 34.44 64.65 39.34 63.4 42.77 59.78 46.13 63.41 50.99 64.65 56.46 64.36 61.82 63.15 64.65 62.22 67.31 60.96 63.39 62.17 59.54 63.72 60.52 62.72 61.48 61.7 62.34 60.79 63.18 59.87 63.92 59.06 64.64 58.23 65.26 57.5 65.87 56.76" fill="none" stroke="#aaa" stroke-miterlimit="10" stroke-width=".5"/>
  <polyline points="42.6 31.1 37.55 36.73 31.26 40.93 26.89 42.76 22.43 44.35 20.51 45.98 21.22 48.41 26.72 54.53 32.73 60.17 27.44 58.09 22.01 56.53 23.39 57.63 25.41 58.4 30.12 59.5 34.96 59.62 39.66 57.98 42.67 54.04 45.6 57.98 50.26 59.62 55.09 59.5 59.8 58.4 61.82 57.63 63.19 56.53 57.69 58.09 52.34 60.17 53.34 59.27 54.33 58.36 55.22 57.54 56.12 56.71 56.92 55.95 57.72 55.2 58.43 54.52 59.14 53.83" fill="none" stroke="#aaa" stroke-miterlimit="10" stroke-width=".5"/>
  <polyline points="42.62 27.68 38.39 33.39 32.82 37.78 29.05 39.56 25.14 41.01 23.43 42.55 24.02 44.81 28.71 50.89 33.87 56.62 29.04 54.14 24.08 51.98 25.35 52.77 27.13 53.42 31.39 54.37 35.75 54.3 40.18 52.19 42.69 47.95 45.12 52.18 49.51 54.3 53.86 54.37 58.12 53.42 59.89 52.77 61.15 51.98 56.12 54.14 51.23 56.62 51.99 55.8 52.75 54.99 53.44 54.24 54.13 53.48 54.75 52.79 55.38 52.1 55.94 51.47 56.51 50.83" fill="none" stroke="#aaa" stroke-miterlimit="10" stroke-width=".5"/>
  <polyline points="42.5 24.36 39.11 30.1 34.34 34.72 31.21 36.43 27.89 37.73 26.41 39.16 26.87 41.23 30.72 47.28 34.97 53.06 30.8 50.16 26.55 47.39 27.67 47.85 29.17 48.4 32.86 49.18 36.6 48.91 40.6 46.22 42.58 41.77 44.49 46.22 48.44 48.91 52.17 49.18 55.85 48.4 57.35 47.85 58.45 47.39 54.13 50.16 49.9 53.06 50.44 52.35 50.98 51.64 51.47 50.98 51.97 50.32 52.43 49.7 52.89 49.09 53.31 48.52 53.73 47.95" fill="none" stroke="#aaa" stroke-miterlimit="10" stroke-width=".5"/>
  <polyline points="42.52 20.86 39.82 26.63 35.77 31.51 33.2 33.16 30.4 34.35 29.11 35.69 29.47 37.6 32.6 43.64 36.06 49.51 32.47 46.19 28.86 42.87 29.79 43 31.11 43.48 34.28 44.11 37.47 43.66 41.02 40.41 42.6 35.76 44.11 40.4 47.61 43.66 50.79 44.11 53.95 43.48 55.27 43 56.18 42.87 52.51 46.18 48.85 49.51 49.21 48.91 49.57 48.32 49.91 47.76 50.25 47.19 50.57 46.67 50.89 46.14 51.19 45.64 51.48 45.14" fill="none" stroke="#aaa" stroke-miterlimit="10" stroke-width=".5"/>
  <polyline points="42.52 16.95 40.28 22.82 36.73 27.97 34.56 29.59 32.09 30.71 30.95 32.02 31.24 33.82 33.87 39.95 36.81 45.96 33.59 42.25 30.44 38.49 31.21 38.37 32.43 38.8 35.26 39.34 38.06 38.74 41.27 35.01 42.6 30.17 43.86 35 47.02 38.74 49.81 39.33 52.63 38.8 53.85 38.37 54.6 38.49 51.38 42.25 48.11 45.96 48.36 45.44 48.62 44.94 48.86 44.46 49.1 43.98 49.33 43.52 49.56 43.06 49.78 42.62 49.99 42.19" fill="none" stroke="#aaa" stroke-miterlimit="10" stroke-width=".5"/>
  <polyline points="42.52 12.55 40.48 18.61 37.17 24.03 35.18 25.67 32.86 26.77 31.78 28.09 32.04 29.87 34.45 36.19 37.13 42.4 34.08 38.38 31.14 34.29 31.82 34.01 33.01 34.43 35.69 34.91 38.31 34.22 41.38 30.12 42.61 25.06 43.75 30.11 46.77 34.22 49.38 34.91 52.05 34.43 53.24 34.01 53.91 34.29 50.89 38.38 47.78 42.4 47.98 41.95 48.18 41.5 48.38 41.06 48.57 40.63 48.76 40.21 48.94 39.8 49.12 39.4 49.29 39.01" fill="none" stroke="#aaa" stroke-miterlimit="10" stroke-width=".5"/>
</svg>