<?xml version='1.0' encoding='UTF-8'?>
<svg xmlns="http://www.w3.org/2000/svg" xmlns:ev="http://www.w3.org/2001/xml-events" xmlns:xlink="http://www.w3.org/1999/xlink" baseProfile="full" height="800" version="1.1" width="800">
  <polyline fill="none" points="387.0,345.0 394.0,352.0 392.0,356.0 387.0,347.0" stroke="#1cc5da" stroke-width="1"/>
  <polyline fill="none" points="325.0,333.0 325.0,337.0 332.0,343.0 327.0,344.0 327.0,348.0 343.0,361.0 360.0,384.0 364.0,384.0 365.0,380.0 349.0,355.0 354.0,354.0 354.0,346.0 343.0,341.0 344.0,349.0 347.0,351.0 343.0,353.0 338.0,345.0 340.0,339.0 330.0,336.0 329.0,333.0" stroke="#8a2796" stroke-width="1"/>
  <polyline fill="none" points="462.0,417.0 466.0,423.0 463.0,449.0 464.0,439.0 469.0,438.0 466.0,437.0 467.0,427.0 471.0,425.0 468.0,425.0 463.0,417.0" stroke="#c2825e" stroke-width="1"/>
  <polyline fill="none" points="261.0,436.0 262.0,439.0 269.0,440.0 268.0,443.0 265.0,442.0 272.0,446.0 275.0,443.0 281.0,446.0 283.0,443.0 276.0,443.0 276.0,440.0 286.0,439.0 274.0,436.0 270.0,440.0 265.0,440.0 261.0,437.0" stroke="#d2d98a" stroke-width="1"/>
  <polyline fill="none" points="304.0,298.0 303.0,307.0 311.0,308.0 304.0,299.0" stroke="#855a62" stroke-width="1"/>
  <polyline fill="none" points="494.0,492.0 494.0,498.0 501.0,505.0 505.0,505.0 505.0,501.0 498.0,492.0" stroke="#bf1837" stroke-width="1"/>
  <polyline fill="none" points="377.0,531.0 382.0,532.0 385.0,538.0 385.0,548.0 382.0,549.0 380.0,542.0 376.0,542.0 371.0,557.0 370.0,547.0 377.0,532.0" stroke="#274011" stroke-width="1"/>
  <polyline fill="none" points="277.0,302.0 272.0,304.0 271.0,317.0 264.0,319.0 266.0,333.0 271.0,333.0 271.0,325.0 280.0,316.0 282.0,302.0" stroke="#50cb6f" stroke-width="1"/>
  <polyline fill="none" points="488.0,505.0 487.0,522.0 490.0,525.0 487.0,526.0 486.0,546.0 483.0,549.0 483.0,554.0 486.0,555.0 494.0,544.0 494.0,520.0 490.0,505.0" stroke="#783d4f" stroke-width="1"/>
  <polyline fill="none" points="249.0,450.0 246.0,459.0 253.0,459.0 251.0,450.0" stroke="#a8422b" stroke-width="1"/>
  <polyline fill="none" points="374.0,564.0 378.0,566.0 377.0,579.0 373.0,579.0 374.0,571.0" stroke="#809b2f" stroke-width="1"/>
  <polyline fill="none" points="239.0,376.0 234.0,384.0 233.0,401.0 225.0,415.0 224.0,424.0 227.0,428.0 237.0,486.0 250.0,512.0 203.0,590.0 203.0,595.0 209.0,593.0 208.0,599.0 221.0,592.0 260.0,528.0 261.0,517.0 255.0,502.0 259.0,501.0 260.0,497.0 269.0,495.0 265.0,481.0 259.0,479.0 257.0,486.0 245.0,473.0 242.0,463.0 244.0,458.0 242.0,449.0 245.0,447.0 244.0,424.0 241.0,423.0 243.0,404.0 241.0,396.0 245.0,394.0 245.0,390.0 241.0,389.0 243.0,376.0" stroke="#ddfb6e" stroke-width="1"/>
  <polyline fill="none" points="312.0,564.0 312.0,572.0 308.0,576.0 310.0,581.0 315.0,579.0 316.0,581.0 312.0,573.0 313.0,567.0 321.0,574.0 320.0,568.0 313.0,565.0" stroke="#010665" stroke-width="1"/>
  <polyline fill="none" points="234.0,298.0 226.0,299.0 225.0,307.0 234.0,304.0 238.0,298.0" stroke="#18f4b8" stroke-width="1"/>
  <polyline fill="none" points="281.0,557.0 284.0,560.0 280.0,563.0 279.0,559.0" stroke="#e27d37" stroke-width="1"/>
  <polyline fill="none" points="289.0,562.0 293.0,562.0 299.0,569.0 296.0,576.0 286.0,575.0 281.0,571.0 286.0,568.0 287.0,562.0" stroke="#d80059" stroke-width="1"/>
  <polyline fill="none" points="357.0,589.0 362.0,602.0 359.0,609.0 354.0,607.0 355.0,591.0" stroke="#000217" stroke-width="1"/>
  <polyline fill="none" points="541.0,543.0 549.0,547.0 551.0,554.0 549.0,559.0 545.0,557.0 540.0,552.0 541.0,544.0" stroke="#ec8ff9" stroke-width="1"/>
  <polyline fill="none" points="189.0,369.0 192.0,371.0 187.0,373.0 186.0,369.0" stroke="#9be97d" stroke-width="1"/>
  <polyline fill="none" points="464.0,593.0 459.0,609.0 459.0,613.0 463.0,615.0 467.0,602.0 465.0,593.0" stroke="#97acb2" stroke-width="1"/>
  <polyline fill="none" points="193.0,323.0 203.0,325.0 197.0,327.0 194.0,324.0" stroke="#2e0210" stroke-width="1"/>
  <polyline fill="none" points="187.0,264.0 182.0,272.0 175.0,266.0 174.0,269.0 170.0,269.0 167.0,279.0 159.0,283.0 154.0,295.0 170.0,296.0 178.0,303.0 186.0,303.0 193.0,311.0 193.0,317.0 190.0,319.0 184.0,309.0 178.0,308.0 175.0,327.0 163.0,332.0 154.0,331.0 154.0,341.0 157.0,349.0 163.0,351.0 161.0,353.0 163.0,370.0 173.0,377.0 182.0,392.0 190.0,395.0 206.0,395.0 219.0,389.0 235.0,376.0 241.0,360.0 243.0,333.0 251.0,326.0 253.0,318.0 250.0,302.0 241.0,302.0 223.0,314.0 220.0,303.0 214.0,300.0 210.0,300.0 208.0,309.0 194.0,301.0 192.0,297.0 195.0,292.0 211.0,289.0 213.0,295.0 218.0,295.0 233.0,294.0 234.0,290.0 215.0,280.0 204.0,269.0 192.0,264.0" stroke="#a5ee74" stroke-width="1"/>
  <polyline fill="none" points="510.0,208.0 505.0,218.0 512.0,217.0 511.0,209.0" stroke="#db547e" stroke-width="1"/>
  <polyline fill="none" points="559.0,540.0 560.0,549.0 567.0,549.0 563.0,540.0" stroke="#26a1d0" stroke-width="1"/>
  <polyline fill="none" points="202.0,333.0 205.0,332.0 205.0,336.0 198.0,341.0 191.0,341.0 184.0,348.0 178.0,349.0 171.0,341.0 173.0,336.0 202.0,334.0" stroke="#e320d6" stroke-width="1"/>
  <polyline fill="none" points="559.0,239.0 555.0,245.0 550.0,247.0 549.0,244.0 546.0,251.0 534.0,258.0 559.0,241.0 568.0,246.0 576.0,241.0 584.0,256.0 585.0,253.0 578.0,242.0 567.0,244.0 559.0,240.0" stroke="#c37837" stroke-width="1"/>
  <polyline fill="none" points="154.0,426.0 169.0,443.0 206.0,468.0 212.0,469.0 185.0,454.0 166.0,439.0 166.0,433.0 165.0,435.0 158.0,430.0" stroke="#140a21" stroke-width="1"/>
  <polyline fill="none" points="513.0,585.0 508.0,586.0 506.0,591.0 506.0,596.0 511.0,598.0 513.0,590.0" stroke="#8b1248" stroke-width="1"/>
  <polyline fill="none" points="182.0,353.0 205.0,353.0 211.0,356.0 183.0,360.0 183.0,367.0 178.0,371.0 167.0,354.0 181.0,353.0" stroke="#b96aec" stroke-width="1"/>
  <polyline fill="none" points="242.0,239.0 238.0,243.0 244.0,247.0 247.0,247.0 247.0,243.0 243.0,239.0" stroke="#ced00c" stroke-width="1"/>
  <polyline fill="none" points="248.0,233.0 246.0,237.0 250.0,240.0 255.0,240.0 255.0,237.0 249.0,233.0" stroke="#107d7e" stroke-width="1"/>
  <polyline fill="none" points="287.0,598.0 290.0,602.0 287.0,604.0 285.0,600.0" stroke="#2a415e" stroke-width="1"/>
  <polyline fill="none" points="451.0,613.0 445.0,616.0 444.0,627.0 462.0,649.0 463.0,645.0 473.0,647.0 473.0,643.0 461.0,637.0 452.0,613.0" stroke="#49611f" stroke-width="1"/>
  <polyline fill="none" points="653.0,387.0 657.0,392.0 648.0,407.0 643.0,407.0 639.0,402.0 626.0,406.0 617.0,401.0 626.0,398.0 637.0,400.0 646.0,392.0 652.0,393.0 649.0,391.0" stroke="#d93ea7" stroke-width="1"/>
  <polyline fill="none" points="154.0,433.0 155.0,439.0 164.0,449.0 169.0,449.0 169.0,443.0 155.0,433.0" stroke="#ace3c1" stroke-width="1"/>
  <polyline fill="none" points="272.0,609.0 280.0,613.0 275.0,615.0 272.0,611.0" stroke="#61b170" stroke-width="1"/>
  <polyline fill="none" points="425.0,642.0 428.0,644.0 425.0,649.0 425.0,643.0" stroke="#8668f1" stroke-width="1"/>
  <polyline fill="none" points="443.0,620.0 441.0,625.0 467.0,663.0 448.0,636.0 443.0,624.0" stroke="#b01885" stroke-width="1"/>
  <polyline fill="none" points="656.0,471.0 648.0,480.0 629.0,486.0 625.0,493.0 610.0,496.0 608.0,502.0 610.0,508.0 605.0,512.0 608.0,517.0 607.0,524.0 595.0,528.0 593.0,522.0 583.0,519.0 582.0,513.0 573.0,513.0 569.0,517.0 570.0,523.0 582.0,527.0 642.0,538.0 666.0,535.0 664.0,530.0 671.0,528.0 671.0,519.0 667.0,518.0 664.0,521.0 656.0,516.0 657.0,505.0 651.0,494.0 662.0,476.0 660.0,471.0" stroke="#113ea9" stroke-width="1"/>
  <polyline fill="none" points="313.0,641.0 314.0,647.0 311.0,645.0 312.0,641.0" stroke="#5a3aae" stroke-width="1"/>
  <polyline fill="none" points="571.0,584.0 574.0,596.0 578.0,596.0 579.0,593.0 575.0,584.0" stroke="#efb025" stroke-width="1"/>
  <polyline fill="none" points="320.0,645.0 328.0,645.0 323.0,651.0 320.0,649.0" stroke="#4f98de" stroke-width="1"/>
  <polyline fill="none" points="154.0,473.0 149.0,483.0 155.0,482.0 157.0,478.0 155.0,474.0" stroke="#a99d47" stroke-width="1"/>
  <polyline fill="none" points="325.0,655.0 329.0,656.0 326.0,660.0 322.0,657.0 324.0,655.0" stroke="#efdbf7" stroke-width="1"/>
  <polyline fill="none" points="565.0,179.0 561.0,185.0 564.0,189.0 577.0,187.0 577.0,180.0 570.0,179.0" stroke="#4ce35b" stroke-width="1"/>
  <polyline fill="none" points="620.0,253.0 622.0,258.0 634.0,263.0 645.0,276.0 659.0,282.0 659.0,288.0 669.0,302.0 661.0,291.0 662.0,283.0 652.0,280.0 635.0,263.0 620.0,255.0" stroke="#399cb7" stroke-width="1"/>
  <polyline fill="none" points="146.0,520.0 148.0,528.0 153.0,520.0" stroke="#ec1f33" stroke-width="1"/>
  <polyline fill="none" points="140.0,504.0 145.0,504.0 144.0,513.0 139.0,511.0 140.0,505.0" stroke="#3ba188" stroke-width="1"/>
  <polyline fill="none" points="203.0,600.0 203.0,607.0 208.0,603.0 204.0,600.0" stroke="#46219a" stroke-width="1"/>
  <polyline fill="none" points="169.0,562.0 168.0,567.0 173.0,568.0 174.0,577.0 179.0,576.0 179.0,572.0 173.0,570.0 176.0,566.0 174.0,562.0" stroke="#49fb04" stroke-width="1"/>
  <polyline fill="none" points="693.0,364.0 693.0,370.0 697.0,370.0 698.0,364.0" stroke="#571727" stroke-width="1"/>
  <polyline fill="none" points="345.0,690.0 344.0,697.0 349.0,696.0 347.0,690.0" stroke="#67cd58" stroke-width="1"/>
  <polyline fill="none" points="609.0,609.0 601.0,613.0 601.0,617.0 606.0,621.0 620.0,618.0 620.0,614.0 614.0,609.0" stroke="#1b9af3" stroke-width="1"/>
  <polyline fill="none" points="703.0,421.0 702.0,428.0 705.0,429.0 707.0,421.0" stroke="#57201c" stroke-width="1"/>
  <polyline fill="none" points="701.0,466.0 708.0,469.0 702.0,478.0 699.0,480.0 697.0,477.0 698.0,469.0" stroke="#e89460" stroke-width="1"/>
  <polyline fill="none" points="611.0,175.0 621.0,177.0 618.0,180.0 611.0,177.0" stroke="#c2d4cc" stroke-width="1"/>
  <polyline points="399.0,359.0 425.0,400.0" fill="none" stroke="#e3c272" stroke-width="1"/><polyline points="354.0,414.0 350.0,415.0 348.0,422.0 341.0,421.0" fill="none" stroke="#8c846c" stroke-width="1"/><polyline points="342.0,421.0 350.0,421.0 351.0,415.0 358.0,416.0 356.0,421.0 358.0,429.0 350.0,432.0 356.0,436.0 354.0,449.0 355.0,434.0 362.0,428.0" fill="none" stroke="#8c846c" stroke-width="1"/><polyline points="329.0,362.0 351.0,384.0" fill="none" stroke="#f81547" stroke-width="1"/><polyline points="351.0,384.0 344.0,372.0 339.0,372.0" fill="none" stroke="#f81547" stroke-width="1"/><polyline points="320.0,329.0 317.0,335.0 321.0,337.0 319.0,342.0 322.0,347.0 320.0,338.0 324.0,338.0 324.0,347.0 342.0,361.0 371.0,400.0 379.0,417.0 379.0,427.0 380.0,421.0 372.0,398.0 366.0,394.0" fill="none" stroke="#ae055e" stroke-width="1"/><polyline points="324.0,346.0 326.0,332.0 338.0,337.0 340.0,343.0 331.0,348.0 338.0,346.0 339.0,353.0 343.0,353.0" fill="none" stroke="#ae055e" stroke-width="1"/><polyline points="343.0,353.0 351.0,358.0 365.0,377.0" fill="none" stroke="#ae055e" stroke-width="1"/><polyline points="364.0,378.0 368.0,379.0 350.0,357.0 352.0,355.0 341.0,352.0 342.0,349.0 338.0,345.0 342.0,340.0 352.0,343.0 356.0,347.0 356.0,356.0" fill="none" stroke="#ae055e" stroke-width="1"/><polyline points="356.0,346.0 329.0,332.0 322.0,332.0 324.0,333.0 322.0,337.0" fill="none" stroke="#ae055e" stroke-width="1"/><polyline points="381.0,428.0 380.0,444.0 377.0,446.0 372.0,437.0 375.0,447.0 380.0,448.0 374.0,472.0 370.0,470.0 373.0,470.0 372.0,447.0 366.0,446.0 365.0,451.0 358.0,449.0 363.0,433.0 370.0,431.0" fill="none" stroke="#fd32db" stroke-width="1"/><polyline points="370.0,431.0 364.0,431.0 360.0,437.0 360.0,445.0 354.0,452.0 349.0,451.0 350.0,447.0 343.0,433.0 350.0,450.0 337.0,455.0 326.0,455.0 326.0,463.0" fill="none" stroke="#fd32db" stroke-width="1"/><polyline points="326.0,464.0 328.0,454.0 335.0,454.0 337.0,456.0 330.0,458.0" fill="none" stroke="#fd32db" stroke-width="1"/><polyline points="330.0,459.0 335.0,457.0 338.0,462.0 342.0,462.0 352.0,475.0" fill="none" stroke="#fd32db" stroke-width="1"/><polyline points="353.0,474.0 344.0,467.0 344.0,464.0" fill="none" stroke="#fd32db" stroke-width="1"/><polyline points="345.0,463.0 339.0,462.0 337.0,455.0 339.0,459.0 341.0,453.0 366.0,451.0 366.0,457.0 358.0,463.0 361.0,463.0 363.0,458.0 366.0,459.0 366.0,486.0 366.0,447.0 370.0,446.0 373.0,450.0 372.0,468.0 368.0,467.0 373.0,474.0 377.0,453.0 386.0,454.0 383.0,472.0 381.0,475.0 377.0,472.0 377.0,475.0 382.0,475.0 385.0,460.0 390.0,456.0 387.0,457.0 385.0,452.0 380.0,452.0 381.0,440.0 386.0,441.0 386.0,450.0 386.0,437.0" fill="none" stroke="#fd32db" stroke-width="1"/><polyline points="300.0,342.0 307.0,355.0 319.0,357.0 327.0,364.0 345.0,400.0 342.0,407.0 327.0,408.0 327.0,405.0 342.0,401.0" fill="none" stroke="#eaeb1a" stroke-width="1"/><polyline points="342.0,401.0 315.0,410.0" fill="none" stroke="#eaeb1a" stroke-width="1"/><polyline points="316.0,410.0 326.0,406.0 326.0,410.0 317.0,414.0 323.0,413.0 325.0,418.0 320.0,420.0" fill="none" stroke="#eaeb1a" stroke-width="1"/><polyline points="320.0,421.0 327.0,416.0 339.0,415.0" fill="none" stroke="#eaeb1a" stroke-width="1"/><polyline points="327.0,416.0 323.0,415.0" fill="none" stroke="#eaeb1a" stroke-width="1"/><polyline points="343.0,406.0 346.0,408.0 346.0,415.0 344.0,393.0 335.0,379.0 333.0,380.0" fill="none" stroke="#eaeb1a" stroke-width="1"/><polyline points="344.0,328.0 351.0,330.0 359.0,340.0 369.0,338.0 377.0,349.0 380.0,346.0 370.0,334.0 360.0,328.0 372.0,337.0" fill="none" stroke="#ddce93" stroke-width="1"/><polyline points="369.0,338.0 363.0,340.0" fill="none" stroke="#ddce93" stroke-width="1"/><polyline points="310.0,411.0 306.0,416.0 300.0,416.0 312.0,424.0 309.0,433.0 297.0,435.0 288.0,425.0" fill="none" stroke="#1cb352" stroke-width="1"/><polyline points="287.0,425.0 295.0,434.0 307.0,435.0 306.0,438.0 298.0,440.0 295.0,451.0 290.0,450.0 294.0,448.0 294.0,442.0 289.0,440.0 281.0,450.0" fill="none" stroke="#1cb352" stroke-width="1"/><polyline points="291.0,440.0 294.0,447.0 289.0,448.0 291.0,452.0 297.0,452.0 299.0,468.0 300.0,453.0 299.0,448.0 296.0,451.0 296.0,447.0 301.0,438.0 308.0,438.0 317.0,447.0 319.0,440.0 318.0,442.0 314.0,438.0 316.0,429.0 318.0,434.0 323.0,434.0" fill="none" stroke="#1cb352" stroke-width="1"/><polyline points="317.0,429.0 325.0,426.0 330.0,431.0 328.0,435.0 333.0,430.0 348.0,431.0 343.0,429.0 346.0,427.0 350.0,429.0 346.0,424.0 341.0,430.0" fill="none" stroke="#1cb352" stroke-width="1"/><polyline points="325.0,426.0 328.0,423.0 333.0,427.0 332.0,425.0 337.0,423.0 327.0,423.0 322.0,428.0 313.0,429.0 314.0,438.0 319.0,444.0 316.0,447.0 312.0,439.0 307.0,437.0 316.0,421.0" fill="none" stroke="#1cb352" stroke-width="1"/><polyline points="315.0,422.0 312.0,424.0 302.0,418.0" fill="none" stroke="#1cb352" stroke-width="1"/><polyline points="295.0,347.0 287.0,364.0 261.0,384.0 255.0,397.0 256.0,420.0 265.0,442.0 276.0,435.0 272.0,428.0 277.0,424.0" fill="none" stroke="#2b97f6" stroke-width="1"/><polyline points="313.0,424.0 311.0,416.0 315.0,410.0 323.0,406.0 330.0,408.0 326.0,415.0" fill="none" stroke="#2b97f6" stroke-width="1"/><polyline points="346.0,408.0 335.0,406.0 343.0,403.0 344.0,399.0 331.0,367.0" fill="none" stroke="#2b97f6" stroke-width="1"/><polyline points="350.0,481.0 356.0,487.0 354.0,489.0 351.0,486.0 344.0,486.0 316.0,496.0 309.0,503.0 301.0,502.0 299.0,498.0 302.0,494.0 322.0,486.0 342.0,483.0 347.0,478.0 344.0,471.0 331.0,464.0 326.0,472.0 319.0,474.0 302.0,488.0 296.0,480.0 296.0,472.0" fill="none" stroke="#444794" stroke-width="1"/><polyline points="318.0,474.0 304.0,487.0 298.0,483.0 296.0,473.0 317.0,465.0 306.0,471.0 292.0,473.0 279.0,482.0 282.0,480.0" fill="none" stroke="#c5a3a8" stroke-width="1"/><polyline points="283.0,480.0 294.0,473.0 302.0,491.0 306.0,486.0" fill="none" stroke="#c5a3a8" stroke-width="1"/><polyline points="307.0,486.0 319.0,474.0 336.0,465.0 347.0,474.0 345.0,481.0 314.0,489.0 301.0,500.0 307.0,502.0 320.0,494.0 347.0,485.0 360.0,494.0 361.0,491.0 357.0,491.0 356.0,487.0" fill="none" stroke="#c5a3a8" stroke-width="1"/><polyline points="355.0,490.0 347.0,485.0 314.0,497.0" fill="none" stroke="#c5a3a8" stroke-width="1"/><polyline points="345.0,481.0 349.0,475.0 337.0,465.0" fill="none" stroke="#c5a3a8" stroke-width="1"/><polyline points="528.0,358.0 512.0,369.0 495.0,367.0 494.0,379.0 490.0,378.0" fill="none" stroke="#d19688" stroke-width="1"/><polyline points="490.0,379.0 494.0,382.0 494.0,395.0 505.0,421.0 508.0,431.0 506.0,432.0 517.0,452.0 530.0,466.0 555.0,486.0 571.0,493.0 579.0,491.0 564.0,490.0 542.0,476.0" fill="none" stroke="#d19688" stroke-width="1"/><polyline points="507.0,432.0 500.0,409.0 515.0,421.0 497.0,402.0 494.0,392.0 494.0,370.0" fill="none" stroke="#d19688" stroke-width="1"/><polyline points="512.0,369.0 527.0,360.0 534.0,362.0" fill="none" stroke="#d19688" stroke-width="1"/><polyline points="438.0,462.0 439.0,469.0 425.0,502.0 424.0,529.0 439.0,544.0 442.0,542.0 445.0,547.0 450.0,548.0 452.0,547.0" fill="none" stroke="#734c16" stroke-width="1"/><polyline points="444.0,542.0 454.0,525.0 458.0,524.0 454.0,522.0 456.0,515.0" fill="none" stroke="#734c16" stroke-width="1"/><polyline points="443.0,542.0 432.0,537.0 435.0,535.0 431.0,531.0 431.0,526.0 432.0,535.0" fill="none" stroke="#734c16" stroke-width="1"/><polyline points="478.0,237.0 465.0,268.0 441.0,358.0 435.0,371.0 428.0,378.0 415.0,373.0 385.0,340.0 360.0,326.0 381.0,347.0 379.0,357.0 383.0,361.0 384.0,372.0 373.0,351.0 370.0,352.0 368.0,348.0 362.0,348.0 362.0,353.0 371.0,357.0 360.0,358.0 360.0,362.0 365.0,366.0 371.0,379.0 371.0,386.0 381.0,401.0 376.0,404.0 381.0,407.0 384.0,402.0 387.0,405.0 392.0,425.0 390.0,438.0 394.0,446.0 387.0,456.0" fill="none" stroke="#06bd98" stroke-width="1"/><polyline points="381.0,442.0 383.0,450.0 377.0,454.0 375.0,472.0 372.0,472.0 373.0,448.0 369.0,443.0 368.0,433.0 362.0,436.0 361.0,442.0 369.0,445.0" fill="none" stroke="#06bd98" stroke-width="1"/><polyline points="364.0,450.0 351.0,451.0" fill="none" stroke="#06bd98" stroke-width="1"/><polyline points="357.0,430.0 358.0,425.0 355.0,423.0" fill="none" stroke="#06bd98" stroke-width="1"/><polyline points="350.0,421.0 345.0,422.0" fill="none" stroke="#06bd98" stroke-width="1"/><polyline points="317.0,446.0 314.0,445.0 312.0,438.0 302.0,438.0 295.0,451.0 292.0,441.0" fill="none" stroke="#06bd98" stroke-width="1"/><polyline points="281.0,450.0 276.0,446.0 274.0,449.0 266.0,450.0 267.0,474.0 281.0,490.0 293.0,496.0 295.0,508.0 316.0,528.0 328.0,530.0 343.0,527.0 355.0,519.0 359.0,509.0 362.0,511.0 359.0,520.0 360.0,551.0 356.0,564.0 366.0,569.0 362.0,586.0 360.0,588.0 357.0,584.0 353.0,587.0 349.0,582.0 345.0,582.0 343.0,592.0 337.0,586.0 339.0,579.0 324.0,569.0 328.0,585.0 328.0,589.0 324.0,591.0 320.0,588.0 322.0,582.0 317.0,582.0 314.0,575.0 308.0,578.0 305.0,576.0 300.0,556.0 291.0,552.0 288.0,544.0 284.0,544.0 265.0,566.0 265.0,570.0 272.0,575.0 273.0,607.0 265.0,604.0 258.0,619.0 263.0,619.0 268.0,626.0 277.0,626.0 281.0,644.0 278.0,648.0 267.0,648.0 267.0,652.0 288.0,662.0 293.0,678.0 303.0,693.0 301.0,698.0 296.0,697.0 299.0,713.0 306.0,716.0 305.0,708.0 309.0,709.0 311.0,726.0 321.0,732.0 322.0,738.0 330.0,748.0 330.0,761.0 344.0,766.0 347.0,760.0 355.0,758.0 356.0,748.0 364.0,758.0 368.0,758.0 366.0,677.0 354.0,667.0 350.0,659.0 343.0,660.0 346.0,657.0 343.0,650.0 335.0,651.0 332.0,648.0 334.0,645.0 340.0,648.0 348.0,644.0 356.0,646.0 355.0,637.0 351.0,637.0 348.0,643.0 344.0,639.0 333.0,641.0 331.0,634.0 324.0,637.0 312.0,636.0 310.0,632.0 312.0,609.0 307.0,608.0 305.0,596.0 309.0,597.0 311.0,605.0 318.0,607.0 318.0,611.0 326.0,609.0 330.0,613.0 335.0,613.0 335.0,609.0 328.0,603.0 329.0,601.0 339.0,604.0 343.0,597.0 345.0,601.0 351.0,602.0 350.0,613.0 354.0,619.0 362.0,615.0 360.0,621.0 366.0,623.0 364.0,631.0 370.0,632.0 370.0,624.0 367.0,619.0 366.0,623.0 364.0,621.0 364.0,615.0 370.0,615.0 379.0,590.0 398.0,571.0 403.0,558.0 409.0,556.0 410.0,573.0 406.0,583.0 407.0,603.0 404.0,615.0 405.0,645.0 402.0,646.0 403.0,656.0 399.0,662.0 402.0,672.0 395.0,703.0 382.0,725.0 381.0,737.0 392.0,742.0 392.0,763.0 396.0,770.0 401.0,770.0 405.0,758.0 413.0,762.0 412.0,770.0 416.0,768.0 420.0,758.0 425.0,758.0 441.0,741.0 447.0,718.0 451.0,712.0 455.0,713.0 449.0,685.0 449.0,672.0 454.0,672.0 452.0,660.0 455.0,659.0 455.0,655.0 439.0,628.0 429.0,617.0 424.0,587.0 434.0,560.0 442.0,553.0 457.0,552.0 458.0,544.0 472.0,526.0 477.0,508.0 474.0,487.0 478.0,475.0 471.0,454.0 468.0,456.0 454.0,500.0 454.0,507.0 459.0,508.0 457.0,517.0" fill="none" stroke="#06bd98" stroke-width="1"/><polyline points="430.0,537.0 426.0,532.0 424.0,509.0 432.0,484.0 430.0,474.0 437.0,448.0 442.0,443.0 442.0,435.0 447.0,440.0 449.0,453.0 452.0,453.0 453.0,448.0 461.0,440.0 464.0,443.0 463.0,451.0 469.0,452.0" fill="none" stroke="#06bd98" stroke-width="1"/><polyline points="468.0,425.0 464.0,437.0 465.0,419.0 457.0,414.0 452.0,415.0 447.0,411.0 447.0,407.0 450.0,402.0 452.0,354.0 458.0,334.0 456.0,322.0 460.0,298.0" fill="none" stroke="#06bd98" stroke-width="1"/><polyline points="292.0,275.0 291.0,281.0 293.0,277.0 297.0,281.0 295.0,284.0 296.0,287.0 298.0,285.0 297.0,289.0 302.0,292.0 301.0,307.0" fill="none" stroke="#24e09e" stroke-width="1"/><polyline points="302.0,294.0 309.0,308.0 317.0,316.0 310.0,322.0 320.0,317.0 314.0,312.0 326.0,318.0 321.0,322.0" fill="none" stroke="#24e09e" stroke-width="1"/><polyline points="321.0,323.0 317.0,324.0 316.0,321.0 320.0,324.0 327.0,318.0 333.0,320.0 311.0,308.0" fill="none" stroke="#24e09e" stroke-width="1"/><polyline points="488.0,464.0 500.0,481.0 503.0,494.0 510.0,504.0 506.0,499.0 509.0,495.0" fill="none" stroke="#4477f6" stroke-width="1"/><polyline points="509.0,495.0 505.0,497.0 499.0,479.0" fill="none" stroke="#4477f6" stroke-width="1"/><polyline points="295.0,507.0 308.0,524.0 318.0,530.0 338.0,531.0 353.0,523.0 356.0,519.0 351.0,524.0 347.0,520.0 348.0,517.0 354.0,517.0 360.0,511.0 359.0,506.0 363.0,499.0 362.0,514.0 357.0,523.0 360.0,535.0 359.0,553.0 355.0,564.0" fill="none" stroke="#cb85cb" stroke-width="1"/><polyline points="359.0,553.0 360.0,530.0 363.0,526.0" fill="none" stroke="#cb85cb" stroke-width="1"/><polyline points="360.0,530.0 357.0,523.0 361.0,518.0 362.0,508.0 369.0,507.0 363.0,506.0 361.0,496.0 358.0,512.0" fill="none" stroke="#cb85cb" stroke-width="1"/><polyline points="348.0,516.0 349.0,522.0 343.0,528.0" fill="none" stroke="#cb85cb" stroke-width="1"/><polyline points="319.0,530.0 303.0,518.0 298.0,509.0 302.0,504.0" fill="none" stroke="#cb85cb" stroke-width="1"/><polyline points="262.0,317.0 265.0,334.0 269.0,339.0 264.0,344.0 258.0,343.0 259.0,332.0 263.0,328.0 261.0,327.0 256.0,348.0" fill="none" stroke="#932da1" stroke-width="1"/><polyline points="265.0,344.0 270.0,352.0 281.0,351.0 281.0,345.0 304.0,332.0 295.0,333.0 292.0,338.0 286.0,336.0 289.0,339.0" fill="none" stroke="#932da1" stroke-width="1"/><polyline points="281.0,350.0 279.0,351.0 278.0,347.0 276.0,352.0" fill="none" stroke="#932da1" stroke-width="1"/><polyline points="265.0,344.0 278.0,324.0 273.0,334.0 268.0,337.0 264.0,325.0 266.0,320.0 263.0,323.0 262.0,319.0" fill="none" stroke="#932da1" stroke-width="1"/><polyline points="294.0,343.0 294.0,351.0 287.0,363.0 265.0,379.0 256.0,393.0 254.0,418.0 259.0,427.0 260.0,441.0 252.0,436.0" fill="none" stroke="#6e3c86" stroke-width="1"/><polyline points="251.0,435.0 258.0,442.0 256.0,454.0 258.0,453.0" fill="none" stroke="#6e3c86" stroke-width="1"/><polyline points="258.0,453.0 260.0,446.0 260.0,451.0" fill="none" stroke="#6e3c86" stroke-width="1"/><polyline points="257.0,443.0 260.0,441.0 265.0,452.0 266.0,467.0 263.0,468.0" fill="none" stroke="#6e3c86" stroke-width="1"/><polyline points="263.0,468.0 263.0,475.0 261.0,477.0 255.0,472.0 250.0,464.0 252.0,469.0 261.0,477.0 262.0,470.0 264.0,468.0 267.0,470.0 270.0,502.0 270.0,495.0 272.0,492.0 274.0,499.0 274.0,493.0 268.0,486.0 266.0,478.0 268.0,476.0 291.0,514.0 289.0,516.0 277.0,506.0" fill="none" stroke="#6e3c86" stroke-width="1"/><polyline points="277.0,507.0 298.0,521.0 299.0,531.0 291.0,533.0 278.0,547.0 284.0,539.0 286.0,541.0 292.0,539.0 293.0,544.0 291.0,545.0 293.0,539.0 297.0,537.0 290.0,539.0 289.0,536.0" fill="none" stroke="#6e3c86" stroke-width="1"/><polyline points="298.0,521.0 319.0,535.0 329.0,537.0 303.0,525.0 283.0,502.0 266.0,473.0 265.0,452.0 258.0,433.0 261.0,432.0 254.0,418.0 254.0,400.0 259.0,387.0" fill="none" stroke="#6e3c86" stroke-width="1"/><polyline points="294.0,349.0 298.0,348.0 294.0,344.0" fill="none" stroke="#6e3c86" stroke-width="1"/><polyline points="480.0,500.0 472.0,527.0 465.0,535.0 464.0,528.0" fill="none" stroke="#43f334" stroke-width="1"/><polyline points="464.0,536.0 453.0,550.0" fill="none" stroke="#43f334" stroke-width="1"/><polyline points="453.0,550.0 472.0,528.0" fill="none" stroke="#43f334" stroke-width="1"/><polyline points="542.0,382.0 540.0,400.0 537.0,401.0 543.0,407.0 542.0,414.0 549.0,423.0 544.0,429.0 533.0,430.0 548.0,427.0" fill="none" stroke="#8c9a77" stroke-width="1"/><polyline points="542.0,413.0 544.0,409.0 560.0,407.0 566.0,401.0 562.0,404.0 547.0,404.0 543.0,395.0 545.0,403.0 562.0,405.0 546.0,410.0 539.0,402.0" fill="none" stroke="#8c9a77" stroke-width="1"/><polyline points="273.0,292.0 269.0,301.0 261.0,308.0 271.0,298.0 277.0,297.0 278.0,293.0 281.0,296.0 281.0,301.0 271.0,304.0 270.0,327.0 273.0,327.0" fill="none" stroke="#85a225" stroke-width="1"/><polyline points="280.0,318.0 283.0,309.0 281.0,295.0" fill="none" stroke="#85a225" stroke-width="1"/><polyline points="254.0,450.0 249.0,451.0 246.0,456.0" fill="none" stroke="#8896a4" stroke-width="1"/><polyline points="524.0,444.0 555.0,482.0 567.0,486.0" fill="none" stroke="#5b7818" stroke-width="1"/><polyline points="556.0,482.0 539.0,463.0 533.0,451.0" fill="none" stroke="#5b7818" stroke-width="1"/><polyline points="512.0,234.0 514.0,236.0 505.0,239.0 503.0,243.0 507.0,245.0 494.0,264.0 488.0,289.0 486.0,291.0 484.0,289.0 484.0,275.0" fill="none" stroke="#4091bf" stroke-width="1"/><polyline points="487.0,292.0 485.0,310.0 487.0,329.0 497.0,325.0" fill="none" stroke="#4091bf" stroke-width="1"/><polyline points="497.0,325.0 493.0,328.0 485.0,326.0 486.0,297.0 491.0,272.0 504.0,249.0 515.0,241.0 509.0,246.0 505.0,242.0 507.0,238.0" fill="none" stroke="#4091bf" stroke-width="1"/><polyline points="585.0,162.0 559.0,168.0 541.0,177.0 510.0,200.0 483.0,228.0 468.0,256.0" fill="none" stroke="#226020" stroke-width="1"/><polyline points="416.0,373.0 378.0,334.0 354.0,324.0 359.0,326.0 355.0,327.0 362.0,326.0 376.0,333.0 394.0,349.0" fill="none" stroke="#226020" stroke-width="1"/><polyline points="387.0,347.0 379.0,351.0 378.0,355.0 384.0,365.0 382.0,369.0 374.0,352.0 378.0,361.0 374.0,364.0 379.0,363.0 388.0,389.0 393.0,395.0 398.0,394.0 391.0,384.0 396.0,393.0 394.0,395.0 387.0,386.0 389.0,373.0 386.0,367.0 389.0,379.0 387.0,381.0 384.0,378.0 382.0,372.0" fill="none" stroke="#226020" stroke-width="1"/><polyline points="379.0,351.0 386.0,349.0 397.0,365.0" fill="none" stroke="#226020" stroke-width="1"/><polyline points="394.0,354.0 398.0,357.0 395.0,351.0 422.0,377.0" fill="none" stroke="#226020" stroke-width="1"/><polyline points="434.0,372.0 448.0,334.0 468.0,256.0 476.0,239.0 508.0,203.0 510.0,207.0 495.0,223.0 493.0,230.0 499.0,230.0 503.0,224.0 507.0,232.0" fill="none" stroke="#226020" stroke-width="1"/><polyline points="507.0,233.0 509.0,236.0 503.0,224.0 497.0,231.0 493.0,230.0 499.0,219.0 506.0,222.0 501.0,218.0" fill="none" stroke="#226020" stroke-width="1"/><polyline points="508.0,203.0 531.0,185.0 532.0,190.0 520.0,202.0 517.0,210.0 519.0,204.0" fill="none" stroke="#226020" stroke-width="1"/><polyline points="532.0,184.0 547.0,174.0 555.0,174.0 551.0,173.0 559.0,168.0 567.0,169.0 565.0,168.0 571.0,165.0 585.0,162.0 613.0,164.0 640.0,170.0 657.0,181.0 680.0,206.0 711.0,267.0" fill="none" stroke="#226020" stroke-width="1"/><polyline points="711.0,267.0 673.0,196.0 653.0,177.0 640.0,170.0" fill="none" stroke="#226020" stroke-width="1"/><polyline points="532.0,230.0 521.0,235.0 518.0,241.0 507.0,248.0 494.0,266.0 486.0,305.0 488.0,324.0 513.0,323.0 524.0,319.0 549.0,326.0 565.0,313.0 613.0,301.0 636.0,304.0 640.0,317.0 629.0,330.0 624.0,330.0 625.0,337.0 622.0,341.0 619.0,340.0 621.0,331.0 607.0,340.0 592.0,337.0 593.0,344.0 606.0,348.0 599.0,351.0 588.0,349.0 588.0,342.0 576.0,343.0 572.0,347.0 566.0,346.0 562.0,337.0 556.0,333.0 550.0,333.0 545.0,337.0 547.0,375.0 542.0,380.0 538.0,398.0 542.0,406.0 561.0,407.0 573.0,397.0 587.0,395.0 589.0,388.0 594.0,385.0 597.0,389.0 591.0,394.0 590.0,406.0 582.0,420.0 602.0,419.0 612.0,415.0 623.0,421.0 621.0,424.0 611.0,423.0 578.0,432.0 568.0,441.0 558.0,441.0 557.0,446.0 580.0,444.0 582.0,446.0 576.0,452.0 557.0,452.0 550.0,447.0 554.0,444.0 548.0,444.0 541.0,438.0 532.0,436.0 526.0,429.0 528.0,426.0 540.0,427.0 539.0,409.0 536.0,405.0 528.0,405.0 538.0,380.0 538.0,357.0 529.0,353.0 526.0,361.0 509.0,369.0" fill="none" stroke="#3b04cd" stroke-width="1"/><polyline points="493.0,379.0 496.0,392.0 502.0,404.0 524.0,418.0 526.0,426.0 520.0,427.0 519.0,432.0 525.0,443.0 541.0,466.0" fill="none" stroke="#3b04cd" stroke-width="1"/><polyline points="568.0,487.0 599.0,485.0 608.0,481.0 642.0,459.0 661.0,439.0 664.0,430.0 670.0,424.0 675.0,402.0 673.0,398.0 667.0,397.0 671.0,396.0 671.0,392.0 668.0,396.0 667.0,391.0 664.0,392.0 661.0,387.0 664.0,382.0 666.0,349.0 671.0,343.0 673.0,331.0 668.0,314.0 650.0,281.0 631.0,263.0 617.0,255.0 617.0,252.0 613.0,253.0 611.0,249.0 608.0,250.0 579.0,235.0 548.0,232.0 537.0,234.0" fill="none" stroke="#3b04cd" stroke-width="1"/><polyline points="513.0,477.0 519.0,492.0 518.0,497.0" fill="none" stroke="#ff8f58" stroke-width="1"/><polyline points="518.0,495.0 525.0,492.0 517.0,490.0 515.0,479.0 517.0,477.0 521.0,479.0 532.0,498.0 532.0,501.0 528.0,502.0 533.0,524.0 532.0,536.0" fill="none" stroke="#ff8f58" stroke-width="1"/><polyline points="531.0,537.0 526.0,544.0" fill="none" stroke="#ff8f58" stroke-width="1"/><polyline points="526.0,544.0 530.0,548.0 530.0,553.0 528.0,555.0" fill="none" stroke="#ff8f58" stroke-width="1"/><polyline points="532.0,501.0 542.0,529.0 540.0,552.0 551.0,566.0 549.0,571.0 543.0,571.0 538.0,560.0 540.0,556.0 538.0,557.0 536.0,565.0 539.0,598.0 538.0,562.0 542.0,565.0 540.0,572.0" fill="none" stroke="#ff8f58" stroke-width="1"/><polyline points="543.0,530.0 535.0,504.0 521.0,478.0" fill="none" stroke="#ff8f58" stroke-width="1"/><polyline points="589.0,407.0 582.0,415.0 583.0,421.0 616.0,417.0 622.0,422.0" fill="none" stroke="#eabf01" stroke-width="1"/><polyline points="569.0,440.0 562.0,440.0 559.0,437.0" fill="none" stroke="#eabf01" stroke-width="1"/><polyline points="560.0,436.0 538.0,435.0 555.0,434.0" fill="none" stroke="#eabf01" stroke-width="1"/><polyline points="615.0,416.0 608.0,419.0" fill="none" stroke="#eabf01" stroke-width="1"/><polyline points="592.0,395.0 598.0,394.0" fill="none" stroke="#eabf01" stroke-width="1"/><polyline points="637.0,323.0 629.0,330.0 627.0,326.0 625.0,329.0 613.0,329.0 612.0,335.0 604.0,340.0 591.0,329.0 587.0,341.0 572.0,347.0 569.0,344.0 574.0,348.0 571.0,360.0 575.0,368.0 571.0,356.0 576.0,344.0 581.0,343.0 581.0,350.0 592.0,356.0 604.0,357.0 609.0,354.0 597.0,357.0" fill="none" stroke="#0f7206" stroke-width="1"/><polyline points="582.0,343.0 589.0,339.0 591.0,332.0 595.0,332.0" fill="none" stroke="#0f7206" stroke-width="1"/><polyline points="612.0,336.0 615.0,328.0" fill="none" stroke="#0f7206" stroke-width="1"/><polyline points="220.0,295.0 204.0,297.0 203.0,300.0 209.0,296.0 217.0,296.0 220.0,301.0 234.0,298.0 233.0,305.0 229.0,307.0" fill="none" stroke="#4650df" stroke-width="1"/><polyline points="230.0,307.0 237.0,297.0" fill="none" stroke="#4650df" stroke-width="1"/><polyline points="306.0,555.0 310.0,562.0 305.0,572.0 305.0,567.0 298.0,558.0 293.0,562.0" fill="none" stroke="#60fb1d" stroke-width="1"/><polyline points="292.0,562.0 282.0,569.0 286.0,569.0 292.0,562.0 299.0,565.0 294.0,560.0 300.0,559.0 305.0,569.0 300.0,571.0" fill="none" stroke="#60fb1d" stroke-width="1"/><polyline points="296.0,577.0 281.0,571.0 277.0,567.0" fill="none" stroke="#60fb1d" stroke-width="1"/><polyline points="277.0,568.0 284.0,574.0 295.0,577.0 304.0,571.0 308.0,586.0 319.0,582.0 320.0,592.0 327.0,591.0 328.0,584.0 332.0,581.0 343.0,593.0 338.0,605.0 333.0,601.0" fill="none" stroke="#60fb1d" stroke-width="1"/><polyline points="333.0,601.0 330.0,597.0 327.0,602.0 313.0,604.0 309.0,600.0" fill="none" stroke="#60fb1d" stroke-width="1"/><polyline points="305.0,595.0 305.0,604.0 313.0,616.0 310.0,629.0 312.0,650.0 318.0,649.0 315.0,648.0 314.0,651.0 311.0,645.0" fill="none" stroke="#60fb1d" stroke-width="1"/><polyline points="313.0,616.0 304.0,600.0 307.0,594.0 311.0,606.0 312.0,603.0 330.0,604.0 323.0,611.0" fill="none" stroke="#60fb1d" stroke-width="1"/><polyline points="332.0,613.0 330.0,612.0 333.0,611.0 326.0,609.0 329.0,605.0 336.0,610.0 331.0,616.0 327.0,614.0 325.0,620.0 314.0,621.0 319.0,623.0 321.0,630.0 345.0,630.0 349.0,635.0 342.0,624.0 342.0,631.0 335.0,630.0 333.0,625.0 335.0,624.0 336.0,628.0 337.0,622.0 334.0,624.0 333.0,619.0 332.0,630.0 319.0,627.0 320.0,622.0 332.0,615.0 356.0,632.0 360.0,630.0 356.0,623.0 363.0,624.0 363.0,627.0 362.0,622.0 356.0,621.0" fill="none" stroke="#60fb1d" stroke-width="1"/><polyline points="356.0,621.0 349.0,612.0 349.0,606.0 343.0,603.0 349.0,601.0" fill="none" stroke="#60fb1d" stroke-width="1"/><polyline points="345.0,597.0 342.0,597.0 345.0,591.0 348.0,594.0 343.0,588.0 343.0,584.0 348.0,581.0 356.0,597.0" fill="none" stroke="#60fb1d" stroke-width="1"/><polyline points="356.0,591.0 353.0,592.0 355.0,587.0 353.0,584.0 358.0,583.0" fill="none" stroke="#60fb1d" stroke-width="1"/><polyline points="353.0,583.0 351.0,580.0 353.0,567.0" fill="none" stroke="#60fb1d" stroke-width="1"/><polyline points="343.0,583.0 345.0,591.0 343.0,592.0 336.0,584.0 338.0,578.0 333.0,573.0 324.0,574.0 322.0,568.0" fill="none" stroke="#60fb1d" stroke-width="1"/><polyline points="322.0,567.0 321.0,563.0 325.0,562.0" fill="none" stroke="#60fb1d" stroke-width="1"/><polyline points="320.0,564.0 326.0,576.0 326.0,584.0 326.0,573.0" fill="none" stroke="#60fb1d" stroke-width="1"/><polyline points="336.0,583.0 330.0,581.0 328.0,589.0 321.0,592.0 323.0,581.0 310.0,587.0 308.0,585.0 311.0,583.0 306.0,582.0" fill="none" stroke="#60fb1d" stroke-width="1"/><polyline points="529.0,503.0 532.0,519.0 526.0,532.0 519.0,535.0 519.0,541.0" fill="none" stroke="#1a94e7" stroke-width="1"/><polyline points="528.0,556.0 520.0,549.0 512.0,552.0 517.0,562.0 520.0,581.0 524.0,583.0 524.0,594.0 522.0,603.0 512.0,617.0 511.0,629.0 515.0,628.0 530.0,606.0 537.0,606.0 540.0,611.0 539.0,580.0 545.0,581.0 546.0,584.0 548.0,575.0 550.0,583.0 556.0,580.0 555.0,543.0 550.0,528.0 544.0,530.0 541.0,528.0" fill="none" stroke="#1a94e7" stroke-width="1"/><polyline points="380.0,589.0 374.0,602.0 368.0,675.0 370.0,672.0" fill="none" stroke="#c3de95" stroke-width="1"/><polyline points="369.0,671.0 371.0,662.0 368.0,657.0 372.0,654.0 370.0,639.0" fill="none" stroke="#c3de95" stroke-width="1"/><polyline points="380.0,590.0 390.0,581.0 391.0,583.0" fill="none" stroke="#c3de95" stroke-width="1"/><polyline points="537.0,562.0 540.0,561.0" fill="none" stroke="#c32fa1" stroke-width="1"/><polyline points="541.0,572.0 539.0,573.0" fill="none" stroke="#c32fa1" stroke-width="1"/><polyline points="284.0,543.0 253.0,579.0 240.0,587.0 239.0,594.0 255.0,594.0 256.0,602.0 258.0,592.0 256.0,590.0 252.0,593.0 241.0,593.0 240.0,588.0 252.0,581.0 264.0,567.0 271.0,573.0 273.0,607.0" fill="none" stroke="#ac757e" stroke-width="1"/><polyline points="273.0,605.0 280.0,605.0 272.0,601.0 272.0,575.0 268.0,568.0" fill="none" stroke="#ac757e" stroke-width="1"/><polyline points="285.0,543.0 292.0,552.0 299.0,553.0 302.0,558.0 302.0,555.0" fill="none" stroke="#ac757e" stroke-width="1"/><polyline points="237.0,233.0 235.0,236.0 219.0,237.0 200.0,244.0 200.0,248.0 194.0,250.0 192.0,255.0 182.0,257.0" fill="none" stroke="#dac4ef" stroke-width="1"/><polyline points="167.0,278.0 157.0,286.0 146.0,322.0 153.0,330.0 154.0,344.0 161.0,363.0 159.0,366.0 158.0,362.0 152.0,364.0 156.0,363.0 163.0,370.0 153.0,339.0 153.0,332.0" fill="none" stroke="#dac4ef" stroke-width="1"/><polyline points="146.0,322.0 154.0,294.0 173.0,297.0" fill="none" stroke="#dac4ef" stroke-width="1"/><polyline points="193.0,312.0 193.0,320.0 198.0,324.0 217.0,324.0 198.0,327.0 183.0,308.0 166.0,305.0 166.0,313.0 174.0,313.0 173.0,320.0 169.0,327.0 155.0,329.0 153.0,313.0 160.0,312.0 154.0,311.0 152.0,307.0" fill="none" stroke="#dac4ef" stroke-width="1"/><polyline points="170.0,327.0 173.0,309.0" fill="none" stroke="#dac4ef" stroke-width="1"/><polyline points="184.0,311.0 200.0,332.0 198.0,328.0 204.0,328.0 204.0,332.0 198.0,336.0 177.0,337.0 186.0,339.0 204.0,332.0 206.0,334.0 181.0,348.0 172.0,342.0" fill="none" stroke="#dac4ef" stroke-width="1"/><polyline points="191.0,341.0 204.0,337.0 211.0,344.0" fill="none" stroke="#dac4ef" stroke-width="1"/><polyline points="211.0,345.0 216.0,349.0 215.0,352.0 219.0,346.0 204.0,328.0 206.0,327.0 208.0,331.0 209.0,326.0 222.0,325.0 225.0,322.0" fill="none" stroke="#dac4ef" stroke-width="1"/><polyline points="242.0,302.0 253.0,302.0 260.0,312.0" fill="none" stroke="#dac4ef" stroke-width="1"/><polyline points="254.0,302.0 240.0,296.0 237.0,290.0 199.0,273.0 231.0,287.0 247.0,300.0 225.0,313.0 220.0,310.0" fill="none" stroke="#dac4ef" stroke-width="1"/><polyline points="219.0,310.0 222.0,313.0 221.0,321.0 218.0,323.0 201.0,325.0" fill="none" stroke="#dac4ef" stroke-width="1"/><polyline points="194.0,312.0 209.0,313.0 201.0,312.0 210.0,307.0" fill="none" stroke="#dac4ef" stroke-width="1"/><polyline points="209.0,301.0 210.0,306.0 207.0,309.0" fill="none" stroke="#dac4ef" stroke-width="1"/><polyline points="185.0,303.0 189.0,300.0" fill="none" stroke="#dac4ef" stroke-width="1"/><polyline points="191.0,256.0 197.0,249.0 204.0,249.0" fill="none" stroke="#dac4ef" stroke-width="1"/><polyline points="200.0,245.0 213.0,239.0 216.0,243.0 211.0,246.0 214.0,247.0 212.0,251.0" fill="none" stroke="#dac4ef" stroke-width="1"/><polyline points="218.0,243.0 217.0,239.0 226.0,239.0 219.0,240.0" fill="none" stroke="#dac4ef" stroke-width="1"/><polyline points="238.0,233.0 250.0,233.0 269.0,243.0 284.0,259.0" fill="none" stroke="#dac4ef" stroke-width="1"/><polyline points="284.0,259.0 271.0,244.0" fill="none" stroke="#dac4ef" stroke-width="1"/><polyline points="161.0,381.0 181.0,405.0 185.0,412.0 184.0,417.0 171.0,407.0 180.0,417.0" fill="none" stroke="#2021d6" stroke-width="1"/><polyline points="443.0,559.0 430.0,577.0 430.0,613.0 445.0,640.0 471.0,674.0 471.0,678.0 470.0,672.0" fill="none" stroke="#49900d" stroke-width="1"/><polyline points="430.0,577.0 442.0,561.0" fill="none" stroke="#49900d" stroke-width="1"/><polyline points="319.0,627.0 338.0,631.0 343.0,630.0 344.0,623.0 336.0,621.0" fill="none" stroke="#78f993" stroke-width="1"/><polyline points="537.0,194.0 528.0,218.0 520.0,219.0 517.0,216.0 518.0,212.0 515.0,211.0 524.0,223.0 524.0,220.0 529.0,218.0 531.0,221.0 529.0,225.0 532.0,209.0 537.0,208.0 539.0,223.0 561.0,228.0 563.0,231.0 560.0,232.0 566.0,231.0 593.0,238.0 609.0,252.0 604.0,248.0 605.0,245.0" fill="none" stroke="#9ccc00" stroke-width="1"/><polyline points="603.0,245.0 588.0,236.0 568.0,233.0 562.0,228.0 552.0,228.0" fill="none" stroke="#9ccc00" stroke-width="1"/><polyline points="538.0,209.0 533.0,207.0" fill="none" stroke="#9ccc00" stroke-width="1"/><polyline points="214.0,513.0 210.0,532.0 203.0,535.0 201.0,529.0 197.0,535.0 200.0,531.0 202.0,533.0 199.0,540.0" fill="none" stroke="#641fa1" stroke-width="1"/><polyline points="200.0,540.0 206.0,535.0 209.0,547.0 206.0,538.0 211.0,530.0 212.0,517.0 215.0,513.0 217.0,515.0 211.0,545.0 214.0,564.0 215.0,556.0 212.0,554.0 211.0,545.0 218.0,518.0" fill="none" stroke="#641fa1" stroke-width="1"/><polyline points="258.0,572.0 251.0,582.0 241.0,586.0" fill="none" stroke="#8cfcd5" stroke-width="1"/><polyline points="255.0,589.0 261.0,593.0 265.0,592.0 266.0,587.0 261.0,582.0" fill="none" stroke="#8cfcd5" stroke-width="1"/><polyline points="146.0,436.0 151.0,464.0 145.0,468.0 145.0,482.0 153.0,473.0 146.0,477.0 145.0,468.0 156.0,465.0 151.0,464.0 149.0,454.0 152.0,453.0 167.0,463.0" fill="none" stroke="#add468" stroke-width="1"/><polyline points="168.0,463.0 201.0,484.0 187.0,473.0 171.0,467.0 155.0,454.0 156.0,452.0" fill="none" stroke="#add468" stroke-width="1"/><polyline points="157.0,452.0 151.0,453.0" fill="none" stroke="#add468" stroke-width="1"/><polyline points="531.0,185.0 513.0,199.0" fill="none" stroke="#da74ea" stroke-width="1"/><polyline points="676.0,433.0 638.0,463.0 627.0,465.0 613.0,481.0" fill="none" stroke="#fd2d5f" stroke-width="1"/><polyline points="628.0,465.0 633.0,463.0 636.0,465.0 626.0,472.0 633.0,469.0 642.0,460.0" fill="none" stroke="#fd2d5f" stroke-width="1"/><polyline points="642.0,460.0 644.0,457.0" fill="none" stroke="#fd2d5f" stroke-width="1"/><polyline points="167.0,306.0 165.0,315.0" fill="none" stroke="#39e819" stroke-width="1"/><polyline points="170.0,326.0 173.0,314.0" fill="none" stroke="#39e819" stroke-width="1"/><polyline points="263.0,605.0 262.0,610.0 255.0,616.0 257.0,621.0 268.0,627.0" fill="none" stroke="#832bf6" stroke-width="1"/><polyline points="256.0,616.0 264.0,605.0 268.0,605.0 270.0,611.0 265.0,613.0 266.0,619.0 272.0,614.0 274.0,622.0 277.0,615.0" fill="none" stroke="#832bf6" stroke-width="1"/><polyline points="286.0,596.0 285.0,603.0 290.0,605.0 284.0,614.0 279.0,615.0" fill="none" stroke="#bbdf3e" stroke-width="1"/><polyline points="280.0,645.0 275.0,648.0" fill="none" stroke="#bbdf3e" stroke-width="1"/><polyline points="280.0,645.0 277.0,621.0 281.0,614.0 287.0,612.0 290.0,605.0" fill="none" stroke="#bbdf3e" stroke-width="1"/><polyline points="313.0,636.0 315.0,644.0 317.0,636.0 331.0,634.0 331.0,643.0 323.0,645.0 320.0,642.0 320.0,649.0 323.0,668.0 332.0,690.0 333.0,685.0 323.0,668.0" fill="none" stroke="#b9fac5" stroke-width="1"/><polyline points="331.0,644.0 332.0,640.0 349.0,639.0" fill="none" stroke="#b9fac5" stroke-width="1"/><polyline points="356.0,646.0 356.0,640.0" fill="none" stroke="#b9fac5" stroke-width="1"/><polyline points="356.0,645.0 353.0,646.0" fill="none" stroke="#b9fac5" stroke-width="1"/><polyline points="543.0,495.0 551.0,525.0 545.0,528.0" fill="none" stroke="#b02b3d" stroke-width="1"/><polyline points="546.0,527.0 551.0,529.0 558.0,559.0 559.0,599.0" fill="none" stroke="#b02b3d" stroke-width="1"/><polyline points="559.0,599.0 557.0,581.0 559.0,561.0 563.0,566.0 560.0,568.0 566.0,572.0 565.0,577.0 568.0,579.0 578.0,610.0 579.0,605.0 582.0,605.0 584.0,610.0 585.0,605.0 591.0,611.0 585.0,613.0 592.0,614.0 586.0,605.0 581.0,603.0 584.0,596.0 569.0,570.0 566.0,553.0 570.0,553.0 571.0,549.0 601.0,566.0 602.0,571.0 604.0,567.0 617.0,572.0 634.0,571.0 667.0,561.0 672.0,565.0 660.0,571.0 637.0,577.0 617.0,578.0 595.0,572.0 568.0,554.0 590.0,570.0 610.0,577.0 637.0,577.0 665.0,568.0 671.0,572.0 666.0,575.0" fill="none" stroke="#b02b3d" stroke-width="1"/><polyline points="666.0,575.0 674.0,571.0 675.0,575.0 669.0,582.0 658.0,592.0 651.0,590.0" fill="none" stroke="#b02b3d" stroke-width="1"/><polyline points="658.0,593.0 665.0,585.0" fill="none" stroke="#b02b3d" stroke-width="1"/><polyline points="675.0,571.0 666.0,568.0 688.0,553.0" fill="none" stroke="#b02b3d" stroke-width="1"/><polyline points="667.0,561.0 685.0,546.0" fill="none" stroke="#b02b3d" stroke-width="1"/><polyline points="666.0,561.0 655.0,566.0 617.0,572.0 599.0,566.0 574.0,551.0 560.0,534.0 559.0,525.0 557.0,528.0 571.0,549.0" fill="none" stroke="#b02b3d" stroke-width="1"/><polyline points="569.0,569.0 565.0,571.0 560.0,558.0 560.0,554.0" fill="none" stroke="#b02b3d" stroke-width="1"/><polyline points="560.0,552.0 560.0,548.0 564.0,547.0 558.0,545.0 561.0,540.0 556.0,546.0 556.0,539.0 555.0,542.0 552.0,539.0 550.0,514.0" fill="none" stroke="#b02b3d" stroke-width="1"/><polyline points="500.0,621.0 492.0,629.0 491.0,637.0" fill="none" stroke="#b2d765" stroke-width="1"/><polyline points="490.0,637.0 497.0,641.0 495.0,654.0 497.0,651.0 497.0,658.0 503.0,669.0 507.0,667.0 499.0,647.0 507.0,646.0 507.0,640.0 499.0,646.0 497.0,640.0 492.0,639.0" fill="none" stroke="#b2d765" stroke-width="1"/><polyline points="295.0,625.0 294.0,630.0 299.0,636.0 289.0,642.0 288.0,646.0 292.0,652.0 292.0,656.0 288.0,657.0 295.0,662.0 300.0,677.0 297.0,664.0" fill="none" stroke="#c93384" stroke-width="1"/><polyline points="567.0,174.0 558.0,175.0 561.0,178.0 556.0,180.0 554.0,187.0 561.0,192.0 556.0,194.0 555.0,190.0" fill="none" stroke="#8ae9de" stroke-width="1"/><polyline points="555.0,194.0 575.0,195.0 562.0,193.0 557.0,188.0" fill="none" stroke="#8ae9de" stroke-width="1"/><polyline points="561.0,178.0 582.0,179.0 588.0,176.0" fill="none" stroke="#8ae9de" stroke-width="1"/><polyline points="144.0,491.0 144.0,496.0 158.0,519.0 156.0,530.0 159.0,548.0 150.0,551.0 151.0,547.0 156.0,545.0 156.0,541.0 150.0,552.0 160.0,550.0 161.0,566.0 168.0,574.0 165.0,581.0 150.0,575.0 150.0,563.0 156.0,561.0 155.0,558.0" fill="none" stroke="#14c40f" stroke-width="1"/><polyline points="150.0,576.0 159.0,580.0 158.0,586.0 161.0,588.0 158.0,582.0 163.0,581.0" fill="none" stroke="#14c40f" stroke-width="1"/><polyline points="168.0,574.0 171.0,573.0 173.0,576.0 169.0,568.0 166.0,571.0 161.0,566.0 158.0,537.0 162.0,533.0 163.0,508.0 165.0,506.0 169.0,508.0" fill="none" stroke="#14c40f" stroke-width="1"/><polyline points="165.0,506.0 160.0,514.0 160.0,516.0 162.0,512.0 164.0,514.0" fill="none" stroke="#14c40f" stroke-width="1"/><polyline points="149.0,539.0 150.0,545.0" fill="none" stroke="#6a0b77" stroke-width="1"/><polyline points="155.0,551.0 150.0,554.0 151.0,558.0" fill="none" stroke="#c4bb36" stroke-width="1"/><polyline points="151.0,560.0 152.0,575.0 156.0,575.0 156.0,568.0" fill="none" stroke="#c4bb36" stroke-width="1"/><polyline points="158.0,570.0 160.0,580.0" fill="none" stroke="#174653" stroke-width="1"/><polyline points="167.0,574.0 162.0,573.0" fill="none" stroke="#174653" stroke-width="1"/><polyline points="148.0,365.0 141.0,366.0 139.0,370.0 140.0,382.0 128.0,420.0 129.0,429.0 120.0,446.0 121.0,460.0 117.0,473.0 104.0,489.0 88.0,476.0 92.0,483.0 91.0,487.0 81.0,474.0 76.0,473.0 77.0,469.0 86.0,475.0 73.0,453.0 49.0,393.0 45.0,390.0 41.0,394.0 26.0,398.0 15.0,392.0 19.0,401.0 19.0,411.0 16.0,415.0 18.0,421.0 21.0,421.0 19.0,403.0 27.0,402.0 32.0,407.0 32.0,419.0 31.0,411.0 34.0,409.0 50.0,423.0 48.0,440.0" fill="none" stroke="#e6bd5e" stroke-width="1"/><polyline points="48.0,441.0 52.0,445.0 47.0,448.0 51.0,448.0" fill="none" stroke="#e6bd5e" stroke-width="1"/><polyline points="50.0,423.0 42.0,416.0 47.0,410.0" fill="none" stroke="#e6bd5e" stroke-width="1"/><polyline points="42.0,416.0 35.0,411.0 35.0,406.0 32.0,408.0 30.0,404.0" fill="none" stroke="#e6bd5e" stroke-width="1"/><polyline points="15.0,393.0 17.0,391.0" fill="none" stroke="#e6bd5e" stroke-width="1"/><polyline points="49.0,393.0 79.0,463.0" fill="none" stroke="#e6bd5e" stroke-width="1"/><polyline points="81.0,474.0 94.0,489.0 98.0,503.0 91.0,481.0 104.0,489.0 110.0,485.0 117.0,473.0 121.0,463.0" fill="none" stroke="#e6bd5e" stroke-width="1"/><polyline points="150.0,365.0 151.0,371.0 142.0,372.0 161.0,372.0 158.0,380.0 140.0,392.0 156.0,390.0 157.0,396.0 145.0,415.0 145.0,434.0 143.0,440.0 138.0,443.0 141.0,444.0 138.0,449.0 140.0,456.0 131.0,489.0 127.0,523.0 121.0,522.0" fill="none" stroke="#e6bd5e" stroke-width="1"/><polyline points="121.0,523.0 126.0,525.0 131.0,548.0 140.0,554.0 145.0,552.0 139.0,544.0 139.0,539.0" fill="none" stroke="#e6bd5e" stroke-width="1"/><polyline points="131.0,548.0 133.0,547.0 126.0,534.0 127.0,515.0 141.0,442.0" fill="none" stroke="#e6bd5e" stroke-width="1"/><polyline points="157.0,397.0 158.0,389.0" fill="none" stroke="#e6bd5e" stroke-width="1"/><polyline points="159.0,380.0 164.0,373.0 185.0,398.0" fill="none" stroke="#e6bd5e" stroke-width="1"/><polyline points="402.0,678.0 405.0,685.0 397.0,694.0 396.0,682.0 395.0,702.0 386.0,711.0 379.0,730.0" fill="none" stroke="#3a8b76" stroke-width="1"/><polyline points="380.0,729.0 385.0,713.0 395.0,702.0 395.0,695.0 403.0,689.0 406.0,683.0" fill="none" stroke="#3a8b76" stroke-width="1"/><polyline points="584.0,163.0 563.0,168.0 565.0,173.0 583.0,176.0 584.0,179.0" fill="none" stroke="#f77982" stroke-width="1"/><polyline points="579.0,187.0 589.0,191.0 595.0,191.0 598.0,183.0 623.0,188.0 622.0,178.0 641.0,182.0 639.0,177.0 619.0,170.0 617.0,168.0 619.0,166.0 610.0,164.0 608.0,167.0" fill="none" stroke="#f77982" stroke-width="1"/><polyline points="90.0,489.0 125.0,594.0 142.0,629.0 157.0,646.0 179.0,627.0 201.0,599.0 202.0,590.0 244.0,524.0 249.0,514.0 248.0,505.0 245.0,503.0 249.0,514.0 212.0,572.0 209.0,582.0" fill="none" stroke="#bd2155" stroke-width="1"/><polyline points="201.0,598.0 173.0,632.0 168.0,628.0 149.0,590.0 161.0,614.0 151.0,625.0 143.0,621.0 143.0,617.0 152.0,610.0 137.0,609.0 102.0,517.0 136.0,611.0 150.0,608.0" fill="none" stroke="#bd2155" stroke-width="1"/><polyline points="143.0,622.0 147.0,625.0 160.0,620.0 158.0,618.0 161.0,614.0 172.0,632.0 167.0,636.0" fill="none" stroke="#bd2155" stroke-width="1"/><polyline points="167.0,636.0 160.0,643.0" fill="none" stroke="#bd2155" stroke-width="1"/><polyline points="160.0,643.0 157.0,646.0 141.0,627.0 126.0,596.0 96.0,511.0" fill="none" stroke="#bd2155" stroke-width="1"/><polyline points="612.0,608.0 599.0,612.0 615.0,609.0 623.0,616.0 616.0,622.0 606.0,622.0 599.0,614.0 598.0,616.0" fill="none" stroke="#d3245a" stroke-width="1"/><polyline points="616.0,622.0 629.0,619.0 626.0,616.0 626.0,619.0 623.0,619.0 623.0,615.0 629.0,613.0 633.0,619.0 631.0,622.0 645.0,611.0" fill="none" stroke="#d3245a" stroke-width="1"/><polyline points="630.0,613.0 635.0,611.0" fill="none" stroke="#d3245a" stroke-width="1"/><polyline points="637.0,611.0 623.0,615.0" fill="none" stroke="#d3245a" stroke-width="1"/><polyline points="385.0,340.0 365.0,327.0 347.0,321.0" fill="none" stroke="#20772f" stroke-width="1"/><polyline points="314.0,312.0 305.0,301.0 278.0,252.0 253.0,234.0" fill="none" stroke="#20772f" stroke-width="1"/><polyline points="200.0,244.0 199.0,250.0" fill="none" stroke="#20772f" stroke-width="1"/><polyline points="181.0,258.0 181.0,261.0" fill="none" stroke="#20772f" stroke-width="1"/><polyline points="159.0,283.0 147.0,319.0 140.0,383.0 130.0,412.0" fill="none" stroke="#20772f" stroke-width="1"/><polyline points="102.0,489.0 96.0,485.0 78.0,463.0" fill="none" stroke="#20772f" stroke-width="1"/><polyline points="25.0,398.0 24.0,395.0 15.0,392.0 7.0,381.0 0.0,379.0 0.0,799.0 799.0,799.0 799.0,408.0 779.0,415.0 765.0,399.0 745.0,359.0 735.0,326.0" fill="none" stroke="#20772f" stroke-width="1"/></svg>
