<?xml version='1.0' encoding='UTF-8'?>
<svg xmlns="http://www.w3.org/2000/svg" xmlns:ev="http://www.w3.org/2001/xml-events" xmlns:xlink="http://www.w3.org/1999/xlink" baseProfile="full" height="800" version="1.1" width="800">
  <polyline fill="none" points="374.0,289.0 369.0,295.0 362.0,327.0 353.0,347.0 351.0,379.0 356.0,379.0 366.0,368.0 380.0,370.0 396.0,368.0 403.0,360.0 404.0,331.0 395.0,316.0 391.0,295.0 384.0,289.0" stroke="#6108d6" stroke-width="1"/>
  <polyline fill="none" points="514.0,286.0 515.0,288.0 511.0,290.0 512.0,299.0 497.0,309.0 476.0,311.0 473.0,304.0 465.0,302.0 464.0,297.0 444.0,297.0 430.0,315.0 425.0,316.0 424.0,313.0 421.0,325.0 427.0,332.0 445.0,337.0 477.0,335.0 515.0,323.0 521.0,316.0 524.0,303.0 524.0,287.0 516.0,286.0" stroke="#f46e8a" stroke-width="1"/>
  <polyline fill="none" points="303.0,471.0 307.0,470.0 312.0,477.0 303.0,481.0 301.0,477.0 296.0,477.0 302.0,471.0" stroke="#7b4680" stroke-width="1"/>
  <polyline fill="none" points="292.0,466.0 297.0,466.0 293.0,472.0 292.0,467.0" stroke="#9f2107" stroke-width="1"/>
  <polyline fill="none" points="261.0,283.0 242.0,294.0 239.0,301.0 239.0,316.0 251.0,349.0 259.0,357.0 271.0,361.0 310.0,359.0 343.0,348.0 351.0,339.0 358.0,312.0 354.0,312.0 341.0,325.0 323.0,332.0 300.0,337.0 298.0,332.0 290.0,328.0 281.0,328.0 270.0,341.0 265.0,341.0 263.0,336.0 258.0,335.0 265.0,332.0 269.0,312.0 275.0,306.0 268.0,298.0 261.0,297.0 265.0,283.0" stroke="#85d430" stroke-width="1"/>
  <polyline fill="none" points="532.0,410.0 529.0,444.0 532.0,450.0 532.0,463.0 538.0,468.0 540.0,448.0 536.0,436.0 539.0,410.0" stroke="#625b79" stroke-width="1"/>
  <polyline fill="none" points="293.0,492.0 299.0,495.0 299.0,499.0 296.0,500.0 290.0,495.0" stroke="#8eadca" stroke-width="1"/>
  <polyline fill="none" points="469.0,264.0 460.0,267.0 460.0,271.0 478.0,275.0 484.0,275.0 485.0,271.0 470.0,264.0" stroke="#a812bf" stroke-width="1"/>
  <polyline fill="none" points="591.0,381.0 588.0,392.0 595.0,396.0 599.0,394.0 597.0,384.0 592.0,382.0" stroke="#cc9193" stroke-width="1"/>
  <polyline fill="none" points="381.0,128.0 375.0,134.0 363.0,136.0 361.0,150.0 339.0,152.0 330.0,159.0 325.0,157.0 319.0,147.0 314.0,146.0 308.0,150.0 304.0,158.0 301.0,148.0 293.0,144.0 280.0,146.0 266.0,159.0 263.0,158.0 235.0,215.0 229.0,241.0 236.0,247.0 229.0,246.0 225.0,250.0 220.0,265.0 217.0,254.0 215.0,302.0 215.0,295.0 219.0,290.0 262.0,275.0 265.0,269.0 276.0,262.0 284.0,262.0 298.0,255.0 308.0,256.0 331.0,248.0 341.0,250.0 357.0,238.0 364.0,256.0 365.0,276.0 375.0,274.0 374.0,265.0 380.0,249.0 388.0,252.0 393.0,249.0 404.0,253.0 411.0,247.0 421.0,246.0 427.0,242.0 440.0,243.0 446.0,248.0 474.0,241.0 514.0,240.0 514.0,232.0 506.0,227.0 506.0,221.0 500.0,215.0 502.0,206.0 492.0,197.0 486.0,177.0 483.0,177.0 476.0,168.0 463.0,159.0 455.0,160.0 450.0,153.0 436.0,145.0 419.0,138.0 390.0,132.0 386.0,128.0" stroke="#2dad35" stroke-width="1"/>
  <polyline fill="none" points="548.0,260.0 550.0,268.0 554.0,267.0 554.0,261.0 551.0,260.0" stroke="#f07010" stroke-width="1"/>
  <polyline fill="none" points="536.0,225.0 531.0,228.0 531.0,232.0 544.0,248.0 549.0,249.0 550.0,254.0 551.0,251.0 546.0,237.0 536.0,228.0" stroke="#6fcbf5" stroke-width="1"/>
  <polyline fill="none" points="607.0,320.0 610.0,338.0 610.0,375.0 609.0,320.0" stroke="#70c034" stroke-width="1"/>
  <polyline fill="none" points="244.0,239.0 248.0,239.0 247.0,248.0 243.0,251.0 241.0,244.0 244.0,240.0" stroke="#d89929" stroke-width="1"/>
  <polyline fill="none" points="320.0,606.0 327.0,611.0 333.0,610.0 334.0,616.0 326.0,618.0 318.0,608.0" stroke="#a8ce70" stroke-width="1"/>
  <polyline fill="none" points="508.0,186.0 503.0,189.0 503.0,196.0 506.0,200.0 511.0,200.0 513.0,194.0 508.0,187.0" stroke="#b4473f" stroke-width="1"/>
  <polyline fill="none" points="402.0,618.0 401.0,632.0 405.0,643.0 396.0,654.0 401.0,657.0 401.0,665.0 407.0,672.0 412.0,671.0 410.0,650.0 413.0,639.0 404.0,618.0" stroke="#4f2244" stroke-width="1"/>
  <polyline fill="none" points="343.0,646.0 345.0,650.0 338.0,652.0 339.0,659.0 344.0,657.0 345.0,652.0 346.0,655.0 357.0,657.0 357.0,653.0 347.0,646.0" stroke="#e279f9" stroke-width="1"/>
  <polyline fill="none" points="492.0,113.0 521.0,144.0 511.0,128.0 493.0,114.0" stroke="#f6ce5b" stroke-width="1"/>
  <polyline fill="none" points="408.0,90.0 418.0,98.0 427.0,97.0 446.0,105.0 450.0,105.0 449.0,98.0 471.0,104.0 467.0,101.0 410.0,90.0" stroke="#b4a0d8" stroke-width="1"/>
  <polyline fill="none" points="562.0,688.0 568.0,689.0 566.0,692.0 562.0,690.0" stroke="#15b3bc" stroke-width="1"/>
  <polyline fill="none" points="332.0,734.0 331.0,738.0 324.0,736.0 340.0,744.0 348.0,752.0 346.0,755.0 351.0,752.0 336.0,741.0 334.0,736.0" stroke="#588b9f" stroke-width="1"/>
  <polyline fill="none" points="205.0,738.0 203.0,744.0 208.0,743.0 209.0,738.0" stroke="#790f23" stroke-width="1"/>
  <polyline fill="none" points="241.0,752.0 237.0,756.0 241.0,768.0 240.0,775.0 245.0,773.0 245.0,752.0" stroke="#3e3d44" stroke-width="1"/>
  <polyline fill="none" points="728.0,626.0 732.0,626.0 728.0,635.0 725.0,634.0 728.0,627.0" stroke="#ff8a53" stroke-width="1"/>
  <polyline fill="none" points="140.0,711.0 143.0,710.0 144.0,713.0 136.0,728.0 135.0,714.0 139.0,711.0" stroke="#bd1bc1" stroke-width="1"/>
  <polyline fill="none" points="194.0,754.0 188.0,767.0 188.0,771.0 193.0,770.0 198.0,760.0 198.0,756.0 194.0,755.0" stroke="#aa8414" stroke-width="1"/>
  <polyline fill="none" points="218.0,722.0 182.0,756.0 186.0,754.0 189.0,756.0 187.0,766.0 184.0,770.0 183.0,768.0 169.0,799.0 186.0,769.0 189.0,751.0 219.0,722.0" stroke="#68ea39" stroke-width="1"/>
  <polyline fill="none" points="752.0,627.0 762.0,628.0 761.0,631.0 755.0,630.0" stroke="#8e6477" stroke-width="1"/>
  <polyline fill="none" points="132.0,733.0 136.0,733.0 131.0,743.0 132.0,734.0" stroke="#78886b" stroke-width="1"/>
  <polyline fill="none" points="178.0,683.0 174.0,698.0 129.0,715.0 115.0,724.0 89.0,732.0 63.0,748.0 101.0,727.0 120.0,723.0 91.0,790.0 90.0,799.0 99.0,771.0 112.0,747.0 116.0,731.0 121.0,726.0 119.0,722.0 141.0,710.0 175.0,698.0 175.0,689.0 178.0,685.0" stroke="#c02e44" stroke-width="1"/>
  <polyline fill="none" points="182.0,776.0 180.0,783.0 186.0,781.0 186.0,776.0" stroke="#4bbfc4" stroke-width="1"/>
  <polyline fill="none" points="154.0,708.0 155.0,713.0 151.0,720.0 148.0,720.0 116.0,799.0 139.0,748.0 145.0,728.0 157.0,711.0 155.0,708.0" stroke="#60d364" stroke-width="1"/>
  <polyline fill="none" points="157.0,725.0 128.0,799.0 143.0,799.0 146.0,794.0 158.0,755.0 162.0,732.0 160.0,725.0" stroke="#6552bf" stroke-width="1"/>
  <polyline fill="none" points="128.0,744.0 131.0,746.0 124.0,757.0 128.0,745.0" stroke="#9cce7a" stroke-width="1"/>
  <polyline fill="none" points="178.0,783.0 171.0,796.0 171.0,799.0 179.0,799.0 178.0,788.0" stroke="#c8c360" stroke-width="1"/>
  <polyline fill="none" points="89.0,657.0 54.0,693.0 0.0,726.0 4.0,726.0 56.0,692.0 65.0,683.0 65.0,687.0 69.0,678.0 88.0,658.0" stroke="#96b358" stroke-width="1"/>
  <polyline fill="none" points="752.0,668.0 772.0,694.0 796.0,737.0 799.0,737.0 787.0,722.0 772.0,693.0 756.0,672.0" stroke="#e78645" stroke-width="1"/>
  <polyline fill="none" points="14.0,724.0 18.0,725.0 17.0,730.0 12.0,729.0 13.0,724.0" stroke="#998dcb" stroke-width="1"/>
  <polyline fill="none" points="20.0,743.0 24.0,746.0 17.0,747.0 18.0,745.0" stroke="#32f314" stroke-width="1"/>
  <polyline fill="none" points="736.0,788.0 730.0,791.0 729.0,799.0 750.0,799.0 750.0,794.0 744.0,794.0 740.0,788.0" stroke="#3a8e97" stroke-width="1"/>
  <polyline fill="none" points="796.0,729.0 797.0,736.0 799.0,729.0" stroke="#4960c6" stroke-width="1"/>
  <polyline fill="none" points="771.0,731.0 770.0,746.0 797.0,798.0 799.0,774.0 793.0,766.0 787.0,748.0 775.0,731.0" stroke="#ae3edd" stroke-width="1"/>
  <polyline fill="none" points="11.0,778.0 9.0,786.0 14.0,786.0 15.0,778.0" stroke="#1bcbfe" stroke-width="1"/>
  <polyline points="349.0,388.0 319.0,432.0" fill="none" stroke="#c28857" stroke-width="1"/><polyline points="350.0,388.0 364.0,395.0 376.0,393.0 389.0,395.0 390.0,405.0 386.0,410.0 383.0,409.0 386.0,419.0 393.0,417.0 399.0,410.0 388.0,419.0 384.0,416.0 384.0,411.0 390.0,406.0 391.0,397.0 403.0,401.0 423.0,418.0 422.0,415.0" fill="none" stroke="#c28857" stroke-width="1"/><polyline points="422.0,415.0 416.0,413.0 406.0,403.0 388.0,394.0 364.0,395.0" fill="none" stroke="#c28857" stroke-width="1"/><polyline points="349.0,389.0 333.0,420.0 328.0,423.0 327.0,431.0 340.0,433.0 347.0,429.0 359.0,437.0 378.0,431.0 402.0,430.0 413.0,425.0 417.0,415.0 406.0,405.0 401.0,405.0" fill="none" stroke="#14e771" stroke-width="1"/><polyline points="385.0,415.0 388.0,407.0 387.0,396.0 380.0,394.0" fill="none" stroke="#14e771" stroke-width="1"/><polyline points="418.0,441.0 372.0,447.0 346.0,456.0 339.0,460.0 326.0,476.0 321.0,475.0 316.0,469.0 315.0,459.0 313.0,461.0 316.0,461.0 316.0,470.0" fill="none" stroke="#92d500" stroke-width="1"/><polyline points="418.0,441.0 445.0,441.0 451.0,445.0" fill="none" stroke="#92d500" stroke-width="1"/><polyline points="368.0,295.0 363.0,321.0 351.0,349.0" fill="none" stroke="#f63d4a" stroke-width="1"/><polyline points="351.0,349.0 361.0,328.0 367.0,299.0 374.0,288.0 387.0,288.0 408.0,322.0 422.0,337.0" fill="none" stroke="#f63d4a" stroke-width="1"/><polyline points="408.0,321.0 392.0,292.0" fill="none" stroke="#f63d4a" stroke-width="1"/><polyline points="235.0,343.0 236.0,383.0 238.0,388.0 244.0,389.0 243.0,392.0 246.0,393.0 244.0,398.0 246.0,396.0 254.0,407.0 260.0,431.0 256.0,437.0 250.0,435.0 248.0,431.0 251.0,423.0 242.0,411.0 238.0,411.0 240.0,425.0 237.0,428.0 232.0,425.0 227.0,405.0 229.0,388.0 222.0,386.0 220.0,396.0 217.0,396.0 219.0,421.0 224.0,451.0 231.0,467.0 240.0,478.0 245.0,477.0 251.0,456.0 246.0,444.0 250.0,441.0 261.0,453.0 260.0,462.0 264.0,462.0 264.0,455.0 268.0,454.0 275.0,474.0 274.0,482.0 280.0,490.0 283.0,502.0 292.0,502.0 289.0,504.0 292.0,505.0 296.0,502.0 299.0,504.0 297.0,507.0 305.0,502.0 317.0,502.0 316.0,511.0 312.0,515.0 317.0,521.0 317.0,528.0 328.0,534.0 331.0,539.0 341.0,535.0 353.0,550.0 367.0,557.0 378.0,554.0 388.0,535.0 396.0,529.0 400.0,530.0 400.0,536.0 411.0,535.0 421.0,540.0 432.0,532.0 434.0,525.0 439.0,522.0 441.0,513.0 447.0,515.0 448.0,521.0 453.0,521.0 470.0,503.0 473.0,503.0 468.0,502.0 465.0,490.0 461.0,489.0 455.0,480.0 458.0,475.0 449.0,482.0 437.0,483.0 435.0,479.0 433.0,483.0 432.0,480.0 414.0,483.0 410.0,478.0 388.0,477.0 381.0,472.0 398.0,460.0 406.0,461.0 434.0,454.0 440.0,451.0 444.0,444.0 414.0,442.0" fill="none" stroke="#42a77c" stroke-width="1"/><polyline points="315.0,461.0 310.0,461.0 305.0,467.0 297.0,463.0 302.0,454.0 296.0,448.0 298.0,442.0 281.0,445.0 276.0,434.0 279.0,427.0 285.0,425.0 285.0,417.0 305.0,398.0 311.0,396.0 324.0,379.0 324.0,375.0 291.0,379.0 289.0,377.0 291.0,374.0 309.0,369.0 311.0,364.0 264.0,365.0 252.0,359.0" fill="none" stroke="#42a77c" stroke-width="1"/><polyline points="493.0,435.0 480.0,441.0 478.0,448.0 472.0,452.0 477.0,450.0 478.0,444.0 481.0,443.0 480.0,457.0" fill="none" stroke="#f6be12" stroke-width="1"/><polyline points="537.0,294.0 529.0,314.0 516.0,328.0 495.0,336.0 461.0,341.0 460.0,349.0 442.0,350.0 445.0,358.0 474.0,386.0 472.0,391.0 469.0,386.0 456.0,384.0 459.0,394.0 466.0,394.0 477.0,410.0 484.0,402.0 495.0,416.0 496.0,420.0 490.0,427.0 490.0,434.0" fill="none" stroke="#f200a0" stroke-width="1"/><polyline points="478.0,450.0 478.0,455.0 492.0,473.0 486.0,480.0 494.0,481.0 516.0,474.0 518.0,418.0 517.0,412.0 516.0,414.0 513.0,410.0 514.0,398.0 516.0,396.0 522.0,399.0 525.0,395.0 535.0,394.0 535.0,386.0 531.0,383.0 534.0,379.0 533.0,363.0 526.0,349.0 531.0,341.0 535.0,341.0 540.0,331.0 544.0,336.0 547.0,330.0 551.0,329.0 555.0,318.0 551.0,301.0" fill="none" stroke="#f200a0" stroke-width="1"/><polyline points="470.0,248.0 419.0,259.0 405.0,269.0 399.0,280.0 399.0,284.0 405.0,270.0 414.0,262.0 436.0,254.0 470.0,248.0 503.0,248.0 513.0,253.0 520.0,260.0 525.0,276.0 525.0,301.0 521.0,317.0 506.0,328.0 466.0,337.0 440.0,337.0 426.0,332.0 410.0,313.0 400.0,293.0 417.0,324.0 431.0,335.0 466.0,337.0 511.0,326.0 523.0,313.0" fill="none" stroke="#eb6cba" stroke-width="1"/><polyline points="233.0,337.0 233.0,347.0 228.0,361.0 233.0,341.0 237.0,339.0 251.0,358.0 273.0,366.0 313.0,363.0 342.0,353.0 326.0,360.0 301.0,365.0" fill="none" stroke="#ea14be" stroke-width="1"/><polyline points="298.0,274.0 254.0,284.0 244.0,290.0 238.0,299.0 238.0,318.0 248.0,346.0 259.0,358.0 278.0,362.0 306.0,360.0 335.0,353.0 350.0,343.0 355.0,332.0 360.0,310.0 360.0,294.0 352.0,281.0" fill="none" stroke="#c28b0f" stroke-width="1"/><polyline points="360.0,294.0 357.0,325.0 345.0,347.0 322.0,357.0 285.0,362.0 264.0,360.0 253.0,352.0 244.0,338.0 238.0,318.0 237.0,304.0 242.0,293.0 249.0,287.0 270.0,279.0" fill="none" stroke="#c28b0f" stroke-width="1"/><polyline points="538.0,265.0 533.0,269.0 533.0,298.0 526.0,317.0 516.0,327.0 497.0,335.0 464.0,341.0 436.0,341.0 459.0,341.0 461.0,346.0" fill="none" stroke="#ad5935" stroke-width="1"/><polyline points="461.0,341.0 507.0,332.0" fill="none" stroke="#ad5935" stroke-width="1"/><polyline points="538.0,265.0 544.0,267.0" fill="none" stroke="#ad5935" stroke-width="1"/><polyline points="473.0,244.0 423.0,254.0 409.0,259.0 391.0,273.0 370.0,277.0 332.0,267.0 325.0,262.0" fill="none" stroke="#cef3c3" stroke-width="1"/><polyline points="325.0,262.0 329.0,266.0 342.0,268.0 362.0,277.0 370.0,277.0 394.0,272.0 410.0,259.0 433.0,251.0" fill="none" stroke="#cef3c3" stroke-width="1"/><polyline points="321.0,289.0 290.0,299.0 278.0,310.0 265.0,332.0" fill="none" stroke="#b6d08e" stroke-width="1"/><polyline points="359.0,85.0 317.0,95.0 277.0,119.0 240.0,165.0 228.0,196.0 239.0,167.0" fill="none" stroke="#3276f7" stroke-width="1"/><polyline points="317.0,95.0 335.0,91.0 355.0,92.0 357.0,89.0 353.0,93.0 339.0,93.0 335.0,90.0 339.0,88.0 350.0,90.0 348.0,88.0 350.0,86.0 383.0,86.0 449.0,96.0 484.0,108.0 486.0,110.0 482.0,110.0 508.0,129.0 485.0,111.0 502.0,119.0 519.0,139.0 545.0,189.0 567.0,219.0 586.0,252.0 605.0,298.0 608.0,313.0 606.0,318.0 609.0,318.0 611.0,329.0 611.0,409.0 610.0,416.0 608.0,413.0 606.0,432.0 599.0,552.0 602.0,566.0 615.0,581.0 591.0,577.0 583.0,569.0 575.0,493.0 584.0,484.0 589.0,442.0 585.0,480.0 582.0,486.0 580.0,484.0 582.0,481.0 577.0,484.0 582.0,486.0 575.0,492.0 584.0,572.0 588.0,576.0 609.0,580.0 624.0,588.0 664.0,589.0 729.0,605.0" fill="none" stroke="#3276f7" stroke-width="1"/><polyline points="729.0,605.0 670.0,590.0 625.0,586.0 605.0,571.0 600.0,559.0 599.0,534.0 605.0,481.0 606.0,432.0" fill="none" stroke="#3276f7" stroke-width="1"/><polyline points="586.0,252.0 566.0,217.0 546.0,190.0 518.0,137.0 504.0,120.0 466.0,100.0 403.0,88.0" fill="none" stroke="#3276f7" stroke-width="1"/><polyline points="225.0,210.0 217.0,247.0 214.0,281.0 215.0,387.0 221.0,439.0 228.0,463.0 264.0,516.0 279.0,551.0 278.0,581.0 266.0,601.0 273.0,593.0 276.0,596.0 263.0,607.0 259.0,620.0" fill="none" stroke="#670ea7" stroke-width="1"/><polyline points="273.0,592.0 278.0,581.0 280.0,558.0 272.0,531.0 241.0,483.0 253.0,483.0 256.0,486.0 262.0,508.0 282.0,540.0 282.0,563.0 281.0,536.0 275.0,532.0 272.0,520.0" fill="none" stroke="#670ea7" stroke-width="1"/><polyline points="256.0,485.0 239.0,481.0 226.0,459.0" fill="none" stroke="#670ea7" stroke-width="1"/><polyline points="214.0,281.0 219.0,279.0 220.0,266.0 229.0,246.0 223.0,255.0 225.0,259.0 220.0,265.0 220.0,276.0 217.0,280.0 215.0,277.0 217.0,247.0 220.0,236.0 224.0,237.0 220.0,230.0 222.0,221.0" fill="none" stroke="#670ea7" stroke-width="1"/><polyline points="223.0,220.0 224.0,212.0 225.0,219.0 227.0,216.0" fill="none" stroke="#670ea7" stroke-width="1"/><polyline points="498.0,249.0 498.0,253.0 506.0,260.0 503.0,268.0 512.0,274.0 511.0,281.0 523.0,279.0 523.0,271.0" fill="none" stroke="#ed4fdd" stroke-width="1"/><polyline points="608.0,419.0 604.0,428.0 594.0,434.0 594.0,449.0 586.0,467.0 585.0,482.0 576.0,494.0 585.0,571.0" fill="none" stroke="#e545e1" stroke-width="1"/><polyline points="314.0,587.0 353.0,621.0" fill="none" stroke="#2d9a72" stroke-width="1"/><polyline points="562.0,216.0 578.0,258.0" fill="none" stroke="#00e9bf" stroke-width="1"/><polyline points="549.0,194.0 548.0,198.0 561.0,213.0 569.0,230.0 577.0,257.0" fill="none" stroke="#dcc6b4" stroke-width="1"/><polyline points="346.0,631.0 337.0,638.0 358.0,653.0 355.0,658.0 349.0,655.0 345.0,657.0 342.0,663.0" fill="none" stroke="#2eea06" stroke-width="1"/><polyline points="345.0,658.0 347.0,656.0" fill="none" stroke="#2eea06" stroke-width="1"/><polyline points="359.0,653.0 374.0,663.0 397.0,668.0 402.0,675.0 399.0,669.0 374.0,663.0 340.0,640.0 337.0,637.0 341.0,633.0 353.0,631.0" fill="none" stroke="#2eea06" stroke-width="1"/><polyline points="464.0,133.0 496.0,157.0" fill="none" stroke="#556903" stroke-width="1"/><polyline points="385.0,125.0 417.0,135.0 424.0,140.0 429.0,139.0 449.0,159.0 443.0,151.0 447.0,150.0 431.0,142.0 426.0,134.0 407.0,130.0 424.0,133.0" fill="none" stroke="#8978c1" stroke-width="1"/><polyline points="278.0,145.0 266.0,158.0 260.0,156.0 259.0,154.0 264.0,152.0 260.0,152.0 249.0,168.0 238.0,176.0 248.0,170.0 259.0,155.0 261.0,162.0 239.0,201.0 226.0,238.0 229.0,236.0 235.0,211.0 261.0,163.0 261.0,158.0 265.0,157.0" fill="none" stroke="#6eaede" stroke-width="1"/><polyline points="279.0,580.0 271.0,596.0 274.0,598.0" fill="none" stroke="#40b1d4" stroke-width="1"/><polyline points="259.0,619.0 263.0,673.0 272.0,698.0 299.0,730.0 336.0,753.0 382.0,767.0 399.0,762.0 400.0,767.0 403.0,761.0 412.0,768.0 413.0,775.0 446.0,782.0 479.0,782.0 503.0,777.0 541.0,763.0 579.0,739.0 603.0,715.0 622.0,688.0 630.0,652.0 627.0,628.0 621.0,627.0 612.0,631.0 604.0,642.0 599.0,659.0 585.0,674.0 580.0,671.0 582.0,668.0 578.0,661.0 566.0,662.0 560.0,668.0 561.0,680.0 555.0,684.0 556.0,689.0 552.0,694.0 556.0,696.0 560.0,694.0 560.0,701.0 556.0,703.0 561.0,707.0 551.0,718.0 543.0,721.0 542.0,716.0 537.0,717.0 534.0,725.0 529.0,721.0 517.0,722.0 500.0,715.0 489.0,701.0 482.0,702.0 471.0,715.0 453.0,726.0 453.0,730.0 443.0,739.0 441.0,745.0 430.0,744.0 421.0,735.0 422.0,729.0 413.0,718.0 406.0,717.0 402.0,713.0" fill="none" stroke="#40b1d4" stroke-width="1"/><polyline points="401.0,712.0 399.0,709.0 402.0,705.0 400.0,702.0 410.0,692.0 411.0,680.0 408.0,680.0 410.0,684.0 401.0,691.0 388.0,687.0 391.0,681.0 402.0,680.0 397.0,668.0 369.0,662.0 369.0,667.0 373.0,669.0 364.0,670.0 366.0,675.0 370.0,677.0 376.0,673.0 383.0,679.0 379.0,681.0 380.0,684.0 368.0,688.0 366.0,692.0 354.0,689.0 355.0,693.0 351.0,693.0 352.0,688.0 341.0,681.0 342.0,675.0 345.0,674.0 341.0,671.0 340.0,661.0 331.0,656.0 332.0,647.0 342.0,643.0 336.0,638.0 335.0,629.0 341.0,627.0 342.0,631.0 354.0,632.0 363.0,640.0 366.0,639.0 363.0,634.0 365.0,629.0 324.0,598.0 320.0,593.0 320.0,579.0 304.0,572.0 302.0,558.0 291.0,551.0 280.0,530.0 265.0,514.0 256.0,485.0" fill="none" stroke="#40b1d4" stroke-width="1"/><polyline points="274.0,123.0 237.0,171.0 240.0,172.0 244.0,164.0 253.0,162.0" fill="none" stroke="#26b06b" stroke-width="1"/><polyline points="265.0,151.0 272.0,141.0 272.0,137.0 267.0,134.0" fill="none" stroke="#26b06b" stroke-width="1"/><polyline points="239.0,614.0 225.0,627.0 220.0,636.0 216.0,654.0 209.0,662.0 203.0,683.0 196.0,694.0 187.0,720.0" fill="none" stroke="#32eec1" stroke-width="1"/><polyline points="187.0,720.0 193.0,703.0 202.0,686.0 207.0,667.0" fill="none" stroke="#32eec1" stroke-width="1"/><polyline points="622.0,603.0 631.0,629.0 630.0,659.0 623.0,688.0 598.0,721.0 578.0,740.0 550.0,759.0 524.0,770.0 485.0,782.0 440.0,782.0 363.0,764.0 361.0,762.0 363.0,755.0 372.0,755.0" fill="none" stroke="#38633f" stroke-width="1"/><polyline points="361.0,762.0 351.0,760.0 318.0,744.0 303.0,733.0 273.0,701.0 265.0,687.0 262.0,672.0 264.0,685.0 270.0,697.0 290.0,721.0" fill="none" stroke="#38633f" stroke-width="1"/><polyline points="351.0,760.0 387.0,771.0 439.0,782.0 458.0,783.0 485.0,782.0 505.0,777.0 551.0,759.0 574.0,744.0 613.0,704.0" fill="none" stroke="#38633f" stroke-width="1"/><polyline points="217.0,665.0 220.0,679.0 218.0,701.0 203.0,717.0 204.0,720.0 198.0,729.0 199.0,731.0 199.0,726.0" fill="none" stroke="#7a88db" stroke-width="1"/><polyline points="219.0,701.0 217.0,698.0" fill="none" stroke="#7a88db" stroke-width="1"/><polyline points="262.0,604.0 251.0,611.0 219.0,614.0 157.0,637.0 120.0,644.0 105.0,650.0 92.0,663.0 80.0,684.0 73.0,706.0 73.0,711.0 77.0,713.0 94.0,704.0 170.0,678.0" fill="none" stroke="#86a992" stroke-width="1"/><polyline points="73.0,710.0 75.0,698.0 97.0,688.0 166.0,666.0 196.0,661.0 205.0,637.0 212.0,628.0 215.0,630.0 226.0,620.0 213.0,629.0 220.0,618.0 212.0,626.0" fill="none" stroke="#86a992" stroke-width="1"/><polyline points="166.0,666.0 94.0,689.0 81.0,696.0 77.0,692.0 86.0,673.0" fill="none" stroke="#86a992" stroke-width="1"/><polyline points="157.0,637.0 227.0,612.0" fill="none" stroke="#86a992" stroke-width="1"/><polyline points="233.0,697.0 236.0,707.0 221.0,715.0" fill="none" stroke="#47192d" stroke-width="1"/><polyline points="222.0,715.0 235.0,709.0 236.0,703.0" fill="none" stroke="#47192d" stroke-width="1"/><polyline points="210.0,618.0 158.0,637.0" fill="none" stroke="#572112" stroke-width="1"/><polyline points="86.0,674.0 78.0,695.0 155.0,669.0 190.0,661.0 192.0,647.0 199.0,643.0 202.0,634.0 212.0,625.0" fill="none" stroke="#572112" stroke-width="1"/><polyline points="749.0,616.0 709.0,619.0 702.0,622.0 701.0,630.0 716.0,649.0 755.0,640.0" fill="none" stroke="#bd7398" stroke-width="1"/><polyline points="749.0,616.0 780.0,617.0" fill="none" stroke="#bd7398" stroke-width="1"/><polyline points="749.0,608.0 754.0,609.0 750.0,611.0 756.0,613.0 749.0,617.0" fill="none" stroke="#eb7bfb" stroke-width="1"/><polyline points="701.0,629.0 711.0,643.0 716.0,649.0 720.0,649.0 737.0,643.0 771.0,640.0 790.0,654.0 790.0,662.0 796.0,671.0 799.0,671.0 799.0,616.0 773.0,614.0" fill="none" stroke="#eb7bfb" stroke-width="1"/><polyline points="173.0,681.0 138.0,693.0 122.0,702.0 96.0,707.0 72.0,719.0 65.0,724.0 67.0,726.0 61.0,746.0 56.0,753.0 59.0,757.0" fill="none" stroke="#d80360" stroke-width="1"/><polyline points="58.0,758.0 64.0,757.0" fill="none" stroke="#d80360" stroke-width="1"/><polyline points="58.0,753.0 65.0,729.0" fill="none" stroke="#d80360" stroke-width="1"/><polyline points="123.0,702.0 164.0,683.0" fill="none" stroke="#d80360" stroke-width="1"/><polyline points="166.0,684.0 140.0,693.0 121.0,704.0 110.0,704.0 88.0,711.0 73.0,719.0 67.0,726.0 59.0,757.0 70.0,754.0 73.0,760.0 72.0,752.0 89.0,737.0 90.0,733.0 110.0,724.0" fill="none" stroke="#905f19" stroke-width="1"/><polyline points="121.0,724.0 110.0,745.0 91.0,799.0 105.0,798.0 108.0,795.0 109.0,783.0 113.0,781.0 121.0,763.0 120.0,775.0 110.0,797.0 116.0,799.0 145.0,725.0" fill="none" stroke="#905f19" stroke-width="1"/><polyline points="154.0,710.0 149.0,708.0 173.0,697.0" fill="none" stroke="#905f19" stroke-width="1"/><polyline points="17.0,717.0 0.0,727.0 0.0,763.0 3.0,763.0 17.0,747.0 19.0,748.0 15.0,759.0 20.0,763.0 28.0,762.0 29.0,757.0 23.0,755.0 29.0,747.0" fill="none" stroke="#4bd9f1" stroke-width="1"/><polyline points="30.0,747.0 29.0,742.0 25.0,741.0 26.0,738.0 18.0,737.0 25.0,735.0 19.0,733.0 24.0,730.0 22.0,720.0 16.0,719.0" fill="none" stroke="#4bd9f1" stroke-width="1"/><polyline points="759.0,746.0 768.0,760.0 767.0,764.0 776.0,782.0 785.0,793.0" fill="none" stroke="#3b963e" stroke-width="1"/><polyline points="768.0,760.0 771.0,761.0" fill="none" stroke="#3b963e" stroke-width="1"/><polyline points="316.0,96.0 294.0,108.0 269.0,127.0 234.0,177.0 219.0,239.0 215.0,280.0 215.0,363.0" fill="none" stroke="#8961d0" stroke-width="1"/><polyline points="228.0,462.0 261.0,510.0 276.0,540.0 280.0,571.0 273.0,594.0" fill="none" stroke="#8961d0" stroke-width="1"/><polyline points="158.0,637.0 115.0,646.0" fill="none" stroke="#8961d0" stroke-width="1"/><polyline points="0.0,727.0 0.0,799.0 799.0,799.0 799.0,616.0 732.0,606.0 690.0,594.0 626.0,587.0 613.0,580.0 601.0,565.0 599.0,533.0" fill="none" stroke="#8961d0" stroke-width="1"/><polyline points="610.0,410.0 609.0,318.0" fill="none" stroke="#8961d0" stroke-width="1"/><polyline points="96.0,651.0 85.0,659.0 58.0,689.0 51.0,695.0 42.0,697.0" fill="none" stroke="#cae1de" stroke-width="1"/></svg>
