<?xml version='1.0' encoding='UTF-8'?>
<svg xmlns="http://www.w3.org/2000/svg" xmlns:ev="http://www.w3.org/2001/xml-events" xmlns:xlink="http://www.w3.org/1999/xlink" baseProfile="full" height="800" version="1.1" width="800">
  <polyline fill="none" points="426.0,433.0 447.0,433.0 449.0,436.0 427.0,446.0 414.0,458.0 411.0,451.0 405.0,450.0 397.0,452.0 371.0,450.0 366.0,456.0 363.0,450.0 343.0,441.0 342.0,437.0 347.0,433.0 364.0,433.0 384.0,437.0 387.0,442.0 391.0,442.0 391.0,438.0 396.0,435.0 423.0,433.0" stroke="#124436" stroke-width="1"/>
  <polyline fill="none" points="348.0,377.0 343.0,379.0 338.0,389.0 348.0,377.0 353.0,379.0 355.0,388.0 330.0,411.0 321.0,407.0 326.0,411.0 337.0,408.0 355.0,389.0 351.0,377.0" stroke="#b93f8f" stroke-width="1"/>
  <polyline fill="none" points="455.0,323.0 419.0,331.0 414.0,335.0 414.0,339.0 436.0,333.0 459.0,332.0 465.0,329.0 464.0,323.0" stroke="#a54e8f" stroke-width="1"/>
  <polyline fill="none" points="332.0,332.0 334.0,337.0 348.0,338.0 353.0,338.0 353.0,334.0 340.0,332.0" stroke="#3f28c3" stroke-width="1"/>
  <polyline fill="none" points="361.0,350.0 348.0,351.0 352.0,363.0 332.0,371.0 318.0,370.0 302.0,361.0 300.0,357.0 295.0,370.0 294.0,392.0 284.0,387.0 282.0,374.0 278.0,369.0 265.0,365.0 276.0,403.0 284.0,420.0 294.0,428.0 303.0,428.0 301.0,420.0 303.0,411.0 310.0,416.0 318.0,411.0 331.0,410.0 340.0,401.0 356.0,392.0 359.0,380.0 357.0,373.0 365.0,360.0 365.0,350.0" stroke="#05d797" stroke-width="1"/>
  <polyline fill="none" points="479.0,439.0 459.0,480.0 461.0,488.0 472.0,475.0 480.0,453.0 480.0,439.0" stroke="#825cfa" stroke-width="1"/>
  <polyline fill="none" points="321.0,449.0 330.0,457.0 336.0,477.0 350.0,498.0 335.0,474.0 330.0,456.0 324.0,452.0" stroke="#a0469b" stroke-width="1"/>
  <polyline fill="none" points="295.0,398.0 299.0,408.0 297.0,410.0 293.0,408.0 293.0,400.0" stroke="#5b301c" stroke-width="1"/>
  <polyline fill="none" points="310.0,329.0 308.0,336.0 314.0,333.0 314.0,329.0" stroke="#34e707" stroke-width="1"/>
  <polyline fill="none" points="545.0,339.0 535.0,340.0 525.0,347.0 526.0,352.0 535.0,350.0 544.0,356.0 541.0,360.0 529.0,363.0 526.0,380.0 521.0,383.0 515.0,377.0 511.0,377.0 514.0,407.0 510.0,424.0 513.0,427.0 528.0,422.0 538.0,411.0 543.0,394.0 552.0,393.0 550.0,346.0 546.0,339.0" stroke="#f38bb5" stroke-width="1"/>
  <polyline fill="none" points="281.0,473.0 312.0,513.0 318.0,541.0 326.0,545.0 316.0,536.0 312.0,512.0 285.0,477.0" stroke="#a664dd" stroke-width="1"/>
  <polyline fill="none" points="539.0,449.0 530.0,454.0 528.0,461.0 534.0,463.0 540.0,456.0 540.0,450.0" stroke="#920f37" stroke-width="1"/>
  <polyline fill="none" points="235.0,398.0 234.0,410.0 241.0,415.0 245.0,425.0 253.0,423.0 258.0,408.0 256.0,406.0 249.0,408.0 241.0,398.0" stroke="#cc94e0" stroke-width="1"/>
  <polyline fill="none" points="486.0,528.0 481.0,530.0 479.0,536.0 487.0,535.0 487.0,528.0" stroke="#da59bc" stroke-width="1"/>
  <polyline fill="none" points="309.0,527.0 310.0,534.0 314.0,533.0 313.0,527.0" stroke="#6b093b" stroke-width="1"/>
  <polyline fill="none" points="256.0,468.0 257.0,478.0 261.0,482.0 254.0,487.0 257.0,502.0 262.0,502.0 265.0,496.0 265.0,491.0 260.0,486.0 265.0,477.0 257.0,468.0" stroke="#6ad189" stroke-width="1"/>
  <polyline fill="none" points="228.0,387.0 226.0,396.0 229.0,399.0 230.0,387.0" stroke="#399f84" stroke-width="1"/>
  <polyline fill="none" points="524.0,518.0 530.0,523.0 527.0,531.0 524.0,528.0" stroke="#b408a5" stroke-width="1"/>
  <polyline fill="none" points="241.0,478.0 237.0,482.0 237.0,489.0 240.0,492.0 245.0,489.0 244.0,478.0" stroke="#62da8e" stroke-width="1"/>
  <polyline fill="none" points="521.0,518.0 529.0,546.0 536.0,552.0 527.0,541.0 530.0,538.0 546.0,552.0 532.0,537.0 526.0,538.0 521.0,520.0" stroke="#c1c187" stroke-width="1"/>
  <polyline fill="none" points="438.0,189.0 427.0,199.0 423.0,199.0 429.0,202.0 435.0,201.0 435.0,198.0 441.0,195.0 441.0,189.0" stroke="#aae643" stroke-width="1"/>
  <polyline fill="none" points="258.0,232.0 255.0,249.0 260.0,247.0 272.0,254.0 273.0,248.0 279.0,245.0 274.0,233.0 259.0,233.0" stroke="#cc8b88" stroke-width="1"/>
  <polyline fill="none" points="527.0,234.0 528.0,240.0 532.0,240.0 531.0,234.0" stroke="#29a3e9" stroke-width="1"/>
  <polyline fill="none" points="275.0,226.0 275.0,231.0 280.0,230.0 280.0,226.0" stroke="#a09d58" stroke-width="1"/>
  <polyline fill="none" points="486.0,202.0 487.0,215.0 494.0,212.0 494.0,206.0 490.0,202.0" stroke="#eda6e7" stroke-width="1"/>
  <polyline fill="none" points="402.0,180.0 401.0,192.0 412.0,190.0 413.0,186.0 406.0,180.0" stroke="#3127f5" stroke-width="1"/>
  <polyline fill="none" points="445.0,189.0 444.0,194.0 449.0,194.0 450.0,189.0" stroke="#0df678" stroke-width="1"/>
  <polyline fill="none" points="563.0,522.0 565.0,529.0 576.0,538.0 580.0,538.0 579.0,528.0 567.0,522.0" stroke="#f4b849" stroke-width="1"/>
  <polyline fill="none" points="200.0,500.0 205.0,501.0 204.0,505.0 200.0,502.0" stroke="#4409ec" stroke-width="1"/>
  <polyline fill="none" points="280.0,561.0 260.0,603.0 272.0,582.0 271.0,577.0 275.0,569.0 281.0,562.0" stroke="#0f48aa" stroke-width="1"/>
  <polyline fill="none" points="184.0,468.0 188.0,470.0 187.0,477.0 184.0,479.0 182.0,477.0 182.0,470.0" stroke="#00c12c" stroke-width="1"/>
  <polyline fill="none" points="400.0,164.0 405.0,172.0 409.0,172.0 410.0,168.0 404.0,164.0" stroke="#caa628" stroke-width="1"/>
  <polyline fill="none" points="573.0,554.0 574.0,559.0 578.0,559.0 577.0,554.0" stroke="#1c340e" stroke-width="1"/>
  <polyline fill="none" points="292.0,176.0 274.0,193.0 292.0,185.0 294.0,178.0" stroke="#43867d" stroke-width="1"/>
  <polyline fill="none" points="259.0,595.0 262.0,599.0 258.0,602.0 257.0,597.0" stroke="#4f2501" stroke-width="1"/>
  <polyline fill="none" points="381.0,145.0 365.0,147.0 366.0,150.0 358.0,156.0 339.0,155.0 338.0,153.0 342.0,151.0 327.0,155.0 325.0,159.0 307.0,166.0 304.0,169.0 305.0,175.0 334.0,161.0 358.0,163.0 368.0,158.0 380.0,157.0 383.0,152.0 374.0,151.0 375.0,147.0 410.0,145.0" stroke="#a4da1c" stroke-width="1"/>
  <polyline fill="none" points="229.0,565.0 226.0,575.0 227.0,596.0 231.0,595.0 241.0,577.0 241.0,573.0 233.0,565.0" stroke="#209fba" stroke-width="1"/>
  <polyline fill="none" points="634.0,497.0 638.0,498.0 640.0,507.0 638.0,511.0 634.0,509.0" stroke="#5b896c" stroke-width="1"/>
  <polyline fill="none" points="261.0,632.0 261.0,638.0 265.0,638.0 265.0,632.0" stroke="#0b6145" stroke-width="1"/>
  <polyline fill="none" points="565.0,625.0 565.0,633.0 572.0,631.0 570.0,625.0" stroke="#d5e84b" stroke-width="1"/>
  <polyline fill="none" points="568.0,625.0 566.0,631.0 570.0,631.0 572.0,636.0 571.0,625.0" stroke="#dbd45a" stroke-width="1"/>
  <polyline fill="none" points="644.0,543.0 648.0,544.0 647.0,549.0 644.0,551.0 642.0,545.0" stroke="#9cd842" stroke-width="1"/>
  <polyline fill="none" points="590.0,619.0 594.0,621.0 585.0,627.0 582.0,624.0 589.0,619.0" stroke="#650cdf" stroke-width="1"/>
  <polyline fill="none" points="174.0,587.0 171.0,595.0 179.0,593.0 178.0,587.0" stroke="#97bf3e" stroke-width="1"/>
  <polyline fill="none" points="597.0,594.0 605.0,597.0 603.0,601.0 609.0,605.0 610.0,615.0 614.0,615.0 619.0,607.0 631.0,605.0 622.0,607.0 619.0,603.0 624.0,598.0 620.0,601.0 615.0,595.0 601.0,594.0" stroke="#2047ca" stroke-width="1"/>
  <polyline fill="none" points="277.0,664.0 277.0,677.0 281.0,677.0 281.0,665.0 278.0,664.0" stroke="#40993a" stroke-width="1"/>
  <polyline fill="none" points="458.0,688.0 464.0,690.0 461.0,693.0 458.0,689.0" stroke="#5b5845" stroke-width="1"/>
  <polyline fill="none" points="609.0,621.0 610.0,628.0 618.0,628.0 617.0,621.0" stroke="#6c806b" stroke-width="1"/>
  <polyline fill="none" points="160.0,604.0 160.0,608.0 164.0,609.0 165.0,604.0" stroke="#f23e24" stroke-width="1"/>
  <polyline fill="none" points="251.0,676.0 253.0,692.0 258.0,690.0 256.0,676.0" stroke="#38a8a4" stroke-width="1"/>
  <polyline fill="none" points="278.0,681.0 273.0,685.0 271.0,698.0 279.0,700.0 278.0,722.0 284.0,724.0 288.0,724.0 290.0,720.0 290.0,709.0 284.0,686.0 280.0,681.0" stroke="#a49396" stroke-width="1"/>
  <polyline fill="none" points="643.0,620.0 646.0,626.0 637.0,631.0 635.0,628.0 640.0,623.0" stroke="#19a70c" stroke-width="1"/>
  <polyline fill="none" points="652.0,627.0 650.0,631.0 654.0,633.0 659.0,631.0 655.0,627.0" stroke="#17d7ac" stroke-width="1"/>
  <polyline fill="none" points="636.0,636.0 645.0,639.0 645.0,647.0 650.0,647.0 650.0,642.0 657.0,637.0 663.0,637.0 665.0,640.0 656.0,643.0 652.0,652.0 650.0,650.0 641.0,652.0 637.0,649.0 639.0,640.0 636.0,638.0" stroke="#88e2dd" stroke-width="1"/>
  <polyline fill="none" points="627.0,665.0 632.0,666.0 628.0,672.0 624.0,668.0 626.0,665.0" stroke="#9c2fcd" stroke-width="1"/>
  <polyline fill="none" points="607.0,677.0 615.0,678.0 617.0,681.0 605.0,679.0" stroke="#50e212" stroke-width="1"/>
  <polyline fill="none" points="667.0,620.0 673.0,626.0 677.0,637.0 675.0,639.0 670.0,634.0 664.0,623.0" stroke="#8d8f63" stroke-width="1"/>
  <polyline fill="none" points="660.0,649.0 664.0,653.0 660.0,654.0 658.0,651.0" stroke="#d57913" stroke-width="1"/>
  <polyline fill="none" points="656.0,663.0 664.0,663.0 659.0,669.0 656.0,667.0" stroke="#108680" stroke-width="1"/>
  <polyline fill="none" points="147.0,648.0 142.0,652.0 135.0,652.0 138.0,659.0 136.0,664.0 124.0,662.0 122.0,673.0 113.0,664.0 107.0,666.0 107.0,676.0 95.0,694.0 95.0,701.0 100.0,701.0 120.0,684.0 124.0,684.0 127.0,691.0 132.0,691.0 142.0,700.0 157.0,701.0 171.0,692.0 177.0,685.0 177.0,680.0 173.0,680.0 174.0,684.0 168.0,683.0 166.0,669.0 155.0,667.0 160.0,650.0 155.0,651.0 151.0,648.0" stroke="#497a2d" stroke-width="1"/>
  <polyline points="395.0,397.0 383.0,406.0 369.0,407.0 363.0,399.0 356.0,405.0" fill="none" stroke="#44f66c" stroke-width="1"/><polyline points="356.0,405.0 356.0,414.0 369.0,428.0 375.0,430.0 386.0,430.0 398.0,420.0 415.0,414.0 416.0,404.0 412.0,401.0 404.0,402.0" fill="none" stroke="#44f66c" stroke-width="1"/><polyline points="400.0,221.0 386.0,229.0 373.0,231.0 358.0,242.0 339.0,241.0 326.0,247.0 308.0,268.0 313.0,296.0 307.0,315.0 316.0,315.0 326.0,310.0 333.0,315.0 366.0,319.0 373.0,328.0 374.0,363.0 370.0,369.0 365.0,369.0 361.0,376.0 369.0,383.0 368.0,394.0 365.0,396.0 367.0,403.0 386.0,404.0 391.0,399.0 390.0,381.0 396.0,377.0 403.0,379.0 410.0,386.0 406.0,391.0 407.0,400.0" fill="none" stroke="#27ee62" stroke-width="1"/><polyline points="417.0,405.0 417.0,411.0 412.0,417.0 395.0,422.0 385.0,431.0" fill="none" stroke="#27ee62" stroke-width="1"/><polyline points="351.0,404.0 340.0,419.0 336.0,430.0 325.0,428.0 316.0,434.0 311.0,430.0 306.0,432.0 306.0,441.0 312.0,457.0 333.0,492.0 340.0,496.0 342.0,487.0 358.0,508.0 380.0,515.0 414.0,513.0 431.0,505.0 447.0,489.0 454.0,477.0 460.0,456.0 467.0,447.0 472.0,425.0 468.0,423.0 453.0,430.0 445.0,429.0 441.0,426.0 442.0,419.0 439.0,415.0 442.0,412.0 469.0,415.0 473.0,413.0 474.0,403.0 483.0,404.0 491.0,399.0 499.0,382.0 502.0,364.0 501.0,354.0 491.0,329.0 492.0,334.0 485.0,338.0 484.0,348.0 477.0,348.0 469.0,355.0 447.0,357.0 447.0,361.0 454.0,362.0 449.0,366.0 424.0,363.0 424.0,359.0 440.0,361.0 440.0,357.0 430.0,353.0 429.0,347.0 416.0,353.0 404.0,349.0 411.0,371.0 409.0,373.0 402.0,369.0 402.0,364.0 394.0,361.0 395.0,328.0 407.0,317.0 439.0,311.0 466.0,313.0 474.0,310.0 471.0,274.0 460.0,259.0 466.0,252.0 460.0,241.0 452.0,240.0 437.0,228.0 424.0,228.0" fill="none" stroke="#27ee62" stroke-width="1"/><polyline points="355.0,433.0 345.0,435.0 343.0,440.0 365.0,452.0 367.0,448.0 382.0,450.0 380.0,454.0" fill="none" stroke="#9c32e8" stroke-width="1"/><polyline points="383.0,451.0 399.0,451.0 429.0,445.0 447.0,438.0 446.0,434.0 382.0,438.0" fill="none" stroke="#9c32e8" stroke-width="1"/><polyline points="453.0,345.0 435.0,353.0 430.0,346.0 424.0,346.0 415.0,353.0 410.0,348.0 404.0,348.0 403.0,353.0" fill="none" stroke="#0e98e6" stroke-width="1"/><polyline points="407.0,373.0 402.0,364.0 396.0,364.0 393.0,355.0 394.0,369.0 394.0,364.0" fill="none" stroke="#0e98e6" stroke-width="1"/><polyline points="326.0,435.0 327.0,447.0 338.0,469.0 350.0,484.0" fill="none" stroke="#02cba1" stroke-width="1"/><polyline points="327.0,435.0 331.0,435.0 337.0,443.0" fill="none" stroke="#02cba1" stroke-width="1"/><polyline points="330.0,313.0 334.0,316.0 332.0,318.0 314.0,316.0 309.0,321.0 311.0,325.0 331.0,330.0" fill="none" stroke="#1cf70d" stroke-width="1"/><polyline points="332.0,331.0 358.0,334.0 362.0,341.0 320.0,337.0" fill="none" stroke="#1cf70d" stroke-width="1"/><polyline points="320.0,337.0 347.0,338.0 361.0,342.0 362.0,336.0 359.0,334.0 315.0,327.0 309.0,322.0 317.0,315.0 329.0,318.0 341.0,316.0 363.0,320.0 371.0,329.0" fill="none" stroke="#1cf70d" stroke-width="1"/><polyline points="535.0,417.0 523.0,427.0 505.0,431.0 496.0,460.0 484.0,473.0 475.0,488.0 475.0,493.0" fill="none" stroke="#7f33d6" stroke-width="1"/><polyline points="496.0,461.0 504.0,433.0 510.0,429.0" fill="none" stroke="#7f33d6" stroke-width="1"/><polyline points="259.0,338.0 253.0,386.0 255.0,366.0 261.0,365.0 264.0,368.0 283.0,421.0 300.0,433.0 309.0,459.0 324.0,487.0" fill="none" stroke="#bd3cf3" stroke-width="1"/><polyline points="300.0,432.0 281.0,417.0 263.0,366.0 255.0,364.0" fill="none" stroke="#bd3cf3" stroke-width="1"/><polyline points="262.0,352.0 267.0,355.0 266.0,357.0" fill="none" stroke="#e6370c" stroke-width="1"/><polyline points="265.0,358.0 278.0,368.0 283.0,377.0 284.0,390.0 297.0,416.0" fill="none" stroke="#e6370c" stroke-width="1"/><polyline points="284.0,389.0 279.0,369.0 285.0,370.0 285.0,376.0 287.0,373.0 284.0,368.0" fill="none" stroke="#e6370c" stroke-width="1"/><polyline points="266.0,358.0 270.0,354.0 279.0,364.0 279.0,360.0 283.0,361.0" fill="none" stroke="#e6370c" stroke-width="1"/><polyline points="278.0,361.0 273.0,355.0" fill="none" stroke="#e6370c" stroke-width="1"/><polyline points="293.0,461.0 300.0,473.0 306.0,477.0 305.0,481.0 322.0,498.0 324.0,504.0 322.0,515.0" fill="none" stroke="#587725" stroke-width="1"/><polyline points="290.0,476.0 311.0,501.0" fill="none" stroke="#c7e9aa" stroke-width="1"/><polyline points="543.0,324.0 542.0,337.0 526.0,343.0 521.0,355.0 528.0,352.0 530.0,358.0 528.0,356.0 530.0,353.0" fill="none" stroke="#7d14ab" stroke-width="1"/><polyline points="543.0,357.0 534.0,359.0 527.0,365.0 524.0,381.0 517.0,376.0" fill="none" stroke="#7d14ab" stroke-width="1"/><polyline points="530.0,353.0 524.0,351.0" fill="none" stroke="#7d14ab" stroke-width="1"/><polyline points="278.0,486.0 283.0,495.0 287.0,517.0 283.0,522.0 278.0,521.0 280.0,525.0 287.0,517.0 284.0,509.0 286.0,505.0 291.0,514.0" fill="none" stroke="#2284dc" stroke-width="1"/><polyline points="291.0,515.0 296.0,514.0 298.0,519.0 299.0,517.0 293.0,495.0 295.0,508.0 290.0,510.0 288.0,501.0 286.0,505.0 283.0,501.0 281.0,489.0" fill="none" stroke="#2284dc" stroke-width="1"/><polyline points="240.0,398.0 234.0,404.0 226.0,400.0" fill="none" stroke="#0947c5" stroke-width="1"/><polyline points="226.0,400.0 232.0,402.0 235.0,407.0 235.0,402.0 242.0,399.0 254.0,417.0 252.0,422.0 257.0,415.0 254.0,417.0 249.0,409.0 255.0,403.0 262.0,403.0 264.0,412.0 254.0,425.0 254.0,430.0 264.0,412.0 264.0,405.0" fill="none" stroke="#0947c5" stroke-width="1"/><polyline points="382.0,144.0 336.0,151.0 306.0,163.0 300.0,174.0 297.0,177.0 292.0,175.0 277.0,189.0 252.0,219.0 231.0,270.0 219.0,329.0 195.0,363.0 171.0,409.0 172.0,463.0 166.0,481.0 148.0,514.0 141.0,549.0 129.0,567.0" fill="none" stroke="#ee810a" stroke-width="1"/><polyline points="129.0,568.0 139.0,555.0 150.0,509.0 170.0,471.0 173.0,454.0" fill="none" stroke="#ee810a" stroke-width="1"/><polyline points="219.0,329.0 224.0,304.0 226.0,301.0 230.0,302.0" fill="none" stroke="#ee810a" stroke-width="1"/><polyline points="225.0,300.0 231.0,270.0 251.0,221.0 264.0,203.0 291.0,176.0 299.0,179.0 297.0,177.0" fill="none" stroke="#ee810a" stroke-width="1"/><polyline points="382.0,144.0 418.0,145.0 416.0,147.0 441.0,149.0 442.0,153.0 445.0,152.0 445.0,157.0 446.0,154.0 465.0,155.0 483.0,165.0 486.0,168.0 483.0,173.0 477.0,171.0 480.0,166.0 475.0,172.0 463.0,174.0 452.0,162.0 437.0,157.0 435.0,152.0 431.0,151.0 436.0,157.0 448.0,160.0 454.0,165.0 447.0,167.0 450.0,172.0 439.0,180.0 435.0,179.0 428.0,191.0 434.0,185.0 433.0,182.0 448.0,174.0 454.0,165.0" fill="none" stroke="#ee810a" stroke-width="1"/><polyline points="483.0,173.0 488.0,169.0 462.0,154.0" fill="none" stroke="#ee810a" stroke-width="1"/><polyline points="465.0,541.0 453.0,553.0 451.0,561.0 431.0,572.0" fill="none" stroke="#6a7c76" stroke-width="1"/><polyline points="512.0,513.0 509.0,515.0 508.0,523.0 500.0,530.0 498.0,541.0 506.0,549.0 497.0,557.0 500.0,567.0 491.0,570.0 487.0,575.0 487.0,584.0 496.0,595.0 488.0,586.0" fill="none" stroke="#a9fb17" stroke-width="1"/><polyline points="500.0,531.0 507.0,526.0 508.0,518.0" fill="none" stroke="#a9fb17" stroke-width="1"/><polyline points="412.0,194.0 415.0,199.0 412.0,214.0 407.0,210.0 400.0,210.0 398.0,216.0 391.0,219.0 389.0,216.0" fill="none" stroke="#78c355" stroke-width="1"/><polyline points="406.0,210.0 411.0,216.0 410.0,220.0 439.0,227.0 454.0,234.0 455.0,238.0 458.0,237.0 454.0,236.0 461.0,229.0 459.0,230.0" fill="none" stroke="#78c355" stroke-width="1"/><polyline points="459.0,230.0 455.0,235.0 429.0,225.0 424.0,220.0 423.0,223.0 414.0,221.0 411.0,217.0 414.0,205.0" fill="none" stroke="#78c355" stroke-width="1"/><polyline points="538.0,489.0 540.0,491.0 538.0,502.0 545.0,511.0 543.0,518.0 540.0,518.0 541.0,522.0 547.0,521.0 556.0,534.0" fill="none" stroke="#ef079c" stroke-width="1"/><polyline points="557.0,534.0 549.0,522.0" fill="none" stroke="#ef079c" stroke-width="1"/><polyline points="545.0,512.0 548.0,514.0 543.0,506.0 549.0,500.0" fill="none" stroke="#ef079c" stroke-width="1"/><polyline points="348.0,205.0 355.0,211.0 342.0,208.0 342.0,212.0 338.0,212.0 342.0,215.0" fill="none" stroke="#ac984c" stroke-width="1"/><polyline points="342.0,215.0 346.0,218.0" fill="none" stroke="#ac984c" stroke-width="1"/><polyline points="346.0,220.0 341.0,213.0 346.0,207.0 351.0,212.0 362.0,213.0 370.0,223.0 363.0,216.0 365.0,208.0 363.0,212.0 358.0,213.0" fill="none" stroke="#ac984c" stroke-width="1"/><polyline points="453.0,187.0 454.0,191.0 442.0,203.0 429.0,205.0 423.0,212.0 424.0,216.0 428.0,219.0 423.0,213.0 425.0,210.0 430.0,205.0 439.0,208.0" fill="none" stroke="#b825e5" stroke-width="1"/><polyline points="255.0,217.0 245.0,234.0" fill="none" stroke="#b7a142" stroke-width="1"/><polyline points="220.0,328.0 174.0,402.0 171.0,413.0 173.0,438.0 171.0,468.0" fill="none" stroke="#b7a142" stroke-width="1"/><polyline points="128.0,569.0 128.0,573.0 157.0,569.0 160.0,575.0 167.0,569.0 161.0,564.0 164.0,561.0 174.0,561.0 182.0,553.0 190.0,538.0 191.0,528.0 198.0,519.0 205.0,523.0 197.0,540.0 199.0,550.0 206.0,548.0 212.0,539.0 215.0,542.0 214.0,559.0 207.0,561.0 207.0,565.0 222.0,563.0 230.0,551.0 230.0,546.0 226.0,546.0 221.0,552.0 219.0,550.0 219.0,533.0 220.0,523.0 224.0,521.0 226.0,505.0 230.0,498.0 231.0,468.0 229.0,464.0 224.0,465.0 219.0,492.0 212.0,490.0 210.0,478.0 206.0,479.0 206.0,490.0 202.0,492.0 196.0,464.0 202.0,455.0 207.0,455.0 209.0,434.0 215.0,411.0 219.0,406.0 216.0,398.0 222.0,382.0 227.0,377.0 234.0,329.0 232.0,297.0 238.0,274.0 238.0,262.0" fill="none" stroke="#b7a142" stroke-width="1"/><polyline points="491.0,168.0 507.0,186.0 501.0,185.0 491.0,171.0 499.0,184.0 503.0,185.0 515.0,200.0 515.0,205.0 525.0,222.0 507.0,186.0 537.0,221.0 539.0,228.0 540.0,226.0 542.0,228.0 541.0,231.0 545.0,233.0 587.0,297.0 618.0,376.0 637.0,448.0 645.0,508.0 657.0,558.0 668.0,571.0 704.0,594.0 670.0,572.0" fill="none" stroke="#10bbad" stroke-width="1"/><polyline points="587.0,297.0 536.0,219.0" fill="none" stroke="#10bbad" stroke-width="1"/><polyline points="293.0,220.0 276.0,235.0 275.0,237.0 282.0,242.0 294.0,240.0" fill="none" stroke="#d78095" stroke-width="1"/><polyline points="294.0,238.0 288.0,242.0" fill="none" stroke="#d78095" stroke-width="1"/><polyline points="534.0,218.0 547.0,246.0 543.0,248.0 541.0,245.0 533.0,245.0 533.0,255.0 541.0,280.0 548.0,288.0 548.0,294.0 555.0,295.0 562.0,303.0 558.0,307.0 558.0,313.0 563.0,319.0 564.0,317.0 567.0,319.0 574.0,336.0 578.0,336.0 577.0,322.0 581.0,322.0 593.0,376.0 597.0,374.0 596.0,357.0 598.0,355.0 602.0,362.0 602.0,381.0 600.0,385.0 595.0,386.0 595.0,390.0 612.0,411.0 609.0,415.0 605.0,414.0 612.0,438.0 610.0,459.0 616.0,482.0 615.0,487.0 610.0,486.0 609.0,506.0 613.0,526.0 619.0,538.0 616.0,549.0 634.0,565.0 635.0,569.0 646.0,577.0 653.0,575.0 662.0,577.0 665.0,573.0 670.0,578.0 687.0,584.0" fill="none" stroke="#c7991c" stroke-width="1"/><polyline points="657.0,559.0 651.0,540.0 643.0,491.0 638.0,484.0 635.0,487.0 631.0,481.0 633.0,462.0 611.0,373.0 615.0,371.0 614.0,366.0 606.0,359.0 596.0,333.0 598.0,330.0 603.0,337.0" fill="none" stroke="#c7991c" stroke-width="1"/><polyline points="323.0,546.0 327.0,559.0 326.0,565.0 320.0,570.0 328.0,576.0 328.0,581.0 324.0,589.0 316.0,591.0 311.0,607.0 308.0,606.0" fill="none" stroke="#03ab2d" stroke-width="1"/><polyline points="308.0,608.0 315.0,603.0 316.0,592.0 319.0,589.0 326.0,590.0 332.0,598.0 331.0,609.0 326.0,614.0 314.0,614.0 315.0,608.0 319.0,608.0 313.0,609.0" fill="none" stroke="#03ab2d" stroke-width="1"/><polyline points="327.0,614.0 329.0,629.0 330.0,621.0 327.0,614.0 332.0,607.0 332.0,597.0 329.0,593.0 331.0,586.0 328.0,586.0 329.0,591.0 325.0,589.0" fill="none" stroke="#03ab2d" stroke-width="1"/><polyline points="576.0,291.0 599.0,337.0 619.0,395.0 632.0,456.0 632.0,492.0 638.0,533.0 644.0,553.0 656.0,570.0" fill="none" stroke="#baa79e" stroke-width="1"/><polyline points="656.0,569.0 646.0,556.0" fill="none" stroke="#baa79e" stroke-width="1"/><polyline points="492.0,561.0 493.0,565.0 482.0,578.0 487.0,595.0 479.0,604.0 481.0,618.0 477.0,623.0 473.0,622.0" fill="none" stroke="#8a56d4" stroke-width="1"/><polyline points="477.0,623.0 476.0,633.0" fill="none" stroke="#8a56d4" stroke-width="1"/><polyline points="476.0,633.0 476.0,625.0 484.0,615.0 484.0,604.0" fill="none" stroke="#8a56d4" stroke-width="1"/><polyline points="484.0,615.0 481.0,618.0 478.0,608.0 480.0,602.0" fill="none" stroke="#8a56d4" stroke-width="1"/><polyline points="287.0,187.0 270.0,200.0 271.0,204.0 266.0,208.0 265.0,214.0 253.0,224.0 248.0,235.0" fill="none" stroke="#80ada9" stroke-width="1"/><polyline points="248.0,236.0 256.0,222.0" fill="none" stroke="#80ada9" stroke-width="1"/><polyline points="256.0,222.0 266.0,212.0" fill="none" stroke="#80ada9" stroke-width="1"/><polyline points="265.0,211.0 270.0,207.0" fill="none" stroke="#80ada9" stroke-width="1"/><polyline points="288.0,187.0 291.0,190.0 287.0,200.0" fill="none" stroke="#80ada9" stroke-width="1"/><polyline points="526.0,545.0 520.0,550.0 529.0,564.0 545.0,575.0 533.0,563.0 538.0,560.0 546.0,568.0 562.0,574.0 566.0,579.0 559.0,587.0 564.0,590.0 561.0,599.0 559.0,601.0 553.0,599.0 561.0,600.0 564.0,593.0 561.0,583.0 565.0,582.0 566.0,578.0 538.0,560.0 535.0,560.0 533.0,565.0" fill="none" stroke="#f61a05" stroke-width="1"/><polyline points="564.0,521.0 572.0,525.0 587.0,526.0 592.0,532.0 600.0,529.0 603.0,534.0 602.0,546.0" fill="none" stroke="#58abb7" stroke-width="1"/><polyline points="603.0,536.0 606.0,535.0 599.0,527.0" fill="none" stroke="#58abb7" stroke-width="1"/><polyline points="529.0,575.0 523.0,578.0 530.0,590.0 524.0,603.0 537.0,614.0" fill="none" stroke="#f5e57f" stroke-width="1"/><polyline points="525.0,602.0 527.0,599.0 532.0,602.0 529.0,600.0 533.0,597.0 534.0,591.0 532.0,586.0 534.0,594.0 528.0,599.0 530.0,587.0" fill="none" stroke="#f5e57f" stroke-width="1"/><polyline points="530.0,575.0 540.0,580.0" fill="none" stroke="#f5e57f" stroke-width="1"/><polyline points="282.0,488.0 288.0,514.0 286.0,521.0 278.0,522.0 281.0,546.0 284.0,549.0 281.0,553.0 283.0,561.0 276.0,567.0 266.0,592.0 262.0,592.0 261.0,583.0 252.0,581.0 248.0,586.0 249.0,593.0 242.0,599.0 242.0,605.0 232.0,606.0 229.0,624.0 219.0,631.0 211.0,643.0 212.0,653.0 206.0,658.0 197.0,681.0 181.0,700.0 180.0,707.0 168.0,711.0 154.0,727.0 154.0,736.0 163.0,745.0 185.0,745.0 200.0,733.0 205.0,725.0 234.0,712.0 234.0,706.0 229.0,698.0 233.0,694.0 243.0,693.0 243.0,689.0 231.0,685.0 233.0,665.0 242.0,648.0 241.0,637.0 244.0,630.0 241.0,625.0 245.0,621.0 253.0,625.0 257.0,622.0 262.0,630.0 266.0,630.0 278.0,593.0 293.0,575.0 296.0,577.0 295.0,581.0 287.0,590.0 287.0,595.0 294.0,605.0 295.0,612.0 308.0,617.0 303.0,628.0 304.0,635.0 310.0,641.0 306.0,659.0 309.0,663.0 322.0,667.0 318.0,682.0 323.0,689.0 341.0,691.0 337.0,708.0 349.0,718.0 366.0,720.0 375.0,715.0 378.0,718.0 385.0,717.0 398.0,726.0 402.0,726.0 405.0,719.0 419.0,730.0 429.0,727.0 438.0,717.0 449.0,720.0 444.0,710.0 447.0,707.0 466.0,706.0 466.0,702.0 462.0,700.0 464.0,694.0 475.0,699.0 492.0,695.0 495.0,689.0 493.0,677.0 501.0,668.0 499.0,650.0 517.0,646.0 522.0,642.0 522.0,635.0 516.0,625.0 533.0,619.0 532.0,608.0 523.0,602.0 530.0,595.0" fill="none" stroke="#826604" stroke-width="1"/><polyline points="523.0,578.0 532.0,571.0 529.0,558.0 535.0,557.0" fill="none" stroke="#826604" stroke-width="1"/><polyline points="530.0,537.0 537.0,543.0 542.0,556.0 551.0,565.0 556.0,565.0 554.0,555.0 560.0,551.0 560.0,544.0 553.0,534.0 546.0,534.0 543.0,531.0 536.0,513.0 536.0,505.0 531.0,505.0 524.0,511.0 519.0,507.0 513.0,523.0 503.0,528.0 500.0,534.0" fill="none" stroke="#826604" stroke-width="1"/><polyline points="487.0,582.0 498.0,598.0 486.0,602.0 484.0,606.0 486.0,616.0 480.0,624.0 480.0,631.0 482.0,637.0 492.0,644.0 482.0,647.0 477.0,652.0 477.0,664.0 461.0,672.0 459.0,685.0 457.0,687.0 452.0,684.0 445.0,685.0 441.0,690.0 441.0,696.0 432.0,706.0 423.0,700.0 417.0,700.0 411.0,702.0 402.0,713.0 392.0,702.0 380.0,698.0 369.0,684.0 355.0,683.0 352.0,680.0 358.0,671.0 356.0,662.0 341.0,656.0 342.0,643.0 338.0,638.0 323.0,636.0" fill="none" stroke="#826604" stroke-width="1"/><polyline points="333.0,598.0 322.0,588.0 328.0,581.0 327.0,574.0" fill="none" stroke="#826604" stroke-width="1"/><polyline points="325.0,564.0 326.0,550.0 316.0,539.0 312.0,539.0 313.0,551.0 310.0,553.0 307.0,550.0 307.0,544.0 302.0,538.0 303.0,527.0 300.0,513.0 296.0,509.0 296.0,501.0" fill="none" stroke="#826604" stroke-width="1"/><polyline points="369.0,160.0 354.0,165.0 348.0,163.0 353.0,162.0 335.0,161.0" fill="none" stroke="#7c8cd4" stroke-width="1"/><polyline points="335.0,161.0 355.0,165.0 379.0,160.0 393.0,170.0 398.0,179.0 396.0,182.0 385.0,175.0 394.0,183.0" fill="none" stroke="#7c8cd4" stroke-width="1"/><polyline points="596.0,531.0 589.0,534.0 584.0,548.0 586.0,557.0 590.0,560.0 608.0,558.0" fill="none" stroke="#97b0cc" stroke-width="1"/><polyline points="602.0,545.0 604.0,536.0" fill="none" stroke="#97b0cc" stroke-width="1"/><polyline points="423.0,147.0 433.0,150.0" fill="none" stroke="#64e1e6" stroke-width="1"/><polyline points="463.0,173.0 477.0,170.0 479.0,163.0" fill="none" stroke="#64e1e6" stroke-width="1"/><polyline points="445.0,154.0 442.0,150.0" fill="none" stroke="#64e1e6" stroke-width="1"/><polyline points="253.0,584.0 258.0,585.0 257.0,592.0 251.0,595.0 256.0,597.0 255.0,602.0 250.0,606.0 243.0,603.0" fill="none" stroke="#cb45d2" stroke-width="1"/><polyline points="243.0,604.0 240.0,607.0 237.0,604.0 233.0,606.0 247.0,605.0 249.0,611.0" fill="none" stroke="#cb45d2" stroke-width="1"/><polyline points="250.0,611.0 248.0,607.0 253.0,605.0 259.0,596.0 257.0,598.0 255.0,594.0" fill="none" stroke="#cb45d2" stroke-width="1"/><polyline points="308.0,583.0 300.0,592.0" fill="none" stroke="#7f8913" stroke-width="1"/><polyline points="294.0,611.0 303.0,616.0 304.0,621.0 306.0,618.0 308.0,620.0 302.0,628.0 302.0,633.0 308.0,640.0 297.0,655.0 303.0,661.0 298.0,653.0 308.0,641.0 305.0,649.0 307.0,664.0 317.0,665.0 320.0,669.0 316.0,672.0 306.0,668.0" fill="none" stroke="#7f8913" stroke-width="1"/><polyline points="320.0,670.0 319.0,666.0 311.0,665.0" fill="none" stroke="#7f8913" stroke-width="1"/><polyline points="308.0,620.0 295.0,611.0" fill="none" stroke="#7f8913" stroke-width="1"/><polyline points="332.0,631.0 331.0,636.0 338.0,636.0 346.0,643.0 348.0,656.0 330.0,661.0 323.0,669.0 334.0,659.0 343.0,661.0 339.0,658.0 350.0,657.0 357.0,665.0 355.0,671.0 344.0,679.0 331.0,677.0 347.0,678.0" fill="none" stroke="#696171" stroke-width="1"/><polyline points="357.0,665.0 357.0,675.0" fill="none" stroke="#696171" stroke-width="1"/><polyline points="358.0,666.0 346.0,653.0 347.0,645.0 344.0,640.0 346.0,638.0" fill="none" stroke="#696171" stroke-width="1"/><polyline points="333.0,631.0 339.0,631.0" fill="none" stroke="#696171" stroke-width="1"/><polyline points="197.0,525.0 184.0,546.0 181.0,558.0 177.0,562.0 175.0,561.0 177.0,558.0 168.0,568.0 167.0,573.0 173.0,579.0 162.0,585.0 172.0,581.0 173.0,576.0" fill="none" stroke="#6509d0" stroke-width="1"/><polyline points="168.0,569.0 175.0,561.0" fill="none" stroke="#6509d0" stroke-width="1"/><polyline points="230.0,531.0 226.0,544.0" fill="none" stroke="#d06bd4" stroke-width="1"/><polyline points="226.0,544.0 230.0,543.0 231.0,551.0 221.0,565.0 201.0,574.0 192.0,586.0 182.0,593.0" fill="none" stroke="#d06bd4" stroke-width="1"/><polyline points="181.0,593.0 177.0,596.0 151.0,598.0 133.0,609.0 130.0,614.0" fill="none" stroke="#d06bd4" stroke-width="1"/><polyline points="178.0,596.0 192.0,587.0 203.0,573.0" fill="none" stroke="#d06bd4" stroke-width="1"/><polyline points="231.0,543.0 227.0,542.0" fill="none" stroke="#d06bd4" stroke-width="1"/><polyline points="482.0,646.0 475.0,651.0 475.0,661.0 471.0,666.0 463.0,669.0 451.0,682.0 441.0,683.0 436.0,689.0 444.0,682.0 453.0,681.0 475.0,661.0 477.0,662.0" fill="none" stroke="#085dcc" stroke-width="1"/><polyline points="474.0,660.0 474.0,654.0 483.0,646.0 494.0,648.0 502.0,658.0" fill="none" stroke="#085dcc" stroke-width="1"/><polyline points="502.0,658.0 499.0,652.0" fill="none" stroke="#085dcc" stroke-width="1"/><polyline points="574.0,594.0 577.0,597.0 575.0,605.0 577.0,603.0 579.0,606.0" fill="none" stroke="#d3ff6d" stroke-width="1"/><polyline points="579.0,607.0 581.0,599.0 586.0,598.0 595.0,600.0 603.0,606.0 602.0,614.0 607.0,619.0" fill="none" stroke="#d3ff6d" stroke-width="1"/><polyline points="602.0,614.0 605.0,611.0" fill="none" stroke="#d3ff6d" stroke-width="1"/><polyline points="239.0,618.0 237.0,623.0 231.0,622.0 218.0,630.0 209.0,644.0" fill="none" stroke="#61eae5" stroke-width="1"/><polyline points="209.0,644.0 215.0,639.0" fill="none" stroke="#61eae5" stroke-width="1"/><polyline points="232.0,623.0 239.0,626.0 240.0,619.0 257.0,621.0 261.0,628.0 265.0,629.0" fill="none" stroke="#61eae5" stroke-width="1"/><polyline points="361.0,664.0 363.0,675.0 360.0,681.0 351.0,684.0 344.0,691.0" fill="none" stroke="#a9abe5" stroke-width="1"/><polyline points="360.0,681.0 372.0,683.0 371.0,678.0 363.0,676.0 362.0,667.0 367.0,665.0" fill="none" stroke="#a9abe5" stroke-width="1"/><polyline points="381.0,699.0 393.0,700.0 402.0,708.0 413.0,700.0 432.0,701.0 433.0,695.0 407.0,697.0 420.0,694.0 434.0,697.0" fill="none" stroke="#8f38bd" stroke-width="1"/><polyline points="403.0,708.0 398.0,702.0 384.0,697.0 389.0,695.0" fill="none" stroke="#8f38bd" stroke-width="1"/><polyline points="387.0,695.0 383.0,700.0" fill="none" stroke="#8f38bd" stroke-width="1"/><polyline points="618.0,607.0 623.0,609.0 618.0,616.0 609.0,619.0 605.0,617.0" fill="none" stroke="#19e34c" stroke-width="1"/><polyline points="137.0,571.0 139.0,574.0 141.0,584.0 138.0,597.0 141.0,589.0 145.0,593.0 148.0,591.0" fill="none" stroke="#a706fb" stroke-width="1"/><polyline points="148.0,591.0 155.0,580.0 156.0,572.0" fill="none" stroke="#a706fb" stroke-width="1"/><polyline points="588.0,605.0 585.0,610.0 591.0,617.0 583.0,622.0 579.0,633.0 576.0,632.0 577.0,618.0 575.0,616.0 569.0,619.0 564.0,612.0 567.0,618.0 577.0,619.0 578.0,641.0 573.0,646.0 569.0,642.0" fill="none" stroke="#9ea622" stroke-width="1"/><polyline points="569.0,643.0 583.0,647.0 587.0,654.0 592.0,655.0 592.0,659.0" fill="none" stroke="#9ea622" stroke-width="1"/><polyline points="592.0,658.0 595.0,652.0 605.0,655.0 607.0,657.0 605.0,661.0" fill="none" stroke="#9ea622" stroke-width="1"/><polyline points="595.0,651.0 596.0,644.0 604.0,643.0 606.0,647.0 602.0,650.0 609.0,649.0 613.0,654.0 613.0,668.0 604.0,670.0 610.0,669.0 611.0,676.0 618.0,681.0" fill="none" stroke="#9ea622" stroke-width="1"/><polyline points="611.0,675.0 613.0,664.0 617.0,663.0 618.0,657.0 624.0,652.0 623.0,649.0 626.0,646.0" fill="none" stroke="#9ea622" stroke-width="1"/><polyline points="623.0,648.0 618.0,644.0 632.0,643.0 620.0,641.0 618.0,643.0 624.0,651.0 614.0,663.0 612.0,651.0 607.0,644.0 613.0,640.0 613.0,632.0 604.0,640.0 595.0,638.0 596.0,613.0 592.0,619.0 591.0,614.0" fill="none" stroke="#9ea622" stroke-width="1"/><polyline points="318.0,674.0 315.0,680.0 300.0,678.0 307.0,679.0 309.0,684.0 311.0,679.0 314.0,681.0 316.0,679.0 322.0,690.0 337.0,696.0 335.0,710.0 331.0,705.0 331.0,697.0" fill="none" stroke="#6ba7f9" stroke-width="1"/><polyline points="331.0,703.0 325.0,706.0 318.0,702.0 323.0,707.0 330.0,704.0 332.0,709.0 341.0,715.0 340.0,721.0 345.0,723.0 345.0,726.0 348.0,724.0 361.0,729.0 373.0,729.0 392.0,741.0 395.0,739.0 388.0,739.0" fill="none" stroke="#6ba7f9" stroke-width="1"/><polyline points="341.0,716.0 353.0,721.0 371.0,721.0 379.0,730.0 389.0,734.0 399.0,734.0 406.0,730.0 424.0,738.0 436.0,731.0 439.0,733.0 433.0,745.0 438.0,739.0" fill="none" stroke="#6ba7f9" stroke-width="1"/><polyline points="436.0,730.0 438.0,728.0" fill="none" stroke="#6ba7f9" stroke-width="1"/><polyline points="371.0,721.0 347.0,719.0" fill="none" stroke="#6ba7f9" stroke-width="1"/><polyline points="337.0,695.0 324.0,691.0 318.0,684.0" fill="none" stroke="#6ba7f9" stroke-width="1"/><polyline points="618.0,540.0 613.0,543.0 615.0,544.0 613.0,547.0" fill="none" stroke="#747d93" stroke-width="1"/><polyline points="614.0,547.0 618.0,552.0" fill="none" stroke="#747d93" stroke-width="1"/><polyline points="617.0,553.0 620.0,552.0 646.0,578.0 657.0,577.0 664.0,581.0 677.0,582.0 700.0,594.0 706.0,599.0 703.0,601.0 676.0,587.0 667.0,590.0 670.0,588.0 672.0,593.0 684.0,598.0 701.0,612.0 702.0,609.0 707.0,610.0 713.0,619.0 717.0,617.0 712.0,604.0 706.0,602.0 706.0,598.0 694.0,590.0 677.0,582.0 643.0,576.0 630.0,560.0 614.0,547.0" fill="none" stroke="#747d93" stroke-width="1"/><polyline points="619.0,643.0 626.0,642.0 628.0,644.0 626.0,651.0 630.0,652.0" fill="none" stroke="#894f49" stroke-width="1"/><polyline points="581.0,591.0 581.0,603.0 578.0,604.0" fill="none" stroke="#fdc80e" stroke-width="1"/><polyline points="572.0,594.0 565.0,598.0 564.0,608.0" fill="none" stroke="#fdc80e" stroke-width="1"/><polyline points="577.0,620.0 578.0,644.0 575.0,647.0 567.0,646.0 567.0,650.0 570.0,650.0 571.0,658.0 581.0,655.0 581.0,660.0 576.0,665.0 576.0,669.0 582.0,673.0 581.0,681.0 586.0,682.0 586.0,676.0 593.0,671.0 593.0,667.0 587.0,665.0 589.0,661.0 603.0,663.0" fill="none" stroke="#fdc80e" stroke-width="1"/><polyline points="607.0,656.0 600.0,651.0" fill="none" stroke="#fdc80e" stroke-width="1"/><polyline points="596.0,644.0 597.0,650.0 592.0,654.0 585.0,651.0 590.0,635.0 593.0,633.0 597.0,640.0" fill="none" stroke="#fdc80e" stroke-width="1"/><polyline points="614.0,667.0 609.0,670.0 598.0,666.0 598.0,670.0 602.0,670.0 603.0,673.0 598.0,674.0 597.0,681.0 596.0,677.0 591.0,677.0 594.0,687.0 590.0,689.0 590.0,693.0 597.0,693.0 598.0,684.0 601.0,686.0 601.0,692.0 626.0,687.0 628.0,682.0 622.0,679.0 625.0,676.0 633.0,680.0 633.0,685.0 638.0,685.0 642.0,679.0 639.0,672.0 648.0,667.0 651.0,670.0 645.0,675.0 645.0,679.0 652.0,682.0 678.0,683.0 679.0,672.0 673.0,666.0 674.0,658.0 681.0,654.0 683.0,658.0 678.0,660.0 678.0,665.0 684.0,668.0 685.0,681.0 689.0,681.0 692.0,672.0 693.0,680.0 701.0,679.0 708.0,682.0 712.0,679.0 712.0,669.0 694.0,653.0 689.0,626.0 679.0,619.0 664.0,615.0 667.0,611.0 666.0,606.0 642.0,605.0 639.0,613.0 635.0,615.0 636.0,605.0 629.0,597.0" fill="none" stroke="#fdc80e" stroke-width="1"/><polyline points="595.0,598.0 589.0,600.0 585.0,596.0" fill="none" stroke="#fdc80e" stroke-width="1"/><polyline points="125.0,590.0 108.0,602.0" fill="none" stroke="#1d1560" stroke-width="1"/><polyline points="653.0,598.0 667.0,607.0" fill="none" stroke="#a4411c" stroke-width="1"/><polyline points="690.0,627.0 690.0,632.0 687.0,629.0 691.0,636.0 693.0,653.0 698.0,654.0 710.0,667.0" fill="none" stroke="#a4411c" stroke-width="1"/><polyline points="693.0,652.0 693.0,648.0 698.0,647.0 691.0,643.0" fill="none" stroke="#a4411c" stroke-width="1"/><polyline points="666.0,615.0 671.0,610.0 675.0,612.0 667.0,610.0 669.0,603.0 665.0,606.0" fill="none" stroke="#a4411c" stroke-width="1"/><polyline points="123.0,629.0 115.0,651.0 121.0,662.0 143.0,640.0" fill="none" stroke="#f5349b" stroke-width="1"/><polyline points="143.0,639.0 146.0,637.0 134.0,650.0 128.0,650.0 131.0,651.0" fill="none" stroke="#f5349b" stroke-width="1"/><polyline points="697.0,631.0 700.0,650.0 716.0,669.0 719.0,678.0 711.0,686.0 681.0,684.0 682.0,677.0" fill="none" stroke="#8c938c" stroke-width="1"/><polyline points="674.0,658.0 672.0,668.0 667.0,667.0 663.0,649.0 656.0,648.0 665.0,652.0 665.0,661.0 658.0,662.0 666.0,664.0 660.0,668.0 661.0,673.0 668.0,676.0 658.0,676.0 654.0,662.0 663.0,654.0" fill="none" stroke="#8c938c" stroke-width="1"/><polyline points="660.0,654.0 658.0,659.0" fill="none" stroke="#8c938c" stroke-width="1"/><polyline points="650.0,647.0 652.0,640.0 668.0,636.0 663.0,638.0 658.0,634.0 658.0,638.0 647.0,641.0" fill="none" stroke="#8c938c" stroke-width="1"/><polyline points="646.0,648.0 644.0,637.0 638.0,635.0 645.0,640.0" fill="none" stroke="#8c938c" stroke-width="1"/><polyline points="650.0,650.0 647.0,653.0" fill="none" stroke="#8c938c" stroke-width="1"/><polyline points="657.0,658.0 654.0,661.0 647.0,660.0" fill="none" stroke="#8c938c" stroke-width="1"/><polyline points="654.0,662.0 645.0,664.0" fill="none" stroke="#8c938c" stroke-width="1"/><polyline points="644.0,664.0 655.0,665.0 633.0,675.0 633.0,678.0" fill="none" stroke="#8c938c" stroke-width="1"/><polyline points="633.0,680.0 632.0,687.0 594.0,694.0" fill="none" stroke="#8c938c" stroke-width="1"/><polyline points="644.0,679.0 654.0,683.0 712.0,686.0 719.0,681.0 717.0,667.0" fill="none" stroke="#8c938c" stroke-width="1"/><polyline points="174.0,658.0 171.0,660.0 173.0,671.0 184.0,680.0 174.0,691.0 157.0,702.0 154.0,700.0 156.0,698.0 152.0,701.0 141.0,699.0 126.0,686.0 127.0,690.0 134.0,692.0 140.0,699.0 154.0,700.0 155.0,707.0 190.0,675.0 184.0,680.0 183.0,676.0 177.0,674.0" fill="none" stroke="#9ff481" stroke-width="1"/><polyline points="213.0,644.0 213.0,650.0 204.0,659.0" fill="none" stroke="#ba47ff" stroke-width="1"/><polyline points="180.0,707.0 162.0,713.0 150.0,729.0 142.0,733.0 148.0,731.0 150.0,737.0 157.0,738.0 163.0,746.0 181.0,745.0 192.0,740.0 212.0,723.0 237.0,713.0 236.0,707.0 232.0,704.0 237.0,709.0 236.0,713.0" fill="none" stroke="#ba47ff" stroke-width="1"/><polyline points="164.0,746.0 159.0,742.0 158.0,739.0 165.0,737.0" fill="none" stroke="#ba47ff" stroke-width="1"/><polyline points="158.0,739.0 149.0,734.0 151.0,727.0 163.0,713.0 179.0,709.0 182.0,703.0 190.0,706.0 191.0,710.0 193.0,707.0 203.0,708.0 203.0,716.0 205.0,707.0 198.0,707.0 199.0,704.0 205.0,704.0 207.0,710.0 212.0,712.0 205.0,721.0 195.0,726.0 199.0,726.0" fill="none" stroke="#ba47ff" stroke-width="1"/><polyline points="199.0,726.0 211.0,713.0 217.0,717.0 227.0,709.0 232.0,710.0 229.0,708.0 217.0,715.0 207.0,709.0 208.0,705.0 203.0,703.0 196.0,705.0" fill="none" stroke="#ba47ff" stroke-width="1"/><polyline points="196.0,707.0 180.0,702.0 196.0,681.0" fill="none" stroke="#ba47ff" stroke-width="1"/><polyline points="171.0,410.0 167.0,475.0 144.0,514.0 131.0,560.0 111.0,584.0 91.0,601.0 76.0,625.0 55.0,696.0 34.0,747.0 21.0,761.0 0.0,763.0 0.0,799.0 799.0,799.0 799.0,736.0 790.0,728.0 784.0,732.0 776.0,730.0 762.0,664.0 755.0,649.0 743.0,632.0 710.0,599.0" fill="none" stroke="#078974" stroke-width="1"/><polyline points="645.0,509.0 637.0,451.0 617.0,375.0 581.0,287.0 536.0,220.0 484.0,162.0 472.0,156.0" fill="none" stroke="#078974" stroke-width="1"/></svg>
