<?xml version="1.0" encoding="utf-8" ?>
<svg baseProfile="full" height="224" version="1.1" width="224" xmlns="http://www.w3.org/2000/svg" xmlns:ev="http://www.w3.org/2001/xml-events" xmlns:xlink="http://www.w3.org/1999/xlink"><defs /><polyline fill="none" points="131.6,140.7 132.29999999999998,141.39999999999998 132.29999999999998,143.14999999999998 131.95,140.35 134.75,137.2 135.79999999999998,138.25 135.79999999999998,139.29999999999998 134.39999999999998,140.35 134.04999999999998,140.0 133.0,141.39999999999998 135.1,140.0 135.79999999999998,141.39999999999998 135.45,142.79999999999998 136.14999999999998,143.85 137.54999999999998,144.2 140.7,141.75 136.85,144.2 135.45,142.45 135.79999999999998,138.25 134.75,137.2" stroke="#aaa" stroke-width="1" /><polyline fill="none" points="126.69999999999999,129.5 128.45,130.9 129.15,132.29999999999998 130.54999999999998,133.0 129.15,133.0 129.15,134.04999999999998 130.54999999999998,134.75 131.95,136.85 131.25,137.89999999999998 130.9,137.2 129.85,137.2 129.85,138.25 131.25,139.29999999999998 129.85,137.54999999999998 131.95,137.54999999999998 131.6,135.79999999999998 133.0,135.1 133.7,135.45 133.0,135.1 133.7,133.7 134.75,135.1 135.79999999999998,134.75 136.85,133.35 137.89999999999998,134.39999999999998 148.39999999999998,134.75 149.1,135.45 148.39999999999998,136.5 147.0,136.5 145.6,137.54999999999998 144.89999999999998,137.54999999999998 144.2,136.14999999999998 143.14999999999998,136.14999999999998 143.14999999999998,137.2 143.5,136.14999999999998 144.54999999999998,136.85 143.5,138.25 140.7,137.89999999999998 140.35,137.2 137.89999999999998,137.2 137.89999999999998,137.89999999999998 138.25,137.2 140.0,137.54999999999998 140.0,138.25 138.95,138.25 140.0,138.25 140.35,138.95 141.75,138.25 143.85,138.6 142.1,138.95 141.04999999999998,140.35 139.64999999999998,140.35 139.64999999999998,138.95 139.64999999999998,140.35 138.25,141.39999999999998 137.54999999999998,141.04999999999998 138.6,138.95 138.25,138.6 138.6,139.29999999999998 137.54999999999998,140.7 137.2,138.6 137.54999999999998,139.29999999999998 136.5,140.7 137.89999999999998,141.39999999999998 136.85,142.45 137.2,143.14999999999998 137.2,142.45 140.0,140.35 141.39999999999998,140.7 142.45,138.95 143.5,138.95 144.2,141.04999999999998 145.6,141.04999999999998 145.95,141.75 147.0,141.04999999999998 148.75,141.04999999999998 145.95,141.39999999999998 145.25,140.35 145.6,139.64999999999998 153.64999999999998,138.95 154.35,141.04999999999998 155.39999999999998,142.1 156.1,142.1 156.1,143.14999999999998 155.39999999999998,143.85 154.0,143.5 154.35,144.2 155.04999999999998,144.2 157.5,140.35 155.39999999999998,138.95 156.1,138.25 161.35,137.2 161.7,136.85 160.29999999999998,136.14999999999998 161.35,134.75 161.7,135.1 161.0,133.35 162.75,130.54999999999998 163.79999999999998,130.9 163.79999999999998,131.95 162.75,133.35 163.79999999999998,131.95 163.79999999999998,130.2 163.1,130.54999999999998 162.75,129.5 161.7,128.79999999999998 162.75,130.2 160.64999999999998,134.04999999999998 159.25,134.04999999999998 158.54999999999998,134.75 156.79999999999998,134.75 155.75,134.04999999999998 156.45,134.75 158.89999999999998,134.75 159.6,134.04999999999998 161.0,134.04999999999998 161.35,134.75 160.29999999999998,135.79999999999998 160.29999999999998,136.85 157.85,137.2 157.14999999999998,135.79999999999998 157.5,137.2 156.1,137.54999999999998 154.7,136.5 156.1,135.45 154.7,136.14999999999998 154.0,134.39999999999998 155.04999999999998,134.39999999999998 152.95,133.7 154.0,134.39999999999998 154.0,135.45 154.7,136.14999999999998 154.35,136.5 155.39999999999998,137.54999999999998 154.0,138.25 152.95,136.5 153.64999999999998,137.89999999999998 153.29999999999998,138.25 145.25,138.95 145.25,138.25 143.5,138.25 144.54999999999998,137.2 147.35,138.25 146.29999999999998,137.54999999999998 146.64999999999998,136.85 149.1,137.89999999999998 147.0,136.85 148.04999999999998,136.14999999999998 148.75,136.85 148.39999999999998,136.5 149.1,135.79999999999998 149.45,136.14999999999998 149.1,135.1 144.54999999999998,134.39999999999998 137.89999999999998,134.39999999999998 137.2,133.35 134.04999999999998,132.29999999999998 131.25,129.5 131.25,126.69999999999999 130.54999999999998,125.64999999999999 131.25,124.94999999999999 134.75,125.64999999999999 136.5,128.1 139.64999999999998,129.5 136.85,128.1 135.45,125.99999999999999 133.0,125.64999999999999 131.25,124.6 130.2,125.3 131.25,126.69999999999999 131.25,127.39999999999999 130.54999999999998,127.74999999999999 131.25,129.85 133.7,132.29999999999998 135.1,132.29999999999998 136.14999999999998,133.35 136.14999999999998,134.04999999999998 135.1,135.1 134.04999999999998,133.7 133.35,133.7 133.0,134.75 131.6,135.79999999999998 130.9,134.75 129.5,134.04999999999998 129.85,133.35 130.9,133.7" stroke="#aaa" stroke-width="1" /><polyline fill="none" points="129.85,140.7 126.35,144.2 126.35,145.25 129.15,143.14999999999998 128.45,142.1" stroke="#aaa" stroke-width="1" /><polyline fill="none" points="151.2,141.39999999999998 151.2,142.79999999999998 150.14999999999998,144.2 150.5,144.54999999999998 149.79999999999998,145.25 149.79999999999998,146.29999999999998 151.2,147.35 151.89999999999998,148.75 151.2,147.0 149.79999999999998,145.95 149.79999999999998,145.25 150.85,144.2 150.85,145.95 151.2,145.6 152.6,146.64999999999998 152.95,147.7 153.64999999999998,145.6 154.7,144.89999999999998 153.29999999999998,145.6 150.5,143.85 151.54999999999998,142.79999999999998" stroke="#aaa" stroke-width="1" /><polyline fill="none" points="113.74999999999999,24.849999999999998 109.55,28.349999999999998 106.39999999999999,29.749999999999996 97.64999999999999,35.699999999999996 95.19999999999999,36.75 89.6,41.65 87.14999999999999,43.05 83.3,46.9 82.6,48.65 80.85,50.4 78.05,56.349999999999994 77.0,62.99999999999999 76.3,64.39999999999999 76.3,66.5 75.6,67.55 75.6,70.0 74.55,71.39999999999999 73.14999999999999,77.69999999999999 72.1,79.8 71.05,86.1 69.64999999999999,89.94999999999999 69.3,95.19999999999999 66.85,106.75 66.85,113.05 65.8,118.64999999999999 66.14999999999999,124.94999999999999 65.45,125.64999999999999 60.199999999999996,125.64999999999999 58.099999999999994,127.39999999999999 56.699999999999996,130.9 56.349999999999994,137.54999999999998 58.099999999999994,143.14999999999998 61.949999999999996,149.1 61.949999999999996,153.64999999999998 62.65,154.35 62.65,156.79999999999998 64.05,161.35 65.45,163.45 65.8,165.89999999999998 67.55,169.04999999999998 67.55,171.14999999999998 68.6,173.25 71.05,176.04999999999998 73.5,177.45 73.85,178.14999999999998 73.14999999999999,180.6 73.85,179.54999999999998 74.89999999999999,180.25 74.19999999999999,182.7 74.19999999999999,181.64999999999998 74.55,181.29999999999998 74.89999999999999,182.0 74.89999999999999,179.89999999999998 73.5,178.85 73.5,177.1 71.39999999999999,176.04999999999998 67.89999999999999,171.85 67.19999999999999,168.0 65.45,164.85 65.45,163.1 64.39999999999999,162.04999999999998 62.65,156.79999999999998 62.65,154.35 61.949999999999996,153.29999999999998 61.949999999999996,148.75 57.05,140.35 56.349999999999994,137.54999999999998 56.699999999999996,130.9 58.099999999999994,127.74999999999999 60.55,125.64999999999999 64.05,125.3 65.45,125.64999999999999 65.8,126.35 64.39999999999999,127.39999999999999 61.949999999999996,127.39999999999999 60.199999999999996,129.5 59.849999999999994,129.15 60.55,129.5 62.3,127.39999999999999 65.45,127.05 65.45,125.64999999999999 66.14999999999999,124.94999999999999 67.55,126.35 70.35,125.64999999999999 70.35,122.49999999999999 72.44999999999999,120.05 73.5,116.55 74.19999999999999,115.85 75.94999999999999,117.24999999999999 78.75,122.14999999999999 79.44999999999999,121.44999999999999 79.8,121.8 81.55,120.74999999999999 82.94999999999999,120.74999999999999 87.14999999999999,117.94999999999999 82.6,120.74999999999999 78.75,121.8 76.3,118.3 75.94999999999999,116.89999999999999 74.89999999999999,115.85 73.85,115.85 72.44999999999999,119.69999999999999 70.35,122.49999999999999 70.0,125.3 68.25,126.35 66.14999999999999,124.94999999999999 65.8,118.64999999999999 66.85,113.05 66.85,106.75 67.89999999999999,100.8 68.6,99.39999999999999 69.64999999999999,89.94999999999999 71.05,86.1 71.39999999999999,82.94999999999999 72.1,81.89999999999999 72.1,80.14999999999999 73.14999999999999,78.05 74.55,71.75 75.6,70.35 75.6,67.55 76.3,66.5 77.35,59.15 79.8,52.5 82.6,49.0 83.3,47.25 87.5,43.05 91.69999999999999,40.25 93.1,38.5 106.75,29.749999999999996 110.94999999999999,27.65 114.1,24.849999999999998 117.24999999999999,23.799999999999997 118.64999999999999,22.75 120.39999999999999,22.75 126.35,19.95 127.74999999999999,19.95 129.5,18.9 133.0,18.2 141.75,15.049999999999999 149.79999999999998,15.399999999999999 158.2,18.2 163.1,19.25 168.0,21.7 172.89999999999998,22.75 175.35,23.799999999999997 178.14999999999998,26.25 187.95,31.15 205.45,42.349999999999994 209.64999999999998,46.55 213.14999999999998,52.849999999999994 215.25,61.949999999999996 215.25,64.75 217.7,71.39999999999999 218.75,77.35 221.2,82.25 221.89999999999998,86.1 221.2,101.14999999999999 222.25,104.3 223.29999999999998,117.24999999999999 222.95,121.44999999999999 221.89999999999998,124.94999999999999 223.29999999999998,125.64999999999999 224.35,124.94999999999999 228.2,124.6 230.99999999999997,126.35 232.74999999999997,129.15 233.45,137.54999999999998 232.39999999999998,140.35 232.39999999999998,142.79999999999998 230.99999999999997,145.25 230.99999999999997,152.6 229.6,157.85 226.79999999999998,164.14999999999998 224.7,167.29999999999998 224.7,168.35 223.64999999999998,169.39999999999998 223.29999999999998,172.89999999999998 222.25,175.7 218.04999999999998,179.54999999999998 216.64999999999998,179.89999999999998 215.95,180.6 216.29999999999998,182.0 214.2,184.1 213.14999999999998,184.45 213.14999999999998,186.2 213.14999999999998,184.79999999999998 213.85,184.1 214.89999999999998,184.45 214.89999999999998,185.5 210.35,190.04999999999998 210.0,191.45 208.95,192.14999999999998 209.29999999999998,191.79999999999998 210.35,192.85 208.95,193.89999999999998 208.25,193.2 207.54999999999998,190.75 205.1,188.64999999999998 207.54999999999998,191.1 208.95,193.89999999999998 208.6,194.25 208.95,193.89999999999998 210.35,194.95 208.95,195.29999999999998 206.85,197.39999999999998 207.54999999999998,198.79999999999998 206.14999999999998,199.85 206.5,201.25 206.14999999999998,200.2 207.54999999999998,198.79999999999998 207.2,197.39999999999998 209.29999999999998,195.29999999999998 210.0,195.64999999999998 211.39999999999998,194.6 212.1,196.0 211.39999999999998,196.7 211.04999999999998,195.64999999999998 211.04999999999998,196.7 212.79999999999998,196.0 211.39999999999998,194.6 213.14999999999998,192.85 212.1,191.1 214.54999999999998,188.64999999999998 214.2,187.95 214.54999999999998,188.64999999999998 212.1,191.1 212.79999999999998,191.79999999999998 212.79999999999998,192.85 210.35,194.95 209.64999999999998,194.25 210.35,192.85 211.39999999999998,193.2 210.35,192.85 209.64999999999998,191.79999999999998 210.7,189.7 214.89999999999998,186.2 214.54999999999998,183.75 215.6,182.7 216.64999999999998,184.1 217.7,184.1 218.04999999999998,183.39999999999998 215.95,181.29999999999998 216.29999999999998,180.6 220.14999999999998,178.14999999999998 222.95,174.64999999999998 223.64999999999998,169.75 228.54999999999998,161.0 230.99999999999997,152.6 230.99999999999997,145.25 232.39999999999998,142.79999999999998 232.39999999999998,140.7 233.45,137.54999999999998 232.74999999999997,128.79999999999998 230.99999999999997,125.99999999999999 228.2,124.6 224.35,124.94999999999999 223.29999999999998,125.64999999999999 221.89999999999998,124.94999999999999 223.29999999999998,117.94999999999999 222.25,104.3 221.2,101.14999999999999 221.89999999999998,86.1 221.2,82.25 219.79999999999998,78.39999999999999 218.75,77.0 217.7,71.39999999999999 215.25,64.75 215.25,61.949999999999996 213.85,57.4 213.85,55.3 211.39999999999998,49.0 209.64999999999998,46.199999999999996 205.79999999999998,42.349999999999994 199.85,38.849999999999994 197.04999999999998,36.4 184.45,29.049999999999997 178.5,26.25 176.04999999999998,24.15 172.2,22.4 170.45,22.4 167.29999999999998,21.349999999999998 163.1,19.25 149.79999999999998,15.399999999999999 140.35,15.399999999999999 133.0,18.2 125.99999999999999,19.95 120.39999999999999,22.75 118.64999999999999,22.75" stroke="#aaa" stroke-width="1" /><polyline fill="none" points="158.89999999999998,141.04999999999998 159.95,142.45 161.0,142.45 161.35,143.14999999999998 161.35,141.39999999999998 160.29999999999998,140.35" stroke="#aaa" stroke-width="1" /><polyline fill="none" points="119.69999999999999,129.15 117.6,130.54999999999998 119.35,132.29999999999998 118.64999999999999,133.0 117.94999999999999,132.29999999999998 117.94999999999999,133.7 118.99999999999999,134.04999999999998 118.64999999999999,136.5 121.1,136.5 119.69999999999999,135.79999999999998 118.99999999999999,134.39999999999998 120.05,132.65 121.44999999999999,132.65 121.8,133.7 120.74999999999999,133.7 121.8,134.04999999999998 122.14999999999999,131.6 121.44999999999999,132.65 120.05,132.65 119.35,131.95 119.69999999999999,131.6 121.44999999999999,131.6 121.1,131.95 120.74999999999999,131.25 118.99999999999999,131.95 117.94999999999999,130.9 118.64999999999999,129.85 119.35,130.54999999999998 120.74999999999999,130.54999999999998 121.1,129.85" stroke="#aaa" stroke-width="1" /><polyline fill="none" points="152.95,158.54999999999998 149.79999999999998,158.89999999999998 150.5,159.25 148.39999999999998,160.29999999999998 147.35,159.95 151.89999999999998,159.95 152.95,159.6" stroke="#aaa" stroke-width="1" /><polyline fill="none" points="140.35,114.8 141.75,115.85 143.5,115.49999999999999 144.2,116.19999999999999 143.14999999999998,116.89999999999999 141.75,116.55 140.35,117.94999999999999 141.04999999999998,119.35 144.2,119.69999999999999 143.85,120.74999999999999 142.79999999999998,120.74999999999999 144.89999999999998,121.1 144.2,120.74999999999999 144.54999999999998,119.35 146.64999999999998,118.3 145.25,118.64999999999999 144.2,119.69999999999999 142.1,119.69999999999999 140.35,117.94999999999999 141.75,116.55 143.14999999999998,116.89999999999999 144.89999999999998,116.19999999999999 148.39999999999998,118.64999999999999 147.7,120.39999999999999 149.45,120.74999999999999 148.39999999999998,120.74999999999999 147.7,120.05 148.39999999999998,119.35 149.1,119.69999999999999 148.39999999999998,118.3 145.25,116.19999999999999 144.54999999999998,116.55 143.85,115.49999999999999 141.75,115.85 141.04999999999998,114.8 142.45,114.8 142.1,114.44999999999999 141.04999999999998,114.44999999999999 140.7,115.14999999999999" stroke="#aaa" stroke-width="1" /><polyline fill="none" points="123.89999999999999,147.7 123.55,148.04999999999998 120.05,145.95 121.1,145.6 118.64999999999999,143.5 120.74999999999999,145.25 120.05,145.95 118.99999999999999,145.6 118.99999999999999,147.7 117.94999999999999,148.39999999999998 117.6,148.04999999999998 114.44999999999999,150.5 112.35,150.5 114.44999999999999,150.85 116.89999999999999,148.75 118.3,148.75 117.94999999999999,148.39999999999998 118.99999999999999,148.04999999999998 119.35,147.0 120.74999999999999,148.04999999999998" stroke="#aaa" stroke-width="1" /><polyline fill="none" points="134.39999999999998,142.1 133.35,142.1 133.35,143.85 130.9,144.2 127.39999999999999,146.29999999999998 125.99999999999999,146.29999999999998 124.6,147.7 126.35,149.45 124.94999999999999,151.54999999999998 123.89999999999999,150.14999999999998 123.19999999999999,150.5 122.85,149.79999999999998 123.19999999999999,150.5 122.14999999999999,151.2 121.1,149.1 120.05,150.14999999999998 121.1,149.45 121.8,150.14999999999998 121.1,151.2 120.39999999999999,151.2 121.44999999999999,152.25 119.69999999999999,154.0 118.3,152.95 119.35,154.0 117.24999999999999,155.75 116.55,155.75 117.6,156.45 116.89999999999999,157.14999999999998 116.55,156.79999999999998 116.55,157.5 115.85,157.5 115.49999999999999,156.79999999999998 115.49999999999999,157.85 114.44999999999999,158.54999999999998 113.39999999999999,157.85 115.14999999999999,155.39999999999998 114.8,154.7 113.74999999999999,154.7 112.0,156.45 112.35,157.14999999999998 111.3,158.54999999999998 109.55,158.2 109.19999999999999,157.14999999999998 109.55,157.5 108.14999999999999,158.54999999999998 107.8,157.85 110.6,154.35 111.64999999999999,154.0 112.69999999999999,154.7 111.64999999999999,153.64999999999998 110.25,154.7 109.89999999999999,154.35 109.89999999999999,155.39999999999998 107.44999999999999,157.85 107.8,158.54999999999998 109.19999999999999,158.89999999999998 109.55,160.64999999999998 109.55,159.25 108.85,158.54999999999998 109.19999999999999,158.2 112.69999999999999,159.25 113.39999999999999,157.85 114.44999999999999,158.89999999999998 115.14999999999999,157.85 117.6,157.14999999999998 117.6,156.45 118.64999999999999,156.45 119.35,158.54999999999998 119.35,157.14999999999998 118.64999999999999,156.1 117.94999999999999,156.45 117.24999999999999,155.75 120.05,154.0 121.44999999999999,152.25 122.85,152.95 123.55,155.39999999999998 125.3,157.14999999999998 124.94999999999999,157.5 126.35,156.1 125.3,154.7 127.39999999999999,153.64999999999998 127.74999999999999,152.95 126.69999999999999,151.54999999999998 127.74999999999999,149.79999999999998 128.79999999999998,150.85 127.74999999999999,149.79999999999998 127.39999999999999,150.85 125.99999999999999,152.25 126.69999999999999,151.89999999999998 127.74999999999999,152.95 126.35,154.0 125.3,152.6 126.35,154.0 125.3,154.7 124.6,153.64999999999998 123.55,154.0 122.85,152.6 124.24999999999999,152.6 125.99999999999999,150.85 126.69999999999999,149.1 126.35,149.45 125.64999999999999,148.75 126.35,148.04999999999998 127.39999999999999,148.39999999999998 126.69999999999999,148.39999999999998 126.35,147.7 125.64999999999999,148.75 124.94999999999999,147.7 126.35,146.29999999999998 127.05,146.29999999999998 128.45,147.7 128.79999999999998,147.35 127.39999999999999,146.29999999999998 128.79999999999998,145.6 129.5,146.64999999999998 129.15,148.39999999999998 129.15,145.6 131.25,144.2 133.0,144.2 134.39999999999998,142.79999999999998" stroke="#aaa" stroke-width="1" /><polyline fill="none" points="158.2,142.1 161.7,145.6 161.0,146.64999999999998 159.6,147.0 159.25,146.29999999999998 160.29999999999998,145.6 160.29999999999998,144.89999999999998 157.85,142.79999999999998 158.2,143.14999999999998 157.5,143.5 157.5,144.2 158.54999999999998,145.6 157.85,146.64999999999998 160.29999999999998,147.35 158.54999999999998,148.04999999999998 159.95,147.7 159.95,148.75 161.7,150.14999999999998 159.95,148.75 160.29999999999998,147.0 161.7,146.29999999999998 162.04999999999998,146.64999999999998 161.7,145.95 163.1,145.6 163.45,145.95 162.39999999999998,147.35 162.75,148.39999999999998 165.2,150.85 165.2,151.54999999999998 164.5,151.89999999999998 165.89999999999998,153.29999999999998 165.89999999999998,155.04999999999998 166.6,154.0 167.29999999999998,155.04999999999998 167.29999999999998,154.35 165.2,152.25 164.85,150.14999999999998 162.39999999999998,147.35 163.79999999999998,145.6 161.7,145.6 161.35,144.54999999999998" stroke="#aaa" stroke-width="1" /><polyline fill="none" points="116.55,144.54999999999998 116.19999999999999,145.25 117.24999999999999,147.0 118.3,147.0 118.3,145.6 117.6,144.54999999999998" stroke="#aaa" stroke-width="1" /><polyline fill="none" points="163.45,125.64999999999999 164.14999999999998,127.05 163.1,128.45 162.39999999999998,127.05 161.7,127.05 161.7,127.74999999999999 162.39999999999998,127.05 163.1,128.45 164.14999999999998,127.05 166.6,130.2 166.25,131.25 167.29999999999998,131.95 167.29999999999998,132.65 165.54999999999998,134.04999999999998 165.54999999999998,135.1 163.45,137.2 162.04999999999998,137.54999999999998 163.79999999999998,137.2 165.54999999999998,135.45 165.54999999999998,134.39999999999998 167.29999999999998,133.0 167.29999999999998,131.6 166.25,130.9 166.6,129.85 165.89999999999998,129.5 164.85,127.39999999999999 165.2,127.05 164.85,127.39999999999999" stroke="#aaa" stroke-width="1" /><polyline fill="none" points="112.0,145.25 111.3,145.95 111.3,147.7 113.05,149.45 112.0,148.39999999999998 112.69999999999999,148.04999999999998" stroke="#aaa" stroke-width="1" /><polyline fill="none" points="127.39999999999999,113.05 125.99999999999999,112.35 127.39999999999999,113.39999999999999 127.05,113.74999999999999 127.74999999999999,114.44999999999999 124.94999999999999,116.55 123.55,115.14999999999999 125.3,113.74999999999999 124.6,113.05 125.3,112.69999999999999 124.94999999999999,112.0 121.44999999999999,115.49999999999999 120.05,115.85 119.35,116.55 119.35,117.6 120.05,117.6 121.8,119.35 122.14999999999999,118.99999999999999 121.8,119.35 119.35,116.89999999999999 120.39999999999999,115.85 121.44999999999999,115.85 124.6,113.05 125.3,113.74999999999999 122.85,115.85 123.19999999999999,116.19999999999999 122.14999999999999,116.89999999999999 121.44999999999999,116.55 122.14999999999999,116.89999999999999 121.8,117.24999999999999 122.49999999999999,116.55 123.19999999999999,116.89999999999999 123.19999999999999,115.49999999999999 123.89999999999999,115.49999999999999 124.94999999999999,116.55 122.85,119.35 127.39999999999999,115.14999999999999" stroke="#aaa" stroke-width="1" /><polyline fill="none" points="166.25,150.14999999999998 166.95,149.45 168.0,150.5 168.0,151.89999999999998 169.75,151.89999999999998 167.64999999999998,151.54999999999998 168.35,150.5 168.7,151.2 168.35,150.5 169.04999999999998,149.79999999999998 169.39999999999998,150.85 169.04999999999998,149.79999999999998 170.1,149.45 169.04999999999998,149.79999999999998 168.35,149.1 169.04999999999998,149.79999999999998 168.35,150.5 167.29999999999998,149.45 166.25,150.14999999999998 166.95,152.95 167.64999999999998,153.64999999999998 169.04999999999998,153.29999999999998 173.6,157.14999999999998 175.0,157.14999999999998 176.75,158.2 179.2,160.64999999999998 177.1,158.2 173.25,156.79999999999998 171.85,155.04999999999998 170.45,154.7 169.75,153.64999999999998 168.0,153.64999999999998 166.95,152.6" stroke="#aaa" stroke-width="1" /><polyline fill="none" points="169.04999999999998,132.65 173.25,136.85 171.5,136.85 173.25,137.2 173.6,136.5 173.25,136.85 172.54999999999998,135.79999999999998 171.14999999999998,135.1 169.75,133.35 170.1,132.65 174.64999999999998,136.5 173.95,138.25 175.0,136.5 171.14999999999998,133.35 171.5,133.0 171.14999999999998,133.35 169.75,132.29999999999998" stroke="#aaa" stroke-width="1" /><polyline fill="none" points="136.14999999999998,99.75 134.39999999999998,103.6 134.39999999999998,105.69999999999999 133.35,107.1 131.95,111.3 128.45,115.14999999999999 128.1,116.55 125.3,119.35 124.6,119.35 122.85,121.1 119.35,122.85 114.1,124.6 112.0,124.24999999999999 108.85,124.94999999999999 99.75,122.85 98.69999999999999,121.8 97.3,121.8 96.6,122.49999999999999 95.19999999999999,122.14999999999999 94.14999999999999,121.1 94.5,120.39999999999999 97.64999999999999,119.35 98.69999999999999,117.6 100.8,115.85 102.19999999999999,115.85 101.14999999999999,115.49999999999999 100.1,116.19999999999999 100.1,114.8 101.5,113.74999999999999 102.55,114.44999999999999 102.55,113.39999999999999 104.3,113.39999999999999 101.14999999999999,113.74999999999999 100.1,114.8 98.35,114.44999999999999 100.1,116.19999999999999 96.94999999999999,119.69999999999999 93.1,120.74999999999999 91.69999999999999,118.64999999999999 92.75,121.1 93.8,120.74999999999999 95.55,122.49999999999999 98.69999999999999,122.14999999999999 99.75,122.85 101.14999999999999,122.85 101.85,123.55 108.85,124.94999999999999 112.0,124.24999999999999 114.1,124.6 122.14999999999999,121.8 125.99999999999999,118.99999999999999 128.1,116.89999999999999 128.45,115.49999999999999 129.85,114.1 130.9,115.14999999999999 130.9,115.85 128.79999999999998,118.3 128.79999999999998,119.69999999999999 122.49999999999999,125.99999999999999 113.05,129.15 110.6,128.79999999999998 108.85,129.5 106.05,129.15 104.3,129.85 98.0,129.85 92.75,128.45 91.0,126.69999999999999 91.0,125.64999999999999 88.89999999999999,123.89999999999999 91.0,125.99999999999999 91.0,127.05 92.05,128.1 98.0,129.85 104.3,129.85 106.05,129.15 108.5,129.15 109.19999999999999,129.85 108.85,130.2 107.44999999999999,130.2 106.05,131.6 106.75,132.65 109.89999999999999,131.25 107.44999999999999,132.29999999999998 106.05,131.6 107.8,130.2 110.25,130.54999999999998 109.19999999999999,129.85 109.55,129.15 113.05,129.15 116.55,127.74999999999999 118.99999999999999,127.39999999999999 120.39999999999999,126.35 122.85,125.99999999999999 124.94999999999999,123.55 125.64999999999999,124.6 124.94999999999999,123.55 128.79999999999998,120.05 128.79999999999998,118.64999999999999 131.25,116.19999999999999 130.9,114.8 131.95,113.05 130.9,113.39999999999999 131.6,114.1 130.9,114.8 129.85,113.74999999999999 131.95,111.64999999999999 132.29999999999998,109.55 134.39999999999998,105.69999999999999 134.39999999999998,103.6" stroke="#aaa" stroke-width="1" /><polyline fill="none" points="147.35,172.89999999999998 144.54999999999998,172.2 142.79999999999998,174.29999999999998 141.75,173.6 142.45,172.54999999999998 140.7,175.35 141.39999999999998,174.64999999999998 142.1,175.35 141.39999999999998,176.39999999999998 143.5,173.25 144.89999999999998,172.2 147.0,172.89999999999998 147.35,173.6" stroke="#aaa" stroke-width="1" /><polyline fill="none" points="145.25,173.6 142.79999999999998,176.04999999999998 143.5,177.79999999999998 142.1,178.85 142.79999999999998,178.85 143.5,177.45 144.89999999999998,176.39999999999998 144.89999999999998,175.35 144.2,175.0" stroke="#aaa" stroke-width="1" /><polyline fill="none" points="103.25,147.7 102.55,148.04999999999998 102.55,148.75 105.69999999999999,151.89999999999998 105.0,152.25 103.25,150.14999999999998 102.19999999999999,150.14999999999998 103.94999999999999,152.25 102.19999999999999,155.39999999999998 102.19999999999999,156.45 105.69999999999999,154.7 106.39999999999999,155.04999999999998 106.05,154.35 107.1,153.64999999999998 107.1,152.6 106.05,152.25 105.69999999999999,151.2 102.55,148.39999999999998 103.25,148.04999999999998 105.35,149.79999999999998 106.05,149.79999999999998" stroke="#aaa" stroke-width="1" /><polyline fill="none" points="137.54999999999998,172.54999999999998 137.89999999999998,173.25 136.5,174.64999999999998 133.35,176.04999999999998 131.6,178.5 130.9,177.45 132.65,175.35 131.6,176.39999999999998 130.54999999999998,175.0 128.79999999999998,175.0 129.85,174.64999999999998 130.54999999999998,175.35 129.5,177.1 130.9,175.7 131.6,176.39999999999998 129.85,178.85 129.15,178.14999999999998 128.45,179.54999999999998 129.15,178.14999999999998 130.54999999999998,180.25 130.54999999999998,182.0 131.25,182.7 130.9,184.45 129.5,184.79999999999998 130.9,185.5 130.54999999999998,186.2 130.9,183.39999999999998 131.6,182.7 130.9,182.35 130.54999999999998,180.6 131.6,179.89999999999998 131.95,180.25 133.35,178.5 131.25,180.25 130.54999999999998,180.25 129.85,178.85 130.9,177.79999999999998 131.6,178.5 131.25,179.2 133.7,176.04999999999998 137.54999999999998,173.95 138.25,174.64999999999998 136.14999999999998,175.7 137.54999999999998,177.1 136.5,178.14999999999998 135.45,178.14999999999998 137.2,177.79999999999998 137.54999999999998,177.1 136.5,176.04999999999998 138.6,174.64999999999998 137.54999999999998,173.95" stroke="#aaa" stroke-width="1" /><polyline fill="none" points="178.85,134.75 177.45,136.5 178.14999999999998,138.95 176.75,140.0 175.7,139.64999999999998 177.1,140.0 178.14999999999998,138.95 177.45,136.85 178.85,135.1 179.89999999999998,135.79999999999998 180.25,137.54999999999998 183.04999999999998,141.04999999999998 182.35,142.45 183.04999999999998,141.04999999999998 181.64999999999998,138.6 182.35,137.89999999999998 184.1,140.7 183.04999999999998,138.6 183.39999999999998,138.25 183.04999999999998,138.6 180.95,136.14999999999998 180.6,136.85 179.89999999999998,135.45 179.2,135.45" stroke="#aaa" stroke-width="1" /><polyline fill="none" points="103.94999999999999,101.14999999999999 105.0,101.85 106.05,101.5 107.8,102.55 111.64999999999999,101.5 112.35,100.8 118.99999999999999,101.85 119.35,103.25 118.64999999999999,103.94999999999999 116.19999999999999,103.94999999999999 114.8,103.25 113.39999999999999,103.94999999999999 113.74999999999999,104.64999999999999 113.39999999999999,104.3 114.8,103.25 117.6,103.94999999999999 117.6,105.69999999999999 118.64999999999999,106.75 118.99999999999999,106.39999999999999 117.6,105.69999999999999 117.94999999999999,104.3 121.1,102.55 123.55,104.3 126.35,104.64999999999999 126.69999999999999,105.35 128.1,105.0 128.79999999999998,105.69999999999999 127.39999999999999,107.44999999999999 125.99999999999999,107.8 121.44999999999999,105.0 120.05,105.0 120.05,106.75 117.94999999999999,108.5 116.55,108.5 115.85,107.8 113.05,109.19999999999999 108.85,108.5 105.0,108.85 103.6,110.25 105.0,108.85 106.39999999999999,108.5 111.64999999999999,108.85 113.05,111.64999999999999 109.89999999999999,112.69999999999999 114.1,111.3 113.39999999999999,109.89999999999999 114.1,108.5 115.85,109.19999999999999 114.8,108.5 115.85,107.8 116.55,108.5 118.3,108.5 119.35,107.44999999999999 120.39999999999999,108.5 120.39999999999999,107.44999999999999 119.69999999999999,107.1 120.74999999999999,106.75 119.69999999999999,106.05 120.39999999999999,105.0 121.8,105.35 122.85,106.39999999999999 124.24999999999999,106.39999999999999 125.99999999999999,107.8 127.74999999999999,107.44999999999999 128.45,106.75 129.15,107.1 129.15,107.8 128.45,108.5 128.1,108.14999999999999 128.45,108.5 126.35,110.6 125.64999999999999,110.6 126.35,110.6 126.35,111.3 127.39999999999999,112.35 126.69999999999999,110.6 129.15,108.14999999999999 128.79999999999998,106.05 130.54999999999998,105.35 129.15,105.69999999999999 128.45,105.0 129.15,103.94999999999999 130.2,104.3 129.15,103.94999999999999 130.2,102.89999999999999 127.74999999999999,105.35 126.35,104.64999999999999 127.39999999999999,103.94999999999999 125.3,104.64999999999999 122.49999999999999,103.6 120.39999999999999,101.85 120.39999999999999,99.75 121.1,99.39999999999999 123.89999999999999,100.8 121.1,99.39999999999999 120.05,99.75 117.94999999999999,98.35 116.89999999999999,99.05 115.49999999999999,98.35 109.55,99.39999999999999 108.5,98.35 110.6,96.94999999999999 119.69999999999999,96.94999999999999 122.14999999999999,98.35 123.19999999999999,97.64999999999999 124.24999999999999,98.0 121.8,98.0 119.69999999999999,96.94999999999999 110.6,96.94999999999999 109.19999999999999,97.64999999999999 107.1,96.6 109.19999999999999,97.64999999999999 108.5,98.0 108.5,98.69999999999999 109.55,99.39999999999999 115.49999999999999,98.35 116.89999999999999,99.39999999999999 117.94999999999999,98.35 120.74999999999999,100.8 120.74999999999999,101.5 119.69999999999999,102.19999999999999 116.19999999999999,101.14999999999999 112.35,100.8 111.64999999999999,101.5 107.8,102.55 106.05,101.5 105.0,101.85" stroke="#aaa" stroke-width="1" /><polyline fill="none" points="149.45,99.05 151.2,100.8 151.2,105.35 151.89999999999998,107.1 153.29999999999998,108.5 153.29999999999998,110.6 154.35,112.0 154.35,113.05 156.1,115.14999999999999 157.85,118.64999999999999 158.89999999999998,119.35 159.6,121.1 164.85,125.64999999999999 166.25,125.99999999999999 167.64999999999998,127.39999999999999 170.79999999999998,128.45 173.25,128.79999999999998 174.29999999999998,129.5 176.39999999999998,129.5 178.14999999999998,130.2 182.35,130.2 184.1,130.9 186.2,130.54999999999998 189.0,131.25 195.64999999999998,131.25 196.35,132.29999999999998 195.64999999999998,133.0 196.7,133.7 196.7,134.75 197.75,135.79999999999998 196.7,134.39999999999998 197.04999999999998,133.7 196.35,133.35 196.0,131.6 199.14999999999998,131.25 201.6,129.85 203.35,129.85 204.39999999999998,128.79999999999998 204.39999999999998,128.1 205.45,127.74999999999999 205.45,126.35 207.54999999999998,120.74999999999999 208.95,119.35 210.7,118.99999999999999 208.25,119.69999999999999 205.45,125.99999999999999 205.45,127.39999999999999 204.39999999999998,127.74999999999999 204.39999999999998,128.45 203.0,129.85 201.6,129.85 199.14999999999998,131.25 196.0,131.6 192.14999999999998,130.9 184.1,130.9 182.35,130.2 178.14999999999998,130.2 176.39999999999998,129.5 174.29999999999998,129.5 173.25,128.79999999999998 170.79999999999998,128.45 165.2,125.64999999999999 159.6,120.74999999999999 158.89999999999998,118.99999999999999 157.85,118.3 154.35,112.69999999999999 153.29999999999998,108.14999999999999 151.89999999999998,107.1 151.2,105.35 151.2,100.8" stroke="#aaa" stroke-width="1" /><polyline fill="none" points="169.39999999999998,176.04999999999998 169.39999999999998,176.75 168.35,177.45 168.0,176.04999999999998 169.04999999999998,175.35 168.7,174.64999999999998 167.29999999999998,174.29999999999998 166.25,172.89999999999998 165.54999999999998,173.95 164.14999999999998,173.25 165.54999999999998,174.29999999999998 166.25,173.25 166.95,174.29999999999998 169.04999999999998,175.35 168.0,176.04999999999998 166.25,175.7 166.25,175.0 165.54999999999998,175.7 164.85,175.0 163.45,175.35 165.54999999999998,177.45 164.5,178.85 164.5,180.25 163.1,179.54999999999998 163.45,178.85 161.7,176.75 160.64999999999998,177.45 158.89999999999998,177.45 156.79999999999998,179.2 158.54999999999998,179.2 158.89999999999998,179.89999999999998 158.2,180.25 159.25,179.54999999999998 162.75,180.6 164.85,180.25 164.5,179.2 165.54999999999998,177.45 163.79999999999998,175.35 164.14999999999998,175.0 165.54999999999998,176.04999999999998 165.89999999999998,175.35 166.6,176.04999999999998 167.64999999999998,175.7 168.0,177.45 168.7,177.45" stroke="#aaa" stroke-width="1" /><polyline fill="none" points="150.85,180.6 148.39999999999998,180.6 148.04999999999998,181.29999999999998 150.14999999999998,182.35 149.45,183.04999999999998 148.39999999999998,183.04999999999998 145.95,185.5 146.64999999999998,186.89999999999998 145.95,185.85 148.75,183.04999999999998 150.5,183.39999999999998 151.2,184.1 150.85,184.79999999999998 151.54999999999998,184.1 150.85,183.39999999999998" stroke="#aaa" stroke-width="1" /><polyline fill="none" points="183.04999999999998,99.05 182.0,99.05 180.25,100.8 178.5,100.44999999999999 177.79999999999998,99.75 173.25,99.75 171.14999999999998,100.8 168.7,101.14999999999999 164.14999999999998,104.3 160.64999999999998,105.0 159.95,105.69999999999999 159.95,106.75 158.54999999999998,107.44999999999999 158.2,108.5 159.95,106.75 162.75,106.75 164.14999999999998,105.69999999999999 165.54999999999998,106.75 164.85,107.44999999999999 164.85,108.5 165.89999999999998,109.55 170.1,108.85 168.0,108.85 166.25,109.55 164.85,108.14999999999999 165.54999999999998,107.1 165.2,106.05 166.95,104.64999999999999 168.0,104.64999999999999 168.35,103.94999999999999 169.39999999999998,105.0 170.1,107.8 170.79999999999998,108.14999999999999 172.2,107.44999999999999 173.95,107.44999999999999 172.2,107.44999999999999 170.79999999999998,108.14999999999999 170.1,107.44999999999999 169.39999999999998,104.64999999999999 168.35,103.94999999999999 169.39999999999998,102.89999999999999 170.1,103.25 169.75,103.6 169.75,102.55 169.04999999999998,103.25 168.7,102.89999999999999 167.64999999999998,104.64999999999999 166.6,104.64999999999999 165.2,106.05 163.79999999999998,105.69999999999999 162.39999999999998,106.75 160.64999999999998,106.75 160.29999999999998,105.69999999999999 161.35,104.64999999999999 162.75,105.0 163.45,104.3 164.5,104.3 169.04999999999998,101.14999999999999 173.25,99.75 177.79999999999998,99.75 178.5,100.44999999999999 180.25,100.8 181.64999999999998,99.39999999999999" stroke="#aaa" stroke-width="1" /><polyline fill="none" points="103.25,97.64999999999999 104.64999999999999,97.64999999999999 105.69999999999999,95.89999999999999 108.5,94.5 116.89999999999999,94.14999999999999 124.6,96.6 126.35,98.0 127.74999999999999,98.0 128.79999999999998,99.05 128.79999999999998,99.75 127.39999999999999,100.44999999999999 129.5,100.1 132.29999999999998,103.6 131.95,103.94999999999999 133.35,102.55 132.29999999999998,103.6 131.6,102.55 133.35,101.5 134.04999999999998,102.55 133.0,99.39999999999999 132.65,100.1 133.7,100.8 131.6,102.55 128.1,98.0 126.69999999999999,98.0 121.44999999999999,95.19999999999999 118.99999999999999,94.85 118.64999999999999,94.5 119.35,93.8 120.39999999999999,93.8 121.44999999999999,94.5 120.39999999999999,93.8 118.99999999999999,93.8 118.64999999999999,94.5 108.14999999999999,94.5 105.0,96.25 103.94999999999999,97.64999999999999" stroke="#aaa" stroke-width="1" /><polyline fill="none" points="105.0,157.85 103.25,159.25 102.19999999999999,158.54999999999998 100.1,160.64999999999998 99.05,159.6 98.0,159.6 97.64999999999999,160.64999999999998 98.69999999999999,159.6 99.39999999999999,160.64999999999998 98.69999999999999,161.35 99.39999999999999,160.64999999999998 100.44999999999999,161.35 100.1,163.1 98.69999999999999,163.1 97.3,161.35 96.6,161.35 98.69999999999999,163.45 100.44999999999999,162.75 103.25,163.45 103.25,164.85 101.5,164.14999999999998 100.1,164.5 98.69999999999999,166.6 96.94999999999999,165.89999999999998 96.25,166.25 95.89999999999999,165.54999999999998 97.3,163.79999999999998 96.6,162.75 97.3,163.79999999999998 95.89999999999999,165.2 95.89999999999999,166.25 98.0,166.25 99.39999999999999,167.29999999999998 99.05,166.6 100.44999999999999,164.5 103.6,164.85 103.25,163.1 105.69999999999999,161.35 103.94999999999999,162.39999999999998 102.89999999999999,162.04999999999998 101.85,163.1 101.14999999999999,163.1 100.1,161.0 101.5,159.6 103.6,161.0 105.0,160.29999999999998 105.35,160.64999999999998 104.64999999999999,159.95 104.64999999999999,158.89999999999998 103.94999999999999,158.54999999999998" stroke="#aaa" stroke-width="1" /><polyline fill="none" points="89.6,115.14999999999999 92.05,122.85 94.5,124.94999999999999 94.85,125.99999999999999 100.1,127.39999999999999 110.6,127.39999999999999 109.55,126.35 102.89999999999999,125.64999999999999 98.69999999999999,123.89999999999999 95.55,123.55 94.5,122.49999999999999 94.5,123.19999999999999 98.69999999999999,123.89999999999999 102.55,125.64999999999999 107.44999999999999,126.35 106.75,127.39999999999999 100.1,127.39999999999999 95.19999999999999,125.99999999999999 94.5,124.6 91.35,121.44999999999999 91.69999999999999,121.1 90.64999999999999,119.69999999999999 89.6,115.49999999999999 90.3,114.8" stroke="#aaa" stroke-width="1" /><polyline fill="none" points="93.44999999999999,129.5 93.44999999999999,130.9 94.85,133.0 94.5,133.35 92.39999999999999,131.25 94.5,133.35 94.85,134.75 93.8,135.79999999999998 94.14999999999999,137.54999999999998 92.75,138.6 93.1,139.29999999999998 92.75,138.6 94.14999999999999,137.54999999999998 94.5,138.25 93.8,139.29999999999998 94.85,137.2 96.6,138.95 96.6,137.2 95.55,136.85 94.5,137.54999999999998 93.8,136.14999999999998 94.85,135.1 94.85,132.29999999999998 96.25,130.9 96.94999999999999,130.9 95.55,130.54999999999998 96.25,130.9 94.85,132.29999999999998 93.1,129.85" stroke="#aaa" stroke-width="1" /><polyline fill="none" points="154.0,102.89999999999999 154.35,106.39999999999999 158.2,115.49999999999999 162.39999999999998,120.74999999999999 168.35,124.6 176.75,126.69999999999999 182.35,127.05 189.35,124.94999999999999 195.64999999999998,120.74999999999999 189.0,124.94999999999999 182.35,127.05 176.75,126.69999999999999 171.85,125.3 170.1,125.3 164.14999999999998,121.8 163.1,120.74999999999999 164.14999999999998,120.39999999999999 163.45,120.05 162.75,120.74999999999999 157.14999999999998,113.39999999999999 155.39999999999998,108.5 160.29999999999998,102.89999999999999 161.35,103.94999999999999 160.29999999999998,102.55 162.39999999999998,100.44999999999999 164.14999999999998,100.8 167.64999999999998,98.35 168.7,98.69999999999999 171.5,96.94999999999999 172.89999999999998,98.0 176.39999999999998,97.64999999999999 172.2,97.64999999999999 171.14999999999998,96.25 172.2,95.19999999999999 178.14999999999998,94.85 181.29999999999998,95.55 182.35,96.6 184.1,96.94999999999999 184.45,98.0 187.6,99.75 189.0,101.5 187.95,99.75 186.2,99.05 184.45,97.64999999999999 184.45,96.94999999999999 183.39999999999998,96.94999999999999 181.64999999999998,95.55 178.14999999999998,94.85 171.85,95.19999999999999 171.14999999999998,95.89999999999999 171.14999999999998,97.3 168.7,98.69999999999999 167.29999999999998,98.35 164.14999999999998,100.8 163.45,100.1 164.14999999999998,98.0 164.85,97.3 166.25,97.3 164.5,97.3 163.79999999999998,99.39999999999999 161.7,100.8 158.89999999999998,104.3 157.5,103.25 158.54999999999998,104.64999999999999 155.39999999999998,108.5 154.35,106.39999999999999" stroke="#aaa" stroke-width="1" /><polyline fill="none" points="175.7,117.94999999999999 176.75,118.99999999999999 178.14999999999998,118.99999999999999 179.89999999999998,117.94999999999999 182.7,118.64999999999999 184.1,118.3 183.75,117.24999999999999 182.35,117.24999999999999 183.75,117.6 183.75,118.3 182.7,118.64999999999999 180.25,117.94999999999999 179.54999999999998,117.24999999999999 181.29999999999998,116.89999999999999 179.54999999999998,117.24999999999999 178.85,116.55 179.89999999999998,117.6 179.2,118.64999999999999 176.39999999999998,116.89999999999999" stroke="#aaa" stroke-width="1" /><polyline fill="none" points="171.14999999999998,144.54999999999998 172.2,145.25 173.6,144.89999999999998 175.7,146.64999999999998 176.75,146.64999999999998 176.75,147.7 174.64999999999998,147.35 175.0,148.75 177.1,149.45 178.14999999999998,150.85 178.85,150.85 179.89999999999998,151.89999999999998 179.2,152.25 179.2,153.29999999999998 179.89999999999998,151.89999999999998 181.29999999999998,153.64999999999998 180.6,154.7 179.89999999999998,154.0 178.85,155.39999999999998 179.2,156.1 180.6,155.39999999999998 180.95,156.45 179.89999999999998,156.79999999999998 179.54999999999998,157.85 177.79999999999998,157.85 178.5,157.5 180.6,158.54999999999998 179.89999999999998,159.6 180.25,161.0 179.2,161.35 179.2,162.04999999999998 179.54999999999998,161.35 180.25,161.35 180.95,162.39999999999998 183.04999999999998,162.75 183.75,163.45 183.04999999999998,166.25 183.75,167.29999999999998 183.04999999999998,166.6 183.75,165.54999999999998 184.79999999999998,166.6 186.89999999999998,165.54999999999998 187.6,166.25 186.89999999999998,166.95 186.2,166.6 186.54999999999998,167.29999999999998 187.25,167.29999999999998 187.6,165.89999999999998 186.54999999999998,164.85 187.95,164.14999999999998 189.0,162.75 189.7,162.75 192.5,165.89999999999998 191.79999999999998,164.85 191.79999999999998,162.75 192.5,162.04999999999998 193.54999999999998,164.14999999999998 194.25,164.5 192.5,162.04999999999998 191.79999999999998,162.39999999999998 191.79999999999998,164.85 190.39999999999998,163.1 188.64999999999998,162.04999999999998 189.0,162.39999999999998 188.29999999999998,163.79999999999998 186.89999999999998,164.5 185.85,163.45 184.79999999999998,164.5 185.5,163.45 186.54999999999998,164.5 186.54999999999998,165.2 185.5,166.25 183.75,165.54999999999998 183.75,163.1 181.64999999999998,162.75 179.89999999999998,159.95 180.25,159.6 182.35,160.64999999999998 183.39999999999998,159.95 184.79999999999998,159.95 186.89999999999998,161.35 187.6,160.64999999999998 186.54999999999998,159.25 187.6,160.64999999999998 186.89999999999998,161.35 186.2,160.64999999999998 186.54999999999998,160.29999999999998 185.85,160.64999999999998 184.79999999999998,159.95 183.39999999999998,159.95 182.35,160.64999999999998 180.25,159.25 182.7,159.25 184.45,157.5 183.04999999999998,156.45 184.1,157.85 181.64999999999998,159.25 179.89999999999998,157.85 179.89999999999998,157.14999999999998 180.95,156.79999999999998 180.6,154.7 181.29999999999998,153.64999999999998 180.95,152.95 181.64999999999998,152.25 183.04999999999998,154.0 184.79999999999998,154.7 183.39999999999998,154.0 181.64999999999998,152.25 182.0,151.89999999999998 181.64999999999998,152.25 177.79999999999998,148.39999999999998 176.75,146.64999999999998 177.79999999999998,145.95 179.2,146.64999999999998 177.79999999999998,145.95 176.04999999999998,146.64999999999998 173.95,144.89999999999998 172.54999999999998,145.25" stroke="#aaa" stroke-width="1" /><polyline fill="none" points="187.6,136.85 187.25,137.54999999999998 186.2,137.54999999999998 188.29999999999998,139.29999999999998 188.29999999999998,140.7 187.25,141.39999999999998 186.2,141.39999999999998 185.5,140.7 183.75,142.1 187.25,142.45 187.95,143.5 186.2,144.89999999999998 185.5,144.89999999999998 184.1,142.79999999999998 183.39999999999998,143.85 183.75,144.54999999999998 183.39999999999998,143.85 184.1,143.14999999999998 185.14999999999998,144.89999999999998 186.54999999999998,144.54999999999998 186.89999999999998,145.6 186.89999999999998,144.2 187.6,144.54999999999998 187.95,143.5 189.0,144.2 187.6,142.45 185.85,142.45 184.45,141.75 185.14999999999998,141.04999999999998 186.54999999999998,141.75 187.95,141.39999999999998 188.29999999999998,139.29999999999998 187.25,137.54999999999998 187.6,137.2 189.0,137.89999999999998 191.45,141.04999999999998 190.39999999999998,143.14999999999998 191.45,141.04999999999998 190.75,139.29999999999998" stroke="#aaa" stroke-width="1" /><polyline fill="none" points="101.85,167.64999999999998 100.1,170.1 100.44999999999999,169.75 101.14999999999999,171.14999999999998 99.75,171.85 99.75,172.89999999999998 100.8,173.6 101.5,172.89999999999998 101.5,171.5 100.44999999999999,169.04999999999998 101.5,168.0 102.55,169.39999999999998 102.55,172.2 102.19999999999999,170.45 102.55,169.04999999999998 103.25,168.7 102.55,169.04999999999998 101.5,168.0" stroke="#aaa" stroke-width="1" /><polyline fill="none" points="113.74999999999999,188.64999999999998 116.55,187.25 120.05,186.89999999999998 120.74999999999999,187.6 120.39999999999999,186.54999999999998 121.44999999999999,186.54999999999998 122.14999999999999,185.85 123.89999999999999,186.54999999999998 122.49999999999999,188.29999999999998 122.85,188.64999999999998 123.19999999999999,187.95 123.89999999999999,189.0 125.3,189.0 125.99999999999999,187.95 125.64999999999999,188.29999999999998 124.6,186.89999999999998 125.3,187.95 124.94999999999999,189.0 124.24999999999999,189.0 123.19999999999999,187.95 124.6,185.85 125.99999999999999,185.14999999999998 128.45,185.14999999999998 129.85,186.2 128.79999999999998,185.14999999999998 128.1,185.14999999999998 128.1,184.45 127.39999999999999,185.14999999999998 125.64999999999999,185.14999999999998 123.89999999999999,186.54999999999998 122.85,186.2 120.39999999999999,183.04999999999998 122.14999999999999,185.85 121.44999999999999,186.54999999999998 120.05,185.5 117.24999999999999,185.85 116.55,187.25" stroke="#aaa" stroke-width="1" /><polyline fill="none" points="165.54999999999998,89.94999999999999 164.14999999999998,88.55 162.75,88.55 160.64999999999998,89.94999999999999 159.6,89.94999999999999 158.89999999999998,88.89999999999999 157.5,89.6 158.89999999999998,89.25 159.6,89.94999999999999 157.85,91.0 156.45,89.94999999999999 155.39999999999998,91.0 154.7,91.0 156.1,90.3 156.45,91.35 155.04999999999998,92.05 156.79999999999998,92.05 153.29999999999998,94.5 145.6,93.8 144.54999999999998,95.55 141.39999999999998,95.19999999999999 142.79999999999998,93.8 144.2,93.44999999999999 144.54999999999998,94.14999999999999 144.2,93.44999999999999 144.89999999999998,92.75 145.25,93.1 145.25,92.05 143.85,93.44999999999999 142.1,94.14999999999999 141.39999999999998,95.55 146.29999999999998,95.19999999999999 146.64999999999998,94.85 145.25,94.85 145.95,93.8 155.39999999999998,94.85 157.14999999999998,93.8 157.85,92.75 157.5,91.69999999999999 159.6,89.94999999999999 161.0,89.94999999999999 163.1,88.55 164.14999999999998,88.55" stroke="#aaa" stroke-width="1" /><polyline fill="none" points="173.6,101.5 173.25,103.25 173.95,101.5 175.35,102.55 173.25,103.94999999999999 173.25,105.35 175.0,107.44999999999999 183.39999999999998,107.44999999999999 184.45,108.5 183.75,108.85 184.45,109.19999999999999 183.04999999999998,109.89999999999999 182.35,110.94999999999999 180.25,109.89999999999999 177.1,109.89999999999999 176.75,109.19999999999999 176.39999999999998,109.89999999999999 171.5,109.55 176.04999999999998,109.55 177.45,110.25 179.89999999999998,109.89999999999999 181.64999999999998,110.25 182.35,111.3 183.75,109.89999999999999 185.14999999999998,111.3 186.54999999999998,111.3 184.45,110.6 184.1,109.55 184.79999999999998,108.85 185.85,109.55 185.14999999999998,110.25 185.85,109.55 186.89999999999998,109.89999999999999 183.75,107.44999999999999 175.7,107.8 173.95,106.05 173.25,104.3 174.64999999999998,103.25 176.75,105.0 175.7,106.05 177.1,105.0 177.1,104.3 174.64999999999998,103.25 175.35,102.55 176.39999999999998,103.6 176.04999999999998,102.89999999999999 176.75,102.19999999999999 178.14999999999998,102.55 179.2,103.6 179.54999999999998,102.89999999999999 178.5,102.89999999999999 177.1,101.85 175.7,102.89999999999999 174.64999999999998,101.5" stroke="#aaa" stroke-width="1" /><polyline fill="none" points="194.95,94.5 194.25,93.8 194.6,93.44999999999999 192.5,91.69999999999999 189.0,89.94999999999999 179.2,88.55 173.6,88.89999999999999 166.95,90.3 166.25,91.0 165.89999999999998,90.64999999999999 164.5,91.35 158.89999999999998,92.05 158.89999999999998,95.19999999999999 158.54999999999998,95.55 157.5,94.85 158.2,95.19999999999999 157.85,96.25 158.89999999999998,95.19999999999999 159.6,96.25 157.85,97.64999999999999 156.79999999999998,97.64999999999999 156.45,98.69999999999999 155.39999999999998,99.05 155.04999999999998,98.0 156.45,96.6 156.79999999999998,95.19999999999999 156.79999999999998,95.89999999999999 155.04999999999998,97.64999999999999 154.35,102.19999999999999 156.45,102.19999999999999 156.79999999999998,101.14999999999999 161.35,97.3 168.35,93.8 177.45,92.75 182.7,93.8 184.45,94.85 186.54999999999998,94.85 184.45,94.85 182.7,93.8 177.45,92.75 172.89999999999998,92.75 171.85,93.44999999999999 168.35,93.8 161.7,96.94999999999999 158.54999999999998,99.05 156.1,102.19999999999999 154.7,102.55 154.35,100.8 155.39999999999998,99.05 156.1,99.05 156.79999999999998,98.0 157.5,98.69999999999999 156.79999999999998,98.0 157.5,97.3 158.2,98.0 157.85,97.64999999999999 159.6,96.25 160.64999999999998,96.94999999999999 158.54999999999998,94.5 159.6,92.05 166.25,91.0 166.95,90.3 173.6,88.89999999999999 179.2,88.55 189.0,89.94999999999999 190.04999999999998,91.0 191.1,91.0 192.85,92.05" stroke="#aaa" stroke-width="1" /><polyline fill="none" points="131.25,192.85 131.25,193.54999999999998 131.95,193.89999999999998 133.35,193.2 134.39999999999998,194.25 134.04999999999998,194.6 134.75,193.89999999999998 134.75,192.5 133.35,192.5 133.0,191.79999999999998 132.29999999999998,191.79999999999998" stroke="#aaa" stroke-width="1" /><polyline fill="none" points="148.39999999999998,186.2 147.7,186.54999999999998 147.7,187.95 146.29999999999998,189.0 144.89999999999998,187.95 145.6,187.25 147.0,187.6 145.6,187.25 144.89999999999998,187.95 146.29999999999998,189.0 147.35,188.29999999999998 149.1,189.7 150.85,189.7 151.54999999999998,190.39999999999998 151.54999999999998,193.54999999999998 150.5,194.6 151.89999999999998,194.6 152.6,195.29999999999998 152.25,197.04999999999998 150.14999999999998,198.1 148.75,197.75 148.75,196.35 148.04999999999998,196.35 147.0,195.29999999999998 145.95,193.2 145.6,190.75 144.54999999999998,191.45 144.54999999999998,192.85 143.14999999999998,194.25 143.14999999999998,195.29999999999998 142.1,196.7 144.89999999999998,198.45 145.25,197.75 144.89999999999998,198.1 142.45,196.35 143.14999999999998,195.29999999999998 145.95,197.75 146.64999999999998,197.39999999999998 143.14999999999998,194.95 144.54999999999998,193.2 144.54999999999998,191.79999999999998 145.25,190.75 145.95,191.45 145.95,193.54999999999998 147.0,194.6 147.0,195.29999999999998 146.29999999999998,195.64999999999998 144.89999999999998,193.89999999999998 145.25,194.95 146.64999999999998,196.0 147.0,195.29999999999998 148.39999999999998,196.7 148.39999999999998,198.1 147.35,198.1 146.64999999999998,199.14999999999998 148.75,200.2 148.04999999999998,199.14999999999998 149.79999999999998,199.14999999999998 148.04999999999998,198.45 148.75,197.75 151.89999999999998,197.75 152.6,196.35 152.25,196.0 153.29999999999998,194.95 152.6,195.29999999999998 151.89999999999998,194.6 152.25,194.25 151.54999999999998,194.95 150.85,194.6 151.54999999999998,193.54999999999998 151.54999999999998,190.04999999999998 149.1,189.7 147.35,188.29999999999998 148.04999999999998,187.6 148.39999999999998,187.95 148.04999999999998,186.89999999999998 148.75,186.2 150.5,186.89999999999998 151.2,188.29999999999998 150.85,189.0 151.2,187.95 150.5,186.54999999999998" stroke="#aaa" stroke-width="1" /><polyline fill="none" points="127.39999999999999,190.04999999999998 125.3,190.75 124.94999999999999,190.04999999999998 123.89999999999999,190.04999999999998 122.14999999999999,192.5 121.1,192.85 121.8,192.85 122.85,194.25 123.55,192.85 124.94999999999999,191.79999999999998 125.99999999999999,192.85 125.3,193.54999999999998 124.6,192.85 125.3,193.54999999999998 124.94999999999999,194.25 125.64999999999999,194.6 124.94999999999999,193.89999999999998 125.99999999999999,193.89999999999998 125.99999999999999,192.85 124.94999999999999,191.45 127.05,190.04999999999998 127.39999999999999,190.75 125.99999999999999,191.79999999999998 126.69999999999999,191.79999999999998 127.39999999999999,191.1" stroke="#aaa" stroke-width="1" /><polyline fill="none" points="111.3,176.75 109.19999999999999,179.54999999999998 107.1,179.89999999999998 105.69999999999999,179.2 105.0,180.6 104.3,179.89999999999998 104.3,178.85 106.39999999999999,177.1 105.0,178.14999999999998 103.25,176.39999999999998 105.0,178.14999999999998 104.3,178.5 104.3,179.89999999999998 103.6,180.6 103.6,181.64999999999998 105.0,183.04999999999998 104.3,184.1 104.3,187.25 102.55,189.0 103.6,190.39999999999998 103.94999999999999,190.04999999999998 105.35,190.75 102.89999999999999,189.0 104.3,187.25 104.3,184.45 105.0,183.39999999999998 103.6,180.95 104.64999999999999,180.25 104.64999999999999,181.64999999999998 105.69999999999999,179.54999999999998 106.39999999999999,179.2 107.1,179.89999999999998 105.35,182.35 107.44999999999999,179.89999999999998 109.55,179.54999999999998" stroke="#aaa" stroke-width="1" /><polyline fill="none" points="182.7,167.29999999999998 180.6,170.45 180.6,172.89999999999998 182.7,173.25 181.64999999999998,174.29999999999998 180.25,174.29999999999998 179.54999999999998,176.39999999999998 179.89999999999998,175.7 180.25,176.04999999999998 179.89999999999998,175.0 180.6,174.29999999999998 182.35,173.95 183.75,172.2 185.85,174.29999999999998 186.54999999999998,177.79999999999998 187.95,178.5 186.2,176.75 185.85,173.6 187.95,171.14999999999998 188.64999999999998,171.85 187.25,173.6 187.25,175.35 187.25,173.6 188.64999999999998,171.85 187.6,170.1 185.5,170.1 186.54999999999998,168.7 187.95,168.7 186.89999999999998,168.35 184.45,170.1 185.14999999999998,169.75 185.5,170.79999999999998 186.2,170.1 187.95,170.45 187.95,171.14999999999998 186.54999999999998,172.54999999999998 185.85,171.85 184.1,171.85 182.7,173.25 180.95,172.89999999999998 180.6,170.45 182.0,168.7 182.7,170.1 182.0,168.7 182.7,167.64999999999998 183.04999999999998,168.0" stroke="#aaa" stroke-width="1" /><polyline fill="none" points="126.35,84.69999999999999 124.24999999999999,85.75 122.14999999999999,85.75 121.1,86.8 120.39999999999999,86.8 117.6,89.25 117.6,91.0 119.69999999999999,92.39999999999999 123.55,92.39999999999999 124.94999999999999,90.64999999999999 124.24999999999999,87.14999999999999 125.99999999999999,86.1 124.6,86.44999999999999 124.24999999999999,85.75" stroke="#aaa" stroke-width="1" /><polyline fill="none" points="90.64999999999999,170.79999999999998 91.69999999999999,170.45 92.75,171.5 92.75,172.54999999999998 92.05,172.89999999999998 93.44999999999999,173.6 93.8,175.0 93.1,173.25 93.8,172.54999999999998 92.75,172.54999999999998 92.75,171.14999999999998 92.05,170.79999999999998 93.8,170.1 95.55,172.54999999999998 96.6,172.54999999999998 98.0,174.29999999999998 99.05,173.6 98.0,174.29999999999998 96.94999999999999,172.89999999999998 97.3,171.85 98.69999999999999,170.79999999999998 97.3,171.5 96.25,170.1 95.89999999999999,170.45 97.3,172.2 95.89999999999999,172.54999999999998 93.8,170.1 93.1,168.35 93.8,169.75 93.1,170.45" stroke="#aaa" stroke-width="1" /><polyline fill="none" points="145.25,84.35 145.6,85.05 148.04999999999998,86.1 148.75,85.39999999999999 150.14999999999998,85.39999999999999 150.5,84.69999999999999 148.04999999999998,83.64999999999999 150.14999999999998,84.69999999999999 149.45,85.75 145.95,83.64999999999999" stroke="#aaa" stroke-width="1" /><polyline fill="none" points="155.39999999999998,196.0 157.14999999999998,194.95 159.25,197.04999999999998 158.2,195.64999999999998 158.54999999999998,194.95 159.6,194.95 160.29999999999998,194.25 161.7,195.29999999999998 164.85,193.2 165.2,193.89999999999998 165.89999999999998,193.2 166.6,193.54999999999998 164.85,193.2 164.14999999999998,193.89999999999998 162.39999999999998,194.25 159.6,191.79999999999998 159.25,192.14999999999998 158.54999999999998,191.1 158.2,192.14999999999998 158.54999999999998,191.45 159.25,192.14999999999998 157.85,193.89999999999998 158.54999999999998,194.95 157.85,195.64999999999998 157.5,194.95 156.79999999999998,194.95" stroke="#aaa" stroke-width="1" /><polyline fill="none" points="113.74999999999999,186.2 111.3,188.29999999999998 112.0,189.0 111.3,189.7 110.6,189.35 110.94999999999999,189.0 109.89999999999999,190.39999999999998 110.25,191.1 109.55,192.85 109.55,196.35 110.25,192.5 109.89999999999999,191.45 110.94999999999999,189.7 111.64999999999999,190.04999999999998 110.94999999999999,192.5 112.0,194.6 114.1,194.95 114.8,194.25 114.8,193.2 116.19999999999999,191.79999999999998 115.85,191.45 114.1,194.6 112.35,194.6 111.3,193.89999999999998 110.94999999999999,191.79999999999998 111.64999999999999,191.1 111.3,189.7 112.0,189.0 113.05,190.04999999999998 112.69999999999999,190.39999999999998 114.1,189.7 115.14999999999999,190.75 115.14999999999999,191.45 115.49999999999999,190.39999999999998 114.1,189.7 113.05,190.04999999999998 112.0,189.0 113.05,188.64999999999998 112.0,189.0 111.3,188.29999999999998" stroke="#aaa" stroke-width="1" /><polyline fill="none" points="199.5,117.6 198.1,118.3 196.0,117.94999999999999 195.29999999999998,118.99999999999999 196.35,120.39999999999999 199.5,120.74999999999999 200.2,121.44999999999999 199.85,121.8 197.04999999999998,121.8 193.89999999999998,124.6 186.54999999999998,127.74999999999999 183.75,127.74999999999999 186.54999999999998,127.74999999999999 192.85,125.3 197.39999999999998,121.8 198.1,122.14999999999999 200.2,121.44999999999999 200.89999999999998,122.14999999999999 199.85,120.74999999999999 196.35,120.39999999999999 195.29999999999998,118.99999999999999 196.0,117.94999999999999 197.39999999999998,117.94999999999999 198.79999999999998,120.05 199.5,120.05 199.5,119.35 198.1,118.3 199.14999999999998,117.6 199.85,118.3" stroke="#aaa" stroke-width="1" /><polyline fill="none" points="152.95,198.1 155.04999999999998,199.85 158.2,199.5 158.2,198.79999999999998 159.25,198.1 159.6,198.45 161.35,196.0 158.89999999999998,198.45 157.14999999999998,197.75 156.1,197.75 155.39999999999998,198.45 155.39999999999998,197.39999999999998 154.35,196.0 154.7,194.95 154.35,195.64999999999998 154.0,195.29999999999998 155.39999999999998,197.39999999999998 154.35,199.14999999999998" stroke="#aaa" stroke-width="1" /><polyline fill="none" points="199.14999999999998,145.25 200.2,147.35 199.5,148.04999999999998 199.14999999999998,147.35 196.7,147.35 198.79999999999998,147.35 200.54999999999998,149.45 201.25,148.39999999999998 199.85,147.0" stroke="#aaa" stroke-width="1" /><polyline fill="none" points="85.39999999999999,161.35 84.69999999999999,161.35 84.35,162.04999999999998 85.05,163.1 84.69999999999999,164.14999999999998 85.39999999999999,165.89999999999998 85.39999999999999,169.39999999999998 84.69999999999999,170.1 84.69999999999999,171.14999999999998 82.6,173.25 82.6,173.95 84.69999999999999,171.5 84.69999999999999,170.45 85.39999999999999,169.75" stroke="#aaa" stroke-width="1" /><polyline fill="none" points="91.69999999999999,171.5 89.25,173.25 89.6,175.35 88.89999999999999,176.04999999999998 87.5,173.95 88.55,173.25 86.8,172.89999999999998 86.1,173.6 86.8,172.89999999999998 87.5,173.6 86.44999999999999,174.64999999999998 85.75,174.64999999999998 86.44999999999999,174.64999999999998 86.8,175.35 87.85,175.0 88.89999999999999,176.04999999999998 89.94999999999999,178.14999999999998 90.3,182.7 90.3,180.6 91.0,180.6 89.94999999999999,179.54999999999998 89.94999999999999,177.79999999999998 88.89999999999999,176.39999999999998 89.6,175.7 89.25,173.6 90.3,172.54999999999998 91.69999999999999,173.6 91.0,175.0 91.35,175.7 91.0,175.0 91.69999999999999,173.6 90.64999999999999,172.54999999999998" stroke="#aaa" stroke-width="1" /><polyline fill="none" points="79.1,154.7 75.94999999999999,156.79999999999998 76.64999999999999,156.45 77.35,157.14999999999998 77.0,157.85 77.69999999999999,156.79999999999998 78.75,157.14999999999998 78.05,158.89999999999998 75.94999999999999,158.89999999999998 77.35,158.89999999999998 77.35,159.6 76.3,160.29999999999998 76.3,161.0 77.35,161.35 77.0,162.75 77.35,160.64999999999998 76.3,160.64999999999998 77.0,159.95 78.05,159.95 78.05,161.0 78.39999999999999,160.64999999999998 79.1,161.35 78.05,159.6 77.35,159.6 77.69999999999999,158.54999999999998 78.75,159.25 78.39999999999999,158.54999999999998 79.1,158.2 81.89999999999999,160.29999999999998 78.39999999999999,157.5 79.44999999999999,157.14999999999998 80.5,158.2 81.55,157.85 82.25,158.54999999999998" stroke="#aaa" stroke-width="1" /><polyline fill="none" points="196.7,166.25 197.04999999999998,166.6 193.89999999999998,173.25 193.2,173.6 193.54999999999998,173.95 194.25,172.54999999999998 194.95,173.25 194.25,175.35 194.6,176.04999999999998 195.29999999999998,176.04999999999998 196.0,175.0 195.64999999999998,173.6 195.29999999999998,174.29999999999998 196.0,175.0 194.95,176.04999999999998 194.25,175.35 194.95,173.25 196.35,172.2 197.39999999999998,173.6 196.35,174.29999999999998 197.04999999999998,174.29999999999998 199.5,171.5 201.6,172.89999999999998 199.85,173.6 200.2,175.0 201.25,176.04999999999998 199.85,173.95 202.29999999999998,172.89999999999998 201.6,172.89999999999998 200.89999999999998,172.2 201.25,171.85 200.54999999999998,172.2 199.5,171.5 200.89999999999998,170.45 201.6,171.14999999999998 201.6,170.1 200.2,169.75 199.14999999999998,168.35 199.5,169.04999999999998 198.79999999999998,169.75 197.04999999999998,170.1 196.7,171.85 194.95,173.25 194.25,172.54999999999998 194.95,170.45 196.0,169.39999999999998 196.35,170.1 196.0,168.7 197.39999999999998,166.6" stroke="#aaa" stroke-width="1" /><polyline fill="none" points="185.5,95.55 188.64999999999998,96.6 191.1,98.69999999999999 193.89999999999998,100.1 200.89999999999998,106.39999999999999 196.35,101.85 197.04999999999998,101.14999999999999 196.0,101.85 189.0,96.6" stroke="#aaa" stroke-width="1" /><polyline fill="none" points="80.85,166.25 80.14999999999999,165.89999999999998 78.75,168.0 76.64999999999999,169.39999999999998 78.05,168.35 79.1,169.04999999999998 80.14999999999999,168.7 81.19999999999999,167.29999999999998" stroke="#aaa" stroke-width="1" /><polyline fill="none" points="177.1,193.89999999999998 177.45,195.64999999999998 176.75,196.0 176.75,197.04999999999998 177.79999999999998,198.1 178.14999999999998,196.35 177.1,194.95" stroke="#aaa" stroke-width="1" /><polyline fill="none" points="118.3,200.2 117.94999999999999,201.95 116.89999999999999,203.0 115.14999999999999,202.29999999999998 114.44999999999999,201.25 114.8,202.29999999999998 116.89999999999999,203.0 116.55,204.39999999999998 115.49999999999999,205.45 113.74999999999999,204.04999999999998 113.39999999999999,204.75 114.44999999999999,206.85 115.85,207.89999999999998 116.55,207.2 119.35,206.5 120.05,205.1 118.99999999999999,206.5 115.49999999999999,207.54999999999998 113.39999999999999,204.75 113.74999999999999,204.39999999999998 115.49999999999999,205.45 115.49999999999999,206.14999999999998 116.55,206.14999999999998 115.49999999999999,205.45 116.89999999999999,204.04999999999998 116.89999999999999,203.0 118.3,201.25 118.99999999999999,201.25 119.35,202.29999999999998 119.35,201.25 118.64999999999999,201.25" stroke="#aaa" stroke-width="1" /><polyline fill="none" points="170.45,85.75 175.7,85.05 176.39999999999998,84.0 178.14999999999998,85.39999999999999 179.89999999999998,84.35 182.0,84.35 182.7,83.64999999999999 183.04999999999998,84.35 187.25,86.1 187.25,87.14999999999999 188.29999999999998,87.14999999999999 186.54999999999998,85.39999999999999 183.39999999999998,84.35 181.64999999999998,81.89999999999999 180.25,81.55 177.45,79.1 179.89999999999998,81.55 180.95,81.55 182.7,83.3 182.0,84.35 177.79999999999998,85.05 175.35,82.6 175.35,83.3 176.04999999999998,83.64999999999999 175.35,85.05 173.6,84.69999999999999" stroke="#aaa" stroke-width="1" /><polyline fill="none" points="89.94999999999999,184.79999999999998 88.19999999999999,185.5 87.5,184.79999999999998 88.19999999999999,185.5 86.8,186.54999999999998 85.39999999999999,186.54999999999998 84.69999999999999,185.85 88.19999999999999,183.04999999999998 87.14999999999999,183.04999999999998 87.14999999999999,180.95 84.0,183.39999999999998 84.0,184.1 84.35,183.39999999999998 86.1,184.45 84.69999999999999,185.85 84.0,185.14999999999998 80.85,185.5 79.8,184.79999999999998 80.14999999999999,183.75 81.19999999999999,182.7 81.89999999999999,182.7 81.55,182.35 80.14999999999999,183.39999999999998 79.8,184.79999999999998 80.5,185.5 83.64999999999999,185.14999999999998 85.39999999999999,186.89999999999998 86.44999999999999,186.89999999999998 88.55,185.85 88.55,185.14999999999998" stroke="#aaa" stroke-width="1" /><polyline fill="none" points="67.55,150.14999999999998 66.85,151.54999999999998 66.85,154.7 66.85,153.64999999999998 67.55,153.29999999999998 68.25,154.0 67.55,154.35 68.6,155.04999999999998 68.6,155.75 70.35,156.45 70.35,153.29999999999998 71.39999999999999,153.29999999999998 71.05,155.04999999999998 71.75,152.6 70.35,152.95 70.35,156.1 69.64999999999999,156.45 68.6,155.39999999999998 67.89999999999999,153.29999999999998 66.85,152.95 66.85,152.25 70.35,152.25 70.35,151.54999999999998 72.1,151.2 73.14999999999999,151.89999999999998 72.44999999999999,154.0 72.8,153.29999999999998 75.6,155.75 75.25,154.7 72.8,153.29999999999998 73.14999999999999,151.89999999999998 72.44999999999999,151.2 70.35,150.5 71.39999999999999,151.2 68.25,152.25 67.19999999999999,151.2 69.3,150.14999999999998 68.94999999999999,149.79999999999998 69.3,150.14999999999998 68.25,150.85" stroke="#aaa" stroke-width="1" /><polyline fill="none" points="190.39999999999998,88.89999999999999 190.04999999999998,89.6 190.75,88.89999999999999 192.85,89.6 197.04999999999998,93.44999999999999 196.7,94.85 201.6,101.85 202.64999999999998,102.55 202.29999999999998,102.89999999999999 203.0,102.55 201.6,101.5 196.7,94.85 197.04999999999998,93.1 193.2,89.6" stroke="#aaa" stroke-width="1" /><polyline fill="none" points="58.449999999999996,135.79999999999998 58.099999999999994,136.14999999999998 59.49999999999999,137.89999999999998 60.199999999999996,137.54999999999998 61.24999999999999,138.25 61.599999999999994,139.64999999999998 62.99999999999999,140.7 64.39999999999999,137.89999999999998 65.1,137.89999999999998 69.64999999999999,143.85 69.64999999999999,144.89999999999998 70.35,145.6 69.64999999999999,146.29999999999998 69.64999999999999,148.75 70.0,149.45 71.05,149.45 71.05,148.04999999999998 72.1,147.35 71.75,147.0 71.39999999999999,147.7 71.05,146.64999999999998 72.44999999999999,145.6 72.8,144.54999999999998 70.35,143.85 72.8,144.89999999999998 71.05,146.29999999999998 71.05,149.1 70.35,149.45 69.64999999999999,148.75 69.64999999999999,146.64999999999998 70.35,145.25 69.3,143.14999999999998 71.05,141.75 68.94999999999999,139.64999999999998 69.3,138.6 70.0,138.95 67.89999999999999,137.2 66.14999999999999,134.04999999999998 64.39999999999999,132.65 68.94999999999999,138.6 68.94999999999999,139.64999999999998 70.0,140.7 69.3,141.39999999999998 70.35,140.7 71.05,141.75 69.64999999999999,142.79999999999998 68.6,142.45 68.25,141.04999999999998 65.8,138.25 63.699999999999996,138.25 63.349999999999994,138.95 64.05,139.29999999999998 63.349999999999994,140.35 62.65,140.35 61.599999999999994,139.29999999999998 61.599999999999994,138.25 59.49999999999999,137.54999999999998 58.449999999999996,136.5" stroke="#aaa" stroke-width="1" /><polyline fill="none" points="206.14999999999998,173.95 204.75,173.6 206.14999999999998,174.29999999999998 205.79999999999998,175.0 204.75,175.0 203.7,173.95 203.0,175.0 203.7,176.04999999999998 199.5,180.25 205.1,175.0 206.14999999999998,175.0" stroke="#aaa" stroke-width="1" /><polyline fill="none" points="73.5,155.39999999999998 73.5,158.54999999999998 71.39999999999999,161.7 69.3,160.29999999999998 70.0,159.6 71.05,160.29999999999998 67.89999999999999,156.79999999999998 66.85,156.79999999999998 67.19999999999999,157.85 66.5,158.54999999999998 64.39999999999999,155.75 66.14999999999999,158.54999999999998 65.45,160.64999999999998 66.14999999999999,159.25 65.8,158.89999999999998 67.19999999999999,157.85 67.89999999999999,158.89999999999998 66.85,159.6 67.89999999999999,158.89999999999998 68.6,159.25 68.25,160.29999999999998 66.85,161.0 66.14999999999999,162.04999999999998 65.45,161.35 66.14999999999999,162.04999999999998 67.55,160.64999999999998 68.6,161.0 68.6,158.54999999999998 70.0,159.6 69.3,160.29999999999998 70.0,161.0 67.19999999999999,163.1 68.25,164.14999999999998 69.3,163.45 68.25,163.79999999999998 67.55,163.1 70.0,161.0 71.39999999999999,161.7 72.8,160.29999999999998 74.19999999999999,157.5 73.5,157.5" stroke="#aaa" stroke-width="1" /><polyline fill="none" points="88.19999999999999,188.64999999999998 86.8,189.7 85.39999999999999,189.0 85.05,189.7 84.69999999999999,189.35 81.55,192.5 80.85,196.0 79.1,197.39999999999998 76.64999999999999,196.0 77.69999999999999,196.35 80.14999999999999,198.79999999999998 79.44999999999999,200.89999999999998 81.19999999999999,202.29999999999998 82.6,201.6 84.0,203.0 84.0,203.7 83.3,201.95 84.0,201.6 83.3,200.54999999999998 83.64999999999999,201.6 82.25,201.6 81.55,202.29999999999998 79.44999999999999,200.54999999999998 80.5,199.14999999999998 80.14999999999999,198.79999999999998 82.6,197.39999999999998 82.25,195.64999999999998 82.94999999999999,194.6 85.05,196.35 87.5,199.85 88.89999999999999,200.89999999999998 89.25,200.54999999999998 87.85,199.85 85.75,197.75 85.05,196.0 82.94999999999999,194.25 82.25,195.64999999999998 82.25,197.39999999999998 80.14999999999999,198.79999999999998 79.1,197.39999999999998 80.14999999999999,196.7 80.85,197.39999999999998 80.14999999999999,196.7 81.55,194.6 81.19999999999999,193.2 84.69999999999999,189.7 86.1,189.7 87.14999999999999,190.39999999999998 87.14999999999999,191.1 85.05,192.5 85.05,193.54999999999998 85.05,192.85 86.8,191.79999999999998 87.85,190.39999999999998 86.8,189.7" stroke="#aaa" stroke-width="1" /><polyline fill="none" points="205.1,93.1 204.75,94.5 207.2,97.64999999999999 208.95,98.35 207.89999999999998,98.0 205.79999999999998,95.55 206.85,94.5 206.5,93.1" stroke="#aaa" stroke-width="1" /><polyline fill="none" points="211.04999999999998,98.69999999999999 210.0,100.1 212.79999999999998,105.69999999999999 213.85,110.6 216.29999999999998,116.19999999999999 213.85,110.25 213.5,107.1 210.35,100.1 210.35,99.39999999999999 211.04999999999998,99.05 213.14999999999998,101.5 213.85,105.35 214.54999999999998,106.39999999999999 214.2,107.44999999999999 214.89999999999998,106.75 213.85,105.35 213.14999999999998,101.14999999999999" stroke="#aaa" stroke-width="1" /><polyline fill="none" points="82.25,203.0 83.3,204.04999999999998 83.64999999999999,206.85 85.75,209.29999999999998 85.05,210.0 84.0,208.95 84.0,210.35 81.55,212.45 80.85,214.54999999999998 79.1,216.64999999999998 77.35,221.89999999999998 77.35,223.29999999999998 75.6,227.14999999999998 74.19999999999999,228.54999999999998 70.69999999999999,229.6 68.6,231.35 65.45,232.04999999999998 61.599999999999994,234.14999999999998 59.49999999999999,236.24999999999997 56.349999999999994,237.29999999999998 48.65,242.2 47.25,243.95 50.05,241.49999999999997 54.599999999999994,239.04999999999998 56.699999999999996,237.29999999999998 59.849999999999994,236.24999999999997 61.949999999999996,234.14999999999998 62.65,234.14999999999998 65.45,232.04999999999998 68.94999999999999,231.35 71.05,229.6 74.55,228.54999999999998 75.6,227.49999999999997 77.35,223.64999999999998 77.35,221.89999999999998 79.1,217.0 80.85,214.89999999999998 81.55,212.79999999999998 84.69999999999999,209.64999999999998 85.39999999999999,210.0 86.1,209.29999999999998 83.64999999999999,206.85 83.3,204.04999999999998" stroke="#aaa" stroke-width="1" /><polyline fill="none" points="93.1,249.89999999999998 92.75,250.6 94.14999999999999,251.29999999999998 98.35,255.49999999999997 99.05,256.9 98.69999999999999,257.25 99.75,256.9 100.8,257.95 100.1,259.0 101.14999999999999,260.05 100.1,258.65 100.8,257.95 102.55,260.05 104.3,260.4 105.35,261.8 108.5,263.55 109.19999999999999,264.95 110.6,265.65 108.85,264.25 108.85,263.55 105.35,261.8 104.64999999999999,260.4 102.89999999999999,260.05 100.1,256.9 98.69999999999999,256.55 98.0,254.79999999999998 93.1,250.24999999999997 94.5,249.89999999999998 96.94999999999999,251.64999999999998 94.5,249.89999999999998" stroke="#aaa" stroke-width="1" /><polyline fill="none" points="66.5,233.1 63.349999999999994,234.85 66.14999999999999,233.45 66.85,234.14999999999998 65.8,234.85 65.1,238.35 63.699999999999996,240.1 58.8,241.49999999999997 56.699999999999996,240.1 57.4,239.39999999999998 61.949999999999996,238.7 63.349999999999994,237.64999999999998 64.05,238.35 63.349999999999994,237.29999999999998 61.949999999999996,238.7 61.24999999999999,238.7 60.9,237.99999999999997 59.49999999999999,239.39999999999998 56.699999999999996,239.04999999999998 56.699999999999996,240.45 58.099999999999994,241.14999999999998 56.699999999999996,242.54999999999998 53.55,243.95 52.15,243.95 50.4,245.35 52.5,243.95 54.949999999999996,243.6 56.0,242.54999999999998 57.05,242.54999999999998 58.099999999999994,241.14999999999998 58.8,241.49999999999997 61.24999999999999,240.45 64.05,240.1 64.75,239.39999999999998 65.8,235.2 66.85,234.14999999999998" stroke="#aaa" stroke-width="1" /><polyline fill="none" points="81.19999999999999,21.7 79.44999999999999,21.349999999999998 78.05,23.099999999999998 77.69999999999999,22.75 78.39999999999999,23.799999999999997 79.44999999999999,23.799999999999997 79.44999999999999,23.099999999999998 80.5,23.099999999999998" stroke="#aaa" stroke-width="1" /><polyline fill="none" points="9.1,179.54999999999998 7.35,182.7 7.35,185.14999999999998 5.949999999999999,186.54999999999998 7.0,187.6 8.049999999999999,187.6 8.399999999999999,188.64999999999998 8.75,187.95 10.149999999999999,188.64999999999998 10.5,190.39999999999998 11.899999999999999,191.79999999999998 10.85,193.2 14.0,197.39999999999998 14.7,196.7 15.749999999999998,196.7 17.15,198.45 16.799999999999997,199.85 17.5,198.45 16.799999999999997,198.1 15.749999999999998,196.0 15.399999999999999,196.7 14.0,197.04999999999998 12.25,194.6 13.299999999999999,194.25 13.299999999999999,192.5 12.95,194.25 12.25,194.6 11.2,193.54999999999998 11.2,192.85 13.299999999999999,190.04999999999998 13.299999999999999,188.64999999999998 11.549999999999999,186.89999999999998 8.049999999999999,185.85 7.35,185.14999999999998 9.1,185.14999999999998 7.35,184.45 7.35,183.04999999999998 9.45,179.89999999999998 9.799999999999999,180.6" stroke="#aaa" stroke-width="1" /><polyline fill="none" points="203.0,257.95 201.25,261.45 198.1,265.3 197.04999999999998,269.5 193.89999999999998,273.34999999999997 193.2,275.79999999999995 190.75,278.25 190.75,279.65 190.39999999999998,278.95 193.2,276.15 193.54999999999998,274.04999999999995 196.7,270.2 198.1,265.65 201.25,261.8" stroke="#aaa" stroke-width="1" /><polyline fill="none" points="206.14999999999998,202.29999999999998 206.14999999999998,205.45 209.64999999999998,207.2 213.5,210.0 234.85,231.35 242.2,240.79999999999998 243.95,245.35 245.7,246.39999999999998 249.89999999999998,247.45 250.6,248.14999999999998 256.2,249.89999999999998 256.9,250.6 260.75,251.64999999999998 265.3,254.1 267.4,254.45 268.45,255.49999999999997 276.15,258.65 277.9,258.65 279.65,259.7 278.25,258.65 276.5,258.65 270.54999999999995,256.55 267.75,254.45 266.34999999999997,254.45 258.3,250.6 257.25,250.6 244.29999999999998,245.35 243.24999999999997,243.95 242.2,240.45 236.6,233.1 229.95,225.74999999999997 213.85,210.0 206.14999999999998,205.1 205.79999999999998,203.0 208.25,200.54999999999998 208.95,200.54999999999998 207.89999999999998,200.54999999999998" stroke="#aaa" stroke-width="1" /><polyline fill="none" points="4.55,173.25 2.8,175.35 3.5,176.04999999999998 2.8,177.45 3.5,180.25 2.8,180.95 2.0999999999999996,179.89999999999998 1.0499999999999998,179.89999999999998 2.4499999999999997,180.6 2.4499999999999997,182.0 3.8499999999999996,182.0 4.199999999999999,182.7 2.8,182.7 1.75,184.1 1.0499999999999998,184.1 0.35,183.39999999999998 1.0499999999999998,181.29999999999998 0.35,180.6 0.0,180.95 0.7,181.29999999999998 0.7,184.1 1.4,184.45 3.15,182.7 5.949999999999999,185.5 6.3,185.14999999999998 3.8499999999999996,183.39999999999998 4.55,182.35 4.8999999999999995,178.85 4.55,175.35 7.0,173.6 8.049999999999999,173.95 7.0,173.6 5.25,175.0 4.199999999999999,175.0 4.8999999999999995,178.14999999999998 4.199999999999999,182.35 2.0999999999999996,181.29999999999998 3.5,180.25 2.8,178.85 3.5,176.39999999999998 3.15,175.35" stroke="#aaa" stroke-width="1" /><polyline fill="none" points="65.8,245.35 65.45,245.7 64.05,244.64999999999998 62.99999999999999,244.64999999999998 59.849999999999994,246.04999999999998 58.099999999999994,246.04999999999998 56.699999999999996,247.1 51.099999999999994,248.49999999999997 47.599999999999994,250.24999999999997 44.449999999999996,250.95 43.4,251.99999999999997 42.349999999999994,251.99999999999997 39.9,253.39999999999998 36.75,254.1 35.0,255.49999999999997 33.599999999999994,255.49999999999997 30.799999999999997,257.25 28.0,257.95 25.2,260.05 23.799999999999997,260.05 21.349999999999998,261.45 20.65,261.09999999999997 21.7,261.45 25.9,259.7 26.25,260.4 29.4,261.45 29.749999999999996,261.09999999999997 28.349999999999998,261.45 25.9,259.7 28.349999999999998,257.95 30.799999999999997,257.25 33.599999999999994,255.49999999999997 35.0,255.49999999999997 37.8,253.74999999999997 40.25,253.39999999999998 42.349999999999994,251.99999999999997 43.4,251.99999999999997 48.3,249.54999999999998 53.9,248.14999999999998 62.99999999999999,244.64999999999998 64.39999999999999,245.35 62.99999999999999,247.79999999999998 63.349999999999994,249.54999999999998 62.65,250.24999999999997 62.3,249.89999999999998 62.99999999999999,250.95 62.3,252.35 60.9,251.99999999999997 58.099999999999994,253.39999999999998 54.599999999999994,253.39999999999998 52.849999999999994,254.45 50.4,254.45 49.0,255.85 47.599999999999994,255.49999999999997 45.15,256.9 43.05,256.9 41.65,258.3 38.5,259.0 36.05,260.4 38.5,259.0 42.0,258.3 43.4,256.9 45.15,256.9 47.949999999999996,255.49999999999997 49.0,255.85 50.75,254.45 52.849999999999994,254.45 54.949999999999996,253.39999999999998 58.099999999999994,253.39999999999998 60.9,251.99999999999997 62.65,252.35 63.349999999999994,251.64999999999998 62.65,250.24999999999997 63.699999999999996,249.89999999999998 62.99999999999999,248.14999999999998 63.699999999999996,246.04999999999998 64.39999999999999,245.35 65.45,245.7 65.1,248.49999999999997" stroke="#aaa" stroke-width="1" /><polyline fill="none" points="46.55,243.95 44.099999999999994,244.99999999999997 40.25,248.14999999999998 37.8,248.85 35.349999999999994,250.95 34.3,250.95 30.099999999999998,253.74999999999997 30.799999999999997,253.74999999999997 34.65,250.95 35.699999999999996,250.95 38.15,248.85 40.599999999999994,248.14999999999998 44.449999999999996,244.99999999999997" stroke="#aaa" stroke-width="1" /><polyline fill="none" points="23.099999999999998,226.1 23.799999999999997,227.14999999999998 22.75,226.1 22.75,227.49999999999997 24.15,228.89999999999998 24.15,234.85 22.75,236.95 22.75,238.7 24.15,241.49999999999997 25.9,243.24999999999997 25.2,244.64999999999998 26.25,246.74999999999997 25.2,253.39999999999998 22.4,256.2 23.799999999999997,255.49999999999997 25.2,253.74999999999997 26.25,246.39999999999998 25.2,244.64999999999998 25.9,242.89999999999998 22.75,238.7 22.75,236.95 24.15,235.2 24.15,228.89999999999998 22.75,227.14999999999998" stroke="#aaa" stroke-width="1" /><polyline fill="none" points="0.0,224.7 1.0499999999999998,224.35 1.75,225.04999999999998 3.8499999999999996,225.39999999999998 2.8,226.1 0.0,226.45 2.8,226.1 3.8499999999999996,225.39999999999998 5.949999999999999,226.45 4.199999999999999,225.39999999999998 2.8,223.64999999999998 1.75,223.64999999999998" stroke="#aaa" stroke-width="1" /><polyline fill="none" points="231.7,273.7 230.99999999999997,275.09999999999997 230.29999999999998,274.4 228.54999999999998,276.15 228.89999999999998,275.79999999999995 229.95,276.84999999999997 228.54999999999998,277.54999999999995 226.79999999999998,279.65 228.89999999999998,277.54999999999995 230.64999999999998,278.59999999999997 230.64999999999998,277.2 228.89999999999998,275.79999999999995 229.6,275.09999999999997 230.64999999999998,276.15 232.39999999999998,275.79999999999995 232.74999999999997,275.09999999999997 232.04999999999998,275.79999999999995 230.99999999999997,275.45" stroke="#aaa" stroke-width="1" /><polyline fill="none" points="64.39999999999999,257.95 62.65,257.25 59.49999999999999,259.0 49.699999999999996,260.4 48.3,261.45 45.15,262.5 43.4,262.5 39.199999999999996,264.59999999999997 37.099999999999994,264.95 34.3,266.34999999999997 33.949999999999996,267.05 32.9,267.05 27.65,269.5 25.9,269.5 24.5,270.54999999999995 22.049999999999997,270.54999999999995 21.0,271.59999999999997 14.7,273.0 6.3,276.15 2.0999999999999996,276.84999999999997 1.75,277.54999999999995 2.4499999999999997,276.84999999999997 8.75,275.45 14.7,273.0 21.0,271.59999999999997 22.4,270.54999999999995 24.849999999999998,270.54999999999995 26.25,269.5 27.65,269.5 31.499999999999996,268.09999999999997 32.9,267.05 33.949999999999996,267.05 37.449999999999996,264.95 42.699999999999996,263.2 43.4,262.5 45.15,262.5 49.349999999999994,261.09999999999997 50.05,260.4 59.49999999999999,259.0 62.65,257.25 63.349999999999994,257.25 64.39999999999999,258.3 64.05,260.75 65.45,262.5 64.05,264.59999999999997 61.949999999999996,265.3 60.9,266.34999999999997 58.099999999999994,266.0 52.5,266.34999999999997 50.05,267.4 48.65,267.05 46.55,268.45 44.099999999999994,268.79999999999995 38.849999999999994,271.25 37.099999999999994,272.65 35.0,271.59999999999997 31.849999999999998,272.29999999999995 35.0,271.59999999999997 36.4,272.65 33.949999999999996,273.34999999999997 33.25,274.4 31.849999999999998,274.4 30.45,275.45 26.599999999999998,275.79999999999995 25.9,276.5 23.799999999999997,276.5 21.7,277.9 17.15,278.25 16.45,278.95 13.649999999999999,279.65 16.799999999999997,278.95 17.5,278.25 21.7,277.9 23.799999999999997,276.5 26.25,276.5 26.95,275.79999999999995 30.799999999999997,275.45 32.199999999999996,274.4 33.599999999999994,274.4 35.0,273.0 37.449999999999996,272.65 38.5,271.59999999999997 44.099999999999994,268.79999999999995 47.599999999999994,268.09999999999997 48.65,267.05 50.05,267.4 52.5,266.34999999999997 58.099999999999994,266.0 60.9,266.34999999999997 65.45,263.55 65.45,262.15 64.05,260.75" stroke="#aaa" stroke-width="1" /><polyline fill="none" points="4.199999999999999,235.2 3.5,236.95 3.8499999999999996,238.35 2.8,238.35 3.8499999999999996,239.04999999999998 3.5,241.49999999999997 2.8,241.85 3.5,244.64999999999998 1.75,247.1 1.75,249.2 0.0,251.29999999999998 2.0999999999999996,248.85 1.75,247.1 3.5,244.64999999999998 3.15,242.2 3.8499999999999996,241.85 5.6,243.24999999999997 5.25,243.6 5.949999999999999,242.89999999999998 5.6,240.45 7.699999999999999,237.29999999999998 7.0,236.24999999999997 7.35,237.99999999999997 5.6,240.45 5.25,242.89999999999998 3.5,241.49999999999997" stroke="#aaa" stroke-width="1" /><polyline fill="none" points="21.7,256.55 20.65,255.49999999999997 19.599999999999998,255.85 19.25,256.9 14.35,260.05 16.799999999999997,258.3 17.849999999999998,258.3 18.549999999999997,257.25 19.599999999999998,256.9 19.95,255.85 21.349999999999998,256.2 21.7,257.25 18.549999999999997,260.05 16.799999999999997,260.4 11.2,264.25 9.799999999999999,264.59999999999997 8.049999999999999,266.0 7.0,266.0 3.5,268.45 0.0,269.5 0.35,270.54999999999995 2.8,270.54999999999995 3.15,269.84999999999997 4.55,269.5 2.4499999999999997,270.54999999999995 0.7,270.54999999999995 0.7,269.5 6.3,267.05 17.15,260.4 18.549999999999997,260.05 18.9,260.75 17.5,261.45 18.549999999999997,261.45 18.549999999999997,260.05 21.7,257.59999999999997" stroke="#aaa" stroke-width="1" /></svg>