<?xml version="1.0" encoding="utf-8" ?>
<svg baseProfile="full" height="224" version="1.1" width="224" xmlns="http://www.w3.org/2000/svg" xmlns:ev="http://www.w3.org/2001/xml-events" xmlns:xlink="http://www.w3.org/1999/xlink"><defs /><polyline fill="none" points="143.14999999999998,125.3 141.39999999999998,125.64999999999999 140.7,126.69999999999999 140.0,125.99999999999999 140.7,124.24999999999999 140.0,125.64999999999999 138.25,126.69999999999999 138.95,128.1 136.85,129.5 135.79999999999998,129.15 135.1,127.74999999999999 135.79999999999998,129.15 135.45,130.9 136.14999999999998,129.15 137.2,129.85 136.85,130.2 137.2,129.85 139.29999999999998,130.9 140.35,130.2 142.1,130.2 140.0,130.2 139.29999999999998,130.9 136.85,129.5 138.95,128.45 139.29999999999998,127.74999999999999 138.6,126.69999999999999 139.64999999999998,125.99999999999999 140.7,126.69999999999999 141.04999999999998,126.35 142.79999999999998,129.15 141.75,126.69999999999999 143.5,126.35 142.45,125.99999999999999" stroke="#aaa" stroke-width="1" /><polyline fill="none" points="123.55,152.25 123.89999999999999,153.29999999999998 126.69999999999999,154.0 126.69999999999999,153.29999999999998 126.35,154.0 125.64999999999999,153.64999999999998 125.99999999999999,153.29999999999998 125.3,154.0 123.89999999999999,152.95 124.24999999999999,151.89999999999998 126.35,151.2 129.85,151.89999999999998 131.6,150.85 136.85,150.5 138.95,151.54999999999998 140.7,150.85 143.85,151.54999999999998 142.45,151.2 143.5,150.14999999999998 144.2,150.85 145.95,150.85 146.64999999999998,151.89999999999998 144.89999999999998,154.0 139.64999999999998,154.0 137.89999999999998,152.95 135.79999999999998,153.29999999999998 136.14999999999998,153.64999999999998 136.5,152.95 137.89999999999998,152.95 139.64999999999998,154.0 145.6,153.64999999999998 147.35,155.04999999999998 145.6,153.29999999999998 146.29999999999998,152.6 147.35,153.29999999999998 148.39999999999998,151.89999999999998 147.35,151.2 148.04999999999998,151.89999999999998 147.35,153.29999999999998 147.0,152.6 146.29999999999998,152.6 146.64999999999998,151.54999999999998 145.95,150.85 144.2,150.85 143.85,150.14999999999998 143.14999999999998,150.14999999999998 142.1,151.2 140.7,150.85 139.29999999999998,151.54999999999998 136.85,150.5 131.6,150.85 128.79999999999998,151.89999999999998 127.39999999999999,150.85 129.15,149.45 136.14999999999998,149.45 136.5,149.1 129.15,149.45 127.05,151.2" stroke="#aaa" stroke-width="1" /><polyline fill="none" points="117.24999999999999,139.64999999999998 118.64999999999999,139.64999999999998 118.99999999999999,140.35 118.3,140.35 120.05,142.1 118.64999999999999,140.7 118.64999999999999,138.95 120.39999999999999,136.5 122.49999999999999,135.45 123.89999999999999,136.85 123.55,137.54999999999998 125.3,139.64999999999998 126.69999999999999,139.64999999999998 129.15,141.04999999999998 128.45,141.75 127.74999999999999,141.04999999999998 125.64999999999999,142.79999999999998 123.55,143.5 125.99999999999999,142.79999999999998 127.39999999999999,141.39999999999998 128.1,141.39999999999998 128.79999999999998,142.45 128.45,142.79999999999998 129.5,143.85 128.45,141.75 129.5,141.75 129.5,140.7 124.6,138.95 123.55,137.54999999999998 123.55,136.14999999999998 122.49999999999999,135.45 121.44999999999999,135.45 118.64999999999999,138.6 118.64999999999999,139.29999999999998" stroke="#aaa" stroke-width="1" /><polyline fill="none" points="126.69999999999999,159.25 128.1,158.2 129.85,159.25 130.9,158.2 134.75,158.54999999999998 135.79999999999998,157.5 137.54999999999998,157.14999999999998 139.29999999999998,157.5 140.0,158.2 140.0,159.25 140.7,159.6 146.64999999999998,158.2 148.04999999999998,159.25 151.2,158.89999999999998 153.64999999999998,160.64999999999998 154.35,160.29999999999998 155.39999999999998,161.35 155.39999999999998,162.75 155.39999999999998,161.0 154.35,160.29999999999998 153.64999999999998,160.64999999999998 151.2,158.54999999999998 148.39999999999998,159.25 147.35,158.2 145.6,158.2 140.7,159.6 139.64999999999998,157.5 137.54999999999998,157.14999999999998 135.45,157.5 134.39999999999998,158.54999999999998 133.0,157.85 130.54999999999998,158.2 129.85,158.89999999999998 128.1,158.2" stroke="#aaa" stroke-width="1" /><polyline fill="none" points="157.85,127.39999999999999 161.7,129.85 161.7,131.6 160.64999999999998,130.2 161.0,130.54999999999998 159.95,131.25 159.6,130.54999999999998 158.89999999999998,130.9 160.64999999999998,132.29999999999998 159.6,133.35 159.25,133.0 159.95,133.35 160.64999999999998,132.65 162.75,133.35 161.35,133.0 159.95,131.6 160.29999999999998,130.9 161.0,131.6 162.39999999999998,131.25 163.79999999999998,131.95 163.79999999999998,132.65 164.5,132.29999999999998 165.89999999999998,133.35 165.2,134.04999999999998 164.14999999999998,133.35 165.54999999999998,134.04999999999998 166.6,135.45 168.0,135.1 166.95,133.7 162.39999999999998,131.25 161.35,129.15 160.29999999999998,129.15" stroke="#aaa" stroke-width="1" /><polyline fill="none" points="157.85,142.1 157.5,143.14999999999998 161.35,145.95 166.25,152.25 168.35,153.29999999999998 165.54999999999998,151.54999999999998 164.85,149.79999999999998 163.1,148.39999999999998 161.35,145.6 157.5,142.79999999999998" stroke="#aaa" stroke-width="1" /><polyline fill="none" points="117.24999999999999,140.35 117.6,141.39999999999998 115.14999999999999,143.5 113.05,147.7 110.6,150.14999999999998 109.89999999999999,152.95 110.6,150.5 112.35,148.75 113.05,149.79999999999998 112.69999999999999,150.85 113.05,149.45 112.35,148.75 113.74999999999999,147.0 113.74999999999999,145.95 114.8,145.25 114.8,144.2 116.19999999999999,142.79999999999998 116.89999999999999,143.14999999999998 116.89999999999999,143.85 116.19999999999999,143.85 116.55,145.95 118.64999999999999,144.89999999999998 117.6,144.89999999999998 116.89999999999999,145.95 116.19999999999999,144.89999999999998 116.89999999999999,144.2 116.55,142.79999999999998 117.6,141.75" stroke="#aaa" stroke-width="1" /><polyline fill="none" points="123.89999999999999,128.79999999999998 123.19999999999999,128.1 123.89999999999999,129.15 122.49999999999999,129.15 120.74999999999999,131.25 119.35,130.54999999999998 118.99999999999999,131.25 117.6,131.6 115.85,133.0 114.1,135.45 112.69999999999999,135.45 109.55,137.89999999999998 108.85,136.85 110.6,135.45 111.3,135.79999999999998 109.55,135.79999999999998 107.8,137.54999999999998 108.14999999999999,138.25 107.44999999999999,139.29999999999998 104.64999999999999,138.6 105.0,140.35 104.3,141.04999999999998 103.6,140.7 104.64999999999999,141.39999999999998 105.0,138.6 105.69999999999999,139.29999999999998 108.14999999999999,138.95 107.8,138.6 108.5,138.25 108.14999999999999,137.54999999999998 108.85,136.85 109.55,137.89999999999998 108.85,138.95 109.19999999999999,139.64999999999998 107.1,141.04999999999998 107.1,142.79999999999998 106.05,142.1 106.05,141.39999999999998 105.69999999999999,143.14999999999998 106.39999999999999,144.2 105.69999999999999,143.14999999999998 106.39999999999999,142.45 107.1,143.85 107.1,142.79999999999998 107.8,142.45 107.1,142.1 107.1,141.39999999999998 108.85,140.35 108.85,138.95 112.0,136.5 112.69999999999999,137.54999999999998 112.35,138.25 110.25,138.6 112.35,138.6 112.69999999999999,137.2 112.0,136.5 113.05,135.45 114.44999999999999,135.45 116.55,132.65 119.35,131.25 119.69999999999999,130.54999999999998 120.74999999999999,131.6 122.49999999999999,129.15 123.19999999999999,129.85 123.89999999999999,129.5" stroke="#aaa" stroke-width="1" /><polyline fill="none" points="168.7,135.1 169.75,135.45 170.45,136.5 169.75,138.25 168.7,138.6 169.75,138.6 171.14999999999998,139.64999999999998 169.39999999999998,140.0 166.95,138.6 169.75,140.35 169.39999999999998,141.04999999999998 168.0,140.35 169.75,141.39999999999998 168.35,141.75 169.04999999999998,141.75 169.75,142.45 169.39999999999998,142.79999999999998 170.1,142.45 169.39999999999998,141.75 170.1,140.7 169.75,140.35 171.5,140.0 169.75,137.89999999999998 170.1,137.54999999999998 172.54999999999998,139.64999999999998 171.5,141.04999999999998 172.2,140.7 172.54999999999998,139.29999999999998 170.45,137.54999999999998 170.45,136.14999999999998 169.39999999999998,135.1" stroke="#aaa" stroke-width="1" /><polyline fill="none" points="110.6,162.39999999999998 111.3,166.25 111.3,171.14999999999998 110.25,171.85 109.89999999999999,172.89999999999998 112.0,173.95 110.25,173.25 109.89999999999999,172.54999999999998 111.3,171.14999999999998 113.05,172.2 112.69999999999999,173.95 113.39999999999999,174.64999999999998 113.39999999999999,176.39999999999998 115.49999999999999,179.2 115.49999999999999,182.7 115.85,183.39999999999998 116.89999999999999,182.35 117.94999999999999,183.04999999999998 116.55,184.45 119.35,187.6 120.05,189.35 121.1,189.35 122.49999999999999,188.29999999999998 123.89999999999999,189.7 123.19999999999999,189.0 123.55,188.29999999999998 126.35,188.29999999999998 127.05,186.89999999999998 125.99999999999999,188.29999999999998 122.49999999999999,188.29999999999998 120.39999999999999,189.35 119.35,187.25 117.94999999999999,186.2 117.94999999999999,185.5 120.74999999999999,185.5 117.94999999999999,185.5 116.89999999999999,184.45 117.94999999999999,182.7 115.49999999999999,182.35 115.85,178.85 115.49999999999999,179.2 115.14999999999999,177.79999999999998 113.39999999999999,176.39999999999998 112.69999999999999,171.5 111.64999999999999,171.5 110.94999999999999,170.45 111.3,166.25 110.6,162.39999999999998 111.64999999999999,161.35 112.69999999999999,162.04999999999998 111.64999999999999,162.75 113.74999999999999,161.0 114.8,161.0 123.19999999999999,164.5 128.1,164.5 131.6,163.79999999999998 137.54999999999998,165.2 151.54999999999998,164.5 154.0,165.89999999999998 152.25,167.64999999999998 153.29999999999998,166.6 154.35,167.29999999999998 153.64999999999998,166.6 154.35,165.2 155.04999999999998,166.25 157.5,166.6 157.85,166.25 155.39999999999998,166.25 155.39999999999998,165.2 156.45,165.54999999999998 161.0,163.79999999999998 161.7,164.14999999999998 166.95,163.1 168.35,163.45 169.75,164.85 169.39999999999998,165.89999999999998 170.45,167.29999999999998 170.79999999999998,171.85 170.1,172.2 169.39999999999998,171.14999999999998 170.1,172.2 168.35,173.6 168.0,174.64999999999998 169.75,172.54999999999998 171.14999999999998,173.95 171.14999999999998,174.64999999999998 172.54999999999998,173.6 171.85,173.95 171.14999999999998,173.25 171.5,172.89999999999998 170.45,170.79999999999998 170.45,167.29999999999998 169.75,166.25 169.75,164.5 168.35,163.45 169.39999999999998,162.75 171.85,163.45 171.85,165.54999999999998 170.79999999999998,166.6 171.85,165.89999999999998 171.85,163.45 170.1,162.75 169.04999999999998,162.75 168.35,163.45 166.25,163.1 161.7,164.14999999999998 161.0,163.79999999999998 156.45,165.54999999999998 153.64999999999998,165.54999999999998 151.54999999999998,164.5 137.54999999999998,165.2 132.29999999999998,163.79999999999998 128.1,164.5 123.19999999999999,164.5 120.39999999999999,163.1 117.24999999999999,162.39999999999998 115.14999999999999,161.0 113.74999999999999,161.0 113.05,161.7 111.3,161.35" stroke="#aaa" stroke-width="1" /><polyline fill="none" points="138.6,95.19999999999999 140.0,96.25 140.7,95.19999999999999 141.75,95.19999999999999 144.89999999999998,97.3 145.95,97.3 146.29999999999998,95.89999999999999 147.35,94.85 148.04999999999998,95.55 147.0,97.64999999999999 146.29999999999998,98.0 147.35,99.39999999999999 147.35,103.6 148.75,106.75 148.04999999999998,107.44999999999999 146.64999999999998,106.05 146.29999999999998,100.1 145.25,98.35 145.6,98.0 144.2,98.35 144.89999999999998,98.35 146.29999999999998,100.1 147.0,107.1 148.04999999999998,107.44999999999999 147.0,109.89999999999999 147.35,112.35 146.29999999999998,112.69999999999999 151.89999999999998,118.99999999999999 156.45,122.49999999999999 155.75,123.55 157.85,125.99999999999999 157.85,125.3 156.1,123.55 156.45,122.85 157.14999999999998,122.85 158.89999999999998,124.94999999999999 161.35,125.64999999999999 162.75,127.05 171.85,130.54999999999998 177.45,131.25 180.6,130.9 181.64999999999998,130.2 188.29999999999998,130.2 189.35,131.25 190.75,131.25 191.79999999999998,132.29999999999998 194.25,133.35 192.14999999999998,132.29999999999998 190.75,130.9 190.75,130.2 190.04999999999998,130.2 190.75,130.54999999999998 190.39999999999998,131.25 188.29999999999998,130.2 181.64999999999998,130.2 177.45,131.25 173.25,130.9 166.95,128.79999999999998 159.25,124.94999999999999 155.39999999999998,121.1 152.25,118.99999999999999 150.14999999999998,116.55 150.5,115.85 149.45,116.19999999999999 147.35,113.05 147.0,109.89999999999999 149.1,106.05 148.04999999999998,105.35 147.35,103.6 147.35,99.05 146.64999999999998,98.0 147.35,97.3 149.45,98.69999999999999 149.1,102.19999999999999 149.79999999999998,104.3 149.45,104.64999999999999 149.79999999999998,103.6 149.1,102.19999999999999 149.45,98.69999999999999 149.1,98.0 147.35,97.3 149.45,94.5 148.04999999999998,95.55 147.7,94.85 146.64999999999998,95.19999999999999 145.6,97.3 143.14999999999998,96.25 142.1,95.19999999999999 140.7,95.19999999999999 140.0,95.89999999999999" stroke="#aaa" stroke-width="1" /><polyline fill="none" points="132.65,94.85 134.04999999999998,97.3 134.04999999999998,99.05 135.1,100.1 135.1,103.6 134.04999999999998,104.64999999999999 134.04999999999998,105.35 135.79999999999998,107.8 133.7,115.14999999999999 135.1,109.55 136.85,107.44999999999999 136.5,105.0 137.54999999999998,103.25 139.29999999999998,105.0 140.0,104.3 140.7,105.69999999999999 142.1,104.3 142.1,105.69999999999999 142.45,104.3 139.29999999999998,104.64999999999999 137.54999999999998,103.25 138.6,102.19999999999999 140.7,101.5 143.14999999999998,101.5 145.25,103.25 145.6,105.69999999999999 144.2,106.75 143.85,109.19999999999999 144.2,110.6 145.6,111.64999999999999 145.6,115.49999999999999 145.6,111.3 144.2,110.6 143.85,109.19999999999999 144.2,107.1 145.6,105.69999999999999 145.95,106.05 144.89999999999998,102.55 143.5,101.5 140.7,101.5 138.25,102.19999999999999 136.85,103.94999999999999 136.85,107.44999999999999 136.14999999999998,108.14999999999999 135.1,106.75 135.1,99.75 134.04999999999998,98.69999999999999 134.04999999999998,97.3" stroke="#aaa" stroke-width="1" /><polyline fill="none" points="157.5,169.75 160.64999999999998,172.54999999999998 161.35,172.54999999999998 161.7,171.5 163.79999999999998,174.29999999999998 162.39999999999998,171.85 161.35,171.85 160.64999999999998,170.79999999999998 161.35,167.29999999999998 161.35,168.7 160.29999999999998,170.45 158.89999999999998,169.39999999999998 158.89999999999998,170.79999999999998" stroke="#aaa" stroke-width="1" /><polyline fill="none" points="134.04999999999998,115.85 132.29999999999998,117.6 130.54999999999998,116.89999999999999 132.29999999999998,117.94999999999999 130.2,120.05 129.5,120.05 127.74999999999999,122.49999999999999 124.24999999999999,125.64999999999999 123.19999999999999,125.99999999999999 122.14999999999999,127.39999999999999 118.3,129.15 116.19999999999999,129.5 112.35,131.95 106.05,133.0 101.14999999999999,132.65 97.3,131.6 95.55,131.95 93.1,130.9 91.69999999999999,131.25 88.55,128.79999999999998 88.19999999999999,125.99999999999999 87.5,124.94999999999999 86.1,126.35 85.05,126.35 84.35,125.64999999999999 84.69999999999999,124.94999999999999 82.6,121.8 81.55,121.44999999999999 84.69999999999999,124.94999999999999 84.69999999999999,126.35 85.75,126.69999999999999 87.5,124.94999999999999 87.85,125.3 88.55,129.15 90.64999999999999,130.9 93.1,130.9 95.55,131.95 97.3,131.6 101.14999999999999,132.65 106.05,133.0 112.35,131.95 117.24999999999999,129.15 122.49999999999999,127.39999999999999 129.85,120.05 130.54999999999998,120.05" stroke="#aaa" stroke-width="1" /><polyline fill="none" points="140.7,175.7 138.95,175.7 137.54999999999998,174.64999999999998 139.29999999999998,176.04999999999998 137.54999999999998,177.1 136.85,176.39999999999998 136.85,174.29999999999998 136.5,176.75 135.79999999999998,176.75 135.45,177.45 134.39999999999998,176.39999999999998 135.45,177.45 135.79999999999998,179.2 138.95,180.95 136.85,181.29999999999998 134.75,182.7 133.0,182.7 131.6,184.1 133.35,182.7 134.75,182.7 135.79999999999998,182.0 136.5,182.35 136.14999999999998,182.0 136.85,181.29999999999998 138.95,181.29999999999998 138.6,180.25 136.85,179.89999999999998 135.79999999999998,178.85 136.14999999999998,178.14999999999998 135.45,177.45 136.14999999999998,176.75 137.54999999999998,177.1 138.95,176.39999999999998 141.39999999999998,178.85 141.75,178.5 139.29999999999998,176.39999999999998 140.0,175.35" stroke="#aaa" stroke-width="1" /><polyline fill="none" points="147.7,176.75 149.79999999999998,178.85 150.85,178.85 151.2,178.14999999999998 151.89999999999998,178.5 150.14999999999998,177.1 149.1,177.45" stroke="#aaa" stroke-width="1" /><polyline fill="none" points="122.49999999999999,174.64999999999998 121.44999999999999,176.39999999999998 121.44999999999999,178.14999999999998 122.14999999999999,178.85 122.85,178.14999999999998 123.89999999999999,178.85 122.14999999999999,177.1 121.44999999999999,177.1 121.44999999999999,176.39999999999998 122.85,176.04999999999998 123.19999999999999,175.35" stroke="#aaa" stroke-width="1" /><polyline fill="none" points="120.39999999999999,101.5 120.74999999999999,103.6 123.19999999999999,103.6 123.89999999999999,102.89999999999999 123.89999999999999,101.5 123.19999999999999,100.8" stroke="#aaa" stroke-width="1" /><polyline fill="none" points="180.6,133.7 181.29999999999998,135.1 183.75,136.85 183.39999999999998,137.54999999999998 181.64999999999998,136.5 183.75,137.54999999999998 183.75,135.45 182.7,134.75 181.64999999999998,135.1" stroke="#aaa" stroke-width="1" /><polyline fill="none" points="136.85,94.85 136.5,96.94999999999999 137.54999999999998,97.3 137.89999999999998,95.19999999999999" stroke="#aaa" stroke-width="1" /><polyline fill="none" points="167.29999999999998,184.79999999999998 165.54999999999998,184.1 166.25,183.75 166.25,182.7 166.6,183.04999999999998 163.79999999999998,185.5 162.39999999999998,185.5 162.04999999999998,185.14999999999998 163.45,183.75 164.5,183.75 163.45,183.39999999999998 164.5,182.0 164.85,182.35 164.14999999999998,181.64999999999998 164.5,182.0 163.45,182.7 163.1,184.1 162.04999999999998,185.14999999999998 160.64999999999998,185.5 159.6,187.6 156.1,187.95 152.95,186.2 151.89999999999998,186.54999999999998 151.2,185.85 151.89999999999998,185.5 149.79999999999998,185.5 149.1,184.79999999999998 149.79999999999998,184.1 150.85,184.79999999999998 152.25,184.79999999999998 149.79999999999998,184.1 148.75,184.79999999999998 147.0,183.04999999999998 145.6,183.75 147.0,183.04999999999998 147.7,183.75 147.0,185.14999999999998 148.04999999999998,184.45 149.79999999999998,185.5 150.85,185.5 151.54999999999998,186.54999999999998 152.95,186.2 154.7,187.6 156.1,187.95 160.29999999999998,187.25 161.7,187.95 162.75,186.89999999999998 163.45,186.89999999999998 164.14999999999998,185.85 163.79999999999998,185.5 165.54999999999998,184.1" stroke="#aaa" stroke-width="1" /><polyline fill="none" points="137.54999999999998,192.5 138.25,190.39999999999998 137.54999999999998,188.29999999999998 138.25,190.39999999999998 137.2,192.5 136.14999999999998,191.79999999999998 137.2,190.75 136.85,190.04999999999998 137.2,190.39999999999998 136.5,191.1 135.45,189.35 134.39999999999998,189.7 133.35,188.64999999999998 132.65,188.64999999999998 132.65,189.35 133.0,188.64999999999998 134.04999999999998,189.7 133.7,190.04999999999998 134.04999999999998,189.7 135.45,191.1 135.1,190.75 135.79999999999998,190.39999999999998 136.5,191.1 135.79999999999998,191.79999999999998 136.5,192.5" stroke="#aaa" stroke-width="1" /><polyline fill="none" points="87.14999999999999,100.8 87.85,100.44999999999999 88.19999999999999,99.05 92.75,94.14999999999999 95.89999999999999,92.39999999999999 101.85,90.64999999999999 112.0,89.94999999999999 114.44999999999999,91.35 116.19999999999999,89.94999999999999 124.24999999999999,90.64999999999999 129.15,89.94999999999999 131.95,90.3 140.0,89.6 146.64999999999998,89.94999999999999 157.14999999999998,88.89999999999999 157.14999999999998,89.94999999999999 154.35,90.3 153.64999999999998,91.0 154.7,90.3 155.39999999999998,91.35 155.04999999999998,90.64999999999999 157.5,89.94999999999999 157.5,88.89999999999999 146.64999999999998,89.94999999999999 140.0,89.6 131.95,90.3 129.15,89.94999999999999 124.24999999999999,90.64999999999999 115.85,89.94999999999999 114.1,91.35 112.0,89.6 112.69999999999999,88.89999999999999 114.8,88.55 115.85,89.25 115.85,88.55 117.94999999999999,87.5 119.69999999999999,88.55 122.14999999999999,87.85 119.69999999999999,87.14999999999999 121.8,87.5 121.8,88.19999999999999 119.69999999999999,88.55 117.94999999999999,87.5 115.49999999999999,88.89999999999999 112.69999999999999,88.89999999999999 112.0,88.19999999999999 112.35,87.85 115.14999999999999,87.85 112.35,87.85 112.0,88.19999999999999 112.69999999999999,88.89999999999999 111.64999999999999,89.94999999999999 101.85,90.64999999999999 95.55,92.39999999999999 92.39999999999999,94.14999999999999 88.19999999999999,98.69999999999999" stroke="#aaa" stroke-width="1" /><polyline fill="none" points="128.1,189.0 133.7,193.89999999999998 134.04999999999998,195.64999999999998 133.0,196.0 130.54999999999998,193.89999999999998 131.25,193.2 132.29999999999998,194.25 130.9,193.2 130.54999999999998,193.89999999999998 133.0,196.35 134.39999999999998,195.64999999999998 133.7,194.6 134.04999999999998,193.89999999999998 136.85,193.89999999999998 137.2,196.35 137.2,193.89999999999998 135.45,194.25 133.7,193.2 134.39999999999998,192.85 132.65,190.39999999999998 131.25,190.39999999999998 130.2,189.35 131.25,190.39999999999998 131.95,190.39999999999998 133.0,191.45 132.65,191.79999999999998 133.0,191.45 134.04999999999998,192.85 133.35,193.54999999999998 131.6,191.45 129.5,190.39999999999998 128.45,188.64999999999998" stroke="#aaa" stroke-width="1" /><polyline fill="none" points="82.6,109.55 84.35,107.8 85.75,110.25 87.5,110.25 88.19999999999999,109.19999999999999 87.85,108.14999999999999 85.05,108.5 84.35,107.8" stroke="#aaa" stroke-width="1" /><polyline fill="none" points="184.45,58.8 182.35,59.849999999999994 185.14999999999998,58.8 186.2,60.9 188.64999999999998,62.99999999999999 187.6,63.699999999999996 189.7,67.55 191.45,69.3 191.1,70.0 190.39999999999998,70.0 191.1,70.0 191.79999999999998,68.94999999999999 192.14999999999998,69.64999999999999 192.5,68.94999999999999 193.2,68.94999999999999 195.64999999999998,73.14999999999999 196.35,78.39999999999999 197.39999999999998,81.19999999999999 198.45,96.6 199.14999999999998,97.3 198.79999999999998,100.1 199.14999999999998,105.0 199.85,106.75 199.85,112.0 198.79999999999998,114.44999999999999 203.0,114.1 205.1,115.85 206.85,119.35 206.85,121.8 207.89999999999998,125.99999999999999 206.5,135.45 205.45,137.89999999999998 205.45,140.0 204.39999999999998,142.45 203.7,146.64999999999998 203.0,147.35 203.0,149.1 201.6,151.2 200.54999999999998,150.5 199.85,149.1 201.25,145.95 199.5,144.2 199.85,138.25 200.89999999999998,137.54999999999998 201.6,138.25 200.89999999999998,143.14999999999998 201.6,138.25 201.25,137.54999999999998 199.85,137.54999999999998 199.5,135.1 200.2,134.39999999999998 201.25,134.75 200.89999999999998,136.85 201.25,133.35 200.54999999999998,132.65 200.89999999999998,134.04999999999998 200.54999999999998,134.39999999999998 199.85,133.7 199.5,136.14999999999998 200.2,137.89999999999998 199.5,140.35 199.5,144.2 200.89999999999998,145.6 200.89999999999998,147.0 199.85,149.1 200.54999999999998,150.85 201.95,150.85 202.64999999999998,151.89999999999998 202.29999999999998,156.79999999999998 200.2,162.75 197.75,165.2 196.7,165.2 196.0,166.6 197.04999999999998,165.2 198.1,165.2 200.2,163.1 200.89999999999998,160.29999999999998 201.95,158.54999999999998 202.64999999999998,152.25 202.29999999999998,150.14999999999998 203.0,149.1 203.0,147.7 203.7,147.0 203.7,145.25 205.45,140.0 205.45,137.89999999999998 206.5,135.45 207.89999999999998,125.99999999999999 206.5,117.94999999999999 205.1,115.49999999999999 203.0,114.1 199.14999999999998,114.1 199.85,112.0 199.85,106.75 199.14999999999998,105.0 199.14999999999998,97.3 198.45,96.25 198.45,92.39999999999999 197.75,91.0 198.1,88.89999999999999 197.04999999999998,79.1 196.35,78.39999999999999 195.64999999999998,73.14999999999999 193.54999999999998,69.3 194.6,68.94999999999999 194.95,69.64999999999999 195.64999999999998,68.94999999999999 191.45,68.94999999999999 189.7,67.19999999999999 187.6,63.699999999999996 188.64999999999998,62.65 185.85,60.199999999999996 185.5,58.8" stroke="#aaa" stroke-width="1" /><polyline fill="none" points="194.95,109.19999999999999 196.0,110.25 197.39999999999998,110.25 198.45,111.64999999999999 198.1,112.35 198.1,109.19999999999999" stroke="#aaa" stroke-width="1" /><polyline fill="none" points="107.8,79.1 107.1,79.8 108.85,81.19999999999999 107.8,81.55 108.85,81.89999999999999 109.55,84.35 110.6,85.75 109.19999999999999,83.3 109.55,82.6 108.85,81.19999999999999 109.89999999999999,80.5 110.6,81.19999999999999 109.89999999999999,81.89999999999999 110.94999999999999,81.19999999999999 109.89999999999999,80.5 108.5,80.85 107.44999999999999,79.44999999999999 110.25,79.44999999999999 112.35,81.19999999999999 112.69999999999999,82.94999999999999 111.3,84.69999999999999 112.69999999999999,85.05 113.05,84.35 112.35,83.64999999999999 112.69999999999999,82.25 112.0,80.5 110.6,79.44999999999999" stroke="#aaa" stroke-width="1" /><polyline fill="none" points="204.04999999999998,116.55 203.35,115.85 202.29999999999998,116.19999999999999 201.6,115.49999999999999 199.85,115.85 199.14999999999998,117.24999999999999 199.5,119.35 200.89999999999998,119.69999999999999 202.64999999999998,117.6 203.7,117.94999999999999" stroke="#aaa" stroke-width="1" /><polyline fill="none" points="192.5,97.3 194.25,99.75 194.95,101.85 195.29999999999998,105.0 194.6,106.05 194.6,107.44999999999999 195.64999999999998,107.8 196.35,105.69999999999999 194.95,103.94999999999999 194.25,99.75" stroke="#aaa" stroke-width="1" /><polyline fill="none" points="68.94999999999999,128.45 68.6,129.5 69.3,128.45 72.1,129.5 70.69999999999999,130.54999999999998 72.8,131.6 74.19999999999999,133.35 74.55,134.75 73.85,135.79999999999998 73.5,139.64999999999998 75.94999999999999,141.39999999999998 76.3,140.35 75.6,141.39999999999998 74.55,140.35 75.6,139.64999999999998 75.25,136.85 75.6,137.54999999999998 74.89999999999999,138.25 73.85,137.89999999999998 73.85,136.14999999999998 74.55,134.75 74.19999999999999,133.0 71.05,130.54999999999998 72.1,129.15 69.64999999999999,128.1" stroke="#aaa" stroke-width="1" /><polyline fill="none" points="124.24999999999999,70.35 128.45,71.75 129.85,70.0 130.9,70.0 131.6,70.69999999999999 131.25,70.35 131.95,69.64999999999999 133.0,71.05 132.29999999999998,72.1 133.0,71.39999999999999 133.7,72.1 132.65,73.14999999999999 130.54999999999998,71.75 129.15,72.1 131.25,72.1 131.25,72.8 131.6,72.44999999999999 133.0,73.85 133.35,75.6 132.65,76.3 133.35,75.6 132.65,73.14999999999999 133.7,72.1 136.5,72.8 134.04999999999998,72.44999999999999 133.0,71.39999999999999 133.0,70.35 135.79999999999998,71.39999999999999 135.1,71.39999999999999 134.04999999999998,70.35 132.65,70.35 131.95,69.64999999999999 133.0,68.94999999999999 131.6,68.25 130.54999999999998,68.94999999999999 128.1,68.25 126.69999999999999,71.05 125.64999999999999,70.35" stroke="#aaa" stroke-width="1" /><polyline fill="none" points="68.25,120.39999999999999 67.89999999999999,121.44999999999999 69.3,122.14999999999999 72.44999999999999,125.3 72.8,126.69999999999999 74.19999999999999,128.45 73.85,129.5 74.55,130.9 73.85,129.15 74.19999999999999,127.74999999999999 72.8,126.35 72.44999999999999,124.94999999999999 67.89999999999999,121.1 68.6,120.39999999999999 69.64999999999999,121.1 70.69999999999999,119.69999999999999 71.39999999999999,120.05 70.35,119.69999999999999 69.64999999999999,120.39999999999999" stroke="#aaa" stroke-width="1" /><polyline fill="none" points="67.55,118.64999999999999 65.45,120.74999999999999 63.699999999999996,124.6 62.65,131.25 62.99999999999999,138.25 65.8,143.14999999999998 69.3,152.6 69.64999999999999,155.04999999999998 70.69999999999999,155.04999999999998 69.64999999999999,157.14999999999998 70.0,163.1 71.05,165.54999999999998 74.19999999999999,167.29999999999998 78.05,166.6 78.39999999999999,167.64999999999998 78.05,166.6 74.19999999999999,167.29999999999998 71.05,165.2 70.0,163.1 69.64999999999999,157.14999999999998 70.69999999999999,154.7 71.75,153.64999999999998 72.44999999999999,153.64999999999998 70.0,152.25 71.75,153.64999999999998 70.69999999999999,154.7 69.3,154.0 68.25,149.1 67.19999999999999,147.7 65.8,143.14999999999998 62.99999999999999,137.89999999999998 62.65,131.25 64.39999999999999,123.19999999999999 65.45,121.1 67.89999999999999,118.64999999999999 71.39999999999999,118.99999999999999" stroke="#aaa" stroke-width="1" /><polyline fill="none" points="165.2,68.94999999999999 163.1,70.0 163.1,71.05 164.85,72.1 166.25,74.55 165.89999999999998,73.85 166.95,72.8 165.54999999999998,71.39999999999999 164.5,71.75 163.1,70.69999999999999 163.45,70.0 164.14999999999998,70.69999999999999 165.89999999999998,70.69999999999999 164.5,70.69999999999999 163.79999999999998,70.0 164.85,69.3 165.2,69.64999999999999" stroke="#aaa" stroke-width="1" /><polyline fill="none" points="132.29999999999998,61.949999999999996 131.6,62.99999999999999 133.0,64.39999999999999 132.65,64.75 133.7,63.699999999999996 134.75,64.39999999999999 134.04999999999998,65.8 135.1,66.85 135.1,69.64999999999999 135.45,68.94999999999999 136.85,68.94999999999999 135.1,67.19999999999999 135.1,65.45 135.79999999999998,65.1 137.2,66.5" stroke="#aaa" stroke-width="1" /><polyline fill="none" points="87.85,76.3 85.39999999999999,78.75 87.85,80.85 87.85,81.89999999999999 87.14999999999999,82.25 85.75,80.85 86.44999999999999,80.5 87.14999999999999,81.19999999999999 85.39999999999999,79.8 83.64999999999999,81.55 82.6,80.5 83.64999999999999,81.55 84.69999999999999,81.55 84.0,82.6 83.3,82.25 83.64999999999999,82.6 85.75,81.19999999999999 87.85,82.6 87.85,80.5 85.75,78.75" stroke="#aaa" stroke-width="1" /><polyline fill="none" points="104.64999999999999,59.15 106.75,60.55 106.05,61.24999999999999 104.64999999999999,60.199999999999996 106.05,61.24999999999999 105.35,61.949999999999996 106.39999999999999,63.699999999999996 106.05,64.05 107.44999999999999,63.699999999999996 109.19999999999999,65.1 107.1,63.349999999999994 107.44999999999999,62.99999999999999 106.05,61.24999999999999 106.75,60.55 107.8,61.24999999999999" stroke="#aaa" stroke-width="1" /><polyline fill="none" points="136.14999999999998,52.15 137.54999999999998,53.9 139.29999999999998,54.949999999999996 140.0,56.349999999999994 139.64999999999998,56.699999999999996 136.14999999999998,53.55 137.2,54.599999999999994 136.5,55.3 135.45,55.3 136.5,55.3 138.6,57.4 140.0,56.349999999999994 139.29999999999998,54.949999999999996 139.64999999999998,53.55 138.6,52.849999999999994 139.64999999999998,53.9 139.29999999999998,54.599999999999994 138.6,54.599999999999994" stroke="#aaa" stroke-width="1" /><polyline fill="none" points="118.3,50.05 118.64999999999999,50.75 120.74999999999999,50.4 122.14999999999999,51.099999999999994 123.19999999999999,52.849999999999994 124.94999999999999,52.849999999999994 125.3,53.55 123.55,55.3 124.94999999999999,54.599999999999994 125.64999999999999,55.65 127.05,54.25 126.35,53.9 127.05,52.5 126.69999999999999,51.8 127.05,52.849999999999994 126.35,53.55 125.64999999999999,51.099999999999994 125.64999999999999,53.9 124.94999999999999,52.5 123.19999999999999,52.5 124.24999999999999,51.8 124.6,50.05 123.55,50.05 122.14999999999999,51.099999999999994 121.1,50.4" stroke="#aaa" stroke-width="1" /><polyline fill="none" points="97.64999999999999,62.3 96.94999999999999,61.24999999999999 96.25,61.24999999999999 95.89999999999999,61.949999999999996 93.8,61.599999999999994 92.75,62.99999999999999 92.05,62.99999999999999 94.85,64.05 95.55,62.99999999999999 96.94999999999999,62.99999999999999 95.89999999999999,61.949999999999996 96.6,61.24999999999999" stroke="#aaa" stroke-width="1" /><polyline fill="none" points="92.39999999999999,56.0 90.3,57.74999999999999 88.89999999999999,58.099999999999994 87.85,59.15 87.5,60.55 84.35,63.699999999999996 83.3,63.699999999999996 79.44999999999999,66.85 79.8,68.94999999999999 80.85,70.69999999999999 80.14999999999999,71.75 80.85,70.69999999999999 79.8,68.94999999999999 79.8,66.85 83.3,63.699999999999996 85.05,63.349999999999994 87.14999999999999,61.24999999999999 87.85,59.49999999999999" stroke="#aaa" stroke-width="1" /><polyline fill="none" points="140.0,208.25 124.24999999999999,205.79999999999998 109.89999999999999,199.85 115.14999999999999,201.95 115.14999999999999,202.64999999999998 114.1,202.64999999999998 104.64999999999999,198.1 104.64999999999999,197.04999999999998 107.8,198.79999999999998 95.89999999999999,191.79999999999998 85.05,180.6 82.6,173.95 82.6,174.64999999999998 81.89999999999999,174.64999999999998 81.55,172.89999999999998 82.25,172.89999999999998 79.8,166.6 81.19999999999999,171.14999999999998 80.5,171.14999999999998 79.44999999999999,168.0 78.75,168.35 78.75,173.25 79.8,175.35 80.85,182.0 82.6,187.25 79.44999999999999,190.75 79.1,192.85 76.64999999999999,194.6 73.5,198.45 72.44999999999999,201.25 62.99999999999999,210.35 57.05,214.2 54.25,217.35 51.449999999999996,218.04999999999998 44.449999999999996,221.54999999999998 40.599999999999994,222.6 38.15,224.35 35.349999999999994,225.04999999999998 24.849999999999998,230.29999999999998 23.45,231.7 22.049999999999997,231.7 19.599999999999998,233.45 18.2,233.45 16.799999999999997,234.85 10.149999999999999,237.99999999999997 8.75,239.39999999999998 6.6499999999999995,239.74999999999997 3.8499999999999996,241.49999999999997 0.0,242.89999999999998 4.8999999999999995,241.14999999999998 7.0,239.74999999999997 9.1,239.39999999999998 10.5,237.99999999999997 17.15,234.85 18.549999999999997,233.45 19.95,233.45 22.4,231.7 23.799999999999997,231.7 25.2,230.29999999999998 35.699999999999996,225.04999999999998 38.5,224.35 42.349999999999994,221.89999999999998 44.449999999999996,221.54999999999998 50.05,218.75 54.599999999999994,217.35 57.4,214.2 63.349999999999994,210.35 72.44999999999999,201.6 73.5,198.79999999999998 75.6,196.0 79.44999999999999,192.85 79.44999999999999,191.1 82.6,187.25 80.85,182.0 79.8,175.35 78.75,173.25 79.1,168.35 79.8,168.7 80.85,171.5 80.5,173.25 80.85,172.2 81.55,172.89999999999998 84.35,180.95 89.6,186.2 90.3,187.6 95.55,192.5 100.8,195.29999999999998 101.14999999999999,196.0 100.8,195.29999999999998 101.5,194.95 104.64999999999999,197.04999999999998 102.89999999999999,197.04999999999998 110.6,201.25 115.14999999999999,202.64999999999998 123.89999999999999,206.5 132.65,207.54999999999998 133.7,208.25 140.0,208.95" stroke="#aaa" stroke-width="1" /><polyline fill="none" points="90.3,50.4 84.35,56.349999999999994 82.25,61.949999999999996 75.6,68.94999999999999 73.5,73.14999999999999 73.5,77.69999999999999 73.5,73.14999999999999 74.19999999999999,72.8 75.6,69.3 76.64999999999999,67.89999999999999 77.69999999999999,67.89999999999999 78.05,66.85 81.19999999999999,63.699999999999996 82.94999999999999,60.9 84.35,56.699999999999996 88.55,52.849999999999994" stroke="#aaa" stroke-width="1" /><polyline fill="none" points="95.55,218.39999999999998 95.89999999999999,220.85 97.64999999999999,223.29999999999998 97.64999999999999,224.7 99.05,225.74999999999997 99.39999999999999,227.85 100.8,229.95 100.8,231.35 103.6,233.79999999999998 103.25,234.85 104.3,235.2 106.39999999999999,237.64999999999998 106.39999999999999,239.04999999999998 105.0,240.1 105.35,239.74999999999997 110.6,245.35 105.69999999999999,239.74999999999997 106.75,237.64999999999998 103.94999999999999,234.85 105.69999999999999,234.14999999999998 103.6,234.85 103.25,234.49999999999997 103.94999999999999,233.79999999999998 100.8,230.99999999999997 100.8,229.6 99.05,226.45 99.75,224.0 99.05,223.29999999999998 99.75,224.0 99.05,225.74999999999997 97.64999999999999,224.7 97.64999999999999,222.95 95.89999999999999,220.85" stroke="#aaa" stroke-width="1" /><polyline fill="none" points="91.69999999999999,49.349999999999994 92.39999999999999,49.349999999999994 93.44999999999999,50.4 92.39999999999999,49.349999999999994 92.75,47.949999999999996 95.55,45.849999999999994 98.0,42.699999999999996 98.69999999999999,42.699999999999996 104.64999999999999,36.05 112.0,31.849999999999998 115.49999999999999,30.45 118.3,30.45 119.69999999999999,29.749999999999996 120.39999999999999,28.7 122.14999999999999,29.049999999999997 126.35,27.65 131.95,27.299999999999997 134.04999999999998,26.25 136.85,28.7 142.79999999999998,28.7 145.6,30.099999999999998 149.45,29.749999999999996 151.2,30.799999999999997 153.29999999999998,31.15 154.7,32.55 155.75,32.55 157.14999999999998,33.599999999999994 161.0,33.949999999999996 164.5,37.449999999999996 167.64999999999998,38.15 170.45,41.3 176.75,46.55 177.45,47.949999999999996 182.0,52.15 182.35,53.199999999999996 184.1,53.199999999999996 183.75,54.25 182.7,53.9 184.45,55.65 184.45,56.699999999999996 183.75,57.05 183.04999999999998,56.349999999999994 183.39999999999998,55.65 183.04999999999998,55.3 183.04999999999998,56.349999999999994 181.64999999999998,54.949999999999996 181.64999999999998,54.25 179.2,50.75 181.64999999999998,55.3 184.1,57.4 183.39999999999998,58.099999999999994 183.75,58.449999999999996 184.79999999999998,54.949999999999996 184.45,55.3 183.75,54.599999999999994 183.75,51.099999999999994 184.1,51.8 182.7,53.199999999999996 182.0,51.8 177.45,47.599999999999994 176.75,46.199999999999996 170.79999999999998,41.3 168.0,38.15 164.85,37.449999999999996 161.35,33.949999999999996 157.5,33.599999999999994 153.29999999999998,31.15 152.25,31.15 149.45,29.749999999999996 145.6,30.099999999999998 142.79999999999998,28.7 137.2,28.7 135.1,26.599999999999998 134.04999999999998,26.25 131.95,27.299999999999997 126.35,27.65 122.14999999999999,29.049999999999997 120.05,28.7 118.99999999999999,30.099999999999998 113.05,31.15 107.44999999999999,34.65 105.35,35.349999999999994 103.25,37.449999999999996 101.85,37.449999999999996 102.55,37.8 101.14999999999999,39.9 98.35,42.699999999999996 97.64999999999999,42.699999999999996 96.6,44.449999999999996 93.44999999999999,46.9 92.39999999999999,49.0" stroke="#aaa" stroke-width="1" /><polyline fill="none" points="196.7,166.6 196.0,168.0 196.0,170.1 194.95,171.5 194.95,173.95 193.2,178.14999999999998 193.2,179.54999999999998 191.79999999999998,181.64999999999998 190.75,185.14999999999998 190.75,187.95 189.7,189.7 190.04999999999998,192.85 192.14999999999998,194.6 191.79999999999998,196.35 199.14999999999998,202.29999999999998 203.0,206.5 209.64999999999998,216.29999999999998 210.35,216.29999999999998 216.29999999999998,220.14999999999998 217.35,220.14999999999998 221.54999999999998,223.64999999999998 228.2,226.1 228.89999999999998,227.14999999999998 233.45,228.54999999999998 234.49999999999997,229.6 237.29999999999998,230.29999999999998 241.49999999999997,232.74999999999997 247.1,234.49999999999997 248.85,235.89999999999998 254.1,237.29999999999998 256.9,239.04999999999998 265.3,241.85 269.15,243.95 271.25,244.29999999999998 273.34999999999997,245.7 278.95,247.79999999999998 279.65,248.85 279.65,247.79999999999998 279.29999999999995,248.14999999999998 277.2,246.74999999999997 262.5,241.14999999999998 261.09999999999997,240.1 257.95,239.39999999999998 254.1,237.29999999999998 249.2,235.89999999999998 244.99999999999997,233.45 241.85,232.74999999999997 237.64999999999998,230.29999999999998 235.54999999999998,229.95 232.04999999999998,227.85 229.24999999999997,227.14999999999998 228.2,226.1 222.95,224.35 217.7,220.14999999999998 216.64999999999998,220.14999999999998 210.0,216.29999999999998 208.6,214.89999999999998 203.0,206.14999999999998 199.5,202.29999999999998 191.79999999999998,196.0 192.14999999999998,194.6 189.7,191.79999999999998 189.7,189.7 190.75,187.95 191.1,184.1 194.95,174.29999999999998 194.95,171.5 196.0,170.45 196.0,168.0" stroke="#aaa" stroke-width="1" /><polyline fill="none" points="85.75,215.25 88.19999999999999,222.6 88.19999999999999,224.7 90.3,228.89999999999998 90.64999999999999,232.39999999999998 92.39999999999999,235.89999999999998 93.44999999999999,239.74999999999997 94.14999999999999,240.45 95.55,245.7 96.6,247.45 96.94999999999999,250.24999999999997 98.35,252.35 99.39999999999999,256.2 100.44999999999999,257.59999999999997 101.5,260.75 101.5,262.15 103.25,264.95 103.25,266.0 105.0,269.5 105.69999999999999,273.34999999999997 107.8,277.2 107.44999999999999,279.65 107.44999999999999,276.15 106.05,274.04999999999995 106.39999999999999,273.7 105.35,272.29999999999995 104.64999999999999,268.45 101.85,262.84999999999997 100.1,256.55 96.94999999999999,249.89999999999998 96.25,247.1 96.6,246.74999999999997 95.19999999999999,244.64999999999998 95.19999999999999,242.89999999999998 94.14999999999999,241.49999999999997 94.14999999999999,240.1 93.1,238.7 93.1,237.64999999999998 92.39999999999999,236.95 92.39999999999999,235.89999999999998 90.64999999999999,232.04999999999998 90.3,228.89999999999998 88.89999999999999,226.1 89.25,225.74999999999997 88.19999999999999,224.7 88.19999999999999,222.6" stroke="#aaa" stroke-width="1" /><polyline fill="none" points="119.69999999999999,253.74999999999997 119.35,254.1 120.39999999999999,253.74999999999997 121.1,254.45 120.39999999999999,255.85 120.74999999999999,257.95 122.49999999999999,257.95 123.19999999999999,258.65 120.39999999999999,259.34999999999997 121.1,259.0 122.49999999999999,259.7 122.14999999999999,260.4 120.74999999999999,260.05 121.8,260.75 121.44999999999999,261.09999999999997 122.49999999999999,262.5 122.14999999999999,262.84999999999997 123.19999999999999,263.2 122.14999999999999,262.84999999999997 122.49999999999999,262.15 121.8,260.75 123.55,260.4 124.94999999999999,262.84999999999997 126.69999999999999,264.25 125.99999999999999,265.3 124.94999999999999,264.59999999999997 125.99999999999999,265.3 127.39999999999999,264.59999999999997 128.1,265.3 128.1,266.7 128.79999999999998,267.05 128.1,266.34999999999997 128.1,265.3 128.79999999999998,264.59999999999997 128.45,264.25 128.79999999999998,264.59999999999997 128.1,265.3 127.39999999999999,264.59999999999997 128.1,263.55 128.1,262.15 128.1,263.55 127.39999999999999,264.25 125.99999999999999,263.55 123.55,260.4 123.19999999999999,260.75 122.14999999999999,259.34999999999997 123.19999999999999,258.65 124.24999999999999,260.05 124.94999999999999,259.7 127.05,261.8 125.64999999999999,261.8 127.05,261.8 125.99999999999999,260.4 120.74999999999999,256.2 121.1,254.79999999999998 121.8,255.49999999999997 121.44999999999999,255.85 122.85,255.85 121.8,255.49999999999997 120.74999999999999,253.74999999999997" stroke="#aaa" stroke-width="1" /><polyline fill="none" points="71.05,238.7 71.75,240.1 71.39999999999999,241.14999999999998 72.44999999999999,241.85 72.44999999999999,243.6 71.05,244.99999999999997 70.35,244.29999999999998 71.39999999999999,243.24999999999997 71.39999999999999,242.2 70.69999999999999,243.95 69.64999999999999,244.29999999999998 71.05,244.99999999999997 69.64999999999999,245.35 70.0,245.7 71.05,245.35 73.5,242.89999999999998 72.44999999999999,242.89999999999998 72.8,241.85 73.85,242.2" stroke="#aaa" stroke-width="1" /><polyline fill="none" points="119.35,267.75 119.35,269.5 122.85,272.29999999999995 122.14999999999999,271.25 120.39999999999999,270.54999999999995 121.44999999999999,269.15 122.14999999999999,269.15 121.8,268.45 122.49999999999999,268.09999999999997 121.1,267.4 120.39999999999999,267.75 121.8,268.45 121.1,269.15" stroke="#aaa" stroke-width="1" /><polyline fill="none" points="104.64999999999999,263.55 106.39999999999999,264.95 106.05,266.0 106.39999999999999,265.3 110.94999999999999,269.5 112.35,269.5 114.44999999999999,271.59999999999997 116.89999999999999,271.95 118.99999999999999,273.7 117.6,272.29999999999995 117.94999999999999,271.95 120.39999999999999,273.34999999999997 121.8,273.0 121.8,272.29999999999995 120.05,271.95 119.69999999999999,271.25 114.44999999999999,270.2 114.44999999999999,269.15 116.19999999999999,269.15 117.24999999999999,269.84999999999997 117.6,268.79999999999995 116.55,268.09999999999997 115.85,268.09999999999997 116.89999999999999,268.45 117.6,269.5 117.24999999999999,269.84999999999997 116.55,269.15 114.44999999999999,269.15 114.44999999999999,270.2 118.64999999999999,270.9 121.8,272.65 120.74999999999999,273.34999999999997 118.99999999999999,271.95 117.24999999999999,272.29999999999995 114.8,271.59999999999997 112.69999999999999,269.5 111.3,269.5 106.05,264.59999999999997 106.75,263.9 110.25,267.05 106.75,263.9 106.05,264.59999999999997" stroke="#aaa" stroke-width="1" /><polyline fill="none" points="172.54999999999998,274.4 170.45,274.75 168.7,273.0 170.45,274.75 169.75,275.45 166.6,275.45 164.5,272.65 165.54999999999998,274.75 164.14999999999998,275.09999999999997 165.89999999999998,274.75 166.6,275.45 166.25,275.79999999999995 162.75,275.79999999999995 160.64999999999998,276.84999999999997 159.25,276.84999999999997 158.2,275.09999999999997 158.89999999999998,276.84999999999997 161.0,276.84999999999997 163.1,275.79999999999995 165.89999999999998,276.15 167.64999999999998,275.09999999999997 169.39999999999998,275.09999999999997 169.75,276.15 165.54999999999998,277.54999999999995 160.29999999999998,277.9 158.89999999999998,278.59999999999997 147.0,278.95 141.39999999999998,278.59999999999997 139.64999999999998,277.9 134.75,278.25 129.5,277.54999999999995 128.1,276.15 127.39999999999999,276.15 127.05,276.84999999999997 127.74999999999999,277.2 127.74999999999999,276.15 129.5,277.9 139.64999999999998,277.9 141.04999999999998,278.59999999999997 147.0,278.95 158.89999999999998,278.59999999999997 160.29999999999998,277.9 165.54999999999998,277.54999999999995 168.0,276.5 171.5,276.15 172.54999999999998,275.09999999999997 170.1,276.5 169.75,275.45 171.5,274.4" stroke="#aaa" stroke-width="1" /><polyline fill="none" points="61.24999999999999,259.7 61.949999999999996,260.05 62.65,259.0 64.05,259.7 66.14999999999999,258.3 65.8,257.95 65.1,258.65 64.05,257.95 62.65,258.65 61.599999999999994,257.25 62.65,259.0 61.599999999999994,260.05" stroke="#aaa" stroke-width="1" /><polyline fill="none" points="64.05,261.09999999999997 64.05,264.25 65.45,264.25 66.14999999999999,264.95 64.75,266.0 63.699999999999996,268.09999999999997 64.05,267.05 66.14999999999999,265.3 69.3,266.34999999999997 70.0,265.65 69.3,264.95 69.3,266.0 66.5,265.3 65.45,264.25 66.5,263.55 65.1,262.5 64.05,263.2 63.699999999999996,262.84999999999997" stroke="#aaa" stroke-width="1" /><polyline fill="none" points="58.8,261.8 59.15,263.55 60.9,262.84999999999997 61.949999999999996,263.2 61.24999999999999,265.65 60.55,265.65 60.55,264.25 59.849999999999994,264.25 60.55,265.65 59.15,267.05 59.849999999999994,266.7 60.9,267.4 61.599999999999994,267.05 60.9,267.4 59.849999999999994,266.7 60.9,265.65 61.949999999999996,266.34999999999997 61.24999999999999,264.95 61.949999999999996,262.15 60.9,261.8 61.949999999999996,262.15 60.9,262.84999999999997 59.849999999999994,262.15 59.15,262.5" stroke="#aaa" stroke-width="1" /><polyline fill="none" points="221.89999999999998,260.05 224.0,262.15 223.29999999999998,262.84999999999997 223.29999999999998,263.9 224.0,264.25 225.39999999999998,263.55 226.45,264.59999999999997" stroke="#aaa" stroke-width="1" /><polyline fill="none" points="55.3,259.34999999999997 53.199999999999996,261.09999999999997 53.55,262.84999999999997 54.599999999999994,263.55 51.8,265.3 53.9,264.59999999999997 54.599999999999994,263.55 55.65,264.25 52.849999999999994,266.34999999999997 53.55,265.65 54.599999999999994,265.65 56.349999999999994,263.9 57.05,265.3 55.3,266.7 54.599999999999994,266.34999999999997 53.55,267.05 54.949999999999996,266.34999999999997 55.3,267.4 56.699999999999996,268.45 55.3,266.7 56.0,266.0 57.05,266.0 57.4,267.05 57.05,264.59999999999997 56.349999999999994,263.9 54.949999999999996,263.9 53.199999999999996,261.8 55.3,259.7 56.699999999999996,261.09999999999997 55.3,262.84999999999997 57.05,261.09999999999997" stroke="#aaa" stroke-width="1" /><polyline fill="none" points="28.349999999999998,235.2 26.25,234.49999999999997 23.45,234.85 23.099999999999998,235.2 24.15,236.6 22.75,237.99999999999997 21.349999999999998,237.99999999999997 22.4,238.35 24.15,236.95 24.5,237.29999999999998 24.5,235.89999999999998 25.549999999999997,235.89999999999998 25.9,236.95 23.099999999999998,239.39999999999998 21.7,239.39999999999998 23.099999999999998,239.74999999999997 25.9,237.29999999999998 26.25,236.24999999999997" stroke="#aaa" stroke-width="1" /><polyline fill="none" points="60.199999999999996,268.45 58.8,271.25 59.49999999999999,273.7 59.849999999999994,273.34999999999997 58.8,271.25 59.849999999999994,268.79999999999995 60.55,268.45 61.599999999999994,270.54999999999995 59.849999999999994,271.95 60.9,273.34999999999997 62.3,273.34999999999997 62.99999999999999,271.25 64.05,270.54999999999995 61.599999999999994,270.2 60.9,268.45" stroke="#aaa" stroke-width="1" /><polyline fill="none" points="42.0,261.45 45.5,262.5 46.199999999999996,261.8 45.5,261.45 45.849999999999994,261.09999999999997" stroke="#aaa" stroke-width="1" /><polyline fill="none" points="39.9,261.8 40.599999999999994,262.15 40.949999999999996,265.65 39.9,266.34999999999997 36.05,266.0 39.199999999999996,266.0 39.9,267.4 39.9,266.7 40.949999999999996,265.65 42.0,266.34999999999997 40.599999999999994,268.09999999999997 37.8,269.15 41.3,267.75 41.65,268.45 39.9,270.2 38.15,270.2 37.099999999999994,270.9 37.8,270.9 38.15,271.59999999999997 40.25,271.59999999999997 38.5,271.59999999999997 37.8,270.9 38.5,270.2 40.599999999999994,269.84999999999997 41.65,268.79999999999995 41.3,267.75 42.0,266.7 42.699999999999996,267.4 42.349999999999994,269.84999999999997 43.05,270.9 41.65,271.95 43.05,271.25 43.05,267.4 40.599999999999994,264.95 40.599999999999994,261.8" stroke="#aaa" stroke-width="1" /><polyline fill="none" points="52.5,277.54999999999995 52.849999999999994,278.59999999999997 53.9,278.59999999999997 55.3,277.9 55.3,276.84999999999997 53.199999999999996,276.5" stroke="#aaa" stroke-width="1" /><polyline fill="none" points="31.15,258.65 30.45,259.0 30.45,260.05 32.55,261.8 31.849999999999998,262.84999999999997 30.799999999999997,262.15 31.849999999999998,262.84999999999997 32.55,262.5 32.9,261.45 31.499999999999996,260.75 32.9,259.7" stroke="#aaa" stroke-width="1" /><polyline fill="none" points="7.35,243.95 9.45,244.99999999999997 9.45,246.39999999999998 9.45,244.99999999999997 10.5,243.95 12.6,244.64999999999998 11.549999999999999,245.7 10.5,245.7 11.549999999999999,246.04999999999998 11.549999999999999,247.45 13.299999999999999,247.79999999999998 14.35,247.1 15.399999999999999,248.14999999999998 15.399999999999999,248.85 14.7,249.2 14.0,248.14999999999998 14.0,248.85 15.399999999999999,249.2 15.049999999999999,247.45 14.0,246.74999999999997 14.0,245.35 15.399999999999999,243.6 16.799999999999997,242.89999999999998 15.749999999999998,241.85 14.35,241.49999999999997 12.95,242.2 14.7,241.49999999999997 16.45,242.89999999999998 14.7,243.95 14.0,244.99999999999997 14.0,246.74999999999997 12.95,247.79999999999998 11.549999999999999,247.1 11.549999999999999,245.7 12.6,244.99999999999997 12.6,244.29999999999998 10.5,243.95 8.399999999999999,244.64999999999998" stroke="#aaa" stroke-width="1" /><polyline fill="none" points="22.049999999999997,259.7 22.4,260.05 21.7,260.75 24.15,261.8 23.799999999999997,261.45 24.5,261.09999999999997 24.5,260.4" stroke="#aaa" stroke-width="1" /><polyline fill="none" points="20.299999999999997,244.99999999999997 17.849999999999998,246.39999999999998 17.5,248.49999999999997 15.399999999999999,250.6 14.0,250.6 13.299999999999999,249.89999999999998 13.299999999999999,251.99999999999997 14.0,252.7 13.299999999999999,253.39999999999998 11.899999999999999,252.7 10.85,251.29999999999998 11.549999999999999,249.89999999999998 12.25,251.29999999999998 11.549999999999999,249.54999999999998 13.299999999999999,248.85 12.25,249.2 10.85,248.49999999999997 9.45,249.2 7.699999999999999,251.29999999999998 11.2,248.49999999999997 11.899999999999999,249.2 10.85,250.24999999999997 10.85,251.64999999999998 11.549999999999999,252.7 13.649999999999999,253.39999999999998 14.0,252.35 13.299999999999999,251.64999999999998 14.0,251.29999999999998 14.0,250.6 14.7,250.95 15.049999999999999,253.04999999999998 13.649999999999999,254.45 11.549999999999999,254.1 13.299999999999999,254.79999999999998 15.049999999999999,253.39999999999998 15.399999999999999,252.35 14.7,251.29999999999998 17.849999999999998,248.49999999999997 17.5,247.79999999999998 18.2,246.04999999999998" stroke="#aaa" stroke-width="1" /><polyline fill="none" points="19.95,260.4 21.0,261.09999999999997 18.9,261.09999999999997 18.9,261.8 19.25,261.09999999999997 20.299999999999997,261.45 19.599999999999998,262.84999999999997 21.0,263.2 22.4,261.8" stroke="#aaa" stroke-width="1" /><polyline fill="none" points="25.549999999999997,263.9 24.15,266.0 23.099999999999998,266.0 22.4,265.3 24.5,263.55 23.45,262.84999999999997 23.799999999999997,262.5 21.0,263.9 18.549999999999997,266.34999999999997 22.4,263.2 23.45,262.84999999999997 24.15,263.55 23.799999999999997,264.25 23.099999999999998,263.9 23.45,264.25 22.4,265.3 21.0,265.3 19.25,267.4 16.799999999999997,266.34999999999997 14.35,266.34999999999997 13.299999999999999,267.4 14.35,266.34999999999997 16.799999999999997,266.34999999999997 19.95,267.75 19.95,268.45 22.75,268.45 23.799999999999997,267.05 22.75,268.45 20.299999999999997,268.09999999999997 19.599999999999998,267.05 21.7,264.95 22.75,266.0 25.2,265.65 24.849999999999998,264.95" stroke="#aaa" stroke-width="1" /><polyline fill="none" points="0.35,255.85 0.35,256.55 2.0999999999999996,256.9 4.55,254.79999999999998 5.6,255.49999999999997 5.949999999999999,256.9 5.25,257.25 4.199999999999999,256.2 4.8999999999999995,256.9 4.199999999999999,257.95 7.0,259.34999999999997 4.199999999999999,257.95 4.8999999999999995,256.9 6.6499999999999995,257.25 8.399999999999999,259.0 5.949999999999999,261.45 5.6,263.55 7.35,263.9 7.699999999999999,262.5 8.75,261.8 9.45,262.5 9.45,263.55 10.85,263.9 12.25,265.3 11.549999999999999,265.65 9.1,264.59999999999997 7.0,264.95 9.1,264.59999999999997 9.45,266.34999999999997 11.2,267.75 11.899999999999999,266.34999999999997 11.2,267.05 9.799999999999999,266.7 9.45,265.3 10.5,264.95 11.899999999999999,265.65 12.25,264.59999999999997 9.799999999999999,263.55 9.1,262.84999999999997 9.799999999999999,262.5 8.75,261.8 9.45,260.75 12.95,261.09999999999997 9.1,260.4 9.1,261.09999999999997 8.049999999999999,262.15 7.0,261.45 7.699999999999999,262.84999999999997 6.6499999999999995,263.9 5.949999999999999,263.2 5.949999999999999,261.45 7.699999999999999,260.05 8.399999999999999,260.75 7.699999999999999,260.05 8.399999999999999,259.0 7.0,257.25 8.399999999999999,256.55 9.1,257.59999999999997 8.75,258.3 9.1,257.59999999999997 10.149999999999999,258.65 12.25,258.65 11.549999999999999,257.25 10.85,257.59999999999997 10.149999999999999,256.9 11.2,256.2 14.0,258.3 13.649999999999999,259.34999999999997 15.399999999999999,256.2 14.7,255.49999999999997 15.049999999999999,254.79999999999998 14.35,255.85 12.25,255.85 15.049999999999999,255.85 15.399999999999999,256.2 14.7,256.9 11.899999999999999,256.55 11.2,255.85 11.549999999999999,255.49999999999997 10.149999999999999,256.55 10.149999999999999,257.25 11.899999999999999,257.59999999999997 11.899999999999999,258.65 9.799999999999999,258.3 8.049999999999999,255.85 8.049999999999999,256.55 6.3,257.25 5.6,255.14999999999998 4.8999999999999995,254.79999999999998 2.4499999999999997,256.55 0.7,256.55" stroke="#aaa" stroke-width="1" /><polyline fill="none" points="14.35,277.2 17.849999999999998,277.9 18.549999999999997,278.59999999999997 18.549999999999997,279.65 18.549999999999997,278.59999999999997 19.599999999999998,277.9 21.0,279.29999999999995 24.5,278.95 25.2,277.54999999999995 26.25,277.9 25.549999999999997,279.65 26.25,277.9 30.799999999999997,278.25 30.799999999999997,279.65 31.849999999999998,278.25 33.949999999999996,279.29999999999995 37.099999999999994,279.29999999999995 38.15,278.95 38.849999999999994,277.9 39.55,278.25 39.199999999999996,277.9 39.9,277.2 42.699999999999996,276.84999999999997 38.849999999999994,276.84999999999997 39.55,277.2 37.8,278.95 35.0,277.9 33.949999999999996,278.25 33.25,277.2 33.25,278.59999999999997 31.499999999999996,278.59999999999997 29.4,277.9 24.15,277.54999999999995 23.099999999999998,276.84999999999997 24.15,276.15 21.0,276.15 20.299999999999997,275.09999999999997 21.7,274.75 20.299999999999997,274.75 19.95,275.79999999999995 22.4,276.15 23.099999999999998,277.2 24.5,277.9 24.5,278.59999999999997 23.45,279.29999999999995 21.349999999999998,279.29999999999995 19.599999999999998,277.9 18.549999999999997,278.59999999999997 17.849999999999998,277.9" stroke="#aaa" stroke-width="1" /><polyline fill="none" points="267.75,259.0 268.79999999999995,260.75 269.84999999999997,260.75 270.54999999999995,261.45 270.2,261.8 270.9,261.45 271.59999999999997,262.15 270.2,263.9 270.2,265.3 270.2,264.59999999999997 270.9,264.25 270.2,263.9 272.65,261.45 272.65,260.05 272.29999999999995,260.4 271.95,259.34999999999997 271.95,260.05 271.25,260.05 271.59999999999997,261.09999999999997 270.54999999999995,261.45 270.2,260.75 269.5,261.09999999999997" stroke="#aaa" stroke-width="1" /><polyline fill="none" points="3.8499999999999996,266.34999999999997 4.8999999999999995,267.4 4.199999999999999,268.09999999999997 5.25,268.79999999999995 4.199999999999999,268.09999999999997 7.699999999999999,266.0 9.799999999999999,268.45 9.45,269.84999999999997 11.549999999999999,270.9 9.45,269.5 10.149999999999999,268.09999999999997 10.85,268.45 9.799999999999999,268.45 8.049999999999999,266.0 6.6499999999999995,266.34999999999997 6.3,265.65 4.8999999999999995,265.65" stroke="#aaa" stroke-width="1" /><polyline fill="none" points="0.0,274.75 1.75,274.75 2.4499999999999997,274.04999999999995 2.0999999999999996,273.7 3.5,273.0 5.949999999999999,274.4 5.6,276.5 5.949999999999999,277.54999999999995 6.6499999999999995,277.54999999999995 6.3,278.25 8.049999999999999,276.84999999999997 9.45,276.84999999999997 10.85,278.25 9.799999999999999,276.84999999999997 8.049999999999999,276.84999999999997 6.6499999999999995,277.54999999999995 5.6,276.5 6.3,274.04999999999995 12.6,274.04999999999995 13.649999999999999,274.75 12.95,275.45 15.399999999999999,274.4 17.5,275.45 18.9,275.09999999999997 19.25,274.4 16.799999999999997,273.34999999999997 15.749999999999998,273.7 12.6,272.65 9.799999999999999,273.0 8.75,271.59999999999997 7.699999999999999,271.25 8.75,269.15 8.049999999999999,268.45 7.0,268.45 8.75,269.15 7.35,271.59999999999997 8.399999999999999,271.59999999999997 9.1,272.65 14.0,273.0 15.749999999999998,273.7 16.799999999999997,273.34999999999997 18.549999999999997,274.04999999999995 18.549999999999997,275.09999999999997 17.15,275.45 15.399999999999999,274.4 14.0,274.75 12.6,274.04999999999995 5.6,274.04999999999995 3.8499999999999996,273.0 4.55,271.95 5.25,272.65 7.699999999999999,273.0 5.25,272.65 4.199999999999999,271.59999999999997 4.55,271.25 3.5,273.0 2.0999999999999996,273.0 2.4499999999999997,273.34999999999997 1.4,274.75" stroke="#aaa" stroke-width="1" /></svg>