<?xml version="1.0" encoding="utf-8" ?>
<svg baseProfile="full" height="224" version="1.1" width="224" xmlns="http://www.w3.org/2000/svg" xmlns:ev="http://www.w3.org/2001/xml-events" xmlns:xlink="http://www.w3.org/1999/xlink"><defs /><polyline fill="none" points="145.25,123.89999999999999 146.64999999999998,126.69999999999999 146.29999999999998,128.1 145.25,128.45 144.54999999999998,129.5 145.25,130.54999999999998 145.25,131.95 144.89999999999998,132.29999999999998 144.2,130.9 144.89999999999998,132.29999999999998 143.85,132.29999999999998 144.89999999999998,132.29999999999998 145.25,133.0 144.54999999999998,133.7 143.14999999999998,132.65 142.79999999999998,130.2 143.14999999999998,132.29999999999998 142.45,133.0 142.1,132.65 141.75,133.7 143.5,135.1 144.2,134.75 143.85,135.1 142.79999999999998,134.04999999999998 143.14999999999998,133.7 141.75,133.7 143.14999999999998,132.65 145.25,134.75 147.0,135.1 148.39999999999998,132.65 147.35,133.0 146.29999999999998,131.95 147.0,130.9 146.64999999999998,129.15 145.95,128.45 146.64999999999998,127.05 146.64999999999998,125.3 146.29999999999998,125.64999999999999 145.6,124.94999999999999 146.64999999999998,124.24999999999999 145.6,124.6" stroke="#aaa" stroke-width="1" /><polyline fill="none" points="161.7,139.29999999999998 163.1,142.79999999999998 161.7,143.5 161.35,144.54999999999998 160.29999999999998,144.2 161.0,144.2 161.0,144.89999999999998 158.89999999999998,145.25 151.89999999999998,150.5 151.54999999999998,150.14999999999998 148.75,151.89999999999998 143.14999999999998,150.5 140.35,148.04999999999998 136.85,146.64999999999998 136.5,145.95 137.2,145.6 136.14999999999998,145.95 133.7,144.54999999999998 136.5,146.64999999999998 137.54999999999998,146.64999999999998 143.14999999999998,150.5 148.75,151.89999999999998 152.25,150.5 156.45,147.0 157.85,147.35 157.5,147.0 159.6,144.89999999999998 161.35,144.89999999999998 161.7,143.85 163.1,143.14999999999998" stroke="#aaa" stroke-width="1" /><polyline fill="none" points="133.0,131.25 132.29999999999998,130.9 132.29999999999998,129.85 132.65,131.25 130.9,133.0 129.85,133.35 127.05,136.14999999999998 122.49999999999999,137.89999999999998 120.05,137.89999999999998 118.64999999999999,138.6 114.44999999999999,138.6 110.6,140.0 109.89999999999999,138.95 112.0,138.6 110.25,138.6 109.19999999999999,137.54999999999998 106.75,137.54999999999998 106.05,136.85 105.0,136.85 109.55,137.89999999999998 110.25,138.6 109.55,139.29999999999998 106.75,139.29999999999998 103.94999999999999,140.35 101.14999999999999,138.95 99.75,138.95 104.3,140.35 107.44999999999999,139.29999999999998 109.89999999999999,139.29999999999998 111.3,140.0 112.69999999999999,138.95 118.64999999999999,138.6 120.05,137.89999999999998 122.49999999999999,137.89999999999998 125.3,137.2 128.45,135.1 129.5,135.79999999999998 129.15,135.45 130.2,134.75 131.6,135.45 130.9,134.75 129.85,134.75 129.15,135.45 128.45,135.1" stroke="#aaa" stroke-width="1" /><polyline fill="none" points="130.2,115.14999999999999 131.25,116.55 129.85,118.3 129.5,117.94999999999999 129.5,118.99999999999999 130.2,119.69999999999999 129.5,120.39999999999999 127.05,118.3 129.5,120.39999999999999 128.79999999999998,121.1 127.74999999999999,120.05 128.79999999999998,121.1 127.39999999999999,121.1 125.3,122.49999999999999 126.69999999999999,121.8 127.05,122.85 122.49999999999999,126.35 121.8,125.99999999999999 122.49999999999999,125.3 122.49999999999999,123.55 123.55,123.19999999999999 121.44999999999999,123.19999999999999 122.49999999999999,123.89999999999999 122.49999999999999,124.6 121.8,124.94999999999999 122.49999999999999,125.3 121.8,125.64999999999999 121.8,126.35 122.85,126.35 126.69999999999999,123.19999999999999 127.05,123.55 127.39999999999999,121.1 129.15,121.44999999999999 129.5,122.14999999999999 128.79999999999998,122.49999999999999 128.79999999999998,123.19999999999999 129.5,123.19999999999999 130.2,122.14999999999999 130.54999999999998,122.49999999999999 130.54999999999998,121.44999999999999 129.5,120.39999999999999 130.2,119.69999999999999 129.85,118.64999999999999 131.25,117.24999999999999 131.95,117.24999999999999" stroke="#aaa" stroke-width="1" /><polyline fill="none" points="152.95,164.14999999999998 150.85,164.85 149.45,163.1 148.75,163.1 147.7,162.04999999999998 147.0,163.1 145.6,163.1 144.2,164.14999999999998 143.14999999999998,163.79999999999998 141.75,164.85 140.0,164.5 140.7,163.45 138.95,165.2 136.85,164.14999999999998 137.54999999999998,165.54999999999998 138.6,166.25 140.0,164.5 141.75,164.85 143.14999999999998,163.79999999999998 143.85,163.79999999999998 144.2,164.5 145.6,163.1 146.29999999999998,163.1 146.64999999999998,163.79999999999998 144.54999999999998,165.2 142.45,165.54999999999998 145.95,164.5 147.7,162.39999999999998 151.2,165.2 152.25,164.14999999999998" stroke="#aaa" stroke-width="1" /><polyline fill="none" points="140.7,108.5 144.2,106.39999999999999 147.7,106.75 150.14999999999998,108.5 151.54999999999998,111.64999999999999 151.54999999999998,113.39999999999999 153.64999999999998,116.89999999999999 153.29999999999998,117.94999999999999 154.7,118.64999999999999 154.7,119.69999999999999 156.79999999999998,122.49999999999999 155.39999999999998,122.49999999999999 156.79999999999998,122.49999999999999 158.2,125.3 162.04999999999998,129.5 163.79999999999998,130.54999999999998 162.75,130.9 161.7,132.29999999999998 161.0,131.6 163.1,134.04999999999998 163.45,135.45 163.1,133.7 161.7,132.29999999999998 162.39999999999998,131.25 163.45,130.9 166.25,132.29999999999998 166.95,133.35 169.75,134.04999999999998 170.1,133.7 172.54999999999998,134.75 173.25,134.39999999999998 174.64999999999998,135.1 176.39999999999998,135.1 177.1,135.79999999999998 182.35,135.79999999999998 184.1,136.85 185.14999999999998,136.5 186.2,137.54999999999998 187.6,137.89999999999998 185.5,136.5 182.35,135.79999999999998 177.1,135.79999999999998 176.39999999999998,135.1 174.64999999999998,135.1 173.95,134.39999999999998 172.89999999999998,134.75 167.29999999999998,133.35 166.25,132.29999999999998 165.54999999999998,132.29999999999998 163.79999999999998,130.9 163.45,129.85 161.35,128.45 161.7,128.1 161.35,128.45 158.89999999999998,125.99999999999999 157.5,123.89999999999999 157.5,122.85 154.7,119.35 154.7,118.3 153.29999999999998,117.6 153.64999999999998,116.89999999999999 152.25,113.74999999999999 151.54999999999998,113.39999999999999 151.54999999999998,111.64999999999999 150.14999999999998,109.19999999999999 150.14999999999998,108.14999999999999 148.04999999999998,106.75 144.2,106.39999999999999 141.75,107.44999999999999" stroke="#aaa" stroke-width="1" /><polyline fill="none" points="154.35,114.1 154.7,115.14999999999999 156.1,115.85 156.45,118.3 158.54999999999998,121.8 158.54999999999998,124.24999999999999 160.29999999999998,126.35 161.35,126.35 162.04999999999998,125.3 170.45,130.2 175.35,130.2 173.95,129.15 175.0,130.2 174.64999999999998,130.54999999999998 171.14999999999998,129.85 169.75,128.45 170.79999999999998,129.5 170.45,130.2 164.85,126.69999999999999 164.85,125.99999999999999 165.89999999999998,125.99999999999999 164.14999999999998,126.35 162.75,125.64999999999999 162.39999999999998,124.94999999999999 163.1,124.6 162.39999999999998,124.6 161.35,125.99999999999999 160.29999999999998,124.94999999999999 161.0,125.3 160.64999999999998,126.35 158.54999999999998,123.89999999999999 158.2,120.39999999999999 156.45,118.3 156.1,115.85 156.79999999999998,114.8 157.14999999999998,115.14999999999999 156.79999999999998,114.8 157.85,113.39999999999999 157.14999999999998,113.74999999999999 156.1,115.85" stroke="#aaa" stroke-width="1" /><polyline fill="none" points="129.5,176.39999999999998 144.2,180.25 152.25,180.25 156.45,179.54999999999998 171.85,173.95 172.89999999999998,172.89999999999998 170.79999999999998,172.2 172.89999999999998,171.85 169.75,172.2 163.1,170.45 162.39999999999998,169.75 162.75,169.39999999999998 161.7,170.1 157.14999999999998,168.7 144.54999999999998,169.39999999999998 141.39999999999998,170.45 140.7,169.75 141.04999999999998,168.7 143.5,168.7 142.1,168.0 142.45,167.29999999999998 141.75,168.7 138.6,168.7 139.64999999999998,168.35 140.7,169.04999999999998 140.7,169.75 138.6,170.79999999999998 137.2,170.79999999999998 137.2,172.54999999999998 129.85,175.35" stroke="#aaa" stroke-width="1" /><polyline fill="none" points="133.0,112.35 130.9,111.64999999999999 125.3,106.75 125.3,106.05 124.94999999999999,106.39999999999999 123.89999999999999,105.69999999999999 120.39999999999999,105.69999999999999 120.05,105.0 118.99999999999999,105.0 120.05,105.35 119.69999999999999,106.05 115.49999999999999,106.05 110.25,111.3 109.89999999999999,110.6 110.25,111.3 108.85,112.69999999999999 108.85,113.39999999999999 112.35,109.19999999999999 113.05,110.25 112.69999999999999,110.94999999999999 110.6,112.35 111.64999999999999,112.69999999999999 111.3,111.64999999999999 112.35,111.3 113.05,112.0 112.35,112.35 113.05,113.39999999999999 112.35,112.69999999999999 113.05,112.0 115.85,112.35 113.39999999999999,112.35 112.69999999999999,111.64999999999999 113.05,110.25 118.3,109.89999999999999 118.64999999999999,109.19999999999999 120.05,109.89999999999999 121.44999999999999,108.5 122.14999999999999,109.19999999999999 124.6,108.85 125.99999999999999,109.55 126.35,110.6 127.74999999999999,109.89999999999999 128.1,110.25 128.1,109.19999999999999 130.9,111.64999999999999 129.85,112.0 128.79999999999998,110.94999999999999 130.9,112.69999999999999 129.15,113.74999999999999 127.39999999999999,112.69999999999999 128.79999999999998,113.74999999999999 128.1,114.44999999999999 126.69999999999999,113.05 128.1,114.44999999999999 127.39999999999999,115.49999999999999 126.69999999999999,115.14999999999999 127.05,114.44999999999999 124.94999999999999,114.1 124.6,114.44999999999999 126.69999999999999,114.44999999999999 126.69999999999999,115.14999999999999 124.94999999999999,115.14999999999999 122.85,116.89999999999999 121.44999999999999,116.89999999999999 118.3,118.64999999999999 111.3,118.64999999999999 110.25,117.94999999999999 109.55,118.64999999999999 110.25,119.69999999999999 109.55,120.05 108.5,122.49999999999999 109.19999999999999,122.49999999999999 108.5,121.8 109.55,120.74999999999999 114.44999999999999,121.1 110.25,121.1 109.55,120.39999999999999 110.25,119.69999999999999 113.39999999999999,120.39999999999999 110.6,119.69999999999999 109.89999999999999,118.99999999999999 110.25,117.94999999999999 111.3,118.64999999999999 118.3,118.64999999999999 121.44999999999999,116.89999999999999 123.19999999999999,116.89999999999999 125.3,115.14999999999999 126.69999999999999,115.14999999999999 127.39999999999999,116.55 127.05,115.85 130.2,113.05 130.9,114.1 131.95,114.44999999999999 132.65,113.74999999999999 131.95,113.39999999999999 131.95,112.69999999999999" stroke="#aaa" stroke-width="1" /><polyline fill="none" points="113.74999999999999,111.64999999999999 118.3,111.3 118.99999999999999,112.0 117.6,113.74999999999999 116.89999999999999,113.39999999999999 117.94999999999999,112.35 116.55,113.39999999999999 113.74999999999999,113.39999999999999 116.55,113.74999999999999 115.49999999999999,115.85 123.55,115.14999999999999 123.89999999999999,114.44999999999999 122.49999999999999,112.69999999999999 123.19999999999999,112.0 123.89999999999999,112.0 124.24999999999999,113.05 125.3,113.05 125.3,112.35 122.85,112.0 122.49999999999999,112.69999999999999 121.44999999999999,111.64999999999999 123.55,113.74999999999999 123.55,115.14999999999999 122.14999999999999,115.14999999999999 121.8,114.8 122.85,114.1 121.8,113.39999999999999 122.85,114.1 122.49999999999999,114.44999999999999 117.6,114.8 116.89999999999999,115.14999999999999 117.6,115.14999999999999 117.6,115.85 115.85,115.85 115.49999999999999,115.14999999999999 116.19999999999999,115.14999999999999 115.85,114.8 116.89999999999999,113.39999999999999 117.24999999999999,114.1 119.69999999999999,111.3 121.1,112.35 120.05,111.3 120.39999999999999,110.6 119.69999999999999,111.3 118.99999999999999,110.6 119.69999999999999,111.3 118.99999999999999,112.0 118.64999999999999,111.3" stroke="#aaa" stroke-width="1" /><polyline fill="none" points="162.75,115.85 163.1,115.49999999999999 163.79999999999998,116.19999999999999 163.45,119.69999999999999 163.79999999999998,120.05 163.79999999999998,118.3 166.25,122.14999999999999 166.6,121.44999999999999 166.25,121.8 165.2,120.39999999999999 165.54999999999998,119.69999999999999 167.64999999999998,121.1 165.89999999999998,120.05 165.89999999999998,119.35 167.29999999999998,119.35 168.0,120.05 169.39999999999998,119.35 170.45,120.74999999999999 173.25,120.05 172.54999999999998,119.69999999999999 173.6,119.35 172.54999999999998,119.35 172.89999999999998,120.05 171.85,120.39999999999999 171.85,119.69999999999999 169.75,118.3 171.5,120.05 170.79999999999998,120.39999999999999 168.35,117.6 169.04999999999998,118.64999999999999 167.64999999999998,118.64999999999999 169.04999999999998,118.64999999999999 169.04999999999998,119.69999999999999 165.89999999999998,119.35 165.2,120.05 163.79999999999998,118.3 163.79999999999998,115.85" stroke="#aaa" stroke-width="1" /><polyline fill="none" points="96.94999999999999,101.5 96.25,103.6 95.19999999999999,104.3 94.5,110.94999999999999 95.19999999999999,112.35 95.19999999999999,115.85 95.89999999999999,116.89999999999999 95.19999999999999,118.99999999999999 95.55,118.3 97.3,119.69999999999999 96.25,120.74999999999999 95.55,120.05 98.69999999999999,125.99999999999999 98.69999999999999,124.94999999999999 99.39999999999999,124.94999999999999 99.75,124.24999999999999 103.25,127.74999999999999 105.35,128.45 107.1,129.85 115.85,131.25 123.89999999999999,130.2 127.39999999999999,128.79999999999998 129.85,126.69999999999999 130.54999999999998,127.39999999999999 129.15,129.5 128.45,129.5 125.64999999999999,131.6 123.19999999999999,131.95 120.39999999999999,133.35 119.35,133.0 118.64999999999999,131.95 118.64999999999999,133.0 116.19999999999999,133.0 111.3,131.6 110.25,131.95 105.35,130.9 102.55,129.5 99.39999999999999,126.69999999999999 98.0,126.69999999999999 98.69999999999999,130.9 100.44999999999999,133.35 102.19999999999999,134.04999999999998 100.8,133.35 98.69999999999999,130.54999999999998 98.0,128.45 98.35,126.69999999999999 99.05,126.69999999999999 102.19999999999999,129.5 101.14999999999999,130.2 101.5,130.9 101.14999999999999,130.54999999999998 102.55,129.5 105.0,130.9 114.1,132.29999999999998 114.1,133.35 112.69999999999999,133.0 111.64999999999999,133.7 108.14999999999999,132.29999999999998 106.39999999999999,132.29999999999998 105.0,131.6 104.64999999999999,131.95 102.19999999999999,130.54999999999998 106.39999999999999,132.65 108.14999999999999,132.29999999999998 108.85,133.0 111.3,133.35 113.39999999999999,135.1 120.74999999999999,135.1 124.94999999999999,134.04999999999998 129.85,130.54999999999998 130.2,131.25 130.2,130.54999999999998 131.95,128.79999999999998 132.29999999999998,126.69999999999999 133.7,125.3 134.75,126.35 133.7,127.74999999999999 134.04999999999998,127.39999999999999 136.14999999999998,130.2 135.1,128.1 134.04999999999998,127.39999999999999 134.75,126.69999999999999 134.04999999999998,124.6 135.1,123.55 135.45,120.39999999999999 135.1,123.55 134.04999999999998,124.6 133.35,123.89999999999999 134.04999999999998,123.55 133.7,122.85 133.7,123.55 130.54999999999998,127.39999999999999 129.85,126.69999999999999 132.65,123.55 134.04999999999998,120.74999999999999 133.35,120.39999999999999 133.35,117.94999999999999 134.39999999999998,115.85 133.0,118.3 133.7,118.64999999999999 133.7,121.44999999999999 133.0,122.85 130.9,124.94999999999999 130.2,123.89999999999999 130.9,124.94999999999999 128.1,128.1 122.49999999999999,130.54999999999998 116.19999999999999,131.25 107.44999999999999,129.85 103.94999999999999,128.1 99.39999999999999,123.55 104.3,118.99999999999999 104.64999999999999,119.69999999999999 105.35,119.69999999999999 106.05,118.99999999999999 104.3,118.99999999999999 104.3,117.6 105.0,116.89999999999999 107.8,116.89999999999999 108.85,117.6 108.85,118.64999999999999 108.5,116.89999999999999 108.14999999999999,117.24999999999999 105.35,116.55 103.94999999999999,117.94999999999999 104.64999999999999,118.3 104.3,118.99999999999999 103.25,119.35 102.19999999999999,120.74999999999999 100.8,121.44999999999999 99.75,120.74999999999999 100.8,121.8 99.39999999999999,123.19999999999999 99.75,124.24999999999999 99.05,124.24999999999999 98.69999999999999,124.94999999999999 97.3,123.55 99.05,122.49999999999999 97.64999999999999,122.49999999999999 97.3,119.69999999999999 100.44999999999999,116.89999999999999 100.8,115.85 101.5,115.85 100.8,115.85 97.3,119.35 95.55,118.3 95.89999999999999,116.55 95.19999999999999,115.85 95.19999999999999,112.35 94.5,110.94999999999999 95.19999999999999,104.64999999999999 96.25,103.94999999999999 96.94999999999999,101.85 98.35,100.8 99.05,101.14999999999999 98.35,100.8 101.14999999999999,98.35 101.5,99.05 103.25,97.64999999999999 105.35,97.64999999999999 108.5,96.6 113.39999999999999,95.89999999999999 113.39999999999999,96.94999999999999 109.89999999999999,98.0 104.3,103.6 103.94999999999999,105.0 102.89999999999999,105.0 101.5,103.94999999999999 103.6,105.35 106.75,101.14999999999999 107.8,100.44999999999999 108.14999999999999,100.8 107.1,102.19999999999999 108.5,100.8 107.8,100.44999999999999 110.25,98.0 112.35,96.94999999999999 114.44999999999999,96.6 113.74999999999999,96.25 114.44999999999999,95.89999999999999 103.25,97.64999999999999 99.39999999999999,99.39999999999999" stroke="#aaa" stroke-width="1" /><polyline fill="none" points="169.75,108.14999999999999 167.29999999999998,108.14999999999999 165.54999999999998,109.55 164.5,109.19999999999999 166.6,106.75 167.64999999999998,106.75 166.95,106.39999999999999 168.7,104.3 168.0,105.0 167.64999999999998,104.3 165.54999999999998,106.39999999999999 164.5,106.05 162.75,107.44999999999999 161.35,107.1 159.95,108.14999999999999 158.2,108.14999999999999 157.14999999999998,108.85 155.39999999999998,108.5 157.14999999999998,108.85 158.2,108.14999999999999 160.29999999999998,108.14999999999999 161.35,107.1 162.39999999999998,107.1 162.75,107.44999999999999 161.35,108.14999999999999 162.39999999999998,108.14999999999999 163.1,107.1 163.79999999999998,107.1 164.85,106.05 165.54999999999998,106.39999999999999 167.64999999999998,104.64999999999999 168.0,105.0 165.54999999999998,107.8 165.2,107.1 163.79999999999998,108.14999999999999 162.04999999999998,110.6 162.04999999999998,111.64999999999999 159.95,113.05 158.54999999999998,113.05 157.85,112.35 158.54999999999998,113.05 161.35,112.69999999999999 163.45,109.19999999999999 163.79999999999998,109.89999999999999 164.5,109.19999999999999 165.89999999999998,109.55 167.64999999999998,108.14999999999999 168.7,108.85 168.35,108.5 169.04999999999998,107.8" stroke="#aaa" stroke-width="1" /><polyline fill="none" points="112.69999999999999,98.69999999999999 116.89999999999999,96.6 123.55,97.3 129.5,99.39999999999999 132.29999999999998,101.85 131.6,102.55 128.1,101.14999999999999 127.74999999999999,100.44999999999999 128.45,101.5 127.74999999999999,101.85 130.54999999999998,101.85 131.95,102.89999999999999 131.6,103.94999999999999 132.29999999999998,103.25 133.35,104.64999999999999 134.04999999999998,104.3 134.04999999999998,103.25 131.25,100.44999999999999 126.35,98.0 119.69999999999999,96.6 116.55,96.6 115.85,97.3 115.49999999999999,96.6 115.14999999999999,97.3 113.39999999999999,98.0 113.05,97.64999999999999 113.39999999999999,98.0" stroke="#aaa" stroke-width="1" /><polyline fill="none" points="122.14999999999999,176.04999999999998 122.14999999999999,177.45 120.05,177.79999999999998 122.14999999999999,177.45 122.85,178.5 121.8,179.54999999999998 121.1,178.85 121.8,179.89999999999998 121.44999999999999,180.95 122.49999999999999,181.64999999999998 122.14999999999999,183.04999999999998 121.1,182.7 122.14999999999999,183.04999999999998 123.19999999999999,184.45 123.55,183.75 122.14999999999999,183.04999999999998 122.85,181.64999999999998 121.44999999999999,180.6 122.14999999999999,180.25 122.14999999999999,179.2 122.85,178.85 124.6,181.29999999999998 125.64999999999999,180.25 126.35,180.25 127.05,180.95 126.69999999999999,181.29999999999998 127.39999999999999,180.95 128.1,181.64999999999998 127.74999999999999,182.0 128.1,181.29999999999998 127.05,180.95 126.35,179.89999999999998 124.6,180.95 123.55,179.89999999999998" stroke="#aaa" stroke-width="1" /><polyline fill="none" points="121.1,101.5 117.24999999999999,100.8 112.35,101.85 119.35,101.14999999999999 121.44999999999999,102.19999999999999 120.74999999999999,102.89999999999999 115.85,102.19999999999999 110.6,103.94999999999999 109.89999999999999,103.6 106.75,107.1 106.75,108.85 104.64999999999999,110.25 105.69999999999999,111.64999999999999 105.35,112.69999999999999 105.69999999999999,111.3 104.64999999999999,110.6 107.1,108.85 106.75,107.44999999999999 109.89999999999999,104.64999999999999 109.55,104.3 110.25,103.6 110.6,103.94999999999999 115.85,102.19999999999999 120.74999999999999,102.89999999999999 121.44999999999999,102.55" stroke="#aaa" stroke-width="1" /><polyline fill="none" points="170.1,104.64999999999999 171.14999999999998,105.69999999999999 170.45,105.0 170.79999999999998,104.3 173.25,106.39999999999999 171.85,107.1 172.54999999999998,106.75 173.6,107.44999999999999 172.54999999999998,108.5 171.5,107.8 172.2,108.85 171.14999999999998,109.89999999999999 171.85,109.19999999999999 172.54999999999998,109.55 171.5,110.94999999999999 174.64999999999998,111.64999999999999 170.79999999999998,112.0 170.79999999999998,110.6 170.45,112.0 174.64999999999998,112.0 178.5,111.3 174.29999999999998,111.3 177.45,110.6 176.75,110.25 177.1,109.89999999999999 178.14999999999998,110.25 174.64999999999998,107.44999999999999 175.0,106.75 173.95,106.75 175.35,105.0 173.95,106.39999999999999 173.25,106.39999999999999 171.85,105.0 172.54999999999998,104.64999999999999" stroke="#aaa" stroke-width="1" /><polyline fill="none" points="126.35,88.55 127.05,89.25 126.69999999999999,91.0 128.1,92.39999999999999 130.2,92.05 129.5,91.35 130.9,90.64999999999999 133.0,93.44999999999999 138.25,93.44999999999999 140.0,95.89999999999999 138.25,93.1 137.89999999999998,93.8 133.35,93.44999999999999 132.29999999999998,92.39999999999999 132.65,92.05 132.29999999999998,92.39999999999999 130.9,90.64999999999999 130.9,89.94999999999999 131.6,89.6 130.9,89.6 130.2,91.0 128.45,90.3 128.45,89.6 128.1,91.0 129.15,91.0 129.5,91.69999999999999 127.74999999999999,92.05 126.69999999999999,90.64999999999999 126.69999999999999,89.6 127.74999999999999,88.89999999999999 127.05,89.25" stroke="#aaa" stroke-width="1" /><polyline fill="none" points="161.0,105.35 162.75,105.69999999999999 164.14999999999998,104.64999999999999 165.54999999999998,105.0 166.95,103.25 167.64999999999998,103.6 166.25,102.19999999999999 167.29999999999998,100.44999999999999 168.0,100.8 168.0,101.5 170.45,99.39999999999999 177.1,99.05 177.79999999999998,98.35 180.25,98.35 181.29999999999998,97.64999999999999 181.29999999999998,96.94999999999999 180.6,96.25 177.79999999999998,96.25 177.1,96.94999999999999 177.79999999999998,98.35 176.39999999999998,99.05 176.04999999999998,97.3 174.64999999999998,97.3 174.29999999999998,96.6 173.95,97.64999999999999 171.5,97.64999999999999 171.5,96.6 169.75,96.94999999999999 169.04999999999998,96.25 169.39999999999998,96.94999999999999 171.14999999999998,97.3 169.39999999999998,98.69999999999999 171.5,97.64999999999999 175.7,97.3 176.04999999999998,98.69999999999999 175.0,99.39999999999999 171.5,99.05 169.39999999999998,99.75 168.35,100.8 167.29999999999998,100.44999999999999 165.89999999999998,102.19999999999999 164.14999999999998,102.89999999999999 163.45,103.94999999999999 162.04999999999998,104.3 162.39999999999998,104.64999999999999 163.1,103.94999999999999 164.14999999999998,103.94999999999999 163.79999999999998,103.6 164.85,102.55 166.25,102.19999999999999 166.95,103.25 165.2,105.0 164.14999999999998,104.64999999999999 162.75,105.69999999999999" stroke="#aaa" stroke-width="1" /><polyline fill="none" points="124.94999999999999,185.85 125.3,186.2 123.89999999999999,187.6 125.99999999999999,189.35 126.35,190.75 125.64999999999999,191.45 124.6,190.75 125.3,190.04999999999998 124.24999999999999,190.75 124.94999999999999,191.45 125.99999999999999,191.45 127.05,190.04999999999998 126.35,190.04999999999998 124.24999999999999,187.25 125.3,186.2 126.69999999999999,188.64999999999998 127.05,187.6 128.45,187.95 129.15,186.89999999999998 128.1,186.54999999999998 127.39999999999999,187.6 126.69999999999999,187.6" stroke="#aaa" stroke-width="1" /><polyline fill="none" points="168.35,103.25 169.39999999999998,103.6 169.39999999999998,102.89999999999999 171.14999999999998,102.89999999999999 171.14999999999998,103.6 176.39999999999998,102.89999999999999 176.75,103.25 175.7,104.3 176.39999999999998,103.6 177.1,103.94999999999999 176.04999999999998,105.35 178.14999999999998,102.55 179.2,103.6 178.14999999999998,103.6 183.39999999999998,108.14999999999999 182.0,106.75 182.7,106.39999999999999 177.79999999999998,102.19999999999999 171.14999999999998,102.55" stroke="#aaa" stroke-width="1" /><polyline fill="none" points="196.7,118.64999999999999 197.04999999999998,119.35 195.64999999999998,120.39999999999999 195.29999999999998,118.3 194.25,117.94999999999999 195.29999999999998,118.64999999999999 195.29999999999998,120.39999999999999 193.54999999999998,122.85 191.45,124.6 191.1,125.64999999999999 189.35,127.05 190.39999999999998,127.74999999999999 188.64999999999998,129.15 189.7,128.79999999999998 190.39999999999998,127.74999999999999 191.45,127.74999999999999 194.95,124.24999999999999 195.29999999999998,122.85 195.29999999999998,123.55 191.1,127.74999999999999 190.39999999999998,127.74999999999999 190.04999999999998,127.05 191.1,125.99999999999999 191.45,126.35 191.45,124.94999999999999 196.7,119.69999999999999 197.75,120.74999999999999 197.75,122.49999999999999 198.79999999999998,124.94999999999999 197.75,126.69999999999999 197.39999999999998,128.79999999999998 193.54999999999998,131.25 192.14999999999998,131.25 191.1,131.95 189.7,131.6 187.25,133.0 188.64999999999998,133.0 188.29999999999998,132.65 189.7,131.6 191.1,131.95 193.54999999999998,131.25 197.39999999999998,129.15 197.75,127.05 198.45,125.64999999999999 199.14999999999998,125.64999999999999" stroke="#aaa" stroke-width="1" /><polyline fill="none" points="141.75,88.19999999999999 145.95,88.19999999999999 145.6,87.85 146.29999999999998,87.14999999999999 147.0,87.5 144.54999999999998,85.75 145.6,84.69999999999999 143.85,82.94999999999999 144.2,82.6 146.64999999999998,84.69999999999999 146.29999999999998,85.75 146.64999999999998,85.05 147.35,86.1 148.39999999999998,86.44999999999999 148.04999999999998,86.8 149.79999999999998,85.05 150.14999999999998,83.3 150.5,84.69999999999999 151.2,84.0 151.89999999999998,84.35 151.89999999999998,85.39999999999999 150.85,85.39999999999999 151.2,85.05 150.85,85.75 151.89999999999998,86.1 151.89999999999998,83.64999999999999 151.2,82.6 151.54999999999998,83.64999999999999 150.85,84.35 149.79999999999998,82.94999999999999 149.79999999999998,84.69999999999999 149.1,85.39999999999999 148.39999999999998,85.05 148.75,84.35 147.7,84.0 147.35,84.35 148.75,85.39999999999999 147.7,86.1 146.29999999999998,84.0 147.35,82.94999999999999 146.29999999999998,84.0 144.2,81.55 143.5,81.55 143.85,83.3 145.6,84.69999999999999 144.54999999999998,85.75 145.95,87.5" stroke="#aaa" stroke-width="1" /><polyline fill="none" points="137.2,84.0 136.85,82.94999999999999 136.14999999999998,82.94999999999999 134.04999999999998,85.39999999999999 133.0,85.75 132.29999999999998,85.05 133.7,84.0 134.04999999999998,84.35 133.35,83.64999999999999 133.7,83.3 134.39999999999998,83.64999999999999 133.35,82.94999999999999 133.35,83.64999999999999 131.95,83.64999999999999 130.9,82.25 132.29999999999998,81.19999999999999 131.25,80.5 131.95,81.19999999999999 130.54999999999998,82.25 131.25,85.05 129.15,86.44999999999999 130.54999999999998,86.44999999999999 129.15,87.85 127.39999999999999,85.75 127.39999999999999,84.69999999999999 127.39999999999999,86.44999999999999 124.24999999999999,86.44999999999999 123.19999999999999,85.75 124.6,85.39999999999999 123.19999999999999,85.39999999999999 122.85,86.1 120.05,86.1 118.99999999999999,85.39999999999999 117.6,85.39999999999999 118.64999999999999,85.39999999999999 120.05,86.44999999999999 120.74999999999999,86.1 121.1,86.8 121.44999999999999,86.1 122.14999999999999,86.44999999999999 121.8,86.8 122.49999999999999,86.1 126.69999999999999,86.1 127.05,86.44999999999999 126.35,87.5 126.69999999999999,87.14999999999999 129.5,89.25 130.9,88.55 128.79999999999998,88.55 131.25,85.05 130.54999999999998,82.94999999999999 130.9,82.6 131.6,82.94999999999999 131.95,84.35 132.65,84.69999999999999 132.29999999999998,85.39999999999999 133.0,85.75 134.39999999999998,85.39999999999999 136.5,82.94999999999999 136.85,83.64999999999999 135.1,85.75 136.85,83.64999999999999" stroke="#aaa" stroke-width="1" /><polyline fill="none" points="149.45,77.69999999999999 149.1,77.35 149.45,77.69999999999999 148.39999999999998,78.39999999999999 146.64999999999998,78.05 148.04999999999998,78.39999999999999 145.95,79.8 141.04999999999998,80.5 138.95,82.25 138.95,81.19999999999999 138.25,82.25 136.14999999999998,81.55 138.25,82.25 138.6,82.94999999999999 138.25,84.35 135.1,87.85 135.1,88.89999999999999 135.1,88.19999999999999 136.14999999999998,87.14999999999999 137.54999999999998,89.25 138.95,89.94999999999999 139.64999999999998,91.0 138.95,89.94999999999999 137.54999999999998,89.25 137.54999999999998,88.55 136.5,87.5 136.5,86.1 138.25,84.69999999999999 138.6,82.94999999999999 139.64999999999998,81.89999999999999 140.35,82.25 140.0,81.89999999999999 141.39999999999998,80.5 143.5,79.8 146.29999999999998,79.8" stroke="#aaa" stroke-width="1" /><polyline fill="none" points="157.85,100.44999999999999 159.95,99.05 161.0,99.75 160.29999999999998,99.05 162.39999999999998,97.3 163.45,97.3 165.2,96.25 166.95,96.25 168.7,95.19999999999999 172.54999999999998,94.5 176.75,94.5 177.79999999999998,95.55 177.1,94.5 177.45,94.14999999999999 180.95,94.14999999999999 180.95,95.19999999999999 179.89999999999998,94.85 182.0,95.55 181.29999999999998,94.85 181.64999999999998,94.14999999999999 185.14999999999998,94.5 187.6,95.19999999999999 188.29999999999998,95.89999999999999 190.04999999999998,95.89999999999999 192.85,97.64999999999999 197.04999999999998,102.55 196.7,103.6 197.75,106.39999999999999 197.75,113.05 197.04999999999998,113.74999999999999 193.89999999999998,113.05 190.39999999999998,110.94999999999999 189.35,110.94999999999999 187.6,108.85 186.2,108.14999999999999 189.0,110.94999999999999 190.04999999999998,110.94999999999999 195.64999999999998,113.74999999999999 197.39999999999998,113.74999999999999 197.75,110.25 199.14999999999998,108.85 198.45,109.55 197.75,109.19999999999999 197.75,106.39999999999999 196.7,103.25 197.04999999999998,102.55 194.95,99.39999999999999 192.14999999999998,96.94999999999999 187.6,95.19999999999999 190.39999999999998,94.5 191.79999999999998,95.19999999999999 190.39999999999998,94.5 186.89999999999998,95.19999999999999 182.0,94.14999999999999 172.54999999999998,94.5 168.7,95.19999999999999 166.95,96.25 165.2,96.25 162.04999999999998,97.64999999999999 161.35,97.3 161.7,96.6 165.2,95.19999999999999 171.85,93.44999999999999 173.95,93.8 174.64999999999998,93.1 176.39999999999998,92.75 184.1,92.75 193.89999999999998,94.14999999999999 184.1,92.75 176.39999999999998,92.75 173.6,93.8 171.85,93.44999999999999 160.64999999999998,96.94999999999999 159.25,98.0 159.95,98.0 161.0,96.94999999999999 161.7,97.64999999999999" stroke="#aaa" stroke-width="1" /><polyline fill="none" points="91.35,99.05 90.3,100.44999999999999 89.94999999999999,102.55 92.05,100.8" stroke="#aaa" stroke-width="1" /><polyline fill="none" points="81.55,162.39999999999998 80.85,163.79999999999998 81.19999999999999,164.14999999999998 80.14999999999999,164.85 77.35,169.04999999999998 78.05,169.04999999999998 78.39999999999999,171.85 80.85,172.89999999999998 82.6,172.54999999999998 83.3,171.85 83.3,170.45 82.94999999999999,172.2 81.19999999999999,172.89999999999998 78.75,171.85 78.75,170.45 79.44999999999999,171.14999999999998 80.5,170.79999999999998 81.55,171.85 81.19999999999999,171.14999999999998 84.0,169.39999999999998 85.05,170.79999999999998 84.69999999999999,172.2 83.64999999999999,172.54999999999998 85.05,172.2 85.39999999999999,172.89999999999998 83.64999999999999,174.29999999999998 80.85,175.7 79.8,174.64999999999998 80.85,176.75 82.6,177.1 80.5,176.04999999999998 83.3,174.29999999999998 84.69999999999999,175.7 82.6,178.14999999999998 81.19999999999999,177.45 81.89999999999999,178.14999999999998 83.3,177.79999999999998 84.35,179.2 84.35,179.89999999999998 83.3,180.95 81.55,180.6 82.94999999999999,180.6 83.3,181.29999999999998 84.0,180.6 84.35,181.64999999999998 86.44999999999999,183.04999999999998 91.0,183.39999999999998 91.35,184.45 90.3,184.45 91.0,184.79999999999998 89.94999999999999,185.5 89.94999999999999,186.2 93.1,187.6 97.64999999999999,188.29999999999998 98.0,188.64999999999998 96.94999999999999,189.35 94.85,189.0 92.39999999999999,190.04999999999998 94.85,189.0 99.05,189.0 98.35,189.0 98.35,188.29999999999998 93.44999999999999,187.6 93.44999999999999,186.2 93.8,186.54999999999998 93.1,187.25 89.94999999999999,185.85 91.35,184.79999999999998 91.0,182.35 90.64999999999999,183.39999999999998 89.94999999999999,183.39999999999998 89.6,182.7 86.8,183.04999999999998 86.44999999999999,182.7 87.85,182.0 86.44999999999999,182.7 84.35,181.29999999999998 84.0,180.6 84.69999999999999,179.89999999999998 86.1,180.6 84.35,179.54999999999998 84.35,178.85 85.05,178.5 84.35,178.85 83.3,177.79999999999998 84.69999999999999,176.04999999999998 83.64999999999999,174.29999999999998 85.75,172.54999999999998 86.8,173.25 86.1,172.54999999999998 87.14999999999999,171.85 87.14999999999999,171.14999999999998 86.1,172.54999999999998 84.69999999999999,171.85 86.44999999999999,169.75 86.44999999999999,169.04999999999998 85.39999999999999,168.7 84.35,169.75 82.6,169.75 81.19999999999999,171.14999999999998 80.5,170.79999999999998 80.85,170.45 80.14999999999999,171.14999999999998 78.75,170.45 81.19999999999999,169.75 83.64999999999999,167.64999999999998 83.64999999999999,166.95 82.94999999999999,168.0 82.25,167.29999999999998 85.39999999999999,164.5 84.69999999999999,164.5 82.6,162.04999999999998 84.0,164.14999999999998 81.89999999999999,165.89999999999998 81.55,165.2 81.55,166.25 83.3,164.85 84.0,165.54999999999998 80.85,168.35 79.1,169.04999999999998 79.1,170.1 78.39999999999999,170.79999999999998 78.05,170.45 78.05,168.35 79.8,165.54999999999998 80.85,164.85 80.85,163.79999999999998 81.89999999999999,162.75" stroke="#aaa" stroke-width="1" /><polyline fill="none" points="123.55,73.14999999999999 117.94999999999999,77.69999999999999 116.55,78.05 115.85,79.44999999999999 114.8,78.05 114.44999999999999,78.75 112.35,79.44999999999999 111.3,80.5 110.25,80.85 108.5,80.14999999999999 110.25,80.85 111.64999999999999,80.5 112.0,79.8 113.74999999999999,78.75 114.8,78.75 115.14999999999999,78.05 115.49999999999999,79.1 114.44999999999999,79.44999999999999 113.74999999999999,80.5 113.05,80.14999999999999 113.74999999999999,80.5 112.69999999999999,81.55 108.5,82.94999999999999 106.75,82.6 106.39999999999999,82.94999999999999 107.44999999999999,82.94999999999999 107.8,83.64999999999999 106.39999999999999,84.35 102.55,84.69999999999999 101.85,84.0 102.55,84.69999999999999 101.5,85.75 99.39999999999999,86.44999999999999 100.44999999999999,87.5 99.39999999999999,88.19999999999999 100.1,88.19999999999999 100.44999999999999,87.5 99.75,86.44999999999999 100.44999999999999,85.75 101.85,85.75 103.25,84.35 103.94999999999999,84.69999999999999 107.8,84.0 108.14999999999999,82.94999999999999 113.39999999999999,81.19999999999999 115.49999999999999,79.1 115.85,79.8 114.44999999999999,81.19999999999999 115.49999999999999,80.85 116.89999999999999,78.05 119.69999999999999,76.64999999999999" stroke="#aaa" stroke-width="1" /><polyline fill="none" points="144.54999999999998,64.75 143.5,65.1 143.14999999999998,64.05 142.45,64.05 140.0,68.6 138.95,69.64999999999999 138.25,68.94999999999999 139.29999999999998,67.89999999999999 138.25,68.6 138.25,69.64999999999999 139.29999999999998,70.35 138.95,71.75 136.85,73.14999999999999 136.5,75.25 132.65,79.1 131.6,78.75 131.25,77.69999999999999 130.54999999999998,78.05 129.85,77.35 130.54999999999998,76.3 131.25,77.0 131.95,76.3 133.0,77.35 132.65,78.05 133.0,77.35 132.29999999999998,76.3 130.54999999999998,76.3 129.5,77.69999999999999 129.15,77.35 130.54999999999998,74.19999999999999 130.2,73.5 129.15,73.85 129.85,73.5 130.2,74.89999999999999 128.79999999999998,77.69999999999999 128.79999999999998,79.8 128.45,79.1 129.15,77.69999999999999 129.85,78.05 129.5,79.44999999999999 130.2,77.69999999999999 131.25,78.39999999999999 131.25,79.1 133.0,79.1 136.5,75.6 137.2,74.19999999999999 137.89999999999998,74.55 137.54999999999998,75.6 138.95,74.19999999999999 138.6,72.44999999999999 139.29999999999998,69.64999999999999 141.04999999999998,67.55 141.39999999999998,65.8 142.79999999999998,64.05 143.5,65.1 143.5,67.19999999999999 142.1,71.39999999999999 141.04999999999998,72.44999999999999 141.04999999999998,74.19999999999999 139.29999999999998,75.94999999999999 137.89999999999998,76.64999999999999 136.85,76.3 137.54999999999998,77.35 137.89999999999998,76.64999999999999 138.95,77.0 137.89999999999998,78.39999999999999 137.54999999999998,78.05 135.45,79.44999999999999 133.7,79.8 136.14999999999998,79.8 135.79999999999998,79.44999999999999 137.54999999999998,78.05 138.25,78.75 136.85,80.14999999999999 138.25,78.75 137.89999999999998,78.39999999999999 138.95,77.0 138.6,76.64999999999999 142.45,73.14999999999999 142.1,70.35 142.79999999999998,69.64999999999999 143.5,67.19999999999999 143.14999999999998,65.45 143.85,64.75 144.54999999999998,65.1 144.2,68.6 144.89999999999998,66.85" stroke="#aaa" stroke-width="1" /><polyline fill="none" points="78.75,102.89999999999999 78.75,106.75 78.05,107.8 78.05,111.3 78.75,112.69999999999999 78.05,113.39999999999999 77.0,112.0 76.64999999999999,105.69999999999999 77.0,110.25 75.6,110.6 75.25,109.89999999999999 75.94999999999999,105.35 75.25,110.25 76.3,113.74999999999999 77.0,114.44999999999999 77.0,116.55 79.1,119.35 78.39999999999999,120.05 78.05,118.99999999999999 78.39999999999999,120.05 79.1,119.35 81.19999999999999,119.69999999999999 83.64999999999999,118.64999999999999 84.35,116.19999999999999 83.3,117.6 83.64999999999999,118.3 82.6,118.99999999999999 82.25,118.64999999999999 81.19999999999999,119.69999999999999 80.5,118.64999999999999 80.85,118.3 80.85,119.35 79.8,119.69999999999999 77.0,116.19999999999999 76.64999999999999,114.8 78.75,112.69999999999999 78.05,111.3 78.05,107.8 78.75,106.75 78.39999999999999,104.3 79.1,103.25" stroke="#aaa" stroke-width="1" /><polyline fill="none" points="157.14999999999998,71.39999999999999 156.1,71.39999999999999 152.6,75.6 151.54999999999998,74.55 150.5,75.6 150.14999999999998,70.35 151.2,69.64999999999999 150.14999999999998,70.0 150.5,72.44999999999999 146.64999999999998,77.35 147.7,76.64999999999999 150.14999999999998,73.14999999999999 150.14999999999998,75.25 148.04999999999998,77.35 150.14999999999998,75.25 151.2,75.6 151.89999999999998,74.89999999999999 152.6,75.6 150.85,78.05 156.45,71.39999999999999" stroke="#aaa" stroke-width="1" /><polyline fill="none" points="161.7,58.449999999999996 162.39999999999998,59.49999999999999 161.0,61.949999999999996 161.0,65.8 161.0,62.3 162.39999999999998,59.49999999999999 163.1,60.199999999999996 162.39999999999998,61.24999999999999 162.75,65.1 161.0,66.85 160.29999999999998,69.64999999999999 160.64999999999998,70.69999999999999 160.29999999999998,69.64999999999999 161.0,68.94999999999999 161.7,71.05 161.0,72.1 159.95,71.75 158.89999999999998,72.44999999999999 159.25,73.85 159.6,73.5 159.25,73.85 158.89999999999998,72.8 159.95,71.75 160.64999999999998,71.75 160.64999999999998,73.85 159.6,74.89999999999999 158.89999999999998,74.55 158.2,75.25 157.14999999999998,74.19999999999999 158.2,75.25 156.79999999999998,76.64999999999999 154.7,77.35 152.6,79.44999999999999 150.14999999999998,78.39999999999999 149.1,79.1 149.1,79.8 152.25,82.6 151.89999999999998,81.89999999999999 152.95,80.85 153.64999999999998,81.19999999999999 152.95,80.85 151.89999999999998,81.89999999999999 149.79999999999998,80.5 150.14999999999998,80.14999999999999 149.79999999999998,80.5 149.1,79.44999999999999 150.14999999999998,78.39999999999999 151.54999999999998,79.44999999999999 152.25,79.1 152.6,79.8 153.29999999999998,78.75 154.7,79.44999999999999 154.0,78.75 154.7,77.35 157.5,76.3 160.64999999999998,73.85 161.35,74.55 160.64999999999998,73.85 162.75,71.75 163.45,72.1 162.75,71.75 162.75,70.69999999999999 162.04999999999998,72.44999999999999 161.0,72.1 161.7,71.39999999999999 161.7,70.0 160.64999999999998,68.6 162.04999999999998,67.19999999999999 162.39999999999998,67.89999999999999 162.39999999999998,67.19999999999999 161.35,68.25 160.64999999999998,67.89999999999999 162.75,65.1 163.1,65.8 162.39999999999998,62.3 163.1,59.849999999999994" stroke="#aaa" stroke-width="1" /><polyline fill="none" points="88.19999999999999,89.6 84.69999999999999,92.39999999999999 83.3,92.39999999999999 82.94999999999999,93.1 82.94999999999999,91.35 81.89999999999999,91.69999999999999 80.85,92.75 82.25,91.69999999999999 82.6,92.05 81.55,93.8 79.44999999999999,94.5 77.69999999999999,94.14999999999999 77.0,94.85 75.94999999999999,94.5 77.0,95.19999999999999 77.69999999999999,94.14999999999999 79.8,94.5 83.3,93.1 84.0,93.8 80.14999999999999,95.55 80.14999999999999,96.6 78.39999999999999,99.05 77.69999999999999,98.35 78.39999999999999,98.0 79.44999999999999,95.55 78.75,95.19999999999999 79.1,95.89999999999999 78.39999999999999,97.64999999999999 77.69999999999999,96.94999999999999 78.39999999999999,97.64999999999999 77.35,98.35 78.75,99.39999999999999 78.75,100.44999999999999 77.0,103.25 77.35,105.69999999999999 77.0,103.25 78.05,101.14999999999999 79.1,100.44999999999999 80.14999999999999,101.14999999999999 78.75,100.1 80.14999999999999,95.89999999999999 81.19999999999999,94.85 84.69999999999999,93.44999999999999 84.0,93.8 83.3,93.1 84.35,92.39999999999999 85.39999999999999,92.75 85.05,92.39999999999999 85.75,91.69999999999999 86.8,92.39999999999999 85.39999999999999,93.8 86.8,94.5 86.8,93.44999999999999 86.44999999999999,94.5 85.75,93.8 87.85,91.69999999999999 87.14999999999999,90.64999999999999" stroke="#aaa" stroke-width="1" /><polyline fill="none" points="207.54999999999998,171.5 206.14999999999998,171.85 205.1,173.6 205.1,175.0 207.89999999999998,173.25" stroke="#aaa" stroke-width="1" /><polyline fill="none" points="74.89999999999999,101.5 74.19999999999999,101.5 73.5,102.55 71.05,110.6 71.05,112.0 72.44999999999999,114.8 73.85,115.85 72.1,114.1 72.1,112.35 71.75,112.69999999999999 71.05,112.0 71.75,107.44999999999999 72.44999999999999,106.75 73.85,106.75 73.14999999999999,106.39999999999999 74.19999999999999,103.6 74.89999999999999,102.89999999999999 76.3,103.94999999999999 74.89999999999999,102.89999999999999" stroke="#aaa" stroke-width="1" /><polyline fill="none" points="74.55,186.89999999999998 74.89999999999999,187.6 78.05,187.25 78.75,187.95 81.19999999999999,188.64999999999998 81.89999999999999,189.35 81.55,189.7 81.89999999999999,189.35 82.6,190.04999999999998 85.39999999999999,190.75 86.1,191.45 85.75,193.54999999999998 86.44999999999999,192.85 86.44999999999999,191.79999999999998 88.19999999999999,191.45 88.55,190.75 88.89999999999999,191.1 87.85,190.39999999999998 88.19999999999999,190.04999999999998 87.14999999999999,190.75 87.85,190.39999999999998 88.19999999999999,191.1 86.44999999999999,191.79999999999998 85.75,190.39999999999998 84.69999999999999,190.39999999999998 85.39999999999999,189.7 87.14999999999999,190.04999999999998 88.55,189.35 88.55,188.64999999999998 86.8,190.04999999999998 85.75,189.35 84.35,190.39999999999998 78.39999999999999,187.25 75.25,187.6" stroke="#aaa" stroke-width="1" /><polyline fill="none" points="154.7,62.65 153.64999999999998,64.75 153.64999999999998,66.85 154.7,66.85 154.7,67.89999999999999 156.1,69.64999999999999 156.45,68.6 157.5,68.25 157.85,68.6 156.79999999999998,69.64999999999999 157.14999999999998,70.35 156.79999999999998,70.0 158.89999999999998,66.85 157.85,68.6 156.79999999999998,68.25 156.1,69.3 154.7,67.55 154.7,65.1 155.75,65.1 155.39999999999998,64.05 156.45,62.99999999999999 154.35,65.1 154.0,64.05 155.04999999999998,62.65 155.75,62.65" stroke="#aaa" stroke-width="1" /><polyline fill="none" points="67.55,160.29999999999998 68.25,161.35 68.25,164.85 67.89999999999999,165.2 66.85,163.45 67.19999999999999,162.04999999999998 66.85,163.45 67.89999999999999,165.89999999999998 67.89999999999999,167.29999999999998 68.94999999999999,169.04999999999998 68.94999999999999,170.79999999999998 71.75,174.64999999999998 74.19999999999999,176.39999999999998 74.55,177.45 74.19999999999999,176.04999999999998 72.1,174.64999999999998 68.94999999999999,170.79999999999998 68.94999999999999,168.35 67.55,165.54999999999998 68.25,164.85 70.0,167.64999999999998 70.35,169.75 73.14999999999999,172.54999999999998 73.5,173.6 73.14999999999999,172.89999999999998 73.85,172.54999999999998 73.85,171.14999999999998 73.14999999999999,171.5 73.85,171.5 73.5,172.54999999999998 70.35,169.39999999999998 70.35,168.0 67.89999999999999,164.14999999999998 68.25,160.64999999999998 69.64999999999999,159.95 67.89999999999999,160.64999999999998" stroke="#aaa" stroke-width="1" /><polyline fill="none" points="67.89999999999999,129.15 65.1,134.75 64.39999999999999,138.95 63.699999999999996,139.64999999999998 62.99999999999999,138.95 64.39999999999999,134.04999999999998 64.05,135.1 62.99999999999999,134.39999999999998 62.99999999999999,135.79999999999998 61.949999999999996,137.54999999999998 61.24999999999999,140.7 60.55,141.39999999999998 60.199999999999996,141.04999999999998 60.199999999999996,139.29999999999998 60.199999999999996,141.04999999999998 60.9,141.75 60.9,144.54999999999998 60.199999999999996,145.95 60.199999999999996,148.04999999999998 59.49999999999999,149.1 60.199999999999996,148.75 59.849999999999994,148.39999999999998 60.9,144.54999999999998 60.9,141.04999999999998 63.349999999999994,134.39999999999998 64.05,135.79999999999998 63.349999999999994,136.85 62.99999999999999,139.64999999999998 62.3,140.35 62.65,142.45 61.599999999999994,145.6 61.949999999999996,143.85 62.99999999999999,143.85 64.05,142.45 64.05,141.04999999999998 62.99999999999999,141.39999999999998 62.3,140.35 63.349999999999994,139.29999999999998 64.75,140.35 64.05,139.64999999999998 64.39999999999999,137.2 66.85,131.25 67.55,131.25 66.85,134.39999999999998" stroke="#aaa" stroke-width="1" /><polyline fill="none" points="130.54999999999998,53.55 129.85,54.25 130.2,56.0 128.1,59.849999999999994 125.64999999999999,62.65 125.64999999999999,63.349999999999994 124.6,64.39999999999999 123.55,62.99999999999999 124.6,61.24999999999999 123.89999999999999,61.599999999999994 124.24999999999999,61.949999999999996 123.55,62.99999999999999 124.6,64.39999999999999 123.89999999999999,65.45 116.19999999999999,71.75 113.05,73.14999999999999 116.89999999999999,71.39999999999999 118.99999999999999,69.64999999999999 119.69999999999999,70.69999999999999 118.64999999999999,72.1 120.05,71.05 118.99999999999999,69.64999999999999 123.55,66.14999999999999 125.64999999999999,63.699999999999996 126.35,64.05 122.85,67.89999999999999 123.89999999999999,67.19999999999999 124.24999999999999,67.55 123.89999999999999,67.19999999999999 124.6,65.8 126.69999999999999,63.699999999999996 127.74999999999999,64.05 127.39999999999999,64.75 127.05,64.39999999999999 127.74999999999999,64.75 127.74999999999999,64.05 128.79999999999998,63.699999999999996 129.85,65.45 130.9,66.14999999999999 131.6,65.8 129.5,64.75 130.9,63.699999999999996 130.54999999999998,62.99999999999999 131.25,62.3 129.85,64.39999999999999 128.45,63.349999999999994 129.5,61.949999999999996 129.15,61.599999999999994 129.5,61.949999999999996 127.74999999999999,64.05 127.05,63.349999999999994 128.79999999999998,60.55 129.5,60.55 129.15,60.199999999999996 129.85,58.8 131.25,57.4 131.25,54.599999999999994 131.25,57.05 130.2,58.099999999999994 129.5,57.05 130.2,56.349999999999994 129.85,54.25" stroke="#aaa" stroke-width="1" /><polyline fill="none" points="164.85,55.3 165.54999999999998,55.3 166.95,56.699999999999996 166.95,58.099999999999994 167.29999999999998,57.74999999999999 169.04999999999998,59.49999999999999 168.0,59.849999999999994 167.64999999999998,59.15 168.0,59.849999999999994 169.39999999999998,59.849999999999994 168.35,61.24999999999999 169.04999999999998,60.55 171.85,64.05 172.54999999999998,65.8 174.29999999999998,67.19999999999999 173.6,68.25 172.89999999999998,68.25 173.95,68.25 176.39999999999998,70.69999999999999 176.04999999999998,71.75 176.39999999999998,72.1 176.39999999999998,70.69999999999999 180.25,75.25 189.7,84.35 189.0,85.05 190.04999999999998,84.69999999999999 191.1,86.44999999999999 190.39999999999998,85.39999999999999 191.1,84.69999999999999 190.39999999999998,85.05 187.6,82.25 186.89999999999998,80.85 185.5,80.14999999999999 178.14999999999998,72.1 174.29999999999998,68.94999999999999 173.95,66.5 172.54999999999998,65.45 171.85,63.699999999999996 170.1,61.949999999999996 169.04999999999998,59.15 166.25,55.65" stroke="#aaa" stroke-width="1" /><polyline fill="none" points="67.19999999999999,109.55 66.85,111.3 64.39999999999999,113.39999999999999 63.699999999999996,112.69999999999999 64.75,111.64999999999999 57.74999999999999,116.55 60.55,115.14999999999999 62.65,113.05 64.05,113.05 64.39999999999999,113.74999999999999 63.699999999999996,114.44999999999999 62.99999999999999,114.1 63.699999999999996,114.44999999999999 59.15,120.05 59.15,120.74999999999999 54.949999999999996,124.94999999999999 58.8,121.44999999999999 65.8,112.0 66.85,112.35 66.85,114.1 65.45,116.19999999999999 65.45,117.24999999999999 63.699999999999996,118.99999999999999 62.99999999999999,118.99999999999999 64.05,119.35 62.3,120.39999999999999 62.3,121.44999999999999 62.99999999999999,120.05 63.699999999999996,121.1 61.24999999999999,123.19999999999999 60.9,125.99999999999999 58.8,128.79999999999998 58.449999999999996,132.29999999999998 57.74999999999999,133.0 57.74999999999999,134.39999999999998 56.699999999999996,136.5 56.699999999999996,141.04999999999998 57.4,142.45 56.699999999999996,144.89999999999998 57.05,146.64999999999998 56.349999999999994,147.7 56.699999999999996,149.79999999999998 56.0,153.64999999999998 57.4,156.1 57.05,157.5 59.15,163.79999999999998 58.449999999999996,164.85 58.449999999999996,166.95 59.15,168.0 58.449999999999996,166.95 58.449999999999996,164.85 59.15,163.79999999999998 57.74999999999999,159.95 58.449999999999996,157.14999999999998 58.099999999999994,155.75 58.449999999999996,158.54999999999998 57.4,158.54999999999998 57.4,156.1 56.0,153.64999999999998 56.699999999999996,149.79999999999998 56.349999999999994,147.7 57.05,146.64999999999998 56.699999999999996,144.89999999999998 57.74999999999999,144.54999999999998 57.05,144.2 57.4,142.1 56.699999999999996,141.04999999999998 56.699999999999996,136.5 57.74999999999999,135.1 57.74999999999999,133.35 58.8,130.54999999999998 58.449999999999996,130.2 60.55,127.05 61.599999999999994,122.85 63.349999999999994,121.8 63.349999999999994,120.05 64.05,120.05 64.05,118.99999999999999 64.75,118.3 65.1,120.05 64.75,118.3 66.85,114.1 66.5,111.64999999999999 67.55,109.89999999999999" stroke="#aaa" stroke-width="1" /><polyline fill="none" points="65.1,170.79999999999998 64.75,171.85 66.5,174.29999999999998 65.8,175.0 64.39999999999999,172.89999999999998 65.45,175.0 66.5,174.64999999999998 68.94999999999999,178.5 67.55,176.39999999999998 67.89999999999999,175.7 70.0,178.5 72.44999999999999,180.25 67.89999999999999,175.7 67.55,173.6 65.8,170.45 67.89999999999999,175.0 67.89999999999999,175.7 67.19999999999999,175.7 65.1,171.85" stroke="#aaa" stroke-width="1" /><polyline fill="none" points="162.04999999999998,50.4 161.0,51.099999999999994 160.64999999999998,50.75 161.0,51.099999999999994 160.29999999999998,51.449999999999996 159.25,50.05 160.29999999999998,51.449999999999996 159.6,52.5 159.25,57.74999999999999 158.2,57.05 158.54999999999998,51.449999999999996 157.5,50.4 158.54999999999998,51.8 158.54999999999998,58.099999999999994 157.5,59.15 158.2,61.599999999999994 157.14999999999998,62.99999999999999 157.85,64.05 156.79999999999998,64.05 157.5,64.75 156.79999999999998,65.1 157.5,66.5 157.14999999999998,65.1 157.85,64.05 157.5,62.99999999999999 158.54999999999998,59.49999999999999 158.2,60.55 157.5,59.49999999999999 158.89999999999998,57.74999999999999 159.6,58.099999999999994 159.25,59.49999999999999 159.95,61.949999999999996 158.2,66.5 159.25,65.1 159.95,65.1 158.89999999999998,64.75 159.95,63.699999999999996 159.6,62.3 160.29999999999998,61.949999999999996 159.6,61.24999999999999 159.25,59.49999999999999 159.95,58.8 159.25,56.349999999999994 159.6,52.5 160.29999999999998,51.8 161.0,52.5 161.7,51.8 163.79999999999998,54.25 162.75,52.15 160.29999999999998,51.8 161.7,50.4 162.04999999999998,51.099999999999994" stroke="#aaa" stroke-width="1" /><polyline fill="none" points="74.55,89.6 74.89999999999999,89.94999999999999 73.5,89.6 70.69999999999999,91.0 67.89999999999999,93.1 67.55,91.0 66.85,91.35 67.55,91.35 66.85,94.85 68.25,95.89999999999999 67.55,96.6 67.89999999999999,97.64999999999999 68.6,95.89999999999999 66.85,94.14999999999999 67.55,93.44999999999999 68.6,94.85 70.69999999999999,92.75 70.35,91.69999999999999 71.05,91.0 71.39999999999999,92.39999999999999 71.75,90.64999999999999" stroke="#aaa" stroke-width="1" /><polyline fill="none" points="55.3,125.64999999999999 53.55,127.05 53.9,129.85 52.849999999999994,131.25 52.15,130.9 52.849999999999994,130.2 52.849999999999994,129.15 52.15,129.15 51.8,128.45 51.099999999999994,129.85 49.0,130.2 49.349999999999994,130.9 50.4,130.9 51.099999999999994,131.6 50.75,131.95 51.099999999999994,131.6 49.349999999999994,130.54999999999998 50.05,129.85 50.4,130.2 51.8,129.5 52.5,130.2 51.8,131.25 52.849999999999994,131.6 52.849999999999994,132.65 53.9,134.04999999999998 52.849999999999994,135.1 53.9,134.39999999999998 52.849999999999994,132.29999999999998 53.199999999999996,131.25 53.55,131.95 53.199999999999996,130.9 53.9,130.9 53.55,127.39999999999999 54.949999999999996,125.64999999999999 55.3,126.69999999999999" stroke="#aaa" stroke-width="1" /><polyline fill="none" points="77.0,71.39999999999999 76.3,72.8 74.55,74.19999999999999 74.19999999999999,75.6 72.1,77.69999999999999 71.05,78.05 72.1,77.69999999999999 73.14999999999999,79.44999999999999 72.8,80.14999999999999 73.5,81.55 72.8,84.69999999999999 72.1,85.39999999999999 71.39999999999999,85.05 71.39999999999999,82.6 72.1,82.25 71.75,79.8 72.1,81.89999999999999 71.39999999999999,82.6 70.69999999999999,82.25 70.69999999999999,83.64999999999999 71.05,82.6 71.75,83.3 71.05,85.39999999999999 70.69999999999999,84.35 68.6,84.69999999999999 68.6,85.75 71.39999999999999,86.44999999999999 70.69999999999999,87.14999999999999 66.14999999999999,86.8 64.75,87.5 66.14999999999999,86.8 71.39999999999999,86.8 72.1,87.5 73.85,87.5 74.55,86.8 77.0,86.8 78.39999999999999,85.75 79.44999999999999,85.75 78.39999999999999,85.75 77.0,86.8 75.94999999999999,86.44999999999999 74.19999999999999,86.8 73.5,87.5 72.1,87.5 71.39999999999999,86.1 68.6,85.39999999999999 68.94999999999999,84.69999999999999 70.35,84.69999999999999 71.05,85.39999999999999 72.8,85.05 73.5,82.6 73.14999999999999,80.14999999999999 73.85,79.8 72.8,79.1 72.44999999999999,77.69999999999999 74.19999999999999,75.94999999999999 74.55,76.3 74.55,74.55 76.3,73.14999999999999" stroke="#aaa" stroke-width="1" /><polyline fill="none" points="136.5,41.65 136.14999999999998,43.75 134.39999999999998,46.199999999999996 134.04999999999998,47.949999999999996 132.65,48.3 131.95,50.05 129.15,53.55 128.79999999999998,55.3 126.69999999999999,58.8 124.94999999999999,60.55 123.89999999999999,60.55 125.3,60.55 132.65,48.65 134.04999999999998,48.65 134.39999999999998,46.55 135.79999999999998,45.15 136.85,45.849999999999994 136.85,46.55 137.2,45.5 135.79999999999998,45.15" stroke="#aaa" stroke-width="1" /><polyline fill="none" points="165.54999999999998,44.449999999999996 165.54999999999998,49.349999999999994 163.45,47.599999999999994 163.45,46.199999999999996 162.04999999999998,47.25 162.75,47.599999999999994 163.1,46.199999999999996 163.79999999999998,46.9 163.45,47.949999999999996 164.14999999999998,48.65 163.45,49.349999999999994 163.1,51.449999999999996 163.45,50.4 164.5,51.099999999999994 163.45,50.05 164.14999999999998,48.65 166.25,50.05 165.54999999999998,51.449999999999996 166.95,52.5 167.29999999999998,52.15 169.39999999999998,54.25 169.39999999999998,56.349999999999994 170.1,57.4 169.39999999999998,55.3 170.1,55.3 170.79999999999998,57.05 169.75,54.949999999999996 170.45,53.9 173.25,55.3 171.85,53.9 170.45,53.9 168.0,51.099999999999994 167.64999999999998,51.449999999999996 169.04999999999998,52.15 169.75,53.199999999999996 169.39999999999998,53.55 167.64999999999998,52.15 166.95,52.5 165.89999999999998,51.449999999999996 165.89999999999998,45.15 166.6,44.449999999999996 167.29999999999998,48.65 166.95,50.4 168.35,50.05 167.64999999999998,50.4 166.95,49.699999999999996 167.29999999999998,45.15 166.6,44.449999999999996" stroke="#aaa" stroke-width="1" /><polyline fill="none" points="99.05,48.65 99.39999999999999,49.0 95.89999999999999,51.449999999999996 92.75,54.599999999999994 92.75,55.3 90.3,57.05 91.0,58.449999999999996 89.94999999999999,59.15 89.94999999999999,60.9 91.0,60.9 89.94999999999999,60.55 89.94999999999999,59.49999999999999 91.0,58.449999999999996 90.64999999999999,57.4 92.75,55.65 92.75,54.949999999999996 94.5,52.849999999999994 99.39999999999999,49.349999999999994" stroke="#aaa" stroke-width="1" /><polyline fill="none" points="89.6,190.75 89.94999999999999,191.45 87.14999999999999,193.89999999999998 85.39999999999999,194.6 84.69999999999999,193.89999999999998 84.69999999999999,192.5 82.94999999999999,191.79999999999998 80.5,189.7 77.35,188.64999999999998 74.55,189.0 73.5,187.95 68.6,187.25 66.5,185.5 66.85,184.1 70.35,186.54999999999998 71.75,186.54999999999998 72.1,185.85 73.14999999999999,186.54999999999998 72.8,186.89999999999998 73.5,186.54999999999998 70.0,184.1 70.0,182.35 70.0,183.75 68.94999999999999,184.1 64.05,179.2 64.05,177.79999999999998 63.699999999999996,178.14999999999998 62.99999999999999,176.75 63.699999999999996,176.04999999999998 64.39999999999999,176.75 64.05,176.04999999999998 62.65,176.39999999999998 61.949999999999996,175.7 61.599999999999994,174.29999999999998 62.3,173.6 62.3,172.54999999999998 61.599999999999994,171.85 62.3,172.89999999999998 61.599999999999994,173.95 60.55,173.25 60.55,171.5 59.849999999999994,170.1 60.199999999999996,168.35 59.849999999999994,169.39999999999998 59.15,168.7 60.55,171.5 60.55,173.25 63.349999999999994,177.79999999999998 62.65,178.85 62.3,178.5 63.349999999999994,180.25 64.75,181.29999999999998 62.65,178.85 63.349999999999994,178.14999999999998 65.8,181.64999999999998 68.6,184.1 67.89999999999999,184.79999999999998 66.14999999999999,183.04999999999998 66.85,184.1 66.14999999999999,185.14999999999998 65.45,185.14999999999998 64.39999999999999,183.75 65.1,185.14999999999998 66.14999999999999,185.14999999999998 66.85,185.85 65.45,186.2 65.8,185.85 66.14999999999999,186.54999999999998 66.85,185.85 69.64999999999999,187.6 73.14999999999999,187.95 74.55,189.0 77.35,188.64999999999998 80.14999999999999,189.7 82.6,191.79999999999998 83.64999999999999,191.79999999999998 85.39999999999999,194.6 83.3,195.29999999999998 80.85,197.39999999999998 77.69999999999999,198.1 75.25,200.2 71.39999999999999,201.95 69.3,204.04999999999998 66.85,205.1 60.55,211.39999999999998 60.55,212.1 58.099999999999994,214.54999999999998 56.0,217.7 49.699999999999996,224.0 42.349999999999994,227.49999999999997 39.199999999999996,229.6 31.499999999999996,232.74999999999997 21.0,239.74999999999997 14.7,243.24999999999997 10.5,246.74999999999997 7.0,248.85 0.0,255.49999999999997 0.0,256.55 0.0,255.85 7.35,248.85 10.149999999999999,246.74999999999997 10.85,246.74999999999997 15.049999999999999,243.24999999999997 18.549999999999997,241.49999999999997 31.849999999999998,232.74999999999997 36.05,230.64999999999998 39.55,229.6 43.05,227.14999999999998 44.8,226.79999999999998 50.05,224.0 56.0,218.04999999999998 58.099999999999994,214.89999999999998 60.55,212.45 60.55,211.75 67.19999999999999,205.1 69.64999999999999,204.04999999999998 71.75,201.95 75.6,200.2 78.05,198.1 81.19999999999999,197.39999999999998 83.64999999999999,195.29999999999998 87.5,193.89999999999998 90.3,191.79999999999998" stroke="#aaa" stroke-width="1" /><polyline fill="none" points="171.85,42.0 177.1,50.75 176.04999999999998,51.099999999999994 175.7,50.4 175.7,51.099999999999994 177.1,50.75 176.39999999999998,49.349999999999994 177.1,48.3 178.5,50.05 178.85,51.8 179.89999999999998,52.5 176.39999999999998,47.25 175.7,47.949999999999996 175.0,47.25 175.7,45.849999999999994 176.04999999999998,46.55 175.35,45.15 174.64999999999998,45.849999999999994" stroke="#aaa" stroke-width="1" /><polyline fill="none" points="118.99999999999999,39.199999999999996 117.24999999999999,39.9 115.85,41.3 114.8,41.65 113.74999999999999,40.949999999999996 113.05,42.0 109.89999999999999,44.099999999999994 112.35,42.349999999999994 113.05,43.05 107.44999999999999,47.25 107.44999999999999,45.849999999999994 107.44999999999999,47.25 105.35,48.65 105.0,48.3 103.94999999999999,49.349999999999994 102.55,48.65 101.14999999999999,50.4 102.89999999999999,48.65 103.94999999999999,49.349999999999994 103.94999999999999,50.05 105.0,48.65 105.69999999999999,49.349999999999994 101.14999999999999,53.9 104.64999999999999,50.75 107.1,50.75 104.64999999999999,50.75 109.89999999999999,46.55 112.35,45.5 113.74999999999999,43.75 115.49999999999999,42.699999999999996 116.19999999999999,43.4 115.49999999999999,42.699999999999996 117.6,41.65 116.19999999999999,40.949999999999996" stroke="#aaa" stroke-width="1" /><polyline fill="none" points="102.89999999999999,41.3 101.5,42.349999999999994 100.8,42.0 101.14999999999999,42.349999999999994 98.0,44.8 97.3,44.099999999999994 98.0,44.8 97.64999999999999,45.15 96.25,44.449999999999996 96.94999999999999,45.15 95.19999999999999,46.9 94.85,46.55 94.85,47.25 93.8,47.949999999999996 92.75,47.25 93.44999999999999,47.949999999999996 92.75,48.3 93.1,48.65 91.35,50.05 90.64999999999999,49.699999999999996 91.35,50.05 93.1,49.0 97.3,45.15 98.0,45.5 98.0,46.199999999999996 98.69999999999999,45.15 100.1,46.199999999999996 96.6,47.949999999999996 97.3,47.949999999999996 98.0,46.9 100.1,46.55 101.14999999999999,45.5 102.19999999999999,46.199999999999996 101.5,46.9 100.8,46.55 101.5,46.9 100.44999999999999,47.949999999999996 99.39999999999999,47.949999999999996 100.8,47.949999999999996 102.55,46.199999999999996 103.25,46.9 100.8,48.65 100.8,49.349999999999994 103.25,47.25 103.25,45.849999999999994 102.19999999999999,46.199999999999996 101.5,45.5 102.55,44.8 103.25,45.15 102.55,44.8 103.25,43.75 102.19999999999999,45.15 101.14999999999999,45.5 99.39999999999999,43.75" stroke="#aaa" stroke-width="1" /><polyline fill="none" points="246.74999999999997,143.5 247.45,144.54999999999998 247.79999999999998,148.39999999999998 247.1,151.89999999999998 247.45,152.6 246.39999999999998,154.0 246.74999999999997,155.75 246.04999999999998,158.2 246.39999999999998,157.5 246.74999999999997,158.54999999999998 245.7,159.95 245.7,161.35 244.29999999999998,163.79999999999998 243.24999999999997,164.85 242.54999999999998,164.14999999999998 243.95,162.39999999999998 242.2,164.5 243.24999999999997,164.85 241.14999999999998,167.29999999999998 240.1,166.6 241.49999999999997,164.5 241.49999999999997,163.45 242.89999999999998,162.39999999999998 242.54999999999998,161.7 243.95,160.64999999999998 244.29999999999998,159.25 243.95,160.29999999999998 242.54999999999998,161.35 242.54999999999998,162.39999999999998 241.85,162.75 237.64999999999998,171.14999999999998 236.95,171.5 235.89999999999998,170.1 234.49999999999997,170.79999999999998 232.74999999999997,172.89999999999998 230.99999999999997,172.89999999999998 232.74999999999997,172.89999999999998 235.2,170.45 236.6,170.79999999999998 232.39999999999998,174.64999999999998 230.99999999999997,175.35 230.64999999999998,175.0 227.85,176.75 227.14999999999998,178.5 225.74999999999997,179.89999999999998 224.0,180.6 222.25,180.25 224.35,180.25 224.7,181.29999999999998 224.7,180.6 227.14999999999998,178.85 228.54999999999998,176.39999999999998 232.74999999999997,174.64999999999998 236.6,171.14999999999998 237.29999999999998,171.14999999999998 237.64999999999998,172.2 234.85,173.95 237.29999999999998,172.89999999999998 238.7,168.7 239.74999999999997,167.64999999999998 241.49999999999997,170.1 240.45,168.7 244.64999999999998,163.45 245.7,161.35 245.7,159.95 246.74999999999997,158.54999999999998 246.39999999999998,154.0 247.45,152.6 247.1,151.89999999999998 247.79999999999998,148.39999999999998 248.49999999999997,148.04999999999998 248.85,148.75 249.54999999999998,148.75 248.85,148.04999999999998 247.45,148.04999999999998 247.79999999999998,146.64999999999998" stroke="#aaa" stroke-width="1" /><polyline fill="none" points="177.1,37.099999999999994 179.54999999999998,39.9 178.5,39.9 179.89999999999998,39.9 182.35,42.349999999999994 182.35,43.05 186.89999999999998,47.949999999999996 187.25,49.349999999999994 190.39999999999998,52.15 190.75,53.55 190.04999999999998,54.25 189.35,53.55 191.1,56.0 191.79999999999998,55.65 192.5,56.349999999999994 193.2,54.949999999999996 192.5,55.65 191.45,54.949999999999996 190.39999999999998,51.8 187.25,49.0 186.89999999999998,47.599999999999994 182.35,42.699999999999996 182.35,42.0 179.2,39.199999999999996 178.85,38.15 178.5,38.5" stroke="#aaa" stroke-width="1" /><polyline fill="none" points="223.29999999999998,77.69999999999999 224.0,79.44999999999999 227.49999999999997,83.64999999999999 227.14999999999998,84.35 227.49999999999997,84.0 229.95,86.44999999999999 231.7,89.6 232.04999999999998,92.39999999999999 234.49999999999997,95.89999999999999 232.04999999999998,92.05 230.99999999999997,87.85 226.79999999999998,82.94999999999999 225.39999999999998,80.5 226.1,79.8 227.14999999999998,81.19999999999999 226.79999999999998,80.14999999999999 225.74999999999997,79.44999999999999 225.39999999999998,80.5" stroke="#aaa" stroke-width="1" /><polyline fill="none" points="116.55,37.099999999999994 114.44999999999999,38.5 112.69999999999999,38.5 110.6,39.55 109.89999999999999,39.199999999999996 110.6,38.5 109.19999999999999,38.5 109.55,38.849999999999994 108.14999999999999,40.25 107.44999999999999,39.199999999999996 107.8,39.9 107.1,40.599999999999994 109.55,38.849999999999994 110.25,39.55 107.44999999999999,41.65 105.35,40.949999999999996 103.25,42.0 103.25,42.699999999999996 103.94999999999999,42.699999999999996 103.25,42.349999999999994 103.94999999999999,41.65 106.05,40.949999999999996 106.75,41.65 104.64999999999999,43.4 110.6,39.55 115.49999999999999,38.15" stroke="#aaa" stroke-width="1" /><polyline fill="none" points="184.1,41.3 184.79999999999998,41.3 186.89999999999998,43.4 187.6,43.4 189.7,45.5 190.75,45.849999999999994 198.79999999999998,54.949999999999996 198.1,55.3 197.39999999999998,54.599999999999994 198.1,55.3 199.14999999999998,54.949999999999996 190.39999999999998,45.5 185.14999999999998,41.3" stroke="#aaa" stroke-width="1" /><polyline fill="none" points="114.1,34.65 112.35,34.65 112.0,35.349999999999994 109.89999999999999,35.699999999999996 108.14999999999999,37.099999999999994 106.39999999999999,37.449999999999996 105.69999999999999,38.15 105.35,37.8 104.64999999999999,38.849999999999994 102.55,38.15 103.6,38.5 103.6,39.199999999999996 98.0,42.0 96.6,43.4 91.35,46.55 87.14999999999999,50.75 86.1,51.099999999999994 83.3,55.3 86.1,51.449999999999996 87.5,50.75 90.64999999999999,47.599999999999994 92.05,48.3 92.05,47.599999999999994 91.69999999999999,48.3 90.64999999999999,47.599999999999994 94.14999999999999,44.8 94.85,44.8 98.35,42.0 99.75,41.65 102.89999999999999,39.55 103.94999999999999,40.25 103.6,40.949999999999996 103.94999999999999,40.25 104.3,40.599999999999994 103.25,39.55 106.05,38.15 106.39999999999999,37.449999999999996 107.1,37.8 107.44999999999999,37.099999999999994 110.25,35.699999999999996" stroke="#aaa" stroke-width="1" /><polyline fill="none" points="107.1,229.24999999999997 106.39999999999999,231.7 108.14999999999999,234.49999999999997 108.14999999999999,237.29999999999998 107.8,238.35 106.75,239.04999999999998 106.05,237.99999999999997 106.75,239.04999999999998 106.05,240.1 108.14999999999999,244.64999999999998 106.75,246.74999999999997 104.3,247.79999999999998 103.25,246.74999999999997 103.25,245.7 102.89999999999999,246.39999999999998 104.3,247.79999999999998 103.6,248.49999999999997 103.94999999999999,248.85 103.6,248.49999999999997 104.64999999999999,247.79999999999998 105.69999999999999,249.54999999999998 105.0,247.79999999999998 107.44999999999999,246.39999999999998 108.5,244.29999999999998 107.44999999999999,243.6 107.44999999999999,242.54999999999998 106.39999999999999,240.79999999999998 106.39999999999999,239.74999999999997 107.8,238.7 108.14999999999999,234.14999999999998 107.44999999999999,233.79999999999998 107.44999999999999,232.74999999999997 106.39999999999999,231.7 107.1,230.64999999999998" stroke="#aaa" stroke-width="1" /><polyline fill="none" points="95.55,38.849999999999994 92.39999999999999,39.55 95.19999999999999,38.849999999999994 95.19999999999999,39.9 91.69999999999999,40.949999999999996 89.94999999999999,42.349999999999994 88.89999999999999,42.0 89.6,42.349999999999994 86.1,45.5 85.05,45.15 85.75,45.5 82.6,49.699999999999996 80.14999999999999,51.8 79.8,51.449999999999996 80.14999999999999,52.15 78.75,53.55 77.35,53.55 78.39999999999999,54.599999999999994 79.44999999999999,54.599999999999994 85.39999999999999,48.3 84.0,49.349999999999994 83.3,49.0 84.35,47.25 91.0,41.65 91.35,42.349999999999994 86.8,46.199999999999996 91.0,42.699999999999996 94.5,40.949999999999996 92.39999999999999,42.0 91.69999999999999,41.3 94.14999999999999,39.9 95.19999999999999,39.9 95.19999999999999,40.599999999999994 95.89999999999999,40.949999999999996 92.39999999999999,43.75 91.0,44.099999999999994 90.3,45.15 89.25,45.15 88.55,45.849999999999994 88.89999999999999,46.55 87.85,47.599999999999994 86.8,46.9 87.85,47.599999999999994 84.69999999999999,50.4 85.05,50.75 83.64999999999999,52.5 82.94999999999999,52.15 84.0,52.5 85.05,50.75 84.69999999999999,50.4 86.44999999999999,48.65 87.5,48.65 87.14999999999999,48.3 88.55,47.25 88.55,46.199999999999996 89.6,45.15 91.0,45.849999999999994 96.25,42.349999999999994 92.39999999999999,44.8 91.35,44.099999999999994 92.75,43.75 94.5,42.0 95.89999999999999,41.65" stroke="#aaa" stroke-width="1" /><polyline fill="none" points="202.64999999999998,46.9 205.1,49.699999999999996 208.25,51.449999999999996 207.89999999999998,52.5 206.85,52.15 206.85,51.449999999999996 206.85,52.15 209.64999999999998,54.599999999999994 208.95,54.949999999999996 209.64999999999998,55.65 209.29999999999998,54.949999999999996 210.0,54.599999999999994 213.5,57.05 213.14999999999998,58.099999999999994 212.1,57.74999999999999 214.54999999999998,59.849999999999994 213.5,60.55 211.75,59.15 212.45,58.8 211.75,58.8 210.35,57.4 211.04999999999998,57.05 211.04999999999998,56.349999999999994 210.35,56.699999999999996 210.35,57.74999999999999 213.5,60.55 214.54999999999998,59.849999999999994 222.25,67.19999999999999 222.95,67.19999999999999 224.35,68.6 223.64999999999998,68.94999999999999 224.35,68.6 227.14999999999998,72.1 226.45,71.05 227.14999999999998,70.35 226.45,68.25 227.14999999999998,70.35 226.45,71.05 223.64999999999998,67.55 219.45,64.39999999999999 213.14999999999998,58.099999999999994 213.5,56.699999999999996 210.0,54.599999999999994 207.89999999999998,52.5 208.6,51.449999999999996 205.45,49.699999999999996" stroke="#aaa" stroke-width="1" /><polyline fill="none" points="112.35,33.25 109.89999999999999,34.3 108.85,33.949999999999996 109.55,33.25 110.25,33.25 108.85,33.599999999999994 109.19999999999999,34.3 108.5,35.0 107.8,34.3 106.39999999999999,35.349999999999994 106.05,34.65 105.35,35.0 106.05,35.0 106.05,35.699999999999996 108.14999999999999,34.65 108.5,35.0 107.8,35.699999999999996 104.3,37.449999999999996 102.89999999999999,37.449999999999996 102.19999999999999,36.75 102.55,36.4 103.94999999999999,36.4 105.0,35.699999999999996 105.35,36.05 105.0,35.699999999999996 103.6,36.4 103.6,35.349999999999994 105.69999999999999,33.599999999999994 107.44999999999999,33.599999999999994 106.05,33.949999999999996 105.35,33.25 107.44999999999999,31.499999999999996 98.0,38.15 92.39999999999999,38.5 96.6,38.15 97.3,39.55 98.35,39.9 99.05,38.5 100.44999999999999,38.15 101.5,37.099999999999994 98.35,38.849999999999994 98.0,39.9 97.3,38.5 100.8,36.75 104.64999999999999,33.25 105.69999999999999,33.599999999999994 102.19999999999999,36.4 102.89999999999999,37.449999999999996 104.64999999999999,37.449999999999996 108.14999999999999,35.699999999999996 109.19999999999999,34.3" stroke="#aaa" stroke-width="1" /><polyline fill="none" points="240.45,118.3 243.6,119.35 247.1,119.35 247.79999999999998,117.94999999999999 248.85,117.94999999999999 251.29999999999998,119.35 249.54999999999998,120.05 248.49999999999997,119.69999999999999 248.85,120.05 248.14999999999998,120.39999999999999 251.29999999999998,119.35 252.7,119.69999999999999 251.99999999999997,120.74999999999999 249.2,121.1 253.04999999999998,120.39999999999999 254.79999999999998,118.99999999999999 253.39999999999998,118.64999999999999 251.29999999999998,119.35 250.6,118.64999999999999 251.29999999999998,117.24999999999999 251.29999999999998,117.94999999999999 250.24999999999997,118.64999999999999 248.14999999999998,117.24999999999999 248.85,116.19999999999999 248.14999999999998,116.89999999999999 248.49999999999997,117.6 247.45,117.94999999999999 246.39999999999998,116.55 245.35,113.39999999999999 244.99999999999997,114.1 245.35,113.74999999999999 246.04999999999998,114.8 245.7,116.55 247.1,117.6 247.45,118.99999999999999 243.6,119.35" stroke="#aaa" stroke-width="1" /><polyline fill="none" points="90.3,221.54999999999998 90.64999999999999,222.25 89.94999999999999,223.29999999999998 87.14999999999999,222.95 85.75,223.64999999999998 84.0,223.64999999999998 82.94999999999999,225.04999999999998 83.3,226.1 82.6,226.79999999999998 81.19999999999999,226.79999999999998 80.14999999999999,227.49999999999997 79.1,226.79999999999998 79.44999999999999,227.14999999999998 78.75,227.85 78.05,230.99999999999997 76.3,231.7 75.25,233.1 74.55,232.74999999999997 75.25,233.45 75.25,235.2 73.14999999999999,237.29999999999998 71.05,237.99999999999997 71.05,238.7 71.39999999999999,237.64999999999998 72.44999999999999,239.04999999999998 72.1,240.45 70.69999999999999,241.85 69.64999999999999,241.49999999999997 70.0,241.85 68.6,242.54999999999998 69.64999999999999,244.29999999999998 67.55,248.85 69.3,246.04999999999998 69.64999999999999,244.29999999999998 68.6,242.54999999999998 70.0,241.85 70.35,243.6 70.69999999999999,241.85 72.1,240.79999999999998 72.1,237.99999999999997 75.25,235.54999999999998 75.25,233.1 77.0,231.35 80.5,230.29999999999998 81.55,228.54999999999998 82.94999999999999,228.54999999999998 82.6,227.85 82.6,228.54999999999998 81.55,228.2 80.5,230.29999999999998 78.39999999999999,230.99999999999997 78.05,230.29999999999998 78.75,229.6 79.1,227.49999999999997 82.94999999999999,226.79999999999998 85.05,224.7 84.0,225.74999999999997 82.94999999999999,225.39999999999998 84.35,223.64999999999998 86.1,223.64999999999998 87.14999999999999,222.95 90.3,223.64999999999998" stroke="#aaa" stroke-width="1" /><polyline fill="none" points="237.29999999999998,83.64999999999999 236.95,84.35 238.35,87.14999999999999 238.35,88.55 241.14999999999998,92.75 240.79999999999998,93.8 241.85,95.89999999999999 241.49999999999997,96.6 240.1,94.5 239.74999999999997,92.05 238.7,91.35 239.74999999999997,92.39999999999999 240.45,95.55 241.14999999999998,96.6 241.85,96.25 242.89999999999998,97.3 241.14999999999998,94.85 241.49999999999997,93.8 242.54999999999998,94.85 242.54999999999998,95.89999999999999 242.89999999999998,94.85 244.99999999999997,98.0 244.64999999999998,99.75 244.99999999999997,97.64999999999999 243.95,96.94999999999999 243.24999999999997,94.5 242.54999999999998,94.85 241.14999999999998,93.1 238.35,88.19999999999999 236.95,84.0" stroke="#aaa" stroke-width="1" /><polyline fill="none" points="226.79999999999998,66.14999999999999 227.49999999999997,66.85 227.49999999999997,68.6 230.29999999999998,72.1 230.29999999999998,72.8 229.6,73.14999999999999 230.29999999999998,77.0 230.29999999999998,76.3 230.99999999999997,76.3 230.99999999999997,75.25 230.64999999999998,75.94999999999999 229.95,75.6 229.6,73.5 230.64999999999998,72.8 230.64999999999998,74.19999999999999 230.99999999999997,73.14999999999999 231.7,74.55 236.6,79.8 235.89999999999998,80.5 236.6,79.8 239.39999999999998,83.3 238.7,83.64999999999999 237.99999999999997,82.94999999999999 238.7,84.0 239.39999999999998,83.3 240.79999999999998,84.35 240.45,85.05 241.49999999999997,86.1 240.79999999999998,86.8 241.49999999999997,86.1 241.49999999999997,88.19999999999999 241.85,87.14999999999999 242.54999999999998,87.85 242.54999999999998,89.6 241.85,90.3 240.79999999999998,89.94999999999999 240.79999999999998,90.64999999999999 241.14999999999998,89.94999999999999 241.85,90.64999999999999 242.2,93.1 242.2,89.94999999999999 243.24999999999997,93.1 242.2,89.94999999999999 242.54999999999998,87.85 241.14999999999998,85.39999999999999 241.49999999999997,85.05 240.45,85.05 241.14999999999998,84.35 240.45,83.64999999999999 241.14999999999998,83.3 240.1,83.64999999999999 238.35,81.89999999999999 239.39999999999998,80.85 240.79999999999998,82.6 241.49999999999997,82.6 240.1,81.55 240.79999999999998,80.85 240.1,81.55 239.04999999999998,80.5 238.35,81.55 233.45,75.6 233.79999999999998,75.25 233.1,75.6 231.7,74.55 231.35,73.14999999999999 230.29999999999998,72.44999999999999 229.24999999999997,70.0 227.49999999999997,68.25 227.49999999999997,66.5" stroke="#aaa" stroke-width="1" /><polyline fill="none" points="198.45,42.0 198.45,42.699999999999996 199.85,44.099999999999994 199.5,44.8 198.1,43.4 199.5,44.8 200.2,44.099999999999994 201.6,44.8 203.7,46.9 204.75,46.9 206.85,49.0 206.5,49.349999999999994 207.2,48.65 210.0,49.349999999999994 219.45,58.449999999999996 218.39999999999998,57.05 218.39999999999998,55.65 217.7,54.949999999999996 218.75,56.349999999999994 218.39999999999998,57.05 215.25,54.25 215.95,52.849999999999994 217.0,53.9 217.7,53.55 219.45,55.3 219.79999999999998,57.4 221.54999999999998,59.849999999999994 221.2,61.949999999999996 222.25,62.99999999999999 221.89999999999998,63.349999999999994 222.25,62.99999999999999 223.29999999999998,64.05 221.2,61.599999999999994 221.54999999999998,60.199999999999996 222.6,61.949999999999996 226.1,65.45 222.6,61.599999999999994 221.2,58.8 220.14999999999998,58.099999999999994 219.45,54.949999999999996 218.39999999999998,53.9 217.0,53.55 215.95,52.5 215.25,53.55 214.2,53.199999999999996 212.1,51.099999999999994 212.45,50.75 211.39999999999998,50.75 208.6,48.65 207.54999999999998,46.55 208.25,48.3 207.89999999999998,48.65 206.85,47.949999999999996 207.54999999999998,48.3 206.5,48.65 204.04999999999998,44.449999999999996 203.35,44.099999999999994 203.35,45.15 203.7,44.449999999999996 205.1,45.849999999999994 205.1,46.55 204.39999999999998,46.9 201.95,44.8 200.54999999999998,44.449999999999996" stroke="#aaa" stroke-width="1" /><polyline fill="none" points="182.0,33.599999999999994 184.1,34.65 189.35,35.699999999999996 190.04999999999998,36.4 188.29999999999998,37.449999999999996 190.04999999999998,37.449999999999996 189.35,37.099999999999994 190.04999999999998,36.4 191.79999999999998,36.75 192.85,37.8 191.79999999999998,38.5 190.75,37.449999999999996 191.1,38.15 190.39999999999998,38.849999999999994 191.45,38.15 193.2,40.25 192.14999999999998,38.849999999999994 192.85,37.8 196.7,40.599999999999994 198.1,40.599999999999994 200.2,42.349999999999994 201.95,42.699999999999996 202.64999999999998,43.4 201.95,44.099999999999994 200.89999999999998,43.4 201.95,44.099999999999994 202.64999999999998,43.4 201.95,42.699999999999996 203.0,42.0 201.25,42.699999999999996 199.14999999999998,40.949999999999996 196.35,40.25 192.14999999999998,36.75 185.85,34.65 184.1,34.65 183.04999999999998,33.599999999999994" stroke="#aaa" stroke-width="1" /><polyline fill="none" points="162.75,22.75 162.39999999999998,21.7 161.35,21.0 161.7,20.299999999999997 160.64999999999998,20.299999999999997 158.89999999999998,19.25 157.14999999999998,19.25 156.1,18.549999999999997 149.45,18.9 145.6,20.65 144.54999999999998,20.65 142.79999999999998,22.4 141.04999999999998,22.4 140.7,23.099999999999998 136.85,24.5 135.45,24.5 133.7,25.9 131.95,25.9 130.54999999999998,24.849999999999998 131.95,25.9 131.25,26.599999999999998 123.55,30.45 121.8,30.45 120.74999999999999,29.4 121.44999999999999,28.7 122.14999999999999,28.7 122.14999999999999,29.4 125.3,28.7 124.24999999999999,28.7 123.55,29.4 122.49999999999999,28.7 123.89999999999999,27.299999999999997 124.24999999999999,27.65 125.64999999999999,25.9 128.45,24.849999999999998 127.74999999999999,24.5 127.74999999999999,25.2 125.99999999999999,25.549999999999997 125.3,26.25 124.24999999999999,25.549999999999997 121.1,25.9 120.39999999999999,26.599999999999998 121.44999999999999,25.9 123.89999999999999,25.549999999999997 124.94999999999999,26.599999999999998 122.49999999999999,28.7 121.1,28.7 120.74999999999999,30.099999999999998 119.35,30.799999999999997 117.24999999999999,30.45 118.3,30.799999999999997 116.55,31.849999999999998 115.14999999999999,31.499999999999996 116.55,32.199999999999996 115.14999999999999,32.9 119.69999999999999,32.55 116.55,32.199999999999996 118.3,30.799999999999997 120.39999999999999,30.45 121.1,29.749999999999996 121.8,30.45 123.55,30.45 125.64999999999999,29.4 127.05,29.749999999999996 125.99999999999999,29.4 126.69999999999999,28.7 132.29999999999998,25.9 133.0,26.25 135.79999999999998,24.5 137.2,24.5 138.95,23.45 142.1,22.75 144.54999999999998,20.65 145.6,20.65 149.45,18.9 155.04999999999998,18.549999999999997 158.89999999999998,19.25 161.35,21.0 160.64999999999998,21.7 157.5,19.95 156.45,20.299999999999997 154.0,19.25 152.25,19.599999999999998 156.45,20.299999999999997 157.5,19.95 159.95,21.349999999999998 162.39999999999998,23.799999999999997 160.64999999999998,21.7 161.35,21.0" stroke="#aaa" stroke-width="1" /><polyline fill="none" points="267.75,148.04999999999998 264.25,148.75 263.9,148.04999999999998 264.59999999999997,147.0 267.05,147.35 264.25,147.35 261.8,146.29999999999998 259.7,146.64999999999998 258.3,145.6 259.0,143.5 261.09999999999997,143.85 263.2,143.14999999999998 261.09999999999997,143.5 260.4,142.79999999999998 262.84999999999997,141.75 259.34999999999997,142.79999999999998 260.4,142.79999999999998 261.09999999999997,143.5 260.75,143.85 258.65,143.85 258.3,145.95 259.7,147.0 259.0,148.04999999999998 257.95,147.0 255.49999999999997,146.64999999999998 251.64999999999998,144.54999999999998 249.54999999999998,142.79999999999998 249.89999999999998,142.45 249.2,142.79999999999998 248.14999999999998,142.1 248.49999999999997,142.45 247.79999999999998,143.14999999999998 248.49999999999997,144.54999999999998 248.14999999999998,144.89999999999998 249.2,144.89999999999998 248.49999999999997,145.6 249.2,145.6 248.49999999999997,147.0 249.54999999999998,146.64999999999998 248.85,145.25 249.89999999999998,144.2 249.2,144.89999999999998 247.79999999999998,143.85 248.85,142.45 251.29999999999998,144.54999999999998 255.14999999999998,146.64999999999998 257.95,147.0 258.65,148.04999999999998 260.05,146.64999999999998 261.8,146.29999999999998 263.9,147.0 264.25,147.7 263.55,148.75 263.2,147.7 262.5,148.75 260.4,148.04999999999998 261.8,148.75 261.8,149.79999999999998 261.45,149.1 262.84999999999997,148.39999999999998 265.65,148.75" stroke="#aaa" stroke-width="1" /><polyline fill="none" points="184.79999999999998,33.949999999999996 186.89999999999998,33.949999999999996 187.95,34.65 196.7,36.75 197.75,37.449999999999996 196.7,38.5 197.39999999999998,39.55 197.39999999999998,38.849999999999994 198.1,38.5 198.45,39.55 198.79999999999998,39.199999999999996 199.85,40.25 201.95,40.25 204.75,41.65 205.1,41.3 204.04999999999998,41.3 202.29999999999998,40.25 200.89999999999998,40.599999999999994 197.39999999999998,37.8 199.85,37.8 203.7,40.25 205.79999999999998,40.25 210.35,43.75 210.7,43.05 213.14999999999998,42.699999999999996 213.14999999999998,40.949999999999996 210.7,39.9 208.6,39.9 210.7,39.9 212.45,40.599999999999994 213.14999999999998,41.65 212.1,42.0 205.1,39.199999999999996 206.5,39.55 207.54999999999998,40.599999999999994 213.14999999999998,42.349999999999994 212.1,43.05 210.0,43.05 205.79999999999998,40.25 204.04999999999998,40.25 202.64999999999998,39.199999999999996 203.0,38.5 202.64999999999998,39.199999999999996 200.89999999999998,38.15 197.75,37.449999999999996 197.04999999999998,36.75 190.75,35.349999999999994 189.7,34.65 187.95,34.65 186.89999999999998,33.949999999999996" stroke="#aaa" stroke-width="1" /><polyline fill="none" points="204.39999999999998,36.75 202.29999999999998,37.8 201.25,36.75 199.14999999999998,36.75 192.5,34.3 194.25,33.25 192.85,33.599999999999994 192.5,34.3 188.64999999999998,33.949999999999996 186.2,32.9 183.39999999999998,32.9 179.2,30.799999999999997 179.54999999999998,29.4 180.6,30.099999999999998 180.6,30.799999999999997 181.29999999999998,30.799999999999997 180.25,29.749999999999996 180.6,27.65 182.7,26.599999999999998 183.75,27.299999999999997 183.04999999999998,28.0 181.29999999999998,28.349999999999998 183.75,27.65 183.04999999999998,26.599999999999998 183.75,25.9 186.54999999999998,25.9 189.7,23.799999999999997 186.2,25.9 184.79999999999998,25.549999999999997 185.85,24.5 192.5,21.349999999999998 185.14999999999998,24.849999999999998 184.1,25.9 180.25,27.65 179.89999999999998,28.349999999999998 178.5,26.95 175.0,26.95 172.54999999999998,27.65 171.85,27.299999999999997 169.04999999999998,23.45 169.04999999999998,22.75 167.29999999999998,21.7 168.35,22.4 167.64999999999998,23.099999999999998 165.54999999999998,23.099999999999998 165.89999999999998,23.799999999999997 167.64999999999998,23.099999999999998 168.0,23.799999999999997 167.29999999999998,24.5 164.5,24.5 163.79999999999998,23.799999999999997 164.5,23.099999999999998 164.85,23.45 163.79999999999998,23.45 164.5,24.849999999999998 167.29999999999998,24.5 169.39999999999998,26.95 169.75,25.549999999999997 169.04999999999998,24.849999999999998 169.75,25.549999999999997 169.39999999999998,26.25 167.64999999999998,24.15 169.04999999999998,23.45 169.04999999999998,24.15 172.2,27.65 172.54999999999998,29.049999999999997 174.64999999999998,29.049999999999997 180.6,31.499999999999996 181.64999999999998,32.55 182.35,32.199999999999996 184.1,33.25 186.2,32.9 188.64999999999998,33.949999999999996 193.89999999999998,34.65 194.6,35.349999999999994 198.79999999999998,36.75 200.2,36.4 200.89999999999998,37.099999999999994 200.54999999999998,37.449999999999996 201.6,37.099999999999994 201.6,37.8 204.04999999999998,37.8 203.7,37.449999999999996" stroke="#aaa" stroke-width="1" /><polyline fill="none" points="134.39999999999998,21.7 137.54999999999998,21.0 138.6,19.95 137.54999999999998,20.65 136.85,19.95 135.79999999999998,19.95 134.39999999999998,21.0" stroke="#aaa" stroke-width="1" /><polyline fill="none" points="214.54999999999998,191.79999999999998 214.54999999999998,192.85 215.95,192.85 218.39999999999998,195.29999999999998 221.54999999999998,196.35 222.95,197.75 222.95,198.45 226.1,200.54999999999998 228.89999999999998,203.7 228.89999999999998,204.39999999999998 232.04999999999998,207.2 233.79999999999998,211.04999999999998 236.24999999999997,214.54999999999998 236.95,218.75 237.99999999999997,219.79999999999998 240.1,220.14999999999998 241.85,221.2 243.6,221.2 244.99999999999997,222.6 248.85,223.29999999999998 250.95,225.04999999999998 255.49999999999997,226.1 256.9,227.14999999999998 263.9,229.6 268.09999999999997,232.04999999999998 271.59999999999997,232.74999999999997 275.09999999999997,234.49999999999997 276.84999999999997,234.49999999999997 279.65,235.89999999999998 276.84999999999997,234.49999999999997 275.09999999999997,234.49999999999997 271.95,232.74999999999997 269.15,232.39999999999998 255.85,226.1 254.45,226.1 251.29999999999998,225.04999999999998 248.85,223.29999999999998 245.35,222.6 243.6,221.2 241.85,221.2 240.45,220.14999999999998 238.35,219.79999999999998 236.95,218.39999999999998 236.24999999999997,214.2 233.79999999999998,210.7 231.7,206.5 232.04999999999998,206.14999999999998 231.35,206.5 228.89999999999998,204.04999999999998 228.89999999999998,203.35 227.14999999999998,201.25 223.64999999999998,198.79999999999998 221.89999999999998,196.35 218.75,195.29999999999998 218.04999999999998,194.6 218.39999999999998,194.25 218.04999999999998,194.6 216.64999999999998,193.2 217.0,192.14999999999998 218.75,190.75 220.14999999999998,190.39999999999998 218.39999999999998,190.75 217.0,192.14999999999998 215.6,191.45 216.64999999999998,192.14999999999998 216.29999999999998,193.2" stroke="#aaa" stroke-width="1" /><polyline fill="none" points="208.95,238.7 208.6,239.74999999999997 209.64999999999998,241.14999999999998 210.35,241.14999999999998 210.35,239.74999999999997 211.04999999999998,239.39999999999998 210.35,238.7" stroke="#aaa" stroke-width="1" /><polyline fill="none" points="79.44999999999999,233.45 78.05,234.85 77.0,234.49999999999997 78.05,234.85 75.94999999999999,236.6 75.6,237.99999999999997 74.55,237.29999999999998 75.25,238.35 75.94999999999999,237.64999999999998 76.64999999999999,239.39999999999998 75.6,240.45 75.25,239.74999999999997 75.6,240.45 73.85,242.2 73.85,243.6 74.89999999999999,245.35 71.39999999999999,248.49999999999997 70.69999999999999,248.14999999999998 70.69999999999999,246.39999999999998 71.39999999999999,246.04999999999998 71.75,247.1 71.75,246.04999999999998 70.69999999999999,246.04999999999998 70.69999999999999,248.49999999999997 72.1,250.24999999999997 71.05,250.95 71.75,250.95 72.1,250.24999999999997 72.44999999999999,250.95 73.14999999999999,250.95 73.14999999999999,249.89999999999998 72.8,250.95 72.1,250.24999999999997 72.44999999999999,249.89999999999998 72.1,250.24999999999997 71.39999999999999,249.54999999999998 71.75,248.85 72.44999999999999,248.85 71.39999999999999,248.49999999999997 74.89999999999999,245.35 73.85,243.6 73.85,242.54999999999998 76.64999999999999,239.39999999999998 75.94999999999999,236.95 79.44999999999999,233.79999999999998 79.8,234.14999999999998" stroke="#aaa" stroke-width="1" /><polyline fill="none" points="108.85,245.35 108.5,246.39999999999998 109.19999999999999,246.39999999999998 110.25,248.49999999999997 110.25,250.95 111.64999999999999,251.99999999999997 112.0,253.04999999999998 111.3,253.39999999999998 109.19999999999999,252.35 110.25,251.64999999999998 108.85,251.64999999999998 109.55,250.95 109.19999999999999,249.89999999999998 109.55,250.6 108.85,251.64999999999998 107.44999999999999,252.35 109.19999999999999,252.35 108.14999999999999,253.39999999999998 107.44999999999999,253.04999999999998 107.8,253.39999999999998 107.1,254.1 106.39999999999999,253.39999999999998 107.1,254.45 105.35,258.3 105.35,259.7 106.39999999999999,261.45 105.69999999999999,262.15 105.69999999999999,264.59999999999997 107.44999999999999,266.7 105.69999999999999,264.25 105.69999999999999,262.15 107.1,261.09999999999997 107.44999999999999,261.45 107.44999999999999,264.95 108.5,266.34999999999997 108.14999999999999,267.4 108.5,266.34999999999997 110.25,266.7 111.64999999999999,268.09999999999997 112.35,270.2 113.74999999999999,271.25 114.44999999999999,272.65 115.14999999999999,275.79999999999995 114.8,277.54999999999995 115.14999999999999,276.15 115.85,277.54999999999995 115.49999999999999,279.65 115.85,278.59999999999997 117.24999999999999,279.65 115.49999999999999,277.9 115.85,277.2 114.8,275.45 113.74999999999999,271.25 112.0,269.5 111.64999999999999,267.75 110.6,266.7 109.19999999999999,266.7 107.44999999999999,264.59999999999997 107.44999999999999,261.45 107.1,260.75 106.75,261.45 105.35,259.7 105.35,258.3 107.1,254.45 108.5,253.04999999999998 109.89999999999999,252.7 110.25,253.39999999999998 109.55,253.74999999999997 110.6,253.04999999999998 114.44999999999999,255.49999999999997 116.19999999999999,258.3 116.19999999999999,259.0 115.49999999999999,259.34999999999997 116.55,260.4 115.85,259.34999999999997 116.19999999999999,257.95 114.44999999999999,255.14999999999998 111.64999999999999,253.39999999999998 112.69999999999999,252.7 110.25,250.6 110.25,248.14999999999998" stroke="#aaa" stroke-width="1" /><polyline fill="none" points="214.2,40.599999999999994 215.25,41.3 213.85,41.3 215.6,43.05 218.04999999999998,44.099999999999994 218.39999999999998,44.8 219.1,44.099999999999994 218.39999999999998,44.449999999999996 217.0,43.75 214.89999999999998,41.65 215.25,41.3 218.75,43.4 219.79999999999998,43.05 221.89999999999998,45.15 221.54999999999998,45.5 221.89999999999998,45.15 224.7,46.9 224.35,47.599999999999994 223.29999999999998,47.25 223.64999999999998,47.599999999999994 224.7,47.599999999999994 224.7,46.55 223.29999999999998,46.199999999999996 220.5,43.4 217.7,43.05" stroke="#aaa" stroke-width="1" /><polyline fill="none" points="217.7,222.6 217.35,223.64999999999998 218.75,223.64999999999998 219.79999999999998,224.35 220.5,227.14999999999998 222.95,229.24999999999997 223.64999999999998,230.64999999999998 224.0,232.74999999999997 224.7,233.45 224.7,238.7 224.0,239.39999999999998 223.29999999999998,242.54999999999998 223.64999999999998,243.24999999999997 222.25,245.35 221.2,249.2 220.14999999999998,249.89999999999998 218.39999999999998,253.74999999999997 217.7,254.45 217.0,253.74999999999997 217.7,254.79999999999998 216.64999999999998,255.49999999999997 215.95,257.59999999999997 213.85,259.7 215.95,257.95 216.64999999999998,255.85 217.7,255.14999999999998 220.14999999999998,250.24999999999997 221.2,249.54999999999998 221.2,248.14999999999998 221.89999999999998,247.45 222.25,245.7 223.29999999999998,243.6 224.0,243.6 223.29999999999998,242.54999999999998 224.0,241.14999999999998 224.0,239.39999999999998 224.7,238.7 224.7,233.1 223.64999999999998,231.35 223.64999999999998,230.64999999999998 224.7,229.95 224.7,228.89999999999998 222.6,228.89999999999998 220.14999999999998,226.45 220.5,225.74999999999997 219.79999999999998,225.04999999999998 220.5,224.0 221.54999999999998,224.35 218.39999999999998,223.64999999999998" stroke="#aaa" stroke-width="1" /><polyline fill="none" points="62.3,29.049999999999997 63.349999999999994,31.15 64.75,31.849999999999998 65.1,31.15 62.99999999999999,29.049999999999997" stroke="#aaa" stroke-width="1" /><polyline fill="none" points="203.35,256.2 205.79999999999998,254.79999999999998 209.29999999999998,254.79999999999998 210.0,256.9 209.64999999999998,255.14999999999998 210.35,254.79999999999998 211.04999999999998,256.9 211.39999999999998,256.2 211.75,256.55 211.75,254.79999999999998 208.95,252.35 207.54999999999998,251.99999999999997 211.04999999999998,254.45 205.79999999999998,254.79999999999998" stroke="#aaa" stroke-width="1" /><polyline fill="none" points="69.3,255.49999999999997 68.25,256.9 68.25,258.65 68.94999999999999,259.34999999999997 69.3,261.45 68.6,262.5 67.55,262.84999999999997 67.89999999999999,264.59999999999997 68.94999999999999,265.3 69.3,268.45 68.6,268.45 68.25,266.7 67.19999999999999,268.45 65.1,266.7 65.8,267.75 67.19999999999999,268.45 66.85,269.84999999999997 67.55,270.54999999999995 66.14999999999999,270.9 67.55,271.59999999999997 67.55,270.2 66.85,269.5 67.55,268.45 67.89999999999999,268.79999999999995 67.55,268.09999999999997 68.25,267.4 68.94999999999999,268.79999999999995 70.0,267.05 69.3,267.05 69.3,265.3 67.89999999999999,264.25 68.25,263.9 67.55,263.2 68.25,263.2 67.89999999999999,262.84999999999997 68.94999999999999,262.15 69.3,263.55 71.39999999999999,264.95 69.3,263.2 68.94999999999999,262.15 70.35,261.45 69.3,260.75 68.25,258.3 68.25,256.9 69.3,256.55" stroke="#aaa" stroke-width="1" /><polyline fill="none" points="200.54999999999998,271.25 197.75,271.25 197.04999999999998,270.54999999999995 194.6,271.25 194.25,270.54999999999995 194.6,271.25 192.85,273.0 192.14999999999998,276.15 191.45,276.5 192.5,277.9 191.79999999999998,278.59999999999997 191.45,277.9 191.79999999999998,278.59999999999997 190.75,279.65 192.5,278.25 192.14999999999998,275.79999999999995 193.2,275.09999999999997 194.6,275.09999999999997 194.25,273.7 194.25,275.09999999999997 192.14999999999998,274.75 194.95,271.25 196.0,270.54999999999995 197.04999999999998,270.54999999999995 198.79999999999998,271.95 200.54999999999998,271.95" stroke="#aaa" stroke-width="1" /><polyline fill="none" points="196.0,274.75 198.1,275.45 199.14999999999998,275.09999999999997 199.5,274.04999999999995 197.39999999999998,273.7" stroke="#aaa" stroke-width="1" /><polyline fill="none" points="60.9,263.2 61.599999999999994,263.9 62.99999999999999,263.9 63.349999999999994,265.65 62.65,267.4 64.75,269.5 64.39999999999999,270.9 67.89999999999999,273.7 67.55,275.45 68.6,275.79999999999995 70.69999999999999,277.9 70.69999999999999,278.95 71.39999999999999,279.65 72.44999999999999,279.65 71.75,279.65 69.3,276.15 67.55,275.09999999999997 67.89999999999999,273.7 69.64999999999999,275.45 70.69999999999999,274.75 73.14999999999999,278.25 73.14999999999999,279.29999999999995 75.25,279.65 73.14999999999999,278.95 72.8,277.9 73.85,277.2 75.25,277.9 76.3,277.2 77.35,277.9 77.0,278.59999999999997 77.35,277.54999999999995 76.64999999999999,277.2 72.8,277.54999999999995 71.39999999999999,275.45 70.0,274.75 71.05,273.7 72.1,275.09999999999997 73.14999999999999,274.4 73.85,275.09999999999997 72.8,273.7 73.14999999999999,274.4 72.44999999999999,274.4 72.44999999999999,275.09999999999997 70.0,273.0 68.94999999999999,273.34999999999997 69.64999999999999,273.0 70.35,274.04999999999995 68.6,274.4 66.5,271.95 65.45,271.59999999999997 64.39999999999999,270.54999999999995 64.39999999999999,268.79999999999995 62.65,267.05 63.349999999999994,265.65 62.99999999999999,263.9 61.599999999999994,263.9" stroke="#aaa" stroke-width="1" /></svg>