<?xml version="1.0" encoding="utf-8" ?>
<svg baseProfile="full" height="224" version="1.1" width="224" xmlns="http://www.w3.org/2000/svg" xmlns:ev="http://www.w3.org/2001/xml-events" xmlns:xlink="http://www.w3.org/1999/xlink"><defs /><polyline fill="none" points="144.2,126.69999999999999 142.79999999999998,129.5 143.14999999999998,132.29999999999998 147.0,135.45 151.89999999999998,142.45 152.95,142.45 151.89999999999998,142.1 147.0,135.1 143.14999999999998,131.95 142.79999999999998,131.25 143.5,130.9 142.79999999999998,129.5 144.54999999999998,126.69999999999999 147.35,125.64999999999999 151.54999999999998,125.99999999999999 155.04999999999998,127.74999999999999 157.5,129.85 157.5,130.54999999999998 157.5,129.5 154.7,127.39999999999999 150.14999999999998,125.64999999999999 147.35,125.64999999999999" stroke="#aaa" stroke-width="1" /><polyline fill="none" points="146.29999999999998,148.75 143.14999999999998,150.14999999999998 143.85,150.5 142.79999999999998,151.2 142.45,150.5 138.95,152.6 132.65,154.35 128.79999999999998,152.95 128.79999999999998,152.25 127.74999999999999,152.6 127.05,151.89999999999998 130.2,150.85 128.79999999999998,150.85 128.45,151.54999999999998 127.05,151.89999999999998 125.64999999999999,151.54999999999998 125.3,152.25 131.95,155.04999999999998 133.0,155.04999999999998 137.89999999999998,153.29999999999998 139.29999999999998,153.29999999999998 145.95,149.79999999999998" stroke="#aaa" stroke-width="1" /><polyline fill="none" points="116.55,128.79999999999998 116.19999999999999,130.54999999999998 114.44999999999999,131.6 114.1,130.9 112.35,134.04999999999998 112.35,135.1 113.05,136.14999999999998 112.35,134.75 112.69999999999999,133.35 113.39999999999999,132.65 114.44999999999999,132.65 114.8,131.95 115.85,131.95 116.19999999999999,133.7 119.35,136.14999999999998 116.89999999999999,142.45 117.6,140.35 118.3,140.35 117.94999999999999,139.29999999999998 119.69999999999999,135.79999999999998 119.69999999999999,134.75 117.94999999999999,134.04999999999998 119.69999999999999,135.1 119.35,136.14999999999998 116.55,134.04999999999998 116.19999999999999,132.29999999999998 116.89999999999999,131.95 116.19999999999999,132.29999999999998 114.44999999999999,131.6 116.55,130.2" stroke="#aaa" stroke-width="1" /><polyline fill="none" points="118.3,159.6 118.99999999999999,159.95 118.3,160.29999999999998 118.99999999999999,160.64999999999998 118.99999999999999,159.95 122.49999999999999,160.29999999999998 122.85,160.64999999999998 121.8,161.35 120.74999999999999,161.0 125.99999999999999,163.1 124.24999999999999,164.14999999999998 121.1,162.39999999999998 122.14999999999999,163.45 124.24999999999999,164.14999999999998 124.24999999999999,165.2 123.19999999999999,165.89999999999998 123.19999999999999,169.39999999999998 125.99999999999999,173.25 128.45,178.5 128.45,179.54999999999998 128.45,178.14999999999998 127.39999999999999,176.75 127.05,175.0 123.19999999999999,169.04999999999998 123.19999999999999,166.25 124.24999999999999,165.89999999999998 124.24999999999999,164.5 125.3,163.45 132.65,165.54999999999998 136.14999999999998,165.54999999999998 148.39999999999998,163.79999999999998 148.75,163.1 150.5,163.45 151.2,162.39999999999998 153.64999999999998,162.75 151.2,162.39999999999998 150.14999999999998,163.45 149.1,163.1 150.5,162.04999999999998 149.79999999999998,162.04999999999998 148.04999999999998,163.79999999999998 142.79999999999998,164.5 141.39999999999998,164.14999999999998 141.39999999999998,163.45 144.54999999999998,163.45 141.39999999999998,163.45 141.39999999999998,162.75 146.64999999999998,163.1 145.6,163.1 145.6,162.39999999999998 148.39999999999998,162.39999999999998 140.7,163.1 132.29999999999998,163.1 125.64999999999999,161.0" stroke="#aaa" stroke-width="1" /><polyline fill="none" points="119.35,149.45 118.99999999999999,152.95 116.19999999999999,157.14999999999998 112.35,155.04999999999998 115.14999999999999,157.14999999999998 120.74999999999999,159.25 121.44999999999999,157.5 121.44999999999999,150.85 120.39999999999999,149.45" stroke="#aaa" stroke-width="1" /><polyline fill="none" points="123.55,107.8 125.3,110.94999999999999 125.3,115.49999999999999 124.6,116.19999999999999 124.6,117.6 121.44999999999999,120.74999999999999 120.74999999999999,120.39999999999999 121.44999999999999,119.69999999999999 120.39999999999999,120.74999999999999 120.74999999999999,121.1 119.69999999999999,122.14999999999999 119.69999999999999,124.94999999999999 118.99999999999999,125.64999999999999 117.24999999999999,125.99999999999999 117.94999999999999,130.2 116.89999999999999,130.9 119.35,131.25 117.6,130.9 118.64999999999999,129.85 118.64999999999999,127.74999999999999 120.74999999999999,125.64999999999999 120.39999999999999,123.89999999999999 120.74999999999999,125.3 118.99999999999999,127.39999999999999 117.94999999999999,125.99999999999999 119.35,125.64999999999999 119.69999999999999,122.49999999999999 120.39999999999999,121.8 121.8,122.85 121.44999999999999,122.49999999999999 123.55,120.39999999999999 121.44999999999999,122.14999999999999 120.74999999999999,122.14999999999999 120.39999999999999,121.44999999999999 123.89999999999999,118.64999999999999 124.6,117.6 124.6,116.19999999999999 125.3,115.49999999999999 125.3,110.94999999999999" stroke="#aaa" stroke-width="1" /><polyline fill="none" points="155.75,113.05 155.75,113.74999999999999 163.1,113.74999999999999 163.1,113.05" stroke="#aaa" stroke-width="1" /><polyline fill="none" points="170.1,110.6 163.1,107.8 155.04999999999998,108.14999999999999 147.7,112.69999999999999 148.75,112.69999999999999 150.14999999999998,112.0 149.45,111.64999999999999 150.5,110.94999999999999 150.85,111.64999999999999 154.35,109.55 156.45,112.35 154.7,109.55 155.75,108.85 162.75,108.5 166.6,110.25 168.7,110.6 169.39999999999998,111.3 170.1,111.3" stroke="#aaa" stroke-width="1" /><polyline fill="none" points="105.69999999999999,159.25 102.19999999999999,163.79999999999998 101.85,166.95 115.49999999999999,179.2 123.89999999999999,184.79999999999998 125.3,184.79999999999998 127.39999999999999,181.64999999999998 127.39999999999999,179.2 127.74999999999999,180.25 127.05,180.95 126.69999999999999,183.04999999999998 124.94999999999999,184.79999999999998 124.24999999999999,184.79999999999998 115.85,179.2 101.85,166.6 101.85,164.85 105.35,159.95 105.69999999999999,161.0 107.1,162.04999999999998 106.75,162.39999999999998 107.44999999999999,162.39999999999998 105.35,159.95 106.05,159.25 108.14999999999999,160.64999999999998 107.1,159.6" stroke="#aaa" stroke-width="1" /><polyline fill="none" points="169.04999999999998,155.39999999999998 169.04999999999998,157.14999999999998 174.64999999999998,162.75 175.7,165.2 176.75,165.54999999999998 177.45,166.6 178.14999999999998,166.25 178.85,166.95 178.85,168.7 180.25,172.2 180.6,171.85 179.2,169.39999999999998 178.5,166.25 175.7,164.85 174.64999999999998,162.39999999999998 169.04999999999998,156.79999999999998 169.04999999999998,155.75 169.75,155.39999999999998" stroke="#aaa" stroke-width="1" /><polyline fill="none" points="96.6,109.89999999999999 97.3,110.25 96.94999999999999,110.6 100.44999999999999,108.85 101.5,108.85 102.89999999999999,107.8 109.89999999999999,108.14999999999999 112.35,109.89999999999999 112.0,110.25 112.69999999999999,109.89999999999999 114.44999999999999,110.94999999999999 114.8,110.25 115.85,110.94999999999999 115.14999999999999,111.3 117.6,112.0 109.89999999999999,107.44999999999999 102.89999999999999,107.1" stroke="#aaa" stroke-width="1" /><polyline fill="none" points="183.04999999999998,100.1 177.79999999999998,96.25 178.14999999999998,96.94999999999999 177.45,97.3 176.39999999999998,96.25 177.1,95.89999999999999 175.7,95.89999999999999 175.35,95.55 176.04999999999998,95.19999999999999 173.95,93.8 161.0,93.1 153.29999999999998,94.85 151.2,94.85 143.14999999999998,98.0 141.75,99.05 140.7,99.05 138.6,100.44999999999999 140.35,100.44999999999999 141.04999999999998,99.75 142.1,99.75 143.5,98.69999999999999 150.5,95.89999999999999 161.7,93.8 173.6,94.5 178.85,98.35 177.79999999999998,97.3 178.85,96.94999999999999 180.25,98.35 179.54999999999998,98.69999999999999 181.64999999999998,100.44999999999999 182.7,100.8" stroke="#aaa" stroke-width="1" /><polyline fill="none" points="88.19999999999999,117.94999999999999 89.25,117.24999999999999 90.64999999999999,117.24999999999999 92.05,116.19999999999999 96.94999999999999,116.89999999999999 98.35,115.85 99.05,116.55 101.14999999999999,116.19999999999999 102.55,117.24999999999999 101.5,116.19999999999999 99.39999999999999,116.19999999999999 97.3,114.8 97.64999999999999,114.1 97.3,114.44999999999999 96.94999999999999,113.39999999999999 95.55,112.69999999999999 96.94999999999999,111.3 98.69999999999999,111.3 99.39999999999999,112.0 97.64999999999999,112.0 97.64999999999999,113.05 98.0,112.35 98.69999999999999,112.35 98.69999999999999,113.39999999999999 100.1,114.44999999999999 99.75,115.14999999999999 99.05,115.14999999999999 98.35,114.1 99.05,115.14999999999999 100.1,115.14999999999999 100.8,114.1 102.55,114.8 101.5,114.1 100.44999999999999,114.44999999999999 99.05,113.39999999999999 99.75,111.64999999999999 109.55,112.0 109.55,112.69999999999999 106.75,112.69999999999999 109.89999999999999,112.69999999999999 109.89999999999999,112.0 96.6,111.3 95.89999999999999,112.0 95.89999999999999,110.94999999999999 92.75,112.69999999999999 91.0,111.64999999999999 89.94999999999999,111.64999999999999 92.75,112.69999999999999 94.5,111.64999999999999 94.5,112.69999999999999 95.19999999999999,112.35 96.6,113.39999999999999 97.3,115.14999999999999 98.35,115.85 96.6,116.89999999999999 95.19999999999999,116.19999999999999 93.1,116.55 90.64999999999999,114.8 92.05,116.19999999999999 90.64999999999999,117.24999999999999 89.25,117.24999999999999" stroke="#aaa" stroke-width="1" /><polyline fill="none" points="189.0,150.5 190.04999999999998,152.95 188.64999999999998,153.64999999999998 187.25,155.39999999999998 186.89999999999998,157.14999999999998 183.04999999999998,164.14999999999998 181.64999999999998,170.1 180.6,170.45 181.64999999999998,170.79999999999998 181.64999999999998,173.25 184.45,177.1 181.64999999999998,172.89999999999998 181.64999999999998,169.39999999999998 183.04999999999998,164.5 185.5,159.25 186.89999999999998,157.5 187.25,155.75 189.0,153.64999999999998 190.39999999999998,153.29999999999998 189.7,151.89999999999998 190.39999999999998,150.85 189.7,151.2" stroke="#aaa" stroke-width="1" /><polyline fill="none" points="89.25,150.85 89.94999999999999,152.6 89.6,154.0 89.94999999999999,153.29999999999998 90.64999999999999,154.35 90.3,155.39999999999998 89.94999999999999,154.7 90.3,156.1 90.3,155.39999999999998 91.0,155.39999999999998 90.64999999999999,157.14999999999998 91.0,156.45 91.69999999999999,157.5 91.35,158.54999999999998 91.0,157.85 91.0,158.54999999999998 92.39999999999999,161.35 92.39999999999999,162.39999999999998 93.1,163.45 93.44999999999999,162.75 94.5,164.14999999999998 93.44999999999999,164.5 97.3,169.39999999999998 97.64999999999999,168.7 98.69999999999999,170.1 97.64999999999999,170.1 98.35,170.79999999999998 98.69999999999999,170.1 99.39999999999999,171.14999999999998 98.69999999999999,171.5 99.05,171.85 99.39999999999999,171.14999999999998 100.8,172.54999999999998 100.8,173.25 103.94999999999999,176.04999999999998 104.3,175.0 103.6,175.7 102.19999999999999,174.29999999999998 102.55,173.95 101.85,171.85 101.85,173.95 100.8,172.89999999999998 101.14999999999999,172.2 100.8,172.54999999999998 99.39999999999999,171.14999999999998 96.6,166.95 96.94999999999999,167.64999999999998 96.25,168.0 95.19999999999999,166.6 95.55,165.89999999999998 96.25,166.25 93.1,162.04999999999998" stroke="#aaa" stroke-width="1" /><polyline fill="none" points="67.89999999999999,152.95 68.25,150.85 66.5,145.6 67.19999999999999,144.54999999999998 71.39999999999999,149.1 75.6,152.25 75.6,153.29999999999998 77.35,155.04999999999998 77.35,155.75 77.35,154.7 75.6,152.95 75.94999999999999,152.25 78.39999999999999,153.64999999999998 81.19999999999999,153.64999999999998 87.14999999999999,152.25 88.19999999999999,150.5 88.19999999999999,149.45 94.14999999999999,143.85 95.89999999999999,141.39999999999998 97.64999999999999,140.35 98.35,136.14999999999998 100.1,133.35 101.14999999999999,128.79999999999998 106.39999999999999,123.19999999999999 109.19999999999999,121.8 112.69999999999999,121.8 115.14999999999999,122.85 116.19999999999999,123.89999999999999 115.49999999999999,125.64999999999999 115.14999999999999,124.24999999999999 115.49999999999999,125.99999999999999 116.19999999999999,123.55 113.05,121.8 109.19999999999999,121.8 106.05,123.19999999999999 102.55,126.69999999999999 101.14999999999999,125.99999999999999 101.14999999999999,125.3 101.85,124.94999999999999 95.19999999999999,124.6 95.19999999999999,125.64999999999999 94.85,125.3 95.55,124.6 95.89999999999999,125.3 96.25,124.6 98.35,124.6 98.35,125.3 96.94999999999999,125.3 99.05,125.3 98.69999999999999,124.94999999999999 99.39999999999999,124.6 100.44999999999999,125.3 99.75,125.64999999999999 100.44999999999999,126.35 99.39999999999999,126.69999999999999 100.44999999999999,126.69999999999999 100.8,124.94999999999999 101.5,126.69999999999999 100.1,127.39999999999999 101.14999999999999,127.39999999999999 101.85,126.35 102.55,127.05 101.14999999999999,128.45 100.44999999999999,132.29999999999998 98.35,135.79999999999998 97.64999999999999,134.39999999999998 99.39999999999999,132.29999999999998 99.05,131.95 99.75,129.85 99.39999999999999,131.6 98.69999999999999,132.29999999999998 95.19999999999999,131.6 95.89999999999999,131.6 96.6,133.0 96.94999999999999,132.29999999999998 98.69999999999999,132.65 98.0,134.04999999999998 96.6,134.04999999999998 97.3,134.04999999999998 97.64999999999999,135.45 98.35,135.79999999999998 98.0,139.29999999999998 96.6,141.04999999999998 95.19999999999999,141.04999999999998 95.55,141.39999999999998 94.14999999999999,143.5 88.89999999999999,148.75 87.85,144.54999999999998 87.85,145.6 87.14999999999999,145.6 86.44999999999999,142.1 86.8,139.64999999999998 86.8,140.35 86.1,140.35 86.1,136.5 86.1,137.2 85.39999999999999,137.2 82.94999999999999,125.64999999999999 82.6,127.39999999999999 82.94999999999999,126.69999999999999 83.3,127.05 82.94999999999999,128.79999999999998 83.64999999999999,128.79999999999998 85.39999999999999,136.5 82.94999999999999,143.5 83.64999999999999,142.45 84.35,138.6 85.05,137.54999999999998 85.75,137.89999999999998 86.8,142.79999999999998 86.1,146.64999999999998 86.44999999999999,149.45 85.75,149.79999999999998 85.05,152.6 84.0,152.25 83.64999999999999,150.85 83.64999999999999,152.95 79.1,153.64999999999998 78.75,147.7 78.05,146.29999999999998 78.05,141.75 77.35,140.0 77.0,135.45 76.3,134.04999999999998 76.64999999999999,132.65 76.3,134.04999999999998 78.05,141.75 78.05,146.29999999999998 78.75,147.7 79.1,152.95 77.35,153.29999999999998 76.3,152.25 76.64999999999999,151.54999999999998 75.25,149.79999999999998 75.25,148.39999999999998 73.5,144.2 73.5,142.45 72.1,140.0 73.5,142.79999999999998 75.25,149.79999999999998 76.64999999999999,151.89999999999998 75.94999999999999,152.25 71.75,149.1 67.19999999999999,144.54999999999998 67.89999999999999,144.2 69.3,145.25 63.349999999999994,137.54999999999998 63.349999999999994,130.54999999999998 62.65,129.15 62.99999999999999,123.19999999999999 62.3,119.69999999999999 62.99999999999999,123.19999999999999 62.99999999999999,128.45 61.949999999999996,130.54999999999998 62.65,129.15 63.349999999999994,130.54999999999998 63.349999999999994,137.54999999999998 67.89999999999999,143.85 66.5,145.25 67.19999999999999,148.75 68.25,150.85" stroke="#aaa" stroke-width="1" /><polyline fill="none" points="124.6,86.1 124.6,87.14999999999999 123.19999999999999,88.89999999999999 125.3,87.85 125.64999999999999,88.89999999999999 127.05,89.25 126.35,91.35 127.39999999999999,91.69999999999999 126.35,91.35 127.05,90.3 128.79999999999998,89.94999999999999 127.39999999999999,89.94999999999999 126.69999999999999,88.89999999999999 125.64999999999999,88.55 126.69999999999999,88.19999999999999 125.99999999999999,87.5 125.64999999999999,88.19999999999999 125.64999999999999,86.1" stroke="#aaa" stroke-width="1" /><polyline fill="none" points="220.5,117.94999999999999 217.35,120.05 217.35,120.74999999999999 214.89999999999998,124.24999999999999 210.7,128.45 209.64999999999998,130.9 202.64999999999998,137.89999999999998 194.95,143.85 190.75,145.25 182.35,145.6 179.89999999999998,144.54999999999998 169.75,137.54999999999998 167.29999999999998,137.2 164.5,134.04999999999998 160.64999999999998,131.25 164.14999999999998,134.04999999999998 166.95,137.2 170.1,137.89999999999998 176.75,142.79999999999998 182.0,145.6 190.75,145.25 195.29999999999998,143.85 203.0,137.89999999999998 209.64999999999998,131.25 210.7,128.79999999999998 214.89999999999998,124.6 217.35,121.1 217.35,120.39999999999999" stroke="#aaa" stroke-width="1" /><polyline fill="none" points="100.8,174.29999999999998 99.05,176.39999999999998 100.1,175.7 100.8,174.29999999999998 101.85,175.35 101.5,176.04999999999998 102.19999999999999,175.7 103.6,177.1 102.89999999999999,177.79999999999998 102.19999999999999,182.7 100.44999999999999,182.7 101.85,179.2 100.44999999999999,182.7 102.19999999999999,183.04999999999998 102.19999999999999,181.29999999999998 102.89999999999999,179.89999999999998 102.55,179.2 103.6,177.1 105.35,178.85 106.05,183.39999999999998 107.44999999999999,186.89999999999998 108.14999999999999,190.75 109.19999999999999,192.5 109.89999999999999,196.7 109.19999999999999,192.5 107.8,189.35 105.35,180.6 105.69999999999999,178.85 108.5,181.64999999999998 108.14999999999999,182.35 108.5,181.64999999999998 105.35,178.5 106.05,178.14999999999998 105.0,177.1 105.69999999999999,177.79999999999998 105.35,178.5" stroke="#aaa" stroke-width="1" /><polyline fill="none" points="107.44999999999999,179.2 112.69999999999999,184.45 112.0,184.79999999999998 110.6,183.75 112.69999999999999,185.5 112.35,186.2 115.49999999999999,191.1 116.19999999999999,193.2 119.35,197.39999999999998 119.35,198.45 121.8,201.25 123.19999999999999,204.39999999999998 126.69999999999999,207.89999999999998 126.69999999999999,208.95 128.79999999999998,211.04999999999998 129.5,212.79999999999998 131.95,214.89999999999998 126.35,208.25 127.05,207.89999999999998 123.19999999999999,204.04999999999998 121.8,200.89999999999998 120.05,199.14999999999998 119.35,197.04999999999998 112.35,186.2 112.69999999999999,185.5 113.05,185.85 112.35,184.79999999999998 112.69999999999999,184.45 114.44999999999999,186.2 113.74999999999999,186.54999999999998 114.8,186.2 116.89999999999999,187.95 116.19999999999999,188.29999999999998 121.44999999999999,192.85 134.75,197.04999999999998 135.1,196.35 122.14999999999999,192.14999999999998 112.35,184.1" stroke="#aaa" stroke-width="1" /><polyline fill="none" points="81.89999999999999,160.29999999999998 82.6,161.35 82.25,161.7 82.6,161.35 84.35,164.14999999999998 83.64999999999999,164.5 82.94999999999999,163.79999999999998 84.69999999999999,165.2 87.14999999999999,168.7 87.14999999999999,170.1 87.5,169.75 86.8,168.35 87.5,167.64999999999998 90.64999999999999,171.85 88.89999999999999,169.04999999999998 89.6,168.35 89.25,165.2 91.0,163.79999999999998 89.25,164.85 89.6,168.35 88.89999999999999,169.04999999999998 86.44999999999999,165.89999999999998 84.0,161.35 82.6,161.35" stroke="#aaa" stroke-width="1" /><polyline fill="none" points="199.14999999999998,158.2 197.39999999999998,159.95 197.39999999999998,161.0 195.64999999999998,162.39999999999998 195.64999999999998,163.79999999999998 194.25,165.89999999999998 191.45,165.2 191.79999999999998,164.5 193.2,164.14999999999998 193.89999999999998,162.75 190.04999999999998,166.6 192.85,165.2 193.89999999999998,165.89999999999998 192.5,168.0 192.14999999999998,170.79999999999998 190.39999999999998,174.64999999999998 189.7,178.14999999999998 189.7,182.35 188.64999999999998,182.7 187.25,181.29999999999998 185.5,178.14999999999998 185.5,171.85 187.25,166.95 188.64999999999998,165.54999999999998 189.35,163.79999999999998 187.6,166.25 185.85,170.45 185.14999999999998,177.45 187.25,181.64999999999998 189.35,183.04999999999998 192.5,187.25 189.35,183.04999999999998 190.39999999999998,174.64999999999998 193.54999999999998,166.25 194.6,165.89999999999998 195.64999999999998,164.14999999999998 195.64999999999998,162.75 197.39999999999998,161.35 197.39999999999998,160.29999999999998" stroke="#aaa" stroke-width="1" /><polyline fill="none" points="115.49999999999999,81.55 115.14999999999999,82.6 113.05,82.6 112.69999999999999,82.25 113.39999999999999,81.19999999999999 114.44999999999999,81.89999999999999 113.05,81.19999999999999 112.35,81.89999999999999 112.35,82.94999999999999 110.6,81.89999999999999 111.64999999999999,82.25 112.35,83.3 109.55,83.3 112.0,83.64999999999999 112.0,84.35 109.89999999999999,84.69999999999999 108.5,84.0 109.19999999999999,85.05 108.5,84.35 109.19999999999999,84.0 110.6,86.1 110.94999999999999,84.35 112.35,84.69999999999999 112.0,84.35 112.69999999999999,84.0 112.69999999999999,82.6 113.39999999999999,82.94999999999999 113.05,83.3 113.74999999999999,82.6 115.85,82.94999999999999 114.44999999999999,83.64999999999999 114.1,83.3 114.44999999999999,83.64999999999999 113.39999999999999,84.0 110.94999999999999,87.5 110.6,88.89999999999999 108.85,88.89999999999999 112.69999999999999,89.6 112.0,90.3 112.69999999999999,89.6 112.0,87.85 112.35,87.14999999999999 111.64999999999999,88.19999999999999 112.0,87.85 112.35,88.55 111.64999999999999,89.25 110.6,88.89999999999999 113.05,84.69999999999999 115.85,82.94999999999999" stroke="#aaa" stroke-width="1" /><polyline fill="none" points="110.25,184.45 115.14999999999999,193.89999999999998 116.55,195.64999999999998 117.24999999999999,198.45 119.35,201.6 120.39999999999999,205.1 121.8,206.14999999999998 120.39999999999999,204.75 119.35,201.25 118.3,200.54999999999998 118.3,199.14999999999998 117.24999999999999,198.1 116.19999999999999,194.6 115.14999999999999,193.54999999999998 114.44999999999999,191.45" stroke="#aaa" stroke-width="1" /><polyline fill="none" points="114.44999999999999,187.6 124.24999999999999,200.2 125.99999999999999,201.6 127.74999999999999,204.04999999999998 128.1,205.45 131.25,207.54999999999998 131.95,208.6 128.1,205.1 127.74999999999999,203.7 125.99999999999999,201.25 123.89999999999999,199.5 122.49999999999999,197.04999999999998 120.05,194.6 120.05,193.89999999999998" stroke="#aaa" stroke-width="1" /><polyline fill="none" points="80.5,95.55 83.64999999999999,95.19999999999999 84.0,94.5 85.75,95.19999999999999 89.25,94.14999999999999 86.8,94.85 84.0,94.5 83.3,95.19999999999999 80.5,95.55 80.5,96.25 82.25,96.94999999999999 82.94999999999999,98.69999999999999 84.35,98.69999999999999 85.39999999999999,99.39999999999999 84.0,100.44999999999999 85.05,99.75 85.39999999999999,100.1 85.39999999999999,99.39999999999999 86.1,99.75 86.44999999999999,99.39999999999999 86.1,99.75 85.05,99.05 87.5,96.94999999999999 88.19999999999999,97.3 87.14999999999999,98.35 88.19999999999999,97.3 89.6,98.0 88.89999999999999,98.35 90.3,97.64999999999999 94.5,97.64999999999999 95.89999999999999,98.69999999999999 97.3,98.35 100.44999999999999,99.75 97.3,98.35 96.25,98.69999999999999 94.5,97.64999999999999 89.6,98.0 88.55,97.3 92.05,94.5 102.55,94.5 103.6,94.85 103.6,95.55 105.35,95.19999999999999 107.8,96.25 113.05,97.3 121.44999999999999,101.85 122.49999999999999,101.85 120.74999999999999,101.14999999999999 121.44999999999999,100.8 117.94999999999999,99.05 117.94999999999999,98.35 117.24999999999999,98.69999999999999 113.39999999999999,96.6 108.14999999999999,95.55 104.3,94.14999999999999 91.69999999999999,94.5 88.19999999999999,97.3 88.19999999999999,96.25 86.44999999999999,98.0 85.39999999999999,97.64999999999999 85.75,98.0 85.05,99.05 83.3,98.69999999999999 82.6,97.64999999999999 84.35,97.64999999999999 82.6,97.3" stroke="#aaa" stroke-width="1" /><polyline fill="none" points="75.6,129.5 75.6,130.2 74.19999999999999,131.6 74.19999999999999,133.35 74.89999999999999,133.7 76.3,131.95" stroke="#aaa" stroke-width="1" /><polyline fill="none" points="108.5,77.0 109.55,77.0 108.85,78.39999999999999 110.25,77.69999999999999 110.6,79.1 112.69999999999999,79.1 110.6,78.39999999999999 110.94999999999999,77.35 109.89999999999999,75.94999999999999" stroke="#aaa" stroke-width="1" /><polyline fill="none" points="103.94999999999999,179.89999999999998 103.25,187.6 103.6,192.85 105.69999999999999,199.5 110.94999999999999,212.1 124.24999999999999,222.6 135.45,229.95 117.94999999999999,217.7 110.94999999999999,211.75 105.69999999999999,199.5 103.6,192.85 103.25,187.6" stroke="#aaa" stroke-width="1" /><polyline fill="none" points="76.64999999999999,173.25 79.44999999999999,176.04999999999998 78.75,176.75 78.75,177.79999999999998 78.75,177.1 79.44999999999999,176.75 81.19999999999999,178.85 80.5,180.6 80.85,181.64999999999998 80.5,180.6 81.19999999999999,179.2 84.69999999999999,183.39999999999998 78.39999999999999,174.29999999999998" stroke="#aaa" stroke-width="1" /><polyline fill="none" points="218.75,167.29999999999998 219.45,169.39999999999998 211.04999999999998,178.14999999999998 211.39999999999998,178.5 207.2,183.04999999999998 206.5,185.5 207.2,183.39999999999998 210.0,180.6 211.39999999999998,178.14999999999998 219.45,169.75" stroke="#aaa" stroke-width="1" /><polyline fill="none" points="60.55,147.0 60.199999999999996,148.04999999999998 60.9,150.5 59.49999999999999,151.89999999999998 56.699999999999996,158.89999999999998 55.65,173.6 57.74999999999999,181.29999999999998 68.25,196.0 67.89999999999999,194.6 65.8,192.5 64.05,189.35 63.349999999999994,189.0 63.349999999999994,188.29999999999998 58.099999999999994,181.64999999999998 57.05,179.54999999999998 55.65,173.6 56.0,164.5 57.05,159.25 56.699999999999996,158.89999999999998 59.49999999999999,152.25 63.349999999999994,147.35 60.9,150.14999999999998 60.199999999999996,148.04999999999998" stroke="#aaa" stroke-width="1" /><polyline fill="none" points="201.6,166.25 196.0,171.5 194.6,173.95 194.6,175.7 192.85,180.6 192.85,185.5 193.54999999999998,188.29999999999998 199.85,197.04999999999998 206.14999999999998,208.25 209.29999999999998,218.75 211.39999999999998,232.74999999999997 212.79999999999998,249.89999999999998 213.5,252.7 214.89999999999998,279.65 213.5,252.7 212.79999999999998,249.89999999999998 211.39999999999998,232.74999999999997 209.29999999999998,218.75 205.79999999999998,207.2 199.85,196.7 193.54999999999998,187.95 193.54999999999998,186.54999999999998 192.85,185.5 192.85,180.6 194.6,175.7 194.6,173.95 196.0,171.85" stroke="#aaa" stroke-width="1" /><polyline fill="none" points="145.95,222.25 149.1,225.74999999999997 148.75,227.14999999999998 149.45,226.79999999999998 150.5,227.85 151.54999999999998,230.29999999999998 151.54999999999998,232.39999999999998 150.5,233.1 150.85,235.54999999999998 149.45,236.95 147.0,237.99999999999997 143.5,235.54999999999998 141.75,233.45 140.7,233.1 146.64999999999998,237.99999999999997 148.04999999999998,237.99999999999997 151.2,235.54999999999998 150.85,233.79999999999998 151.54999999999998,232.74999999999997 151.89999999999998,229.6 150.85,229.24999999999997 150.5,227.49999999999997" stroke="#aaa" stroke-width="1" /><polyline fill="none" points="83.64999999999999,57.74999999999999 82.94999999999999,58.099999999999994 82.94999999999999,58.8 81.89999999999999,59.849999999999994 81.89999999999999,60.9 80.5,62.3 80.5,63.349999999999994 81.89999999999999,63.349999999999994 81.19999999999999,64.05 80.14999999999999,64.05 80.5,64.39999999999999 79.8,65.1 79.1,62.99999999999999 79.8,62.3 79.1,62.65 79.8,65.1 79.1,65.45 78.05,64.39999999999999 78.75,65.45 77.69999999999999,66.85 76.3,67.19999999999999 76.64999999999999,69.3 75.25,70.35 75.25,73.85 75.94999999999999,72.8 77.35,72.44999999999999 78.39999999999999,73.14999999999999 77.69999999999999,75.94999999999999 77.69999999999999,74.89999999999999 79.44999999999999,73.85 78.05,73.85 78.75,72.8 78.39999999999999,73.14999999999999 77.69999999999999,72.44999999999999 78.39999999999999,70.69999999999999 78.39999999999999,69.64999999999999 77.69999999999999,69.3 80.14999999999999,67.89999999999999 82.6,68.25 80.14999999999999,67.55 80.85,66.5 81.55,66.5 80.5,66.5 80.14999999999999,67.55 78.39999999999999,68.6 77.0,67.19999999999999 78.05,66.85 79.1,65.45 80.5,65.1 80.14999999999999,64.75 80.85,64.05 81.55,64.39999999999999 82.25,62.99999999999999 80.85,63.349999999999994 80.5,62.65 81.89999999999999,60.9 82.6,61.24999999999999 81.89999999999999,62.3 82.6,61.949999999999996 81.89999999999999,60.199999999999996" stroke="#aaa" stroke-width="1" /><polyline fill="none" points="245.35,109.89999999999999 244.64999999999998,109.89999999999999 244.29999999999998,110.6 243.6,109.89999999999999 244.29999999999998,110.6 242.89999999999998,114.8 242.54999999999998,117.94999999999999 239.74999999999997,118.64999999999999 237.29999999999998,120.39999999999999 236.95,121.8 234.49999999999997,122.85 234.49999999999997,123.89999999999999 232.74999999999997,125.64999999999999 231.35,128.79999999999998 231.35,130.54999999999998 229.24999999999997,134.75 229.24999999999997,136.5 228.54999999999998,136.85 227.85,138.95 227.85,140.7 226.45,142.1 227.14999999999998,143.14999999999998 225.74999999999997,144.89999999999998 227.14999999999998,143.85 227.85,144.2 226.79999999999998,143.5 227.85,141.04999999999998 227.85,138.95 229.24999999999997,136.5 229.24999999999997,134.75 231.35,130.54999999999998 232.04999999999998,127.05 235.54999999999998,123.19999999999999 234.85,123.89999999999999 234.14999999999998,123.55 235.2,122.49999999999999 236.24999999999997,122.49999999999999 237.64999999999998,120.39999999999999 240.79999999999998,118.3 242.54999999999998,118.3 242.54999999999998,117.24999999999999 243.95,115.49999999999999 243.95,114.8 243.6,115.85 242.89999999999998,115.49999999999999 243.95,113.39999999999999 243.95,110.94999999999999" stroke="#aaa" stroke-width="1" /><polyline fill="none" points="41.65,16.45 43.05,39.55 43.4,56.349999999999994 44.8,75.25 44.449999999999996,79.44999999999999 45.15,85.39999999999999 44.8,88.19999999999999 46.199999999999996,116.19999999999999 50.05,120.74999999999999 55.65,129.5 60.9,135.1 60.199999999999996,134.39999999999998 60.199999999999996,129.5 60.199999999999996,133.7 56.699999999999996,130.2 57.74999999999999,129.5 58.099999999999994,126.35 57.4,129.85 56.0,127.39999999999999 55.65,120.05 56.0,127.39999999999999 57.05,129.15 56.699999999999996,130.2 48.3,117.94999999999999 46.199999999999996,115.85 44.8,88.19999999999999 45.15,85.39999999999999 44.449999999999996,79.44999999999999 44.8,75.25 43.4,56.349999999999994 43.05,39.55" stroke="#aaa" stroke-width="1" /><polyline fill="none" points="38.849999999999994,170.1 38.15,170.79999999999998 39.55,172.2 42.699999999999996,173.6 49.0,179.89999999999998 49.0,180.95 50.4,183.04999999999998 50.05,183.75 50.75,184.45 50.05,183.39999999999998 50.75,183.04999999999998 49.0,180.6 49.0,178.85 48.3,179.2 47.599999999999994,178.14999999999998 48.3,176.75 48.65,177.45 48.65,176.75 47.949999999999996,176.75 47.599999999999994,178.14999999999998 43.05,173.6 40.599999999999994,172.89999999999998 38.5,170.79999999999998" stroke="#aaa" stroke-width="1" /><polyline fill="none" points="20.65,96.94999999999999 21.7,99.39999999999999 22.75,100.44999999999999 23.099999999999998,102.89999999999999 24.5,105.35 26.95,115.14999999999999 33.25,123.55 36.05,130.54999999999998 37.449999999999996,131.95 40.25,132.65 42.699999999999996,131.95 44.099999999999994,130.2 44.8,130.2 46.55,128.45 47.599999999999994,129.5 49.699999999999996,129.5 47.949999999999996,129.5 46.9,128.45 47.599999999999994,127.74999999999999 49.0,127.74999999999999 53.55,130.2 49.349999999999994,127.74999999999999 47.599999999999994,127.74999999999999 46.9,128.45 46.199999999999996,127.74999999999999 46.55,128.45 45.5,129.5 43.75,130.2 42.349999999999994,131.95 40.25,132.65 37.8,131.95 36.05,130.2 33.25,123.19999999999999 26.95,114.8 24.15,104.3 23.099999999999998,102.55 22.75,100.44999999999999" stroke="#aaa" stroke-width="1" /><polyline fill="none" points="118.99999999999999,37.099999999999994 117.94999999999999,37.449999999999996 117.24999999999999,36.75 116.19999999999999,36.75 115.49999999999999,37.449999999999996 113.74999999999999,37.449999999999996 115.14999999999999,37.449999999999996 115.85,38.849999999999994 115.85,39.9 115.14999999999999,40.25 115.14999999999999,39.199999999999996 114.1,38.15 114.8,39.199999999999996 114.44999999999999,40.599999999999994 113.05,37.8 108.5,37.449999999999996 102.55,39.199999999999996 101.85,39.9 99.39999999999999,39.55 97.3,40.949999999999996 95.55,41.3 94.14999999999999,42.699999999999996 92.39999999999999,42.699999999999996 91.35,44.099999999999994 89.94999999999999,44.099999999999994 88.89999999999999,45.15 90.3,44.099999999999994 91.35,44.099999999999994 93.44999999999999,42.349999999999994 94.5,42.699999999999996 95.89999999999999,41.3 99.75,39.55 101.14999999999999,39.55 101.5,40.25 99.75,40.599999999999994 98.0,42.0 96.6,42.349999999999994 95.55,44.099999999999994 94.85,43.75 95.19999999999999,44.099999999999994 94.14999999999999,45.15 93.44999999999999,44.449999999999996 93.8,43.75 93.1,44.8 90.3,45.5 87.5,47.25 86.8,49.699999999999996 87.5,47.599999999999994 88.55,47.599999999999994 87.85,47.25 89.25,46.199999999999996 93.44999999999999,44.449999999999996 94.14999999999999,45.849999999999994 90.3,47.599999999999994 89.25,47.25 89.6,47.599999999999994 87.85,50.05 85.75,50.4 84.35,51.449999999999996 84.0,52.849999999999994 81.89999999999999,55.65 81.19999999999999,59.15 76.3,64.05 76.64999999999999,65.45 76.64999999999999,64.05 80.5,59.849999999999994 81.19999999999999,60.55 80.85,60.9 80.85,59.849999999999994 81.89999999999999,57.74999999999999 81.89999999999999,56.0 85.39999999999999,50.75 86.8,50.4 87.14999999999999,51.099999999999994 89.94999999999999,47.599999999999994 91.69999999999999,46.9 92.75,48.3 92.05,49.0 89.94999999999999,49.0 89.25,50.05 90.3,49.0 92.39999999999999,49.0 93.1,49.699999999999996 93.8,49.349999999999994 94.14999999999999,50.05 93.1,50.4 94.5,50.4 94.5,49.699999999999996 96.6,50.4 95.89999999999999,50.75 95.89999999999999,52.15 96.25,51.449999999999996 96.94999999999999,51.449999999999996 95.89999999999999,51.099999999999994 96.6,50.4 98.0,50.4 94.85,49.699999999999996 96.94999999999999,49.349999999999994 95.89999999999999,49.0 96.94999999999999,48.65 95.55,48.65 95.89999999999999,49.0 94.85,49.0 94.85,49.699999999999996 93.44999999999999,49.699999999999996 92.39999999999999,49.0 93.1,48.65 92.39999999999999,47.25 93.44999999999999,46.199999999999996 94.14999999999999,46.199999999999996 94.14999999999999,45.5 95.55,44.099999999999994 98.0,43.75 98.69999999999999,42.699999999999996 99.75,42.349999999999994 100.44999999999999,42.699999999999996 100.44999999999999,41.3 99.75,42.349999999999994 98.35,43.05 98.0,42.699999999999996 98.35,43.05 97.64999999999999,43.75 96.6,43.75 96.25,43.4 96.94999999999999,42.349999999999994 98.35,42.0 99.75,40.599999999999994 101.5,40.599999999999994 102.89999999999999,39.199999999999996 108.5,37.449999999999996 112.35,37.449999999999996 114.44999999999999,40.599999999999994 115.85,40.25 115.85,37.099999999999994 117.24999999999999,36.75 117.94999999999999,37.8 118.3,37.099999999999994" stroke="#aaa" stroke-width="1" /><polyline fill="none" points="248.14999999999998,93.44999999999999 248.49999999999997,97.3 243.24999999999997,104.3 243.24999999999997,105.35 239.04999999999998,114.44999999999999 235.89999999999998,117.6 230.29999999999998,118.3 236.95,117.24999999999999 239.04999999999998,114.8 243.24999999999997,105.69999999999999 243.24999999999997,104.64999999999999 248.49999999999997,97.3" stroke="#aaa" stroke-width="1" /><polyline fill="none" points="34.3,108.14999999999999 32.9,109.19999999999999 32.9,109.89999999999999 34.3,112.69999999999999 33.949999999999996,116.89999999999999 35.0,122.49999999999999 40.949999999999996,131.25 41.65,131.25 38.15,127.05 34.65,121.1 33.949999999999996,116.89999999999999 34.3,112.35 32.9,109.89999999999999 33.949999999999996,108.5 33.949999999999996,109.55 34.3,109.19999999999999 35.349999999999994,110.25" stroke="#aaa" stroke-width="1" /><polyline fill="none" points="74.89999999999999,30.099999999999998 72.1,35.699999999999996 72.1,38.15 71.05,39.199999999999996 70.69999999999999,38.849999999999994 70.69999999999999,36.75 71.39999999999999,36.05 70.0,37.099999999999994 69.3,36.75 68.6,38.15 68.94999999999999,41.3 71.39999999999999,39.9 72.1,40.25 70.35,42.0 69.64999999999999,45.849999999999994 68.25,49.0 68.25,51.099999999999994 65.8,59.49999999999999 66.14999999999999,61.24999999999999 65.1,65.45 64.75,71.39999999999999 63.699999999999996,72.8 62.99999999999999,71.39999999999999 62.99999999999999,70.35 63.699999999999996,69.64999999999999 63.699999999999996,68.6 62.99999999999999,67.89999999999999 62.99999999999999,62.65 63.699999999999996,61.599999999999994 62.99999999999999,60.9 62.99999999999999,57.74999999999999 63.699999999999996,57.05 64.05,53.199999999999996 63.699999999999996,50.75 63.699999999999996,57.05 62.99999999999999,57.74999999999999 62.99999999999999,61.24999999999999 63.699999999999996,61.599999999999994 62.99999999999999,62.65 62.99999999999999,67.89999999999999 63.699999999999996,69.3 61.949999999999996,69.3 61.949999999999996,65.8 62.3,68.25 60.9,68.25 61.949999999999996,68.94999999999999 61.949999999999996,71.39999999999999 62.65,69.3 63.349999999999994,70.0 63.349999999999994,73.85 61.24999999999999,75.6 63.699999999999996,73.85 63.699999999999996,72.8 64.39999999999999,72.1 64.75,72.44999999999999 64.75,80.5 63.699999999999996,82.25 64.05,82.6 63.699999999999996,81.89999999999999 64.39999999999999,81.19999999999999 65.1,82.25 64.75,83.64999999999999 65.8,86.8 65.8,90.3 66.85,92.39999999999999 66.5,96.25 67.19999999999999,106.05 66.5,96.25 66.85,92.39999999999999 65.8,90.3 65.45,84.35 64.75,83.3 65.1,81.89999999999999 64.39999999999999,81.19999999999999 64.39999999999999,71.75 66.14999999999999,61.24999999999999 65.8,59.49999999999999 66.85,57.05 66.85,55.3 68.25,51.099999999999994 68.25,49.0 69.3,47.25 70.35,42.349999999999994 75.94999999999999,37.099999999999994 76.3,35.349999999999994 77.0,36.05 78.39999999999999,34.65 77.0,35.699999999999996 76.3,35.349999999999994 77.69999999999999,33.599999999999994 72.8,38.849999999999994 73.5,38.15 74.55,38.5 72.1,40.25 71.39999999999999,39.9 69.64999999999999,41.3 68.6,40.949999999999996 68.94999999999999,39.9 70.0,39.199999999999996 68.6,39.199999999999996 68.6,38.15 69.64999999999999,36.75 71.05,37.099999999999994 70.35,37.8 71.05,39.199999999999996 70.69999999999999,39.55 71.75,38.849999999999994 72.44999999999999,37.449999999999996 72.1,37.099999999999994 72.8,36.75 72.44999999999999,35.699999999999996 73.5,32.9 74.19999999999999,32.199999999999996 74.55,33.25 74.19999999999999,32.199999999999996" stroke="#aaa" stroke-width="1" /><polyline fill="none" points="32.9,86.44999999999999 32.9,87.14999999999999 34.3,87.85 34.65,89.6 35.0,100.8 34.65,101.14999999999999 30.45,95.89999999999999 30.799999999999997,94.14999999999999 30.45,95.89999999999999 33.25,100.1 37.8,105.0 43.4,113.05 45.5,114.8 44.8,114.44999999999999 45.15,113.05 44.8,114.1 43.4,112.69999999999999 37.8,104.64999999999999 34.65,101.14999999999999 34.65,87.14999999999999 34.3,87.85" stroke="#aaa" stroke-width="1" /><polyline fill="none" points="134.75,26.95 130.9,27.65 130.54999999999998,26.599999999999998 131.6,26.25 128.79999999999998,26.25 127.05,24.5 128.45,24.5 127.39999999999999,23.45 126.69999999999999,23.45 125.99999999999999,25.2 126.69999999999999,24.5 128.79999999999998,26.599999999999998 130.54999999999998,26.95 127.05,27.299999999999997 128.79999999999998,27.65 127.39999999999999,28.349999999999998 127.05,28.0 127.74999999999999,28.7 126.35,29.049999999999997 127.74999999999999,29.4 126.35,30.099999999999998 124.94999999999999,29.049999999999997 125.3,28.7 124.24999999999999,28.349999999999998 124.6,28.0 126.35,28.349999999999998 124.6,28.0 123.19999999999999,28.7 123.89999999999999,29.749999999999996 123.55,30.45 123.89999999999999,29.4 123.19999999999999,29.049999999999997 124.6,28.7 127.05,31.849999999999998 125.99999999999999,30.799999999999997 126.69999999999999,30.45 128.45,31.499999999999996 129.15,32.9 128.1,33.25 127.05,32.55 127.74999999999999,33.25 127.05,33.599999999999994 125.3,32.199999999999996 123.19999999999999,32.199999999999996 123.55,32.9 122.85,33.25 125.3,33.599999999999994 125.64999999999999,33.949999999999996 124.6,34.65 126.69999999999999,35.349999999999994 125.64999999999999,35.349999999999994 124.94999999999999,34.65 125.64999999999999,34.3 125.64999999999999,33.599999999999994 123.89999999999999,33.599999999999994 123.19999999999999,32.55 124.94999999999999,32.199999999999996 128.1,33.949999999999996 127.74999999999999,33.599999999999994 129.15,32.9 128.79999999999998,31.499999999999996 126.35,30.099999999999998 128.45,30.099999999999998 127.39999999999999,29.049999999999997 128.79999999999998,28.0 130.9,29.049999999999997 129.85,28.0 129.15,28.0 129.15,27.299999999999997 134.04999999999998,27.65" stroke="#aaa" stroke-width="1" /><polyline fill="none" points="106.05,32.199999999999996 103.94999999999999,32.199999999999996 98.69999999999999,33.949999999999996 97.64999999999999,35.0 94.14999999999999,36.75 93.8,36.4 92.39999999999999,37.8 91.69999999999999,37.099999999999994 91.0,37.8 91.35,38.5 90.64999999999999,39.9 86.1,42.349999999999994 88.89999999999999,41.3 94.85,36.05 95.89999999999999,36.05 99.75,33.599999999999994 103.25,32.9 103.94999999999999,32.199999999999996" stroke="#aaa" stroke-width="1" /><polyline fill="none" points="60.9,224.35 60.9,228.2 64.75,228.89999999999998 64.39999999999999,227.14999999999998 62.99999999999999,227.49999999999997 63.699999999999996,227.85 63.349999999999994,228.54999999999998 62.3,227.85 62.3,225.74999999999997 62.3,227.14999999999998 61.599999999999994,227.14999999999998 61.599999999999994,226.45 61.599999999999994,227.49999999999997 62.3,227.85 61.24999999999999,228.2 60.55,227.49999999999997 60.9,224.7 61.599999999999994,224.35 61.599999999999994,225.04999999999998 64.39999999999999,225.04999999999998 65.1,225.74999999999997 64.75,226.1 62.99999999999999,225.74999999999997 64.39999999999999,226.45 65.45,225.39999999999998 66.14999999999999,226.1 66.14999999999999,228.89999999999998 65.8,229.24999999999997 65.1,227.85 65.45,229.6 66.14999999999999,229.24999999999997 66.14999999999999,225.74999999999997" stroke="#aaa" stroke-width="1" /><polyline fill="none" points="108.5,21.7 104.64999999999999,23.099999999999998 101.5,25.2 100.8,24.15 100.1,24.15 99.05,25.2 97.64999999999999,25.549999999999997 96.6,26.95 95.55,26.25 97.3,24.5 91.35,29.749999999999996 92.39999999999999,30.099999999999998 91.35,31.15 92.39999999999999,30.45 92.75,30.799999999999997 92.39999999999999,30.45 93.44999999999999,29.749999999999996 92.05,29.749999999999996 93.44999999999999,28.7 95.55,29.749999999999996 94.14999999999999,31.15 93.44999999999999,31.15 94.14999999999999,32.199999999999996 92.39999999999999,33.25 93.8,32.9 93.8,33.949999999999996 93.8,32.55 98.69999999999999,29.049999999999997 98.69999999999999,30.099999999999998 100.44999999999999,30.099999999999998 99.05,30.799999999999997 99.75,31.15 99.75,30.45 102.89999999999999,29.049999999999997 103.6,27.65 104.3,27.65 104.3,28.349999999999998 107.44999999999999,26.95 104.64999999999999,28.0 104.64999999999999,27.299999999999997 107.44999999999999,26.25 106.39999999999999,26.25 102.55,28.349999999999998 102.55,29.049999999999997 100.8,28.349999999999998 100.8,29.049999999999997 99.75,29.749999999999996 99.05,29.4 99.75,28.0 96.94999999999999,30.099999999999998 96.6,29.749999999999996 100.1,26.95 96.6,29.749999999999996 95.55,29.749999999999996 94.5,29.049999999999997 95.89999999999999,28.7 92.39999999999999,28.7 95.19999999999999,26.25 95.89999999999999,26.599999999999998 95.55,27.65 95.89999999999999,26.599999999999998 96.6,26.95 96.25,27.299999999999997 97.64999999999999,25.549999999999997 100.44999999999999,24.15 100.8,24.849999999999998 98.0,26.25 97.3,27.65 98.35,26.25 100.8,24.849999999999998 101.85,25.2 105.0,23.099999999999998" stroke="#aaa" stroke-width="1" /><polyline fill="none" points="54.25,224.0 54.599999999999994,226.1 55.3,226.1 56.0,224.7 56.349999999999994,225.04999999999998 56.349999999999994,227.14999999999998 59.15,226.1 58.099999999999994,225.39999999999998 57.74999999999999,223.64999999999998" stroke="#aaa" stroke-width="1" /><polyline fill="none" points="8.399999999999999,94.85 11.2,104.3 11.549999999999999,107.1 12.6,108.5 14.7,114.8 15.049999999999999,117.94999999999999 16.45,122.14999999999999 21.349999999999998,128.45 21.7,130.2 24.15,134.75 25.9,136.5 26.599999999999998,136.5 28.0,135.45 28.0,134.04999999999998 26.599999999999998,131.25 23.099999999999998,127.39999999999999 21.7,120.39999999999999 22.4,119.69999999999999 23.45,119.69999999999999 24.5,120.74999999999999 23.099999999999998,119.35 22.049999999999997,120.05 21.7,119.69999999999999 23.099999999999998,118.3 22.4,118.3 21.349999999999998,119.69999999999999 22.049999999999997,120.05 21.7,121.44999999999999 23.099999999999998,127.74999999999999 26.599999999999998,131.6 28.0,134.04999999999998 28.0,135.1 25.9,136.5 22.4,131.6 21.0,127.74999999999999 16.099999999999998,121.1 14.7,114.8 12.25,107.44999999999999 11.549999999999999,106.75" stroke="#aaa" stroke-width="1" /><polyline fill="none" points="138.6,17.849999999999998 136.5,17.5 135.45,16.45 135.1,17.5 134.04999999999998,17.15 133.7,16.099999999999998 130.2,15.749999999999998 131.6,16.45 131.6,17.15 130.54999999999998,17.15 129.5,16.099999999999998 128.1,16.099999999999998 129.15,16.099999999999998 129.15,16.799999999999997 127.39999999999999,16.799999999999997 127.39999999999999,16.099999999999998 126.35,16.099999999999998 124.94999999999999,19.95 124.94999999999999,22.4 124.24999999999999,23.45 123.55,22.75 124.24999999999999,20.299999999999997 123.89999999999999,18.549999999999997 123.19999999999999,18.549999999999997 123.89999999999999,18.9 123.55,19.25 124.24999999999999,19.25 123.89999999999999,19.95 121.1,20.299999999999997 123.89999999999999,20.299999999999997 123.19999999999999,22.4 124.24999999999999,23.45 124.24999999999999,24.5 124.94999999999999,24.849999999999998 125.64999999999999,24.5 124.94999999999999,24.849999999999998 124.24999999999999,23.45 125.3,23.45 124.6,23.099999999999998 125.3,19.25 125.99999999999999,18.549999999999997 128.1,19.95 127.39999999999999,20.299999999999997 126.35,19.599999999999998 125.64999999999999,20.299999999999997 125.99999999999999,21.349999999999998 126.69999999999999,19.95 128.1,20.299999999999997 127.74999999999999,19.25 125.64999999999999,18.2 126.69999999999999,16.099999999999998 126.69999999999999,17.849999999999998 127.39999999999999,16.799999999999997 128.79999999999998,16.799999999999997 129.85,17.849999999999998 131.6,18.2 129.5,17.5 129.5,16.45 132.29999999999998,17.5 133.35,18.9 132.65,19.25 131.25,18.9 133.35,19.25 133.0,17.849999999999998 131.6,17.15 131.95,16.799999999999997 133.7,16.799999999999997 135.1,17.5 135.79999999999998,16.799999999999997 136.14999999999998,17.5 135.45,18.2 136.14999999999998,17.5 137.2,17.5 137.89999999999998,18.2 136.14999999999998,19.25 134.75,18.549999999999997 136.14999999999998,19.25" stroke="#aaa" stroke-width="1" /><polyline fill="none" points="104.64999999999999,18.9 103.25,18.9 100.44999999999999,21.0 99.05,21.349999999999998 96.25,24.15 95.19999999999999,24.15 93.44999999999999,25.9 92.75,25.549999999999997 94.85,23.45 95.55,23.45 95.19999999999999,23.099999999999998 93.8,24.5 92.75,24.15 93.44999999999999,24.5 91.0,26.599999999999998 90.64999999999999,25.549999999999997 90.3,27.65 88.19999999999999,29.749999999999996 88.89999999999999,30.799999999999997 87.14999999999999,32.55 91.69999999999999,28.0 93.44999999999999,26.95 93.44999999999999,26.25 95.55,24.15 96.6,24.15 99.39999999999999,21.349999999999998 103.6,18.9" stroke="#aaa" stroke-width="1" /><polyline fill="none" points="105.69999999999999,19.25 102.19999999999999,21.0 99.05,23.45 100.8,23.45 102.19999999999999,22.049999999999997 103.6,21.7 101.85,21.7" stroke="#aaa" stroke-width="1" /><polyline fill="none" points="48.3,222.6 47.949999999999996,223.64999999999998 48.65,224.35 47.949999999999996,225.04999999999998 47.949999999999996,226.1 50.75,226.45 50.4,225.74999999999997 49.0,225.74999999999997 50.05,225.74999999999997 50.05,226.45 48.65,226.45 47.949999999999996,225.74999999999997 48.65,224.7 49.349999999999994,225.04999999999998 50.05,224.35 49.699999999999996,223.29999999999998" stroke="#aaa" stroke-width="1" /><polyline fill="none" points="46.199999999999996,221.2 45.15,222.25 45.5,223.64999999999998 44.8,224.35 44.8,225.74999999999997 46.55,225.74999999999997 45.849999999999994,224.7 46.9,223.64999999999998 46.9,222.95 46.199999999999996,222.6 45.5,223.64999999999998 45.15,223.29999999999998" stroke="#aaa" stroke-width="1" /><polyline fill="none" points="33.949999999999996,203.0 32.55,201.6 30.45,202.64999999999998 29.049999999999997,201.25 28.349999999999998,201.25 29.049999999999997,201.25 29.749999999999996,201.95 29.4,202.29999999999998 28.349999999999998,202.29999999999998 27.65,201.6 28.0,202.29999999999998 29.749999999999996,201.95 30.45,202.64999999999998 29.049999999999997,203.35 27.299999999999997,202.64999999999998 28.349999999999998,204.04999999999998 28.349999999999998,207.2 26.95,208.25 26.25,201.6 26.599999999999998,206.14999999999998 24.15,206.5 22.75,207.54999999999998 25.549999999999997,206.14999999999998 26.599999999999998,206.85 26.599999999999998,208.25 27.65,208.25 28.0,208.95 28.7,206.14999999999998 31.15,206.14999999999998 28.7,206.14999999999998 28.0,205.45 28.349999999999998,204.04999999999998 31.499999999999996,201.95 32.9,201.95" stroke="#aaa" stroke-width="1" /><polyline fill="none" points="98.69999999999999,11.549999999999999 96.94999999999999,12.6 95.19999999999999,12.6 91.35,17.15 89.25,18.2 88.55,19.599999999999998 87.85,18.549999999999997 88.89999999999999,17.5 86.8,19.599999999999998 85.05,19.599999999999998 86.44999999999999,17.849999999999998 86.8,18.2 86.44999999999999,17.849999999999998 88.19999999999999,16.099999999999998 88.55,16.799999999999997 87.5,17.849999999999998 88.89999999999999,16.799999999999997 88.55,16.099999999999998 89.94999999999999,14.7 91.0,15.049999999999999 89.94999999999999,15.749999999999998 91.0,15.049999999999999 91.69999999999999,15.399999999999999 90.64999999999999,14.7 92.39999999999999,13.299999999999999 89.94999999999999,14.7 89.6,14.35 91.35,12.25 89.94999999999999,13.649999999999999 89.6,12.95 87.5,14.7 86.44999999999999,14.7 87.85,14.7 89.6,13.299999999999999 89.6,15.049999999999999 87.85,15.399999999999999 89.25,15.399999999999999 87.5,16.799999999999997 85.39999999999999,15.749999999999998 86.1,16.099999999999998 84.35,17.5 86.1,16.799999999999997 86.44999999999999,16.099999999999998 87.5,16.799999999999997 81.89999999999999,22.4 81.19999999999999,23.799999999999997 84.0,20.65 84.35,21.0 84.0,20.65 85.05,19.599999999999998 85.75,20.299999999999997 83.64999999999999,23.099999999999998 85.75,20.299999999999997 86.1,20.65 87.14999999999999,19.95 87.5,18.549999999999997 88.55,19.599999999999998 83.3,24.5 82.94999999999999,23.099999999999998 83.3,24.5 82.25,25.549999999999997 81.55,24.849999999999998 80.14999999999999,25.2 77.35,29.4 78.39999999999999,28.0 79.44999999999999,28.7 88.89999999999999,19.599999999999998 89.94999999999999,17.849999999999998 90.64999999999999,17.849999999999998 91.69999999999999,16.799999999999997 92.39999999999999,17.5 89.94999999999999,19.25 84.69999999999999,24.5 85.39999999999999,23.799999999999997 86.1,24.5 82.94999999999999,28.0 82.25,27.65 84.0,25.549999999999997 82.25,27.299999999999997 82.25,28.0 83.3,28.0 84.35,26.599999999999998 85.05,26.95 84.35,28.7 82.25,30.799999999999997 84.69999999999999,28.349999999999998 85.05,27.299999999999997 85.75,27.65 85.05,26.95 86.8,25.549999999999997 87.5,26.95 82.6,31.499999999999996 82.94999999999999,31.849999999999998 91.69999999999999,23.799999999999997 92.39999999999999,22.75 91.69999999999999,23.45 91.35,22.75 93.8,20.65 88.19999999999999,24.849999999999998 91.0,22.75 91.69999999999999,23.45 88.55,26.599999999999998 87.5,26.95 86.8,25.549999999999997 89.25,22.75 85.05,26.95 84.69999999999999,26.599999999999998 85.39999999999999,25.2 89.6,21.349999999999998 89.25,21.7 88.55,21.0 93.8,16.45 92.75,17.15 91.69999999999999,16.799999999999997 93.8,15.049999999999999 93.8,14.35 95.55,12.6 97.3,12.6" stroke="#aaa" stroke-width="1" /><polyline fill="none" points="2.0999999999999996,123.89999999999999 2.8,125.3 1.4,126.35 0.35,125.3 0.7,125.99999999999999 0.0,126.35 1.4,126.35 2.8,125.3 3.8499999999999996,126.35 4.199999999999999,128.1 5.949999999999999,129.5 7.0,131.25 3.8499999999999996,127.05 4.199999999999999,125.64999999999999 5.949999999999999,127.05 9.799999999999999,133.35 10.5,135.45 13.299999999999999,138.6 16.45,146.64999999999998 17.849999999999998,146.64999999999998 19.25,144.2 19.25,142.45 18.2,139.29999999999998 16.45,135.79999999999998 11.549999999999999,130.54999999999998 10.149999999999999,127.39999999999999 9.45,122.85 10.85,129.5 11.549999999999999,130.9 16.45,136.14999999999998 19.25,142.45 19.25,144.2 17.15,147.0 16.45,146.64999999999998 13.299999999999999,138.25 10.5,135.1 7.699999999999999,129.15 4.8999999999999995,125.64999999999999 3.8499999999999996,125.99999999999999" stroke="#aaa" stroke-width="1" /><polyline fill="none" points="11.899999999999999,172.2 14.35,174.64999999999998 14.35,176.75 13.299999999999999,175.0 12.95,175.35 19.25,185.5 18.549999999999997,187.25 16.45,187.25 15.049999999999999,187.95 16.099999999999998,188.29999999999998 15.749999999999998,188.64999999999998 16.799999999999997,190.39999999999998 18.9,191.1 17.5,192.5 19.95,191.45 19.95,190.75 19.25,189.7 18.549999999999997,189.7 19.599999999999998,190.39999999999998 19.599999999999998,191.45 17.15,190.39999999999998 15.749999999999998,187.95 16.799999999999997,187.25 18.549999999999997,187.25 19.25,186.2 19.95,187.25 19.25,187.6 19.599999999999998,187.95 19.95,187.25 20.65,187.95 19.25,186.2 18.2,183.04999999999998 16.799999999999997,181.64999999999998 15.399999999999999,178.5 14.35,177.45 14.35,174.29999999999998" stroke="#aaa" stroke-width="1" /><polyline fill="none" points="279.29999999999995,98.0 279.29999999999995,99.75 276.5,107.8 274.75,117.24999999999999 274.75,121.8 272.65,126.35 271.25,133.7 269.84999999999997,137.2 268.09999999999997,144.54999999999998 267.4,150.85 262.84999999999997,161.0 262.5,163.45 261.8,164.14999999999998 258.3,179.2 257.25,181.29999999999998 257.95,197.39999999999998 259.7,210.7 259.7,217.0 260.4,219.45 260.75,227.14999999999998 261.8,227.14999999999998 266.34999999999997,225.04999999999998 268.09999999999997,225.04999999999998 273.0,226.45 275.45,228.2 279.65,229.95 273.0,226.45 268.09999999999997,225.04999999999998 266.34999999999997,225.04999999999998 261.8,227.14999999999998 260.75,226.79999999999998 257.25,186.2 257.25,181.29999999999998 258.3,179.2 259.0,174.64999999999998 260.4,171.14999999999998 262.84999999999997,161.0 267.4,150.85 268.09999999999997,144.54999999999998 269.84999999999997,137.2 271.25,133.7 272.65,126.35 274.75,121.8 274.75,117.24999999999999 276.5,107.8 278.59999999999997,102.19999999999999" stroke="#aaa" stroke-width="1" /><polyline fill="none" points="255.14999999999998,56.349999999999994 252.35,56.349999999999994 252.35,57.05 252.7,56.349999999999994 255.14999999999998,56.349999999999994 257.25,57.4 257.59999999999997,58.099999999999994 256.9,59.49999999999999 257.59999999999997,58.099999999999994 258.65,59.15 259.0,62.65 258.3,63.349999999999994 257.59999999999997,59.49999999999999 257.59999999999997,62.99999999999999 258.3,63.349999999999994 256.9,65.8 257.59999999999997,80.5 256.2,80.85 255.14999999999998,80.14999999999999 255.49999999999997,79.44999999999999 254.79999999999998,80.5 252.7,80.5 249.89999999999998,79.1 252.7,80.5 255.49999999999997,80.5 256.9,81.19999999999999 256.9,86.8 256.9,81.19999999999999 257.59999999999997,80.5 257.95,80.85 257.95,101.14999999999999 253.39999999999998,108.85 250.24999999999997,117.24999999999999 248.85,118.64999999999999 244.99999999999997,120.05 244.29999999999998,119.69999999999999 244.99999999999997,120.05 247.79999999999998,119.35 250.24999999999997,117.6 252.7,110.6 257.59999999999997,102.19999999999999 257.95,84.0 258.3,83.64999999999999 261.09999999999997,85.05 264.25,85.39999999999999 264.59999999999997,86.1 264.59999999999997,85.39999999999999 265.65,85.05 268.09999999999997,87.14999999999999 266.7,89.94999999999999 268.09999999999997,87.14999999999999 268.09999999999997,86.44999999999999 267.05,85.75 267.4,82.94999999999999 266.7,85.39999999999999 266.0,85.05 266.0,82.94999999999999 266.0,84.69999999999999 264.59999999999997,85.39999999999999 261.09999999999997,85.05 258.3,83.64999999999999 257.25,77.69999999999999 256.9,65.8 259.0,62.99999999999999 258.65,58.8 257.59999999999997,57.4" stroke="#aaa" stroke-width="1" /><polyline fill="none" points="134.75,7.0 135.79999999999998,6.6499999999999995 136.5,7.699999999999999 138.6,8.049999999999999 134.75,8.75 138.25,8.399999999999999 138.25,9.1 136.85,9.1 137.2,9.799999999999999 140.7,10.5 138.95,9.799999999999999 139.64999999999998,9.45 137.89999999999998,9.799999999999999 137.89999999999998,9.1 141.39999999999998,8.049999999999999 141.75,7.0 143.14999999999998,7.699999999999999 142.79999999999998,8.399999999999999 143.5,8.399999999999999 143.14999999999998,7.35 140.35,6.3 141.75,7.0 141.04999999999998,8.049999999999999 139.29999999999998,6.3 136.5,5.6 138.95,6.3 140.7,8.049999999999999 140.35,8.399999999999999 136.85,7.699999999999999 136.14999999999998,6.6499999999999995" stroke="#aaa" stroke-width="1" /><polyline fill="none" points="32.9,219.1 32.199999999999996,219.79999999999998 32.199999999999996,220.85 33.949999999999996,220.85 34.3,219.79999999999998" stroke="#aaa" stroke-width="1" /><polyline fill="none" points="144.54999999999998,2.4499999999999997 145.6,2.4499999999999997 145.95,3.15 148.39999999999998,4.199999999999999 147.35,4.55 148.04999999999998,4.8999999999999995 147.7,5.25 148.75,4.8999999999999995 149.45,5.6 148.75,5.949999999999999 150.14999999999998,7.0 151.54999999999998,7.0 151.89999999999998,6.3 148.75,4.8999999999999995 149.45,4.199999999999999 149.1,4.55 148.04999999999998,3.5 147.7,3.8499999999999996 145.6,2.4499999999999997" stroke="#aaa" stroke-width="1" /><polyline fill="none" points="92.39999999999999,9.45 91.35,9.45 89.6,11.2 88.55,10.5 90.64999999999999,8.399999999999999 89.25,9.799999999999999 88.55,9.45 88.89999999999999,9.799999999999999 86.8,12.25 87.5,13.299999999999999 85.75,14.0 84.69999999999999,13.299999999999999 87.85,9.1 87.85,8.399999999999999 87.14999999999999,8.399999999999999 86.44999999999999,9.45 87.5,8.399999999999999 87.85,9.1 84.69999999999999,12.95 83.3,12.95 84.69999999999999,12.95 83.64999999999999,14.0 84.69999999999999,13.299999999999999 85.05,13.649999999999999 84.69999999999999,15.399999999999999 81.89999999999999,17.849999999999998 80.14999999999999,18.549999999999997 75.6,23.799999999999997 75.6,22.4 75.6,23.799999999999997 74.55,25.2 72.1,25.549999999999997 71.39999999999999,24.15 71.75,25.549999999999997 74.55,25.2 75.94999999999999,25.9 76.64999999999999,25.2 75.94999999999999,24.849999999999998 77.0,23.799999999999997 76.64999999999999,22.75 78.05,21.349999999999998 79.1,21.349999999999998 78.39999999999999,21.7 78.39999999999999,20.65 80.5,18.549999999999997 81.89999999999999,18.549999999999997 81.55,18.2 84.35,16.099999999999998 85.39999999999999,14.35 88.19999999999999,12.95 87.5,13.299999999999999 86.8,12.6 87.85,10.85 88.89999999999999,10.85 88.89999999999999,12.25 91.69999999999999,9.45 92.39999999999999,9.799999999999999 92.05,10.149999999999999" stroke="#aaa" stroke-width="1" /><polyline fill="none" points="261.45,61.599999999999994 264.25,61.599999999999994 266.7,62.99999999999999 268.09999999999997,64.75 269.84999999999997,68.25 270.2,74.55 272.65,81.89999999999999 272.65,84.35 269.84999999999997,87.5 268.09999999999997,91.69999999999999 266.0,99.05 266.0,100.8 264.25,103.6 264.25,104.64999999999999 263.55,105.35 262.5,105.35 263.9,105.35 264.25,103.6 266.0,100.8 266.0,99.05 269.5,88.55 270.54999999999995,86.8 272.65,84.69999999999999 273.34999999999997,84.69999999999999 272.65,84.35 273.0,83.64999999999999 272.29999999999995,80.14999999999999 270.2,74.55 269.84999999999997,68.25 267.4,63.349999999999994 264.25,61.599999999999994" stroke="#aaa" stroke-width="1" /><polyline fill="none" points="109.19999999999999,2.0999999999999996 106.05,2.4499999999999997 101.85,4.55 100.8,4.199999999999999 101.14999999999999,4.55 99.75,5.949999999999999 97.3,6.6499999999999995 96.25,8.049999999999999 93.44999999999999,9.45 93.1,8.75 94.14999999999999,6.6499999999999995 100.1,3.5 98.69999999999999,4.199999999999999 97.64999999999999,3.8499999999999996 98.0,4.199999999999999 94.14999999999999,6.6499999999999995 93.1,8.399999999999999 92.05,8.399999999999999 92.75,8.399999999999999 93.44999999999999,9.799999999999999 91.35,11.549999999999999 94.14999999999999,9.1 96.6,8.049999999999999 97.64999999999999,6.6499999999999995 100.1,5.949999999999999 101.5,4.55 106.05,2.4499999999999997" stroke="#aaa" stroke-width="1" /><polyline fill="none" points="75.25,223.29999999999998 72.8,220.85 68.94999999999999,218.75 56.0,213.85 42.0,210.7 30.099999999999998,209.29999999999998 27.65,209.64999999999998 26.95,210.7 26.95,214.89999999999998 25.9,217.35 25.9,219.45 24.849999999999998,221.89999999999998 23.45,228.2 23.099999999999998,234.49999999999997 19.95,248.14999999999998 15.049999999999999,262.5 14.0,263.9 13.299999999999999,267.05 12.6,267.75 7.699999999999999,279.65 11.2,272.29999999999995 11.549999999999999,270.2 13.299999999999999,267.05 14.0,264.25 14.7,263.55 19.95,248.14999999999998 23.099999999999998,234.49999999999997 23.45,228.2 26.95,214.89999999999998 26.95,210.7 28.0,209.64999999999998 30.099999999999998,209.29999999999998 42.0,210.7 61.599999999999994,215.6 71.39999999999999,220.14999999999998 74.89999999999999,223.29999999999998 73.85,228.2" stroke="#aaa" stroke-width="1" /><polyline fill="none" points="100.1,0.0 99.39999999999999,0.7 98.35,0.0 96.94999999999999,1.4 95.19999999999999,1.75 94.5,2.4499999999999997 93.1,1.4 94.85,0.0 93.8,0.35 92.39999999999999,2.4499999999999997 90.64999999999999,3.8499999999999996 92.05,2.8 92.75,3.15 92.39999999999999,3.5 93.8,2.0999999999999996 94.14999999999999,2.8 89.94999999999999,7.0 89.25,6.6499999999999995 88.55,7.35 90.3,6.6499999999999995 91.0,7.699999999999999 92.39999999999999,6.3 93.44999999999999,6.3 95.19999999999999,5.25 97.64999999999999,2.8 98.0,3.15 97.64999999999999,2.8 98.35,2.0999999999999996 99.75,2.8 99.75,1.75 98.35,2.0999999999999996 95.55,4.55 95.19999999999999,4.199999999999999 95.19999999999999,5.25 94.14999999999999,4.8999999999999995 94.85,5.25 93.44999999999999,6.3 92.75,6.3 92.05,5.25 95.55,1.75 97.3,1.4 98.69999999999999,0.0 99.39999999999999,1.0499999999999998" stroke="#aaa" stroke-width="1" /><polyline fill="none" points="5.949999999999999,78.75 3.5,80.85 2.8,82.94999999999999 3.5,86.1 4.55,87.5 0.0,87.5 3.15,87.5 3.8499999999999996,88.19999999999999 4.55,87.85 5.25,88.55 4.199999999999999,89.25 5.25,88.55 6.6499999999999995,89.25 7.0,89.94999999999999 6.3,90.3 7.0,89.94999999999999 12.25,95.19999999999999 6.3,88.89999999999999 5.6,88.89999999999999 4.55,87.85 2.8,84.0 2.8,82.94999999999999 3.5,81.19999999999999 5.6,79.1 7.35,78.39999999999999 10.5,78.75 11.549999999999999,79.44999999999999 10.5,79.8 10.85,80.14999999999999 11.899999999999999,79.44999999999999 11.899999999999999,80.14999999999999 12.25,79.8 14.7,81.55 10.85,78.75" stroke="#aaa" stroke-width="1" /><polyline fill="none" points="24.849999999999998,219.79999999999998 23.799999999999997,219.79999999999998 20.65,221.89999999999998 15.749999999999998,222.25 11.549999999999999,223.64999999999998 8.75,226.45 7.35,229.24999999999997 8.049999999999999,235.54999999999998 3.15,240.1 4.199999999999999,239.74999999999997 8.399999999999999,235.2 7.35,232.39999999999998 7.35,229.24999999999997 8.75,226.79999999999998 11.899999999999999,223.64999999999998 14.0,222.6 20.65,221.89999999999998 23.799999999999997,219.79999999999998" stroke="#aaa" stroke-width="1" /><polyline fill="none" points="7.699999999999999,39.55 8.399999999999999,39.199999999999996 9.799999999999999,40.599999999999994 8.75,43.4 10.149999999999999,43.75 10.149999999999999,44.449999999999996 14.0,44.449999999999996 16.799999999999997,42.699999999999996 16.799999999999997,40.949999999999996 15.399999999999999,39.55 15.049999999999999,39.9 15.749999999999998,39.9 16.799999999999997,40.949999999999996 16.45,42.699999999999996 16.099999999999998,41.3 14.0,40.599999999999994 14.35,39.9 12.95,42.0 13.299999999999999,43.75 12.6,44.449999999999996 9.45,43.75 9.45,41.3 10.85,40.599999999999994 11.549999999999999,41.3 10.85,42.0 11.549999999999999,40.949999999999996 11.2,40.25 9.799999999999999,40.599999999999994 8.75,39.199999999999996" stroke="#aaa" stroke-width="1" /><polyline fill="none" points="13.649999999999999,36.05 13.299999999999999,39.199999999999996 16.45,38.15 16.45,36.4" stroke="#aaa" stroke-width="1" /><polyline fill="none" points="14.7,27.299999999999997 12.95,27.65 12.25,29.049999999999997 12.95,29.4 12.6,30.45 13.649999999999999,30.799999999999997 15.399999999999999,29.749999999999996 15.399999999999999,28.349999999999998" stroke="#aaa" stroke-width="1" /><polyline fill="none" points="9.799999999999999,20.65 8.399999999999999,20.65 7.699999999999999,22.4 9.45,22.4" stroke="#aaa" stroke-width="1" /><polyline fill="none" points="7.35,14.7 9.45,15.049999999999999 10.149999999999999,14.35 9.45,14.0 10.85,13.299999999999999 9.799999999999999,13.649999999999999 9.1,12.95 7.35,12.95" stroke="#aaa" stroke-width="1" /></svg>