<?xml version="1.0" encoding="utf-8" ?>
<svg baseProfile="full" height="224" version="1.1" width="224" xmlns="http://www.w3.org/2000/svg" xmlns:ev="http://www.w3.org/2001/xml-events" xmlns:xlink="http://www.w3.org/1999/xlink"><defs /><polyline fill="none" points="123.89999999999999,138.95 126.35,142.79999999999998 134.39999999999998,143.5 140.35,149.1 147.35,148.04999999999998 156.79999999999998,140.7 147.0,145.95 147.0,148.04999999999998 140.35,149.1 134.39999999999998,143.5 127.05,143.14999999999998" stroke="#aaa" stroke-width="1" /><polyline fill="none" points="129.85,161.0" stroke="#aaa" stroke-width="1" /><polyline fill="none" points="142.79999999999998,128.79999999999998 139.29999999999998,128.79999999999998 138.95,130.9" stroke="#aaa" stroke-width="1" /><polyline fill="none" points="145.6,152.6 141.04999999999998,151.2 143.14999999999998,151.89999999999998 141.04999999999998,155.04999999999998 131.95,153.29999999999998 141.39999999999998,155.04999999999998 141.39999999999998,157.5 143.14999999999998,157.14999999999998 142.45,152.6" stroke="#aaa" stroke-width="1" /><polyline fill="none" points="138.95,118.3" stroke="#aaa" stroke-width="1" /><polyline fill="none" points="133.7,161.35 141.75,161.35" stroke="#aaa" stroke-width="1" /><polyline fill="none" points="142.45,110.6 135.45,111.3 125.3,133.7 129.85,125.99999999999999 130.54999999999998,127.74999999999999 135.45,111.64999999999999 138.95,109.55 143.14999999999998,111.64999999999999 152.25,125.64999999999999" stroke="#aaa" stroke-width="1" /><polyline fill="none" points="126.35,160.64999999999998 133.7,160.64999999999998" stroke="#aaa" stroke-width="1" /><polyline fill="none" points="84.35,158.89999999999998" stroke="#aaa" stroke-width="1" /><polyline fill="none" points="128.1,116.55 122.49999999999999,119.69999999999999" stroke="#aaa" stroke-width="1" /><polyline fill="none" points="120.39999999999999,161.7 128.1,161.35" stroke="#aaa" stroke-width="1" /><polyline fill="none" points="148.04999999999998,114.8 150.14999999999998,113.05 148.04999999999998,114.8 149.79999999999998,119.35 160.29999999999998,125.64999999999999 173.6,126.35 181.29999999999998,122.49999999999999 178.14999999999998,125.64999999999999 160.29999999999998,125.64999999999999 152.6,121.8 148.75,116.55 150.5,114.44999999999999" stroke="#aaa" stroke-width="1" /><polyline fill="none" points="170.1,160.29999999999998 167.64999999999998,158.54999999999998 169.04999999999998,157.5 133.7,159.95 161.0,159.95 154.0,158.89999999999998 165.54999999999998,157.85" stroke="#aaa" stroke-width="1" /><polyline fill="none" points="82.94999999999999,156.79999999999998" stroke="#aaa" stroke-width="1" /><polyline fill="none" points="156.79999999999998,126.35 161.0,129.15 180.95,128.79999999999998 161.35,129.15 157.14999999999998,126.35 164.5,128.1 178.5,126.69999999999999" stroke="#aaa" stroke-width="1" /><polyline fill="none" points="127.74999999999999,165.2 123.89999999999999,162.39999999999998 116.89999999999999,163.1 115.14999999999999,166.95 120.39999999999999,162.75" stroke="#aaa" stroke-width="1" /><polyline fill="none" points="155.75,128.45 167.64999999999998,131.25 187.6,129.15 167.64999999999998,131.25" stroke="#aaa" stroke-width="1" /><polyline fill="none" points="131.25,117.6 130.54999999999998,115.49999999999999 130.2,120.05 125.3,126.35 110.25,131.25 99.05,127.74999999999999 93.1,120.74999999999999 94.5,119.35 93.1,120.74999999999999 98.69999999999999,127.74999999999999 110.25,131.25 125.64999999999999,126.35" stroke="#aaa" stroke-width="1" /><polyline fill="none" points="125.3,104.64999999999999 129.15,108.5 123.55,109.89999999999999 128.45,109.55" stroke="#aaa" stroke-width="1" /><polyline fill="none" points="102.19999999999999,142.45 106.39999999999999,149.1 102.19999999999999,142.79999999999998 106.05,144.2" stroke="#aaa" stroke-width="1" /><polyline fill="none" points="152.25,175.35 135.45,177.45" stroke="#aaa" stroke-width="1" /><polyline fill="none" points="85.39999999999999,128.1 98.69999999999999,137.54999999999998 97.64999999999999,138.95 124.6,133.35 99.05,137.89999999999998 87.14999999999999,128.1 88.19999999999999,123.19999999999999 89.94999999999999,126.69999999999999 90.3,121.1 102.19999999999999,132.29999999999998 111.64999999999999,132.65 123.89999999999999,129.15 122.49999999999999,132.65 105.35,135.45 122.49999999999999,132.65 125.64999999999999,128.79999999999998 111.64999999999999,132.65 102.19999999999999,132.29999999999998 90.64999999999999,121.1" stroke="#aaa" stroke-width="1" /><polyline fill="none" points="123.89999999999999,102.55 139.29999999999998,103.94999999999999" stroke="#aaa" stroke-width="1" /><polyline fill="none" points="161.35,108.5 163.1,108.5" stroke="#aaa" stroke-width="1" /><polyline fill="none" points="123.89999999999999,101.14999999999999 139.64999999999998,103.25" stroke="#aaa" stroke-width="1" /><polyline fill="none" points="136.5,98.35 141.39999999999998,100.8" stroke="#aaa" stroke-width="1" /><polyline fill="none" points="157.14999999999998,96.6 143.85,101.14999999999999 155.39999999999998,97.64999999999999 149.79999999999998,101.85 126.35,100.8 149.79999999999998,102.19999999999999" stroke="#aaa" stroke-width="1" /><polyline fill="none" points="173.95,105.35 166.25,101.5 152.95,106.05 155.04999999999998,106.75 152.6,109.19999999999999 150.5,108.14999999999999 168.35,107.8 159.6,106.05 162.75,107.1 158.54999999999998,103.94999999999999 162.39999999999998,102.89999999999999 163.79999999999998,105.69999999999999 164.5,103.25 163.45,105.69999999999999 161.35,102.55 164.14999999999998,101.85" stroke="#aaa" stroke-width="1" /><polyline fill="none" points="118.3,111.64999999999999 116.19999999999999,107.1 115.49999999999999,110.94999999999999 106.75,110.6 99.75,113.74999999999999 106.39999999999999,113.05 106.75,110.6 110.25,113.05 116.19999999999999,109.89999999999999" stroke="#aaa" stroke-width="1" /><polyline fill="none" points="122.49999999999999,109.89999999999999 114.1,105.0 108.5,105.69999999999999 110.25,106.39999999999999 102.55,110.6 107.1,106.75 115.85,105.35 122.49999999999999,110.25 119.69999999999999,112.35" stroke="#aaa" stroke-width="1" /><polyline fill="none" points="100.44999999999999,155.39999999999998 102.19999999999999,158.89999999999998" stroke="#aaa" stroke-width="1" /><polyline fill="none" points="183.75,116.89999999999999 177.45,123.55 175.0,122.49999999999999 177.79999999999998,123.55" stroke="#aaa" stroke-width="1" /><polyline fill="none" points="113.05,176.39999999999998 114.8,178.14999999999998" stroke="#aaa" stroke-width="1" /><polyline fill="none" points="112.69999999999999,177.45 114.8,179.2" stroke="#aaa" stroke-width="1" /><polyline fill="none" points="90.3,137.89999999999998 96.6,143.5" stroke="#aaa" stroke-width="1" /><polyline fill="none" points="96.25,120.05 98.0,121.8" stroke="#aaa" stroke-width="1" /><polyline fill="none" points="119.69999999999999,105.0 104.3,104.3 99.39999999999999,108.5 104.64999999999999,104.3" stroke="#aaa" stroke-width="1" /><polyline fill="none" points="184.79999999999998,116.89999999999999 182.0,122.49999999999999" stroke="#aaa" stroke-width="1" /><polyline fill="none" points="154.7,91.69999999999999 150.85,93.8" stroke="#aaa" stroke-width="1" /><polyline fill="none" points="177.45,102.19999999999999 172.54999999999998,98.69999999999999 163.1,100.1 171.14999999999998,101.14999999999999 169.75,99.75 172.54999999999998,98.69999999999999" stroke="#aaa" stroke-width="1" /><polyline fill="none" points="134.75,84.0 134.75,91.35 137.54999999999998,89.6 137.2,91.69999999999999 141.75,92.75 135.45,90.3 136.85,84.69999999999999" stroke="#aaa" stroke-width="1" /><polyline fill="none" points="86.1,130.9 90.64999999999999,136.5" stroke="#aaa" stroke-width="1" /><polyline fill="none" points="91.69999999999999,109.55 92.75,118.3 98.35,113.39999999999999 96.25,115.14999999999999 93.8,112.69999999999999 95.89999999999999,115.14999999999999 94.14999999999999,114.44999999999999 92.39999999999999,117.94999999999999" stroke="#aaa" stroke-width="1" /><polyline fill="none" points="166.25,97.64999999999999 168.7,95.89999999999999 182.35,97.3 166.95,95.55 168.35,96.94999999999999" stroke="#aaa" stroke-width="1" /><polyline fill="none" points="115.49999999999999,101.5 96.6,102.19999999999999 90.3,108.85 96.6,102.19999999999999" stroke="#aaa" stroke-width="1" /><polyline fill="none" points="113.05,99.05 102.19999999999999,98.35 89.94999999999999,102.19999999999999 102.19999999999999,98.35" stroke="#aaa" stroke-width="1" /><polyline fill="none" points="186.54999999999998,104.64999999999999 186.2,112.35 185.14999999999998,107.8 187.25,106.39999999999999 188.64999999999998,110.25" stroke="#aaa" stroke-width="1" /><polyline fill="none" points="103.94999999999999,187.6 128.45,199.85 145.95,201.25 130.2,199.5" stroke="#aaa" stroke-width="1" /><polyline fill="none" points="184.1,98.0 183.04999999999998,102.19999999999999" stroke="#aaa" stroke-width="1" /><polyline fill="none" points="92.05,100.44999999999999 101.14999999999999,97.3 110.6,98.0 101.14999999999999,97.3 93.1,99.75 98.0,94.5 100.44999999999999,95.19999999999999 98.0,93.8" stroke="#aaa" stroke-width="1" /><polyline fill="none" points="82.94999999999999,110.25 88.55,118.3 80.14999999999999,119.35 86.1,121.1 88.55,117.94999999999999" stroke="#aaa" stroke-width="1" /><polyline fill="none" points="168.0,86.8 170.1,87.85" stroke="#aaa" stroke-width="1" /><polyline fill="none" points="192.14999999999998,168.7 192.85,170.79999999999998" stroke="#aaa" stroke-width="1" /><polyline fill="none" points="118.99999999999999,78.05 122.49999999999999,79.44999999999999" stroke="#aaa" stroke-width="1" /><polyline fill="none" points="73.14999999999999,153.64999999999998 77.69999999999999,162.75 82.25,165.89999999999998 82.6,169.75 82.6,165.89999999999998 77.69999999999999,162.39999999999998" stroke="#aaa" stroke-width="1" /><polyline fill="none" points="68.25,132.29999999999998 71.75,150.14999999999998 74.19999999999999,153.29999999999998 72.44999999999999,150.14999999999998 80.14999999999999,152.6 75.25,150.5 76.64999999999999,148.04999999999998 80.85,151.2 77.0,148.04999999999998 71.75,150.14999999999998" stroke="#aaa" stroke-width="1" /><polyline fill="none" points="204.39999999999998,120.74999999999999 202.64999999999998,121.8 204.39999999999998,124.94999999999999" stroke="#aaa" stroke-width="1" /><polyline fill="none" points="72.1,138.95 74.55,145.6" stroke="#aaa" stroke-width="1" /><polyline fill="none" points="201.25,84.0 203.7,93.44999999999999 202.29999999999998,103.6 206.85,116.19999999999999 204.75,116.55 202.29999999999998,107.1 200.54999999999998,111.64999999999999 198.79999999999998,110.25 200.54999999999998,108.14999999999999 198.45,106.75 201.95,104.64999999999999 197.39999999999998,106.05 203.7,120.05 200.2,124.24999999999999 203.0,138.25 198.79999999999998,150.14999999999998 192.85,155.75 193.54999999999998,159.95 183.39999999999998,176.39999999999998 183.39999999999998,187.25 191.79999999999998,166.95 184.79999999999998,186.89999999999998 183.39999999999998,176.75 193.2,160.29999999999998 193.89999999999998,164.5 191.79999999999998,164.14999999999998 201.25,189.7 201.95,205.45 207.89999999999998,212.45 227.85,220.85 234.49999999999997,220.5 279.65,233.1 253.04999999999998,225.04999999999998 256.55,224.0 250.95,225.39999999999998 228.2,220.85 210.0,213.5 201.95,205.1 201.25,189.7 193.54999999999998,167.64999999999998 192.85,158.2 198.79999999999998,150.5 203.0,138.25 200.54999999999998,122.49999999999999 203.7,119.69999999999999 200.54999999999998,109.55 202.64999999999998,107.8 205.79999999999998,127.74999999999999 207.89999999999998,127.74999999999999 205.79999999999998,109.55 202.29999999999998,103.25 203.7,93.44999999999999" stroke="#aaa" stroke-width="1" /><polyline fill="none" points="85.05,101.85 80.5,104.64999999999999 77.35,111.3" stroke="#aaa" stroke-width="1" /><polyline fill="none" points="117.24999999999999,74.19999999999999 119.35,75.6" stroke="#aaa" stroke-width="1" /><polyline fill="none" points="98.69999999999999,196.7 112.35,210.35" stroke="#aaa" stroke-width="1" /><polyline fill="none" points="63.349999999999994,100.1 61.949999999999996,133.0 72.1,174.64999999999998 73.5,172.2 67.89999999999999,151.89999999999998 70.0,149.45 66.5,138.95 66.5,127.05 69.3,131.6 67.55,126.69999999999999 65.8,127.74999999999999 72.44999999999999,173.25 70.0,170.45 61.949999999999996,133.0" stroke="#aaa" stroke-width="1" /><polyline fill="none" points="196.7,92.39999999999999 200.89999999999998,101.14999999999999" stroke="#aaa" stroke-width="1" /><polyline fill="none" points="171.85,72.44999999999999 173.25,74.89999999999999" stroke="#aaa" stroke-width="1" /><polyline fill="none" points="100.1,203.35 101.14999999999999,205.45" stroke="#aaa" stroke-width="1" /><polyline fill="none" points="64.05,120.39999999999999 64.75,141.39999999999998" stroke="#aaa" stroke-width="1" /><polyline fill="none" points="120.39999999999999,214.2 132.65,222.95" stroke="#aaa" stroke-width="1" /><polyline fill="none" points="59.15,134.39999999999998 59.849999999999994,136.14999999999998" stroke="#aaa" stroke-width="1" /><polyline fill="none" points="112.0,214.89999999999998 121.1,222.6" stroke="#aaa" stroke-width="1" /><polyline fill="none" points="201.95,84.69999999999999 204.75,89.25" stroke="#aaa" stroke-width="1" /><polyline fill="none" points="132.65,221.54999999999998 136.85,225.04999999999998" stroke="#aaa" stroke-width="1" /><polyline fill="none" points="75.94999999999999,58.8 68.94999999999999,66.14999999999999 71.39999999999999,64.75 72.1,67.19999999999999 60.55,109.19999999999999 60.55,133.35 64.75,151.2 60.55,133.35 60.55,109.55 62.65,98.0 64.75,99.39999999999999 63.699999999999996,118.64999999999999 65.45,94.85 64.05,98.0 62.99999999999999,96.6 71.39999999999999,64.75" stroke="#aaa" stroke-width="1" /><polyline fill="none" points="136.14999999999998,223.64999999999998 156.1,227.49999999999997" stroke="#aaa" stroke-width="1" /><polyline fill="none" points="131.6,52.5 133.35,54.599999999999994" stroke="#aaa" stroke-width="1" /><polyline fill="none" points="191.1,59.49999999999999 205.79999999999998,89.25" stroke="#aaa" stroke-width="1" /><polyline fill="none" points="117.6,226.79999999999998 114.44999999999999,228.2" stroke="#aaa" stroke-width="1" /><polyline fill="none" points="105.69999999999999,225.39999999999998 107.1,227.14999999999998" stroke="#aaa" stroke-width="1" /><polyline fill="none" points="158.54999999999998,45.15 122.14999999999999,47.599999999999994 150.5,47.949999999999996 149.45,45.849999999999994" stroke="#aaa" stroke-width="1" /><polyline fill="none" points="157.5,46.199999999999996 166.6,50.4" stroke="#aaa" stroke-width="1" /><polyline fill="none" points="121.44999999999999,45.15 114.1,50.4" stroke="#aaa" stroke-width="1" /><polyline fill="none" points="167.64999999999998,230.99999999999997 164.14999999999998,233.45" stroke="#aaa" stroke-width="1" /><polyline fill="none" points="174.64999999999998,37.449999999999996 179.89999999999998,41.65 174.29999999999998,41.3 186.2,53.55 192.85,67.89999999999999 186.54999999999998,56.699999999999996 190.39999999999998,58.8 174.29999999999998,40.949999999999996 179.54999999999998,43.05 180.6,41.3 183.75,44.8 180.6,44.099999999999994 183.75,44.449999999999996" stroke="#aaa" stroke-width="1" /><polyline fill="none" points="77.0,122.49999999999999 78.05,142.79999999999998 86.1,163.1 83.64999999999999,170.1 80.85,170.1 82.94999999999999,171.14999999999998 83.64999999999999,166.25 86.8,165.2 89.94999999999999,171.85 85.39999999999999,167.29999999999998 88.89999999999999,174.64999999999998 90.64999999999999,170.79999999999998 93.8,176.04999999999998 92.05,178.14999999999998 94.85,184.45 82.6,206.5 84.0,174.64999999999998 80.5,171.85 82.94999999999999,176.39999999999998 80.5,175.0 81.19999999999999,185.14999999999998 73.14999999999999,223.29999999999998 67.19999999999999,226.45 62.65,221.54999999999998 52.5,225.04999999999998 50.75,222.95 45.15,227.85 23.099999999999998,236.24999999999997 19.95,244.99999999999997 0.0,248.85 22.4,244.64999999999998 22.049999999999997,254.79999999999998 9.799999999999999,256.55 1.4,262.15 0.7,260.05 7.35,254.79999999999998 0.7,260.05 3.15,264.25 0.0,264.25 2.8,264.95 1.75,261.45 6.6499999999999995,257.95 23.45,253.39999999999998 29.4,279.65 20.65,242.2 22.049999999999997,237.64999999999998 46.199999999999996,227.49999999999997 51.099999999999994,222.95 52.5,225.04999999999998 62.65,221.54999999999998 67.19999999999999,226.79999999999998 73.14999999999999,223.64999999999998 81.19999999999999,185.14999999999998 79.8,177.1 83.3,175.7 81.19999999999999,174.64999999999998 82.25,172.2 84.0,178.5 81.55,205.79999999999998 91.0,189.7 93.8,194.95 91.0,189.7 95.89999999999999,184.79999999999998 92.39999999999999,177.45 94.85,177.1 104.3,186.89999999999998 93.44999999999999,175.7 82.6,154.35" stroke="#aaa" stroke-width="1" /><polyline fill="none" points="184.45,39.9 187.6,47.25" stroke="#aaa" stroke-width="1" /><polyline fill="none" points="88.19999999999999,38.5 71.75,57.4 73.14999999999999,60.199999999999996" stroke="#aaa" stroke-width="1" /><polyline fill="none" points="173.25,36.75 177.79999999999998,36.75 177.1,39.199999999999996 179.89999999999998,37.8" stroke="#aaa" stroke-width="1" /><polyline fill="none" points="162.75,31.15 168.0,33.599999999999994" stroke="#aaa" stroke-width="1" /><polyline fill="none" points="168.7,33.25 179.89999999999998,35.699999999999996" stroke="#aaa" stroke-width="1" /><polyline fill="none" points="187.25,239.04999999999998 189.35,242.2" stroke="#aaa" stroke-width="1" /></svg>