<?xml version='1.0' encoding='UTF-8'?>
<svg xmlns="http://www.w3.org/2000/svg" xmlns:ev="http://www.w3.org/2001/xml-events" xmlns:xlink="http://www.w3.org/1999/xlink" baseProfile="full" height="800" version="1.1" width="800">
  <polyline fill="none" points="392.0,435.0 392.0,439.0 397.0,442.0 403.0,442.0 404.0,438.0 397.0,435.0" stroke="#50fa28" stroke-width="1"/>
  <polyline fill="none" points="415.0,433.0 422.0,438.0 428.0,435.0 423.0,433.0" stroke="#922f62" stroke-width="1"/>
  <polyline fill="none" points="443.0,425.0 437.0,431.0 437.0,438.0 441.0,440.0 446.0,438.0 448.0,425.0" stroke="#e58d67" stroke-width="1"/>
  <polyline fill="none" points="376.0,427.0 372.0,428.0 371.0,435.0 357.0,452.0 357.0,463.0 364.0,462.0 366.0,455.0 371.0,456.0 371.0,463.0 375.0,467.0 373.0,482.0 403.0,474.0 436.0,473.0 458.0,468.0 487.0,475.0 494.0,472.0 488.0,466.0 480.0,466.0 477.0,461.0 457.0,462.0 449.0,447.0 443.0,447.0 435.0,456.0 434.0,453.0 424.0,453.0 422.0,445.0 410.0,449.0 413.0,462.0 410.0,467.0 406.0,469.0 404.0,466.0 396.0,466.0 391.0,460.0 394.0,453.0 385.0,457.0 383.0,454.0 387.0,448.0 388.0,436.0 380.0,427.0" stroke="#1a7f40" stroke-width="1"/>
  <polyline fill="none" points="320.0,328.0 313.0,330.0 310.0,335.0 312.0,339.0 321.0,339.0 322.0,342.0 334.0,338.0 337.0,332.0 345.0,334.0 341.0,339.0 345.0,337.0 345.0,333.0 332.0,332.0 330.0,328.0 330.0,331.0 326.0,332.0 322.0,328.0" stroke="#f498eb" stroke-width="1"/>
  <polyline fill="none" points="442.0,480.0 431.0,487.0 424.0,483.0 413.0,484.0 408.0,489.0 399.0,487.0 394.0,492.0 386.0,491.0 380.0,495.0 384.0,507.0 392.0,503.0 406.0,505.0 409.0,502.0 416.0,507.0 424.0,507.0 433.0,502.0 447.0,504.0 452.0,499.0 471.0,499.0 477.0,485.0 455.0,481.0 453.0,483.0 455.0,491.0 452.0,492.0 451.0,485.0 446.0,480.0" stroke="#79ce44" stroke-width="1"/>
  <polyline fill="none" points="407.0,508.0 410.0,515.0 414.0,515.0 418.0,510.0 408.0,508.0" stroke="#74cb20" stroke-width="1"/>
  <polyline fill="none" points="321.0,317.0 320.0,322.0 325.0,322.0 325.0,317.0" stroke="#0c697d" stroke-width="1"/>
  <polyline fill="none" points="479.0,249.0 483.0,248.0 489.0,254.0 499.0,255.0 504.0,261.0 516.0,261.0 531.0,274.0 530.0,279.0 503.0,282.0 504.0,288.0 512.0,293.0 526.0,310.0 527.0,320.0 534.0,334.0 522.0,338.0 521.0,342.0 514.0,341.0 517.0,348.0 524.0,349.0 524.0,364.0 528.0,367.0 526.0,372.0 522.0,372.0 522.0,378.0 516.0,380.0 511.0,387.0 504.0,386.0 509.0,383.0 502.0,387.0 489.0,383.0 479.0,374.0 473.0,374.0 469.0,371.0 471.0,370.0 467.0,372.0 460.0,357.0 456.0,357.0 451.0,350.0 442.0,326.0 436.0,319.0 441.0,300.0 447.0,290.0 445.0,282.0 450.0,278.0 449.0,274.0 453.0,272.0 457.0,260.0 463.0,253.0 470.0,254.0 475.0,249.0" stroke="#947953" stroke-width="1"/>
  <polyline fill="none" points="275.0,410.0 279.0,411.0 276.0,416.0 275.0,411.0" stroke="#3f40b8" stroke-width="1"/>
  <polyline fill="none" points="502.0,325.0 500.0,330.0 507.0,333.0 516.0,332.0 514.0,325.0" stroke="#50ad0d" stroke-width="1"/>
  <polyline fill="none" points="419.0,263.0 421.0,262.0 425.0,269.0 425.0,281.0 422.0,282.0 419.0,265.0" stroke="#6df1a6" stroke-width="1"/>
  <polyline fill="none" points="300.0,473.0 294.0,474.0 296.0,482.0 294.0,493.0 300.0,491.0 300.0,479.0" stroke="#7f0171" stroke-width="1"/>
  <polyline fill="none" points="343.0,522.0 345.0,525.0 342.0,529.0 338.0,525.0 343.0,523.0" stroke="#409352" stroke-width="1"/>
  <polyline fill="none" points="396.0,534.0 405.0,540.0 418.0,538.0 428.0,542.0 432.0,542.0 434.0,538.0 440.0,542.0 460.0,538.0 462.0,543.0 455.0,551.0 455.0,559.0 449.0,562.0 426.0,562.0 418.0,555.0 417.0,550.0 406.0,549.0 393.0,541.0 387.0,543.0 384.0,540.0 393.0,539.0 394.0,536.0" stroke="#8044ef" stroke-width="1"/>
  <polyline fill="none" points="547.0,389.0 551.0,389.0 551.0,393.0 547.0,393.0" stroke="#eae7c1" stroke-width="1"/>
  <polyline fill="none" points="541.0,450.0 544.0,457.0 541.0,458.0 539.0,452.0" stroke="#bc2b75" stroke-width="1"/>
  <polyline fill="none" points="549.0,429.0 553.0,447.0 550.0,462.0 544.0,458.0 548.0,454.0 547.0,431.0" stroke="#6b3272" stroke-width="1"/>
  <polyline fill="none" points="505.0,524.0 508.0,525.0 509.0,534.0 501.0,539.0 501.0,544.0 497.0,543.0 497.0,535.0 502.0,533.0 503.0,526.0" stroke="#c5ffc0" stroke-width="1"/>
  <polyline fill="none" points="550.0,462.0 551.0,473.0 546.0,503.0 541.0,515.0 538.0,516.0 537.0,526.0 533.0,528.0 536.0,515.0 530.0,514.0 531.0,492.0 541.0,477.0 546.0,479.0 547.0,465.0" stroke="#1d868e" stroke-width="1"/>
  <polyline fill="none" points="281.0,524.0 286.0,533.0 283.0,534.0 279.0,526.0" stroke="#7ba453" stroke-width="1"/>
  <polyline fill="none" points="567.0,312.0 561.0,335.0 562.0,359.0 563.0,331.0 567.0,315.0" stroke="#409f40" stroke-width="1"/>
  <polyline fill="none" points="286.0,233.0 254.0,284.0 263.0,274.0 271.0,255.0 286.0,235.0" stroke="#a0c3ac" stroke-width="1"/>
  <polyline fill="none" points="199.0,355.0 188.0,371.0 190.0,375.0 194.0,369.0 201.0,367.0 210.0,374.0 210.0,384.0 199.0,413.0 209.0,406.0 216.0,395.0 227.0,391.0 227.0,386.0 212.0,368.0 210.0,359.0 204.0,355.0" stroke="#d3b554" stroke-width="1"/>
  <polyline fill="none" points="351.0,585.0 351.0,593.0 357.0,591.0 356.0,585.0" stroke="#c0b652" stroke-width="1"/>
  <polyline fill="none" points="444.0,588.0 441.0,590.0 442.0,596.0 446.0,593.0 445.0,589.0" stroke="#17907b" stroke-width="1"/>
  <polyline fill="none" points="206.0,435.0 204.0,438.0 198.0,437.0 200.0,446.0 204.0,444.0 208.0,449.0 204.0,450.0 206.0,458.0 210.0,458.0 212.0,450.0 217.0,445.0 216.0,436.0 208.0,435.0" stroke="#97b022" stroke-width="1"/>
  <polyline fill="none" points="382.0,601.0 383.0,606.0 387.0,606.0 386.0,601.0" stroke="#488a69" stroke-width="1"/>
  <polyline fill="none" points="192.0,420.0 194.0,431.0 198.0,431.0 198.0,420.0" stroke="#4cf992" stroke-width="1"/>
  <polyline fill="none" points="576.0,276.0 571.0,288.0 571.0,297.0 576.0,278.0" stroke="#cdd0f5" stroke-width="1"/>
  <polyline fill="none" points="275.0,549.0 281.0,551.0 279.0,560.0 292.0,572.0 290.0,582.0 299.0,595.0 294.0,603.0 290.0,604.0 288.0,586.0 281.0,578.0 282.0,571.0 279.0,571.0 275.0,564.0 276.0,556.0 273.0,551.0" stroke="#44f154" stroke-width="1"/>
  <polyline fill="none" points="511.0,580.0 504.0,594.0 487.0,615.0 513.0,582.0" stroke="#7557ad" stroke-width="1"/>
  <polyline fill="none" points="214.0,258.0 213.0,267.0 219.0,266.0 219.0,258.0" stroke="#59b0ad" stroke-width="1"/>
  <polyline fill="none" points="510.0,170.0 520.0,178.0 540.0,220.0 542.0,230.0 523.0,183.0 519.0,176.0 512.0,172.0" stroke="#e9d6fb" stroke-width="1"/>
  <polyline fill="none" points="299.0,600.0 303.0,600.0 309.0,616.0 308.0,621.0 312.0,621.0 315.0,627.0 308.0,629.0 311.0,638.0 309.0,640.0 299.0,641.0 292.0,636.0 293.0,629.0 289.0,630.0 286.0,626.0 289.0,616.0 286.0,615.0 284.0,606.0 295.0,608.0 299.0,602.0" stroke="#d91613" stroke-width="1"/>
  <polyline fill="none" points="337.0,639.0 341.0,647.0 336.0,650.0 337.0,643.0" stroke="#96c5bb" stroke-width="1"/>
  <polyline fill="none" points="303.0,631.0 301.0,637.0 305.0,637.0 304.0,631.0" stroke="#f0ed9d" stroke-width="1"/>
  <polyline fill="none" points="320.0,629.0 325.0,628.0 327.0,635.0 334.0,636.0 325.0,643.0 325.0,649.0 340.0,651.0 329.0,656.0 321.0,651.0 322.0,642.0 314.0,640.0 320.0,630.0" stroke="#7531a1" stroke-width="1"/>
  <polyline fill="none" points="533.0,596.0 535.0,634.0 549.0,644.0 538.0,632.0 533.0,604.0" stroke="#a8052f" stroke-width="1"/>
  <polyline fill="none" points="534.0,126.0 541.0,146.0 562.0,178.0 564.0,192.0 559.0,194.0 561.0,213.0 564.0,214.0 571.0,230.0 574.0,231.0 567.0,189.0 560.0,165.0 535.0,127.0" stroke="#916f75" stroke-width="1"/>
  <polyline fill="none" points="297.0,132.0 261.0,163.0 258.0,161.0 264.0,155.0 256.0,166.0 297.0,133.0" stroke="#68855c" stroke-width="1"/>
  <polyline fill="none" points="536.0,133.0 545.0,153.0 562.0,179.0 537.0,134.0" stroke="#951111" stroke-width="1"/>
  <polyline fill="none" points="353.0,678.0 361.0,678.0 365.0,685.0 371.0,686.0 362.0,688.0 353.0,679.0" stroke="#1817c5" stroke-width="1"/>
  <polyline fill="none" points="364.0,694.0 368.0,697.0 365.0,700.0 360.0,697.0 361.0,694.0" stroke="#150234" stroke-width="1"/>
  <polyline fill="none" points="249.0,86.0 206.0,137.0 187.0,177.0 184.0,202.0 187.0,229.0 182.0,269.0 182.0,277.0 186.0,277.0 186.0,264.0 191.0,250.0 190.0,238.0 194.0,234.0 197.0,235.0 197.0,240.0 203.0,238.0 198.0,234.0 197.0,218.0 189.0,204.0 194.0,197.0 192.0,192.0 196.0,185.0 195.0,180.0 198.0,181.0 200.0,176.0 208.0,177.0 242.0,150.0 239.0,143.0 234.0,143.0 222.0,151.0 213.0,148.0 212.0,145.0 217.0,141.0 218.0,135.0 228.0,131.0 226.0,126.0 229.0,121.0 228.0,114.0 234.0,113.0 235.0,107.0 245.0,102.0 249.0,103.0 236.0,116.0 255.0,108.0 255.0,104.0 248.0,102.0 252.0,98.0 249.0,87.0" stroke="#6d6b02" stroke-width="1"/>
  <polyline fill="none" points="379.0,706.0 385.0,709.0 386.0,713.0 379.0,711.0 376.0,706.0" stroke="#eccc56" stroke-width="1"/>
  <polyline fill="none" points="547.0,664.0 547.0,667.0 543.0,668.0 542.0,678.0 544.0,695.0 549.0,695.0 568.0,681.0 565.0,669.0 561.0,668.0 557.0,673.0 555.0,665.0 552.0,664.0" stroke="#0b2b65" stroke-width="1"/>
  <polyline fill="none" points="532.0,596.0 540.0,635.0 570.0,667.0 569.0,685.0 546.0,724.0 539.0,749.0 570.0,705.0 574.0,695.0 574.0,671.0 577.0,671.0 572.0,662.0 576.0,658.0 558.0,646.0 546.0,642.0 539.0,633.0 534.0,596.0" stroke="#6dd273" stroke-width="1"/>
  <polyline fill="none" points="212.0,131.0 218.0,135.0 213.0,136.0 210.0,133.0" stroke="#b2a66b" stroke-width="1"/>
  <polyline fill="none" points="397.0,717.0 402.0,717.0 396.0,719.0 397.0,724.0 405.0,722.0 407.0,718.0 420.0,719.0 416.0,725.0 419.0,730.0 415.0,733.0 408.0,729.0 411.0,728.0 393.0,731.0 389.0,720.0 394.0,717.0" stroke="#d838bd" stroke-width="1"/>
  <polyline fill="none" points="366.0,738.0 372.0,744.0 374.0,740.0 379.0,743.0 401.0,742.0 402.0,748.0 395.0,747.0 388.0,753.0 391.0,751.0 404.0,753.0 408.0,749.0 403.0,747.0 400.0,738.0 399.0,742.0 389.0,743.0 380.0,743.0 379.0,739.0 369.0,741.0" stroke="#e09952" stroke-width="1"/>
  <polyline fill="none" points="349.0,0.0 342.0,11.0 321.0,28.0 286.0,49.0 256.0,77.0 250.0,84.0 262.0,76.0 258.0,86.0 263.0,86.0 264.0,92.0 269.0,92.0 264.0,71.0 275.0,60.0 295.0,51.0 319.0,49.0 327.0,54.0 341.0,55.0 343.0,49.0 361.0,49.0 362.0,44.0 371.0,48.0 369.0,41.0 373.0,40.0 373.0,36.0 348.0,36.0 343.0,32.0 347.0,28.0 347.0,22.0 362.0,6.0 377.0,6.0 386.0,0.0" stroke="#fe5219" stroke-width="1"/>
  <polyline fill="none" points="401.0,21.0 400.0,28.0 396.0,27.0 396.0,23.0 392.0,23.0 392.0,27.0 396.0,27.0 399.0,33.0 403.0,33.0 405.0,21.0" stroke="#ffaa87" stroke-width="1"/>
  <polyline fill="none" points="328.0,29.0 332.0,32.0 322.0,37.0 326.0,31.0" stroke="#aeb769" stroke-width="1"/>
  <polyline fill="none" points="410.0,0.0 408.0,3.0 400.0,3.0 400.0,8.0 411.0,8.0 425.0,15.0 440.0,16.0 453.0,24.0 475.0,50.0 480.0,49.0 488.0,58.0 481.0,46.0 438.0,5.0 436.0,0.0" stroke="#6bad48" stroke-width="1"/>
  <polyline fill="none" points="643.0,692.0 682.0,724.0 662.0,705.0 648.0,697.0" stroke="#6e8c26" stroke-width="1"/>
  <polyline fill="none" points="595.0,667.0 601.0,669.0 600.0,671.0 614.0,674.0 614.0,676.0 607.0,674.0 621.0,681.0 659.0,694.0 666.0,699.0 664.0,700.0 674.0,702.0 695.0,717.0 706.0,719.0 704.0,721.0 716.0,724.0 747.0,742.0 789.0,750.0 790.0,756.0 776.0,751.0 784.0,756.0 790.0,756.0 793.0,750.0 799.0,750.0 790.0,751.0 750.0,743.0 657.0,693.0 637.0,687.0 633.0,684.0 635.0,683.0 628.0,681.0 632.0,683.0 629.0,684.0 626.0,680.0 624.0,682.0 620.0,677.0 619.0,679.0 614.0,674.0 596.0,668.0" stroke="#d75aab" stroke-width="1"/>
  <polyline fill="none" points="205.0,667.0 151.0,688.0 40.0,741.0 15.0,748.0 2.0,755.0 18.0,747.0 43.0,740.0 154.0,687.0 205.0,667.0 210.0,671.0 202.0,679.0 202.0,685.0 206.0,675.0 209.0,680.0 208.0,667.0" stroke="#f78677" stroke-width="1"/>
  <polyline fill="none" points="130.0,700.0 63.0,729.0 42.0,741.0 0.0,756.0 0.0,786.0 6.0,775.0 16.0,770.0 22.0,760.0 36.0,753.0 38.0,749.0 50.0,747.0 57.0,741.0 67.0,738.0 82.0,736.0 92.0,727.0 99.0,727.0 103.0,722.0 111.0,721.0 119.0,713.0 128.0,714.0 135.0,708.0 134.0,700.0" stroke="#94b671" stroke-width="1"/>
  <polyline fill="none" points="444.0,13.0 470.0,35.0 485.0,53.0 489.0,55.0 483.0,47.0 461.0,29.0 451.0,16.0 445.0,14.0" stroke="#198de5" stroke-width="1"/>
<polyline points="378.0,397.0 382.0,403.0 382.0,419.0 387.0,422.0 396.0,423.0 414.0,414.0 418.0,416.0 414.0,422.0 399.0,426.0 403.0,426.0 401.0,432.0" fill="none" stroke="#e0e275" stroke-width="1"/><polyline points="403.0,425.0 407.0,425.0 409.0,431.0" fill="none" stroke="#e0e275" stroke-width="1"/><polyline points="408.0,424.0 424.0,421.0 423.0,410.0" fill="none" stroke="#e0e275" stroke-width="1"/><polyline points="423.0,410.0 417.0,404.0 411.0,404.0 408.0,409.0 409.0,402.0 404.0,414.0 407.0,408.0 408.0,413.0" fill="none" stroke="#e0e275" stroke-width="1"/><polyline points="422.0,410.0 421.0,416.0 424.0,419.0 418.0,421.0" fill="none" stroke="#e0e275" stroke-width="1"/><polyline points="414.0,414.0 390.0,423.0" fill="none" stroke="#e0e275" stroke-width="1"/><polyline points="374.0,424.0 381.0,427.0 374.0,428.0 363.0,441.0" fill="none" stroke="#26f3e4" stroke-width="1"/><polyline points="363.0,442.0 368.0,438.0 369.0,442.0 365.0,444.0 368.0,444.0 371.0,432.0 376.0,427.0 387.0,431.0 388.0,435.0 399.0,434.0 405.0,438.0 396.0,431.0 392.0,431.0 396.0,434.0 385.0,431.0" fill="none" stroke="#26f3e4" stroke-width="1"/><polyline points="398.0,303.0 402.0,314.0 402.0,328.0 392.0,345.0 386.0,351.0 366.0,356.0 362.0,362.0" fill="none" stroke="#b4835b" stroke-width="1"/><polyline points="355.0,405.0 354.0,408.0" fill="none" stroke="#bbaf43" stroke-width="1"/><polyline points="355.0,407.0 357.0,409.0 352.0,419.0 354.0,429.0 346.0,440.0 346.0,447.0 337.0,454.0 334.0,466.0 330.0,470.0 329.0,462.0 329.0,473.0 325.0,475.0 328.0,476.0 329.0,471.0 332.0,471.0 337.0,455.0 342.0,452.0 343.0,456.0 339.0,461.0 342.0,458.0" fill="none" stroke="#bbaf43" stroke-width="1"/><polyline points="352.0,420.0 355.0,413.0 357.0,411.0 359.0,413.0" fill="none" stroke="#bbaf43" stroke-width="1"/><polyline points="488.0,456.0 490.0,464.0 494.0,464.0 497.0,470.0 493.0,477.0 458.0,469.0 432.0,474.0 424.0,472.0 418.0,475.0 410.0,474.0 401.0,478.0 396.0,472.0 391.0,472.0 390.0,468.0 389.0,471.0 386.0,465.0 376.0,465.0" fill="none" stroke="#a886e6" stroke-width="1"/><polyline points="388.0,471.0 396.0,472.0 398.0,477.0 373.0,485.0" fill="none" stroke="#a886e6" stroke-width="1"/><polyline points="372.0,486.0 361.0,490.0 369.0,489.0 376.0,483.0 391.0,478.0 403.0,478.0" fill="none" stroke="#a886e6" stroke-width="1"/><polyline points="432.0,474.0 465.0,469.0 486.0,477.0 498.0,477.0" fill="none" stroke="#a886e6" stroke-width="1"/><polyline points="497.0,477.0 495.0,476.0" fill="none" stroke="#a886e6" stroke-width="1"/><polyline points="433.0,120.0 424.0,122.0 423.0,126.0 390.0,125.0 370.0,128.0 355.0,140.0 331.0,139.0 320.0,146.0 309.0,168.0 299.0,176.0 299.0,182.0 294.0,185.0 293.0,193.0 286.0,205.0 283.0,203.0 285.0,189.0 281.0,188.0 286.0,184.0 284.0,180.0 273.0,203.0 268.0,207.0 262.0,203.0 254.0,221.0 256.0,229.0 241.0,251.0 242.0,255.0 246.0,255.0 253.0,248.0 261.0,219.0 264.0,221.0 261.0,242.0 266.0,241.0 254.0,259.0 247.0,277.0 240.0,282.0 241.0,289.0 238.0,293.0 238.0,322.0 242.0,342.0 240.0,378.0 243.0,386.0 236.0,397.0 235.0,415.0 231.0,400.0 218.0,398.0 218.0,402.0 225.0,403.0 227.0,419.0 218.0,414.0 220.0,404.0 216.0,404.0 220.0,425.0 224.0,425.0 228.0,418.0 231.0,423.0 238.0,424.0 255.0,477.0 251.0,483.0 242.0,465.0 229.0,471.0 222.0,471.0 215.0,469.0 215.0,461.0 211.0,461.0 218.0,488.0 213.0,526.0 211.0,663.0 227.0,658.0 235.0,645.0 243.0,639.0 271.0,634.0 273.0,638.0 266.0,645.0 264.0,652.0 251.0,669.0 248.0,672.0 244.0,670.0 243.0,673.0 249.0,700.0 261.0,720.0 295.0,748.0 296.0,755.0 301.0,758.0 304.0,754.0" fill="none" stroke="#d06d4b" stroke-width="1"/><polyline points="307.0,758.0 310.0,755.0 319.0,755.0 323.0,758.0 327.0,756.0 334.0,764.0 353.0,771.0 356.0,777.0 381.0,782.0 410.0,783.0 480.0,779.0 489.0,773.0 501.0,772.0 512.0,763.0 534.0,754.0 541.0,730.0 528.0,655.0 530.0,613.0 525.0,606.0 529.0,605.0 528.0,590.0 523.0,590.0 520.0,586.0 520.0,577.0 512.0,576.0 513.0,582.0 479.0,624.0 475.0,635.0 471.0,634.0 471.0,629.0 466.0,629.0 461.0,638.0 453.0,636.0 451.0,641.0 445.0,641.0 438.0,650.0 432.0,650.0 432.0,653.0 421.0,656.0 419.0,650.0 415.0,650.0 415.0,659.0 411.0,663.0 408.0,662.0 410.0,652.0 397.0,653.0 390.0,670.0 380.0,662.0 374.0,661.0 358.0,665.0 357.0,662.0 363.0,657.0 363.0,652.0 360.0,651.0 364.0,650.0 357.0,644.0 359.0,637.0 349.0,638.0 346.0,627.0 339.0,624.0 337.0,616.0 339.0,613.0 350.0,613.0 349.0,618.0 353.0,618.0 354.0,613.0 351.0,613.0 351.0,609.0 341.0,608.0 340.0,600.0 336.0,596.0 328.0,605.0 323.0,601.0 319.0,595.0 329.0,591.0 329.0,586.0 324.0,585.0 327.0,577.0 326.0,579.0 320.0,574.0 317.0,564.0 310.0,562.0 308.0,553.0 301.0,552.0 299.0,555.0 289.0,543.0 294.0,538.0 294.0,532.0 293.0,527.0 287.0,523.0 289.0,518.0 284.0,516.0 284.0,509.0 279.0,501.0 277.0,479.0 279.0,473.0 276.0,465.0 278.0,457.0 280.0,458.0 282.0,441.0 287.0,442.0 288.0,435.0 295.0,434.0 296.0,440.0 309.0,445.0 312.0,469.0 307.0,474.0 310.0,484.0 305.0,485.0 307.0,492.0 305.0,502.0 317.0,514.0 318.0,524.0 327.0,528.0 330.0,520.0 328.0,511.0 320.0,499.0 320.0,489.0 328.0,476.0 331.0,463.0 336.0,460.0 337.0,453.0 344.0,449.0 346.0,440.0 359.0,423.0 368.0,403.0 369.0,393.0 376.0,393.0 383.0,399.0 388.0,421.0 394.0,422.0 406.0,416.0 412.0,404.0 423.0,411.0 425.0,427.0 430.0,427.0 443.0,419.0 448.0,420.0 453.0,411.0 469.0,413.0 469.0,401.0 460.0,383.0 470.0,389.0 478.0,387.0 509.0,412.0 510.0,423.0 526.0,458.0 528.0,467.0 524.0,481.0 521.0,485.0 514.0,484.0 510.0,487.0 513.0,509.0 509.0,511.0 503.0,499.0 496.0,498.0 489.0,515.0 476.0,527.0 466.0,524.0 452.0,527.0 444.0,525.0 438.0,529.0 427.0,527.0 416.0,528.0 414.0,531.0 391.0,527.0 390.0,533.0 383.0,525.0 377.0,522.0 370.0,523.0 362.0,516.0 352.0,515.0 349.0,520.0 344.0,520.0 343.0,509.0 340.0,509.0 337.0,510.0 338.0,516.0 334.0,518.0 334.0,524.0 342.0,532.0 335.0,535.0 334.0,544.0 343.0,545.0 345.0,553.0 349.0,553.0 350.0,548.0 357.0,544.0 360.0,538.0 361.0,543.0 367.0,545.0 371.0,551.0 368.0,559.0 373.0,570.0 370.0,572.0 366.0,564.0 355.0,560.0 355.0,565.0 344.0,575.0 345.0,580.0 361.0,581.0 364.0,590.0 374.0,595.0 391.0,595.0 390.0,603.0 400.0,604.0 403.0,600.0 412.0,602.0 416.0,598.0 420.0,601.0 420.0,608.0 425.0,612.0 432.0,612.0 436.0,604.0 446.0,609.0 454.0,602.0 476.0,603.0 485.0,600.0 488.0,594.0 494.0,594.0 498.0,583.0 492.0,577.0 499.0,581.0 506.0,580.0 512.0,559.0 505.0,557.0 511.0,556.0 513.0,552.0 518.0,560.0 522.0,560.0 528.0,542.0 528.0,537.0 523.0,532.0 526.0,529.0 533.0,529.0 534.0,534.0 530.0,541.0 532.0,588.0 532.0,553.0 549.0,493.0 560.0,426.0 560.0,422.0 550.0,417.0 557.0,403.0 560.0,413.0 561.0,372.0 558.0,383.0 554.0,383.0 554.0,338.0 542.0,239.0 534.0,211.0 523.0,187.0 484.0,150.0 474.0,145.0 463.0,145.0 463.0,138.0 452.0,134.0 452.0,129.0 446.0,124.0" fill="none" stroke="#d06d4b" stroke-width="1"/><polyline points="478.0,388.0 487.0,396.0 485.0,398.0" fill="none" stroke="#a3d99b" stroke-width="1"/><polyline points="488.0,396.0 502.0,410.0 493.0,401.0 496.0,400.0 491.0,399.0" fill="none" stroke="#a3d99b" stroke-width="1"/><polyline points="426.0,483.0 415.0,483.0" fill="none" stroke="#06d461" stroke-width="1"/><polyline points="383.0,507.0 390.0,507.0" fill="none" stroke="#06d461" stroke-width="1"/><polyline points="415.0,507.0 432.0,508.0 435.0,513.0 442.0,513.0 444.0,511.0 438.0,506.0 444.0,507.0" fill="none" stroke="#06d461" stroke-width="1"/><polyline points="472.0,499.0 478.0,491.0 478.0,484.0 471.0,481.0 452.0,483.0 454.0,498.0 455.0,481.0 460.0,481.0 462.0,485.0 467.0,481.0" fill="none" stroke="#06d461" stroke-width="1"/><polyline points="446.0,505.0 431.0,503.0" fill="none" stroke="#06d461" stroke-width="1"/><polyline points="431.0,503.0 427.0,507.0 415.0,507.0 411.0,503.0" fill="none" stroke="#06d461" stroke-width="1"/><polyline points="398.0,487.0 403.0,487.0 409.0,494.0 409.0,489.0 410.0,492.0 407.0,493.0 405.0,488.0" fill="none" stroke="#06d461" stroke-width="1"/><polyline points="431.0,487.0 437.0,482.0" fill="none" stroke="#06d461" stroke-width="1"/><polyline points="371.0,256.0 378.0,260.0 374.0,261.0 374.0,264.0 402.0,279.0 394.0,290.0" fill="none" stroke="#131048" stroke-width="1"/><polyline points="402.0,329.0 394.0,343.0 387.0,350.0 381.0,350.0 360.0,362.0 356.0,352.0 351.0,349.0 341.0,352.0 335.0,347.0 327.0,347.0 319.0,350.0 325.0,342.0" fill="none" stroke="#131048" stroke-width="1"/><polyline points="329.0,327.0 314.0,328.0 304.0,342.0 296.0,347.0 291.0,345.0 295.0,338.0 295.0,327.0 302.0,317.0 316.0,303.0 331.0,295.0 330.0,289.0 319.0,284.0 327.0,275.0 326.0,270.0 343.0,259.0" fill="none" stroke="#131048" stroke-width="1"/><polyline points="342.0,499.0 346.0,503.0" fill="none" stroke="#8b40d8" stroke-width="1"/><polyline points="340.0,507.0 334.0,512.0 329.0,510.0 336.0,515.0" fill="none" stroke="#8b40d8" stroke-width="1"/><polyline points="345.0,509.0 345.0,516.0 354.0,512.0 351.0,511.0 357.0,507.0" fill="none" stroke="#8b40d8" stroke-width="1"/><polyline points="381.0,525.0 382.0,522.0 386.0,522.0 375.0,521.0 377.0,516.0 391.0,518.0 398.0,522.0 397.0,526.0 391.0,524.0 390.0,526.0 388.0,522.0 391.0,528.0 398.0,526.0 404.0,529.0 406.0,528.0 399.0,527.0 398.0,523.0 401.0,522.0 402.0,525.0 405.0,522.0 377.0,515.0" fill="none" stroke="#8b40d8" stroke-width="1"/><polyline points="357.0,507.0 349.0,513.0" fill="none" stroke="#8b40d8" stroke-width="1"/><polyline points="349.0,514.0 345.0,516.0" fill="none" stroke="#8b40d8" stroke-width="1"/><polyline points="332.0,475.0 324.0,481.0 321.0,494.0 317.0,491.0 327.0,509.0 330.0,525.0 324.0,529.0" fill="none" stroke="#5e4175" stroke-width="1"/><polyline points="385.0,251.0 380.0,260.0 374.0,254.0 371.0,255.0 391.0,267.0 394.0,275.0" fill="none" stroke="#8f6d58" stroke-width="1"/><polyline points="484.0,286.0 468.0,291.0 462.0,296.0 484.0,286.0 510.0,293.0 520.0,303.0 528.0,327.0 529.0,324.0 532.0,330.0 528.0,334.0 525.0,333.0 516.0,319.0 497.0,325.0 495.0,330.0 514.0,334.0 517.0,338.0 511.0,339.0 510.0,344.0" fill="none" stroke="#e9bc95" stroke-width="1"/><polyline points="517.0,340.0 516.0,333.0 497.0,331.0 496.0,327.0" fill="none" stroke="#e9bc95" stroke-width="1"/><polyline points="532.0,330.0 536.0,332.0" fill="none" stroke="#e9bc95" stroke-width="1"/><polyline points="536.0,332.0 526.0,320.0" fill="none" stroke="#e9bc95" stroke-width="1"/><polyline points="513.0,429.0 519.0,438.0 518.0,442.0" fill="none" stroke="#80a2ad" stroke-width="1"/><polyline points="523.0,481.0 515.0,481.0 507.0,486.0 503.0,493.0 501.0,492.0 505.0,494.0 506.0,488.0 518.0,480.0 523.0,482.0 519.0,492.0 519.0,506.0 515.0,509.0 511.0,505.0" fill="none" stroke="#80a2ad" stroke-width="1"/><polyline points="519.0,493.0 528.0,472.0" fill="none" stroke="#80a2ad" stroke-width="1"/><polyline points="519.0,438.0 523.0,442.0 522.0,438.0" fill="none" stroke="#80a2ad" stroke-width="1"/><polyline points="496.0,495.0 490.0,503.0 493.0,500.0 494.0,504.0 484.0,521.0 476.0,527.0 460.0,532.0 458.0,527.0 458.0,531.0 461.0,532.0 482.0,524.0 497.0,495.0 502.0,496.0" fill="none" stroke="#910c0c" stroke-width="1"/><polyline points="537.0,219.0 547.0,266.0 554.0,332.0 557.0,400.0" fill="none" stroke="#046c78" stroke-width="1"/><polyline points="562.0,373.0 561.0,425.0 554.0,472.0 549.0,496.0 547.0,490.0 546.0,506.0 532.0,554.0 533.0,567.0 527.0,571.0" fill="none" stroke="#046c78" stroke-width="1"/><polyline points="527.0,572.0 532.0,569.0 533.0,593.0 532.0,554.0 549.0,496.0 561.0,425.0 562.0,367.0 561.0,372.0 560.0,365.0 560.0,375.0" fill="none" stroke="#046c78" stroke-width="1"/><polyline points="547.0,266.0 543.0,238.0" fill="none" stroke="#046c78" stroke-width="1"/><polyline points="549.0,383.0 547.0,385.0" fill="none" stroke="#885f3f" stroke-width="1"/><polyline points="243.0,386.0 242.0,391.0 235.0,397.0 238.0,430.0 250.0,458.0 250.0,466.0 259.0,483.0" fill="none" stroke="#7cb157" stroke-width="1"/><polyline points="238.0,428.0 237.0,401.0 244.0,395.0 240.0,400.0" fill="none" stroke="#7cb157" stroke-width="1"/><polyline points="445.0,537.0 436.0,545.0" fill="none" stroke="#adc710" stroke-width="1"/><polyline points="433.0,539.0 430.0,545.0 419.0,542.0 432.0,544.0 434.0,548.0 446.0,540.0 446.0,537.0" fill="none" stroke="#adc710" stroke-width="1"/><polyline points="462.0,541.0 460.0,546.0 451.0,553.0 443.0,552.0 441.0,559.0 445.0,558.0 444.0,552.0 453.0,552.0 456.0,559.0 452.0,562.0 429.0,561.0 427.0,554.0 427.0,560.0 449.0,561.0" fill="none" stroke="#adc710" stroke-width="1"/><polyline points="456.0,559.0 468.0,565.0 470.0,563.0" fill="none" stroke="#adc710" stroke-width="1"/><polyline points="453.0,552.0 460.0,547.0 461.0,539.0" fill="none" stroke="#adc710" stroke-width="1"/><polyline points="282.0,461.0 278.0,491.0" fill="none" stroke="#8bd96f" stroke-width="1"/><polyline points="284.0,517.0 285.0,521.0 280.0,528.0 311.0,576.0 299.0,555.0 305.0,551.0 309.0,562.0 316.0,568.0 300.0,541.0 306.0,544.0 297.0,538.0" fill="none" stroke="#8bd96f" stroke-width="1"/><polyline points="297.0,539.0 305.0,548.0" fill="none" stroke="#8bd96f" stroke-width="1"/><polyline points="294.0,539.0 296.0,529.0 307.0,523.0" fill="none" stroke="#8bd96f" stroke-width="1"/><polyline points="285.0,522.0 286.0,510.0 293.0,520.0 290.0,513.0 282.0,507.0 279.0,498.0 278.0,479.0" fill="none" stroke="#8bd96f" stroke-width="1"/><polyline points="209.0,354.0 215.0,372.0" fill="none" stroke="#c78eae" stroke-width="1"/><polyline points="215.0,373.0 229.0,386.0 225.0,393.0 211.0,400.0 213.0,400.0 211.0,406.0" fill="none" stroke="#c78eae" stroke-width="1"/><polyline points="212.0,405.0 216.0,396.0" fill="none" stroke="#c78eae" stroke-width="1"/><polyline points="228.0,387.0 231.0,387.0" fill="none" stroke="#c78eae" stroke-width="1"/><polyline points="314.0,560.0 319.0,566.0" fill="none" stroke="#b23974" stroke-width="1"/><polyline points="320.0,566.0 326.0,566.0 331.0,572.0 339.0,565.0" fill="none" stroke="#b23974" stroke-width="1"/><polyline points="332.0,572.0 328.0,567.0" fill="none" stroke="#b23974" stroke-width="1"/><polyline points="247.0,275.0 243.0,274.0" fill="none" stroke="#ebb12a" stroke-width="1"/><polyline points="238.0,282.0 245.0,280.0" fill="none" stroke="#ebb12a" stroke-width="1"/><polyline points="358.0,591.0 351.0,599.0 345.0,597.0 346.0,602.0 359.0,616.0 362.0,628.0" fill="none" stroke="#981d55" stroke-width="1"/><polyline points="346.0,601.0 348.0,598.0 354.0,598.0 359.0,591.0 366.0,596.0 366.0,600.0 383.0,594.0 368.0,599.0" fill="none" stroke="#981d55" stroke-width="1"/><polyline points="179.0,278.0 178.0,294.0 198.0,354.0 191.0,362.0 181.0,387.0 180.0,405.0 192.0,426.0 203.0,455.0 214.0,471.0 213.0,476.0 218.0,489.0 218.0,502.0 213.0,520.0 211.0,604.0 213.0,642.0" fill="none" stroke="#c20d1a" stroke-width="1"/><polyline points="269.0,634.0 272.0,636.0 240.0,660.0 239.0,672.0 245.0,704.0 243.0,707.0" fill="none" stroke="#c20d1a" stroke-width="1"/><polyline points="244.0,707.0 239.0,663.0 244.0,656.0 269.0,640.0 271.0,644.0 251.0,667.0" fill="none" stroke="#c20d1a" stroke-width="1"/><polyline points="251.0,668.0 255.0,664.0 256.0,667.0 265.0,650.0 270.0,646.0 270.0,655.0" fill="none" stroke="#c20d1a" stroke-width="1"/><polyline points="227.0,658.0 214.0,664.0" fill="none" stroke="#c20d1a" stroke-width="1"/><polyline points="213.0,642.0 211.0,630.0" fill="none" stroke="#c20d1a" stroke-width="1"/><polyline points="218.0,502.0 214.0,471.0 216.0,469.0 228.0,471.0 238.0,465.0 242.0,466.0 253.0,490.0 261.0,520.0 262.0,518.0 264.0,520.0 263.0,528.0 271.0,575.0 269.0,550.0 274.0,553.0" fill="none" stroke="#c20d1a" stroke-width="1"/><polyline points="274.0,553.0 267.0,548.0 264.0,520.0" fill="none" stroke="#c20d1a" stroke-width="1"/><polyline points="228.0,471.0 213.0,469.0 202.0,453.0 180.0,404.0 180.0,391.0 184.0,379.0 190.0,364.0 198.0,354.0 191.0,338.0 189.0,320.0" fill="none" stroke="#c20d1a" stroke-width="1"/><polyline points="504.0,583.0 495.0,598.0 490.0,597.0 495.0,594.0 498.0,588.0 495.0,587.0" fill="none" stroke="#eea07b" stroke-width="1"/><polyline points="488.0,595.0 483.0,602.0 473.0,604.0 468.0,595.0 471.0,594.0 469.0,592.0 464.0,594.0" fill="none" stroke="#eea07b" stroke-width="1"/><polyline points="463.0,594.0 469.0,596.0 471.0,603.0 465.0,605.0 464.0,602.0 464.0,610.0 466.0,604.0" fill="none" stroke="#eea07b" stroke-width="1"/><polyline points="488.0,596.0 495.0,599.0 502.0,585.0 504.0,583.0" fill="none" stroke="#eea07b" stroke-width="1"/><polyline points="475.0,621.0 451.0,635.0 447.0,634.0 452.0,629.0 462.0,627.0 450.0,630.0 442.0,640.0 435.0,635.0 432.0,640.0 425.0,642.0 418.0,639.0" fill="none" stroke="#0b4f60" stroke-width="1"/><polyline points="426.0,642.0 438.0,637.0 443.0,644.0 447.0,635.0 461.0,631.0" fill="none" stroke="#0b4f60" stroke-width="1"/><polyline points="460.0,638.0 460.0,643.0 452.0,644.0 445.0,658.0 433.0,665.0 442.0,661.0 441.0,671.0 448.0,675.0" fill="none" stroke="#0b4f60" stroke-width="1"/><polyline points="443.0,660.0 452.0,645.0 459.0,645.0 463.0,640.0" fill="none" stroke="#0b4f60" stroke-width="1"/><polyline points="265.0,168.0 241.0,189.0 238.0,193.0 238.0,195.0 241.0,193.0 240.0,196.0 220.0,227.0 232.0,211.0" fill="none" stroke="#ed9c7a" stroke-width="1"/><polyline points="436.0,104.0 442.0,112.0 453.0,113.0 476.0,127.0 496.0,145.0" fill="none" stroke="#57e6b1" stroke-width="1"/><polyline points="477.0,127.0 447.0,111.0 445.0,105.0 443.0,107.0 447.0,108.0 446.0,111.0" fill="none" stroke="#57e6b1" stroke-width="1"/><polyline points="243.0,148.0 206.0,184.0 200.0,181.0" fill="none" stroke="#b3e917" stroke-width="1"/><polyline points="205.0,184.0 204.0,190.0 200.0,191.0 209.0,194.0 207.0,195.0 204.0,189.0 211.0,177.0" fill="none" stroke="#b3e917" stroke-width="1"/><polyline points="204.0,183.0 199.0,185.0" fill="none" stroke="#4dcf86" stroke-width="1"/><polyline points="348.0,0.0 347.0,5.0 320.0,28.0 293.0,43.0 270.0,62.0 206.0,136.0 186.0,180.0 179.0,223.0 179.0,253.0 173.0,280.0 174.0,296.0 179.0,310.0 179.0,327.0 185.0,347.0" fill="none" stroke="#63bdee" stroke-width="1"/><polyline points="179.0,253.0 181.0,207.0 187.0,176.0 194.0,159.0 205.0,138.0 209.0,134.0" fill="none" stroke="#63bdee" stroke-width="1"/><polyline points="209.0,133.0 223.0,118.0 228.0,131.0 221.0,133.0 218.0,140.0 212.0,142.0 212.0,148.0 219.0,150.0 215.0,158.0" fill="none" stroke="#63bdee" stroke-width="1"/><polyline points="214.0,158.0 219.0,158.0 221.0,154.0 218.0,155.0" fill="none" stroke="#63bdee" stroke-width="1"/><polyline points="229.0,131.0 230.0,134.0 236.0,134.0 246.0,127.0 257.0,125.0 257.0,121.0" fill="none" stroke="#63bdee" stroke-width="1"/><polyline points="256.0,125.0 231.0,133.0 227.0,124.0 251.0,111.0 255.0,112.0 250.0,114.0 254.0,115.0 276.0,100.0 259.0,111.0 255.0,112.0 255.0,109.0 248.0,112.0 226.0,126.0 223.0,118.0 249.0,85.0 253.0,84.0 255.0,78.0 263.0,70.0 261.0,76.0 263.0,75.0 263.0,70.0 272.0,61.0 287.0,55.0 275.0,59.0 287.0,48.0 325.0,23.0 346.0,17.0 330.0,20.0" fill="none" stroke="#63bdee" stroke-width="1"/><polyline points="436.0,0.0 486.0,52.0 505.0,87.0 503.0,89.0 509.0,100.0 505.0,92.0 506.0,90.0 508.0,92.0 556.0,157.0 567.0,185.0 569.0,210.0" fill="none" stroke="#0c3cf0" stroke-width="1"/><polyline points="567.0,185.0 555.0,155.0 501.0,83.0 485.0,50.0" fill="none" stroke="#0c3cf0" stroke-width="1"/><polyline points="432.0,714.0 433.0,721.0 442.0,718.0 442.0,724.0 435.0,726.0 434.0,731.0 440.0,735.0 432.0,739.0 429.0,735.0 436.0,724.0 421.0,721.0" fill="none" stroke="#7d88ac" stroke-width="1"/><polyline points="422.0,720.0 422.0,717.0" fill="none" stroke="#7d88ac" stroke-width="1"/><polyline points="577.0,660.0 576.0,664.0 587.0,668.0 595.0,679.0 596.0,710.0 593.0,721.0 579.0,745.0" fill="none" stroke="#a4cc5d" stroke-width="1"/><polyline points="579.0,746.0 595.0,714.0 596.0,681.0 591.0,671.0" fill="none" stroke="#a4cc5d" stroke-width="1"/><polyline points="436.0,16.0 439.0,17.0" fill="none" stroke="#aabdd8" stroke-width="1"/><polyline points="439.0,17.0 458.0,30.0 473.0,48.0 478.0,64.0" fill="none" stroke="#aabdd8" stroke-width="1"/><polyline points="473.0,47.0 460.0,31.0" fill="none" stroke="#aabdd8" stroke-width="1"/><polyline points="385.0,12.0 375.0,14.0 375.0,18.0 383.0,24.0 386.0,24.0 378.0,20.0" fill="none" stroke="#be8f67" stroke-width="1"/><polyline points="385.0,12.0 406.0,16.0 413.0,24.0 429.0,53.0 432.0,72.0 429.0,81.0 432.0,75.0 429.0,50.0 416.0,33.0 415.0,26.0" fill="none" stroke="#be8f67" stroke-width="1"/><polyline points="236.0,721.0 240.0,728.0 244.0,728.0 265.0,746.0 264.0,742.0" fill="none" stroke="#f992ff" stroke-width="1"/><polyline points="609.0,682.0 609.0,687.0 633.0,716.0 623.0,700.0" fill="none" stroke="#cc1eb3" stroke-width="1"/><polyline points="267.0,743.0 271.0,750.0 296.0,765.0" fill="none" stroke="#efa0e8" stroke-width="1"/><polyline points="218.0,709.0 228.0,726.0 252.0,747.0 286.0,769.0" fill="none" stroke="#ad8974" stroke-width="1"/><polyline points="339.0,761.0 343.0,766.0" fill="none" stroke="#09ea06" stroke-width="1"/><polyline points="354.0,777.0 348.0,776.0 388.0,783.0 428.0,784.0 481.0,779.0 483.0,783.0 499.0,778.0 489.0,781.0 481.0,779.0 497.0,771.0 479.0,780.0 473.0,778.0 465.0,782.0 445.0,783.0" fill="none" stroke="#09ea06" stroke-width="1"/><polyline points="443.0,783.0 388.0,783.0" fill="none" stroke="#09ea06" stroke-width="1"/><polyline points="591.0,733.0 578.0,751.0 554.0,770.0" fill="none" stroke="#791f59" stroke-width="1"/><polyline points="555.0,770.0 576.0,754.0 586.0,741.0" fill="none" stroke="#791f59" stroke-width="1"/><polyline points="586.0,740.0 591.0,734.0 597.0,736.0 595.0,746.0 600.0,758.0 602.0,760.0 605.0,758.0 603.0,752.0 606.0,743.0 603.0,734.0" fill="none" stroke="#791f59" stroke-width="1"/><polyline points="702.0,719.0 745.0,747.0 797.0,773.0 799.0,763.0 791.0,757.0" fill="none" stroke="#2dea4d" stroke-width="1"/><polyline points="715.0,729.0 723.0,737.0 736.0,741.0 764.0,758.0 778.0,762.0 745.0,748.0" fill="none" stroke="#3dc5f2" stroke-width="1"/><polyline points="256.0,77.0 232.0,109.0" fill="none" stroke="#2335c6" stroke-width="1"/><polyline points="179.0,254.0 174.0,278.0 180.0,328.0 185.0,342.0 185.0,372.0 180.0,387.0 180.0,412.0 192.0,445.0 216.0,479.0 218.0,488.0 212.0,544.0 211.0,658.0 192.0,673.0 125.0,699.0 109.0,710.0 71.0,724.0 42.0,741.0 23.0,747.0 0.0,749.0 0.0,799.0 799.0,799.0 799.0,751.0 773.0,749.0 749.0,743.0 660.0,695.0 636.0,687.0 615.0,675.0 566.0,655.0" fill="none" stroke="#2335c6" stroke-width="1"/><polyline points="538.0,632.0 532.0,595.0" fill="none" stroke="#2335c6" stroke-width="1"/><polyline points="549.0,493.0 559.0,435.0 562.0,341.0 577.0,273.0 577.0,248.0" fill="none" stroke="#2335c6" stroke-width="1"/><polyline points="507.0,93.0 485.0,51.0" fill="none" stroke="#2335c6" stroke-width="1"/><polyline points="512.0,98.0 516.0,107.0 539.0,130.0 541.0,139.0 552.0,149.0" fill="none" stroke="#401183" stroke-width="1"/><polyline points="539.0,129.0 520.0,108.0" fill="none" stroke="#401183" stroke-width="1"/></svg>
