<?xml version="1.0" encoding="utf-8" ?>
<svg baseProfile="full" height="224" version="1.1" width="224" xmlns="http://www.w3.org/2000/svg" xmlns:ev="http://www.w3.org/2001/xml-events" xmlns:xlink="http://www.w3.org/1999/xlink"><defs /><polyline fill="none" points="120.05,82.6 119.35,84.0 119.69999999999999,85.05 118.64999999999999,85.75 118.99999999999999,86.8 117.6,88.19999999999999 114.8,93.44999999999999 114.1,93.44999999999999 114.8,93.44999999999999 118.64999999999999,87.14999999999999 120.05,87.85 119.35,87.85 118.99999999999999,87.14999999999999 120.74999999999999,86.44999999999999 121.1,86.8 120.05,92.05 117.94999999999999,92.05 119.35,92.39999999999999 119.69999999999999,93.8 118.99999999999999,95.19999999999999 117.24999999999999,103.94999999999999 116.55,104.3 116.89999999999999,105.69999999999999 114.44999999999999,117.24999999999999 113.39999999999999,117.6 112.0,116.89999999999999 109.55,114.44999999999999 108.85,112.69999999999999 108.85,109.19999999999999 109.55,107.8 108.85,108.85 108.85,112.69999999999999 109.55,114.1 109.19999999999999,115.14999999999999 109.55,114.8 111.3,116.55 110.6,116.89999999999999 111.3,116.55 114.44999999999999,117.94999999999999 112.0,134.39999999999998 112.35,138.95 111.64999999999999,139.64999999999998 110.94999999999999,137.89999999999998 109.19999999999999,135.45 111.64999999999999,140.0 112.0,139.29999999999998 112.69999999999999,140.0 113.74999999999999,150.5 119.69999999999999,162.39999999999998 120.05,161.7 130.9,172.54999999999998 130.54999999999998,173.25 124.24999999999999,166.95 132.29999999999998,175.0 131.25,173.95 131.6,173.25 133.7,175.0 133.0,175.35 134.39999999999998,176.75 133.35,175.7 133.7,175.0 135.79999999999998,176.75 135.1,177.1 138.6,180.25 137.54999999999998,179.2 137.89999999999998,178.5 140.0,180.25 139.29999999999998,180.6 140.7,182.0 142.79999999999998,182.7 146.64999999999998,185.14999999999998 145.95,184.45 146.64999999999998,184.1 141.75,181.64999999999998 131.6,173.25 120.05,161.7 114.44999999999999,150.5 113.39999999999999,140.0 113.05,143.14999999999998 112.35,139.64999999999998 112.35,137.2 113.05,137.2 113.05,139.29999999999998 113.39999999999999,136.85 112.69999999999999,129.15 113.39999999999999,123.55 114.1,123.55 114.1,124.6 113.74999999999999,120.39999999999999 114.44999999999999,116.55 115.14999999999999,116.55 115.49999999999999,118.3 115.14999999999999,116.55 115.85,116.55 115.85,113.05 117.6,105.0 118.3,105.0 117.94999999999999,102.89999999999999 122.49999999999999,85.05 122.49999999999999,83.3" stroke="#aaa" stroke-width="1" /><polyline fill="none" points="157.5,140.7 158.54999999999998,141.39999999999998 160.29999999999998,144.89999999999998 158.89999999999998,145.95 155.75,146.64999999999998 156.1,147.7 170.45,153.29999999999998 175.35,154.35 180.25,159.6 180.95,159.25 180.6,159.6 177.1,156.1 177.45,155.75 178.85,156.79999999999998 176.39999999999998,154.0 169.75,152.25 162.39999999999998,149.1 163.45,147.7 163.45,146.29999999999998 164.14999999999998,145.25 168.7,143.85 172.54999999999998,145.95 177.1,147.35 177.79999999999998,149.79999999999998 177.1,150.5 176.39999999999998,150.14999999999998 178.14999999999998,150.14999999999998 179.89999999999998,157.85 180.25,157.14999999999998 180.6,157.5 180.6,158.54999999999998 178.14999999999998,147.7 177.79999999999998,148.39999999999998 177.45,148.04999999999998 177.45,146.64999999999998 171.5,144.54999999999998 169.39999999999998,143.14999999999998 160.64999999999998,145.25 158.89999999999998,142.79999999999998 158.89999999999998,141.75 157.85,140.35" stroke="#aaa" stroke-width="1" /><polyline fill="none" points="112.0,142.1 108.85,152.95 106.05,160.29999999999998 105.35,161.0 105.0,160.29999999999998 105.0,161.0 100.44999999999999,165.54999999999998 100.1,161.0 100.8,160.29999999999998 102.55,160.29999999999998 103.6,161.35 103.6,160.64999999999998 104.3,160.29999999999998 100.44999999999999,160.29999999999998 100.44999999999999,165.54999999999998 95.55,169.39999999999998 87.5,173.6 90.3,172.54999999999998 98.0,168.0 105.69999999999999,161.0 108.85,153.29999999999998 108.85,151.89999999999998" stroke="#aaa" stroke-width="1" /><polyline fill="none" points="175.0,124.6 176.39999999999998,125.3 175.7,125.64999999999999 180.6,129.15 187.95,130.54999999999998 189.35,131.25 190.39999999999998,131.25 190.75,130.54999999999998 192.5,130.54999999999998 189.7,130.54999999999998 180.95,128.45 176.39999999999998,124.94999999999999" stroke="#aaa" stroke-width="1" /><polyline fill="none" points="147.35,184.45 148.04999999999998,185.14999999999998 147.35,185.5 149.1,186.54999999999998 149.45,185.85 150.5,186.54999999999998 149.79999999999998,186.89999999999998 152.95,188.29999999999998 151.54999999999998,187.6 152.6,187.25 150.5,186.54999999999998" stroke="#aaa" stroke-width="1" /><polyline fill="none" points="157.85,91.0 158.54999999999998,91.69999999999999 165.2,93.44999999999999 166.25,93.1 165.54999999999998,92.39999999999999 162.75,92.05 160.29999999999998,91.0" stroke="#aaa" stroke-width="1" /><polyline fill="none" points="134.04999999999998,73.85 131.6,76.64999999999999 131.6,77.35 129.15,80.85 128.79999999999998,82.6 127.74999999999999,83.3 127.74999999999999,84.69999999999999 125.99999999999999,87.5 125.99999999999999,88.89999999999999 124.6,89.6 125.64999999999999,89.94999999999999 124.94999999999999,91.35 125.99999999999999,89.25 125.99999999999999,87.5 127.74999999999999,85.05 127.74999999999999,83.64999999999999 128.79999999999998,82.94999999999999 130.2,79.1" stroke="#aaa" stroke-width="1" /><polyline fill="none" points="92.39999999999999,161.35 91.35,161.7 88.55,161.0 84.35,163.45 87.5,161.7 87.85,162.04999999999998 86.44999999999999,163.79999999999998 84.0,164.5 79.8,163.79999999999998 79.1,167.29999999999998 81.19999999999999,167.29999999999998 82.25,165.2 80.5,167.64999999999998 79.44999999999999,167.29999999999998 79.1,166.6 80.14999999999999,163.79999999999998 84.0,164.5 87.14999999999999,163.45 88.19999999999999,162.04999999999998 88.89999999999999,162.75 88.19999999999999,165.54999999999998 88.89999999999999,162.75 87.85,161.7 89.6,161.0 90.64999999999999,161.35 91.69999999999999,162.75 91.35,161.7" stroke="#aaa" stroke-width="1" /><polyline fill="none" points="152.6,85.75 152.95,86.44999999999999 158.54999999999998,85.39999999999999 159.25,86.8 158.89999999999998,85.75 160.29999999999998,85.75 159.95,85.39999999999999 161.0,85.05 162.04999999999998,85.75 167.64999999999998,87.14999999999999 168.35,87.85 167.64999999999998,87.14999999999999 168.7,86.8 169.75,88.55 169.39999999999998,89.6 172.2,93.44999999999999 172.54999999999998,92.39999999999999 173.25,93.8 173.25,92.05 178.5,92.75 178.14999999999998,91.0 177.1,90.3 176.75,89.25 176.75,89.94999999999999 178.14999999999998,91.35 178.14999999999998,92.75 174.64999999999998,92.39999999999999 173.25,91.69999999999999 172.89999999999998,92.39999999999999 171.5,91.0 171.5,89.94999999999999 170.79999999999998,89.94999999999999 170.45,90.64999999999999 169.75,89.6 170.45,89.25 169.39999999999998,88.19999999999999 170.79999999999998,87.14999999999999 171.5,84.69999999999999 172.89999999999998,85.75 174.29999999999998,88.55 174.29999999999998,89.94999999999999 173.95,87.5 171.85,84.35 171.14999999999998,84.35 171.14999999999998,86.1 169.75,87.85 168.7,86.8 164.85,85.39999999999999 163.45,85.39999999999999 162.04999999999998,83.3 164.85,81.19999999999999 163.45,81.55 163.45,80.85 160.29999999999998,81.55 159.6,82.6 160.29999999999998,84.0 159.6,84.69999999999999" stroke="#aaa" stroke-width="1" /><polyline fill="none" points="117.94999999999999,80.85 117.24999999999999,81.19999999999999 116.89999999999999,80.5 115.85,80.5 115.14999999999999,81.19999999999999 115.49999999999999,82.25 115.49999999999999,81.19999999999999 116.19999999999999,80.5 116.89999999999999,80.85 115.85,84.0 116.55,84.35 116.19999999999999,84.69999999999999 114.8,84.35 113.39999999999999,85.39999999999999 113.05,85.05 114.44999999999999,83.64999999999999 111.64999999999999,85.75 110.25,86.1 110.25,87.14999999999999 110.94999999999999,87.5 108.85,89.6 105.69999999999999,95.89999999999999 108.5,90.3 110.94999999999999,87.5 110.25,86.1 112.69999999999999,85.05 114.44999999999999,85.75 114.1,85.39999999999999 115.14999999999999,84.35 115.14999999999999,85.75 115.85,84.69999999999999 116.19999999999999,86.1 114.8,87.5 114.44999999999999,86.44999999999999 113.74999999999999,86.8 114.8,86.8 113.74999999999999,89.25 115.85,86.8 116.19999999999999,85.05 117.24999999999999,84.69999999999999 115.85,83.3 116.55,81.55" stroke="#aaa" stroke-width="1" /><polyline fill="none" points="186.2,183.75 185.14999999999998,185.5 187.25,188.64999999999998 189.0,190.04999999999998 188.29999999999998,190.39999999999998 183.39999999999998,187.95 184.45,186.89999999999998 185.85,187.95 184.45,186.89999999999998 183.39999999999998,187.6 183.39999999999998,188.29999999999998 188.29999999999998,190.39999999999998 189.0,190.04999999999998 185.14999999999998,185.5 186.89999999999998,183.75 189.35,186.89999999999998 192.14999999999998,192.5 191.45,190.04999999999998 190.39999999999998,189.0 189.35,186.54999999999998 187.25,183.75" stroke="#aaa" stroke-width="1" /><polyline fill="none" points="71.75,163.79999999999998 73.85,163.45 74.55,164.14999999999998 74.19999999999999,166.95 75.6,166.95 76.3,166.25 75.94999999999999,165.89999999999998 77.0,163.79999999999998 79.1,163.79999999999998" stroke="#aaa" stroke-width="1" /><polyline fill="none" points="185.5,191.79999999999998 190.75,195.64999999999998 185.5,191.79999999999998 181.64999999999998,192.5 180.25,193.2 178.85,194.95 181.29999999999998,200.2 182.7,201.95 183.39999999999998,204.39999999999998 184.1,204.75 178.85,195.29999999999998 180.95,192.85" stroke="#aaa" stroke-width="1" /><polyline fill="none" points="182.0,195.64999999999998 181.64999999999998,197.39999999999998 183.75,200.2 181.64999999999998,197.04999999999998 182.0,196.0 184.79999999999998,194.25 186.89999999999998,194.25 188.29999999999998,194.95 192.5,199.5 192.85,201.25 192.85,197.39999999999998 192.85,200.2 191.45,197.75 188.64999999999998,194.95 186.89999999999998,194.25 184.79999999999998,194.25" stroke="#aaa" stroke-width="1" /><polyline fill="none" points="146.64999999999998,58.099999999999994 144.2,59.15 141.39999999999998,61.599999999999994 141.39999999999998,62.3 138.95,64.75 138.95,65.45 137.89999999999998,66.5 138.25,66.85 135.79999999999998,69.64999999999999 135.1,71.39999999999999 132.29999999999998,74.55 135.1,71.75 135.79999999999998,70.0 138.25,67.19999999999999 138.95,65.1 141.39999999999998,62.65 141.39999999999998,61.949999999999996 144.89999999999998,58.8" stroke="#aaa" stroke-width="1" /><polyline fill="none" points="130.54999999999998,57.74999999999999 129.85,59.49999999999999 127.74999999999999,61.599999999999994 127.39999999999999,62.65 125.64999999999999,61.949999999999996 126.35,62.3 125.64999999999999,62.65 127.39999999999999,62.65 127.39999999999999,64.75 126.69999999999999,65.45 125.64999999999999,64.75 125.99999999999999,64.05 124.6,64.05 125.99999999999999,64.39999999999999 125.3,64.75 125.99999999999999,65.45 124.94999999999999,66.5 123.89999999999999,65.45 124.24999999999999,65.1 123.89999999999999,65.45 123.19999999999999,64.75 124.6,66.14999999999999 123.55,67.19999999999999 122.85,67.19999999999999 124.6,67.19999999999999 125.3,67.89999999999999 123.89999999999999,66.85 124.6,66.14999999999999 125.3,66.5 126.35,65.45 127.05,65.8 126.69999999999999,66.14999999999999 128.1,68.25 127.05,68.6 125.99999999999999,67.89999999999999 127.74999999999999,68.94999999999999 127.05,69.64999999999999 127.74999999999999,69.3 128.1,70.0 127.39999999999999,70.69999999999999 127.05,70.35 128.1,71.75 127.39999999999999,70.69999999999999 128.45,70.0 127.74999999999999,68.94999999999999 128.1,67.89999999999999 127.05,66.5 127.05,65.45 128.45,64.75 127.39999999999999,64.39999999999999 128.45,64.05 127.74999999999999,64.05 127.39999999999999,62.99999999999999 129.5,60.199999999999996" stroke="#aaa" stroke-width="1" /><polyline fill="none" points="144.89999999999998,71.75 145.25,72.44999999999999 156.45,66.5 168.7,65.8 179.54999999999998,68.94999999999999 185.85,72.8 185.14999999999998,72.1 186.2,71.75 187.25,72.8 186.54999999999998,73.14999999999999 188.29999999999998,74.19999999999999 188.64999999999998,73.5 189.7,74.19999999999999 189.0,74.55 190.04999999999998,75.25 190.75,74.89999999999999 189.7,74.89999999999999 189.35,74.55 190.39999999999998,74.19999999999999 182.35,69.64999999999999 183.04999999999998,70.35 182.0,70.69999999999999 180.95,69.64999999999999 181.64999999999998,69.3 179.54999999999998,68.25 168.7,65.1 156.45,65.8" stroke="#aaa" stroke-width="1" /><polyline fill="none" points="203.35,104.64999999999999 203.7,105.35 211.39999999999998,103.6 213.85,105.0 213.5,106.05 214.54999999999998,106.05 214.2,105.69999999999999 214.89999999999998,105.35 217.7,107.1 216.29999999999998,109.89999999999999 213.5,111.3 209.29999999999998,109.19999999999999 207.89999999999998,107.8 207.89999999999998,105.35 207.54999999999998,107.44999999999999 208.95,109.19999999999999 210.0,109.55 209.29999999999998,109.89999999999999 215.25,112.69999999999999 214.54999999999998,112.35 215.25,112.0 214.2,111.3 216.29999999999998,110.25 217.7,107.1 221.2,112.69999999999999 221.54999999999998,112.0 222.25,113.05 218.04999999999998,106.05 211.39999999999998,102.89999999999999" stroke="#aaa" stroke-width="1" /><polyline fill="none" points="88.55,199.85 88.55,203.7 92.39999999999999,204.75 94.14999999999999,205.79999999999998 97.64999999999999,210.0 94.5,205.79999999999998 88.55,203.35 88.55,200.2 89.25,199.85 94.14999999999999,204.75 89.6,199.85" stroke="#aaa" stroke-width="1" /><polyline fill="none" points="71.05,165.54999999999998 67.19999999999999,170.45 65.1,175.35 60.9,180.6 61.24999999999999,181.29999999999998 56.699999999999996,185.14999999999998 54.949999999999996,185.85 58.449999999999996,184.1 60.9,181.64999999999998 64.05,180.25 66.85,177.79999999999998 68.25,175.35 68.94999999999999,172.2 71.05,168.7 73.5,170.79999999999998 71.05,171.85 68.94999999999999,177.1 67.19999999999999,179.2 62.65,182.7 56.699999999999996,185.85 57.4,186.2 55.65,187.25 54.949999999999996,186.89999999999998 55.3,186.54999999999998 51.8,186.89999999999998 51.8,187.6 47.949999999999996,188.29999999999998 51.449999999999996,187.6 52.849999999999994,188.64999999999998 54.25,188.64999999999998 54.599999999999994,189.0 53.9,189.35 54.599999999999994,189.35 55.3,188.64999999999998 59.15,187.6 67.89999999999999,182.0 71.75,176.75 71.75,178.14999999999998 67.55,183.39999999999998 57.4,189.35 54.25,190.39999999999998 53.9,190.04999999999998 53.199999999999996,191.1 54.599999999999994,190.04999999999998 61.24999999999999,187.6 67.89999999999999,183.39999999999998 72.8,177.1 75.6,177.79999999999998 74.55,177.1 72.44999999999999,177.45 71.75,176.75 72.8,175.35 73.85,175.35 75.6,177.1 74.19999999999999,175.35 72.8,174.64999999999998 72.8,173.95 73.14999999999999,175.0 71.75,176.04999999999998 69.3,180.25 67.55,182.0 59.849999999999994,187.25 56.349999999999994,188.64999999999998 54.25,188.64999999999998 56.0,186.89999999999998 61.949999999999996,184.45 66.85,180.95 69.3,178.5 71.39999999999999,173.6 72.8,172.89999999999998 73.85,173.95 73.14999999999999,172.89999999999998 71.75,172.54999999999998 70.0,177.1 66.14999999999999,181.29999999999998 61.599999999999994,184.45 58.8,185.85 57.74999999999999,185.5 65.8,180.6 68.6,177.79999999999998 71.05,172.2 73.5,170.79999999999998 75.6,175.35 76.64999999999999,176.39999999999998 78.05,180.6 79.1,181.64999999999998 80.14999999999999,186.54999999999998 80.14999999999999,189.7 81.55,193.54999999999998 81.55,195.29999999999998 84.35,202.29999999999998 85.39999999999999,203.35 83.64999999999999,200.54999999999998 83.64999999999999,199.5 81.55,195.29999999999998 81.55,193.2 80.14999999999999,189.7 80.14999999999999,186.54999999999998 79.1,181.29999999999998 78.05,180.25 76.64999999999999,176.04999999999998 74.89999999999999,173.6 75.94999999999999,172.54999999999998 81.89999999999999,172.89999999999998 74.89999999999999,172.89999999999998 72.1,169.04999999999998 71.05,168.7 69.64999999999999,170.45 67.19999999999999,177.1 63.349999999999994,180.6 62.3,180.25 66.5,176.75 69.3,169.04999999999998 71.39999999999999,167.29999999999998 72.44999999999999,168.0 72.44999999999999,165.54999999999998" stroke="#aaa" stroke-width="1" /><polyline fill="none" points="88.19999999999999,205.45 88.19999999999999,206.14999999999998 87.5,206.5 87.85,206.85 88.19999999999999,206.14999999999998 89.6,207.54999999999998 92.75,208.25 98.69999999999999,212.1 103.25,217.7 105.35,221.2 109.19999999999999,225.04999999999998 105.35,220.85 99.05,212.1 95.89999999999999,209.64999999999998 92.05,207.89999999999998 89.94999999999999,207.54999999999998" stroke="#aaa" stroke-width="1" /><polyline fill="none" points="139.29999999999998,47.949999999999996 138.25,47.949999999999996 138.95,48.3 136.5,52.15 129.5,57.4 130.9,57.05 132.29999999999998,55.3 134.75,53.55 135.79999999999998,54.25 134.75,55.3 133.7,55.3 135.1,55.3 136.14999999999998,53.9 136.14999999999998,52.5 137.89999999999998,50.75" stroke="#aaa" stroke-width="1" /><polyline fill="none" points="82.94999999999999,185.5 84.0,190.04999999999998 84.69999999999999,190.75 86.8,196.35 87.5,204.04999999999998 86.8,206.85 87.85,209.29999999999998 86.8,212.45 87.85,214.2 87.5,214.54999999999998 86.44999999999999,213.85 84.69999999999999,210.0 84.35,207.89999999999998 83.3,206.5 84.0,203.0 80.85,200.54999999999998 78.39999999999999,197.39999999999998 77.0,194.25 75.25,193.2 72.44999999999999,193.89999999999998 68.25,196.35 64.39999999999999,200.89999999999998 62.99999999999999,204.39999999999998 57.05,210.35 55.65,206.85 62.65,200.54999999999998 65.1,196.0 67.19999999999999,193.89999999999998 74.19999999999999,190.39999999999998 76.64999999999999,190.39999999999998 75.94999999999999,188.64999999999998 73.14999999999999,188.64999999999998 67.19999999999999,191.79999999999998 64.75,193.54999999999998 60.9,199.5 55.3,203.7 53.9,203.0 53.55,200.54999999999998 58.8,196.7 63.699999999999996,191.45 73.14999999999999,185.85 76.3,185.85 75.94999999999999,184.1 73.14999999999999,184.1 67.89999999999999,187.95 60.55,191.79999999999998 53.9,197.75 52.5,198.45 53.199999999999996,198.79999999999998 53.199999999999996,200.89999999999998 47.25,197.39999999999998 42.699999999999996,192.5 40.599999999999994,192.14999999999998 39.55,192.85 40.599999999999994,192.14999999999998 42.0,192.14999999999998 46.9,197.39999999999998 53.199999999999996,200.89999999999998 54.25,203.7 55.65,203.7 57.05,205.1 55.65,206.5 55.65,207.54999999999998 57.05,210.35 62.99999999999999,204.75 64.75,200.54999999999998 68.6,196.35 74.89999999999999,193.2 77.35,194.95 78.39999999999999,197.39999999999998 78.05,198.1 78.39999999999999,197.75 79.1,198.79999999999998 78.39999999999999,199.5 76.3,199.85 66.85,208.6 64.39999999999999,213.5 60.9,218.75 60.9,220.5 62.99999999999999,223.29999999999998 64.05,223.29999999999998 62.99999999999999,223.29999999999998 62.99999999999999,222.25 66.85,215.25 67.55,215.25 67.19999999999999,214.89999999999998 72.8,206.85 75.25,204.39999999999998 79.44999999999999,201.95 80.14999999999999,201.95 82.6,204.39999999999998 83.3,204.04999999999998 83.3,203.0 84.0,203.35 83.3,206.5 84.69999999999999,208.95 85.39999999999999,212.1 87.14999999999999,214.89999999999998 87.85,214.2 86.8,212.1 87.85,209.29999999999998 88.55,208.6 89.94999999999999,213.14999999999998 88.55,215.25 88.55,216.64999999999998 89.94999999999999,216.64999999999998 93.8,218.75 92.05,217.35 91.0,217.35 90.3,216.64999999999998 90.64999999999999,216.29999999999998 89.25,217.0 88.55,216.29999999999998 89.94999999999999,213.5 89.94999999999999,212.45 88.19999999999999,207.54999999999998 88.55,208.6 87.85,209.29999999999998 86.8,206.85 87.5,204.39999999999998 86.8,196.0 84.69999999999999,190.39999999999998 84.0,189.7" stroke="#aaa" stroke-width="1" /><polyline fill="none" points="76.3,180.95 75.6,179.89999999999998 74.55,179.54999999999998 72.8,179.89999999999998 67.19999999999999,186.2 57.74999999999999,190.39999999999998 53.55,192.85 67.55,186.2 73.14999999999999,179.89999999999998 74.55,179.54999999999998 76.3,180.95 75.94999999999999,181.29999999999998 73.5,181.64999999999998 70.35,185.14999999999998 67.89999999999999,186.89999999999998 59.49999999999999,190.75 52.849999999999994,194.95 49.699999999999996,193.89999999999998 45.5,190.39999999999998 46.9,189.35 47.949999999999996,189.35 50.4,191.45 52.5,192.14999999999998 52.849999999999994,192.85 52.849999999999994,192.14999999999998 50.75,191.45 47.949999999999996,189.35 40.599999999999994,191.45 42.0,191.45 43.4,190.39999999999998 45.15,190.39999999999998 49.349999999999994,193.89999999999998 51.8,194.95 53.199999999999996,194.95 58.449999999999996,191.45 67.55,187.25 71.39999999999999,184.45 74.19999999999999,181.29999999999998 75.6,181.64999999999998 74.55,183.04999999999998" stroke="#aaa" stroke-width="1" /><polyline fill="none" points="241.49999999999997,105.0 238.7,111.64999999999999 234.49999999999997,124.6 232.39999999999998,128.45 229.6,135.79999999999998 225.04999999999998,144.89999999999998 222.6,148.04999999999998 225.04999999999998,145.25 227.14999999999998,141.39999999999998 232.39999999999998,128.45 234.49999999999997,124.94999999999999 234.49999999999997,123.55 235.54999999999998,121.8 238.35,112.69999999999999" stroke="#aaa" stroke-width="1" /><polyline fill="none" points="91.69999999999999,213.5 91.35,215.95 93.1,216.29999999999998 94.5,217.7 96.25,220.85 103.94999999999999,227.14999999999998 112.0,232.74999999999997 122.14999999999999,243.6 122.85,245.35 130.9,257.25 122.14999999999999,243.24999999999997 115.14999999999999,235.54999999999998 110.25,230.99999999999997 105.69999999999999,228.2 96.6,220.85 93.44999999999999,216.29999999999998 92.05,216.29999999999998 91.35,215.6 93.1,214.89999999999998 108.5,225.74999999999997 113.74999999999999,230.99999999999997 119.69999999999999,239.39999999999998 113.74999999999999,230.64999999999998 108.85,225.74999999999997 99.39999999999999,218.75 95.19999999999999,216.29999999999998 92.39999999999999,213.5" stroke="#aaa" stroke-width="1" /><polyline fill="none" points="144.54999999999998,42.699999999999996 143.14999999999998,43.75 142.45,43.4 141.75,44.449999999999996 141.04999999999998,43.75 139.29999999999998,44.099999999999994 138.25,45.15 140.0,43.75 141.04999999999998,43.75 141.75,44.449999999999996 138.6,46.9 137.2,45.5 138.25,44.099999999999994 134.39999999999998,47.25 132.65,46.9 134.75,47.25 136.14999999999998,45.849999999999994 137.54999999999998,45.849999999999994 134.04999999999998,48.3 133.7,49.349999999999994 137.54999999999998,45.849999999999994 138.6,46.9 137.89999999999998,47.25 138.6,47.25 142.45,43.75 143.5,43.75" stroke="#aaa" stroke-width="1" /><polyline fill="none" points="92.75,219.45 92.75,220.85 94.5,225.39999999999998 96.25,227.85 96.6,226.79999999999998 95.19999999999999,224.7 94.14999999999999,220.5 93.44999999999999,219.45" stroke="#aaa" stroke-width="1" /><polyline fill="none" points="76.3,195.29999999999998 74.19999999999999,195.29999999999998 71.05,196.7 65.8,201.6 62.3,207.54999999999998 58.099999999999994,212.45 59.15,216.64999999999998 60.55,215.6 65.45,207.2 69.64999999999999,203.7 74.19999999999999,198.79999999999998 77.35,197.75 77.0,196.0" stroke="#aaa" stroke-width="1" /><polyline fill="none" points="233.1,137.89999999999998 232.04999999999998,139.64999999999998 232.04999999999998,141.04999999999998 225.39999999999998,147.35 224.7,147.35 220.5,151.89999999999998 217.35,157.85 217.35,162.04999999999998 215.25,164.5 213.5,165.2 211.04999999999998,165.2 207.54999999999998,170.1 199.85,177.1 191.45,181.64999999999998 187.6,182.35 187.6,183.04999999999998 190.04999999999998,183.39999999999998 194.25,185.5 197.75,188.64999999999998 203.0,194.95 211.39999999999998,196.0 218.75,198.79999999999998 222.6,202.64999999999998 224.35,206.14999999999998 220.85,206.14999999999998 226.1,210.35 230.64999999999998,218.04999999999998 232.39999999999998,222.95 232.39999999999998,225.39999999999998 234.14999999999998,231.7 234.14999999999998,240.45 233.45,246.04999999999998 234.85,257.95 235.89999999999998,260.4 236.24999999999997,273.34999999999997 235.89999999999998,276.84999999999997 234.49999999999997,279.65 235.89999999999998,276.84999999999997 236.24999999999997,273.34999999999997 235.89999999999998,260.4 234.85,257.95 233.45,246.04999999999998 234.14999999999998,240.45 234.14999999999998,231.7 232.39999999999998,225.39999999999998 232.39999999999998,222.95 230.64999999999998,217.7 226.79999999999998,211.04999999999998 222.6,206.85 224.0,206.5 224.35,205.79999999999998 222.6,202.29999999999998 219.45,199.14999999999998 222.25,199.14999999999998 226.1,200.89999999999998 227.85,202.29999999999998 230.29999999999998,206.14999999999998 230.99999999999997,208.6 231.7,209.29999999999998 230.29999999999998,210.0 233.1,213.5 237.64999999999998,221.89999999999998 240.1,231.7 239.74999999999997,247.45 240.45,253.39999999999998 240.45,263.2 239.74999999999997,270.9 237.64999999999998,279.65 239.74999999999997,270.9 240.45,263.2 240.45,253.39999999999998 239.74999999999997,247.45 240.1,231.7 237.64999999999998,221.54999999999998 233.1,213.14999999999998 230.64999999999998,210.0 231.7,209.29999999999998 230.29999999999998,206.85 230.29999999999998,205.79999999999998 227.85,201.95 225.04999999999998,200.2 222.25,199.14999999999998 219.45,199.14999999999998 211.39999999999998,196.0 203.35,194.95 196.35,186.89999999999998 193.89999999999998,185.14999999999998 188.64999999999998,182.7 189.35,182.0 194.95,180.25 200.2,177.1 203.35,174.64999999999998 206.85,170.79999999999998 207.89999999999998,170.79999999999998 207.54999999999998,170.1 211.39999999999998,165.2 215.6,164.5 217.35,162.39999999999998 217.35,157.85 219.1,154.35 219.79999999999998,153.64999999999998 220.14999999999998,154.0 219.79999999999998,153.29999999999998 221.89999999999998,150.5 227.49999999999997,145.6 228.2,146.29999999999998 227.85,146.64999999999998 228.89999999999998,147.0 226.79999999999998,147.0 227.14999999999998,147.35 226.45,147.7 229.6,147.35 231.35,148.04999999999998 234.14999999999998,148.04999999999998 239.04999999999998,145.6 234.14999999999998,148.04999999999998 229.95,147.7 227.49999999999997,145.6 228.54999999999998,144.54999999999998 229.6,145.6 229.24999999999997,146.29999999999998 230.64999999999998,146.29999999999998 230.29999999999998,147.0 233.79999999999998,147.35 235.54999999999998,146.29999999999998 235.54999999999998,145.25 230.29999999999998,144.54999999999998 234.49999999999997,144.89999999999998 235.54999999999998,145.6 233.79999999999998,147.35 231.7,147.35 229.6,144.89999999999998 229.24999999999997,145.25 228.54999999999998,144.54999999999998 232.74999999999997,140.35 235.54999999999998,140.0 235.89999999999998,141.04999999999998 235.54999999999998,142.79999999999998 234.85,143.5 232.74999999999997,143.14999999999998 234.14999999999998,143.5 234.14999999999998,144.2 232.39999999999998,144.2 231.7,143.5 232.04999999999998,142.79999999999998 231.7,143.5 232.39999999999998,144.2 234.49999999999997,144.2 235.54999999999998,142.79999999999998 235.89999999999998,141.04999999999998 236.24999999999997,142.1 236.6,141.04999999999998 237.29999999999998,141.39999999999998 237.29999999999998,142.1 236.95,141.75 238.7,140.7 240.79999999999998,140.7 240.45,140.35 239.04999999999998,141.04999999999998 239.04999999999998,140.0 239.74999999999997,140.0 237.29999999999998,141.39999999999998 236.24999999999997,141.04999999999998 235.54999999999998,139.64999999999998 237.99999999999997,139.64999999999998 235.54999999999998,138.95 232.74999999999997,140.35 232.39999999999998,139.29999999999998 233.45,137.89999999999998 233.79999999999998,138.25" stroke="#aaa" stroke-width="1" /><polyline fill="none" points="208.25,82.6 208.25,83.3 219.1,85.39999999999999 228.54999999999998,89.94999999999999 235.2,97.64999999999999 234.85,99.05 235.54999999999998,99.05 236.6,107.8 237.29999999999998,107.8 235.89999999999998,97.3 235.89999999999998,98.35 235.2,98.35 235.2,97.3 234.49999999999997,96.6 235.54999999999998,96.6 232.39999999999998,93.1 232.04999999999998,93.8 229.95,91.35 230.64999999999998,91.0 232.04999999999998,92.39999999999999 229.24999999999997,89.25 223.29999999999998,86.8 219.79999999999998,84.69999999999999" stroke="#aaa" stroke-width="1" /><polyline fill="none" points="190.04999999999998,208.25 189.0,208.95 189.0,211.04999999999998 187.95,213.5 192.14999999999998,213.5 193.89999999999998,215.6 193.2,214.2 193.54999999999998,213.85 193.2,214.2 191.1,213.14999999999998 190.39999999999998,213.5 189.7,212.79999999999998 189.7,211.75 190.04999999999998,213.14999999999998 189.0,213.85 187.95,213.5 189.0,211.04999999999998 189.0,209.29999999999998 190.04999999999998,208.25 191.1,208.25 193.54999999999998,211.04999999999998 194.6,214.89999999999998 195.64999999999998,215.6 199.14999999999998,223.29999999999998 199.85,237.29999999999998 199.14999999999998,257.59999999999997 199.85,266.0 201.25,272.65 201.95,279.65 201.25,272.65 199.85,266.0 199.14999999999998,257.59999999999997 199.14999999999998,249.2 199.85,244.29999999999998 199.14999999999998,223.29999999999998 198.45,220.85 194.25,213.5 192.85,209.64999999999998 191.79999999999998,208.6" stroke="#aaa" stroke-width="1" /><polyline fill="none" points="96.6,222.25 95.89999999999999,223.64999999999998 96.6,223.64999999999998 99.05,227.85 101.14999999999999,229.6 99.39999999999999,228.2 96.6,224.0 96.25,222.6 96.94999999999999,222.6 99.39999999999999,226.1 99.39999999999999,226.79999999999998 102.89999999999999,230.64999999999998 102.55,231.7 102.89999999999999,232.04999999999998 102.89999999999999,230.99999999999997 103.94999999999999,232.04999999999998 103.6,233.1 103.94999999999999,233.45 103.94999999999999,232.39999999999998 106.39999999999999,234.49999999999997 113.05,241.85 129.15,256.9 134.04999999999998,263.55 136.85,268.79999999999995 135.79999999999998,267.4 135.1,264.95 129.15,256.55 108.85,237.29999999999998 106.75,234.49999999999997 103.94999999999999,232.04999999999998" stroke="#aaa" stroke-width="1" /><polyline fill="none" points="151.2,31.849999999999998 148.04999999999998,31.849999999999998 151.2,31.849999999999998 149.45,33.599999999999994 148.75,33.599999999999994 149.1,34.3 148.04999999999998,35.349999999999994 148.75,36.05 147.0,37.8 145.95,37.099999999999994 147.35,36.4 143.85,36.4 143.5,37.8 143.14999999999998,36.4 142.45,36.05 146.64999999999998,35.699999999999996 147.35,35.0 146.29999999999998,35.699999999999996 142.45,35.699999999999996 143.14999999999998,37.8 141.75,38.849999999999994 143.85,37.8 144.2,36.4 145.6,36.4 145.6,37.099999999999994 144.54999999999998,37.099999999999994 145.95,37.099999999999994 146.64999999999998,37.8 144.89999999999998,38.15 144.89999999999998,39.199999999999996 143.85,39.55 144.54999999999998,39.55 144.89999999999998,40.25 143.5,41.65 142.45,41.3 143.14999999999998,40.599999999999994 142.79999999999998,39.55 143.85,38.5 141.75,39.9 141.39999999999998,39.55 141.39999999999998,40.599999999999994 142.1,40.599999999999994 141.04999999999998,40.25 142.1,39.55 142.79999999999998,39.55 143.14999999999998,40.25 141.39999999999998,42.349999999999994 140.35,42.0 141.04999999999998,42.0 141.04999999999998,42.699999999999996 138.95,43.4 137.54999999999998,43.05 138.95,43.4 141.39999999999998,42.699999999999996 142.45,41.3 143.85,41.65 144.89999999999998,40.25 145.25,38.15 146.29999999999998,38.5 145.95,39.55 146.29999999999998,38.5 148.39999999999998,36.4 149.45,36.4 148.39999999999998,35.349999999999994" stroke="#aaa" stroke-width="1" /><polyline fill="none" points="240.79999999999998,118.99999999999999 239.74999999999997,118.99999999999999 235.54999999999998,123.55 235.54999999999998,125.64999999999999 234.85,126.69999999999999 235.89999999999998,127.05 236.6,128.45 240.79999999999998,129.15 238.35,129.5 237.99999999999997,130.2 236.6,130.54999999999998 236.6,132.29999999999998 235.2,133.7 235.89999999999998,134.04999999999998 234.49999999999997,135.79999999999998 233.79999999999998,135.79999999999998 233.45,136.85 235.89999999999998,134.75 237.99999999999997,135.1 236.24999999999997,135.1 235.54999999999998,134.39999999999998 236.24999999999997,132.65 237.64999999999998,131.95 236.24999999999997,131.6 237.29999999999998,131.25 236.6,130.9 237.29999999999998,130.2 237.99999999999997,130.54999999999998 238.7,129.5 240.79999999999998,129.15 243.24999999999997,129.5 242.89999999999998,129.15 243.95,129.15 243.6,128.79999999999998 244.29999999999998,128.1 245.7,131.25 246.39999999999998,134.75 246.74999999999997,139.64999999999998 246.04999999999998,147.0 243.6,156.45 240.1,165.54999999999998 240.1,166.6 240.79999999999998,164.5 241.14999999999998,165.54999999999998 240.45,167.64999999999998 239.74999999999997,167.64999999999998 239.74999999999997,169.04999999999998 244.64999999999998,155.75 244.64999999999998,154.7 243.95,156.79999999999998 243.6,155.39999999999998 244.64999999999998,152.95 244.99999999999997,153.64999999999998 244.64999999999998,151.89999999999998 245.35,150.5 245.7,147.35 246.39999999999998,147.35 246.04999999999998,150.85 246.04999999999998,145.25 246.74999999999997,145.25 246.74999999999997,146.64999999999998 246.74999999999997,139.64999999999998 246.04999999999998,133.0 246.74999999999997,133.0 247.1,134.39999999999998 247.1,138.6 247.1,134.39999999999998 246.04999999999998,129.5 244.99999999999997,127.39999999999999 245.7,126.69999999999999 245.7,124.6 246.39999999999998,124.6 246.39999999999998,123.89999999999999 244.29999999999998,123.19999999999999 244.99999999999997,122.85 243.95,123.19999999999999 242.89999999999998,122.14999999999999 242.54999999999998,120.74999999999999 243.24999999999997,120.05 244.64999999999998,120.05 243.6,119.35 242.54999999999998,120.74999999999999 243.95,123.89999999999999 243.6,125.3 242.89999999999998,124.6 241.49999999999997,119.69999999999999" stroke="#aaa" stroke-width="1" /><polyline fill="none" points="186.2,198.45 184.79999999999998,199.14999999999998 184.45,200.2 186.2,198.45 189.0,198.45 192.85,203.35 193.2,203.0 193.89999999999998,203.7 194.6,207.89999999999998 197.75,212.79999999999998 200.2,219.1 201.6,242.89999999999998 201.6,255.14999999999998 202.64999999999998,263.9 204.04999999999998,269.15 204.75,275.79999999999995 204.39999999999998,279.65 204.75,275.79999999999995 204.04999999999998,269.15 202.64999999999998,263.9 201.6,255.14999999999998 201.6,242.89999999999998 200.2,219.1 198.45,213.85 194.6,207.54999999999998 193.89999999999998,203.35 192.5,202.64999999999998 192.85,201.95 192.5,202.64999999999998 189.35,198.45" stroke="#aaa" stroke-width="1" /><polyline fill="none" points="246.74999999999997,104.64999999999999 246.04999999999998,106.05 244.29999999999998,107.44999999999999 243.6,114.1 241.85,116.55 243.24999999999997,116.55 243.6,118.64999999999999 247.1,120.39999999999999 245.35,119.69999999999999 246.74999999999997,117.94999999999999 245.35,119.35 244.64999999999998,118.99999999999999 245.35,117.94999999999999 247.1,117.24999999999999 247.1,115.85 246.74999999999997,116.19999999999999 246.39999999999998,115.14999999999999 247.45,113.74999999999999 246.74999999999997,113.74999999999999 247.1,111.3 246.04999999999998,109.89999999999999 247.1,111.64999999999999 247.1,113.05 244.99999999999997,115.49999999999999 244.64999999999998,114.8 245.35,113.39999999999999 244.64999999999998,114.8 244.99999999999997,115.49999999999999 244.29999999999998,115.85 246.74999999999997,113.74999999999999 247.1,114.44999999999999 244.64999999999998,116.89999999999999 243.24999999999997,116.55 243.6,115.49999999999999 243.24999999999997,116.55 242.2,116.19999999999999 243.6,114.1 243.6,111.3 243.95,110.94999999999999 244.29999999999998,112.0 244.29999999999998,107.8 245.7,106.75 247.45,108.14999999999999 246.39999999999998,109.19999999999999 247.1,110.25 246.39999999999998,109.19999999999999 247.1,108.85 247.79999999999998,109.55 247.79999999999998,120.74999999999999 247.1,121.44999999999999 246.04999999999998,120.74999999999999 244.64999999999998,120.74999999999999 246.04999999999998,120.74999999999999 246.74999999999997,121.44999999999999 246.39999999999998,122.85 247.1,121.44999999999999 247.79999999999998,122.85 247.79999999999998,123.89999999999999 246.39999999999998,125.99999999999999 246.74999999999997,126.69999999999999 246.04999999999998,127.74999999999999 246.74999999999997,127.05 246.39999999999998,125.99999999999999 247.79999999999998,123.89999999999999 248.14999999999998,122.14999999999999 249.2,121.8 248.49999999999997,120.74999999999999 248.85,116.89999999999999 248.14999999999998,122.49999999999999 247.79999999999998,122.85 247.1,121.44999999999999 247.79999999999998,120.74999999999999 248.14999999999998,118.99999999999999 248.14999999999998,112.69999999999999" stroke="#aaa" stroke-width="1" /><polyline fill="none" points="74.19999999999999,206.85 70.0,213.85 71.39999999999999,212.1 71.75,212.79999999999998 70.35,214.54999999999998 70.35,215.6 68.94999999999999,217.0 67.19999999999999,220.5 66.14999999999999,224.35 64.75,226.45 66.14999999999999,224.35 67.19999999999999,220.5 69.64999999999999,216.64999999999998 70.69999999999999,218.39999999999998 72.44999999999999,227.14999999999998 73.14999999999999,227.85 79.1,248.85 83.64999999999999,267.75 85.75,274.4 88.55,279.65 84.69999999999999,271.25 79.1,248.85 73.14999999999999,227.85 72.44999999999999,226.79999999999998 71.39999999999999,220.85 70.35,217.35 69.64999999999999,216.64999999999998 70.35,215.95 70.35,214.54999999999998 71.39999999999999,213.85 72.1,212.1 71.75,212.45 71.39999999999999,211.39999999999998 73.5,208.95" stroke="#aaa" stroke-width="1" /><polyline fill="none" points="99.05,230.99999999999997 99.39999999999999,232.04999999999998 101.5,234.14999999999998 101.85,235.54999999999998 103.6,236.95 106.39999999999999,241.14999999999998 112.0,247.45 113.05,249.54999999999998 128.79999999999998,267.75 137.54999999999998,279.65 136.14999999999998,276.84999999999997 130.2,269.15 113.05,249.2 111.64999999999999,246.74999999999997 106.39999999999999,240.79999999999998 103.6,236.6 101.85,235.2" stroke="#aaa" stroke-width="1" /><polyline fill="none" points="34.3,195.64999999999998 35.349999999999994,195.64999999999998 38.5,193.54999999999998 40.949999999999996,194.25 47.25,201.25 54.949999999999996,206.5 54.25,207.54999999999998 51.8,208.6 53.9,207.89999999999998 54.599999999999994,209.29999999999998 53.9,207.89999999999998 54.949999999999996,206.14999999999998 47.599999999999994,201.25 41.3,194.25 39.9,193.54999999999998 38.15,193.54999999999998 35.699999999999996,195.29999999999998" stroke="#aaa" stroke-width="1" /><polyline fill="none" points="178.5,16.45 176.75,17.15 175.35,16.799999999999997 174.64999999999998,17.5 173.6,17.15 175.7,12.6 173.6,16.099999999999998 173.6,17.5 171.5,18.9 168.7,19.25 167.64999999999998,18.549999999999997 168.0,17.849999999999998 169.75,17.849999999999998 170.1,18.549999999999997 170.79999999999998,17.5 170.45,16.45 172.89999999999998,15.399999999999999 171.5,16.099999999999998 170.45,15.749999999999998 170.79999999999998,17.15 170.1,17.849999999999998 167.64999999999998,17.849999999999998 167.29999999999998,18.9 165.89999999999998,18.2 166.6,18.549999999999997 162.39999999999998,19.95 158.89999999999998,22.4 157.85,21.349999999999998 157.5,22.049999999999997 155.75,21.7 155.04999999999998,22.4 155.75,21.7 158.2,21.7 158.89999999999998,22.4 157.85,23.799999999999997 157.14999999999998,23.45 157.85,23.799999999999997 157.85,25.2 156.1,28.349999999999998 154.35,26.95 153.29999999999998,28.0 153.64999999999998,28.7 154.7,28.349999999999998 155.75,29.049999999999997 154.7,29.749999999999996 154.35,29.4 154.7,29.749999999999996 153.64999999999998,31.15 152.95,30.45 151.54999999999998,31.15 150.5,30.45 151.2,29.749999999999996 151.54999999999998,30.099999999999998 151.2,29.049999999999997 150.85,30.099999999999998 149.79999999999998,30.45 150.14999999999998,30.099999999999998 151.89999999999998,31.849999999999998 151.89999999999998,31.15 152.95,30.45 154.0,32.199999999999996 155.39999999999998,33.25 154.0,31.849999999999998 154.0,30.799999999999997 155.75,29.4 157.5,26.25 158.2,23.45 160.29999999999998,21.349999999999998 161.7,22.049999999999997 161.0,22.75 160.64999999999998,22.4 161.0,22.75 159.25,24.15 162.04999999999998,22.049999999999997 163.1,22.75 162.04999999999998,23.099999999999998 161.35,24.15 162.04999999999998,23.099999999999998 164.14999999999998,22.049999999999997 164.85,22.4 166.25,21.349999999999998 166.95,21.7 165.2,23.45 163.79999999999998,23.099999999999998 165.2,23.45 163.79999999999998,23.799999999999997 164.14999999999998,24.15 163.45,24.849999999999998 161.7,24.849999999999998 161.35,25.2 163.1,25.2 166.95,22.049999999999997 166.95,21.349999999999998 163.79999999999998,22.4 162.75,22.4 162.75,21.7 165.54999999999998,19.95 169.39999999999998,19.95 165.54999999999998,19.95 162.04999999999998,22.049999999999997 160.64999999999998,21.349999999999998 162.39999999999998,19.95 165.89999999999998,18.9 170.45,19.25 171.85,18.9 172.89999999999998,17.849999999999998" stroke="#aaa" stroke-width="1" /><polyline fill="none" points="99.39999999999999,229.95 102.55,234.85 104.64999999999999,236.6 113.74999999999999,248.85 129.15,266.0 132.65,271.25 134.39999999999998,272.65 138.95,279.65 138.6,278.25 129.15,265.65 118.64999999999999,254.45" stroke="#aaa" stroke-width="1" /><polyline fill="none" points="106.75,236.95 110.6,241.49999999999997 109.55,241.49999999999997 115.85,249.89999999999998 120.74999999999999,255.14999999999998 124.6,258.3 131.6,266.0 133.35,269.15 136.85,273.34999999999997 140.0,279.65 138.95,276.5 137.89999999999998,275.45 136.85,273.0 130.2,263.9 123.55,256.9 118.99999999999999,253.04999999999998 110.25,242.2 110.6,241.49999999999997 114.44999999999999,246.04999999999998 117.6,248.49999999999997 130.9,261.45 137.2,271.25 138.6,274.4 136.14999999999998,269.15 130.9,261.09999999999997 117.94999999999999,248.49999999999997 114.8,246.04999999999998" stroke="#aaa" stroke-width="1" /><polyline fill="none" points="31.499999999999996,196.7 33.25,197.04999999999998 35.0,196.35 39.199999999999996,197.75 44.8,203.0 46.55,205.79999999999998 51.449999999999996,210.0 52.849999999999994,217.7 54.599999999999994,223.64999999999998 55.3,229.6 56.349999999999994,231.35 57.4,238.35 59.849999999999994,246.74999999999997 63.699999999999996,264.95 66.5,270.54999999999995 68.94999999999999,279.65 66.5,270.54999999999995 63.699999999999996,264.95 59.849999999999994,246.74999999999997 57.4,238.35 56.349999999999994,231.35 55.3,229.6 54.25,221.89999999999998 52.849999999999994,217.7 51.099999999999994,208.95 49.0,207.89999999999998 40.949999999999996,198.79999999999998 38.5,197.39999999999998 35.0,196.35 33.25,197.04999999999998" stroke="#aaa" stroke-width="1" /><polyline fill="none" points="208.95,201.95 208.95,202.64999999999998 211.39999999999998,206.14999999999998 213.5,212.1 214.89999999999998,218.04999999999998 214.89999999999998,220.85 220.5,246.39999999999998 220.5,254.45 219.1,260.4 218.39999999999998,266.7 218.75,273.0 220.14999999999998,279.29999999999995 218.75,273.0 218.39999999999998,266.7 219.1,260.4 220.5,254.45 220.5,246.39999999999998 214.89999999999998,220.85 214.89999999999998,218.04999999999998 213.5,212.1 211.39999999999998,206.14999999999998 208.95,202.64999999999998 209.29999999999998,201.95 215.25,206.5 219.1,208.6 222.25,212.1 223.29999999999998,215.95 224.0,216.64999999999998 225.04999999999998,220.5 225.39999999999998,225.04999999999998 228.2,234.49999999999997 228.54999999999998,240.79999999999998 227.14999999999998,246.74999999999997 227.14999999999998,255.14999999999998 228.54999999999998,264.25 231.35,274.75 231.7,279.65 231.35,274.75 228.54999999999998,264.25 227.14999999999998,255.14999999999998 227.14999999999998,246.74999999999997 228.54999999999998,240.79999999999998 228.2,234.49999999999997 225.39999999999998,225.04999999999998 225.04999999999998,220.5 222.25,211.75 219.45,208.6 212.79999999999998,204.75 209.64999999999998,201.95" stroke="#aaa" stroke-width="1" /><polyline fill="none" points="24.5,199.5 31.849999999999998,197.75 33.599999999999994,198.1 39.9,201.6 43.4,204.75 46.199999999999996,208.25 47.949999999999996,209.29999999999998 49.699999999999996,218.04999999999998 50.75,220.85 51.449999999999996,227.85 52.5,230.29999999999998 53.199999999999996,235.54999999999998 54.599999999999994,239.74999999999997 56.349999999999994,249.2 60.199999999999996,264.25 62.65,269.84999999999997 65.1,279.65 62.65,269.84999999999997 60.9,264.95 60.199999999999996,264.25 56.349999999999994,249.2 55.65,244.29999999999998 53.199999999999996,235.54999999999998 52.5,230.29999999999998 51.449999999999996,227.85 50.75,220.85 49.699999999999996,218.04999999999998 47.949999999999996,208.95 46.55,208.25 40.25,201.6 34.65,198.45 31.849999999999998,197.75" stroke="#aaa" stroke-width="1" /><polyline fill="none" points="213.14999999999998,206.85 215.25,209.29999999999998 216.64999999999998,212.45 217.35,215.25 217.7,221.89999999999998 222.6,242.2 222.6,251.29999999999998 221.2,257.59999999999997 220.85,265.3 221.54999999999998,271.59999999999997 224.0,279.65 221.54999999999998,271.59999999999997 220.85,265.3 220.85,260.4 222.6,251.29999999999998 222.6,242.2 217.7,221.89999999999998 217.35,215.25 215.25,208.95 213.5,207.2 214.2,206.85 217.0,208.6 220.85,213.14999999999998 222.25,223.29999999999998 226.1,238.35 226.1,244.99999999999997 224.7,251.29999999999998 224.7,258.65 226.1,268.79999999999995 227.85,273.34999999999997 229.24999999999997,279.65 227.85,273.34999999999997 226.1,268.79999999999995 224.7,258.65 224.7,251.29999999999998 226.1,244.99999999999997 226.1,238.35 222.25,223.29999999999998 220.85,212.79999999999998 217.35,208.6 214.2,206.85" stroke="#aaa" stroke-width="1" /><polyline fill="none" points="222.95,200.54999999999998 227.14999999999998,204.04999999999998 228.89999999999998,207.54999999999998 228.2,207.89999999999998 226.45,207.2 229.95,211.39999999999998 232.39999999999998,215.6 235.89999999999998,222.95 237.29999999999998,228.2 237.99999999999997,232.74999999999997 237.99999999999997,245.7 239.04999999999998,258.65 238.35,263.55 238.7,271.59999999999997 236.24999999999997,279.65 238.7,271.59999999999997 238.35,263.55 239.04999999999998,258.65 237.99999999999997,245.7 237.99999999999997,232.74999999999997 237.29999999999998,228.2 234.49999999999997,219.45 229.95,211.04999999999998 227.14999999999998,207.89999999999998 227.85,207.54999999999998 229.95,208.25 228.54999999999998,207.2 227.14999999999998,203.7" stroke="#aaa" stroke-width="1" /><polyline fill="none" points="262.84999999999997,76.64999999999999 262.15,77.69999999999999 260.4,78.39999999999999 260.4,79.1 258.65,80.5 257.25,80.14999999999999 257.25,79.44999999999999 258.3,78.75 257.59999999999997,78.75 257.25,78.05 258.3,77.0 259.0,78.75 259.34999999999997,78.05 258.3,77.0 256.9,78.39999999999999 257.59999999999997,78.75 256.55,81.89999999999999 255.85,81.55 256.55,79.44999999999999 255.85,79.1 255.85,77.0 256.55,75.94999999999999 256.9,77.0 256.55,77.35 256.55,75.94999999999999 255.85,77.0 256.2,80.5 254.45,82.94999999999999 254.45,84.0 254.45,82.94999999999999 255.14999999999998,82.25 255.49999999999997,83.3 255.85,82.6 256.9,83.3 253.39999999999998,86.1 254.1,85.75 255.14999999999998,86.44999999999999 253.04999999999998,89.25 255.14999999999998,95.19999999999999 254.79999999999998,95.89999999999999 255.49999999999997,96.6 254.1,98.0 254.79999999999998,98.35 254.1,99.39999999999999 255.14999999999998,96.94999999999999 256.2,95.89999999999999 255.49999999999997,96.6 254.79999999999998,95.89999999999999 254.79999999999998,94.5 259.0,93.44999999999999 257.59999999999997,93.44999999999999 257.59999999999997,92.75 256.55,93.1 257.25,93.44999999999999 256.2,93.8 254.1,92.75 254.1,91.35 255.14999999999998,90.64999999999999 254.79999999999998,91.0 254.45,90.3 254.1,91.35 253.04999999999998,89.25 253.74999999999997,88.55 254.1,89.6 253.74999999999997,88.55 255.85,85.75 255.14999999999998,86.44999999999999 254.45,85.75 255.85,84.0 258.3,82.6 263.55,81.19999999999999 263.9,81.55 263.55,81.19999999999999 258.65,82.6 257.25,82.25 257.95,82.6 256.9,83.3 255.49999999999997,82.25 256.55,81.89999999999999 257.59999999999997,80.5 259.0,80.85 258.65,80.5 260.4,79.1 261.09999999999997,79.8 261.09999999999997,79.1 260.75,79.44999999999999 260.4,78.75 262.5,77.69999999999999" stroke="#aaa" stroke-width="1" /><polyline fill="none" points="22.75,200.54999999999998 26.95,199.85 29.749999999999996,200.2 33.949999999999996,202.64999999999998 40.949999999999996,209.29999999999998 43.05,210.0 43.75,211.04999999999998 45.15,219.1 45.5,225.04999999999998 47.949999999999996,237.99999999999997 51.099999999999994,251.29999999999998 55.65,265.3 56.0,268.79999999999995 59.15,279.65 56.0,268.79999999999995 55.65,265.3 51.099999999999994,251.29999999999998 47.949999999999996,237.99999999999997 43.4,210.0 41.3,209.29999999999998 34.3,202.64999999999998 30.799999999999997,200.54999999999998 28.0,199.85" stroke="#aaa" stroke-width="1" /><polyline fill="none" points="16.45,203.7 20.299999999999997,203.35 24.849999999999998,204.39999999999998 33.599999999999994,213.5 35.699999999999996,214.2 33.599999999999994,213.14999999999998 28.7,207.54999999999998 24.849999999999998,204.39999999999998 20.299999999999997,203.35" stroke="#aaa" stroke-width="1" /><polyline fill="none" points="218.04999999999998,206.14999999999998 220.5,207.54999999999998 225.74999999999997,213.14999999999998 227.49999999999997,215.6 229.6,221.89999999999998 229.6,224.7 232.04999999999998,233.79999999999998 232.04999999999998,239.04999999999998 230.99999999999997,244.64999999999998 230.99999999999997,250.6 231.7,253.04999999999998 232.04999999999998,258.65 233.1,261.45 234.14999999999998,268.45 234.49999999999997,277.54999999999995 233.79999999999998,279.65 234.49999999999997,277.54999999999995 234.14999999999998,268.45 233.1,261.45 232.04999999999998,258.65 231.7,253.04999999999998 230.99999999999997,250.6 230.99999999999997,244.64999999999998 232.04999999999998,239.04999999999998 231.7,231.7 229.6,224.7 229.24999999999997,220.5 227.14999999999998,214.89999999999998 224.7,211.39999999999998 220.85,207.54999999999998" stroke="#aaa" stroke-width="1" /><polyline fill="none" points="279.65,64.05 259.34999999999997,64.05 258.65,65.1 259.34999999999997,66.14999999999999 259.34999999999997,66.85 258.65,66.85 258.65,67.89999999999999 259.34999999999997,67.19999999999999 260.05,68.25 258.3,68.94999999999999 259.7,68.94999999999999 258.3,70.69999999999999 259.0,69.64999999999999 259.7,69.64999999999999 260.05,70.35 259.34999999999997,72.44999999999999 258.3,73.5 256.9,72.8 257.95,71.39999999999999 256.9,72.8 257.59999999999997,76.3 257.25,75.6 257.95,74.55 258.3,75.25 259.0,75.25 258.65,75.94999999999999 259.0,74.89999999999999 259.7,74.89999999999999 259.34999999999997,76.64999999999999 259.7,75.94999999999999 279.65,75.94999999999999 260.05,75.94999999999999 259.34999999999997,74.55 260.05,72.1 259.34999999999997,73.85 259.7,74.19999999999999 259.0,74.89999999999999 257.95,74.55 260.05,70.35 260.05,67.55 258.65,65.1 259.7,64.05" stroke="#aaa" stroke-width="1" /><polyline fill="none" points="18.2,202.29999999999998 23.45,201.25 28.0,201.95 38.15,211.04999999999998 40.599999999999994,212.45 42.349999999999994,228.2 44.449999999999996,239.04999999999998 47.25,247.45 49.699999999999996,258.3 51.449999999999996,262.84999999999997 51.8,266.7 54.949999999999996,276.15 55.3,279.65 54.949999999999996,276.15 51.8,266.7 51.449999999999996,262.84999999999997 49.699999999999996,258.3 48.3,251.29999999999998 44.449999999999996,239.04999999999998 42.349999999999994,228.2 40.599999999999994,212.45 28.349999999999998,201.95 23.45,201.25" stroke="#aaa" stroke-width="1" /><polyline fill="none" points="175.0,15.749999999999998 177.45,16.099999999999998 179.2,15.749999999999998 180.6,14.7 181.64999999999998,15.049999999999999 182.0,13.299999999999999 182.7,12.6 183.75,12.6 185.85,11.2 187.25,11.2 188.29999999999998,10.5 191.1,11.2 194.6,11.2 195.29999999999998,10.5 201.6,12.6 203.0,12.6 205.79999999999998,11.2 208.25,12.25 209.64999999999998,12.25 208.6,11.899999999999999 208.95,11.2 209.29999999999998,11.549999999999999 208.95,10.85 208.25,12.25 206.85,11.549999999999999 206.85,10.5 206.5,11.2 204.04999999999998,11.899999999999999 202.64999999999998,10.5 205.45,10.5 202.64999999999998,9.799999999999999 202.64999999999998,10.5 201.6,10.5 202.29999999999998,10.5 203.0,11.2 202.64999999999998,11.549999999999999 200.2,10.85 199.14999999999998,11.2 199.85,10.85 203.7,11.899999999999999 203.0,12.6 198.79999999999998,11.899999999999999 198.1,11.2 195.29999999999998,10.5 194.6,11.2 193.54999999999998,10.5 192.14999999999998,10.85 191.79999999999998,10.149999999999999 189.0,8.75 190.39999999999998,8.399999999999999 188.64999999999998,8.049999999999999 187.95,9.1 188.64999999999998,8.049999999999999 189.0,9.1 190.04999999999998,9.1 191.79999999999998,10.5 191.45,11.2 187.6,10.149999999999999 187.95,10.5 187.25,11.2 185.85,11.2 183.75,12.6 182.0,12.95 181.64999999999998,13.649999999999999 181.29999999999998,12.95 181.64999999999998,13.649999999999999 179.2,15.749999999999998 177.79999999999998,13.649999999999999 178.85,15.049999999999999 178.5,15.749999999999998 175.7,15.749999999999998 175.7,14.0" stroke="#aaa" stroke-width="1" /><polyline fill="none" points="249.89999999999998,44.449999999999996 249.54999999999998,44.8 249.89999999999998,44.449999999999996 250.6,45.15 250.24999999999997,45.849999999999994 251.99999999999997,46.55 250.95,47.25 252.7,47.949999999999996 253.39999999999998,49.0 252.7,49.699999999999996 253.74999999999997,51.449999999999996 253.39999999999998,53.9 254.1,54.599999999999994 254.79999999999998,58.099999999999994 254.1,58.449999999999996 252.7,56.699999999999996 254.1,59.15 254.79999999999998,58.099999999999994 255.14999999999998,58.449999999999996 255.14999999999998,61.24999999999999 256.2,61.949999999999996 256.2,62.99999999999999 256.9,63.349999999999994 256.2,64.39999999999999 256.2,69.64999999999999 256.9,71.05 255.85,71.75 254.79999999999998,71.39999999999999 255.49999999999997,71.75 255.49999999999997,72.8 256.2,73.5 255.85,75.25 256.55,75.25 256.2,72.44999999999999 255.85,73.14999999999999 255.49999999999997,72.1 256.9,71.05 256.2,69.64999999999999 256.2,64.39999999999999 257.25,63.699999999999996 257.95,64.75 257.25,65.8 258.3,64.05 257.95,64.39999999999999 256.9,63.349999999999994 256.9,60.199999999999996 255.14999999999998,58.8 254.1,56.0 255.14999999999998,56.0 256.2,57.4 256.2,58.8 256.9,57.4 256.55,57.74999999999999 253.39999999999998,53.9 254.1,51.8 255.14999999999998,53.199999999999996 254.45,53.9 255.49999999999997,52.849999999999994 255.85,53.55 255.49999999999997,51.449999999999996 256.2,51.099999999999994 255.49999999999997,51.449999999999996 254.45,50.4 254.79999999999998,50.05 252.35,47.599999999999994 251.29999999999998,47.25 252.35,46.55 250.24999999999997,45.5 250.95,44.8 251.99999999999997,44.8 250.6,45.15" stroke="#aaa" stroke-width="1" /><polyline fill="none" points="228.89999999999998,202.29999999999998 232.39999999999998,204.75 235.89999999999998,210.7 235.54999999999998,211.75 234.14999999999998,211.39999999999998 234.14999999999998,212.1 235.54999999999998,213.5 240.79999999999998,223.29999999999998 242.89999999999998,229.24999999999997 243.6,233.79999999999998 243.6,245.35 242.89999999999998,254.79999999999998 243.24999999999997,256.2 242.54999999999998,259.34999999999997 241.85,269.5 240.1,276.15 239.74999999999997,279.65 240.1,276.15 241.85,269.5 242.54999999999998,259.34999999999997 243.24999999999997,256.2 242.89999999999998,254.79999999999998 243.6,245.35 243.6,233.79999999999998 242.89999999999998,229.24999999999997 240.45,222.25 235.54999999999998,213.14999999999998 234.14999999999998,211.75 236.24999999999997,211.75 237.29999999999998,213.85 237.29999999999998,215.25 241.85,222.95 243.95,227.85 244.99999999999997,232.04999999999998 245.7,240.45 244.99999999999997,244.29999999999998 244.64999999999998,254.1 243.95,256.9 243.24999999999997,268.09999999999997 241.49999999999997,275.45 241.14999999999998,279.65 241.49999999999997,275.45 243.6,265.3 243.6,260.4 244.64999999999998,254.1 244.64999999999998,248.85 245.7,239.39999999999998 244.99999999999997,232.04999999999998 243.95,227.85 241.85,223.64999999999998 241.85,222.6 238.35,217.0 237.29999999999998,214.2 237.99999999999997,213.85 244.99999999999997,218.04999999999998 249.89999999999998,224.0 251.29999999999998,227.85 251.64999999999998,227.49999999999997 253.04999999999998,228.89999999999998 256.2,235.2 255.85,235.89999999999998 257.59999999999997,242.2 257.59999999999997,248.49999999999997 255.49999999999997,254.79999999999998 257.59999999999997,248.49999999999997 257.59999999999997,242.2 256.2,235.2 253.04999999999998,228.54999999999998 251.29999999999998,227.14999999999998 249.89999999999998,223.64999999999998 246.74999999999997,219.45 243.95,217.0 237.64999999999998,213.85 236.24999999999997,212.1 235.89999999999998,210.35 232.39999999999998,204.39999999999998" stroke="#aaa" stroke-width="1" /><polyline fill="none" points="11.549999999999999,205.79999999999998 10.85,206.5 15.749999999999998,204.39999999999998 21.349999999999998,205.79999999999998 24.15,207.54999999999998 32.199999999999996,215.6 32.55,223.64999999999998 33.599999999999994,226.79999999999998 33.599999999999994,228.89999999999998 35.349999999999994,232.74999999999997 36.05,237.29999999999998 41.65,257.95 44.099999999999994,270.2 44.8,276.5 45.849999999999994,279.65 44.8,276.5 44.099999999999994,270.2 41.65,257.95 36.05,237.29999999999998 35.349999999999994,232.39999999999998 33.599999999999994,228.89999999999998 33.599999999999994,226.79999999999998 32.55,223.64999999999998 32.199999999999996,215.25 24.5,207.54999999999998 21.7,205.79999999999998 15.749999999999998,204.39999999999998" stroke="#aaa" stroke-width="1" /><polyline fill="none" points="238.7,215.6 241.85,218.04999999999998 246.74999999999997,224.7 248.49999999999997,230.64999999999998 249.89999999999998,232.74999999999997 251.29999999999998,240.1 251.29999999999998,256.2 249.54999999999998,262.84999999999997 251.29999999999998,256.2 251.29999999999998,240.1 249.54999999999998,231.7 249.89999999999998,231.35 250.95,233.1 252.35,237.64999999999998 253.74999999999997,247.45 253.39999999999998,253.04999999999998 252.35,256.2 252.35,257.95 250.95,261.45 252.35,257.95 252.35,256.2 253.39999999999998,253.04999999999998 253.39999999999998,242.89999999999998 250.95,232.74999999999997 249.2,229.95 248.14999999999998,226.1 248.49999999999997,225.74999999999997 249.2,226.45 249.2,227.14999999999998 251.64999999999998,230.64999999999998 251.64999999999998,231.7 253.04999999999998,233.79999999999998 255.49999999999997,240.1 255.85,251.29999999999998 254.79999999999998,254.79999999999998 255.85,251.29999999999998 255.49999999999997,239.74999999999997 254.45,238.35 252.7,232.74999999999997 249.2,226.79999999999998 247.1,221.89999999999998 248.49999999999997,225.74999999999997 247.79999999999998,225.74999999999997 249.89999999999998,230.99999999999997 249.54999999999998,231.7 248.49999999999997,230.29999999999998 246.39999999999998,224.35 246.74999999999997,222.95 244.64999999999998,219.45 242.54999999999998,217.35 246.74999999999997,222.95 246.39999999999998,224.0 241.14999999999998,217.0" stroke="#aaa" stroke-width="1" /><polyline fill="none" points="3.8499999999999996,209.64999999999998 1.75,210.7 2.4499999999999997,210.7 4.8999999999999995,209.29999999999998 7.699999999999999,208.6 11.899999999999999,209.29999999999998 18.9,212.45 22.75,215.25 24.15,217.0 24.5,221.89999999999998 25.549999999999997,224.35 25.549999999999997,226.1 26.25,227.14999999999998 28.349999999999998,236.24999999999997 29.049999999999997,242.2 33.25,261.45 36.05,279.65 33.25,261.45 29.049999999999997,242.2 28.349999999999998,236.24999999999997 26.25,227.14999999999998 25.549999999999997,226.1 25.549999999999997,224.35 24.5,221.89999999999998 24.5,216.29999999999998 19.25,212.45 11.899999999999999,209.29999999999998 7.699999999999999,208.6" stroke="#aaa" stroke-width="1" /><polyline fill="none" points="210.0,11.549999999999999 211.39999999999998,11.899999999999999 211.75,11.549999999999999 210.7,10.85 211.39999999999998,10.149999999999999 212.45,10.85 212.79999999999998,8.049999999999999 213.14999999999998,11.2 214.54999999999998,10.149999999999999 213.5,11.2 213.14999999999998,9.45 215.25,9.1 213.5,9.1 213.14999999999998,8.399999999999999 214.54999999999998,8.049999999999999 211.75,8.399999999999999 211.04999999999998,9.45 210.35,8.049999999999999 211.04999999999998,7.35 212.1,7.35 210.7,7.35 210.7,9.45 210.0,9.799999999999999 210.7,9.45 211.39999999999998,10.149999999999999 210.35,10.85 211.39999999999998,11.549999999999999" stroke="#aaa" stroke-width="1" /><polyline fill="none" points="210.0,12.95 211.04999999999998,14.0 213.5,13.299999999999999 213.85,13.649999999999999 215.25,10.5 216.64999999999998,9.1 218.75,10.149999999999999 217.35,11.549999999999999 218.75,10.149999999999999 220.14999999999998,9.799999999999999 226.1,13.649999999999999 225.39999999999998,14.35 224.35,13.649999999999999 223.64999999999998,15.049999999999999 225.04999999999998,15.749999999999998 225.74999999999997,15.399999999999999 226.79999999999998,16.45 226.79999999999998,17.849999999999998 226.79999999999998,16.099999999999998 225.74999999999997,15.399999999999999 226.45,15.049999999999999 230.99999999999997,18.2 230.99999999999997,18.9 229.24999999999997,20.299999999999997 230.29999999999998,19.95 231.35,18.2 232.74999999999997,18.9 227.14999999999998,15.399999999999999 227.85,14.7 235.2,19.25 235.2,19.95 234.14999999999998,19.95 233.45,19.25 234.14999999999998,19.95 235.54999999999998,19.599999999999998 240.1,22.4 241.14999999999998,23.45 241.14999999999998,24.15 236.6,28.7 235.54999999999998,27.299999999999997 234.85,27.65 235.2,27.299999999999997 236.95,29.049999999999997 239.74999999999997,34.3 241.14999999999998,35.699999999999996 241.85,35.699999999999996 243.6,37.8 244.64999999999998,37.8 244.64999999999998,39.199999999999996 245.7,39.55 244.29999999999998,38.15 246.04999999999998,37.8 246.74999999999997,37.099999999999994 247.1,38.5 246.39999999999998,39.199999999999996 248.49999999999997,38.5 248.85,38.849999999999994 248.14999999999998,39.55 248.85,39.9 248.49999999999997,39.199999999999996 249.2,38.849999999999994 250.24999999999997,39.55 250.24999999999997,40.599999999999994 249.89999999999998,39.199999999999996 247.1,38.15 247.45,37.099999999999994 249.54999999999998,36.4 248.49999999999997,37.099999999999994 245.35,36.75 246.39999999999998,36.05 244.99999999999997,36.05 245.35,35.699999999999996 244.29999999999998,33.25 244.99999999999997,32.55 243.95,33.599999999999994 244.29999999999998,33.25 244.99999999999997,34.3 244.99999999999997,36.05 246.04999999999998,37.449999999999996 245.7,37.8 243.95,37.449999999999996 239.74999999999997,33.949999999999996 238.35,31.849999999999998 239.04999999999998,31.15 240.45,33.599999999999994 240.45,32.9 239.39999999999998,32.199999999999996 239.04999999999998,30.45 237.64999999999998,29.049999999999997 240.45,28.7 237.64999999999998,29.049999999999997 239.04999999999998,30.799999999999997 238.35,31.849999999999998 236.95,28.7 241.14999999999998,24.5 240.79999999999998,22.75 222.95,11.2 223.29999999999998,10.5 222.6,9.45 225.04999999999998,9.45 225.74999999999997,10.149999999999999 225.04999999999998,10.85 225.74999999999997,11.899999999999999 226.1,11.2 227.49999999999997,13.299999999999999 225.04999999999998,9.1 224.0,8.75 225.04999999999998,9.45 224.7,9.799999999999999 222.6,9.1 223.29999999999998,10.85 222.95,11.2 221.89999999999998,10.85 222.25,10.149999999999999 219.1,10.149999999999999 216.64999999999998,9.1 215.25,10.149999999999999 214.54999999999998,12.25 213.5,13.299999999999999 213.5,11.899999999999999 211.39999999999998,12.95 212.1,12.25 213.14999999999998,12.95 212.1,14.0" stroke="#aaa" stroke-width="1" /><polyline fill="none" points="0.0,213.14999999999998 2.4499999999999997,213.14999999999998 6.3,214.54999999999998 16.099999999999998,219.79999999999998 15.399999999999999,220.5 15.399999999999999,222.6 18.549999999999997,229.6 19.95,234.49999999999997 20.299999999999997,238.35 22.4,245.35 27.299999999999997,279.65 22.4,245.35 20.299999999999997,238.35 19.95,234.49999999999997 18.549999999999997,229.6 15.399999999999999,222.6 15.399999999999999,220.85 16.099999999999998,219.45 4.8999999999999995,213.85" stroke="#aaa" stroke-width="1" /><polyline fill="none" points="10.5,222.6 10.149999999999999,224.35 11.2,225.74999999999997 11.2,226.79999999999998 17.15,237.99999999999997 17.15,239.04999999999998 22.4,250.24999999999997 25.549999999999997,273.34999999999997 22.4,250.24999999999997 16.099999999999998,235.54999999999998 11.2,226.45 11.2,225.39999999999998 10.149999999999999,224.35" stroke="#aaa" stroke-width="1" /><polyline fill="none" points="0.0,220.5 5.25,223.29999999999998 8.399999999999999,224.0 4.55,228.54999999999998 2.4499999999999997,227.49999999999997 1.75,227.85 0.0,227.14999999999998 3.8499999999999996,228.2 4.55,228.89999999999998 3.5,230.29999999999998 3.5,231.7 5.6,234.85 5.949999999999999,236.95 7.0,237.99999999999997 14.0,253.39999999999998 18.2,261.09999999999997 20.299999999999997,267.4 24.15,275.45 25.2,279.65 23.799999999999997,274.4 20.299999999999997,267.4 17.5,259.34999999999997 11.899999999999999,248.85 11.549999999999999,247.1 7.0,237.64999999999998 5.6,235.89999999999998 5.6,234.49999999999997 3.5,231.35 3.5,230.64999999999998 4.55,229.6 4.55,228.54999999999998 7.0,225.74999999999997 16.099999999999998,243.24999999999997 17.15,246.39999999999998 18.2,247.45 19.25,250.6 21.0,253.39999999999998 22.4,257.95 21.0,253.04999999999998 7.0,225.74999999999997 9.45,222.6 8.399999999999999,224.0 6.3,223.64999999999998" stroke="#aaa" stroke-width="1" /><polyline fill="none" points="2.8,228.89999999999998 1.0499999999999998,230.99999999999997 0.0,230.99999999999997 2.0999999999999996,231.7 0.35,233.45 22.75,279.65 12.6,257.59999999999997 7.35,247.79999999999998 7.35,246.74999999999997 6.3,245.7 2.8,237.64999999999998 0.35,233.45 2.0999999999999996,232.04999999999998 2.0999999999999996,231.35 1.0499999999999998,230.99999999999997" stroke="#aaa" stroke-width="1" /><polyline fill="none" points="0.0,244.29999999999998 0.35,247.1 2.8,251.29999999999998 9.799999999999999,267.05 16.099999999999998,279.65 2.0999999999999996,249.54999999999998 0.35,246.74999999999997" stroke="#aaa" stroke-width="1" /><polyline fill="none" points="0.0,251.99999999999997 8.049999999999999,271.95 11.899999999999999,279.65 9.1,273.0 7.35,270.2 6.6499999999999995,267.4 5.6,266.0 5.6,264.95 3.8499999999999996,261.45 3.8499999999999996,260.4 1.75,256.9 1.75,255.85 0.7,254.45" stroke="#aaa" stroke-width="1" /></svg>