<?xml version="1.0" encoding="utf-8" ?>
<svg baseProfile="full" height="224" version="1.1" width="224" xmlns="http://www.w3.org/2000/svg" xmlns:ev="http://www.w3.org/2001/xml-events" xmlns:xlink="http://www.w3.org/1999/xlink"><defs /><polyline fill="none" points="88.55,189.35" stroke="#aaa" stroke-width="1" /><polyline fill="none" points="168.7,107.1" stroke="#aaa" stroke-width="1" /><polyline fill="none" points="157.85,135.79999999999998 155.75,142.79999999999998 147.7,145.6 140.35,144.54999999999998 129.5,137.2 100.1,142.1 96.25,137.2 99.75,142.1 129.15,137.2 131.95,140.7 140.0,144.54999999999998 149.1,144.89999999999998 148.75,146.64999999999998 156.79999999999998,142.1" stroke="#aaa" stroke-width="1" /><polyline fill="none" points="141.75,125.64999999999999 141.39999999999998,129.5" stroke="#aaa" stroke-width="1" /><polyline fill="none" points="131.6,151.54999999999998 143.5,154.7 150.5,153.29999999999998 143.5,154.7" stroke="#aaa" stroke-width="1" /><polyline fill="none" points="155.04999999999998,103.25" stroke="#aaa" stroke-width="1" /><polyline fill="none" points="133.7,124.24999999999999 128.79999999999998,125.99999999999999 126.35,130.54999999999998 133.7,126.35 128.79999999999998,128.45 129.15,125.99999999999999" stroke="#aaa" stroke-width="1" /><polyline fill="none" points="56.699999999999996,199.14999999999998" stroke="#aaa" stroke-width="1" /><polyline fill="none" points="152.6,127.39999999999999 155.75,132.29999999999998" stroke="#aaa" stroke-width="1" /><polyline fill="none" points="151.54999999999998,121.44999999999999 149.45,128.79999999999998 150.85,123.19999999999999 159.25,132.29999999999998" stroke="#aaa" stroke-width="1" /><polyline fill="none" points="56.0,197.04999999999998" stroke="#aaa" stroke-width="1" /><polyline fill="none" points="62.99999999999999,186.54999999999998" stroke="#aaa" stroke-width="1" /><polyline fill="none" points="117.6,163.45 119.35,167.29999999999998 118.64999999999999,164.14999999999998 123.19999999999999,159.95 162.75,163.45 138.95,159.95 123.19999999999999,159.95" stroke="#aaa" stroke-width="1" /><polyline fill="none" points="163.1,138.25 170.79999999999998,139.64999999999998" stroke="#aaa" stroke-width="1" /><polyline fill="none" points="96.94999999999999,123.89999999999999 107.1,131.25 102.55,131.25 110.25,133.35 123.19999999999999,132.29999999999998 127.39999999999999,128.1 127.05,126.35 123.19999999999999,129.5 114.1,130.9 101.14999999999999,125.99999999999999 114.1,130.9 127.05,127.39999999999999 121.1,131.6 114.44999999999999,132.29999999999998 123.89999999999999,130.2 122.85,132.29999999999998 110.25,133.35 104.64999999999999,131.25 113.74999999999999,132.29999999999998 103.6,129.85" stroke="#aaa" stroke-width="1" /><polyline fill="none" points="157.5,128.1 166.95,133.35 179.2,133.35 166.95,133.35" stroke="#aaa" stroke-width="1" /><polyline fill="none" points="152.95,108.5 150.14999999999998,111.64999999999999 151.54999999999998,112.69999999999999 148.04999999999998,113.74999999999999 151.2,113.39999999999999" stroke="#aaa" stroke-width="1" /><polyline fill="none" points="166.95,134.04999999999998 179.2,134.04999999999998" stroke="#aaa" stroke-width="1" /><polyline fill="none" points="182.0,98.35 178.14999999999998,97.64999999999999 181.64999999999998,98.35 181.29999999999998,100.8 173.6,99.05 175.0,97.64999999999999 160.29999999999998,99.05 155.39999999999998,101.85 154.0,105.69999999999999 151.54999999999998,105.0 151.2,108.5 148.39999999999998,103.94999999999999 154.35,102.89999999999999 150.5,104.3 147.35,101.5 146.29999999999998,107.8 144.54999999999998,104.64999999999999 146.29999999999998,102.89999999999999 142.79999999999998,104.3 144.54999999999998,102.89999999999999 142.1,102.89999999999999 143.85,102.19999999999999 142.45,100.1 142.79999999999998,109.55 140.35,104.3 136.85,103.25 138.95,105.35 137.54999999999998,107.44999999999999 135.79999999999998,103.6 137.2,107.44999999999999 140.0,104.3 142.45,107.8 140.35,108.85 142.79999999999998,109.89999999999999 136.14999999999998,111.64999999999999 136.85,108.14999999999999 129.85,101.85 134.04999999999998,103.6 134.04999999999998,106.75 134.39999999999998,102.19999999999999 132.29999999999998,103.6 129.85,100.8 132.65,108.85 126.35,108.5 125.3,106.75 127.74999999999999,106.39999999999999 124.6,105.69999999999999 128.79999999999998,109.19999999999999 134.04999999999998,107.8 137.89999999999998,114.8 135.45,122.49999999999999 137.54999999999998,112.69999999999999 138.95,114.44999999999999 136.14999999999998,111.64999999999999 142.79999999999998,110.6 143.14999999999998,143.14999999999998 142.79999999999998,110.6 143.5,116.89999999999999 143.5,110.6 148.39999999999998,112.69999999999999 158.2,101.14999999999999 169.39999999999998,98.69999999999999 181.29999999999998,100.8" stroke="#aaa" stroke-width="1" /><polyline fill="none" points="134.75,175.35 145.95,175.0" stroke="#aaa" stroke-width="1" /><polyline fill="none" points="123.55,105.0 118.64999999999999,106.75 115.14999999999999,104.64999999999999 118.3,106.75 115.49999999999999,105.35 117.6,107.44999999999999 113.05,110.25 118.99999999999999,109.89999999999999 119.35,108.14999999999999 116.19999999999999,109.55 119.35,107.1 122.14999999999999,110.25 120.74999999999999,105.35" stroke="#aaa" stroke-width="1" /><polyline fill="none" points="167.64999999999998,107.1 164.85,105.0 159.95,107.1 161.0,108.5 155.39999999999998,107.1 161.0,108.5 164.5,105.0" stroke="#aaa" stroke-width="1" /><polyline fill="none" points="170.1,110.6 166.6,108.5 163.1,110.25" stroke="#aaa" stroke-width="1" /><polyline fill="none" points="123.89999999999999,103.94999999999999 116.19999999999999,102.89999999999999 106.75,106.75 116.19999999999999,102.89999999999999" stroke="#aaa" stroke-width="1" /><polyline fill="none" points="170.79999999999998,105.69999999999999 168.35,108.85 172.2,110.94999999999999 169.39999999999998,108.14999999999999" stroke="#aaa" stroke-width="1" /><polyline fill="none" points="191.1,117.24999999999999 189.0,123.89999999999999 182.35,130.54999999999998 175.7,132.65 164.5,130.54999999999998 179.2,131.95 189.0,124.24999999999999 180.25,132.65 185.14999999999998,131.6 183.75,133.35 168.7,135.1 178.5,135.1 186.54999999999998,131.6 189.7,128.1 185.85,131.95 187.25,129.15 180.95,132.65 189.7,125.3" stroke="#aaa" stroke-width="1" /><polyline fill="none" points="123.55,101.85 116.55,100.44999999999999 108.14999999999999,103.25 116.55,100.44999999999999" stroke="#aaa" stroke-width="1" /><polyline fill="none" points="162.39999999999998,104.3 174.64999999999998,105.35" stroke="#aaa" stroke-width="1" /><polyline fill="none" points="164.14999999999998,102.55 171.14999999999998,102.89999999999999" stroke="#aaa" stroke-width="1" /><polyline fill="none" points="86.8,131.6 87.5,141.75" stroke="#aaa" stroke-width="1" /><polyline fill="none" points="92.75,112.69999999999999 93.8,116.19999999999999" stroke="#aaa" stroke-width="1" /><polyline fill="none" points="107.1,94.5 114.8,95.19999999999999" stroke="#aaa" stroke-width="1" /><polyline fill="none" points="176.39999999999998,95.55 171.14999999999998,94.5 161.7,97.3 171.14999999999998,94.5" stroke="#aaa" stroke-width="1" /><polyline fill="none" points="79.44999999999999,131.6 82.6,141.04999999999998 89.94999999999999,150.14999999999998 89.25,154.0 89.94999999999999,150.14999999999998 82.94999999999999,141.39999999999998" stroke="#aaa" stroke-width="1" /><polyline fill="none" points="86.8,127.39999999999999 84.35,130.2 85.75,136.5 84.35,130.2 86.1,128.45 87.85,131.25" stroke="#aaa" stroke-width="1" /><polyline fill="none" points="116.19999999999999,87.85 125.99999999999999,86.8" stroke="#aaa" stroke-width="1" /><polyline fill="none" points="88.19999999999999,150.85 82.6,149.79999999999998 77.69999999999999,158.89999999999998 84.69999999999999,148.75 87.85,150.85 81.55,156.79999999999998" stroke="#aaa" stroke-width="1" /><polyline fill="none" points="80.85,98.69999999999999 86.8,104.64999999999999 89.94999999999999,103.6 91.0,112.69999999999999 92.75,112.0 91.35,106.75 93.44999999999999,105.69999999999999 93.8,108.85 93.44999999999999,103.25 95.89999999999999,103.25 96.6,107.44999999999999 95.19999999999999,104.3 98.69999999999999,102.89999999999999 94.85,102.19999999999999 94.5,99.75 98.0,101.5 102.19999999999999,96.6 102.55,98.69999999999999 123.19999999999999,97.3 129.15,102.55 125.64999999999999,97.64999999999999 107.8,92.75 116.19999999999999,94.14999999999999 118.99999999999999,97.3 111.64999999999999,95.55 99.05,96.94999999999999 98.0,99.39999999999999 96.94999999999999,97.3 88.55,99.05 94.85,93.8 88.19999999999999,98.0 92.75,98.69999999999999 90.3,99.75 92.75,104.3 91.35,106.75 88.55,101.85 87.5,103.6 86.1,101.85 88.19999999999999,101.14999999999999 87.5,91.0 88.19999999999999,101.14999999999999 86.44999999999999,98.69999999999999" stroke="#aaa" stroke-width="1" /><polyline fill="none" points="78.05,118.3 84.0,129.5 82.25,128.45 84.69999999999999,124.24999999999999 85.39999999999999,127.05 84.35,121.8 82.25,128.1" stroke="#aaa" stroke-width="1" /><polyline fill="none" points="192.14999999999998,114.44999999999999 194.95,116.55" stroke="#aaa" stroke-width="1" /><polyline fill="none" points="76.3,171.85 89.94999999999999,163.45 94.5,173.95 89.94999999999999,163.45 86.1,167.29999999999998 82.25,167.29999999999998 85.75,163.45 86.44999999999999,165.2 87.85,160.29999999999998 85.39999999999999,158.89999999999998 81.19999999999999,161.7 84.0,159.25 87.5,161.7" stroke="#aaa" stroke-width="1" /><polyline fill="none" points="123.19999999999999,80.5 125.3,82.94999999999999" stroke="#aaa" stroke-width="1" /><polyline fill="none" points="94.5,174.64999999999998 90.3,176.75 93.1,175.0 90.64999999999999,173.95 88.19999999999999,177.45 90.3,178.14999999999998 86.8,178.5 85.39999999999999,183.04999999999998 91.69999999999999,175.7 93.8,177.1 91.0,178.5 94.14999999999999,177.1 95.19999999999999,179.2" stroke="#aaa" stroke-width="1" /><polyline fill="none" points="116.19999999999999,86.8 111.64999999999999,87.5 113.74999999999999,85.05 101.85,86.8 96.6,91.69999999999999 101.85,87.85" stroke="#aaa" stroke-width="1" /><polyline fill="none" points="89.6,180.25 93.44999999999999,180.6" stroke="#aaa" stroke-width="1" /><polyline fill="none" points="86.44999999999999,184.1 94.85,181.64999999999998 96.6,185.5 92.39999999999999,186.2 96.94999999999999,186.54999999999998 95.19999999999999,181.64999999999998 89.94999999999999,181.29999999999998 92.05,180.25" stroke="#aaa" stroke-width="1" /><polyline fill="none" points="78.05,138.6 73.85,147.0" stroke="#aaa" stroke-width="1" /><polyline fill="none" points="74.19999999999999,117.6 80.85,131.6" stroke="#aaa" stroke-width="1" /><polyline fill="none" points="72.8,107.8 84.0,133.7 77.35,119.69999999999999 77.69999999999999,117.24999999999999 81.55,116.89999999999999 77.0,117.24999999999999" stroke="#aaa" stroke-width="1" /><polyline fill="none" points="74.89999999999999,159.95 77.69999999999999,163.45 80.5,161.7 79.44999999999999,160.29999999999998 78.05,163.45" stroke="#aaa" stroke-width="1" /><polyline fill="none" points="203.7,101.85 199.14999999999998,106.75 196.35,102.89999999999999 197.75,107.44999999999999 196.0,109.55 191.79999999999998,101.5 197.39999999999998,101.85 200.2,105.0 198.45,102.55 201.95,98.35 200.2,102.19999999999999 183.39999999999998,99.05 184.1,101.85 189.7,103.6 194.95,114.8 193.54999999999998,110.6 195.29999999999998,110.25 194.95,113.05 197.04999999999998,106.05 200.2,106.39999999999999" stroke="#aaa" stroke-width="1" /><polyline fill="none" points="96.94999999999999,187.95 96.25,191.1" stroke="#aaa" stroke-width="1" /><polyline fill="none" points="197.04999999999998,147.0 195.64999999999998,154.0 206.5,163.1 204.39999999999998,165.54999999999998 207.89999999999998,165.2 213.85,174.64999999999998 206.5,162.75 196.0,153.64999999999998" stroke="#aaa" stroke-width="1" /><polyline fill="none" points="77.0,114.8 79.1,113.74999999999999" stroke="#aaa" stroke-width="1" /><polyline fill="none" points="82.6,170.79999999999998 78.75,176.04999999999998" stroke="#aaa" stroke-width="1" /><polyline fill="none" points="141.04999999999998,71.05 142.45,72.1" stroke="#aaa" stroke-width="1" /><polyline fill="none" points="133.0,71.05 136.5,72.44999999999999" stroke="#aaa" stroke-width="1" /><polyline fill="none" points="84.69999999999999,192.14999999999998 94.85,191.1 90.64999999999999,189.7 93.44999999999999,187.25 96.25,189.7 87.14999999999999,186.54999999999998 86.1,188.64999999999998 90.64999999999999,187.25 90.3,190.04999999999998 94.5,190.75" stroke="#aaa" stroke-width="1" /><polyline fill="none" points="70.35,128.79999999999998 70.35,131.95" stroke="#aaa" stroke-width="1" /><polyline fill="none" points="74.55,161.0 70.0,167.29999999999998" stroke="#aaa" stroke-width="1" /><polyline fill="none" points="73.5,170.1 75.25,172.89999999999998 76.3,170.45" stroke="#aaa" stroke-width="1" /><polyline fill="none" points="73.5,101.14999999999999 75.25,103.6 72.8,105.69999999999999 73.5,103.6 78.75,105.69999999999999 81.55,104.3 76.64999999999999,99.05 81.55,103.25 80.14999999999999,105.69999999999999" stroke="#aaa" stroke-width="1" /><polyline fill="none" points="90.3,191.79999999999998 87.5,192.85 87.85,195.29999999999998 91.35,194.25" stroke="#aaa" stroke-width="1" /><polyline fill="none" points="97.3,193.89999999999998 94.14999999999999,200.2 95.55,203.35 94.5,199.5" stroke="#aaa" stroke-width="1" /><polyline fill="none" points="75.25,162.75 71.05,166.6 70.35,172.89999999999998 69.64999999999999,161.0 65.8,163.45 69.64999999999999,161.35 68.6,173.25 72.1,171.14999999999998 70.35,168.35" stroke="#aaa" stroke-width="1" /><polyline fill="none" points="69.3,174.64999999999998 70.35,177.45 70.69999999999999,174.64999999999998 73.85,174.29999999999998 71.75,175.35 73.14999999999999,178.5 70.69999999999999,178.85 71.05,181.64999999999998 74.55,180.95 72.1,184.1 74.89999999999999,180.95 73.14999999999999,178.5 76.3,178.5 77.69999999999999,181.64999999999998 78.75,179.54999999999998 79.8,182.35 78.75,180.6 81.89999999999999,179.2 80.5,176.39999999999998 79.1,179.89999999999998 75.6,176.39999999999998 72.44999999999999,177.1 77.69999999999999,174.29999999999998 72.44999999999999,176.75 72.8,173.6 70.35,177.1" stroke="#aaa" stroke-width="1" /><polyline fill="none" points="71.39999999999999,106.05 72.1,107.8" stroke="#aaa" stroke-width="1" /><polyline fill="none" points="98.69999999999999,202.64999999999998 99.75,206.85 101.14999999999999,204.39999999999998 99.05,205.79999999999998" stroke="#aaa" stroke-width="1" /><polyline fill="none" points="130.9,60.9 137.89999999999998,62.99999999999999" stroke="#aaa" stroke-width="1" /><polyline fill="none" points="145.95,62.3 136.85,61.949999999999996 140.7,59.15 133.7,60.9" stroke="#aaa" stroke-width="1" /><polyline fill="none" points="145.25,60.199999999999996 137.54999999999998,61.24999999999999" stroke="#aaa" stroke-width="1" /><polyline fill="none" points="69.64999999999999,93.44999999999999 75.25,96.25 73.5,99.39999999999999 75.25,95.89999999999999" stroke="#aaa" stroke-width="1" /><polyline fill="none" points="97.3,201.95 97.64999999999999,220.5 96.25,206.14999999999998 99.05,206.85" stroke="#aaa" stroke-width="1" /><polyline fill="none" points="99.39999999999999,208.6 100.44999999999999,213.5 98.69999999999999,209.64999999999998 101.5,210.35 100.8,212.45 102.19999999999999,211.04999999999998" stroke="#aaa" stroke-width="1" /><polyline fill="none" points="191.45,194.95 183.04999999999998,208.25 180.95,221.54999999999998 183.04999999999998,208.6" stroke="#aaa" stroke-width="1" /><polyline fill="none" points="120.39999999999999,58.099999999999994 124.24999999999999,61.24999999999999 123.19999999999999,58.8 125.64999999999999,57.74999999999999 126.35,61.599999999999994 129.5,62.3 125.3,56.699999999999996" stroke="#aaa" stroke-width="1" /><polyline fill="none" points="145.25,59.15 153.64999999999998,58.449999999999996 145.95,59.49999999999999 146.64999999999998,56.699999999999996" stroke="#aaa" stroke-width="1" /><polyline fill="none" points="70.0,178.85 69.3,182.35 66.85,180.95 70.69999999999999,184.45" stroke="#aaa" stroke-width="1" /><polyline fill="none" points="189.7,200.89999999999998 195.29999999999998,206.85 192.85,201.6" stroke="#aaa" stroke-width="1" /><polyline fill="none" points="62.99999999999999,146.64999999999998 62.99999999999999,151.54999999999998 57.74999999999999,154.35 57.4,159.6 54.25,162.39999999999998 57.05,159.95 57.4,161.7 57.74999999999999,154.7 63.349999999999994,151.89999999999998" stroke="#aaa" stroke-width="1" /><polyline fill="none" points="126.69999999999999,57.74999999999999 129.5,58.8" stroke="#aaa" stroke-width="1" /><polyline fill="none" points="208.6,57.4 206.14999999999998,58.8 206.5,61.949999999999996 205.1,60.9 208.25,64.75 205.1,78.05 204.75,97.64999999999999 211.04999999999998,104.3 212.45,113.39999999999999 201.6,138.25 207.89999999999998,126.69999999999999 213.14999999999998,130.9 207.54999999999998,126.35 212.45,115.85 211.04999999999998,102.19999999999999 205.79999999999998,100.44999999999999 205.1,83.64999999999999 206.85,84.0 205.1,78.05 208.95,63.349999999999994 206.5,63.349999999999994" stroke="#aaa" stroke-width="1" /><polyline fill="none" points="59.15,164.5 61.599999999999994,170.45 58.8,165.54999999999998 61.599999999999994,165.54999999999998 60.9,168.7 61.599999999999994,165.54999999999998" stroke="#aaa" stroke-width="1" /><polyline fill="none" points="73.14999999999999,89.25 70.69999999999999,92.75" stroke="#aaa" stroke-width="1" /><polyline fill="none" points="60.199999999999996,170.45 59.49999999999999,172.2 63.699999999999996,173.25 62.3,175.0 65.1,176.04999999999998 66.85,183.04999999999998 62.99999999999999,170.79999999999998" stroke="#aaa" stroke-width="1" /><polyline fill="none" points="103.94999999999999,210.7 105.69999999999999,217.0 101.85,220.85 101.85,213.5 102.19999999999999,221.2 105.69999999999999,217.35" stroke="#aaa" stroke-width="1" /><polyline fill="none" points="201.95,192.85 205.1,200.54999999999998" stroke="#aaa" stroke-width="1" /><polyline fill="none" points="71.75,84.0 74.89999999999999,84.69999999999999 74.19999999999999,82.6" stroke="#aaa" stroke-width="1" /><polyline fill="none" points="204.39999999999998,191.45 207.2,203.0" stroke="#aaa" stroke-width="1" /><polyline fill="none" points="107.1,219.1 106.39999999999999,223.29999999999998 110.94999999999999,225.04999999999998 112.0,221.2 109.55,225.39999999999998 106.39999999999999,220.14999999999998 111.64999999999999,220.14999999999998" stroke="#aaa" stroke-width="1" /></svg>