<?xml version="1.0" encoding="utf-8" ?>
<svg baseProfile="full" height="224" version="1.1" width="224" xmlns="http://www.w3.org/2000/svg" xmlns:ev="http://www.w3.org/2001/xml-events" xmlns:xlink="http://www.w3.org/1999/xlink"><defs /><polyline fill="none" points="118.99999999999999,99.39999999999999 114.44999999999999,96.25 118.64999999999999,99.39999999999999 118.64999999999999,100.1 117.6,101.14999999999999 117.6,101.85 118.3,100.44999999999999 118.64999999999999,102.19999999999999 115.85,105.0 111.3,108.5 107.8,110.25 102.89999999999999,111.64999999999999 97.3,112.0 89.94999999999999,110.6 84.35,108.14999999999999 77.35,103.94999999999999 70.0,97.3 73.85,101.5 77.0,103.94999999999999 84.0,108.14999999999999 87.85,109.89999999999999 88.89999999999999,109.89999999999999 89.6,110.6 97.3,112.0 102.89999999999999,111.64999999999999 111.64999999999999,108.5 118.3,102.89999999999999 118.3,99.75" stroke="#aaa" stroke-width="1" /><polyline fill="none" points="109.89999999999999,117.94999999999999 110.6,117.24999999999999 117.24999999999999,124.94999999999999 120.05,123.55 124.24999999999999,118.64999999999999 126.69999999999999,117.24999999999999 131.6,112.35 132.65,112.35 136.85,116.55 141.75,123.19999999999999 143.85,124.6 144.89999999999998,124.6 148.75,121.8 149.45,120.05 149.1,118.64999999999999 149.1,121.1 144.2,124.6 141.75,122.85 136.85,116.19999999999999 133.0,112.35 131.6,112.35 129.85,113.39999999999999 126.35,117.24999999999999 124.6,117.94999999999999 119.69999999999999,123.55 117.94999999999999,124.6 116.55,123.89999999999999 110.6,117.24999999999999 112.0,115.85 117.94999999999999,113.05 124.6,107.1 125.3,105.0 127.05,102.55 124.6,106.75 121.1,110.25 117.6,113.05 111.3,116.19999999999999" stroke="#aaa" stroke-width="1" /><polyline fill="none" points="105.0,125.99999999999999 105.0,126.69999999999999 106.05,125.64999999999999 108.14999999999999,128.45 109.19999999999999,128.79999999999998 110.6,130.2 110.6,130.9 111.64999999999999,131.25 116.19999999999999,136.14999999999998 112.0,131.25 111.3,131.25 109.55,128.79999999999998 108.14999999999999,128.1 106.39999999999999,125.64999999999999" stroke="#aaa" stroke-width="1" /><polyline fill="none" points="103.94999999999999,127.39999999999999 102.55,128.79999999999998 101.85,130.54999999999998 97.64999999999999,135.1 96.6,137.54999999999998 95.19999999999999,138.6 93.8,141.39999999999998 95.19999999999999,138.95 96.6,137.89999999999998 97.64999999999999,135.45 101.85,130.9" stroke="#aaa" stroke-width="1" /><polyline fill="none" points="70.69999999999999,44.449999999999996 70.0,45.849999999999994 71.75,68.94999999999999 82.25,68.25 98.0,65.8 99.05,64.75 98.69999999999999,61.949999999999996 99.39999999999999,61.24999999999999 101.14999999999999,61.949999999999996 104.3,61.949999999999996 105.35,61.24999999999999 107.44999999999999,61.949999999999996 108.14999999999999,61.599999999999994 109.19999999999999,63.349999999999994 109.89999999999999,66.5 116.55,65.1 117.24999999999999,68.25 117.24999999999999,64.75 120.05,64.05 121.44999999999999,64.75 121.8,71.05 120.74999999999999,75.25 117.6,80.85 113.05,87.14999999999999 114.1,95.55 119.69999999999999,95.89999999999999 124.24999999999999,98.69999999999999 138.6,102.89999999999999 143.85,105.35 158.54999999999998,110.25 165.2,114.8 172.2,121.8 175.7,128.45 177.1,133.0 180.25,138.95 183.75,147.35 185.5,153.64999999999998 185.14999999999998,154.0 184.79999999999998,153.29999999999998 184.79999999999998,154.0 185.85,154.35 187.25,157.5 191.79999999999998,172.54999999999998 192.14999999999998,158.89999999999998 191.1,140.35 191.45,126.35 191.1,140.35 192.14999999999998,158.89999999999998 191.79999999999998,171.5 183.75,147.35 176.75,131.95 174.64999999999998,125.99999999999999 172.2,121.44999999999999 165.54999999999998,114.8 160.29999999999998,110.94999999999999 156.45,109.89999999999999 151.2,107.44999999999999 147.0,106.39999999999999 138.6,102.89999999999999 125.3,99.05 120.74999999999999,96.25 114.1,95.19999999999999 113.05,88.19999999999999 113.74999999999999,86.1 117.6,81.19999999999999 120.74999999999999,75.25 121.8,71.05 121.1,64.05 117.94999999999999,64.39999999999999 116.89999999999999,65.1 112.35,66.14999999999999 109.89999999999999,66.14999999999999 108.5,61.599999999999994 105.35,61.24999999999999 104.3,61.949999999999996 99.75,61.599999999999994 99.39999999999999,60.9 100.44999999999999,60.9 99.39999999999999,60.55 98.69999999999999,61.599999999999994 99.05,64.75 98.0,65.8 82.25,68.25 72.1,68.94999999999999 71.39999999999999,68.25 70.0,45.849999999999994 71.39999999999999,44.099999999999994 74.19999999999999,43.4 76.3,42.0 77.69999999999999,42.349999999999994 79.8,41.65 80.14999999999999,40.949999999999996 77.69999999999999,42.349999999999994 76.3,42.0" stroke="#aaa" stroke-width="1" /><polyline fill="none" points="77.0,112.35 78.05,112.0 78.39999999999999,112.35 77.69999999999999,113.05 82.25,116.55 83.3,116.19999999999999 83.64999999999999,115.14999999999999 84.0,116.55 84.0,115.14999999999999 79.44999999999999,113.05 78.39999999999999,112.0" stroke="#aaa" stroke-width="1" /><polyline fill="none" points="135.45,106.39999999999999 137.54999999999998,107.44999999999999 140.35,110.25 138.95,110.25 141.39999999999998,110.6 144.2,113.74999999999999 145.95,114.8 145.6,115.14999999999999 146.64999999999998,116.19999999999999 149.79999999999998,117.94999999999999 150.5,119.69999999999999 149.79999999999998,120.74999999999999 150.5,120.39999999999999 150.14999999999998,118.3 149.45,117.6 148.04999999999998,117.24999999999999 147.7,116.19999999999999 147.0,116.19999999999999 141.75,110.6 141.04999999999998,110.6 137.89999999999998,107.44999999999999" stroke="#aaa" stroke-width="1" /><polyline fill="none" points="109.19999999999999,142.45 108.85,143.14999999999998 109.55,142.45 110.6,142.79999999999998 109.19999999999999,145.25 110.25,143.5 112.0,144.2 113.74999999999999,147.0 116.55,148.75 118.64999999999999,152.25 120.05,152.95 121.8,155.39999999999998 122.85,155.75 120.39999999999999,153.64999999999998 120.39999999999999,152.95 119.69999999999999,152.95 116.55,149.1 116.55,148.39999999999998 114.8,147.7 112.35,144.2 111.64999999999999,144.2 110.6,143.14999999999998 110.94999999999999,142.45" stroke="#aaa" stroke-width="1" /><polyline fill="none" points="68.6,108.14999999999999 70.69999999999999,109.55 72.1,111.3 73.5,111.64999999999999 74.19999999999999,113.05 77.69999999999999,115.49999999999999 77.69999999999999,116.19999999999999 79.44999999999999,117.94999999999999 80.5,117.94999999999999 81.89999999999999,118.99999999999999 80.14999999999999,117.24999999999999 79.8,117.94999999999999 79.44999999999999,116.89999999999999 74.55,113.05 73.85,111.64999999999999 72.44999999999999,111.3 71.05,109.55" stroke="#aaa" stroke-width="1" /><polyline fill="none" points="120.39999999999999,142.45 122.14999999999999,143.5 121.8,143.85 122.14999999999999,143.5 123.19999999999999,145.25 123.89999999999999,145.25 129.5,151.2 128.79999999999998,151.54999999999998 130.2,151.54999999999998 133.0,154.35 124.24999999999999,145.25 123.19999999999999,144.89999999999998 121.8,142.79999999999998" stroke="#aaa" stroke-width="1" /><polyline fill="none" points="64.75,115.14999999999999 64.05,117.24999999999999 65.1,115.14999999999999 66.85,117.24999999999999 67.55,116.89999999999999 69.64999999999999,118.64999999999999 69.64999999999999,119.35 71.39999999999999,120.39999999999999 71.05,120.74999999999999 71.75,121.44999999999999 72.44999999999999,121.44999999999999 75.25,124.6 77.35,125.64999999999999 78.05,127.74999999999999 79.1,127.74999999999999 81.89999999999999,130.54999999999998 82.25,131.6 82.94999999999999,131.6 84.35,133.0 84.0,133.35 86.8,136.5 89.25,137.89999999999998 90.3,140.0 86.1,146.29999999999998 83.64999999999999,143.85 83.64999999999999,143.14999999999998 82.94999999999999,143.14999999999998 81.89999999999999,141.39999999999998 79.8,139.64999999999998 79.44999999999999,138.6 78.39999999999999,138.25 79.1,137.89999999999998 76.3,135.45 75.6,134.04999999999998 74.89999999999999,134.04999999999998 73.5,135.45 73.5,136.5 72.44999999999999,136.85 71.75,138.25 71.39999999999999,137.89999999999998 71.05,139.64999999999998 69.64999999999999,140.7 68.94999999999999,142.79999999999998 67.89999999999999,143.14999999999998 66.85,144.54999999999998 66.14999999999999,144.54999999999998 66.14999999999999,145.95 65.45,146.29999999999998 66.14999999999999,146.64999999999998 64.05,148.39999999999998 66.5,147.0 66.5,144.54999999999998 67.55,145.25 66.85,145.6 67.55,145.6 67.19999999999999,144.54999999999998 68.25,144.54999999999998 68.94999999999999,143.85 68.6,143.14999999999998 69.64999999999999,141.04999999999998 71.05,140.0 72.1,137.2 73.5,136.85 73.5,135.79999999999998 74.89999999999999,134.04999999999998 78.05,137.2 78.39999999999999,138.6 79.44999999999999,138.95 82.6,143.14999999999998 83.64999999999999,143.5 83.64999999999999,144.2 85.39999999999999,145.6 86.1,147.0 86.1,146.29999999999998 87.14999999999999,145.6 90.3,140.0 90.64999999999999,141.04999999999998 89.6,138.95 89.94999999999999,138.6 88.89999999999999,137.54999999999998 89.25,136.85 88.55,137.54999999999998 87.85,136.5 87.14999999999999,136.5 84.35,132.65 82.25,131.25 81.89999999999999,130.2 77.69999999999999,126.35 77.35,125.3 75.6,124.6 72.8,121.44999999999999 72.1,121.44999999999999 68.94999999999999,117.6 67.89999999999999,116.89999999999999 67.19999999999999,117.24999999999999 66.14999999999999,116.19999999999999 66.5,115.85" stroke="#aaa" stroke-width="1" /><polyline fill="none" points="86.8,70.0 87.5,72.44999999999999 86.8,70.69999999999999 87.14999999999999,69.64999999999999 89.25,72.1 92.05,74.19999999999999 95.19999999999999,74.19999999999999 95.55,73.14999999999999 96.6,72.44999999999999 106.39999999999999,73.14999999999999 96.25,72.44999999999999 95.55,73.14999999999999 94.5,72.44999999999999 93.8,70.69999999999999 94.5,69.64999999999999 101.5,70.35 106.39999999999999,69.64999999999999 107.8,70.69999999999999 107.8,71.39999999999999 106.39999999999999,72.44999999999999 108.5,71.39999999999999 107.44999999999999,70.0 106.39999999999999,69.64999999999999 101.5,70.35 97.3,69.64999999999999 90.64999999999999,70.0 89.94999999999999,70.69999999999999 92.39999999999999,71.75 93.1,72.8 94.85,72.8 95.55,73.5 94.85,74.19999999999999 92.39999999999999,74.19999999999999 87.14999999999999,69.64999999999999" stroke="#aaa" stroke-width="1" /><polyline fill="none" points="71.75,73.5 72.8,74.19999999999999 73.5,75.6 73.85,77.69999999999999 75.94999999999999,81.19999999999999 75.94999999999999,82.25 76.3,80.85 78.05,84.35 81.19999999999999,87.5 82.25,87.5 83.3,88.89999999999999 86.44999999999999,90.3 89.6,93.1 90.3,92.39999999999999 87.5,91.35 86.8,90.3 83.64999999999999,88.89999999999999 82.6,87.5 81.55,87.5 78.05,84.0 77.69999999999999,82.6 74.55,79.1 73.5,76.64999999999999 73.85,75.94999999999999 72.1,73.5 72.44999999999999,73.14999999999999" stroke="#aaa" stroke-width="1" /><polyline fill="none" points="61.24999999999999,116.19999999999999 62.99999999999999,112.0 64.39999999999999,110.6 65.45,111.64999999999999 66.14999999999999,111.3 72.1,117.24999999999999 72.1,118.3 73.5,117.94999999999999 73.14999999999999,117.24999999999999 71.39999999999999,116.55 66.5,111.3 65.45,111.3 64.39999999999999,110.25 63.349999999999994,111.3" stroke="#aaa" stroke-width="1" /><polyline fill="none" points="78.39999999999999,143.5 79.8,144.2 80.14999999999999,145.6 82.6,147.0 84.0,149.1 83.64999999999999,149.45 84.69999999999999,149.45 88.55,155.04999999999998 90.64999999999999,156.45 89.94999999999999,156.79999999999998 90.64999999999999,156.79999999999998 92.75,159.25 90.64999999999999,156.1 89.94999999999999,156.1 88.19999999999999,154.35 88.55,154.0 87.14999999999999,152.95 86.44999999999999,151.2 82.94999999999999,147.7 82.6,146.64999999999998 80.5,145.6 79.44999999999999,143.5" stroke="#aaa" stroke-width="1" /><polyline fill="none" points="160.64999999999998,116.19999999999999 159.6,116.19999999999999 157.85,117.24999999999999 154.7,120.39999999999999 154.0,120.39999999999999 151.54999999999998,123.19999999999999 150.85,123.19999999999999 148.39999999999998,125.99999999999999 147.7,125.99999999999999 146.64999999999998,127.74999999999999 145.25,128.45 141.04999999999998,134.75 139.29999999999998,136.5 138.6,138.25 136.85,140.0 136.5,141.75 141.75,147.35 142.45,148.75 143.14999999999998,148.39999999999998 143.5,146.64999999999998 144.54999999999998,145.95 147.0,141.04999999999998 152.95,133.0 155.04999999999998,134.75 156.79999999999998,137.2 159.95,139.64999999999998 162.75,143.5 163.1,150.5 169.39999999999998,149.45 171.14999999999998,148.39999999999998 172.2,142.45 171.85,137.89999999999998 170.1,135.1 169.04999999999998,131.95 168.0,130.9 166.95,128.1 166.6,124.94999999999999 165.2,123.19999999999999 164.5,121.1 163.79999999999998,120.74999999999999 162.75,117.94999999999999" stroke="#aaa" stroke-width="1" /><polyline fill="none" points="127.74999999999999,138.25 128.1,138.6 129.5,137.89999999999998 129.85,138.6 131.6,139.29999999999998 133.0,142.1 134.04999999999998,142.79999999999998 134.04999999999998,143.85 134.39999999999998,142.79999999999998 135.45,143.85 135.45,144.54999999999998 140.7,149.79999999999998 140.7,150.85 141.75,151.2 143.85,154.0 145.25,154.35 147.7,159.25 149.79999999999998,161.35 149.45,165.89999999999998 148.75,166.6 147.7,166.6 148.39999999999998,167.29999999999998 147.0,167.64999999999998 145.6,166.25 145.6,165.54999999999998 143.85,164.14999999999998 146.64999999999998,167.64999999999998 148.75,167.64999999999998 149.1,167.29999999999998 148.75,167.64999999999998 148.39999999999998,166.95 149.45,166.25 149.79999999999998,163.45 150.5,162.75 149.79999999999998,162.75 149.45,160.29999999999998 147.7,158.89999999999998 145.25,154.0 144.2,154.0 143.5,153.29999999999998 143.85,152.95 140.7,150.5 140.7,149.45 135.45,144.2 134.75,142.79999999999998 133.0,141.75 131.95,140.35 131.95,139.29999999999998 129.5,137.89999999999998 128.1,138.6" stroke="#aaa" stroke-width="1" /><polyline fill="none" points="152.6,137.54999999999998 150.85,139.29999999999998 148.75,144.2 147.35,145.25 144.89999999999998,151.2 147.35,153.64999999999998 148.75,156.45 151.54999999999998,159.25 152.95,157.14999999999998 152.6,156.45 153.64999999999998,156.1 152.95,155.75 153.64999999999998,155.04999999999998 159.6,164.85 160.64999999999998,165.2 161.35,164.14999999999998 160.29999999999998,165.2 154.0,155.04999999999998 153.29999999999998,155.04999999999998 152.95,154.35 153.29999999999998,155.04999999999998 152.6,157.14999999999998 151.2,158.89999999999998 150.14999999999998,157.14999999999998 148.75,156.1 147.35,153.29999999999998 145.25,151.2 145.25,149.79999999999998 146.29999999999998,148.75 147.35,145.6 148.75,144.54999999999998 150.85,139.64999999999998 153.29999999999998,137.54999999999998" stroke="#aaa" stroke-width="1" /><polyline fill="none" points="91.69999999999999,159.25 93.8,161.35 95.55,164.85 94.14999999999999,166.25 94.5,167.64999999999998 92.75,168.0 92.05,168.7 92.05,170.1 90.64999999999999,170.45 91.35,170.79999999999998 90.3,173.25 89.25,173.95 91.0,173.25 90.3,172.89999999999998 91.69999999999999,170.45 92.39999999999999,171.5 92.05,170.45 93.44999999999999,169.75 93.44999999999999,168.7 93.1,169.75 92.39999999999999,169.75 92.05,169.04999999999998 92.75,168.0 94.5,168.0 94.85,166.95 94.14999999999999,166.6 95.89999999999999,164.14999999999998 95.19999999999999,164.14999999999998 95.19999999999999,163.1 93.8,161.0" stroke="#aaa" stroke-width="1" /><polyline fill="none" points="76.3,139.64999999999998 75.6,139.29999999999998 74.19999999999999,141.04999999999998 73.5,141.04999999999998 72.1,144.2 69.3,146.64999999999998 70.35,147.0 68.6,148.39999999999998 66.5,152.25 64.39999999999999,154.35 64.39999999999999,155.75 61.949999999999996,157.85 61.599999999999994,159.25 59.15,162.04999999999998 58.449999999999996,164.14999999999998 57.4,165.2 57.4,166.25 56.0,166.6 55.65,167.29999999999998 56.349999999999994,166.6 57.4,166.6 57.4,165.54999999999998 58.449999999999996,164.5 59.15,162.39999999999998 63.349999999999994,156.45 64.39999999999999,156.1 64.39999999999999,155.39999999999998 65.1,155.04999999999998 64.39999999999999,154.35 66.5,152.6 67.55,150.14999999999998 72.8,143.5 72.8,142.79999999999998 73.85,141.75 73.5,141.39999999999998 74.55,141.04999999999998 75.6,139.29999999999998 77.35,142.1" stroke="#aaa" stroke-width="1" /><polyline fill="none" points="59.849999999999994,124.6 58.449999999999996,124.94999999999999 57.4,126.35 56.699999999999996,126.35 56.699999999999996,128.1 53.199999999999996,130.54999999999998 53.9,130.2 54.25,130.9 51.449999999999996,133.7 50.75,135.79999999999998 49.699999999999996,136.85 50.4,137.54999999999998 49.0,138.6 49.0,140.7 51.449999999999996,143.14999999999998 52.15,144.89999999999998 54.25,145.6 52.5,144.89999999999998 51.449999999999996,142.79999999999998 49.0,140.35 49.0,138.95 49.699999999999996,137.89999999999998 50.4,137.89999999999998 50.05,136.85 51.099999999999994,134.39999999999998 54.949999999999996,130.54999999999998 54.599999999999994,130.9 54.25,130.2 57.05,128.1 56.349999999999994,127.74999999999999 56.349999999999994,127.05" stroke="#aaa" stroke-width="1" /><polyline fill="none" points="110.25,148.39999999999998 108.14999999999999,151.54999999999998 107.44999999999999,151.54999999999998 107.8,152.6 105.69999999999999,155.04999999999998 104.3,158.2 103.25,158.54999999999998 101.85,162.04999999999998 100.1,163.45 99.05,166.25 97.64999999999999,167.29999999999998 96.25,170.45 93.8,173.25 94.14999999999999,173.95 91.35,176.75 91.35,177.79999999999998 90.64999999999999,179.2 88.89999999999999,180.6 88.19999999999999,183.04999999999998 94.5,190.75 95.89999999999999,190.75 96.25,189.35 98.35,187.6 98.35,186.89999999999998 99.39999999999999,185.85 101.85,188.64999999999998 103.6,191.79999999999998 104.64999999999999,192.14999999999998 106.05,194.6 108.14999999999999,196.7 109.55,199.5 110.25,199.5 110.6,200.2 112.0,200.2 112.69999999999999,198.79999999999998 114.44999999999999,197.39999999999998 112.69999999999999,198.45 112.69999999999999,199.14999999999998 111.64999999999999,200.2 110.6,199.85 110.94999999999999,199.14999999999998 109.89999999999999,199.5 108.14999999999999,196.35 106.05,194.25 104.64999999999999,191.79999999999998 103.25,191.1 101.85,188.29999999999998 99.75,185.85 98.69999999999999,186.2 98.69999999999999,185.14999999999998 98.0,185.14999999999998 98.69999999999999,186.2 98.0,186.89999999999998 98.35,187.25 96.25,189.0 96.25,190.04999999999998 94.85,190.75 92.05,187.95 91.0,185.85 88.19999999999999,182.7 88.89999999999999,180.95 90.64999999999999,179.54999999999998 92.05,176.04999999999998 94.14999999999999,174.29999999999998 94.5,172.54999999999998 97.3,169.04999999999998 97.64999999999999,167.64999999999998 99.39999999999999,165.89999999999998 100.1,163.79999999999998 101.85,162.39999999999998 102.89999999999999,159.25 104.3,158.54999999999998 105.69999999999999,155.39999999999998 107.8,152.95 107.8,151.89999999999998 110.6,148.39999999999998 111.3,148.39999999999998 114.44999999999999,151.54999999999998 114.8,152.6 118.64999999999999,155.75 120.05,158.2 122.85,161.0 122.85,161.7 127.05,165.2 128.45,167.64999999999998 130.9,169.75 133.0,173.95 134.39999999999998,174.64999999999998 134.75,176.04999999999998 137.54999999999998,179.54999999999998 135.1,176.39999999999998 134.39999999999998,174.29999999999998 133.0,173.6 130.54999999999998,169.04999999999998 128.45,167.29999999999998 127.05,164.85 122.85,161.35 122.85,160.64999999999998 120.05,157.85 120.05,157.14999999999998 118.99999999999999,156.1 120.05,155.75 118.99999999999999,156.1 114.8,152.25 111.64999999999999,148.39999999999998" stroke="#aaa" stroke-width="1" /><polyline fill="none" points="125.3,158.89999999999998 130.9,165.89999999999998 133.0,167.64999999999998 134.39999999999998,170.45 137.54999999999998,174.29999999999998 138.6,176.75 140.35,178.14999999999998 140.7,179.54999999999998 142.1,179.89999999999998 145.25,175.7 144.89999999999998,175.0 145.95,172.54999999999998 145.25,171.14999999999998 145.95,172.54999999999998 145.25,174.29999999999998 144.2,175.0 141.75,178.5 143.14999999999998,177.45 144.54999999999998,175.0 145.25,175.35 144.89999999999998,176.39999999999998 142.79999999999998,179.2 141.39999999999998,179.89999999999998 140.35,177.79999999999998 138.6,176.39999999999998 137.54999999999998,173.95 134.39999999999998,170.1 133.0,167.29999999999998 131.25,166.25 128.79999999999998,162.39999999999998" stroke="#aaa" stroke-width="1" /><polyline fill="none" points="76.64999999999999,166.6 78.05,167.29999999999998 78.05,168.35 78.75,169.04999999999998 80.14999999999999,169.39999999999998 80.5,171.14999999999998 84.0,176.04999999999998 85.05,178.5 86.1,179.2 86.44999999999999,177.45 87.14999999999999,177.1 87.5,177.79999999999998 89.25,174.64999999999998 88.19999999999999,175.7 87.85,177.1 86.44999999999999,177.1 86.1,178.5 85.39999999999999,178.85 84.69999999999999,177.45 85.05,176.75 85.39999999999999,177.1 84.0,176.39999999999998 84.0,175.7 81.89999999999999,173.25 80.14999999999999,169.04999999999998 79.1,169.04999999999998 78.05,168.0 78.05,166.95" stroke="#aaa" stroke-width="1" /><polyline fill="none" points="46.199999999999996,122.14999999999999 45.849999999999994,123.55 44.449999999999996,124.6 43.75,126.69999999999999 42.0,128.45 42.699999999999996,129.15 41.65,129.85 41.65,130.54999999999998 42.699999999999996,131.25 42.349999999999994,131.95 42.699999999999996,131.6 43.75,132.65 46.55,138.25 47.599999999999994,137.89999999999998 50.4,131.6 52.15,129.5 52.5,127.05 51.449999999999996,125.64999999999999" stroke="#aaa" stroke-width="1" /><polyline fill="none" points="51.449999999999996,121.8 50.75,121.8 49.699999999999996,120.05 47.599999999999994,119.35 46.9,117.94999999999999 44.8,118.3 44.099999999999994,120.39999999999999 42.349999999999994,122.49999999999999 39.9,127.39999999999999 39.199999999999996,127.74999999999999 36.4,124.6 36.05,122.49999999999999 37.449999999999996,121.44999999999999 37.099999999999994,121.1 37.8,120.39999999999999 36.05,122.14999999999999 36.05,123.19999999999999 35.349999999999994,123.19999999999999 35.349999999999994,124.24999999999999 38.849999999999994,127.74999999999999 40.25,127.39999999999999 44.8,118.64999999999999 45.849999999999994,117.94999999999999 46.55,117.94999999999999 47.25,119.35 49.349999999999994,120.05 50.75,122.14999999999999" stroke="#aaa" stroke-width="1" /><polyline fill="none" points="74.19999999999999,79.8 74.55,90.3 74.19999999999999,91.69999999999999 72.44999999999999,93.44999999999999 69.64999999999999,93.44999999999999 65.1,94.5 58.449999999999996,97.3 51.449999999999996,99.05 40.599999999999994,103.25 32.199999999999996,105.35 26.95,108.85 20.299999999999997,115.85 16.099999999999998,125.64999999999999 15.399999999999999,129.15 15.399999999999999,135.1 16.099999999999998,136.14999999999998 16.45,140.0 18.2,143.14999999999998 17.849999999999998,143.85 26.95,162.04999999999998 27.65,162.04999999999998 26.25,160.64999999999998 17.849999999999998,143.85 18.2,143.14999999999998 17.15,141.75 16.099999999999998,137.89999999999998 16.099999999999998,135.79999999999998 15.399999999999999,135.1 15.749999999999998,127.05 19.599999999999998,117.24999999999999 20.65,115.85 22.75,116.55 23.799999999999997,115.85 26.599999999999998,116.55 27.65,116.19999999999999 30.45,117.94999999999999 31.15,117.6 30.099999999999998,117.6 28.0,116.19999999999999 26.599999999999998,116.55 23.799999999999997,115.85 22.75,116.55 21.0,115.85 27.299999999999997,108.85 33.25,105.0 40.599999999999994,103.25 47.949999999999996,100.8 50.4,99.39999999999999 59.49999999999999,96.94999999999999 65.1,94.5 69.64999999999999,93.44999999999999 72.8,93.44999999999999 74.55,91.35 74.19999999999999,86.44999999999999 74.89999999999999,83.64999999999999 74.19999999999999,83.64999999999999" stroke="#aaa" stroke-width="1" /><polyline fill="none" points="138.95,181.64999999999998 137.54999999999998,180.25 139.29999999999998,182.35 139.29999999999998,184.79999999999998 138.6,186.2 136.85,187.25 135.45,190.75 133.0,193.2 127.05,184.79999999999998 126.35,184.79999999999998 124.94999999999999,182.35 123.89999999999999,182.0 124.24999999999999,181.29999999999998 122.85,183.75 121.8,184.45 121.44999999999999,185.85 119.69999999999999,187.95 117.94999999999999,191.45 116.55,192.5 116.19999999999999,193.54999999999998 115.85,192.5 116.19999999999999,194.25 114.1,196.7 115.49999999999999,195.64999999999998 116.55,192.85 117.94999999999999,191.79999999999998 119.69999999999999,188.29999999999998 121.44999999999999,186.2 121.8,184.79999999999998 123.89999999999999,182.35 124.94999999999999,182.7 125.64999999999999,184.45 126.69999999999999,184.79999999999998 128.45,186.89999999999998 128.45,187.6 130.9,191.1 132.29999999999998,192.14999999999998 132.65,193.2 133.35,193.2 135.45,191.1 136.85,187.6 138.25,186.89999999999998 139.29999999999998,184.79999999999998 140.0,184.45" stroke="#aaa" stroke-width="1" /><polyline fill="none" points="21.349999999999998,121.8 22.75,122.49999999999999 22.4,123.55 24.5,127.39999999999999 26.599999999999998,135.45 28.349999999999998,139.29999999999998 28.7,141.75 30.099999999999998,143.5 32.55,144.2 35.699999999999996,147.0 38.15,146.64999999999998 36.05,147.0 33.949999999999996,144.89999999999998 30.45,143.5 29.049999999999997,142.1 26.599999999999998,135.45 26.25,132.65 25.549999999999997,131.95 24.15,126.35 22.4,123.19999999999999 22.75,122.49999999999999 23.799999999999997,123.19999999999999 25.2,123.19999999999999 26.95,124.6 29.4,125.3 30.799999999999997,126.69999999999999 32.199999999999996,126.69999999999999 35.349999999999994,128.79999999999998 37.099999999999994,130.9 42.0,134.04999999999998 45.15,139.29999999999998 45.15,140.7 46.55,142.1 47.949999999999996,144.89999999999998 51.099999999999994,148.04999999999998 52.849999999999994,151.2 58.449999999999996,156.79999999999998 57.74999999999999,158.89999999999998 56.349999999999994,159.95 54.949999999999996,163.1 52.5,165.54999999999998 51.099999999999994,163.45 49.349999999999994,162.04999999999998 45.849999999999994,157.14999999999998 45.15,157.5 44.8,156.45 43.05,161.0 44.449999999999996,157.85 45.849999999999994,157.5 48.3,160.29999999999998 49.349999999999994,162.39999999999998 51.099999999999994,163.79999999999998 52.5,166.25 54.599999999999994,163.79999999999998 56.349999999999994,160.29999999999998 57.74999999999999,159.25 58.449999999999996,157.5 58.099999999999994,156.1 52.849999999999994,150.85 51.099999999999994,147.7 47.949999999999996,144.54999999999998 46.55,141.75 45.15,140.35 44.449999999999996,137.54999999999998 41.65,133.35 40.25,133.0 37.449999999999996,130.9 35.699999999999996,128.79999999999998 32.55,126.69999999999999 31.15,126.69999999999999 29.749999999999996,125.3" stroke="#aaa" stroke-width="1" /><polyline fill="none" points="70.0,59.15 69.64999999999999,56.699999999999996 67.55,54.949999999999996 66.85,50.75 65.8,50.05 64.05,50.4 60.199999999999996,45.15 60.199999999999996,42.699999999999996 61.24999999999999,40.949999999999996 60.9,40.25 57.4,39.9 56.0,40.599999999999994 40.949999999999996,40.949999999999996 0.0,40.599999999999994 40.949999999999996,40.949999999999996 56.0,40.599999999999994 58.8,39.9 60.55,40.25 61.24999999999999,40.949999999999996 60.199999999999996,42.349999999999994 60.199999999999996,45.15 62.99999999999999,49.349999999999994 62.65,50.75 62.65,50.05 63.349999999999994,49.699999999999996 63.699999999999996,50.4 65.45,50.05 66.85,51.099999999999994 67.55,54.599999999999994 67.19999999999999,54.949999999999996 69.64999999999999,57.05" stroke="#aaa" stroke-width="1" /><polyline fill="none" points="163.79999999999998,166.25 162.39999999999998,169.39999999999998 164.5,174.29999999999998 164.5,178.14999999999998 165.54999999999998,179.2 166.95,178.14999999999998 167.64999999999998,176.04999999999998 168.7,175.35 168.7,176.39999999999998 169.75,175.35 169.75,174.64999999999998 171.14999999999998,173.6 170.79999999999998,173.95 170.45,172.89999999999998 166.6,169.39999999999998 170.45,173.25 170.45,173.95 169.04999999999998,175.7 168.0,175.35 166.95,177.79999999999998 165.89999999999998,178.85 165.2,178.85 164.5,178.14999999999998 164.14999999999998,172.89999999999998 162.39999999999998,169.39999999999998" stroke="#aaa" stroke-width="1" /><polyline fill="none" points="99.05,191.79999999999998 98.69999999999999,193.54999999999998 96.6,195.64999999999998 94.85,199.5 93.44999999999999,200.54999999999998 90.64999999999999,205.45 93.44999999999999,200.89999999999998 94.85,199.85 96.6,196.0 98.0,194.95 99.75,191.45 101.5,194.95 102.55,195.29999999999998 109.19999999999999,205.1 111.3,206.85 112.35,209.64999999999998 114.1,211.39999999999998 114.1,212.45 114.1,211.04999999999998 112.35,209.29999999999998 111.3,206.5 109.19999999999999,204.75 102.55,194.95 101.5,194.6 100.1,191.45" stroke="#aaa" stroke-width="1" /><polyline fill="none" points="60.9,184.79999999999998 62.3,185.5 63.699999999999996,187.25 63.349999999999994,187.95 67.55,192.14999999999998 66.85,192.85 69.3,194.95 70.35,197.39999999999998 71.75,198.45 71.39999999999999,199.14999999999998 70.69999999999999,198.45 70.69999999999999,199.14999999999998 71.75,198.79999999999998 73.14999999999999,200.2 73.85,202.64999999999998 75.25,203.0 73.85,202.29999999999998 73.14999999999999,199.85 69.64999999999999,196.35 69.64999999999999,195.29999999999998 68.25,193.54999999999998 68.94999999999999,193.2 68.25,193.54999999999998 67.55,192.85 67.19999999999999,191.45 63.349999999999994,187.6 63.349999999999994,186.2 62.3,185.14999999999998" stroke="#aaa" stroke-width="1" /><polyline fill="none" points="20.65,143.85 20.65,147.35 23.799999999999997,152.25 24.15,153.64999999999998 26.25,155.75 26.95,155.75 24.15,153.29999999999998 21.349999999999998,148.75 20.299999999999997,145.95 20.65,144.2 23.45,142.79999999999998 24.5,143.5 24.5,144.54999999999998 25.549999999999997,145.6 26.25,148.39999999999998 27.299999999999997,148.39999999999998 28.0,149.45 28.349999999999998,151.54999999999998 30.099999999999998,154.7 30.099999999999998,156.79999999999998 31.499999999999996,156.79999999999998 32.55,155.75 33.949999999999996,155.39999999999998 30.799999999999997,146.29999999999998 30.799999999999997,147.35 29.049999999999997,146.64999999999998 27.299999999999997,148.39999999999998 26.599999999999998,148.39999999999998 26.599999999999998,147.35 25.549999999999997,146.64999999999998 25.549999999999997,145.6 23.799999999999997,142.79999999999998" stroke="#aaa" stroke-width="1" /><polyline fill="none" points="88.89999999999999,17.849999999999998 91.35,22.75 91.35,22.049999999999997 90.3,21.0 90.64999999999999,20.299999999999997 92.75,22.049999999999997 93.8,21.349999999999998 94.14999999999999,21.7 92.39999999999999,21.7 91.0,20.299999999999997 91.69999999999999,18.9 92.39999999999999,18.9 92.75,19.599999999999998 92.75,18.549999999999997 93.44999999999999,18.9 95.55,17.5 96.6,17.5 98.35,16.099999999999998 98.69999999999999,15.049999999999999 101.5,15.749999999999998 98.69999999999999,15.049999999999999 97.64999999999999,16.45 96.6,15.749999999999998 97.3,16.45 95.89999999999999,17.849999999999998 95.55,17.5 94.14999999999999,18.2 93.1,17.15 92.75,14.7 91.69999999999999,14.0 93.1,15.749999999999998 93.1,16.799999999999997 92.05,17.15 92.39999999999999,17.849999999999998 93.1,17.15 94.14999999999999,18.2 93.44999999999999,18.9 91.35,18.9 90.64999999999999,17.5 91.35,19.599999999999998 90.64999999999999,20.299999999999997 88.89999999999999,17.5 89.94999999999999,16.799999999999997 91.35,16.799999999999997 90.64999999999999,16.45 91.69999999999999,15.049999999999999 91.0,16.099999999999998 90.3,15.399999999999999 90.64999999999999,16.45" stroke="#aaa" stroke-width="1" /><polyline fill="none" points="35.0,156.45 35.349999999999994,157.5 33.949999999999996,159.25 32.199999999999996,159.6 31.499999999999996,158.54999999999998 32.199999999999996,159.6 31.499999999999996,160.29999999999998 30.45,159.25 30.45,158.2 30.099999999999998,158.89999999999998 31.849999999999998,160.64999999999998 32.55,163.1 34.3,165.2 35.0,167.29999999999998 36.05,168.0 36.05,170.45 35.349999999999994,171.5 33.599999999999994,168.35 31.849999999999998,166.95 29.749999999999996,163.79999999999998 28.7,163.79999999999998 28.0,163.1 28.349999999999998,163.79999999999998 29.4,163.79999999999998 31.849999999999998,167.29999999999998 33.599999999999994,168.7 35.349999999999994,171.85 35.0,173.25 35.699999999999996,171.14999999999998 36.05,171.85 36.05,167.64999999999998 35.0,166.95 34.3,164.85 32.55,162.75 31.849999999999998,160.29999999999998 35.0,158.54999999999998 36.05,159.6 36.75,162.04999999999998 36.75,166.6 38.15,171.14999999999998 36.05,177.45 35.0,178.5 33.949999999999996,178.5 32.55,179.54999999999998 28.349999999999998,173.6 28.0,172.2 26.25,170.79999999999998 25.9,168.7 24.5,166.95 25.9,168.7 26.25,171.14999999999998 28.0,172.54999999999998 28.349999999999998,173.95 29.749999999999996,175.35 30.099999999999998,176.75 31.15,177.45 32.199999999999996,179.54999999999998 33.25,179.54999999999998 36.05,177.79999999999998 38.15,171.85 36.75,166.6 36.4,160.29999999999998 35.0,158.54999999999998" stroke="#aaa" stroke-width="1" /><polyline fill="none" points="100.8,9.799999999999999 101.14999999999999,10.85 102.55,10.85 102.55,11.899999999999999 102.55,10.85 101.14999999999999,10.85 100.8,10.149999999999999 103.25,9.1 107.1,12.95 105.69999999999999,15.049999999999999 102.19999999999999,16.45 103.25,17.849999999999998 105.0,18.2 106.05,17.15 104.3,15.749999999999998 105.0,15.049999999999999 105.69999999999999,15.399999999999999 107.1,12.95 108.85,15.049999999999999 109.89999999999999,14.7 112.0,16.099999999999998 109.89999999999999,14.7 108.85,15.049999999999999 107.1,12.6 103.6,9.45 103.94999999999999,9.1 102.19999999999999,9.1" stroke="#aaa" stroke-width="1" /><polyline fill="none" points="63.349999999999994,196.0 64.39999999999999,195.64999999999998 65.45,196.7 65.1,197.39999999999998 66.85,198.79999999999998 67.55,200.89999999999998 69.3,202.29999999999998 70.0,204.39999999999998 70.69999999999999,204.75 70.35,205.45 70.69999999999999,204.75 71.39999999999999,205.1 72.1,207.2 75.6,212.45 75.6,213.85 76.64999999999999,214.54999999999998 78.39999999999999,214.54999999999998 77.0,214.54999999999998 76.64999999999999,213.14999999999998 76.3,214.2 75.6,213.85 75.6,212.1 74.89999999999999,211.39999999999998 75.25,210.35 74.89999999999999,211.04999999999998 74.19999999999999,210.35 74.89999999999999,209.64999999999998 74.19999999999999,209.64999999999998 72.44999999999999,207.54999999999998 71.39999999999999,204.75 70.0,204.04999999999998 69.3,201.95 67.55,200.54999999999998 66.85,198.45 65.8,197.75 65.8,196.7 64.75,195.64999999999998" stroke="#aaa" stroke-width="1" /><polyline fill="none" points="94.5,6.3 96.6,5.25 100.1,4.8999999999999995 101.85,7.0 101.14999999999999,5.949999999999999 102.19999999999999,5.949999999999999 102.89999999999999,7.0 102.55,7.35 102.89999999999999,7.0 103.94999999999999,8.399999999999999 106.05,8.049999999999999 107.8,10.149999999999999 108.5,10.149999999999999 109.55,11.2 109.89999999999999,12.6 111.3,12.95 112.69999999999999,14.35 114.8,14.35 116.55,16.099999999999998 121.1,18.2 116.89999999999999,16.099999999999998 115.85,15.049999999999999 117.94999999999999,14.7 113.05,14.35 111.64999999999999,12.95 110.6,12.95 109.55,11.899999999999999 109.55,10.85 108.14999999999999,10.149999999999999 106.75,8.399999999999999 105.35,7.699999999999999 104.3,8.049999999999999 103.6,7.35 104.64999999999999,6.3 105.35,6.6499999999999995 104.64999999999999,5.25 103.6,7.35 102.55,5.949999999999999 101.14999999999999,5.949999999999999 100.44999999999999,4.8999999999999995 96.6,5.25" stroke="#aaa" stroke-width="1" /><polyline fill="none" points="11.899999999999999,141.39999999999998 11.2,143.5 11.899999999999999,141.75 12.6,141.75 14.0,148.39999999999998 15.049999999999999,149.79999999999998 15.749999999999998,152.95 18.2,156.45 17.849999999999998,157.85 18.549999999999997,157.85 19.95,159.25 19.95,159.95 19.25,159.95 20.65,161.0 21.0,162.39999999999998 23.099999999999998,164.5 23.799999999999997,167.29999999999998 23.099999999999998,164.14999999999998 20.65,161.7 19.599999999999998,158.54999999999998 18.9,158.2 17.15,154.0 15.749999999999998,152.6 15.049999999999999,149.45 13.649999999999999,147.35 12.6,141.39999999999998" stroke="#aaa" stroke-width="1" /><polyline fill="none" points="39.9,183.04999999999998 40.25,183.39999999999998 39.199999999999996,183.75 38.15,185.14999999999998 37.449999999999996,187.25 37.8,187.95 36.4,189.7 37.8,188.29999999999998 37.449999999999996,187.25 38.15,186.54999999999998 38.15,185.5 39.55,183.75 40.25,183.75 43.05,187.25 43.05,188.29999999999998 45.849999999999994,191.45 46.9,193.89999999999998 48.65,195.64999999999998 49.0,197.39999999999998 49.699999999999996,197.39999999999998 50.75,198.45 51.449999999999996,200.89999999999998 53.55,204.39999999999998 53.55,205.79999999999998 54.949999999999996,208.6 55.65,208.95 58.099999999999994,204.04999999999998 62.65,198.45 62.65,197.39999999999998 64.39999999999999,196.7 63.349999999999994,196.7 62.65,197.39999999999998 62.65,198.1 56.0,207.2 55.65,208.95 53.55,205.79999999999998 53.55,204.39999999999998 50.4,197.75 49.0,197.04999999999998 48.65,195.29999999999998 46.9,193.54999999999998 45.849999999999994,191.1 43.05,187.95 42.699999999999996,186.54999999999998" stroke="#aaa" stroke-width="1" /><polyline fill="none" points="89.94999999999999,205.1 87.14999999999999,210.35 86.1,210.7 85.39999999999999,212.1 84.35,212.79999999999998 83.64999999999999,214.89999999999998 82.94999999999999,215.6 82.6,214.2 82.25,215.95 81.19999999999999,216.64999999999998 80.5,218.04999999999998 80.5,221.2 80.5,218.39999999999998 81.19999999999999,217.0 82.25,216.29999999999998 82.6,215.25 83.64999999999999,215.25 84.35,213.14999999999998 86.44999999999999,210.7 87.14999999999999,210.7 89.6,206.85" stroke="#aaa" stroke-width="1" /><polyline fill="none" points="133.0,210.35 131.95,210.7 131.25,211.75 131.25,213.85 126.35,221.89999999999998 124.6,220.5 123.19999999999999,217.35 121.8,217.0 121.8,215.25 120.74999999999999,213.85 121.44999999999999,213.5 120.74999999999999,213.5 119.35,212.1 120.74999999999999,213.85 120.39999999999999,214.2 121.1,214.2 121.1,216.29999999999998 121.8,217.35 122.85,217.35 124.6,220.85 125.64999999999999,221.2 125.3,221.89999999999998 124.94999999999999,221.54999999999998 125.3,223.29999999999998 125.3,221.89999999999998 125.64999999999999,221.54999999999998 126.69999999999999,222.6 127.39999999999999,221.89999999999998 126.69999999999999,221.54999999999998 127.74999999999999,219.1 129.85,216.64999999999998 130.9,216.29999999999998 130.2,216.64999999999998 129.85,215.95 131.95,213.85 131.25,213.5 131.25,212.1" stroke="#aaa" stroke-width="1" /><polyline fill="none" points="140.7,205.45 138.95,205.79999999999998 135.79999999999998,212.45 134.75,213.14999999999998 134.39999999999998,214.89999999999998 133.0,216.29999999999998 131.95,219.45 128.79999999999998,222.95 128.79999999999998,223.64999999999998 129.15,222.95 129.5,223.64999999999998 129.15,222.95 131.95,219.79999999999998 133.0,216.64999999999998 134.39999999999998,215.25 134.75,213.5 135.79999999999998,212.79999999999998 137.2,209.29999999999998 139.64999999999998,205.45 140.7,205.79999999999998 141.04999999999998,207.2 142.45,208.25 143.14999999999998,211.04999999999998 144.54999999999998,212.1 144.89999999999998,213.5 146.64999999999998,215.25 147.35,218.39999999999998 149.45,221.89999999999998 149.45,223.29999999999998 150.14999999999998,223.29999999999998 148.04999999999998,219.45 148.04999999999998,217.35 144.89999999999998,213.14999999999998 144.54999999999998,211.75 143.14999999999998,210.7 142.45,207.89999999999998 141.04999999999998,206.85" stroke="#aaa" stroke-width="1" /><polyline fill="none" points="92.05,8.049999999999999 89.25,6.6499999999999995 87.5,6.6499999999999995 87.5,5.949999999999999 86.44999999999999,7.0 81.19999999999999,7.699999999999999 79.8,8.75 79.1,8.399999999999999 77.69999999999999,9.45 76.64999999999999,9.45 71.75,12.95 71.05,14.7 67.19999999999999,18.9 66.5,21.349999999999998 67.19999999999999,19.25 71.05,15.049999999999999 71.75,13.299999999999999 77.0,9.45 84.69999999999999,7.0 86.1,7.35 85.75,8.75 84.69999999999999,8.75 84.69999999999999,9.45 83.64999999999999,10.149999999999999 80.85,10.5 79.8,11.899999999999999 78.75,11.899999999999999 74.89999999999999,14.35 79.1,11.899999999999999 80.14999999999999,11.899999999999999 80.85,10.5 84.69999999999999,9.799999999999999 86.8,6.6499999999999995 89.25,6.6499999999999995" stroke="#aaa" stroke-width="1" /><polyline fill="none" points="178.85,178.5 178.14999999999998,181.29999999999998 177.1,182.7 177.45,183.39999999999998 175.35,189.35 175.0,192.85 175.7,193.89999999999998 176.39999999999998,193.54999999999998 178.85,195.64999999999998 180.6,196.0 184.1,198.45 184.79999999999998,197.75 190.75,203.35 191.79999999999998,203.35 193.89999999999998,205.45 195.29999999999998,204.75 196.0,201.6 195.29999999999998,204.39999999999998 193.89999999999998,205.1 192.14999999999998,203.35 191.1,203.35 185.85,198.45 182.0,197.04999999999998 180.95,195.64999999999998 179.2,195.64999999999998 175.0,192.5 175.35,189.35 177.45,183.39999999999998 177.1,182.7 177.79999999999998,182.0 178.5,183.39999999999998 177.79999999999998,182.0 178.5,179.54999999999998 179.54999999999998,178.14999999999998 183.75,180.25 186.54999999999998,182.7 186.89999999999998,182.35 191.79999999999998,185.85 193.54999999999998,186.2 194.6,187.95 194.6,186.89999999999998 196.0,188.29999999999998 193.89999999999998,186.2 192.14999999999998,185.85 184.1,180.25 182.35,179.89999999999998 179.89999999999998,178.14999999999998" stroke="#aaa" stroke-width="1" /><polyline fill="none" points="11.2,146.29999999999998 11.549999999999999,146.64999999999998 10.5,148.75 10.5,150.14999999999998 8.049999999999999,154.7 8.399999999999999,155.04999999999998 7.35,157.14999999999998 10.85,149.1 11.549999999999999,148.75 12.6,149.45 15.399999999999999,158.2 16.799999999999997,159.95 17.849999999999998,163.1 19.25,164.5 21.349999999999998,168.35 22.75,169.39999999999998 24.5,172.54999999999998 26.95,175.0 28.7,178.14999999999998 29.749999999999996,178.85 31.15,181.29999999999998 31.15,182.35 29.749999999999996,183.75 27.65,184.45 25.9,186.54999999999998 24.15,187.6 20.299999999999997,182.7 18.2,178.5 16.45,178.14999999999998 13.649999999999999,181.29999999999998 12.6,181.64999999999998 10.85,185.5 5.6,190.04999999999998 4.199999999999999,188.64999999999998 3.8499999999999996,186.54999999999998 2.8,185.5 2.0999999999999996,181.29999999999998 2.8,185.85 3.8499999999999996,186.89999999999998 4.199999999999999,189.0 5.6,190.04999999999998 10.85,185.85 12.6,182.0 14.0,181.29999999999998 16.799999999999997,178.14999999999998 17.5,178.14999999999998 18.549999999999997,179.2 20.299999999999997,183.04999999999998 23.799999999999997,187.6 25.2,187.25 28.0,184.45 31.15,182.7 31.15,180.95 30.45,179.54999999999998 27.65,176.39999999999998 26.95,174.64999999999998 24.5,172.2 22.75,169.39999999999998 23.099999999999998,168.7 22.4,169.04999999999998 21.349999999999998,168.0 19.95,165.2 17.849999999999998,162.75 16.45,159.25 15.399999999999999,158.2 14.35,154.35 13.299999999999999,152.6 12.25,147.35" stroke="#aaa" stroke-width="1" /><polyline fill="none" points="16.45,182.35 14.0,184.79999999999998 14.7,184.1 15.399999999999999,184.79999999999998 15.399999999999999,183.39999999999998 16.799999999999997,182.35 17.5,182.7 19.95,186.89999999999998 21.0,187.6 21.0,189.0 21.349999999999998,188.29999999999998 22.049999999999997,189.0 22.049999999999997,190.04999999999998 24.15,191.79999999999998 26.95,195.64999999999998 26.95,196.35 25.2,197.75 24.5,197.39999999999998 25.549999999999997,197.75 26.95,196.7 26.95,195.29999999999998 24.15,192.14999999999998 24.15,191.45 22.049999999999997,189.7 22.049999999999997,188.64999999999998 19.599999999999998,186.2 19.25,184.79999999999998 17.5,182.35" stroke="#aaa" stroke-width="1" /><polyline fill="none" points="35.699999999999996,203.7 37.449999999999996,209.64999999999998 38.15,210.0 39.199999999999996,212.79999999999998 42.699999999999996,216.64999999999998 45.15,221.2 45.849999999999994,223.64999999999998 45.15,220.85 42.699999999999996,216.29999999999998 40.25,213.85 37.449999999999996,209.29999999999998" stroke="#aaa" stroke-width="1" /><polyline fill="none" points="35.0,204.04999999999998 35.0,207.89999999999998 33.949999999999996,211.75 32.9,221.54999999999998 33.599999999999994,222.25 34.3,221.89999999999998 35.349999999999994,215.95 36.05,214.89999999999998 37.099999999999994,214.89999999999998 39.55,218.75 41.65,220.85 43.05,223.64999999999998 42.349999999999994,221.54999999999998 38.5,217.0 36.75,213.14999999999998 35.699999999999996,213.5 35.699999999999996,214.2 36.4,213.14999999999998 37.099999999999994,214.54999999999998 35.699999999999996,214.89999999999998 34.65,220.85 33.599999999999994,222.25 32.9,221.54999999999998 33.949999999999996,211.75 35.0,207.89999999999998" stroke="#aaa" stroke-width="1" /><polyline fill="none" points="29.749999999999996,197.04999999999998 28.7,198.45 27.299999999999997,199.14999999999998 24.5,199.14999999999998 17.849999999999998,204.39999999999998 15.049999999999999,205.1 14.35,204.39999999999998 10.5,206.85 9.45,208.95 10.5,207.2 13.299999999999999,205.1 14.7,204.75 15.049999999999999,205.45 15.399999999999999,204.75 17.849999999999998,204.39999999999998 24.849999999999998,199.14999999999998 28.349999999999998,198.79999999999998" stroke="#aaa" stroke-width="1" /><polyline fill="none" points="200.54999999999998,203.7 200.54999999999998,206.5 199.5,213.14999999999998 200.89999999999998,215.95 201.25,221.54999999999998 200.54999999999998,222.6 200.89999999999998,222.25 201.25,222.95 200.54999999999998,223.64999999999998 197.04999999999998,218.75 195.64999999999998,215.6 194.6,215.25 192.14999999999998,212.1 193.2,210.0 194.95,208.25 196.0,208.25 197.04999999999998,207.2 196.35,207.2 195.64999999999998,208.25 194.6,208.25 192.14999999999998,211.04999999999998 192.14999999999998,212.45 194.25,215.25 195.64999999999998,215.95 197.04999999999998,219.1 198.45,220.5 200.2,223.64999999999998 201.25,223.29999999999998 201.6,218.04999999999998 199.5,213.14999999999998" stroke="#aaa" stroke-width="1" /><polyline fill="none" points="26.95,218.04999999999998 28.349999999999998,219.45 29.749999999999996,219.1 28.7,217.0 28.0,217.0" stroke="#aaa" stroke-width="1" /><polyline fill="none" points="8.049999999999999,22.4 7.35,23.45 7.35,25.2 9.799999999999999,25.549999999999997 10.5,24.849999999999998 10.149999999999999,22.75" stroke="#aaa" stroke-width="1" /><polyline fill="none" points="12.95,218.39999999999998 15.399999999999999,220.5 16.099999999999998,222.25 19.599999999999998,221.89999999999998 19.599999999999998,220.85 17.849999999999998,218.39999999999998 18.549999999999997,217.0 23.45,217.7 26.599999999999998,220.14999999999998 26.599999999999998,220.85 24.849999999999998,222.25 23.45,221.54999999999998 24.15,221.54999999999998 24.849999999999998,222.25 24.5,222.6 23.099999999999998,222.25 25.9,223.64999999999998 26.95,223.64999999999998 24.5,222.6 26.599999999999998,221.2 26.599999999999998,220.14999999999998 25.549999999999997,218.75 23.799999999999997,217.7 19.25,217.0 17.849999999999998,217.35 17.849999999999998,218.75 19.599999999999998,220.85 19.599999999999998,221.54999999999998 18.2,222.25 16.45,222.25 15.399999999999999,220.14999999999998" stroke="#aaa" stroke-width="1" /></svg>