<?xml version="1.0" encoding="utf-8" ?>
<svg baseProfile="full" height="224" version="1.1" width="224" xmlns="http://www.w3.org/2000/svg" xmlns:ev="http://www.w3.org/2001/xml-events" xmlns:xlink="http://www.w3.org/1999/xlink"><defs /><polyline fill="none" points="112.35,105.0 111.3,106.39999999999999 111.64999999999999,108.5 113.39999999999999,107.8" stroke="#aaa" stroke-width="1" /><polyline fill="none" points="103.25,106.75 103.25,110.6 106.05,110.25 106.75,108.5 106.39999999999999,107.8" stroke="#aaa" stroke-width="1" /><polyline fill="none" points="105.69999999999999,88.55 107.1,89.94999999999999 108.85,89.6 110.25,90.3 112.35,92.39999999999999 112.69999999999999,94.14999999999999 114.44999999999999,94.85 113.39999999999999,95.89999999999999 112.35,94.85 113.05,95.89999999999999 114.8,95.19999999999999 116.19999999999999,95.89999999999999 117.94999999999999,95.89999999999999 118.64999999999999,96.6 117.24999999999999,96.94999999999999 121.8,96.94999999999999 122.49999999999999,98.0 123.89999999999999,98.69999999999999 124.6,100.44999999999999 125.3,100.8 123.89999999999999,98.35 121.8,96.94999999999999 119.35,96.94999999999999 118.3,95.89999999999999 116.55,95.89999999999999 113.05,94.14999999999999 112.0,91.69999999999999 109.89999999999999,89.94999999999999 110.6,89.25 111.64999999999999,89.94999999999999 112.69999999999999,89.6 113.39999999999999,90.64999999999999 112.69999999999999,89.6 110.25,89.25 109.89999999999999,89.94999999999999 107.1,89.94999999999999" stroke="#aaa" stroke-width="1" /><polyline fill="none" points="107.1,124.24999999999999 106.39999999999999,125.3 107.1,127.39999999999999 106.39999999999999,128.45 106.75,129.85 105.69999999999999,130.9 107.1,130.2 107.1,127.74999999999999 108.85,131.25 108.5,132.65 107.8,132.65 107.8,131.25 106.75,131.25 106.05,131.95 105.0,131.25 104.3,127.74999999999999 102.89999999999999,128.1 103.6,128.79999999999998 102.19999999999999,129.5 103.25,129.5 103.6,128.79999999999998 105.35,131.95 107.44999999999999,131.25 107.8,133.35 108.5,133.0 109.55,129.15 107.44999999999999,126.69999999999999 107.8,125.99999999999999 106.75,124.94999999999999" stroke="#aaa" stroke-width="1" /><polyline fill="none" points="129.5,127.39999999999999 128.45,128.1 127.74999999999999,129.85 127.05,129.85 125.3,131.95 121.8,134.04999999999998 120.74999999999999,132.65 120.74999999999999,134.04999999999998 120.39999999999999,134.39999999999998 119.69999999999999,133.35 118.99999999999999,133.35 118.99999999999999,134.75 117.24999999999999,136.14999999999998 113.74999999999999,136.14999999999998 111.64999999999999,137.2 106.39999999999999,137.2 106.05,136.85 107.1,135.79999999999998 106.05,136.85 104.64999999999999,136.85 100.44999999999999,135.45 98.35,134.04999999999998 96.25,134.04999999999998 92.75,131.6 96.25,134.04999999999998 96.94999999999999,133.7 98.69999999999999,134.39999999999998 99.05,135.1 99.39999999999999,134.75 104.64999999999999,136.85 111.64999999999999,137.2 113.39999999999999,136.5 113.39999999999999,138.25 112.0,139.29999999999998 110.6,139.29999999999998 112.35,139.29999999999998 113.05,138.6 113.39999999999999,139.64999999999998 113.05,138.6 114.1,136.5 117.24999999999999,136.14999999999998 118.64999999999999,135.1 121.1,135.45 122.14999999999999,133.7 125.64999999999999,131.95" stroke="#aaa" stroke-width="1" /><polyline fill="none" points="94.85,91.35 93.8,92.39999999999999 93.1,92.05 93.44999999999999,91.35 91.69999999999999,93.1 93.8,92.39999999999999 94.85,91.35 95.55,92.05 93.44999999999999,95.19999999999999 93.8,95.55 92.39999999999999,99.39999999999999 93.1,98.35 92.75,98.0 93.44999999999999,96.6 94.14999999999999,98.35 93.1,99.39999999999999 93.1,100.1 92.39999999999999,100.1 92.75,100.44999999999999 91.69999999999999,102.55 89.94999999999999,103.94999999999999 89.94999999999999,105.0 89.25,105.35 89.25,104.3 88.89999999999999,105.69999999999999 88.19999999999999,105.69999999999999 87.85,105.0 87.85,108.14999999999999 88.55,109.19999999999999 87.85,109.89999999999999 87.14999999999999,109.55 87.14999999999999,110.6 88.19999999999999,111.64999999999999 88.55,113.74999999999999 87.5,110.6 88.89999999999999,108.85 88.55,109.19999999999999 87.85,108.14999999999999 88.19999999999999,106.39999999999999 89.94999999999999,105.35 89.94999999999999,104.3 91.35,103.25 92.05,101.5 94.5,99.39999999999999 93.44999999999999,95.89999999999999 95.55,92.75 95.55,91.69999999999999" stroke="#aaa" stroke-width="1" /><polyline fill="none" points="86.1,114.44999999999999 85.39999999999999,114.8 85.39999999999999,116.19999999999999 86.8,118.64999999999999 86.1,119.35 86.8,118.99999999999999 86.8,118.3 85.39999999999999,116.19999999999999 85.75,114.8 87.14999999999999,116.89999999999999 88.19999999999999,117.24999999999999 89.25,121.1 89.94999999999999,121.44999999999999 89.6,122.49999999999999 88.55,121.44999999999999 88.55,120.74999999999999 89.25,122.14999999999999 88.19999999999999,123.19999999999999 89.25,122.14999999999999 89.6,122.49999999999999 88.89999999999999,123.55 89.25,125.64999999999999 88.89999999999999,123.55 89.6,122.85 90.64999999999999,123.89999999999999 91.0,123.55 90.64999999999999,121.44999999999999 91.69999999999999,119.69999999999999 91.0,119.69999999999999 91.35,120.39999999999999 90.64999999999999,121.44999999999999 90.64999999999999,123.55 89.94999999999999,122.85 89.94999999999999,121.44999999999999 89.25,120.39999999999999 90.3,120.39999999999999 90.64999999999999,117.94999999999999 92.39999999999999,119.35 90.3,117.94999999999999 90.3,119.35 89.6,120.05 88.55,118.64999999999999 88.89999999999999,118.3 88.19999999999999,116.55 87.5,116.89999999999999" stroke="#aaa" stroke-width="1" /><polyline fill="none" points="103.94999999999999,75.6 105.0,75.94999999999999 105.35,80.14999999999999 107.1,80.85 106.39999999999999,81.55 105.69999999999999,81.19999999999999 107.8,81.89999999999999 108.14999999999999,82.6 107.1,82.6 108.5,83.64999999999999 112.0,85.05 114.1,85.39999999999999 117.6,84.69999999999999 123.19999999999999,81.89999999999999 124.94999999999999,81.89999999999999 122.85,81.55 122.85,82.25 117.6,84.69999999999999 116.55,84.69999999999999 115.85,84.0 116.19999999999999,84.35 115.49999999999999,85.05 112.0,85.05 108.85,83.64999999999999 108.14999999999999,82.94999999999999 108.85,82.25 107.1,81.89999999999999 106.75,81.19999999999999 107.1,80.85 109.55,81.55 113.74999999999999,81.55 114.1,80.85 116.55,80.14999999999999 118.64999999999999,80.5 117.6,80.14999999999999 118.3,79.44999999999999 119.69999999999999,79.44999999999999 118.3,79.44999999999999 116.19999999999999,80.5 115.14999999999999,80.14999999999999 115.14999999999999,79.44999999999999 116.19999999999999,78.75 116.55,77.0 115.85,76.3 116.89999999999999,75.94999999999999 117.6,76.64999999999999 117.24999999999999,77.35 117.6,76.3 115.85,75.94999999999999 116.19999999999999,78.39999999999999 114.8,79.44999999999999 114.44999999999999,79.1 115.49999999999999,80.5 115.14999999999999,80.85 113.39999999999999,80.5 113.39999999999999,81.19999999999999 109.89999999999999,81.55 106.75,80.5 107.8,79.44999999999999 111.3,79.1 111.64999999999999,78.39999999999999 110.94999999999999,77.0 112.69999999999999,75.6 111.64999999999999,75.6 112.0,75.94999999999999 109.89999999999999,77.69999999999999 109.55,76.64999999999999 106.39999999999999,79.44999999999999 108.85,77.35 109.55,77.35 109.89999999999999,78.39999999999999 110.6,77.0 111.64999999999999,78.75 111.3,79.1 108.85,78.75 108.5,79.44999999999999 107.44999999999999,79.44999999999999 106.39999999999999,80.5 105.35,79.8 105.69999999999999,79.1 105.0,79.1 105.0,75.94999999999999 106.05,73.85 105.35,73.85 105.0,75.94999999999999" stroke="#aaa" stroke-width="1" /><polyline fill="none" points="64.05,62.3 63.349999999999994,62.65 61.24999999999999,69.3 60.9,76.64999999999999 61.949999999999996,80.5 62.99999999999999,81.55 63.349999999999994,85.39999999999999 63.349999999999994,84.35 64.05,84.35 64.39999999999999,86.1 65.45,87.5 65.45,88.89999999999999 68.94999999999999,95.55 67.89999999999999,97.3 67.89999999999999,100.1 74.19999999999999,111.64999999999999 78.05,116.19999999999999 79.44999999999999,116.55 80.5,117.6 80.5,118.3 82.6,121.1 81.89999999999999,122.14999999999999 82.6,122.49999999999999 81.89999999999999,122.14999999999999 82.6,121.44999999999999 84.69999999999999,123.89999999999999 84.69999999999999,124.6 92.05,131.95 94.5,139.29999999999998 92.05,146.64999999999998 91.0,148.04999999999998 91.69999999999999,147.7 92.05,148.75 91.69999999999999,147.35 92.39999999999999,144.54999999999998 94.5,140.7 94.5,139.29999999999998 92.39999999999999,134.04999999999998 92.05,131.6 90.3,129.15 89.94999999999999,129.5 88.89999999999999,128.1 88.19999999999999,128.1 86.44999999999999,125.64999999999999 84.69999999999999,124.24999999999999 84.69999999999999,123.55 83.3,122.14999999999999 80.5,117.24999999999999 78.39999999999999,116.19999999999999 75.25,112.69999999999999 67.89999999999999,100.1 67.89999999999999,97.3 69.3,95.89999999999999 65.45,88.55 65.45,87.14999999999999 63.349999999999994,83.64999999999999 62.99999999999999,81.55 61.599999999999994,79.44999999999999 60.9,76.64999999999999 61.24999999999999,69.3 63.349999999999994,64.05 62.99999999999999,63.699999999999996" stroke="#aaa" stroke-width="1" /><polyline fill="none" points="93.8,81.89999999999999 90.64999999999999,80.85 87.85,80.85 84.35,81.89999999999999 82.25,83.64999999999999 81.19999999999999,85.75 81.19999999999999,87.85 81.55,85.05 83.3,82.94999999999999 85.39999999999999,81.55 87.85,80.85 90.64999999999999,80.85 92.75,82.25 90.64999999999999,82.25 91.35,82.94999999999999 90.3,83.64999999999999 89.94999999999999,83.3 90.3,85.05 88.89999999999999,86.1 86.44999999999999,86.8 85.05,84.35 84.35,84.35 83.64999999999999,86.44999999999999 85.75,86.1 86.44999999999999,86.8 87.5,86.8 89.94999999999999,85.39999999999999 91.69999999999999,85.75 89.94999999999999,85.39999999999999 90.3,83.64999999999999 91.69999999999999,82.6 93.1,82.94999999999999 91.0,84.35 92.75,83.3 93.8,83.3 93.1,82.94999999999999 93.8,82.6 92.75,82.25" stroke="#aaa" stroke-width="1" /><polyline fill="none" points="106.05,78.39999999999999 110.6,73.14999999999999 113.05,72.44999999999999 117.6,73.14999999999999 119.35,74.19999999999999 121.1,76.64999999999999 122.49999999999999,76.64999999999999 125.3,78.05 126.35,77.69999999999999 125.3,78.05 123.89999999999999,77.0 121.44999999999999,76.64999999999999 120.05,75.25 121.44999999999999,75.25 117.6,73.14999999999999 111.3,72.1 112.69999999999999,72.44999999999999 110.94999999999999,73.14999999999999 109.55,72.8 110.25,73.14999999999999 109.19999999999999,74.19999999999999 108.85,73.85 109.19999999999999,74.19999999999999" stroke="#aaa" stroke-width="1" /><polyline fill="none" points="123.55,148.04999999999998 124.24999999999999,148.04999999999998 125.3,149.1 124.6,149.45 126.35,149.79999999999998 127.05,149.1 128.79999999999998,149.1 127.39999999999999,149.1 125.99999999999999,147.7 125.3,147.7 125.99999999999999,148.04999999999998 124.94999999999999,148.75 124.24999999999999,148.04999999999998 124.94999999999999,146.64999999999998 126.69999999999999,146.29999999999998 124.94999999999999,146.64999999999998" stroke="#aaa" stroke-width="1" /><polyline fill="none" points="133.35,59.15 133.35,59.849999999999994 135.1,60.55 134.75,62.65 135.45,63.349999999999994 135.79999999999998,65.1 135.45,66.5 136.5,69.64999999999999 137.2,75.94999999999999 138.95,76.64999999999999 140.35,78.75 140.7,81.19999999999999 143.85,87.85 144.54999999999998,91.0 144.54999999999998,95.19999999999999 142.79999999999998,98.69999999999999 141.04999999999998,100.1 138.25,101.14999999999999 139.29999999999998,103.6 140.0,101.5 139.29999999999998,101.5 139.64999999999998,101.85 138.95,102.55 138.25,101.14999999999999 140.7,100.44999999999999 142.79999999999998,99.05 144.54999999999998,95.19999999999999 144.54999999999998,91.0 143.85,87.85 140.7,81.19999999999999 139.64999999999998,77.0 137.54999999999998,75.94999999999999 136.85,74.55 137.2,74.19999999999999 136.5,72.1 136.5,69.64999999999999 135.45,66.5 135.45,63.699999999999996 136.14999999999998,62.99999999999999 136.5,64.39999999999999 136.5,62.99999999999999 135.1,61.24999999999999 135.45,59.15 134.75,60.199999999999996" stroke="#aaa" stroke-width="1" /><polyline fill="none" points="140.0,149.45 139.29999999999998,148.75 137.89999999999998,149.45 137.54999999999998,150.5 138.25,150.14999999999998 139.64999999999998,150.85" stroke="#aaa" stroke-width="1" /><polyline fill="none" points="93.44999999999999,152.95 93.8,155.04999999999998 93.44999999999999,155.39999999999998 93.1,154.35 93.1,157.85 93.8,158.54999999999998 95.89999999999999,158.89999999999998 98.35,161.35 99.39999999999999,161.35 97.3,157.5 97.64999999999999,156.79999999999998 103.25,165.2 103.6,166.25 102.89999999999999,166.6 103.94999999999999,166.25 96.6,155.04999999999998 96.6,156.45 99.39999999999999,161.0 98.69999999999999,161.35 96.6,159.25 93.44999999999999,158.2 93.1,157.5 93.8,154.0 94.85,152.95 95.19999999999999,153.29999999999998 94.5,152.95 93.8,153.64999999999998" stroke="#aaa" stroke-width="1" /><polyline fill="none" points="143.14999999999998,122.85 143.14999999999998,123.55 145.25,124.24999999999999 146.29999999999998,130.54999999999998 147.35,131.95 146.64999999999998,143.14999999999998 145.95,144.89999999999998 145.25,150.5 145.95,144.89999999999998 146.64999999999998,143.14999999999998 147.35,132.29999999999998 148.39999999999998,132.65 150.85,136.85 152.25,138.25 151.89999999999998,138.6 152.25,138.25 154.35,139.64999999999998 162.75,147.7 163.79999999999998,148.04999999999998 150.85,136.5 148.39999999999998,132.29999999999998 147.7,132.29999999999998 146.64999999999998,131.25 145.25,124.24999999999999 143.85,123.55 145.25,123.19999999999999 147.0,124.6 154.0,133.7 161.35,140.35 162.75,140.35 163.45,138.6 164.85,138.95 163.79999999999998,138.6 161.0,135.1 161.7,134.39999999999998 163.1,134.39999999999998 164.5,135.45 164.14999999999998,135.79999999999998 162.04999999999998,135.1 166.25,136.85 170.45,137.54999999999998 170.79999999999998,137.89999999999998 170.1,138.25 170.79999999999998,138.25 171.14999999999998,136.85 170.45,137.54999999999998 166.25,136.85 166.25,136.14999999999998 168.0,136.14999999999998 164.5,136.14999999999998 164.14999999999998,135.79999999999998 165.2,135.45 163.1,134.39999999999998 161.7,134.39999999999998 160.64999999999998,135.45 159.95,135.45 158.54999999999998,134.04999999999998 159.6,135.1 159.25,135.79999999999998 157.5,134.04999999999998 157.85,133.7 157.5,134.04999999999998 150.85,128.1 158.2,135.45 161.0,135.45 163.45,138.6 162.75,140.0 161.7,140.35 154.0,133.35 147.7,124.94999999999999 145.6,123.19999999999999" stroke="#aaa" stroke-width="1" /><polyline fill="none" points="135.1,152.25 135.1,153.64999999999998 136.14999999999998,154.35 135.45,154.7 133.7,153.64999999999998 135.1,155.04999999999998 134.39999999999998,157.85 134.75,158.2 133.0,160.64999999999998 130.9,161.0 130.9,161.7 131.25,161.0 132.65,160.64999999999998 133.35,161.35 134.39999999999998,159.95 135.1,160.29999999999998 135.1,161.35 135.1,159.95 136.14999999999998,157.85 137.89999999999998,156.79999999999998 135.1,158.2 134.39999999999998,157.85 135.1,156.79999999999998 135.1,155.04999999999998 136.14999999999998,154.7" stroke="#aaa" stroke-width="1" /><polyline fill="none" points="147.35,141.39999999999998 148.04999999999998,148.39999999999998 144.89999999999998,155.04999999999998 144.89999999999998,157.14999999999998 144.89999999999998,155.04999999999998 148.04999999999998,148.39999999999998 148.75,149.45 150.14999999999998,148.39999999999998 152.6,148.04999999999998 151.2,147.7 152.6,147.35 152.95,146.64999999999998 153.64999999999998,147.35 153.29999999999998,147.7 153.64999999999998,147.35 154.7,148.39999999999998 154.0,149.1 155.39999999999998,149.45 155.39999999999998,148.04999999999998 156.45,147.7 155.39999999999998,148.04999999999998 155.04999999999998,147.35 155.75,147.0 155.04999999999998,147.35 149.1,142.1 155.04999999999998,147.35 155.04999999999998,148.75 148.04999999999998,142.1 152.95,146.64999999999998 152.25,147.35 149.79999999999998,147.7 149.45,148.04999999999998 151.54999999999998,148.04999999999998 148.75,149.1 148.75,148.39999999999998 148.39999999999998,148.75 147.7,147.7" stroke="#aaa" stroke-width="1" /><polyline fill="none" points="91.0,149.1 88.89999999999999,151.2 84.69999999999999,153.64999999999998 83.64999999999999,155.04999999999998 82.94999999999999,155.04999999999998 81.89999999999999,156.45 79.44999999999999,157.85 74.55,163.1 73.14999999999999,163.45 70.69999999999999,165.89999999999998 73.5,163.45 74.89999999999999,163.1 77.35,159.95 90.64999999999999,149.79999999999998 91.0,152.25 89.94999999999999,156.45 86.8,159.25 86.1,159.25 87.5,158.89999999999998 89.94999999999999,156.79999999999998 90.64999999999999,154.0" stroke="#aaa" stroke-width="1" /><polyline fill="none" points="116.55,163.45 116.89999999999999,163.79999999999998 117.94999999999999,163.1 119.35,163.1 121.1,164.85 122.85,163.79999999999998 123.19999999999999,165.2 122.49999999999999,165.54999999999998 125.64999999999999,164.85 125.99999999999999,165.89999999999998 127.05,165.89999999999998 127.39999999999999,165.2 128.1,165.54999999999998 127.74999999999999,165.89999999999998 129.15,165.2 130.2,165.54999999999998 130.2,164.14999999999998 132.29999999999998,165.2 131.6,165.89999999999998 130.9,165.54999999999998 130.9,166.6 132.29999999999998,165.54999999999998 132.29999999999998,164.85 131.6,164.5 131.95,164.14999999999998 133.7,164.85 136.14999999999998,164.85 135.79999999999998,165.54999999999998 136.14999999999998,164.5 135.1,164.5 134.04999999999998,163.1 135.1,164.5 134.75,164.85 131.25,163.79999999999998 131.25,164.5 127.39999999999999,164.14999999999998 125.99999999999999,163.45 125.99999999999999,162.39999999999998 125.99999999999999,164.14999999999998 127.05,163.79999999999998 127.39999999999999,164.5 124.94999999999999,165.2 123.19999999999999,165.2 123.19999999999999,163.79999999999998 120.74999999999999,164.5 120.39999999999999,164.14999999999998 121.8,163.45 120.39999999999999,164.14999999999998 119.35,163.1" stroke="#aaa" stroke-width="1" /><polyline fill="none" points="62.3,82.25 59.849999999999994,81.89999999999999 59.15,83.3 59.15,86.8 59.849999999999994,89.6 60.55,90.3 60.199999999999996,98.35 61.24999999999999,102.55 60.55,105.69999999999999 59.849999999999994,105.35 60.199999999999996,101.85 59.849999999999994,105.0 59.15,105.69999999999999 58.8,104.64999999999999 59.49999999999999,106.05 58.449999999999996,106.39999999999999 58.8,108.14999999999999 58.099999999999994,108.5 58.099999999999994,110.94999999999999 57.4,112.0 57.4,117.94999999999999 56.699999999999996,118.99999999999999 56.349999999999994,126.35 58.099999999999994,128.1 58.099999999999994,129.85 57.74999999999999,130.2 57.4,128.45 56.349999999999994,127.39999999999999 55.65,127.39999999999999 53.9,131.95 50.75,136.14999999999998 38.15,147.7 36.4,152.6 36.75,153.29999999999998 37.449999999999996,153.29999999999998 36.75,153.29999999999998 36.4,152.6 37.8,148.39999999999998 50.05,137.2 50.4,137.54999999999998 50.05,137.2 53.55,132.65 54.25,134.75 54.25,137.54999999999998 54.25,134.75 53.55,132.65 54.25,131.95 56.699999999999996,131.95 58.099999999999994,130.2 58.099999999999994,128.1 57.4,126.69999999999999 56.349999999999994,125.99999999999999 56.699999999999996,118.99999999999999 57.4,117.94999999999999 57.4,112.0 58.099999999999994,110.94999999999999 58.099999999999994,109.55 59.15,109.19999999999999 58.8,108.5 59.849999999999994,107.8 59.849999999999994,106.39999999999999 59.15,105.69999999999999 60.9,105.35 61.24999999999999,102.55 60.199999999999996,98.35 60.55,90.3 61.24999999999999,90.3 60.199999999999996,89.94999999999999 60.55,88.55 60.199999999999996,89.6 59.49999999999999,88.55 59.15,83.64999999999999 60.199999999999996,82.25" stroke="#aaa" stroke-width="1" /><polyline fill="none" points="89.6,158.89999999999998 89.25,159.95 88.89999999999999,158.89999999999998 88.19999999999999,159.95 86.1,159.95 85.39999999999999,160.64999999999998 86.1,159.95 88.89999999999999,159.6 89.25,162.39999999999998 87.5,164.85 86.44999999999999,165.2 85.05,166.95 83.64999999999999,166.95 83.3,168.35 82.25,167.64999999999998 82.94999999999999,167.29999999999998 81.19999999999999,167.64999999999998 82.25,167.64999999999998 82.94999999999999,168.35 81.55,169.04999999999998 85.05,167.64999999999998 84.35,167.29999999999998 85.75,166.6 86.44999999999999,165.54999999999998 87.14999999999999,166.25 87.85,165.89999999999998 87.14999999999999,166.25 86.44999999999999,165.54999999999998 89.25,162.39999999999998" stroke="#aaa" stroke-width="1" /><polyline fill="none" points="152.25,133.0 159.6,140.35 162.04999999999998,143.5 161.35,144.2 160.64999999999998,143.5 165.54999999999998,148.75 161.35,144.2 162.39999999999998,143.85 163.1,144.89999999999998 165.54999999999998,145.6 165.2,144.54999999999998 164.85,145.25 163.45,144.89999999999998 159.6,140.0" stroke="#aaa" stroke-width="1" /><polyline fill="none" points="96.25,169.39999999999998 96.6,169.04999999999998 98.35,170.79999999999998 98.35,171.5 102.19999999999999,173.25 103.94999999999999,175.0 102.19999999999999,173.25 103.25,173.25 101.85,172.2 103.6,171.5 105.69999999999999,173.95 106.39999999999999,176.39999999999998 107.1,177.1 106.75,177.79999999999998 105.69999999999999,176.39999999999998 105.35,177.1 103.94999999999999,176.04999999999998 104.64999999999999,175.35 105.35,175.7 104.3,173.25 105.0,175.0 103.6,176.39999999999998 99.75,174.64999999999998 100.8,173.95 100.44999999999999,173.25 100.8,173.6 99.75,175.0 105.0,176.75 107.44999999999999,178.85 106.75,178.14999999999998 107.44999999999999,177.45 106.39999999999999,176.04999999999998 106.05,174.29999999999998 103.25,170.79999999999998 103.25,169.75 102.89999999999999,170.45 101.5,168.7 102.19999999999999,170.1 103.25,170.79999999999998 101.5,172.2 101.5,171.5 101.14999999999999,171.85 99.75,169.75 100.1,170.45 99.39999999999999,170.45 99.75,171.5 99.05,171.85 98.35,171.14999999999998 98.69999999999999,170.79999999999998 96.94999999999999,169.39999999999998 97.3,168.7 98.0,169.39999999999998 97.3,168.7 98.0,168.35 99.05,169.75 98.0,168.35 98.69999999999999,167.64999999999998 100.8,167.29999999999998 102.55,168.0 102.55,167.29999999999998 99.75,166.6 100.8,166.6 100.8,167.29999999999998 98.69999999999999,167.64999999999998" stroke="#aaa" stroke-width="1" /><polyline fill="none" points="45.849999999999994,101.14999999999999 45.849999999999994,102.89999999999999 47.599999999999994,102.55 47.949999999999996,101.85 50.75,102.19999999999999 51.099999999999994,102.89999999999999 52.849999999999994,103.25 53.9,104.64999999999999 53.55,101.85 48.65,102.19999999999999 47.25,101.14999999999999" stroke="#aaa" stroke-width="1" /><polyline fill="none" points="121.44999999999999,42.349999999999994 122.85,43.75 123.89999999999999,46.55 126.35,49.0 126.35,49.699999999999996 129.85,53.199999999999996 131.95,52.849999999999994 131.95,55.3 133.35,54.599999999999994 133.7,56.699999999999996 134.75,56.699999999999996 133.7,56.0 134.75,54.599999999999994 135.1,54.949999999999996 134.75,54.25 132.65,53.199999999999996 133.35,51.8 132.65,51.8 131.6,53.199999999999996 130.2,53.199999999999996 128.45,51.449999999999996 129.15,50.75 130.54999999999998,52.5 129.15,50.75 130.2,49.349999999999994 130.54999999999998,51.099999999999994 130.54999999999998,48.3 129.85,50.05 128.45,51.099999999999994 124.6,47.25 122.85,43.4" stroke="#aaa" stroke-width="1" /><polyline fill="none" points="151.2,141.04999999999998 153.29999999999998,143.85 158.54999999999998,148.39999999999998 158.54999999999998,149.1 164.5,149.79999999999998 163.1,149.79999999999998 163.1,149.1 165.89999999999998,149.45 166.25,149.79999999999998 165.2,150.14999999999998 166.6,150.5 166.95,151.54999999999998 167.29999999999998,150.85 168.35,151.54999999999998 168.0,151.89999999999998 168.7,151.54999999999998 170.1,153.64999999999998 170.79999999999998,153.64999999999998 170.1,151.89999999999998 170.79999999999998,152.95 170.45,153.64999999999998 169.39999999999998,151.89999999999998 166.6,150.5 167.64999999999998,150.14999999999998 169.39999999999998,151.2 164.85,149.1 158.54999999999998,148.39999999999998" stroke="#aaa" stroke-width="1" /><polyline fill="none" points="56.699999999999996,147.7 57.4,149.79999999999998 57.05,150.85 57.74999999999999,150.85 58.449999999999996,154.0 58.449999999999996,152.6 59.15,152.6 59.15,154.7 58.449999999999996,150.14999999999998 57.74999999999999,149.45 57.74999999999999,148.39999999999998" stroke="#aaa" stroke-width="1" /><polyline fill="none" points="88.89999999999999,178.14999999999998 89.25,181.29999999999998 89.94999999999999,181.29999999999998 89.6,178.14999999999998 92.05,174.29999999999998 95.19999999999999,177.45 94.85,178.5 92.05,175.7 94.5,178.5 95.19999999999999,178.5 95.19999999999999,177.1 92.05,174.29999999999998 94.14999999999999,171.5 96.6,173.95 100.1,176.04999999999998 99.39999999999999,178.85 99.39999999999999,182.7 104.3,182.35 99.75,182.7 99.39999999999999,180.95 100.1,180.25 100.8,180.6 100.44999999999999,181.29999999999998 105.0,181.29999999999998 106.39999999999999,182.35 106.39999999999999,181.64999999999998 107.8,181.64999999999998 108.5,182.35 111.64999999999999,182.35 107.8,181.64999999999998 106.05,182.0 105.0,181.29999999999998 102.89999999999999,181.64999999999998 101.85,180.95 102.19999999999999,180.6 104.64999999999999,180.6 103.25,179.89999999999998 102.89999999999999,180.6 99.75,180.25 99.39999999999999,178.85 100.1,177.1 105.69999999999999,178.5 106.75,180.6 106.75,179.2 106.39999999999999,179.54999999999998 106.05,178.5 102.89999999999999,177.45 100.8,177.45 99.75,175.7 94.14999999999999,171.5 92.05,173.6 89.6,178.14999999999998 89.94999999999999,180.95 89.6,181.29999999999998 88.89999999999999,180.25" stroke="#aaa" stroke-width="1" /><polyline fill="none" points="37.449999999999996,108.85 37.8,111.3 40.949999999999996,113.74999999999999 40.949999999999996,115.14999999999999 40.25,116.19999999999999 41.65,117.6 40.599999999999994,116.55 40.599999999999994,114.8 41.65,114.1 43.75,115.85 43.05,116.19999999999999 44.449999999999996,115.49999999999999 45.15,116.55 45.5,116.19999999999999 46.199999999999996,116.89999999999999 44.099999999999994,116.89999999999999 45.15,117.94999999999999 45.15,118.99999999999999 45.5,118.3 46.9,118.64999999999999 44.8,117.6 46.9,117.6 46.55,117.24999999999999 47.599999999999994,116.55 48.3,119.69999999999999 47.599999999999994,117.6 48.3,116.19999999999999 47.949999999999996,116.55 46.199999999999996,115.49999999999999 46.199999999999996,116.89999999999999 44.099999999999994,114.8 44.449999999999996,113.74999999999999 46.199999999999996,114.8 46.55,114.1 45.5,114.44999999999999 45.5,113.39999999999999 44.8,113.74999999999999 41.65,111.64999999999999 40.25,111.64999999999999 41.3,111.64999999999999 43.4,113.74999999999999 43.4,112.69999999999999 44.449999999999996,113.74999999999999 44.099999999999994,115.85 42.0,114.1 41.3,114.1 40.25,112.69999999999999 39.55,112.69999999999999 37.8,110.94999999999999 38.5,110.6 37.449999999999996,110.6" stroke="#aaa" stroke-width="1" /><polyline fill="none" points="34.65,102.19999999999999 36.05,103.25 36.4,104.64999999999999 37.8,106.05 42.0,107.8 45.849999999999994,108.5 45.849999999999994,107.8 49.349999999999994,107.8 48.65,107.44999999999999 44.099999999999994,108.14999999999999 41.65,107.44999999999999 41.3,106.75 42.349999999999994,106.39999999999999 41.3,106.05 42.349999999999994,105.0 43.75,105.69999999999999 42.349999999999994,105.0 42.699999999999996,104.3 44.099999999999994,104.3 44.449999999999996,105.69999999999999 47.25,105.35 47.949999999999996,106.05 47.949999999999996,105.0 51.099999999999994,105.0 49.0,104.64999999999999 45.5,105.69999999999999 45.15,105.0 45.849999999999994,104.3 46.9,104.64999999999999 46.9,103.94999999999999 48.3,103.94999999999999 47.949999999999996,103.6 48.65,103.25 49.349999999999994,103.6 47.949999999999996,103.25 47.599999999999994,103.94999999999999 45.15,104.64999999999999 44.449999999999996,104.3 44.8,103.94999999999999 43.05,104.64999999999999 42.349999999999994,103.94999999999999 40.599999999999994,103.6 40.599999999999994,104.3 39.199999999999996,103.94999999999999 40.599999999999994,104.3 40.599999999999994,105.0 40.949999999999996,103.94999999999999 42.0,103.94999999999999 42.349999999999994,104.64999999999999 40.949999999999996,106.05 41.65,106.39999999999999 40.25,107.1 38.15,106.05" stroke="#aaa" stroke-width="1" /><polyline fill="none" points="111.3,180.25 117.6,180.6 120.05,181.29999999999998 122.49999999999999,183.04999999999998 129.15,183.39999999999998 129.85,182.0 130.54999999999998,182.35 127.05,180.25 120.39999999999999,179.89999999999998 127.74999999999999,180.6 129.5,182.0 129.15,183.39999999999998 122.85,183.04999999999998 122.14999999999999,182.35 122.49999999999999,182.0 124.24999999999999,182.0 125.3,181.29999999999998 124.24999999999999,182.0 121.8,182.35 118.99999999999999,180.95 123.19999999999999,180.6 120.74999999999999,180.95 117.94999999999999,179.89999999999998 116.89999999999999,179.89999999999998 117.6,179.89999999999998 117.6,180.6" stroke="#aaa" stroke-width="1" /><polyline fill="none" points="153.29999999999998,150.14999999999998 151.89999999999998,150.14999999999998 153.29999999999998,150.5 152.6,150.85 152.95,151.54999999999998 151.54999999999998,153.29999999999998 151.89999999999998,153.64999999999998 150.14999999999998,154.35 149.1,153.64999999999998 149.45,153.29999999999998 148.75,151.2 149.79999999999998,150.5 150.5,150.85 151.2,150.14999999999998 148.04999999999998,151.2 145.6,156.1 148.04999999999998,152.6 148.39999999999998,153.64999999999998 147.7,151.89999999999998 148.04999999999998,151.54999999999998 149.1,152.6 148.39999999999998,155.39999999999998 148.75,155.75 147.35,158.89999999999998 146.64999999999998,158.2 147.35,158.89999999999998 146.64999999999998,159.95 145.6,158.2 144.54999999999998,157.85 145.6,158.2 145.6,158.89999999999998 146.64999999999998,159.95 146.64999999999998,161.0 144.89999999999998,163.45 144.2,165.54999999999998 142.79999999999998,165.89999999999998 144.2,165.89999999999998 144.54999999999998,164.14999999999998 146.29999999999998,162.04999999999998 147.0,162.75 145.95,163.45 144.89999999999998,166.25 143.85,167.29999999999998 143.14999999999998,166.6 140.35,167.29999999999998 140.7,172.54999999999998 140.0,172.89999999999998 140.35,173.25 139.64999999999998,174.64999999999998 138.25,175.35 136.5,178.5 138.25,175.7 138.6,176.39999999999998 139.64999999999998,174.64999999999998 140.0,175.7 137.54999999999998,178.14999999999998 138.95,177.45 140.0,178.5 139.29999999999998,178.85 138.6,178.14999999999998 137.2,179.54999999999998 135.45,178.5 136.14999999999998,177.79999999999998 135.79999999999998,177.1 136.85,176.39999999999998 137.54999999999998,175.0 135.79999999999998,177.1 135.45,178.85 136.14999999999998,179.2 133.7,180.95 133.7,181.64999999999998 134.04999999999998,180.95 134.39999999999998,181.64999999999998 134.04999999999998,180.95 135.45,179.54999999999998 137.2,179.54999999999998 135.1,180.95 137.2,179.89999999999998 138.6,178.14999999999998 138.95,178.85 140.0,178.5 142.45,180.6 142.1,181.29999999999998 140.0,179.54999999999998 145.95,184.45 149.79999999999998,188.64999999999998 146.29999999999998,184.79999999999998 146.64999999999998,184.1 150.85,188.64999999999998 152.25,189.35 151.89999999999998,190.04999999999998 151.2,189.35 150.14999999999998,190.04999999999998 149.79999999999998,189.7 150.14999999999998,190.39999999999998 145.25,199.5 143.5,206.14999999999998 145.6,198.79999999999998 147.0,197.04999999999998 149.1,192.14999999999998 151.2,189.35 151.89999999999998,190.04999999999998 151.89999999999998,191.1 146.64999999999998,204.75 145.6,209.29999999999998 144.89999999999998,209.64999999999998 143.85,208.25 143.85,206.85 143.14999999999998,206.85 143.14999999999998,208.25 143.5,206.85 144.54999999999998,209.64999999999998 145.6,209.64999999999998 146.29999999999998,205.79999999999998 151.2,193.54999999999998 151.89999999999998,190.04999999999998 153.64999999999998,190.04999999999998 153.64999999999998,189.0 152.6,187.6 153.64999999999998,187.25 152.6,187.6 149.45,184.1 148.75,182.0 146.29999999999998,179.54999999999998 142.1,172.89999999999998 143.5,176.04999999999998 145.25,177.79999999999998 146.29999999999998,179.89999999999998 148.04999999999998,181.29999999999998 149.79999999999998,184.79999999999998 152.25,187.25 153.64999999999998,189.7 152.95,190.04999999999998 145.6,182.7 144.54999999999998,182.35 138.95,177.1 141.39999999999998,172.89999999999998 141.39999999999998,169.39999999999998 141.39999999999998,172.89999999999998 140.35,174.29999999999998 140.0,173.95 140.7,172.54999999999998 140.7,167.29999999999998 143.5,167.64999999999998 144.2,170.45 143.85,170.79999999999998 143.14999999999998,169.75 142.1,170.79999999999998 143.14999999999998,170.1 144.54999999999998,172.2 143.85,173.6 144.89999999999998,172.54999999999998 143.85,171.14999999999998 144.2,170.45 145.25,171.14999999999998 145.6,172.2 144.89999999999998,170.45 145.95,169.04999999999998 146.64999999999998,169.04999999999998 147.0,168.0 146.29999999999998,169.04999999999998 145.6,169.04999999999998 144.89999999999998,170.45 143.5,168.7 143.5,167.64999999999998 144.54999999999998,166.95 145.95,163.79999999999998 148.04999999999998,161.7 147.7,161.35 149.79999999999998,158.54999999999998 150.14999999999998,156.45 150.85,155.75 150.5,154.7 152.25,153.29999999999998" stroke="#aaa" stroke-width="1" /><polyline fill="none" points="156.45,150.14999999999998 154.35,154.35 152.95,155.75 151.89999999999998,154.7 152.25,155.39999999999998 150.5,158.89999999999998 147.0,164.14999999999998 154.35,171.5 155.04999999999998,172.89999999999998 155.75,179.54999999999998 157.5,186.2 157.14999999999998,187.6 157.85,185.5 158.54999999999998,187.6 159.95,187.95 160.64999999999998,185.14999999999998 160.64999999999998,186.54999999999998 159.6,187.95 158.54999999999998,187.25 157.85,184.79999999999998 157.85,185.5 157.14999999999998,185.5 155.75,179.54999999999998 155.04999999999998,172.89999999999998 154.35,171.14999999999998 151.89999999999998,168.7 152.6,167.64999999999998 154.7,168.0 152.6,167.64999999999998 151.89999999999998,168.7 149.45,165.89999999999998 147.0,164.14999999999998 148.75,162.39999999999998 148.75,161.35 149.45,160.64999999999998 149.79999999999998,161.35 150.85,160.64999999999998 151.2,159.6 150.5,158.54999999999998 151.89999999999998,155.75 152.95,155.75 154.35,154.7" stroke="#aaa" stroke-width="1" /><polyline fill="none" points="73.85,170.45 70.69999999999999,175.35 69.64999999999999,175.35 63.349999999999994,179.2 62.65,180.25 66.14999999999999,177.45 67.55,177.79999999999998 67.55,176.75 70.0,175.35 71.05,175.7 71.75,176.75 71.39999999999999,177.45 71.75,176.75 74.55,178.5 74.55,175.7 74.89999999999999,177.79999999999998 74.19999999999999,178.5 70.69999999999999,175.35 71.39999999999999,175.0" stroke="#aaa" stroke-width="1" /><polyline fill="none" points="96.25,185.85 96.25,189.7 96.94999999999999,190.04999999999998 96.25,190.75 97.64999999999999,189.35 99.75,189.35 101.5,191.1 102.89999999999999,190.39999999999998 101.5,189.7 102.19999999999999,190.39999999999998 101.14999999999999,191.1 100.1,189.7 101.85,188.64999999999998 105.35,189.0 106.05,188.29999999999998 105.0,189.0 103.94999999999999,188.64999999999998 105.69999999999999,187.6 106.05,186.54999999999998 103.6,189.0 101.5,189.0 100.44999999999999,188.29999999999998 100.1,189.35 99.75,188.29999999999998 99.05,188.29999999999998 99.05,189.7 97.64999999999999,189.35 97.3,188.64999999999998 96.94999999999999,189.7 96.6,185.5 97.3,184.79999999999998 98.35,185.14999999999998 99.05,184.45 98.35,185.14999999999998 97.3,184.79999999999998" stroke="#aaa" stroke-width="1" /><polyline fill="none" points="180.95,138.6 179.89999999999998,141.39999999999998 177.79999999999998,144.54999999999998 177.79999999999998,146.29999999999998 179.89999999999998,148.75 181.64999999999998,149.45 185.5,152.95 190.04999999999998,155.75 186.2,153.29999999999998 182.35,149.79999999999998 180.25,148.75 177.79999999999998,145.95 178.14999999999998,143.85 179.89999999999998,141.75" stroke="#aaa" stroke-width="1" /><polyline fill="none" points="70.0,165.54999999999998 62.65,170.79999999999998 59.49999999999999,173.95 58.449999999999996,176.75 59.49999999999999,174.29999999999998 62.99999999999999,170.79999999999998" stroke="#aaa" stroke-width="1" /><polyline fill="none" points="72.44999999999999,170.79999999999998 70.0,173.6 68.25,174.29999999999998 60.199999999999996,179.89999999999998 57.05,183.04999999999998 62.99999999999999,178.14999999999998 70.35,173.6" stroke="#aaa" stroke-width="1" /><polyline fill="none" points="130.2,183.39999999999998 130.54999999999998,185.85 132.65,187.25 134.39999999999998,187.25 135.45,185.14999999999998 137.2,185.14999999999998 138.95,183.75 140.0,185.14999999999998 138.95,185.85 136.5,186.2 136.14999999999998,186.89999999999998 136.85,186.2 139.29999999999998,185.85 140.35,185.14999999999998 145.25,190.04999999999998 144.54999999999998,191.79999999999998 143.5,192.85 141.75,196.7 140.7,197.39999999999998 135.45,193.2 137.89999999999998,192.14999999999998 135.45,193.2 132.65,190.75 133.0,188.29999999999998 132.65,191.1 140.35,197.39999999999998 141.75,197.04999999999998 143.5,193.2 144.89999999999998,191.45 144.89999999999998,189.0 138.6,183.39999999999998 137.2,183.39999999999998 135.79999999999998,185.14999999999998 134.39999999999998,182.7 134.75,182.35 132.29999999999998,182.35" stroke="#aaa" stroke-width="1" /><polyline fill="none" points="25.9,121.8 26.599999999999998,123.19999999999999 35.349999999999994,122.85 35.0,121.8 35.349999999999994,122.49999999999999 34.65,123.19999999999999 27.299999999999997,123.19999999999999 26.95,122.85 27.65,121.1 30.799999999999997,120.05 30.799999999999997,119.35 31.849999999999998,119.35 30.45,119.35 28.7,118.3 29.049999999999997,119.35 29.4,118.64999999999999 30.45,120.05 28.0,120.05 27.299999999999997,121.1" stroke="#aaa" stroke-width="1" /><polyline fill="none" points="185.14999999999998,137.89999999999998 185.85,138.6 182.7,142.45 181.64999999999998,145.95 180.95,145.95 180.95,144.89999999999998 180.95,145.95 182.35,147.7 184.45,148.75 183.75,148.04999999999998 184.45,147.7 186.54999999999998,148.75 187.6,150.14999999999998 187.25,150.5 185.85,149.45 187.6,150.85 187.25,150.5 187.95,150.14999999999998 188.64999999999998,151.2 189.0,150.85 190.39999999999998,151.54999999999998 191.45,150.85 192.85,145.95 194.25,143.85 193.2,144.89999999999998 191.79999999999998,149.79999999999998 190.39999999999998,151.54999999999998 186.89999999999998,148.75 183.04999999999998,147.0 181.64999999999998,145.6 182.0,144.2 186.2,138.6 190.39999999999998,138.95 194.25,142.1 195.29999999999998,141.39999999999998 192.5,139.29999999999998 193.2,138.95 192.5,139.29999999999998 194.95,141.04999999999998 194.25,141.75 190.39999999999998,138.95 185.85,138.6" stroke="#aaa" stroke-width="1" /><polyline fill="none" points="86.1,173.6 85.39999999999999,174.29999999999998 84.35,173.95 85.39999999999999,174.29999999999998 83.64999999999999,176.75 83.64999999999999,179.2 82.94999999999999,181.29999999999998 81.89999999999999,181.64999999999998 80.5,180.25 81.19999999999999,181.29999999999998 82.6,182.0 81.89999999999999,184.1 80.85,184.79999999999998 71.05,184.79999999999998 69.3,185.85 68.6,184.79999999999998 66.5,183.75 66.85,183.04999999999998 67.89999999999999,183.04999999999998 66.14999999999999,183.39999999999998 63.699999999999996,181.29999999999998 60.9,180.95 60.199999999999996,181.29999999999998 60.9,181.64999999999998 55.65,186.89999999999998 58.8,183.39999999999998 62.3,180.95 64.05,181.64999999999998 69.3,185.85 69.3,190.39999999999998 68.25,193.89999999999998 66.5,196.0 66.5,197.39999999999998 65.1,200.54999999999998 64.75,203.7 65.1,200.54999999999998 65.45,200.2 66.14999999999999,200.89999999999998 66.14999999999999,201.95 65.8,201.25 66.5,200.89999999999998 65.45,199.85 67.19999999999999,199.85 66.5,200.2 65.8,199.14999999999998 66.5,196.35 67.89999999999999,194.6 68.25,194.95 67.89999999999999,194.25 69.3,190.39999999999998 69.3,185.85 71.05,184.79999999999998 73.85,185.14999999999998 76.64999999999999,184.45 82.6,184.45 84.0,185.14999999999998 85.75,187.25 88.19999999999999,189.0 87.85,189.35 88.19999999999999,189.0 89.25,190.04999999999998 87.14999999999999,190.04999999999998 86.1,190.75 85.05,190.39999999999998 86.44999999999999,190.39999999999998 87.5,191.45 87.5,192.14999999999998 87.5,191.1 86.8,190.75 87.5,190.04999999999998 88.89999999999999,191.79999999999998 88.19999999999999,190.75 88.55,190.39999999999998 90.3,190.75 89.6,191.45 89.94999999999999,192.5 89.25,192.5 88.89999999999999,193.54999999999998 88.19999999999999,192.85 87.14999999999999,193.2 87.85,192.85 88.89999999999999,193.54999999999998 90.3,192.85 90.3,191.79999999999998 91.0,192.85 91.0,192.14999999999998 90.3,191.79999999999998 90.64999999999999,190.75 93.44999999999999,192.85 94.85,192.5 93.44999999999999,192.85 86.8,187.6 88.55,186.54999999999998 89.25,187.25 88.19999999999999,186.54999999999998 86.8,187.6 84.35,185.14999999999998 81.89999999999999,184.1 83.64999999999999,179.54999999999998 83.64999999999999,176.75" stroke="#aaa" stroke-width="1" /><polyline fill="none" points="23.45,82.25 23.799999999999997,82.94999999999999 25.2,83.3 24.849999999999998,84.69999999999999 28.349999999999998,84.69999999999999 29.749999999999996,85.39999999999999 31.15,84.35 32.199999999999996,86.1 30.099999999999998,86.1 31.849999999999998,86.44999999999999 32.9,87.5 32.9,88.89999999999999 32.199999999999996,88.89999999999999 32.199999999999996,87.85 31.499999999999996,87.14999999999999 32.199999999999996,87.85 31.849999999999998,88.19999999999999 30.799999999999997,87.14999999999999 29.4,87.85 28.349999999999998,87.14999999999999 29.049999999999997,86.1 30.099999999999998,86.8 28.7,85.75 28.0,85.75 29.049999999999997,86.1 28.349999999999998,87.14999999999999 28.0,86.8 28.349999999999998,87.14999999999999 27.65,88.55 28.0,88.89999999999999 28.349999999999998,88.19999999999999 30.45,87.5 31.499999999999996,88.19999999999999 31.499999999999996,89.25 31.499999999999996,88.55 32.199999999999996,88.55 32.9,91.69999999999999 33.949999999999996,91.0 34.65,91.69999999999999 33.599999999999994,90.64999999999999 34.3,90.3 33.949999999999996,89.6 34.3,89.94999999999999 33.599999999999994,91.35 32.9,91.35 33.25,89.94999999999999 32.9,90.3 32.55,89.25 34.65,88.19999999999999 35.0,86.8 34.65,87.85 33.25,88.55 31.849999999999998,86.44999999999999 32.199999999999996,85.39999999999999 31.15,84.35 33.599999999999994,84.35 32.9,84.0 33.25,83.64999999999999 30.799999999999997,84.35 30.099999999999998,83.64999999999999 30.099999999999998,84.35 29.4,84.0 28.7,84.69999999999999 26.599999999999998,85.05 26.25,84.69999999999999 26.95,84.35 25.2,82.94999999999999 23.799999999999997,82.94999999999999" stroke="#aaa" stroke-width="1" /><polyline fill="none" points="15.049999999999999,125.64999999999999 17.5,127.05 17.849999999999998,128.45 19.95,131.25 21.0,131.25 21.7,131.95 22.049999999999997,131.6 22.4,132.29999999999998 24.15,132.65 24.849999999999998,133.35 28.349999999999998,134.39999999999998 29.049999999999997,134.04999999999998 29.4,135.1 29.749999999999996,134.04999999999998 34.3,134.39999999999998 34.65,133.7 35.0,134.39999999999998 35.349999999999994,133.7 36.4,133.7 37.449999999999996,135.1 37.099999999999994,135.79999999999998 37.449999999999996,135.1 36.4,133.7 39.199999999999996,132.29999999999998 41.65,129.85 39.55,131.95 38.15,132.29999999999998 36.4,133.7 34.65,133.7 33.599999999999994,134.39999999999998 28.349999999999998,134.39999999999998 24.849999999999998,133.35 21.349999999999998,131.25 20.299999999999997,131.25 17.849999999999998,128.1 17.5,126.69999999999999" stroke="#aaa" stroke-width="1" /><polyline fill="none" points="176.39999999999998,157.14999999999998 183.04999999999998,165.54999999999998 184.79999999999998,166.25 184.79999999999998,165.2 182.0,162.39999999999998 184.79999999999998,165.54999999999998 184.45,166.25 180.6,162.39999999999998 177.79999999999998,158.54999999999998 178.5,158.2 179.89999999999998,159.6" stroke="#aaa" stroke-width="1" /><polyline fill="none" points="36.4,154.0 36.4,156.1 37.449999999999996,157.14999999999998 37.449999999999996,157.85 36.75,158.2 35.349999999999994,156.79999999999998 35.699999999999996,155.04999999999998 35.349999999999994,157.14999999999998 37.099999999999994,158.89999999999998 37.8,160.64999999999998 38.849999999999994,161.35 40.25,163.79999999999998 38.849999999999994,165.2 40.599999999999994,166.6 41.65,165.89999999999998 40.25,164.14999999999998 39.55,162.04999999999998 37.449999999999996,159.6 37.449999999999996,157.85 39.9,161.0 40.599999999999994,162.75 41.3,163.1 41.3,163.79999999999998 45.15,167.29999999999998 48.3,172.2 47.949999999999996,170.79999999999998 45.15,166.95 41.3,163.45 41.3,162.75 38.5,159.6 36.4,155.75" stroke="#aaa" stroke-width="1" /><polyline fill="none" points="31.15,140.0 30.45,140.0 30.099999999999998,141.04999999999998 29.4,140.35 27.65,141.04999999999998 28.0,141.75 27.299999999999997,142.45 26.25,142.45 25.9,141.75 25.2,142.45 24.5,142.1 25.549999999999997,142.79999999999998 25.9,144.89999999999998 26.25,144.2 27.299999999999997,145.95 26.95,147.0 25.549999999999997,146.64999999999998 26.25,147.0 25.9,147.35 26.599999999999998,147.0 28.7,148.39999999999998 27.299999999999997,147.7 27.299999999999997,145.95 26.599999999999998,145.25 26.599999999999998,144.54999999999998 28.0,143.5 30.099999999999998,143.14999999999998 31.849999999999998,145.6 31.499999999999996,144.54999999999998 32.55,144.2 31.499999999999996,144.2 30.45,143.14999999999998 27.65,143.85 27.299999999999997,143.5 27.65,142.1 28.349999999999998,141.75 27.65,141.39999999999998 29.049999999999997,141.39999999999998 29.049999999999997,140.35 30.45,141.75 29.749999999999996,142.45 31.499999999999996,142.79999999999998 31.15,142.1 30.45,142.1 30.799999999999997,141.39999999999998 30.099999999999998,141.04999999999998 31.15,140.7" stroke="#aaa" stroke-width="1" /><polyline fill="none" points="41.65,166.95 41.65,168.7 44.449999999999996,172.2 44.099999999999994,172.89999999999998 42.699999999999996,172.2 42.349999999999994,171.5 43.05,172.54999999999998 43.75,172.54999999999998 44.099999999999994,173.6 44.449999999999996,171.5 43.4,170.79999999999998 44.449999999999996,169.75 48.3,173.6 51.8,178.85 53.199999999999996,183.04999999999998 52.5,180.25 49.349999999999994,174.64999999999998" stroke="#aaa" stroke-width="1" /><polyline fill="none" points="26.95,114.44999999999999 26.25,115.49999999999999 25.549999999999997,115.49999999999999 25.2,114.8 24.849999999999998,115.49999999999999 24.5,114.8 23.45,115.14999999999999 23.099999999999998,115.85 24.5,116.55 22.75,116.89999999999999 21.7,115.49999999999999 23.45,112.0 23.099999999999998,111.3 21.349999999999998,111.64999999999999 20.299999999999997,110.94999999999999 21.349999999999998,111.64999999999999 20.65,112.35 21.7,112.69999999999999 20.299999999999997,113.05 19.599999999999998,114.44999999999999 20.299999999999997,113.05 20.65,113.74999999999999 21.0,113.05 21.7,113.05 22.75,111.3 23.45,112.0 21.7,114.8 22.049999999999997,115.14999999999999 19.95,116.19999999999999 16.099999999999998,119.69999999999999 15.049999999999999,119.35 13.649999999999999,120.05 12.25,122.49999999999999 14.0,120.05 15.049999999999999,119.35 15.399999999999999,120.05 12.95,122.49999999999999 12.25,124.24999999999999 12.6,123.19999999999999 21.349999999999998,115.49999999999999 23.45,117.94999999999999 23.799999999999997,117.24999999999999 24.849999999999998,117.6 23.799999999999997,117.24999999999999 25.2,116.19999999999999 24.5,116.55 23.099999999999998,115.49999999999999 26.25,115.49999999999999 26.95,115.14999999999999" stroke="#aaa" stroke-width="1" /><polyline fill="none" points="69.64999999999999,192.85 71.39999999999999,193.2 69.3,193.89999999999998 69.3,195.64999999999998 70.0,194.25 69.3,193.89999999999998 69.64999999999999,193.54999999999998 71.05,193.54999999999998 71.39999999999999,193.89999999999998 70.69999999999999,194.25 74.55,192.85 77.0,193.2 77.0,194.25 76.64999999999999,194.6 76.3,193.89999999999998 76.3,194.6 77.0,194.95 76.64999999999999,200.2 77.69999999999999,201.6 76.64999999999999,199.85 77.0,193.2 78.39999999999999,192.5 86.1,201.6 87.5,204.75 86.8,201.95 87.14999999999999,201.6 87.85,202.29999999999998 81.55,194.6 87.14999999999999,201.6 86.44999999999999,201.95 79.1,192.85 77.35,192.5 73.85,193.2 73.5,191.79999999999998 73.5,192.5 72.44999999999999,193.2" stroke="#aaa" stroke-width="1" /><polyline fill="none" points="123.55,197.04999999999998 123.55,197.75 127.74999999999999,202.29999999999998 127.74999999999999,203.7 128.1,203.35 130.2,204.75 129.15,206.85 129.85,206.85 129.5,205.79999999999998 130.54999999999998,205.1 129.85,204.39999999999998 130.9,203.35 128.79999999999998,203.0 129.15,203.35 128.45,203.7 127.74999999999999,202.64999999999998 129.15,201.25 129.5,199.85 127.74999999999999,199.85 129.15,199.85 129.5,200.54999999999998 128.1,201.95 127.39999999999999,201.95 125.3,199.5 125.99999999999999,198.79999999999998 125.3,199.5" stroke="#aaa" stroke-width="1" /><polyline fill="none" points="158.89999999999998,191.45 156.79999999999998,191.79999999999998 156.79999999999998,190.75 156.45,191.45 154.7,191.1 155.04999999999998,192.5 154.0,193.54999999999998 153.64999999999998,192.85 154.35,191.79999999999998 153.64999999999998,191.79999999999998 153.64999999999998,193.54999999999998 152.95,193.89999999999998 152.6,192.5 152.95,193.89999999999998 151.54999999999998,194.25 152.6,194.25 153.64999999999998,195.64999999999998 154.35,195.29999999999998 155.39999999999998,196.35 157.14999999999998,196.35 155.75,194.6 154.7,194.6 154.0,195.64999999999998 152.6,194.25 153.64999999999998,193.54999999999998 154.35,193.89999999999998 154.7,192.85 155.39999999999998,193.2 154.7,192.85 155.75,192.5 155.04999999999998,192.14999999999998 155.39999999999998,191.45" stroke="#aaa" stroke-width="1" /><polyline fill="none" points="200.89999999999998,140.0 196.35,148.04999999999998 196.35,150.14999999999998 194.95,152.6 192.85,155.04999999999998 190.75,156.45 193.54999999999998,154.7 196.35,150.5 196.35,148.39999999999998 199.5,142.45 200.89999999999998,141.04999999999998" stroke="#aaa" stroke-width="1" /><polyline fill="none" points="113.05,187.6 117.6,191.1 120.74999999999999,197.04999999999998 126.69999999999999,204.04999999999998 128.1,207.2 132.29999999999998,211.39999999999998 132.29999999999998,212.45 131.6,212.79999999999998 130.2,211.75 124.24999999999999,205.1 123.19999999999999,204.75 114.8,196.7 114.1,196.7 111.3,201.25 106.05,212.79999999999998 106.39999999999999,214.54999999999998 105.69999999999999,215.25 105.69999999999999,216.29999999999998 109.89999999999999,220.14999999999998 105.69999999999999,215.95 106.39999999999999,214.89999999999998 106.05,212.79999999999998 108.85,207.54999999999998 109.19999999999999,208.6 109.89999999999999,206.5 109.89999999999999,207.2 109.19999999999999,207.89999999999998 108.85,207.54999999999998 109.55,205.1 111.3,201.6 112.0,200.89999999999998 112.35,201.6 112.0,200.54999999999998 114.44999999999999,196.7 117.24999999999999,199.85 116.89999999999999,200.2 115.49999999999999,198.79999999999998 113.74999999999999,199.14999999999998 113.05,200.2 113.05,201.95 111.64999999999999,203.0 110.25,205.79999999999998 110.94999999999999,205.45 112.0,203.0 112.35,203.7 112.0,203.0 113.05,202.29999999999998 113.39999999999999,199.5 115.49999999999999,198.79999999999998 116.89999999999999,200.2 117.94999999999999,199.85 122.85,204.75 123.89999999999999,205.1 129.5,211.39999999999998 132.65,213.14999999999998 131.95,210.7 128.1,206.85 126.69999999999999,204.04999999999998 127.05,203.35 126.69999999999999,204.04999999999998 124.24999999999999,201.25 124.94999999999999,200.2 124.24999999999999,200.89999999999998 119.35,194.6 117.6,190.75 115.14999999999999,188.64999999999998 112.0,187.6 105.69999999999999,204.75 104.3,213.14999999999998 103.25,214.89999999999998 103.6,218.75 105.35,218.39999999999998 109.89999999999999,223.29999999999998 108.5,223.64999999999998 110.25,223.29999999999998 105.69999999999999,218.39999999999998 103.6,218.39999999999998 103.25,215.25 103.94999999999999,214.54999999999998 105.0,207.54999999999998 107.1,200.54999999999998 108.85,197.04999999999998 111.64999999999999,188.29999999999998" stroke="#aaa" stroke-width="1" /><polyline fill="none" points="35.699999999999996,171.5 35.699999999999996,173.25 36.75,174.64999999999998 36.4,176.04999999999998 36.4,175.0 37.099999999999994,174.64999999999998 39.55,176.75 39.55,178.14999999999998 42.349999999999994,175.7 44.099999999999994,175.0 43.4,174.64999999999998 43.4,173.6 42.0,173.25 41.65,173.95 41.3,173.25 40.949999999999996,173.6 41.65,173.95 39.199999999999996,175.35 38.15,173.25" stroke="#aaa" stroke-width="1" /><polyline fill="none" points="173.95,150.5 177.1,151.89999999999998 182.35,157.14999999999998 189.35,161.35 195.29999999999998,165.89999999999998 198.79999999999998,178.85 198.45,180.6 197.75,181.29999999999998 196.35,181.29999999999998 198.1,181.29999999999998 199.14999999999998,178.85 200.2,180.25 201.95,180.25 201.6,179.89999999999998 202.64999999999998,177.1 202.64999999999998,174.64999999999998 201.95,179.54999999999998 200.89999999999998,180.6 199.5,178.85 199.14999999999998,176.75 199.5,178.5 198.45,178.5 198.45,177.1 194.95,165.2 186.2,159.25 186.2,158.54999999999998 185.5,158.89999999999998 182.7,157.14999999999998 178.5,152.95 179.2,152.6 178.5,152.95 177.79999999999998,152.25 179.2,151.89999999999998 177.79999999999998,152.25 176.75,151.54999999999998 177.1,150.85 176.39999999999998,151.54999999999998" stroke="#aaa" stroke-width="1" /><polyline fill="none" points="131.25,199.14999999999998 132.65,205.45 132.29999999999998,205.79999999999998 131.25,204.75 130.9,205.79999999999998 132.29999999999998,205.79999999999998 132.29999999999998,208.25 133.35,211.39999999999998 133.0,211.75 133.7,210.7 134.04999999999998,208.25 133.35,207.89999999999998 133.7,207.54999999999998 133.0,206.85 132.65,205.1 133.0,204.75 133.7,206.14999999999998 133.35,204.75 134.04999999999998,204.04999999999998 133.7,204.39999999999998 133.0,203.7 133.0,204.75 132.29999999999998,204.04999999999998" stroke="#aaa" stroke-width="1" /><polyline fill="none" points="72.44999999999999,198.45 72.1,199.85 71.39999999999999,198.79999999999998 71.75,198.45 70.35,198.1 70.69999999999999,198.45 69.64999999999999,199.14999999999998 68.94999999999999,199.14999999999998 68.6,198.45 68.25,199.5 67.55,198.45 66.85,198.45 67.89999999999999,199.14999999999998 68.25,200.54999999999998 66.85,201.95 67.55,201.25 68.25,201.25 68.6,201.95 68.94999999999999,200.89999999999998 70.35,200.54999999999998 70.35,199.14999999999998 71.05,198.45 71.75,199.14999999999998 71.75,200.89999999999998 72.44999999999999,201.6 71.75,200.54999999999998" stroke="#aaa" stroke-width="1" /><polyline fill="none" points="72.1,186.54999999999998 71.75,186.89999999999998 72.44999999999999,186.89999999999998 73.14999999999999,185.85 73.5,187.25 74.19999999999999,187.6 73.5,188.29999999999998 72.8,187.95 73.85,188.29999999999998 74.19999999999999,187.6 74.89999999999999,187.6 75.6,188.29999999999998 74.89999999999999,189.0 74.55,188.64999999999998 75.25,189.35 74.89999999999999,189.0 75.6,188.64999999999998 76.3,189.35 75.94999999999999,189.7 76.64999999999999,189.35 79.1,191.1 81.19999999999999,193.89999999999998 79.8,191.79999999999998 80.14999999999999,191.1 79.1,191.1 75.6,188.29999999999998 75.25,187.25 76.3,186.54999999999998 76.64999999999999,187.25 85.75,193.54999999999998 96.94999999999999,203.7 96.94999999999999,210.35 98.69999999999999,217.35 98.35,219.1 97.64999999999999,217.35 95.19999999999999,215.6 96.6,215.25 93.44999999999999,215.25 92.39999999999999,213.14999999999998 92.39999999999999,211.75 93.44999999999999,210.7 94.5,210.7 93.44999999999999,210.7 90.64999999999999,213.14999999999998 89.25,210.35 86.44999999999999,206.85 84.69999999999999,202.64999999999998 82.25,200.54999999999998 80.5,200.2 79.1,203.0 77.35,211.04999999999998 76.64999999999999,211.75 76.64999999999999,213.14999999999998 74.55,218.39999999999998 73.85,223.64999999999998 74.55,218.39999999999998 77.35,211.04999999999998 79.1,203.0 80.85,200.2 82.94999999999999,201.25 84.69999999999999,203.0 86.8,207.54999999999998 91.69999999999999,214.89999999999998 92.39999999999999,217.0 95.55,220.85 94.85,221.54999999999998 93.1,220.5 90.64999999999999,216.64999999999998 82.94999999999999,208.95 81.89999999999999,208.95 75.6,221.2 74.89999999999999,223.64999999999998 75.6,223.64999999999998 75.25,222.25 77.69999999999999,217.7 78.05,218.75 75.94999999999999,222.95 78.75,217.35 78.05,218.04999999999998 77.69999999999999,217.35 82.25,208.95 87.14999999999999,213.5 87.5,214.54999999999998 87.14999999999999,214.89999999999998 83.64999999999999,211.04999999999998 82.25,210.7 79.1,216.64999999999998 80.85,214.2 81.55,211.39999999999998 82.94999999999999,210.7 89.94999999999999,217.7 91.0,217.7 92.05,219.45 91.69999999999999,220.14999999999998 92.05,219.45 92.75,220.5 94.85,221.54999999999998 95.89999999999999,220.5 96.6,220.5 96.6,219.79999999999998 96.25,220.5 95.55,220.5 93.8,218.39999999999998 95.19999999999999,216.29999999999998 96.94999999999999,217.0 97.64999999999999,217.7 97.3,222.95 96.25,223.29999999999998 96.94999999999999,223.64999999999998 98.0,222.95 98.0,222.25 97.3,221.89999999999998 98.35,221.2 100.44999999999999,221.54999999999998 98.35,223.64999999999998 101.85,222.25 102.55,222.95 101.5,223.64999999999998 102.55,223.29999999999998 102.89999999999999,221.89999999999998 101.14999999999999,222.6 99.75,222.25 101.14999999999999,220.5 103.25,219.79999999999998 100.8,220.5 100.1,221.2 98.69999999999999,220.14999999999998 99.39999999999999,219.45 100.8,219.79999999999998 100.8,219.1 99.75,218.39999999999998 99.05,215.6 98.69999999999999,216.29999999999998 98.0,215.95 96.94999999999999,210.35 96.94999999999999,203.35 88.89999999999999,196.0 89.25,195.64999999999998 88.89999999999999,196.0 85.05,192.85 85.75,191.45 85.39999999999999,191.79999999999998 84.0,190.39999999999998 82.25,190.75 80.5,189.7 80.5,189.0 80.14999999999999,189.35 78.39999999999999,187.95 79.1,187.6 78.39999999999999,187.25 79.1,186.54999999999998 80.5,187.25 80.85,186.89999999999998 79.44999999999999,186.89999999999998 79.1,186.2 78.75,186.89999999999998 77.69999999999999,186.54999999999998 77.0,185.5 74.89999999999999,187.6 74.19999999999999,187.6 73.14999999999999,185.85 72.44999999999999,186.89999999999998" stroke="#aaa" stroke-width="1" /><polyline fill="none" points="4.55,102.19999999999999 10.85,101.85 10.149999999999999,101.5 10.5,101.14999999999999 13.299999999999999,100.8 15.049999999999999,102.89999999999999 16.099999999999998,103.25 14.35,101.85 14.35,100.1 12.25,101.14999999999999 10.85,101.14999999999999 9.799999999999999,100.1 10.149999999999999,99.39999999999999 12.6,99.75 12.6,98.69999999999999 13.299999999999999,99.39999999999999 16.099999999999998,99.05 17.15,98.35 18.549999999999997,99.05 19.599999999999998,98.69999999999999 23.799999999999997,100.8 24.15,99.75 25.2,99.75 24.15,99.05 24.5,99.39999999999999 23.45,100.44999999999999 22.049999999999997,99.39999999999999 19.599999999999998,98.69999999999999 18.549999999999997,99.05 17.849999999999998,98.35 15.399999999999999,97.64999999999999 16.799999999999997,98.0 16.799999999999997,98.69999999999999 13.299999999999999,99.39999999999999 12.95,99.05 14.0,98.35 14.35,97.3 14.7,98.0 14.7,97.3 14.0,97.3 13.649999999999999,98.0 12.6,97.64999999999999 13.649999999999999,98.35 12.95,99.05 12.25,98.69999999999999 11.899999999999999,99.75 9.799999999999999,99.05 10.5,101.14999999999999 9.799999999999999,101.85 9.1,101.5 9.45,101.14999999999999 8.399999999999999,101.14999999999999 7.35,100.1 9.1,101.5 8.75,101.85" stroke="#aaa" stroke-width="1" /><polyline fill="none" points="116.19999999999999,205.1 115.85,206.85 114.1,208.6 112.0,213.5 112.0,214.89999999999998 119.35,219.79999999999998 122.85,214.89999999999998 123.55,212.1 123.19999999999999,211.04999999999998 116.89999999999999,205.1" stroke="#aaa" stroke-width="1" /><polyline fill="none" points="33.949999999999996,159.95 33.949999999999996,160.64999999999998 35.0,161.7 34.65,162.04999999999998 35.0,161.7 36.75,163.79999999999998 36.75,164.85 37.099999999999994,164.5 40.599999999999994,168.7 40.599999999999994,169.39999999999998 39.55,170.45 38.849999999999994,169.75 39.199999999999996,169.04999999999998 36.75,166.95 36.75,165.54999999999998 35.349999999999994,164.5 35.0,163.1 33.949999999999996,163.1 33.949999999999996,162.04999999999998 33.599999999999994,164.5 34.3,164.85 35.0,163.79999999999998 35.699999999999996,165.2 36.75,165.89999999999998 36.75,166.95 39.199999999999996,169.39999999999998 38.849999999999994,170.1 39.55,170.45 38.15,171.5 36.75,168.0 35.349999999999994,166.95 34.65,167.29999999999998 35.0,173.95 35.699999999999996,175.35 36.4,180.6 37.099999999999994,181.29999999999998 33.599999999999994,208.6 30.099999999999998,222.25 32.199999999999996,212.79999999999998 32.9,212.1 40.25,215.95 45.15,221.54999999999998 45.849999999999994,223.64999999999998 45.15,221.2 40.949999999999996,216.29999999999998 38.5,214.54999999999998 32.9,212.1 34.65,201.95 37.099999999999994,180.95 38.15,180.6 39.199999999999996,181.64999999999998 40.599999999999994,184.79999999999998 42.699999999999996,186.54999999999998 40.599999999999994,184.45 38.5,180.6 36.4,180.6 35.699999999999996,175.35 35.0,173.95 34.65,167.29999999999998 35.0,166.95 36.75,168.35 37.8,170.1 37.8,171.5 38.5,171.5 40.599999999999994,169.75 40.599999999999994,168.35 33.949999999999996,160.64999999999998" stroke="#aaa" stroke-width="1" /><polyline fill="none" points="128.79999999999998,190.75 128.79999999999998,191.79999999999998 128.1,192.5 128.45,192.14999999999998 129.15,192.85 127.05,193.2 128.79999999999998,193.2 129.15,194.25 125.99999999999999,195.64999999999998 126.35,196.0 127.74999999999999,194.95 128.1,196.35 125.3,198.1 127.39999999999999,197.39999999999998 128.1,196.7 128.1,194.95 129.15,194.25 129.85,195.29999999999998 129.5,196.7 130.2,198.1 129.85,198.79999999999998 129.15,198.45 129.85,198.79999999999998 129.5,199.14999999999998 130.2,198.45 130.54999999999998,199.85 130.54999999999998,198.45 129.85,197.75 131.25,197.75 131.95,199.5 134.75,202.64999999999998 134.39999999999998,203.35 133.0,203.0 134.75,203.0 139.64999999999998,209.29999999999998 140.0,210.0 139.29999999999998,210.35 140.0,210.0 142.79999999999998,212.79999999999998 143.5,212.79999999999998 144.54999999999998,211.75 147.0,211.75 148.75,210.7 149.45,211.39999999999998 148.39999999999998,211.75 149.45,211.75 150.14999999999998,212.45 146.29999999999998,213.5 147.0,213.85 146.29999999999998,214.2 147.35,214.54999999999998 146.29999999999998,214.89999999999998 147.35,214.89999999999998 147.7,215.6 147.0,215.6 146.29999999999998,216.29999999999998 145.95,218.04999999999998 144.89999999999998,218.39999999999998 145.95,218.39999999999998 145.95,217.7 146.64999999999998,217.35 147.0,218.75 147.0,217.7 149.1,216.64999999999998 152.6,216.64999999999998 149.1,216.64999999999998 147.7,217.7 147.35,217.0 147.0,217.7 146.29999999999998,216.64999999999998 148.04999999999998,215.6 152.6,215.95 151.89999999999998,215.25 152.25,214.89999999999998 151.89999999999998,215.25 151.2,214.54999999999998 151.89999999999998,213.5 152.6,214.2 152.95,213.5 153.29999999999998,213.85 151.54999999999998,213.14999999999998 151.89999999999998,213.5 151.2,213.85 150.85,212.79999999999998 151.89999999999998,212.45 150.5,212.79999999999998 149.79999999999998,212.1 150.14999999999998,211.39999999999998 151.54999999999998,211.39999999999998 149.79999999999998,211.75 148.39999999999998,210.35 151.54999999999998,210.35 150.85,210.0 151.89999999999998,209.64999999999998 149.1,210.0 148.75,209.29999999999998 148.39999999999998,210.35 146.64999999999998,208.6 147.0,208.25 146.64999999999998,208.6 147.7,209.29999999999998 146.64999999999998,210.0 147.7,209.64999999999998 148.75,210.7 146.64999999999998,211.75 144.2,212.1 143.5,208.95 143.85,212.1 143.14999999999998,212.79999999999998 138.25,207.54999999999998 131.6,198.1 129.5,196.7 129.85,195.29999999999998 128.79999999999998,192.5" stroke="#aaa" stroke-width="1" /><polyline fill="none" points="173.6,160.29999999999998 172.2,161.7 167.64999999999998,170.45 163.45,183.39999999999998 162.39999999999998,184.45 162.75,187.6 165.2,187.6 170.1,192.5 169.75,192.85 170.1,192.5 172.89999999999998,195.29999999999998 172.54999999999998,195.64999999999998 172.89999999999998,195.29999999999998 181.29999999999998,203.35 184.45,205.1 184.79999999999998,203.7 184.1,201.25 184.45,200.89999999999998 185.14999999999998,202.29999999999998 186.54999999999998,202.29999999999998 187.25,198.79999999999998 189.0,195.29999999999998 192.85,183.75 192.85,182.7 192.14999999999998,182.0 192.85,181.64999999999998 193.54999999999998,182.35 194.95,182.35 194.95,181.64999999999998 191.79999999999998,178.14999999999998 192.5,177.79999999999998 192.5,176.39999999999998 190.75,173.6 187.25,170.45 192.14999999999998,175.7 192.5,177.45 191.45,178.14999999999998 188.64999999999998,173.95 182.35,168.0 179.2,162.75 175.0,160.29999999999998" stroke="#aaa" stroke-width="1" /><polyline fill="none" points="60.199999999999996,183.75 59.49999999999999,184.1 61.949999999999996,184.79999999999998 64.75,187.25 64.05,187.95 60.199999999999996,184.79999999999998 59.49999999999999,184.79999999999998 57.74999999999999,186.54999999999998 56.0,190.75 55.3,190.75 55.65,189.35 54.599999999999994,192.5 54.599999999999994,194.95 55.65,196.35 57.4,197.39999999999998 57.74999999999999,199.5 57.05,199.85 53.55,197.39999999999998 54.25,198.1 53.9,201.25 54.25,198.1 56.0,199.14999999999998 54.949999999999996,199.85 55.65,200.2 55.3,203.7 56.0,202.29999999999998 55.3,199.85 56.0,199.14999999999998 57.74999999999999,200.89999999999998 57.05,201.95 57.05,203.35 57.74999999999999,200.89999999999998 58.8,201.95 58.8,203.35 58.099999999999994,203.7 57.74999999999999,202.64999999999998 58.099999999999994,204.04999999999998 57.4,204.75 58.8,207.54999999999998 58.8,206.5 57.4,205.45 57.4,204.75 59.15,203.0 58.449999999999996,202.29999999999998 58.8,201.95 62.65,204.75 64.39999999999999,205.1 65.1,206.5 61.949999999999996,208.95 61.599999999999994,208.6 62.65,210.0 62.3,208.95 62.99999999999999,208.25 64.05,208.95 63.699999999999996,208.6 64.39999999999999,208.25 64.75,206.85 65.8,210.7 65.8,212.79999999999998 65.45,213.14999999999998 58.8,208.6 56.349999999999994,206.14999999999998 54.25,205.1 54.599999999999994,204.39999999999998 54.949999999999996,204.75 54.25,201.95 54.599999999999994,205.79999999999998 66.85,214.2 66.85,219.45 68.25,223.64999999999998 66.85,219.45 66.85,212.1 68.25,211.04999999999998 70.0,210.7 69.64999999999999,209.64999999999998 70.0,210.35 69.3,211.04999999999998 66.85,211.04999999999998 66.5,208.6 68.25,206.85 68.25,205.45 68.25,206.85 66.5,208.25 65.8,207.54999999999998 65.8,205.45 66.85,205.45 65.45,204.75 65.45,203.7 65.45,207.89999999999998 64.75,206.85 64.75,205.1 62.99999999999999,204.75 57.05,200.2 57.74999999999999,199.5 57.74999999999999,197.39999999999998 59.49999999999999,198.79999999999998 56.349999999999994,196.35 57.05,196.0 58.449999999999996,196.7 60.9,199.5 62.65,199.5 62.65,196.35 64.75,190.04999999999998 64.75,191.1 63.349999999999994,193.54999999999998 62.3,199.5 55.3,194.6 55.3,192.5 56.349999999999994,189.35 57.74999999999999,186.89999999999998 59.849999999999994,184.79999999999998 62.99999999999999,186.89999999999998 64.39999999999999,189.0 65.45,188.64999999999998 64.75,187.25 65.45,186.2 66.85,186.2 68.25,187.25 66.14999999999999,185.85 65.1,186.2 64.75,187.25 62.65,185.14999999999998" stroke="#aaa" stroke-width="1" /><polyline fill="none" points="33.25,167.29999999999998 33.25,168.7 32.199999999999996,169.75 32.9,169.04999999999998 33.25,169.39999999999998 32.55,171.14999999999998 31.499999999999996,171.14999999999998 29.4,175.35 28.349999999999998,175.35 29.4,173.95 28.349999999999998,174.64999999999998 28.7,176.75 27.65,177.79999999999998 27.299999999999997,177.45 28.0,176.04999999999998 26.95,177.79999999999998 28.349999999999998,177.79999999999998 28.7,176.04999999999998 29.749999999999996,175.35 30.099999999999998,175.7 29.4,176.75 30.099999999999998,176.04999999999998 29.749999999999996,175.0 30.799999999999997,175.0 31.849999999999998,172.89999999999998 31.499999999999996,172.2 32.55,171.5 33.599999999999994,168.7 32.9,168.35" stroke="#aaa" stroke-width="1" /><polyline fill="none" points="3.5,136.14999999999998 4.55,136.85 6.3,140.0 8.399999999999999,141.75 9.1,143.14999999999998 16.45,149.79999999999998 18.2,150.14999999999998 19.95,151.54999999999998 20.299999999999997,150.85 21.0,150.85 19.95,151.2 18.549999999999997,150.14999999999998 16.799999999999997,149.79999999999998 12.95,146.29999999999998 13.299999999999999,145.95 12.95,146.29999999999998 9.1,142.79999999999998 8.399999999999999,141.39999999999998 6.3,139.64999999999998 4.55,136.5" stroke="#aaa" stroke-width="1" /><polyline fill="none" points="136.85,207.54999999999998 135.45,206.85 136.14999999999998,207.54999999999998 135.1,208.6 134.75,207.89999999999998 134.39999999999998,209.64999999999998 134.39999999999998,208.95 135.45,208.25 135.45,210.0 136.5,210.0 136.5,208.95 137.2,208.6 137.54999999999998,210.0 136.85,210.7 138.25,211.04999999999998 137.89999999999998,212.1 137.54999999999998,211.39999999999998 136.5,211.75 135.1,210.7 135.79999999999998,211.04999999999998 135.1,213.5 135.1,217.0 134.39999999999998,217.0 134.04999999999998,213.14999999999998 134.75,212.79999999999998 134.75,211.75 134.39999999999998,212.79999999999998 134.04999999999998,211.75 133.7,213.5 133.35,212.45 133.7,213.85 133.0,214.54999999999998 131.6,214.2 130.9,215.6 133.7,216.29999999999998 134.04999999999998,220.14999999999998 130.54999999999998,221.54999999999998 130.54999999999998,220.5 129.5,221.54999999999998 128.79999999999998,220.85 129.5,217.35 130.2,216.29999999999998 131.6,216.29999999999998 133.0,217.7 131.95,216.29999999999998 129.85,215.95 130.54999999999998,214.54999999999998 130.2,212.45 130.54999999999998,214.54999999999998 128.79999999999998,220.85 127.39999999999999,223.64999999999998 128.79999999999998,220.85 129.15,221.54999999999998 130.54999999999998,221.54999999999998 134.04999999999998,220.5 134.75,221.89999999999998 131.95,222.6 130.54999999999998,223.64999999999998 132.29999999999998,222.6 133.35,222.95 133.0,223.64999999999998 134.04999999999998,223.64999999999998 133.35,223.29999999999998 134.04999999999998,222.95 133.35,222.6 134.75,221.89999999999998 135.1,223.64999999999998 135.1,221.2 134.75,221.54999999999998 134.04999999999998,220.5 135.1,219.79999999999998 138.25,223.64999999999998 137.54999999999998,222.6 138.6,222.25 137.54999999999998,222.6 135.45,220.5 136.14999999999998,220.14999999999998 135.45,219.79999999999998 136.85,219.1 134.39999999999998,220.14999999999998 134.04999999999998,219.79999999999998 133.7,214.89999999999998 133.35,215.95 131.25,215.25 131.95,214.54999999999998 133.7,214.2 134.04999999999998,213.14999999999998 134.39999999999998,217.0 135.79999999999998,217.7 135.79999999999998,218.75 135.79999999999998,217.7 136.14999999999998,217.35 136.5,218.39999999999998 136.85,217.35 135.45,217.35 135.1,216.64999999999998 137.2,216.29999999999998 136.5,216.29999999999998 135.45,215.25 135.79999999999998,213.5 137.89999999999998,213.85 138.95,212.45 139.64999999999998,213.5 140.0,212.79999999999998 140.7,213.5 142.79999999999998,213.5 143.14999999999998,214.2 142.45,214.2 143.14999999999998,214.54999999999998 143.14999999999998,213.85 141.75,213.5 140.7,211.75 140.35,213.14999999999998 139.64999999999998,213.14999999999998 138.25,211.75 139.29999999999998,211.75 138.95,211.39999999999998 139.64999999999998,211.04999999999998 138.6,211.39999999999998 138.6,210.7 137.2,210.35 137.89999999999998,208.95 135.79999999999998,208.25 136.14999999999998,207.54999999999998" stroke="#aaa" stroke-width="1" /><polyline fill="none" points="208.6,141.75 213.5,145.6 212.79999999999998,146.64999999999998 212.1,145.95 212.45,145.6 212.1,145.95 210.0,145.25 208.95,145.95 208.6,147.35 209.29999999999998,147.7 208.6,147.0 210.0,145.25 211.39999999999998,145.6 220.14999999999998,154.35 214.2,148.04999999999998 214.54999999999998,147.35 219.79999999999998,152.95 214.89999999999998,147.7 214.2,145.95" stroke="#aaa" stroke-width="1" /><polyline fill="none" points="210.0,141.04999999999998 214.54999999999998,143.5 221.54999999999998,148.75 223.64999999999998,151.2 222.6,150.14999999999998 222.6,149.45 219.79999999999998,147.35 220.5,147.0 219.79999999999998,147.35 218.75,146.64999999999998 220.14999999999998,146.29999999999998 218.75,146.64999999999998 213.14999999999998,142.45 214.2,141.75 212.79999999999998,142.45" stroke="#aaa" stroke-width="1" /><polyline fill="none" points="46.55,181.29999999999998 47.599999999999994,181.64999999999998 46.55,181.29999999999998 44.449999999999996,183.04999999999998 45.15,185.14999999999998 44.099999999999994,186.54999999999998 44.099999999999994,187.25 45.15,188.29999999999998 44.449999999999996,189.0 46.9,193.89999999999998 46.9,195.64999999999998 47.599999999999994,196.7 47.25,197.39999999999998 47.599999999999994,196.7 44.8,189.35 45.15,188.64999999999998 52.5,196.35 54.25,212.45 53.9,212.79999999999998 52.849999999999994,211.75 52.5,203.35 52.849999999999994,211.04999999999998 51.8,211.04999999999998 52.15,209.29999999999998 51.449999999999996,205.79999999999998 51.449999999999996,200.54999999999998 51.449999999999996,206.14999999999998 52.15,209.29999999999998 51.8,211.04999999999998 50.75,210.7 47.25,207.2 43.05,205.1 41.65,203.0 41.65,203.7 40.949999999999996,203.7 42.0,205.79999999999998 46.55,210.7 48.3,214.89999999999998 48.3,213.85 46.55,210.35 41.3,204.39999999999998 41.65,203.7 42.699999999999996,205.1 46.9,207.2 50.4,210.7 52.849999999999994,211.75 54.25,213.85 53.55,214.2 51.449999999999996,213.14999999999998 50.4,212.1 51.099999999999994,211.75 49.349999999999994,211.75 48.65,210.35 45.5,207.2 44.449999999999996,206.85 48.65,210.7 49.0,211.75 54.599999999999994,214.54999999999998 56.0,219.45 55.65,220.85 54.949999999999996,220.14999999999998 56.349999999999994,223.64999999999998 55.65,220.85 56.349999999999994,220.85 57.4,223.29999999999998 57.4,222.25 56.699999999999996,221.54999999999998 57.05,218.75 55.65,212.79999999999998 57.05,218.75 56.699999999999996,220.5 56.0,220.5 55.3,216.29999999999998 53.9,213.14999999999998 54.25,211.75 53.55,208.95 53.55,203.0 51.449999999999996,191.1 49.349999999999994,185.85 47.25,186.54999999999998 45.849999999999994,187.95 45.15,187.95 44.099999999999994,186.89999999999998 46.9,184.1 45.15,185.14999999999998 44.449999999999996,183.75" stroke="#aaa" stroke-width="1" /><polyline fill="none" points="159.25,205.79999999999998 159.6,207.54999999999998 158.2,209.29999999999998 156.45,215.95 153.29999999999998,216.29999999999998 156.1,216.64999999999998 155.04999999999998,218.75 154.35,223.64999999999998 154.35,221.54999999999998 155.04999999999998,219.1 156.1,217.7 157.14999999999998,212.45 159.95,206.5 159.25,205.79999999999998 160.29999999999998,205.1 161.35,205.1 162.04999999999998,205.79999999999998 163.45,204.75 165.2,206.5 167.29999999999998,206.14999999999998 168.7,206.85 171.14999999999998,208.95 173.95,212.79999999999998 179.2,217.7 179.89999999999998,219.79999999999998 178.14999999999998,223.64999999999998 178.85,222.95 179.89999999999998,219.1 179.2,217.35 177.45,215.6 178.14999999999998,215.25 179.54999999999998,215.95 178.85,214.89999999999998 178.85,215.6 177.45,215.6 176.04999999999998,214.2 176.39999999999998,213.85 175.7,214.2 170.1,207.89999999999998 171.14999999999998,207.2 171.5,206.14999999999998 170.1,206.5 171.5,206.5 170.1,207.89999999999998 167.29999999999998,206.14999999999998 165.54999999999998,206.5 163.79999999999998,204.75 162.39999999999998,205.45 160.29999999999998,205.1" stroke="#aaa" stroke-width="1" /><polyline fill="none" points="145.95,219.1 141.39999999999998,221.2 142.1,220.85 142.79999999999998,221.54999999999998 142.45,222.6 140.0,222.6 140.35,223.64999999999998 140.0,222.95 141.39999999999998,222.6 141.39999999999998,223.64999999999998 142.79999999999998,223.64999999999998 141.75,223.29999999999998 142.45,222.25 144.89999999999998,221.2 145.95,222.6 145.25,222.95 145.6,223.64999999999998 145.95,222.25 145.25,221.89999999999998 145.25,220.85 145.95,220.14999999999998" stroke="#aaa" stroke-width="1" /><polyline fill="none" points="203.7,190.75 203.35,189.35 202.29999999999998,189.7 202.64999999999998,190.04999999999998 202.29999999999998,189.7 203.0,189.35 203.7,190.39999999999998 201.95,190.75 201.25,191.45 200.54999999999998,190.04999999999998 201.6,189.7 201.6,187.95 201.25,188.64999999999998 198.45,187.95 200.54999999999998,187.25 200.54999999999998,185.5 200.54999999999998,186.89999999999998 199.85,187.6 195.64999999999998,187.25 195.64999999999998,186.54999999999998 198.45,186.54999999999998 194.95,186.54999999999998 195.64999999999998,187.6 194.95,188.64999999999998 194.25,188.29999999999998 194.6,187.95 193.2,187.95 193.54999999999998,187.6 193.54999999999998,188.29999999999998 194.95,188.64999999999998 195.64999999999998,187.95 196.7,187.95 196.0,187.95 196.0,187.25 197.04999999999998,187.25 197.75,189.35 198.1,188.29999999999998 198.45,189.0 199.14999999999998,188.29999999999998 199.85,188.29999999999998 199.85,189.0 201.25,188.64999999999998 201.6,189.35 200.54999999999998,190.04999999999998 195.64999999999998,190.39999999999998 200.54999999999998,190.04999999999998 200.54999999999998,191.1 197.75,191.1 198.1,191.45 201.6,191.45 202.29999999999998,190.75" stroke="#aaa" stroke-width="1" /><polyline fill="none" points="215.95,161.0 214.89999999999998,161.35 206.85,174.64999999999998 207.2,176.39999999999998 206.5,177.45 209.29999999999998,180.6 207.89999999999998,177.1 206.85,176.04999999999998 206.85,174.64999999999998 207.89999999999998,173.6 207.89999999999998,175.35 208.25,175.0 208.25,173.95 208.95,173.25 208.25,173.95 208.25,172.54999999999998 209.64999999999998,170.45 209.64999999999998,172.2 210.7,169.75 210.35,168.7 211.04999999999998,168.7 210.7,168.0 214.89999999999998,162.04999999999998 215.25,162.39999999999998 215.25,161.35 215.95,161.35 219.79999999999998,164.85 219.1,165.2 217.0,163.45 214.89999999999998,163.1 214.2,164.14999999999998 215.25,163.1 217.0,163.45 218.75,165.2 219.45,165.2 221.54999999999998,167.64999999999998 223.64999999999998,168.7 220.85,166.6 221.89999999999998,166.25 223.64999999999998,167.64999999999998 219.45,164.5" stroke="#aaa" stroke-width="1" /><polyline fill="none" points="173.25,219.79999999999998 169.75,214.89999999999998 165.89999999999998,211.39999999999998 163.79999999999998,210.35 161.35,212.45 161.0,213.5 164.14999999999998,210.35 170.1,215.6 173.25,220.14999999999998 172.54999999999998,220.85 169.75,216.64999999999998 164.85,212.1 163.79999999999998,212.1 161.35,214.2 160.29999999999998,216.29999999999998 158.2,223.64999999999998 160.29999999999998,216.29999999999998 161.35,215.25 161.35,214.54999999999998 164.14999999999998,212.1 169.75,217.0 171.85,220.5 172.54999999999998,220.85 173.25,220.5" stroke="#aaa" stroke-width="1" /><polyline fill="none" points="57.4,212.1 56.699999999999996,212.79999999999998 56.699999999999996,214.2 58.449999999999996,215.95 57.4,217.35 62.99999999999999,223.29999999999998 62.65,223.64999999999998 64.39999999999999,223.64999999999998 62.3,222.6 57.4,217.0 58.449999999999996,215.95 58.8,216.29999999999998 58.099999999999994,215.6 58.449999999999996,215.25 59.849999999999994,215.95 59.49999999999999,215.25 58.099999999999994,215.25 56.699999999999996,213.85 56.699999999999996,212.79999999999998" stroke="#aaa" stroke-width="1" /><polyline fill="none" points="0.35,147.0 0.0,149.45 0.7,151.2 0.0,151.54999999999998 2.8,155.75 2.8,157.5 0.0,164.85 3.15,155.39999999999998 6.6499999999999995,162.75 7.699999999999999,163.79999999999998 8.049999999999999,165.54999999999998 10.149999999999999,168.0 8.049999999999999,165.2 7.699999999999999,163.45 5.25,159.95 3.5,156.45 3.5,155.39999999999998 0.35,150.14999999999998" stroke="#aaa" stroke-width="1" /><polyline fill="none" points="7.699999999999999,58.449999999999996 7.0,58.449999999999996 6.6499999999999995,59.15 5.949999999999999,58.8 5.949999999999999,60.55 4.8999999999999995,61.599999999999994 4.55,60.9 4.8999999999999995,60.55 4.8999999999999995,61.949999999999996 0.7,67.89999999999999 0.0,67.19999999999999 0.7,66.85 0.0,66.14999999999999 0.0,68.25 1.0499999999999998,68.25 0.0,70.0 0.35,70.35 1.75,66.5 5.949999999999999,60.9 5.949999999999999,59.849999999999994" stroke="#aaa" stroke-width="1" /><polyline fill="none" points="183.04999999999998,212.45 182.35,212.1 183.04999999999998,211.75 182.35,211.75 182.0,210.7 180.6,210.35 180.6,209.29999999999998 176.75,210.0 175.35,209.64999999999998 173.6,210.35 174.64999999999998,210.0 174.64999999999998,211.39999999999998 175.0,210.7 175.35,211.04999999999998 175.35,209.64999999999998 177.1,209.64999999999998 177.45,210.35 176.75,211.04999999999998 176.04999999999998,210.7 176.75,211.04999999999998 177.45,210.35 178.14999999999998,211.39999999999998 179.2,210.0 179.89999999999998,211.04999999999998 180.25,210.35 181.64999999999998,210.7 182.35,211.75 182.0,212.45" stroke="#aaa" stroke-width="1" /><polyline fill="none" points="20.299999999999997,39.55 18.9,40.25 18.9,41.3 16.099999999999998,44.099999999999994 15.399999999999999,45.849999999999994 11.549999999999999,48.65 7.35,49.699999999999996 3.5,52.15 4.55,52.15 4.199999999999999,51.8 6.3,50.75 6.6499999999999995,50.05 8.75,49.349999999999994 9.45,49.699999999999996 9.799999999999999,49.0 14.0,47.25 15.399999999999999,46.199999999999996 16.099999999999998,44.449999999999996 18.9,41.65 18.9,40.599999999999994" stroke="#aaa" stroke-width="1" /><polyline fill="none" points="5.949999999999999,162.75 5.949999999999999,164.5 3.8499999999999996,169.75 3.15,170.45 0.7,169.75 0.0,169.04999999999998 0.35,168.7 0.0,169.39999999999998 3.15,170.45 3.8499999999999996,170.1 5.949999999999999,164.5 6.3,165.54999999999998 4.55,170.79999999999998 8.399999999999999,172.89999999999998 9.1,172.89999999999998 9.45,171.85 10.5,171.14999999999998 11.2,171.85 11.2,172.89999999999998 11.549999999999999,172.2 12.95,174.64999999999998 12.6,175.0 11.549999999999999,174.29999999999998 11.549999999999999,173.6 9.799999999999999,173.25 10.5,172.54999999999998 9.799999999999999,173.25 11.2,173.6 11.549999999999999,174.64999999999998 12.6,175.0 12.6,176.75 13.299999999999999,177.45 13.299999999999999,176.39999999999998 12.6,175.7 12.95,174.64999999999998 14.35,176.39999999999998 14.0,177.1 14.35,176.39999999999998 14.7,177.1 10.5,170.79999999999998 9.45,170.79999999999998 7.0,164.85 9.799999999999999,171.5 8.75,172.89999999999998 4.55,170.45 6.3,165.54999999999998" stroke="#aaa" stroke-width="1" /><polyline fill="none" points="217.7,169.04999999999998 217.0,171.14999999999998 213.85,174.29999999999998 213.14999999999998,177.79999999999998 217.35,180.6 221.2,184.45 222.25,184.45 223.64999999999998,182.35 221.54999999999998,184.45 217.7,180.6 213.14999999999998,177.45 213.5,176.04999999999998 213.85,176.75 215.6,177.45 215.95,178.5 217.0,178.5 218.04999999999998,179.89999999999998 217.0,178.5 216.29999999999998,178.5 213.5,176.04999999999998 214.89999999999998,172.89999999999998 215.6,172.54999999999998 216.29999999999998,173.25 215.6,172.2 217.0,171.14999999999998 218.04999999999998,169.04999999999998 220.5,171.5 220.14999999999998,171.85 220.5,171.5 223.64999999999998,174.64999999999998 218.39999999999998,169.04999999999998" stroke="#aaa" stroke-width="1" /><polyline fill="none" points="19.95,190.75 20.299999999999997,192.5 19.25,193.2 18.9,192.85 24.849999999999998,205.1 24.849999999999998,206.5 22.75,207.89999999999998 22.75,208.6 23.45,208.25 24.15,209.29999999999998 23.099999999999998,209.29999999999998 24.15,209.29999999999998 25.549999999999997,210.7 25.2,212.1 26.25,213.14999999999998 25.9,214.2 25.549999999999997,213.5 25.549999999999997,214.2 26.25,213.85 26.25,213.14999999999998 25.2,212.1 25.2,211.39999999999998 26.599999999999998,211.04999999999998 29.049999999999997,217.0 29.4,223.64999999999998 28.7,215.6 26.95,211.04999999999998 25.549999999999997,210.7 26.599999999999998,210.35 26.599999999999998,209.29999999999998 25.549999999999997,208.25 25.549999999999997,206.85 25.549999999999997,208.25 24.15,207.89999999999998 26.599999999999998,209.64999999999998 26.25,210.35 25.2,210.35 23.099999999999998,207.89999999999998 24.5,207.2 24.849999999999998,205.1 21.7,197.75 19.25,193.54999999999998 19.599999999999998,192.85 20.299999999999997,192.85" stroke="#aaa" stroke-width="1" /><polyline fill="none" points="202.29999999999998,199.85 200.2,203.35 200.2,205.1 199.14999999999998,206.5 199.5,207.89999999999998 198.79999999999998,209.64999999999998 196.35,209.29999999999998 196.0,207.54999999999998 193.54999999999998,207.89999999999998 193.54999999999998,207.2 195.29999999999998,206.5 197.75,206.85 195.29999999999998,206.5 193.89999999999998,207.2 191.1,207.2 189.7,208.25 192.5,208.95 193.54999999999998,208.6 193.89999999999998,208.95 193.2,209.64999999999998 189.0,209.64999999999998 189.7,210.0 189.7,211.39999999999998 190.04999999999998,209.29999999999998 191.79999999999998,209.64999999999998 190.39999999999998,210.0 191.45,210.7 190.75,211.04999999999998 190.39999999999998,210.7 191.1,211.04999999999998 191.79999999999998,209.64999999999998 193.54999999999998,210.0 192.5,210.35 193.89999999999998,211.75 193.2,212.45 191.79999999999998,212.45 190.75,213.14999999999998 189.7,212.45 190.75,212.1 189.7,212.1 189.7,213.85 190.75,214.2 191.45,213.5 190.75,213.14999999999998 192.5,212.45 192.85,212.79999999999998 192.14999999999998,213.14999999999998 192.85,213.14999999999998 193.54999999999998,212.45 193.89999999999998,213.5 195.29999999999998,213.85 194.6,215.6 194.6,214.89999999999998 196.0,214.54999999999998 196.0,213.85 195.64999999999998,214.54999999999998 194.95,212.79999999999998 193.54999999999998,212.45 196.7,211.75 194.25,212.1 193.89999999999998,211.75 194.6,211.39999999999998 193.2,210.7 194.25,210.7 194.6,209.64999999999998 194.25,210.35 193.2,209.64999999999998 193.89999999999998,209.29999999999998 193.89999999999998,208.6 192.85,208.25 195.64999999999998,207.54999999999998 196.0,208.95 195.64999999999998,209.29999999999998 195.29999999999998,208.25 194.6,208.6 195.29999999999998,208.6 195.64999999999998,210.0 196.35,209.29999999999998 197.39999999999998,209.64999999999998 196.7,210.35 197.39999999999998,210.35 197.75,209.64999999999998 198.79999999999998,210.0 197.75,211.04999999999998 196.7,216.29999999999998 194.6,216.29999999999998 194.25,217.0 192.14999999999998,217.35 191.1,217.0 192.85,217.0 192.85,218.39999999999998 192.14999999999998,218.04999999999998 192.85,218.39999999999998 193.54999999999998,217.0 196.7,216.29999999999998 197.39999999999998,219.1 200.2,222.25 199.85,223.29999999999998 200.54999999999998,223.64999999999998 199.85,222.95 200.2,222.25 201.6,223.29999999999998 201.25,223.64999999999998 202.64999999999998,223.29999999999998 202.29999999999998,223.64999999999998 198.1,219.79999999999998 196.7,216.29999999999998 197.75,211.39999999999998 198.79999999999998,210.7 200.2,203.35 201.25,202.29999999999998" stroke="#aaa" stroke-width="1" /><polyline fill="none" points="212.1,152.25 210.0,155.75 207.54999999999998,162.39999999999998 205.79999999999998,169.04999999999998 205.45,173.25 204.75,175.7 203.7,177.1 204.75,180.25 206.5,179.54999999999998 209.64999999999998,182.7 208.6,183.75 208.95,184.45 209.64999999999998,184.1 208.95,183.75 209.64999999999998,183.04999999999998 211.39999999999998,185.85 210.7,186.54999999999998 212.1,188.29999999999998 211.75,189.0 210.35,189.0 212.1,188.64999999999998 214.2,191.79999999999998 213.85,192.5 212.1,192.5 213.85,192.5 215.25,193.89999999999998 217.35,197.04999999999998 216.29999999999998,197.39999999999998 217.35,197.04999999999998 219.1,199.85 219.1,200.89999999999998 218.39999999999998,200.89999999999998 218.39999999999998,200.2 217.7,200.89999999999998 216.29999999999998,200.89999999999998 219.1,200.89999999999998 220.14999999999998,201.95 219.45,202.64999999999998 219.1,201.95 214.89999999999998,202.29999999999998 215.25,203.0 216.29999999999998,201.95 219.1,202.29999999999998 217.7,202.64999999999998 219.1,203.0 218.39999999999998,204.04999999999998 217.35,204.04999999999998 216.29999999999998,203.0 217.0,203.7 215.95,204.04999999999998 216.64999999999998,204.04999999999998 217.35,205.45 216.64999999999998,206.85 216.64999999999998,205.79999999999998 212.79999999999998,201.6 213.5,200.89999999999998 213.5,199.85 212.79999999999998,200.2 212.79999999999998,201.25 211.04999999999998,199.85 208.25,199.5 207.2,198.45 208.25,197.04999999999998 207.2,196.0 207.54999999999998,194.95 208.95,194.6 210.7,197.04999999999998 209.29999999999998,197.39999999999998 210.35,197.39999999999998 210.7,198.1 211.04999999999998,197.75 212.1,199.14999999999998 212.79999999999998,198.79999999999998 212.45,199.14999999999998 211.75,198.45 211.75,197.04999999999998 212.79999999999998,195.29999999999998 213.14999999999998,196.35 215.25,196.35 214.54999999999998,194.95 213.85,196.0 213.14999999999998,195.64999999999998 213.85,193.54999999999998 213.14999999999998,195.29999999999998 212.1,193.54999999999998 210.7,193.2 211.39999999999998,192.85 210.7,193.2 212.1,193.54999999999998 212.45,194.6 211.04999999999998,195.29999999999998 210.7,194.6 211.39999999999998,194.25 209.29999999999998,194.6 208.95,193.54999999999998 208.6,194.95 207.54999999999998,193.2 207.2,193.89999999999998 206.5,192.85 207.2,192.5 206.5,192.5 205.45,193.89999999999998 206.14999999999998,193.89999999999998 206.5,193.2 207.2,193.89999999999998 206.5,194.6 203.0,195.29999999999998 203.0,196.35 201.95,195.64999999999998 200.54999999999998,196.0 199.85,197.39999999999998 198.1,197.39999999999998 198.1,198.45 196.35,199.5 197.39999999999998,199.14999999999998 199.85,200.2 200.2,199.85 198.45,199.85 197.75,198.79999999999998 201.25,198.79999999999998 199.5,199.14999999999998 198.1,198.1 198.45,197.39999999999998 199.5,198.1 200.89999999999998,198.1 199.14999999999998,197.75 200.2,197.04999999999998 200.54999999999998,196.0 201.25,196.7 201.6,196.0 202.29999999999998,196.35 201.6,197.39999999999998 200.89999999999998,197.39999999999998 201.6,197.39999999999998 202.29999999999998,196.35 203.35,196.35 203.35,195.29999999999998 204.75,195.29999999999998 205.1,195.64999999999998 204.04999999999998,196.35 204.75,196.0 205.45,196.7 205.79999999999998,196.35 204.75,196.0 205.1,194.95 206.5,194.6 207.2,195.29999999999998 207.89999999999998,197.04999999999998 207.2,198.1 202.29999999999998,198.1 201.95,198.79999999999998 202.29999999999998,199.14999999999998 202.29999999999998,198.1 205.45,198.45 205.79999999999998,197.75 206.5,197.75 207.89999999999998,199.5 210.35,199.5 213.85,202.64999999999998 218.75,210.35 219.45,210.7 220.5,212.79999999999998 220.5,214.89999999999998 218.39999999999998,223.64999999999998 220.14999999999998,217.0 220.5,212.45 220.85,212.1 222.6,212.79999999999998 221.2,212.45 220.85,211.39999999999998 220.5,212.45 219.79999999999998,211.75 219.45,210.35 218.39999999999998,209.29999999999998 218.75,208.6 219.45,208.95 219.45,209.64999999999998 219.1,208.6 218.39999999999998,208.95 216.64999999999998,206.85 217.35,206.14999999999998 218.04999999999998,207.54999999999998 218.39999999999998,207.2 217.35,206.14999999999998 218.04999999999998,205.45 219.1,205.45 217.7,205.79999999999998 217.0,204.39999999999998 219.45,204.39999999999998 218.39999999999998,204.04999999999998 219.1,203.35 220.14999999999998,203.35 219.45,203.7 219.45,202.64999999999998 220.5,202.64999999999998 221.54999999999998,203.7 221.54999999999998,205.1 222.25,205.45 221.89999999999998,206.5 222.25,205.45 222.95,206.5 223.64999999999998,206.5 222.6,205.45 223.64999999999998,205.1 221.89999999999998,205.1 221.54999999999998,203.35 219.79999999999998,202.29999999999998 220.14999999999998,201.6 219.1,199.5 214.2,192.5 214.54999999999998,191.45 215.25,192.5 214.54999999999998,191.1 215.6,190.39999999999998 216.29999999999998,191.1 215.6,191.45 216.29999999999998,191.45 219.1,194.6 218.75,195.29999999999998 218.04999999999998,194.95 219.1,194.95 220.5,196.35 220.14999999999998,196.7 220.5,196.35 221.2,197.04999999999998 220.85,197.39999999999998 221.2,197.04999999999998 222.25,198.1 221.54999999999998,198.79999999999998 221.2,198.1 221.89999999999998,199.14999999999998 220.85,199.5 220.14999999999998,197.39999999999998 219.45,197.39999999999998 220.14999999999998,197.75 220.85,199.5 221.89999999999998,199.5 222.25,199.14999999999998 221.54999999999998,198.79999999999998 222.25,198.1 223.64999999999998,199.14999999999998 210.7,184.79999999999998 209.64999999999998,182.35 206.5,179.2 205.1,180.25 204.39999999999998,179.54999999999998 203.7,177.1 204.75,176.04999999999998 207.2,163.45 208.25,161.7 209.29999999999998,157.5 212.45,152.25 214.2,152.6 218.39999999999998,155.75 223.64999999999998,163.45 221.89999999999998,159.95 218.75,155.75 214.54999999999998,152.6" stroke="#aaa" stroke-width="1" /><polyline fill="none" points="9.45,200.89999999999998 10.85,203.7 10.149999999999999,204.04999999999998 10.85,203.7 11.899999999999999,204.75 11.899999999999999,205.45 11.2,205.79999999999998 12.95,205.79999999999998 14.0,207.2 13.299999999999999,207.54999999999998 14.0,207.2 16.099999999999998,209.64999999999998 16.799999999999997,209.29999999999998 18.549999999999997,212.1 18.9,211.39999999999998 19.95,212.79999999999998 23.099999999999998,212.1 22.4,212.45 21.349999999999998,211.75 21.7,212.1 20.299999999999997,212.79999999999998 19.599999999999998,212.1 20.65,211.39999999999998 18.549999999999997,211.39999999999998 12.6,203.0 16.799999999999997,209.29999999999998 16.45,209.64999999999998 13.299999999999999,205.79999999999998 11.549999999999999,205.1 12.25,204.75 10.5,203.0" stroke="#aaa" stroke-width="1" /><polyline fill="none" points="205.45,201.6 206.5,203.7 204.75,205.1 203.7,207.89999999999998 201.6,210.7 200.54999999999998,217.35 201.6,219.79999999999998 204.04999999999998,221.89999999999998 203.35,222.6 204.04999999999998,221.89999999999998 205.79999999999998,223.64999999999998 207.54999999999998,223.64999999999998 201.25,217.35 201.25,215.6 202.29999999999998,213.85 202.29999999999998,212.45 204.75,207.54999999999998 207.2,205.45 207.89999999999998,205.45 209.29999999999998,207.54999999999998 210.35,207.89999999999998 212.45,210.35 214.89999999999998,215.25 217.0,214.2 215.6,214.2 215.25,212.45 212.1,207.89999999999998 207.89999999999998,203.7 206.5,203.7" stroke="#aaa" stroke-width="1" /></svg>