<?xml version="1.0" encoding="utf-8" ?>
<svg baseProfile="full" height="224" version="1.1" width="224" xmlns="http://www.w3.org/2000/svg" xmlns:ev="http://www.w3.org/2001/xml-events" xmlns:xlink="http://www.w3.org/1999/xlink"><defs /><polyline fill="none" points="112.69999999999999,105.0 112.0,105.35 112.0,107.1 112.0,105.69999999999999 112.69999999999999,105.0 108.5,99.75 107.44999999999999,100.1 108.5,99.75 108.5,100.8 108.14999999999999,100.44999999999999 106.39999999999999,101.85 105.35,101.85 99.75,104.64999999999999 98.0,104.3 98.35,104.64999999999999 97.3,105.35 96.6,104.64999999999999 92.05,105.0 96.6,105.0 96.6,106.05 94.85,108.14999999999999 93.1,108.14999999999999 95.55,107.8 96.94999999999999,105.0 98.35,105.35 98.0,105.0 98.69999999999999,104.3 100.1,104.64999999999999 108.85,100.44999999999999" stroke="#aaa" stroke-width="1" /><polyline fill="none" points="117.24999999999999,108.5 119.35,111.64999999999999 119.69999999999999,114.8 121.44999999999999,116.55 121.8,118.3 122.49999999999999,117.6 123.55,119.35 123.19999999999999,120.05 124.24999999999999,120.74999999999999 123.55,121.44999999999999 119.69999999999999,116.55 121.8,120.05 123.55,121.8 123.19999999999999,122.49999999999999 123.55,121.8 127.74999999999999,124.94999999999999 130.54999999999998,126.35 123.55,121.44999999999999 124.24999999999999,121.1 123.19999999999999,119.69999999999999 123.89999999999999,119.35 122.85,118.3 122.85,117.6 121.8,117.6 121.44999999999999,116.19999999999999 119.69999999999999,114.44999999999999 119.35,111.3" stroke="#aaa" stroke-width="1" /><polyline fill="none" points="102.19999999999999,93.8 101.85,94.5 112.69999999999999,93.8 115.14999999999999,94.85 109.19999999999999,94.85 106.39999999999999,95.89999999999999 106.05,96.6 110.94999999999999,100.1 111.3,101.5 114.8,105.35 116.19999999999999,109.55 118.64999999999999,113.74999999999999 118.64999999999999,113.05 116.55,110.25 114.8,105.0 111.3,101.14999999999999 110.94999999999999,99.75 106.39999999999999,96.25 107.1,95.89999999999999 107.8,96.6 107.1,95.89999999999999 109.19999999999999,94.85 113.39999999999999,94.85 114.44999999999999,95.55 114.8,96.94999999999999 116.19999999999999,96.6 118.99999999999999,99.05 120.05,101.85 121.44999999999999,103.25 120.74999999999999,103.6 119.35,102.19999999999999 118.64999999999999,100.1 119.35,102.55 120.39999999999999,103.6 121.44999999999999,103.6 119.69999999999999,100.1 122.14999999999999,98.69999999999999 122.14999999999999,97.64999999999999 124.24999999999999,93.8 125.3,95.55 127.39999999999999,97.3 128.1,101.5 127.39999999999999,102.89999999999999 124.94999999999999,102.55 122.14999999999999,103.25 122.85,103.6 122.49999999999999,103.94999999999999 123.55,103.94999999999999 122.85,103.6 123.19999999999999,102.89999999999999 127.74999999999999,102.89999999999999 128.1,100.1 127.39999999999999,97.3 123.89999999999999,93.1 122.14999999999999,98.35 120.39999999999999,99.75 119.35,99.75 118.64999999999999,98.35 114.8,95.19999999999999 116.19999999999999,94.5 117.6,95.89999999999999 116.55,94.5 112.69999999999999,92.39999999999999 113.74999999999999,92.05 116.89999999999999,93.8 117.94999999999999,94.85 116.19999999999999,93.1 112.0,91.35 108.85,91.0 108.85,91.69999999999999 109.89999999999999,91.69999999999999 109.19999999999999,91.35 109.55,91.0 112.0,91.35 113.05,92.05 112.69999999999999,92.39999999999999 110.6,92.05 114.8,93.44999999999999 116.19999999999999,94.5 115.85,94.85 112.69999999999999,93.8 108.14999999999999,93.44999999999999 107.44999999999999,94.14999999999999 102.89999999999999,94.5" stroke="#aaa" stroke-width="1" /><polyline fill="none" points="124.24999999999999,105.35 125.99999999999999,105.35 126.35,106.39999999999999 128.1,107.1 129.5,106.39999999999999 130.54999999999998,106.75 130.54999999999998,107.8 129.85,108.14999999999999 130.2,109.19999999999999 129.5,111.3 129.5,116.89999999999999 133.7,125.3 133.0,125.99999999999999 134.39999999999998,124.94999999999999 135.45,125.64999999999999 137.2,128.79999999999998 139.64999999999998,130.9 139.64999999999998,131.95 140.35,132.29999999999998 141.39999999999998,134.75 144.54999999999998,137.54999999999998 141.39999999999998,134.39999999999998 138.95,129.85 137.2,128.45 136.14999999999998,125.99999999999999 134.39999999999998,124.6 133.7,123.19999999999999 134.04999999999998,121.44999999999999 133.7,122.49999999999999 133.0,122.14999999999999 133.7,122.49999999999999 134.39999999999998,124.94999999999999 133.7,125.3 133.0,124.6 130.2,117.24999999999999 129.5,116.89999999999999 129.5,111.3 130.54999999999998,109.19999999999999 130.54999999999998,106.39999999999999 128.1,107.1 126.69999999999999,106.39999999999999 126.35,105.35" stroke="#aaa" stroke-width="1" /><polyline fill="none" points="106.75,82.6 108.14999999999999,85.05 109.55,86.1 108.85,86.44999999999999 106.39999999999999,85.75 108.5,86.44999999999999 109.55,86.1 112.0,87.5 111.64999999999999,87.14999999999999 112.69999999999999,86.8 116.19999999999999,88.19999999999999 116.55,88.89999999999999 117.94999999999999,88.55 119.35,89.6 122.14999999999999,89.94999999999999 123.19999999999999,90.64999999999999 124.24999999999999,90.3 124.24999999999999,92.05 124.94999999999999,93.44999999999999 126.35,94.85 127.05,94.85 128.45,96.94999999999999 128.45,99.39999999999999 128.79999999999998,97.64999999999999 128.1,97.3 128.45,96.6 127.74999999999999,96.25 127.74999999999999,95.55 128.79999999999998,94.14999999999999 127.74999999999999,93.8 127.05,94.85 125.99999999999999,94.5 124.24999999999999,92.05 124.6,90.3 123.55,90.64999999999999 121.8,89.6 120.74999999999999,89.94999999999999 117.94999999999999,88.55 116.89999999999999,88.89999999999999 111.64999999999999,86.44999999999999 110.94999999999999,85.39999999999999 113.74999999999999,85.39999999999999 117.94999999999999,84.0 124.6,85.05 127.74999999999999,86.1 130.9,89.6 131.25,91.0 131.95,89.25 131.6,86.44999999999999 133.7,84.0 132.29999999999998,85.05 131.6,86.44999999999999 131.95,89.25 131.25,90.64999999999999 130.9,89.25 127.39999999999999,85.75 124.6,85.05 127.74999999999999,85.05 130.2,87.5 130.9,87.5 130.54999999999998,86.8 131.6,85.39999999999999 125.99999999999999,82.25 124.94999999999999,82.25 124.6,85.05 118.3,84.0 117.6,83.3 116.55,79.44999999999999 116.89999999999999,79.1 116.55,79.44999999999999 117.94999999999999,84.0 113.74999999999999,85.39999999999999 110.94999999999999,85.05 110.25,84.0 110.94999999999999,85.05 110.25,85.39999999999999 111.3,86.44999999999999 110.94999999999999,86.8 109.89999999999999,86.44999999999999 109.19999999999999,85.39999999999999 109.55,85.05 108.85,82.25 108.85,82.94999999999999 108.14999999999999,82.94999999999999 109.19999999999999,83.3 109.19999999999999,85.39999999999999" stroke="#aaa" stroke-width="1" /><polyline fill="none" points="82.6,118.3 82.94999999999999,119.69999999999999 86.1,122.49999999999999 91.69999999999999,124.94999999999999 93.1,124.6 92.75,122.85 88.89999999999999,122.85 90.64999999999999,122.85 92.05,124.24999999999999 91.69999999999999,124.94999999999999 89.6,123.55 88.55,123.55 88.19999999999999,122.85 87.85,123.19999999999999 84.69999999999999,121.1 84.69999999999999,120.05 87.85,122.14999999999999 86.8,121.8 83.3,118.3" stroke="#aaa" stroke-width="1" /><polyline fill="none" points="95.19999999999999,80.5 96.25,80.85 96.6,81.89999999999999 95.19999999999999,82.94999999999999 94.85,84.69999999999999 96.25,86.1 96.25,87.14999999999999 97.64999999999999,88.19999999999999 95.55,90.3 97.64999999999999,89.25 97.3,88.55 98.0,88.19999999999999 99.39999999999999,88.89999999999999 98.69999999999999,89.6 98.35,89.25 97.64999999999999,90.64999999999999 96.94999999999999,90.64999999999999 101.14999999999999,90.64999999999999 98.69999999999999,90.64999999999999 98.35,89.94999999999999 99.75,88.55 100.44999999999999,89.25 99.05,87.5 98.35,87.5 99.05,87.5 99.39999999999999,88.19999999999999 98.35,88.55 96.25,86.8 96.6,86.1 94.85,84.35 95.19999999999999,83.3 96.25,82.6 96.6,81.19999999999999" stroke="#aaa" stroke-width="1" /><polyline fill="none" points="132.29999999999998,127.74999999999999 130.54999999999998,127.74999999999999 132.29999999999998,127.74999999999999 132.65,128.45 133.35,128.45 137.2,132.65 133.0,135.79999999999998 133.35,136.14999999999998 132.29999999999998,138.25 132.29999999999998,144.2 130.9,145.95 129.85,145.25 130.54999999999998,145.95 128.79999999999998,147.35 129.5,147.35 129.15,147.0 131.95,145.25 132.29999999999998,139.29999999999998 134.04999999999998,137.54999999999998 132.65,138.95 132.65,137.2 134.75,134.75 137.2,133.0 137.2,131.95 133.7,128.45" stroke="#aaa" stroke-width="1" /><polyline fill="none" points="100.8,74.19999999999999 99.75,75.25 99.75,76.64999999999999 98.69999999999999,77.35 98.69999999999999,78.39999999999999 101.14999999999999,81.19999999999999 102.19999999999999,81.55 100.8,80.5 101.85,80.14999999999999 105.35,82.25 105.0,81.55 103.94999999999999,81.55 103.25,80.5 101.85,79.8 101.14999999999999,80.14999999999999 100.1,77.35 99.75,77.69999999999999 99.39999999999999,77.0 100.44999999999999,75.94999999999999 101.14999999999999,77.69999999999999 101.85,77.35 105.35,79.1 108.14999999999999,79.44999999999999 108.14999999999999,77.69999999999999 107.44999999999999,76.3 104.3,75.6 105.35,75.6 106.05,76.3 105.35,76.64999999999999 106.75,75.94999999999999 108.14999999999999,77.69999999999999 108.14999999999999,79.1 106.39999999999999,79.44999999999999 102.55,77.69999999999999 101.5,76.64999999999999 102.55,75.6 104.64999999999999,76.64999999999999 103.94999999999999,76.64999999999999 102.55,75.25 101.14999999999999,77.0 100.8,75.6 99.75,75.6" stroke="#aaa" stroke-width="1" /><polyline fill="none" points="129.5,138.25 128.45,138.6 126.35,143.14999999999998 125.64999999999999,143.85 124.6,143.5 123.89999999999999,144.2 123.89999999999999,147.35 122.85,148.04999999999998 123.89999999999999,147.35 125.3,144.89999999999998 124.24999999999999,146.64999999999998 123.55,145.95 123.89999999999999,144.54999999999998 124.94999999999999,143.5 126.35,143.5 129.15,138.25 129.5,139.29999999999998 128.1,145.25 127.05,146.64999999999998 124.6,147.7 122.49999999999999,149.79999999999998 125.3,147.35 127.39999999999999,146.64999999999998 128.1,145.6" stroke="#aaa" stroke-width="1" /><polyline fill="none" points="117.24999999999999,133.35 116.89999999999999,135.1 114.44999999999999,135.79999999999998 114.1,136.85 114.8,135.79999999999998 115.85,135.45 115.85,137.89999999999998 113.39999999999999,139.64999999999998 110.6,140.7 107.1,146.29999999999998 106.05,147.35 104.64999999999999,147.35 101.85,150.14999999999998 100.44999999999999,153.64999999999998 100.44999999999999,157.5 101.14999999999999,159.25 107.1,165.54999999999998 107.8,167.64999999999998 107.8,166.6 106.75,164.85 101.14999999999999,158.89999999999998 100.44999999999999,157.5 100.44999999999999,153.64999999999998 102.19999999999999,149.79999999999998 104.3,147.7 107.1,146.64999999999998 107.1,145.95 110.25,141.39999999999998 115.85,138.25 116.19999999999999,135.79999999999998 117.24999999999999,134.75" stroke="#aaa" stroke-width="1" /><polyline fill="none" points="79.1,101.14999999999999 76.64999999999999,102.89999999999999 76.3,104.3 73.5,107.8 72.8,109.89999999999999 70.69999999999999,112.69999999999999 72.8,110.25 73.14999999999999,108.5 74.89999999999999,106.75 76.64999999999999,103.25 78.05,102.55" stroke="#aaa" stroke-width="1" /><polyline fill="none" points="142.1,82.25 140.7,81.89999999999999 139.29999999999998,82.6 136.85,81.89999999999999 136.5,82.6 134.39999999999998,82.6 136.85,82.6 137.2,81.89999999999999 137.89999999999998,81.89999999999999 140.35,83.3 137.89999999999998,83.3 136.5,84.35 137.89999999999998,86.1 137.54999999999998,87.14999999999999 137.89999999999998,85.75 136.85,84.35 137.89999999999998,83.3 138.95,83.64999999999999 139.29999999999998,85.75 138.6,86.1 139.29999999999998,86.1 139.29999999999998,84.0" stroke="#aaa" stroke-width="1" /><polyline fill="none" points="112.69999999999999,73.85 111.3,72.44999999999999 111.3,71.75 108.14999999999999,69.3 106.75,69.3 106.39999999999999,68.25 106.39999999999999,68.94999999999999 101.85,68.94999999999999 99.39999999999999,70.35 99.75,72.1 98.0,73.14999999999999 98.0,73.85 98.69999999999999,73.85 98.0,77.35 98.0,76.3 99.05,74.55 98.69999999999999,74.19999999999999 100.8,72.8 100.8,71.75 101.5,71.39999999999999 100.1,71.75 99.39999999999999,70.69999999999999 101.85,68.94999999999999 108.14999999999999,69.3 111.3,72.1 111.3,72.8 112.69999999999999,74.19999999999999 112.69999999999999,75.94999999999999 112.0,76.3 111.3,75.6 110.94999999999999,73.5 108.85,72.44999999999999 106.75,72.44999999999999 108.85,72.44999999999999 109.89999999999999,73.5 110.6,73.5 110.6,74.55 109.19999999999999,74.55 110.6,74.55 111.64999999999999,76.3 113.05,76.3" stroke="#aaa" stroke-width="1" /><polyline fill="none" points="149.79999999999998,144.89999999999998 141.75,136.14999999999998 138.95,133.7 138.95,134.39999999999998 138.25,133.7 135.79999999999998,136.14999999999998 133.7,139.29999999999998 133.35,145.25 133.0,145.6 132.65,144.89999999999998 133.0,145.6 131.95,146.64999999999998 130.2,147.0 130.2,147.7 128.79999999999998,149.1 130.2,148.04999999999998 130.54999999999998,147.0 133.0,147.0 132.29999999999998,146.64999999999998 133.7,144.54999999999998 133.7,139.64999999999998 135.79999999999998,136.5 138.25,134.39999999999998 139.29999999999998,134.39999999999998 141.39999999999998,136.14999999999998 149.79999999999998,145.25 147.7,145.6 145.25,143.5 142.79999999999998,143.14999999999998 142.1,144.89999999999998 139.29999999999998,143.85 135.79999999999998,144.2 135.45,145.95 135.45,144.89999999999998 136.14999999999998,144.2 139.29999999999998,143.85 142.1,144.89999999999998 143.14999999999998,143.14999999999998 144.89999999999998,143.5 147.7,145.6 149.45,145.6" stroke="#aaa" stroke-width="1" /><polyline fill="none" points="87.85,85.75 87.14999999999999,85.39999999999999 85.75,86.1 82.25,86.1 81.89999999999999,85.39999999999999 83.3,84.35 80.85,85.39999999999999 80.5,84.69999999999999 82.25,82.6 80.85,83.3 80.5,85.39999999999999 81.89999999999999,85.75 81.19999999999999,86.1 81.19999999999999,87.14999999999999 80.14999999999999,87.14999999999999 81.19999999999999,87.14999999999999 81.55,86.1 85.75,86.1 87.14999999999999,85.39999999999999 87.85,86.1 85.75,87.5 86.8,90.64999999999999 86.44999999999999,91.35 86.8,91.0 87.5,91.69999999999999 86.8,92.39999999999999 81.55,92.05 74.89999999999999,95.19999999999999 73.14999999999999,96.6 72.44999999999999,95.89999999999999 72.8,94.14999999999999 72.44999999999999,96.25 73.14999999999999,96.6 72.44999999999999,97.3 70.69999999999999,94.5 71.75,93.1 71.75,91.35 73.14999999999999,89.94999999999999 73.14999999999999,89.25 68.94999999999999,89.6 68.6,90.64999999999999 67.55,90.3 65.45,94.14999999999999 63.699999999999996,95.89999999999999 62.99999999999999,94.85 62.3,94.85 62.3,98.35 60.9,101.85 61.599999999999994,102.55 64.39999999999999,102.55 68.94999999999999,103.94999999999999 70.69999999999999,102.55 70.35,101.85 71.05,101.5 71.05,100.1 72.8,98.0 75.25,98.0 77.0,96.94999999999999 77.0,96.25 75.25,98.0 73.5,97.64999999999999 72.1,98.35 71.39999999999999,97.64999999999999 72.1,98.35 70.35,100.44999999999999 67.89999999999999,96.6 68.94999999999999,95.55 67.89999999999999,95.89999999999999 66.85,94.5 66.14999999999999,94.5 62.3,98.0 62.3,95.19999999999999 62.65,94.85 63.699999999999996,95.89999999999999 63.349999999999994,96.25 65.45,94.5 66.85,91.35 67.89999999999999,90.3 68.6,90.64999999999999 68.25,91.0 70.35,90.3 69.3,90.64999999999999 69.3,89.6 73.14999999999999,89.6 71.75,91.0 71.75,93.1 70.69999999999999,94.5 72.1,97.3 72.8,97.3 75.25,95.19999999999999 75.94999999999999,95.55 75.94999999999999,96.25 77.0,95.19999999999999 79.8,95.19999999999999 82.25,95.89999999999999 82.25,96.6 82.6,96.25 83.64999999999999,96.94999999999999 80.85,98.69999999999999 79.44999999999999,100.44999999999999 83.3,97.3 84.35,97.3 85.39999999999999,96.25 91.0,96.6 85.05,96.25 84.0,97.3 82.6,95.89999999999999 79.8,95.19999999999999 75.6,95.19999999999999 81.89999999999999,92.05 87.14999999999999,92.39999999999999 87.5,91.69999999999999 88.19999999999999,91.69999999999999 86.1,89.6 86.1,87.5 87.5,86.8" stroke="#aaa" stroke-width="1" /><polyline fill="none" points="76.3,137.89999999999998 77.35,138.25 78.39999999999999,139.64999999999998 79.1,139.64999999999998 78.39999999999999,139.64999999999998 77.69999999999999,138.25 76.3,137.89999999999998 78.39999999999999,137.54999999999998 79.8,138.25 82.94999999999999,141.39999999999998 82.94999999999999,142.1 83.3,141.75 85.39999999999999,143.85 87.5,144.89999999999998 82.94999999999999,141.39999999999998 83.64999999999999,140.7 82.94999999999999,141.04999999999998 82.25,140.35 82.94999999999999,140.0 81.89999999999999,140.35 81.19999999999999,139.64999999999998 81.89999999999999,139.29999999999998 81.19999999999999,139.64999999999998 80.14999999999999,138.25 78.75,137.54999999999998 80.14999999999999,137.2 80.85,138.25 83.64999999999999,139.64999999999998 81.19999999999999,138.25 79.1,135.45 79.8,136.85" stroke="#aaa" stroke-width="1" /><polyline fill="none" points="86.8,74.19999999999999 86.1,74.19999999999999 86.8,74.19999999999999 86.8,74.89999999999999 84.69999999999999,74.55 86.44999999999999,74.89999999999999 87.5,75.94999999999999 86.44999999999999,77.0 84.35,76.64999999999999 85.75,75.94999999999999 84.35,76.64999999999999 83.64999999999999,75.6 82.6,75.6 81.19999999999999,78.05 81.19999999999999,79.44999999999999 82.25,79.8 86.8,77.69999999999999 87.85,77.69999999999999 87.14999999999999,76.3 87.5,75.6 86.8,74.89999999999999 87.14999999999999,74.55 88.55,74.89999999999999 89.6,75.94999999999999 89.94999999999999,78.39999999999999 89.25,80.14999999999999 85.75,83.64999999999999 85.05,82.94999999999999 85.39999999999999,81.89999999999999 86.44999999999999,81.55 88.55,79.1 86.1,81.55 85.39999999999999,81.55 85.39999999999999,83.64999999999999 84.69999999999999,84.35 86.44999999999999,83.3 87.14999999999999,83.64999999999999 86.8,83.3 89.25,80.5 89.94999999999999,78.39999999999999 89.6,75.6" stroke="#aaa" stroke-width="1" /><polyline fill="none" points="128.1,147.35 127.05,149.45 126.35,148.75 125.99999999999999,149.45 126.69999999999999,149.1 126.69999999999999,150.14999999999998 124.94999999999999,151.54999999999998 123.89999999999999,151.2 124.94999999999999,151.54999999999998 123.89999999999999,152.25 123.19999999999999,151.89999999999998 123.19999999999999,152.95 120.39999999999999,156.1 119.69999999999999,155.39999999999998 122.14999999999999,152.6 121.1,152.95 119.69999999999999,155.39999999999998 120.39999999999999,156.45 118.3,161.0 120.05,156.79999999999998 123.19999999999999,152.95 123.89999999999999,153.29999999999998 120.74999999999999,157.14999999999998 121.1,157.85 120.74999999999999,157.5 122.85,154.7 123.55,155.39999999999998 123.19999999999999,154.35 126.69999999999999,151.54999999999998 127.39999999999999,152.25 127.05,151.54999999999998 127.74999999999999,150.85 128.79999999999998,151.89999999999998 127.74999999999999,150.85 128.79999999999998,149.79999999999998 129.5,150.85 130.2,150.85 129.5,150.85 128.1,149.45 128.45,149.79999999999998 125.99999999999999,152.25 124.24999999999999,153.29999999999998 123.55,152.95 126.69999999999999,150.5 128.1,148.39999999999998" stroke="#aaa" stroke-width="1" /><polyline fill="none" points="70.69999999999999,127.74999999999999 71.75,132.65 71.75,138.25 71.75,136.85 73.85,136.14999999999998 74.19999999999999,135.45 73.85,134.75 73.14999999999999,135.45 72.44999999999999,135.1 71.39999999999999,127.74999999999999" stroke="#aaa" stroke-width="1" /><polyline fill="none" points="93.1,35.0 94.14999999999999,35.0 94.85,35.699999999999996 95.55,37.8 97.3,39.55 101.14999999999999,39.55 102.89999999999999,40.949999999999996 107.1,41.65 116.55,51.099999999999994 120.05,57.4 120.74999999999999,59.849999999999994 121.8,75.94999999999999 123.89999999999999,75.94999999999999 123.55,73.85 124.94999999999999,72.44999999999999 133.7,72.8 135.79999999999998,74.19999999999999 135.45,74.55 136.5,74.19999999999999 137.2,74.89999999999999 136.5,75.25 136.14999999999998,74.89999999999999 137.54999999999998,74.89999999999999 138.95,75.6 140.35,77.0 140.0,77.35 137.2,77.35 134.04999999999998,78.39999999999999 133.0,78.39999999999999 131.6,77.35 130.2,78.05 128.1,77.35 128.79999999999998,77.69999999999999 127.74999999999999,78.05 127.39999999999999,77.35 127.05,77.69999999999999 125.64999999999999,76.3 124.94999999999999,76.64999999999999 124.6,75.94999999999999 124.6,76.64999999999999 125.3,76.3 125.64999999999999,77.0 127.74999999999999,78.05 130.54999999999998,78.05 131.25,77.35 132.29999999999998,77.69999999999999 132.29999999999998,78.39999999999999 129.85,79.44999999999999 125.3,78.05 123.89999999999999,77.0 124.24999999999999,77.69999999999999 129.85,79.44999999999999 131.95,78.39999999999999 134.04999999999998,78.39999999999999 137.2,77.35 140.0,77.35 144.2,79.1 141.75,78.05 143.14999999999998,77.69999999999999 146.64999999999998,79.1 148.75,80.85 146.64999999999998,91.35 146.29999999999998,100.44999999999999 146.64999999999998,107.8 147.7,113.05 149.45,116.55 152.95,118.3 161.7,126.69999999999999 161.0,127.39999999999999 160.64999999999998,126.69999999999999 161.7,127.74999999999999 161.35,127.39999999999999 162.39999999999998,127.05 167.64999999999998,132.29999999999998 181.64999999999998,143.14999999999998 206.5,159.6 207.89999999999998,159.6 207.89999999999998,153.64999999999998 207.2,151.89999999999998 207.54999999999998,149.1 206.5,142.45 206.85,136.85 205.79999999999998,123.55 206.5,123.55 205.45,119.35 205.45,111.64999999999999 205.45,119.35 206.14999999999998,121.44999999999999 205.79999999999998,124.24999999999999 206.85,136.85 206.5,142.45 207.54999999999998,149.1 207.2,151.89999999999998 207.89999999999998,153.64999999999998 207.89999999999998,159.25 206.85,159.6 182.0,143.14999999999998 168.0,132.29999999999998 153.29999999999998,118.3 150.5,117.24999999999999 149.45,116.19999999999999 147.7,113.05 146.64999999999998,107.8 146.29999999999998,100.44999999999999 146.64999999999998,91.69999999999999 148.75,82.6 148.75,80.5 147.0,79.1 140.7,77.0 139.29999999999998,75.6 134.04999999999998,72.8 124.24999999999999,72.8 123.19999999999999,72.1 123.89999999999999,71.39999999999999 123.19999999999999,71.75 123.89999999999999,72.8 123.89999999999999,75.6 122.14999999999999,75.94999999999999 121.44999999999999,73.85 121.8,72.44999999999999 121.1,61.949999999999996 120.05,57.05 118.64999999999999,55.3 117.94999999999999,52.849999999999994 116.55,50.75 112.69999999999999,47.25 113.05,46.55 113.74999999999999,46.55 114.1,47.25 114.1,46.55 112.0,46.55 108.5,43.05 201.6,40.599999999999994 202.29999999999998,43.4 201.95,47.25 202.64999999999998,59.849999999999994 201.95,43.75 202.29999999999998,43.4 203.0,44.449999999999996 203.0,48.3 203.0,44.449999999999996 201.95,43.05 201.6,41.3 202.29999999999998,40.949999999999996 196.0,40.599999999999994 108.5,43.05 107.44999999999999,41.65 103.25,40.949999999999996 101.14999999999999,39.55 97.64999999999999,39.55 96.25,38.5 94.85,35.349999999999994" stroke="#aaa" stroke-width="1" /><polyline fill="none" points="77.0,74.55 79.1,72.44999999999999 80.5,72.44999999999999 82.25,70.69999999999999 87.14999999999999,70.0 89.25,70.69999999999999 90.3,72.1 90.3,74.55 92.39999999999999,75.94999999999999 91.35,78.39999999999999 92.39999999999999,77.0 92.39999999999999,75.6 92.75,75.25 93.1,76.3 93.44999999999999,75.6 92.05,75.6 90.64999999999999,74.55 90.3,72.1 89.25,70.35 87.5,70.0 83.3,70.35 81.55,71.05 80.14999999999999,72.44999999999999 79.1,72.1 80.5,71.05 79.8,71.05" stroke="#aaa" stroke-width="1" /><polyline fill="none" points="75.25,139.64999999999998 75.25,140.7 76.64999999999999,142.45 76.64999999999999,143.5 77.35,142.79999999999998 79.8,144.89999999999998 79.44999999999999,145.25 80.14999999999999,145.6 80.14999999999999,146.64999999999998 80.85,146.64999999999998 82.6,149.45 83.64999999999999,149.79999999999998 84.69999999999999,151.2 84.35,152.6 86.8,154.0 86.44999999999999,155.04999999999998 87.5,154.7 88.19999999999999,155.39999999999998 87.85,156.45 87.14999999999999,156.1 88.89999999999999,157.5 87.85,156.45 88.55,155.39999999999998 89.94999999999999,155.39999999999998 88.55,155.39999999999998 84.35,152.25 85.05,151.54999999999998 85.75,152.25 84.69999999999999,151.2 85.05,150.85 84.69999999999999,151.2 82.6,149.1 81.55,147.0 80.14999999999999,146.29999999999998 80.14999999999999,145.6 80.85,145.25 80.14999999999999,145.25 77.35,142.45 77.35,141.75 77.0,142.79999999999998 76.3,142.1 76.64999999999999,141.75 76.3,142.1 75.6,141.39999999999998 75.94999999999999,139.64999999999998" stroke="#aaa" stroke-width="1" /><polyline fill="none" points="145.6,135.79999999999998 147.35,137.54999999999998 147.7,138.95 151.89999999999998,143.14999999999998 152.6,142.45 153.29999999999998,143.85 152.95,142.45 151.54999999999998,142.45 151.89999999999998,140.7 150.5,139.29999999999998 150.5,138.25 149.45,137.89999999999998 150.5,138.6 150.14999999999998,139.64999999999998 151.89999999999998,141.04999999999998 151.89999999999998,141.75 151.2,142.1 149.79999999999998,140.7 150.14999999999998,140.35 149.1,140.35 149.45,140.0 148.75,139.64999999999998 149.45,138.95 148.39999999999998,138.25 149.1,138.95 148.39999999999998,139.64999999999998 147.35,137.2" stroke="#aaa" stroke-width="1" /><polyline fill="none" points="84.35,139.29999999999998 85.75,140.35 91.0,141.39999999999998 91.69999999999999,142.1 100.8,142.45 103.94999999999999,146.64999999999998 101.14999999999999,149.45 99.75,154.35 98.35,154.7 99.39999999999999,155.04999999999998 100.1,158.54999999999998 99.75,159.6 100.1,159.25 105.35,164.85 107.1,167.64999999999998 107.1,168.7 106.75,169.04999999999998 101.85,165.2 99.75,162.75 97.64999999999999,158.89999999999998 96.6,154.7 96.94999999999999,150.5 98.35,148.04999999999998 96.94999999999999,150.14999999999998 96.6,154.7 97.64999999999999,158.89999999999998 100.8,164.14999999999998 106.75,169.39999999999998 106.39999999999999,170.45 103.94999999999999,167.64999999999998 100.1,164.5 97.64999999999999,161.0 95.55,155.39999999999998 95.55,151.89999999999998 96.6,148.75 97.64999999999999,147.35 98.35,147.35 96.94999999999999,148.04999999999998 95.55,151.89999999999998 95.55,155.39999999999998 96.25,157.85 98.35,162.39999999999998 101.14999999999999,165.89999999999998 100.1,165.89999999999998 101.5,165.89999999999998 105.0,169.04999999999998 104.64999999999999,169.39999999999998 105.0,169.04999999999998 106.05,170.1 107.1,173.25 107.44999999999999,178.14999999999998 103.6,182.35 100.8,188.64999999999998 104.3,181.64999999999998 110.94999999999999,175.35 110.25,175.0 110.6,175.35 108.14999999999999,177.79999999999998 107.1,177.79999999999998 107.1,173.25 106.39999999999999,170.45 106.75,170.1 107.44999999999999,170.79999999999998 107.8,172.2 107.44999999999999,172.54999999999998 107.44999999999999,170.79999999999998 108.14999999999999,168.7 107.8,170.45 107.1,170.45 106.75,169.04999999999998 107.44999999999999,169.04999999999998 106.39999999999999,165.89999999999998 102.19999999999999,161.7 99.75,158.2 99.39999999999999,154.7 100.44999999999999,151.2 103.94999999999999,146.64999999999998 105.35,146.29999999999998 103.94999999999999,146.29999999999998 101.5,142.79999999999998 105.0,142.1 106.39999999999999,143.85 105.69999999999999,142.45 107.1,141.39999999999998 107.8,142.1 107.1,142.79999999999998 107.1,143.85 107.8,141.75 109.55,141.04999999999998 101.5,142.79999999999998 95.19999999999999,142.45 89.25,141.39999999999998" stroke="#aaa" stroke-width="1" /><polyline fill="none" points="64.05,127.39999999999999 64.05,128.45 65.8,130.2 66.85,130.2 65.8,128.1" stroke="#aaa" stroke-width="1" /><polyline fill="none" points="75.25,113.74999999999999 75.94999999999999,117.94999999999999 75.25,118.3 76.3,118.3 75.94999999999999,120.05 74.55,119.69999999999999 73.5,117.94999999999999 72.8,117.94999999999999 71.75,116.89999999999999 71.75,116.19999999999999 72.8,115.85 72.1,114.1 72.1,112.35 72.8,111.64999999999999 70.0,114.1 68.94999999999999,116.19999999999999 66.14999999999999,118.99999999999999 64.75,118.64999999999999 63.699999999999996,119.35 65.1,118.64999999999999 65.8,118.99999999999999 64.39999999999999,120.39999999999999 58.8,124.24999999999999 54.599999999999994,126.35 52.15,128.45 52.15,130.54999999999998 51.449999999999996,131.25 51.449999999999996,136.14999999999998 49.699999999999996,138.6 49.349999999999994,140.35 50.05,140.35 51.449999999999996,138.6 53.199999999999996,132.65 54.949999999999996,131.95 53.9,132.29999999999998 53.55,131.6 56.0,130.54999999999998 55.3,130.2 55.3,129.15 55.3,130.54999999999998 53.9,131.25 53.199999999999996,132.29999999999998 52.849999999999994,131.95 54.599999999999994,128.1 60.9,127.39999999999999 61.24999999999999,127.74999999999999 63.699999999999996,126.69999999999999 66.14999999999999,126.69999999999999 68.6,125.64999999999999 70.0,125.64999999999999 72.44999999999999,124.24999999999999 74.19999999999999,124.24999999999999 77.0,122.14999999999999" stroke="#aaa" stroke-width="1" /><polyline fill="none" points="135.79999999999998,146.64999999999998 134.39999999999998,148.39999999999998 135.79999999999998,146.64999999999998 136.5,147.35 138.95,147.7 141.39999999999998,149.45 143.14999999999998,149.45 145.6,151.89999999999998 150.85,151.89999999999998 151.89999999999998,151.54999999999998 152.95,150.14999999999998 153.64999999999998,150.14999999999998 154.7,151.2 154.35,151.89999999999998 152.95,151.89999999999998 152.25,153.64999999999998 149.1,156.45 148.39999999999998,156.1 148.39999999999998,154.7 147.35,155.04999999999998 147.7,155.39999999999998 148.04999999999998,154.7 148.75,156.45 145.6,158.54999999999998 144.54999999999998,157.85 144.2,156.79999999999998 145.25,155.39999999999998 144.89999999999998,155.04999999999998 145.6,153.29999999999998 145.25,152.6 145.6,152.95 144.89999999999998,153.29999999999998 144.54999999999998,152.25 144.54999999999998,153.29999999999998 145.25,154.0 144.2,156.45 144.54999999999998,158.2 145.25,158.54999999999998 144.54999999999998,158.89999999999998 146.29999999999998,158.2 147.0,158.54999999999998 144.54999999999998,159.95 148.75,157.85 149.45,157.14999999999998 147.7,158.54999999999998 146.64999999999998,158.2 150.85,155.39999999999998 153.29999999999998,151.89999999999998 154.35,151.89999999999998 155.04999999999998,151.2 154.0,150.14999999999998 152.6,150.14999999999998 151.54999999999998,151.54999999999998 150.5,151.89999999999998 145.6,151.89999999999998 144.2,150.5 144.54999999999998,149.79999999999998 145.95,151.2 149.45,151.2 152.95,149.45 152.95,148.75 150.85,146.29999999999998 147.35,146.29999999999998 144.2,144.2 142.79999999999998,145.6 140.7,145.6 139.64999999999998,144.89999999999998 140.35,145.95 143.14999999999998,145.6 143.85,144.54999999999998 144.2,147.35 143.85,145.95 144.54999999999998,144.54999999999998 145.95,145.95 150.14999999999998,145.95 152.6,148.39999999999998 152.6,149.45 149.45,151.2 146.29999999999998,151.2 145.6,150.5 145.6,148.39999999999998 145.25,150.5 144.54999999999998,149.1 143.5,148.39999999999998 142.1,148.75 139.64999999999998,147.0 136.85,146.29999999999998" stroke="#aaa" stroke-width="1" /><polyline fill="none" points="74.19999999999999,137.2 73.85,137.89999999999998 72.8,137.54999999999998 73.14999999999999,137.89999999999998 72.44999999999999,141.39999999999998 70.69999999999999,143.5 69.64999999999999,143.85 68.94999999999999,145.95 67.55,147.35 66.85,147.0 67.55,146.29999999999998 66.5,146.29999999999998 65.8,145.25 66.5,144.54999999999998 67.89999999999999,144.54999999999998 68.25,145.25 68.94999999999999,143.5 70.35,142.79999999999998 71.75,141.04999999999998 71.39999999999999,140.0 72.1,139.29999999999998 70.0,141.04999999999998 67.89999999999999,142.1 67.55,141.75 67.89999999999999,143.14999999999998 68.25,141.75 70.35,141.04999999999998 71.39999999999999,140.0 71.75,141.04999999999998 70.69999999999999,142.1 70.35,141.75 69.3,142.45 70.35,142.45 68.94999999999999,143.5 68.25,144.89999999999998 67.89999999999999,143.85 67.55,144.54999999999998 65.8,144.89999999999998 65.8,145.95 66.85,146.64999999999998 66.85,147.35 68.94999999999999,146.64999999999998 70.0,148.04999999999998 69.3,148.39999999999998 70.0,148.39999999999998 69.64999999999999,147.0 68.94999999999999,146.64999999999998 69.3,144.54999999999998 71.05,143.5 72.44999999999999,141.75 72.8,138.25" stroke="#aaa" stroke-width="1" /><polyline fill="none" points="72.44999999999999,77.0 70.69999999999999,75.94999999999999 64.05,75.25 70.69999999999999,75.94999999999999 72.8,78.05 70.35,80.14999999999999 67.55,80.5 66.5,80.14999999999999 65.45,78.75 62.99999999999999,80.85 61.24999999999999,80.85 60.55,81.89999999999999 59.49999999999999,81.55 58.8,82.6 59.15,84.35 59.49999999999999,83.64999999999999 59.849999999999994,84.0 59.15,86.1 57.74999999999999,85.75 58.8,85.05 58.449999999999996,84.35 57.4,85.75 59.49999999999999,86.1 59.849999999999994,84.0 61.949999999999996,81.89999999999999 64.39999999999999,81.55 61.599999999999994,81.89999999999999 60.55,82.94999999999999 60.199999999999996,82.6 60.55,82.94999999999999 59.849999999999994,83.64999999999999 58.8,83.3 58.8,82.6 59.849999999999994,81.55 60.55,81.89999999999999 61.599999999999994,80.85 63.349999999999994,80.85 64.05,80.14999999999999 64.75,80.5 64.39999999999999,80.85 65.45,80.5 66.14999999999999,81.55 64.75,84.0 63.699999999999996,83.3 64.05,82.6 63.349999999999994,82.25 64.05,82.94999999999999 62.99999999999999,83.3 64.05,83.64999999999999 64.75,85.39999999999999 61.949999999999996,86.8 59.49999999999999,89.25 60.55,88.55 61.24999999999999,89.25 63.699999999999996,86.8 65.1,86.1 68.25,85.75 68.6,84.35 69.3,85.05 71.05,85.05 72.44999999999999,84.35 72.44999999999999,80.5 72.44999999999999,84.0 71.75,84.69999999999999 69.64999999999999,85.05 68.25,84.35 67.89999999999999,85.75 65.1,86.1 63.349999999999994,87.14999999999999 62.65,86.8 64.75,85.39999999999999 64.75,84.0 65.45,82.94999999999999 67.55,81.55 66.5,81.89999999999999 65.45,80.5 64.39999999999999,80.14999999999999 65.1,79.1 67.55,80.5 70.35,80.14999999999999 72.44999999999999,78.75" stroke="#aaa" stroke-width="1" /><polyline fill="none" points="150.85,143.14999999999998 152.95,145.95 155.39999999999998,147.7 155.39999999999998,149.1 158.89999999999998,153.29999999999998 160.29999999999998,156.1 161.7,157.14999999999998 155.39999999999998,148.75 156.1,148.04999999999998 156.45,149.1 156.79999999999998,148.39999999999998 157.5,149.1 157.5,150.14999999999998 158.2,149.45 158.54999999999998,150.5 158.54999999999998,149.45 157.85,149.45 157.5,148.75 158.2,148.39999999999998 156.79999999999998,148.39999999999998 155.75,145.95 154.7,145.6 155.39999999999998,144.89999999999998 155.04999999999998,142.79999999999998 155.04999999999998,145.25 153.64999999999998,145.25 156.1,146.64999999999998 156.45,147.7 155.75,148.39999999999998 155.04999999999998,147.0 154.35,147.0" stroke="#aaa" stroke-width="1" /><polyline fill="none" points="122.85,131.25 123.19999999999999,135.1 122.49999999999999,135.1 122.14999999999999,131.25 122.49999999999999,135.1 120.74999999999999,138.6 121.1,141.39999999999998 119.69999999999999,143.5 120.39999999999999,146.29999999999998 121.44999999999999,148.04999999999998 121.44999999999999,150.14999999999998 116.19999999999999,159.6 116.19999999999999,166.95 114.8,169.75 114.8,171.85 113.39999999999999,173.95 111.3,176.04999999999998 112.35,175.0 113.05,175.35 111.64999999999999,176.75 110.25,176.75 110.94999999999999,177.1 105.0,182.35 102.19999999999999,187.6 101.14999999999999,190.75 102.19999999999999,188.29999999999998 102.89999999999999,189.0 102.19999999999999,191.1 101.85,195.64999999999998 105.0,198.1 104.3,198.79999999999998 96.25,198.79999999999998 104.64999999999999,198.79999999999998 105.0,198.1 107.44999999999999,198.45 112.0,197.75 112.35,196.7 111.3,194.6 111.3,191.45 112.69999999999999,188.64999999999998 114.1,194.25 115.49999999999999,196.7 115.85,199.14999999999998 117.24999999999999,199.5 118.3,200.54999999999998 119.69999999999999,200.54999999999998 118.3,200.54999999999998 115.85,198.79999999999998 115.14999999999999,195.64999999999998 113.05,190.75 113.05,188.64999999999998 112.35,188.64999999999998 111.3,191.45 111.3,194.95 112.35,196.7 111.3,198.1 105.69999999999999,198.45 101.85,195.29999999999998 102.19999999999999,191.1 103.6,187.6 107.8,182.0 108.14999999999999,183.04999999999998 107.1,184.45 108.14999999999999,183.04999999999998 107.8,182.0 111.3,178.5 115.49999999999999,176.75 118.99999999999999,174.29999999999998 118.99999999999999,172.54999999999998 120.39999999999999,171.14999999999998 121.1,171.5 120.39999999999999,172.2 126.69999999999999,167.64999999999998 133.0,167.64999999999998 131.95,168.0 126.35,167.29999999999998 128.45,166.6 132.29999999999998,166.6 132.65,166.95 126.35,166.95 122.14999999999999,169.04999999999998 118.3,173.6 116.89999999999999,172.54999999999998 117.94999999999999,173.6 116.89999999999999,174.64999999999998 115.85,174.64999999999998 116.19999999999999,175.0 114.44999999999999,176.39999999999998 112.0,177.45 111.3,177.1 114.44999999999999,174.64999999999998 117.6,169.75 122.14999999999999,165.2 127.39999999999999,163.45 133.0,163.45 130.54999999999998,162.75 127.05,162.75 121.1,164.85 117.94999999999999,168.0 119.69999999999999,166.6 120.39999999999999,166.95 118.3,169.04999999999998 117.6,169.04999999999998 116.19999999999999,172.2 113.39999999999999,175.35 112.69999999999999,175.0 114.8,172.2 114.8,169.75 116.19999999999999,166.95 116.19999999999999,159.95 117.6,156.79999999999998 118.3,156.1 118.64999999999999,156.79999999999998 118.3,155.75 120.05,153.29999999999998 121.8,149.1 119.69999999999999,143.5 120.39999999999999,143.14999999999998 121.8,145.6 122.49999999999999,145.6 122.85,144.89999999999998 121.8,140.7 122.85,138.6" stroke="#aaa" stroke-width="1" /><polyline fill="none" points="56.0,72.1 54.599999999999994,73.14999999999999 54.599999999999994,73.85 52.5,76.64999999999999 52.849999999999994,76.3 54.25,77.0 53.9,77.69999999999999 53.55,77.35 54.25,78.05 53.199999999999996,79.1 54.25,81.89999999999999 52.5,84.69999999999999 54.949999999999996,88.55 54.25,91.0 55.3,92.75 55.65,94.85 56.699999999999996,96.25 56.699999999999996,98.35 58.449999999999996,103.25 58.8,108.85 58.449999999999996,103.25 57.4,100.8 56.699999999999996,96.25 55.65,94.85 55.3,92.39999999999999 54.25,91.0 54.599999999999994,88.89999999999999 55.3,88.55 52.5,84.35 53.9,83.3 54.25,82.25 54.25,85.75 56.349999999999994,88.19999999999999 58.8,89.25 57.05,88.55 54.25,85.39999999999999 54.949999999999996,82.25 54.25,79.8 58.8,76.3 61.599999999999994,75.94999999999999 59.849999999999994,75.6 60.55,75.94999999999999 60.199999999999996,76.3 58.449999999999996,76.3 54.949999999999996,78.75 53.9,77.69999999999999 54.949999999999996,77.69999999999999 57.74999999999999,75.94999999999999 55.65,77.35 54.599999999999994,77.35 52.849999999999994,76.3" stroke="#aaa" stroke-width="1" /><polyline fill="none" points="153.64999999999998,152.6 152.95,154.7 150.5,156.45 150.5,157.85 151.2,157.85 150.5,157.5 151.2,157.14999999999998 151.2,156.45 153.29999999999998,154.35 154.0,154.7 152.95,156.79999999999998 153.29999999999998,157.14999999999998 152.25,157.85 152.95,158.2 152.6,158.89999999999998 151.54999999999998,158.89999999999998 152.25,159.6 149.79999999999998,161.35 146.64999999999998,162.04999999999998 146.29999999999998,161.35 145.95,162.39999999999998 144.54999999999998,162.75 145.95,163.1 144.54999999999998,162.75 146.29999999999998,162.04999999999998 147.7,162.04999999999998 147.7,162.75 150.5,162.04999999999998 153.29999999999998,160.29999999999998 155.39999999999998,163.1 155.39999999999998,162.04999999999998 153.64999999999998,160.29999999999998 154.35,159.25 154.0,158.89999999999998 154.7,155.75 155.39999999999998,154.7 156.1,154.7 156.1,153.29999999999998 164.85,165.89999999999998 163.79999999999998,166.95 162.04999999999998,172.54999999999998 162.75,176.04999999999998 162.39999999999998,170.79999999999998 164.85,165.54999999999998 155.75,152.25 155.04999999999998,152.25 156.1,153.29999999999998 154.0,154.7 152.95,154.0 154.35,152.6" stroke="#aaa" stroke-width="1" /><polyline fill="none" points="64.05,118.3 62.99999999999999,117.94999999999999 61.599999999999994,120.05 61.24999999999999,119.69999999999999 61.599999999999994,120.39999999999999 56.699999999999996,124.24999999999999 55.65,123.19999999999999 56.349999999999994,122.49999999999999 54.599999999999994,123.19999999999999 52.15,125.64999999999999 49.699999999999996,124.6 41.3,132.29999999999998 39.199999999999996,135.45 38.849999999999994,134.75 39.55,134.04999999999998 38.849999999999994,134.39999999999998 38.849999999999994,135.45 35.0,138.6 36.75,137.2 37.099999999999994,137.54999999999998 35.0,140.0 32.199999999999996,140.35 35.349999999999994,140.0 37.099999999999994,138.25 38.15,136.14999999999998 40.25,134.75 41.3,132.65 49.349999999999994,124.94999999999999 52.5,125.64999999999999 54.949999999999996,123.19999999999999 55.65,123.19999999999999 56.699999999999996,124.24999999999999 54.949999999999996,124.24999999999999 55.65,124.6 54.949999999999996,125.3 60.199999999999996,122.14999999999999 62.3,119.69999999999999 62.65,120.05 62.3,119.35 63.349999999999994,118.3" stroke="#aaa" stroke-width="1" /><polyline fill="none" points="59.15,154.7 60.55,156.45 66.85,160.29999999999998 69.64999999999999,161.0 70.0,160.29999999999998 67.55,159.6 67.55,158.54999999999998 66.85,159.95 65.45,159.6 61.24999999999999,156.79999999999998 61.949999999999996,156.1 65.8,158.89999999999998 64.39999999999999,157.5 62.3,156.45 60.199999999999996,154.35" stroke="#aaa" stroke-width="1" /><polyline fill="none" points="61.24999999999999,157.85 62.3,160.64999999999998 64.05,162.39999999999998 70.69999999999999,164.85 70.35,164.5 71.05,164.14999999999998 69.3,163.1 65.45,162.04999999999998 67.19999999999999,162.75 65.8,163.1 63.699999999999996,162.04999999999998 61.949999999999996,159.95" stroke="#aaa" stroke-width="1" /><polyline fill="none" points="133.7,173.25 134.04999999999998,176.75 134.75,177.45 134.39999999999998,179.2 135.1,179.2 135.1,177.79999999999998 134.39999999999998,177.1 135.45,176.39999999999998 136.14999999999998,175.0 136.85,175.7 137.2,177.45 138.25,177.45 137.54999999999998,177.45 136.85,176.39999999999998 138.25,175.35 138.95,175.7 137.89999999999998,175.7 136.85,174.64999999999998 137.89999999999998,173.6 138.6,173.6 137.54999999999998,173.6 134.39999999999998,177.1" stroke="#aaa" stroke-width="1" /><polyline fill="none" points="80.5,41.3 78.05,41.65 76.64999999999999,42.349999999999994 75.6,43.75 67.55,43.4 4.55,44.8 4.55,136.85 5.6,136.85 8.399999999999999,135.45 12.25,132.65 16.45,130.54999999999998 29.749999999999996,121.1 33.949999999999996,117.24999999999999 35.0,117.6 39.55,114.1 35.699999999999996,117.24999999999999 34.3,117.24999999999999 37.8,114.1 42.349999999999994,111.64999999999999 44.099999999999994,107.44999999999999 45.849999999999994,97.64999999999999 45.849999999999994,83.64999999999999 44.8,77.35 45.15,77.0 45.5,77.69999999999999 45.15,76.3 46.9,74.55 49.349999999999994,70.35 52.15,67.89999999999999 52.5,68.94999999999999 53.9,67.89999999999999 52.849999999999994,68.6 52.5,67.89999999999999 55.3,65.45 57.05,65.45 58.099999999999994,66.5 57.74999999999999,69.3 53.55,72.8 53.199999999999996,74.19999999999999 51.099999999999994,77.0 51.449999999999996,79.8 52.15,80.85 52.15,83.3 52.15,80.85 51.099999999999994,77.35 53.55,73.14999999999999 57.4,69.64999999999999 64.39999999999999,68.25 65.8,69.3 66.14999999999999,71.39999999999999 65.8,74.55 61.949999999999996,74.55 64.75,73.14999999999999 65.45,72.1 62.65,74.19999999999999 60.55,74.89999999999999 58.449999999999996,74.19999999999999 59.15,73.5 60.55,73.85 61.599999999999994,73.14999999999999 60.55,73.85 58.8,73.5 58.449999999999996,74.19999999999999 57.4,72.8 58.449999999999996,74.19999999999999 57.74999999999999,75.25 58.449999999999996,74.19999999999999 59.49999999999999,74.89999999999999 59.15,75.25 60.55,74.89999999999999 62.3,75.6 63.349999999999994,75.6 62.3,75.6 62.3,74.89999999999999 65.1,74.19999999999999 66.14999999999999,74.55 65.8,62.99999999999999 66.85,59.849999999999994 66.85,57.4 69.64999999999999,52.849999999999994 70.35,50.4 73.14999999999999,47.25 74.55,46.55 72.8,47.25 70.35,50.05 69.64999999999999,52.5 66.85,57.4 66.85,59.849999999999994 65.8,62.99999999999999 65.8,68.6 65.45,68.94999999999999 63.699999999999996,68.25 58.099999999999994,69.64999999999999 58.099999999999994,66.14999999999999 57.4,65.45 55.3,65.45 49.349999999999994,70.0 46.9,74.19999999999999 45.15,75.94999999999999 44.8,78.39999999999999 45.849999999999994,83.64999999999999 45.849999999999994,97.64999999999999 44.099999999999994,107.44999999999999 42.699999999999996,110.94999999999999 40.599999999999994,112.69999999999999 37.449999999999996,114.1 31.15,119.69999999999999 21.349999999999998,127.05 8.049999999999999,135.45 4.8999999999999995,136.85 4.55,45.15 5.949999999999999,44.449999999999996 75.25,43.4 75.6,43.75 73.5,46.199999999999996 77.0,42.349999999999994" stroke="#aaa" stroke-width="1" /><polyline fill="none" points="70.35,162.04999999999998 71.05,163.1 81.19999999999999,163.45 86.1,166.6 89.6,170.1 90.64999999999999,171.85 90.3,172.2 90.64999999999999,171.85 92.05,173.6 91.69999999999999,174.64999999999998 92.05,173.95 95.19999999999999,178.85 96.25,187.6 97.64999999999999,191.45 97.3,191.79999999999998 97.64999999999999,191.45 98.35,192.5 97.64999999999999,192.85 95.89999999999999,191.79999999999998 93.1,188.29999999999998 90.64999999999999,181.64999999999998 89.6,176.04999999999998 87.85,173.25 84.69999999999999,170.1 80.85,168.0 73.85,167.29999999999998 72.1,166.25 72.8,165.89999999999998 74.19999999999999,166.6 78.05,166.6 81.19999999999999,167.29999999999998 85.05,169.39999999999998 88.55,172.89999999999998 90.64999999999999,176.04999999999998 92.75,185.5 94.85,189.7 96.25,191.1 93.1,186.2 91.35,180.6 90.64999999999999,176.04999999999998 88.55,172.89999999999998 88.89999999999999,172.54999999999998 88.55,172.89999999999998 86.44999999999999,170.45 82.25,167.64999999999998 78.05,166.6 73.14999999999999,166.25 72.1,165.54999999999998 72.1,164.85 72.44999999999999,165.89999999999998 71.75,166.25 71.39999999999999,165.54999999999998 70.69999999999999,165.54999999999998 70.69999999999999,166.25 71.05,165.54999999999998 73.85,167.29999999999998 80.85,168.0 86.44999999999999,171.85 89.94999999999999,177.1 92.05,186.2 94.14999999999999,190.39999999999998 96.6,192.5 98.35,193.2 103.25,197.75 98.0,192.85 98.35,192.5 96.25,187.6 94.85,177.79999999999998 89.6,169.75 84.0,164.85 81.19999999999999,163.45 76.64999999999999,163.1 81.89999999999999,162.75 85.39999999999999,164.85 89.94999999999999,168.7 95.55,177.1 96.25,179.2 97.3,188.29999999999998 99.39999999999999,192.85 100.1,192.85 99.75,190.04999999999998 100.44999999999999,186.89999999999998 99.75,186.89999999999998 100.44999999999999,187.25 99.75,192.14999999999998 99.39999999999999,192.5 98.35,191.1 97.3,188.29999999999998 95.55,176.75 89.94999999999999,168.35 87.14999999999999,165.89999999999998 81.89999999999999,162.75" stroke="#aaa" stroke-width="1" /><polyline fill="none" points="126.69999999999999,178.85 125.64999999999999,179.54999999999998 124.94999999999999,178.85 123.55,179.2 123.89999999999999,180.6 123.19999999999999,182.0 123.55,181.29999999999998 124.94999999999999,181.29999999999998 123.89999999999999,180.6" stroke="#aaa" stroke-width="1" /><polyline fill="none" points="58.449999999999996,158.54999999999998 58.8,159.95 58.099999999999994,161.35 59.15,159.95 59.849999999999994,160.64999999999998 58.8,162.39999999999998 59.849999999999994,162.75 60.9,161.0 59.49999999999999,159.6 58.8,159.95 58.449999999999996,158.89999999999998 59.15,158.54999999999998" stroke="#aaa" stroke-width="1" /><polyline fill="none" points="79.1,45.849999999999994 80.85,44.8 80.14999999999999,44.449999999999996 80.5,44.099999999999994 81.89999999999999,44.449999999999996 82.6,45.5 85.39999999999999,42.699999999999996 86.1,43.75 85.39999999999999,42.699999999999996 85.75,42.349999999999994 88.19999999999999,44.8 87.5,45.15 85.39999999999999,44.099999999999994 85.05,44.449999999999996 85.39999999999999,44.099999999999994 86.1,44.8 87.14999999999999,44.8 87.5,45.15 86.8,45.5 88.19999999999999,44.8 89.6,45.15 90.64999999999999,44.449999999999996 92.05,45.15 96.6,45.15 97.64999999999999,45.849999999999994 100.8,46.199999999999996 101.5,44.449999999999996 100.8,43.4 99.39999999999999,43.4 97.64999999999999,41.65 95.55,41.65 97.3,41.65 100.44999999999999,44.449999999999996 100.44999999999999,43.4 101.14999999999999,44.099999999999994 100.8,46.199999999999996 99.75,44.8 99.05,44.8 100.1,45.15 99.75,45.849999999999994 97.64999999999999,45.849999999999994 96.6,45.15 95.55,45.5 94.85,44.8 92.05,45.15 90.64999999999999,44.449999999999996 88.89999999999999,45.15 87.5,44.099999999999994 88.19999999999999,42.699999999999996 87.85,43.05 87.14999999999999,42.0 87.85,40.949999999999996 88.89999999999999,41.3 88.55,42.0 89.25,41.3 91.0,43.05 91.0,43.75 91.35,43.05 92.05,43.05 91.35,43.05 91.35,42.349999999999994 91.0,42.699999999999996 89.6,41.3 87.5,40.599999999999994 88.19999999999999,39.9 88.55,40.25 87.85,39.9 86.8,41.65 85.39999999999999,41.3 85.75,42.349999999999994 83.64999999999999,44.099999999999994 83.64999999999999,42.699999999999996 83.3,44.449999999999996 81.55,44.449999999999996 80.5,43.75 80.14999999999999,45.15" stroke="#aaa" stroke-width="1" /><polyline fill="none" points="49.0,141.04999999999998 47.949999999999996,141.39999999999998 46.199999999999996,144.2 43.05,147.35 43.05,148.39999999999998 43.75,148.39999999999998 45.849999999999994,146.29999999999998 49.0,142.1" stroke="#aaa" stroke-width="1" /><polyline fill="none" points="130.54999999999998,174.29999999999998 129.15,174.29999999999998 129.85,174.64999999999998 129.85,178.5 130.9,182.7 130.2,183.39999999999998 129.5,182.7 128.79999999999998,183.75 127.05,182.7 129.5,182.0 127.74999999999999,182.35 127.74999999999999,181.29999999999998 127.39999999999999,182.35 126.35,183.04999999999998 127.39999999999999,183.39999999999998 126.69999999999999,184.1 127.39999999999999,183.39999999999998 127.74999999999999,183.75 127.74999999999999,185.85 127.39999999999999,183.39999999999998 128.1,183.04999999999998 128.45,183.75 129.15,183.75 129.5,182.7 130.2,183.39999999999998 129.5,184.45 128.45,184.45 128.45,186.2 128.45,184.79999999999998 130.2,184.1 130.9,182.7 132.29999999999998,187.25 130.9,191.79999999999998 127.05,196.0 125.64999999999999,198.79999999999998 124.94999999999999,202.29999999999998 119.69999999999999,199.5 117.94999999999999,199.14999999999998 121.1,200.2 124.24999999999999,202.64999999999998 124.6,202.29999999999998 124.94999999999999,203.0 126.35,197.39999999999998 130.9,192.14999999999998 132.29999999999998,186.89999999999998 131.6,183.39999999999998 130.2,180.95 129.5,175.7 129.85,175.0 130.9,175.0 131.95,179.2 134.39999999999998,182.35 134.39999999999998,188.64999999999998 133.35,192.5 131.25,196.0 128.79999999999998,198.45 126.35,203.7 125.64999999999999,207.54999999999998 125.3,218.39999999999998 124.24999999999999,219.79999999999998 122.85,223.64999999999998 125.3,218.75 125.64999999999999,207.54999999999998 126.35,203.7 128.79999999999998,198.79999999999998 132.29999999999998,194.95 134.39999999999998,188.64999999999998 134.39999999999998,182.35 131.25,177.45 131.25,175.7" stroke="#aaa" stroke-width="1" /><polyline fill="none" points="51.449999999999996,128.45 49.349999999999994,130.54999999999998 49.349999999999994,133.0 49.699999999999996,132.65 50.05,133.35 46.55,137.89999999999998 46.199999999999996,137.54999999999998 43.4,141.04999999999998 42.699999999999996,140.7 46.9,136.14999999999998 47.25,134.75 48.3,134.04999999999998 48.65,131.95 47.949999999999996,131.95 48.65,132.29999999999998 47.949999999999996,134.04999999999998 47.25,133.7 47.25,133.0 46.55,133.0 48.3,130.54999999999998 46.199999999999996,133.0 38.5,138.25 38.15,139.29999999999998 32.55,145.25 32.9,146.29999999999998 31.499999999999996,146.64999999999998 31.499999999999996,148.04999999999998 28.0,151.2 24.5,156.1 22.4,157.85 22.4,158.54999999999998 22.75,157.85 23.799999999999997,157.85 24.5,158.54999999999998 24.15,158.89999999999998 23.099999999999998,158.89999999999998 25.9,158.2 27.65,158.54999999999998 28.349999999999998,157.5 28.7,157.85 28.0,157.5 27.299999999999997,158.2 24.5,158.54999999999998 24.15,157.85 24.849999999999998,157.14999999999998 24.15,156.45 26.599999999999998,153.64999999999998 26.95,154.0 26.599999999999998,153.64999999999998 29.4,150.14999999999998 32.9,151.89999999999998 34.3,151.54999999999998 34.3,150.85 35.0,150.5 33.949999999999996,150.85 32.9,150.14999999999998 34.3,151.2 33.25,151.89999999999998 31.15,150.5 29.4,150.14999999999998 31.15,148.39999999999998 32.199999999999996,148.39999999999998 31.15,147.35 31.849999999999998,146.64999999999998 35.0,146.64999999999998 36.4,148.75 38.15,148.75 39.199999999999996,149.79999999999998 39.55,150.85 38.849999999999994,151.54999999999998 37.449999999999996,151.54999999999998 36.4,149.45 35.699999999999996,149.79999999999998 32.9,148.39999999999998 33.949999999999996,149.45 34.65,149.1 36.05,149.79999999999998 37.449999999999996,151.54999999999998 39.199999999999996,151.54999999999998 39.55,150.85 38.849999999999994,149.1 36.75,148.75 35.349999999999994,146.64999999999998 33.25,146.29999999999998 32.55,145.6 36.75,141.04999999999998 37.099999999999994,141.75 36.75,141.04999999999998 38.5,138.6 40.599999999999994,136.85 42.0,138.25 41.65,138.95 40.599999999999994,138.25 41.3,138.6 40.599999999999994,139.29999999999998 41.65,139.29999999999998 41.3,141.39999999999998 41.65,138.95 42.0,138.6 42.699999999999996,139.29999999999998 42.699999999999996,138.25 42.349999999999994,138.6 40.949999999999996,136.85 44.449999999999996,134.04999999999998 45.5,135.1 44.8,134.04999999999998 46.55,133.0 46.9,133.35 45.849999999999994,134.39999999999998 46.199999999999996,134.75 45.849999999999994,134.39999999999998 46.9,133.35 47.599999999999994,134.04999999999998 46.9,135.79999999999998 43.75,138.95 42.0,141.75 41.3,144.54999999999998 41.3,146.64999999999998 41.65,144.54999999999998 42.0,146.64999999999998 41.65,142.79999999999998 42.349999999999994,141.75 42.699999999999996,142.1 42.349999999999994,144.2 42.349999999999994,141.39999999999998 43.4,141.39999999999998 49.0,135.1 49.699999999999996,136.14999999999998 48.65,136.5 50.05,136.85 49.349999999999994,135.45 50.4,135.1 49.349999999999994,134.39999999999998 50.05,133.7 49.349999999999994,130.9 51.449999999999996,129.85 50.05,129.85" stroke="#aaa" stroke-width="1" /><polyline fill="none" points="166.25,167.29999999999998 164.85,167.64999999999998 164.5,169.39999999999998 163.79999999999998,169.75 163.79999999999998,171.85 163.79999999999998,170.1 164.5,169.75 164.85,170.79999999999998 165.2,170.45 164.5,169.75 164.5,168.7 165.89999999999998,167.29999999999998 167.64999999999998,169.39999999999998 167.64999999999998,170.1 163.79999999999998,172.89999999999998 163.45,176.04999999999998 163.79999999999998,175.35 164.5,175.7 164.5,176.39999999999998 163.79999999999998,176.75 163.79999999999998,178.14999999999998 164.14999999999998,176.75 165.54999999999998,177.79999999999998 164.5,176.75 164.85,176.04999999999998 164.14999999999998,175.35 164.14999999999998,174.64999999999998 165.54999999999998,173.25 165.2,172.89999999999998 164.14999999999998,174.29999999999998 163.79999999999998,173.25 167.64999999999998,170.1" stroke="#aaa" stroke-width="1" /><polyline fill="none" points="158.89999999999998,178.85 160.29999999999998,179.89999999999998 159.6,179.2 159.95,178.85 161.0,178.85 161.7,180.25 162.04999999999998,179.54999999999998 162.39999999999998,180.6 161.0,181.29999999999998 161.0,183.04999999999998 160.29999999999998,184.1 159.25,184.45 159.6,184.79999999999998 159.6,184.1 161.0,183.75 160.64999999999998,183.39999999999998 161.35,180.95 162.75,182.7 162.04999999999998,183.04999999999998 162.75,183.04999999999998 161.7,181.29999999999998 162.39999999999998,180.6 163.45,180.95 163.45,182.35 163.45,181.29999999999998 164.14999999999998,180.95 165.2,182.0 166.25,182.0 167.29999999999998,183.39999999999998 166.95,182.35 165.54999999999998,181.64999999999998 165.54999999999998,180.95 162.39999999999998,180.6 162.75,179.54999999999998 164.14999999999998,179.89999999999998 163.79999999999998,179.54999999999998 164.5,178.14999999999998 163.79999999999998,179.54999999999998 162.39999999999998,179.54999999999998 161.7,178.85 161.7,176.75 160.64999999999998,177.79999999999998 161.7,178.5 161.35,179.2" stroke="#aaa" stroke-width="1" /><polyline fill="none" points="44.099999999999994,175.0 46.199999999999996,175.7 47.949999999999996,177.45 49.0,179.89999999999998 51.099999999999994,181.64999999999998 55.3,183.39999999999998 52.849999999999994,183.39999999999998 50.75,182.35 48.3,179.89999999999998 51.099999999999994,182.7 55.3,184.1 62.99999999999999,184.1 54.949999999999996,183.75 63.349999999999994,183.04999999999998 65.1,183.75 65.1,184.45 64.05,184.45 72.8,185.85 77.0,187.6 79.44999999999999,190.39999999999998 82.94999999999999,192.5 85.05,195.29999999999998 83.64999999999999,193.2 79.8,190.39999999999998 77.69999999999999,187.95 72.8,185.85 65.45,184.79999999999998 65.45,184.1 67.55,184.1 74.89999999999999,185.5 75.6,186.2 78.05,186.89999999999998 85.39999999999999,193.89999999999998 88.89999999999999,195.64999999999998 92.39999999999999,198.45 95.55,199.14999999999998 95.89999999999999,199.85 101.14999999999999,199.5 96.25,199.85 95.55,199.14999999999998 92.75,198.45 91.0,197.04999999999998 91.35,196.7 91.0,197.04999999999998 85.75,193.89999999999998 78.39999999999999,186.89999999999998 72.8,184.79999999999998 65.45,184.1 63.349999999999994,183.04999999999998 55.65,183.39999999999998 52.15,182.0 48.65,179.2 47.25,176.39999999999998 45.15,175.0" stroke="#aaa" stroke-width="1" /><polyline fill="none" points="42.0,148.39999999999998 42.349999999999994,150.85 41.65,151.89999999999998 41.65,156.1 40.599999999999994,159.95 40.949999999999996,163.1 40.599999999999994,163.45 39.55,162.39999999999998 38.849999999999994,162.75 38.849999999999994,164.14999999999998 40.949999999999996,166.25 41.65,168.7 40.949999999999996,165.89999999999998 38.849999999999994,163.79999999999998 39.199999999999996,162.75 43.75,167.29999999999998 43.4,168.7 42.699999999999996,168.0 42.349999999999994,168.35 43.4,171.5 43.05,171.85 41.3,169.75 41.65,169.39999999999998 41.3,169.75 38.5,166.6 38.849999999999994,165.89999999999998 40.949999999999996,168.35 39.199999999999996,165.89999999999998 38.5,165.89999999999998 38.5,166.95 42.699999999999996,171.85 43.4,171.5 44.099999999999994,172.54999999999998 44.8,172.54999999999998 43.75,172.2 42.699999999999996,170.1 42.699999999999996,169.04999999999998 43.75,168.7 43.75,166.95 42.0,165.54999999999998 41.3,162.04999999999998 41.65,158.2 42.349999999999994,156.79999999999998 42.349999999999994,152.6 43.05,151.54999999999998 43.05,150.14999999999998 42.0,149.79999999999998" stroke="#aaa" stroke-width="1" /><polyline fill="none" points="30.799999999999997,124.6 30.799999999999997,125.99999999999999 30.099999999999998,125.3 28.349999999999998,124.94999999999999 29.749999999999996,125.3 30.099999999999998,125.99999999999999 28.0,128.1 27.299999999999997,127.74999999999999 26.25,128.45 26.25,129.5 24.15,131.6 23.099999999999998,131.95 21.349999999999998,130.9 23.099999999999998,129.5 21.7,130.2 21.349999999999998,132.29999999999998 20.65,133.0 20.299999999999997,132.65 20.65,133.0 19.95,133.7 18.549999999999997,134.04999999999998 18.9,135.1 17.849999999999998,135.79999999999998 18.2,136.5 17.15,137.2 16.799999999999997,136.85 16.799999999999997,138.95 15.049999999999999,138.95 15.049999999999999,140.0 15.399999999999999,138.95 16.799999999999997,139.29999999999998 16.799999999999997,137.89999999999998 18.2,136.85 18.9,135.45 18.549999999999997,134.39999999999998 20.65,133.35 21.7,131.25 22.4,131.25 23.45,132.29999999999998 20.299999999999997,135.1 19.95,134.75 21.349999999999998,134.75 26.25,129.85 26.25,128.45 27.65,127.74999999999999 28.0,128.1 26.95,129.15 27.299999999999997,131.25 27.299999999999997,129.15 29.749999999999996,126.35 31.499999999999996,125.64999999999999" stroke="#aaa" stroke-width="1" /><polyline fill="none" points="37.449999999999996,178.14999999999998 39.9,176.75 41.65,176.75 43.75,178.5 43.75,183.75 44.449999999999996,186.89999999999998 44.099999999999994,191.1 44.8,191.1 44.449999999999996,192.14999999999998 44.449999999999996,189.35 45.849999999999994,187.95 45.849999999999994,185.85 46.9,185.14999999999998 48.65,187.6 50.4,188.29999999999998 62.99999999999999,189.0 52.15,188.64999999999998 52.15,187.95 59.49999999999999,187.95 71.39999999999999,189.35 80.14999999999999,191.79999999999998 82.94999999999999,193.54999999999998 80.14999999999999,191.79999999999998 78.39999999999999,191.45 78.39999999999999,190.75 77.0,191.1 73.5,189.7 66.85,188.64999999999998 59.849999999999994,188.29999999999998 58.449999999999996,187.6 58.8,186.89999999999998 59.849999999999994,187.25 59.49999999999999,186.54999999999998 58.449999999999996,186.89999999999998 58.099999999999994,187.95 50.4,187.6 46.199999999999996,183.39999999999998 45.849999999999994,178.85 44.449999999999996,176.39999999999998 45.15,176.04999999999998 46.199999999999996,176.75 47.949999999999996,179.2 47.25,177.79999999999998 44.449999999999996,175.7 44.8,176.04999999999998 44.099999999999994,177.1 44.449999999999996,176.75 45.5,178.5 44.8,180.25 44.449999999999996,178.14999999999998 45.15,182.7 44.8,180.25 45.5,178.85 45.5,180.95 45.849999999999994,180.25 46.199999999999996,180.6 46.199999999999996,183.75 50.4,187.6 49.349999999999994,187.95 46.9,185.14999999999998 46.199999999999996,185.14999999999998 45.849999999999994,187.6 44.449999999999996,189.0 43.75,183.75 43.75,178.14999999999998 41.65,176.75 39.55,176.75" stroke="#aaa" stroke-width="1" /><polyline fill="none" points="31.849999999999998,159.25 31.499999999999996,160.29999999999998 33.949999999999996,164.14999999999998 34.65,166.95 36.4,170.45 36.75,172.89999999999998 36.75,169.39999999999998 36.4,168.7 36.4,170.45 35.699999999999996,169.39999999999998 34.65,165.89999999999998 35.349999999999994,165.89999999999998 36.05,167.64999999999998 34.3,162.75" stroke="#aaa" stroke-width="1" /><polyline fill="none" points="116.19999999999999,201.95 115.49999999999999,201.95 114.44999999999999,211.39999999999998 114.8,210.35 115.14999999999999,211.39999999999998 116.89999999999999,205.45" stroke="#aaa" stroke-width="1" /><polyline fill="none" points="117.94999999999999,201.25 117.6,201.6 118.3,202.29999999999998 118.99999999999999,202.29999999999998 118.3,202.29999999999998 117.6,201.6 117.94999999999999,201.25 121.1,201.95 121.1,202.64999999999998 122.14999999999999,202.29999999999998 122.14999999999999,203.0 123.19999999999999,203.7 122.14999999999999,204.04999999999998 120.39999999999999,203.0 118.64999999999999,203.0 118.3,208.6 115.49999999999999,213.14999999999998 114.44999999999999,216.64999999999998 114.44999999999999,218.75 116.19999999999999,221.54999999999998 116.55,223.64999999999998 116.19999999999999,221.2 114.44999999999999,218.75 114.44999999999999,216.64999999999998 115.49999999999999,213.14999999999998 118.3,208.6 118.64999999999999,203.35 120.39999999999999,203.0 124.24999999999999,205.45 123.19999999999999,218.04999999999998 120.74999999999999,223.64999999999998 123.19999999999999,218.04999999999998 124.24999999999999,205.1 122.85,204.04999999999998 123.89999999999999,203.7 123.19999999999999,202.64999999999998" stroke="#aaa" stroke-width="1" /><polyline fill="none" points="145.6,201.95 144.54999999999998,203.7 139.29999999999998,205.79999999999998 138.25,205.1 138.6,204.75 137.54999999999998,205.45 138.25,205.1 138.95,205.79999999999998 136.85,206.85 134.75,209.64999999999998 133.7,209.64999999999998 134.39999999999998,210.0 133.35,212.79999999999998 134.75,209.64999999999998 135.79999999999998,208.6 136.14999999999998,209.29999999999998 135.45,210.35 137.54999999999998,207.54999999999998 139.64999999999998,207.89999999999998 138.25,207.89999999999998 138.25,207.2 145.6,204.04999999999998 144.2,204.75 142.79999999999998,204.39999999999998 145.25,203.35" stroke="#aaa" stroke-width="1" /><polyline fill="none" points="163.79999999999998,197.39999999999998 163.1,198.1 159.6,197.04999999999998 159.25,197.75 158.54999999999998,197.75 161.0,197.39999999999998 162.04999999999998,198.1 161.7,198.45 157.5,198.45 157.14999999999998,197.75 158.54999999999998,197.04999999999998 157.85,196.35 158.2,196.7 157.5,197.39999999999998 156.45,197.04999999999998 155.75,197.75 155.75,199.5 156.79999999999998,198.79999999999998 155.75,198.79999999999998 155.75,197.75 156.45,197.04999999999998 157.14999999999998,197.39999999999998 157.5,198.79999999999998 160.29999999999998,198.1 162.04999999999998,198.79999999999998 161.35,199.5 157.14999999999998,200.2 157.14999999999998,199.5 156.79999999999998,200.54999999999998 155.39999999999998,200.2 154.35,201.25 151.89999999999998,201.25 151.89999999999998,199.85 151.54999999999998,200.89999999999998 146.29999999999998,201.25 146.29999999999998,204.04999999999998 147.35,204.39999999999998 146.29999999999998,204.04999999999998 147.0,201.95 157.85,202.29999999999998 158.2,202.64999999999998 157.14999999999998,203.35 158.2,202.64999999999998 163.1,202.29999999999998 158.2,202.64999999999998 154.35,201.95 147.0,201.95 147.0,201.25 149.79999999999998,200.89999999999998 158.54999999999998,201.95 163.79999999999998,201.25 164.14999999999998,201.95 164.14999999999998,201.25 161.7,200.89999999999998 162.75,200.89999999999998 162.75,201.6 159.95,201.95 154.7,201.25 155.39999999999998,200.2 156.45,200.89999999999998 157.14999999999998,200.2 161.35,199.5 161.35,200.2 157.5,200.89999999999998 161.7,200.2 163.79999999999998,198.79999999999998" stroke="#aaa" stroke-width="1" /><polyline fill="none" points="110.6,200.89999999999998 104.3,201.25 104.3,200.54999999999998 107.1,200.54999999999998 102.19999999999999,200.89999999999998 103.94999999999999,200.89999999999998 103.94999999999999,201.6 100.8,201.25 96.25,203.35 89.6,203.35 91.69999999999999,203.35 93.1,204.04999999999998 90.3,205.1 82.6,204.75 78.05,206.14999999999998 74.89999999999999,208.25 72.44999999999999,212.45 72.44999999999999,216.29999999999998 71.75,216.64999999999998 70.69999999999999,219.1 68.25,221.2 67.55,220.85 70.35,218.04999999999998 70.69999999999999,215.25 71.39999999999999,214.89999999999998 71.39999999999999,212.1 72.44999999999999,209.64999999999998 74.55,207.54999999999998 80.85,204.04999999999998 89.94999999999999,204.04999999999998 82.6,203.7 78.05,205.1 74.19999999999999,207.54999999999998 72.44999999999999,209.64999999999998 71.39999999999999,211.75 71.39999999999999,214.54999999999998 70.69999999999999,214.89999999999998 70.35,217.7 68.25,220.14999999999998 65.45,221.54999999999998 59.849999999999994,222.25 58.449999999999996,223.64999999999998 61.24999999999999,221.89999999999998 65.8,221.89999999999998 61.599999999999994,222.6 59.849999999999994,223.64999999999998 61.599999999999994,222.6 66.85,221.89999999999998 67.19999999999999,221.54999999999998 65.45,221.54999999999998 66.5,220.85 68.6,221.2 70.69999999999999,219.1 71.05,219.79999999999998 70.69999999999999,219.1 72.8,214.89999999999998 72.44999999999999,212.45 73.14999999999999,212.1 73.85,210.0 75.94999999999999,207.54999999999998 79.1,205.79999999999998 82.6,204.75 90.3,205.1 93.1,204.04999999999998 96.6,204.04999999999998 99.75,203.0 101.85,201.6 107.8,200.89999999999998 110.6,201.25 109.19999999999999,203.0 108.85,207.89999999999998 109.55,209.64999999999998 112.0,211.39999999999998 112.69999999999999,213.5 110.25,219.1 110.25,221.54999999999998 110.94999999999999,222.95 112.0,223.64999999999998 110.25,221.54999999999998 110.25,219.1 112.69999999999999,213.5 112.0,211.04999999999998 110.6,210.35 108.85,207.89999999999998 108.85,204.39999999999998" stroke="#aaa" stroke-width="1" /><polyline fill="none" points="42.349999999999994,223.64999999999998 43.05,222.25 43.75,223.29999999999998 43.4,223.64999999999998 44.449999999999996,222.95 50.05,222.95 50.05,223.64999999999998 52.849999999999994,222.95 53.199999999999996,223.64999999999998 53.199999999999996,222.6 62.99999999999999,218.39999999999998 67.55,213.85 68.25,212.1 68.6,212.79999999999998 70.0,208.95 69.64999999999999,208.25 71.05,205.45 77.0,200.89999999999998 78.75,200.2 86.1,199.14999999999998 90.64999999999999,199.85 93.1,200.89999999999998 100.1,200.89999999999998 104.64999999999999,199.5 107.8,199.85 108.5,199.14999999999998 110.6,199.14999999999998 110.6,200.2 108.5,200.2 110.94999999999999,200.2 111.3,199.5 108.14999999999999,199.14999999999998 107.44999999999999,199.85 104.64999999999999,199.5 100.1,200.89999999999998 93.1,200.89999999999998 90.64999999999999,199.85 84.0,199.14999999999998 77.69999999999999,200.54999999999998 74.19999999999999,202.64999999999998 70.69999999999999,205.79999999999998 69.64999999999999,208.25 70.0,208.95 69.3,208.95 69.64999999999999,209.64999999999998 68.6,212.45 68.25,211.75 67.19999999999999,214.2 63.699999999999996,217.7 59.49999999999999,220.14999999999998 52.5,222.95 50.4,223.29999999999998 50.4,222.6 58.099999999999994,219.79999999999998 62.65,217.35 66.5,213.85 70.0,205.45 75.94999999999999,200.54999999999998 82.25,198.45 88.19999999999999,198.79999999999998 88.19999999999999,198.1 85.39999999999999,196.7 80.14999999999999,192.85 73.14999999999999,190.39999999999998 69.3,190.04999999999998 73.14999999999999,190.39999999999998 79.1,192.5 88.19999999999999,198.45 82.25,198.45 75.6,200.54999999999998 70.35,204.75 68.6,208.25 68.25,210.35 67.55,211.04999999999998 67.19999999999999,210.7 67.55,211.39999999999998 66.85,213.14999999999998 62.3,217.35 51.099999999999994,222.6 43.75,223.29999999999998 43.4,222.25 42.699999999999996,222.25" stroke="#aaa" stroke-width="1" /><polyline fill="none" points="170.79999999999998,186.54999999999998 170.79999999999998,187.25 172.54999999999998,188.64999999999998 170.45,189.0 170.45,189.7 170.79999999999998,189.0 171.85,189.7 170.45,190.39999999999998 169.39999999999998,191.79999999999998 171.85,189.7 175.0,189.7 177.79999999999998,191.1 179.89999999999998,191.1 180.6,191.79999999999998 180.6,194.6 179.54999999999998,194.95 179.89999999999998,196.35 179.2,196.7 179.2,198.1 178.5,198.79999999999998 178.85,199.5 178.5,199.14999999999998 179.54999999999998,198.1 179.89999999999998,198.45 179.2,197.04999999999998 179.54999999999998,196.7 180.6,198.1 180.6,196.0 181.29999999999998,195.29999999999998 182.0,196.0 181.29999999999998,194.95 180.6,196.0 179.54999999999998,195.64999999999998 179.89999999999998,194.95 180.6,194.95 180.6,193.89999999999998 181.64999999999998,192.85 180.6,193.89999999999998 180.25,193.54999999999998 181.29999999999998,191.1 178.14999999999998,191.1 176.75,190.04999999999998 177.1,189.35 176.75,190.04999999999998 172.2,189.7 171.85,189.35 172.54999999999998,188.29999999999998 171.14999999999998,187.6" stroke="#aaa" stroke-width="1" /><polyline fill="none" points="163.79999999999998,206.14999999999998 164.14999999999998,206.5 164.14999999999998,205.45 165.54999999999998,207.89999999999998 166.25,207.2 166.95,208.6 166.6,208.25 167.64999999999998,207.54999999999998 168.0,205.79999999999998 169.04999999999998,205.1 169.39999999999998,204.04999999999998 168.35,202.29999999999998 170.45,201.6 169.39999999999998,200.2 168.0,199.85 167.64999999999998,198.79999999999998 168.35,198.1 169.75,198.1 170.45,199.85 171.5,200.2 171.14999999999998,201.25 174.29999999999998,202.64999999999998 178.5,202.64999999999998 179.2,200.2 178.14999999999998,202.29999999999998 176.04999999999998,202.29999999999998 175.7,199.85 176.75,198.45 175.7,199.85 175.7,201.25 174.29999999999998,201.6 175.7,201.95 174.29999999999998,202.64999999999998 171.14999999999998,200.89999999999998 171.5,200.2 170.45,199.5 170.79999999999998,198.79999999999998 170.45,199.14999999999998 169.75,198.1 168.0,198.1 168.0,199.85 170.1,201.25 169.39999999999998,202.29999999999998 167.64999999999998,201.25 167.29999999999998,203.0 168.35,202.64999999999998 169.39999999999998,204.04999999999998 167.29999999999998,206.14999999999998 166.25,205.1 166.6,204.39999999999998 166.25,205.79999999999998 166.6,205.45 167.64999999999998,206.5 167.64999999999998,207.2 165.54999999999998,207.2 164.85,205.79999999999998 163.79999999999998,205.1 165.89999999999998,203.35 165.89999999999998,201.6 165.89999999999998,203.0 163.79999999999998,205.1" stroke="#aaa" stroke-width="1" /><polyline fill="none" points="146.29999999999998,206.85 145.6,207.89999999999998 146.64999999999998,210.0 145.6,211.39999999999998 145.6,212.79999999999998 146.29999999999998,213.14999999999998 145.6,214.2 145.95,214.54999999999998 145.25,214.89999999999998 145.6,216.29999999999998 146.29999999999998,216.64999999999998 145.25,217.0 144.89999999999998,218.04999999999998 146.29999999999998,220.14999999999998 145.25,221.2 145.25,222.6 144.54999999999998,223.64999999999998 145.25,222.95 144.89999999999998,221.89999999999998 147.0,219.45 146.29999999999998,220.14999999999998 145.25,217.35 146.64999999999998,216.29999999999998 148.04999999999998,216.29999999999998 146.29999999999998,216.64999999999998 145.25,215.25 145.95,214.54999999999998 146.29999999999998,215.6 148.04999999999998,215.6 146.64999999999998,215.6 145.6,214.2 146.29999999999998,213.14999999999998 147.0,213.14999999999998 147.35,212.1 147.7,212.45 146.64999999999998,210.35 147.0,210.0 145.95,208.95 146.64999999999998,207.89999999999998 147.0,208.25" stroke="#aaa" stroke-width="1" /><polyline fill="none" points="19.95,164.5 19.25,165.89999999999998 16.45,167.29999999999998 16.45,168.7 15.399999999999999,168.35 13.649999999999999,170.1 10.149999999999999,176.04999999999998 10.149999999999999,177.79999999999998 10.149999999999999,176.39999999999998 11.899999999999999,173.6 11.549999999999999,173.25 12.6,172.89999999999998 13.299999999999999,170.79999999999998 14.0,170.1 15.049999999999999,170.45 14.0,171.14999999999998 15.049999999999999,170.45 14.35,169.75 15.749999999999998,168.35 16.799999999999997,168.7 17.5,166.6 18.549999999999997,167.29999999999998 18.2,166.6 18.9,165.89999999999998 19.95,166.25" stroke="#aaa" stroke-width="1" /><polyline fill="none" points="182.7,189.35 182.7,193.54999999999998 183.75,196.35 182.0,198.1 181.64999999999998,197.39999999999998 182.0,199.14999999999998 180.95,199.85 182.0,199.5 182.7,197.04999999999998 183.75,196.35 184.1,197.75 184.79999999999998,198.1 184.45,198.45 190.75,204.75 191.79999999999998,206.5 191.1,206.85 191.79999999999998,206.5 192.5,207.89999999999998 193.54999999999998,208.25 184.1,197.39999999999998 182.7,193.54999999999998 183.04999999999998,189.35 183.75,190.39999999999998 183.75,192.85 185.14999999999998,197.04999999999998 188.29999999999998,200.2 192.14999999999998,205.1 192.85,204.75 192.5,205.1 189.7,202.29999999999998 190.04999999999998,200.54999999999998 189.35,200.2 189.7,200.54999999999998 189.0,200.89999999999998 185.14999999999998,196.7 183.75,192.85 183.39999999999998,189.35" stroke="#aaa" stroke-width="1" /><polyline fill="none" points="25.9,159.25 24.849999999999998,161.35 24.15,160.64999999999998 24.5,159.6 24.15,160.64999999999998 22.75,160.64999999999998 21.349999999999998,159.6 21.7,159.25 23.45,159.95 21.7,159.25 16.099999999999998,165.89999999999998 7.35,174.64999999999998 3.8499999999999996,178.85 3.5,180.25 4.199999999999999,180.6 4.55,183.04999999999998 4.199999999999999,180.6 4.8999999999999995,179.89999999999998 5.6,180.6 7.35,180.6 7.699999999999999,181.64999999999998 8.049999999999999,180.95 8.75,182.0 10.5,182.0 8.75,183.39999999999998 8.049999999999999,183.04999999999998 8.399999999999999,182.7 8.049999999999999,183.04999999999998 8.75,183.75 8.049999999999999,184.45 8.049999999999999,185.5 8.049999999999999,184.45 9.799999999999999,182.7 10.5,183.04999999999998 10.5,182.0 12.25,183.04999999999998 11.899999999999999,182.7 12.6,181.29999999999998 11.899999999999999,182.7 11.549999999999999,180.6 11.2,182.35 10.149999999999999,181.29999999999998 10.85,179.89999999999998 9.799999999999999,181.64999999999998 9.45,181.29999999999998 9.45,179.54999999999998 8.75,178.14999999999998 9.45,177.1 8.75,177.79999999999998 9.45,180.25 8.75,180.6 9.45,180.95 9.1,181.64999999999998 7.0,179.89999999999998 6.3,180.25 5.25,178.85 4.199999999999999,180.6 4.199999999999999,178.5 19.25,162.75 22.4,166.95 22.75,166.6 21.7,166.25 20.65,164.85 21.0,164.14999999999998 22.4,164.14999999999998 22.4,162.75 23.45,164.14999999999998 22.75,165.2 23.45,164.14999999999998 24.15,165.54999999999998 25.549999999999997,165.2 25.9,165.89999999999998 25.9,165.2 25.2,165.54999999999998 24.15,164.85 24.849999999999998,164.5 24.5,164.14999999999998 24.15,164.85 23.099999999999998,163.79999999999998 24.15,162.04999999999998 24.849999999999998,162.39999999999998 24.15,163.1 24.5,162.75 24.849999999999998,163.45 24.5,161.7 26.25,159.95" stroke="#aaa" stroke-width="1" /><polyline fill="none" points="166.6,172.54999999999998 165.89999999999998,174.64999999999998 166.6,172.89999999999998 168.35,171.14999999999998 177.45,182.7 187.95,192.5 187.95,194.95 188.64999999999998,197.04999999999998 192.14999999999998,202.64999999999998 192.85,202.64999999999998 193.2,201.95 195.29999999999998,202.64999999999998 198.45,204.75 200.2,206.85 200.54999999999998,206.14999999999998 200.89999999999998,206.5 200.54999999999998,205.45 199.5,204.75 200.54999999999998,205.79999999999998 200.2,206.5 196.7,203.35 193.2,201.6 193.2,200.89999999999998 189.35,195.64999999999998 188.64999999999998,193.89999999999998 189.0,193.2 196.0,200.2 195.64999999999998,200.89999999999998 194.6,199.85 194.6,200.54999999999998 195.64999999999998,201.25 196.35,200.54999999999998 196.7,201.6 198.45,203.0 198.45,204.04999999999998 198.79999999999998,203.0 199.5,203.35 199.14999999999998,204.04999999999998 199.85,203.35 198.45,203.0 196.7,201.25 196.7,200.54999999999998 189.35,193.2 188.64999999999998,193.2 189.35,196.0 193.2,201.25 193.2,201.95 192.5,202.64999999999998 188.29999999999998,196.0 187.95,192.14999999999998 177.45,182.35 168.7,170.79999999999998" stroke="#aaa" stroke-width="1" /><polyline fill="none" points="179.89999999999998,200.2 179.89999999999998,201.95 179.2,202.29999999999998 180.6,203.0 182.35,202.29999999999998 184.1,203.0 184.79999999999998,204.04999999999998 185.85,204.04999999999998 186.54999999999998,205.45 188.29999999999998,206.5 189.7,206.5 192.14999999999998,209.29999999999998 194.25,210.0 198.1,215.25 199.85,215.95 200.2,215.6 199.85,215.95 198.45,215.25 195.64999999999998,212.1 194.6,210.0 192.5,209.29999999999998 190.04999999999998,206.5 186.89999999999998,205.45 186.2,204.75 186.89999999999998,204.04999999999998 190.75,206.14999999999998 187.95,204.75 186.2,202.29999999999998 186.2,203.0 186.89999999999998,203.35 186.54999999999998,204.39999999999998 184.79999999999998,203.7 185.5,202.29999999999998 184.45,203.35 182.7,201.95 184.79999999999998,199.85 184.1,200.54999999999998 182.7,199.85 182.35,200.2 183.04999999999998,199.85 184.1,200.54999999999998 182.35,202.29999999999998 181.29999999999998,201.95 181.29999999999998,200.54999999999998 180.6,201.95 181.29999999999998,200.54999999999998 181.64999999999998,202.29999999999998 180.6,203.0 179.89999999999998,202.29999999999998" stroke="#aaa" stroke-width="1" /><polyline fill="none" points="14.35,196.0 17.5,196.7 18.549999999999997,197.75 20.65,197.39999999999998 21.349999999999998,198.1 21.349999999999998,199.5 23.099999999999998,200.2 23.099999999999998,201.25 24.15,201.25 24.15,198.79999999999998 25.549999999999997,197.39999999999998 26.25,198.79999999999998 30.099999999999998,201.95 29.4,202.64999999999998 28.349999999999998,202.64999999999998 26.599999999999998,200.54999999999998 26.599999999999998,201.95 25.549999999999997,202.29999999999998 25.9,204.04999999999998 28.0,206.85 27.299999999999997,207.54999999999998 27.65,207.89999999999998 28.0,206.85 26.95,205.45 28.7,204.04999999999998 28.7,202.29999999999998 29.749999999999996,203.35 29.4,202.64999999999998 30.45,201.95 30.45,200.89999999999998 28.0,198.79999999999998 28.349999999999998,198.45 28.0,198.79999999999998 27.299999999999997,198.1 27.65,197.39999999999998 28.0,197.75 27.299999999999997,197.75 25.9,196.0 23.799999999999997,194.95 22.049999999999997,194.95 20.299999999999997,196.0 19.95,195.64999999999998 21.7,193.2 23.45,192.5 25.2,193.2 25.9,194.6 27.299999999999997,194.6 26.95,194.25 27.65,193.54999999999998 26.599999999999998,194.6 23.799999999999997,192.5 21.349999999999998,193.2 19.25,196.7 20.299999999999997,196.7 21.0,195.64999999999998 22.4,194.95 23.799999999999997,194.95 24.5,195.64999999999998 22.049999999999997,196.0 19.95,197.75" stroke="#aaa" stroke-width="1" /><polyline fill="none" points="21.349999999999998,26.25 20.65,26.95 20.65,28.7 23.099999999999998,28.7 23.099999999999998,26.599999999999998" stroke="#aaa" stroke-width="1" /><polyline fill="none" points="2.8,185.5 4.55,184.1 6.6499999999999995,184.45 4.199999999999999,184.1 3.15,184.79999999999998 2.8,185.85 4.199999999999999,186.54999999999998 10.5,193.54999999999998 11.2,196.7 10.5,199.14999999999998 11.2,199.14999999999998 10.5,198.79999999999998 11.2,198.45 10.85,197.75 11.549999999999999,194.95 11.549999999999999,196.0 10.85,196.0 10.5,193.54999999999998 9.799999999999999,192.85 10.149999999999999,192.14999999999998 11.2,193.2 11.2,194.25 11.549999999999999,193.89999999999998 12.25,194.6 12.6,196.35 11.899999999999999,199.14999999999998 12.95,199.5 13.649999999999999,199.14999999999998 13.649999999999999,194.6 16.45,196.0 18.2,195.64999999999998 18.549999999999997,196.7 18.549999999999997,195.29999999999998 20.65,192.5 24.15,191.79999999999998 25.9,192.85 24.15,191.79999999999998 21.0,192.14999999999998 20.299999999999997,191.45 19.95,189.7 21.349999999999998,187.25 22.4,189.7 23.799999999999997,189.35 24.5,190.04999999999998 24.5,191.1 24.5,189.7 23.799999999999997,188.64999999999998 22.049999999999997,188.64999999999998 21.7,187.25 21.0,187.25 19.95,189.7 19.95,191.79999999999998 20.299999999999997,191.45 21.0,192.14999999999998 19.95,192.5 18.9,194.6 18.2,193.89999999999998 18.549999999999997,191.45 19.599999999999998,191.1 18.549999999999997,191.1 18.2,194.25 17.15,194.95 18.2,194.25 18.9,194.95 17.5,196.0 16.45,196.0 12.95,193.89999999999998 11.899999999999999,190.39999999999998 7.0,185.85 6.3,186.54999999999998 5.6,186.2 6.3,185.14999999999998 4.8999999999999995,186.89999999999998" stroke="#aaa" stroke-width="1" /><polyline fill="none" points="23.799999999999997,207.2 23.799999999999997,208.95 25.2,209.29999999999998 24.5,208.95 25.549999999999997,208.6 26.25,210.0 28.0,208.6 27.299999999999997,208.6 27.299999999999997,209.29999999999998 26.599999999999998,209.64999999999998 25.549999999999997,208.6 25.549999999999997,207.2" stroke="#aaa" stroke-width="1" /><polyline fill="none" points="44.099999999999994,211.75 43.4,212.45 43.75,213.85 42.699999999999996,215.25 41.3,213.5 39.199999999999996,213.14999999999998 37.8,213.85 38.15,214.89999999999998 37.449999999999996,215.6 32.199999999999996,218.04999999999998 31.499999999999996,218.04999999999998 31.15,217.35 35.349999999999994,215.6 37.099999999999994,213.85 35.0,215.6 31.15,217.0 31.15,218.04999999999998 33.25,217.35 33.599999999999994,217.7 35.699999999999996,216.29999999999998 36.75,216.64999999999998 36.4,216.29999999999998 39.199999999999996,214.54999999999998 40.599999999999994,214.89999999999998 42.0,217.0 41.65,217.7 37.099999999999994,217.7 31.849999999999998,222.95 31.499999999999996,221.2 30.799999999999997,220.5 29.749999999999996,222.6 28.7,221.89999999999998 28.7,219.1 27.65,219.1 28.7,217.7 27.65,218.39999999999998 27.65,219.45 28.7,220.14999999999998 28.349999999999998,220.85 29.049999999999997,221.54999999999998 28.7,223.64999999999998 29.4,222.6 30.099999999999998,222.6 30.45,223.64999999999998 30.099999999999998,221.54999999999998 30.799999999999997,220.5 31.499999999999996,221.2 31.499999999999996,223.64999999999998 32.55,223.64999999999998 33.949999999999996,221.89999999999998 32.55,223.64999999999998 32.199999999999996,222.6 37.449999999999996,217.7 42.0,217.7 41.65,215.6 40.949999999999996,214.89999999999998 41.65,214.2 43.05,215.6 43.4,219.1 43.05,219.45 39.9,218.04999999999998 38.5,218.04999999999998 34.65,221.54999999999998 36.4,220.5 38.5,218.04999999999998 40.599999999999994,218.39999999999998 40.599999999999994,219.79999999999998 40.599999999999994,219.1 41.3,218.75 42.0,220.85 43.05,221.2 43.4,216.64999999999998 42.699999999999996,215.25 43.75,214.2 43.4,212.45" stroke="#aaa" stroke-width="1" /><polyline fill="none" points="197.04999999999998,211.04999999999998 198.45,213.85 199.5,214.89999999999998 201.25,215.25 199.85,214.89999999999998 197.39999999999998,212.1 197.39999999999998,210.7 199.5,209.29999999999998 201.25,207.2 207.89999999999998,213.5 210.0,214.54999999999998 211.39999999999998,214.54999999999998 212.79999999999998,215.95 214.89999999999998,216.29999999999998 219.79999999999998,219.79999999999998 223.64999999999998,221.54999999999998 222.25,221.2 215.6,216.64999999999998 213.14999999999998,215.95 211.39999999999998,214.54999999999998 208.6,213.85 207.89999999999998,213.14999999999998 208.25,212.79999999999998 207.89999999999998,213.14999999999998 201.95,208.25 202.64999999999998,207.54999999999998 200.89999999999998,207.2" stroke="#aaa" stroke-width="1" /></svg>