<?xml version="1.0" encoding="utf-8" ?>
<svg baseProfile="full" height="224" version="1.1" width="224" xmlns="http://www.w3.org/2000/svg" xmlns:ev="http://www.w3.org/2001/xml-events" xmlns:xlink="http://www.w3.org/1999/xlink"><defs /><polyline fill="none" points="138.95,132.65 139.29999999999998,133.35 138.6,134.39999999999998 138.6,135.79999999999998 140.0,137.54999999999998 136.85,141.75 139.29999999999998,138.95 142.79999999999998,140.7 143.85,142.1 144.2,141.39999999999998 143.85,141.75 143.14999999999998,140.7 139.29999999999998,138.95 140.7,137.2 140.0,137.54999999999998 139.64999999999998,136.85 140.35,135.79999999999998 141.39999999999998,136.85 141.39999999999998,135.45 144.2,138.25 145.6,138.25 144.54999999999998,138.25 143.14999999999998,136.85 143.5,136.5 143.14999999999998,136.85 141.75,135.45 141.75,134.75 139.29999999999998,133.0 140.0,132.65" stroke="#aaa" stroke-width="1" /><polyline fill="none" points="128.1,134.75 129.5,134.75 130.2,135.45 130.54999999999998,134.75 131.25,135.1 130.54999999999998,136.5 131.25,137.89999999999998 130.54999999999998,138.95 130.9,143.5 132.29999999999998,145.25 134.39999999999998,145.95 135.45,147.0 133.7,148.39999999999998 131.25,147.0 130.54999999999998,147.0 129.5,148.04999999999998 130.9,147.0 132.29999999999998,148.04999999999998 134.04999999999998,148.04999999999998 134.75,149.1 134.04999999999998,149.1 134.39999999999998,149.45 133.7,149.79999999999998 135.79999999999998,151.54999999999998 134.04999999999998,149.79999999999998 134.75,149.1 136.5,150.85 134.39999999999998,148.39999999999998 135.45,147.0 136.14999999999998,148.39999999999998 138.25,149.1 137.2,150.5 137.89999999999998,149.79999999999998 138.6,150.5 138.6,151.89999999999998 139.64999999999998,152.95 141.39999999999998,153.64999999999998 142.79999999999998,152.95 143.85,154.7 142.79999999999998,152.95 142.79999999999998,151.54999999999998 143.5,150.85 143.85,152.95 145.25,153.64999999999998 145.6,152.25 146.64999999999998,151.2 147.0,151.54999999999998 146.29999999999998,151.2 144.89999999999998,153.64999999999998 143.85,152.6 144.2,151.89999999999998 143.14999999999998,149.45 143.14999999999998,151.2 142.45,150.85 142.45,149.79999999999998 142.79999999999998,152.95 140.35,153.29999999999998 138.95,152.25 138.25,150.85 139.29999999999998,149.45 140.0,150.14999999999998 139.64999999999998,151.2 140.35,152.25 141.04999999999998,152.25 141.39999999999998,150.85 140.7,151.2 140.7,152.25 139.64999999999998,151.2 140.35,150.14999999999998 140.0,149.45 139.29999999999998,149.45 138.6,150.5 138.25,149.1 136.5,148.39999999999998 135.79999999999998,147.0 134.75,146.29999999999998 135.45,145.6 136.85,145.6 137.89999999999998,144.54999999999998 140.7,144.2 144.89999999999998,147.35 145.95,147.35 143.5,146.29999999999998 141.04999999999998,144.54999999999998 141.04999999999998,143.85 137.89999999999998,144.54999999999998 134.75,146.29999999999998 132.65,145.25 130.9,143.14999999999998 130.54999999999998,138.95 131.6,137.89999999999998 131.6,140.0 132.29999999999998,140.0 133.0,138.6 133.35,138.95 133.35,140.35 132.65,141.39999999999998 133.0,142.1 132.65,142.45 131.95,141.39999999999998 132.65,142.45 132.29999999999998,143.14999999999998 134.75,141.04999999999998 135.79999999999998,141.75 135.79999999999998,139.29999999999998 136.5,138.95 136.85,139.64999999999998 136.85,138.95 137.89999999999998,138.6 135.45,138.95 134.39999999999998,137.89999999999998 134.39999999999998,136.5 134.39999999999998,138.25 135.79999999999998,139.29999999999998 136.14999999999998,141.04999999999998 135.45,141.75 134.04999999999998,140.7 133.35,142.1 132.65,141.39999999999998 133.35,140.35 133.35,138.6 133.0,138.25 132.29999999999998,140.0 131.6,139.64999999999998 131.95,137.89999999999998 133.0,136.5 131.95,137.2 131.95,137.89999999999998 131.25,137.89999999999998 130.54999999999998,136.5 131.6,134.39999999999998 131.25,134.04999999999998 131.25,135.1 130.54999999999998,134.04999999999998 130.2,135.1 130.2,133.35 129.5,134.75" stroke="#aaa" stroke-width="1" /><polyline fill="none" points="132.29999999999998,131.95 132.29999999999998,134.04999999999998 132.65,133.35 133.7,133.7 133.35,135.1 133.7,134.04999999999998 135.45,135.79999999999998 136.5,135.79999999999998 137.2,135.1 137.54999999999998,137.54999999999998 138.95,137.54999999999998 137.54999999999998,137.2 137.89999999999998,135.1 135.79999999999998,135.79999999999998 134.39999999999998,134.75 136.14999999999998,134.75 136.14999999999998,134.04999999999998 137.54999999999998,132.65 135.45,132.65 135.79999999999998,133.0 134.75,133.7 133.35,131.95" stroke="#aaa" stroke-width="1" /><polyline fill="none" points="139.29999999999998,128.45 141.39999999999998,130.9 142.79999999999998,131.6 143.14999999999998,133.7 144.54999999999998,134.39999999999998 145.6,135.79999999999998 148.75,136.14999999999998 148.04999999999998,135.79999999999998 149.45,134.04999999999998 148.75,133.7 148.75,131.95 145.6,130.2 145.95,130.54999999999998 144.89999999999998,130.54999999999998 145.25,130.9 144.54999999999998,131.25 143.85,129.85 143.85,130.9 145.6,131.6 144.2,132.29999999999998 144.54999999999998,133.0 146.64999999999998,134.04999999999998 146.29999999999998,134.75 147.35,134.75 146.29999999999998,134.39999999999998 147.35,134.04999999999998 146.64999999999998,134.04999999999998 145.6,132.65 145.25,131.25 145.95,130.54999999999998 147.35,130.9 149.1,132.65 147.0,133.0 148.04999999999998,132.65 148.75,133.35 148.75,135.1 148.04999999999998,135.79999999999998 145.95,135.79999999999998 144.89999999999998,134.39999999999998 144.2,134.39999999999998 143.14999999999998,133.35 143.14999999999998,131.95 142.1,130.9 143.14999999999998,130.2 142.45,129.5 142.45,128.1 141.75,128.45 142.45,129.15 142.1,129.85 141.04999999999998,128.79999999999998 142.45,130.2 142.1,130.9" stroke="#aaa" stroke-width="1" /><polyline fill="none" points="157.5,130.9 156.79999999999998,133.0 155.04999999999998,130.2 152.95,128.79999999999998 153.29999999999998,128.1 154.35,128.79999999999998 152.25,127.74999999999999 153.64999999999998,129.85 154.0,133.0 155.04999999999998,133.0 154.35,130.9 153.64999999999998,130.54999999999998 154.35,129.85 156.1,131.6 156.45,133.35 155.04999999999998,134.04999999999998 152.25,136.85 149.45,136.5 147.35,138.25 145.6,137.2 147.35,136.85 144.2,136.85 144.54999999999998,136.5 144.54999999999998,137.2 147.35,138.25 149.1,136.85 149.1,138.6 150.14999999999998,137.54999999999998 149.45,137.2 149.79999999999998,136.5 153.29999999999998,136.5 155.75,134.04999999999998 157.5,136.14999999999998 156.45,137.54999999999998 157.5,138.6 158.2,138.25 157.5,138.6 156.79999999999998,137.89999999999998 157.5,135.1 157.14999999999998,135.45 155.75,134.04999999999998 157.14999999999998,133.0" stroke="#aaa" stroke-width="1" /><polyline fill="none" points="134.75,151.89999999999998 134.04999999999998,151.2 133.0,151.2 133.35,151.54999999999998 132.65,152.25 132.29999999999998,151.2 132.65,152.25 131.6,152.6 131.25,153.64999999999998 130.2,152.95 130.9,153.29999999999998 130.54999999999998,154.0 128.79999999999998,154.0 130.9,154.0 131.6,153.29999999999998 131.95,154.0 130.2,155.04999999999998 130.9,155.04999999999998 132.29999999999998,153.64999999999998 134.04999999999998,153.64999999999998 132.29999999999998,153.64999999999998 131.6,152.95 133.35,151.89999999999998 134.39999999999998,152.95" stroke="#aaa" stroke-width="1" /><polyline fill="none" points="151.2,128.45 150.85,129.15 150.5,128.79999999999998 151.54999999999998,130.2 151.54999999999998,131.25 152.25,131.6 152.6,130.2 152.25,129.15" stroke="#aaa" stroke-width="1" /><polyline fill="none" points="141.39999999999998,121.1 141.39999999999998,122.14999999999999 142.79999999999998,123.55 142.79999999999998,122.49999999999999 144.54999999999998,123.89999999999999 143.14999999999998,124.94999999999999 142.1,124.94999999999999 141.75,124.24999999999999 141.39999999999998,124.6 141.39999999999998,126.35 142.1,126.35 143.14999999999998,127.39999999999999 142.45,126.69999999999999 142.45,125.3 144.54999999999998,123.89999999999999 142.1,121.1" stroke="#aaa" stroke-width="1" /><polyline fill="none" points="150.85,110.6 150.5,112.35 144.2,111.64999999999999 140.35,114.44999999999999 141.39999999999998,114.8 139.64999999999998,117.24999999999999 138.95,119.69999999999999 135.45,125.64999999999999 134.04999999999998,126.69999999999999 133.35,128.45 126.69999999999999,134.39999999999998 118.99999999999999,137.2 117.94999999999999,136.85 115.85,138.25 111.64999999999999,137.89999999999998 109.55,138.95 108.14999999999999,138.95 107.44999999999999,139.64999999999998 105.69999999999999,140.0 105.0,140.7 103.6,140.7 99.39999999999999,142.79999999999998 96.94999999999999,142.45 94.5,140.35 94.14999999999999,135.45 92.75,134.39999999999998 94.14999999999999,135.79999999999998 94.5,140.7 96.6,142.45 99.39999999999999,142.79999999999998 99.39999999999999,145.25 99.75,142.79999999999998 101.14999999999999,142.45 103.6,140.7 105.35,140.7 106.75,139.64999999999998 109.89999999999999,138.95 111.64999999999999,137.89999999999998 115.85,138.25 117.24999999999999,137.89999999999998 117.94999999999999,136.85 118.64999999999999,136.85 118.99999999999999,137.54999999999998 119.35,136.85 127.05,134.39999999999998 133.35,128.79999999999998 137.89999999999998,121.44999999999999 138.6,122.14999999999999 138.25,123.19999999999999 139.29999999999998,122.85 140.0,123.55 139.29999999999998,124.94999999999999 139.64999999999998,127.39999999999999 139.29999999999998,124.94999999999999 140.35,123.55 140.7,123.89999999999999 140.7,127.05 140.0,128.1 140.7,127.39999999999999 140.35,124.94999999999999 141.04999999999998,122.85 140.7,123.55 140.0,123.55 137.89999999999998,121.44999999999999 141.39999999999998,114.1 143.5,112.0 144.54999999999998,111.64999999999999 149.79999999999998,112.0 150.85,113.05" stroke="#aaa" stroke-width="1" /><polyline fill="none" points="120.74999999999999,146.29999999999998 122.14999999999999,146.64999999999998 121.1,147.7 121.8,147.35 122.85,148.75 123.55,148.75 123.89999999999999,148.04999999999998 125.3,148.04999999999998 123.89999999999999,148.04999999999998 122.14999999999999,146.29999999999998" stroke="#aaa" stroke-width="1" /><polyline fill="none" points="117.24999999999999,142.79999999999998 117.24999999999999,143.85 116.55,144.54999999999998 117.24999999999999,143.85 117.24999999999999,142.79999999999998 118.64999999999999,144.2 117.24999999999999,145.25 118.3,147.0 118.99999999999999,147.0 118.3,144.54999999999998 118.99999999999999,144.2 120.05,145.25 120.05,146.29999999999998 119.69999999999999,144.54999999999998" stroke="#aaa" stroke-width="1" /><polyline fill="none" points="151.89999999999998,115.49999999999999 152.25,118.3 150.5,120.05 150.85,120.74999999999999 150.5,120.05 151.89999999999998,118.64999999999999 152.6,119.35 151.89999999999998,117.94999999999999 152.25,116.89999999999999 154.0,118.99999999999999 155.04999999999998,121.8 154.0,122.14999999999999 153.64999999999998,121.44999999999999 152.95,122.14999999999999 152.6,121.44999999999999 151.89999999999998,122.85 152.25,124.94999999999999 154.35,127.74999999999999 155.04999999999998,126.35 153.29999999999998,124.94999999999999 155.39999999999998,124.94999999999999 155.39999999999998,125.64999999999999 155.04999999999998,124.6 154.0,124.6 153.29999999999998,122.85 154.0,122.14999999999999 154.35,122.49999999999999 155.04999999999998,121.44999999999999" stroke="#aaa" stroke-width="1" /><polyline fill="none" points="138.6,110.94999999999999 137.54999999999998,111.3 136.5,110.6 130.54999999999998,111.3 128.79999999999998,112.35 127.74999999999999,112.0 127.74999999999999,112.69999999999999 125.64999999999999,112.0 126.69999999999999,112.0 127.39999999999999,112.69999999999999 126.69999999999999,113.74999999999999 125.99999999999999,113.39999999999999 127.05,114.1 125.64999999999999,115.49999999999999 124.24999999999999,115.14999999999999 123.19999999999999,115.85 123.19999999999999,116.89999999999999 124.94999999999999,117.24999999999999 123.55,116.89999999999999 123.19999999999999,116.19999999999999 124.24999999999999,115.14999999999999 126.69999999999999,115.14999999999999 127.39999999999999,116.19999999999999 128.1,114.8 126.69999999999999,113.74999999999999 128.1,112.35 129.15,112.35 130.54999999999998,111.3 136.5,110.6 137.54999999999998,111.3 138.6,110.94999999999999 139.29999999999998,111.64999999999999 138.95,114.8 137.89999999999998,115.49999999999999 137.2,114.8 137.89999999999998,113.39999999999999 136.5,113.05 132.29999999999998,116.55 132.29999999999998,119.69999999999999 133.7,121.1 135.1,120.39999999999999 135.79999999999998,121.1 135.79999999999998,122.14999999999999 134.75,122.85 132.65,125.99999999999999 131.95,125.3 132.29999999999998,124.6 132.65,124.94999999999999 132.65,121.44999999999999 131.6,120.39999999999999 131.6,119.69999999999999 131.6,120.39999999999999 132.65,121.44999999999999 131.95,123.19999999999999 130.9,122.49999999999999 130.9,120.74999999999999 130.9,122.49999999999999 132.29999999999998,123.55 132.29999999999998,124.24999999999999 131.25,125.3 130.54999999999998,123.89999999999999 130.54999999999998,124.94999999999999 132.65,125.99999999999999 131.95,127.39999999999999 125.64999999999999,132.65 122.49999999999999,134.04999999999998 118.64999999999999,134.39999999999998 123.55,133.7 127.74999999999999,131.6 131.95,127.74999999999999 133.7,124.6 135.79999999999998,122.49999999999999 136.5,119.35 137.89999999999998,117.6 137.2,115.85 137.89999999999998,117.6 136.85,118.64999999999999 134.04999999999998,116.89999999999999 135.45,116.19999999999999 136.85,117.6 136.14999999999998,116.55 134.04999999999998,116.55 134.39999999999998,117.6 133.35,118.64999999999999 134.39999999999998,117.6 135.79999999999998,118.3 135.79999999999998,118.99999999999999 134.04999999999998,121.1 132.29999999999998,119.35 132.29999999999998,116.89999999999999 136.85,113.05 137.89999999999998,113.74999999999999 136.14999999999998,115.85 137.2,114.8 138.6,115.49999999999999 139.29999999999998,113.74999999999999 139.29999999999998,111.64999999999999" stroke="#aaa" stroke-width="1" /><polyline fill="none" points="124.24999999999999,122.14999999999999 123.55,122.85 124.24999999999999,122.14999999999999 122.49999999999999,121.44999999999999 118.3,123.55 118.3,124.94999999999999 117.24999999999999,125.99999999999999 116.19999999999999,125.99999999999999 115.85,126.69999999999999 116.19999999999999,125.99999999999999 116.55,126.35 117.94999999999999,125.64999999999999 117.94999999999999,124.24999999999999 118.64999999999999,123.55 119.35,124.94999999999999 120.39999999999999,124.94999999999999 122.49999999999999,122.85 122.85,123.19999999999999 122.85,122.49999999999999 120.74999999999999,124.24999999999999 120.05,123.19999999999999 122.85,121.44999999999999" stroke="#aaa" stroke-width="1" /><polyline fill="none" points="131.95,114.1 130.9,114.1 129.85,113.05 128.1,113.39999999999999 129.85,113.39999999999999 130.9,114.1 130.2,114.8 129.5,114.44999999999999 130.2,114.8 127.74999999999999,116.89999999999999 125.3,117.94999999999999 124.6,119.35 125.64999999999999,119.35 124.94999999999999,120.39999999999999 124.94999999999999,122.85 124.94999999999999,120.74999999999999 125.64999999999999,119.35 127.74999999999999,117.94999999999999 127.05,117.24999999999999 128.79999999999998,117.24999999999999 131.95,114.8" stroke="#aaa" stroke-width="1" /><polyline fill="none" points="156.45,113.39999999999999 156.1,114.44999999999999 157.5,116.19999999999999 156.79999999999998,116.89999999999999 156.79999999999998,118.3 156.1,117.6 156.1,116.55 156.1,117.94999999999999 156.79999999999998,118.3 155.75,118.99999999999999 156.79999999999998,120.05 157.5,122.14999999999999 156.79999999999998,122.85 156.1,121.8 157.5,124.24999999999999 158.89999999999998,124.94999999999999 158.89999999999998,126.69999999999999 160.29999999999998,127.74999999999999 161.0,129.5 164.85,132.65 167.29999999999998,133.35 168.35,134.39999999999998 174.64999999999998,135.79999999999998 179.2,136.14999999999998 189.7,134.75 189.0,133.35 187.95,134.04999999999998 184.79999999999998,133.7 189.0,133.7 189.0,134.75 186.54999999999998,135.45 179.2,136.14999999999998 174.64999999999998,135.79999999999998 168.7,134.39999999999998 165.2,132.65 161.0,129.15 160.29999999999998,127.74999999999999 160.64999999999998,126.35 159.6,125.64999999999999 160.64999999999998,126.35 160.29999999999998,127.39999999999999 159.25,126.69999999999999 158.89999999999998,124.6 158.2,124.6 156.79999999999998,122.85 157.5,122.14999999999999 158.2,123.55 158.54999999999998,123.19999999999999 159.25,123.89999999999999 158.89999999999998,122.14999999999999 160.64999999999998,120.39999999999999 159.6,121.1 158.89999999999998,118.99999999999999 159.25,123.19999999999999 158.89999999999998,123.55 157.5,122.14999999999999 156.79999999999998,119.69999999999999 156.1,119.35 157.14999999999998,117.94999999999999 157.5,116.19999999999999 159.25,117.6 159.25,118.3 160.64999999999998,119.69999999999999 158.89999999999998,116.89999999999999 157.5,116.19999999999999 156.1,114.44999999999999 157.5,113.05" stroke="#aaa" stroke-width="1" /><polyline fill="none" points="163.45,121.1 163.79999999999998,122.49999999999999 163.1,122.85 162.75,124.6 163.45,125.64999999999999 162.75,123.89999999999999 163.79999999999998,122.85 164.14999999999998,124.94999999999999 164.14999999999998,123.19999999999999 165.54999999999998,125.3 164.5,123.55 164.85,121.8" stroke="#aaa" stroke-width="1" /><polyline fill="none" points="155.39999999999998,122.49999999999999 156.45,125.3 159.6,130.2 161.7,132.65 164.85,135.1 168.35,136.14999999999998 169.04999999999998,136.85 171.5,137.2 173.25,138.6 175.35,138.6 176.39999999999998,139.64999999999998 177.79999999999998,139.64999999999998 179.2,141.04999999999998 178.85,140.7 179.89999999999998,140.35 176.75,139.64999999999998 175.35,138.6 174.29999999999998,138.95 172.54999999999998,137.54999999999998 165.2,135.1 162.04999999999998,132.65 159.6,129.85" stroke="#aaa" stroke-width="1" /><polyline fill="none" points="155.75,167.64999999999998 151.54999999999998,168.35 150.14999999999998,167.64999999999998 148.04999999999998,167.64999999999998 147.0,168.7 145.25,168.35 147.35,168.7 148.39999999999998,167.64999999999998 149.1,168.35 150.14999999999998,167.64999999999998 151.2,168.35 150.5,169.75 148.75,170.45 147.0,169.75 145.95,170.1 147.0,169.75 147.0,171.14999999999998 143.5,170.45 141.39999999999998,171.5 138.95,171.5 138.25,170.79999999999998 140.0,170.1 141.04999999999998,170.45 141.04999999999998,169.75 137.2,170.79999999999998 135.45,169.75 133.7,169.75 131.6,168.0 133.35,169.75 135.1,169.75 138.95,171.5 141.39999999999998,171.5 143.5,170.45 145.25,170.45 148.39999999999998,172.2 147.0,171.14999999999998 147.7,170.1 148.39999999999998,170.79999999999998 149.1,170.1 150.85,169.75 152.25,170.79999999999998 150.85,169.39999999999998 151.89999999999998,168.0 153.29999999999998,168.35" stroke="#aaa" stroke-width="1" /><polyline fill="none" points="116.89999999999999,119.69999999999999 115.14999999999999,120.74999999999999 116.89999999999999,121.8 115.49999999999999,122.14999999999999 114.1,123.55 112.35,123.19999999999999 111.64999999999999,123.89999999999999 112.0,125.3 115.49999999999999,122.14999999999999 116.19999999999999,122.49999999999999 117.24999999999999,121.8 115.49999999999999,120.74999999999999" stroke="#aaa" stroke-width="1" /><polyline fill="none" points="161.0,116.19999999999999 161.7,116.89999999999999 161.35,117.6 161.7,116.89999999999999 163.45,118.64999999999999 162.75,119.69999999999999 163.79999999999998,120.05 165.54999999999998,118.64999999999999 166.25,119.35 167.29999999999998,118.99999999999999 166.95,117.94999999999999 164.85,118.99999999999999 163.79999999999998,117.24999999999999 164.5,116.55 163.79999999999998,116.89999999999999 163.1,115.85" stroke="#aaa" stroke-width="1" /><polyline fill="none" points="134.75,94.85 132.65,96.94999999999999 132.29999999999998,98.69999999999999 135.79999999999998,100.44999999999999 138.6,102.89999999999999 139.64999999999998,104.64999999999999 140.0,107.8 141.75,105.69999999999999 142.79999999999998,106.05 141.39999999999998,107.44999999999999 142.79999999999998,107.8 143.14999999999998,108.5 142.45,109.19999999999999 141.39999999999998,108.85 142.1,108.85 142.45,109.55 143.5,108.5 144.2,109.55 143.14999999999998,110.25 141.39999999999998,110.25 140.7,109.55 140.7,108.14999999999999 140.7,109.89999999999999 143.14999999999998,110.25 144.2,109.55 147.35,110.25 148.04999999999998,109.55 147.35,108.85 147.35,109.89999999999999 144.89999999999998,109.89999999999999 143.5,108.5 147.0,108.14999999999999 148.75,106.05 149.1,106.39999999999999 148.75,104.64999999999999 148.04999999999998,104.64999999999999 148.04999999999998,105.35 145.6,107.1 144.2,106.75 144.2,107.8 143.5,108.5 143.14999999999998,107.8 141.39999999999998,107.44999999999999 144.54999999999998,105.35 144.2,104.3 143.5,104.64999999999999 143.85,104.3 144.54999999999998,105.0 143.85,105.69999999999999 141.39999999999998,105.69999999999999 140.35,107.1 138.6,102.55 136.14999999999998,100.44999999999999 135.1,100.44999999999999 132.29999999999998,98.35 132.29999999999998,97.64999999999999 133.7,96.6" stroke="#aaa" stroke-width="1" /><polyline fill="none" points="116.19999999999999,168.0 116.89999999999999,169.04999999999998 116.89999999999999,170.79999999999998 116.55,170.1 117.94999999999999,169.75 121.8,173.6 125.3,173.6 125.64999999999999,173.95 124.94999999999999,174.29999999999998 125.64999999999999,174.64999999999998 124.94999999999999,175.0 125.64999999999999,175.7 126.69999999999999,175.7 127.05,175.0 126.35,175.7 125.3,175.0 126.35,173.6 126.35,172.54999999999998 125.3,171.85 124.94999999999999,172.54999999999998 124.24999999999999,171.85 125.3,169.39999999999998 125.99999999999999,170.79999999999998 125.64999999999999,171.14999999999998 127.74999999999999,171.14999999999998 128.1,171.5 127.39999999999999,172.2 128.79999999999998,171.5 129.85,172.54999999999998 129.85,173.6 131.6,173.6 133.35,175.0 132.29999999999998,173.95 133.0,173.25 133.7,173.95 133.0,173.25 133.7,172.54999999999998 133.35,172.89999999999998 131.6,171.14999999999998 133.0,172.54999999999998 132.65,173.6 130.2,173.6 129.5,171.85 126.69999999999999,171.14999999999998 125.3,169.39999999999998 121.44999999999999,169.39999999999998 123.19999999999999,170.1 123.55,169.39999999999998 124.94999999999999,169.75 124.24999999999999,171.85 125.3,173.25 122.14999999999999,173.6 118.64999999999999,170.1 116.89999999999999,169.04999999999998 118.3,168.0 117.24999999999999,168.0 116.89999999999999,169.04999999999998" stroke="#aaa" stroke-width="1" /><polyline fill="none" points="159.6,99.75 155.04999999999998,102.55 154.35,104.64999999999999 152.6,107.1 151.2,107.44999999999999 150.5,106.39999999999999 150.85,106.05 152.25,106.05 150.85,106.05 149.45,107.8 149.79999999999998,108.5 151.89999999999998,109.19999999999999 149.45,107.8 150.5,106.75 151.89999999999998,108.14999999999999 151.89999999999998,107.1 152.95,107.44999999999999 151.54999999999998,113.05 153.29999999999998,116.55 153.29999999999998,115.49999999999999 152.25,114.8 151.54999999999998,112.69999999999999 152.95,108.85 152.6,107.1 154.35,105.0 154.7,103.25 156.45,101.5 157.14999999999998,101.5 158.54999999999998,103.25 157.14999999999998,101.5 159.25,100.1 161.0,100.8" stroke="#aaa" stroke-width="1" /><polyline fill="none" points="128.79999999999998,111.3 125.64999999999999,110.94999999999999 124.24999999999999,109.89999999999999 112.69999999999999,110.25 112.0,111.3 110.94999999999999,110.6 111.64999999999999,110.25 110.94999999999999,110.25 110.6,110.94999999999999 105.69999999999999,112.0 102.19999999999999,113.74999999999999 101.85,114.8 100.8,115.85 100.1,115.85 100.44999999999999,116.89999999999999 99.39999999999999,117.24999999999999 100.1,117.24999999999999 101.85,115.14999999999999 101.85,114.44999999999999 103.94999999999999,113.39999999999999 104.64999999999999,112.35 107.8,111.64999999999999 110.25,112.35 112.0,113.74999999999999 109.89999999999999,113.74999999999999 110.25,114.8 107.8,118.3 106.75,117.24999999999999 105.69999999999999,117.6 105.69999999999999,118.3 106.05,117.94999999999999 109.55,121.44999999999999 108.85,122.14999999999999 108.14999999999999,120.74999999999999 106.39999999999999,119.69999999999999 108.14999999999999,121.1 108.5,122.14999999999999 109.19999999999999,122.14999999999999 109.55,121.44999999999999 108.14999999999999,119.69999999999999 108.5,119.35 107.8,118.3 108.85,117.24999999999999 110.25,118.3 114.44999999999999,118.64999999999999 110.6,118.3 108.85,116.89999999999999 108.85,116.19999999999999 110.25,115.14999999999999 110.6,116.19999999999999 110.6,114.44999999999999 112.0,113.74999999999999 113.39999999999999,114.44999999999999 114.44999999999999,113.39999999999999 115.85,113.39999999999999 117.24999999999999,114.44999999999999 116.55,115.14999999999999 115.14999999999999,115.14999999999999 115.85,115.85 116.89999999999999,115.85 116.89999999999999,114.8 117.94999999999999,113.74999999999999 119.69999999999999,113.74999999999999 121.1,112.69999999999999 123.19999999999999,112.69999999999999 123.89999999999999,113.74999999999999 123.89999999999999,113.05 123.19999999999999,112.35 120.74999999999999,112.69999999999999 119.35,113.74999999999999 117.24999999999999,114.1 115.85,113.39999999999999 113.74999999999999,113.74999999999999 112.69999999999999,113.05 113.74999999999999,113.74999999999999 113.05,114.44999999999999 112.0,113.05 109.19999999999999,112.35 108.5,111.64999999999999 110.94999999999999,110.6 111.3,111.3 113.74999999999999,111.3 115.49999999999999,112.35 116.89999999999999,111.64999999999999 119.69999999999999,112.35 123.19999999999999,111.64999999999999 124.94999999999999,110.6" stroke="#aaa" stroke-width="1" /><polyline fill="none" points="95.19999999999999,134.75 95.55,134.39999999999998 95.19999999999999,135.1 96.6,137.2 96.25,137.54999999999998 99.39999999999999,139.29999999999998 101.5,138.25 102.19999999999999,138.6 103.94999999999999,137.54999999999998 109.89999999999999,137.2 107.8,136.14999999999998 102.19999999999999,135.45 100.1,134.04999999999998 100.44999999999999,133.35 99.75,133.0 100.1,134.39999999999998 102.19999999999999,135.45 107.8,136.5 107.1,137.2 102.55,137.89999999999998 101.85,138.6 101.5,138.25 99.39999999999999,139.29999999999998 96.94999999999999,137.89999999999998" stroke="#aaa" stroke-width="1" /><polyline fill="none" points="121.1,175.0 121.44999999999999,176.39999999999998 123.19999999999999,178.14999999999998 123.89999999999999,177.79999999999998 123.19999999999999,178.14999999999998 121.44999999999999,176.04999999999998 121.8,175.35 123.55,177.1 125.99999999999999,177.79999999999998 127.74999999999999,176.39999999999998 128.45,177.1 129.5,177.1 129.85,175.7 131.95,175.0 130.9,175.0 129.5,176.04999999999998 128.79999999999998,175.7 125.99999999999999,177.79999999999998 123.89999999999999,177.1 122.49999999999999,175.7 123.19999999999999,175.35 123.19999999999999,174.64999999999998 122.49999999999999,175.7 121.8,175.35 122.14999999999999,174.64999999999998 121.8,175.35" stroke="#aaa" stroke-width="1" /><polyline fill="none" points="138.95,108.85 138.6,105.69999999999999 136.14999999999998,102.19999999999999 130.54999999999998,99.05 128.79999999999998,99.05 127.05,98.0 128.79999999999998,99.05 130.54999999999998,99.05 131.25,99.75 130.9,100.1 131.25,99.75 133.35,100.44999999999999 135.45,101.85 137.54999999999998,103.94999999999999 138.6,106.05 138.95,108.14999999999999 137.89999999999998,108.85 133.35,109.19999999999999 131.95,107.8 131.95,107.1 128.45,104.3 123.55,101.85 119.69999999999999,100.8 114.44999999999999,100.8 109.19999999999999,103.25 107.44999999999999,103.6 106.39999999999999,102.89999999999999 103.6,104.64999999999999 102.19999999999999,103.94999999999999 103.6,104.64999999999999 102.89999999999999,105.35 101.5,104.64999999999999 102.19999999999999,105.35 101.14999999999999,105.35 100.44999999999999,106.05 98.35,104.64999999999999 101.85,107.1 102.55,106.75 101.85,107.1 100.44999999999999,106.05 102.19999999999999,105.35 103.94999999999999,106.75 105.0,106.75 105.69999999999999,106.05 107.1,106.75 110.25,107.1 109.89999999999999,106.05 111.3,104.3 112.35,104.64999999999999 112.0,106.05 113.05,106.39999999999999 112.35,105.69999999999999 112.35,104.3 113.39999999999999,103.6 115.49999999999999,103.6 113.39999999999999,103.6 110.6,104.64999999999999 108.85,107.1 105.69999999999999,106.05 105.0,106.75 103.25,106.39999999999999 102.55,105.69999999999999 104.64999999999999,104.64999999999999 106.39999999999999,102.89999999999999 107.1,103.25 107.1,103.94999999999999 105.35,105.0 106.05,105.0 107.8,103.25 109.55,103.25 110.25,102.55 112.69999999999999,102.19999999999999 114.44999999999999,100.8 119.69999999999999,100.8 127.05,103.6 131.95,107.44999999999999 130.2,108.14999999999999 128.1,106.05 125.99999999999999,104.64999999999999 124.94999999999999,104.64999999999999 123.55,107.44999999999999 123.55,108.14999999999999 124.6,109.19999999999999 124.94999999999999,108.85 123.55,107.8 125.3,104.64999999999999 130.9,108.5 131.25,107.8 131.95,107.8 132.65,108.5 130.9,110.25 129.15,109.89999999999999 127.05,108.5 125.64999999999999,109.89999999999999 127.05,108.85 130.2,110.25 131.25,110.25 132.65,108.85" stroke="#aaa" stroke-width="1" /><polyline fill="none" points="179.2,122.49999999999999 177.45,121.8 176.75,123.89999999999999" stroke="#aaa" stroke-width="1" /><polyline fill="none" points="117.24999999999999,102.55 117.24999999999999,103.25 119.69999999999999,106.05 118.99999999999999,104.64999999999999 119.69999999999999,103.94999999999999 120.05,105.0 120.05,103.94999999999999 118.99999999999999,103.25 118.99999999999999,102.19999999999999" stroke="#aaa" stroke-width="1" /><polyline fill="none" points="87.5,111.3 86.8,114.1 86.8,117.94999999999999 87.85,120.39999999999999 90.64999999999999,123.55 90.64999999999999,132.29999999999998 90.64999999999999,123.19999999999999 87.85,120.05 86.8,117.94999999999999 87.14999999999999,112.0 88.19999999999999,110.94999999999999 89.6,110.94999999999999 90.64999999999999,112.35 90.3,117.94999999999999 89.6,117.94999999999999 89.6,115.49999999999999 89.25,115.85 89.6,118.3 90.3,117.94999999999999 91.0,118.64999999999999 91.35,122.85 92.05,123.55 92.75,127.05 94.14999999999999,129.85 94.85,130.2 94.14999999999999,130.9 95.19999999999999,132.65 95.19999999999999,133.7 95.19999999999999,132.65 94.14999999999999,130.9 94.85,130.54999999999998 97.3,133.0 96.94999999999999,133.7 96.25,133.7 97.3,133.35 98.35,134.04999999999998 98.35,134.75 98.69999999999999,134.04999999999998 99.05,134.39999999999998 98.69999999999999,132.65 95.89999999999999,129.85 94.5,127.39999999999999 95.19999999999999,125.3 97.3,127.39999999999999 96.94999999999999,129.5 97.3,129.15 99.75,131.95 99.39999999999999,132.29999999999998 99.75,131.95 101.5,133.35 109.89999999999999,135.45 113.05,135.45 114.44999999999999,136.85 116.89999999999999,136.85 117.6,136.14999999999998 117.94999999999999,134.39999999999998 117.6,135.79999999999998 116.55,136.85 114.8,136.85 113.39999999999999,135.45 114.1,134.39999999999998 117.24999999999999,134.39999999999998 117.24999999999999,133.0 115.14999999999999,133.0 115.14999999999999,130.9 113.39999999999999,130.2 112.35,130.2 112.0,130.9 113.39999999999999,131.6 112.0,130.54999999999998 112.35,130.2 114.8,130.9 115.14999999999999,131.6 114.1,132.65 114.44999999999999,132.29999999999998 115.14999999999999,133.0 114.1,133.35 113.39999999999999,135.45 109.89999999999999,135.45 102.55,133.7 100.1,132.29999999999998 99.39999999999999,131.25 102.19999999999999,131.25 103.25,131.95 103.6,130.9 103.25,131.95 102.55,131.25 100.44999999999999,131.6 99.75,130.9 102.19999999999999,130.2 99.75,130.54999999999998 99.39999999999999,131.25 97.3,129.15 97.3,127.39999999999999 96.6,126.35 96.94999999999999,124.6 96.25,125.99999999999999 95.19999999999999,125.3 95.55,122.49999999999999 96.25,121.8 95.89999999999999,120.05 97.3,118.64999999999999 97.3,117.6 101.14999999999999,114.1 100.1,114.44999999999999 97.3,117.24999999999999 97.3,118.3 95.89999999999999,119.69999999999999 95.55,124.24999999999999 94.85,125.3 94.14999999999999,124.94999999999999 94.14999999999999,120.74999999999999 94.85,120.05 95.55,117.24999999999999 96.6,116.55 95.89999999999999,116.55 94.14999999999999,120.39999999999999 94.14999999999999,124.94999999999999 94.85,126.35 94.5,126.69999999999999 93.44999999999999,125.99999999999999 94.5,126.69999999999999 95.89999999999999,130.2 99.05,133.35 98.69999999999999,134.04999999999998 93.8,129.15 92.75,127.05 92.05,123.19999999999999 91.35,122.49999999999999 91.35,121.8 92.05,121.44999999999999 91.35,120.74999999999999 92.05,120.05 92.75,120.74999999999999 92.39999999999999,122.49999999999999 93.1,123.55 93.1,124.94999999999999 93.44999999999999,124.24999999999999 92.75,123.19999999999999 92.05,117.94999999999999 91.69999999999999,120.39999999999999 90.3,117.94999999999999 90.3,111.3" stroke="#aaa" stroke-width="1" /><polyline fill="none" points="108.14999999999999,93.8 108.14999999999999,95.55 109.55,96.25 112.0,95.89999999999999 113.05,94.85 121.1,95.55 123.19999999999999,97.3 122.85,97.64999999999999 125.99999999999999,97.64999999999999 128.45,95.55 127.74999999999999,96.25 126.35,95.19999999999999 125.3,95.89999999999999 123.55,95.89999999999999 122.85,95.19999999999999 123.19999999999999,94.85 125.64999999999999,94.5 125.3,93.8 122.85,93.1 113.05,93.1 115.85,93.44999999999999 117.94999999999999,92.75 122.14999999999999,93.8 122.49999999999999,93.1 124.24999999999999,93.44999999999999 125.3,94.14999999999999 122.85,94.85 122.85,95.55 123.55,95.89999999999999 123.19999999999999,96.25 126.35,95.19999999999999 127.39999999999999,96.25 125.64999999999999,97.64999999999999 124.24999999999999,97.64999999999999 121.44999999999999,95.55 113.05,94.85 112.35,93.44999999999999" stroke="#aaa" stroke-width="1" /><polyline fill="none" points="164.85,97.3 164.85,98.35 166.25,99.05 168.7,99.05 169.39999999999998,98.35 169.39999999999998,96.6 166.95,96.25" stroke="#aaa" stroke-width="1" /><polyline fill="none" points="105.69999999999999,109.55 98.69999999999999,113.05 96.6,115.49999999999999 95.89999999999999,115.14999999999999 95.55,113.74999999999999 96.94999999999999,113.74999999999999 98.0,112.35 97.3,112.0 98.0,112.35 96.94999999999999,113.74999999999999 95.55,113.39999999999999 95.19999999999999,112.69999999999999 96.6,112.0 95.55,112.0 96.25,110.94999999999999 97.3,110.94999999999999 96.94999999999999,109.89999999999999 97.3,110.6 96.25,110.6 93.8,113.05 93.8,115.14999999999999 94.5,116.19999999999999 94.14999999999999,116.89999999999999 95.19999999999999,115.49999999999999 95.55,115.85 95.55,115.14999999999999 96.94999999999999,115.49999999999999 99.05,113.05" stroke="#aaa" stroke-width="1" /><polyline fill="none" points="153.29999999999998,94.14999999999999 153.64999999999998,92.75 152.95,91.69999999999999 150.14999999999998,91.0 149.1,89.6 149.79999999999998,88.19999999999999 151.54999999999998,88.19999999999999 152.25,88.89999999999999 150.14999999999998,88.89999999999999 150.85,90.3 153.64999999999998,89.6 153.64999999999998,88.89999999999999 150.5,86.1 153.29999999999998,88.89999999999999 152.95,89.94999999999999 151.89999999999998,88.19999999999999 149.45,87.85 149.45,90.3 148.75,90.64999999999999 144.2,87.14999999999999 144.89999999999998,87.85 144.2,88.55 143.5,87.85 143.5,86.8 143.85,88.55 141.75,88.89999999999999 143.5,88.89999999999999 145.25,87.85 148.39999999999998,90.64999999999999 149.45,90.3 149.79999999999998,91.0 152.25,91.35 153.64999999999998,93.1" stroke="#aaa" stroke-width="1" /><polyline fill="none" points="200.2,116.19999999999999 198.45,123.55 196.35,128.1 192.14999999999998,133.0 191.45,133.35 190.75,132.65 192.85,131.25 194.6,129.15 195.64999999999998,125.99999999999999 194.95,128.45 192.14999999999998,131.6 190.75,132.29999999999998 190.75,133.0 191.45,133.35 190.75,133.7 190.75,134.75 192.85,134.39999999999998 193.89999999999998,133.0 193.89999999999998,131.25 196.35,128.45 197.04999999999998,129.15 194.6,132.29999999999998 197.39999999999998,129.5 196.35,128.45 196.35,127.74999999999999 198.1,124.6" stroke="#aaa" stroke-width="1" /><polyline fill="none" points="129.85,82.6 129.85,83.3 131.95,85.05 130.9,85.39999999999999 132.29999999999998,85.05 133.7,86.44999999999999 133.7,85.05 133.0,85.75 132.65,84.35 130.9,82.6" stroke="#aaa" stroke-width="1" /><polyline fill="none" points="102.19999999999999,95.55 102.89999999999999,96.25 102.55,96.6 103.25,95.89999999999999 107.44999999999999,95.89999999999999 106.39999999999999,95.19999999999999 106.39999999999999,94.5 103.25,94.5" stroke="#aaa" stroke-width="1" /><polyline fill="none" points="89.6,104.3 89.94999999999999,106.05 88.89999999999999,106.75 88.19999999999999,106.39999999999999 88.89999999999999,106.75 86.8,108.5 86.44999999999999,109.55 86.8,108.85 87.85,109.55 89.6,109.19999999999999 90.64999999999999,109.55 91.69999999999999,110.94999999999999 93.1,110.94999999999999 92.05,112.0 92.05,115.85 92.39999999999999,117.24999999999999 93.8,118.64999999999999 93.44999999999999,120.05 93.1,119.69999999999999 93.44999999999999,120.05 94.14999999999999,118.99999999999999 92.39999999999999,117.24999999999999 92.05,115.85 92.05,112.0 93.44999999999999,110.6 92.39999999999999,110.25 93.1,109.89999999999999 93.1,108.5 92.05,108.85 92.05,110.6 90.3,108.85 92.75,107.44999999999999 94.5,109.19999999999999 94.14999999999999,110.6 94.85,109.19999999999999 93.8,107.8 94.85,106.05 93.44999999999999,106.39999999999999 93.44999999999999,107.1 93.8,106.39999999999999 94.5,106.75 93.8,107.8 92.39999999999999,107.44999999999999 90.3,108.5 89.94999999999999,107.44999999999999 90.64999999999999,106.75 91.35,104.64999999999999 91.0,104.3 91.0,105.69999999999999 89.6,108.14999999999999 90.3,108.5 89.94999999999999,109.55 89.25,108.85 87.85,109.55 86.8,108.5 89.94999999999999,106.05" stroke="#aaa" stroke-width="1" /><polyline fill="none" points="159.25,84.0 160.29999999999998,85.05 161.0,84.69999999999999 161.7,85.39999999999999 161.35,86.1 157.85,86.1 159.6,86.44999999999999 161.0,87.85 159.95,88.55 161.0,87.85 161.35,88.19999999999999 159.6,86.44999999999999 159.95,85.75 162.04999999999998,87.85 161.0,86.44999999999999 161.35,86.1 162.75,86.8 162.75,85.75 161.7,85.39999999999999 160.64999999999998,84.0" stroke="#aaa" stroke-width="1" /><polyline fill="none" points="156.1,82.6 156.1,83.64999999999999 157.14999999999998,84.35 156.79999999999998,85.05 157.14999999999998,84.69999999999999 158.2,85.39999999999999 158.54999999999998,84.35" stroke="#aaa" stroke-width="1" /><polyline fill="none" points="132.29999999999998,79.1 132.65,80.5 135.45,79.8 135.79999999999998,80.14999999999999 135.1,80.85 136.85,81.19999999999999 134.39999999999998,78.39999999999999 133.7,78.39999999999999 133.35,79.44999999999999" stroke="#aaa" stroke-width="1" /><polyline fill="none" points="135.79999999999998,77.0 136.14999999999998,79.44999999999999 137.54999999999998,80.5 138.25,79.8 139.29999999999998,80.5 139.29999999999998,79.8 138.95,80.14999999999999 137.2,78.39999999999999 136.5,76.64999999999999 136.5,77.69999999999999" stroke="#aaa" stroke-width="1" /><polyline fill="none" points="96.94999999999999,74.55 94.14999999999999,78.05 93.44999999999999,77.69999999999999 93.8,77.35 92.39999999999999,75.6 93.44999999999999,77.0 93.44999999999999,80.14999999999999 92.39999999999999,81.89999999999999 91.35,92.05 90.64999999999999,92.75 90.64999999999999,96.25 89.6,98.35 89.6,101.14999999999999 88.55,102.89999999999999 88.55,105.0 87.85,105.69999999999999 86.44999999999999,105.35 85.05,106.75 86.44999999999999,105.35 87.14999999999999,105.69999999999999 87.14999999999999,106.75 86.44999999999999,107.44999999999999 85.75,107.1 85.05,108.14999999999999 84.0,107.1 83.3,107.8 81.89999999999999,106.39999999999999 84.0,109.89999999999999 86.1,110.94999999999999 86.44999999999999,111.64999999999999 86.1,110.94999999999999 87.14999999999999,109.89999999999999 85.75,110.94999999999999 84.0,109.55 83.3,107.8 84.0,107.1 85.39999999999999,108.85 85.05,109.55 85.39999999999999,108.85 85.75,109.89999999999999 85.75,108.85 85.05,108.14999999999999 85.75,107.44999999999999 86.44999999999999,107.8 87.14999999999999,107.1 87.14999999999999,106.05 88.55,105.35 88.55,102.89999999999999 89.6,101.14999999999999 89.6,98.35 90.64999999999999,96.25 90.64999999999999,93.1 91.35,92.05 92.39999999999999,82.25 93.44999999999999,80.14999999999999 93.1,78.75 96.25,76.3" stroke="#aaa" stroke-width="1" /><polyline fill="none" points="93.44999999999999,183.39999999999998 93.8,184.45 92.75,185.5 92.75,186.2 93.44999999999999,186.89999999999998 93.8,186.2 94.85,186.54999999999998 94.85,187.6 96.25,190.04999999999998 95.55,190.75 94.14999999999999,187.6 93.8,188.29999999999998 94.5,188.64999999999998 95.19999999999999,190.75 96.25,190.04999999999998 97.3,191.45 97.3,190.75 94.85,187.25 94.85,186.2 94.14999999999999,185.85" stroke="#aaa" stroke-width="1" /><polyline fill="none" points="122.49999999999999,73.5 124.6,75.94999999999999 123.89999999999999,76.3 125.64999999999999,75.94999999999999 127.74999999999999,77.69999999999999 123.19999999999999,73.14999999999999" stroke="#aaa" stroke-width="1" /><polyline fill="none" points="133.35,66.85 133.0,68.6 134.04999999999998,69.64999999999999 133.0,69.64999999999999 132.65,71.05 134.04999999999998,69.64999999999999 136.14999999999998,70.0 137.54999999999998,71.05 136.14999999999998,70.0 134.39999999999998,70.0 133.35,68.94999999999999 136.14999999999998,68.94999999999999 138.25,71.05 140.7,71.39999999999999 143.14999999999998,73.85 142.79999999999998,74.55 143.14999999999998,73.85 143.85,73.85 145.95,75.25 143.85,73.5 144.54999999999998,73.14999999999999 145.25,73.85 144.89999999999998,73.14999999999999 143.85,73.14999999999999 143.5,74.19999999999999 140.7,71.39999999999999 139.29999999999998,71.05 140.35,69.64999999999999 141.04999999999998,70.0 140.7,69.64999999999999 139.64999999999998,70.0 138.95,71.39999999999999 137.2,69.3 134.75,68.94999999999999 134.04999999999998,68.25 134.04999999999998,66.85" stroke="#aaa" stroke-width="1" /><polyline fill="none" points="145.6,68.94999999999999 145.6,69.64999999999999 146.64999999999998,70.69999999999999 145.95,71.39999999999999 148.04999999999998,71.39999999999999 146.29999999999998,68.94999999999999" stroke="#aaa" stroke-width="1" /><polyline fill="none" points="116.89999999999999,73.85 114.44999999999999,73.5 113.05,74.55 112.69999999999999,74.19999999999999 113.05,74.55 112.35,75.6 114.1,73.85 114.8,74.19999999999999 113.39999999999999,75.6 113.74999999999999,77.69999999999999 113.39999999999999,75.94999999999999 114.44999999999999,74.55 116.19999999999999,74.55" stroke="#aaa" stroke-width="1" /><polyline fill="none" points="179.2,62.3 179.2,63.349999999999994 181.64999999999998,66.5 181.64999999999998,67.19999999999999 180.95,67.55 181.64999999999998,69.64999999999999 183.75,71.39999999999999 183.04999999999998,72.44999999999999 182.0,71.05 183.39999999999998,73.14999999999999 183.39999999999998,75.94999999999999 182.7,77.0 179.54999999999998,74.89999999999999 181.29999999999998,74.89999999999999 179.2,74.89999999999999 180.25,76.3 181.29999999999998,75.94999999999999 184.79999999999998,79.44999999999999 184.45,81.89999999999999 186.54999999999998,85.39999999999999 186.54999999999998,87.5 185.85,88.19999999999999 185.5,87.5 185.85,88.19999999999999 184.79999999999998,88.89999999999999 184.45,89.94999999999999 183.75,89.25 182.7,89.25 184.45,89.94999999999999 184.79999999999998,88.89999999999999 186.54999999999998,87.85 186.54999999999998,85.39999999999999 184.45,81.89999999999999 185.5,81.55 184.79999999999998,80.85 184.79999999999998,79.1 183.75,78.05 184.1,77.69999999999999 183.75,78.05 182.7,77.0 183.75,74.89999999999999 185.14999999999998,75.94999999999999 185.5,77.35 185.14999999999998,75.6 183.39999999999998,74.55 183.04999999999998,72.44999999999999 183.75,71.39999999999999 181.64999999999998,69.3 181.64999999999998,66.5 179.2,62.99999999999999" stroke="#aaa" stroke-width="1" /><polyline fill="none" points="163.79999999999998,66.5 162.04999999999998,65.45 162.39999999999998,65.1 162.04999999999998,65.8 163.79999999999998,66.85 163.45,67.55 162.04999999999998,67.19999999999999 161.0,65.8 158.2,65.45 158.2,68.6 159.95,68.25 159.25,67.19999999999999 158.2,66.85 158.54999999999998,66.5 160.64999999999998,67.19999999999999 159.95,66.5 158.89999999999998,66.5 158.89999999999998,65.45 159.95,65.45 163.1,67.55 163.79999999999998,67.55" stroke="#aaa" stroke-width="1" /><polyline fill="none" points="96.25,201.6 97.3,202.29999999999998 96.25,203.35 95.89999999999999,204.75 96.25,203.7 97.64999999999999,204.75 98.35,204.39999999999998 97.64999999999999,204.75 96.25,203.7 97.3,202.29999999999998 98.0,202.29999999999998 99.05,204.39999999999998 102.55,207.54999999999998 104.3,210.7 105.69999999999999,211.04999999999998 103.25,208.95 102.55,207.2 99.05,204.04999999999998 98.35,202.29999999999998" stroke="#aaa" stroke-width="1" /><polyline fill="none" points="142.1,60.199999999999996 143.14999999999998,61.24999999999999 142.79999999999998,62.3 144.2,62.99999999999999 144.54999999999998,61.24999999999999 142.79999999999998,59.849999999999994" stroke="#aaa" stroke-width="1" /><polyline fill="none" points="136.5,55.3 137.89999999999998,57.05 137.54999999999998,57.74999999999999 136.14999999999998,56.0 136.85,57.4 137.89999999999998,58.099999999999994 137.54999999999998,61.24999999999999 138.25,61.949999999999996 140.35,61.599999999999994 140.35,60.9 138.6,60.55 138.6,59.15 139.29999999999998,58.099999999999994" stroke="#aaa" stroke-width="1" /><polyline fill="none" points="114.8,212.45 117.6,215.6 117.94999999999999,215.25 120.74999999999999,217.7 120.74999999999999,218.75 124.6,224.0 123.89999999999999,224.35 126.35,224.35 124.6,224.0 124.6,223.29999999999998 122.85,221.89999999999998 122.49999999999999,220.5 120.74999999999999,218.39999999999998 120.74999999999999,217.35 118.3,215.25 117.6,215.25" stroke="#aaa" stroke-width="1" /><polyline fill="none" points="131.25,52.5 130.2,52.5 128.45,54.25 130.2,52.5 130.9,52.849999999999994 127.74999999999999,56.0 127.74999999999999,57.74999999999999 128.1,56.699999999999996 129.15,57.4 128.1,58.449999999999996 128.1,59.15 126.69999999999999,60.55 124.94999999999999,59.15 127.05,61.24999999999999 127.05,63.349999999999994 125.99999999999999,64.75 124.6,65.45 126.69999999999999,64.39999999999999 127.39999999999999,61.24999999999999 126.69999999999999,60.55 127.74999999999999,59.49999999999999 128.45,60.199999999999996 129.5,59.15 129.85,57.74999999999999 127.74999999999999,56.0" stroke="#aaa" stroke-width="1" /><polyline fill="none" points="130.2,56.0 133.0,58.8 132.65,59.15 133.7,57.74999999999999 135.1,58.099999999999994 134.75,56.0 133.7,56.349999999999994 133.7,57.74999999999999 133.0,58.449999999999996 130.9,56.0" stroke="#aaa" stroke-width="1" /><polyline fill="none" points="114.1,57.74999999999999 114.1,58.8 115.14999999999999,59.849999999999994 115.14999999999999,61.949999999999996 114.1,62.65 114.1,63.349999999999994 115.49999999999999,63.699999999999996 115.49999999999999,62.99999999999999 116.55,61.949999999999996 115.85,60.55 116.89999999999999,58.449999999999996 117.24999999999999,59.849999999999994 117.24999999999999,58.449999999999996 116.89999999999999,58.099999999999994 116.19999999999999,59.49999999999999 115.14999999999999,57.74999999999999" stroke="#aaa" stroke-width="1" /><polyline fill="none" points="118.3,55.65 118.3,57.05 117.24999999999999,56.349999999999994 120.74999999999999,59.15 120.39999999999999,59.849999999999994 118.99999999999999,58.449999999999996 118.3,58.8 120.05,60.55 118.99999999999999,59.849999999999994 118.64999999999999,58.8 118.99999999999999,58.449999999999996 120.74999999999999,60.199999999999996 120.74999999999999,59.15 121.44999999999999,59.15 120.74999999999999,58.449999999999996 121.44999999999999,58.099999999999994 120.05,57.05 118.64999999999999,57.4" stroke="#aaa" stroke-width="1" /><polyline fill="none" points="125.3,54.599999999999994 123.19999999999999,57.05 122.14999999999999,57.05 123.55,57.05 124.94999999999999,54.949999999999996 125.64999999999999,55.65 125.64999999999999,57.05 124.6,57.05 125.99999999999999,58.8 127.05,56.699999999999996 126.35,55.65 126.69999999999999,55.3 125.64999999999999,55.65 124.94999999999999,54.949999999999996" stroke="#aaa" stroke-width="1" /><polyline fill="none" points="103.25,215.6 106.75,218.39999999999998 110.94999999999999,220.85 112.69999999999999,221.2 113.74999999999999,222.25 115.49999999999999,222.25 116.55,223.29999999999998 118.3,223.29999999999998 120.05,224.7 121.8,224.7 124.6,226.1 126.35,225.39999999999998 124.6,226.1 122.85,225.04999999999998 120.39999999999999,224.7 118.3,223.29999999999998 116.89999999999999,223.29999999999998 115.85,222.25 114.1,222.25 113.05,221.2 111.3,220.85 107.1,218.39999999999998 105.69999999999999,217.0 106.05,216.64999999999998 105.35,217.0 104.64999999999999,216.29999999999998 105.35,215.6 104.64999999999999,216.29999999999998" stroke="#aaa" stroke-width="1" /><polyline fill="none" points="219.45,95.89999999999999 219.79999999999998,100.1 219.1,103.25 219.79999999999998,103.94999999999999 219.79999999999998,105.35 218.75,106.39999999999999 218.04999999999998,106.05 218.39999999999998,105.0 217.7,105.69999999999999 218.39999999999998,106.39999999999999 218.04999999999998,107.8 219.1,108.5 219.1,110.94999999999999 220.5,113.74999999999999 220.14999999999998,114.8 220.5,114.1 221.2,115.14999999999999 220.85,118.64999999999999 221.54999999999998,119.35 222.25,118.99999999999999 221.89999999999998,116.19999999999999 222.25,118.64999999999999 221.54999999999998,119.35 220.85,118.64999999999999 221.2,114.8 219.79999999999998,113.05 219.79999999999998,111.3 219.1,110.6 219.1,108.5 220.5,106.39999999999999 221.2,107.8 220.5,105.35 221.54999999999998,103.25 221.54999999999998,102.19999999999999 220.5,100.8 220.85,97.3 219.79999999999998,96.94999999999999" stroke="#aaa" stroke-width="1" /><polyline fill="none" points="137.89999999999998,51.449999999999996 137.89999999999998,52.15 138.95,53.199999999999996 138.6,53.9 138.25,53.55 138.6,55.65 138.6,53.9 139.29999999999998,55.65 140.0,54.25 141.75,54.599999999999994 140.35,54.599999999999994 140.0,54.25 140.7,53.55 141.75,53.9 140.7,53.55 138.6,51.449999999999996" stroke="#aaa" stroke-width="1" /><polyline fill="none" points="208.25,59.15 208.25,61.24999999999999 209.29999999999998,62.99999999999999 210.7,68.94999999999999 212.1,70.0 210.7,70.69999999999999 210.35,70.35 211.39999999999998,72.8 211.04999999999998,73.14999999999999 212.1,77.69999999999999 213.5,78.75 213.14999999999998,82.6 213.85,88.19999999999999 213.14999999999998,89.94999999999999 213.85,88.19999999999999 214.89999999999998,88.89999999999999 214.89999999999998,90.64999999999999 215.95,93.1 215.6,96.25 216.64999999999998,98.69999999999999 216.29999999999998,101.85 217.35,103.94999999999999 216.29999999999998,105.35 215.95,107.44999999999999 217.35,112.69999999999999 217.7,118.3 218.39999999999998,118.99999999999999 218.39999999999998,123.89999999999999 219.45,128.1 219.45,133.35 220.14999999999998,134.75 220.85,141.75 220.5,143.14999999999998 221.2,144.54999999999998 221.89999999999998,150.85 221.89999999999998,155.75 221.2,156.79999999999998 221.54999999999998,157.5 221.2,156.79999999999998 221.89999999999998,155.75 221.89999999999998,150.85 221.2,144.54999999999998 220.5,143.14999999999998 220.85,141.75 220.14999999999998,134.75 219.45,133.35 219.45,128.1 218.39999999999998,123.89999999999999 218.39999999999998,118.99999999999999 217.7,118.3 217.35,114.8 217.7,114.44999999999999 215.95,107.44999999999999 216.29999999999998,105.35 217.35,104.3 217.35,103.6 216.29999999999998,101.85 216.64999999999998,98.69999999999999 215.6,95.89999999999999 215.6,93.8 216.29999999999998,92.75 217.35,93.1 217.0,92.39999999999999 215.95,93.1 215.25,92.05 215.6,91.35 214.89999999999998,90.64999999999999 214.89999999999998,88.89999999999999 213.85,87.85 213.14999999999998,82.6 213.5,77.35 214.89999999999998,75.94999999999999 215.6,76.64999999999999 215.95,78.39999999999999 216.64999999999998,78.05 215.95,78.05 214.89999999999998,75.94999999999999 214.2,71.75 214.54999999999998,70.0 213.85,69.3 213.14999999999998,69.64999999999999 213.14999999999998,72.44999999999999 213.14999999999998,69.64999999999999 214.2,69.64999999999999 214.89999999999998,75.94999999999999 213.5,77.0 213.14999999999998,78.05 212.1,77.35 210.7,70.69999999999999 212.45,70.69999999999999 212.45,72.1 212.1,69.64999999999999 210.7,68.6 209.29999999999998,62.99999999999999 208.25,61.24999999999999" stroke="#aaa" stroke-width="1" /><polyline fill="none" points="121.44999999999999,49.0 122.49999999999999,50.75 122.14999999999999,51.8 122.85,52.849999999999994 123.89999999999999,53.199999999999996 124.24999999999999,52.5" stroke="#aaa" stroke-width="1" /><polyline fill="none" points="146.29999999999998,44.8 145.95,45.5 147.7,47.949999999999996 147.0,48.65 149.79999999999998,51.099999999999994 150.14999999999998,52.15 149.79999999999998,52.5 147.7,50.05 147.0,50.4 148.39999999999998,52.5 147.35,51.099999999999994 147.7,50.4 149.79999999999998,52.5 148.04999999999998,53.55 145.6,50.05 146.29999999999998,48.65 145.6,49.699999999999996 145.95,50.75 145.25,51.449999999999996 145.95,50.75 147.35,52.5 145.95,52.5 147.35,52.849999999999994 148.39999999999998,54.25 149.1,54.25 150.14999999999998,53.199999999999996 149.1,54.25 148.04999999999998,53.9 150.5,51.8 150.85,52.15 147.7,49.0 148.39999999999998,48.65 151.2,51.099999999999994 149.45,49.699999999999996 150.14999999999998,49.0 149.1,49.349999999999994 147.0,47.25 146.29999999999998,45.15 146.64999999999998,44.8 147.7,45.849999999999994 147.7,46.55 147.7,45.5" stroke="#aaa" stroke-width="1" /><polyline fill="none" points="221.89999999999998,163.79999999999998 221.2,166.6 221.54999999999998,175.0 220.85,181.29999999999998 220.14999999999998,183.39999999999998 219.45,183.04999999999998 219.1,180.25 219.79999999999998,179.2 220.14999999999998,169.39999999999998 219.79999999999998,179.2 219.1,179.89999999999998 219.79999999999998,185.14999999999998 218.75,188.29999999999998 219.45,186.54999999999998 220.85,187.95 218.75,190.04999999999998 218.04999999999998,191.79999999999998 218.39999999999998,193.2 216.64999999999998,195.29999999999998 216.64999999999998,196.35 215.6,197.75 217.0,196.35 216.64999999999998,195.64999999999998 219.1,192.85 218.04999999999998,192.85 218.75,190.04999999999998 220.14999999999998,190.04999999999998 220.85,191.1 220.14999999999998,192.14999999999998 220.85,190.75 219.79999999999998,189.35 220.14999999999998,189.0 221.54999999999998,189.7 221.54999999999998,188.64999999999998 219.45,185.85 219.79999999999998,183.75 220.5,183.04999999999998 221.2,186.54999999999998 220.5,181.64999999999998 221.54999999999998,175.0 221.2,166.6 221.54999999999998,165.2 222.25,165.2" stroke="#aaa" stroke-width="1" /><polyline fill="none" points="157.5,47.949999999999996 158.89999999999998,48.65 158.2,49.0 160.29999999999998,51.099999999999994 161.0,51.099999999999994 161.0,50.4 162.04999999999998,50.05 160.29999999999998,49.699999999999996 158.2,47.949999999999996" stroke="#aaa" stroke-width="1" /><polyline fill="none" points="102.89999999999999,46.9 103.25,47.599999999999994 102.55,48.3 101.85,47.949999999999996 102.89999999999999,48.65 103.25,50.05 103.6,49.699999999999996 104.64999999999999,50.4 103.25,51.099999999999994 103.94999999999999,52.849999999999994 103.25,54.25 102.55,53.55 102.89999999999999,52.5 102.19999999999999,51.449999999999996 102.89999999999999,53.199999999999996 101.5,54.599999999999994 102.55,53.55 103.25,54.25 102.19999999999999,56.0 103.94999999999999,58.099999999999994 103.94999999999999,59.15 103.94999999999999,57.4 102.19999999999999,56.0 103.94999999999999,53.199999999999996 103.25,51.099999999999994 104.64999999999999,50.4 104.3,48.3" stroke="#aaa" stroke-width="1" /><polyline fill="none" points="115.14999999999999,46.55 117.24999999999999,46.55 117.24999999999999,45.849999999999994 116.19999999999999,45.15 117.6,44.8 117.94999999999999,44.099999999999994 120.05,43.05 118.64999999999999,44.099999999999994 117.6,44.099999999999994 116.55,42.699999999999996 114.8,42.0 116.19999999999999,43.05 116.55,44.8 116.19999999999999,45.15 115.49999999999999,44.449999999999996 115.49999999999999,43.75 115.49999999999999,44.449999999999996 116.89999999999999,45.849999999999994 116.55,46.55" stroke="#aaa" stroke-width="1" /><polyline fill="none" points="115.85,35.349999999999994 114.44999999999999,36.75 114.44999999999999,35.0 114.1,36.4 113.05,36.4 113.39999999999999,36.75 111.3,39.55 109.19999999999999,40.599999999999994 107.8,42.349999999999994 107.1,41.65 107.1,42.349999999999994 106.05,41.65 109.19999999999999,38.849999999999994 109.89999999999999,39.55 109.19999999999999,38.849999999999994 108.14999999999999,39.199999999999996 102.19999999999999,44.8 102.19999999999999,45.849999999999994 100.1,50.05 100.1,51.449999999999996 98.69999999999999,53.55 98.0,55.65 98.35,57.74999999999999 97.3,59.15 97.3,60.55 96.6,61.24999999999999 95.89999999999999,63.699999999999996 97.64999999999999,65.1 97.3,65.8 97.64999999999999,65.45 98.35,66.5 98.0,68.25 98.35,66.14999999999999 96.94999999999999,64.39999999999999 98.0,64.05 98.69999999999999,64.75 98.0,64.05 96.94999999999999,64.39999999999999 96.25,63.699999999999996 96.25,62.3 97.3,60.55 97.3,59.15 98.35,58.099999999999994 98.0,55.65 98.69999999999999,53.55 100.1,51.8 100.1,50.05 102.19999999999999,46.199999999999996 102.19999999999999,45.15 106.05,41.65 106.39999999999999,42.349999999999994 107.44999999999999,42.0 108.85,43.4 108.14999999999999,43.75 108.5,44.449999999999996 108.14999999999999,44.099999999999994 108.85,43.4 108.14999999999999,42.0 108.5,41.65 108.85,42.349999999999994 109.55,41.65 108.85,42.0 108.5,41.3 110.6,40.25 112.0,38.5 112.0,39.9 113.39999999999999,40.949999999999996 113.39999999999999,39.55 112.0,38.5 113.39999999999999,36.75 116.55,37.449999999999996 114.44999999999999,36.75 115.14999999999999,36.05 115.85,36.75 115.14999999999999,36.05" stroke="#aaa" stroke-width="1" /><polyline fill="none" points="131.25,28.7 134.04999999999998,29.049999999999997 136.14999999999998,30.099999999999998 143.5,35.699999999999996 144.54999999999998,35.349999999999994 148.75,37.449999999999996 151.2,37.8 153.29999999999998,39.55 154.0,39.55 153.29999999999998,39.55 151.89999999999998,38.15 152.25,37.8 153.29999999999998,37.8 155.04999999999998,39.199999999999996 159.25,39.199999999999996 160.29999999999998,40.25 159.95,40.949999999999996 160.64999999999998,40.599999999999994 165.54999999999998,42.349999999999994 164.85,41.65 161.0,40.949999999999996 159.25,39.199999999999996 155.04999999999998,39.199999999999996 153.64999999999998,37.8 151.89999999999998,38.15 146.29999999999998,36.4 145.25,35.699999999999996 145.25,33.949999999999996 144.54999999999998,33.949999999999996 145.6,35.0 143.5,35.699999999999996 135.79999999999998,29.749999999999996" stroke="#aaa" stroke-width="1" /><polyline fill="none" points="126.35,33.949999999999996 127.05,33.949999999999996 125.3,34.3 124.24999999999999,35.699999999999996 124.6,35.349999999999994 126.35,37.449999999999996 124.24999999999999,37.449999999999996 125.3,37.449999999999996 126.69999999999999,38.5 127.74999999999999,38.15 127.05,37.449999999999996 127.39999999999999,37.8 126.69999999999999,38.5 125.99999999999999,37.8 127.05,36.05 127.05,34.65 125.3,36.05 124.6,35.349999999999994" stroke="#aaa" stroke-width="1" /><polyline fill="none" points="96.94999999999999,198.45 94.85,197.75 92.39999999999999,197.75 88.19999999999999,196.0 84.35,195.64999999999998 81.19999999999999,196.0 79.44999999999999,197.04999999999998 77.69999999999999,195.29999999999998 77.69999999999999,194.6 75.25,194.25 73.14999999999999,192.14999999999998 72.8,190.75 71.39999999999999,190.04999999999998 72.8,191.1 73.5,192.85 73.5,194.25 72.8,194.95 73.5,194.25 74.89999999999999,196.35 74.89999999999999,195.64999999999998 73.14999999999999,193.89999999999998 73.14999999999999,193.2 73.85,192.85 75.25,194.6 76.64999999999999,194.25 77.69999999999999,194.95 77.35,196.0 75.6,196.35 77.69999999999999,195.64999999999998 79.44999999999999,197.04999999999998 81.19999999999999,196.0 83.64999999999999,195.64999999999998 87.85,196.0 90.3,196.7 91.0,197.39999999999998 94.85,197.75 97.3,199.14999999999998 96.25,200.2 93.8,200.89999999999998 92.05,202.64999999999998 92.05,203.7 90.3,206.5 89.6,210.0 88.19999999999999,211.04999999999998 87.5,213.85 85.75,215.6 78.75,218.04999999999998 68.94999999999999,227.85 62.3,231.35 57.4,236.24999999999997 57.4,236.95 56.349999999999994,237.64999999999998 55.65,239.74999999999997 52.849999999999994,241.85 50.05,242.2 46.9,243.24999999999997 45.5,244.29999999999998 44.449999999999996,244.29999999999998 38.849999999999994,248.14999999999998 36.75,250.6 35.349999999999994,251.29999999999998 35.349999999999994,251.99999999999997 34.65,251.64999999999998 30.799999999999997,254.79999999999998 26.25,256.9 20.65,262.5 18.549999999999997,265.65 3.8499999999999996,279.65 4.55,279.65 13.299999999999999,271.25 26.599999999999998,256.9 31.499999999999996,254.45 34.65,251.99999999999997 35.699999999999996,251.99999999999997 39.199999999999996,248.14999999999998 44.8,244.29999999999998 54.949999999999996,240.79999999999998 56.349999999999994,237.99999999999997 57.4,237.29999999999998 57.4,236.6 62.65,231.35 65.8,229.24999999999997 69.3,227.85 76.3,221.2 78.05,218.75 79.44999999999999,217.7 86.44999999999999,215.25 87.5,213.85 88.19999999999999,211.39999999999998 89.6,210.35 89.6,208.95 92.05,204.04999999999998 92.05,203.0 94.14999999999999,200.89999999999998 96.94999999999999,199.85" stroke="#aaa" stroke-width="1" /><polyline fill="none" points="134.39999999999998,32.9 133.35,34.3 134.39999999999998,32.9 133.35,32.55 132.29999999999998,33.25 131.95,32.55 131.25,33.949999999999996 131.6,35.0 130.9,35.349999999999994 130.2,34.65 130.2,33.599999999999994 130.9,32.9 130.54999999999998,31.499999999999996 132.29999999999998,29.749999999999996 131.6,30.45 130.54999999999998,30.099999999999998 129.15,30.799999999999997 131.25,30.099999999999998 131.6,30.45 130.54999999999998,31.499999999999996 127.74999999999999,32.9 125.64999999999999,32.9 122.49999999999999,35.699999999999996 122.14999999999999,35.349999999999994 122.85,35.699999999999996 125.64999999999999,32.9 127.74999999999999,32.9 130.54999999999998,31.499999999999996 130.9,32.55 129.85,33.949999999999996 130.54999999999998,35.349999999999994 131.6,35.0 131.25,34.3 131.95,33.25 133.0,33.25 133.7,32.55" stroke="#aaa" stroke-width="1" /><polyline fill="none" points="123.55,31.499999999999996 121.8,31.499999999999996 120.74999999999999,33.599999999999994 119.35,32.199999999999996 118.64999999999999,32.9 117.24999999999999,32.199999999999996 115.49999999999999,32.9 113.05,35.349999999999994 110.94999999999999,35.0 109.19999999999999,36.05 108.5,35.699999999999996 109.19999999999999,36.05 108.5,37.449999999999996 106.75,38.5 106.75,39.199999999999996 108.14999999999999,37.8 109.55,38.15 111.64999999999999,36.05 109.19999999999999,38.15 108.5,37.099999999999994 110.94999999999999,35.0 113.39999999999999,35.349999999999994 115.14999999999999,33.25 117.24999999999999,32.199999999999996 117.94999999999999,32.9 119.35,32.55 120.39999999999999,33.599999999999994 119.69999999999999,34.3 121.44999999999999,33.25 122.14999999999999,31.499999999999996" stroke="#aaa" stroke-width="1" /><polyline fill="none" points="200.89999999999998,37.099999999999994 203.35,41.65 203.35,43.05 204.04999999999998,43.4 203.35,43.75 204.39999999999998,46.199999999999996 204.04999999999998,47.599999999999994 204.75,50.05 206.14999999999998,51.8 204.04999999999998,47.599999999999994 204.39999999999998,46.199999999999996 205.1,46.9 205.1,47.599999999999994 204.75,46.199999999999996 204.04999999999998,45.849999999999994 203.7,43.75 204.04999999999998,43.4 204.75,44.099999999999994 205.1,45.5 206.14999999999998,46.55 206.14999999999998,47.599999999999994 207.54999999999998,49.349999999999994 207.89999999999998,52.15 209.64999999999998,54.599999999999994 209.29999999999998,55.65 211.04999999999998,59.49999999999999 211.04999999999998,60.199999999999996 210.35,60.55 209.29999999999998,58.449999999999996 210.0,60.9 211.04999999999998,60.199999999999996 212.1,61.24999999999999 212.45,62.99999999999999 214.2,65.1 213.5,67.19999999999999 212.79999999999998,65.45 213.5,67.19999999999999 214.2,66.14999999999999 214.2,64.75 212.45,62.99999999999999 212.1,60.9 211.04999999999998,60.199999999999996 210.7,58.099999999999994 209.29999999999998,55.3 209.64999999999998,53.9 208.6,53.199999999999996 207.54999999999998,50.75 207.54999999999998,49.349999999999994 206.14999999999998,47.599999999999994 206.14999999999998,46.55" stroke="#aaa" stroke-width="1" /><polyline fill="none" points="100.44999999999999,25.549999999999997 95.55,30.099999999999998 94.14999999999999,29.749999999999996 94.5,31.499999999999996 93.44999999999999,32.199999999999996 94.14999999999999,32.199999999999996 95.19999999999999,30.45" stroke="#aaa" stroke-width="1" /><polyline fill="none" points="81.89999999999999,30.099999999999998 80.85,30.799999999999997 80.85,31.849999999999998 78.05,34.65 78.05,36.05 77.35,36.75 77.69999999999999,37.449999999999996 76.3,39.55 75.25,43.4 73.14999999999999,46.199999999999996 73.5,47.25 73.5,46.199999999999996 75.25,43.75 75.25,42.349999999999994 75.6,42.0 75.94999999999999,42.699999999999996 75.6,41.3 76.3,40.599999999999994 76.3,39.55 77.69999999999999,36.75 79.44999999999999,35.349999999999994 78.39999999999999,35.699999999999996 78.05,35.0 79.1,34.3 79.44999999999999,34.65 79.44999999999999,33.599999999999994" stroke="#aaa" stroke-width="1" /><polyline fill="none" points="105.35,17.849999999999998 104.3,19.599999999999998 102.19999999999999,20.65 98.69999999999999,23.799999999999997 96.94999999999999,23.099999999999998 96.94999999999999,24.15 98.0,24.5 101.14999999999999,21.7 103.6,20.299999999999997 105.35,18.549999999999997" stroke="#aaa" stroke-width="1" /><polyline fill="none" points="133.7,3.5 134.75,2.8 137.89999999999998,2.4499999999999997 138.6,1.75 140.7,2.0999999999999996 141.75,1.4 144.2,1.0499999999999998 150.5,1.4 156.79999999999998,3.5 160.64999999999998,3.8499999999999996 172.89999999999998,8.049999999999999 178.14999999999998,11.899999999999999 179.2,11.899999999999999 183.75,15.049999999999999 190.04999999999998,20.299999999999997 192.14999999999998,23.099999999999998 195.64999999999998,26.25 196.7,29.4 198.45,31.15 198.1,31.849999999999998 200.54999999999998,34.65 200.54999999999998,35.699999999999996 204.04999999999998,38.5 204.04999999999998,39.9 207.2,46.55 208.25,46.9 208.95,48.3 210.7,49.699999999999996 208.6,47.599999999999994 208.6,46.9 207.89999999999998,46.9 206.85,45.849999999999994 206.85,44.8 204.75,41.3 204.04999999999998,38.5 200.54999999999998,35.349999999999994 200.54999999999998,34.3 198.1,31.849999999999998 198.45,31.15 196.7,29.049999999999997 195.64999999999998,25.9 192.14999999999998,22.75 190.39999999999998,20.299999999999997 184.1,15.049999999999999 179.54999999999998,11.899999999999999 178.5,11.899999999999999 173.25,8.049999999999999 169.39999999999998,7.0 167.29999999999998,5.6 164.85,5.6 161.0,3.8499999999999996 156.79999999999998,3.5 148.39999999999998,1.0499999999999998 141.75,1.4 140.7,2.0999999999999996 140.0,2.0999999999999996 139.64999999999998,1.4 140.35,1.0499999999999998 139.64999999999998,1.0499999999999998 137.54999999999998,2.4499999999999997 134.39999999999998,2.8" stroke="#aaa" stroke-width="1" /><polyline fill="none" points="180.6,207.89999999999998 184.1,210.7 189.0,213.14999999999998 192.14999999999998,215.95 196.7,218.75 200.89999999999998,220.5 205.45,223.64999999999998 208.95,227.85 210.0,232.74999999999997 211.39999999999998,234.49999999999997 216.64999999999998,236.6 221.89999999999998,240.1 225.04999999999998,241.49999999999997 229.6,244.99999999999997 235.54999999999998,250.95 237.64999999999998,251.64999999999998 238.7,252.7 237.99999999999997,253.74999999999997 234.49999999999997,253.39999999999998 231.7,255.14999999999998 229.95,257.59999999999997 229.24999999999997,261.09999999999997 228.54999999999998,262.15 227.85,267.05 228.2,279.65 227.85,267.05 228.54999999999998,262.15 230.64999999999998,256.55 234.85,253.39999999999998 238.7,253.74999999999997 239.04999999999998,253.04999999999998 243.95,251.99999999999997 239.04999999999998,253.04999999999998 237.99999999999997,251.64999999999998 235.89999999999998,250.95 226.45,242.2 218.04999999999998,237.29999999999998 211.75,234.49999999999997 210.0,232.74999999999997 208.95,227.49999999999997 206.14999999999998,224.0 201.25,220.5 200.2,220.5 192.5,215.95 189.35,213.14999999999998 184.45,210.7" stroke="#aaa" stroke-width="1" /><polyline fill="none" points="112.35,10.5 110.94999999999999,10.85 109.19999999999999,12.95 107.44999999999999,13.299999999999999 101.5,18.9 101.85,19.95 101.14999999999999,20.299999999999997 102.89999999999999,19.25 101.85,19.95 101.5,19.25 105.69999999999999,15.049999999999999" stroke="#aaa" stroke-width="1" /><polyline fill="none" points="126.69999999999999,5.6 123.89999999999999,4.199999999999999 122.85,2.8 110.94999999999999,2.8 110.25,3.8499999999999996 106.39999999999999,4.55 104.64999999999999,6.3 103.94999999999999,6.3 102.19999999999999,8.399999999999999 100.44999999999999,8.75 97.64999999999999,11.2 95.89999999999999,10.149999999999999 95.89999999999999,9.45 95.19999999999999,10.149999999999999 95.55,9.799999999999999 97.3,11.2 93.1,15.399999999999999 92.75,16.45 89.6,19.599999999999998 88.55,19.95 88.89999999999999,21.0 84.0,25.9 81.89999999999999,28.7 81.89999999999999,29.4 84.0,26.25 88.55,21.7 88.55,20.299999999999997 89.6,19.599999999999998 89.94999999999999,20.65 89.94999999999999,19.599999999999998 97.64999999999999,11.2 100.8,8.75 102.55,8.399999999999999 104.3,6.3 106.75,4.55 110.6,3.8499999999999996 111.3,2.8 112.0,3.15 120.05,2.4499999999999997 122.85,3.15 125.64999999999999,5.6" stroke="#aaa" stroke-width="1" /><polyline fill="none" points="246.39999999999998,253.74999999999997 241.49999999999997,253.74999999999997 236.95,257.59999999999997 235.89999999999998,256.9 235.54999999999998,257.59999999999997 235.89999999999998,256.9 236.95,257.59999999999997 234.85,259.7 234.49999999999997,261.09999999999997 233.1,259.7 234.14999999999998,259.34999999999997 234.49999999999997,257.25 236.6,255.49999999999997 236.6,254.79999999999998 234.49999999999997,256.9 234.14999999999998,259.0 233.1,259.7 234.14999999999998,261.09999999999997 234.14999999999998,262.5 235.2,262.84999999999997 235.89999999999998,261.09999999999997 237.29999999999998,259.7 237.29999999999998,261.45 237.99999999999997,261.45 238.35,260.75 237.29999999999998,259.34999999999997 241.49999999999997,255.49999999999997 242.2,255.85 241.14999999999998,256.9 241.14999999999998,257.59999999999997 243.95,258.3 242.54999999999998,258.3 241.14999999999998,257.25 241.85,256.55 243.24999999999997,257.25 241.85,256.2 241.85,255.49999999999997 242.54999999999998,254.79999999999998 242.89999999999998,255.49999999999997 243.6,255.14999999999998 242.2,254.79999999999998 237.29999999999998,259.0 234.85,262.84999999999997 234.14999999999998,262.15 234.85,260.05 238.35,256.2 241.14999999999998,254.1 243.95,253.39999999999998 245.35,254.1 245.7,255.14999999999998 245.7,254.1" stroke="#aaa" stroke-width="1" /><polyline fill="none" points="233.79999999999998,263.2 233.1,266.34999999999997 233.79999999999998,269.5 233.1,270.54999999999995 234.85,273.0 234.85,263.9" stroke="#aaa" stroke-width="1" /><polyline fill="none" points="248.14999999999998,254.79999999999998 248.14999999999998,255.49999999999997 250.24999999999997,255.49999999999997 251.64999999999998,254.79999999999998 256.55,261.8 257.95,261.8 259.34999999999997,263.2 263.2,264.59999999999997 264.59999999999997,266.7 268.45,269.15 277.2,277.9 279.65,279.65 268.79999999999995,269.15 264.95,266.7 263.55,265.3 263.55,264.59999999999997 259.7,263.2 258.3,261.8 256.9,261.8 255.49999999999997,260.4 254.1,257.59999999999997 251.99999999999997,255.49999999999997 251.99999999999997,254.79999999999998 250.95,254.79999999999998 250.24999999999997,255.49999999999997 248.49999999999997,255.49999999999997" stroke="#aaa" stroke-width="1" /></svg>