<?xml version='1.0' encoding='UTF-8'?>
<svg xmlns="http://www.w3.org/2000/svg" xmlns:ev="http://www.w3.org/2001/xml-events" xmlns:xlink="http://www.w3.org/1999/xlink" baseProfile="full" height="800" version="1.1" width="800">
  <polyline fill="none" points="429.0,308.0 424.0,315.0 423.0,328.0 432.0,327.0 439.0,321.0 436.0,308.0" stroke="#1a6ea8" stroke-width="1"/>
  <polyline fill="none" points="466.0,411.0 475.0,417.0 480.0,416.0 492.0,427.0 492.0,433.0 494.0,432.0 504.0,443.0 504.0,449.0 509.0,452.0 508.0,456.0 493.0,456.0 484.0,451.0 475.0,456.0 473.0,454.0 478.0,450.0 479.0,444.0 470.0,440.0 471.0,431.0 464.0,413.0" stroke="#a180db" stroke-width="1"/>
  <polyline fill="none" points="510.0,358.0 514.0,362.0 510.0,366.0 505.0,361.0 508.0,360.0" stroke="#73dace" stroke-width="1"/>
  <polyline fill="none" points="499.0,497.0 508.0,509.0 507.0,513.0 502.0,515.0 457.0,515.0 432.0,520.0 428.0,519.0 432.0,517.0 430.0,516.0 426.0,520.0 416.0,522.0 365.0,520.0 356.0,524.0 385.0,519.0 402.0,520.0 406.0,523.0 420.0,522.0 457.0,515.0 500.0,514.0 505.0,519.0 510.0,518.0 511.0,514.0 500.0,498.0" stroke="#b15ffa" stroke-width="1"/>
  <polyline fill="none" points="509.0,307.0 506.0,322.0 518.0,314.0 515.0,307.0" stroke="#29fa54" stroke-width="1"/>
  <polyline fill="none" points="264.0,436.0 267.0,443.0 265.0,445.0 262.0,443.0 264.0,437.0" stroke="#34276f" stroke-width="1"/>
  <polyline fill="none" points="460.0,520.0 442.0,525.0 413.0,527.0 379.0,524.0 358.0,530.0 343.0,543.0 344.0,556.0 355.0,561.0 363.0,571.0 371.0,572.0 376.0,572.0 379.0,567.0 385.0,569.0 393.0,553.0 404.0,552.0 406.0,549.0 421.0,545.0 440.0,550.0 441.0,553.0 449.0,551.0 454.0,561.0 464.0,567.0 468.0,567.0 472.0,562.0 484.0,566.0 489.0,562.0 495.0,562.0 498.0,557.0 502.0,562.0 512.0,562.0 512.0,557.0 517.0,551.0 514.0,534.0 504.0,530.0 499.0,521.0 482.0,524.0 478.0,520.0" stroke="#1939af" stroke-width="1"/>
  <polyline fill="none" points="223.0,387.0 243.0,459.0 248.0,457.0 248.0,453.0 244.0,452.0 246.0,447.0 244.0,430.0 239.0,413.0 233.0,405.0 232.0,392.0 228.0,387.0" stroke="#e761b2" stroke-width="1"/>
  <polyline fill="none" points="241.0,316.0 232.0,324.0 230.0,333.0 250.0,327.0 246.0,316.0" stroke="#91b071" stroke-width="1"/>
  <polyline fill="none" points="401.0,584.0 387.0,599.0 387.0,603.0 391.0,605.0 395.0,605.0 400.0,599.0 407.0,600.0 408.0,588.0 405.0,584.0" stroke="#1ee74d" stroke-width="1"/>
  <polyline fill="none" points="420.0,591.0 419.0,599.0 433.0,596.0 432.0,592.0 425.0,591.0" stroke="#c81f04" stroke-width="1"/>
  <polyline fill="none" points="491.0,94.0 485.0,98.0 494.0,101.0 494.0,110.0 488.0,114.0 480.0,112.0 472.0,119.0 468.0,123.0 471.0,124.0 466.0,125.0 470.0,133.0 465.0,137.0 468.0,143.0 453.0,147.0 452.0,152.0 435.0,145.0 431.0,155.0 419.0,146.0 409.0,146.0 406.0,154.0 399.0,143.0 387.0,140.0 365.0,144.0 363.0,136.0 359.0,135.0 354.0,144.0 345.0,143.0 339.0,151.0 336.0,147.0 330.0,147.0 317.0,160.0 314.0,157.0 305.0,158.0 303.0,153.0 290.0,154.0 280.0,167.0 276.0,161.0 280.0,149.0 275.0,149.0 274.0,144.0 236.0,133.0 239.0,143.0 235.0,151.0 238.0,155.0 245.0,151.0 246.0,159.0 222.0,209.0 226.0,255.0 230.0,261.0 233.0,281.0 234.0,312.0 238.0,312.0 247.0,300.0 257.0,295.0 263.0,288.0 277.0,283.0 297.0,283.0 299.0,287.0 306.0,288.0 342.0,287.0 350.0,290.0 356.0,290.0 366.0,283.0 371.0,288.0 370.0,292.0 377.0,309.0 401.0,307.0 406.0,287.0 412.0,278.0 424.0,276.0 430.0,270.0 441.0,270.0 449.0,265.0 456.0,270.0 465.0,263.0 494.0,263.0 509.0,257.0 522.0,261.0 536.0,271.0 543.0,269.0 558.0,275.0 569.0,292.0 583.0,289.0 585.0,274.0 578.0,263.0 580.0,255.0 569.0,233.0 566.0,182.0 550.0,134.0 543.0,131.0 540.0,119.0 534.0,113.0 528.0,114.0 517.0,102.0 509.0,102.0 506.0,106.0 509.0,112.0 506.0,113.0 499.0,100.0 492.0,95.0" stroke="#ae05d7" stroke-width="1"/>
  <polyline fill="none" points="460.0,587.0 461.0,594.0 465.0,594.0 464.0,587.0" stroke="#d0aed8" stroke-width="1"/>
  <polyline fill="none" points="426.0,607.0 423.0,622.0 427.0,619.0 427.0,608.0" stroke="#1dfe5d" stroke-width="1"/>
  <polyline fill="none" points="458.0,602.0 458.0,609.0 448.0,611.0 450.0,619.0 457.0,619.0 458.0,613.0 470.0,615.0 469.0,610.0 464.0,610.0 460.0,606.0 461.0,602.0" stroke="#e7921f" stroke-width="1"/>
  <polyline fill="none" points="615.0,470.0 616.0,481.0 622.0,479.0 620.0,472.0 616.0,470.0" stroke="#6ab791" stroke-width="1"/>
  <polyline fill="none" points="577.0,541.0 578.0,552.0 584.0,552.0 579.0,543.0" stroke="#1843d5" stroke-width="1"/>
  <polyline fill="none" points="569.0,565.0 570.0,571.0 576.0,569.0 575.0,565.0" stroke="#2f47a1" stroke-width="1"/>
  <polyline fill="none" points="558.0,188.0 559.0,196.0 555.0,197.0 553.0,192.0 552.0,195.0 557.0,198.0 560.0,208.0 557.0,222.0 564.0,230.0 565.0,247.0 567.0,241.0 563.0,237.0 564.0,230.0 576.0,239.0 579.0,249.0 572.0,243.0 583.0,258.0 576.0,239.0 557.0,221.0 560.0,214.0 556.0,201.0 560.0,193.0 558.0,189.0" stroke="#cf7a45" stroke-width="1"/>
  <polyline fill="none" points="620.0,502.0 622.0,502.0 620.0,510.0 614.0,506.0 617.0,502.0" stroke="#ee7799" stroke-width="1"/>
  <polyline fill="none" points="615.0,246.0 619.0,266.0 602.0,278.0 612.0,273.0 621.0,290.0 616.0,270.0 619.0,267.0 619.0,252.0 616.0,247.0" stroke="#8d8075" stroke-width="1"/>
  <polyline fill="none" points="592.0,189.0 589.0,191.0 600.0,211.0 603.0,242.0 607.0,244.0 602.0,238.0 600.0,211.0 597.0,205.0 599.0,199.0 594.0,191.0" stroke="#a8b17c" stroke-width="1"/>
  <polyline fill="none" points="656.0,282.0 663.0,293.0 668.0,313.0 664.0,349.0 662.0,350.0 660.0,346.0 660.0,319.0 654.0,284.0" stroke="#233f20" stroke-width="1"/>
  <polyline fill="none" points="563.0,628.0 568.0,627.0 567.0,632.0 560.0,628.0" stroke="#52baeb" stroke-width="1"/>
  <polyline fill="none" points="529.0,657.0 534.0,656.0 538.0,660.0 533.0,662.0 524.0,674.0 520.0,672.0 521.0,668.0 516.0,666.0 518.0,660.0 521.0,659.0 523.0,665.0 529.0,659.0" stroke="#233075" stroke-width="1"/>
  <polyline fill="none" points="560.0,648.0 564.0,649.0 558.0,652.0 555.0,651.0 559.0,648.0" stroke="#6d5dc1" stroke-width="1"/>
  <polyline fill="none" points="453.0,690.0 458.0,692.0 453.0,695.0 451.0,692.0" stroke="#715adc" stroke-width="1"/>
  <polyline fill="none" points="393.0,698.0 401.0,698.0 403.0,704.0 397.0,707.0 391.0,700.0" stroke="#ec4155" stroke-width="1"/>
  <polyline fill="none" points="536.0,667.0 541.0,670.0 537.0,673.0 534.0,669.0" stroke="#dfce47" stroke-width="1"/>
  <polyline fill="none" points="249.0,669.0 254.0,671.0 250.0,675.0 248.0,691.0 246.0,692.0 245.0,687.0 241.0,685.0 244.0,682.0 244.0,674.0 249.0,671.0" stroke="#bc90f4" stroke-width="1"/>
  <polyline fill="none" points="417.0,703.0 422.0,705.0 429.0,703.0 432.0,708.0 437.0,708.0 439.0,711.0 432.0,719.0 438.0,719.0 440.0,726.0 452.0,731.0 439.0,733.0 433.0,731.0 431.0,736.0 426.0,733.0 427.0,727.0 420.0,727.0 424.0,724.0 422.0,721.0 408.0,718.0 401.0,711.0 406.0,708.0 413.0,709.0 416.0,703.0" stroke="#b4facf" stroke-width="1"/>
  <polyline fill="none" points="291.0,701.0 296.0,703.0 295.0,707.0 291.0,703.0" stroke="#94670b" stroke-width="1"/>
  <polyline fill="none" points="540.0,690.0 532.0,695.0 534.0,700.0 545.0,695.0 544.0,690.0" stroke="#0c3b3e" stroke-width="1"/>
  <polyline fill="none" points="540.0,84.0 541.0,94.0 552.0,109.0 553.0,118.0 560.0,127.0 546.0,102.0 545.0,95.0 548.0,93.0 544.0,98.0 541.0,93.0 539.0,86.0 542.0,84.0" stroke="#d9efda" stroke-width="1"/>
  <polyline fill="none" points="222.0,686.0 228.0,686.0 226.0,689.0 222.0,688.0" stroke="#817cc0" stroke-width="1"/>
  <polyline fill="none" points="380.0,737.0 385.0,742.0 381.0,743.0 378.0,739.0" stroke="#77b1d1" stroke-width="1"/>
  <polyline fill="none" points="381.0,737.0 379.0,742.0 385.0,743.0 382.0,738.0" stroke="#684db4" stroke-width="1"/>
  <polyline fill="none" points="620.0,663.0 620.0,669.0 624.0,669.0 624.0,663.0" stroke="#e6c4b0" stroke-width="1"/>
  <polyline fill="none" points="193.0,674.0 208.0,675.0 195.0,681.0 194.0,688.0 206.0,689.0 209.0,685.0 215.0,686.0 218.0,699.0 239.0,703.0 242.0,702.0 241.0,694.0 244.0,694.0 245.0,698.0 252.0,695.0 254.0,698.0 250.0,704.0 234.0,710.0 223.0,706.0 215.0,707.0 216.0,698.0 209.0,698.0 204.0,694.0 187.0,697.0 179.0,695.0 178.0,688.0 182.0,681.0 190.0,678.0 192.0,674.0" stroke="#1f82dc" stroke-width="1"/>
  <polyline fill="none" points="440.0,736.0 448.0,737.0 445.0,744.0 454.0,743.0 456.0,750.0 445.0,752.0 443.0,749.0 435.0,749.0 432.0,754.0 417.0,758.0 405.0,755.0 403.0,751.0 406.0,746.0 408.0,751.0 423.0,753.0 432.0,745.0 442.0,743.0 440.0,739.0" stroke="#d5cf74" stroke-width="1"/>
  <polyline fill="none" points="314.0,742.0 321.0,743.0 320.0,750.0 312.0,745.0 313.0,742.0" stroke="#db9190" stroke-width="1"/>
  <polyline fill="none" points="311.0,741.0 308.0,743.0 316.0,749.0 312.0,754.0 321.0,747.0 318.0,743.0 312.0,742.0" stroke="#0b7da8" stroke-width="1"/>
  <polyline fill="none" points="321.0,751.0 330.0,751.0 323.0,756.0 321.0,754.0" stroke="#fbb029" stroke-width="1"/>
  <polyline fill="none" points="543.0,730.0 533.0,735.0 534.0,745.0 534.0,741.0 542.0,735.0 539.0,734.0 541.0,732.0 546.0,733.0 544.0,732.0 548.0,730.0 550.0,734.0 550.0,731.0 544.0,731.0" stroke="#30c8b7" stroke-width="1"/>
  <polyline fill="none" points="444.0,759.0 451.0,759.0 449.0,763.0 444.0,762.0" stroke="#47be8f" stroke-width="1"/>
  <polyline fill="none" points="509.0,749.0 502.0,754.0 489.0,750.0 491.0,753.0 502.0,754.0 513.0,752.0 511.0,749.0" stroke="#fab773" stroke-width="1"/>
  <polyline fill="none" points="346.0,761.0 353.0,763.0 355.0,767.0 350.0,768.0 349.0,773.0 343.0,772.0 341.0,770.0 347.0,767.0 347.0,762.0" stroke="#f260df" stroke-width="1"/>
  <polyline fill="none" points="489.0,27.0 488.0,33.0 500.0,42.0 506.0,41.0 506.0,37.0 494.0,27.0" stroke="#9ffead" stroke-width="1"/>
  <polyline fill="none" points="183.0,712.0 179.0,718.0 186.0,719.0 187.0,715.0 184.0,713.0" stroke="#e74508" stroke-width="1"/>
  <polyline fill="none" points="216.0,734.0 222.0,736.0 217.0,739.0 214.0,737.0 215.0,734.0" stroke="#60b8f5" stroke-width="1"/>
  <polyline fill="none" points="522.0,29.0 522.0,35.0 538.0,40.0 545.0,50.0 561.0,58.0 547.0,45.0 524.0,31.0" stroke="#1ee2d6" stroke-width="1"/>
  <polyline fill="none" points="278.0,31.0 278.0,36.0 283.0,36.0 284.0,31.0" stroke="#468ce7" stroke-width="1"/>
  <polyline fill="none" points="231.0,748.0 247.0,747.0 249.0,751.0 242.0,754.0 229.0,751.0 228.0,755.0 225.0,754.0 228.0,748.0" stroke="#c888fb" stroke-width="1"/>
  <polyline fill="none" points="370.0,783.0 369.0,788.0 374.0,791.0 381.0,789.0 381.0,785.0 375.0,783.0" stroke="#4d9afe" stroke-width="1"/>
  <polyline fill="none" points="404.0,786.0 404.0,790.0 410.0,790.0 411.0,793.0 419.0,793.0 419.0,789.0 410.0,786.0" stroke="#a7965c" stroke-width="1"/>
  <polyline fill="none" points="315.0,780.0 317.0,781.0 314.0,787.0 312.0,786.0 314.0,780.0" stroke="#0013b3" stroke-width="1"/>
  <polyline fill="none" points="455.0,0.0 456.0,13.0 480.0,27.0 482.0,23.0 476.0,18.0 477.0,9.0 470.0,10.0 459.0,0.0" stroke="#03c0ea" stroke-width="1"/>
  <polyline fill="none" points="584.0,742.0 585.0,750.0 589.0,750.0 590.0,747.0 586.0,742.0" stroke="#c8aa42" stroke-width="1"/>
  <polyline fill="none" points="332.0,785.0 330.0,792.0 343.0,792.0 343.0,788.0 336.0,785.0" stroke="#71b928" stroke-width="1"/>
  <polyline fill="none" points="328.0,784.0 330.0,793.0 348.0,791.0 357.0,799.0 358.0,797.0 344.0,788.0 330.0,784.0" stroke="#37666e" stroke-width="1"/>
  <polyline fill="none" points="525.0,32.0 551.0,47.0 583.0,80.0 585.0,90.0 585.0,83.0 578.0,73.0 552.0,47.0 544.0,41.0 535.0,39.0 534.0,35.0 526.0,33.0" stroke="#6791e6" stroke-width="1"/>
<polyline points="398.0,318.0 382.0,321.0 375.0,326.0 363.0,376.0 350.0,408.0 334.0,420.0 317.0,426.0 308.0,424.0 325.0,426.0 322.0,424.0" fill="none" stroke="#fce30b" stroke-width="1"/><polyline points="350.0,409.0 364.0,373.0" fill="none" stroke="#fce30b" stroke-width="1"/><polyline points="398.0,318.0 410.0,328.0 435.0,369.0 448.0,383.0 462.0,395.0" fill="none" stroke="#fce30b" stroke-width="1"/><polyline points="435.0,368.0 418.0,338.0" fill="none" stroke="#fce30b" stroke-width="1"/><polyline points="430.0,435.0 418.0,439.0 412.0,447.0 407.0,446.0 399.0,436.0 405.0,445.0 404.0,448.0 411.0,450.0 409.0,454.0" fill="none" stroke="#2a7be4" stroke-width="1"/><polyline points="430.0,435.0 444.0,437.0 448.0,442.0 446.0,446.0" fill="none" stroke="#2a7be4" stroke-width="1"/><polyline points="447.0,441.0 451.0,443.0 450.0,440.0" fill="none" stroke="#2a7be4" stroke-width="1"/><polyline points="590.0,296.0 581.0,302.0 564.0,305.0 565.0,321.0 571.0,334.0 566.0,336.0 569.0,336.0 574.0,344.0 560.0,357.0 560.0,361.0 564.0,362.0 557.0,363.0 551.0,375.0 519.0,393.0 482.0,400.0 470.0,398.0 459.0,392.0 435.0,369.0 405.0,320.0 396.0,317.0 376.0,325.0 355.0,401.0 352.0,407.0 337.0,419.0 325.0,424.0 314.0,421.0 280.0,421.0 242.0,403.0 248.0,427.0 259.0,450.0 260.0,461.0 269.0,476.0 270.0,489.0 275.0,497.0 274.0,514.0 281.0,519.0 283.0,528.0 289.0,530.0 289.0,538.0 299.0,538.0 305.0,533.0 304.0,526.0 309.0,523.0 308.0,517.0 317.0,507.0 319.0,498.0 323.0,494.0 329.0,495.0" fill="none" stroke="#6ef542" stroke-width="1"/><polyline points="327.0,495.0 326.0,491.0 322.0,493.0 318.0,490.0 324.0,489.0 323.0,484.0 330.0,468.0 329.0,460.0 333.0,455.0 331.0,443.0 349.0,423.0 355.0,421.0 353.0,432.0 355.0,448.0 333.0,475.0 332.0,483.0 337.0,484.0 353.0,474.0 352.0,465.0 364.0,458.0 359.0,448.0 361.0,441.0 369.0,435.0 384.0,441.0 399.0,454.0 409.0,453.0 417.0,447.0 418.0,440.0 422.0,437.0 443.0,435.0 460.0,451.0 460.0,456.0 464.0,456.0 463.0,453.0 469.0,449.0 474.0,456.0 472.0,462.0 479.0,462.0 488.0,470.0 496.0,466.0 500.0,470.0 512.0,470.0 530.0,487.0 531.0,492.0 542.0,500.0 542.0,506.0 537.0,508.0 534.0,532.0 543.0,546.0 544.0,554.0 549.0,558.0 554.0,557.0 554.0,549.0 561.0,542.0 561.0,538.0 565.0,537.0 558.0,520.0 558.0,512.0 565.0,509.0 566.0,503.0 578.0,508.0 583.0,507.0 581.0,499.0 572.0,501.0 568.0,499.0 563.0,474.0 568.0,471.0 566.0,463.0 571.0,458.0 574.0,459.0 573.0,462.0" fill="none" stroke="#6ef542" stroke-width="1"/><polyline points="574.0,461.0 576.0,453.0 580.0,456.0 585.0,455.0 585.0,449.0 577.0,444.0 579.0,442.0 592.0,446.0 588.0,433.0 596.0,435.0 595.0,427.0 603.0,421.0 608.0,398.0 613.0,395.0 615.0,356.0 608.0,342.0 604.0,318.0 594.0,303.0" fill="none" stroke="#6ef542" stroke-width="1"/><polyline points="372.0,438.0 366.0,441.0 371.0,458.0" fill="none" stroke="#bd187b" stroke-width="1"/><polyline points="372.0,438.0 384.0,444.0 374.0,452.0 377.0,453.0 385.0,444.0 399.0,457.0 405.0,459.0" fill="none" stroke="#bd187b" stroke-width="1"/><polyline points="361.0,411.0 353.0,431.0 354.0,442.0 349.0,454.0 334.0,475.0 344.0,464.0 353.0,443.0 366.0,435.0 365.0,430.0 368.0,427.0 373.0,424.0 377.0,426.0 370.0,425.0 359.0,440.0" fill="none" stroke="#eac556" stroke-width="1"/><polyline points="324.0,301.0 339.0,306.0 356.0,323.0 362.0,343.0 362.0,361.0 358.0,377.0 349.0,394.0 330.0,410.0 312.0,416.0 293.0,416.0 269.0,410.0 266.0,406.0 269.0,397.0" fill="none" stroke="#216773" stroke-width="1"/><polyline points="266.0,405.0 258.0,395.0 261.0,388.0 256.0,373.0 251.0,372.0 262.0,403.0 274.0,412.0 312.0,416.0 340.0,404.0" fill="none" stroke="#216773" stroke-width="1"/><polyline points="362.0,343.0 358.0,327.0 352.0,318.0" fill="none" stroke="#216773" stroke-width="1"/><polyline points="352.0,317.0 341.0,307.0" fill="none" stroke="#216773" stroke-width="1"/><polyline points="377.0,474.0 372.0,480.0 373.0,489.0 363.0,502.0 356.0,497.0 349.0,503.0 343.0,502.0" fill="none" stroke="#1f2743" stroke-width="1"/><polyline points="343.0,503.0 346.0,504.0" fill="none" stroke="#1f2743" stroke-width="1"/><polyline points="363.0,502.0 368.0,497.0 368.0,502.0 362.0,508.0 352.0,506.0 338.0,515.0 343.0,512.0 345.0,514.0 343.0,518.0 346.0,519.0 345.0,512.0 350.0,507.0 365.0,506.0 373.0,490.0 372.0,484.0" fill="none" stroke="#1f2743" stroke-width="1"/><polyline points="329.0,446.0 330.0,454.0 324.0,463.0 324.0,471.0 313.0,486.0 304.0,492.0" fill="none" stroke="#50fe82" stroke-width="1"/><polyline points="324.0,472.0 327.0,465.0 324.0,463.0" fill="none" stroke="#50fe82" stroke-width="1"/><polyline points="328.0,468.0 329.0,470.0" fill="none" stroke="#50fe82" stroke-width="1"/><polyline points="433.0,492.0 420.0,505.0 402.0,504.0 400.0,512.0 395.0,511.0 398.0,504.0 386.0,497.0 372.0,500.0" fill="none" stroke="#05e072" stroke-width="1"/><polyline points="351.0,507.0 339.0,518.0 340.0,527.0 366.0,518.0 370.0,511.0 406.0,522.0 437.0,516.0 485.0,516.0 505.0,513.0 503.0,509.0 493.0,507.0 486.0,500.0 454.0,502.0" fill="none" stroke="#05e072" stroke-width="1"/><polyline points="273.0,315.0 259.0,319.0 257.0,343.0 254.0,341.0 253.0,333.0 227.0,339.0 228.0,364.0 244.0,394.0 255.0,392.0 250.0,374.0 254.0,371.0" fill="none" stroke="#071e5e" stroke-width="1"/><polyline points="313.0,415.0 334.0,407.0 349.0,393.0 357.0,373.0 348.0,371.0 333.0,387.0 324.0,388.0 320.0,379.0 323.0,373.0 309.0,367.0 314.0,358.0 298.0,344.0 296.0,334.0 289.0,337.0 288.0,348.0 278.0,357.0 273.0,356.0 268.0,347.0 272.0,333.0 279.0,324.0 290.0,321.0 289.0,316.0" fill="none" stroke="#071e5e" stroke-width="1"/><polyline points="352.0,397.0 329.0,415.0 299.0,422.0 292.0,419.0 284.0,421.0 284.0,417.0 282.0,420.0 271.0,418.0 247.0,403.0" fill="none" stroke="#f7c389" stroke-width="1"/><polyline points="247.0,426.0 242.0,408.0 244.0,403.0 268.0,417.0" fill="none" stroke="#f7c389" stroke-width="1"/><polyline points="329.0,415.0 343.0,407.0" fill="none" stroke="#f7c389" stroke-width="1"/><polyline points="495.0,273.0 471.0,276.0 446.0,285.0 483.0,274.0 514.0,273.0 531.0,276.0 540.0,281.0 551.0,293.0 558.0,310.0 560.0,326.0 559.0,333.0 554.0,331.0 547.0,321.0 546.0,308.0 540.0,303.0 534.0,306.0 523.0,299.0 506.0,297.0" fill="none" stroke="#f13fc0" stroke-width="1"/><polyline points="523.0,299.0 531.0,305.0 539.0,306.0 544.0,314.0 542.0,308.0 536.0,305.0 540.0,303.0 548.0,313.0 547.0,322.0 559.0,334.0 553.0,359.0 545.0,369.0 541.0,365.0 538.0,366.0 538.0,372.0 539.0,369.0 542.0,372.0 539.0,375.0 514.0,389.0 498.0,392.0 472.0,390.0 451.0,378.0 438.0,365.0 444.0,353.0 434.0,331.0 422.0,328.0 422.0,317.0 428.0,301.0 437.0,291.0 442.0,291.0 439.0,290.0 441.0,288.0" fill="none" stroke="#f13fc0" stroke-width="1"/><polyline points="422.0,330.0 430.0,328.0" fill="none" stroke="#f13fc0" stroke-width="1"/><polyline points="444.0,353.0 443.0,358.0 437.0,360.0 436.0,364.0 454.0,381.0" fill="none" stroke="#f13fc0" stroke-width="1"/><polyline points="498.0,392.0 519.0,387.0 536.0,378.0 551.0,363.0 557.0,349.0" fill="none" stroke="#f13fc0" stroke-width="1"/><polyline points="558.0,310.0 548.0,288.0 534.0,277.0" fill="none" stroke="#f13fc0" stroke-width="1"/><polyline points="526.0,287.0 507.0,291.0" fill="none" stroke="#00624c" stroke-width="1"/><polyline points="540.0,306.0 551.0,328.0 550.0,332.0 539.0,334.0 534.0,339.0 527.0,339.0 527.0,323.0 522.0,323.0 519.0,327.0 513.0,326.0 512.0,331.0 504.0,335.0 504.0,340.0 508.0,342.0 504.0,351.0 506.0,358.0 504.0,366.0 507.0,370.0 504.0,371.0 503.0,368.0 498.0,370.0 493.0,381.0 480.0,365.0 463.0,360.0 455.0,353.0 446.0,352.0 446.0,358.0 441.0,363.0 441.0,368.0" fill="none" stroke="#00624c" stroke-width="1"/><polyline points="471.0,389.0 480.0,390.0 506.0,389.0 520.0,385.0 537.0,376.0 540.0,373.0 538.0,366.0 546.0,368.0 554.0,355.0 556.0,345.0 549.0,349.0 550.0,345.0 546.0,341.0 550.0,334.0 558.0,338.0 559.0,321.0 555.0,303.0 551.0,296.0" fill="none" stroke="#00624c" stroke-width="1"/><polyline points="563.0,305.0 564.0,341.0 558.0,360.0 551.0,371.0 525.0,390.0 493.0,397.0 474.0,395.0" fill="none" stroke="#1f931e" stroke-width="1"/><polyline points="493.0,397.0 520.0,392.0 541.0,381.0 551.0,372.0 561.0,353.0 565.0,335.0 563.0,306.0" fill="none" stroke="#1f931e" stroke-width="1"/><polyline points="507.0,321.0 512.0,321.0 518.0,315.0 518.0,309.0" fill="none" stroke="#75feb2" stroke-width="1"/><polyline points="506.0,436.0 512.0,445.0 517.0,444.0 520.0,447.0 520.0,455.0 532.0,472.0 541.0,478.0 540.0,486.0 544.0,492.0" fill="none" stroke="#20ed14" stroke-width="1"/><polyline points="540.0,485.0 540.0,476.0 532.0,471.0 532.0,467.0" fill="none" stroke="#20ed14" stroke-width="1"/><polyline points="520.0,446.0 513.0,445.0" fill="none" stroke="#20ed14" stroke-width="1"/><polyline points="415.0,546.0 408.0,562.0 413.0,555.0 415.0,559.0 420.0,559.0 416.0,557.0 423.0,557.0 426.0,554.0" fill="none" stroke="#7bde53" stroke-width="1"/><polyline points="412.0,554.0 415.0,546.0 420.0,548.0 417.0,554.0 421.0,546.0 439.0,547.0 448.0,549.0" fill="none" stroke="#7bde53" stroke-width="1"/><polyline points="449.0,551.0 452.0,560.0" fill="none" stroke="#7bde53" stroke-width="1"/><polyline points="468.0,568.0 458.0,566.0" fill="none" stroke="#7bde53" stroke-width="1"/><polyline points="362.0,515.0 333.0,535.0 329.0,533.0 332.0,524.0 328.0,524.0 322.0,538.0 320.0,536.0 322.0,541.0 315.0,554.0 307.0,552.0 311.0,542.0" fill="none" stroke="#e05e64" stroke-width="1"/><polyline points="308.0,551.0 299.0,557.0 296.0,556.0 297.0,561.0 304.0,553.0 314.0,555.0" fill="none" stroke="#e05e64" stroke-width="1"/><polyline points="334.0,535.0 348.0,526.0" fill="none" stroke="#e05e64" stroke-width="1"/><polyline points="493.0,269.0 457.0,276.0 431.0,290.0 460.0,275.0 483.0,270.0 514.0,269.0 537.0,274.0 548.0,281.0 559.0,294.0 573.0,294.0 577.0,290.0 583.0,290.0 586.0,288.0 586.0,281.0" fill="none" stroke="#b46364" stroke-width="1"/><polyline points="553.0,400.0 556.0,408.0 554.0,414.0 556.0,412.0 554.0,400.0 560.0,407.0 560.0,412.0 570.0,417.0 570.0,408.0 562.0,413.0 560.0,410.0" fill="none" stroke="#17c289" stroke-width="1"/><polyline points="412.0,208.0 414.0,207.0 417.0,212.0 430.0,212.0 435.0,220.0 434.0,228.0 430.0,230.0 426.0,227.0 407.0,226.0 400.0,233.0 395.0,233.0 406.0,236.0" fill="none" stroke="#b2dc99" stroke-width="1"/><polyline points="408.0,236.0 415.0,237.0 404.0,240.0 402.0,237.0 394.0,237.0 395.0,244.0 400.0,247.0 395.0,249.0 390.0,258.0 390.0,281.0 385.0,277.0 385.0,257.0 368.0,256.0 367.0,261.0 362.0,264.0 344.0,254.0 342.0,251.0 344.0,246.0 337.0,246.0 326.0,232.0 326.0,226.0 331.0,222.0 326.0,217.0 334.0,212.0 342.0,212.0 351.0,219.0 359.0,217.0 357.0,220.0 359.0,221.0 355.0,222.0 357.0,223.0 379.0,225.0 385.0,218.0 390.0,218.0 393.0,212.0 410.0,216.0" fill="none" stroke="#b2dc99" stroke-width="1"/><polyline points="272.0,272.0 266.0,282.0 242.0,302.0 239.0,308.0" fill="none" stroke="#0ab89e" stroke-width="1"/><polyline points="273.0,272.0 280.0,274.0 276.0,281.0" fill="none" stroke="#0ab89e" stroke-width="1"/><polyline points="276.0,282.0 295.0,280.0" fill="none" stroke="#0ab89e" stroke-width="1"/><polyline points="296.0,281.0 295.0,278.0 292.0,281.0 277.0,282.0" fill="none" stroke="#0ab89e" stroke-width="1"/><polyline points="312.0,534.0 289.0,555.0 292.0,560.0" fill="none" stroke="#7e08b2" stroke-width="1"/><polyline points="314.0,555.0 320.0,544.0" fill="none" stroke="#7e08b2" stroke-width="1"/><polyline points="463.0,549.0 480.0,567.0 485.0,567.0 499.0,555.0 503.0,561.0 508.0,562.0" fill="none" stroke="#5b3b66" stroke-width="1"/><polyline points="237.0,317.0 225.0,332.0 218.0,331.0 213.0,335.0 214.0,340.0 224.0,337.0 225.0,343.0" fill="none" stroke="#3c4ad0" stroke-width="1"/><polyline points="594.0,237.0 596.0,261.0 593.0,281.0 599.0,283.0 598.0,303.0 608.0,322.0 606.0,340.0 610.0,346.0" fill="none" stroke="#0d1881" stroke-width="1"/><polyline points="610.0,346.0 613.0,350.0 617.0,366.0 617.0,382.0 613.0,383.0 615.0,376.0 613.0,377.0 613.0,400.0 605.0,415.0 605.0,435.0 606.0,429.0" fill="none" stroke="#0d1881" stroke-width="1"/><polyline points="606.0,428.0 604.0,422.0" fill="none" stroke="#0d1881" stroke-width="1"/><polyline points="617.0,366.0 614.0,356.0 616.0,355.0 610.0,345.0" fill="none" stroke="#0d1881" stroke-width="1"/><polyline points="608.0,322.0 597.0,298.0 597.0,290.0 604.0,282.0" fill="none" stroke="#0d1881" stroke-width="1"/><polyline points="604.0,282.0 601.0,287.0" fill="none" stroke="#0d1881" stroke-width="1"/><polyline points="634.0,358.0 639.0,360.0 632.0,362.0 622.0,373.0 623.0,380.0 627.0,381.0 622.0,387.0 624.0,386.0 626.0,390.0 628.0,410.0 629.0,402.0 625.0,387.0 629.0,380.0" fill="none" stroke="#9e22b2" stroke-width="1"/><polyline points="622.0,373.0 625.0,374.0 633.0,362.0 638.0,362.0 638.0,370.0 631.0,371.0 637.0,374.0 639.0,360.0 638.0,357.0" fill="none" stroke="#9e22b2" stroke-width="1"/><polyline points="647.0,257.0 647.0,266.0 629.0,292.0 635.0,311.0 635.0,326.0 645.0,339.0 653.0,342.0 653.0,355.0 649.0,365.0 650.0,372.0 645.0,375.0 641.0,388.0 634.0,392.0 630.0,387.0 626.0,387.0 628.0,444.0 631.0,451.0 628.0,486.0 625.0,496.0 622.0,497.0 620.0,485.0 616.0,485.0 616.0,501.0 614.0,500.0 613.0,508.0 609.0,513.0 602.0,511.0 602.0,518.0 614.0,517.0 616.0,523.0 602.0,543.0 600.0,553.0 585.0,581.0 577.0,588.0 576.0,594.0 559.0,616.0 552.0,620.0 553.0,625.0 545.0,628.0 542.0,639.0 531.0,642.0 524.0,654.0 517.0,653.0 509.0,659.0 506.0,669.0 503.0,667.0 504.0,662.0 501.0,661.0 495.0,662.0 487.0,671.0 484.0,670.0 486.0,665.0 482.0,665.0 470.0,676.0 465.0,674.0 442.0,676.0 427.0,685.0 441.0,689.0 442.0,693.0 417.0,699.0 415.0,702.0 411.0,697.0 401.0,696.0 404.0,692.0 414.0,693.0 407.0,684.0 409.0,678.0 406.0,675.0 400.0,674.0 402.0,680.0 398.0,683.0 390.0,676.0" fill="none" stroke="#97174b" stroke-width="1"/><polyline points="389.0,675.0 383.0,672.0 380.0,666.0 370.0,662.0 366.0,656.0 358.0,654.0 349.0,646.0 344.0,646.0 338.0,640.0 339.0,634.0 330.0,632.0 327.0,623.0 310.0,608.0 309.0,601.0 295.0,585.0 294.0,578.0 288.0,572.0 284.0,572.0 288.0,604.0 286.0,629.0 302.0,617.0 308.0,616.0 312.0,622.0 312.0,683.0 316.0,695.0 321.0,699.0 319.0,706.0 322.0,707.0 322.0,713.0 334.0,723.0 334.0,727.0 346.0,732.0 353.0,745.0 362.0,749.0 366.0,756.0 375.0,756.0 396.0,776.0 435.0,790.0 447.0,791.0 449.0,785.0 456.0,784.0 460.0,787.0 482.0,784.0 487.0,789.0 508.0,792.0 532.0,788.0 539.0,784.0 547.0,785.0 548.0,781.0 558.0,774.0 568.0,776.0 580.0,771.0 588.0,761.0 615.0,759.0 622.0,745.0 626.0,743.0 624.0,737.0 626.0,734.0 636.0,730.0 638.0,718.0 633.0,713.0 638.0,711.0 639.0,699.0 633.0,686.0 626.0,683.0 626.0,690.0 632.0,692.0 632.0,699.0 627.0,700.0 627.0,693.0 623.0,692.0 618.0,681.0 614.0,649.0 631.0,651.0 619.0,641.0 614.0,626.0 608.0,582.0 608.0,554.0 629.0,484.0 638.0,439.0 661.0,401.0 670.0,343.0 670.0,320.0 666.0,299.0" fill="none" stroke="#97174b" stroke-width="1"/><polyline points="634.0,362.0 626.0,371.0 629.0,380.0 633.0,380.0" fill="none" stroke="#4f17e9" stroke-width="1"/><polyline points="647.0,256.0 642.0,274.0 628.0,292.0 629.0,300.0 637.0,319.0 642.0,323.0 642.0,329.0 646.0,331.0 648.0,329.0 652.0,334.0" fill="none" stroke="#3f77d0" stroke-width="1"/><polyline points="653.0,344.0 656.0,345.0 649.0,324.0 637.0,318.0 628.0,295.0 632.0,285.0 642.0,275.0 648.0,260.0 667.0,301.0 671.0,340.0 667.0,379.0" fill="none" stroke="#3f77d0" stroke-width="1"/><polyline points="638.0,440.0 632.0,470.0 630.0,472.0 628.0,467.0 632.0,453.0 629.0,449.0 630.0,435.0" fill="none" stroke="#3f77d0" stroke-width="1"/><polyline points="628.0,467.0 631.0,478.0 629.0,484.0" fill="none" stroke="#3f77d0" stroke-width="1"/><polyline points="629.0,486.0 623.0,507.0 618.0,507.0" fill="none" stroke="#3f77d0" stroke-width="1"/><polyline points="618.0,507.0 622.0,509.0 608.0,557.0 615.0,629.0" fill="none" stroke="#3f77d0" stroke-width="1"/><polyline points="343.0,633.0 343.0,636.0 350.0,640.0 360.0,638.0 370.0,649.0 366.0,650.0 358.0,645.0 369.0,650.0 372.0,659.0 393.0,666.0 403.0,673.0 449.0,673.0 455.0,671.0 446.0,666.0 450.0,658.0 453.0,657.0 455.0,660.0 460.0,653.0 467.0,654.0 468.0,657.0 481.0,648.0" fill="none" stroke="#19c6ab" stroke-width="1"/><polyline points="459.0,653.0 447.0,660.0" fill="none" stroke="#19c6ab" stroke-width="1"/><polyline points="447.0,660.0 445.0,666.0 453.0,669.0 449.0,673.0 421.0,674.0 408.0,670.0 409.0,673.0 404.0,673.0 371.0,657.0 373.0,653.0 381.0,650.0 387.0,638.0 382.0,648.0 372.0,653.0 369.0,650.0" fill="none" stroke="#19c6ab" stroke-width="1"/><polyline points="369.0,648.0 362.0,639.0 350.0,640.0" fill="none" stroke="#19c6ab" stroke-width="1"/><polyline points="595.0,559.0 590.0,570.0 570.0,594.0 570.0,600.0 566.0,604.0 569.0,603.0 570.0,595.0 574.0,591.0 576.0,592.0 572.0,599.0 580.0,592.0 583.0,587.0 577.0,594.0 575.0,591.0 584.0,577.0" fill="none" stroke="#3419f1" stroke-width="1"/><polyline points="247.0,150.0 246.0,158.0 241.0,162.0 241.0,169.0 221.0,203.0 209.0,232.0 209.0,247.0 214.0,256.0" fill="none" stroke="#dd4093" stroke-width="1"/><polyline points="225.0,346.0 227.0,365.0 236.0,386.0 233.0,387.0 225.0,371.0 221.0,351.0 212.0,351.0 212.0,367.0 219.0,396.0" fill="none" stroke="#6f04d4" stroke-width="1"/><polyline points="212.0,352.0 214.0,350.0 221.0,352.0 221.0,358.0 217.0,358.0 215.0,353.0 219.0,384.0 237.0,434.0 238.0,450.0 260.0,484.0 267.0,504.0 273.0,541.0 285.0,578.0 288.0,615.0 284.0,633.0 271.0,648.0 258.0,654.0 183.0,675.0 159.0,687.0 122.0,699.0 87.0,718.0 54.0,726.0 28.0,743.0 0.0,747.0 31.0,742.0" fill="none" stroke="#6f04d4" stroke-width="1"/><polyline points="87.0,718.0 132.0,695.0 142.0,694.0 200.0,669.0 208.0,668.0 209.0,672.0 213.0,667.0 256.0,655.0 277.0,643.0 279.0,647.0 272.0,672.0 277.0,685.0 277.0,698.0 291.0,731.0 305.0,751.0 323.0,771.0 365.0,798.0 351.0,785.0 346.0,787.0 327.0,772.0 326.0,766.0 333.0,762.0 326.0,763.0 328.0,771.0 324.0,771.0 290.0,729.0 279.0,705.0" fill="none" stroke="#6f04d4" stroke-width="1"/><polyline points="272.0,673.0 277.0,651.0 282.0,650.0 284.0,667.0 299.0,701.0 313.0,721.0 344.0,750.0 375.0,770.0 370.0,776.0 365.0,774.0 364.0,778.0 354.0,776.0 353.0,770.0 351.0,775.0 346.0,768.0 347.0,759.0 361.0,769.0" fill="none" stroke="#6f04d4" stroke-width="1"/><polyline points="362.0,770.0 362.0,775.0 361.0,766.0 359.0,768.0" fill="none" stroke="#6f04d4" stroke-width="1"/><polyline points="346.0,768.0 334.0,767.0 334.0,770.0 349.0,775.0 349.0,781.0" fill="none" stroke="#6f04d4" stroke-width="1"/><polyline points="348.0,776.0 350.0,774.0" fill="none" stroke="#6f04d4" stroke-width="1"/><polyline points="352.0,774.0 355.0,777.0 352.0,781.0 360.0,783.0 363.0,793.0 364.0,790.0 370.0,792.0" fill="none" stroke="#6f04d4" stroke-width="1"/><polyline points="370.0,793.0 376.0,797.0 375.0,799.0 382.0,794.0 391.0,794.0 383.0,787.0 384.0,783.0 377.0,779.0 378.0,773.0 397.0,781.0 396.0,785.0 394.0,781.0 390.0,789.0 393.0,784.0 400.0,787.0 400.0,782.0 369.0,766.0 335.0,742.0 313.0,720.0 291.0,683.0" fill="none" stroke="#6f04d4" stroke-width="1"/><polyline points="283.0,650.0 278.0,648.0 279.0,644.0 283.0,643.0 277.0,643.0 282.0,637.0 285.0,638.0" fill="none" stroke="#6f04d4" stroke-width="1"/><polyline points="282.0,636.0 285.0,629.0 297.0,619.0" fill="none" stroke="#6f04d4" stroke-width="1"/><polyline points="312.0,623.0 313.0,642.0 309.0,695.0 321.0,718.0 357.0,753.0 381.0,769.0 407.0,782.0 414.0,782.0 443.0,793.0 400.0,779.0 384.0,770.0 386.0,764.0" fill="none" stroke="#6f04d4" stroke-width="1"/><polyline points="387.0,764.0 377.0,757.0" fill="none" stroke="#6f04d4" stroke-width="1"/><polyline points="354.0,746.0 364.0,751.0 365.0,755.0 362.0,756.0 331.0,728.0 311.0,701.0 309.0,687.0 312.0,681.0" fill="none" stroke="#6f04d4" stroke-width="1"/><polyline points="308.0,616.0 309.0,601.0 300.0,592.0 301.0,589.0" fill="none" stroke="#6f04d4" stroke-width="1"/><polyline points="295.0,578.0 290.0,575.0 287.0,563.0 288.0,568.0" fill="none" stroke="#6f04d4" stroke-width="1"/><polyline points="287.0,569.0 290.0,574.0 286.0,575.0" fill="none" stroke="#6f04d4" stroke-width="1"/><polyline points="294.0,585.0 307.0,598.0 310.0,614.0 296.0,619.0 288.0,628.0 285.0,626.0" fill="none" stroke="#6f04d4" stroke-width="1"/><polyline points="285.0,578.0 277.0,546.0 275.0,547.0" fill="none" stroke="#6f04d4" stroke-width="1"/><polyline points="261.0,485.0 253.0,472.0" fill="none" stroke="#6f04d4" stroke-width="1"/><polyline points="253.0,472.0 249.0,468.0 244.0,461.0" fill="none" stroke="#6f04d4" stroke-width="1"/><polyline points="244.0,460.0 239.0,451.0 245.0,449.0 246.0,440.0 241.0,419.0 234.0,406.0 233.0,394.0 230.0,391.0 226.0,392.0" fill="none" stroke="#6f04d4" stroke-width="1"/><polyline points="234.0,406.0 246.0,440.0 246.0,447.0" fill="none" stroke="#6f04d4" stroke-width="1"/><polyline points="222.0,358.0 225.0,371.0 236.0,392.0 263.0,411.0 250.0,402.0 237.0,387.0 229.0,372.0 230.0,368.0 233.0,373.0 227.0,365.0 227.0,347.0" fill="none" stroke="#6f04d4" stroke-width="1"/><polyline points="543.0,617.0 542.0,621.0 537.0,621.0 535.0,628.0 531.0,628.0 526.0,641.0 513.0,650.0 505.0,649.0" fill="none" stroke="#45c11a" stroke-width="1"/><polyline points="532.0,628.0 538.0,630.0 536.0,636.0" fill="none" stroke="#45c11a" stroke-width="1"/><polyline points="316.0,655.0 321.0,658.0 322.0,665.0 331.0,675.0 329.0,677.0 317.0,662.0" fill="none" stroke="#1fe73c" stroke-width="1"/><polyline points="331.0,675.0 335.0,679.0 321.0,663.0" fill="none" stroke="#1fe73c" stroke-width="1"/><polyline points="564.0,635.0 558.0,638.0 551.0,636.0 551.0,646.0 538.0,659.0 532.0,657.0 529.0,652.0 529.0,645.0 538.0,639.0 530.0,643.0 526.0,647.0" fill="none" stroke="#adf0c5" stroke-width="1"/><polyline points="530.0,653.0 525.0,654.0 524.0,658.0 526.0,659.0 525.0,654.0 531.0,656.0" fill="none" stroke="#adf0c5" stroke-width="1"/><polyline points="532.0,662.0 514.0,684.0 506.0,686.0 500.0,692.0 498.0,689.0" fill="none" stroke="#adf0c5" stroke-width="1"/><polyline points="507.0,686.0 519.0,683.0 516.0,680.0 534.0,661.0 537.0,664.0 534.0,671.0 547.0,669.0 548.0,673.0 542.0,677.0 547.0,678.0 547.0,669.0 552.0,668.0 546.0,663.0 538.0,667.0 536.0,662.0 551.0,647.0 550.0,639.0 554.0,637.0 565.0,637.0 566.0,642.0" fill="none" stroke="#adf0c5" stroke-width="1"/><polyline points="565.0,643.0 563.0,646.0 569.0,643.0 573.0,651.0 570.0,649.0 571.0,642.0 567.0,643.0 568.0,637.0" fill="none" stroke="#adf0c5" stroke-width="1"/><polyline points="271.0,0.0 266.0,20.0 225.0,85.0 203.0,135.0 181.0,171.0 173.0,211.0 175.0,241.0 186.0,269.0 204.0,300.0 210.0,332.0 222.0,323.0 225.0,324.0" fill="none" stroke="#6c4182" stroke-width="1"/><polyline points="221.0,323.0 217.0,327.0" fill="none" stroke="#6c4182" stroke-width="1"/><polyline points="204.0,300.0 180.0,256.0" fill="none" stroke="#6c4182" stroke-width="1"/><polyline points="173.0,211.0 175.0,205.0 182.0,200.0 181.0,192.0" fill="none" stroke="#6c4182" stroke-width="1"/><polyline points="181.0,194.0 181.0,198.0 177.0,200.0 182.0,200.0 178.0,204.0 175.0,203.0 175.0,191.0 181.0,171.0 194.0,148.0 196.0,146.0 198.0,148.0 195.0,156.0 195.0,151.0 201.0,146.0 208.0,147.0" fill="none" stroke="#6c4182" stroke-width="1"/><polyline points="196.0,145.0 209.0,123.0 224.0,87.0 231.0,75.0 233.0,73.0 234.0,76.0 243.0,54.0 265.0,22.0" fill="none" stroke="#6c4182" stroke-width="1"/><polyline points="337.0,690.0 341.0,692.0 336.0,707.0 345.0,707.0 339.0,706.0" fill="none" stroke="#a84f70" stroke-width="1"/><polyline points="479.0,695.0 468.0,704.0 459.0,706.0 455.0,704.0 434.0,714.0" fill="none" stroke="#19fe3e" stroke-width="1"/><polyline points="435.0,714.0 450.0,707.0" fill="none" stroke="#19fe3e" stroke-width="1"/><polyline points="359.0,708.0 358.0,713.0 337.0,712.0 346.0,714.0 344.0,727.0 348.0,728.0 347.0,725.0 353.0,721.0" fill="none" stroke="#0aa299" stroke-width="1"/><polyline points="347.0,724.0 346.0,713.0 352.0,712.0 359.0,718.0 362.0,716.0 366.0,718.0" fill="none" stroke="#0aa299" stroke-width="1"/><polyline points="343.0,724.0 347.0,723.0 349.0,726.0" fill="none" stroke="#3d6cae" stroke-width="1"/><polyline points="497.0,0.0 501.0,9.0 514.0,22.0" fill="none" stroke="#69750e" stroke-width="1"/><polyline points="514.0,22.0 517.0,25.0 514.0,28.0 516.0,34.0 525.0,40.0 515.0,32.0 517.0,25.0 546.0,44.0 585.0,84.0 609.0,131.0 607.0,134.0" fill="none" stroke="#69750e" stroke-width="1"/><polyline points="606.0,134.0 611.0,135.0 630.0,178.0 637.0,226.0 643.0,244.0 641.0,247.0 639.0,237.0 633.0,234.0 633.0,230.0" fill="none" stroke="#69750e" stroke-width="1"/><polyline points="633.0,229.0 637.0,243.0 635.0,259.0 640.0,266.0 634.0,255.0 636.0,237.0" fill="none" stroke="#69750e" stroke-width="1"/><polyline points="641.0,247.0 644.0,249.0" fill="none" stroke="#69750e" stroke-width="1"/><polyline points="630.0,178.0 584.0,82.0 554.0,50.0 522.0,29.0" fill="none" stroke="#69750e" stroke-width="1"/><polyline points="609.0,595.0 607.0,604.0 610.0,606.0 617.0,672.0" fill="none" stroke="#0bda98" stroke-width="1"/><polyline points="618.0,672.0 616.0,668.0 614.0,651.0 616.0,648.0 636.0,655.0 642.0,654.0" fill="none" stroke="#0bda98" stroke-width="1"/><polyline points="643.0,655.0 653.0,657.0 669.0,664.0 629.0,649.0 629.0,651.0 618.0,649.0 613.0,644.0" fill="none" stroke="#0bda98" stroke-width="1"/><polyline points="279.0,649.0 273.0,666.0 273.0,677.0" fill="none" stroke="#66224a" stroke-width="1"/><polyline points="277.0,697.0 280.0,707.0" fill="none" stroke="#66224a" stroke-width="1"/><polyline points="366.0,799.0 403.0,798.0 404.0,792.0 394.0,788.0 396.0,780.0 381.0,773.0" fill="none" stroke="#66224a" stroke-width="1"/><polyline points="391.0,792.0 391.0,795.0 377.0,796.0 364.0,790.0" fill="none" stroke="#66224a" stroke-width="1"/><polyline points="352.0,780.0 356.0,775.0 361.0,778.0" fill="none" stroke="#66224a" stroke-width="1"/><polyline points="366.0,774.0 374.0,776.0 375.0,770.0 327.0,736.0" fill="none" stroke="#66224a" stroke-width="1"/><polyline points="284.0,668.0 282.0,653.0" fill="none" stroke="#66224a" stroke-width="1"/><polyline points="216.0,669.0 208.0,678.0 202.0,678.0" fill="none" stroke="#f97de4" stroke-width="1"/><polyline points="201.0,678.0 198.0,681.0 193.0,683.0 190.0,681.0 192.0,677.0 197.0,677.0 184.0,680.0 189.0,679.0" fill="none" stroke="#f97de4" stroke-width="1"/><polyline points="195.0,681.0 209.0,678.0 210.0,685.0 216.0,688.0 216.0,697.0 207.0,697.0 205.0,693.0 173.0,698.0 173.0,685.0 176.0,683.0 164.0,688.0 168.0,690.0 167.0,688.0 173.0,685.0 174.0,688.0 173.0,698.0 163.0,705.0 175.0,697.0 183.0,695.0 185.0,698.0 193.0,695.0 195.0,701.0" fill="none" stroke="#f97de4" stroke-width="1"/><polyline points="216.0,698.0 217.0,702.0 211.0,708.0 219.0,705.0 234.0,709.0 244.0,707.0 258.0,698.0 258.0,696.0" fill="none" stroke="#f97de4" stroke-width="1"/><polyline points="249.0,704.0 240.0,708.0 230.0,709.0 226.0,703.0 226.0,706.0 220.0,706.0 221.0,701.0 216.0,700.0 217.0,696.0 218.0,699.0 226.0,699.0 231.0,704.0 245.0,703.0 241.0,701.0 240.0,696.0 245.0,687.0 239.0,684.0" fill="none" stroke="#f97de4" stroke-width="1"/><polyline points="244.0,673.0 242.0,671.0" fill="none" stroke="#f97de4" stroke-width="1"/><polyline points="237.0,684.0 243.0,688.0 241.0,702.0 234.0,704.0" fill="none" stroke="#f97de4" stroke-width="1"/><polyline points="232.0,704.0 222.0,699.0 220.0,695.0 218.0,698.0 217.0,687.0 209.0,682.0" fill="none" stroke="#f97de4" stroke-width="1"/><polyline points="211.0,710.0 214.0,716.0 209.0,721.0" fill="none" stroke="#079d26" stroke-width="1"/><polyline points="213.0,717.0 218.0,720.0 219.0,717.0 220.0,722.0 227.0,722.0 229.0,717.0 237.0,714.0 247.0,713.0 247.0,718.0 250.0,711.0 249.0,719.0" fill="none" stroke="#079d26" stroke-width="1"/><polyline points="249.0,720.0 250.0,727.0 260.0,734.0 258.0,737.0 261.0,732.0 274.0,735.0 275.0,732.0 281.0,731.0" fill="none" stroke="#079d26" stroke-width="1"/><polyline points="273.0,734.0 268.0,734.0 264.0,730.0" fill="none" stroke="#079d26" stroke-width="1"/><polyline points="250.0,726.0 251.0,711.0 226.0,717.0 224.0,722.0 220.0,721.0 221.0,716.0 216.0,718.0" fill="none" stroke="#079d26" stroke-width="1"/><polyline points="529.0,53.0 531.0,62.0 530.0,55.0 532.0,53.0 537.0,55.0 533.0,69.0 527.0,73.0" fill="none" stroke="#9a0885" stroke-width="1"/><polyline points="528.0,72.0 538.0,70.0" fill="none" stroke="#9a0885" stroke-width="1"/><polyline points="537.0,55.0 555.0,77.0 561.0,71.0" fill="none" stroke="#9a0885" stroke-width="1"/><polyline points="561.0,71.0 555.0,74.0" fill="none" stroke="#9a0885" stroke-width="1"/><polyline points="618.0,654.0 657.0,676.0" fill="none" stroke="#c7f14d" stroke-width="1"/><polyline points="267.0,698.0 272.0,704.0 267.0,714.0 277.0,715.0 281.0,719.0 281.0,724.0 272.0,722.0 272.0,718.0 273.0,724.0 282.0,723.0 293.0,743.0 288.0,744.0 286.0,738.0 279.0,740.0 274.0,747.0 271.0,747.0 271.0,744.0 261.0,746.0 259.0,750.0 256.0,747.0" fill="none" stroke="#45e27b" stroke-width="1"/><polyline points="261.0,750.0 262.0,762.0 267.0,757.0 270.0,764.0 276.0,761.0 286.0,764.0 287.0,761.0 297.0,767.0 303.0,766.0 309.0,760.0 317.0,772.0 309.0,774.0" fill="none" stroke="#45e27b" stroke-width="1"/><polyline points="310.0,774.0 314.0,778.0 316.0,774.0 323.0,773.0 333.0,781.0 318.0,769.0 321.0,772.0 318.0,773.0 308.0,758.0 303.0,765.0 293.0,760.0 291.0,751.0 279.0,754.0 291.0,754.0 290.0,760.0 287.0,761.0 285.0,758.0 285.0,764.0 282.0,761.0 272.0,763.0 270.0,757.0 261.0,759.0 265.0,753.0 267.0,754.0 266.0,751.0 264.0,754.0 262.0,752.0 261.0,746.0 269.0,746.0 270.0,751.0 272.0,747.0 275.0,751.0" fill="none" stroke="#45e27b" stroke-width="1"/><polyline points="293.0,744.0 293.0,738.0" fill="none" stroke="#45e27b" stroke-width="1"/><polyline points="272.0,704.0 276.0,708.0" fill="none" stroke="#45e27b" stroke-width="1"/><polyline points="463.0,23.0 460.0,30.0 472.0,32.0 487.0,44.0" fill="none" stroke="#aa27a5" stroke-width="1"/><polyline points="487.0,44.0 488.0,51.0 495.0,53.0" fill="none" stroke="#aa27a5" stroke-width="1"/><polyline points="497.0,53.0 501.0,53.0" fill="none" stroke="#aa27a5" stroke-width="1"/><polyline points="488.0,44.0 477.0,37.0 472.0,28.0 471.0,33.0 461.0,28.0" fill="none" stroke="#aa27a5" stroke-width="1"/><polyline points="274.0,646.0 254.0,655.0 249.0,665.0 236.0,672.0 219.0,666.0" fill="none" stroke="#820aec" stroke-width="1"/><polyline points="143.0,693.0 144.0,698.0 139.0,701.0 136.0,696.0 131.0,696.0 112.0,705.0 124.0,705.0 129.0,713.0 142.0,716.0 151.0,716.0 152.0,709.0 147.0,705.0 150.0,703.0 157.0,706.0 155.0,716.0 164.0,714.0 161.0,712.0 163.0,710.0 175.0,709.0 177.0,712.0 183.0,711.0 193.0,716.0 210.0,711.0 214.0,712.0 214.0,717.0 248.0,713.0 250.0,727.0 257.0,729.0 261.0,734.0 258.0,744.0 257.0,738.0 250.0,738.0 249.0,745.0 242.0,734.0 236.0,734.0 235.0,729.0 229.0,726.0 207.0,731.0 205.0,728.0 162.0,728.0 162.0,724.0 149.0,722.0 123.0,726.0 115.0,723.0 114.0,717.0 110.0,717.0 110.0,722.0 115.0,723.0 116.0,730.0 130.0,729.0 133.0,734.0 140.0,736.0 138.0,743.0 145.0,747.0 135.0,751.0 134.0,763.0 155.0,765.0 170.0,759.0 185.0,759.0 185.0,766.0 191.0,766.0 202.0,757.0 213.0,756.0 215.0,762.0 205.0,767.0 205.0,771.0 212.0,776.0 225.0,777.0 234.0,773.0 235.0,779.0 242.0,777.0 250.0,783.0 264.0,784.0 275.0,781.0 282.0,774.0 284.0,784.0 290.0,783.0 292.0,779.0 299.0,779.0 300.0,782.0 308.0,784.0 309.0,791.0 314.0,791.0 315.0,786.0 324.0,786.0 330.0,783.0 330.0,779.0" fill="none" stroke="#820aec" stroke-width="1"/><polyline points="270.0,746.0 272.0,739.0" fill="none" stroke="#820aec" stroke-width="1"/><polyline points="292.0,738.0 285.0,727.0 276.0,721.0 279.0,717.0" fill="none" stroke="#820aec" stroke-width="1"/><polyline points="273.0,705.0 268.0,693.0 259.0,692.0 266.0,685.0 266.0,677.0 258.0,681.0 260.0,671.0 269.0,665.0" fill="none" stroke="#820aec" stroke-width="1"/><polyline points="247.0,727.0 248.0,732.0 245.0,733.0 253.0,732.0 250.0,738.0 237.0,734.0 236.0,731.0 241.0,731.0 235.0,729.0 234.0,733.0 229.0,734.0 247.0,736.0 238.0,740.0 244.0,740.0 244.0,748.0 241.0,750.0 231.0,747.0 225.0,750.0 228.0,756.0 235.0,754.0" fill="none" stroke="#8e37d9" stroke-width="1"/><polyline points="236.0,753.0 246.0,751.0 247.0,756.0 250.0,740.0 248.0,752.0" fill="none" stroke="#8e37d9" stroke-width="1"/><polyline points="244.0,741.0 248.0,737.0 256.0,737.0 252.0,736.0 253.0,732.0 256.0,733.0" fill="none" stroke="#8e37d9" stroke-width="1"/><polyline points="164.0,705.0 163.0,702.0 155.0,700.0 160.0,691.0 161.0,694.0 168.0,694.0 166.0,688.0" fill="none" stroke="#d52ed5" stroke-width="1"/><polyline points="481.0,16.0 507.0,37.0 511.0,45.0 511.0,40.0 487.0,20.0" fill="none" stroke="#e86b7c" stroke-width="1"/><polyline points="169.0,719.0 174.0,721.0 172.0,727.0 162.0,727.0 156.0,731.0 155.0,728.0 150.0,734.0 155.0,734.0" fill="none" stroke="#65bdce" stroke-width="1"/><polyline points="173.0,726.0 188.0,727.0 186.0,730.0" fill="none" stroke="#65bdce" stroke-width="1"/><polyline points="187.0,730.0 224.0,725.0 232.0,728.0 237.0,724.0 247.0,724.0 215.0,727.0 210.0,727.0" fill="none" stroke="#65bdce" stroke-width="1"/><polyline points="208.0,727.0 190.0,728.0 175.0,727.0 175.0,723.0 180.0,724.0" fill="none" stroke="#65bdce" stroke-width="1"/><polyline points="243.0,55.0 246.0,54.0 247.0,57.0 252.0,56.0 251.0,50.0 267.0,30.0 279.0,28.0 285.0,19.0 290.0,20.0 289.0,27.0 296.0,27.0 298.0,11.0 300.0,20.0 308.0,14.0 324.0,13.0" fill="none" stroke="#04c612" stroke-width="1"/><polyline points="273.0,768.0 267.0,773.0 262.0,771.0 265.0,779.0 270.0,777.0 269.0,772.0 274.0,768.0 277.0,768.0" fill="none" stroke="#482332" stroke-width="1"/><polyline points="243.0,758.0 245.0,766.0 244.0,762.0 247.0,761.0 248.0,764.0 259.0,768.0 253.0,772.0" fill="none" stroke="#68eb39" stroke-width="1"/><polyline points="251.0,772.0 257.0,771.0 260.0,767.0 263.0,769.0 269.0,767.0 250.0,765.0" fill="none" stroke="#68eb39" stroke-width="1"/><polyline points="322.0,775.0 321.0,779.0 313.0,781.0 316.0,790.0" fill="none" stroke="#29c067" stroke-width="1"/><polyline points="309.0,790.0 314.0,797.0 327.0,793.0 318.0,791.0 317.0,788.0 328.0,786.0" fill="none" stroke="#29c067" stroke-width="1"/><polyline points="316.0,780.0 322.0,781.0" fill="none" stroke="#29c067" stroke-width="1"/><polyline points="181.0,172.0 175.0,197.0 174.0,230.0" fill="none" stroke="#9e3230" stroke-width="1"/><polyline points="204.0,299.0 209.0,315.0" fill="none" stroke="#9e3230" stroke-width="1"/><polyline points="267.0,503.0 269.0,522.0 286.0,583.0" fill="none" stroke="#9e3230" stroke-width="1"/><polyline points="0.0,748.0 0.0,799.0 799.0,799.0 799.0,717.0 783.0,717.0 708.0,687.0 665.0,662.0 626.0,649.0 617.0,636.0" fill="none" stroke="#9e3230" stroke-width="1"/><polyline points="670.0,343.0 669.0,313.0 659.0,282.0 643.0,250.0 628.0,174.0" fill="none" stroke="#9e3230" stroke-width="1"/><polyline points="553.0,50.0 529.0,35.0 508.0,17.0" fill="none" stroke="#9e3230" stroke-width="1"/></svg>
