<?xml version="1.0" encoding="utf-8" ?>
<svg baseProfile="full" height="224" version="1.1" width="224" xmlns="http://www.w3.org/2000/svg" xmlns:ev="http://www.w3.org/2001/xml-events" xmlns:xlink="http://www.w3.org/1999/xlink"><defs /><polyline fill="none" points="124.6,96.6 122.49999999999999,96.6 121.44999999999999,97.64999999999999 119.69999999999999,97.3 118.64999999999999,98.35 117.24999999999999,98.35 117.24999999999999,99.05 115.49999999999999,100.44999999999999 115.85,103.6 115.49999999999999,103.94999999999999 114.8,103.25 115.49999999999999,103.94999999999999 115.14999999999999,104.3 115.85,103.6 116.55,104.64999999999999 115.14999999999999,106.39999999999999 114.8,105.35 114.1,112.35 115.14999999999999,115.14999999999999 114.1,112.35 114.1,110.6 114.8,110.25 115.49999999999999,110.94999999999999 114.44999999999999,109.89999999999999 114.44999999999999,107.8 116.55,105.0 115.49999999999999,102.55 115.85,100.44999999999999 117.94999999999999,99.39999999999999 119.69999999999999,97.3 120.39999999999999,97.64999999999999 120.39999999999999,98.35 120.74999999999999,97.64999999999999 121.8,97.64999999999999 122.49999999999999,96.6 123.55,96.94999999999999 123.19999999999999,97.64999999999999 122.49999999999999,97.64999999999999 123.55,97.64999999999999 123.55,96.94999999999999" stroke="#aaa" stroke-width="1" /><polyline fill="none" points="121.8,66.85 118.99999999999999,68.6 118.99999999999999,69.3 120.05,70.35 118.3,73.14999999999999 118.64999999999999,75.6 116.89999999999999,79.1 116.89999999999999,86.8 115.49999999999999,89.94999999999999 115.85,95.55 114.8,98.69999999999999 113.74999999999999,99.75 114.1,101.85 113.05,105.69999999999999 113.05,112.69999999999999 114.8,118.3 114.1,123.55 114.8,124.94999999999999 114.1,123.55 114.44999999999999,120.39999999999999 114.8,120.05 115.85,121.8 116.55,124.6 116.19999999999999,125.64999999999999 116.89999999999999,126.69999999999999 116.55,132.65 117.24999999999999,134.39999999999998 116.55,132.65 116.55,124.6 113.05,112.69999999999999 113.05,105.69999999999999 114.1,102.19999999999999 113.74999999999999,100.1 114.8,99.05 115.85,95.55 115.49999999999999,89.94999999999999 116.89999999999999,86.8 116.89999999999999,79.44999999999999 118.99999999999999,74.55 118.3,74.19999999999999 118.3,73.5 120.39999999999999,70.35 119.69999999999999,68.6" stroke="#aaa" stroke-width="1" /><polyline fill="none" points="98.0,44.8 99.39999999999999,45.15 100.8,47.25 102.55,47.949999999999996 107.1,52.5 108.14999999999999,54.949999999999996 107.8,55.65 109.19999999999999,56.699999999999996 108.5,59.15 109.55,59.15 110.25,60.199999999999996 109.89999999999999,62.99999999999999 110.94999999999999,65.1 110.25,65.8 110.6,68.6 108.85,72.1 108.5,76.64999999999999 107.44999999999999,78.75 106.75,84.0 105.69999999999999,86.1 105.69999999999999,87.85 106.75,89.25 106.75,91.35 107.44999999999999,92.05 107.1,93.44999999999999 106.05,95.19999999999999 105.0,94.14999999999999 105.35,93.44999999999999 104.64999999999999,93.44999999999999 105.35,93.8 105.0,94.14999999999999 103.94999999999999,93.8 104.3,92.05 105.0,92.75 106.39999999999999,92.39999999999999 105.0,91.35 105.69999999999999,91.0 104.3,90.3 103.6,90.64999999999999 103.94999999999999,90.3 105.0,91.0 104.64999999999999,92.05 103.94999999999999,92.39999999999999 102.89999999999999,91.35 101.5,91.35 100.8,92.05 99.75,95.19999999999999 99.75,99.05 99.05,99.75 98.69999999999999,99.05 98.69999999999999,99.75 99.39999999999999,99.75 99.75,99.05 99.75,95.19999999999999 100.8,92.39999999999999 101.85,91.35 102.55,91.35 103.94999999999999,92.75 103.6,94.14999999999999 104.64999999999999,94.14999999999999 105.69999999999999,95.19999999999999 103.6,95.19999999999999 103.25,95.55 104.64999999999999,95.55 102.55,97.64999999999999 101.85,96.25 102.89999999999999,94.14999999999999 102.89999999999999,92.75 101.5,96.94999999999999 101.85,96.6 102.55,97.64999999999999 100.44999999999999,101.14999999999999 100.1,105.69999999999999 98.69999999999999,109.55 98.69999999999999,111.64999999999999 97.64999999999999,114.8 98.35,112.69999999999999 98.69999999999999,115.85 91.0,130.54999999999998 95.55,133.35 109.19999999999999,144.54999999999998 108.85,144.89999999999998 109.19999999999999,144.54999999999998 109.89999999999999,145.25 110.25,146.64999999999998 115.49999999999999,149.45 122.14999999999999,155.04999999999998 123.89999999999999,155.39999999999998 123.89999999999999,154.7 123.55,155.39999999999998 122.85,155.04999999999998 122.85,154.0 121.1,151.54999999999998 121.44999999999999,142.1 117.94999999999999,138.25 115.49999999999999,133.35 115.49999999999999,125.3 115.49999999999999,133.35 116.89999999999999,136.85 118.99999999999999,140.0 121.44999999999999,142.1 121.1,143.14999999999998 120.39999999999999,142.45 121.44999999999999,143.85 121.1,151.54999999999998 122.85,154.35 122.49999999999999,155.04999999999998 115.85,149.45 110.94999999999999,147.0 107.8,142.79999999999998 95.89999999999999,133.35 91.0,130.2 93.1,127.39999999999999 94.14999999999999,124.24999999999999 96.6,120.74999999999999 98.69999999999999,115.85 98.35,112.0 98.69999999999999,109.55 99.75,107.44999999999999 100.8,100.1 104.3,95.89999999999999 106.39999999999999,95.19999999999999 107.44999999999999,92.05 106.75,91.0 106.75,88.89999999999999 105.69999999999999,87.5 105.69999999999999,86.44999999999999 106.75,84.35 107.44999999999999,78.75 108.5,76.64999999999999 108.85,72.1 110.6,68.94999999999999 110.25,66.14999999999999 110.94999999999999,65.1 110.94999999999999,64.05 109.89999999999999,62.99999999999999 109.89999999999999,59.15 108.5,58.8 109.19999999999999,56.699999999999996 107.8,55.3 108.14999999999999,54.599999999999994 106.75,51.8 102.89999999999999,47.949999999999996 101.5,47.599999999999994 99.39999999999999,44.8" stroke="#aaa" stroke-width="1" /><polyline fill="none" points="100.1,100.1 99.05,101.5 99.05,106.39999999999999 98.0,108.14999999999999 97.3,107.44999999999999 98.0,106.39999999999999 95.55,109.55 97.3,107.8 98.35,108.5 97.64999999999999,112.0 95.19999999999999,116.89999999999999 93.44999999999999,118.3 92.75,117.94999999999999 92.39999999999999,116.19999999999999 92.39999999999999,116.89999999999999 91.35,117.24999999999999 91.35,116.19999999999999 92.75,114.8 92.39999999999999,113.74999999999999 93.44999999999999,113.39999999999999 93.8,112.0 93.1,113.39999999999999 92.39999999999999,112.69999999999999 92.75,113.05 92.05,113.74999999999999 92.75,114.44999999999999 90.64999999999999,116.55 89.6,115.49999999999999 89.25,110.6 88.19999999999999,110.25 88.89999999999999,110.25 89.6,111.64999999999999 89.6,115.85 91.0,116.89999999999999 90.3,117.6 92.39999999999999,117.24999999999999 93.44999999999999,118.64999999999999 92.39999999999999,119.35 91.69999999999999,118.64999999999999 89.94999999999999,118.3 89.6,119.35 88.19999999999999,117.94999999999999 87.85,116.19999999999999 88.89999999999999,113.74999999999999 87.85,117.24999999999999 88.19999999999999,118.3 89.25,118.99999999999999 87.5,120.05 86.8,119.35 87.5,118.64999999999999 86.8,117.24999999999999 87.14999999999999,120.05 89.94999999999999,119.35 90.64999999999999,118.64999999999999 94.14999999999999,119.69999999999999 94.14999999999999,118.99999999999999 93.8,119.69999999999999 92.75,119.35 95.19999999999999,117.24999999999999 97.3,113.05 98.35,107.44999999999999 99.05,106.39999999999999 98.69999999999999,105.69999999999999 99.39999999999999,104.64999999999999 99.05,102.55" stroke="#aaa" stroke-width="1" /><polyline fill="none" points="118.64999999999999,116.55 119.35,118.3 122.85,120.74999999999999 123.55,123.19999999999999 125.64999999999999,124.94999999999999 128.79999999999998,125.99999999999999 133.0,126.35 136.14999999999998,125.64999999999999 142.45,122.85 143.5,122.85 144.2,122.14999999999999 145.6,122.14999999999999 143.85,122.14999999999999 136.14999999999998,125.64999999999999 133.0,126.35 127.05,125.64999999999999 125.3,124.24999999999999 125.64999999999999,122.14999999999999 125.3,124.24999999999999 123.19999999999999,122.49999999999999 123.55,122.14999999999999 122.14999999999999,119.69999999999999 122.49999999999999,119.35 126.35,118.64999999999999 129.5,119.35 135.1,118.99999999999999 140.35,120.74999999999999 145.95,121.44999999999999 142.1,121.1 135.1,118.99999999999999 129.5,119.35 126.35,118.64999999999999 121.8,119.69999999999999 119.35,117.94999999999999 120.74999999999999,116.55 119.35,117.6" stroke="#aaa" stroke-width="1" /><polyline fill="none" points="123.55,90.64999999999999 122.85,91.35 124.24999999999999,91.35 125.3,92.05 124.6,92.75 123.55,92.75 123.89999999999999,93.1 125.99999999999999,92.75 127.74999999999999,94.5 127.39999999999999,95.89999999999999 125.3,95.19999999999999 125.3,96.25 126.35,96.25 126.69999999999999,95.55 127.74999999999999,96.25 127.74999999999999,94.5 125.99999999999999,92.05 123.89999999999999,91.35 123.89999999999999,90.64999999999999 127.05,91.35 128.45,93.1 129.15,95.19999999999999 126.69999999999999,102.55 126.69999999999999,104.3 125.64999999999999,105.35 125.64999999999999,106.05 127.39999999999999,104.3 126.69999999999999,103.94999999999999 126.69999999999999,102.55 127.39999999999999,101.85 127.74999999999999,99.05 128.45,98.35 129.15,95.19999999999999 128.45,92.75 127.39999999999999,91.35" stroke="#aaa" stroke-width="1" /><polyline fill="none" points="118.3,126.35 119.35,127.74999999999999 120.05,130.54999999999998 121.44999999999999,131.6 124.6,135.79999999999998 127.05,137.89999999999998 131.95,140.0 134.75,139.29999999999998 136.14999999999998,139.64999999999998 139.64999999999998,138.6 141.04999999999998,137.54999999999998 142.45,137.54999999999998 143.14999999999998,136.85 137.54999999999998,139.29999999999998 136.5,139.29999999999998 135.79999999999998,138.6 136.5,139.29999999999998 136.14999999999998,139.64999999999998 129.85,139.29999999999998 124.6,135.45 121.44999999999999,131.25 120.05,130.2 119.35,128.79999999999998 119.69999999999999,127.05 119.35,127.39999999999999" stroke="#aaa" stroke-width="1" /><polyline fill="none" points="66.85,110.6 67.19999999999999,110.94999999999999 67.19999999999999,110.25 68.94999999999999,110.25 69.3,110.94999999999999 71.05,111.3 71.75,112.35 74.89999999999999,113.39999999999999 77.35,113.39999999999999 79.1,112.35 81.19999999999999,113.05 80.14999999999999,113.39999999999999 79.44999999999999,113.05 85.39999999999999,113.05 86.44999999999999,114.1 86.44999999999999,116.55 85.75,117.24999999999999 84.69999999999999,116.89999999999999 85.75,117.24999999999999 85.75,118.99999999999999 84.35,120.05 84.35,118.64999999999999 84.0,120.05 82.6,120.39999999999999 82.94999999999999,121.44999999999999 81.89999999999999,123.55 82.6,121.8 83.64999999999999,121.44999999999999 83.64999999999999,120.39999999999999 85.75,119.35 85.75,117.6 86.8,115.85 86.44999999999999,113.74999999999999 85.39999999999999,113.05 82.94999999999999,113.39999999999999 82.25,112.69999999999999 78.75,112.69999999999999 69.64999999999999,109.55 68.94999999999999,110.25" stroke="#aaa" stroke-width="1" /><polyline fill="none" points="92.39999999999999,132.29999999999998 92.39999999999999,133.35 93.8,135.79999999999998 93.44999999999999,136.5 95.19999999999999,137.54999999999998 94.85,138.6 95.55,141.04999999999998 96.25,141.75 95.89999999999999,142.79999999999998 96.6,142.79999999999998 96.6,144.2 98.0,147.0 102.19999999999999,152.95 104.3,158.2 104.3,159.6 105.0,159.6 104.3,159.25 103.94999999999999,156.79999999999998 102.19999999999999,152.6 99.39999999999999,149.1 96.6,143.85 94.85,138.6 95.55,137.2 94.85,137.2 93.8,136.14999999999998 93.8,135.45 94.5,135.1 94.14999999999999,134.75 95.19999999999999,134.39999999999998 94.5,134.39999999999998 93.8,135.45 92.39999999999999,133.35" stroke="#aaa" stroke-width="1" /><polyline fill="none" points="58.449999999999996,92.75 59.49999999999999,94.14999999999999 61.599999999999994,95.19999999999999 67.19999999999999,96.94999999999999 63.349999999999994,101.14999999999999 67.19999999999999,96.94999999999999 68.94999999999999,96.94999999999999 69.64999999999999,100.1 70.35,100.8 73.14999999999999,101.5 76.64999999999999,103.94999999999999 75.94999999999999,105.0 74.55,103.94999999999999 74.19999999999999,104.64999999999999 74.55,103.94999999999999 75.94999999999999,105.0 75.94999999999999,106.05 76.64999999999999,105.69999999999999 77.35,106.39999999999999 77.35,108.14999999999999 78.05,108.85 77.69999999999999,108.14999999999999 78.39999999999999,107.44999999999999 78.39999999999999,106.39999999999999 78.05,107.8 77.35,107.8 77.35,106.39999999999999 78.05,105.35 80.5,106.75 79.44999999999999,108.14999999999999 79.8,109.19999999999999 78.75,110.25 76.64999999999999,108.85 78.39999999999999,109.89999999999999 78.39999999999999,110.6 77.35,110.6 77.0,109.89999999999999 75.25,109.89999999999999 77.35,110.6 78.75,110.25 79.44999999999999,111.64999999999999 80.5,111.64999999999999 80.5,110.94999999999999 79.8,111.64999999999999 78.75,110.25 79.8,109.55 81.55,109.89999999999999 81.55,109.19999999999999 80.85,109.89999999999999 79.44999999999999,108.85 79.44999999999999,108.14999999999999 80.85,107.1 78.39999999999999,105.0 79.1,104.3 80.5,105.0 81.19999999999999,104.3 85.05,104.64999999999999 85.05,103.25 81.19999999999999,103.6 84.69999999999999,103.25 84.69999999999999,104.64999999999999 79.44999999999999,104.64999999999999 76.64999999999999,103.94999999999999 73.85,101.85 70.69999999999999,100.8 69.3,99.05 69.3,96.94999999999999 67.19999999999999,96.94999999999999 61.599999999999994,95.19999999999999" stroke="#aaa" stroke-width="1" /><polyline fill="none" points="59.849999999999994,77.35 60.9,78.05 67.19999999999999,79.1 67.55,79.44999999999999 66.5,79.8 68.6,79.44999999999999 68.94999999999999,79.8 68.25,80.14999999999999 69.64999999999999,79.8 72.44999999999999,80.85 74.89999999999999,82.6 73.5,83.3 72.44999999999999,82.6 74.55,84.35 74.55,85.05 74.89999999999999,84.35 73.5,83.3 74.55,82.94999999999999 75.94999999999999,84.0 74.55,82.94999999999999 75.25,82.6 81.19999999999999,87.14999999999999 85.39999999999999,87.14999999999999 85.75,87.85 86.44999999999999,87.14999999999999 86.44999999999999,89.25 87.14999999999999,90.3 88.19999999999999,89.94999999999999 87.14999999999999,89.6 88.55,88.55 89.25,89.94999999999999 90.64999999999999,90.64999999999999 92.39999999999999,90.64999999999999 93.44999999999999,89.94999999999999 95.19999999999999,91.35 94.85,92.05 95.89999999999999,92.75 97.64999999999999,92.75 97.64999999999999,92.05 99.05,91.35 98.0,91.35 97.3,92.75 95.89999999999999,92.75 94.85,91.69999999999999 96.25,91.35 95.89999999999999,90.3 92.75,88.19999999999999 94.14999999999999,87.85 96.94999999999999,89.94999999999999 98.0,89.6 96.94999999999999,89.94999999999999 94.14999999999999,87.85 91.69999999999999,88.19999999999999 89.6,87.5 89.6,88.19999999999999 87.85,88.55 87.14999999999999,89.6 86.44999999999999,89.25 86.8,87.5 88.55,86.44999999999999 92.75,86.44999999999999 99.05,87.5 99.05,86.1 98.35,85.39999999999999 98.35,84.35 99.05,84.35 98.69999999999999,83.64999999999999 98.69999999999999,87.5 92.75,86.44999999999999 88.19999999999999,86.44999999999999 87.5,87.14999999999999 86.8,86.44999999999999 85.75,86.44999999999999 85.39999999999999,87.14999999999999 81.19999999999999,87.14999999999999 77.0,83.3 72.44999999999999,80.85 67.55,79.1 62.65,78.39999999999999" stroke="#aaa" stroke-width="1" /><polyline fill="none" points="139.29999999999998,91.35 144.2,91.0 147.0,92.39999999999999 145.6,92.75 149.1,92.75 152.25,94.85 151.2,95.55 148.75,94.14999999999999 146.29999999999998,94.14999999999999 146.29999999999998,93.44999999999999 144.54999999999998,94.14999999999999 148.75,94.14999999999999 152.25,96.6 151.2,96.94999999999999 149.1,95.19999999999999 148.39999999999998,95.55 146.29999999999998,94.85 144.54999999999998,94.85 140.7,96.6 140.35,96.25 143.14999999999998,94.5 141.04999999999998,95.55 138.95,97.64999999999999 139.64999999999998,96.94999999999999 140.35,98.0 141.04999999999998,98.0 140.0,97.3 140.35,96.25 141.04999999999998,97.3 142.45,96.94999999999999 145.25,98.0 145.6,97.3 148.04999999999998,98.35 147.0,99.05 143.5,98.69999999999999 147.35,99.05 148.04999999999998,98.35 149.1,99.39999999999999 148.39999999999998,98.69999999999999 150.85,98.0 151.89999999999998,98.69999999999999 151.54999999999998,99.39999999999999 152.95,98.0 151.89999999999998,98.69999999999999 150.85,98.0 148.39999999999998,98.69999999999999 145.25,96.94999999999999 145.25,95.19999999999999 145.95,95.89999999999999 148.04999999999998,95.89999999999999 149.1,95.19999999999999 149.79999999999998,95.89999999999999 148.75,97.64999999999999 152.95,96.94999999999999 152.25,96.6 153.64999999999998,96.25 152.25,96.6 151.2,95.55 152.25,94.85 153.29999999999998,95.55 151.89999999999998,94.14999999999999 144.2,91.0" stroke="#aaa" stroke-width="1" /><polyline fill="none" points="82.94999999999999,94.5 82.94999999999999,90.64999999999999 82.6,91.0 81.55,89.6 81.89999999999999,88.89999999999999 82.6,88.89999999999999 82.25,87.85 79.8,87.85 78.75,88.89999999999999 78.05,88.55 75.25,92.39999999999999 72.8,94.5 74.19999999999999,94.5 71.75,95.89999999999999 68.25,96.25 65.45,95.55 59.849999999999994,92.05 62.3,94.14999999999999 68.25,96.25 71.75,95.89999999999999 74.19999999999999,94.85 74.89999999999999,95.55 74.55,97.64999999999999 74.89999999999999,95.55 73.85,94.14999999999999 78.05,88.89999999999999 79.44999999999999,88.55 79.8,89.25 75.94999999999999,93.44999999999999 79.8,89.6 80.14999999999999,87.85 81.89999999999999,87.85 82.6,88.55 81.55,88.89999999999999 81.55,89.94999999999999 82.6,91.0 82.25,94.5" stroke="#aaa" stroke-width="1" /><polyline fill="none" points="76.3,108.14999999999999 76.3,106.75 76.3,107.8 75.6,108.5 72.1,108.5 72.44999999999999,107.1 73.5,107.8 72.44999999999999,106.39999999999999 72.8,106.75 72.1,107.44999999999999 71.39999999999999,106.75 70.69999999999999,104.64999999999999 71.39999999999999,103.94999999999999 72.1,105.69999999999999 71.75,103.94999999999999 72.44999999999999,103.94999999999999 72.8,103.25 73.5,103.94999999999999 73.5,106.05 73.5,103.6 72.8,103.25 71.39999999999999,103.94999999999999 70.35,105.69999999999999 69.64999999999999,104.64999999999999 68.94999999999999,106.39999999999999 67.55,106.05 67.19999999999999,106.75 66.14999999999999,106.75 64.75,106.05 64.75,103.94999999999999 64.05,106.05 63.699999999999996,105.35 64.05,107.1 64.39999999999999,106.05 67.19999999999999,107.1 68.25,107.1 67.89999999999999,106.75 68.6,106.39999999999999 70.0,107.44999999999999 71.05,106.39999999999999 72.1,107.8 72.1,108.85 74.55,108.85" stroke="#aaa" stroke-width="1" /><polyline fill="none" points="63.699999999999996,108.5 65.8,110.6 66.14999999999999,111.64999999999999 67.55,112.35 69.64999999999999,112.0 73.85,115.49999999999999 76.64999999999999,116.19999999999999 79.44999999999999,115.49999999999999 80.14999999999999,117.6 80.14999999999999,115.49999999999999 75.94999999999999,114.44999999999999 77.69999999999999,115.85 76.64999999999999,116.19999999999999 73.5,115.14999999999999 72.8,114.1 71.75,114.1 70.35,112.35 68.94999999999999,112.0 68.25,110.94999999999999 68.94999999999999,112.0 68.6,112.35 66.5,111.64999999999999 64.75,109.19999999999999 66.14999999999999,108.85 67.19999999999999,109.55 68.6,109.55 67.19999999999999,109.55 66.5,108.85 65.45,108.85 65.1,108.14999999999999 69.64999999999999,108.14999999999999 64.39999999999999,107.8 65.1,108.14999999999999 64.75,109.19999999999999" stroke="#aaa" stroke-width="1" /><polyline fill="none" points="94.85,157.14999999999998 97.64999999999999,158.54999999999998 96.25,159.6 96.6,159.95 98.0,158.2 99.39999999999999,158.54999999999998 100.8,159.95 100.44999999999999,160.29999999999998 98.0,159.25 98.0,160.29999999999998 98.35,159.6 99.39999999999999,159.6 100.1,160.29999999999998 100.8,159.95 101.5,160.64999999999998 102.89999999999999,160.64999999999998 102.89999999999999,162.04999999999998 102.55,161.35 102.89999999999999,162.04999999999998 103.94999999999999,161.7 104.64999999999999,163.45 104.64999999999999,162.04999999999998 105.69999999999999,163.1 104.64999999999999,161.7 104.64999999999999,160.64999999999998 105.35,160.29999999999998 101.85,160.64999999999998 100.8,159.95 100.8,159.25 98.69999999999999,158.2 97.64999999999999,158.54999999999998 97.3,157.85 95.89999999999999,157.85" stroke="#aaa" stroke-width="1" /><polyline fill="none" points="62.3,120.05 62.99999999999999,121.1 62.3,121.8 61.24999999999999,120.74999999999999 62.3,122.14999999999999 61.949999999999996,122.85 61.24999999999999,122.85 62.3,123.89999999999999 61.949999999999996,122.85 62.65,122.49999999999999 62.99999999999999,123.55 64.39999999999999,124.24999999999999 63.699999999999996,124.94999999999999 63.349999999999994,124.6 64.05,128.45 62.99999999999999,128.79999999999998 62.3,127.74999999999999 62.65,127.39999999999999 61.599999999999994,128.45 60.9,128.1 62.3,128.1 62.99999999999999,129.5 65.8,127.05 67.19999999999999,128.45 67.19999999999999,130.54999999999998 68.25,130.54999999999998 67.89999999999999,130.2 68.6,129.15 67.89999999999999,129.15 67.89999999999999,130.2 67.19999999999999,129.85 67.19999999999999,128.1 66.14999999999999,127.39999999999999 66.14999999999999,125.3 65.8,124.6 65.1,124.94999999999999 62.99999999999999,123.19999999999999 62.3,121.8 62.99999999999999,120.74999999999999" stroke="#aaa" stroke-width="1" /><polyline fill="none" points="65.8,102.19999999999999 66.14999999999999,102.55 65.1,102.19999999999999 64.39999999999999,102.89999999999999 63.349999999999994,102.55 61.24999999999999,104.64999999999999 60.9,106.39999999999999 59.49999999999999,108.5 60.199999999999996,108.85 60.199999999999996,110.94999999999999 58.8,110.94999999999999 58.099999999999994,112.35 57.05,110.94999999999999 58.099999999999994,110.25 56.0,112.0 57.05,110.94999999999999 58.099999999999994,112.35 59.15,111.3 59.849999999999994,111.3 60.9,113.05 59.849999999999994,114.8 60.199999999999996,115.85 59.49999999999999,116.55 58.099999999999994,115.85 59.49999999999999,114.1 58.8,114.1 58.449999999999996,115.14999999999999 58.099999999999994,113.39999999999999 57.74999999999999,114.8 57.05,114.8 56.699999999999996,113.74999999999999 55.65,113.74999999999999 55.3,114.44999999999999 56.0,113.74999999999999 56.699999999999996,114.1 56.699999999999996,116.19999999999999 57.74999999999999,116.89999999999999 57.74999999999999,117.6 57.05,116.19999999999999 57.74999999999999,114.8 58.449999999999996,115.14999999999999 58.099999999999994,119.69999999999999 58.8,120.39999999999999 59.15,120.05 58.8,120.39999999999999 58.099999999999994,119.69999999999999 58.449999999999996,116.55 58.8,116.19999999999999 59.849999999999994,117.24999999999999 60.55,118.99999999999999 60.199999999999996,119.35 58.8,118.64999999999999 58.8,119.35 59.49999999999999,118.99999999999999 60.199999999999996,119.69999999999999 58.8,121.44999999999999 58.8,122.49999999999999 59.49999999999999,122.14999999999999 60.55,123.19999999999999 59.849999999999994,122.49999999999999 59.849999999999994,120.74999999999999 61.599999999999994,119.69999999999999 61.24999999999999,115.85 60.199999999999996,114.8 60.199999999999996,113.74999999999999 60.9,113.05 61.24999999999999,114.1 61.599999999999994,113.39999999999999 62.3,114.1 61.599999999999994,115.14999999999999 62.3,114.1 62.3,113.39999999999999 61.599999999999994,113.05 61.599999999999994,110.94999999999999 62.3,109.55 63.349999999999994,109.19999999999999 62.65,108.5 63.349999999999994,107.8 62.65,108.14999999999999 62.99999999999999,108.85 61.949999999999996,109.89999999999999 61.599999999999994,112.69999999999999 60.9,113.05 60.199999999999996,112.35 60.199999999999996,107.44999999999999 61.24999999999999,106.39999999999999 61.949999999999996,107.1 61.949999999999996,108.14999999999999 61.949999999999996,106.75 60.9,106.05 60.9,105.35 63.699999999999996,102.55 64.39999999999999,102.89999999999999" stroke="#aaa" stroke-width="1" /><polyline fill="none" points="139.64999999999998,62.3 138.95,62.99999999999999 138.25,62.3 137.89999999999998,62.99999999999999 137.2,62.3 137.54999999999998,61.949999999999996 136.14999999999998,62.99999999999999 135.45,62.3 134.39999999999998,62.3 135.79999999999998,62.65 133.7,64.05 132.29999999999998,62.99999999999999 132.65,62.65 131.25,62.65 129.5,64.39999999999999 127.05,64.39999999999999 132.65,64.39999999999999 133.35,65.1 134.04999999999998,63.699999999999996 135.45,64.39999999999999 137.54999999999998,64.05 138.25,62.99999999999999" stroke="#aaa" stroke-width="1" /><polyline fill="none" points="167.29999999999998,118.3 167.29999999999998,121.44999999999999 165.89999999999998,124.24999999999999 166.6,124.94999999999999 166.25,127.05 161.7,133.35 160.29999999999998,136.14999999999998 160.29999999999998,137.2 157.85,139.64999999999998 159.95,137.89999999999998 162.04999999999998,133.0 163.1,134.04999999999998 162.39999999999998,132.65 164.14999999999998,130.9 164.85,128.79999999999998 166.25,127.39999999999999 166.6,124.94999999999999 165.89999999999998,124.24999999999999 166.6,123.55 167.64999999999998,124.24999999999999 168.0,123.55 168.35,123.89999999999999 166.6,123.55 167.29999999999998,121.44999999999999" stroke="#aaa" stroke-width="1" /><polyline fill="none" points="132.29999999999998,140.7 135.1,142.79999999999998 137.2,145.6 140.35,148.39999999999998 139.64999999999998,149.1 138.95,148.39999999999998 140.35,150.5 143.5,159.95 145.95,164.85 145.6,165.54999999999998 145.95,165.89999999999998 145.95,164.85 146.64999999999998,165.54999999999998 145.95,166.95 146.64999999999998,167.64999999999998 145.95,168.35 146.64999999999998,167.64999999999998 146.29999999999998,166.6 150.5,163.45 149.45,163.45 150.5,162.75 150.85,160.64999999999998 150.14999999999998,160.64999999999998 150.85,160.64999999999998 150.85,162.04999999999998 150.14999999999998,162.75 150.14999999999998,161.35 149.79999999999998,162.75 147.7,164.5 147.0,164.5 148.39999999999998,163.79999999999998 149.1,164.14999999999998 147.0,165.89999999999998 144.89999999999998,163.1 145.6,162.75 146.29999999999998,163.79999999999998 146.64999999999998,162.04999999999998 145.95,161.0 146.64999999999998,162.04999999999998 145.95,163.1 144.2,161.7 144.2,160.64999999999998 143.5,159.95 143.14999999999998,157.85 140.0,150.14999999999998 140.35,149.79999999999998 139.64999999999998,149.79999999999998 140.35,148.39999999999998 141.75,148.75 142.79999999999998,149.79999999999998 142.79999999999998,150.5 141.75,150.85 142.79999999999998,150.85 142.1,148.75 140.7,148.39999999999998 137.2,145.25 135.45,142.79999999999998" stroke="#aaa" stroke-width="1" /><polyline fill="none" points="153.64999999999998,70.69999999999999 155.39999999999998,70.69999999999999 156.1,71.39999999999999 156.45,71.05 157.14999999999998,71.75 156.1,72.1 157.14999999999998,72.1 157.85,73.14999999999999 159.25,73.5 162.04999999999998,76.3 161.7,77.0 162.75,77.0 162.04999999999998,78.39999999999999 162.75,79.44999999999999 161.7,80.14999999999999 161.7,81.89999999999999 162.39999999999998,82.25 162.39999999999998,83.3 161.35,83.64999999999999 162.39999999999998,84.69999999999999 161.7,85.75 162.39999999999998,84.69999999999999 163.1,85.39999999999999 162.39999999999998,86.8 161.0,87.5 160.64999999999998,85.75 161.35,84.35 160.29999999999998,86.1 160.29999999999998,87.5 161.7,87.5 162.75,88.55 164.5,92.39999999999999 166.6,93.8 164.5,92.05 162.04999999999998,87.5 163.1,85.75 163.1,85.05 162.39999999999998,84.69999999999999 163.1,84.0 162.39999999999998,84.69999999999999 162.04999999999998,83.64999999999999 163.45,80.85 162.04999999999998,78.39999999999999 162.75,76.64999999999999 161.7,75.6 162.39999999999998,74.89999999999999 161.0,73.5 161.0,72.1 159.25,72.44999999999999 158.2,71.75 159.6,72.8 160.29999999999998,72.1 161.0,72.44999999999999 159.95,73.85 158.2,73.14999999999999 157.14999999999998,71.39999999999999 155.75,70.69999999999999" stroke="#aaa" stroke-width="1" /><polyline fill="none" points="36.75,115.49999999999999 36.05,117.24999999999999 36.4,116.89999999999999 36.75,117.6 35.349999999999994,122.85 34.65,130.9 35.349999999999994,133.0 35.349999999999994,136.85 37.449999999999996,145.6 39.199999999999996,149.79999999999998 45.5,160.29999999999998 45.849999999999994,161.7 48.3,164.5 53.9,176.75 54.949999999999996,178.14999999999998 55.65,178.14999999999998 59.849999999999994,171.5 80.5,150.85 81.89999999999999,145.6 81.55,144.89999999999998 85.05,138.6 85.05,136.5 85.75,136.5 85.39999999999999,136.14999999999998 84.69999999999999,137.2 81.55,139.29999999999998 80.5,138.95 77.35,139.64999999999998 75.6,141.39999999999998 71.75,142.45 64.39999999999999,140.0 62.65,140.35 61.949999999999996,139.64999999999998 60.55,140.0 56.349999999999994,139.29999999999998 54.949999999999996,138.6 53.55,136.5 51.8,135.79999999999998 49.699999999999996,133.7 49.699999999999996,133.0 48.65,132.65 46.199999999999996,130.2 42.699999999999996,121.1 42.349999999999994,116.19999999999999 41.65,115.14999999999999 41.65,115.85 40.25,116.89999999999999 40.599999999999994,117.94999999999999 39.9,120.39999999999999 40.599999999999994,116.89999999999999 41.65,115.85 42.349999999999994,116.19999999999999 42.699999999999996,121.1 46.199999999999996,130.54999999999998 48.3,132.65 49.0,132.65 51.449999999999996,135.79999999999998 53.199999999999996,136.5 54.599999999999994,138.6 55.65,138.6 56.0,139.29999999999998 62.65,140.35 64.39999999999999,140.0 65.45,140.7 66.85,140.7 67.55,141.39999999999998 68.94999999999999,141.39999999999998 69.64999999999999,142.1 67.89999999999999,142.45 72.1,142.45 73.5,141.75 75.94999999999999,142.1 74.89999999999999,141.75 76.3,141.04999999999998 77.35,139.64999999999998 80.5,138.95 80.85,140.0 81.19999999999999,139.29999999999998 81.89999999999999,139.64999999999998 81.55,139.29999999999998 84.69999999999999,137.2 85.05,137.54999999999998 85.05,138.6 81.55,144.54999999999998 81.89999999999999,145.6 80.5,150.5 59.849999999999994,171.14999999999998 56.0,177.45 54.949999999999996,177.79999999999998 48.3,164.14999999999998 45.849999999999994,161.35 37.449999999999996,145.6 35.349999999999994,136.85 34.65,127.74999999999999 36.4,118.3 37.099999999999994,117.24999999999999 39.55,116.55 36.75,117.24999999999999" stroke="#aaa" stroke-width="1" /><polyline fill="none" points="47.949999999999996,87.85 48.3,89.25 47.949999999999996,87.5 48.65,82.25 49.699999999999996,81.19999999999999 49.0,81.19999999999999 49.0,80.14999999999999 51.099999999999994,77.69999999999999 53.9,80.14999999999999 53.9,80.85 53.55,80.5 54.25,80.14999999999999 55.3,81.89999999999999 57.74999999999999,83.64999999999999 57.74999999999999,87.14999999999999 58.449999999999996,90.3 58.449999999999996,89.25 59.15,89.25 59.15,91.35 59.49999999999999,90.64999999999999 58.8,88.89999999999999 58.8,85.75 59.49999999999999,84.35 60.55,83.64999999999999 63.349999999999994,83.64999999999999 64.75,82.94999999999999 65.8,84.35 68.25,84.69999999999999 69.3,83.3 70.0,83.3 70.35,84.35 69.64999999999999,85.05 69.3,84.69999999999999 70.0,85.05 70.35,83.3 69.3,82.94999999999999 67.89999999999999,84.69999999999999 67.19999999999999,84.69999999999999 65.1,83.3 65.1,82.6 66.85,81.55 62.99999999999999,81.55 61.24999999999999,82.94999999999999 63.349999999999994,81.55 64.05,81.89999999999999 63.699999999999996,82.25 65.45,82.25 63.699999999999996,83.3 60.199999999999996,84.0 59.849999999999994,83.64999999999999 59.15,84.35 58.449999999999996,89.25 57.74999999999999,87.14999999999999 58.099999999999994,85.75 57.4,81.89999999999999 57.05,82.94999999999999 55.65,82.25 54.599999999999994,80.14999999999999 53.9,80.14999999999999 52.15,78.05 50.75,77.69999999999999 49.0,80.14999999999999 48.65,83.3 47.949999999999996,84.0 48.65,84.35" stroke="#aaa" stroke-width="1" /><polyline fill="none" points="52.15,89.94999999999999 52.15,90.64999999999999 50.05,93.44999999999999 50.4,95.19999999999999 48.65,98.0 48.65,98.69999999999999 49.0,97.64999999999999 50.4,99.05 49.349999999999994,100.44999999999999 49.349999999999994,102.89999999999999 50.05,103.25 49.0,106.05 49.699999999999996,106.39999999999999 50.05,107.8 49.349999999999994,108.5 50.05,109.55 49.349999999999994,108.5 50.4,107.8 49.349999999999994,105.69999999999999 50.05,103.25 49.349999999999994,101.85 49.699999999999996,100.1 50.4,100.1 50.75,98.69999999999999 51.449999999999996,99.39999999999999 51.449999999999996,98.35 50.05,97.3 49.699999999999996,96.25 50.4,95.55 50.05,93.8 50.75,92.05 51.8,91.35" stroke="#aaa" stroke-width="1" /><polyline fill="none" points="118.64999999999999,67.19999999999999 118.99999999999999,67.89999999999999 118.99999999999999,67.19999999999999 122.14999999999999,65.8 127.74999999999999,60.55 129.15,59.849999999999994 138.6,57.74999999999999 139.29999999999998,57.05 144.2,55.65 146.64999999999998,55.65 147.7,54.949999999999996 151.2,54.949999999999996 152.25,56.0 154.7,56.349999999999994 156.45,56.0 162.75,59.849999999999994 169.39999999999998,65.1 171.5,68.25 173.95,69.64999999999999 173.6,71.05 177.1,74.55 179.2,81.19999999999999 187.6,91.0 187.25,91.69999999999999 187.95,92.39999999999999 187.6,93.44999999999999 189.35,101.14999999999999 189.35,106.39999999999999 189.35,101.85 189.7,101.5 190.39999999999998,102.89999999999999 190.04999999999998,117.24999999999999 192.5,123.19999999999999 190.04999999999998,117.24999999999999 190.04999999999998,97.64999999999999 189.0,93.8 187.25,91.35 187.6,90.64999999999999 179.2,80.85 177.1,75.6 177.45,74.55 173.6,70.69999999999999 173.6,68.94999999999999 171.85,68.25 169.75,65.1 163.1,59.849999999999994 156.45,56.0 154.7,56.349999999999994 152.6,56.0 151.2,54.949999999999996 147.7,54.949999999999996 146.64999999999998,55.65 144.2,55.65 137.2,58.099999999999994 134.04999999999998,58.449999999999996 128.1,60.199999999999996 121.8,65.8" stroke="#aaa" stroke-width="1" /><polyline fill="none" points="179.2,103.94999999999999 178.85,104.64999999999999 178.5,104.3 179.54999999999998,106.05 179.54999999999998,108.85 178.85,110.94999999999999 176.75,114.8 173.95,117.6 174.64999999999998,121.44999999999999 173.6,121.44999999999999 173.95,121.8 173.25,122.14999999999999 172.54999999999998,120.05 171.14999999999998,118.64999999999999 173.25,122.14999999999999 172.2,123.55 174.64999999999998,121.44999999999999 174.64999999999998,120.39999999999999 175.35,121.1 175.35,120.39999999999999 177.1,118.99999999999999 177.1,120.39999999999999 176.04999999999998,121.8 178.14999999999998,118.99999999999999 177.79999999999998,118.3 177.79999999999998,119.35 176.04999999999998,118.64999999999999 176.39999999999998,118.99999999999999 174.64999999999998,120.39999999999999 173.95,117.94999999999999 176.75,115.14999999999999 178.85,111.3 179.54999999999998,108.85 179.54999999999998,106.05 178.85,104.64999999999999" stroke="#aaa" stroke-width="1" /><polyline fill="none" points="54.599999999999994,70.0 51.8,72.1 51.8,73.14999999999999 54.949999999999996,75.94999999999999 54.25,76.3 53.9,75.94999999999999 55.3,75.94999999999999 57.4,77.69999999999999 57.05,80.5 58.449999999999996,80.85 57.05,80.14999999999999 57.4,79.1 57.74999999999999,79.8 58.8,79.8 59.849999999999994,80.85 59.15,83.3 58.449999999999996,83.64999999999999 59.15,83.64999999999999 59.849999999999994,81.19999999999999 61.24999999999999,79.8 59.849999999999994,80.85 58.449999999999996,79.1 57.74999999999999,79.44999999999999 57.05,78.75 57.4,77.35 54.25,75.25 51.8,72.8" stroke="#aaa" stroke-width="1" /><polyline fill="none" points="172.2,129.5 172.54999999999998,132.29999999999998 171.85,139.64999999999998 169.75,146.64999999999998 166.95,151.2 162.04999999999998,156.1 160.64999999999998,156.45 162.75,156.79999999999998 166.25,153.29999999999998 166.95,154.0 165.89999999999998,155.04999999999998 166.25,155.75 165.54999999999998,157.14999999999998 164.5,157.85 164.5,158.54999999999998 165.54999999999998,158.54999999999998 166.95,157.14999999999998 168.0,154.7 169.75,152.95 170.45,153.29999999999998 170.1,151.89999999999998 169.04999999999998,151.2 169.75,150.5 168.7,151.54999999999998 168.0,151.2 172.54999999999998,144.2 171.85,143.5 172.54999999999998,143.14999999999998 172.89999999999998,141.75 172.54999999999998,138.6 173.25,136.14999999999998 172.89999999999998,134.39999999999998 173.6,133.0 173.6,130.54999999999998 172.54999999999998,138.25 172.89999999999998,140.35 172.2,140.7 172.89999999999998,141.39999999999998 172.54999999999998,142.79999999999998 171.5,143.5 172.2,143.85 172.2,144.54999999999998 171.5,145.6 170.79999999999998,145.6 171.14999999999998,145.95 167.64999999999998,151.54999999999998 169.75,151.54999999999998 170.1,152.6 168.0,154.35 165.89999999999998,158.2 164.5,158.2 166.25,156.1 165.89999999999998,155.39999999999998 169.04999999999998,152.25 168.0,152.25 168.35,152.6 166.95,154.0 166.25,153.29999999999998 166.95,152.6 166.6,151.54999999999998 168.7,148.75 171.14999999999998,142.79999999999998 170.79999999999998,142.45 171.85,139.64999999999998 172.54999999999998,133.7" stroke="#aaa" stroke-width="1" /><polyline fill="none" points="157.85,154.35 155.04999999999998,158.89999999999998 154.7,161.0 154.0,161.35 154.0,162.75 153.29999999999998,163.45 154.35,163.45 153.64999999999998,166.25 151.89999999999998,169.04999999999998 152.25,171.14999999999998 151.2,171.5 152.25,171.5 153.29999999999998,170.1 153.64999999999998,171.14999999999998 155.39999999999998,171.5 155.39999999999998,169.75 154.7,171.5 153.29999999999998,170.1 152.25,170.79999999999998 151.89999999999998,169.39999999999998 153.64999999999998,166.6 153.64999999999998,164.85 155.04999999999998,162.39999999999998 155.04999999999998,159.25 156.79999999999998,156.79999999999998 157.5,157.14999999999998 157.85,156.45 157.14999999999998,157.14999999999998 156.79999999999998,156.45" stroke="#aaa" stroke-width="1" /><polyline fill="none" points="177.79999999999998,147.35 175.0,150.85 173.95,150.5 174.29999999999998,149.79999999999998 173.6,148.75 173.95,149.79999999999998 172.89999999999998,150.5 173.25,151.89999999999998 171.14999999999998,153.29999999999998 172.89999999999998,152.6 173.95,151.2 175.35,150.85 177.79999999999998,148.04999999999998" stroke="#aaa" stroke-width="1" /><polyline fill="none" points="48.3,68.6 47.25,69.64999999999999 47.25,70.35 47.599999999999994,69.64999999999999 48.3,70.0 47.949999999999996,72.8 49.0,75.94999999999999 48.65,76.3 49.0,75.94999999999999 50.05,77.0 49.699999999999996,77.35 50.05,76.64999999999999 48.65,75.25 49.699999999999996,72.1 51.449999999999996,73.85 48.65,70.69999999999999 49.0,68.94999999999999" stroke="#aaa" stroke-width="1" /><polyline fill="none" points="73.5,42.699999999999996 74.89999999999999,43.05 76.3,44.8 75.94999999999999,47.25 76.64999999999999,47.25 76.64999999999999,46.199999999999996 76.64999999999999,46.9 75.94999999999999,46.9 76.3,44.449999999999996 75.25,43.05 74.19999999999999,42.699999999999996 74.89999999999999,41.65 77.35,44.099999999999994 77.69999999999999,43.4 78.75,44.099999999999994 78.75,47.949999999999996 79.1,47.599999999999994 79.8,48.65 81.55,46.9 81.89999999999999,47.25 81.89999999999999,44.8 83.3,45.15 82.94999999999999,45.5 83.64999999999999,46.9 82.94999999999999,46.9 82.6,47.599999999999994 82.94999999999999,46.9 83.3,47.599999999999994 83.64999999999999,46.9 82.94999999999999,45.5 83.3,44.8 81.55,44.8 80.5,43.05 79.8,43.75 79.8,45.15 80.14999999999999,45.5 79.8,44.099999999999994 80.5,43.4 81.55,45.15 79.44999999999999,47.599999999999994 78.75,46.9 79.1,42.699999999999996 78.39999999999999,43.75 77.35,43.75 75.6,41.65 74.55,41.65 74.55,42.349999999999994" stroke="#aaa" stroke-width="1" /><polyline fill="none" points="48.3,56.0 48.3,58.449999999999996 47.25,61.599999999999994 47.599999999999994,62.99999999999999 46.199999999999996,64.75 44.8,69.3 44.8,73.85 44.099999999999994,74.19999999999999 43.75,73.5 41.3,74.89999999999999 39.9,79.1 40.599999999999994,84.69999999999999 40.599999999999994,93.1 41.3,94.5 43.75,96.6 43.4,101.14999999999999 41.65,102.19999999999999 41.65,103.25 40.599999999999994,105.0 41.65,103.6 41.65,102.55 43.4,101.14999999999999 44.449999999999996,92.39999999999999 46.199999999999996,88.89999999999999 47.25,78.39999999999999 46.199999999999996,75.6 44.8,74.19999999999999 44.449999999999996,71.39999999999999 45.849999999999994,65.8 47.949999999999996,62.3 47.25,61.599999999999994 48.3,58.449999999999996" stroke="#aaa" stroke-width="1" /><polyline fill="none" points="78.75,166.95 76.3,167.64999999999998 75.25,168.7 69.64999999999999,168.0 69.3,168.7 67.19999999999999,169.39999999999998 65.45,169.04999999999998 60.9,171.85 65.45,169.39999999999998 67.55,169.39999999999998 71.39999999999999,168.0 72.44999999999999,168.35 71.05,170.1 70.35,172.54999999999998 66.5,178.14999999999998 65.8,180.25 64.75,180.95 63.349999999999994,184.1 62.3,184.79999999999998 61.949999999999996,184.45 62.3,185.14999999999998 63.699999999999996,183.75 64.75,181.29999999999998 65.8,180.6 67.19999999999999,177.45 67.89999999999999,176.75 68.25,177.1 67.89999999999999,176.04999999999998 70.35,172.89999999999998 71.05,170.45 72.44999999999999,169.04999999999998 73.5,169.39999999999998 72.8,169.39999999999998 72.8,168.7 76.64999999999999,168.7 75.94999999999999,168.0 76.3,167.64999999999998 77.69999999999999,167.64999999999998" stroke="#aaa" stroke-width="1" /><polyline fill="none" points="74.55,50.4 73.14999999999999,50.05 72.1,51.099999999999994 69.64999999999999,48.3 71.39999999999999,50.4 70.0,51.449999999999996 68.94999999999999,51.099999999999994 68.25,51.8 67.55,51.449999999999996 67.19999999999999,52.15 64.39999999999999,52.15 63.699999999999996,52.849999999999994 62.3,51.099999999999994 62.65,51.449999999999996 61.599999999999994,52.15 62.99999999999999,51.8 63.699999999999996,52.849999999999994 62.99999999999999,53.55 60.55,54.25 60.199999999999996,53.55 61.24999999999999,52.849999999999994 60.55,52.5 60.55,53.199999999999996 58.099999999999994,53.199999999999996 59.849999999999994,53.199999999999996 60.55,54.25 57.05,56.0 58.8,54.949999999999996 59.849999999999994,55.3 64.75,52.15 68.6,52.15 69.3,51.099999999999994 71.05,51.8 70.35,51.449999999999996 70.69999999999999,50.75 71.39999999999999,50.75 72.1,51.8 73.14999999999999,51.8 73.5,51.449999999999996 72.44999999999999,51.8 72.1,51.099999999999994 73.5,50.05" stroke="#aaa" stroke-width="1" /><polyline fill="none" points="187.25,137.2 184.79999999999998,138.6 182.7,140.7 178.85,140.7 182.35,138.25 178.5,140.7 179.2,141.04999999999998 178.5,141.39999999999998 180.6,140.7 183.04999999999998,140.7 183.75,140.0 184.45,140.7 180.95,143.14999999999998 178.85,142.1 179.89999999999998,142.79999999999998 178.14999999999998,144.2 178.14999999999998,145.95 177.1,146.29999999999998 176.75,147.35 177.45,146.29999999999998 178.14999999999998,146.29999999999998 177.79999999999998,145.6 178.5,144.89999999999998 180.6,144.2 182.7,141.75 184.45,141.04999999999998 185.85,139.64999999999998 186.54999999999998,140.0 185.14999999999998,140.0 184.45,139.29999999999998 185.14999999999998,138.6 185.5,138.95 186.2,137.89999999999998 186.54999999999998,138.6 186.2,137.89999999999998" stroke="#aaa" stroke-width="1" /><polyline fill="none" points="182.35,146.29999999999998 178.85,149.79999999999998 175.7,154.35 175.35,153.29999999999998 178.5,148.75 181.29999999999998,146.29999999999998 180.6,146.29999999999998 178.5,148.39999999999998 174.29999999999998,155.39999999999998 175.35,154.35 175.35,156.1 176.04999999999998,153.64999999999998 178.85,150.14999999999998 182.35,147.0" stroke="#aaa" stroke-width="1" /><polyline fill="none" points="63.349999999999994,54.599999999999994 56.699999999999996,59.15 56.349999999999994,58.449999999999996 58.099999999999994,57.05 56.0,58.099999999999994 56.349999999999994,59.49999999999999 58.099999999999994,58.449999999999996 58.8,58.8 58.8,59.849999999999994 57.05,61.24999999999999 56.349999999999994,60.9 55.3,61.599999999999994 54.599999999999994,60.9 56.0,60.199999999999996 55.3,59.15 54.25,59.49999999999999 54.25,58.449999999999996 53.9,59.15 55.3,59.15 55.65,60.199999999999996 54.25,60.9 52.5,60.9 54.599999999999994,60.9 55.3,61.599999999999994 54.949999999999996,61.949999999999996 53.199999999999996,61.949999999999996 54.25,61.949999999999996 54.599999999999994,62.65 52.5,64.05 50.05,64.75 49.0,66.14999999999999 48.65,65.45 49.349999999999994,64.39999999999999 48.65,64.05 49.349999999999994,64.39999999999999 48.65,66.5 49.349999999999994,66.5 50.75,64.39999999999999 53.199999999999996,63.699999999999996 54.25,64.05 53.55,63.699999999999996 54.599999999999994,62.99999999999999 54.599999999999994,62.3 58.449999999999996,60.55 58.449999999999996,58.449999999999996" stroke="#aaa" stroke-width="1" /><polyline fill="none" points="70.35,36.75 71.39999999999999,36.05 73.14999999999999,36.05 75.94999999999999,38.849999999999994 76.64999999999999,38.849999999999994 77.0,37.449999999999996 78.05,36.4 80.85,36.05 82.6,36.4 83.3,37.449999999999996 81.55,38.15 80.5,37.449999999999996 80.5,38.15 82.6,37.8 84.35,38.5 84.35,37.449999999999996 84.0,38.5 82.94999999999999,37.8 83.64999999999999,36.75 83.3,37.099999999999994 81.89999999999999,34.65 80.14999999999999,33.599999999999994 81.19999999999999,33.25 86.1,37.8 85.39999999999999,38.5 87.14999999999999,38.849999999999994 87.14999999999999,39.9 88.19999999999999,39.9 87.14999999999999,39.9 87.14999999999999,38.849999999999994 92.75,39.9 96.25,42.0 95.89999999999999,42.349999999999994 96.6,42.0 97.3,42.699999999999996 96.6,43.4 96.94999999999999,44.099999999999994 98.69999999999999,44.099999999999994 97.3,44.099999999999994 97.3,42.349999999999994 93.8,40.25 86.44999999999999,38.5 81.55,33.25 80.14999999999999,33.25 80.14999999999999,33.949999999999996 80.85,33.949999999999996 82.6,36.05 77.69999999999999,36.4 76.3,38.849999999999994 73.5,36.05 71.05,36.05" stroke="#aaa" stroke-width="1" /><polyline fill="none" points="178.5,156.79999999999998 178.14999999999998,157.85 177.1,157.85 175.35,160.29999999999998 175.0,161.7 177.1,158.2 177.79999999999998,158.89999999999998 177.1,160.64999999999998 176.39999999999998,161.35 176.04999999999998,161.0 176.39999999999998,161.35 175.0,163.1 174.64999999999998,164.5 173.25,164.5 172.54999999999998,165.89999999999998 170.45,167.64999999999998 169.75,169.75 169.04999999999998,170.45 168.7,169.75 168.35,171.14999999999998 167.29999999999998,172.2 166.6,171.5 168.35,169.04999999999998 168.0,168.35 169.39999999999998,165.54999999999998 170.45,165.54999999999998 169.04999999999998,165.54999999999998 168.7,167.29999999999998 168.0,168.0 168.35,168.7 166.6,171.85 165.54999999999998,171.85 164.5,175.7 164.85,173.6 165.89999999999998,171.85 166.6,172.89999999999998 166.25,173.6 169.39999999999998,170.45 170.79999999999998,167.64999999999998 172.54999999999998,166.95 172.89999999999998,167.64999999999998 171.85,168.35 172.89999999999998,168.0 175.0,163.45 177.1,161.0" stroke="#aaa" stroke-width="1" /><polyline fill="none" points="188.64999999999998,115.49999999999999 189.35,116.55 189.35,117.94999999999999 188.64999999999998,118.64999999999999 189.0,118.99999999999999 188.29999999999998,119.35 187.95,118.64999999999999 187.95,119.35 188.64999999999998,119.69999999999999 189.0,122.14999999999999 188.64999999999998,120.05 189.35,119.69999999999999 190.04999999999998,120.74999999999999 190.04999999999998,122.85 191.79999999999998,124.24999999999999 201.95,128.79999999999998 203.35,128.79999999999998 205.45,129.85 205.45,130.54999999999998 206.85,130.54999999999998 191.1,123.55 189.7,121.8 189.7,119.35 188.64999999999998,119.35 189.35,117.94999999999999 189.35,116.55" stroke="#aaa" stroke-width="1" /><polyline fill="none" points="160.64999999999998,177.1 159.95,177.1 157.5,179.2 157.5,180.95 160.64999999999998,178.14999999999998" stroke="#aaa" stroke-width="1" /><polyline fill="none" points="56.0,43.4 47.599999999999994,44.099999999999994 44.449999999999996,43.75 10.85,44.8 10.85,120.74999999999999 13.299999999999999,120.74999999999999 28.0,117.24999999999999 36.75,109.55 39.55,107.8 42.0,107.1 43.05,105.0 42.349999999999994,106.05 41.65,105.0 43.75,102.19999999999999 42.699999999999996,102.89999999999999 41.65,104.64999999999999 41.3,106.75 40.25,107.8 36.4,109.55 27.65,117.24999999999999 13.299999999999999,120.74999999999999 10.85,120.39999999999999 10.85,45.15 12.25,44.449999999999996 44.449999999999996,43.75 47.599999999999994,44.099999999999994 53.199999999999996,43.4 56.0,43.75 56.349999999999994,44.099999999999994 55.65,44.8 52.849999999999994,45.849999999999994 49.699999999999996,48.3 50.4,49.0 49.0,51.099999999999994 47.599999999999994,51.099999999999994 47.599999999999994,51.8 47.949999999999996,51.099999999999994 49.0,51.449999999999996 47.25,53.9 47.949999999999996,54.599999999999994 47.25,56.699999999999996 46.199999999999996,57.4 47.25,57.05 47.25,56.0 48.65,54.25 48.65,53.199999999999996 47.949999999999996,54.599999999999994 47.599999999999994,53.55 50.05,49.699999999999996 53.9,46.9 52.5,47.599999999999994 52.15,47.25 53.199999999999996,45.849999999999994 56.699999999999996,44.099999999999994" stroke="#aaa" stroke-width="1" /><polyline fill="none" points="199.5,148.04999999999998 195.64999999999998,148.39999999999998 194.25,149.79999999999998 192.85,149.79999999999998 189.0,152.25 185.85,148.04999999999998 184.1,149.1 184.1,149.79999999999998 182.35,151.2 183.04999999999998,151.89999999999998 178.5,158.54999999999998 179.2,160.29999999999998 179.89999999999998,159.6 179.2,159.6 178.5,158.54999999999998 179.89999999999998,156.79999999999998 180.6,156.79999999999998 179.89999999999998,156.1 180.95,156.1 180.25,155.75 181.64999999999998,154.0 182.0,154.35 181.64999999999998,154.0 183.04999999999998,151.89999999999998 183.04999999999998,150.85 184.1,150.14999999999998 185.14999999999998,150.5 186.2,151.54999999999998 186.2,152.95 186.54999999999998,152.6 185.85,150.85 184.1,150.14999999999998 184.79999999999998,148.75 185.85,148.39999999999998 186.89999999999998,149.45 186.89999999999998,151.2 187.6,150.5 189.0,152.25 187.6,152.95 188.64999999999998,152.95 190.39999999999998,151.2 192.85,149.79999999999998 194.25,149.79999999999998 195.64999999999998,148.39999999999998" stroke="#aaa" stroke-width="1" /><polyline fill="none" points="195.29999999999998,137.89999999999998 194.95,137.54999999999998 192.85,138.6 191.1,140.7 188.64999999999998,142.1 188.29999999999998,143.5 187.25,143.85 189.35,143.14999999999998 188.64999999999998,142.79999999999998 189.0,142.1 190.04999999999998,143.14999999999998 193.2,142.45 191.79999999999998,141.75 190.39999999999998,142.1 190.04999999999998,141.39999999999998 191.45,140.7 193.2,138.6" stroke="#aaa" stroke-width="1" /><polyline fill="none" points="191.1,125.64999999999999 191.45,127.05 193.2,128.45 192.85,129.15 192.14999999999998,128.79999999999998 191.1,129.85 192.85,130.2 193.89999999999998,132.29999999999998 201.6,134.39999999999998 205.45,137.2 204.39999999999998,135.79999999999998 201.6,134.39999999999998 194.25,132.29999999999998 192.85,130.2 193.54999999999998,128.79999999999998 192.85,127.74999999999999 193.54999999999998,127.05 194.25,127.39999999999999 194.25,128.1 194.25,127.39999999999999 192.5,125.64999999999999 192.5,126.35 193.54999999999998,127.05 192.5,127.74999999999999" stroke="#aaa" stroke-width="1" /><polyline fill="none" points="176.75,162.39999999999998 176.04999999999998,164.85 175.0,165.54999999999998 173.6,168.0 173.95,168.7 172.54999999999998,169.75 170.45,175.0 166.25,182.35 166.25,183.75 165.2,184.45 164.14999999999998,187.25 162.39999999999998,189.35 162.75,189.7 164.85,186.89999999999998 164.14999999999998,186.54999999999998 165.54999999999998,185.5 165.2,184.79999999999998 165.89999999999998,184.1 166.25,184.79999999999998 166.25,182.7 169.39999999999998,177.45 171.14999999999998,172.89999999999998 172.54999999999998,171.14999999999998 172.54999999999998,170.1 173.95,169.04999999999998 173.6,168.35 174.29999999999998,167.64999999999998 174.64999999999998,168.35 175.0,167.64999999999998 174.29999999999998,167.29999999999998 175.35,165.54999999999998 175.7,166.25 176.04999999999998,164.5 176.75,163.79999999999998" stroke="#aaa" stroke-width="1" /><polyline fill="none" points="187.95,153.64999999999998 186.54999999999998,154.35 184.45,156.79999999999998 183.04999999999998,156.45 182.7,157.14999999999998 183.39999999999998,156.45 184.1,156.79999999999998 182.0,159.6 180.6,159.6 178.85,161.35 180.6,159.95 181.64999999999998,160.29999999999998 179.89999999999998,162.04999999999998 176.39999999999998,169.04999999999998 175.35,170.1 171.14999999999998,180.95 170.45,181.64999999999998 170.79999999999998,182.0 170.1,182.7 170.45,183.39999999999998 169.75,183.75 169.75,185.5 168.35,187.6 169.75,186.2 169.39999999999998,185.14999999999998 170.45,183.75 170.1,183.04999999999998 171.14999999999998,182.0 170.79999999999998,181.64999999999998 171.85,178.5 173.6,175.35 174.64999999999998,171.85 175.35,171.14999999999998 175.7,171.5 175.35,170.1 176.39999999999998,169.04999999999998 180.25,161.7 182.0,160.29999999999998 181.64999999999998,159.95 183.39999999999998,157.85 183.75,158.54999999999998 184.45,158.2 184.1,158.54999999999998 183.39999999999998,157.85 183.75,157.14999999999998 184.79999999999998,156.79999999999998" stroke="#aaa" stroke-width="1" /><polyline fill="none" points="65.1,37.8 64.75,37.449999999999996 60.199999999999996,39.199999999999996 58.449999999999996,40.599999999999994 58.8,40.949999999999996 58.099999999999994,42.349999999999994 57.4,42.0 57.74999999999999,41.65 53.55,41.65 52.5,42.699999999999996 53.199999999999996,42.699999999999996 53.9,41.65 55.65,41.65 58.099999999999994,42.349999999999994 58.099999999999994,43.05 56.699999999999996,43.05 59.49999999999999,42.349999999999994 59.849999999999994,41.3 61.599999999999994,40.25 60.199999999999996,40.949999999999996 59.49999999999999,40.25 60.55,39.199999999999996 64.75,37.449999999999996" stroke="#aaa" stroke-width="1" /><polyline fill="none" points="24.849999999999998,138.95 25.549999999999997,141.75 26.599999999999998,142.1 25.549999999999997,138.95" stroke="#aaa" stroke-width="1" /><polyline fill="none" points="25.9,118.99999999999999 25.2,118.99999999999999 24.849999999999998,120.05 23.45,121.1 19.599999999999998,125.99999999999999 18.549999999999997,124.6 19.599999999999998,126.35 18.2,128.1 17.849999999999998,127.74999999999999 17.849999999999998,130.2 17.15,130.9 16.45,130.2 17.15,130.9 17.15,132.29999999999998 16.099999999999998,134.75 17.15,131.25 18.549999999999997,129.15 18.2,128.45 23.45,121.44999999999999" stroke="#aaa" stroke-width="1" /><polyline fill="none" points="51.8,189.7 50.75,189.7 49.699999999999996,190.75 49.699999999999996,193.89999999999998 51.8,193.89999999999998 52.5,192.14999999999998 52.5,190.39999999999998" stroke="#aaa" stroke-width="1" /><polyline fill="none" points="29.749999999999996,152.95 31.15,153.64999999999998 31.15,155.04999999999998 32.199999999999996,154.35 36.4,159.25 37.8,168.0 38.5,169.39999999999998 38.5,171.85 39.9,176.04999999999998 39.9,177.45 39.199999999999996,177.79999999999998 40.25,178.14999999999998 38.849999999999994,178.5 40.25,178.85 39.9,179.2 40.599999999999994,179.89999999999998 45.15,201.6 46.199999999999996,203.7 45.15,204.75 46.199999999999996,204.75 46.9,208.6 47.949999999999996,208.95 47.599999999999994,209.64999999999998 46.9,209.64999999999998 46.9,211.04999999999998 46.199999999999996,211.75 45.849999999999994,211.39999999999998 46.199999999999996,212.1 45.15,213.14999999999998 44.099999999999994,215.6 43.4,216.29999999999998 43.05,215.6 43.75,214.54999999999998 43.4,213.85 44.449999999999996,212.79999999999998 43.4,213.85 43.4,215.25 42.349999999999994,215.25 43.4,216.64999999999998 43.05,217.7 42.349999999999994,217.7 42.349999999999994,218.39999999999998 43.4,219.1 42.699999999999996,218.39999999999998 43.75,216.29999999999998 44.449999999999996,217.35 44.099999999999994,216.64999999999998 44.8,216.29999999999998 45.15,217.35 45.15,215.95 44.099999999999994,216.64999999999998 43.75,215.95 45.15,214.2 45.849999999999994,215.25 45.15,213.5 46.9,211.39999999999998 48.3,207.89999999999998 50.75,204.39999999999998 52.15,201.25 53.9,198.79999999999998 54.949999999999996,198.79999999999998 54.25,197.75 55.3,197.04999999999998 56.699999999999996,194.25 57.74999999999999,193.2 58.099999999999994,193.54999999999998 57.74999999999999,192.5 58.8,191.45 60.55,192.5 58.8,191.45 59.15,190.39999999999998 61.599999999999994,187.25 61.24999999999999,186.89999999999998 62.99999999999999,185.5 61.599999999999994,186.2 59.15,190.75 54.25,197.75 54.599999999999994,198.1 52.15,200.89999999999998 48.65,207.54999999999998 47.25,208.6 46.55,205.1 45.849999999999994,204.39999999999998 46.199999999999996,203.35 45.15,201.6 44.099999999999994,194.95 43.4,193.89999999999998 41.3,182.35 39.9,178.5 40.25,178.14999999999998 39.55,173.95 38.5,171.85 38.5,169.39999999999998 37.8,168.0 36.4,159.25 36.75,158.89999999999998 38.15,159.6 42.349999999999994,164.14999999999998 47.25,167.64999999999998 50.4,171.5 50.05,172.2 46.9,168.7 46.199999999999996,168.7 46.199999999999996,175.35 46.55,168.7 50.05,172.2 50.4,173.6 51.8,175.0 51.8,175.7 50.75,176.04999999999998 51.8,175.7 51.8,174.64999999999998 50.05,172.89999999999998 50.4,171.85 51.099999999999994,172.89999999999998 49.349999999999994,170.1 49.699999999999996,169.75 49.349999999999994,170.1 46.9,167.29999999999998 47.599999999999994,166.95 46.9,167.29999999999998 43.05,164.5 38.849999999999994,159.95 36.4,158.2 37.099999999999994,157.85 38.15,158.89999999999998 37.099999999999994,157.85 35.699999999999996,157.85 32.199999999999996,154.35 31.499999999999996,154.35 31.15,153.29999999999998" stroke="#aaa" stroke-width="1" /><polyline fill="none" points="10.85,121.44999999999999 4.199999999999999,122.49999999999999 2.0999999999999996,124.6 0.0,124.94999999999999 2.4499999999999997,124.24999999999999 2.8,124.6 2.8,125.64999999999999 2.0999999999999996,126.35 1.0499999999999998,125.64999999999999 2.0999999999999996,126.69999999999999 1.0499999999999998,129.15 1.0499999999999998,131.6 0.0,134.39999999999998 0.7,134.04999999999998 0.7,134.75 1.75,135.79999999999998 0.7,136.85 0.0,136.85 2.4499999999999997,136.85 2.4499999999999997,136.14999999999998 1.75,135.79999999999998 2.8,135.45 3.5,134.39999999999998 2.4499999999999997,135.45 0.7,134.75 2.4499999999999997,134.39999999999998 1.4,134.04999999999998 3.5,133.0 2.4499999999999997,133.0 2.8,133.35 1.4,133.7 1.0499999999999998,134.39999999999998 0.35,133.7 1.0499999999999998,130.54999999999998 3.15,130.54999999999998 1.0499999999999998,129.85 2.0999999999999996,126.35 2.8,125.99999999999999 2.8,123.89999999999999 4.199999999999999,122.49999999999999" stroke="#aaa" stroke-width="1" /><polyline fill="none" points="27.65,26.25 26.599999999999998,27.299999999999997 26.599999999999998,28.349999999999998 29.049999999999997,28.7 29.749999999999996,27.65 29.049999999999997,26.25" stroke="#aaa" stroke-width="1" /></svg>