<?xml version="1.0" encoding="utf-8" ?>
<svg baseProfile="full" height="224" version="1.1" width="224" xmlns="http://www.w3.org/2000/svg" xmlns:ev="http://www.w3.org/2001/xml-events" xmlns:xlink="http://www.w3.org/1999/xlink"><defs /><polyline fill="none" points="144.2,127.05 143.14999999999998,125.99999999999999 143.14999999999998,124.94999999999999 141.75,124.24999999999999 142.1,123.55 140.35,121.44999999999999 138.25,117.24999999999999 135.79999999999998,116.19999999999999 134.75,116.55 134.04999999999998,113.74999999999999 134.39999999999998,112.35 133.35,112.69999999999999 132.65,112.0 133.35,112.69999999999999 133.7,115.85 130.9,116.89999999999999 129.5,118.3 129.5,121.1 128.1,123.19999999999999 128.1,125.64999999999999 125.99999999999999,130.54999999999998 123.19999999999999,133.0 122.85,134.04999999999998 122.14999999999999,134.04999999999998 121.8,135.79999999999998 120.74999999999999,137.2 116.19999999999999,140.7 113.74999999999999,141.04999999999998 112.35,142.1 104.3,143.14999999999998 102.55,144.2 101.5,143.85 97.64999999999999,145.6 95.89999999999999,145.6 95.55,144.89999999999998 96.94999999999999,143.85 103.25,141.04999999999998 108.85,140.35 110.6,139.64999999999998 111.3,140.0 115.49999999999999,138.6 120.39999999999999,135.45 120.39999999999999,134.04999999999998 118.99999999999999,134.04999999999998 118.3,134.75 111.64999999999999,136.14999999999998 110.6,136.85 106.39999999999999,136.85 99.39999999999999,137.89999999999998 91.35,137.54999999999998 87.85,135.1 87.85,133.7 87.85,134.75 85.75,135.79999999999998 87.5,135.1 91.35,137.54999999999998 99.39999999999999,137.89999999999998 106.39999999999999,136.85 110.6,136.85 120.05,134.04999999999998 120.05,135.45 119.35,135.1 119.35,135.79999999999998 115.14999999999999,138.6 114.1,138.6 111.3,140.0 110.6,139.64999999999998 108.85,140.35 102.89999999999999,141.04999999999998 102.19999999999999,141.75 98.0,143.14999999999998 95.55,144.54999999999998 95.55,145.6 96.94999999999999,145.6 96.94999999999999,146.29999999999998 99.39999999999999,144.54999999999998 102.89999999999999,144.2 104.3,143.14999999999998 112.35,142.1 113.74999999999999,141.04999999999998 114.8,141.39999999999998 115.49999999999999,140.7 116.55,140.7 120.74999999999999,137.54999999999998 120.74999999999999,136.85 121.8,136.14999999999998 122.14999999999999,134.39999999999998 123.19999999999999,134.04999999999998 123.19999999999999,133.35 125.99999999999999,130.9 126.35,129.5 127.39999999999999,128.45 128.1,123.19999999999999 129.5,121.1 129.15,119.35 131.25,116.89999999999999 133.7,116.19999999999999 134.04999999999998,113.74999999999999 134.75,116.55 134.75,118.3 134.04999999999998,118.3 137.2,137.2 136.85,139.29999999999998 135.79999999999998,138.25 136.14999999999998,136.5 135.45,136.5 135.45,135.79999999999998 136.14999999999998,135.79999999999998 135.45,135.45 135.79999999999998,138.6 137.54999999999998,139.64999999999998 137.89999999999998,142.1 137.54999999999998,144.54999999999998 136.5,143.5 136.5,142.79999999999998 135.1,143.5 136.14999999999998,142.79999999999998 137.2,144.54999999999998 138.25,144.54999999999998 138.25,146.64999999999998 136.85,147.35 138.25,146.64999999999998 138.6,147.0 139.64999999999998,154.35 140.35,154.7 139.29999999999998,148.04999999999998 139.64999999999998,147.35 140.0,147.7 139.29999999999998,147.0 138.95,144.89999999999998 141.39999999999998,142.79999999999998 140.0,142.79999999999998 138.95,143.85 138.25,139.64999999999998 138.25,141.75 137.54999999999998,141.75 137.54999999999998,136.14999999999998 139.64999999999998,135.1 140.0,134.39999999999998 138.25,135.79999999999998 137.54999999999998,135.45 138.95,134.04999999999998 137.89999999999998,134.75 137.2,134.39999999999998 137.2,131.95 135.79999999999998,125.3 135.79999999999998,123.19999999999999 136.85,122.85 137.2,123.19999999999999 136.5,123.89999999999999 138.25,122.49999999999999 137.2,123.19999999999999 136.5,122.49999999999999 137.54999999999998,121.44999999999999 137.54999999999998,120.05 138.6,121.1 138.25,121.44999999999999 138.95,121.1 139.64999999999998,121.8 137.89999999999998,119.69999999999999 137.2,120.05 137.54999999999998,121.44999999999999 135.79999999999998,123.19999999999999 135.45,122.85 135.1,119.69999999999999 136.14999999999998,119.35 135.1,118.99999999999999 134.75,116.55 135.79999999999998,116.19999999999999 138.25,117.6 139.29999999999998,120.05 141.75,123.19999999999999 141.75,124.6 143.14999999999998,125.3 142.79999999999998,126.69999999999999 141.75,125.64999999999999 140.35,126.35 142.45,128.79999999999998 140.7,126.35 141.39999999999998,125.64999999999999 142.45,127.39999999999999 143.14999999999998,126.35" stroke="#aaa" stroke-width="1" /><polyline fill="none" points="153.64999999999998,134.75 154.7,135.45 157.14999999999998,139.64999999999998 161.7,141.75 162.75,142.79999999999998 162.04999999999998,143.14999999999998 161.0,142.45 160.64999999999998,143.14999999999998 159.95,142.45 159.25,142.79999999999998 157.5,141.75 158.89999999999998,142.79999999999998 159.95,142.45 161.35,143.85 163.1,144.54999999999998 163.45,144.2 162.04999999999998,144.2 160.64999999999998,143.14999999999998 162.75,143.14999999999998 162.39999999999998,142.45 163.1,142.1 162.39999999999998,142.45 156.45,138.6 155.04999999999998,136.5 156.45,136.5 155.39999999999998,135.79999999999998 155.04999999999998,136.14999999999998 154.7,135.45 156.1,135.1 157.5,136.14999999999998 156.1,135.1" stroke="#aaa" stroke-width="1" /><polyline fill="none" points="122.85,155.75 123.55,157.85 124.94999999999999,157.14999999999998 125.64999999999999,157.85 125.3,158.89999999999998 125.64999999999999,157.85 123.89999999999999,155.39999999999998 123.55,156.1" stroke="#aaa" stroke-width="1" /><polyline fill="none" points="154.35,107.1 146.29999999999998,114.1 146.64999999999998,114.8 148.04999999999998,115.14999999999999 147.7,116.55 146.64999999999998,115.49999999999999 147.7,116.89999999999999 147.35,117.24999999999999 148.04999999999998,116.19999999999999 147.7,114.8 149.1,114.44999999999999 150.14999999999998,113.05 150.5,113.39999999999999 150.14999999999998,113.05 147.35,115.14999999999999 146.64999999999998,114.1" stroke="#aaa" stroke-width="1" /><polyline fill="none" points="116.89999999999999,145.25 116.19999999999999,145.25 114.44999999999999,143.5 110.6,144.2 109.89999999999999,144.89999999999998 108.5,144.2 109.89999999999999,145.25 111.3,145.25 112.0,144.2 114.1,143.5 116.19999999999999,145.6" stroke="#aaa" stroke-width="1" /><polyline fill="none" points="138.6,167.64999999999998 140.7,169.39999999999998 140.0,169.04999999999998 140.35,168.35 141.39999999999998,168.35 142.45,167.29999999999998 143.14999999999998,168.35 142.79999999999998,167.29999999999998 143.5,166.95 144.54999999999998,168.0 144.54999999999998,169.04999999999998 147.35,169.75 147.0,170.45 145.95,170.45 143.85,171.85 142.1,172.2 144.2,171.5 144.54999999999998,171.85 145.95,170.45 148.39999999999998,170.79999999999998 147.7,170.45 147.7,169.39999999999998 145.6,169.39999999999998 144.54999999999998,168.7 145.95,167.29999999999998 144.89999999999998,168.0 143.85,166.95 142.79999999999998,166.95 141.04999999999998,168.35 139.29999999999998,167.29999999999998 140.35,168.35 140.0,168.7" stroke="#aaa" stroke-width="1" /><polyline fill="none" points="184.45,115.14999999999999 183.75,120.74999999999999 180.95,123.89999999999999 180.6,123.55 180.6,124.24999999999999 177.45,125.99999999999999 176.39999999999998,125.99999999999999 175.35,127.05 163.45,129.15 150.5,129.15 149.45,129.85 149.1,129.15 145.95,128.79999999999998 144.89999999999998,127.39999999999999 144.89999999999998,126.35 144.89999999999998,127.74999999999999 145.95,128.79999999999998 148.04999999999998,129.5 148.75,129.15 150.85,131.6 154.0,133.35 155.75,133.7 171.5,133.0 178.85,133.35 181.29999999999998,132.65 181.64999999999998,133.0 184.79999999999998,130.9 184.1,128.79999999999998 183.75,130.2 180.95,129.85 182.0,130.9 182.7,129.85 184.1,129.85 184.79999999999998,130.54999999999998 181.64999999999998,133.0 179.89999999999998,132.65 178.85,133.35 171.5,133.0 155.75,133.7 154.0,133.35 149.45,129.85 150.5,129.15 163.45,129.15 169.75,128.45 170.45,127.74999999999999 175.7,127.05 176.75,125.99999999999999 177.79999999999998,125.99999999999999 180.95,124.24999999999999 183.75,121.1 184.45,121.44999999999999 183.75,120.74999999999999" stroke="#aaa" stroke-width="1" /><polyline fill="none" points="128.45,116.89999999999999 127.05,119.69999999999999 126.69999999999999,122.14999999999999 125.99999999999999,122.14999999999999 125.99999999999999,121.44999999999999 125.3,121.1 125.3,118.99999999999999 123.19999999999999,121.8 122.85,121.44999999999999 123.55,121.8 124.94999999999999,119.35 125.99999999999999,122.14999999999999 123.55,129.15 120.39999999999999,131.6 116.89999999999999,133.0 112.69999999999999,133.35 110.94999999999999,134.39999999999998 103.6,135.45 96.6,135.79999999999998 95.19999999999999,135.1 92.39999999999999,135.1 91.35,134.04999999999998 92.05,133.35 93.1,134.04999999999998 96.25,133.7 96.94999999999999,133.0 99.39999999999999,133.7 101.5,133.35 101.85,133.7 99.39999999999999,133.7 96.94999999999999,133.0 95.89999999999999,133.7 94.85,133.35 93.44999999999999,134.04999999999998 92.05,133.0 91.35,134.04999999999998 90.64999999999999,133.35 91.69999999999999,134.75 93.1,135.45 95.19999999999999,135.1 97.64999999999999,135.79999999999998 108.85,134.75 114.1,133.0 116.89999999999999,133.0 118.99999999999999,132.29999999999998 119.69999999999999,131.6 122.14999999999999,130.9 123.55,129.5 124.94999999999999,125.99999999999999 125.3,123.19999999999999 127.39999999999999,121.44999999999999 127.05,120.05" stroke="#aaa" stroke-width="1" /><polyline fill="none" points="155.75,110.94999999999999 157.14999999999998,113.05 158.54999999999998,112.35 159.6,113.05 158.2,115.14999999999999 155.04999999999998,114.8 155.75,115.14999999999999 155.39999999999998,115.49999999999999 158.2,115.14999999999999 158.89999999999998,114.44999999999999 161.35,116.19999999999999 162.39999999999998,116.19999999999999 159.25,114.8 160.29999999999998,113.74999999999999 159.95,111.64999999999999 160.64999999999998,111.3 157.14999999999998,109.89999999999999 157.14999999999998,110.6 160.29999999999998,112.0 159.6,112.69999999999999 158.54999999999998,112.35 157.5,113.05" stroke="#aaa" stroke-width="1" /><polyline fill="none" points="180.6,106.05 178.85,104.3 176.04999999999998,103.6 165.54999999999998,103.6 166.95,104.64999999999999 170.1,105.0 173.25,107.1 170.45,105.0 166.95,104.64999999999999 166.25,103.94999999999999 166.6,103.6 176.04999999999998,103.6 178.5,104.3 180.25,106.05 180.25,108.85 180.95,109.55 180.95,111.64999999999999 182.35,115.85 182.0,120.74999999999999 179.89999999999998,123.19999999999999 178.85,122.85 177.45,123.89999999999999 175.0,124.24999999999999 170.45,125.99999999999999 166.95,125.99999999999999 164.85,127.05 148.75,127.05 144.89999999999998,124.24999999999999 144.2,121.8 142.45,118.99999999999999 142.45,118.3 143.85,117.24999999999999 145.95,116.89999999999999 145.25,115.14999999999999 144.54999999999998,114.44999999999999 142.79999999999998,114.44999999999999 144.89999999999998,114.8 145.95,116.55 145.6,117.24999999999999 144.2,115.49999999999999 143.5,115.49999999999999 142.1,116.89999999999999 141.04999999999998,115.85 141.04999999999998,111.3 143.5,108.85 145.95,108.85 143.14999999999998,108.85 141.04999999999998,111.3 140.7,114.1 141.04999999999998,115.85 142.1,116.89999999999999 141.75,117.24999999999999 142.45,119.35 144.2,121.8 144.89999999999998,124.6 147.7,126.69999999999999 150.5,127.39999999999999 156.79999999999998,127.39999999999999 163.1,126.69999999999999 164.85,127.05 166.95,125.99999999999999 170.45,125.99999999999999 175.0,124.24999999999999 177.79999999999998,123.89999999999999 178.5,123.19999999999999 179.89999999999998,123.19999999999999 181.64999999999998,121.8 182.35,118.99999999999999 182.35,115.85 180.95,111.64999999999999 180.95,109.55 180.25,108.85 180.6,107.44999999999999 179.89999999999998,106.39999999999999" stroke="#aaa" stroke-width="1" /><polyline fill="none" points="149.1,104.3 141.39999999999998,106.75 141.39999999999998,104.3 142.45,105.0 145.25,104.3 145.95,103.25 147.0,103.25 146.64999999999998,102.55 147.35,102.19999999999999 147.0,101.85 146.64999999999998,102.89999999999999 144.2,104.64999999999999 142.45,105.0 140.35,103.94999999999999 141.04999999999998,105.0 141.04999999999998,106.75 139.29999999999998,108.14999999999999 138.95,107.8 134.04999999999998,109.19999999999999 132.65,110.25 130.54999999999998,109.55 125.99999999999999,109.55 125.64999999999999,108.5 126.35,108.14999999999999 125.99999999999999,107.44999999999999 126.69999999999999,105.35 125.64999999999999,108.85 124.94999999999999,109.19999999999999 127.05,109.89999999999999 130.54999999999998,109.55 131.6,110.25 133.0,110.25 133.35,109.55 135.1,108.85 139.29999999999998,108.14999999999999 140.35,107.44999999999999 141.04999999999998,107.8 141.04999999999998,106.75 142.45,107.8 141.39999999999998,108.5 140.0,108.5 141.39999999999998,108.5 143.14999999999998,107.44999999999999 147.7,106.39999999999999 147.7,105.0" stroke="#aaa" stroke-width="1" /><polyline fill="none" points="125.3,114.44999999999999 123.19999999999999,112.69999999999999 118.99999999999999,112.35 117.94999999999999,111.64999999999999 114.8,112.0 114.44999999999999,110.94999999999999 114.1,112.0 105.69999999999999,112.0 90.3,115.85 104.3,112.35 105.35,113.74999999999999 108.5,113.74999999999999 110.6,114.8 112.35,114.44999999999999 117.6,116.19999999999999 118.64999999999999,117.24999999999999 120.39999999999999,117.24999999999999 121.8,118.64999999999999 121.1,119.69999999999999 116.89999999999999,117.24999999999999 112.0,116.55 108.14999999999999,115.14999999999999 104.3,115.14999999999999 102.55,116.19999999999999 99.39999999999999,116.89999999999999 102.89999999999999,116.19999999999999 104.3,115.14999999999999 108.14999999999999,115.14999999999999 110.94999999999999,116.55 111.64999999999999,116.19999999999999 116.55,117.24999999999999 118.99999999999999,118.99999999999999 118.3,119.35 118.3,120.39999999999999 118.99999999999999,118.99999999999999 121.44999999999999,119.69999999999999 121.8,118.3 121.1,117.6 118.99999999999999,117.24999999999999 115.49999999999999,115.14999999999999 113.74999999999999,115.14999999999999 112.69999999999999,114.44999999999999 105.35,113.74999999999999 104.64999999999999,113.05 105.0,112.35 105.69999999999999,112.69999999999999 106.05,112.0 109.19999999999999,111.64999999999999 115.49999999999999,112.0 116.89999999999999,113.39999999999999 120.74999999999999,113.39999999999999 121.8,115.14999999999999 121.8,114.44999999999999 120.39999999999999,113.05 120.74999999999999,112.35 121.8,112.35 124.6,114.44999999999999 123.89999999999999,114.8 124.6,115.49999999999999 123.89999999999999,117.24999999999999 124.6,115.85 124.24999999999999,114.8" stroke="#aaa" stroke-width="1" /><polyline fill="none" points="163.45,108.5 161.35,110.94999999999999 162.04999999999998,110.6 162.39999999999998,110.94999999999999 161.7,112.0 164.14999999999998,113.05 162.04999999999998,113.05 163.79999999999998,113.74999999999999 162.04999999999998,114.1 166.6,113.74999999999999 165.89999999999998,114.1 161.7,111.64999999999999 163.79999999999998,109.55 163.1,110.25 162.39999999999998,109.89999999999999 163.79999999999998,108.5 164.14999999999998,108.85" stroke="#aaa" stroke-width="1" /><polyline fill="none" points="101.5,117.6 103.25,117.24999999999999 103.25,118.3 106.05,119.69999999999999 103.25,122.49999999999999 103.6,122.85 105.0,121.1 105.35,121.44999999999999 105.0,120.74999999999999 106.05,119.69999999999999 105.69999999999999,119.35 106.75,118.99999999999999 107.44999999999999,119.69999999999999 106.05,120.74999999999999 106.05,121.44999999999999 107.1,121.44999999999999 106.05,120.74999999999999 107.44999999999999,119.69999999999999 109.55,121.1 108.85,121.44999999999999 108.5,121.1 109.89999999999999,121.1 109.89999999999999,121.8 110.6,121.1 112.35,122.14999999999999 112.35,122.85 110.94999999999999,122.85 112.69999999999999,122.85 113.74999999999999,123.55 112.69999999999999,122.85 112.69999999999999,122.14999999999999 108.85,120.39999999999999 111.3,117.94999999999999 112.35,117.94999999999999 112.69999999999999,118.64999999999999 115.85,118.3 117.24999999999999,118.99999999999999 115.85,118.3 110.94999999999999,117.94999999999999 109.89999999999999,117.24999999999999 110.94999999999999,117.94999999999999 108.5,120.39999999999999 106.75,118.99999999999999 107.44999999999999,118.3 107.8,118.99999999999999 109.19999999999999,117.24999999999999 108.5,117.94999999999999 107.8,117.6 108.85,116.55 109.55,116.55 108.5,116.55 107.44999999999999,117.6 106.75,116.89999999999999 105.35,116.89999999999999 106.75,116.89999999999999 107.44999999999999,117.6 107.1,118.3 106.05,117.94999999999999 106.75,118.3 106.39999999999999,118.99999999999999 103.25,117.24999999999999" stroke="#aaa" stroke-width="1" /><polyline fill="none" points="130.9,95.55 130.2,95.19999999999999 129.5,95.89999999999999 130.54999999999998,96.94999999999999 129.85,97.64999999999999 130.54999999999998,98.35 129.5,99.39999999999999 127.05,99.05 125.64999999999999,97.64999999999999 124.6,97.64999999999999 125.99999999999999,99.75 123.55,101.5 123.89999999999999,101.85 125.99999999999999,99.75 124.94999999999999,98.0 125.3,97.64999999999999 126.69999999999999,99.05 129.85,99.39999999999999 130.9,97.64999999999999" stroke="#aaa" stroke-width="1" /><polyline fill="none" points="150.14999999999998,92.75 149.1,92.75 147.7,94.14999999999999 146.64999999999998,94.14999999999999 146.64999999999998,92.39999999999999 145.95,93.44999999999999 146.64999999999998,94.14999999999999 145.25,95.89999999999999 143.85,96.25 142.79999999999998,95.19999999999999 139.64999999999998,95.89999999999999 139.29999999999998,95.19999999999999 138.25,95.55 137.89999999999998,94.85 136.5,94.5 138.25,95.55 138.95,95.19999999999999 139.64999999999998,96.6 141.04999999999998,96.6 140.7,96.25 141.39999999999998,95.55 142.79999999999998,95.19999999999999 143.5,96.6 143.14999999999998,97.64999999999999 144.54999999999998,95.89999999999999 145.25,96.25 144.89999999999998,96.94999999999999 147.0,94.14999999999999 148.75,93.44999999999999 149.1,93.8 148.75,93.44999999999999 149.45,92.75 149.79999999999998,93.44999999999999" stroke="#aaa" stroke-width="1" /><polyline fill="none" points="156.1,185.5 155.75,187.6 156.1,185.85 157.14999999999998,184.79999999999998 158.89999999999998,185.14999999999998 159.6,185.85 159.6,187.6 162.39999999999998,190.04999999999998 161.35,190.04999999999998 162.39999999999998,191.79999999999998 162.75,191.1 163.1,191.45 162.39999999999998,189.7 159.6,187.25 159.6,186.2 160.29999999999998,185.85 159.6,185.85 158.54999999999998,184.79999999999998 156.79999999999998,184.79999999999998" stroke="#aaa" stroke-width="1" /><polyline fill="none" points="151.2,189.35 150.14999999999998,188.64999999999998 146.64999999999998,188.64999999999998 145.6,189.35 141.75,190.04999999999998 140.35,189.7 139.29999999999998,190.39999999999998 138.6,190.04999999999998 139.29999999999998,190.75 137.54999999999998,191.79999999999998 135.79999999999998,191.1 134.75,191.45 134.75,190.39999999999998 135.1,190.75 134.75,190.39999999999998 133.7,191.79999999999998 131.25,191.79999999999998 129.85,192.85 129.15,192.14999999999998 129.85,193.2 129.15,194.25 128.1,193.54999999999998 129.15,194.25 128.45,194.95 131.95,197.75 131.6,198.1 132.29999999999998,197.75 128.79999999999998,194.95 131.25,191.79999999999998 132.29999999999998,192.14999999999998 134.04999999999998,191.45 136.85,191.45 138.25,192.14999999999998 140.35,192.14999999999998 141.04999999999998,191.45 140.35,192.14999999999998 137.89999999999998,191.79999999999998 139.29999999999998,191.1 139.29999999999998,190.39999999999998 140.35,189.7 141.75,190.04999999999998 145.6,189.35 146.64999999999998,188.64999999999998 150.14999999999998,188.64999999999998 151.2,189.7 149.1,191.79999999999998 147.7,191.45 147.0,192.14999999999998 147.7,191.45 149.45,191.79999999999998" stroke="#aaa" stroke-width="1" /><polyline fill="none" points="91.0,116.55 88.19999999999999,117.24999999999999 85.75,119.35 86.44999999999999,123.19999999999999 87.14999999999999,124.24999999999999 87.5,132.29999999999998 87.14999999999999,125.99999999999999 90.3,124.24999999999999 87.5,125.64999999999999 86.44999999999999,123.19999999999999 86.44999999999999,121.44999999999999 87.5,120.39999999999999 87.14999999999999,118.64999999999999 88.89999999999999,116.89999999999999" stroke="#aaa" stroke-width="1" /><polyline fill="none" points="157.5,88.19999999999999 158.2,87.5 157.5,88.55 159.6,89.94999999999999 162.04999999999998,87.85 163.1,89.6 162.39999999999998,88.19999999999999 164.5,87.85 165.54999999999998,86.44999999999999 168.35,88.55 169.75,90.64999999999999 171.14999999999998,91.35 172.2,93.44999999999999 171.14999999999998,91.35 167.29999999999998,87.5 168.35,86.8 167.29999999999998,87.5 165.54999999999998,86.1 164.5,87.85 163.45,87.5 163.79999999999998,86.44999999999999 163.1,87.85 162.39999999999998,87.5 162.75,86.1 164.85,85.05 163.1,85.75 162.04999999999998,84.69999999999999 161.35,85.05 162.04999999999998,84.69999999999999 162.75,85.75 162.39999999999998,87.5 159.6,89.94999999999999 158.2,89.25 159.25,88.19999999999999 159.95,88.55 159.6,87.85 158.2,89.25" stroke="#aaa" stroke-width="1" /><polyline fill="none" points="114.44999999999999,86.44999999999999 115.85,88.19999999999999 115.14999999999999,88.89999999999999 114.1,87.85 115.14999999999999,88.89999999999999 115.14999999999999,89.94999999999999 115.85,88.19999999999999 116.55,89.25 117.94999999999999,89.6 120.39999999999999,89.25 117.6,89.25 117.24999999999999,87.85 117.94999999999999,87.14999999999999 117.24999999999999,86.44999999999999 117.24999999999999,85.05 117.24999999999999,87.85 116.19999999999999,86.8 116.55,85.05 116.55,87.5 115.85,88.19999999999999" stroke="#aaa" stroke-width="1" /><polyline fill="none" points="125.3,78.05 124.6,79.44999999999999 125.64999999999999,81.19999999999999 124.94999999999999,81.89999999999999 124.24999999999999,80.5 123.19999999999999,80.5 123.89999999999999,80.5 124.6,81.89999999999999 125.64999999999999,82.6 124.94999999999999,83.3 122.49999999999999,81.55 125.64999999999999,84.35 125.3,84.69999999999999 122.14999999999999,82.6 128.45,87.5 125.99999999999999,85.39999999999999 126.69999999999999,85.05 127.74999999999999,86.1 128.79999999999998,86.1 127.74999999999999,86.1 126.69999999999999,85.05 125.99999999999999,85.39999999999999 125.3,84.69999999999999 127.05,82.94999999999999 128.45,83.3 128.45,82.25 127.74999999999999,81.55 127.74999999999999,82.6 127.05,82.94999999999999 125.3,80.85 124.6,79.1 125.99999999999999,78.05" stroke="#aaa" stroke-width="1" /><polyline fill="none" points="138.95,199.5 140.0,200.54999999999998 141.04999999999998,199.5 142.79999999999998,201.25 143.85,201.25 144.2,200.54999999999998 143.85,199.85 142.1,200.54999999999998 141.39999999999998,199.5 140.0,200.2" stroke="#aaa" stroke-width="1" /><polyline fill="none" points="102.89999999999999,85.05 103.94999999999999,86.8 103.94999999999999,88.19999999999999 101.85,88.19999999999999 102.89999999999999,88.89999999999999 102.89999999999999,89.94999999999999 101.85,90.64999999999999 103.25,91.35 103.94999999999999,92.39999999999999 103.94999999999999,91.69999999999999 101.85,90.64999999999999 103.6,90.64999999999999 105.69999999999999,88.55 104.3,89.94999999999999 103.6,89.25 104.64999999999999,87.85 103.94999999999999,87.5 104.3,87.14999999999999" stroke="#aaa" stroke-width="1" /><polyline fill="none" points="68.25,103.6 68.6,104.64999999999999 67.89999999999999,106.05 68.6,106.05 68.94999999999999,107.44999999999999 69.64999999999999,107.44999999999999 70.35,108.85 70.0,110.25 68.6,112.0 68.94999999999999,117.94999999999999 72.44999999999999,120.05 72.8,119.35 74.89999999999999,119.35 76.3,120.39999999999999 77.35,120.39999999999999 78.39999999999999,121.8 77.35,120.05 77.69999999999999,118.3 78.75,117.6 79.8,121.1 79.8,125.99999999999999 79.1,126.69999999999999 78.05,122.85 77.35,122.85 77.0,124.6 77.35,123.89999999999999 78.39999999999999,124.24999999999999 77.69999999999999,124.6 77.69999999999999,125.3 78.75,125.99999999999999 78.75,126.69999999999999 79.44999999999999,126.69999999999999 79.8,125.99999999999999 82.6,127.39999999999999 83.64999999999999,128.45 82.6,129.15 81.89999999999999,129.15 80.85,128.1 81.89999999999999,129.15 83.64999999999999,128.45 85.05,130.2 84.35,130.9 85.39999999999999,130.54999999999998 86.1,131.25 86.8,133.7 86.8,132.65 84.35,128.79999999999998 79.8,125.99999999999999 79.8,121.1 79.1,117.6 77.69999999999999,117.94999999999999 77.35,120.05 75.6,119.69999999999999 77.0,118.3 75.25,119.69999999999999 72.1,119.69999999999999 68.94999999999999,117.94999999999999 68.6,112.0 70.0,110.25 70.35,108.5 68.6,106.75" stroke="#aaa" stroke-width="1" /><polyline fill="none" points="161.0,71.39999999999999 159.95,71.75 160.64999999999998,71.39999999999999 162.39999999999998,74.19999999999999 161.35,74.89999999999999 161.0,73.14999999999999 159.95,72.44999999999999 159.95,74.19999999999999 158.54999999999998,74.89999999999999 158.89999999999998,77.0 158.54999999999998,77.35 157.5,76.3 157.5,75.6 156.79999999999998,75.6 156.45,76.3 156.79999999999998,77.0 156.45,76.3 157.14999999999998,75.6 157.85,76.64999999999999 157.5,77.0 157.85,76.64999999999999 158.54999999999998,77.35 158.2,78.05 158.54999999999998,77.35 159.6,77.69999999999999 161.7,77.0 163.45,74.89999999999999 160.64999999999998,77.35 159.6,77.69999999999999 158.89999999999998,77.0 159.25,76.3 160.64999999999998,76.3 159.95,75.94999999999999 160.29999999999998,75.6 159.6,74.55 160.29999999999998,72.8 161.0,73.5 160.64999999999998,74.89999999999999 162.39999999999998,74.55 162.04999999999998,72.8" stroke="#aaa" stroke-width="1" /><polyline fill="none" points="145.95,67.89999999999999 146.29999999999998,68.94999999999999 145.25,68.94999999999999 147.0,69.3 152.95,75.6 152.6,74.89999999999999 153.64999999999998,74.89999999999999 150.14999999999998,71.05 149.45,71.75 147.35,69.64999999999999 148.75,69.64999999999999 146.64999999999998,69.3 146.64999999999998,68.25" stroke="#aaa" stroke-width="1" /><polyline fill="none" points="150.85,69.3 152.25,71.75 153.29999999999998,72.1 154.0,73.14999999999999 154.7,72.44999999999999 154.7,71.75 153.29999999999998,70.69999999999999 153.64999999999998,70.0 154.35,70.69999999999999 154.7,70.35 154.35,70.69999999999999 153.64999999999998,70.0 154.0,69.3 152.95,70.69999999999999 151.89999999999998,69.3" stroke="#aaa" stroke-width="1" /><polyline fill="none" points="68.6,118.99999999999999 68.6,119.69999999999999 66.14999999999999,121.1 66.5,121.8 65.45,122.49999999999999 65.8,126.35 68.6,130.9 69.3,135.79999999999998 72.8,142.79999999999998 73.14999999999999,145.25 74.19999999999999,146.29999999999998 73.5,148.04999999999998 74.55,150.85 73.5,147.7 74.19999999999999,146.29999999999998 73.14999999999999,144.89999999999998 72.8,142.45 71.39999999999999,140.7 70.0,136.14999999999998 69.3,135.45 68.6,130.9 67.19999999999999,128.45 67.55,127.74999999999999 67.19999999999999,128.1 65.8,126.35 65.45,122.85 66.85,120.74999999999999 68.6,120.05" stroke="#aaa" stroke-width="1" /><polyline fill="none" points="121.8,65.45 120.39999999999999,65.8 120.39999999999999,66.5 121.44999999999999,67.19999999999999 120.39999999999999,67.55 120.39999999999999,68.25 120.74999999999999,67.55 122.14999999999999,68.94999999999999 122.14999999999999,70.35 122.85,70.69999999999999 122.14999999999999,71.39999999999999 122.85,72.8 122.49999999999999,73.85 124.6,74.89999999999999 123.55,76.64999999999999 124.94999999999999,74.89999999999999 125.99999999999999,74.55 124.6,74.89999999999999 123.19999999999999,74.19999999999999 122.49999999999999,73.14999999999999 122.85,72.8 123.89999999999999,73.5 124.94999999999999,72.8 125.99999999999999,73.85 126.69999999999999,73.85 126.69999999999999,73.14999999999999 125.3,72.44999999999999 123.89999999999999,73.5 122.14999999999999,71.39999999999999 123.55,70.69999999999999 122.14999999999999,70.0 122.49999999999999,69.3 123.19999999999999,70.0 122.14999999999999,68.6 122.49999999999999,68.25 123.89999999999999,69.3 124.94999999999999,69.3 123.89999999999999,69.3 122.49999999999999,67.89999999999999 122.49999999999999,66.85 121.1,66.85 120.39999999999999,66.14999999999999" stroke="#aaa" stroke-width="1" /><polyline fill="none" points="99.05,75.6 98.69999999999999,75.94999999999999 99.39999999999999,75.6 100.1,76.3 99.39999999999999,77.69999999999999 96.6,77.69999999999999 99.05,79.8 100.44999999999999,83.3 99.05,79.8 99.39999999999999,79.44999999999999 100.44999999999999,80.5 99.39999999999999,79.44999999999999 100.8,79.44999999999999 100.1,79.1 100.1,76.3" stroke="#aaa" stroke-width="1" /><polyline fill="none" points="134.04999999999998,63.699999999999996 132.65,65.1 135.45,67.55 135.1,67.19999999999999 135.79999999999998,66.85 134.75,65.8 134.75,64.75 134.39999999999998,65.45 133.35,64.39999999999999" stroke="#aaa" stroke-width="1" /><polyline fill="none" points="206.85,101.85 209.29999999999998,104.3 209.29999999999998,107.44999999999999 207.89999999999998,113.05 207.2,120.74999999999999 205.79999999999998,125.3 206.14999999999998,144.54999999999998 203.35,152.95 201.25,155.04999999999998 198.45,156.45 198.45,165.54999999999998 197.75,167.64999999999998 198.1,170.1 197.39999999999998,173.95 193.89999999999998,183.75 189.35,190.75 188.29999999999998,205.79999999999998 188.64999999999998,208.25 187.95,210.0 189.35,211.39999999999998 190.75,211.39999999999998 193.2,213.14999999999998 196.7,214.54999999999998 199.5,217.0 201.95,218.04999999999998 203.0,219.45 207.2,222.6 217.0,225.04999999999998 230.64999999999998,225.04999999999998 232.04999999999998,225.74999999999997 235.54999999999998,225.74999999999997 236.95,226.79999999999998 241.85,227.49999999999997 243.24999999999997,228.54999999999998 245.7,229.24999999999997 243.24999999999997,228.54999999999998 241.85,227.49999999999997 236.95,226.79999999999998 235.89999999999998,225.74999999999997 232.04999999999998,225.74999999999997 230.64999999999998,225.04999999999998 217.0,225.04999999999998 208.6,222.95 197.39999999999998,214.89999999999998 191.1,211.39999999999998 189.7,211.39999999999998 187.95,210.0 188.64999999999998,208.25 188.29999999999998,205.79999999999998 189.35,191.1 193.89999999999998,184.1 197.39999999999998,173.95 198.1,170.1 197.75,167.64999999999998 198.45,165.54999999999998 198.45,156.79999999999998 201.6,155.04999999999998 203.35,153.29999999999998 204.75,150.14999999999998 204.75,148.75 205.45,148.04999999999998 206.14999999999998,144.54999999999998 205.79999999999998,125.3 207.2,120.74999999999999 207.89999999999998,113.05 209.29999999999998,107.8 209.29999999999998,104.3 207.54999999999998,101.85" stroke="#aaa" stroke-width="1" /><polyline fill="none" points="160.29999999999998,58.099999999999994 162.75,61.949999999999996 162.04999999999998,62.3 162.39999999999998,62.99999999999999 162.75,61.949999999999996 164.14999999999998,63.349999999999994 163.45,64.05 165.2,64.05 163.1,66.14999999999999 164.85,64.75 166.95,68.25 164.85,64.75 165.54999999999998,64.05 164.85,63.349999999999994 165.2,61.949999999999996 164.14999999999998,61.24999999999999 164.85,61.949999999999996 164.14999999999998,62.65 161.0,59.849999999999994" stroke="#aaa" stroke-width="1" /><polyline fill="none" points="194.95,53.9 198.79999999999998,56.699999999999996 198.79999999999998,61.599999999999994 198.1,62.3 197.39999999999998,61.599999999999994 197.39999999999998,60.55 196.35,60.55 197.04999999999998,63.349999999999994 196.7,64.05 197.04999999999998,64.75 197.75,64.75 196.7,64.05 197.04999999999998,63.349999999999994 198.45,64.05 201.25,67.19999999999999 201.6,69.3 202.64999999999998,70.69999999999999 202.64999999999998,75.6 204.39999999999998,78.39999999999999 204.39999999999998,84.69999999999999 205.1,85.75 205.1,88.89999999999999 203.7,92.39999999999999 203.7,98.0 202.64999999999998,99.05 201.95,101.14999999999999 200.89999999999998,102.19999999999999 200.2,101.85 200.2,100.1 201.6,97.64999999999999 201.25,96.94999999999999 201.95,95.55 202.64999999999998,90.64999999999999 202.29999999999998,89.94999999999999 203.35,87.85 203.0,81.89999999999999 202.29999999999998,79.1 203.0,81.89999999999999 203.35,87.85 202.29999999999998,89.6 202.64999999999998,90.64999999999999 201.95,95.55 201.25,96.94999999999999 201.6,97.64999999999999 200.2,99.75 200.2,101.85 201.25,103.6 200.89999999999998,104.3 201.6,103.25 203.0,103.94999999999999 201.6,108.14999999999999 201.6,110.94999999999999 201.6,108.14999999999999 202.64999999999998,106.05 202.64999999999998,104.64999999999999 204.75,103.25 206.5,103.25 207.2,103.94999999999999 207.2,106.39999999999999 204.04999999999998,109.19999999999999 202.64999999999998,108.5 203.35,109.19999999999999 204.39999999999998,109.19999999999999 205.79999999999998,107.8 206.85,108.85 205.79999999999998,109.55 206.5,109.89999999999999 207.2,108.5 205.79999999999998,107.8 207.2,106.75 207.2,103.6 204.39999999999998,103.25 203.0,103.94999999999999 202.29999999999998,103.25 204.04999999999998,101.5 206.5,101.14999999999999 208.25,100.1 207.54999999999998,100.1 206.5,101.14999999999999 204.04999999999998,101.5 203.0,102.55 202.29999999999998,102.19999999999999 203.0,102.55 202.29999999999998,103.25 200.89999999999998,103.25 204.04999999999998,96.6 203.7,92.39999999999999 205.1,88.89999999999999 205.1,85.75 204.39999999999998,84.69999999999999 204.75,81.55 204.39999999999998,78.05 202.64999999999998,75.25 202.64999999999998,70.69999999999999 201.6,69.3 201.25,66.85 198.79999999999998,64.05 196.7,62.65 196.7,61.24999999999999 197.04999999999998,60.9 197.39999999999998,61.949999999999996 200.2,64.05 200.54999999999998,62.65 198.79999999999998,61.24999999999999 198.79999999999998,60.199999999999996 199.5,59.849999999999994 200.89999999999998,61.24999999999999 201.95,61.24999999999999 202.29999999999998,62.65 201.25,63.349999999999994 201.6,65.8 202.64999999999998,60.199999999999996 201.6,60.199999999999996 202.29999999999998,60.9 201.25,61.24999999999999 199.85,59.849999999999994 199.14999999999998,59.849999999999994 198.45,59.15 198.79999999999998,56.349999999999994" stroke="#aaa" stroke-width="1" /><polyline fill="none" points="144.54999999999998,57.05 144.89999999999998,58.099999999999994 145.95,58.8 144.89999999999998,57.4 145.25,57.05 147.0,58.449999999999996 145.6,57.05 146.29999999999998,56.699999999999996 148.39999999999998,58.449999999999996 150.85,58.8 152.25,60.199999999999996 150.5,58.099999999999994 150.5,58.8 149.45,58.8 148.04999999999998,57.74999999999999 148.75,57.05 149.79999999999998,57.74999999999999 148.75,57.05 149.45,56.349999999999994 149.1,55.65 147.7,55.65 148.39999999999998,57.05 148.04999999999998,57.74999999999999 146.64999999999998,56.699999999999996" stroke="#aaa" stroke-width="1" /><polyline fill="none" points="134.39999999999998,51.449999999999996 131.95,50.75 131.25,50.05 131.6,49.699999999999996 129.5,50.05 125.99999999999999,53.199999999999996 123.89999999999999,52.15 125.99999999999999,53.55 126.69999999999999,52.849999999999994 128.79999999999998,54.949999999999996 126.69999999999999,52.849999999999994 128.45,51.099999999999994 129.15,51.8 131.6,51.8 131.95,50.75 133.7,51.099999999999994 134.39999999999998,51.8 132.29999999999998,52.5 133.35,53.199999999999996 132.65,52.5 134.39999999999998,52.15" stroke="#aaa" stroke-width="1" /><polyline fill="none" points="86.44999999999999,54.25 85.05,57.74999999999999 78.75,64.39999999999999 77.69999999999999,64.05 77.0,64.75 77.35,66.85 76.64999999999999,68.25 77.35,66.85 77.0,65.1 78.39999999999999,64.05 79.1,64.39999999999999 85.05,58.099999999999994" stroke="#aaa" stroke-width="1" /><polyline fill="none" points="95.89999999999999,48.3 91.35,52.15 90.64999999999999,51.8 88.19999999999999,54.25 90.3,52.5 91.35,53.199999999999996 91.35,52.5" stroke="#aaa" stroke-width="1" /><polyline fill="none" points="81.89999999999999,220.14999999999998 80.85,221.2 80.14999999999999,223.64999999999998 80.14999999999999,225.04999999999998 80.85,225.74999999999997 80.14999999999999,227.85 80.85,228.89999999999998 80.85,230.29999999999998 82.6,229.95 84.0,230.99999999999997 83.3,230.29999999999998 83.64999999999999,228.89999999999998 81.19999999999999,227.14999999999998 81.55,226.45 82.25,226.45 80.85,226.45 82.25,223.64999999999998 82.25,222.6 81.55,224.7 80.85,225.39999999999998 80.14999999999999,225.04999999999998 80.85,221.54999999999998" stroke="#aaa" stroke-width="1" /><polyline fill="none" points="87.85,229.6 87.85,230.64999999999998 88.89999999999999,231.35 88.55,230.99999999999997 89.6,230.29999999999998 94.85,235.54999999999998 98.69999999999999,238.35 98.0,237.64999999999998 98.69999999999999,237.29999999999998 100.44999999999999,239.39999999999998 102.19999999999999,239.39999999999998 103.25,240.45 104.64999999999999,239.39999999999998 105.69999999999999,239.39999999999998 105.69999999999999,238.35 105.0,237.99999999999997 104.3,238.7 104.3,239.74999999999997 101.5,239.74999999999997 99.05,237.29999999999998 96.25,236.6 93.1,233.79999999999998 92.39999999999999,232.04999999999998 93.44999999999999,230.99999999999997 92.39999999999999,230.29999999999998 92.05,228.89999999999998 91.69999999999999,229.24999999999997 92.75,230.99999999999997 92.05,232.39999999999998 89.94999999999999,230.29999999999998 88.55,230.99999999999997 87.5,230.29999999999998 89.25,228.89999999999998 91.0,230.29999999999998 89.6,228.89999999999998" stroke="#aaa" stroke-width="1" /><polyline fill="none" points="79.1,46.9 74.55,51.8 73.14999999999999,55.3 73.14999999999999,56.699999999999996 72.1,58.099999999999994 72.1,59.49999999999999 68.94999999999999,62.65 67.55,66.14999999999999 65.45,68.25 65.45,69.3 64.39999999999999,71.05 64.75,75.94999999999999 64.39999999999999,71.39999999999999 65.45,68.6 67.55,66.5 68.94999999999999,62.99999999999999 72.1,59.849999999999994 72.1,58.449999999999996 73.14999999999999,57.05 73.14999999999999,55.3 74.55,52.15" stroke="#aaa" stroke-width="1" /><polyline fill="none" points="168.7,32.55 171.5,34.3 175.7,34.3 177.45,37.8 186.54999999999998,37.449999999999996 188.29999999999998,38.15 190.39999999999998,41.3 193.2,43.4 192.5,44.099999999999994 191.79999999999998,43.4 191.45,43.75 192.5,47.949999999999996 193.54999999999998,49.0 192.5,51.099999999999994 192.85,52.15 195.64999999999998,53.199999999999996 197.39999999999998,52.5 198.79999999999998,53.9 198.1,54.599999999999994 198.79999999999998,53.9 199.5,54.599999999999994 198.79999999999998,55.3 199.5,54.949999999999996 198.45,52.849999999999994 194.25,52.849999999999994 193.2,51.8 194.25,51.099999999999994 193.2,51.8 192.5,51.449999999999996 193.2,50.05 193.89999999999998,50.05 193.54999999999998,48.65 192.14999999999998,46.9 191.45,44.099999999999994 192.85,44.099999999999994 193.2,45.15 193.2,43.05 190.39999999999998,40.949999999999996 189.0,38.5 187.25,37.449999999999996 177.45,37.8 176.39999999999998,36.05 176.39999999999998,34.65 175.7,34.3 176.39999999999998,33.599999999999994 180.95,33.949999999999996 181.29999999999998,35.0 182.7,35.699999999999996 181.29999999999998,34.65 181.29999999999998,33.949999999999996 176.39999999999998,33.599999999999994 175.7,34.3 171.5,34.3" stroke="#aaa" stroke-width="1" /><polyline fill="none" points="85.39999999999999,229.95 85.75,231.35 87.14999999999999,232.74999999999997 86.8,233.1 85.05,231.7 84.69999999999999,232.39999999999998 84.0,231.7 84.0,232.39999999999998 87.5,235.54999999999998 87.5,236.6 91.69999999999999,240.79999999999998 92.75,241.14999999999998 96.94999999999999,246.04999999999998 96.25,246.74999999999997 96.25,247.79999999999998 96.94999999999999,246.39999999999998 98.35,248.14999999999998 96.25,244.64999999999998 87.5,236.24999999999997 87.5,235.2 84.69999999999999,232.39999999999998 85.75,232.04999999999998 87.14999999999999,233.1" stroke="#aaa" stroke-width="1" /><polyline fill="none" points="199.5,237.99999999999997 197.39999999999998,238.35 196.0,241.49999999999997 190.39999999999998,246.39999999999998 187.25,247.45 185.14999999999998,248.85 179.54999999999998,250.24999999999997 176.39999999999998,251.64999999999998 175.0,251.64999999999998 173.95,252.35 168.7,252.7 167.64999999999998,251.64999999999998 167.64999999999998,253.04999999999998 162.75,252.7 161.7,253.39999999999998 152.25,253.74999999999997 143.85,253.04999999999998 140.7,251.99999999999997 139.29999999999998,252.35 134.39999999999998,251.29999999999998 133.7,250.6 132.29999999999998,250.95 130.9,249.89999999999998 132.65,251.29999999999998 133.35,250.6 134.04999999999998,251.29999999999998 139.29999999999998,252.35 140.7,251.99999999999997 143.85,253.04999999999998 152.25,253.74999999999997 173.95,252.35 178.5,250.6 185.5,248.85 191.1,246.04999999999998 196.0,241.85 197.75,238.35" stroke="#aaa" stroke-width="1" /><polyline fill="none" points="128.45,20.299999999999997 127.74999999999999,19.599999999999998 125.99999999999999,19.599999999999998 124.6,18.549999999999997 125.3,19.25 123.89999999999999,20.299999999999997 125.64999999999999,20.65 125.99999999999999,22.049999999999997 124.94999999999999,22.4 124.6,24.15 123.55,25.2 122.49999999999999,25.2 120.05,26.599999999999998 118.64999999999999,25.9 115.49999999999999,25.9 114.44999999999999,27.299999999999997 109.55,27.299999999999997 106.75,30.099999999999998 103.94999999999999,31.15 102.19999999999999,32.55 100.44999999999999,32.9 98.35,35.699999999999996 96.25,36.05 95.19999999999999,37.449999999999996 91.69999999999999,37.8 91.69999999999999,38.5 92.75,37.449999999999996 95.19999999999999,37.449999999999996 95.55,37.8 94.5,38.849999999999994 93.1,38.5 94.14999999999999,38.849999999999994 93.44999999999999,39.55 90.3,39.55 87.85,41.65 90.3,39.55 93.8,39.55 95.55,38.15 96.6,36.05 98.69999999999999,35.699999999999996 101.14999999999999,32.55 103.25,32.199999999999996 104.64999999999999,30.799999999999997 107.1,30.099999999999998 109.55,27.65 114.44999999999999,27.299999999999997 115.85,25.9 118.64999999999999,25.9 120.05,26.599999999999998 122.49999999999999,25.2 123.55,25.2 124.6,24.15 124.94999999999999,22.75 126.69999999999999,22.049999999999997 125.64999999999999,20.65 124.24999999999999,19.95 125.64999999999999,19.25" stroke="#aaa" stroke-width="1" /><polyline fill="none" points="137.2,24.5 137.89999999999998,25.549999999999997 139.29999999999998,25.9 141.04999999999998,23.799999999999997 143.5,23.799999999999997 143.85,24.15 143.14999999999998,24.849999999999998 141.39999999999998,24.849999999999998 141.04999999999998,25.9 140.0,26.25 148.75,26.25 150.5,27.65 149.45,28.7 148.75,28.7 148.39999999999998,28.0 148.04999999999998,28.349999999999998 148.75,30.099999999999998 148.04999999999998,28.7 148.39999999999998,28.349999999999998 149.79999999999998,29.049999999999997 150.5,28.0 150.5,27.299999999999997 148.75,26.25 145.95,26.25 145.25,25.549999999999997 142.79999999999998,26.25 141.75,25.9 141.75,24.849999999999998 143.85,24.849999999999998 143.85,24.15 144.89999999999998,24.849999999999998 144.54999999999998,24.5 145.25,23.799999999999997 144.54999999999998,24.5 143.85,23.45 144.54999999999998,22.75 145.6,23.099999999999998 145.25,22.75 143.85,23.099999999999998 143.5,23.799999999999997 141.39999999999998,23.799999999999997 140.35,22.049999999999997 140.35,23.45 141.04999999999998,23.799999999999997 139.29999999999998,25.9 138.6,25.9" stroke="#aaa" stroke-width="1" /><polyline fill="none" points="62.99999999999999,234.85 65.1,236.6 69.3,237.29999999999998 75.94999999999999,240.45 77.35,240.45 83.3,242.54999999999998 84.0,243.24999999999997 85.05,243.24999999999997 85.75,244.29999999999998 88.89999999999999,244.99999999999997 96.94999999999999,249.2 100.1,249.2 101.14999999999999,250.24999999999997 108.14999999999999,253.39999999999998 116.55,256.2 117.94999999999999,257.25 120.74999999999999,257.59999999999997 122.85,259.34999999999997 125.3,260.05 128.79999999999998,262.15 130.54999999999998,262.15 129.15,262.15 123.89999999999999,259.7 121.8,257.95 118.3,257.25 114.1,255.14999999999998 105.0,251.99999999999997 100.44999999999999,249.2 96.94999999999999,249.2 95.19999999999999,247.79999999999998 92.05,246.74999999999997 89.94999999999999,245.35 86.8,244.64999999999998 85.05,243.24999999999997 77.35,240.45 75.94999999999999,240.45 70.0,237.29999999999998 65.45,236.6" stroke="#aaa" stroke-width="1" /><polyline fill="none" points="101.5,249.2 107.8,250.6 109.55,252.35 110.94999999999999,252.35 112.0,253.04999999999998 113.39999999999999,252.7 119.35,255.49999999999997 121.8,255.85 123.89999999999999,257.59999999999997 127.05,257.25 129.15,258.3 130.2,257.59999999999997 131.25,258.65 136.5,259.7 139.64999999999998,259.34999999999997 141.04999999999998,260.05 149.79999999999998,260.4 155.75,261.45 159.25,261.09999999999997 160.29999999999998,261.8 159.25,261.09999999999997 155.75,261.45 154.35,261.09999999999997 154.0,260.4 153.29999999999998,261.09999999999997 153.29999999999998,259.7 152.95,260.75 151.89999999999998,261.09999999999997 149.79999999999998,260.4 145.95,260.4 144.89999999999998,259.7 144.2,260.4 141.04999999999998,260.05 139.64999999999998,259.34999999999997 136.5,259.7 131.6,258.65 130.54999999999998,257.59999999999997 129.15,258.3 127.39999999999999,257.25 124.24999999999999,257.59999999999997 123.19999999999999,256.2 117.6,254.79999999999998 113.39999999999999,252.7 112.0,253.04999999999998 111.3,252.35 109.89999999999999,252.35 108.5,251.29999999999998 108.5,250.6 106.75,250.6 101.85,248.85" stroke="#aaa" stroke-width="1" /><polyline fill="none" points="59.15,214.2 58.449999999999996,214.2 57.4,215.6 56.0,216.29999999999998 52.15,220.5 49.0,220.85 47.599999999999994,222.6 44.099999999999994,225.04999999999998 44.449999999999996,225.39999999999998 49.349999999999994,220.85 52.5,220.5 54.599999999999994,217.7" stroke="#aaa" stroke-width="1" /><polyline fill="none" points="94.5,202.64999999999998 93.8,203.0 93.1,202.29999999999998 93.8,201.6 93.1,202.29999999999998 92.39999999999999,201.6 92.75,200.89999999999998 91.69999999999999,201.95 86.8,201.95 83.64999999999999,202.64999999999998 57.05,203.7 55.65,204.39999999999998 50.4,205.1 45.15,207.54999999999998 40.599999999999994,208.6 36.75,211.39999999999998 33.25,211.75 30.45,214.54999999999998 28.0,220.14999999999998 28.0,225.74999999999997 26.25,227.85 25.9,233.1 24.15,235.54999999999998 23.45,238.7 22.049999999999997,241.49999999999997 22.049999999999997,245.7 20.65,246.74999999999997 16.799999999999997,247.79999999999998 16.099999999999998,248.49999999999997 0.0,253.04999999999998 5.6,251.64999999999998 6.6499999999999995,250.95 8.049999999999999,250.95 11.2,249.54999999999998 15.049999999999999,248.85 22.049999999999997,246.04999999999998 22.049999999999997,241.49999999999997 23.099999999999998,239.74999999999997 24.15,235.54999999999998 25.549999999999997,234.49999999999997 26.25,231.7 26.25,227.85 28.0,226.1 27.65,222.25 28.349999999999998,219.45 30.45,214.89999999999998 33.599999999999994,211.75 36.75,211.39999999999998 41.65,208.25 45.5,207.54999999999998 48.65,205.79999999999998 57.05,203.7 72.44999999999999,203.35 75.94999999999999,202.64999999999998 83.64999999999999,202.64999999999998 92.39999999999999,201.6 93.8,203.0 92.39999999999999,204.04999999999998 93.1,204.75 92.75,204.04999999999998" stroke="#aaa" stroke-width="1" /><polyline fill="none" points="135.45,262.5 138.6,264.25 150.14999999999998,265.65 164.14999999999998,265.65 165.2,265.3 164.5,264.95 165.2,263.9 165.89999999999998,264.25 165.2,263.9 164.5,264.59999999999997 163.45,264.25 160.64999999999998,264.95 152.95,263.9 146.64999999999998,263.9 143.14999999999998,263.2 142.1,262.5 141.39999999999998,263.2 138.25,262.84999999999997 137.54999999999998,263.55" stroke="#aaa" stroke-width="1" /><polyline fill="none" points="130.9,262.84999999999997 131.95,263.9 136.5,265.65 142.79999999999998,269.84999999999997 143.85,269.5 145.25,270.9 146.64999999999998,270.9 147.35,270.2 146.64999999999998,269.5 145.95,269.5 147.0,270.2 146.64999999999998,270.9 144.54999999999998,270.2 143.85,269.5 144.54999999999998,269.15 144.54999999999998,268.09999999999997 142.79999999999998,268.79999999999995 144.2,268.09999999999997 144.54999999999998,268.45 143.14999999999998,269.84999999999997 136.14999999999998,265.3 133.7,264.59999999999997" stroke="#aaa" stroke-width="1" /><polyline fill="none" points="260.05,238.35 258.3,235.89999999999998 257.25,235.89999999999998 256.2,234.85 254.45,234.49999999999997 255.49999999999997,234.49999999999997 257.25,235.89999999999998 257.59999999999997,235.54999999999998 260.05,238.7 259.7,239.74999999999997 258.65,239.39999999999998 254.1,241.85 252.7,241.85 250.6,243.24999999999997 247.45,243.24999999999997 246.04999999999998,244.29999999999998 244.64999999999998,244.29999999999998 240.79999999999998,246.04999999999998 237.29999999999998,246.39999999999998 232.74999999999997,248.49999999999997 228.89999999999998,248.49999999999997 228.54999999999998,249.54999999999998 229.24999999999997,248.49999999999997 232.74999999999997,248.49999999999997 237.29999999999998,246.39999999999998 240.79999999999998,246.04999999999998 243.24999999999997,245.35 244.64999999999998,244.29999999999998 246.39999999999998,244.29999999999998 247.45,243.24999999999997 250.95,243.24999999999997 251.99999999999997,242.2 254.1,241.85 255.49999999999997,240.79999999999998 259.34999999999997,239.39999999999998 260.05,240.1 259.7,245.7 257.95,247.79999999999998 257.95,249.2 257.25,250.24999999999997 258.3,247.45 259.7,246.04999999999998" stroke="#aaa" stroke-width="1" /><polyline fill="none" points="246.39999999999998,229.24999999999997 247.1,229.95 249.54999999999998,230.29999999999998 254.45,232.39999999999998 255.49999999999997,233.45 257.95,234.14999999999998 260.75,236.95 261.8,240.1 261.45,245.7 260.05,248.14999999999998 261.45,246.04999999999998 261.8,239.74999999999997 260.4,236.24999999999997 258.65,234.49999999999997 255.85,233.45 254.79999999999998,232.39999999999998" stroke="#aaa" stroke-width="1" /><polyline fill="none" points="9.1,251.64999999999998 10.5,253.04999999999998 14.0,254.79999999999998 20.299999999999997,261.45 19.95,262.15 22.75,264.59999999999997 22.75,265.3 24.15,266.7 25.9,270.54999999999995 27.299999999999997,272.29999999999995 28.7,271.25 29.049999999999997,270.2 30.099999999999998,271.25 29.4,270.54999999999995 30.099999999999998,269.84999999999997 34.3,268.45 43.05,267.75 56.0,267.75 64.39999999999999,266.7 71.05,264.95 74.55,264.95 71.05,264.95 62.3,267.05 56.0,267.75 43.05,267.75 34.3,268.45 29.4,270.2 28.7,269.84999999999997 28.7,268.09999999999997 28.7,271.25 27.299999999999997,271.95 24.15,267.4 24.15,266.34999999999997 20.299999999999997,261.8 19.599999999999998,260.05 14.7,255.14999999999998" stroke="#aaa" stroke-width="1" /><polyline fill="none" points="10.5,250.95 13.649999999999999,251.99999999999997 17.849999999999998,256.2 18.2,257.25 18.2,256.2 22.75,260.4 23.099999999999998,261.45 22.049999999999997,262.15 22.75,261.8 25.9,265.3 27.299999999999997,268.09999999999997 26.599999999999998,269.5 27.299999999999997,268.79999999999995 27.65,269.15 27.65,268.09999999999997 26.25,265.65 23.099999999999998,261.8 23.099999999999998,261.09999999999997 23.799999999999997,260.75 23.099999999999998,260.75 14.0,251.99999999999997" stroke="#aaa" stroke-width="1" /></svg>