<?xml version='1.0' encoding='UTF-8'?>
<svg xmlns="http://www.w3.org/2000/svg" xmlns:ev="http://www.w3.org/2001/xml-events" xmlns:xlink="http://www.w3.org/1999/xlink" baseProfile="full" height="800" version="1.1" width="800">
  <polyline fill="none" points="369.0,393.0 374.0,393.0 372.0,398.0 368.0,397.0 369.0,395.0" stroke="#ca49f6" stroke-width="1"/>
  <polyline fill="none" points="330.0,379.0 321.0,384.0 322.0,399.0 330.0,417.0 341.0,429.0 345.0,429.0 353.0,418.0 355.0,403.0 352.0,400.0 353.0,394.0 348.0,394.0 343.0,383.0 338.0,384.0 334.0,379.0" stroke="#24fb79" stroke-width="1"/>
  <polyline fill="none" points="443.0,337.0 441.0,348.0 445.0,358.0 443.0,346.0" stroke="#4d29ae" stroke-width="1"/>
  <polyline fill="none" points="338.0,457.0 342.0,468.0 344.0,468.0 342.0,457.0" stroke="#5bd04c" stroke-width="1"/>
  <polyline fill="none" points="302.0,344.0 307.0,393.0 323.0,429.0 329.0,456.0 314.0,484.0 310.0,497.0 313.0,506.0 306.0,509.0 299.0,507.0 299.0,515.0 308.0,517.0 317.0,511.0 332.0,510.0 324.0,483.0 328.0,477.0 327.0,464.0 336.0,453.0 321.0,405.0 306.0,385.0 305.0,368.0 308.0,360.0 303.0,354.0 303.0,345.0" stroke="#6f70e9" stroke-width="1"/>
  <polyline fill="none" points="425.0,295.0 435.0,309.0 442.0,331.0 432.0,302.0" stroke="#f3cfb5" stroke-width="1"/>
  <polyline fill="none" points="448.0,476.0 453.0,475.0 460.0,486.0 457.0,497.0 452.0,495.0 445.0,498.0 448.0,477.0" stroke="#afde5a" stroke-width="1"/>
  <polyline fill="none" points="311.0,476.0 294.0,481.0 295.0,486.0 300.0,487.0 311.0,477.0" stroke="#456ce5" stroke-width="1"/>
  <polyline fill="none" points="474.0,524.0 474.0,530.0 478.0,530.0 477.0,524.0" stroke="#de94bc" stroke-width="1"/>
  <polyline fill="none" points="507.0,503.0 511.0,505.0 504.0,517.0 501.0,515.0 505.0,505.0" stroke="#311f8e" stroke-width="1"/>
  <polyline fill="none" points="469.0,543.0 467.0,564.0 472.0,562.0 471.0,545.0" stroke="#d1495e" stroke-width="1"/>
  <polyline fill="none" points="537.0,542.0 511.0,570.0 513.0,573.0 537.0,544.0" stroke="#d6c851" stroke-width="1"/>
  <polyline fill="none" points="232.0,537.0 228.0,539.0 229.0,545.0 238.0,550.0 238.0,544.0 233.0,538.0" stroke="#479097" stroke-width="1"/>
  <polyline fill="none" points="283.0,591.0 282.0,605.0 285.0,605.0 287.0,610.0 291.0,610.0 293.0,606.0 290.0,591.0" stroke="#c29808" stroke-width="1"/>
  <polyline fill="none" points="213.0,565.0 212.0,570.0 218.0,576.0 220.0,584.0 235.0,600.0 239.0,600.0 241.0,596.0 243.0,579.0 218.0,565.0" stroke="#ee66fc" stroke-width="1"/>
  <polyline fill="none" points="553.0,592.0 547.0,605.0 543.0,604.0 545.0,606.0 530.0,615.0 519.0,627.0 512.0,629.0 511.0,633.0 512.0,638.0 512.0,630.0 514.0,628.0 515.0,631.0 517.0,627.0 519.0,629.0 525.0,620.0 542.0,607.0 547.0,605.0 549.0,610.0 548.0,603.0 553.0,593.0" stroke="#b7b295" stroke-width="1"/>
  <polyline fill="none" points="405.0,652.0 402.0,655.0 404.0,665.0 401.0,669.0 402.0,692.0 407.0,692.0 408.0,681.0 413.0,676.0 412.0,656.0 409.0,652.0" stroke="#54b3f1" stroke-width="1"/>
  <polyline fill="none" points="354.0,676.0 353.0,684.0 361.0,684.0 358.0,676.0" stroke="#7fd794" stroke-width="1"/>
  <polyline fill="none" points="352.0,686.0 350.0,704.0 357.0,708.0 362.0,707.0 362.0,702.0 358.0,698.0 358.0,686.0" stroke="#764f66" stroke-width="1"/>
  <polyline fill="none" points="189.0,622.0 189.0,633.0 194.0,633.0 196.0,629.0 193.0,622.0" stroke="#b3c0ab" stroke-width="1"/>
  <polyline fill="none" points="177.0,663.0 174.0,664.0 174.0,669.0 179.0,669.0 178.0,663.0" stroke="#0b28e3" stroke-width="1"/>
  <polyline fill="none" points="509.0,757.0 515.0,766.0 512.0,767.0 508.0,763.0 509.0,758.0" stroke="#aec73c" stroke-width="1"/>
  <polyline fill="none" points="521.0,755.0 524.0,754.0 526.0,760.0 532.0,764.0 525.0,767.0 521.0,757.0" stroke="#9bdf3b" stroke-width="1"/>
  <polyline fill="none" points="161.0,687.0 154.0,776.0 149.0,799.0 153.0,799.0 157.0,742.0 166.0,697.0 162.0,688.0" stroke="#ab5a16" stroke-width="1"/>
  <polyline points="408.0,375.0 407.0,382.0 415.0,392.0 410.0,397.0 405.0,397.0 403.0,403.0 408.0,409.0" fill="none" stroke="#803646" stroke-width="1"/><polyline points="408.0,411.0 412.0,415.0 411.0,425.0 413.0,421.0 419.0,420.0 422.0,424.0 420.0,417.0 423.0,419.0 423.0,409.0" fill="none" stroke="#803646" stroke-width="1"/><polyline points="423.0,408.0 423.0,415.0 420.0,413.0" fill="none" stroke="#803646" stroke-width="1"/><polyline points="414.0,421.0 404.0,404.0 404.0,399.0" fill="none" stroke="#803646" stroke-width="1"/><polyline points="397.0,359.0 381.0,362.0 380.0,366.0 385.0,368.0 384.0,372.0 373.0,375.0 380.0,376.0 389.0,393.0 385.0,386.0 387.0,380.0 402.0,388.0 390.0,380.0 384.0,382.0 382.0,380.0 380.0,374.0" fill="none" stroke="#a10386" stroke-width="1"/><polyline points="382.0,374.0 385.0,368.0" fill="none" stroke="#a10386" stroke-width="1"/><polyline points="380.0,364.0 383.0,361.0 403.0,359.0 410.0,362.0 406.0,367.0 408.0,364.0 412.0,372.0 407.0,372.0 413.0,374.0" fill="none" stroke="#a10386" stroke-width="1"/><polyline points="398.0,359.0 409.0,360.0 411.0,363.0 409.0,369.0" fill="none" stroke="#65f836" stroke-width="1"/><polyline points="406.0,371.0 397.0,384.0 386.0,379.0" fill="none" stroke="#65f836" stroke-width="1"/><polyline points="366.0,310.0 357.0,323.0 335.0,328.0 322.0,327.0 325.0,323.0 320.0,335.0 323.0,354.0 321.0,377.0 326.0,381.0" fill="none" stroke="#d66349" stroke-width="1"/><polyline points="321.0,398.0 328.0,412.0 326.0,414.0" fill="none" stroke="#d66349" stroke-width="1"/><polyline points="330.0,379.0 337.0,384.0 341.0,378.0 347.0,381.0" fill="none" stroke="#d66349" stroke-width="1"/><polyline points="348.0,381.0 346.0,372.0 344.0,378.0 339.0,380.0 336.0,377.0 339.0,367.0" fill="none" stroke="#d66349" stroke-width="1"/><polyline points="339.0,368.0 336.0,374.0 338.0,381.0 331.0,379.0 328.0,372.0 325.0,378.0" fill="none" stroke="#d66349" stroke-width="1"/><polyline points="320.0,335.0 329.0,327.0 347.0,327.0 345.0,326.0 347.0,324.0 354.0,322.0 357.0,323.0 355.0,327.0" fill="none" stroke="#d66349" stroke-width="1"/><polyline points="360.0,271.0 333.0,277.0 319.0,288.0 307.0,308.0 303.0,333.0 306.0,311.0 308.0,314.0 310.0,307.0 308.0,306.0 314.0,295.0 317.0,292.0 318.0,294.0 318.0,290.0 326.0,282.0 341.0,274.0 360.0,271.0 385.0,274.0 406.0,282.0 423.0,293.0 435.0,306.0 442.0,324.0 446.0,386.0 444.0,391.0 440.0,390.0 436.0,396.0 431.0,372.0 422.0,372.0 428.0,365.0 423.0,350.0 423.0,343.0 426.0,344.0 418.0,320.0 408.0,317.0 420.0,323.0 419.0,326.0 413.0,323.0 422.0,330.0" fill="none" stroke="#e0f64b" stroke-width="1"/><polyline points="428.0,367.0 416.0,372.0 415.0,367.0 424.0,363.0 408.0,356.0 420.0,363.0 415.0,366.0 414.0,376.0 417.0,378.0 417.0,372.0 429.0,371.0 434.0,380.0 435.0,391.0 432.0,393.0 429.0,407.0 431.0,408.0 426.0,410.0 425.0,415.0 431.0,408.0 432.0,394.0 436.0,396.0 435.0,408.0 441.0,404.0 436.0,405.0 434.0,402.0 437.0,394.0 444.0,393.0 441.0,453.0 446.0,465.0 469.0,481.0 469.0,492.0 461.0,496.0 460.0,483.0 455.0,476.0 450.0,473.0" fill="none" stroke="#e0f64b" stroke-width="1"/><polyline points="460.0,496.0 467.0,497.0 463.0,499.0 466.0,499.0" fill="none" stroke="#e0f64b" stroke-width="1"/><polyline points="470.0,480.0 484.0,486.0 487.0,496.0 483.0,499.0 481.0,496.0 481.0,489.0" fill="none" stroke="#e0f64b" stroke-width="1"/><polyline points="487.0,498.0 493.0,506.0 494.0,518.0 499.0,521.0 501.0,529.0 505.0,528.0 517.0,512.0 524.0,511.0 523.0,508.0 538.0,518.0 530.0,529.0 525.0,530.0 527.0,528.0 530.0,530.0 524.0,537.0 516.0,538.0 517.0,546.0" fill="none" stroke="#e0f64b" stroke-width="1"/><polyline points="531.0,530.0 533.0,532.0 522.0,547.0 526.0,551.0 524.0,553.0" fill="none" stroke="#e0f64b" stroke-width="1"/><polyline points="524.0,553.0 529.0,548.0 534.0,541.0 530.0,543.0 528.0,538.0 530.0,535.0" fill="none" stroke="#e0f64b" stroke-width="1"/><polyline points="531.0,535.0 541.0,522.0" fill="none" stroke="#e0f64b" stroke-width="1"/><polyline points="539.0,518.0 556.0,538.0 564.0,565.0 568.0,614.0 584.0,685.0 583.0,689.0 574.0,689.0 577.0,695.0 576.0,703.0 582.0,705.0 582.0,710.0 570.0,758.0 569.0,780.0" fill="none" stroke="#e0f64b" stroke-width="1"/><polyline points="570.0,758.0 585.0,691.0 581.0,663.0 568.0,614.0 567.0,588.0 560.0,548.0 553.0,532.0 543.0,520.0 490.0,488.0 454.0,472.0 445.0,463.0 440.0,448.0 446.0,386.0 443.0,366.0 445.0,353.0 443.0,329.0 437.0,310.0 425.0,294.0 408.0,283.0" fill="none" stroke="#e0f64b" stroke-width="1"/><polyline points="341.0,453.0 341.0,456.0 337.0,455.0 340.0,474.0 356.0,497.0 339.0,471.0" fill="none" stroke="#a38c60" stroke-width="1"/><polyline points="342.0,456.0 353.0,467.0 367.0,473.0" fill="none" stroke="#a38c60" stroke-width="1"/><polyline points="430.0,447.0 428.0,450.0 423.0,449.0 417.0,457.0 400.0,468.0 382.0,473.0" fill="none" stroke="#87acb3" stroke-width="1"/><polyline points="417.0,457.0 419.0,461.0" fill="none" stroke="#87acb3" stroke-width="1"/><polyline points="419.0,461.0 420.0,467.0" fill="none" stroke="#87acb3" stroke-width="1"/><polyline points="428.0,450.0 430.0,467.0 427.0,474.0 401.0,503.0 390.0,504.0 376.0,488.0 375.0,483.0 374.0,487.0 387.0,502.0 397.0,506.0 405.0,501.0 425.0,478.0" fill="none" stroke="#87acb3" stroke-width="1"/><polyline points="430.0,447.0 434.0,452.0 438.0,463.0 439.0,483.0 433.0,493.0 423.0,534.0 412.0,543.0 407.0,536.0" fill="none" stroke="#87acb3" stroke-width="1"/><polyline points="406.0,536.0 409.0,542.0 418.0,542.0 412.0,552.0 409.0,549.0 407.0,551.0 412.0,552.0 418.0,546.0 413.0,559.0 429.0,517.0" fill="none" stroke="#87acb3" stroke-width="1"/><polyline points="312.0,394.0 322.0,406.0 321.0,414.0 315.0,409.0 325.0,417.0 337.0,451.0 327.0,466.0 329.0,485.0" fill="none" stroke="#3fdb2b" stroke-width="1"/><polyline points="317.0,512.0 302.0,522.0 297.0,522.0 296.0,517.0 302.0,518.0 294.0,515.0 293.0,503.0" fill="none" stroke="#3fdb2b" stroke-width="1"/><polyline points="293.0,504.0 295.0,521.0 303.0,522.0 314.0,532.0" fill="none" stroke="#3fdb2b" stroke-width="1"/><polyline points="406.0,560.0 404.0,563.0 394.0,562.0 396.0,564.0 392.0,572.0" fill="none" stroke="#cd996e" stroke-width="1"/><polyline points="397.0,563.0 402.0,563.0 405.0,568.0 407.0,566.0 407.0,571.0 409.0,568.0 411.0,570.0 406.0,587.0 412.0,563.0" fill="none" stroke="#cd996e" stroke-width="1"/><polyline points="401.0,310.0 394.0,316.0 377.0,319.0 358.0,330.0 327.0,329.0 323.0,334.0 325.0,353.0 323.0,368.0 327.0,368.0 335.0,359.0 345.0,359.0 366.0,363.0 374.0,371.0 382.0,372.0 386.0,383.0 380.0,375.0 372.0,378.0 365.0,391.0 367.0,399.0 363.0,407.0 370.0,407.0 395.0,421.0 394.0,424.0 384.0,423.0 384.0,428.0 387.0,429.0 384.0,439.0 389.0,444.0 405.0,442.0 405.0,436.0 398.0,431.0 405.0,423.0 410.0,429.0 410.0,436.0 413.0,436.0 413.0,442.0 418.0,441.0 418.0,446.0 423.0,447.0 419.0,448.0 415.0,458.0 376.0,480.0 375.0,486.0 389.0,503.0 396.0,504.0" fill="none" stroke="#4fb22a" stroke-width="1"/><polyline points="425.0,477.0 429.0,469.0 429.0,447.0 437.0,458.0" fill="none" stroke="#4fb22a" stroke-width="1"/><polyline points="433.0,495.0 426.0,528.0 418.0,539.0 414.0,551.0" fill="none" stroke="#4fb22a" stroke-width="1"/><polyline points="408.0,551.0 405.0,543.0 400.0,546.0 386.0,543.0 365.0,562.0 363.0,568.0 357.0,631.0 357.0,646.0 363.0,646.0 364.0,641.0 370.0,640.0 370.0,628.0 374.0,625.0 374.0,621.0 370.0,619.0 373.0,611.0 377.0,610.0 376.0,602.0 380.0,597.0 382.0,604.0 389.0,601.0 397.0,574.0 395.0,570.0 403.0,570.0 404.0,564.0 409.0,564.0 404.0,589.0 401.0,591.0 403.0,599.0 394.0,608.0 395.0,630.0 391.0,651.0 383.0,668.0 382.0,690.0 377.0,715.0 374.0,717.0 343.0,709.0 350.0,659.0 347.0,645.0 346.0,590.0 352.0,558.0 348.0,558.0 347.0,554.0 353.0,552.0 355.0,548.0 352.0,543.0 339.0,546.0 337.0,540.0 333.0,540.0 331.0,545.0 332.0,558.0 328.0,574.0 333.0,579.0 334.0,592.0 329.0,594.0 329.0,597.0 336.0,600.0 337.0,607.0 332.0,616.0 338.0,648.0 334.0,657.0 328.0,649.0 327.0,617.0 321.0,606.0 317.0,542.0 305.0,539.0 297.0,549.0 298.0,564.0 303.0,571.0 298.0,607.0 308.0,618.0 309.0,627.0 314.0,629.0 311.0,630.0 311.0,636.0 317.0,646.0 316.0,701.0 313.0,704.0 307.0,702.0 297.0,704.0 276.0,698.0 271.0,706.0 288.0,710.0 302.0,719.0 304.0,746.0 329.0,753.0 347.0,754.0 346.0,746.0 349.0,744.0 352.0,748.0 369.0,749.0 414.0,763.0 418.0,767.0 427.0,766.0 433.0,771.0 446.0,770.0 453.0,775.0 465.0,773.0 470.0,768.0 478.0,775.0 482.0,775.0 483.0,772.0 490.0,774.0 491.0,771.0 500.0,773.0 501.0,770.0 510.0,769.0 513.0,773.0 514.0,771.0 523.0,775.0 528.0,783.0 529.0,779.0 533.0,786.0 540.0,786.0 546.0,799.0" fill="none" stroke="#4fb22a" stroke-width="1"/><polyline points="582.0,703.0 579.0,705.0 576.0,702.0 575.0,691.0" fill="none" stroke="#4fb22a" stroke-width="1"/><polyline points="584.0,686.0 569.0,622.0" fill="none" stroke="#4fb22a" stroke-width="1"/><polyline points="440.0,449.0 445.0,383.0 440.0,386.0" fill="none" stroke="#4fb22a" stroke-width="1"/><polyline points="422.0,372.0 423.0,369.0 430.0,368.0 427.0,353.0 428.0,335.0 423.0,334.0 417.0,315.0" fill="none" stroke="#4fb22a" stroke-width="1"/><polyline points="263.0,523.0 264.0,525.0 260.0,527.0 256.0,524.0 267.0,528.0 270.0,547.0 275.0,550.0 281.0,547.0 285.0,549.0 283.0,553.0 275.0,552.0 278.0,555.0" fill="none" stroke="#943968" stroke-width="1"/><polyline points="279.0,555.0 284.0,552.0 290.0,557.0 288.0,566.0 292.0,573.0 290.0,578.0 292.0,581.0 289.0,564.0 293.0,560.0 289.0,561.0 290.0,556.0 285.0,549.0 298.0,546.0" fill="none" stroke="#943968" stroke-width="1"/><polyline points="297.0,546.0 289.0,548.0 286.0,542.0 287.0,533.0 288.0,547.0" fill="none" stroke="#943968" stroke-width="1"/><polyline points="275.0,550.0 273.0,546.0 283.0,542.0 274.0,544.0 272.0,548.0 270.0,543.0 274.0,542.0 276.0,532.0 271.0,542.0 268.0,532.0" fill="none" stroke="#943968" stroke-width="1"/><polyline points="426.0,546.0 416.0,580.0 417.0,585.0 414.0,588.0 414.0,584.0 412.0,589.0" fill="none" stroke="#42a5d9" stroke-width="1"/><polyline points="411.0,589.0 413.0,594.0 407.0,608.0 410.0,609.0 406.0,613.0 406.0,620.0 399.0,621.0 398.0,615.0 399.0,607.0" fill="none" stroke="#42a5d9" stroke-width="1"/><polyline points="409.0,610.0 410.0,612.0 411.0,596.0 414.0,593.0 417.0,595.0" fill="none" stroke="#42a5d9" stroke-width="1"/><polyline points="417.0,595.0 412.0,590.0 422.0,589.0 422.0,599.0 417.0,603.0 420.0,609.0 416.0,613.0 415.0,607.0 414.0,617.0 417.0,624.0 422.0,625.0 428.0,625.0" fill="none" stroke="#42a5d9" stroke-width="1"/><polyline points="415.0,617.0 421.0,611.0 419.0,604.0 423.0,591.0 426.0,591.0 428.0,600.0 427.0,588.0 425.0,590.0 423.0,584.0 425.0,582.0 427.0,586.0 427.0,577.0 430.0,574.0 426.0,582.0 424.0,580.0 426.0,574.0 424.0,572.0 421.0,575.0 421.0,578.0 425.0,574.0 422.0,589.0 416.0,588.0" fill="none" stroke="#42a5d9" stroke-width="1"/><polyline points="416.0,580.0 423.0,556.0 429.0,551.0 425.0,552.0" fill="none" stroke="#42a5d9" stroke-width="1"/><polyline points="405.0,570.0 401.0,576.0 406.0,573.0 404.0,585.0 402.0,586.0 401.0,582.0 394.0,582.0 398.0,575.0 395.0,579.0 394.0,573.0 395.0,588.0 391.0,598.0 385.0,605.0" fill="none" stroke="#743f3d" stroke-width="1"/><polyline points="378.0,610.0 372.0,614.0 374.0,616.0 375.0,611.0 383.0,608.0 384.0,611.0 381.0,614.0 379.0,612.0 383.0,617.0 381.0,614.0 384.0,608.0 377.0,604.0" fill="none" stroke="#743f3d" stroke-width="1"/><polyline points="390.0,599.0 397.0,603.0 397.0,606.0 403.0,600.0 404.0,580.0 407.0,576.0" fill="none" stroke="#743f3d" stroke-width="1"/><polyline points="249.0,502.0 254.0,513.0 249.0,516.0" fill="none" stroke="#43e2a8" stroke-width="1"/><polyline points="249.0,516.0 242.0,519.0 247.0,517.0" fill="none" stroke="#43e2a8" stroke-width="1"/><polyline points="248.0,518.0 250.0,521.0 252.0,589.0 261.0,589.0 257.0,574.0 251.0,572.0 249.0,524.0 264.0,521.0" fill="none" stroke="#43e2a8" stroke-width="1"/><polyline points="248.0,517.0 251.0,514.0 257.0,514.0" fill="none" stroke="#43e2a8" stroke-width="1"/><polyline points="258.0,514.0 254.0,512.0" fill="none" stroke="#43e2a8" stroke-width="1"/><polyline points="316.0,556.0 321.0,599.0 328.0,618.0 326.0,633.0 328.0,611.0 339.0,608.0 340.0,660.0 333.0,664.0 338.0,666.0 338.0,671.0 335.0,678.0 330.0,681.0 334.0,680.0 341.0,670.0 337.0,665.0 340.0,661.0 339.0,648.0 341.0,644.0" fill="none" stroke="#bd7821" stroke-width="1"/><polyline points="340.0,643.0 340.0,639.0 344.0,637.0 341.0,637.0 339.0,632.0 339.0,608.0 336.0,606.0" fill="none" stroke="#bd7821" stroke-width="1"/><polyline points="335.0,605.0 338.0,599.0" fill="none" stroke="#bd7821" stroke-width="1"/><polyline points="333.0,605.0 328.0,602.0 328.0,582.0" fill="none" stroke="#bd7821" stroke-width="1"/><polyline points="328.0,583.0 326.0,584.0 328.0,592.0 324.0,593.0 328.0,595.0" fill="none" stroke="#bd7821" stroke-width="1"/><polyline points="332.0,605.0 328.0,614.0 325.0,613.0" fill="none" stroke="#bd7821" stroke-width="1"/><polyline points="471.0,482.0 474.0,481.0 484.0,488.0 485.0,497.0 495.0,508.0 496.0,518.0 501.0,518.0 503.0,524.0 507.0,524.0 517.0,511.0" fill="none" stroke="#43ed32" stroke-width="1"/><polyline points="525.0,511.0 514.0,530.0 503.0,566.0 511.0,557.0 511.0,551.0 508.0,549.0" fill="none" stroke="#43ed32" stroke-width="1"/><polyline points="525.0,536.0 535.0,523.0 538.0,523.0" fill="none" stroke="#43ed32" stroke-width="1"/><polyline points="529.0,543.0 533.0,543.0 535.0,539.0 537.0,543.0 514.0,570.0 514.0,574.0 521.0,573.0" fill="none" stroke="#43ed32" stroke-width="1"/><polyline points="521.0,571.0 524.0,570.0 524.0,579.0 533.0,581.0 524.0,588.0 524.0,594.0 527.0,594.0 528.0,598.0 519.0,614.0 541.0,606.0 540.0,610.0 535.0,611.0 524.0,621.0 521.0,632.0 536.0,627.0 530.0,635.0 524.0,659.0 526.0,656.0 534.0,656.0 536.0,652.0 541.0,652.0 541.0,656.0 535.0,659.0 537.0,674.0 541.0,680.0 539.0,682.0 536.0,681.0 537.0,678.0 532.0,680.0 537.0,684.0 535.0,690.0 538.0,688.0 543.0,690.0 548.0,716.0 543.0,721.0 542.0,730.0 533.0,735.0 492.0,726.0 442.0,726.0 438.0,723.0 429.0,726.0 424.0,724.0 409.0,726.0 406.0,723.0 407.0,694.0 401.0,694.0 401.0,701.0 396.0,709.0 398.0,722.0 393.0,723.0 387.0,719.0 391.0,673.0 397.0,643.0 404.0,628.0 408.0,631.0 407.0,639.0 412.0,642.0 412.0,649.0 416.0,649.0 417.0,644.0 421.0,648.0 421.0,656.0 416.0,657.0 416.0,661.0 421.0,661.0 421.0,657.0 426.0,653.0 429.0,658.0 430.0,667.0 420.0,706.0 421.0,718.0 425.0,718.0 429.0,710.0 437.0,683.0 436.0,674.0 439.0,671.0 441.0,675.0 445.0,674.0 446.0,668.0 450.0,673.0 449.0,681.0 444.0,688.0 442.0,709.0 446.0,709.0 456.0,690.0 458.0,679.0 461.0,678.0 470.0,631.0 469.0,577.0 465.0,577.0 461.0,587.0 462.0,608.0 457.0,616.0 457.0,623.0 453.0,625.0 452.0,604.0 456.0,590.0 455.0,577.0 461.0,532.0 469.0,507.0 456.0,508.0 458.0,523.0 451.0,549.0 450.0,573.0 442.0,598.0 438.0,598.0 437.0,586.0 441.0,565.0 444.0,562.0 447.0,534.0 455.0,518.0 455.0,514.0 447.0,509.0 451.0,507.0 450.0,504.0 458.0,505.0" fill="none" stroke="#43ed32" stroke-width="1"/><polyline points="306.0,392.0 327.0,442.0 328.0,459.0 314.0,475.0 263.0,488.0 247.0,495.0 225.0,512.0 214.0,525.0 199.0,556.0 185.0,615.0 161.0,679.0 163.0,682.0 169.0,677.0 203.0,678.0 208.0,682.0 210.0,680.0 190.0,677.0 186.0,671.0 184.0,678.0 165.0,677.0" fill="none" stroke="#f38598" stroke-width="1"/><polyline points="161.0,679.0 169.0,652.0 179.0,632.0 185.0,646.0 192.0,649.0 190.0,654.0 182.0,652.0 180.0,664.0 186.0,664.0 196.0,655.0 201.0,655.0 201.0,658.0 205.0,659.0 209.0,655.0 209.0,651.0 205.0,650.0 206.0,645.0 212.0,650.0 197.0,634.0 198.0,631.0 195.0,631.0" fill="none" stroke="#f38598" stroke-width="1"/><polyline points="197.0,631.0 202.0,640.0 199.0,644.0 202.0,649.0 196.0,651.0 191.0,648.0" fill="none" stroke="#f38598" stroke-width="1"/><polyline points="191.0,646.0 187.0,647.0 186.0,642.0 191.0,640.0 187.0,639.0 185.0,643.0 180.0,634.0" fill="none" stroke="#f38598" stroke-width="1"/><polyline points="180.0,633.0 179.0,630.0 199.0,556.0 217.0,522.0 235.0,504.0 254.0,496.0 239.0,503.0 249.0,494.0 289.0,481.0 295.0,485.0 292.0,488.0 294.0,500.0 296.0,495.0" fill="none" stroke="#f38598" stroke-width="1"/><polyline points="301.0,487.0 304.0,490.0 303.0,506.0 309.0,506.0 312.0,483.0 315.0,482.0" fill="none" stroke="#f38598" stroke-width="1"/><polyline points="315.0,480.0 321.0,475.0 320.0,471.0 324.0,469.0 329.0,452.0" fill="none" stroke="#f38598" stroke-width="1"/><polyline points="342.0,527.0 347.0,530.0 346.0,534.0 351.0,540.0 347.0,543.0 352.0,542.0 369.0,558.0 364.0,566.0 360.0,584.0 357.0,642.0 353.0,647.0 355.0,648.0 353.0,666.0 357.0,671.0 354.0,671.0 346.0,709.0 352.0,679.0 355.0,675.0 358.0,676.0 354.0,673.0 360.0,666.0 363.0,668.0 364.0,670.0 360.0,672.0 362.0,682.0 361.0,677.0 367.0,677.0" fill="none" stroke="#f7cb8c" stroke-width="1"/><polyline points="364.0,670.0 370.0,671.0 363.0,668.0 364.0,665.0 367.0,666.0 366.0,661.0 370.0,660.0 363.0,657.0 368.0,647.0 373.0,650.0 376.0,657.0 372.0,662.0 376.0,667.0 374.0,700.0" fill="none" stroke="#f7cb8c" stroke-width="1"/><polyline points="374.0,700.0 377.0,696.0 374.0,670.0 383.0,661.0" fill="none" stroke="#f7cb8c" stroke-width="1"/><polyline points="371.0,639.0 368.0,627.0 361.0,623.0 364.0,623.0 371.0,633.0 370.0,638.0 359.0,638.0 362.0,638.0 364.0,643.0" fill="none" stroke="#f7cb8c" stroke-width="1"/><polyline points="367.0,646.0 362.0,659.0" fill="none" stroke="#f7cb8c" stroke-width="1"/><polyline points="361.0,660.0 362.0,663.0 353.0,661.0" fill="none" stroke="#f7cb8c" stroke-width="1"/><polyline points="360.0,584.0 366.0,564.0 370.0,564.0" fill="none" stroke="#f7cb8c" stroke-width="1"/><polyline points="366.0,563.0 370.0,557.0 389.0,539.0" fill="none" stroke="#f7cb8c" stroke-width="1"/><polyline points="388.0,539.0 377.0,550.0 371.0,550.0 369.0,543.0 372.0,553.0 369.0,558.0" fill="none" stroke="#f7cb8c" stroke-width="1"/><polyline points="251.0,522.0 250.0,539.0 255.0,561.0 251.0,572.0 264.0,589.0 267.0,626.0 274.0,643.0 274.0,651.0 284.0,666.0 288.0,666.0 288.0,661.0 277.0,634.0 276.0,616.0 279.0,608.0 274.0,589.0 281.0,578.0 285.0,588.0 289.0,588.0 289.0,583.0 283.0,578.0 289.0,574.0" fill="none" stroke="#365aa2" stroke-width="1"/><polyline points="289.0,556.0 286.0,553.0 274.0,553.0 270.0,547.0 272.0,534.0 263.0,522.0" fill="none" stroke="#365aa2" stroke-width="1"/><polyline points="237.0,543.0 241.0,542.0 246.0,570.0 242.0,570.0 240.0,567.0" fill="none" stroke="#fefb2c" stroke-width="1"/><polyline points="239.0,566.0 236.0,557.0 225.0,544.0 227.0,534.0 216.0,535.0" fill="none" stroke="#fefb2c" stroke-width="1"/><polyline points="217.0,535.0 219.0,539.0 209.0,551.0 209.0,567.0" fill="none" stroke="#fefb2c" stroke-width="1"/><polyline points="211.0,567.0 218.0,564.0 227.0,571.0 221.0,576.0 224.0,577.0 228.0,571.0 244.0,580.0 240.0,598.0 251.0,613.0" fill="none" stroke="#fefb2c" stroke-width="1"/><polyline points="251.0,612.0 243.0,604.0 244.0,597.0 243.0,599.0" fill="none" stroke="#fefb2c" stroke-width="1"/><polyline points="244.0,579.0 235.0,564.0 224.0,568.0 216.0,561.0 217.0,563.0 213.0,564.0" fill="none" stroke="#fefb2c" stroke-width="1"/><polyline points="209.0,552.0 218.0,542.0 219.0,536.0" fill="none" stroke="#fefb2c" stroke-width="1"/><polyline points="225.0,544.0 233.0,556.0 229.0,557.0 235.0,557.0" fill="none" stroke="#fefb2c" stroke-width="1"/><polyline points="247.0,571.0 241.0,552.0 242.0,543.0 234.0,538.0" fill="none" stroke="#fefb2c" stroke-width="1"/><polyline points="513.0,530.0 505.0,556.0 496.0,563.0 497.0,565.0 498.0,561.0 501.0,561.0 499.0,573.0 501.0,568.0 506.0,572.0 499.0,576.0 496.0,585.0 497.0,592.0 501.0,593.0 501.0,599.0 499.0,601.0 492.0,599.0 486.0,643.0" fill="none" stroke="#fec1d5" stroke-width="1"/><polyline points="488.0,643.0 485.0,642.0 485.0,637.0 489.0,622.0 493.0,620.0 490.0,619.0 490.0,612.0 496.0,609.0 488.0,656.0 482.0,656.0 475.0,667.0 474.0,679.0 478.0,684.0 480.0,680.0 478.0,681.0 475.0,676.0 476.0,664.0 483.0,656.0 487.0,658.0 483.0,683.0 478.0,695.0 471.0,697.0 470.0,708.0 461.0,709.0 469.0,711.0 462.0,721.0 467.0,714.0 466.0,719.0 468.0,717.0 471.0,700.0 478.0,696.0 482.0,686.0 501.0,591.0 505.0,580.0 510.0,582.0 511.0,580.0 505.0,578.0 505.0,573.0 512.0,555.0 518.0,550.0 516.0,549.0 514.0,554.0 513.0,551.0 506.0,569.0 501.0,567.0 500.0,559.0 505.0,556.0 515.0,527.0" fill="none" stroke="#fec1d5" stroke-width="1"/><polyline points="386.0,617.0 383.0,628.0 392.0,638.0 390.0,640.0 384.0,636.0 379.0,652.0" fill="none" stroke="#ea1c2f" stroke-width="1"/><polyline points="379.0,652.0 384.0,651.0 381.0,651.0 381.0,644.0" fill="none" stroke="#ea1c2f" stroke-width="1"/><polyline points="391.0,641.0 387.0,654.0 380.0,655.0" fill="none" stroke="#ea1c2f" stroke-width="1"/><polyline points="387.0,655.0 393.0,631.0 394.0,635.0 400.0,634.0 397.0,653.0 402.0,652.0 400.0,649.0 397.0,652.0 400.0,639.0 403.0,637.0 400.0,636.0 401.0,631.0" fill="none" stroke="#ea1c2f" stroke-width="1"/><polyline points="407.0,632.0 409.0,641.0 403.0,624.0 401.0,632.0 396.0,633.0 394.0,631.0 396.0,623.0 391.0,637.0 386.0,629.0 387.0,631.0 384.0,631.0" fill="none" stroke="#ea1c2f" stroke-width="1"/><polyline points="214.0,526.0 196.0,566.0 185.0,616.0 169.0,653.0 162.0,682.0 175.0,647.0 177.0,652.0 183.0,651.0 180.0,633.0 189.0,614.0 190.0,598.0 194.0,594.0 196.0,581.0 203.0,578.0 199.0,571.0 201.0,565.0 206.0,562.0 208.0,550.0 213.0,545.0 219.0,521.0 227.0,514.0 228.0,517.0 235.0,518.0 234.0,507.0 255.0,494.0 268.0,491.0 269.0,498.0 273.0,498.0 274.0,493.0 270.0,491.0" fill="none" stroke="#4b40bf" stroke-width="1"/><polyline points="288.0,615.0 283.0,622.0 287.0,630.0 286.0,635.0 293.0,637.0 292.0,644.0 297.0,641.0 295.0,635.0 297.0,628.0 295.0,626.0" fill="none" stroke="#1f63c0" stroke-width="1"/><polyline points="293.0,644.0 291.0,630.0 283.0,626.0" fill="none" stroke="#1f63c0" stroke-width="1"/><polyline points="454.0,546.0 451.0,569.0 443.0,594.0 444.0,600.0 441.0,603.0 440.0,613.0 443.0,622.0 439.0,623.0 439.0,636.0 435.0,640.0 430.0,667.0 426.0,671.0 428.0,678.0 425.0,681.0 422.0,710.0 427.0,714.0 423.0,714.0 426.0,716.0 422.0,718.0" fill="none" stroke="#b68b90" stroke-width="1"/><polyline points="427.0,718.0 425.0,721.0 431.0,707.0 438.0,708.0" fill="none" stroke="#b68b90" stroke-width="1"/><polyline points="433.0,707.0 432.0,704.0 428.0,710.0 430.0,699.0 436.0,690.0 437.0,678.0 428.0,712.0 422.0,710.0 422.0,702.0 432.0,652.0 439.0,643.0 435.0,642.0 437.0,639.0 439.0,641.0 439.0,626.0 445.0,619.0 441.0,618.0 440.0,613.0 442.0,610.0 444.0,612.0 441.0,604.0 445.0,588.0 451.0,587.0 445.0,585.0 451.0,561.0 456.0,562.0 452.0,559.0" fill="none" stroke="#b68b90" stroke-width="1"/><polyline points="206.0,577.0 203.0,580.0 206.0,592.0 200.0,596.0 207.0,608.0 205.0,610.0 196.0,608.0" fill="none" stroke="#24e87c" stroke-width="1"/><polyline points="204.0,610.0 198.0,612.0 203.0,612.0 212.0,619.0 205.0,613.0 207.0,608.0 215.0,613.0 230.0,610.0 236.0,617.0 231.0,613.0 234.0,610.0 240.0,616.0 244.0,627.0" fill="none" stroke="#24e87c" stroke-width="1"/><polyline points="240.0,615.0 236.0,612.0 238.0,609.0 242.0,613.0" fill="none" stroke="#24e87c" stroke-width="1"/><polyline points="243.0,613.0 241.0,611.0" fill="none" stroke="#24e87c" stroke-width="1"/><polyline points="236.0,612.0 233.0,608.0 231.0,608.0 233.0,611.0 220.0,611.0 218.0,609.0 224.0,605.0 229.0,608.0 221.0,605.0" fill="none" stroke="#24e87c" stroke-width="1"/><polyline points="200.0,596.0 201.0,593.0" fill="none" stroke="#24e87c" stroke-width="1"/><polyline points="257.0,562.0 260.0,579.0 262.0,574.0 265.0,584.0 263.0,588.0 265.0,594.0 262.0,592.0 262.0,595.0 269.0,634.0 266.0,645.0 269.0,677.0 275.0,673.0 269.0,673.0 266.0,662.0 266.0,651.0 269.0,647.0 267.0,640.0 270.0,636.0 274.0,645.0 271.0,648.0 275.0,649.0 286.0,669.0 287.0,680.0 293.0,684.0 287.0,688.0 287.0,693.0 295.0,694.0 301.0,701.0 297.0,703.0 279.0,697.0 268.0,697.0 252.0,702.0 240.0,717.0 240.0,724.0" fill="none" stroke="#0195a4" stroke-width="1"/><polyline points="253.0,702.0 264.0,698.0" fill="none" stroke="#0195a4" stroke-width="1"/><polyline points="297.0,703.0 313.0,703.0 317.0,682.0" fill="none" stroke="#0195a4" stroke-width="1"/><polyline points="310.0,636.0 308.0,620.0 304.0,617.0 308.0,613.0 304.0,612.0 309.0,611.0" fill="none" stroke="#0195a4" stroke-width="1"/><polyline points="303.0,612.0 305.0,616.0 299.0,618.0 307.0,619.0 307.0,624.0" fill="none" stroke="#0195a4" stroke-width="1"/><polyline points="313.0,703.0 302.0,702.0" fill="none" stroke="#0195a4" stroke-width="1"/><polyline points="287.0,680.0 285.0,673.0 287.0,669.0 292.0,671.0 292.0,674.0 304.0,675.0 306.0,680.0 304.0,691.0" fill="none" stroke="#0195a4" stroke-width="1"/><polyline points="304.0,691.0 306.0,676.0 294.0,673.0 289.0,667.0 291.0,662.0 288.0,661.0 285.0,649.0 281.0,645.0 287.0,638.0 281.0,640.0" fill="none" stroke="#0195a4" stroke-width="1"/><polyline points="276.0,618.0 278.0,612.0 275.0,613.0 274.0,601.0" fill="none" stroke="#0195a4" stroke-width="1"/><polyline points="289.0,662.0 285.0,667.0 278.0,656.0" fill="none" stroke="#0195a4" stroke-width="1"/><polyline points="279.0,655.0 274.0,648.0 264.0,616.0 265.0,583.0" fill="none" stroke="#0195a4" stroke-width="1"/><polyline points="411.0,640.0 410.0,643.0 406.0,643.0 412.0,644.0 404.0,652.0 406.0,662.0 401.0,660.0 402.0,667.0 394.0,663.0 394.0,656.0 390.0,695.0 386.0,705.0 386.0,722.0 398.0,723.0" fill="none" stroke="#7bb6e7" stroke-width="1"/><polyline points="398.0,722.0 390.0,724.0" fill="none" stroke="#7bb6e7" stroke-width="1"/><polyline points="386.0,705.0 394.0,665.0 397.0,665.0 395.0,678.0 397.0,676.0 399.0,679.0" fill="none" stroke="#7bb6e7" stroke-width="1"/><polyline points="399.0,679.0 402.0,688.0 398.0,704.0 396.0,702.0 398.0,693.0 396.0,697.0" fill="none" stroke="#7bb6e7" stroke-width="1"/><polyline points="397.0,700.0 394.0,707.0" fill="none" stroke="#7bb6e7" stroke-width="1"/><polyline points="393.0,707.0 400.0,702.0 401.0,669.0" fill="none" stroke="#7bb6e7" stroke-width="1"/><polyline points="404.0,653.0 406.0,651.0 409.0,653.0 411.0,661.0" fill="none" stroke="#7bb6e7" stroke-width="1"/><polyline points="411.0,663.0 413.0,672.0 410.0,657.0 412.0,655.0 406.0,651.0" fill="none" stroke="#7bb6e7" stroke-width="1"/><polyline points="563.0,619.0 558.0,634.0 555.0,634.0 558.0,626.0" fill="none" stroke="#ac0b7f" stroke-width="1"/><polyline points="555.0,632.0 551.0,633.0 540.0,647.0 549.0,638.0 551.0,641.0 538.0,659.0 537.0,665.0 543.0,667.0 538.0,668.0" fill="none" stroke="#ac0b7f" stroke-width="1"/><polyline points="539.0,682.0 543.0,677.0" fill="none" stroke="#ac0b7f" stroke-width="1"/><polyline points="538.0,660.0 552.0,638.0 555.0,639.0 554.0,643.0 543.0,657.0 548.0,654.0 556.0,638.0 549.0,637.0 552.0,633.0 556.0,636.0 560.0,632.0" fill="none" stroke="#ac0b7f" stroke-width="1"/><polyline points="191.0,614.0 193.0,620.0 189.0,621.0 187.0,626.0 189.0,634.0 187.0,631.0 189.0,621.0 202.0,629.0 209.0,629.0 211.0,632.0 207.0,632.0 216.0,639.0 217.0,636.0 222.0,635.0 226.0,639.0" fill="none" stroke="#dfc6a7" stroke-width="1"/><polyline points="222.0,635.0 215.0,638.0 210.0,633.0 218.0,633.0 218.0,628.0 215.0,625.0 219.0,631.0 212.0,632.0 203.0,629.0 199.0,625.0 201.0,623.0 210.0,623.0" fill="none" stroke="#dfc6a7" stroke-width="1"/><polyline points="211.0,624.0 217.0,622.0" fill="none" stroke="#dfc6a7" stroke-width="1"/><polyline points="218.0,622.0 207.0,624.0" fill="none" stroke="#dfc6a7" stroke-width="1"/><polyline points="198.0,625.0 193.0,621.0" fill="none" stroke="#dfc6a7" stroke-width="1"/><polyline points="206.0,609.0 208.0,621.0 214.0,621.0 220.0,632.0 217.0,634.0 198.0,630.0" fill="none" stroke="#3d473a" stroke-width="1"/><polyline points="196.0,655.0 191.0,661.0 196.0,677.0 205.0,680.0 196.0,685.0 193.0,714.0 189.0,720.0 190.0,751.0 199.0,756.0 210.0,770.0 235.0,778.0 243.0,784.0 253.0,799.0 257.0,796.0 260.0,799.0 289.0,799.0 289.0,795.0 286.0,788.0 276.0,784.0 258.0,769.0 229.0,738.0 232.0,723.0 248.0,699.0 249.0,649.0 245.0,643.0 245.0,632.0 235.0,613.0 219.0,611.0 216.0,614.0" fill="none" stroke="#3d473a" stroke-width="1"/><polyline points="232.0,724.0 229.0,734.0 233.0,742.0 262.0,765.0 257.0,758.0" fill="none" stroke="#744f7f" stroke-width="1"/><polyline points="229.0,734.0 237.0,716.0 246.0,705.0 248.0,690.0" fill="none" stroke="#744f7f" stroke-width="1"/><polyline points="303.0,754.0 280.0,759.0 307.0,754.0" fill="none" stroke="#d41817" stroke-width="1"/><polyline points="308.0,307.0 302.0,330.0" fill="none" stroke="#068d34" stroke-width="1"/><polyline points="307.0,393.0 329.0,448.0 325.0,466.0 317.0,474.0 306.0,479.0 265.0,488.0 240.0,500.0 214.0,526.0 201.0,552.0 185.0,616.0 163.0,673.0 157.0,717.0" fill="none" stroke="#068d34" stroke-width="1"/><polyline points="440.0,449.0 445.0,358.0" fill="none" stroke="#068d34" stroke-width="1"/><polyline points="407.0,283.0 390.0,276.0" fill="none" stroke="#068d34" stroke-width="1"/></svg>
