<?xml version="1.0" encoding="utf-8" ?>
<svg baseProfile="full" height="224" version="1.1" width="224" xmlns="http://www.w3.org/2000/svg" xmlns:ev="http://www.w3.org/2001/xml-events" xmlns:xlink="http://www.w3.org/1999/xlink"><defs /><polyline fill="none" points="134.75,136.14999999999998 134.04999999999998,137.54999999999998 135.79999999999998,138.25 136.14999999999998,140.0 136.85,140.7 137.89999999999998,140.7 138.6,141.75 138.6,140.7 140.0,141.04999999999998 139.64999999999998,141.39999999999998 139.64999999999998,140.7 140.35,140.35 140.35,138.6 139.29999999999998,140.7 137.2,140.7 135.79999999999998,138.95 136.5,137.54999999999998 136.14999999999998,136.14999999999998 136.85,135.45 135.45,136.5" stroke="#aaa" stroke-width="1" /><polyline fill="none" points="151.89999999999998,148.75 146.64999999999998,151.54999999999998 139.64999999999998,154.0 133.0,151.89999999999998 132.29999999999998,152.25 136.5,154.0 140.35,154.7 151.89999999999998,149.79999999999998 150.85,149.45" stroke="#aaa" stroke-width="1" /><polyline fill="none" points="154.35,143.5 155.75,147.35 155.75,149.1 151.54999999999998,153.64999999999998 150.14999999999998,153.29999999999998 151.2,153.64999999999998 148.04999999999998,155.39999999999998 146.64999999999998,157.14999999999998 145.25,157.5 143.5,159.25 141.75,159.25 140.7,160.29999999999998 141.75,159.25 143.5,159.25 145.95,157.14999999999998 147.0,157.14999999999998 148.39999999999998,155.39999999999998 151.2,153.64999999999998 152.25,154.35 151.89999999999998,153.64999999999998 155.75,149.1 155.75,147.35 155.04999999999998,145.95 155.39999999999998,144.89999999999998" stroke="#aaa" stroke-width="1" /><polyline fill="none" points="120.74999999999999,138.95 118.99999999999999,139.64999999999998 118.64999999999999,140.7 115.49999999999999,144.2 114.1,144.54999999999998 112.35,145.95 115.14999999999999,144.2 116.19999999999999,145.25 114.1,146.29999999999998 113.39999999999999,147.35 112.69999999999999,147.35 114.8,146.29999999999998 115.85,147.7 115.14999999999999,147.0 115.49999999999999,145.95 117.24999999999999,147.7 116.55,148.39999999999998 116.89999999999999,149.1 116.55,148.75 117.94999999999999,147.35 117.24999999999999,147.7 116.19999999999999,146.64999999999998 117.6,145.25 118.64999999999999,145.6 119.69999999999999,144.89999999999998 122.85,148.75 120.74999999999999,146.64999999999998 120.39999999999999,145.25 121.1,144.54999999999998 120.39999999999999,145.25 119.69999999999999,144.89999999999998 120.39999999999999,144.2 118.64999999999999,145.6 117.24999999999999,145.25 116.19999999999999,146.29999999999998 115.49999999999999,145.95 116.89999999999999,144.54999999999998 116.19999999999999,145.25 115.85,144.89999999999998 116.55,142.79999999999998 118.3,141.39999999999998 119.35,139.64999999999998" stroke="#aaa" stroke-width="1" /><polyline fill="none" points="156.79999999999998,122.85 157.85,123.19999999999999 159.95,125.3 158.89999999999998,125.3 158.89999999999998,125.99999999999999 159.95,125.3 161.35,126.35 159.6,124.94999999999999 159.95,123.89999999999999 161.35,124.24999999999999 163.1,125.64999999999999 163.79999999999998,125.3 164.5,125.99999999999999 163.45,127.05 162.04999999999998,127.39999999999999 163.45,127.05 164.5,125.99999999999999 166.6,126.69999999999999 167.64999999999998,125.99999999999999 175.35,125.99999999999999 176.75,127.05 176.04999999999998,126.35 177.79999999999998,125.64999999999999 178.5,125.99999999999999 177.79999999999998,125.64999999999999 178.14999999999998,124.94999999999999 179.54999999999998,125.64999999999999 178.14999999999998,124.94999999999999 177.1,125.99999999999999 167.64999999999998,125.99999999999999 166.6,126.69999999999999 165.54999999999998,125.3 164.85,125.3 165.54999999999998,125.64999999999999 164.5,125.99999999999999 163.79999999999998,125.3 162.04999999999998,124.94999999999999 161.35,124.24999999999999 161.7,123.89999999999999 159.25,124.24999999999999 158.54999999999998,123.55 160.29999999999998,122.49999999999999 158.54999999999998,123.55" stroke="#aaa" stroke-width="1" /><polyline fill="none" points="175.0,119.69999999999999 173.95,118.3 174.64999999999998,117.94999999999999 173.95,118.3 172.54999999999998,116.55 168.35,116.19999999999999 167.29999999999998,117.24999999999999 165.2,115.14999999999999 168.35,110.94999999999999 167.64999999999998,110.94999999999999 165.89999999999998,112.69999999999999 164.85,111.3 161.7,111.64999999999999 161.35,112.69999999999999 160.29999999999998,112.0 160.64999999999998,111.3 161.0,111.64999999999999 159.95,111.64999999999999 163.45,115.14999999999999 161.0,117.6 158.54999999999998,117.24999999999999 158.2,115.85 158.54999999999998,116.55 157.5,116.89999999999999 157.14999999999998,116.19999999999999 157.85,114.1 155.39999999999998,113.74999999999999 155.04999999999998,115.14999999999999 152.95,116.89999999999999 152.6,117.94999999999999 151.89999999999998,116.89999999999999 151.2,116.89999999999999 149.45,118.3 148.04999999999998,118.3 148.39999999999998,118.99999999999999 149.45,118.99999999999999 150.85,120.05 152.95,120.05 154.0,121.1 153.64999999999998,121.44999999999999 157.85,121.44999999999999 158.2,120.74999999999999 159.25,120.74999999999999 159.95,121.8 162.39999999999998,122.14999999999999 163.45,120.05 161.0,121.1 162.04999999999998,120.74999999999999 162.75,121.44999999999999 162.04999999999998,122.14999999999999 160.29999999999998,121.8 159.6,120.74999999999999 158.2,120.74999999999999 157.5,121.44999999999999 156.79999999999998,120.74999999999999 156.45,121.44999999999999 156.1,120.39999999999999 155.75,121.44999999999999 153.64999999999998,120.74999999999999 155.39999999999998,119.69999999999999 156.45,117.94999999999999 153.64999999999998,118.64999999999999 152.95,117.24999999999999 155.04999999999998,115.49999999999999 155.39999999999998,114.1 157.14999999999998,113.74999999999999 157.85,114.44999999999999 157.14999999999998,116.55 158.2,117.24999999999999 161.35,117.24999999999999 161.7,117.94999999999999 160.64999999999998,118.3 161.7,118.3 161.7,117.24999999999999 163.45,115.49999999999999 163.45,114.8 161.35,112.69999999999999 162.04999999999998,111.64999999999999 164.14999999999998,111.3 164.14999999999998,112.0 162.75,112.35 163.1,113.39999999999999 162.75,112.69999999999999 163.79999999999998,112.0 164.5,112.35 163.79999999999998,113.05 164.85,112.69999999999999 164.14999999999998,112.0 164.5,111.64999999999999 165.89999999999998,112.69999999999999 164.14999999999998,114.8 164.5,114.44999999999999 164.85,115.14999999999999 162.75,117.24999999999999 164.14999999999998,115.85 165.89999999999998,116.89999999999999 164.5,115.49999999999999 165.2,115.14999999999999 166.95,117.24999999999999 168.7,116.19999999999999 171.85,116.55 174.29999999999998,118.99999999999999 174.29999999999998,119.69999999999999" stroke="#aaa" stroke-width="1" /><polyline fill="none" points="102.89999999999999,138.95 105.35,136.85 106.39999999999999,137.89999999999998 106.05,138.6 106.75,139.64999999999998 106.05,140.0 106.05,140.7 107.44999999999999,141.04999999999998 106.05,140.35 106.75,139.64999999999998 109.89999999999999,139.64999999999998 110.25,140.35 109.89999999999999,139.64999999999998 110.94999999999999,139.29999999999998 112.69999999999999,140.35 111.3,139.29999999999998 109.89999999999999,139.29999999999998 109.55,138.6 108.14999999999999,138.95 106.39999999999999,137.89999999999998 106.05,137.2 106.75,137.2 106.39999999999999,136.85 107.1,136.5 107.44999999999999,136.85 106.75,136.5 106.05,137.2 104.64999999999999,137.2" stroke="#aaa" stroke-width="1" /><polyline fill="none" points="168.7,107.1 167.29999999999998,108.14999999999999 161.7,107.1 158.54999999999998,107.44999999999999 158.2,106.75 156.79999999999998,107.8 155.39999999999998,107.44999999999999 156.45,107.8 152.95,109.89999999999999 152.25,109.55 152.6,109.89999999999999 151.54999999999998,111.3 149.45,111.64999999999999 151.54999999999998,111.3 155.04999999999998,108.5 156.1,109.55 149.79999999999998,113.39999999999999 148.75,115.14999999999999 147.35,115.14999999999999 145.6,116.55 147.7,115.14999999999999 148.75,115.14999999999999 150.5,116.55 150.14999999999998,116.89999999999999 150.85,115.49999999999999 152.6,115.14999999999999 153.29999999999998,114.44999999999999 154.0,114.8 153.29999999999998,114.44999999999999 154.0,112.69999999999999 152.25,115.14999999999999 150.5,115.49999999999999 150.14999999999998,114.8 150.14999999999998,115.85 149.1,115.49999999999999 149.45,114.1 153.64999999999998,110.94999999999999 155.39999999999998,112.69999999999999 157.85,110.94999999999999 159.25,111.64999999999999 158.2,110.6 155.39999999999998,112.35 154.0,111.3 156.79999999999998,109.19999999999999 158.2,109.19999999999999 158.2,109.89999999999999 162.39999999999998,109.19999999999999 162.75,108.5 162.04999999999998,109.19999999999999 159.95,109.55 159.6,109.19999999999999 160.29999999999998,108.5 161.35,108.5 159.6,108.5 156.1,109.55 155.39999999999998,108.85 156.45,107.8 158.2,107.1 161.7,107.1 167.29999999999998,108.14999999999999" stroke="#aaa" stroke-width="1" /><polyline fill="none" points="113.74999999999999,109.89999999999999 116.19999999999999,111.3 115.49999999999999,111.64999999999999 116.55,111.3 117.94999999999999,113.05 119.69999999999999,113.39999999999999 123.19999999999999,116.19999999999999 125.64999999999999,115.85 126.35,116.55 127.74999999999999,116.55 124.94999999999999,115.85 123.55,114.1 121.8,114.8 118.3,113.05 116.89999999999999,111.3" stroke="#aaa" stroke-width="1" /><polyline fill="none" points="105.69999999999999,145.95 106.39999999999999,145.25 107.1,147.0 108.14999999999999,147.0 107.44999999999999,147.0 106.75,146.29999999999998 107.1,145.95 108.5,145.95 109.55,147.35 110.6,147.0 109.19999999999999,146.64999999999998 108.85,145.25 106.39999999999999,144.89999999999998" stroke="#aaa" stroke-width="1" /><polyline fill="none" points="164.85,170.79999999999998 163.45,167.29999999999998 162.39999999999998,167.29999999999998 163.1,167.29999999999998 164.14999999999998,168.7 163.45,170.1 158.54999999999998,170.1 156.79999999999998,169.39999999999998 154.0,170.1 152.95,169.39999999999998 150.85,169.39999999999998 150.14999999999998,170.1 146.64999999999998,170.1 150.14999999999998,170.1 151.54999999999998,169.39999999999998 151.89999999999998,170.45 153.64999999999998,170.79999999999998 154.35,171.5 152.25,173.25 150.85,173.6 152.25,173.25 155.04999999999998,170.79999999999998 156.45,170.45 154.35,171.5 152.25,170.45 152.25,169.39999999999998 154.0,170.1 155.39999999999998,169.39999999999998 158.2,169.75 159.6,170.45 158.89999999999998,170.79999999999998 159.25,171.5 158.89999999999998,171.14999999999998 159.95,170.1 163.1,170.1 163.79999999999998,170.79999999999998" stroke="#aaa" stroke-width="1" /><polyline fill="none" points="124.94999999999999,117.94999999999999 123.55,118.99999999999999 122.49999999999999,118.3 123.19999999999999,117.94999999999999 116.89999999999999,113.39999999999999 115.14999999999999,113.05 113.05,111.3 107.44999999999999,110.94999999999999 106.05,111.64999999999999 104.3,111.64999999999999 104.3,112.35 106.39999999999999,114.44999999999999 109.89999999999999,116.89999999999999 108.85,117.94999999999999 107.8,117.6 108.5,118.3 106.39999999999999,120.39999999999999 103.94999999999999,117.94999999999999 102.89999999999999,117.94999999999999 102.19999999999999,119.35 100.8,119.69999999999999 99.05,118.99999999999999 101.14999999999999,120.05 100.44999999999999,121.44999999999999 99.75,121.1 100.1,121.44999999999999 102.55,121.1 103.25,121.8 103.25,123.89999999999999 102.19999999999999,124.24999999999999 102.89999999999999,124.24999999999999 103.6,122.85 105.35,123.55 106.75,122.85 108.85,122.85 109.89999999999999,122.14999999999999 104.64999999999999,123.55 103.25,122.49999999999999 103.25,121.8 103.94999999999999,121.8 103.6,121.44999999999999 104.3,120.39999999999999 105.0,121.8 104.64999999999999,122.14999999999999 105.35,122.49999999999999 105.35,121.8 104.64999999999999,121.44999999999999 105.0,120.39999999999999 102.55,120.39999999999999 103.6,120.74999999999999 103.25,121.44999999999999 101.14999999999999,120.74999999999999 101.14999999999999,119.69999999999999 102.55,119.35 103.25,117.94999999999999 103.94999999999999,117.94999999999999 104.64999999999999,119.35 106.39999999999999,120.74999999999999 106.05,121.44999999999999 108.14999999999999,121.8 106.75,121.44999999999999 107.44999999999999,120.74999999999999 107.8,121.1 109.55,120.05 112.35,120.05 109.55,120.05 108.14999999999999,120.74999999999999 107.8,120.39999999999999 109.89999999999999,118.3 106.75,121.44999999999999 106.05,121.1 109.89999999999999,116.89999999999999 108.5,115.85 109.55,115.49999999999999 110.25,116.19999999999999 113.39999999999999,113.39999999999999 114.1,113.39999999999999 116.19999999999999,115.85 114.8,116.89999999999999 114.44999999999999,118.64999999999999 113.74999999999999,119.35 113.05,118.64999999999999 113.39999999999999,116.55 113.05,118.3 112.0,117.6 114.1,120.05 113.74999999999999,119.35 114.44999999999999,118.64999999999999 114.44999999999999,117.6 116.19999999999999,115.85 118.64999999999999,117.24999999999999 116.19999999999999,115.85 114.1,113.39999999999999 113.05,113.39999999999999 110.25,116.19999999999999 108.14999999999999,114.44999999999999 108.85,114.1 107.8,114.1 108.85,115.14999999999999 108.5,115.85 107.1,114.44999999999999 106.39999999999999,114.44999999999999 105.69999999999999,113.39999999999999 106.05,113.05 105.0,113.05 104.3,112.35 104.64999999999999,111.64999999999999 106.05,112.35 105.69999999999999,112.0 107.44999999999999,110.94999999999999 111.64999999999999,110.94999999999999 117.6,114.1 122.49999999999999,117.94999999999999 122.49999999999999,118.99999999999999 121.44999999999999,118.99999999999999 121.1,117.94999999999999 117.94999999999999,118.3 118.3,119.35 119.35,118.99999999999999 118.64999999999999,119.35 117.94999999999999,118.64999999999999 118.99999999999999,117.94999999999999 121.1,118.3 121.44999999999999,118.99999999999999 120.05,119.35 118.99999999999999,120.39999999999999 119.35,121.1 119.35,120.39999999999999 120.39999999999999,119.35 122.85,118.64999999999999 124.6,120.05 121.44999999999999,123.19999999999999 121.8,124.6 121.1,125.99999999999999 119.35,127.39999999999999 117.24999999999999,126.69999999999999 118.3,125.99999999999999 120.05,125.99999999999999 120.39999999999999,122.49999999999999 119.69999999999999,121.8 116.19999999999999,122.85 114.8,122.49999999999999 116.55,122.85 119.69999999999999,121.8 120.39999999999999,122.49999999999999 116.89999999999999,123.89999999999999 119.69999999999999,122.85 120.39999999999999,123.55 120.39999999999999,124.24999999999999 119.35,125.3 120.05,125.3 119.69999999999999,126.35 118.3,125.99999999999999 117.24999999999999,126.69999999999999 116.89999999999999,126.35 117.24999999999999,126.69999999999999 116.55,127.05 115.85,126.35 117.6,125.3 117.24999999999999,124.6 117.6,124.94999999999999 114.8,126.69999999999999 110.94999999999999,127.39999999999999 110.25,128.45 109.19999999999999,128.45 108.14999999999999,129.5 107.8,129.15 107.1,130.2 106.05,129.15 103.6,129.5 99.75,128.45 96.94999999999999,128.79999999999998 95.89999999999999,128.1 98.69999999999999,126.69999999999999 105.69999999999999,126.69999999999999 110.94999999999999,125.3 112.0,125.64999999999999 111.3,124.94999999999999 110.25,125.64999999999999 108.85,125.64999999999999 108.14999999999999,126.35 107.8,125.99999999999999 105.69999999999999,126.69999999999999 98.69999999999999,126.69999999999999 95.89999999999999,127.74999999999999 95.55,128.45 95.89999999999999,128.1 96.94999999999999,128.79999999999998 95.19999999999999,129.5 94.5,130.54999999999998 92.39999999999999,130.54999999999998 93.8,130.9 95.55,129.5 98.69999999999999,128.45 103.6,129.5 106.05,129.15 107.1,130.2 107.8,129.15 108.5,130.2 109.89999999999999,130.2 110.25,129.5 109.19999999999999,129.5 109.89999999999999,129.5 109.89999999999999,130.2 108.85,130.2 108.14999999999999,129.5 109.19999999999999,128.45 111.64999999999999,128.45 112.69999999999999,127.05 115.49999999999999,126.35 116.19999999999999,126.69999999999999 115.85,127.39999999999999 118.64999999999999,127.05 118.64999999999999,128.1 117.6,128.45 118.64999999999999,128.79999999999998 118.3,128.45 119.69999999999999,127.05 120.39999999999999,127.05 121.8,124.94999999999999 121.44999999999999,123.55 124.94999999999999,120.05 123.55,118.99999999999999" stroke="#aaa" stroke-width="1" /><polyline fill="none" points="123.55,110.25 120.05,110.25 119.69999999999999,110.6 120.39999999999999,110.25 121.1,111.3 120.39999999999999,111.64999999999999 118.3,110.25 120.05,108.85 120.39999999999999,109.55 120.05,108.85 118.99999999999999,109.19999999999999 114.8,108.5 112.0,109.55 104.3,110.94999999999999 113.74999999999999,109.19999999999999 114.8,108.5 115.49999999999999,109.55 117.6,109.89999999999999 121.1,112.69999999999999 120.39999999999999,112.0 121.1,111.64999999999999 120.74999999999999,110.94999999999999 121.44999999999999,110.25" stroke="#aaa" stroke-width="1" /><polyline fill="none" points="178.85,174.29999999999998 177.79999999999998,174.64999999999998 177.1,173.95 177.79999999999998,174.64999999999998 176.39999999999998,176.04999999999998 176.75,177.79999999999998 176.04999999999998,179.2 175.35,179.2 174.29999999999998,177.79999999999998 175.0,177.45 175.0,174.64999999999998 174.29999999999998,175.0 174.64999999999998,174.64999999999998 175.35,175.35 174.64999999999998,177.45 173.95,176.75 174.29999999999998,176.39999999999998 173.6,177.1 173.25,176.75 173.95,178.14999999999998 173.6,178.5 172.89999999999998,177.79999999999998 173.6,178.5 172.54999999999998,179.2 170.79999999999998,179.2 169.75,178.14999999999998 170.79999999999998,177.79999999999998 170.1,177.45 170.45,176.75 171.85,176.75 171.85,177.45 172.54999999999998,176.75 169.04999999999998,176.39999999999998 168.7,177.1 168.7,175.7 168.35,176.04999999999998 167.64999999999998,175.35 165.89999999999998,175.0 165.2,175.35 165.54999999999998,176.04999999999998 165.89999999999998,175.0 167.64999999999998,175.35 168.7,177.45 169.39999999999998,176.39999999999998 170.1,177.45 169.39999999999998,177.45 169.39999999999998,178.85 168.35,178.14999999999998 168.7,178.85 169.75,178.5 170.79999999999998,179.2 172.54999999999998,179.2 173.6,178.5 173.95,179.2 176.39999999999998,179.2 176.39999999999998,176.04999999999998 177.45,175.35 177.79999999999998,176.75 177.45,175.0" stroke="#aaa" stroke-width="1" /><polyline fill="none" points="99.75,120.05 95.89999999999999,122.85 95.89999999999999,123.55 96.6,123.89999999999999 95.55,124.94999999999999 94.5,124.94999999999999 94.5,123.89999999999999 94.14999999999999,124.24999999999999 93.44999999999999,123.19999999999999 91.0,124.6 89.25,124.24999999999999 88.55,124.94999999999999 87.85,124.6 85.75,125.3 84.35,124.94999999999999 84.35,123.55 84.35,125.3 85.05,125.64999999999999 87.85,124.6 88.55,125.3 88.55,126.35 88.55,125.3 89.25,124.6 91.0,124.6 93.44999999999999,123.55 94.14999999999999,124.24999999999999 93.44999999999999,125.3 89.25,125.64999999999999 93.1,125.64999999999999 96.25,124.6 98.69999999999999,125.3 99.39999999999999,125.99999999999999 98.69999999999999,125.3 99.05,124.94999999999999 96.6,124.94999999999999 96.25,124.24999999999999 97.3,123.55 96.94999999999999,123.89999999999999 96.25,122.85 96.94999999999999,122.14999999999999 98.35,122.85 96.94999999999999,122.14999999999999" stroke="#aaa" stroke-width="1" /><polyline fill="none" points="184.79999999999998,103.94999999999999 180.6,98.69999999999999 180.6,96.6 180.95,97.3 180.25,98.0 179.2,96.94999999999999 180.6,98.69999999999999 179.89999999999998,99.05 178.5,97.64999999999999 178.5,96.94999999999999 177.1,96.25 178.14999999999998,95.89999999999999 174.64999999999998,94.85 176.04999999999998,94.5 172.2,94.5 173.25,94.85 171.85,95.19999999999999 169.04999999999998,94.5 169.04999999999998,93.8 171.5,94.14999999999999 169.04999999999998,93.44999999999999 164.85,94.14999999999999 162.75,93.8 162.39999999999998,94.5 156.79999999999998,95.19999999999999 155.75,95.89999999999999 156.45,96.25 155.39999999999998,96.94999999999999 154.7,96.6 155.04999999999998,96.25 152.25,97.64999999999999 151.54999999999998,97.3 150.85,98.35 147.7,99.75 148.39999999999998,100.1 147.7,100.44999999999999 148.39999999999998,101.14999999999999 147.35,101.85 148.39999999999998,101.5 148.39999999999998,100.1 155.75,96.94999999999999 156.45,97.64999999999999 158.54999999999998,97.64999999999999 157.85,96.6 156.79999999999998,97.64999999999999 155.75,96.94999999999999 157.14999999999998,95.89999999999999 168.35,94.14999999999999 177.79999999999998,96.6 183.75,103.94999999999999" stroke="#aaa" stroke-width="1" /><polyline fill="none" points="130.9,86.8 130.2,87.85 129.5,87.85 129.5,89.25 130.2,90.3 129.5,91.0 130.2,90.64999999999999 131.95,92.05 131.25,92.39999999999999 129.85,91.69999999999999 129.15,93.44999999999999 132.29999999999998,94.14999999999999 129.85,93.8 129.15,93.1 130.2,92.75 134.39999999999998,93.44999999999999 135.1,94.14999999999999 134.39999999999998,93.44999999999999 133.0,93.44999999999999 130.2,90.64999999999999 131.25,89.6 133.35,91.0 132.65,91.35 131.6,90.64999999999999 133.0,92.05 133.35,91.35 132.29999999999998,89.94999999999999 130.54999999999998,89.25 131.95,88.19999999999999 130.2,88.89999999999999 130.9,89.6 130.54999999999998,89.94999999999999 129.5,89.25 129.5,88.19999999999999 131.25,86.8 131.95,87.5 131.6,86.8" stroke="#aaa" stroke-width="1" /><polyline fill="none" points="93.1,100.44999999999999 93.1,102.19999999999999 94.5,100.1 95.89999999999999,101.14999999999999 95.19999999999999,102.19999999999999 96.25,101.14999999999999 97.64999999999999,101.85 98.0,101.14999999999999 97.3,101.85 96.6,101.14999999999999 97.64999999999999,100.1 99.39999999999999,100.1 103.6,101.85 104.3,101.5 106.05,103.25 107.1,103.25 106.39999999999999,103.25 104.64999999999999,101.5 102.55,101.5 102.55,100.8 103.6,100.8 101.14999999999999,100.8 101.14999999999999,100.1 99.75,100.44999999999999 96.6,99.39999999999999 97.64999999999999,100.1 95.89999999999999,101.14999999999999 94.5,99.75 95.89999999999999,98.69999999999999 105.35,96.6 107.44999999999999,96.94999999999999 107.44999999999999,97.64999999999999 103.25,97.64999999999999 106.39999999999999,98.0 107.8,97.3 113.74999999999999,98.0 123.55,102.19999999999999 122.85,102.55 123.55,103.6 123.19999999999999,102.55 124.24999999999999,102.19999999999999 123.89999999999999,101.14999999999999 120.39999999999999,100.1 115.49999999999999,97.64999999999999 117.94999999999999,97.64999999999999 119.69999999999999,96.94999999999999 117.6,97.64999999999999 114.44999999999999,97.64999999999999 106.05,95.89999999999999 102.19999999999999,96.6 100.8,95.89999999999999 102.89999999999999,96.94999999999999 101.14999999999999,97.64999999999999 98.0,96.94999999999999 98.0,97.64999999999999 96.6,97.3 97.3,97.64999999999999 96.94999999999999,98.0 95.89999999999999,97.64999999999999 94.5,98.35 94.14999999999999,100.44999999999999" stroke="#aaa" stroke-width="1" /><polyline fill="none" points="146.29999999999998,81.89999999999999 146.64999999999998,82.94999999999999 146.64999999999998,81.89999999999999 147.35,82.6 147.0,86.8 147.35,88.55 148.04999999999998,88.55 148.39999999999998,87.85 148.04999999999998,85.75 147.35,85.05 147.35,82.25" stroke="#aaa" stroke-width="1" /><polyline fill="none" points="92.39999999999999,101.85 89.94999999999999,105.69999999999999 88.89999999999999,104.64999999999999 89.94999999999999,105.69999999999999 88.89999999999999,107.1 89.25,107.8 89.6,106.39999999999999 91.0,107.8 91.35,107.44999999999999 91.0,107.8 90.3,106.75 91.35,106.75 90.64999999999999,106.05 92.05,103.94999999999999 91.35,103.6 91.69999999999999,102.89999999999999 92.75,102.89999999999999 92.05,102.55" stroke="#aaa" stroke-width="1" /><polyline fill="none" points="192.14999999999998,164.85 191.45,166.6 190.75,166.25 190.75,165.54999999999998 191.1,166.6 190.04999999999998,167.29999999999998 189.7,169.04999999999998 190.04999999999998,167.64999999999998 191.79999999999998,166.6 192.5,165.2 193.2,166.6 195.29999999999998,167.29999999999998 196.35,168.35 194.6,170.45 194.25,169.75 194.25,171.14999999999998 193.2,169.75 193.89999999999998,171.14999999999998 193.2,171.85 192.5,171.5 192.5,169.75 192.5,171.14999999999998 191.79999999999998,171.14999999999998 192.85,171.85 192.14999999999998,173.25 190.39999999999998,170.45 192.14999999999998,168.7 194.25,167.64999999999998 191.1,167.64999999999998 191.45,168.0 192.5,167.29999999999998 193.2,168.0 190.39999999999998,170.1 190.39999999999998,171.5 191.79999999999998,173.25 192.85,173.25 194.95,176.75 194.95,175.7 193.89999999999998,175.35 193.2,173.25 193.89999999999998,172.89999999999998 192.85,173.25 192.5,172.54999999999998 194.6,171.14999999999998 196.0,169.39999999999998 196.35,168.0 194.25,166.6 195.29999999999998,165.54999999999998 195.64999999999998,165.89999999999998 194.95,165.54999999999998 194.25,166.6 193.54999999999998,166.6" stroke="#aaa" stroke-width="1" /><polyline fill="none" points="118.64999999999999,78.75 119.35,80.14999999999999 118.3,80.5 119.35,80.5 120.39999999999999,81.55 118.3,81.55 118.99999999999999,81.19999999999999 120.39999999999999,81.89999999999999 120.74999999999999,80.85 122.49999999999999,80.5 125.99999999999999,82.25 125.3,82.94999999999999 124.24999999999999,81.89999999999999 122.85,81.89999999999999 123.89999999999999,81.89999999999999 125.3,83.3 125.99999999999999,82.6 125.3,81.55 123.89999999999999,80.85 123.89999999999999,79.44999999999999 123.55,80.85 121.1,80.5 120.39999999999999,81.19999999999999 118.99999999999999,79.8 120.39999999999999,79.1 120.05,78.75 120.74999999999999,78.05 120.05,78.39999999999999 120.05,77.69999999999999" stroke="#aaa" stroke-width="1" /><polyline fill="none" points="121.44999999999999,74.55 121.44999999999999,75.6 122.49999999999999,75.25 123.19999999999999,75.94999999999999 122.85,77.0 125.3,77.35 125.3,76.3 123.89999999999999,74.55" stroke="#aaa" stroke-width="1" /><polyline fill="none" points="90.64999999999999,183.39999999999998 91.0,186.54999999999998 93.8,190.75 99.05,195.29999999999998 99.39999999999999,196.35 102.19999999999999,199.14999999999998 101.85,198.1 99.39999999999999,196.0 99.75,195.29999999999998 97.64999999999999,194.25 93.44999999999999,190.04999999999998 93.44999999999999,189.35 91.0,186.2" stroke="#aaa" stroke-width="1" /><polyline fill="none" points="137.89999999999998,72.44999999999999 135.79999999999998,72.1 134.75,70.69999999999999 135.1,70.0 134.39999999999998,69.64999999999999 134.04999999999998,70.35 135.45,71.75 135.1,73.14999999999999 132.65,71.75 133.35,71.39999999999999 132.29999999999998,71.05 132.65,70.35 131.6,70.69999999999999 130.9,70.0 132.65,71.39999999999999 133.0,72.44999999999999 134.04999999999998,72.8 133.0,73.85 130.54999999999998,70.69999999999999 132.29999999999998,73.14999999999999 131.95,73.85 129.85,71.39999999999999 129.85,70.69999999999999 129.85,71.75 130.54999999999998,72.44999999999999 129.85,73.14999999999999 127.74999999999999,72.44999999999999 128.1,71.05 127.39999999999999,71.05 126.69999999999999,72.1 125.99999999999999,71.05 126.35,72.1 127.05,72.1 127.74999999999999,71.05 128.1,71.39999999999999 128.1,73.5 130.2,73.14999999999999 130.54999999999998,72.44999999999999 131.95,73.85 131.25,74.55 131.25,75.25 131.6,74.55 132.29999999999998,75.25 131.95,75.6 132.65,74.19999999999999 134.39999999999998,72.8 135.45,73.14999999999999 135.79999999999998,72.1" stroke="#aaa" stroke-width="1" /><polyline fill="none" points="58.8,114.8 59.49999999999999,115.49999999999999 58.8,116.55 59.49999999999999,117.94999999999999 59.15,118.64999999999999 59.849999999999994,119.35 59.49999999999999,122.49999999999999 60.55,125.64999999999999 60.55,130.2 61.599999999999994,131.95 61.949999999999996,134.04999999999998 64.75,138.6 64.39999999999999,140.0 64.75,138.95 65.8,139.64999999999998 65.8,140.7 66.85,141.75 66.5,144.2 67.19999999999999,144.89999999999998 66.85,146.64999999999998 67.89999999999999,148.75 67.89999999999999,152.6 68.6,153.29999999999998 68.94999999999999,155.39999999999998 68.6,157.85 71.75,164.5 73.5,165.54999999999998 73.5,168.35 75.94999999999999,171.5 76.64999999999999,171.5 76.64999999999999,169.39999999999998 78.75,171.85 80.14999999999999,172.54999999999998 81.19999999999999,172.2 82.94999999999999,170.45 83.64999999999999,169.04999999999998 83.3,168.0 84.69999999999999,166.25 84.0,167.29999999999998 82.94999999999999,166.25 81.19999999999999,166.95 79.8,165.2 80.5,164.5 81.89999999999999,164.85 81.19999999999999,165.54999999999998 82.6,164.5 83.64999999999999,165.2 82.94999999999999,164.5 81.89999999999999,164.85 80.85,164.14999999999998 78.75,165.2 78.39999999999999,165.89999999999998 77.35,165.89999999999998 75.94999999999999,163.79999999999998 75.94999999999999,163.1 76.64999999999999,162.75 77.0,164.14999999999998 77.35,162.39999999999998 78.05,163.45 78.75,162.39999999999998 79.44999999999999,162.39999999999998 80.14999999999999,163.45 81.89999999999999,163.45 80.5,163.45 79.8,162.39999999999998 78.39999999999999,162.04999999999998 79.44999999999999,161.35 78.05,160.64999999999998 78.05,159.6 80.5,160.29999999999998 77.69999999999999,159.6 77.69999999999999,161.0 77.0,160.29999999999998 77.0,161.35 78.39999999999999,161.0 78.75,161.7 77.0,162.75 75.94999999999999,162.75 76.3,164.85 77.0,165.54999999999998 76.64999999999999,166.25 75.6,166.25 75.25,163.79999999999998 75.25,165.89999999999998 75.94999999999999,166.6 75.94999999999999,168.35 76.64999999999999,169.04999999999998 76.3,169.75 75.6,169.39999999999998 77.0,171.14999999999998 76.3,171.5 74.19999999999999,169.39999999999998 73.5,165.2 72.8,165.2 71.75,164.14999999999998 68.6,157.85 68.6,156.1 70.35,155.39999999999998 70.35,157.5 71.39999999999999,159.6 71.39999999999999,158.89999999999998 70.35,157.5 70.35,152.95 70.35,154.0 69.3,154.7 70.35,154.7 69.64999999999999,155.75 68.6,155.04999999999998 68.94999999999999,152.95 68.6,153.29999999999998 67.89999999999999,152.25 68.25,149.79999999999998 69.64999999999999,151.2 69.3,151.54999999999998 70.0,151.54999999999998 69.3,152.25 70.35,152.25 69.64999999999999,150.85 67.89999999999999,149.45 68.25,148.39999999999998 67.55,148.39999999999998 66.85,146.64999999999998 67.19999999999999,144.89999999999998 66.5,143.85 67.19999999999999,143.5 67.55,144.2 68.25,143.14999999999998 67.55,143.85 66.85,143.14999999999998 66.85,141.39999999999998 65.8,140.35 67.19999999999999,140.35 66.14999999999999,139.64999999999998 67.55,138.25 66.14999999999999,139.64999999999998 64.75,138.6 61.949999999999996,134.04999999999998 62.3,133.35 60.9,131.25 60.199999999999996,128.79999999999998 60.55,125.64999999999999 59.49999999999999,122.49999999999999 59.49999999999999,120.05 60.9,118.3 60.9,116.89999999999999 60.199999999999996,115.85 60.9,117.6 60.199999999999996,117.94999999999999 60.55,118.64999999999999 59.849999999999994,119.35 59.15,118.64999999999999 59.49999999999999,117.94999999999999 58.8,116.19999999999999 59.49999999999999,115.49999999999999" stroke="#aaa" stroke-width="1" /><polyline fill="none" points="212.45,86.8 213.85,93.1 214.89999999999998,93.8 214.54999999999998,95.55 213.5,94.5 213.85,94.14999999999999 213.14999999999998,94.85 214.2,96.94999999999999 214.54999999999998,100.44999999999999 213.5,105.69999999999999 211.75,107.1 209.64999999999998,110.94999999999999 209.64999999999998,112.69999999999999 210.35,113.39999999999999 210.35,119.35 209.29999999999998,122.14999999999999 209.64999999999998,123.19999999999999 208.95,127.05 207.2,130.54999999999998 206.5,129.85 207.2,130.54999999999998 206.5,133.0 205.1,133.35 204.75,134.04999999999998 205.1,134.39999999999998 204.75,134.04999999999998 205.45,133.35 206.5,133.7 205.45,135.1 205.45,139.64999999999998 206.85,142.79999999999998 206.85,145.25 206.14999999999998,146.29999999999998 204.75,153.29999999999998 201.6,159.6 202.29999999999998,162.04999999999998 199.85,166.25 197.75,167.29999999999998 196.35,167.29999999999998 199.14999999999998,166.95 201.25,164.85 202.29999999999998,162.04999999999998 201.6,159.6 202.29999999999998,157.5 204.75,153.64999999999998 206.85,144.54999999999998 207.54999999999998,144.2 207.89999999999998,145.25 207.54999999999998,145.6 207.89999999999998,144.54999999999998 206.5,143.5 206.85,142.79999999999998 205.79999999999998,141.04999999999998 205.45,135.45 206.5,134.04999999999998 206.14999999999998,133.35 209.29999999999998,125.64999999999999 209.29999999999998,122.14999999999999 210.0,121.44999999999999 210.35,119.35 210.35,113.39999999999999 209.64999999999998,112.69999999999999 209.64999999999998,110.94999999999999 210.35,110.94999999999999 210.7,112.35 210.0,110.6 211.39999999999998,107.8 213.5,106.05 214.2,104.3 213.85,103.25 214.54999999999998,99.39999999999999 214.2,96.6 213.14999999999998,95.19999999999999 213.85,94.85 214.89999999999998,95.55 214.89999999999998,93.8 213.85,92.75 212.79999999999998,88.89999999999999 213.5,88.55 212.79999999999998,88.19999999999999" stroke="#aaa" stroke-width="1" /><polyline fill="none" points="109.55,72.8 110.25,73.14999999999999 110.6,76.3 112.69999999999999,77.69999999999999 111.64999999999999,77.0 112.0,76.3 112.69999999999999,76.3 112.35,73.85 111.64999999999999,73.14999999999999 112.69999999999999,73.14999999999999 111.64999999999999,72.44999999999999 112.0,72.8 111.3,73.85 111.3,76.64999999999999 110.25,75.6 110.6,74.19999999999999" stroke="#aaa" stroke-width="1" /><polyline fill="none" points="89.94999999999999,182.7 88.55,180.6 85.05,181.29999999999998 84.69999999999999,180.95 83.3,182.35 81.19999999999999,182.35 83.3,182.35 85.39999999999999,180.95 88.19999999999999,180.6 89.6,182.7 89.25,183.39999999999998 88.89999999999999,183.04999999999998 87.5,184.1 80.5,185.5 74.55,185.85 71.39999999999999,184.1 71.05,184.79999999999998 70.35,183.75 66.14999999999999,183.75 65.45,183.04999999999998 66.14999999999999,182.35 68.6,182.7 68.6,182.0 69.64999999999999,180.95 73.5,179.89999999999998 75.25,178.5 76.64999999999999,178.85 82.25,176.75 83.64999999999999,177.45 80.5,179.2 77.69999999999999,179.2 76.3,180.95 75.25,180.6 69.64999999999999,182.0 75.94999999999999,180.6 75.94999999999999,181.29999999999998 78.05,179.2 80.85,179.2 84.35,177.1 86.44999999999999,178.5 86.1,179.89999999999998 86.8,180.25 86.44999999999999,178.85 87.5,178.14999999999998 87.5,177.1 86.8,178.5 85.05,177.45 84.0,176.04999999999998 84.69999999999999,174.29999999999998 84.0,175.35 84.0,177.45 82.6,176.04999999999998 82.6,174.29999999999998 84.0,173.95 84.69999999999999,172.89999999999998 84.35,173.25 83.3,171.5 84.0,170.79999999999998 83.3,171.5 83.64999999999999,172.54999999999998 82.94999999999999,172.89999999999998 83.64999999999999,172.54999999999998 84.35,173.6 81.89999999999999,174.29999999999998 80.85,175.7 82.25,175.7 82.94999999999999,176.39999999999998 76.64999999999999,178.85 75.25,178.5 73.14999999999999,179.89999999999998 69.3,180.95 68.25,182.7 65.8,182.35 64.39999999999999,183.04999999999998 64.05,184.1 64.75,183.04999999999998 65.45,183.04999999999998 65.8,183.75 70.0,183.75 70.69999999999999,184.79999999999998 71.75,184.45 74.19999999999999,185.85 87.5,184.1" stroke="#aaa" stroke-width="1" /><polyline fill="none" points="87.85,191.1 88.55,191.45 86.8,193.89999999999998 86.44999999999999,197.04999999999998 87.14999999999999,198.45 88.19999999999999,197.75 90.64999999999999,200.54999999999998 90.64999999999999,202.64999999999998 90.3,201.25 92.05,199.85 90.64999999999999,200.54999999999998 90.64999999999999,199.5 90.3,199.85 86.8,195.29999999999998 87.14999999999999,193.54999999999998 88.55,192.14999999999998 88.19999999999999,191.79999999999998 89.25,191.45" stroke="#aaa" stroke-width="1" /><polyline fill="none" points="131.6,52.849999999999994 129.5,55.3 128.79999999999998,55.3 130.2,55.3 131.25,56.0 129.15,56.0 129.5,56.349999999999994 128.1,57.05 127.39999999999999,58.8 126.35,58.449999999999996 128.1,56.0 127.39999999999999,53.9 127.74999999999999,53.199999999999996 127.39999999999999,53.9 127.05,52.849999999999994 126.69999999999999,54.949999999999996 126.69999999999999,54.25 127.39999999999999,53.9 128.1,56.0 127.05,57.05 126.69999999999999,56.699999999999996 126.69999999999999,58.099999999999994 124.24999999999999,60.199999999999996 124.24999999999999,61.24999999999999 125.3,62.3 123.89999999999999,63.349999999999994 123.55,64.39999999999999 124.24999999999999,66.14999999999999 125.3,65.8 123.89999999999999,65.8 123.89999999999999,63.349999999999994 125.64999999999999,62.3 125.3,61.24999999999999 125.3,62.3 124.24999999999999,60.55 124.94999999999999,59.849999999999994 125.3,60.55 126.69999999999999,60.9 127.39999999999999,60.55 127.39999999999999,59.849999999999994 126.69999999999999,60.9 125.3,60.199999999999996 126.35,58.8 127.74999999999999,58.8 130.54999999999998,57.4 131.25,55.65 129.85,54.949999999999996" stroke="#aaa" stroke-width="1" /><polyline fill="none" points="190.39999999999998,186.2 191.1,186.2 193.54999999999998,189.0 192.85,189.7 192.14999999999998,189.0 192.5,188.64999999999998 192.14999999999998,189.0 190.39999999999998,186.89999999999998 190.75,187.95 192.85,190.04999999999998 190.75,190.75 190.39999999999998,191.45 189.7,190.75 190.75,189.35 190.04999999999998,188.29999999999998 190.04999999999998,191.45 188.64999999999998,192.85 187.6,191.45 186.2,192.85 185.5,192.85 185.85,197.04999999999998 185.14999999999998,200.89999999999998 185.5,201.25 185.14999999999998,199.85 185.85,197.04999999999998 185.85,192.5 187.25,196.0 186.54999999999998,201.25 185.14999999999998,203.0 183.39999999999998,204.04999999999998 182.35,204.04999999999998 181.29999999999998,205.1 181.29999999999998,220.14999999999998 184.1,224.7 189.7,229.24999999999997 192.5,232.39999999999998 194.95,236.6 197.04999999999998,236.6 200.54999999999998,239.04999999999998 201.95,239.04999999999998 204.39999999999998,241.14999999999998 206.14999999999998,241.49999999999997 207.89999999999998,243.24999999999997 215.95,247.1 210.35,244.29999999999998 209.29999999999998,243.24999999999997 208.6,243.6 206.5,241.49999999999997 204.75,241.14999999999998 202.29999999999998,239.04999999999998 200.89999999999998,239.04999999999998 198.1,236.95 194.95,236.24999999999997 190.39999999999998,229.6 185.85,226.1 181.64999999999998,220.85 180.95,218.75 181.29999999999998,205.45 183.04999999999998,203.7 184.1,204.04999999999998 186.54999999999998,201.6 187.25,196.0 186.2,192.85 186.89999999999998,191.79999999999998 187.95,191.79999999999998 188.64999999999998,192.85 188.29999999999998,193.89999999999998 191.45,190.39999999999998 192.5,190.39999999999998 193.54999999999998,188.64999999999998 191.45,186.2 191.79999999999998,185.85" stroke="#aaa" stroke-width="1" /><polyline fill="none" points="89.25,59.49999999999999 88.19999999999999,62.65 88.19999999999999,65.45 86.44999999999999,67.89999999999999 86.44999999999999,68.94999999999999 86.8,67.89999999999999 87.85,68.94999999999999 85.05,70.69999999999999 84.69999999999999,70.35 84.35,72.44999999999999 82.6,74.55 81.55,77.69999999999999 79.8,79.44999999999999 81.55,78.05 82.6,74.89999999999999 84.35,72.8 84.35,71.39999999999999 86.8,69.64999999999999 87.5,70.0 87.14999999999999,73.14999999999999 86.44999999999999,73.85 87.14999999999999,73.14999999999999 87.14999999999999,70.35 87.85,68.6 86.8,67.55 88.19999999999999,65.8 88.19999999999999,62.99999999999999 88.89999999999999,61.949999999999996 88.55,61.599999999999994" stroke="#aaa" stroke-width="1" /><polyline fill="none" points="71.05,85.05 70.0,87.14999999999999 68.6,86.44999999999999 68.6,85.39999999999999 69.3,85.39999999999999 68.6,84.69999999999999 67.19999999999999,85.05 67.19999999999999,85.75 67.89999999999999,84.69999999999999 68.6,85.05 68.25,86.44999999999999 66.5,86.44999999999999 66.14999999999999,85.39999999999999 65.1,85.75 65.45,89.94999999999999 65.1,85.75 65.8,85.39999999999999 66.5,86.44999999999999 66.85,91.0 67.55,90.3 67.89999999999999,90.64999999999999 67.89999999999999,88.19999999999999 68.6,87.85 67.89999999999999,88.19999999999999 68.25,89.25 67.19999999999999,90.3 66.5,87.85 66.85,86.44999999999999 69.64999999999999,87.14999999999999 70.35,88.55 70.0,90.64999999999999 68.94999999999999,90.64999999999999 69.64999999999999,92.05 68.94999999999999,92.39999999999999 68.6,91.69999999999999 66.14999999999999,93.8 68.25,92.39999999999999 69.64999999999999,92.39999999999999 70.0,93.1 70.0,87.5" stroke="#aaa" stroke-width="1" /><polyline fill="none" points="110.94999999999999,55.3 112.0,55.3 113.74999999999999,53.199999999999996 115.49999999999999,52.15 116.19999999999999,53.199999999999996 115.14999999999999,54.949999999999996 114.44999999999999,54.599999999999994 114.44999999999999,55.3 111.64999999999999,57.05 113.05,56.699999999999996 115.14999999999999,54.949999999999996 116.89999999999999,56.349999999999994 116.19999999999999,56.0 116.55,55.3 117.24999999999999,55.65 118.99999999999999,55.3 119.35,54.599999999999994 120.05,54.949999999999996 122.14999999999999,52.5 123.89999999999999,53.55 123.55,54.25 123.89999999999999,53.199999999999996 122.49999999999999,52.5 124.24999999999999,51.8 123.55,51.099999999999994 123.89999999999999,51.8 121.8,52.5 119.69999999999999,54.949999999999996 119.35,54.599999999999994 118.64999999999999,55.3 115.85,55.65 115.14999999999999,54.949999999999996 116.19999999999999,53.9 115.49999999999999,52.15 118.3,52.15 118.64999999999999,52.5 117.6,53.55 116.89999999999999,53.55 117.94999999999999,53.55 119.35,52.15 119.35,51.449999999999996 115.14999999999999,50.4 114.1,50.75 115.14999999999999,50.4 116.55,51.099999999999994 115.85,51.8 114.8,51.449999999999996 115.49999999999999,51.8 114.44999999999999,52.849999999999994 113.74999999999999,52.849999999999994 111.64999999999999,55.3" stroke="#aaa" stroke-width="1" /><polyline fill="none" points="208.95,73.14999999999999 209.29999999999998,73.85 210.35,73.5 213.5,76.3 218.04999999999998,83.3 218.39999999999998,88.55 219.1,89.25 218.75,90.64999999999999 219.45,92.05 218.39999999999998,93.44999999999999 217.35,93.44999999999999 217.35,92.05 216.64999999999998,91.0 216.64999999999998,89.94999999999999 217.35,89.25 218.04999999999998,89.6 217.7,88.89999999999999 217.0,89.6 215.25,87.14999999999999 215.6,86.1 214.54999999999998,85.39999999999999 213.85,85.75 213.85,87.85 213.85,86.1 214.54999999999998,85.39999999999999 215.25,86.1 214.89999999999998,87.5 215.25,87.14999999999999 215.95,88.19999999999999 215.25,88.55 215.25,89.94999999999999 214.54999999999998,90.64999999999999 214.2,90.3 215.6,91.69999999999999 215.6,93.1 216.29999999999998,93.44999999999999 215.95,94.14999999999999 215.95,91.35 215.6,91.69999999999999 214.89999999999998,91.0 215.25,88.89999999999999 215.95,88.55 216.64999999999998,89.25 216.64999999999998,91.0 217.35,92.05 217.7,95.19999999999999 217.35,95.55 216.64999999999998,94.85 218.04999999999998,96.25 217.0,96.94999999999999 216.64999999999998,95.89999999999999 215.6,95.55 215.25,96.94999999999999 216.29999999999998,95.89999999999999 217.0,96.94999999999999 217.0,98.69999999999999 217.0,97.3 218.04999999999998,96.25 219.1,97.3 217.7,95.55 217.7,93.8 218.04999999999998,93.44999999999999 218.75,94.5 218.39999999999998,93.8 219.45,92.05 218.75,89.6 220.14999999999998,88.19999999999999 221.2,89.25 221.54999999999998,91.35 221.54999999999998,87.85 221.2,87.5 221.54999999999998,88.19999999999999 220.85,88.89999999999999 220.14999999999998,88.19999999999999 219.79999999999998,86.44999999999999 218.04999999999998,84.69999999999999 217.7,82.25 213.5,75.94999999999999 212.1,74.55 211.39999999999998,74.55 210.35,73.5 209.64999999999998,73.85" stroke="#aaa" stroke-width="1" /><polyline fill="none" points="111.64999999999999,49.349999999999994 110.94999999999999,49.0 106.39999999999999,50.75 102.55,54.25 100.44999999999999,54.599999999999994 99.39999999999999,55.65 99.39999999999999,56.349999999999994 101.14999999999999,54.25 101.85,54.599999999999994 99.05,57.74999999999999 98.35,57.05 99.05,57.74999999999999 97.64999999999999,59.15 96.25,58.099999999999994 96.25,57.4 98.35,54.599999999999994 98.35,53.9 96.25,57.4 96.25,58.449999999999996 97.64999999999999,59.49999999999999 96.94999999999999,60.199999999999996 96.6,59.849999999999994 96.94999999999999,60.199999999999996 95.55,61.24999999999999 97.64999999999999,59.849999999999994 102.19999999999999,54.25 102.89999999999999,54.25 105.35,52.15 106.39999999999999,52.849999999999994 108.14999999999999,51.099999999999994 110.25,51.449999999999996 109.55,50.75 105.69999999999999,52.5 105.35,52.15 106.75,50.75 108.5,50.4 109.89999999999999,49.349999999999994" stroke="#aaa" stroke-width="1" /><polyline fill="none" points="98.0,207.54999999999998 96.94999999999999,207.54999999999998 98.0,208.25 96.25,208.95 97.64999999999999,209.64999999999998 97.3,211.04999999999998 98.0,211.75 97.64999999999999,212.79999999999998 98.69999999999999,214.89999999999998 99.05,217.7 96.6,218.04999999999998 96.94999999999999,219.45 96.6,218.39999999999998 98.0,218.39999999999998 98.0,220.85 96.6,222.6 96.6,223.64999999999998 95.55,224.7 95.55,225.39999999999998 91.35,229.95 90.64999999999999,231.7 91.35,239.04999999999998 92.05,239.74999999999997 92.05,241.49999999999997 93.1,242.89999999999998 93.44999999999999,242.54999999999998 92.05,241.49999999999997 92.05,239.74999999999997 91.35,238.7 90.64999999999999,231.7 94.85,226.45 95.89999999999999,227.49999999999997 97.3,226.79999999999998 96.94999999999999,227.14999999999998 96.25,226.1 96.25,227.14999999999998 94.85,226.45 95.55,225.04999999999998 97.3,223.64999999999998 97.3,222.95 96.94999999999999,223.64999999999998 96.6,222.6 98.0,221.2 98.0,218.39999999999998 99.05,218.04999999999998 99.05,214.89999999999998 98.35,214.54999999999998 97.64999999999999,212.79999999999998 98.0,210.0 97.3,209.29999999999998 98.0,208.95" stroke="#aaa" stroke-width="1" /><polyline fill="none" points="106.05,222.25 107.8,223.29999999999998 106.75,224.0 106.05,223.29999999999998 106.75,224.35 107.8,223.64999999999998 110.25,226.45 109.55,227.14999999999998 110.25,228.54999999999998 110.94999999999999,228.54999999999998 110.94999999999999,227.85 112.0,227.49999999999997 113.05,228.89999999999998 112.69999999999999,229.24999999999997 113.39999999999999,228.89999999999998 115.49999999999999,230.64999999999998 114.8,231.35 115.49999999999999,230.64999999999998 116.19999999999999,230.99999999999997 115.14999999999999,232.04999999999998 116.89999999999999,230.29999999999998 119.35,233.1 118.99999999999999,234.49999999999997 120.05,235.54999999999998 118.99999999999999,234.49999999999997 119.69999999999999,233.1 120.39999999999999,234.49999999999997 122.49999999999999,235.89999999999998 122.49999999999999,237.64999999999998 123.89999999999999,237.64999999999998 124.24999999999999,238.35 125.64999999999999,238.7 125.99999999999999,240.1 126.69999999999999,240.45 126.35,241.49999999999997 127.05,242.2 126.35,241.49999999999997 126.69999999999999,240.45 128.79999999999998,242.2 127.39999999999999,240.45 125.99999999999999,239.74999999999997 125.99999999999999,238.7 122.49999999999999,237.29999999999998 122.14999999999999,235.54999999999998 122.85,234.14999999999998 121.8,233.79999999999998 122.49999999999999,234.49999999999997 122.14999999999999,235.54999999999998 120.05,233.79999999999998 120.39999999999999,233.45 119.35,233.1 116.19999999999999,229.6 116.89999999999999,228.89999999999998 116.19999999999999,229.24999999999997 114.44999999999999,228.2 116.55,230.29999999999998 115.85,230.64999999999998 113.74999999999999,229.24999999999997 112.35,227.49999999999997 111.64999999999999,227.49999999999997 110.94999999999999,226.79999999999998 110.94999999999999,225.74999999999997 110.25,226.45 107.44999999999999,222.6" stroke="#aaa" stroke-width="1" /><polyline fill="none" points="102.89999999999999,46.9 101.5,47.25 101.85,47.599999999999994 100.8,48.3 100.44999999999999,47.599999999999994 99.75,47.599999999999994 100.8,48.65 99.39999999999999,50.4 98.35,50.75 99.05,51.099999999999994 99.05,51.8 98.35,52.15 98.0,51.449999999999996 98.35,52.15 95.89999999999999,55.3 95.19999999999999,54.949999999999996 95.89999999999999,52.5 98.35,49.349999999999994 96.94999999999999,50.4 96.94999999999999,51.099999999999994 95.89999999999999,52.15 95.19999999999999,55.3 96.6,54.949999999999996 97.3,53.199999999999996 99.05,52.15 99.05,50.75" stroke="#aaa" stroke-width="1" /><polyline fill="none" points="185.5,43.75 186.89999999999998,45.15 186.89999999999998,45.849999999999994 189.0,47.599999999999994 188.64999999999998,47.949999999999996 189.0,47.599999999999994 190.04999999999998,48.65 190.39999999999998,49.699999999999996 190.75,48.65 192.14999999999998,48.65 194.95,50.05 194.25,50.75 192.5,49.699999999999996 191.45,49.699999999999996 192.5,49.699999999999996 195.64999999999998,51.449999999999996 199.14999999999998,54.949999999999996 197.39999999999998,55.3 196.7,54.25 196.7,54.949999999999996 198.79999999999998,55.3 202.29999999999998,58.449999999999996 204.04999999999998,61.949999999999996 203.7,62.3 202.29999999999998,60.9 200.89999999999998,58.449999999999996 202.29999999999998,61.24999999999999 203.7,62.3 201.95,62.65 199.85,61.949999999999996 203.35,62.65 204.04999999999998,61.24999999999999 202.29999999999998,58.099999999999994 199.14999999999998,55.3 199.14999999999998,54.599999999999994 194.6,50.75 194.95,50.05 198.1,52.15 200.54999999999998,55.3 204.39999999999998,58.8 204.39999999999998,59.49999999999999 205.79999999999998,60.199999999999996 205.1,61.24999999999999 205.79999999999998,60.55 206.5,61.24999999999999 206.85,62.99999999999999 206.14999999999998,65.1 205.1,64.75 205.79999999999998,64.05 205.79999999999998,62.65 203.35,63.699999999999996 201.25,63.349999999999994 203.35,63.699999999999996 205.45,62.65 205.79999999999998,63.699999999999996 204.75,64.75 203.35,64.39999999999999 205.1,64.75 205.79999999999998,65.45 205.45,66.14999999999999 206.85,68.6 205.79999999999998,65.8 206.5,65.1 207.89999999999998,66.5 206.5,65.1 206.85,62.99999999999999 205.79999999999998,59.849999999999994 200.54999999999998,54.949999999999996 198.45,52.15 197.75,52.15 194.25,49.349999999999994 192.14999999999998,48.65 190.39999999999998,49.0 188.29999999999998,46.9 189.0,46.55 188.29999999999998,46.9 188.29999999999998,45.849999999999994 187.6,46.199999999999996 186.89999999999998,45.5 187.6,44.8 188.29999999999998,45.15 186.89999999999998,45.15" stroke="#aaa" stroke-width="1" /><polyline fill="none" points="181.29999999999998,36.05 180.95,36.4 181.64999999999998,36.4 182.35,39.199999999999996 183.75,41.3 184.45,43.4 183.75,44.099999999999994 184.45,44.449999999999996 184.45,45.5 185.85,47.25 188.29999999999998,49.0 189.0,50.4 191.1,51.449999999999996 189.7,51.8 189.7,52.5 190.75,53.55 190.04999999999998,53.9 191.1,53.55 193.54999999999998,56.699999999999996 192.5,57.05 193.54999999999998,56.699999999999996 194.95,58.099999999999994 194.95,58.8 199.14999999999998,62.3 197.04999999999998,59.849999999999994 194.95,58.449999999999996 192.85,54.949999999999996 189.7,52.15 190.39999999999998,51.8 191.1,52.5 190.75,51.8 191.79999999999998,51.099999999999994 193.54999999999998,53.199999999999996 192.14999999999998,51.099999999999994 192.5,50.75 190.75,51.099999999999994 189.35,50.4 188.29999999999998,48.65 185.14999999999998,46.199999999999996 184.45,45.15 184.45,43.05 183.75,42.349999999999994 183.75,41.3" stroke="#aaa" stroke-width="1" /><polyline fill="none" points="124.6,35.0 123.19999999999999,35.699999999999996 120.05,35.699999999999996 116.19999999999999,37.449999999999996 115.49999999999999,36.75 117.24999999999999,36.05 115.85,36.4 115.85,37.449999999999996 114.1,38.5 113.39999999999999,38.5 113.05,37.8 111.3,38.15 109.89999999999999,37.449999999999996 106.75,38.15 105.0,39.199999999999996 104.3,38.849999999999994 101.5,41.65 100.44999999999999,41.65 96.6,44.449999999999996 99.39999999999999,43.05 100.8,41.65 102.19999999999999,41.3 103.6,39.55 105.35,39.199999999999996 106.75,38.15 110.25,37.449999999999996 111.3,38.15 112.69999999999999,37.8 113.39999999999999,38.5 112.0,39.55 110.94999999999999,38.849999999999994 111.64999999999999,39.55 109.89999999999999,40.25 107.1,43.05 107.44999999999999,44.099999999999994 107.44999999999999,43.05 110.25,40.25 114.8,38.15 116.55,38.5 116.89999999999999,37.099999999999994 119.35,36.4 120.05,35.699999999999996 121.8,35.349999999999994 122.49999999999999,36.05 121.8,37.099999999999994 122.85,35.699999999999996" stroke="#aaa" stroke-width="1" /><polyline fill="none" points="100.44999999999999,39.9 94.5,43.75 93.1,43.75 91.35,45.849999999999994 88.89999999999999,46.9 86.1,49.349999999999994 81.19999999999999,51.449999999999996 79.8,51.449999999999996 79.1,52.15 86.8,49.0 88.19999999999999,47.599999999999994 91.0,46.199999999999996 93.44999999999999,43.75 94.85,43.75" stroke="#aaa" stroke-width="1" /><polyline fill="none" points="173.25,33.25 173.6,34.65 176.04999999999998,38.15 180.95,43.05 180.95,42.349999999999994 180.25,42.0 180.6,41.65 180.25,42.0 176.04999999999998,37.8" stroke="#aaa" stroke-width="1" /><polyline fill="none" points="67.89999999999999,55.65 64.05,59.49999999999999 64.05,60.9 62.99999999999999,61.24999999999999 62.99999999999999,62.3 61.599999999999994,63.699999999999996 61.24999999999999,62.65 60.55,64.05 61.24999999999999,65.45 61.24999999999999,64.39999999999999 60.55,64.05 61.599999999999994,63.699999999999996 61.949999999999996,64.39999999999999 63.349999999999994,61.24999999999999 64.75,62.3 64.75,62.99999999999999 64.05,64.05 62.65,64.05 64.05,64.05 61.599999999999994,66.14999999999999 60.55,68.25 59.849999999999994,75.25 60.55,74.89999999999999 59.849999999999994,73.85 60.55,68.25 62.65,65.45 63.349999999999994,65.8 62.65,67.55 63.349999999999994,65.8 62.99999999999999,65.45 64.75,63.349999999999994 64.75,62.3 63.699999999999996,61.24999999999999 63.699999999999996,60.55" stroke="#aaa" stroke-width="1" /><polyline fill="none" points="90.64999999999999,35.699999999999996 87.85,37.449999999999996 86.8,38.849999999999994 85.75,38.849999999999994 80.5,44.099999999999994 78.75,44.099999999999994 77.69999999999999,44.8 78.75,44.099999999999994 79.8,44.449999999999996 80.5,45.5 77.69999999999999,47.949999999999996 77.35,46.55 78.39999999999999,45.5 77.35,46.55 77.69999999999999,47.949999999999996 74.89999999999999,50.75 70.69999999999999,52.15 68.25,54.599999999999994 66.14999999999999,55.65 65.1,55.3 66.14999999999999,55.65 68.6,54.599999999999994 71.05,52.15 75.25,50.75 80.5,45.849999999999994 79.8,44.449999999999996 81.19999999999999,43.75 81.55,44.449999999999996 81.19999999999999,43.75 82.6,42.0 83.64999999999999,41.65 86.1,38.849999999999994 88.19999999999999,38.849999999999994 87.5,38.15" stroke="#aaa" stroke-width="1" /><polyline fill="none" points="108.85,28.7 108.14999999999999,28.7 105.69999999999999,30.799999999999997 102.55,31.849999999999998 101.85,31.499999999999996 99.75,32.9 95.19999999999999,33.949999999999996 94.14999999999999,35.0 93.1,35.0 91.0,36.4 92.05,36.4 93.44999999999999,35.0 95.19999999999999,35.699999999999996 95.89999999999999,35.0 97.3,35.0 101.14999999999999,33.25 101.5,33.599999999999994 101.85,33.25 96.94999999999999,35.0 95.89999999999999,35.0 95.19999999999999,34.3 95.55,33.949999999999996 98.0,33.599999999999994 101.85,31.499999999999996 102.55,31.849999999999998 104.64999999999999,30.799999999999997 106.05,30.799999999999997" stroke="#aaa" stroke-width="1" /><polyline fill="none" points="93.8,243.24999999999997 94.85,245.7 97.3,247.79999999999998 98.0,249.2 99.75,250.6 101.14999999999999,249.2 102.55,249.89999999999998 103.25,250.95 103.6,250.6 105.0,252.35 102.89999999999999,249.89999999999998 100.8,248.85 100.8,247.79999999999998 96.94999999999999,243.95 100.8,248.49999999999997 100.8,249.89999999999998 100.1,250.6 94.85,245.35" stroke="#aaa" stroke-width="1" /><polyline fill="none" points="129.5,19.95 127.74999999999999,19.599999999999998 129.15,19.599999999999998 129.5,19.95 128.79999999999998,20.65 125.99999999999999,21.7 123.55,21.7 121.44999999999999,22.75 118.3,22.75 116.89999999999999,21.7 117.6,22.049999999999997 116.89999999999999,22.75 114.44999999999999,22.75 113.39999999999999,23.799999999999997 111.64999999999999,23.799999999999997 107.8,25.2 107.1,24.5 108.85,23.799999999999997 107.8,23.799999999999997 107.1,24.5 106.39999999999999,23.799999999999997 106.75,24.15 106.05,24.849999999999998 105.35,24.5 105.35,23.799999999999997 103.25,24.849999999999998 102.55,24.5 102.19999999999999,24.849999999999998 103.6,24.849999999999998 105.0,23.799999999999997 105.35,24.849999999999998 106.05,24.849999999999998 106.75,24.15 107.44999999999999,24.849999999999998 106.75,25.9 105.0,25.9 103.94999999999999,26.95 100.8,27.299999999999997 98.35,28.349999999999998 93.1,32.199999999999996 90.3,35.0 88.55,35.699999999999996 87.14999999999999,35.0 88.19999999999999,36.05 92.39999999999999,33.599999999999994 92.75,33.949999999999996 92.39999999999999,33.599999999999994 93.44999999999999,32.199999999999996 98.69999999999999,28.349999999999998 101.14999999999999,27.299999999999997 104.3,26.95 105.35,25.9 106.39999999999999,26.25 105.69999999999999,26.95 105.0,26.95 106.39999999999999,26.599999999999998 108.14999999999999,24.849999999999998 108.85,25.2 112.0,23.799999999999997 115.14999999999999,24.5 114.1,24.5 113.39999999999999,23.799999999999997 114.8,22.75 121.44999999999999,22.75 123.55,21.7 127.39999999999999,21.349999999999998 129.15,20.65" stroke="#aaa" stroke-width="1" /><polyline fill="none" points="147.7,8.75 150.5,9.799999999999999 150.85,10.85 150.14999999999998,11.2 150.85,10.85 151.89999999999998,11.899999999999999 151.89999999999998,12.6 152.6,12.6 151.89999999999998,11.899999999999999 152.95,11.549999999999999 155.04999999999998,13.649999999999999 154.7,14.35 154.0,14.0 154.7,14.35 154.35,14.7 155.39999999999998,13.649999999999999 156.45,14.0 161.7,19.25 160.64999999999998,20.65 161.35,21.0 162.04999999999998,22.75 161.35,23.45 160.64999999999998,22.75 160.64999999999998,21.349999999999998 161.0,23.45 162.04999999999998,24.15 161.35,23.45 162.04999999999998,22.4 161.0,20.65 161.7,19.599999999999998 162.39999999999998,20.299999999999997 163.45,19.95 166.25,21.7 164.85,21.7 166.25,22.4 164.85,23.099999999999998 163.45,21.7 164.14999999999998,21.349999999999998 163.79999999999998,21.0 163.45,21.7 163.1,21.0 163.1,21.7 164.85,23.45 164.5,25.2 166.25,27.299999999999997 166.25,28.349999999999998 166.6,28.0 168.7,30.45 171.5,35.0 171.5,34.3 167.29999999999998,28.7 168.0,28.0 171.14999999999998,31.849999999999998 172.2,34.3 173.95,36.05 174.64999999999998,38.15 173.95,36.05 172.2,34.3 171.14999999999998,31.499999999999996 166.25,25.2 168.0,28.0 167.29999999999998,28.7 164.5,24.849999999999998 164.5,24.15 166.25,23.45 167.64999999999998,24.849999999999998 168.0,26.25 170.45,29.749999999999996 174.64999999999998,33.949999999999996 176.75,33.949999999999996 175.0,33.949999999999996 170.45,29.4 168.0,25.9 167.64999999999998,24.5 165.89999999999998,22.75 165.89999999999998,21.0 162.39999999999998,19.95 158.89999999999998,16.45 161.0,16.45 160.29999999999998,15.049999999999999 160.64999999999998,14.35 162.04999999999998,15.399999999999999 161.7,16.799999999999997 163.1,18.2 162.39999999999998,18.549999999999997 161.7,17.5 161.0,17.5 163.1,18.549999999999997 163.1,17.849999999999998 161.7,16.45 162.39999999999998,15.399999999999999 163.45,16.099999999999998 163.45,15.399999999999999 163.1,16.099999999999998 161.0,14.35 159.95,14.35 161.0,15.749999999999998 159.6,15.749999999999998 158.89999999999998,16.45 157.14999999999998,14.35 154.35,12.95 152.6,10.5 152.95,11.2 151.89999999999998,11.549999999999999 150.85,10.5 150.85,9.799999999999999" stroke="#aaa" stroke-width="1" /><polyline fill="none" points="94.85,246.74999999999997 96.25,248.49999999999997 95.19999999999999,249.2 96.25,249.54999999999998 95.55,249.2 96.25,248.49999999999997 100.1,252.35 100.1,253.04999999999998 101.85,255.14999999999998 105.35,257.59999999999997 108.85,261.09999999999997 108.85,261.8 112.35,265.3 111.3,266.34999999999997 112.0,266.34999999999997 113.05,264.59999999999997 113.74999999999999,264.59999999999997 113.74999999999999,266.0 114.8,266.34999999999997 114.1,266.0 113.74999999999999,264.59999999999997 112.35,264.95 105.69999999999999,257.59999999999997 102.55,255.49999999999997 100.1,252.7 100.1,251.99999999999997" stroke="#aaa" stroke-width="1" /><polyline fill="none" points="102.89999999999999,251.64999999999998 108.14999999999999,257.25 107.8,257.59999999999997 108.14999999999999,257.25 116.55,265.3 115.49999999999999,266.0 116.55,265.3 117.94999999999999,266.34999999999997 119.35,266.0 124.24999999999999,266.7 128.45,266.34999999999997 129.5,265.65 130.54999999999998,266.0 129.15,265.65 128.45,266.34999999999997 124.94999999999999,266.7 117.94999999999999,266.0 114.8,263.2 115.49999999999999,262.15 114.1,262.5 106.39999999999999,255.14999999999998 105.35,253.39999999999998" stroke="#aaa" stroke-width="1" /><polyline fill="none" points="191.79999999999998,248.14999999999998 191.79999999999998,250.24999999999997 190.75,251.99999999999997 190.75,253.39999999999998 188.29999999999998,255.85 188.29999999999998,258.3 182.35,267.4 188.29999999999998,258.65 187.95,257.59999999999997 190.04999999999998,256.2 189.0,256.9 188.29999999999998,256.2 190.75,253.39999999999998 190.75,251.99999999999997 191.79999999999998,250.6" stroke="#aaa" stroke-width="1" /><polyline fill="none" points="148.39999999999998,10.85 148.04999999999998,11.549999999999999 144.54999999999998,11.2 144.2,10.85 145.6,9.799999999999999 147.0,10.5 146.29999999999998,9.799999999999999 146.64999999999998,9.45 144.2,10.85 144.2,9.45 143.5,9.1 144.2,9.799999999999999 143.5,10.5 139.29999999999998,10.85 137.2,9.799999999999999 135.45,9.799999999999999 134.75,9.1 132.65,9.1 134.75,9.45 133.7,10.5 134.75,9.45 138.25,10.5 136.85,11.2 136.5,12.25 135.79999999999998,11.2 133.7,12.25 133.0,11.899999999999999 134.04999999999998,12.6 134.04999999999998,11.899999999999999 135.45,11.2 136.14999999999998,12.25 137.54999999999998,12.95 137.2,13.299999999999999 131.6,13.299999999999999 130.2,12.25 130.2,11.549999999999999 129.5,12.6 126.35,12.6 125.64999999999999,11.549999999999999 126.35,10.85 127.74999999999999,11.549999999999999 126.35,10.85 125.64999999999999,11.549999999999999 126.35,12.6 125.64999999999999,12.95 130.9,12.6 131.6,13.299999999999999 131.25,14.0 128.1,13.649999999999999 126.35,14.7 124.24999999999999,14.7 122.14999999999999,16.099999999999998 118.99999999999999,17.15 113.39999999999999,22.4 109.55,22.049999999999997 107.8,23.099999999999998 107.1,21.349999999999998 106.75,22.049999999999997 105.35,21.349999999999998 106.05,22.049999999999997 107.1,22.049999999999997 107.1,23.099999999999998 106.39999999999999,22.75 102.55,23.799999999999997 106.39999999999999,22.75 107.8,23.099999999999998 109.55,22.049999999999997 111.64999999999999,22.049999999999997 112.0,22.75 114.44999999999999,22.049999999999997 116.55,19.599999999999998 117.24999999999999,19.95 118.64999999999999,18.549999999999997 119.69999999999999,18.549999999999997 118.64999999999999,18.549999999999997 117.24999999999999,19.95 116.55,19.599999999999998 120.05,16.799999999999997 122.14999999999999,17.5 124.24999999999999,16.45 125.3,17.15 124.94999999999999,18.2 125.3,17.15 127.39999999999999,16.099999999999998 132.65,16.099999999999998 133.7,17.15 134.39999999999998,16.099999999999998 135.45,16.099999999999998 138.6,18.549999999999997 135.45,16.099999999999998 134.39999999999998,16.099999999999998 133.7,16.799999999999997 132.65,16.099999999999998 132.29999999999998,16.45 130.2,15.749999999999998 127.39999999999999,16.099999999999998 125.64999999999999,17.15 124.24999999999999,16.45 121.44999999999999,17.5 120.74999999999999,16.799999999999997 121.44999999999999,16.099999999999998 128.79999999999998,13.649999999999999 133.7,14.7 135.45,14.35 137.2,15.399999999999999 141.04999999999998,16.099999999999998 146.29999999999998,19.95 146.29999999999998,18.9 144.89999999999998,18.9 144.2,18.2 144.54999999999998,17.849999999999998 144.2,18.2 141.39999999999998,16.099999999999998 137.2,15.399999999999999 135.45,14.35 133.7,14.7 131.25,14.0 131.95,13.299999999999999 136.85,13.649999999999999 138.25,12.6 137.2,12.6 137.2,11.2 139.64999999999998,11.899999999999999 138.25,11.549999999999999 138.25,10.5 143.5,10.5 144.2,11.2 148.39999999999998,11.549999999999999" stroke="#aaa" stroke-width="1" /><polyline fill="none" points="89.6,230.99999999999997 89.25,230.64999999999998 87.85,233.1 88.55,234.14999999999998 86.44999999999999,236.24999999999997 85.75,236.24999999999997 85.39999999999999,237.29999999999998 81.89999999999999,241.14999999999998 80.85,240.45 81.55,241.14999999999998 79.1,242.54999999999998 74.89999999999999,246.39999999999998 73.14999999999999,246.39999999999998 69.3,247.79999999999998 68.25,247.1 67.55,247.79999999999998 68.94999999999999,247.45 69.3,247.79999999999998 68.6,248.49999999999997 61.599999999999994,251.64999999999998 60.199999999999996,253.74999999999997 59.49999999999999,253.74999999999997 58.449999999999996,252.7 57.4,252.7 59.49999999999999,253.74999999999997 58.8,254.45 54.949999999999996,254.1 50.05,256.2 45.5,256.2 40.25,257.59999999999997 26.95,257.59999999999997 24.5,258.3 21.7,260.4 20.65,260.4 21.0,260.75 17.5,263.9 14.7,264.95 14.35,264.25 15.049999999999999,263.55 14.35,264.25 14.35,265.65 13.649999999999999,264.95 11.899999999999999,264.95 13.299999999999999,264.95 14.0,265.65 12.25,267.05 5.25,270.54999999999995 4.55,270.2 4.8999999999999995,270.54999999999995 1.4,272.65 1.0499999999999998,271.95 1.75,271.59999999999997 1.0499999999999998,271.59999999999997 0.7,272.29999999999995 1.4,273.0 0.35,274.04999999999995 0.0,273.7 0.0,275.09999999999997 0.35,274.75 1.0499999999999998,275.45 1.0499999999999998,276.5 0.35,274.4 2.0999999999999996,272.29999999999995 8.75,268.79999999999995 11.549999999999999,269.5 11.899999999999999,268.79999999999995 11.2,269.5 9.1,268.79999999999995 9.799999999999999,268.09999999999997 12.6,267.05 15.749999999999998,264.59999999999997 17.15,264.25 23.45,259.0 26.95,257.59999999999997 40.25,257.59999999999997 45.5,256.2 50.05,256.2 54.949999999999996,254.1 58.099999999999994,254.1 58.8,255.49999999999997 59.849999999999994,256.2 59.15,257.25 55.3,256.55 54.25,255.85 52.849999999999994,256.2 58.449999999999996,256.9 59.49999999999999,257.95 60.199999999999996,257.25 62.3,257.25 65.1,258.65 66.85,258.65 67.19999999999999,259.34999999999997 70.0,259.0 72.8,260.05 74.19999999999999,260.05 74.55,259.34999999999997 75.25,259.34999999999997 77.69999999999999,261.09999999999997 81.19999999999999,261.09999999999997 81.55,260.05 80.5,256.55 80.14999999999999,244.64999999999998 81.55,242.89999999999998 80.5,243.24999999999997 80.85,243.6 80.14999999999999,244.64999999999998 79.44999999999999,243.95 80.14999999999999,244.64999999999998 80.5,256.55 81.55,260.05 80.85,261.09999999999997 78.05,261.09999999999997 74.55,259.0 73.85,254.45 72.44999999999999,253.04999999999998 73.14999999999999,252.7 72.1,251.29999999999998 72.8,252.35 71.39999999999999,253.74999999999997 72.8,254.79999999999998 71.39999999999999,253.74999999999997 72.44999999999999,253.04999999999998 73.85,254.45 74.55,258.65 73.85,260.05 71.05,259.7 70.35,259.0 67.55,259.34999999999997 67.19999999999999,258.65 65.1,258.65 61.599999999999994,256.9 62.3,256.2 63.699999999999996,256.9 64.39999999999999,256.2 63.699999999999996,256.9 62.65,256.2 61.949999999999996,256.55 60.9,255.14999999999998 60.199999999999996,255.14999999999998 61.949999999999996,256.55 61.24999999999999,257.59999999999997 59.849999999999994,256.55 58.8,254.45 60.55,253.74999999999997 60.55,253.04999999999998 61.949999999999996,251.64999999999998 63.349999999999994,251.29999999999998 65.1,249.89999999999998 65.45,250.6 63.699999999999996,252.7 62.99999999999999,252.35 64.05,252.7 66.85,249.2 68.94999999999999,248.49999999999997 70.0,247.45 73.5,246.39999999999998 74.89999999999999,246.74999999999997 74.19999999999999,249.2 73.5,249.89999999999998 73.14999999999999,248.49999999999997 72.1,248.49999999999997 73.85,250.24999999999997 72.44999999999999,250.24999999999997 73.85,251.29999999999998 74.19999999999999,253.39999999999998 74.19999999999999,250.95 73.85,251.29999999999998 73.5,250.6 74.19999999999999,248.49999999999997 74.89999999999999,247.79999999999998 75.6,248.14999999999998 74.89999999999999,246.74999999999997 76.3,245.35 77.0,246.04999999999998 78.75,245.7 79.1,244.64999999999998 78.39999999999999,245.7 77.35,246.04999999999998 76.3,245.35 79.8,242.2 82.25,241.14999999999998 82.94999999999999,240.1 83.64999999999999,240.79999999999998 83.3,241.85 83.64999999999999,241.49999999999997 83.3,240.1 84.35,240.1 83.64999999999999,239.39999999999998 85.39999999999999,237.64999999999998 85.39999999999999,236.95 89.94999999999999,233.45 88.55,234.14999999999998 88.19999999999999,233.79999999999998" stroke="#aaa" stroke-width="1" /></svg>