<?xml version="1.0" encoding="utf-8" ?>
<svg baseProfile="full" height="224" version="1.1" width="224" xmlns="http://www.w3.org/2000/svg" xmlns:ev="http://www.w3.org/2001/xml-events" xmlns:xlink="http://www.w3.org/1999/xlink"><defs /><polyline fill="none" points="115.14999999999999,91.35 114.44999999999999,92.39999999999999 114.8,94.5 114.1,94.85 114.8,95.55 115.14999999999999,97.3 114.8,101.85 115.49999999999999,102.89999999999999 115.49999999999999,107.44999999999999 116.89999999999999,110.25 117.6,121.1 118.3,122.49999999999999 118.3,124.94999999999999 119.69999999999999,128.45 119.35,129.5 123.55,137.54999999999998 124.6,141.04999999999998 126.69999999999999,143.5 127.74999999999999,146.64999999999998 130.2,149.79999999999998 130.2,149.1 128.79999999999998,148.04999999999998 128.45,146.64999999999998 127.05,145.25 126.35,142.79999999999998 124.6,140.7 124.6,139.29999999999998 123.55,138.25 123.55,137.2 122.14999999999999,135.45 121.44999999999999,132.65 119.35,129.5 119.69999999999999,128.45 118.3,124.94999999999999 118.3,122.49999999999999 117.6,121.1 116.89999999999999,109.89999999999999 115.49999999999999,107.44999999999999 115.49999999999999,102.89999999999999 114.8,101.5 115.14999999999999,97.3 114.44999999999999,92.39999999999999" stroke="#aaa" stroke-width="1" /><polyline fill="none" points="121.44999999999999,86.1 120.05,86.8 118.3,89.25 118.3,91.69999999999999 119.69999999999999,92.75 119.35,91.69999999999999 120.05,91.0 122.49999999999999,92.05 122.49999999999999,87.85 122.14999999999999,86.44999999999999" stroke="#aaa" stroke-width="1" /><polyline fill="none" points="80.5,108.14999999999999 79.44999999999999,108.14999999999999 77.35,109.89999999999999 76.3,109.89999999999999 74.89999999999999,110.94999999999999 71.75,110.25 71.39999999999999,111.3 74.19999999999999,112.0 75.94999999999999,111.64999999999999 79.8,109.89999999999999 80.5,109.19999999999999" stroke="#aaa" stroke-width="1" /><polyline fill="none" points="137.2,82.25 137.89999999999998,84.0 138.25,82.94999999999999 138.6,83.64999999999999 139.29999999999998,83.64999999999999 140.0,85.05 141.04999999999998,85.39999999999999 141.04999999999998,86.8 140.0,86.1 141.04999999999998,87.14999999999999 142.1,86.8 143.14999999999998,87.5 144.2,87.14999999999999 148.75,88.19999999999999 150.5,87.85 150.14999999999998,86.8 152.25,85.05 152.6,85.75 151.2,87.14999999999999 153.29999999999998,85.05 156.45,83.3 152.6,85.39999999999999 151.89999999999998,85.05 149.45,86.8 149.1,87.5 149.79999999999998,86.8 150.14999999999998,87.5 148.75,88.19999999999999 144.54999999999998,87.14999999999999 143.85,87.5 143.85,86.1 144.2,86.44999999999999 143.85,86.1 143.14999999999998,87.5 142.1,86.8 141.39999999999998,87.14999999999999 141.04999999999998,85.05 140.35,85.05 139.29999999999998,83.3" stroke="#aaa" stroke-width="1" /><polyline fill="none" points="134.39999999999998,119.35 134.75,121.8 136.14999999999998,122.85 139.29999999999998,122.85 143.5,124.94999999999999 145.6,124.6 148.75,125.3 152.6,124.6 154.35,125.3 157.14999999999998,125.3 159.6,123.89999999999999 161.35,123.89999999999999 163.79999999999998,121.8 164.85,122.85 164.85,123.55 163.1,126.69999999999999 162.39999999999998,126.35 162.04999999999998,124.6 158.54999999999998,128.79999999999998 156.79999999999998,129.85 155.75,129.85 153.29999999999998,131.6 143.85,130.54999999999998 141.75,129.85 140.0,128.45 139.29999999999998,129.85 143.85,131.95 151.54999999999998,132.29999999999998 153.64999999999998,133.0 155.75,131.6 157.85,131.25 162.75,126.69999999999999 163.79999999999998,126.35 164.85,122.49999999999999 163.79999999999998,121.8 162.04999999999998,122.85 161.7,121.44999999999999 161.0,121.1 158.2,122.14999999999999 156.1,122.14999999999999 155.04999999999998,121.44999999999999 145.95,121.8 141.39999999999998,121.1 138.95,120.05 137.2,120.39999999999999 134.75,118.99999999999999" stroke="#aaa" stroke-width="1" /><polyline fill="none" points="56.699999999999996,112.69999999999999 65.8,122.49999999999999 72.44999999999999,127.39999999999999 76.64999999999999,128.45 80.14999999999999,128.45 85.75,127.05 80.14999999999999,128.45 76.64999999999999,128.45 72.8,127.39999999999999 66.14999999999999,122.49999999999999 58.449999999999996,114.44999999999999 57.4,112.69999999999999" stroke="#aaa" stroke-width="1" /><polyline fill="none" points="62.3,84.0 65.1,84.0 62.99999999999999,83.64999999999999 60.199999999999996,85.75 58.099999999999994,88.19999999999999 57.05,92.75 56.349999999999994,92.75 57.05,94.14999999999999 57.05,97.64999999999999 56.699999999999996,98.0 56.0,96.94999999999999 58.8,101.5 58.8,102.55 60.55,103.25 62.65,107.8 65.8,112.0 70.0,115.14999999999999 76.64999999999999,115.49999999999999 81.55,113.74999999999999 84.69999999999999,110.94999999999999 86.44999999999999,107.1 87.14999999999999,103.94999999999999 87.14999999999999,99.75 87.85,99.75 87.14999999999999,99.05 87.14999999999999,94.85 87.14999999999999,103.94999999999999 86.1,108.14999999999999 84.69999999999999,110.6 82.6,112.69999999999999 79.8,114.44999999999999 76.64999999999999,115.49999999999999 71.05,115.49999999999999 68.94999999999999,114.44999999999999 65.8,111.64999999999999 62.65,107.44999999999999 60.55,102.89999999999999 59.15,102.55 59.15,100.8 58.8,101.5 56.699999999999996,98.0 57.05,96.94999999999999 58.099999999999994,96.6 57.05,96.25 56.699999999999996,93.1 57.4,93.1 57.4,89.94999999999999 58.8,87.5" stroke="#aaa" stroke-width="1" /><polyline fill="none" points="152.25,103.6 153.29999999999998,103.6 156.79999999999998,106.39999999999999 158.54999999999998,106.75 162.39999999999998,108.85 166.25,112.69999999999999 162.75,108.85 158.89999999999998,106.75 157.14999999999998,106.39999999999999 153.64999999999998,103.6" stroke="#aaa" stroke-width="1" /><polyline fill="none" points="115.14999999999999,62.99999999999999 115.14999999999999,66.14999999999999 116.19999999999999,66.5 117.24999999999999,65.1" stroke="#aaa" stroke-width="1" /><polyline fill="none" points="82.94999999999999,86.8 82.25,86.8 81.19999999999999,85.75 75.94999999999999,84.35 70.0,84.69999999999999 64.39999999999999,86.44999999999999 63.699999999999996,87.5 62.3,87.85 60.199999999999996,89.94999999999999 59.49999999999999,92.05 60.199999999999996,92.75 59.49999999999999,92.05 60.199999999999996,90.3 62.99999999999999,87.5 64.05,87.5 65.45,86.1 67.89999999999999,85.75 70.0,84.69999999999999 78.05,84.69999999999999 79.8,85.75 78.75,86.44999999999999 80.85,85.75 82.25,87.14999999999999 80.14999999999999,87.85 78.39999999999999,87.14999999999999 76.3,87.14999999999999 75.25,86.44999999999999 74.89999999999999,85.05 74.89999999999999,86.8 73.5,87.14999999999999 72.44999999999999,86.44999999999999 72.8,86.8 70.35,88.89999999999999 68.6,88.89999999999999 63.349999999999994,90.64999999999999 62.65,92.75 61.599999999999994,93.8 60.55,93.44999999999999 62.3,93.44999999999999 62.99999999999999,91.35 64.05,90.3 70.35,88.89999999999999 71.75,88.19999999999999 72.8,86.8 74.19999999999999,87.14999999999999 75.25,86.44999999999999 76.3,87.14999999999999 78.39999999999999,87.14999999999999 79.8,87.85 82.25,87.5" stroke="#aaa" stroke-width="1" /><polyline fill="none" points="114.44999999999999,145.95 118.3,150.5 120.05,154.35 119.69999999999999,158.54999999999998 117.24999999999999,163.45 114.1,172.54999999999998 113.05,173.95 114.1,172.89999999999998 114.1,171.5 115.85,168.35 116.19999999999999,166.25 120.05,157.5 120.05,154.35 119.35,153.29999999999998 119.35,151.89999999999998 117.24999999999999,148.75" stroke="#aaa" stroke-width="1" /><polyline fill="none" points="114.8,52.15 115.14999999999999,52.5 113.39999999999999,52.5 113.05,54.25 113.74999999999999,57.05 114.8,57.4 115.85,58.8 115.14999999999999,59.15 113.74999999999999,58.449999999999996 112.35,60.199999999999996 110.94999999999999,59.849999999999994 110.25,57.74999999999999 111.3,56.699999999999996 109.19999999999999,58.8 109.55,61.24999999999999 111.3,62.3 113.05,62.3 113.39999999999999,63.699999999999996 113.39999999999999,62.3 111.64999999999999,62.3 110.25,61.599999999999994 109.19999999999999,60.199999999999996 109.19999999999999,59.15 110.25,57.74999999999999 110.6,59.849999999999994 112.69999999999999,60.199999999999996 113.74999999999999,58.449999999999996 115.14999999999999,59.49999999999999 115.85,59.15 115.49999999999999,57.74999999999999 113.74999999999999,56.699999999999996 113.05,53.199999999999996" stroke="#aaa" stroke-width="1" /><polyline fill="none" points="152.6,94.5 153.64999999999998,96.94999999999999 153.64999999999998,100.8 157.5,103.94999999999999 162.04999999999998,105.35 166.95,105.35 170.45,103.94999999999999 173.25,101.5 174.64999999999998,98.0 174.64999999999998,95.55 171.5,95.89999999999999 173.25,95.89999999999999 174.64999999999998,96.94999999999999 173.25,101.14999999999999 169.75,104.3 168.0,105.0 162.04999999999998,105.35 157.85,103.94999999999999 153.64999999999998,100.44999999999999 153.64999999999998,96.94999999999999" stroke="#aaa" stroke-width="1" /><polyline fill="none" points="114.44999999999999,145.25 117.94999999999999,146.29999999999998 119.69999999999999,147.35 120.74999999999999,148.75 122.85,149.45 124.6,151.54999999999998 127.05,152.6 130.54999999999998,157.14999999999998 131.25,159.6 132.65,161.0 135.1,165.89999999999998 135.45,168.35 136.85,171.85 137.54999999999998,183.39999999999998 137.54999999999998,192.85 136.5,199.14999999999998 136.5,198.1 137.2,197.75 136.85,196.7 137.54999999999998,192.85 136.85,171.85 134.75,164.85 132.65,160.64999999999998 131.25,159.25 129.85,155.75 127.39999999999999,152.6 124.94999999999999,151.54999999999998 123.19999999999999,149.45 121.1,148.75 120.05,147.35 118.3,146.29999999999998" stroke="#aaa" stroke-width="1" /><polyline fill="none" points="148.39999999999998,89.25 150.85,89.6 150.85,91.0 150.85,90.3 153.29999999999998,88.19999999999999 155.39999999999998,87.5 156.1,88.19999999999999 162.04999999999998,87.5 163.45,88.19999999999999 163.45,87.5 164.5,87.5 164.5,89.25 167.29999999999998,88.89999999999999 169.04999999999998,89.25 170.45,90.3 169.04999999999998,89.25 166.6,89.25 164.5,88.55 164.5,86.1 168.35,86.44999999999999 170.79999999999998,87.5 174.29999999999998,91.0 175.0,94.85 174.29999999999998,91.0 173.25,89.25 171.14999999999998,87.5 168.35,86.44999999999999 158.2,85.75 155.39999999999998,86.44999999999999 153.64999999999998,87.5 155.39999999999998,86.44999999999999 158.2,85.75 163.1,85.75 163.79999999999998,86.44999999999999 163.45,86.8 164.14999999999998,86.8 163.79999999999998,87.5 156.45,88.19999999999999 155.04999999999998,87.5 154.35,88.19999999999999 152.95,88.19999999999999 151.2,89.94999999999999" stroke="#aaa" stroke-width="1" /><polyline fill="none" points="161.7,91.69999999999999 161.7,92.39999999999999 161.7,91.69999999999999 162.75,91.0 164.14999999999998,91.69999999999999 164.85,91.35 165.54999999999998,92.05 165.2,92.75 163.45,92.75 163.79999999999998,92.39999999999999 164.85,93.8 162.75,94.14999999999999 166.25,94.14999999999999 165.2,92.75 165.54999999999998,92.05 165.89999999999998,92.39999999999999 165.89999999999998,91.35 165.54999999999998,91.69999999999999 164.5,90.64999999999999 164.5,89.94999999999999 164.14999999999998,91.69999999999999 162.75,91.0 163.45,90.64999999999999 163.45,89.94999999999999" stroke="#aaa" stroke-width="1" /><polyline fill="none" points="73.85,73.85 72.44999999999999,72.44999999999999 69.64999999999999,71.75 72.44999999999999,72.44999999999999 73.14999999999999,73.14999999999999 73.14999999999999,74.19999999999999 71.39999999999999,74.89999999999999 70.69999999999999,74.19999999999999 71.39999999999999,73.85 71.39999999999999,73.14999999999999 67.89999999999999,72.8 65.45,74.55 65.45,75.94999999999999 66.14999999999999,76.3 67.89999999999999,75.6 70.0,76.64999999999999 68.6,75.6 68.25,75.94999999999999 67.89999999999999,75.25 66.85,75.94999999999999 65.45,75.6 66.5,73.5 67.89999999999999,72.8 70.35,72.8 70.35,74.19999999999999 67.55,73.85 70.69999999999999,74.19999999999999 71.05,74.89999999999999 73.14999999999999,74.55" stroke="#aaa" stroke-width="1" /><polyline fill="none" points="86.44999999999999,36.4 86.1,38.849999999999994 90.64999999999999,44.099999999999994 91.0,45.15 90.3,45.849999999999994 91.0,46.199999999999996 90.64999999999999,45.5 91.69999999999999,45.5 91.69999999999999,46.9 94.5,50.05 95.55,52.849999999999994 95.89999999999999,52.5 96.94999999999999,53.9 98.0,56.349999999999994 97.64999999999999,56.699999999999996 99.05,58.449999999999996 100.1,61.599999999999994 101.5,62.65 103.25,62.99999999999999 101.14999999999999,64.05 100.44999999999999,63.349999999999994 101.14999999999999,64.75 100.1,65.1 101.14999999999999,65.1 101.14999999999999,64.05 101.85,63.349999999999994 103.25,63.699999999999996 103.6,66.14999999999999 102.89999999999999,67.55 102.19999999999999,67.19999999999999 102.89999999999999,67.55 102.55,69.64999999999999 102.89999999999999,67.55 103.6,66.85 103.25,62.99999999999999 105.0,60.9 107.1,60.199999999999996 107.1,58.8 106.39999999999999,58.099999999999994 106.05,53.199999999999996 105.0,52.5 103.25,52.5 102.19999999999999,50.75 102.19999999999999,51.449999999999996 103.94999999999999,53.199999999999996 104.64999999999999,52.5 106.05,53.55 106.05,56.349999999999994 107.1,59.849999999999994 104.3,61.24999999999999 103.25,62.65 101.14999999999999,62.3 99.39999999999999,60.199999999999996 99.39999999999999,58.449999999999996 98.35,57.4 97.3,55.3 97.64999999999999,54.949999999999996 95.89999999999999,52.15 94.85,51.449999999999996 94.5,49.699999999999996 91.69999999999999,46.55 91.69999999999999,45.5 90.64999999999999,44.8 91.0,44.099999999999994 86.1,38.5" stroke="#aaa" stroke-width="1" /><polyline fill="none" points="60.55,72.44999999999999 64.39999999999999,72.8 64.39999999999999,72.1 65.45,71.75 65.45,73.5 65.8,71.75 64.05,70.69999999999999 63.699999999999996,71.05 62.65,69.64999999999999 63.349999999999994,70.69999999999999" stroke="#aaa" stroke-width="1" /><polyline fill="none" points="65.8,57.05 65.8,58.099999999999994 66.85,58.8 67.55,60.199999999999996 70.0,60.199999999999996 70.69999999999999,59.49999999999999 73.85,59.849999999999994 73.85,58.099999999999994 75.94999999999999,56.0 78.05,56.349999999999994 79.44999999999999,58.099999999999994 81.55,57.05 82.6,57.4 83.3,58.449999999999996 86.1,59.849999999999994 87.14999999999999,59.849999999999994 86.1,59.849999999999994 81.55,57.05 79.44999999999999,57.74999999999999 78.39999999999999,56.349999999999994 75.6,56.0 74.19999999999999,57.4 73.85,59.849999999999994 71.05,59.849999999999994 70.69999999999999,58.8 72.44999999999999,55.65 71.75,54.599999999999994 73.14999999999999,53.55 73.5,53.9 73.5,53.199999999999996 74.55,53.55 74.55,52.849999999999994 77.69999999999999,51.8 81.89999999999999,54.25 82.94999999999999,55.65 82.25,54.25 77.0,51.8 72.1,53.9 71.75,54.599999999999994 72.44999999999999,55.65 69.64999999999999,60.199999999999996 67.89999999999999,60.199999999999996 65.8,57.74999999999999" stroke="#aaa" stroke-width="1" /><polyline fill="none" points="186.54999999999998,134.75 185.14999999999998,135.45 185.14999999999998,136.5 183.39999999999998,139.29999999999998 183.39999999999998,140.35 182.35,141.04999999999998 179.89999999999998,144.54999999999998 177.1,146.64999999999998 177.45,147.0 175.7,148.39999999999998 176.04999999999998,148.75 175.35,149.45 171.85,151.2 170.45,152.95 169.04999999999998,152.6 168.35,153.64999999999998 165.89999999999998,154.0 164.85,155.04999999999998 161.35,156.1 153.64999999999998,162.39999999999998 150.14999999999998,166.25 148.39999999999998,165.89999999999998 145.6,163.79999999999998 142.79999999999998,160.64999999999998 141.39999999999998,157.85 142.1,159.95 145.25,163.79999999999998 149.45,166.6 148.39999999999998,167.64999999999998 154.0,162.39999999999998 161.7,156.1 164.85,155.04999999999998 166.25,154.0 168.35,154.0 169.39999999999998,152.6 170.79999999999998,152.95 172.2,151.2 175.7,149.45 177.45,146.64999999999998 178.85,145.95 183.39999999999998,140.7 183.39999999999998,139.64999999999998 185.14999999999998,136.85 185.14999999999998,135.79999999999998" stroke="#aaa" stroke-width="1" /><polyline fill="none" points="92.39999999999999,35.349999999999994 93.8,38.15 98.0,43.75 98.35,45.15 99.75,46.199999999999996 99.39999999999999,46.55 101.14999999999999,50.4 100.44999999999999,51.099999999999994 96.6,43.75 95.89999999999999,43.4 96.6,43.75 97.64999999999999,45.849999999999994 96.94999999999999,47.599999999999994 97.64999999999999,45.849999999999994 99.39999999999999,48.65 100.1,51.099999999999994 100.8,51.099999999999994 101.14999999999999,50.4 100.44999999999999,47.949999999999996 99.39999999999999,46.55 99.75,45.849999999999994 98.35,44.8 97.64999999999999,43.05 93.44999999999999,37.449999999999996 93.8,37.099999999999994 93.1,35.699999999999996" stroke="#aaa" stroke-width="1" /><polyline fill="none" points="134.39999999999998,39.199999999999996 133.35,38.849999999999994 126.69999999999999,42.699999999999996 124.94999999999999,42.699999999999996 123.19999999999999,41.3 123.89999999999999,41.65 123.55,42.349999999999994 122.49999999999999,42.0 120.39999999999999,43.05 120.39999999999999,44.449999999999996 123.19999999999999,47.949999999999996 121.8,49.0 119.69999999999999,49.349999999999994 121.1,49.349999999999994 123.19999999999999,48.3 123.55,47.25 122.85,47.25 120.39999999999999,44.099999999999994 121.1,42.699999999999996 123.89999999999999,42.0 124.94999999999999,42.699999999999996 126.69999999999999,42.699999999999996 133.7,38.849999999999994" stroke="#aaa" stroke-width="1" /><polyline fill="none" points="56.0,65.8 52.5,68.25 50.75,67.19999999999999 49.699999999999996,67.19999999999999 49.349999999999994,68.6 47.599999999999994,69.64999999999999 45.15,70.0 45.5,70.35 46.55,69.64999999999999 47.949999999999996,69.64999999999999 49.0,68.6 50.75,68.6 49.699999999999996,68.25 50.75,67.55 52.5,68.25 44.8,73.14999999999999 47.949999999999996,71.75 52.5,68.25 54.25,67.55" stroke="#aaa" stroke-width="1" /><polyline fill="none" points="44.449999999999996,68.25 47.25,68.6 47.599999999999994,66.14999999999999 49.349999999999994,64.75 51.449999999999996,65.1 52.5,66.5 53.55,66.5 54.949999999999996,65.1 56.0,65.1 54.599999999999994,65.1 53.9,64.39999999999999 54.599999999999994,65.1 53.9,65.8 53.199999999999996,64.75 51.8,64.05 47.949999999999996,64.05 44.8,65.8" stroke="#aaa" stroke-width="1" /><polyline fill="none" points="184.79999999999998,77.35 185.5,78.39999999999999 185.14999999999998,80.14999999999999 184.1,81.19999999999999 182.7,81.55 183.75,84.35 183.04999999999998,84.69999999999999 183.75,85.39999999999999 183.75,89.25 184.1,88.89999999999999 184.79999999999998,89.6 183.75,91.0 184.1,93.8 184.79999999999998,94.14999999999999 185.5,99.75 186.89999999999998,99.75 187.6,100.8 188.29999999999998,100.8 190.04999999999998,99.39999999999999 190.75,93.44999999999999 192.14999999999998,92.39999999999999 191.1,92.39999999999999 191.79999999999998,92.75 190.75,93.44999999999999 189.35,93.44999999999999 189.35,94.85 190.39999999999998,95.89999999999999 189.7,96.6 188.64999999999998,96.6 188.64999999999998,97.3 186.89999999999998,98.69999999999999 187.25,99.05 186.54999999999998,99.75 185.14999999999998,99.05 184.79999999999998,93.8 184.1,93.44999999999999 183.75,91.0 184.79999999999998,89.6 186.2,88.89999999999999 185.14999999999998,89.6 184.45,89.25 183.39999999999998,86.44999999999999 184.1,86.44999999999999 183.39999999999998,84.69999999999999 183.75,83.64999999999999 182.7,81.89999999999999 185.14999999999998,80.5 185.5,78.39999999999999" stroke="#aaa" stroke-width="1" /><polyline fill="none" points="82.94999999999999,32.199999999999996 87.14999999999999,36.4 83.64999999999999,32.9 84.0,32.55 88.55,36.05 89.6,37.449999999999996 88.89999999999999,38.15 89.6,38.5 90.3,40.949999999999996 92.39999999999999,42.349999999999994 90.3,40.599999999999994 89.6,37.449999999999996 88.19999999999999,35.349999999999994 84.69999999999999,32.55 83.64999999999999,32.9" stroke="#aaa" stroke-width="1" /><polyline fill="none" points="41.65,150.14999999999998 42.699999999999996,150.85 45.5,156.79999999999998 45.5,157.85 47.25,159.95 49.699999999999996,166.25 51.099999999999994,168.0 49.699999999999996,166.25 50.4,165.89999999999998 49.349999999999994,165.2 48.65,162.39999999999998 46.199999999999996,157.85 45.5,157.5 45.5,156.45 42.699999999999996,150.5" stroke="#aaa" stroke-width="1" /><polyline fill="none" points="172.2,55.65 173.95,57.05 176.04999999999998,57.74999999999999 177.45,59.15 177.45,59.849999999999994 180.6,61.949999999999996 180.25,62.65 180.95,61.949999999999996 181.64999999999998,62.3 177.45,59.49999999999999 177.79999999999998,58.8 178.5,58.8 177.45,58.8 176.39999999999998,57.74999999999999 174.29999999999998,57.05 173.25,55.3" stroke="#aaa" stroke-width="1" /><polyline fill="none" points="199.5,98.35 199.14999999999998,99.75 200.2,100.8 200.2,103.94999999999999 198.45,105.69999999999999 199.14999999999998,106.05 198.45,107.44999999999999 196.0,109.55 196.0,110.6 198.45,113.05 199.5,118.99999999999999 197.75,120.05 194.95,120.74999999999999 194.6,120.05 193.54999999999998,120.05 192.14999999999998,117.94999999999999 192.85,119.69999999999999 194.95,120.74999999999999 193.2,121.8 191.45,121.44999999999999 191.45,124.24999999999999 192.14999999999998,121.8 198.1,120.05 199.5,118.99999999999999 198.45,112.69999999999999 196.0,110.6 196.0,109.89999999999999 199.14999999999998,106.75 199.14999999999998,105.35 200.2,103.94999999999999 200.2,100.44999999999999 199.14999999999998,99.75" stroke="#aaa" stroke-width="1" /><polyline fill="none" points="189.7,169.39999999999998 184.45,173.25 182.0,178.14999999999998 179.89999999999998,180.25 173.95,178.5 170.45,176.75 169.75,176.75 168.35,178.14999999999998 168.0,177.79999999999998 165.54999999999998,178.85 163.79999999999998,178.5 162.04999999999998,179.2 159.6,179.2 159.25,178.85 164.5,175.0 164.5,174.29999999999998 158.2,172.2 153.29999999999998,169.75 149.1,169.75 153.29999999999998,169.75 164.14999999999998,174.64999999999998 159.6,178.14999999999998 158.2,179.89999999999998 159.25,178.85 159.95,179.54999999999998 161.35,179.54999999999998 163.79999999999998,178.5 165.54999999999998,178.85 168.0,177.79999999999998 168.35,178.14999999999998 170.45,176.75 172.89999999999998,178.14999999999998 179.89999999999998,180.25 181.29999999999998,179.54999999999998 184.1,173.95" stroke="#aaa" stroke-width="1" /><polyline fill="none" points="84.69999999999999,25.9 79.8,22.75 74.89999999999999,21.349999999999998 62.3,19.599999999999998 53.55,21.7 49.0,24.15 48.65,24.849999999999998 46.55,24.849999999999998 47.949999999999996,23.799999999999997 42.699999999999996,26.599999999999998 42.349999999999994,25.9 45.849999999999994,23.099999999999998 47.599999999999994,22.4 50.4,22.4 51.449999999999996,21.7 50.05,22.4 47.25,22.4 45.5,23.099999999999998 40.25,27.65 36.75,29.4 34.3,32.199999999999996 32.199999999999996,35.699999999999996 29.749999999999996,43.75 28.7,50.05 28.7,56.699999999999996 27.299999999999997,63.699999999999996 28.0,74.19999999999999 30.099999999999998,77.69999999999999 32.55,83.64999999999999 34.65,86.8 35.349999999999994,89.25 35.349999999999994,91.35 34.3,93.8 32.199999999999996,96.25 30.45,96.6 30.45,97.3 33.949999999999996,96.6 36.4,93.44999999999999 37.099999999999994,94.14999999999999 36.75,95.19999999999999 37.449999999999996,96.6 39.199999999999996,94.85 39.55,95.19999999999999 38.849999999999994,96.6 39.9,93.8 38.849999999999994,89.6 38.15,89.6 37.449999999999996,91.69999999999999 33.599999999999994,96.6 31.849999999999998,97.3 30.45,96.94999999999999 31.15,96.25 32.9,95.89999999999999 34.3,94.14999999999999 35.349999999999994,91.35 35.349999999999994,89.25 34.65,86.44999999999999 32.55,83.3 29.4,75.94999999999999 28.0,74.19999999999999 27.299999999999997,68.6 27.299999999999997,63.699999999999996 28.7,56.699999999999996 28.7,50.05 29.749999999999996,43.75 32.55,36.05 33.25,36.75 32.9,38.15 34.65,34.65 37.099999999999994,31.499999999999996 37.449999999999996,31.849999999999998 37.099999999999994,31.15 38.849999999999994,29.4 37.099999999999994,30.799999999999997 33.25,36.4 32.199999999999996,35.699999999999996 34.3,32.55 37.099999999999994,29.4 39.55,28.349999999999998 41.65,26.599999999999998 43.05,26.599999999999998 45.849999999999994,24.849999999999998 46.9,25.2 46.199999999999996,25.9 52.849999999999994,22.049999999999997 58.099999999999994,20.299999999999997 62.99999999999999,19.599999999999998 66.85,19.95 70.0,21.0 74.89999999999999,21.349999999999998 81.19999999999999,23.799999999999997 84.35,25.9 92.39999999999999,32.9 96.6,38.15 100.44999999999999,44.099999999999994 100.44999999999999,44.8 103.25,47.949999999999996 103.25,49.349999999999994 103.94999999999999,49.699999999999996 103.25,51.099999999999994 103.94999999999999,50.4 103.94999999999999,49.349999999999994 103.25,49.0 103.94999999999999,48.3 106.05,50.75 100.44999999999999,44.449999999999996 97.3,38.849999999999994 93.1,33.25" stroke="#aaa" stroke-width="1" /><polyline fill="none" points="1.4,71.75 0.35,80.5 0.7,82.25 0.0,93.8 1.0499999999999998,72.44999999999999 2.0999999999999996,71.39999999999999 3.8499999999999996,71.05 16.099999999999998,71.75 16.799999999999997,72.44999999999999 14.0,116.19999999999999 14.7,116.55 17.5,115.85 19.25,116.89999999999999 23.45,116.89999999999999 26.25,118.64999999999999 28.349999999999998,120.74999999999999 31.849999999999998,126.69999999999999 31.849999999999998,127.74999999999999 35.349999999999994,134.39999999999998 38.5,142.45 38.5,141.39999999999998 37.449999999999996,140.0 35.0,133.35 33.25,130.2 33.599999999999994,129.5 32.9,129.5 31.849999999999998,126.35 28.349999999999998,120.39999999999999 25.2,117.6 23.45,116.89999999999999 21.7,117.24999999999999 17.5,115.85 14.0,115.85 16.799999999999997,72.1 5.25,71.05" stroke="#aaa" stroke-width="1" /><polyline fill="none" points="161.35,35.0 162.75,35.349999999999994 161.35,36.05 162.75,37.449999999999996 164.14999999999998,38.15 164.14999999999998,37.449999999999996 166.95,38.15 170.1,40.25 168.35,38.849999999999994 164.14999999999998,37.099999999999994 165.54999999999998,37.099999999999994 166.25,36.05 166.95,36.05 164.85,36.75 163.79999999999998,35.699999999999996" stroke="#aaa" stroke-width="1" /><polyline fill="none" points="101.85,194.6 100.8,195.64999999999998 100.44999999999999,195.29999999999998 99.75,197.39999999999998 88.89999999999999,211.75 87.5,212.79999999999998 88.19999999999999,212.79999999999998" stroke="#aaa" stroke-width="1" /><polyline fill="none" points="45.15,171.85 46.55,173.25 46.55,174.29999999999998 47.949999999999996,176.04999999999998 53.9,190.04999999999998 54.599999999999994,190.39999999999998 53.9,190.04999999999998 54.25,189.35 53.55,189.0 47.949999999999996,175.7 46.55,173.95 46.199999999999996,172.54999999999998" stroke="#aaa" stroke-width="1" /><polyline fill="none" points="198.1,88.19999999999999 199.5,88.89999999999999 198.79999999999998,90.3 200.54999999999998,92.39999999999999 201.95,90.3 204.39999999999998,89.6 205.1,90.3 204.39999999999998,91.35 204.75,92.05 202.64999999999998,93.1 205.79999999999998,92.39999999999999 204.39999999999998,91.69999999999999 205.79999999999998,90.64999999999999 205.1,90.3 205.79999999999998,89.94999999999999 205.1,87.85 205.45,89.6 204.04999999999998,89.6 203.0,90.3 200.54999999999998,90.3 199.5,89.25 200.2,88.19999999999999 202.29999999999998,87.5 202.29999999999998,86.8 201.25,86.44999999999999 200.89999999999998,86.8 201.25,86.44999999999999 202.29999999999998,87.14999999999999 200.89999999999998,88.19999999999999" stroke="#aaa" stroke-width="1" /><polyline fill="none" points="92.05,6.6499999999999995 91.35,15.399999999999999 90.3,18.549999999999997 90.64999999999999,22.75 93.44999999999999,23.799999999999997 100.8,23.799999999999997 101.5,24.5 106.75,24.15 107.44999999999999,24.849999999999998 107.1,24.5 108.14999999999999,24.15 108.85,24.849999999999998 113.05,25.2 121.44999999999999,24.849999999999998 113.05,25.2 108.85,24.849999999999998 108.14999999999999,24.15 101.5,24.5 100.8,23.799999999999997 96.94999999999999,24.15 91.35,23.099999999999998 90.3,21.7 90.3,18.549999999999997 91.35,15.399999999999999 91.69999999999999,8.049999999999999 92.75,6.6499999999999995 141.04999999999998,9.1 141.75,9.799999999999999 141.39999999999998,10.149999999999999 138.6,9.799999999999999 138.6,10.85 137.89999999999998,11.549999999999999 137.54999999999998,10.149999999999999 137.2,11.899999999999999 137.54999999999998,12.6 141.04999999999998,12.95 142.1,12.6 142.45,11.2 143.85,10.85 148.39999999999998,11.2 148.39999999999998,10.5 147.7,11.2 147.35,10.5 144.54999999999998,10.85 144.2,10.149999999999999 142.1,10.149999999999999 141.75,9.799999999999999 142.45,9.1 147.7,9.799999999999999 153.64999999999998,9.799999999999999 154.7,10.149999999999999 155.39999999999998,11.2 155.04999999999998,18.2 154.35,20.299999999999997 153.64999999999998,26.95 152.6,26.25 153.29999999999998,25.549999999999997 151.2,26.25 150.85,25.549999999999997 151.54999999999998,24.15 151.2,25.2 150.14999999999998,24.849999999999998 149.79999999999998,23.799999999999997 149.79999999999998,24.849999999999998 150.85,25.2 150.85,25.9 150.14999999999998,25.9 152.25,26.25 152.95,26.95 152.6,27.299999999999997 150.5,27.299999999999997 149.1,26.599999999999998 148.39999999999998,25.549999999999997 138.25,25.9 136.14999999999998,25.549999999999997 135.79999999999998,24.849999999999998 135.45,25.549999999999997 135.1,24.849999999999998 132.65,25.549999999999997 130.9,24.849999999999998 125.3,25.2 130.9,24.849999999999998 132.65,25.549999999999997 134.04999999999998,24.849999999999998 138.25,25.9 148.04999999999998,25.549999999999997 148.39999999999998,26.25 150.5,27.299999999999997 154.0,26.95 154.0,23.099999999999998 155.04999999999998,18.549999999999997 155.04999999999998,10.149999999999999" stroke="#aaa" stroke-width="1" /><polyline fill="none" points="185.14999999999998,48.65 185.5,49.699999999999996 184.45,51.449999999999996 183.04999999999998,52.5 182.7,54.599999999999994 183.04999999999998,52.849999999999994 184.45,51.8 186.2,49.0 187.6,50.75 187.25,51.099999999999994 187.6,50.75 189.35,52.15 187.6,53.9 188.64999999999998,54.949999999999996 189.35,57.74999999999999 190.39999999999998,57.4 191.1,58.099999999999994 191.1,59.15 192.14999999999998,59.849999999999994 191.79999999999998,60.55 193.54999999999998,62.65 193.89999999999998,64.39999999999999 195.64999999999998,64.05 195.64999999999998,62.99999999999999 196.0,63.699999999999996 194.95,64.39999999999999 193.54999999999998,63.699999999999996 193.54999999999998,62.3 191.79999999999998,60.199999999999996 192.14999999999998,59.49999999999999 191.1,58.8 190.75,57.4 189.7,57.74999999999999 189.0,56.699999999999996 189.7,55.65 190.39999999999998,56.349999999999994 187.6,53.9 189.0,53.199999999999996 189.7,50.4 189.35,50.05 189.35,51.8 188.64999999999998,51.099999999999994 189.0,50.75 188.29999999999998,51.099999999999994 186.2,49.0 185.5,49.349999999999994" stroke="#aaa" stroke-width="1" /><polyline fill="none" points="56.699999999999996,26.95 53.55,29.049999999999997 50.75,34.3 49.699999999999996,35.0 49.349999999999994,36.05 47.949999999999996,36.75 45.15,42.349999999999994 43.75,43.75 42.349999999999994,42.349999999999994 42.699999999999996,41.65 42.349999999999994,42.699999999999996 43.4,43.75 44.099999999999994,43.75 46.9,39.9 47.599999999999994,37.449999999999996 49.0,36.05 49.349999999999994,36.4 49.699999999999996,35.349999999999994 50.75,34.65 53.55,29.4 55.65,27.65 56.0,29.4 55.65,29.749999999999996 55.65,27.65" stroke="#aaa" stroke-width="1" /><polyline fill="none" points="196.7,59.849999999999994 199.5,61.949999999999996 199.85,62.65 199.14999999999998,63.349999999999994 200.54999999999998,66.14999999999999 200.2,67.89999999999999 200.89999999999998,68.94999999999999 202.64999999999998,69.64999999999999 204.04999999999998,73.14999999999999 205.45,74.55 206.14999999999998,77.35 207.2,78.05 205.45,75.6 205.1,73.5 203.35,71.75 203.35,70.35 201.95,68.6 201.6,69.3 200.2,67.89999999999999 200.54999999999998,66.14999999999999 199.14999999999998,63.349999999999994 199.85,62.65 201.6,65.45 203.0,66.85 203.7,66.5 198.79999999999998,61.24999999999999 199.5,60.9 198.79999999999998,61.24999999999999" stroke="#aaa" stroke-width="1" /><polyline fill="none" points="190.04999999999998,48.3 192.14999999999998,51.099999999999994 191.79999999999998,50.05 190.39999999999998,49.0 191.45,48.3 192.85,49.349999999999994 192.5,49.699999999999996 193.54999999999998,49.699999999999996 192.85,50.75 193.2,53.199999999999996 196.7,56.349999999999994 197.04999999999998,55.65 197.39999999999998,56.0 195.29999999999998,51.099999999999994 192.5,48.65 190.75,48.3 190.39999999999998,49.0" stroke="#aaa" stroke-width="1" /><polyline fill="none" points="36.05,172.54999999999998 37.099999999999994,173.25 37.099999999999994,174.29999999999998 38.849999999999994,177.79999999999998 38.5,178.5 40.25,180.95 39.9,181.29999999999998 40.599999999999994,182.0 40.599999999999994,183.39999999999998 42.0,185.85 41.65,186.54999999999998 42.349999999999994,186.89999999999998 43.05,188.64999999999998 42.699999999999996,189.0 44.449999999999996,192.14999999999998 44.449999999999996,193.89999999999998 51.8,207.89999999999998 51.449999999999996,208.25 52.849999999999994,212.1 51.8,207.89999999999998 48.65,201.6 47.949999999999996,201.25 46.9,197.75 44.449999999999996,193.54999999999998 44.449999999999996,191.79999999999998 43.4,190.39999999999998 40.25,180.95 38.5,178.14999999999998 38.849999999999994,177.79999999999998 37.099999999999994,173.25" stroke="#aaa" stroke-width="1" /><polyline fill="none" points="184.79999999999998,194.25 182.35,195.29999999999998 180.25,195.29999999999998 179.54999999999998,196.0 178.85,195.64999999999998 178.14999999999998,196.35 176.75,196.0 174.64999999999998,197.39999999999998 173.6,197.04999999999998 170.79999999999998,198.1 168.35,198.1 165.54999999999998,199.14999999999998 164.85,198.79999999999998 162.39999999999998,199.85 160.64999999999998,199.85 157.5,201.6 154.7,202.29999999999998 152.95,204.39999999999998 151.54999999999998,207.2 151.54999999999998,208.25 152.95,204.75 155.04999999999998,202.29999999999998 155.75,202.64999999999998 156.79999999999998,201.6 157.5,201.95 159.95,200.2 164.85,198.79999999999998 165.54999999999998,199.14999999999998 165.2,199.5 166.95,198.45 171.14999999999998,198.1 171.85,197.39999999999998 174.29999999999998,197.04999999999998 174.64999999999998,197.75 176.39999999999998,196.35 177.45,196.7 176.75,196.7 176.75,196.0 178.14999999999998,196.35 178.85,195.64999999999998 179.2,196.35 180.25,195.29999999999998 182.7,195.29999999999998" stroke="#aaa" stroke-width="1" /><polyline fill="none" points="142.45,14.35 143.85,14.35 144.89999999999998,12.95 146.29999999999998,14.0 147.0,13.649999999999999 149.1,14.35 149.1,13.649999999999999 150.14999999999998,13.299999999999999 149.45,13.299999999999999 148.39999999999998,14.35 148.04999999999998,12.6 144.89999999999998,11.899999999999999 144.2,12.6 143.14999999999998,12.6 144.89999999999998,12.95 143.14999999999998,14.35 142.45,14.0 142.45,13.299999999999999" stroke="#aaa" stroke-width="1" /><polyline fill="none" points="185.14999999999998,30.099999999999998 185.85,30.799999999999997 185.85,32.199999999999996 187.25,33.25 187.25,34.65 188.64999999999998,36.4 189.0,38.15 190.75,39.199999999999996 192.85,43.4 194.95,45.849999999999994 195.29999999999998,49.0 197.04999999999998,51.449999999999996 205.1,59.49999999999999 195.29999999999998,48.65 194.95,45.5 192.85,43.05 190.75,38.849999999999994 189.0,37.8 188.64999999999998,36.05 187.25,34.3 187.25,32.9 185.85,31.849999999999998 185.85,30.45" stroke="#aaa" stroke-width="1" /><polyline fill="none" points="87.85,213.5 83.64999999999999,218.04999999999998 83.64999999999999,218.75 80.5,222.6 78.75,223.64999999999998 80.5,222.95" stroke="#aaa" stroke-width="1" /></svg>