<?xml version="1.0" encoding="utf-8" ?>
<svg baseProfile="full" height="224" version="1.1" width="224" xmlns="http://www.w3.org/2000/svg" xmlns:ev="http://www.w3.org/2001/xml-events" xmlns:xlink="http://www.w3.org/1999/xlink"><defs /><polyline fill="none" points="102.19999999999999,127.74999999999999 102.19999999999999,128.79999999999998 114.8,128.45 118.64999999999999,130.9 119.35,130.2 118.3,128.79999999999998 114.1,126.35 105.69999999999999,125.64999999999999 103.25,126.35" stroke="#aaa" stroke-width="1" /><polyline fill="none" points="94.14999999999999,108.14999999999999 90.64999999999999,112.0 87.5,117.24999999999999 84.69999999999999,120.05 84.69999999999999,120.74999999999999 82.6,122.85 81.55,123.19999999999999 81.55,123.89999999999999 83.64999999999999,123.89999999999999 88.89999999999999,125.3 91.35,127.39999999999999 89.94999999999999,128.45 85.05,127.05 79.8,126.69999999999999 79.8,128.1 80.5,129.5 82.25,128.79999999999998 85.75,128.79999999999998 85.75,129.85 84.35,129.5 82.94999999999999,130.2 82.6,129.85 85.39999999999999,129.85 88.55,131.6 89.25,131.6 86.1,130.2 86.1,129.5 88.19999999999999,129.15 90.64999999999999,130.9 92.05,130.9 91.35,129.5 92.05,130.54999999999998 91.69999999999999,130.9 86.8,128.79999999999998 82.25,128.79999999999998 80.85,129.5 79.8,128.1 79.8,127.05 80.5,126.69999999999999 81.19999999999999,128.45 81.19999999999999,127.05 85.05,127.05 89.94999999999999,128.45 91.35,127.39999999999999 93.8,130.9 93.1,131.25 93.8,131.6 94.14999999999999,134.75 93.44999999999999,136.14999999999998 93.1,140.7 92.05,141.75 91.0,144.89999999999998 89.25,146.29999999999998 90.64999999999999,145.25 92.05,147.35 94.14999999999999,148.04999999999998 95.19999999999999,149.45 95.89999999999999,149.45 95.19999999999999,149.45 94.5,148.04999999999998 92.39999999999999,147.35 91.0,145.25 91.0,144.2 93.1,141.04999999999998 93.44999999999999,136.5 94.14999999999999,134.75 93.8,130.54999999999998 89.94999999999999,125.64999999999999 81.55,123.55 84.69999999999999,121.1 84.69999999999999,120.39999999999999 87.5,117.6 88.55,115.14999999999999 94.5,108.14999999999999 97.64999999999999,107.1 98.0,107.44999999999999 99.05,106.75 100.44999999999999,107.1 101.14999999999999,106.39999999999999 108.14999999999999,107.1 110.94999999999999,108.5 113.74999999999999,112.0 113.39999999999999,113.05 113.74999999999999,114.44999999999999 114.44999999999999,114.8 114.1,115.85 114.8,115.85 116.19999999999999,114.44999999999999 118.64999999999999,117.6 119.35,119.69999999999999 118.99999999999999,120.05 119.69999999999999,119.69999999999999 120.74999999999999,121.1 120.39999999999999,121.8 119.69999999999999,121.44999999999999 121.44999999999999,123.55 121.1,123.89999999999999 122.14999999999999,125.64999999999999 121.8,125.99999999999999 122.85,128.45 122.49999999999999,128.79999999999998 123.19999999999999,132.65 123.89999999999999,133.7 123.19999999999999,137.2 123.19999999999999,145.25 122.85,147.35 122.14999999999999,148.04999999999998 122.14999999999999,155.04999999999998 121.44999999999999,155.75 121.44999999999999,157.85 120.74999999999999,158.54999999999998 119.69999999999999,162.04999999999998 117.24999999999999,164.14999999999998 116.89999999999999,165.2 119.69999999999999,162.39999999999998 120.05,160.64999999999998 120.74999999999999,159.95 120.74999999999999,158.54999999999998 121.44999999999999,157.85 121.44999999999999,155.75 122.14999999999999,155.04999999999998 122.14999999999999,148.39999999999998 122.85,147.7 123.55,142.1 123.19999999999999,137.2 123.89999999999999,133.7 123.19999999999999,132.65 122.14999999999999,125.64999999999999 120.39999999999999,121.8 120.74999999999999,120.74999999999999 118.99999999999999,118.99999999999999 118.64999999999999,117.24999999999999 115.49999999999999,113.05 113.39999999999999,112.69999999999999 114.1,112.0 113.05,110.25 111.3,108.5 108.5,107.1 101.14999999999999,106.39999999999999 100.1,107.1 99.05,106.75 98.0,107.44999999999999 97.64999999999999,107.1" stroke="#aaa" stroke-width="1" /><polyline fill="none" points="133.0,109.19999999999999 130.9,107.1 130.54999999999998,103.25 131.25,102.55 131.6,100.44999999999999 131.25,98.69999999999999 127.74999999999999,95.19999999999999 123.19999999999999,93.1 121.44999999999999,91.0 117.6,90.3 115.49999999999999,88.55 112.35,88.89999999999999 108.14999999999999,86.8 103.6,87.14999999999999 101.85,85.05 99.05,84.69999999999999 96.25,85.39999999999999 94.5,87.14999999999999 89.6,86.44999999999999 89.25,86.8 89.6,86.44999999999999 90.3,87.14999999999999 89.6,87.85 84.35,89.25 81.55,92.39999999999999 78.05,94.14999999999999 76.3,95.89999999999999 75.6,95.89999999999999 71.75,100.44999999999999 72.1,101.5 71.05,102.55 70.69999999999999,104.3 71.39999999999999,106.05 70.35,110.25 68.94999999999999,112.0 67.19999999999999,112.35 68.6,112.35 69.64999999999999,110.94999999999999 70.69999999999999,110.6 70.35,109.55 71.39999999999999,109.19999999999999 70.69999999999999,108.85 71.39999999999999,106.39999999999999 70.69999999999999,104.3 71.05,102.89999999999999 72.8,101.5 72.1,100.44999999999999 75.94999999999999,95.89999999999999 81.89999999999999,92.39999999999999 82.94999999999999,90.64999999999999 84.69999999999999,89.25 89.25,87.85 92.75,87.85 90.64999999999999,87.85 90.64999999999999,86.8 94.85,87.14999999999999 96.6,85.39999999999999 99.05,84.69999999999999 101.5,85.05 103.25,87.14999999999999 108.14999999999999,86.8 112.35,88.89999999999999 115.14999999999999,88.55 115.49999999999999,89.25 116.55,89.25 117.24999999999999,90.3 120.74999999999999,90.64999999999999 122.85,93.1 127.39999999999999,95.19999999999999 131.25,99.05 131.6,100.44999999999999 130.54999999999998,103.25 130.9,107.44999999999999 131.6,108.5" stroke="#aaa" stroke-width="1" /><polyline fill="none" points="105.69999999999999,133.7 107.8,134.75 106.39999999999999,135.1 113.39999999999999,134.75 112.35,134.39999999999998 111.64999999999999,135.1 108.14999999999999,135.1 107.44999999999999,134.39999999999998 107.44999999999999,133.0" stroke="#aaa" stroke-width="1" /><polyline fill="none" points="131.25,138.6 130.54999999999998,138.6 129.5,140.0 130.9,141.39999999999998 130.9,142.1 130.54999999999998,140.7 131.6,139.64999999999998" stroke="#aaa" stroke-width="1" /><polyline fill="none" points="132.29999999999998,109.89999999999999 132.65,110.94999999999999 131.6,112.0 131.6,114.1 136.14999999999998,122.14999999999999 137.89999999999998,127.74999999999999 138.6,128.45 138.6,129.85 139.64999999999998,130.54999999999998 141.75,134.04999999999998 144.89999999999998,137.2 146.29999999999998,137.89999999999998 146.29999999999998,138.6 147.7,140.0 147.35,140.7 150.5,145.6 151.54999999999998,146.64999999999998 152.6,146.64999999999998 151.89999999999998,146.64999999999998 150.5,145.25 147.35,140.35 148.04999999999998,140.0 147.0,139.29999999999998 146.29999999999998,137.54999999999998 144.89999999999998,136.85 145.25,136.14999999999998 144.89999999999998,136.5 143.14999999999998,135.1 139.64999999999998,130.2 138.6,129.5 138.6,128.1 137.89999999999998,127.39999999999999 135.79999999999998,121.1 131.6,114.1 131.6,112.35 132.65,111.3 132.29999999999998,110.25 133.0,109.89999999999999" stroke="#aaa" stroke-width="1" /><polyline fill="none" points="129.15,140.7 128.45,141.75 128.79999999999998,142.45 127.74999999999999,143.5 125.3,143.5 123.89999999999999,148.39999999999998 124.94999999999999,144.2 125.99999999999999,143.14999999999998 127.74999999999999,143.5 129.15,142.79999999999998 130.2,143.85 127.39999999999999,148.39999999999998 127.05,146.64999999999998 127.74999999999999,146.29999999999998 127.05,145.6 127.74999999999999,144.2 127.39999999999999,144.89999999999998 125.99999999999999,144.89999999999998 125.99999999999999,147.35 127.05,147.7 123.55,149.45 123.55,151.54999999999998 123.55,149.79999999999998 124.24999999999999,149.1 125.3,149.79999999999998 126.69999999999999,149.79999999999998 129.5,145.6 130.2,143.85 129.15,142.79999999999998 129.5,141.75 129.15,142.79999999999998 128.45,142.1" stroke="#aaa" stroke-width="1" /><polyline fill="none" points="87.5,144.89999999999998 88.55,147.0 91.0,148.04999999999998 92.39999999999999,149.45 94.5,150.14999999999998 97.64999999999999,150.14999999999998 98.35,148.75 102.19999999999999,148.75 103.25,148.04999999999998 96.94999999999999,148.04999999999998 101.14999999999999,148.04999999999998 98.35,148.75 97.64999999999999,149.45 96.94999999999999,148.75 97.64999999999999,149.45 97.3,150.14999999999998 94.5,150.14999999999998 92.75,149.45 91.35,148.04999999999998 90.3,148.04999999999998 88.19999999999999,146.29999999999998 88.55,145.6 88.19999999999999,146.29999999999998 87.5,145.25 88.19999999999999,143.85 90.64999999999999,141.75 90.64999999999999,140.35 90.64999999999999,141.39999999999998 88.19999999999999,143.5" stroke="#aaa" stroke-width="1" /><polyline fill="none" points="126.35,150.5 124.94999999999999,150.85 124.24999999999999,152.25 124.6,153.64999999999998 126.69999999999999,151.54999999999998" stroke="#aaa" stroke-width="1" /><polyline fill="none" points="86.44999999999999,145.6 82.94999999999999,147.35 80.5,149.79999999999998 79.8,152.25 80.14999999999999,151.54999999999998 80.85,152.25 81.55,150.85 82.25,152.6 82.25,149.45 85.75,147.0" stroke="#aaa" stroke-width="1" /><polyline fill="none" points="82.94999999999999,153.29999999999998 84.35,154.35 84.35,156.1 86.8,158.89999999999998 86.8,159.6 88.19999999999999,160.64999999999998 87.85,161.0 88.55,160.64999999999998 89.94999999999999,161.7 92.75,162.39999999999998 97.3,162.39999999999998 101.5,161.35 106.39999999999999,158.54999999999998 109.55,155.75 110.25,155.75 109.19999999999999,155.75 106.39999999999999,157.85 105.35,156.45 102.55,155.75 98.69999999999999,156.1 87.85,154.7 88.19999999999999,157.14999999999998 92.05,159.25 100.44999999999999,159.6 104.64999999999999,158.2 105.69999999999999,157.14999999999998 106.39999999999999,157.85 106.05,158.54999999999998 101.5,161.35 97.3,162.39999999999998 92.75,162.39999999999998 89.6,161.35 86.8,159.25 86.8,158.54999999999998 85.05,156.45 85.39999999999999,155.75 83.3,152.95 84.0,152.25 89.6,152.25 94.5,153.64999999999998 99.05,153.29999999999998 103.6,154.35 109.89999999999999,154.7 103.6,154.35 99.05,153.29999999999998 94.5,153.64999999999998 89.6,152.25 83.64999999999999,152.25" stroke="#aaa" stroke-width="1" /><polyline fill="none" points="79.44999999999999,136.5 78.39999999999999,137.54999999999998 78.05,140.7 77.35,141.75 77.69999999999999,143.14999999999998 77.0,143.85 77.35,147.35 78.39999999999999,150.14999999999998 78.75,155.39999999999998 80.14999999999999,158.89999999999998 81.55,159.95 82.94999999999999,163.45 88.19999999999999,171.14999999999998 93.44999999999999,173.6 99.05,173.6 102.19999999999999,172.54999999999998 103.94999999999999,172.54999999999998 107.1,169.75 107.8,170.1 107.1,169.39999999999998 103.94999999999999,172.54999999999998 103.25,172.2 99.05,173.6 93.44999999999999,173.6 91.35,172.89999999999998 88.19999999999999,170.79999999999998 82.94999999999999,163.1 81.55,159.6 79.8,158.2 79.8,157.14999999999998 78.75,155.39999999999998 78.05,148.04999999999998 77.35,147.35 77.0,144.54999999999998 77.69999999999999,143.14999999999998 77.35,141.75 78.05,140.7 78.39999999999999,137.89999999999998 79.8,136.5 82.25,135.79999999999998 83.64999999999999,134.39999999999998 86.1,135.1 87.14999999999999,134.75 86.1,135.1 83.3,134.39999999999998 81.55,136.14999999999998" stroke="#aaa" stroke-width="1" /><polyline fill="none" points="55.3,88.19999999999999 55.3,91.35 54.25,93.8 54.25,95.19999999999999 53.55,95.19999999999999 53.55,93.8 53.9,96.25 52.849999999999994,97.64999999999999 52.15,96.94999999999999 52.849999999999994,97.64999999999999 51.8,98.69999999999999 51.099999999999994,98.0 51.449999999999996,95.19999999999999 52.849999999999994,94.14999999999999 52.15,93.8 52.5,94.14999999999999 51.449999999999996,95.19999999999999 51.449999999999996,98.69999999999999 48.3,108.14999999999999 46.199999999999996,111.3 41.3,116.19999999999999 40.25,119.69999999999999 51.099999999999994,134.75 59.49999999999999,141.39999999999998 60.199999999999996,141.39999999999998 60.9,139.29999999999998 62.3,137.54999999999998 61.949999999999996,136.14999999999998 62.65,135.79999999999998 64.05,125.3 64.75,124.6 64.05,124.24999999999999 65.1,122.85 64.75,122.14999999999999 67.19999999999999,117.24999999999999 65.1,116.19999999999999 62.99999999999999,116.55 66.5,116.55 67.19999999999999,117.24999999999999 64.05,123.89999999999999 64.39999999999999,124.94999999999999 63.699999999999996,127.05 62.99999999999999,134.39999999999998 61.949999999999996,136.14999999999998 62.3,137.2 59.849999999999994,141.39999999999998 51.099999999999994,134.39999999999998 40.25,119.69999999999999 40.949999999999996,116.89999999999999 46.199999999999996,111.64999999999999 47.599999999999994,109.55 50.05,103.6 50.75,99.75 53.55,97.3 55.3,91.35" stroke="#aaa" stroke-width="1" /><polyline fill="none" points="120.39999999999999,166.6 119.35,167.64999999999998 118.3,167.29999999999998 116.89999999999999,170.1 115.85,169.39999999999998 116.19999999999999,168.35 115.49999999999999,169.75 112.0,172.89999999999998 109.89999999999999,175.7 109.19999999999999,175.35 108.14999999999999,176.04999999999998 110.25,175.7 110.6,174.64999999999998 111.64999999999999,174.29999999999998 112.0,173.25 115.85,169.39999999999998 116.19999999999999,170.1 116.89999999999999,170.1 118.3,168.0 118.3,170.45 118.99999999999999,170.45 118.3,170.1 118.3,169.04999999999998" stroke="#aaa" stroke-width="1" /><polyline fill="none" points="58.099999999999994,141.04999999999998 57.74999999999999,142.1 58.449999999999996,143.85 57.74999999999999,143.85 58.8,145.95 58.449999999999996,146.29999999999998 58.8,144.89999999999998 59.49999999999999,144.89999999999998 59.49999999999999,146.29999999999998 60.199999999999996,146.29999999999998 59.49999999999999,144.89999999999998 59.849999999999994,143.85 59.15,143.85" stroke="#aaa" stroke-width="1" /><polyline fill="none" points="78.39999999999999,157.85 78.39999999999999,158.89999999999998 80.14999999999999,162.39999999999998 88.55,172.89999999999998 88.19999999999999,174.64999999999998 88.89999999999999,175.0 89.6,177.79999999999998 91.0,179.89999999999998 91.69999999999999,183.39999999999998 91.0,179.89999999999998 89.6,177.79999999999998 88.89999999999999,174.64999999999998 88.19999999999999,174.29999999999998 88.19999999999999,173.25 89.25,173.25 86.44999999999999,170.45 80.14999999999999,162.04999999999998" stroke="#aaa" stroke-width="1" /><polyline fill="none" points="45.849999999999994,34.3 46.55,37.099999999999994 47.25,36.05 48.65,37.099999999999994 49.349999999999994,36.75 52.5,40.599999999999994 53.55,40.949999999999996 54.25,43.4 54.949999999999996,41.65 56.349999999999994,43.4 56.699999999999996,49.0 57.4,51.449999999999996 56.699999999999996,54.949999999999996 57.05,52.15 57.4,51.8 58.099999999999994,52.5 57.4,55.65 57.74999999999999,58.449999999999996 58.449999999999996,59.15 57.74999999999999,64.05 57.74999999999999,72.44999999999999 55.65,80.5 56.699999999999996,81.55 56.349999999999994,82.25 56.699999999999996,81.19999999999999 56.0,80.85 56.0,79.44999999999999 58.099999999999994,69.64999999999999 57.74999999999999,64.05 58.099999999999994,62.3 58.8,61.599999999999994 173.95,61.599999999999994 174.64999999999998,63.349999999999994 174.29999999999998,67.89999999999999 174.64999999999998,66.5 175.35,68.94999999999999 174.64999999999998,70.0 174.64999999999998,73.85 174.64999999999998,71.39999999999999 175.35,71.39999999999999 175.35,72.44999999999999 174.64999999999998,70.35 175.35,68.94999999999999 174.29999999999998,61.599999999999994 58.8,61.599999999999994 58.099999999999994,60.55 58.449999999999996,59.15 57.74999999999999,58.099999999999994 57.4,55.65 58.449999999999996,50.05 58.449999999999996,51.449999999999996 57.74999999999999,52.15 57.05,51.099999999999994 56.0,42.349999999999994 54.949999999999996,41.3 54.25,42.699999999999996 53.55,42.0 53.55,40.599999999999994 51.8,39.199999999999996 52.849999999999994,38.15 51.8,38.849999999999994 49.349999999999994,36.4 50.05,35.349999999999994 49.349999999999994,36.05 47.949999999999996,35.349999999999994 47.25,35.699999999999996 46.199999999999996,35.349999999999994" stroke="#aaa" stroke-width="1" /><polyline fill="none" points="57.74999999999999,146.29999999999998 56.699999999999996,146.64999999999998 56.699999999999996,147.35 57.4,146.64999999999998 58.099999999999994,148.75 57.05,149.1 57.05,148.04999999999998 56.699999999999996,148.75 56.349999999999994,148.04999999999998 56.0,148.75 57.05,149.1 56.349999999999994,149.79999999999998 56.0,149.45 56.349999999999994,150.85 56.0,151.2 55.65,150.14999999999998 55.3,151.2 56.349999999999994,152.6 56.0,151.2 56.349999999999994,150.14999999999998 57.05,150.14999999999998 57.4,154.0 57.05,154.35 56.699999999999996,153.64999999999998 56.0,154.7 56.699999999999996,154.0 56.699999999999996,154.7 57.05,154.35 58.099999999999994,155.39999999999998 57.05,154.35 58.8,154.0 58.099999999999994,153.64999999999998 58.8,152.25 59.49999999999999,153.29999999999998 59.49999999999999,154.0 59.15,152.25 58.099999999999994,151.89999999999998 59.15,151.54999999999998 58.449999999999996,150.5" stroke="#aaa" stroke-width="1" /><polyline fill="none" points="117.24999999999999,173.95 117.94999999999999,174.64999999999998 117.24999999999999,175.0 117.24999999999999,176.39999999999998 115.85,177.45 115.85,178.5 112.69999999999999,181.29999999999998 109.55,183.04999999999998 109.55,183.75 110.6,183.75 112.0,182.7 112.35,184.1 111.64999999999999,184.79999999999998 112.35,184.45 112.0,182.7 110.25,182.7 113.05,181.29999999999998 115.85,178.85 116.19999999999999,177.45 117.24999999999999,176.75 117.24999999999999,175.7 117.94999999999999,175.0" stroke="#aaa" stroke-width="1" /><polyline fill="none" points="50.05,95.89999999999999 46.9,97.3 49.0,96.6 49.699999999999996,96.94999999999999 48.3,98.35 48.65,99.05 47.949999999999996,99.39999999999999 48.65,104.3 46.55,107.1 46.55,107.8 45.15,109.19999999999999 44.8,108.85 45.849999999999994,107.1 46.199999999999996,104.64999999999999 47.599999999999994,103.25 47.25,101.5 46.199999999999996,101.14999999999999 47.25,99.39999999999999 46.9,99.75 46.199999999999996,99.05 47.599999999999994,98.0 46.199999999999996,98.69999999999999 46.199999999999996,99.39999999999999 46.9,99.75 44.8,104.3 40.599999999999994,108.5 39.9,111.3 39.199999999999996,112.0 38.849999999999994,111.64999999999999 38.849999999999994,113.05 37.8,113.39999999999999 36.05,115.85 35.0,115.85 34.65,115.14999999999999 34.3,117.94999999999999 34.65,116.19999999999999 36.4,115.85 38.15,113.39999999999999 38.15,115.49999999999999 38.849999999999994,112.69999999999999 40.599999999999994,109.89999999999999 40.599999999999994,108.85 42.349999999999994,107.1 43.05,107.8 44.8,106.05 43.4,107.44999999999999 42.349999999999994,107.1 44.099999999999994,105.69999999999999 45.5,103.25 45.849999999999994,103.94999999999999 45.5,102.55 46.199999999999996,101.14999999999999 46.55,102.55 46.9,101.5 47.599999999999994,103.25 46.199999999999996,104.64999999999999 45.849999999999994,106.75 44.8,108.85 44.099999999999994,109.19999999999999 43.75,110.94999999999999 41.65,112.35 41.3,113.39999999999999 40.599999999999994,113.39999999999999 41.3,114.1 39.199999999999996,116.19999999999999 38.849999999999994,115.49999999999999 38.849999999999994,116.55 37.8,116.55 35.0,118.64999999999999 33.25,118.64999999999999 31.849999999999998,119.35 34.65,118.64999999999999 35.0,118.99999999999999 33.949999999999996,120.39999999999999 31.849999999999998,120.39999999999999 32.55,120.74999999999999 32.199999999999996,121.44999999999999 28.7,122.49999999999999 30.099999999999998,122.49999999999999 30.799999999999997,121.8 32.55,121.44999999999999 32.9,120.39999999999999 34.3,120.39999999999999 36.4,117.6 37.099999999999994,117.6 38.15,116.55 38.849999999999994,116.89999999999999 41.3,114.44999999999999 41.3,113.74999999999999 42.699999999999996,113.05 42.349999999999994,112.35 43.75,111.3 44.099999999999994,109.55 45.5,109.19999999999999 46.55,108.14999999999999 46.55,107.44999999999999 48.65,104.64999999999999 48.65,101.5 47.949999999999996,101.14999999999999 47.949999999999996,99.75 48.65,99.75 48.3,98.35 49.699999999999996,97.3 49.349999999999994,96.6" stroke="#aaa" stroke-width="1" /><polyline fill="none" points="176.04999999999998,89.94999999999999 175.7,99.75 176.39999999999998,100.8 176.39999999999998,111.64999999999999 177.1,114.44999999999999 176.75,118.99999999999999 177.45,120.05 176.75,120.74999999999999 177.45,120.74999999999999 177.1,124.24999999999999 177.79999999999998,125.3 177.1,126.69999999999999 177.79999999999998,128.1 177.79999999999998,135.79999999999998 178.5,139.64999999999998 178.14999999999998,142.45 178.85,144.89999999999998 178.14999999999998,147.0 178.85,148.39999999999998 178.85,158.54999999999998 179.54999999999998,162.04999999999998 179.89999999999998,182.7 179.54999999999998,183.04999999999998 178.14999999999998,181.64999999999998 177.79999999999998,179.89999999999998 175.7,177.79999999999998 176.39999999999998,177.1 175.35,176.39999999999998 175.0,175.0 171.85,171.5 171.5,170.45 168.35,168.35 167.29999999999998,166.25 166.25,165.54999999999998 166.6,165.2 166.25,165.54999999999998 161.35,159.6 162.39999999999998,158.89999999999998 165.2,161.35 165.54999999999998,162.75 166.6,163.1 166.25,163.45 167.64999999999998,163.45 165.89999999999998,162.75 164.5,160.29999999999998 161.0,158.2 157.85,154.7 158.54999999999998,154.0 159.25,154.35 158.89999999999998,154.7 159.25,154.0 156.79999999999998,153.29999999999998 151.89999999999998,147.7 152.25,147.35 151.54999999999998,148.04999999999998 154.35,150.5 156.45,153.29999999999998 158.2,154.0 157.85,154.7 157.14999999999998,154.7 161.35,158.54999999999998 161.0,159.6 165.54999999999998,165.2 167.29999999999998,166.6 168.35,168.7 171.5,170.79999999999998 171.85,171.85 175.0,175.35 175.7,178.14999999999998 177.1,179.54999999999998 177.1,180.95 179.2,183.04999999999998 179.89999999999998,183.04999999999998 179.54999999999998,162.04999999999998 178.85,158.54999999999998 178.85,148.39999999999998 178.14999999999998,147.0 178.85,144.89999999999998 178.14999999999998,142.45 178.5,139.64999999999998 177.79999999999998,135.79999999999998 177.79999999999998,128.1 177.1,126.69999999999999 177.79999999999998,125.3 177.1,124.24999999999999 177.1,120.39999999999999 177.79999999999998,120.05 176.75,118.99999999999999 177.1,114.44999999999999 176.39999999999998,111.64999999999999 176.39999999999998,100.8 175.7,99.75" stroke="#aaa" stroke-width="1" /><polyline fill="none" points="57.74999999999999,156.79999999999998 59.15,156.79999999999998 59.49999999999999,157.5 58.099999999999994,157.85 57.74999999999999,158.54999999999998 57.4,157.85 57.4,158.89999999999998 56.699999999999996,158.89999999999998 57.05,159.25 56.349999999999994,159.95 58.449999999999996,160.29999999999998 57.74999999999999,160.64999999999998 58.099999999999994,162.75 58.449999999999996,162.04999999999998 58.8,163.1 58.099999999999994,163.45 58.8,165.89999999999998 58.099999999999994,166.25 59.15,166.6 59.49999999999999,167.64999999999998 59.49999999999999,166.6 58.449999999999996,166.25 59.15,165.89999999999998 59.15,164.85 59.15,165.54999999999998 58.449999999999996,165.54999999999998 58.8,163.1 60.55,163.1 59.49999999999999,163.45 60.55,163.79999999999998 59.849999999999994,164.14999999999998 59.849999999999994,165.54999999999998 60.55,165.54999999999998 61.599999999999994,164.5 62.3,161.7 61.949999999999996,163.1 61.24999999999999,162.39999999999998 61.599999999999994,164.14999999999998 60.9,164.85 60.55,164.5 60.199999999999996,161.35 59.849999999999994,162.04999999999998 59.15,161.0 60.199999999999996,160.64999999999998 59.49999999999999,158.89999999999998 59.849999999999994,158.54999999999998 60.55,158.89999999999998 60.55,159.95 61.24999999999999,159.95 61.24999999999999,159.25 60.9,159.95 60.55,159.6 61.24999999999999,158.2 60.55,158.54999999999998 60.55,157.85 59.49999999999999,156.79999999999998" stroke="#aaa" stroke-width="1" /><polyline fill="none" points="36.4,89.25 36.4,89.94999999999999 37.8,89.94999999999999 38.849999999999994,91.69999999999999 38.15,94.14999999999999 36.75,95.55 34.65,96.25 36.4,95.55 37.099999999999994,95.89999999999999 35.699999999999996,96.94999999999999 34.65,96.94999999999999 36.75,96.25 38.849999999999994,96.6 41.65,99.75 42.349999999999994,99.05 43.4,100.8 42.699999999999996,99.05 43.05,98.69999999999999 42.0,98.69999999999999 42.349999999999994,97.64999999999999 41.65,96.25 38.5,92.39999999999999 39.199999999999996,91.69999999999999 42.0,94.85 43.05,97.64999999999999 44.8,100.1 43.05,96.94999999999999 45.5,96.6 43.05,96.6 42.0,95.55 42.349999999999994,94.85 40.949999999999996,93.8 40.949999999999996,93.1 37.449999999999996,89.6 36.75,89.94999999999999" stroke="#aaa" stroke-width="1" /><polyline fill="none" points="108.85,172.89999999999998 108.14999999999999,173.6 103.94999999999999,174.64999999999998 103.25,175.35 97.3,175.7 95.89999999999999,177.1 96.94999999999999,180.25 97.64999999999999,180.6 98.35,182.7 99.75,184.1 99.05,184.45 99.05,186.2 99.75,187.6 98.69999999999999,188.29999999999998 96.6,185.14999999999998 95.55,185.14999999999998 95.55,186.89999999999998 97.64999999999999,189.7 98.35,192.85 101.5,198.45 101.5,200.2 102.19999999999999,200.54999999999998 103.25,203.7 102.89999999999999,204.75 103.25,204.39999999999998 104.64999999999999,205.79999999999998 103.94999999999999,206.14999999999998 104.64999999999999,205.45 103.6,204.75 102.55,202.64999999999998 102.89999999999999,202.29999999999998 101.5,198.1 100.44999999999999,196.7 100.8,196.0 99.05,193.89999999999998 97.64999999999999,189.7 95.55,186.89999999999998 95.55,185.5 96.25,185.14999999999998 98.35,187.6 98.0,187.95 98.69999999999999,188.64999999999998 98.69999999999999,189.7 99.75,190.75 100.44999999999999,190.39999999999998 100.44999999999999,189.35 99.39999999999999,188.29999999999998 99.75,186.89999999999998 99.05,185.85 99.75,183.75 98.35,182.35 97.64999999999999,180.25 96.6,179.54999999999998 95.89999999999999,177.45 97.64999999999999,175.7 103.25,175.35 106.05,173.95 107.44999999999999,174.64999999999998 106.39999999999999,174.29999999999998 108.5,173.25 108.85,174.29999999999998 109.19999999999999,173.95 109.89999999999999,174.64999999999998 108.5,173.25" stroke="#aaa" stroke-width="1" /><polyline fill="none" points="52.5,77.69999999999999 51.8,76.64999999999999 48.65,74.55 46.55,74.89999999999999 42.349999999999994,74.19999999999999 38.849999999999994,74.89999999999999 37.449999999999996,76.64999999999999 37.8,78.05 36.4,79.44999999999999 35.0,82.25 35.349999999999994,83.3 34.3,83.64999999999999 34.65,86.1 36.05,86.8 34.65,85.75 34.3,84.35 35.0,83.64999999999999 35.699999999999996,84.0 35.699999999999996,85.05 36.4,85.75 35.0,82.6 36.4,80.14999999999999 37.099999999999994,80.5 36.4,81.19999999999999 37.449999999999996,81.19999999999999 37.099999999999994,81.89999999999999 38.15,81.89999999999999 39.55,82.94999999999999 39.9,82.6 39.55,82.94999999999999 38.15,81.89999999999999 39.55,80.85 40.599999999999994,82.25 43.75,83.3 48.65,82.94999999999999 43.75,83.3 40.949999999999996,82.25 40.25,80.85 39.199999999999996,80.85 38.15,81.89999999999999 37.099999999999994,81.55 38.15,80.85 37.449999999999996,81.19999999999999 36.4,79.8 37.8,78.39999999999999 37.8,76.3 38.5,75.6 38.849999999999994,76.3 38.5,75.6 39.9,74.55 42.349999999999994,74.19999999999999 49.349999999999994,74.89999999999999 52.5,78.05 51.8,79.1 49.699999999999996,76.64999999999999 45.849999999999994,76.3 44.099999999999994,77.0 40.599999999999994,77.0 39.55,76.3 40.599999999999994,75.25 39.55,75.94999999999999 39.55,76.64999999999999 49.349999999999994,76.64999999999999 51.449999999999996,79.1 52.5,79.44999999999999 52.5,81.19999999999999" stroke="#aaa" stroke-width="1" /><polyline fill="none" points="133.0,188.64999999999998 131.6,189.0 130.9,190.39999999999998 130.9,192.5 131.95,192.5 133.7,191.45 132.29999999999998,191.45 133.35,190.04999999999998" stroke="#aaa" stroke-width="1" /><polyline fill="none" points="18.549999999999997,100.1 19.95,101.85 19.95,102.89999999999999 21.349999999999998,103.94999999999999 19.95,102.55 20.299999999999997,101.85 22.049999999999997,103.25 22.049999999999997,103.94999999999999 23.799999999999997,103.6 24.5,104.3 23.799999999999997,104.64999999999999 25.2,105.0 24.5,105.0 24.5,104.3 25.549999999999997,104.3 26.599999999999998,105.0 29.049999999999997,105.35 35.0,105.35 36.05,104.3 37.449999999999996,103.94999999999999 37.8,102.89999999999999 36.05,102.89999999999999 36.05,101.5 35.0,101.85 34.3,101.14999999999999 29.749999999999996,101.85 29.049999999999997,101.14999999999999 26.95,100.8 23.45,99.05 22.049999999999997,99.39999999999999 22.049999999999997,102.55 21.349999999999998,102.89999999999999 21.349999999999998,100.44999999999999 21.349999999999998,101.14999999999999 19.95,101.85 19.25,100.8 19.599999999999998,100.44999999999999 18.9,100.44999999999999 19.25,99.39999999999999" stroke="#aaa" stroke-width="1" /><polyline fill="none" points="14.35,114.8 15.749999999999998,116.55 16.799999999999997,116.55 18.549999999999997,118.64999999999999 22.75,121.1 28.7,121.8 31.15,120.39999999999999 28.349999999999998,120.39999999999999 28.0,119.69999999999999 27.65,120.39999999999999 24.849999999999998,120.39999999999999 30.099999999999998,120.05 30.45,120.74999999999999 29.749999999999996,121.44999999999999 24.15,121.44999999999999 20.299999999999997,119.69999999999999 19.599999999999998,118.64999999999999 19.599999999999998,117.24999999999999 19.95,117.6 19.25,117.94999999999999 19.25,118.99999999999999 16.099999999999998,115.49999999999999 16.099999999999998,116.55" stroke="#aaa" stroke-width="1" /><polyline fill="none" points="37.449999999999996,91.35 37.099999999999994,93.8 36.05,93.44999999999999 35.699999999999996,94.14999999999999 33.949999999999996,94.14999999999999 33.599999999999994,93.1 33.949999999999996,94.14999999999999 32.199999999999996,96.25 29.749999999999996,96.25 28.0,92.39999999999999 27.299999999999997,93.1 28.0,92.39999999999999 28.349999999999998,92.75 28.0,93.44999999999999 29.049999999999997,94.5 28.7,95.55 27.299999999999997,93.8 26.599999999999998,93.8 24.15,91.69999999999999 24.849999999999998,91.0 24.849999999999998,88.89999999999999 24.15,88.55 24.849999999999998,87.85 23.799999999999997,88.55 23.099999999999998,89.94999999999999 22.4,89.25 15.749999999999998,93.8 14.0,95.89999999999999 13.299999999999999,98.69999999999999 14.0,99.39999999999999 16.45,99.05 19.25,102.89999999999999 19.25,102.19999999999999 16.799999999999997,99.05 14.35,99.39999999999999 13.299999999999999,98.35 13.649999999999999,96.6 15.049999999999999,95.19999999999999 16.099999999999998,96.25 15.049999999999999,95.19999999999999 16.099999999999998,93.8 17.849999999999998,94.85 17.15,95.55 16.45,94.85 17.15,95.89999999999999 19.599999999999998,93.44999999999999 20.299999999999997,94.14999999999999 18.9,94.85 20.65,95.19999999999999 21.349999999999998,94.5 21.7,95.19999999999999 21.7,94.5 20.65,95.19999999999999 19.599999999999998,94.85 20.65,94.14999999999999 19.95,93.8 20.299999999999997,93.44999999999999 21.349999999999998,93.44999999999999 19.599999999999998,93.44999999999999 17.849999999999998,94.85 17.15,94.14999999999999 21.7,90.64999999999999 23.099999999999998,90.64999999999999 23.799999999999997,92.39999999999999 23.45,93.44999999999999 23.799999999999997,93.1 25.549999999999997,94.14999999999999 23.799999999999997,92.75 23.799999999999997,91.35 24.849999999999998,92.75 26.95,93.8 29.049999999999997,95.89999999999999 28.0,96.6 25.9,95.19999999999999 27.299999999999997,95.19999999999999 26.599999999999998,94.5 25.9,95.19999999999999 23.099999999999998,94.5 23.099999999999998,95.55 25.2,94.85 27.299999999999997,95.89999999999999 27.65,96.6 29.049999999999997,95.89999999999999 32.55,96.25 33.25,95.55 36.4,94.85 37.449999999999996,93.44999999999999" stroke="#aaa" stroke-width="1" /><polyline fill="none" points="39.55,122.49999999999999 38.5,128.1 38.849999999999994,128.79999999999998 40.599999999999994,129.5 40.599999999999994,128.79999999999998 40.25,129.5 38.5,128.1 39.199999999999996,127.39999999999999 38.5,127.05 38.849999999999994,126.69999999999999 40.25,126.69999999999999 41.65,129.15 41.3,130.9 43.05,136.14999999999998 42.349999999999994,136.14999999999998 41.65,133.35 41.3,135.45 41.65,136.85 41.65,135.79999999999998 42.349999999999994,135.79999999999998 43.4,139.64999999999998 43.05,141.04999999999998 42.349999999999994,140.0 42.349999999999994,138.6 42.699999999999996,140.7 42.349999999999994,141.04999999999998 41.65,140.35 41.65,139.29999999999998 41.3,141.04999999999998 42.0,144.54999999999998 41.65,145.6 40.949999999999996,144.2 41.3,147.0 41.3,145.95 42.0,145.95 42.349999999999994,147.0 41.65,148.39999999999998 42.699999999999996,151.89999999999998 43.4,152.25 43.4,155.04999999999998 43.05,155.39999999999998 42.699999999999996,154.7 43.4,155.75 42.699999999999996,157.14999999999998 42.349999999999994,156.1 42.0,157.5 41.3,157.85 42.699999999999996,158.2 43.05,157.5 43.4,158.54999999999998 43.75,157.5 43.05,157.5 43.05,156.79999999999998 44.099999999999994,156.79999999999998 44.8,157.5 44.8,158.89999999999998 44.099999999999994,158.89999999999998 43.75,159.95 43.75,159.25 44.449999999999996,159.25 44.099999999999994,161.7 44.449999999999996,163.1 44.449999999999996,162.04999999999998 45.15,162.04999999999998 45.15,163.45 44.449999999999996,165.2 43.75,163.45 44.449999999999996,165.89999999999998 44.8,164.85 45.15,165.89999999999998 45.15,165.2 45.849999999999994,165.2 45.5,167.29999999999998 46.199999999999996,167.29999999999998 45.849999999999994,168.7 45.849999999999994,168.0 46.55,168.0 47.25,171.14999999999998 46.55,171.14999999999998 46.199999999999996,169.39999999999998 46.199999999999996,170.1 45.5,170.1 45.15,168.0 44.099999999999994,167.64999999999998 44.8,167.29999999999998 44.8,166.6 44.449999999999996,167.29999999999998 43.75,165.54999999999998 43.05,165.54999999999998 43.4,164.14999999999998 43.05,164.5 42.699999999999996,163.79999999999998 43.4,162.04999999999998 42.349999999999994,161.7 43.4,161.35 43.4,160.64999999999998 43.05,161.35 42.699999999999996,160.64999999999998 42.0,162.75 42.699999999999996,162.04999999999998 43.05,163.45 41.65,164.5 41.65,165.89999999999998 42.0,164.5 43.4,164.85 42.349999999999994,165.2 41.65,167.64999999999998 42.349999999999994,166.6 42.699999999999996,168.0 40.949999999999996,168.7 40.599999999999994,167.64999999999998 41.3,166.6 40.599999999999994,167.64999999999998 40.599999999999994,165.89999999999998 39.199999999999996,166.6 37.8,166.25 39.199999999999996,165.2 40.25,165.2 38.849999999999994,164.85 40.25,164.5 39.9,163.45 40.949999999999996,162.04999999999998 41.3,163.1 41.3,162.04999999999998 40.599999999999994,162.04999999999998 39.9,163.1 38.5,162.75 39.199999999999996,163.1 38.849999999999994,163.45 37.449999999999996,163.1 37.449999999999996,162.39999999999998 38.5,161.7 39.9,162.04999999999998 38.5,161.7 39.199999999999996,161.35 39.199999999999996,160.29999999999998 39.199999999999996,161.0 38.15,162.04999999999998 37.449999999999996,161.7 37.8,160.29999999999998 38.849999999999994,159.6 38.849999999999994,158.89999999999998 38.15,158.54999999999998 38.849999999999994,156.45 40.599999999999994,157.85 39.9,158.54999999999998 41.65,158.89999999999998 39.9,159.6 40.25,161.35 40.599999999999994,160.64999999999998 40.949999999999996,161.35 40.949999999999996,160.64999999999998 40.25,160.29999999999998 40.599999999999994,159.6 41.65,159.6 41.65,158.54999999999998 40.949999999999996,158.54999999999998 40.25,157.14999999999998 38.5,156.1 38.849999999999994,152.95 39.55,152.95 39.9,155.04999999999998 40.25,152.6 39.9,153.64999999999998 39.199999999999996,152.6 39.9,148.39999999999998 41.3,153.29999999999998 42.0,153.29999999999998 41.65,151.54999999999998 41.65,152.25 40.949999999999996,152.25 41.3,150.14999999999998 41.3,150.85 40.599999999999994,150.85 40.949999999999996,148.04999999999998 40.599999999999994,149.79999999999998 39.9,148.39999999999998 40.599999999999994,141.75 39.9,148.39999999999998 38.849999999999994,152.6 38.5,158.2 36.75,165.54999999999998 36.75,169.04999999999998 36.75,165.54999999999998 37.449999999999996,163.45 40.25,164.14999999999998 38.849999999999994,164.5 38.5,165.89999999999998 37.449999999999996,165.89999999999998 38.15,166.6 39.55,166.95 39.199999999999996,166.6 39.9,166.25 41.3,169.04999999999998 41.3,168.35 42.0,168.35 42.349999999999994,169.04999999999998 43.05,166.6 43.75,168.7 43.05,168.7 43.05,169.39999999999998 42.0,169.75 41.65,171.5 40.949999999999996,170.79999999999998 42.0,172.54999999999998 41.65,173.6 41.3,172.89999999999998 40.949999999999996,174.29999999999998 39.9,173.95 40.599999999999994,173.6 40.599999999999994,171.85 40.25,173.6 39.55,173.6 39.55,172.89999999999998 38.5,171.85 38.15,173.25 37.099999999999994,173.95 36.75,173.6 36.75,172.2 37.8,171.14999999999998 39.9,171.5 39.9,169.75 40.25,169.39999999999998 40.599999999999994,170.1 40.599999999999994,169.39999999999998 37.8,168.7 39.55,169.04999999999998 39.9,170.1 39.55,170.45 38.849999999999994,169.75 39.199999999999996,170.1 38.15,170.45 37.449999999999996,169.75 37.8,169.39999999999998 36.75,170.1 36.75,173.95 37.8,173.6 38.15,175.0 38.849999999999994,175.35 38.15,175.7 38.849999999999994,176.04999999999998 38.15,178.5 37.449999999999996,178.14999999999998 37.099999999999994,176.04999999999998 37.8,178.85 38.15,185.14999999999998 38.849999999999994,185.5 38.15,186.2 38.849999999999994,189.35 38.849999999999994,192.85 39.55,193.2 38.849999999999994,193.89999999999998 42.0,193.89999999999998 42.0,195.64999999999998 41.3,196.0 40.599999999999994,194.25 39.9,196.7 39.55,194.25 39.55,195.64999999999998 38.849999999999994,195.64999999999998 38.849999999999994,196.35 39.55,196.35 39.55,197.39999999999998 38.849999999999994,197.75 38.5,197.04999999999998 38.5,197.75 39.55,198.1 39.55,199.14999999999998 40.599999999999994,199.5 39.9,199.85 40.25,202.64999999999998 40.949999999999996,202.64999999999998 40.599999999999994,205.79999999999998 41.3,206.14999999999998 40.949999999999996,207.54999999999998 40.599999999999994,206.5 40.599999999999994,208.95 41.3,209.29999999999998 41.65,208.25 40.599999999999994,207.89999999999998 41.3,207.54999999999998 41.3,203.0 40.949999999999996,201.25 40.599999999999994,201.6 39.9,200.89999999999998 40.25,199.85 40.599999999999994,200.54999999999998 40.25,194.95 40.949999999999996,194.95 41.3,197.39999999999998 42.349999999999994,197.39999999999998 41.3,197.04999999999998 42.699999999999996,196.35 40.949999999999996,196.35 42.0,196.0 41.65,189.7 42.0,190.75 40.949999999999996,190.75 40.949999999999996,188.64999999999998 40.949999999999996,190.75 39.55,191.1 40.949999999999996,191.45 39.55,191.79999999999998 40.25,192.14999999999998 39.55,192.85 38.849999999999994,192.5 38.849999999999994,190.04999999999998 39.9,189.35 40.25,190.04999999999998 40.599999999999994,187.25 40.949999999999996,186.89999999999998 41.3,187.95 41.65,184.45 42.699999999999996,192.5 43.75,192.85 42.699999999999996,193.2 42.699999999999996,195.64999999999998 43.05,194.95 43.75,195.29999999999998 43.75,197.04999999999998 43.05,197.39999999999998 43.75,197.75 43.05,198.45 44.099999999999994,198.45 44.099999999999994,200.2 43.75,200.54999999999998 43.05,199.5 43.4,200.54999999999998 44.099999999999994,200.54999999999998 43.75,196.7 44.099999999999994,196.35 44.8,197.04999999999998 45.5,202.29999999999998 45.5,208.95 45.5,207.54999999999998 46.199999999999996,207.54999999999998 46.199999999999996,209.29999999999998 45.15,210.0 45.849999999999994,210.7 45.849999999999994,212.45 45.15,212.45 45.15,211.04999999999998 44.8,215.25 44.099999999999994,215.95 43.05,214.89999999999998 43.75,214.54999999999998 43.05,214.54999999999998 42.699999999999996,215.95 43.05,216.64999999999998 42.349999999999994,222.95 42.699999999999996,222.25 43.05,223.29999999999998 42.349999999999994,223.64999999999998 43.05,223.29999999999998 43.05,222.25 42.349999999999994,221.89999999999998 43.4,221.54999999999998 43.4,219.1 44.099999999999994,217.0 44.099999999999994,222.6 44.099999999999994,221.89999999999998 44.8,221.89999999999998 44.449999999999996,223.64999999999998 45.5,217.35 46.199999999999996,217.35 46.199999999999996,220.5 45.5,222.25 45.5,223.64999999999998 45.849999999999994,220.85 46.55,220.85 46.199999999999996,223.64999999999998 46.9,219.45 47.949999999999996,219.45 47.599999999999994,221.2 48.3,221.2 48.3,220.5 47.599999999999994,220.14999999999998 48.3,218.39999999999998 49.349999999999994,220.14999999999998 49.349999999999994,221.89999999999998 48.65,218.39999999999998 49.0,216.64999999999998 49.699999999999996,216.64999999999998 50.05,215.6 50.4,216.29999999999998 50.4,215.6 49.699999999999996,215.25 50.4,214.89999999999998 49.699999999999996,214.2 50.75,214.2 50.75,212.45 51.099999999999994,212.1 51.449999999999996,212.79999999999998 53.199999999999996,213.14999999999998 51.449999999999996,213.5 53.199999999999996,213.85 52.15,214.2 52.15,215.25 51.449999999999996,215.6 52.5,215.95 52.15,214.54999999999998 53.199999999999996,213.85 53.9,214.2 53.9,212.45 54.949999999999996,212.1 54.949999999999996,211.39999999999998 53.55,211.39999999999998 54.949999999999996,211.75 52.5,212.79999999999998 52.15,210.35 51.449999999999996,210.35 51.449999999999996,211.75 50.75,211.75 50.75,202.29999999999998 51.449999999999996,202.29999999999998 51.449999999999996,205.79999999999998 51.449999999999996,203.7 52.15,203.7 52.15,206.5 51.449999999999996,206.5 51.449999999999996,207.54999999999998 51.8,206.85 52.15,208.25 51.449999999999996,208.25 51.449999999999996,209.64999999999998 51.8,208.6 52.15,209.64999999999998 52.15,201.95 53.55,201.25 53.55,202.29999999999998 54.25,201.95 55.65,203.0 55.3,204.39999999999998 54.949999999999996,203.35 54.949999999999996,205.45 56.0,209.64999999999998 55.3,207.54999999999998 55.65,205.1 55.3,205.45 54.949999999999996,204.75 56.349999999999994,204.75 56.349999999999994,197.39999999999998 55.65,197.39999999999998 55.65,198.45 56.349999999999994,198.79999999999998 55.65,199.14999999999998 56.349999999999994,199.5 56.0,204.39999999999998 55.3,200.54999999999998 54.599999999999994,200.54999999999998 54.599999999999994,199.85 55.3,199.85 54.25,199.14999999999998 54.949999999999996,198.79999999999998 54.949999999999996,196.35 56.349999999999994,196.0 53.9,196.35 54.949999999999996,197.39999999999998 54.25,197.75 54.25,198.45 53.199999999999996,199.14999999999998 51.449999999999996,199.14999999999998 51.099999999999994,198.79999999999998 51.8,198.45 51.8,196.7 51.099999999999994,196.35 51.8,196.0 51.8,193.89999999999998 51.449999999999996,196.0 51.099999999999994,193.54999999999998 51.8,191.1 51.8,187.6 52.5,187.95 52.849999999999994,190.39999999999998 52.15,192.5 52.15,191.79999999999998 52.849999999999994,191.79999999999998 52.5,195.64999999999998 52.849999999999994,191.79999999999998 53.199999999999996,191.45 54.25,192.14999999999998 54.25,191.1 53.9,192.14999999999998 52.5,191.1 53.199999999999996,190.75 52.5,190.04999999999998 52.5,184.79999999999998 53.199999999999996,185.14999999999998 52.849999999999994,185.85 53.9,186.2 52.849999999999994,186.54999999999998 53.9,186.89999999999998 53.199999999999996,187.25 54.949999999999996,187.6 53.9,188.29999999999998 53.55,187.95 53.199999999999996,188.64999999999998 54.599999999999994,189.35 54.949999999999996,192.14999999999998 55.3,191.1 56.349999999999994,192.85 56.0,195.29999999999998 56.0,193.54999999999998 57.4,193.2 57.4,192.5 57.05,193.2 56.349999999999994,192.85 56.349999999999994,191.1 56.699999999999996,190.75 57.05,191.79999999999998 56.699999999999996,187.6 55.65,187.25 56.349999999999994,186.89999999999998 56.0,184.79999999999998 56.699999999999996,184.45 56.0,184.1 55.3,179.54999999999998 56.0,179.2 54.949999999999996,180.6 54.25,179.54999999999998 53.9,177.1 54.599999999999994,177.1 54.949999999999996,178.85 55.3,177.45 56.699999999999996,177.45 57.74999999999999,178.14999999999998 57.4,179.2 57.74999999999999,178.5 58.099999999999994,178.85 57.74999999999999,178.14999999999998 58.449999999999996,177.79999999999998 57.05,177.79999999999998 56.349999999999994,177.1 56.699999999999996,176.75 55.3,177.1 54.949999999999996,177.79999999999998 54.599999999999994,177.45 54.25,175.0 54.599999999999994,174.64999999999998 54.949999999999996,175.35 54.599999999999994,173.6 55.3,173.6 54.25,172.89999999999998 54.949999999999996,172.54999999999998 54.25,172.2 55.65,171.5 56.349999999999994,172.89999999999998 56.699999999999996,171.85 56.699999999999996,173.95 57.4,174.29999999999998 57.4,175.7 58.099999999999994,175.7 58.099999999999994,175.0 57.05,173.95 57.05,172.2 57.74999999999999,172.2 57.74999999999999,173.6 57.4,171.5 58.099999999999994,171.14999999999998 57.4,170.79999999999998 57.4,168.7 57.74999999999999,168.35 58.449999999999996,169.39999999999998 58.449999999999996,168.0 58.099999999999994,168.7 57.74999999999999,168.35 57.74999999999999,166.95 57.4,168.7 57.05,166.95 56.349999999999994,170.45 53.9,169.75 53.9,169.04999999999998 56.0,169.04999999999998 55.65,168.7 56.0,169.04999999999998 55.3,169.39999999999998 54.25,168.7 54.599999999999994,168.35 53.9,169.04999999999998 53.199999999999996,168.0 53.9,167.64999999999998 53.9,166.95 53.199999999999996,166.95 52.849999999999994,168.35 52.15,166.25 51.449999999999996,167.29999999999998 50.4,163.45 50.75,163.1 51.449999999999996,163.79999999999998 51.099999999999994,163.1 50.05,163.1 49.699999999999996,161.7 50.05,161.0 51.099999999999994,161.0 51.449999999999996,161.35 50.75,161.7 50.75,162.39999999999998 51.449999999999996,162.39999999999998 50.75,162.04999999999998 51.8,161.35 52.5,163.45 52.849999999999994,162.04999999999998 53.55,161.7 53.55,162.39999999999998 54.949999999999996,162.75 53.55,163.1 54.25,163.79999999999998 55.3,163.79999999999998 56.0,165.2 56.349999999999994,164.5 56.699999999999996,164.85 56.0,166.25 56.699999999999996,166.25 57.05,165.54999999999998 57.4,165.89999999999998 57.74999999999999,165.54999999999998 56.699999999999996,165.2 57.05,164.5 57.74999999999999,164.85 57.05,164.5 57.4,164.14999999999998 56.699999999999996,164.85 56.349999999999994,164.5 56.349999999999994,162.39999999999998 57.05,161.35 56.0,163.79999999999998 55.3,162.04999999999998 55.65,159.25 56.699999999999996,158.2 54.949999999999996,158.54999999999998 54.949999999999996,157.5 54.25,157.14999999999998 57.05,157.14999999999998 57.05,156.45 56.349999999999994,156.45 57.05,156.79999999999998 56.699999999999996,157.14999999999998 55.65,157.14999999999998 54.599999999999994,156.45 56.0,155.39999999999998 55.65,155.75 55.3,155.04999999999998 54.25,156.45 53.9,156.1 54.599999999999994,155.04999999999998 53.55,155.04999999999998 54.25,155.39999999999998 53.9,156.1 52.849999999999994,155.39999999999998 52.849999999999994,154.7 52.15,154.7 51.8,155.39999999999998 49.699999999999996,153.64999999999998 50.4,154.7 50.05,155.04999999999998 50.75,154.7 51.449999999999996,155.39999999999998 52.849999999999994,155.39999999999998 54.599999999999994,156.79999999999998 53.9,157.5 52.849999999999994,156.45 53.199999999999996,157.14999999999998 51.8,157.5 51.449999999999996,158.54999999999998 50.75,156.45 52.15,156.45 50.75,155.75 51.449999999999996,158.89999999999998 50.75,159.6 49.699999999999996,156.79999999999998 50.05,156.1 49.349999999999994,155.75 49.0,154.0 47.599999999999994,153.64999999999998 47.25,152.6 45.15,152.95 44.8,150.85 44.099999999999994,151.89999999999998 42.349999999999994,150.85 41.65,148.39999999999998 42.349999999999994,148.04999999999998 41.3,142.45 41.65,140.7 42.349999999999994,143.5 42.699999999999996,142.79999999999998 43.4,143.85 43.05,144.54999999999998 42.699999999999996,144.2 42.699999999999996,145.25 43.75,145.6 43.05,145.95 43.75,150.5 44.099999999999994,149.1 44.449999999999996,150.14999999999998 45.849999999999994,150.14999999999998 45.5,150.85 46.199999999999996,151.54999999999998 47.599999999999994,150.85 47.599999999999994,151.89999999999998 48.3,151.89999999999998 49.0,152.95 50.05,152.95 49.699999999999996,151.89999999999998 49.349999999999994,152.95 48.3,151.89999999999998 48.65,151.54999999999998 47.949999999999996,151.54999999999998 48.3,150.14999999999998 47.949999999999996,150.85 46.55,150.5 47.599999999999994,149.45 47.25,150.14999999999998 46.55,149.79999999999998 47.25,151.2 45.849999999999994,151.2 45.5,150.85 46.199999999999996,149.1 45.5,149.79999999999998 45.15,148.75 44.8,149.79999999999998 44.099999999999994,149.1 44.099999999999994,147.7 43.05,147.35 43.4,145.95 43.75,147.0 43.05,142.1 42.699999999999996,142.79999999999998 42.0,141.39999999999998 43.4,141.04999999999998 43.75,140.35 44.099999999999994,141.39999999999998 43.75,138.25 42.699999999999996,137.54999999999998 43.05,136.14999999999998 43.4,137.2 43.05,135.1 43.75,134.04999999999998 44.099999999999994,134.75 44.099999999999994,134.04999999999998 43.4,134.04999999999998 43.05,135.1 41.3,130.9 41.65,129.85 42.699999999999996,132.29999999999998 42.349999999999994,131.6 43.05,131.25 43.75,132.65 43.05,133.35 43.75,133.35 41.65,127.74999999999999 42.0,126.69999999999999 43.05,128.45 40.949999999999996,123.19999999999999 40.949999999999996,125.99999999999999 43.05,130.9 42.699999999999996,131.25 42.0,130.54999999999998 40.25,125.64999999999999 39.55,125.3 39.55,125.99999999999999 40.25,125.99999999999999 39.9,126.69999999999999 38.849999999999994,126.35 39.55,122.85 40.25,122.49999999999999" stroke="#aaa" stroke-width="1" /><polyline fill="none" points="4.8999999999999995,102.19999999999999 5.25,101.85 5.25,103.6 4.55,104.3 5.6,105.35 6.3,109.19999999999999 8.049999999999999,111.64999999999999 7.35,113.39999999999999 7.699999999999999,113.05 10.149999999999999,115.49999999999999 9.45,116.19999999999999 8.399999999999999,115.85 9.1,115.85 9.45,116.55 10.149999999999999,116.55 9.45,116.19999999999999 10.5,115.85 12.6,117.94999999999999 12.6,118.64999999999999 12.25,118.3 12.95,117.94999999999999 16.799999999999997,121.1 18.9,122.14999999999999 19.599999999999998,121.8 24.15,124.24999999999999 24.5,123.89999999999999 25.549999999999997,124.6 27.299999999999997,124.6 28.7,125.99999999999999 28.349999999999998,126.35 26.95,125.3 25.9,125.3 28.349999999999998,126.35 28.7,127.39999999999999 29.049999999999997,126.35 30.45,127.05 29.4,128.45 29.749999999999996,129.15 31.15,129.5 30.45,130.2 29.4,130.2 30.799999999999997,130.2 32.199999999999996,128.79999999999998 32.199999999999996,128.1 33.25,127.05 32.55,126.69999999999999 32.9,125.99999999999999 33.599999999999994,125.99999999999999 35.349999999999994,128.1 33.599999999999994,125.64999999999999 32.55,125.99999999999999 32.9,127.05 31.499999999999996,129.15 30.099999999999998,129.15 29.749999999999996,128.1 30.45,125.99999999999999 29.049999999999997,126.35 27.65,124.6 25.549999999999997,124.6 22.4,122.85 21.349999999999998,122.85 19.599999999999998,121.8 19.25,122.14999999999999 12.95,117.94999999999999 8.049999999999999,113.05 8.75,112.35 11.2,114.8 6.6499999999999995,109.55 6.3,107.1 4.8999999999999995,104.3" stroke="#aaa" stroke-width="1" /><polyline fill="none" points="13.299999999999999,52.849999999999994 18.549999999999997,49.349999999999994 23.799999999999997,50.05 24.849999999999998,51.099999999999994 25.9,51.099999999999994 24.849999999999998,51.099999999999994 24.849999999999998,50.4 28.7,50.4 31.15,51.449999999999996 31.499999999999996,52.15 33.25,52.5 33.949999999999996,51.8 34.65,53.199999999999996 32.55,53.55 37.099999999999994,53.199999999999996 35.0,53.199999999999996 35.0,51.8 35.699999999999996,52.5 39.9,52.15 39.9,52.849999999999994 40.25,52.5 40.599999999999994,53.199999999999996 42.699999999999996,53.199999999999996 43.75,54.25 47.599999999999994,52.849999999999994 49.0,53.199999999999996 50.05,55.3 52.15,57.4 52.5,58.8 53.55,59.49999999999999 54.25,63.699999999999996 53.55,64.39999999999999 54.25,65.45 54.25,67.19999999999999 53.55,68.25 54.25,67.19999999999999 53.9,64.75 54.599999999999994,64.05 53.55,58.8 53.199999999999996,59.15 52.15,58.099999999999994 49.349999999999994,53.199999999999996 47.599999999999994,52.849999999999994 44.099999999999994,53.9 42.699999999999996,53.199999999999996 40.949999999999996,53.199999999999996 40.25,52.15 36.05,52.5 35.349999999999994,51.8 34.65,52.15 33.599999999999994,51.449999999999996 32.199999999999996,51.449999999999996 33.599999999999994,51.449999999999996 33.949999999999996,51.8 33.25,52.5 28.7,50.4 24.15,50.4 22.4,49.699999999999996 18.549999999999997,49.349999999999994 15.749999999999998,50.75" stroke="#aaa" stroke-width="1" /><polyline fill="none" points="38.849999999999994,129.5 38.849999999999994,130.2 38.15,130.54999999999998 37.8,132.65 38.15,130.9 38.849999999999994,130.2 39.9,133.7 39.9,141.75 38.849999999999994,144.54999999999998 36.4,148.04999999999998 30.799999999999997,151.89999999999998 23.45,152.95 19.599999999999998,152.6 16.099999999999998,151.54999999999998 7.699999999999999,146.29999999999998 7.35,143.5 6.3,142.45 6.6499999999999995,140.0 6.3,142.45 7.35,143.5 7.35,144.89999999999998 6.6499999999999995,145.6 5.949999999999999,143.14999999999998 5.949999999999999,143.85 5.25,144.2 6.3,144.2 6.6499999999999995,146.64999999999998 6.6499999999999995,145.6 7.35,144.89999999999998 8.049999999999999,147.0 11.2,149.1 18.2,152.25 25.549999999999997,152.95 31.15,151.89999999999998 37.449999999999996,147.35 39.9,142.1 39.9,133.7" stroke="#aaa" stroke-width="1" /><polyline fill="none" points="12.6,73.85 12.6,74.55 14.7,74.19999999999999 14.0,73.14999999999999 14.7,72.44999999999999 18.9,72.8 12.95,72.44999999999999 15.049999999999999,71.05 19.95,70.35 21.0,71.05 25.2,71.75 28.0,73.14999999999999 29.049999999999997,74.55 28.7,75.25 27.65,75.25 28.0,76.64999999999999 27.65,75.94999999999999 28.349999999999998,75.25 29.049999999999997,75.94999999999999 29.4,74.19999999999999 28.349999999999998,73.14999999999999 25.2,71.75 21.0,71.05 20.299999999999997,70.35 17.5,70.35 14.0,71.39999999999999 12.95,72.1 12.95,72.8 14.0,73.14999999999999 13.649999999999999,73.85" stroke="#aaa" stroke-width="1" /><polyline fill="none" points="13.649999999999999,53.55 11.899999999999999,55.3 11.899999999999999,58.8 10.5,60.199999999999996 12.25,60.9 11.2,61.24999999999999 11.2,61.949999999999996 12.25,61.599999999999994 12.95,62.3 9.45,66.14999999999999 8.75,71.05 8.049999999999999,72.1 7.699999999999999,75.25 6.3,79.8 6.3,82.6 6.3,79.8 7.0,77.69999999999999 7.699999999999999,78.39999999999999 7.699999999999999,79.8 8.399999999999999,80.14999999999999 7.35,80.85 8.049999999999999,81.19999999999999 7.35,81.55 8.049999999999999,81.55 8.399999999999999,80.14999999999999 9.1,80.85 8.75,81.89999999999999 9.45,82.94999999999999 9.45,82.25 8.75,81.89999999999999 9.1,80.85 7.699999999999999,79.44999999999999 7.0,76.64999999999999 7.699999999999999,75.25 8.049999999999999,72.1 8.75,71.05 9.45,66.5 10.149999999999999,66.5 10.149999999999999,65.8 12.25,62.99999999999999 13.299999999999999,64.05 11.899999999999999,65.1 12.6,65.1 13.649999999999999,64.05 12.6,62.99999999999999 13.649999999999999,61.949999999999996 13.649999999999999,61.24999999999999 12.6,61.24999999999999 11.899999999999999,60.55 12.25,60.199999999999996 11.2,60.199999999999996 12.25,57.4 12.25,55.65" stroke="#aaa" stroke-width="1" /><polyline fill="none" points="0.35,119.35 0.0,120.74999999999999 0.7,127.39999999999999 0.35,127.74999999999999 0.0,126.69999999999999 0.0,128.1 0.7,128.1 1.0499999999999998,129.85 0.0,130.9 0.0,131.95 0.0,130.9 0.7,130.2 2.4499999999999997,130.9 2.4499999999999997,132.29999999999998 1.4,132.29999999999998 1.75,131.25 1.0499999999999998,131.25 0.7,133.35 1.4,133.35 1.75,132.65 2.0999999999999996,133.0 1.4,135.45 1.0499999999999998,134.04999999999998 0.0,133.7 1.0499999999999998,134.39999999999998 1.0499999999999998,135.79999999999998 0.35,135.79999999999998 0.35,134.75 0.35,136.14999999999998 2.4499999999999997,136.14999999999998 2.4499999999999997,135.45 1.75,135.1 2.4499999999999997,134.75 2.0999999999999996,133.0 3.5,131.25 3.15,130.2 2.8,131.95 2.0999999999999996,130.54999999999998 2.4499999999999997,130.2 1.0499999999999998,130.2 1.75,129.85 1.4,124.94999999999999 1.75,128.45 1.4,128.79999999999998 0.7,128.1 0.35,123.19999999999999 1.0499999999999998,122.85 1.0499999999999998,121.8 0.35,121.44999999999999" stroke="#aaa" stroke-width="1" /><polyline fill="none" points="4.8999999999999995,80.85 3.5,81.19999999999999 4.55,80.85 5.25,81.55 5.6,83.3 5.6,87.85 4.55,91.69999999999999 3.5,91.0 3.5,92.05 1.0499999999999998,89.6 2.0999999999999996,88.55 2.0999999999999996,86.44999999999999 1.0499999999999998,86.8 2.0999999999999996,87.14999999999999 2.0999999999999996,88.55 1.0499999999999998,89.6 0.7,89.25 0.7,87.5 0.0,87.5 0.0,85.05 0.0,87.85 0.7,89.6 3.15,92.05 4.8999999999999995,92.05 4.55,98.69999999999999 2.8,108.85 0.0,110.6 2.0999999999999996,109.55 2.4499999999999997,111.3 1.4,114.1 1.75,114.44999999999999 0.7,115.49999999999999 0.35,113.74999999999999 1.0499999999999998,113.05 0.7,113.39999999999999 0.35,112.35 1.4,111.64999999999999 0.35,112.0 0.0,113.05 0.7,113.39999999999999 0.7,115.49999999999999 0.0,116.19999999999999 1.0499999999999998,115.14999999999999 1.75,116.55 1.75,118.64999999999999 2.4499999999999997,120.39999999999999 1.75,121.1 1.4,120.74999999999999 3.5,127.05 4.8999999999999995,133.7 4.199999999999999,135.1 5.6,136.14999999999998 6.3,139.29999999999998 4.199999999999999,139.29999999999998 3.8499999999999996,138.6 4.8999999999999995,137.89999999999998 3.8499999999999996,138.25 3.5,140.0 2.4499999999999997,139.64999999999998 3.15,139.29999999999998 3.15,138.6 2.8,139.29999999999998 2.4499999999999997,138.95 2.0999999999999996,140.7 1.75,138.25 1.4,142.1 1.0499999999999998,137.2 1.4,136.85 2.0999999999999996,137.54999999999998 1.75,137.2 2.4499999999999997,136.85 3.15,137.54999999999998 2.8,136.85 0.35,136.85 0.0,142.1 0.7,141.39999999999998 1.0499999999999998,141.75 1.0499999999999998,144.2 0.35,144.2 0.35,143.14999999999998 0.35,145.25 1.0499999999999998,145.6 0.0,145.95 0.7,146.29999999999998 0.0,146.64999999999998 0.7,146.64999999999998 1.0499999999999998,145.6 1.4,145.95 1.4,148.39999999999998 0.7,149.79999999999998 0.35,148.39999999999998 0.0,149.1 0.0,154.7 0.7,149.79999999999998 1.0499999999999998,151.54999999999998 1.0499999999999998,150.85 1.75,150.85 1.75,153.29999999999998 1.0499999999999998,153.64999999999998 1.0499999999999998,154.7 1.4,153.64999999999998 1.75,155.04999999999998 0.35,156.1 0.0,155.39999999999998 0.7,157.5 1.4,157.85 0.35,158.2 0.35,158.89999999999998 1.0499999999999998,159.25 0.0,159.6 0.0,160.29999999999998 0.7,160.64999999999998 0.0,161.0 0.35,162.75 0.0,162.04999999999998 1.4,157.85 1.4,156.79999999999998 0.7,156.45 1.75,155.04999999999998 1.75,151.89999999999998 2.4499999999999997,151.89999999999998 2.4499999999999997,156.1 2.8,154.7 3.15,156.1 4.55,156.1 3.8499999999999996,155.75 4.55,155.39999999999998 3.8499999999999996,155.04999999999998 4.199999999999999,154.35 4.55,154.7 3.8499999999999996,154.0 4.55,152.6 3.8499999999999996,151.89999999999998 3.8499999999999996,150.85 4.199999999999999,150.5 4.55,151.54999999999998 5.25,148.39999999999998 6.6499999999999995,148.75 6.3,150.85 8.399999999999999,150.85 9.1,154.0 8.75,154.35 8.399999999999999,153.29999999999998 8.75,154.7 8.049999999999999,155.39999999999998 7.35,155.04999999999998 7.699999999999999,154.7 6.6499999999999995,155.04999999999998 6.3,154.35 7.35,154.0 7.35,151.89999999999998 5.6,151.89999999999998 4.8999999999999995,153.29999999999998 5.6,155.04999999999998 4.55,158.54999999999998 4.199999999999999,157.85 3.8499999999999996,159.25 3.5,157.85 3.15,159.25 2.8,156.79999999999998 2.4499999999999997,157.85 2.0999999999999996,156.79999999999998 1.75,159.25 2.4499999999999997,159.6 1.75,159.95 1.75,160.64999999999998 2.4499999999999997,161.0 1.4,161.35 0.0,168.7 1.0499999999999998,169.04999999999998 0.0,169.39999999999998 0.7,169.75 0.0,170.1 0.7,170.45 0.0,170.79999999999998 0.7,171.14999999999998 0.0,171.5 0.0,174.29999999999998 0.35,171.5 1.0499999999999998,170.79999999999998 1.0499999999999998,173.95 1.4,173.25 1.75,174.29999999999998 0.7,174.64999999999998 0.7,175.7 1.4,176.04999999999998 0.35,176.39999999999998 0.0,177.79999999999998 0.7,178.85 2.0999999999999996,171.5 1.75,172.54999999999998 1.4,171.14999999999998 2.4499999999999997,170.79999999999998 2.8,166.95 2.0999999999999996,166.6 3.15,166.25 3.15,165.54999999999998 2.4499999999999997,165.2 3.15,164.85 3.8499999999999996,162.39999999999998 3.8499999999999996,168.0 4.55,168.0 5.25,169.39999999999998 4.55,169.75 3.5,168.7 3.5,169.75 5.949999999999999,170.1 4.8999999999999995,169.75 5.25,168.35 4.55,168.0 4.55,165.89999999999998 4.8999999999999995,165.54999999999998 6.3,166.6 5.25,166.95 5.25,167.64999999999998 5.949999999999999,168.0 5.949999999999999,169.39999999999998 5.949999999999999,168.0 6.6499999999999995,166.95 7.699999999999999,169.04999999999998 6.6499999999999995,169.04999999999998 6.6499999999999995,170.45 4.8999999999999995,170.79999999999998 4.8999999999999995,171.5 5.25,170.79999999999998 5.6,171.85 5.949999999999999,170.79999999999998 6.3,173.25 7.0,173.25 8.399999999999999,164.14999999999998 8.399999999999999,155.39999999999998 9.1,154.0 8.049999999999999,147.7 7.35,147.7 8.049999999999999,148.04999999999998 7.0,148.39999999999998 6.6499999999999995,147.35 6.3,148.39999999999998 5.949999999999999,147.7 5.25,148.39999999999998 5.25,145.95 4.55,147.0 3.8499999999999996,145.6 5.25,145.25 4.55,145.25 4.55,144.54999999999998 3.15,144.54999999999998 3.5,146.64999999999998 2.4499999999999997,147.0 2.4499999999999997,144.54999999999998 1.0499999999999998,144.2 1.4,142.1 1.75,143.85 4.55,143.85 4.199999999999999,143.14999999999998 4.8999999999999995,142.79999999999998 4.199999999999999,142.45 5.6,142.1 4.55,142.1 4.199999999999999,141.75 4.8999999999999995,141.39999999999998 3.8499999999999996,141.39999999999998 3.15,140.35 4.199999999999999,139.29999999999998 5.25,139.64999999999998 5.6,140.7 6.3,139.29999999999998 5.25,134.39999999999998 4.55,133.35 3.5,127.05 1.75,122.49999999999999 1.75,121.1 2.4499999999999997,120.39999999999999 3.15,121.44999999999999 2.8,122.14999999999999 3.5,122.85 3.15,123.55 3.5,122.49999999999999 2.8,122.14999999999999 3.15,121.44999999999999 2.0999999999999996,119.69999999999999 1.4,116.19999999999999 2.4499999999999997,111.3 2.0999999999999996,109.55 2.8,109.19999999999999 4.8999999999999995,95.19999999999999 4.8999999999999995,90.3 5.6,87.85 5.6,83.3" stroke="#aaa" stroke-width="1" /><polyline fill="none" points="44.8,32.9 45.5,33.599999999999994 44.8,32.9 43.4,32.9 40.949999999999996,30.799999999999997 40.25,30.799999999999997 41.3,31.499999999999996 40.949999999999996,31.849999999999998 35.349999999999994,32.55 32.9,31.499999999999996 32.199999999999996,32.199999999999996 31.15,31.15 30.099999999999998,31.499999999999996 28.349999999999998,30.099999999999998 26.25,30.799999999999997 24.849999999999998,29.749999999999996 24.5,30.45 25.2,29.749999999999996 26.25,30.799999999999997 25.9,31.15 21.349999999999998,31.499999999999996 21.349999999999998,32.199999999999996 21.7,31.499999999999996 22.4,32.199999999999996 19.95,33.599999999999994 17.849999999999998,35.699999999999996 16.45,36.4 16.45,35.349999999999994 15.399999999999999,35.349999999999994 15.399999999999999,36.05 15.749999999999998,35.699999999999996 16.099999999999998,36.4 14.7,37.449999999999996 17.15,36.05 17.849999999999998,36.75 15.399999999999999,38.15 13.299999999999999,37.8 14.35,38.15 13.649999999999999,38.849999999999994 11.549999999999999,39.199999999999996 11.549999999999999,40.25 10.85,40.949999999999996 10.149999999999999,40.599999999999994 10.5,40.949999999999996 9.45,41.65 10.85,41.65 9.799999999999999,42.699999999999996 9.45,42.349999999999994 9.799999999999999,43.05 8.399999999999999,44.8 8.75,45.849999999999994 8.049999999999999,47.25 5.6,50.05 4.8999999999999995,50.05 4.8999999999999995,50.75 5.6,50.05 5.949999999999999,51.099999999999994 4.55,52.5 3.8499999999999996,51.8 3.8499999999999996,50.4 3.8499999999999996,51.8 5.25,53.9 3.8499999999999996,56.0 4.199999999999999,58.8 3.15,59.49999999999999 3.8499999999999996,61.24999999999999 0.0,61.599999999999994 3.8499999999999996,61.949999999999996 2.4499999999999997,68.94999999999999 2.8,72.8 1.0499999999999998,73.14999999999999 0.0,74.19999999999999 0.7,73.85 0.7,74.89999999999999 2.0999999999999996,75.6 1.4,75.94999999999999 1.4,77.35 0.7,78.39999999999999 1.0499999999999998,78.75 1.0499999999999998,77.69999999999999 1.75,77.69999999999999 1.4,79.44999999999999 2.0999999999999996,75.94999999999999 2.8,75.94999999999999 1.0499999999999998,74.19999999999999 2.0999999999999996,73.85 3.8499999999999996,75.6 3.5,74.55 2.4499999999999997,73.85 2.4499999999999997,68.94999999999999 3.8499999999999996,63.349999999999994 3.8499999999999996,60.55 3.15,59.49999999999999 3.8499999999999996,59.15 4.199999999999999,59.849999999999994 4.199999999999999,57.4 4.8999999999999995,56.699999999999996 4.199999999999999,56.0 5.25,54.25 4.8999999999999995,52.5 5.6,52.5 5.949999999999999,53.9 6.3,52.849999999999994 5.949999999999999,53.55 5.25,51.8 6.3,51.099999999999994 5.949999999999999,50.05 8.049999999999999,47.599999999999994 8.75,46.199999999999996 8.399999999999999,45.15 10.85,42.0 10.5,41.3 11.549999999999999,40.599999999999994 11.549999999999999,39.55 12.6,39.55 12.95,38.849999999999994 17.15,37.449999999999996 18.9,35.0 19.95,35.349999999999994 19.95,33.949999999999996 22.4,32.55 22.75,31.499999999999996 29.049999999999997,30.799999999999997 30.099999999999998,31.499999999999996 30.799999999999997,31.15 31.849999999999998,32.199999999999996 32.55,32.199999999999996 32.9,31.499999999999996 35.349999999999994,32.55 38.15,32.55 41.3,31.499999999999996 41.65,32.199999999999996 42.0,31.849999999999998 43.05,32.9 43.75,32.9 45.15,34.65 44.449999999999996,33.599999999999994" stroke="#aaa" stroke-width="1" /><polyline fill="none" points="44.449999999999996,201.25 43.75,201.25 44.449999999999996,201.6 44.8,204.75 44.099999999999994,205.45 43.75,204.39999999999998 43.75,206.5 44.449999999999996,206.14999999999998 44.8,206.85 43.75,207.54999999999998 43.4,210.7 42.699999999999996,202.64999999999998 43.4,202.29999999999998 43.75,203.7 43.75,202.29999999999998 43.05,202.29999999999998 42.699999999999996,201.25 42.0,201.25 42.0,205.1 42.0,202.64999999999998 42.699999999999996,202.64999999999998 43.05,206.85 42.699999999999996,207.2 42.349999999999994,206.14999999999998 42.349999999999994,214.2 41.65,214.54999999999998 41.65,215.25 42.349999999999994,215.25 42.699999999999996,212.45 44.449999999999996,212.1" stroke="#aaa" stroke-width="1" /><polyline fill="none" points="4.55,172.2 4.199999999999999,174.64999999999998 4.8999999999999995,175.0 3.8499999999999996,175.35 3.8499999999999996,177.79999999999998 4.55,177.79999999999998 4.55,176.75 3.8499999999999996,176.39999999999998 4.199999999999999,176.04999999999998 6.3,176.75 5.25,177.45 7.0,176.39999999999998 5.6,175.35 5.6,176.04999999999998 4.8999999999999995,176.04999999999998 5.25,172.54999999999998 4.8999999999999995,173.95" stroke="#aaa" stroke-width="1" /><polyline fill="none" points="39.9,208.25 39.199999999999996,214.2 40.25,214.54999999999998 39.199999999999996,214.89999999999998 38.849999999999994,216.29999999999998 38.849999999999994,223.64999999999998 38.849999999999994,216.64999999999998 39.199999999999996,216.29999999999998 39.55,217.35 39.55,214.89999999999998 40.949999999999996,215.6 41.3,213.5 40.599999999999994,212.79999999999998 41.3,212.45 41.3,211.39999999999998 40.599999999999994,211.04999999999998 41.3,210.7 41.3,210.0 40.599999999999994,209.64999999999998 40.599999999999994,212.79999999999998 39.9,214.2 39.199999999999996,213.85" stroke="#aaa" stroke-width="1" /><polyline fill="none" points="3.8499999999999996,170.45 3.15,170.45 2.8,172.89999999999998 3.15,172.54999999999998 3.5,173.25 2.4499999999999997,173.95 2.0999999999999996,176.04999999999998 2.8,176.04999999999998 2.0999999999999996,177.45 2.8,177.79999999999998 1.75,178.14999999999998 1.75,179.2 1.0499999999999998,179.54999999999998 1.4,180.6 1.4,179.54999999999998 2.0999999999999996,178.85 2.8,179.2 2.4499999999999997,178.14999999999998 3.8499999999999996,172.89999999999998" stroke="#aaa" stroke-width="1" /><polyline fill="none" points="6.6499999999999995,177.45 6.3,178.85 4.8999999999999995,178.85 4.55,179.54999999999998 4.199999999999999,178.5 3.5,178.5 3.8499999999999996,179.89999999999998 2.0999999999999996,179.89999999999998 3.5,180.25 4.8999999999999995,181.64999999999998 4.55,183.39999999999998 3.5,182.35 3.8499999999999996,181.64999999999998 1.0499999999999998,181.64999999999998 1.0499999999999998,182.7 4.55,183.39999999999998 4.199999999999999,184.45 2.8,184.79999999999998 2.8,186.2 2.0999999999999996,187.25 2.0999999999999996,184.1 1.0499999999999998,184.45 0.0,183.04999999999998 0.7,183.75 0.0,184.1 0.7,184.45 0.35,186.89999999999998 1.0499999999999998,186.89999999999998 1.0499999999999998,185.85 1.75,185.5 1.75,187.25 2.4499999999999997,187.25 2.8,184.79999999999998 4.8999999999999995,184.79999999999998 4.8999999999999995,181.64999999999998 3.8499999999999996,179.54999999999998 4.199999999999999,179.2 5.6,179.89999999999998 5.6,179.2 6.3,179.2 6.3,180.25 5.6,180.6 6.3,181.29999999999998 5.6,182.35 5.949999999999999,183.39999999999998 5.25,185.5 5.25,188.29999999999998 4.8999999999999995,188.64999999999998 4.55,187.6 3.8499999999999996,187.6 4.199999999999999,185.14999999999998 3.5,185.14999999999998 3.5,186.2 4.199999999999999,186.54999999999998 3.15,186.89999999999998 2.8,189.0 3.5,189.7 2.8,190.04999999999998 2.8,191.1 3.5,191.1 3.8499999999999996,189.35 4.8999999999999995,190.04999999999998 4.55,192.85 3.8499999999999996,192.85 4.199999999999999,194.95 2.4499999999999997,195.29999999999998 2.0999999999999996,196.0 1.75,195.64999999999998 2.4499999999999997,194.25 3.5,194.6 2.8,194.25 3.15,191.79999999999998 2.4499999999999997,191.79999999999998 2.4499999999999997,192.85 3.15,193.2 2.4499999999999997,194.25 2.0999999999999996,193.54999999999998 1.0499999999999998,197.39999999999998 0.7,196.35 0.0,196.35 0.0,197.39999999999998 2.0999999999999996,198.1 0.7,199.14999999999998 1.75,199.85 1.0499999999999998,200.2 0.35,204.39999999999998 1.0499999999999998,204.75 1.0499999999999998,203.35 1.75,203.0 1.4,201.6 1.75,201.25 2.0999999999999996,201.95 2.0999999999999996,198.1 2.8,197.75 1.75,196.35 3.15,196.35 2.4499999999999997,195.64999999999998 3.5,195.29999999999998 3.8499999999999996,196.7 3.15,197.04999999999998 3.5,198.1 4.55,193.2" stroke="#aaa" stroke-width="1" /></svg>