<?xml version="1.0" encoding="utf-8" ?>
<svg baseProfile="full" height="224" version="1.1" width="224" xmlns="http://www.w3.org/2000/svg" xmlns:ev="http://www.w3.org/2001/xml-events" xmlns:xlink="http://www.w3.org/1999/xlink"><defs /><polyline fill="none" points="136.14999999999998,107.44999999999999 135.79999999999998,108.5 137.54999999999998,110.25 138.25,109.55 136.85,109.55 135.79999999999998,108.14999999999999 136.5,107.44999999999999 138.95,108.14999999999999 138.95,110.6 137.2,110.94999999999999 136.5,111.64999999999999 135.1,110.94999999999999 133.0,112.69999999999999 133.7,116.19999999999999 132.29999999999998,121.8 130.54999999999998,122.85 130.54999999999998,123.89999999999999 129.15,126.35 129.85,129.5 129.15,129.85 128.79999999999998,128.45 128.79999999999998,129.85 125.64999999999999,133.0 125.3,132.65 126.35,132.65 130.2,128.79999999999998 129.15,127.74999999999999 129.5,125.64999999999999 130.54999999999998,124.24999999999999 131.95,124.24999999999999 132.65,123.55 131.95,122.14999999999999 133.7,116.19999999999999 133.0,113.05 135.45,110.94999999999999 136.5,112.0 137.54999999999998,110.94999999999999 138.6,110.94999999999999 139.29999999999998,124.24999999999999 137.54999999999998,125.99999999999999 138.25,124.94999999999999 139.29999999999998,124.94999999999999 139.29999999999998,128.1 138.6,128.45 139.29999999999998,128.79999999999998 139.64999999999998,134.04999999999998 138.25,134.75 136.85,133.7 136.85,132.29999999999998 137.54999999999998,131.6 138.95,131.95 136.14999999999998,131.95 135.79999999999998,130.9 136.5,130.2 138.6,130.9 136.14999999999998,130.2 136.14999999999998,131.6 135.1,131.95 133.0,129.15 132.65,127.74999999999999 134.04999999999998,123.89999999999999 133.7,124.6 133.35,124.24999999999999 133.7,124.6 132.65,128.79999999999998 134.39999999999998,131.25 132.65,132.29999999999998 133.0,132.65 133.7,131.6 135.79999999999998,132.29999999999998 136.14999999999998,131.95 136.85,132.65 137.2,134.39999999999998 137.89999999999998,134.75 137.89999999999998,135.79999999999998 140.0,136.85 138.6,137.89999999999998 137.2,137.54999999999998 135.45,136.14999999999998 137.2,137.54999999999998 140.35,137.54999999999998 141.04999999999998,145.25 141.75,145.25 141.75,140.7 141.04999999999998,140.0 140.7,134.39999999999998 143.14999999999998,133.35 142.1,133.35 140.7,134.39999999999998 140.35,134.04999999999998 140.0,128.79999999999998 140.7,128.45 141.39999999999998,129.15 140.7,129.85 141.39999999999998,128.79999999999998 140.7,128.45 140.7,127.74999999999999 140.7,128.45 140.0,128.1 140.0,125.3 141.75,124.24999999999999 143.14999999999998,124.94999999999999 141.75,124.24999999999999 140.7,124.94999999999999 140.0,124.6 139.64999999999998,111.64999999999999 140.7,110.94999999999999 142.1,111.3 139.64999999999998,110.94999999999999 139.64999999999998,107.8" stroke="#aaa" stroke-width="1" /><polyline fill="none" points="132.29999999999998,154.0 130.54999999999998,154.0 129.5,155.39999999999998 128.79999999999998,155.39999999999998 127.74999999999999,156.45 128.1,157.14999999999998 126.69999999999999,158.2 125.3,157.14999999999998 123.89999999999999,158.2 123.19999999999999,157.5 124.24999999999999,158.2 125.3,157.14999999999998 125.99999999999999,158.2 124.6,159.25 123.55,159.25 121.8,161.0 121.8,162.75 120.74999999999999,162.75 121.44999999999999,163.1 122.49999999999999,162.39999999999998 121.8,161.35 123.89999999999999,159.25 127.74999999999999,157.85 127.74999999999999,156.79999999999998 129.15,155.39999999999998 129.85,156.1 129.15,157.5 129.85,156.45 129.85,155.04999999999998 130.9,156.1 130.2,157.5 130.9,156.79999999999998 131.6,157.5 130.54999999999998,158.54999999999998 132.65,156.79999999999998 131.95,156.1 133.0,155.39999999999998 131.6,155.04999999999998 132.29999999999998,156.45 131.6,157.5 130.2,155.04999999999998 130.9,154.0" stroke="#aaa" stroke-width="1" /><polyline fill="none" points="129.5,119.35 127.74999999999999,118.3 127.39999999999999,120.05 126.35,120.74999999999999 125.64999999999999,122.14999999999999 124.94999999999999,120.74999999999999 125.99999999999999,119.35 124.94999999999999,120.39999999999999 124.94999999999999,121.8 125.64999999999999,122.49999999999999 126.69999999999999,120.74999999999999 127.39999999999999,121.1 126.69999999999999,122.85 127.05,123.89999999999999 127.05,120.74999999999999 128.1,119.35 128.45,119.69999999999999 127.74999999999999,118.64999999999999 128.1,118.3 129.5,119.69999999999999 128.79999999999998,121.1 128.79999999999998,122.85 127.74999999999999,124.24999999999999 128.1,124.94999999999999 126.35,127.74999999999999 125.99999999999999,129.5 124.24999999999999,131.25 124.24999999999999,131.95 118.99999999999999,136.14999999999998 112.0,138.25 104.3,138.6 100.1,137.54999999999998 99.39999999999999,138.25 112.0,138.25 119.35,136.14999999999998 123.55,133.0 125.99999999999999,129.85 126.35,128.1 127.74999999999999,125.99999999999999 128.1,123.89999999999999 128.79999999999998,123.19999999999999 128.79999999999998,121.1" stroke="#aaa" stroke-width="1" /><polyline fill="none" points="150.85,159.6 149.45,158.89999999999998 148.39999999999998,159.25 147.35,158.2 147.0,158.89999999999998 146.29999999999998,158.89999999999998 145.95,157.85 147.0,157.5 147.35,156.45 145.95,157.85 145.6,157.14999999999998 147.0,155.75 145.6,156.79999999999998 145.95,158.54999999999998 143.85,159.95 140.7,158.89999999999998 138.6,159.6 137.54999999999998,159.25 136.85,157.85 138.95,157.5 136.85,157.5 136.5,158.2 137.54999999999998,159.25 135.45,159.6 133.35,161.0 131.6,161.35 131.95,162.39999999999998 129.5,165.54999999999998 128.1,164.85 129.5,163.45 128.45,163.1 128.79999999999998,163.45 127.39999999999999,165.2 125.64999999999999,165.2 123.89999999999999,167.29999999999998 122.49999999999999,166.95 123.89999999999999,168.0 123.19999999999999,168.7 122.49999999999999,168.7 121.44999999999999,167.64999999999998 121.8,165.89999999999998 121.44999999999999,167.64999999999998 122.14999999999999,168.7 125.99999999999999,169.39999999999998 126.35,171.14999999999998 125.64999999999999,171.85 126.35,171.14999999999998 126.69999999999999,169.39999999999998 124.6,169.39999999999998 123.55,168.35 123.55,167.64999999999998 124.6,166.95 126.69999999999999,166.95 127.39999999999999,166.25 126.35,166.95 124.6,166.6 126.35,164.85 127.39999999999999,165.54999999999998 133.35,165.54999999999998 131.6,165.89999999999998 130.54999999999998,164.85 130.54999999999998,164.14999999999998 132.29999999999998,162.75 131.6,161.7 134.39999999999998,160.64999999999998 135.45,159.6 136.85,159.95 137.54999999999998,159.25 138.6,159.6 140.7,158.89999999999998 141.39999999999998,159.6 143.85,159.95 147.35,158.54999999999998 148.39999999999998,159.25 149.45,158.89999999999998 149.79999999999998,159.6" stroke="#aaa" stroke-width="1" /><polyline fill="none" points="89.25,136.5 89.25,138.25 93.44999999999999,145.6 98.0,147.7 101.5,147.35 102.55,146.29999999999998 105.35,145.95 105.35,147.0 107.44999999999999,145.25 114.1,143.85 118.99999999999999,142.1 120.05,142.1 121.8,143.5 122.49999999999999,143.14999999999998 121.44999999999999,142.1 122.49999999999999,141.39999999999998 123.89999999999999,142.45 123.55,142.1 124.24999999999999,141.04999999999998 124.94999999999999,141.75 124.24999999999999,143.14999999999998 124.94999999999999,144.54999999999998 124.24999999999999,148.39999999999998 124.6,146.64999999999998 125.3,146.29999999999998 124.6,145.6 124.94999999999999,144.54999999999998 124.24999999999999,143.14999999999998 125.3,141.75 123.55,140.0 122.49999999999999,140.7 124.24999999999999,140.7 123.55,142.1 121.8,141.39999999999998 120.74999999999999,142.45 118.64999999999999,142.1 117.94999999999999,142.79999999999998 108.5,144.89999999999998 105.69999999999999,146.29999999999998 103.6,145.95 101.14999999999999,147.35 98.0,147.7 94.14999999999999,145.95 92.75,144.54999999999998 92.05,142.45 89.25,138.25" stroke="#aaa" stroke-width="1" /><polyline fill="none" points="149.1,135.45 151.2,135.79999999999998 152.95,135.1 151.54999999999998,135.1 150.85,135.79999999999998 149.79999999999998,135.1 150.85,134.04999999999998 151.89999999999998,134.39999999999998 153.64999999999998,132.65 152.95,133.0 151.54999999999998,131.6 152.25,130.9 154.0,131.95 155.39999999999998,133.7 156.45,133.7 158.2,135.45 159.95,136.14999999999998 170.79999999999998,137.54999999999998 174.64999999999998,137.2 178.5,138.25 179.54999999999998,137.54999999999998 181.64999999999998,137.89999999999998 186.89999999999998,136.85 189.0,135.79999999999998 189.0,135.1 192.5,131.95 189.35,134.39999999999998 189.0,133.7 189.0,135.1 187.95,134.04999999999998 188.29999999999998,133.35 186.89999999999998,134.75 185.85,134.39999999999998 184.1,135.1 185.85,134.39999999999998 186.89999999999998,134.75 187.95,134.04999999999998 189.0,135.1 188.64999999999998,135.79999999999998 186.54999999999998,136.85 181.64999999999998,137.89999999999998 179.2,137.54999999999998 178.5,138.25 174.64999999999998,137.2 170.79999999999998,137.54999999999998 168.0,136.85 161.35,136.5 158.54999999999998,135.45 156.79999999999998,133.7 155.75,133.7 154.35,131.95 152.25,130.9 151.54999999999998,129.15 151.89999999999998,128.79999999999998 152.95,129.85 150.85,128.45 150.5,127.05 150.5,128.1 152.25,130.9 151.54999999999998,131.6 151.2,131.25 152.95,133.0 152.25,133.7 150.14999999999998,132.65 150.85,134.04999999999998" stroke="#aaa" stroke-width="1" /><polyline fill="none" points="111.3,146.29999999999998 111.3,147.0 112.69999999999999,148.39999999999998 113.05,147.7 114.1,148.39999999999998 113.39999999999999,147.35 114.1,146.29999999999998 113.39999999999999,147.0 112.0,145.95" stroke="#aaa" stroke-width="1" /><polyline fill="none" points="157.5,121.44999999999999 158.89999999999998,121.8 159.6,120.74999999999999 160.64999999999998,120.39999999999999 162.39999999999998,122.49999999999999 163.1,122.14999999999999 163.1,121.44999999999999 162.04999999999998,120.39999999999999 162.39999999999998,119.69999999999999 163.45,120.74999999999999 163.79999999999998,120.05 164.85,120.74999999999999 164.14999999999998,120.05 163.45,120.39999999999999 162.39999999999998,119.35 162.04999999999998,120.74999999999999 161.35,121.1 160.64999999999998,120.39999999999999 161.0,119.35 160.29999999999998,118.99999999999999 160.64999999999998,119.35 159.95,119.69999999999999 160.64999999999998,119.35 160.64999999999998,120.39999999999999 158.2,120.39999999999999" stroke="#aaa" stroke-width="1" /><polyline fill="none" points="172.89999999999998,165.54999999999998 171.14999999999998,164.14999999999998 172.54999999999998,164.14999999999998 171.85,163.79999999999998 171.85,163.1 168.35,166.25 167.29999999999998,165.2 168.7,163.79999999999998 168.0,162.39999999999998 168.7,161.7 169.39999999999998,162.04999999999998 167.29999999999998,159.25 169.04999999999998,158.89999999999998 167.29999999999998,158.89999999999998 168.7,161.7 168.0,162.39999999999998 168.35,164.14999999999998 166.6,165.54999999999998 165.2,164.85 161.7,165.54999999999998 159.6,164.5 157.14999999999998,165.2 154.35,164.5 151.54999999999998,165.2 147.7,164.5 144.54999999999998,165.54999999999998 143.5,164.85 142.1,164.85 141.04999999999998,163.45 141.75,164.5 141.39999999999998,164.85 143.5,164.85 143.5,165.54999999999998 138.6,165.89999999999998 138.6,165.2 140.7,165.2 138.25,165.2 138.25,165.89999999999998 143.85,165.89999999999998 143.85,165.2 145.95,165.2 146.29999999999998,165.54999999999998 145.25,166.25 148.39999999999998,165.2 147.7,165.2 147.7,164.5 149.1,164.5 149.79999999999998,165.2 149.1,165.54999999999998 151.2,164.85 151.54999999999998,165.2 149.79999999999998,166.95 148.39999999999998,166.95 149.79999999999998,166.95 151.89999999999998,164.85 154.35,164.5 155.04999999999998,165.2 158.54999999999998,165.2 158.2,164.85 159.25,164.5 161.7,165.54999999999998 165.2,164.85 165.89999999999998,165.54999999999998 167.29999999999998,165.2 168.0,166.25 168.7,166.25 171.14999999999998,164.14999999999998" stroke="#aaa" stroke-width="1" /><polyline fill="none" points="115.14999999999999,118.3 114.8,120.05 115.49999999999999,120.74999999999999 114.8,121.44999999999999 115.85,121.8 115.85,118.64999999999999" stroke="#aaa" stroke-width="1" /><polyline fill="none" points="156.45,114.44999999999999 158.54999999999998,116.19999999999999 159.25,115.85 162.39999999999998,116.89999999999999 163.1,116.19999999999999 162.75,115.14999999999999 161.35,115.14999999999999 159.25,112.69999999999999 159.6,113.05 157.85,114.8" stroke="#aaa" stroke-width="1" /><polyline fill="none" points="122.49999999999999,138.25 121.8,139.29999999999998 120.74999999999999,139.29999999999998 118.99999999999999,140.35 116.19999999999999,141.04999999999998 112.0,141.04999999999998 110.94999999999999,142.1 109.55,141.75 108.85,142.45 108.14999999999999,142.1 106.75,143.14999999999998 105.69999999999999,142.79999999999998 103.6,143.85 102.55,143.85 102.19999999999999,142.79999999999998 101.14999999999999,144.2 99.75,143.14999999999998 99.05,143.85 98.35,143.14999999999998 97.3,143.14999999999998 93.8,139.64999999999998 96.94999999999999,143.14999999999998 98.0,143.14999999999998 98.35,143.85 99.75,143.14999999999998 101.14999999999999,144.2 103.94999999999999,143.85 105.69999999999999,142.79999999999998 106.39999999999999,143.5 108.14999999999999,142.1 110.94999999999999,142.1 113.74999999999999,140.7 118.99999999999999,140.7 120.05,139.64999999999998 122.14999999999999,139.29999999999998" stroke="#aaa" stroke-width="1" /><polyline fill="none" points="107.1,149.45 107.8,150.5 109.89999999999999,151.54999999999998 108.5,152.6 107.8,151.2 107.44999999999999,151.89999999999998 108.85,152.95 108.14999999999999,153.29999999999998 112.0,152.95 113.05,151.89999999999998 110.25,151.89999999999998" stroke="#aaa" stroke-width="1" /><polyline fill="none" points="147.7,107.44999999999999 146.64999999999998,110.94999999999999 146.64999999999998,114.1 148.04999999999998,117.24999999999999 148.04999999999998,118.64999999999999 152.25,125.3 156.1,129.15 159.6,131.25 162.75,132.29999999999998 170.1,133.0 171.5,132.65 172.2,133.35 172.2,134.39999999999998 170.79999999999998,134.75 170.45,134.04999999999998 170.45,134.75 173.95,134.75 176.75,135.45 183.39999999999998,135.1 184.45,133.7 183.04999999999998,132.65 184.79999999999998,131.6 186.2,133.0 184.79999999999998,131.6 185.5,130.9 182.35,133.35 180.6,133.0 182.0,133.7 183.04999999999998,133.0 184.45,133.7 183.04999999999998,135.1 176.75,135.45 176.04999999999998,134.75 174.29999999999998,134.75 175.35,133.7 173.25,133.7 174.29999999999998,134.39999999999998 172.54999999999998,134.75 171.5,132.65 164.5,132.65 161.7,131.95 155.39999999999998,128.1 156.45,125.99999999999999 157.5,126.69999999999999 156.79999999999998,125.99999999999999 157.14999999999998,125.3 156.79999999999998,125.99999999999999 156.1,125.3 157.85,123.55 158.89999999999998,124.6 158.89999999999998,125.3 158.54999999999998,123.89999999999999 159.25,123.19999999999999 160.29999999999998,124.24999999999999 159.6,124.94999999999999 160.29999999999998,124.24999999999999 163.45,123.89999999999999 165.54999999999998,125.99999999999999 167.29999999999998,125.64999999999999 168.35,127.05 168.0,125.99999999999999 166.95,125.3 165.89999999999998,125.99999999999999 163.45,123.89999999999999 160.64999999999998,124.24999999999999 158.89999999999998,122.49999999999999 159.25,123.19999999999999 158.54999999999998,123.89999999999999 157.5,123.55 156.1,124.94999999999999 156.45,125.99999999999999 155.39999999999998,128.1 152.25,124.94999999999999 148.04999999999998,118.3 146.64999999999998,114.1 146.64999999999998,110.94999999999999 147.7,107.8 150.14999999999998,105.0 153.29999999999998,103.25 153.64999999999998,103.94999999999999 155.04999999999998,102.89999999999999 156.79999999999998,103.25 156.1,104.3 155.04999999999998,104.3 154.35,105.0 153.64999999999998,104.64999999999999 154.7,105.0 155.75,104.3 156.1,105.0 153.29999999999998,107.8 152.95,107.44999999999999 152.6,108.5 156.1,105.35 156.1,104.3 156.79999999999998,103.6 158.54999999999998,103.94999999999999 159.6,105.0 160.29999999999998,104.3 161.7,104.3 162.39999999999998,105.0 161.35,105.69999999999999 161.0,105.35 161.7,105.69999999999999 163.79999999999998,104.3 166.25,104.3 168.0,103.6 162.39999999999998,105.0 161.7,104.3 159.6,104.64999999999999 156.45,102.89999999999999 157.5,102.19999999999999 161.0,101.5 163.45,102.89999999999999 168.0,102.89999999999999 162.75,102.55 161.0,101.5 162.39999999999998,100.44999999999999 165.54999999999998,99.75 169.04999999999998,99.75 170.1,101.14999999999999 168.7,101.85 167.29999999999998,101.14999999999999 164.14999999999998,101.14999999999999 167.29999999999998,101.14999999999999 169.04999999999998,101.85 170.1,101.5 170.45,100.44999999999999 171.85,101.14999999999999 170.79999999999998,101.5 171.85,101.5 171.85,100.8 169.04999999999998,99.75 165.54999999999998,99.75 162.39999999999998,100.44999999999999 161.0,101.5 157.14999999999998,102.19999999999999 156.1,102.89999999999999 155.04999999999998,102.55 151.54999999999998,104.3 150.85,103.94999999999999" stroke="#aaa" stroke-width="1" /><polyline fill="none" points="163.1,107.1 161.7,106.39999999999999 162.39999999999998,106.75 161.35,107.44999999999999 160.64999999999998,106.05 159.6,105.69999999999999 158.2,107.1 157.85,106.39999999999999 156.79999999999998,106.39999999999999 154.0,110.25 151.2,112.35 150.14999999999998,111.64999999999999 150.85,109.89999999999999 152.95,109.89999999999999 152.6,109.19999999999999 151.54999999999998,109.89999999999999 151.2,108.85 150.14999999999998,110.94999999999999 150.85,112.35 149.79999999999998,113.05 148.75,112.0 148.75,108.5 148.75,112.35 149.79999999999998,113.05 153.64999999999998,110.94999999999999 154.7,108.85 157.14999999999998,106.39999999999999 158.2,107.1 157.5,108.14999999999999 159.95,106.05 160.64999999999998,106.39999999999999 160.29999999999998,108.14999999999999 160.64999999999998,107.1 161.35,107.44999999999999 161.0,108.14999999999999 161.7,107.8 161.7,107.1" stroke="#aaa" stroke-width="1" /><polyline fill="none" points="107.8,111.3 109.55,110.94999999999999 110.25,112.0 111.3,112.35 110.25,112.69999999999999 113.74999999999999,114.8 112.0,116.19999999999999 110.25,115.85 112.0,116.19999999999999 110.94999999999999,117.6 111.64999999999999,117.6 111.3,118.3 108.14999999999999,118.64999999999999 107.44999999999999,119.35 108.14999999999999,118.64999999999999 111.3,118.3 112.0,117.24999999999999 111.64999999999999,116.89999999999999 113.74999999999999,114.8 113.74999999999999,115.85 115.14999999999999,114.8 116.55,115.85 116.19999999999999,116.19999999999999 116.55,115.85 118.64999999999999,117.24999999999999 117.94999999999999,117.6 118.64999999999999,117.6 118.64999999999999,116.89999999999999 115.49999999999999,114.8 116.89999999999999,112.69999999999999 114.8,115.14999999999999 114.1,115.14999999999999 113.39999999999999,114.44999999999999 114.1,114.1 109.89999999999999,110.94999999999999" stroke="#aaa" stroke-width="1" /><polyline fill="none" points="170.1,120.39999999999999 170.1,122.85 170.79999999999998,121.44999999999999 173.6,122.85 172.54999999999998,122.14999999999999 172.89999999999998,121.1" stroke="#aaa" stroke-width="1" /><polyline fill="none" points="147.7,102.89999999999999 146.64999999999998,103.25 145.95,104.64999999999999 142.79999999999998,99.39999999999999 143.85,97.3 144.54999999999998,96.94999999999999 144.89999999999998,98.35 144.89999999999998,97.3 143.85,96.25 144.54999999999998,96.94999999999999 143.14999999999998,97.64999999999999 142.45,99.05 144.2,101.85 143.14999999999998,102.55 144.2,102.19999999999999 144.54999999999998,102.89999999999999 143.14999999999998,104.3 138.95,105.0 137.2,106.75 136.5,106.05 136.5,105.0 137.89999999999998,103.6 140.0,103.25 138.25,103.6 137.89999999999998,102.89999999999999 136.85,102.89999999999999 135.79999999999998,103.6 135.79999999999998,104.3 136.85,102.89999999999999 137.89999999999998,103.25 136.14999999999998,105.35 133.0,105.69999999999999 131.25,102.55 130.2,103.25 129.15,102.19999999999999 129.85,101.85 129.15,100.44999999999999 129.85,101.5 129.15,102.19999999999999 128.45,101.5 127.39999999999999,102.19999999999999 125.64999999999999,100.8 125.99999999999999,100.1 125.64999999999999,101.14999999999999 127.05,102.55 128.45,101.5 130.2,103.6 128.1,105.69999999999999 123.19999999999999,105.35 127.39999999999999,105.35 128.1,106.05 128.1,107.44999999999999 128.1,105.69999999999999 129.15,105.0 130.9,106.05 130.2,106.75 130.9,107.44999999999999 130.2,107.1 130.9,106.05 132.29999999999998,106.39999999999999 130.2,105.69999999999999 129.5,104.3 130.2,103.6 130.9,103.94999999999999 130.2,103.25 131.25,102.55 131.95,103.25 132.29999999999998,105.35 136.14999999999998,105.35 136.5,106.39999999999999 137.54999999999998,106.75 138.95,105.0 143.5,104.3 144.89999999999998,102.89999999999999 145.25,103.6 143.5,105.35 141.39999999999998,105.69999999999999 141.75,106.75 143.85,107.1 146.29999999999998,105.35 146.29999999999998,103.94999999999999" stroke="#aaa" stroke-width="1" /><polyline fill="none" points="173.95,112.0 172.89999999999998,110.94999999999999 169.04999999999998,111.64999999999999 168.7,111.3 168.0,112.35 168.7,111.3 169.04999999999998,111.64999999999999 172.2,110.94999999999999 173.95,112.35 173.25,113.39999999999999 172.89999999999998,112.69999999999999 171.5,113.05 171.85,113.74999999999999 171.85,112.69999999999999 173.25,113.39999999999999 171.85,114.8 169.39999999999998,114.44999999999999 168.0,113.74999999999999 166.6,112.0 168.7,110.25 169.39999999999998,110.6 171.14999999999998,109.19999999999999 171.5,109.55 171.85,108.85 169.75,110.25 169.39999999999998,109.55 172.2,107.8 170.45,108.5 168.7,110.25 168.0,109.89999999999999 168.0,110.94999999999999 164.85,108.14999999999999 164.14999999999998,108.14999999999999 164.14999999999998,107.44999999999999 163.79999999999998,108.5 166.25,110.6 165.2,109.55 166.25,109.19999999999999 167.64999999999998,110.6 166.95,110.94999999999999 167.64999999999998,111.3 166.6,112.0 165.2,111.3 166.25,112.35 164.5,113.39999999999999 163.1,113.05 161.35,111.3 159.6,110.94999999999999 156.79999999999998,113.39999999999999 156.1,113.05 155.39999999999998,113.74999999999999 152.6,113.74999999999999 148.75,117.24999999999999 149.45,117.24999999999999 150.85,115.49999999999999 151.2,115.85 150.85,115.49999999999999 151.54999999999998,114.8 152.25,115.14999999999999 151.89999999999998,114.8 152.95,113.74999999999999 155.39999999999998,113.74999999999999 156.1,113.05 156.79999999999998,113.39999999999999 159.95,110.94999999999999 161.0,111.3 161.7,112.35 161.0,113.39999999999999 161.35,114.1 161.35,112.69999999999999 162.04999999999998,112.35 162.75,113.05 162.39999999999998,113.39999999999999 164.14999999999998,113.05 164.5,114.44999999999999 164.85,113.39999999999999 165.2,114.8 165.89999999999998,114.8 166.25,114.1 165.54999999999998,114.8 165.54999999999998,113.74999999999999 164.85,113.39999999999999 165.89999999999998,113.05 166.6,112.0 167.64999999999998,113.74999999999999 170.45,114.8 172.89999999999998,114.44999999999999 173.95,113.05" stroke="#aaa" stroke-width="1" /><polyline fill="none" points="111.3,111.3 114.44999999999999,113.05 113.05,112.35 115.85,110.25 114.8,110.6 113.74999999999999,112.0 113.05,111.64999999999999 113.74999999999999,110.94999999999999 113.05,110.6 113.39999999999999,110.25 111.3,110.6" stroke="#aaa" stroke-width="1" /><polyline fill="none" points="99.39999999999999,157.5 100.8,159.6 102.19999999999999,159.25 103.94999999999999,161.0 102.19999999999999,159.25 102.89999999999999,158.54999999999998 106.05,161.35 105.0,160.29999999999998 105.35,159.6 106.75,161.0 108.5,160.29999999999998 108.85,159.6 108.14999999999999,158.89999999999998 106.39999999999999,158.89999999999998 107.8,160.29999999999998 107.1,161.0 101.5,155.75 103.6,157.85 102.19999999999999,159.25 100.44999999999999,157.5" stroke="#aaa" stroke-width="1" /><polyline fill="none" points="104.64999999999999,162.39999999999998 104.64999999999999,163.1 106.05,164.5 105.0,165.54999999999998 105.0,166.25 105.69999999999999,166.95 106.39999999999999,166.6 105.69999999999999,164.85 106.39999999999999,164.5 108.14999999999999,166.6 107.8,167.29999999999998 108.14999999999999,166.95 108.85,167.64999999999998 107.44999999999999,165.54999999999998 108.14999999999999,165.2 109.19999999999999,166.6 109.19999999999999,165.89999999999998 108.5,165.2 107.44999999999999,165.54999999999998 104.64999999999999,163.1" stroke="#aaa" stroke-width="1" /><polyline fill="none" points="129.5,114.8 127.74999999999999,110.25 125.3,107.8 120.74999999999999,106.39999999999999 117.24999999999999,106.39999999999999 115.85,105.69999999999999 112.35,105.35 110.94999999999999,106.05 106.75,105.69999999999999 105.0,106.39999999999999 102.55,106.39999999999999 101.5,107.1 97.64999999999999,107.44999999999999 95.19999999999999,109.19999999999999 93.8,109.19999999999999 92.75,109.89999999999999 89.6,109.89999999999999 88.19999999999999,110.6 88.19999999999999,111.3 90.3,112.69999999999999 88.89999999999999,111.64999999999999 90.64999999999999,110.94999999999999 90.3,110.6 91.0,109.89999999999999 95.55,109.19999999999999 96.6,108.14999999999999 99.05,107.1 101.85,107.1 102.89999999999999,106.39999999999999 107.1,105.69999999999999 110.6,105.69999999999999 111.3,106.39999999999999 110.94999999999999,106.05 112.35,105.35 115.85,105.69999999999999 117.24999999999999,106.39999999999999 120.74999999999999,106.39999999999999 124.94999999999999,107.8 127.74999999999999,110.6 129.15,114.8 128.1,115.85 126.35,113.39999999999999 127.39999999999999,112.69999999999999 127.39999999999999,111.64999999999999 127.39999999999999,112.35 126.35,113.39999999999999 125.3,112.35 122.85,112.0 124.24999999999999,112.0 126.35,113.39999999999999 127.74999999999999,115.85 128.45,115.85" stroke="#aaa" stroke-width="1" /><polyline fill="none" points="159.95,98.69999999999999 158.54999999999998,98.0 156.79999999999998,98.35 155.39999999999998,99.39999999999999 155.39999999999998,100.1 157.14999999999998,101.14999999999999 158.54999999999998,101.14999999999999 159.95,100.44999999999999" stroke="#aaa" stroke-width="1" /><polyline fill="none" points="186.54999999999998,108.85 187.95,112.35 187.6,113.05 188.29999999999998,113.39999999999999 188.29999999999998,115.14999999999999 186.89999999999998,116.19999999999999 186.89999999999998,115.14999999999999 186.2,115.85 185.14999999999998,115.85 183.39999999999998,114.44999999999999 179.89999999999998,113.74999999999999 178.14999999999998,112.69999999999999 179.89999999999998,113.74999999999999 183.04999999999998,114.44999999999999 186.54999999999998,117.24999999999999 185.85,117.94999999999999 184.1,118.3 183.39999999999998,117.24999999999999 183.39999999999998,118.3 182.35,117.6 183.04999999999998,118.3 186.2,117.6 187.6,118.3 185.85,123.89999999999999 180.6,130.2 179.2,127.39999999999999 179.89999999999998,128.79999999999998 179.2,129.85 178.14999999999998,128.1 178.85,129.15 178.5,129.85 179.89999999999998,129.5 180.6,130.2 179.54999999999998,131.25 178.5,130.54999999999998 174.64999999999998,132.29999999999998 172.54999999999998,131.95 172.2,132.29999999999998 174.64999999999998,132.29999999999998 172.89999999999998,133.0 173.95,133.35 175.0,131.95 176.39999999999998,131.95 178.14999999999998,130.9 179.89999999999998,131.25 185.5,124.6 187.6,118.64999999999999 189.0,117.94999999999999 189.0,116.89999999999999 188.64999999999998,118.3 187.6,117.94999999999999 188.29999999999998,113.39999999999999" stroke="#aaa" stroke-width="1" /><polyline fill="none" points="87.5,129.15 87.5,130.2 87.85,129.85 88.55,130.9 88.55,129.85 89.25,129.5 89.6,130.54999999999998 89.25,129.5 89.94999999999999,128.79999999999998 90.64999999999999,129.15 91.35,131.25 93.8,134.39999999999998 94.14999999999999,136.14999999999998 95.55,136.85 94.85,137.54999999999998 95.89999999999999,136.85 96.6,137.89999999999998 95.55,138.25 96.25,138.25 97.3,139.29999999999998 98.69999999999999,138.95 97.64999999999999,137.89999999999998 98.69999999999999,136.5 102.55,136.5 100.1,136.5 99.75,135.79999999999998 101.5,135.79999999999998 101.14999999999999,135.45 97.3,135.1 98.35,135.45 97.3,136.14999999999998 93.44999999999999,131.95 92.05,129.5 92.05,128.45 90.64999999999999,127.39999999999999 89.6,127.39999999999999 91.0,127.74999999999999 92.05,128.79999999999998 93.8,132.65 96.94999999999999,136.14999999999998 98.35,135.45 99.75,135.79999999999998 97.64999999999999,137.2 97.64999999999999,138.25 98.69999999999999,138.95 97.3,139.29999999999998 96.6,138.6 96.94999999999999,137.2 94.14999999999999,135.79999999999998 94.14999999999999,134.04999999999998 93.8,134.39999999999998 90.64999999999999,129.15 89.6,128.1 89.94999999999999,128.79999999999998 88.55,129.85 87.5,129.5 88.19999999999999,128.79999999999998" stroke="#aaa" stroke-width="1" /><polyline fill="none" points="171.85,97.3 171.5,96.6 170.1,96.6 169.04999999999998,97.3 167.29999999999998,97.3 166.6,98.0 165.89999999999998,97.64999999999999 166.25,97.3 165.2,98.0 160.64999999999998,98.35 165.54999999999998,97.64999999999999 166.6,98.0 167.29999999999998,97.3 168.7,97.3 170.1,99.39999999999999 170.45,98.0" stroke="#aaa" stroke-width="1" /><polyline fill="none" points="115.49999999999999,91.0 117.6,92.75 117.24999999999999,93.44999999999999 115.85,92.05 117.24999999999999,93.44999999999999 116.89999999999999,94.14999999999999 117.24999999999999,93.44999999999999 118.3,93.8 119.35,92.75 120.05,93.44999999999999 119.69999999999999,94.14999999999999 120.05,93.44999999999999 122.49999999999999,95.19999999999999 126.69999999999999,95.55 128.79999999999998,98.35 127.05,95.89999999999999 127.05,94.85 125.99999999999999,94.5 125.3,95.19999999999999 122.85,95.19999999999999 119.35,92.75 117.94999999999999,93.8 116.19999999999999,91.35 116.89999999999999,90.64999999999999 119.69999999999999,92.05 120.05,91.35 119.35,90.64999999999999 120.05,91.35 119.69999999999999,92.05 118.64999999999999,91.0 117.6,91.0 116.89999999999999,89.94999999999999 116.19999999999999,91.35" stroke="#aaa" stroke-width="1" /><polyline fill="none" points="173.25,96.25 166.95,91.35 165.54999999999998,91.35 164.5,90.64999999999999 166.6,89.25 167.64999999999998,89.6 168.35,88.89999999999999 167.29999999999998,89.6 166.6,89.25 167.64999999999998,88.19999999999999 168.7,88.19999999999999 168.0,88.19999999999999 167.64999999999998,87.5 165.2,90.3 163.1,90.64999999999999 162.75,92.39999999999999 160.64999999999998,91.35 159.95,91.69999999999999 158.54999999999998,90.64999999999999 161.0,89.94999999999999 159.6,89.94999999999999 158.54999999999998,90.64999999999999 155.04999999999998,90.3 154.0,91.35 151.54999999999998,91.0 150.5,91.69999999999999 148.75,91.69999999999999 145.95,93.8 144.54999999999998,93.44999999999999 145.6,93.8 145.25,94.5 144.54999999999998,94.5 145.95,94.85 145.25,95.55 144.2,95.55 145.25,95.55 145.95,94.85 146.64999999999998,95.55 145.6,94.14999999999999 146.29999999999998,93.44999999999999 147.35,93.8 147.0,93.44999999999999 149.1,91.69999999999999 150.14999999999998,92.05 151.54999999999998,91.0 154.0,91.35 155.39999999999998,90.3 157.85,90.3 162.04999999999998,92.39999999999999 163.1,92.39999999999999 163.45,90.64999999999999 166.95,91.35 166.95,92.39999999999999 167.64999999999998,92.05" stroke="#aaa" stroke-width="1" /><polyline fill="none" points="158.54999999999998,187.6 157.14999999999998,188.29999999999998 156.1,187.95 155.75,188.64999999999998 156.45,189.35 157.5,189.35 158.54999999999998,188.64999999999998" stroke="#aaa" stroke-width="1" /><polyline fill="none" points="86.8,119.69999999999999 85.75,121.44999999999999 85.39999999999999,124.24999999999999 86.1,125.3 86.1,126.69999999999999 86.8,127.74999999999999 87.85,128.1 89.25,126.35 89.94999999999999,126.35 88.89999999999999,125.99999999999999 89.6,125.3 90.3,125.64999999999999 88.55,125.64999999999999" stroke="#aaa" stroke-width="1" /><polyline fill="none" points="171.14999999999998,98.69999999999999 173.95,98.35 174.29999999999998,99.05 177.1,99.39999999999999 178.14999999999998,98.35 179.89999999999998,100.44999999999999 179.2,99.75 179.89999999999998,98.0 178.85,97.64999999999999 178.14999999999998,98.35 177.1,97.3 178.85,96.6 177.79999999999998,96.6 176.39999999999998,97.64999999999999 175.7,97.64999999999999 174.64999999999998,96.6 173.6,97.3 172.2,96.6 172.89999999999998,97.3 177.1,97.3 178.14999999999998,98.35 177.1,99.39999999999999 174.64999999999998,99.05 173.95,98.0" stroke="#aaa" stroke-width="1" /><polyline fill="none" points="147.35,81.89999999999999 149.1,81.55 149.79999999999998,82.25 149.1,82.94999999999999 148.04999999999998,82.94999999999999 149.1,82.94999999999999 150.5,81.89999999999999 151.89999999999998,82.94999999999999 153.64999999999998,82.94999999999999 154.0,83.3 152.95,84.35 154.0,84.69999999999999 154.7,84.0 156.45,85.75 154.7,84.0 155.39999999999998,82.94999999999999 153.29999999999998,84.69999999999999 152.95,84.35 154.35,82.94999999999999 152.25,82.94999999999999 150.5,81.89999999999999 150.85,81.19999999999999 152.6,82.25 153.29999999999998,81.89999999999999 150.5,80.85 151.2,80.14999999999999 148.75,81.89999999999999" stroke="#aaa" stroke-width="1" /><polyline fill="none" points="159.95,79.8 159.6,80.5 161.35,82.25 160.64999999999998,82.6 159.95,81.89999999999999 158.2,81.89999999999999 159.6,81.89999999999999 161.7,84.35 162.75,86.44999999999999 162.39999999999998,87.85 163.1,88.19999999999999 162.75,88.89999999999999 161.7,88.55 163.1,88.89999999999999 163.1,88.19999999999999 163.79999999999998,87.85 164.5,88.89999999999999 164.5,87.5 163.45,87.14999999999999 163.79999999999998,86.1 163.1,85.39999999999999 163.79999999999998,87.5 163.1,88.19999999999999 162.39999999999998,87.5 162.75,86.44999999999999 160.64999999999998,82.94999999999999 161.35,82.6 161.35,80.5" stroke="#aaa" stroke-width="1" /><polyline fill="none" points="75.94999999999999,136.85 76.3,141.04999999999998 77.0,142.1 77.35,145.25 78.39999999999999,146.64999999999998 78.39999999999999,149.79999999999998 78.75,149.1 79.44999999999999,149.1 79.44999999999999,146.29999999999998 78.39999999999999,144.54999999999998 78.75,144.2 78.39999999999999,144.54999999999998 79.44999999999999,146.29999999999998 79.44999999999999,148.75 78.39999999999999,148.75 78.39999999999999,146.64999999999998 77.35,145.25 76.64999999999999,141.75 77.69999999999999,141.04999999999998 82.25,145.95 81.19999999999999,147.0 80.5,146.64999999999998 81.19999999999999,147.0 81.19999999999999,148.04999999999998 82.25,148.39999999999998 82.25,149.1 82.94999999999999,148.75 85.39999999999999,151.54999999999998 85.39999999999999,154.0 86.1,154.7 86.44999999999999,156.45 86.1,160.29999999999998 86.8,161.0 86.1,159.95 86.44999999999999,156.45 85.05,150.85 83.3,148.75 83.64999999999999,147.7 83.3,147.35 83.64999999999999,148.04999999999998 82.94999999999999,148.75 81.19999999999999,147.7 81.19999999999999,147.0 82.25,145.95 81.19999999999999,144.89999999999998 81.55,143.5 80.5,142.79999999999998 81.55,143.85 81.19999999999999,144.89999999999998 79.8,142.79999999999998 77.69999999999999,141.04999999999998 79.44999999999999,138.95 80.14999999999999,138.95 79.1,138.95 78.05,140.0 77.69999999999999,139.64999999999998 78.05,140.7 77.0,141.39999999999998 76.3,140.7" stroke="#aaa" stroke-width="1" /><polyline fill="none" points="80.5,149.1 80.14999999999999,149.79999999999998 78.39999999999999,150.5 79.1,151.54999999999998 79.8,155.04999999999998 80.85,156.1 81.19999999999999,158.2 82.6,160.29999999999998 82.6,161.7 83.64999999999999,163.45 83.64999999999999,166.25 84.35,165.89999999999998 85.75,167.64999999999998 87.85,168.7 89.25,170.1 89.25,171.85 89.25,169.75 86.1,167.64999999999998 83.64999999999999,165.2 84.0,163.45 86.8,165.89999999999998 85.39999999999999,164.5 86.1,163.79999999999998 87.14999999999999,164.5 87.5,164.14999999999998 86.44999999999999,163.45 86.1,161.7 84.0,159.95 84.0,157.85 82.6,156.45 81.89999999999999,156.45 84.0,158.2 84.0,159.6 82.94999999999999,158.54999999999998 81.89999999999999,158.89999999999998 81.19999999999999,157.85 81.19999999999999,156.45 79.44999999999999,154.0 78.75,150.5 79.8,149.79999999999998 80.5,150.85 80.5,152.6 81.55,153.64999999999998 82.94999999999999,154.0 82.25,154.0 80.14999999999999,151.89999999999998" stroke="#aaa" stroke-width="1" /><polyline fill="none" points="169.75,188.29999999999998 171.14999999999998,189.0 171.5,190.39999999999998 169.75,192.14999999999998 167.64999999999998,190.39999999999998 167.29999999999998,191.1 168.0,191.79999999999998 167.29999999999998,191.1 167.64999999999998,190.39999999999998 169.39999999999998,191.79999999999998 168.35,192.5 166.6,191.79999999999998 167.29999999999998,192.5 168.35,192.5 168.7,193.2 169.39999999999998,193.2 170.1,191.79999999999998 171.5,192.85 169.04999999999998,194.6 167.29999999999998,198.45 166.25,199.5 166.25,200.54999999999998 165.2,199.85 165.2,198.79999999999998 164.85,199.5 165.54999999999998,200.54999999999998 166.6,200.54999999999998 166.25,199.5 167.29999999999998,198.79999999999998 168.35,196.0 169.04999999999998,196.0 168.7,195.29999999999998 170.45,193.54999999999998 171.85,193.54999999999998 171.5,192.14999999999998 170.45,191.79999999999998 171.5,190.39999999999998 171.14999999999998,188.64999999999998" stroke="#aaa" stroke-width="1" /><polyline fill="none" points="121.8,80.85 118.3,79.8 117.24999999999999,80.5 116.89999999999999,81.89999999999999 114.44999999999999,81.89999999999999 109.55,86.8 111.64999999999999,85.05 112.69999999999999,86.44999999999999 111.3,87.85 110.6,89.6 109.89999999999999,90.3 109.19999999999999,89.94999999999999 109.89999999999999,90.3 113.39999999999999,85.39999999999999 113.05,83.64999999999999 114.8,81.89999999999999 115.49999999999999,82.25 115.85,85.05 115.49999999999999,81.89999999999999 115.85,81.55 116.55,82.25 116.55,84.35 117.24999999999999,84.0 117.6,82.94999999999999 116.89999999999999,84.0 116.55,82.25 118.3,79.8" stroke="#aaa" stroke-width="1" /><polyline fill="none" points="89.25,168.7 90.3,169.04999999999998 91.0,170.1 89.94999999999999,171.14999999999998 90.64999999999999,171.85 91.0,174.29999999999998 90.3,175.0 89.6,173.95 88.89999999999999,174.29999999999998 88.19999999999999,173.25 89.25,175.7 88.55,176.39999999999998 89.6,175.7 92.05,176.39999999999998 91.0,179.89999999999998 91.35,183.39999999999998 90.3,184.45 89.6,184.1 90.64999999999999,185.85 89.94999999999999,184.79999999999998 91.35,183.75 91.0,180.25 91.69999999999999,177.79999999999998 92.39999999999999,177.1 93.44999999999999,177.79999999999998 93.1,180.25 92.05,180.95 93.1,180.95 93.44999999999999,183.39999999999998 93.8,183.04999999999998 94.5,183.75 94.5,185.85 93.44999999999999,187.25 91.35,185.85 91.0,187.95 91.35,188.64999999999998 91.0,186.54999999999998 91.69999999999999,185.85 92.75,187.25 92.39999999999999,187.95 93.1,187.25 93.44999999999999,187.6 92.75,189.0 92.05,188.64999999999998 92.05,190.04999999999998 92.39999999999999,189.0 93.8,191.1 92.75,192.14999999999998 92.75,193.89999999999998 93.44999999999999,194.25 92.75,193.54999999999998 92.75,192.5 93.8,191.1 97.3,194.25 97.64999999999999,195.64999999999998 98.0,194.6 97.64999999999999,194.95 95.19999999999999,191.79999999999998 95.55,190.39999999999998 94.85,191.79999999999998 94.14999999999999,191.1 94.85,189.7 93.8,190.75 92.75,189.0 94.5,185.85 94.5,183.75 95.19999999999999,183.39999999999998 94.14999999999999,183.39999999999998 92.75,180.6 93.44999999999999,177.45 91.69999999999999,175.7 90.64999999999999,175.7 91.0,172.54999999999998 90.3,171.14999999999998 91.35,170.1 90.64999999999999,169.04999999999998 91.0,168.7" stroke="#aaa" stroke-width="1" /><polyline fill="none" points="144.89999999999998,73.85 149.1,74.19999999999999 150.14999999999998,75.6 149.79999999999998,76.3 149.79999999999998,74.89999999999999 150.5,74.55 150.85,75.25 150.85,74.55 149.1,74.19999999999999 149.79999999999998,73.5 152.6,73.5 153.64999999999998,75.25 155.75,77.0 155.39999999999998,77.69999999999999 155.75,77.35 158.54999999999998,80.14999999999999 158.89999999999998,79.44999999999999 158.54999999999998,78.39999999999999 159.6,77.0 158.89999999999998,77.35 158.54999999999998,79.8 155.75,77.35 155.75,76.64999999999999 155.04999999999998,76.3 155.39999999999998,75.6 153.64999999999998,72.44999999999999 155.39999999999998,75.6 155.04999999999998,76.3 152.95,73.5 145.95,74.19999999999999 145.25,73.5 146.29999999999998,73.14999999999999 145.25,73.14999999999999" stroke="#aaa" stroke-width="1" /><polyline fill="none" points="123.19999999999999,71.39999999999999 124.24999999999999,72.8 123.55,75.25 123.19999999999999,74.55 123.55,75.6 122.85,76.64999999999999 123.55,76.64999999999999 123.55,77.69999999999999 122.14999999999999,79.44999999999999 121.44999999999999,79.1 120.05,79.44999999999999 120.39999999999999,79.8 123.55,79.8 124.24999999999999,78.75 123.55,78.05 123.89999999999999,77.35 123.19999999999999,76.3 124.24999999999999,74.19999999999999 124.24999999999999,72.8" stroke="#aaa" stroke-width="1" /><polyline fill="none" points="104.3,81.89999999999999 102.19999999999999,83.64999999999999 97.64999999999999,89.6 96.94999999999999,88.89999999999999 97.3,88.55 96.94999999999999,88.89999999999999 97.64999999999999,89.6 94.85,92.05 93.8,94.85 94.85,92.39999999999999 99.05,88.55 100.1,86.44999999999999" stroke="#aaa" stroke-width="1" /><polyline fill="none" points="213.85,122.85 214.89999999999998,127.74999999999999 213.85,129.15 214.2,130.9 213.5,131.6 212.45,130.2 211.39999999999998,130.2 210.7,131.25 211.75,134.04999999999998 211.39999999999998,135.1 211.75,134.04999999999998 211.04999999999998,131.25 212.1,130.2 213.14999999999998,131.6 212.79999999999998,134.75 211.04999999999998,136.5 210.35,135.45 210.7,134.04999999999998 209.64999999999998,132.65 210.0,132.29999999999998 208.95,133.35 209.64999999999998,135.79999999999998 209.29999999999998,136.5 209.64999999999998,135.79999999999998 208.95,133.35 209.64999999999998,132.65 210.7,134.39999999999998 210.35,135.79999999999998 211.04999999999998,136.5 211.04999999999998,140.0 210.35,140.7 210.0,143.14999999999998 209.64999999999998,143.5 208.6,142.1 207.54999999999998,141.75 207.54999999999998,137.89999999999998 208.95,137.2 210.0,137.54999999999998 208.6,136.85 208.25,137.54999999999998 206.5,137.89999999999998 205.79999999999998,136.5 204.39999999999998,137.89999999999998 204.39999999999998,140.35 205.45,141.39999999999998 205.45,143.5 206.85,144.89999999999998 206.85,146.29999999999998 207.54999999999998,144.89999999999998 207.89999999999998,145.6 210.0,143.5 210.0,142.1 211.39999999999998,139.29999999999998 210.7,136.85 212.79999999999998,135.1 212.79999999999998,133.0 213.85,133.0 213.85,135.1 213.14999999999998,135.79999999999998 211.39999999999998,144.54999999999998 210.35,145.95 209.64999999999998,151.89999999999998 208.25,154.0 207.54999999999998,156.79999999999998 205.79999999999998,158.2 205.1,159.6 205.45,163.1 203.0,165.54999999999998 201.95,165.89999999999998 203.0,166.95 201.95,169.04999999999998 200.89999999999998,169.39999999999998 200.2,170.79999999999998 200.2,173.6 200.89999999999998,175.7 199.85,176.75 199.85,177.45 198.79999999999998,177.79999999999998 199.5,178.5 199.85,177.1 201.25,175.7 200.2,173.6 200.2,170.79999999999998 201.6,169.39999999999998 201.6,171.5 202.29999999999998,171.5 201.6,169.39999999999998 203.0,167.29999999999998 202.64999999999998,166.6 203.35,166.25 202.64999999999998,166.6 202.29999999999998,165.89999999999998 203.35,165.54999999999998 206.85,162.04999999999998 207.2,162.75 207.2,161.7 207.89999999999998,161.7 208.25,162.75 208.25,162.04999999999998 206.85,161.35 207.89999999999998,159.95 206.85,161.35 205.45,160.29999999999998 205.79999999999998,158.54999999999998 207.2,157.5 209.64999999999998,151.89999999999998 210.35,146.29999999999998 211.39999999999998,144.54999999999998 212.45,138.95 213.14999999999998,137.89999999999998 213.14999999999998,136.14999999999998 213.85,135.45 214.54999999999998,136.14999999999998 213.85,135.45 213.85,131.6 215.6,129.5 215.25,129.15 214.54999999999998,130.54999999999998 213.85,129.5 214.89999999999998,127.74999999999999 214.2,124.6 214.89999999999998,124.24999999999999" stroke="#aaa" stroke-width="1" /><polyline fill="none" points="147.0,65.1 147.7,66.5 147.0,65.8 147.7,65.1 152.25,68.94999999999999 154.7,69.3 155.75,70.35 155.39999999999998,71.05 161.35,77.0 165.89999999999998,79.8 165.54999999999998,80.5 166.25,79.8 169.04999999999998,80.85 170.45,82.25 172.2,82.6 172.2,81.89999999999999 173.25,81.89999999999999 170.79999999999998,82.25 169.39999999999998,80.85 167.64999999999998,80.5 163.79999999999998,78.39999999999999 159.95,75.25 161.35,74.19999999999999 159.95,75.25 156.45,71.75 156.45,70.35 154.35,68.94999999999999 152.6,68.94999999999999 151.2,67.55 151.54999999999998,66.85 150.85,67.55 148.04999999999998,65.1" stroke="#aaa" stroke-width="1" /><polyline fill="none" points="166.25,67.89999999999999 165.89999999999998,68.94999999999999 172.54999999999998,75.6 172.89999999999998,77.0 172.2,77.69999999999999 172.2,78.75 172.89999999999998,78.75 173.6,77.69999999999999 176.75,80.14999999999999 177.1,81.89999999999999 178.14999999999998,82.94999999999999 178.85,82.94999999999999 179.2,84.69999999999999 180.25,85.39999999999999 179.2,84.35 178.85,82.94999999999999 176.75,80.85 176.75,79.8 177.79999999999998,79.1 176.39999999999998,79.8 172.54999999999998,76.3 172.89999999999998,75.6 166.25,68.94999999999999" stroke="#aaa" stroke-width="1" /><polyline fill="none" points="204.04999999999998,169.75 203.35,169.75 203.7,171.85 202.29999999999998,172.2 201.6,173.25 203.0,176.04999999999998 204.04999999999998,175.7 203.0,173.6 203.7,171.85 203.35,170.1" stroke="#aaa" stroke-width="1" /><polyline fill="none" points="135.1,61.949999999999996 140.0,64.75 142.45,65.45 143.85,66.85 145.25,66.85 148.39999999999998,70.0 151.2,70.0 151.54999999999998,70.69999999999999 152.25,70.69999999999999 150.5,68.94999999999999 149.79999999999998,68.94999999999999 148.39999999999998,67.19999999999999 147.7,67.89999999999999 147.0,67.19999999999999 148.39999999999998,67.89999999999999 148.39999999999998,68.6 148.75,68.25 149.45,68.94999999999999 149.1,69.3 150.14999999999998,68.94999999999999 150.85,69.64999999999999 149.1,70.35 145.95,67.19999999999999 146.29999999999998,66.14999999999999 145.6,67.19999999999999 144.2,66.85 143.14999999999998,65.8" stroke="#aaa" stroke-width="1" /><polyline fill="none" points="98.69999999999999,194.6 98.69999999999999,196.35 97.64999999999999,196.35 96.25,197.39999999999998 96.25,198.79999999999998 95.19999999999999,199.85 95.55,200.89999999999998 94.85,201.95 93.1,201.6 93.44999999999999,200.89999999999998 94.14999999999999,200.89999999999998 93.8,200.54999999999998 92.75,201.95 90.3,199.85 89.94999999999999,198.1 90.64999999999999,197.75 91.0,198.79999999999998 91.0,197.75 89.94999999999999,197.39999999999998 90.3,200.2 93.44999999999999,202.64999999999998 93.44999999999999,204.39999999999998 92.75,205.45 94.14999999999999,204.04999999999998 93.44999999999999,203.7 93.1,202.29999999999998 94.85,201.95 96.6,200.2 97.3,200.2 98.0,201.6 99.05,202.29999999999998 99.05,204.04999999999998 99.05,201.95 97.3,200.2 96.25,200.2 95.55,200.89999999999998 95.19999999999999,199.85 96.6,198.79999999999998 98.0,198.79999999999998 96.94999999999999,199.14999999999998 96.25,197.75 96.94999999999999,197.04999999999998 98.69999999999999,196.7 98.69999999999999,195.29999999999998 99.39999999999999,195.29999999999998" stroke="#aaa" stroke-width="1" /><polyline fill="none" points="71.39999999999999,83.3 71.39999999999999,85.39999999999999 70.35,87.5 70.69999999999999,88.55 69.64999999999999,89.94999999999999 69.3,96.6 70.69999999999999,98.35 70.0,100.44999999999999 71.05,102.19999999999999 70.35,103.25 70.69999999999999,104.64999999999999 70.0,105.35 70.0,106.75 70.69999999999999,106.39999999999999 70.0,106.39999999999999 70.69999999999999,104.64999999999999 71.75,105.69999999999999 71.75,106.75 70.69999999999999,108.5 71.75,109.89999999999999 72.44999999999999,113.05 73.85,115.85 73.5,117.94999999999999 72.44999999999999,118.64999999999999 73.14999999999999,118.99999999999999 72.44999999999999,122.14999999999999 70.69999999999999,124.6 71.05,125.99999999999999 70.69999999999999,124.6 71.39999999999999,123.89999999999999 72.1,124.24999999999999 72.1,126.35 71.75,123.19999999999999 72.8,121.1 73.85,115.85 73.5,114.1 72.44999999999999,113.05 71.75,109.55 70.69999999999999,108.14999999999999 71.75,106.75 72.44999999999999,102.19999999999999 71.75,101.85 72.44999999999999,102.55 72.1,105.0 71.75,105.35 70.69999999999999,104.3 70.35,103.25 71.05,101.85 70.0,100.44999999999999 70.69999999999999,98.35 69.3,96.6 69.64999999999999,89.94999999999999 70.69999999999999,88.89999999999999 70.69999999999999,86.44999999999999 71.75,85.39999999999999 71.75,88.19999999999999 72.1,87.85" stroke="#aaa" stroke-width="1" /><polyline fill="none" points="136.85,56.699999999999996 137.2,59.15 138.25,58.449999999999996 140.35,61.24999999999999 138.25,58.449999999999996 138.95,57.74999999999999" stroke="#aaa" stroke-width="1" /><polyline fill="none" points="98.0,202.64999999999998 98.0,204.39999999999998 97.3,205.1 95.55,205.1 96.25,206.14999999999998 95.19999999999999,206.85 96.6,206.14999999999998 98.69999999999999,206.85 98.0,207.89999999999998 98.69999999999999,211.39999999999998 96.94999999999999,212.45 95.89999999999999,213.85 94.5,213.85 92.75,215.6 92.39999999999999,215.25 90.64999999999999,215.95 92.39999999999999,215.25 93.1,216.64999999999998 94.14999999999999,215.95 94.85,217.35 97.3,215.25 98.0,215.6 96.94999999999999,215.25 96.6,215.95 95.89999999999999,215.25 96.25,214.54999999999998 95.19999999999999,214.89999999999998 95.89999999999999,215.25 94.5,216.29999999999998 93.44999999999999,216.29999999999998 93.1,215.25 94.85,213.85 96.25,213.85 97.3,212.45 98.69999999999999,211.75 98.0,209.29999999999998 98.35,207.54999999999998 99.05,208.25 98.69999999999999,208.6 99.75,208.6 100.1,211.75 99.39999999999999,213.5 100.8,214.54999999999998 99.39999999999999,213.14999999999998 100.1,212.1 100.1,206.5 101.14999999999999,207.54999999999998 101.14999999999999,209.29999999999998 102.19999999999999,212.1 101.14999999999999,209.29999999999998 101.14999999999999,207.54999999999998 100.1,206.5 100.8,205.79999999999998 101.5,206.5 100.8,205.1 100.44999999999999,206.14999999999998 99.39999999999999,205.1 100.1,205.45 99.39999999999999,208.25 98.35,207.54999999999998 98.69999999999999,206.5 97.64999999999999,205.79999999999998 96.25,206.14999999999998 95.55,205.45 98.0,204.75" stroke="#aaa" stroke-width="1" /><polyline fill="none" points="195.64999999999998,191.1 196.35,191.45 196.35,194.95 195.29999999999998,196.35 196.0,195.64999999999998 197.39999999999998,197.04999999999998 196.35,198.45 196.35,200.89999999999998 197.39999999999998,203.35 197.04999999999998,207.2 198.45,208.25 198.79999999999998,209.64999999999998 201.25,212.1 207.2,214.89999999999998 208.25,215.95 211.75,215.25 214.54999999999998,216.64999999999998 215.6,216.29999999999998 216.29999999999998,217.0 217.7,217.0 218.04999999999998,216.64999999999998 215.25,216.64999999999998 211.75,215.25 208.25,215.6 202.64999999999998,212.79999999999998 198.79999999999998,209.29999999999998 197.04999999999998,206.85 197.39999999999998,203.35 196.35,200.89999999999998 196.35,198.45 197.75,197.39999999999998 196.0,195.64999999999998 196.0,192.5 196.7,191.79999999999998 196.35,190.75" stroke="#aaa" stroke-width="1" /><polyline fill="none" points="117.24999999999999,224.7 119.69999999999999,224.7 120.05,225.39999999999998 119.35,226.1 120.05,225.39999999999998 121.8,227.14999999999998 121.1,228.89999999999998 123.55,231.7 121.8,232.74999999999997 118.99999999999999,229.95 118.3,227.85 118.99999999999999,229.95 121.44999999999999,232.74999999999997 123.55,231.7 125.3,233.1 125.3,234.49999999999997 125.99999999999999,234.85 125.3,234.14999999999998 125.99999999999999,233.45 127.05,234.49999999999997 128.45,234.49999999999997 129.15,235.2 128.79999999999998,234.49999999999997 127.05,234.49999999999997 125.64999999999999,233.1 126.69999999999999,232.39999999999998 128.1,233.45 126.69999999999999,232.04999999999998 125.64999999999999,233.1 122.49999999999999,230.64999999999998 121.44999999999999,228.89999999999998 122.14999999999999,226.79999999999998 121.1,226.45 120.05,224.7" stroke="#aaa" stroke-width="1" /><polyline fill="none" points="118.64999999999999,233.45 120.39999999999999,235.2 120.74999999999999,234.49999999999997 122.14999999999999,234.14999999999998 123.89999999999999,232.74999999999997 121.8,234.14999999999998 119.69999999999999,232.39999999999998 118.99999999999999,232.74999999999997 119.35,232.39999999999998 120.05,233.1 119.35,233.79999999999998" stroke="#aaa" stroke-width="1" /><polyline fill="none" points="96.6,219.45 97.3,220.14999999999998 96.94999999999999,220.85 97.64999999999999,221.2 97.3,222.25 96.6,222.25 95.55,221.2 96.25,220.85 94.14999999999999,220.85 94.85,220.85 95.89999999999999,221.89999999999998 95.19999999999999,222.6 94.14999999999999,221.54999999999998 93.1,221.54999999999998 94.85,222.25 95.19999999999999,223.29999999999998 95.89999999999999,221.89999999999998 97.64999999999999,221.89999999999998 98.69999999999999,222.95 97.3,224.7 95.89999999999999,225.39999999999998 95.19999999999999,224.7 95.89999999999999,224.0 96.25,224.35 95.89999999999999,224.0 94.5,225.39999999999998 95.55,226.45 94.85,227.14999999999998 93.44999999999999,226.45 95.55,227.14999999999998 95.19999999999999,226.79999999999998 95.89999999999999,226.45 95.89999999999999,225.39999999999998 96.94999999999999,224.7 99.39999999999999,226.1 99.05,226.79999999999998 98.0,226.79999999999998 98.35,228.54999999999998 99.75,228.54999999999998 100.44999999999999,229.95 99.05,230.29999999999998 99.39999999999999,231.7 98.69999999999999,232.39999999999998 99.75,231.35 100.8,232.04999999999998 100.8,233.45 101.5,233.79999999999998 100.8,234.85 101.85,235.54999999999998 102.55,236.95 102.19999999999999,237.29999999999998 102.89999999999999,237.29999999999998 102.89999999999999,237.99999999999997 101.85,238.7 102.89999999999999,237.99999999999997 103.94999999999999,239.04999999999998 103.94999999999999,240.45 105.35,241.49999999999997 105.69999999999999,242.54999999999998 106.39999999999999,242.54999999999998 103.94999999999999,240.1 103.94999999999999,238.7 104.64999999999999,237.99999999999997 103.94999999999999,238.7 102.19999999999999,236.6 101.85,235.2 101.14999999999999,234.85 101.5,233.45 100.8,233.1 100.8,230.64999999999998 99.39999999999999,226.1 98.69999999999999,225.39999999999998 99.39999999999999,224.7 98.69999999999999,225.39999999999998 97.64999999999999,224.7 98.69999999999999,223.29999999999998 98.69999999999999,222.25 97.64999999999999,221.54999999999998" stroke="#aaa" stroke-width="1" /><polyline fill="none" points="125.99999999999999,236.95 126.35,237.99999999999997 128.1,237.99999999999997 129.5,238.7 127.74999999999999,237.64999999999998 128.45,236.6 130.2,237.64999999999998 131.95,237.64999999999998 135.79999999999998,240.45 134.75,239.04999999999998 132.29999999999998,237.64999999999998 130.54999999999998,237.64999999999998 128.45,236.6" stroke="#aaa" stroke-width="1" /><polyline fill="none" points="115.85,25.2 114.8,25.2 113.74999999999999,26.25 111.64999999999999,26.95 105.69999999999999,22.4 104.3,22.4 102.55,21.349999999999998 96.94999999999999,20.65 95.89999999999999,18.549999999999997 95.19999999999999,18.2 94.5,20.299999999999997 95.55,18.2 96.6,20.65 95.55,22.049999999999997 90.64999999999999,22.75 88.55,24.849999999999998 86.8,24.849999999999998 85.05,26.599999999999998 82.94999999999999,27.65 82.94999999999999,29.4 82.6,28.349999999999998 84.0,26.95 85.39999999999999,26.599999999999998 85.75,27.299999999999997 86.8,27.299999999999997 87.14999999999999,26.25 86.44999999999999,27.299999999999997 85.39999999999999,26.599999999999998 87.14999999999999,24.849999999999998 88.19999999999999,24.849999999999998 88.89999999999999,25.9 88.19999999999999,26.25 87.85,27.65 88.55,27.65 89.6,28.7 88.89999999999999,29.049999999999997 89.25,30.799999999999997 88.89999999999999,29.4 90.3,28.349999999999998 92.75,28.0 94.5,29.4 94.14999999999999,30.099999999999998 92.75,29.4 89.6,29.749999999999996 90.64999999999999,30.45 90.64999999999999,32.9 89.94999999999999,33.25 89.25,32.55 89.94999999999999,32.199999999999996 89.6,31.499999999999996 88.89999999999999,31.499999999999996 89.6,31.849999999999998 89.25,32.55 87.5,31.499999999999996 88.89999999999999,32.55 88.19999999999999,32.9 88.19999999999999,34.3 85.05,36.4 84.35,35.349999999999994 86.1,33.25 86.1,31.849999999999998 86.8,31.15 86.44999999999999,30.099999999999998 87.85,29.4 87.85,28.7 87.14999999999999,28.0 84.35,30.799999999999997 84.35,31.499999999999996 85.05,31.499999999999996 85.75,30.45 85.05,31.15 84.35,30.799999999999997 85.75,29.4 86.44999999999999,30.099999999999998 85.75,33.599999999999994 84.35,35.0 84.35,36.05 85.05,36.4 82.94999999999999,38.849999999999994 82.94999999999999,42.699999999999996 84.0,44.449999999999996 85.39999999999999,45.5 88.55,45.849999999999994 90.64999999999999,47.25 87.5,51.099999999999994 87.5,53.199999999999996 85.39999999999999,56.349999999999994 84.69999999999999,58.449999999999996 83.64999999999999,58.8 83.64999999999999,59.49999999999999 81.89999999999999,60.9 81.89999999999999,61.599999999999994 81.89999999999999,60.9 83.3,60.199999999999996 83.64999999999999,61.24999999999999 81.19999999999999,64.39999999999999 81.55,65.8 79.8,67.89999999999999 79.1,67.89999999999999 77.0,70.0 74.89999999999999,70.69999999999999 74.89999999999999,72.8 74.19999999999999,73.85 73.14999999999999,71.75 73.5,73.14999999999999 74.55,74.19999999999999 74.55,75.25 73.14999999999999,76.3 71.75,76.3 70.0,79.1 69.64999999999999,80.85 71.05,82.6 70.0,83.3 69.3,84.69999999999999 69.3,88.89999999999999 69.3,85.05 71.05,82.6 70.69999999999999,81.55 69.64999999999999,80.85 70.69999999999999,77.69999999999999 72.1,76.3 74.19999999999999,75.94999999999999 74.89999999999999,74.55 76.3,75.25 74.89999999999999,77.0 74.19999999999999,77.0 75.25,77.0 76.3,75.25 75.94999999999999,74.19999999999999 77.35,73.85 76.64999999999999,73.85 75.94999999999999,72.8 77.35,71.05 78.05,71.39999999999999 79.1,73.5 77.69999999999999,71.05 79.8,68.94999999999999 77.0,71.39999999999999 76.3,71.05 76.3,73.5 75.6,74.55 74.19999999999999,73.85 74.89999999999999,73.14999999999999 74.55,71.75 75.25,70.69999999999999 80.14999999999999,67.89999999999999 81.55,65.8 81.89999999999999,66.5 84.0,67.19999999999999 82.25,68.6 81.19999999999999,68.25 82.25,68.6 84.0,67.89999999999999 84.0,66.85 82.94999999999999,66.14999999999999 83.3,65.1 82.6,64.39999999999999 82.6,66.85 81.19999999999999,64.75 83.64999999999999,61.24999999999999 83.64999999999999,59.15 84.35,58.8 85.05,59.849999999999994 84.69999999999999,58.099999999999994 87.14999999999999,54.25 87.5,51.449999999999996 92.75,46.199999999999996 92.39999999999999,45.5 89.94999999999999,46.55 88.89999999999999,45.849999999999994 85.75,45.5 83.3,43.05 82.6,40.599999999999994 82.94999999999999,38.849999999999994 85.75,36.05 88.19999999999999,34.65 88.19999999999999,33.25 88.89999999999999,32.55 91.0,33.599999999999994 91.0,31.499999999999996 90.3,31.499999999999996 90.64999999999999,29.4 92.75,29.4 94.14999999999999,30.099999999999998 94.85,29.4 92.75,28.0 89.6,28.7 88.89999999999999,28.0 89.94999999999999,26.25 90.64999999999999,26.95 92.39999999999999,26.95 90.3,26.599999999999998 90.3,25.549999999999997 92.05,25.2 93.1,24.15 96.6,23.45 100.1,23.799999999999997 101.5,25.2 100.1,26.25 99.05,25.2 95.89999999999999,26.599999999999998 94.14999999999999,26.25 93.44999999999999,26.599999999999998 93.44999999999999,27.65 95.89999999999999,28.0 96.6,28.7 99.39999999999999,27.65 99.75,28.0 99.05,29.049999999999997 99.75,29.049999999999997 99.05,28.7 99.75,28.0 99.05,27.299999999999997 97.3,27.299999999999997 98.69999999999999,27.65 96.6,28.7 95.89999999999999,28.0 93.44999999999999,27.65 93.1,27.299999999999997 94.14999999999999,26.25 95.89999999999999,26.599999999999998 98.35,25.9 99.05,25.2 99.75,26.25 100.44999999999999,26.25 101.5,25.2 102.19999999999999,25.9 103.25,25.9 102.55,25.9 100.44999999999999,23.799999999999997 96.6,23.45 93.1,24.15 91.69999999999999,25.2 89.94999999999999,25.549999999999997 89.25,26.95 88.19999999999999,27.65 87.85,26.95 88.89999999999999,25.9 88.55,25.2 90.64999999999999,22.75 95.89999999999999,22.049999999999997 96.6,20.65 98.69999999999999,20.65 105.35,22.4 111.64999999999999,26.95" stroke="#aaa" stroke-width="1" /><polyline fill="none" points="182.0,37.449999999999996 182.0,38.5 182.7,39.199999999999996 184.79999999999998,39.9 187.6,39.55 190.39999999999998,40.25 192.14999999999998,42.0 193.2,44.099999999999994 198.79999999999998,46.9 198.1,47.25 198.79999999999998,47.599999999999994 198.45,47.949999999999996 199.5,48.65 200.54999999999998,50.75 200.54999999999998,50.05 198.45,47.25 200.2,45.5 199.5,43.05 200.2,45.15 198.79999999999998,46.9 198.79999999999998,45.849999999999994 197.39999999999998,46.199999999999996 192.5,43.05 192.5,41.65 192.14999999999998,42.0 190.75,40.25 192.5,39.199999999999996 192.14999999999998,38.849999999999994 190.04999999999998,38.849999999999994 191.1,39.9 189.0,40.25 187.6,39.55 188.64999999999998,37.8 189.7,38.15 188.29999999999998,37.8 187.25,39.9 185.14999999999998,39.9 183.04999999999998,39.199999999999996 182.0,38.15" stroke="#aaa" stroke-width="1" /><polyline fill="none" points="106.75,31.849999999999998 106.75,32.55 109.19999999999999,34.3 108.85,35.0 108.14999999999999,35.0 106.75,33.949999999999996 107.1,33.599999999999994 106.75,33.949999999999996 107.8,35.0 109.19999999999999,35.0 109.89999999999999,33.949999999999996 109.55,32.55 108.5,31.499999999999996" stroke="#aaa" stroke-width="1" /><polyline fill="none" points="124.24999999999999,251.64999999999998 120.74999999999999,249.54999999999998 120.05,250.24999999999997 121.44999999999999,250.95 122.14999999999999,251.99999999999997 120.39999999999999,253.39999999999998 118.3,254.1 118.64999999999999,255.49999999999997 121.44999999999999,253.39999999999998 122.14999999999999,253.39999999999998 120.39999999999999,253.39999999999998 122.85,251.64999999999998 121.1,250.95 120.39999999999999,250.24999999999997 120.74999999999999,249.54999999999998" stroke="#aaa" stroke-width="1" /><polyline fill="none" points="127.74999999999999,19.95 129.5,21.0 130.9,22.75 131.6,22.75 130.9,22.049999999999997 131.6,21.349999999999998 133.7,23.099999999999998 132.29999999999998,21.7 133.0,20.65 133.7,20.65 134.04999999999998,22.4 135.1,23.45 136.85,23.45 136.5,22.4 138.25,21.0 137.54999999999998,21.0 136.5,22.049999999999997 136.5,23.099999999999998 135.45,23.45 134.04999999999998,22.049999999999997 134.04999999999998,20.65 133.0,20.65 131.95,21.7 130.2,19.95 128.1,19.25 130.2,20.299999999999997 129.5,21.0" stroke="#aaa" stroke-width="1" /><polyline fill="none" points="148.75,257.95 148.04999999999998,258.3 147.35,256.9 146.29999999999998,256.2 144.54999999999998,258.3 145.95,256.55 146.64999999999998,256.55 147.35,257.95 146.29999999999998,257.95 147.7,257.95 148.39999999999998,258.65 147.0,259.7 145.95,259.7 145.25,259.0 145.95,258.65 145.25,258.65 145.95,259.7 147.35,260.4 145.95,260.4 146.64999999999998,260.75 145.25,262.15 144.2,262.15 142.79999999999998,263.2 142.1,263.2 141.75,262.5 141.04999999999998,262.84999999999997 140.35,261.8 138.6,262.15 135.45,259.34999999999997 134.39999999999998,259.0 134.39999999999998,260.4 136.5,260.4 138.25,261.8 138.25,262.5 140.0,261.8 140.35,262.15 138.6,264.25 139.29999999999998,264.95 138.6,264.25 139.64999999999998,263.2 140.35,263.9 141.39999999999998,262.5 141.39999999999998,264.59999999999997 142.79999999999998,265.65 141.39999999999998,264.59999999999997 141.39999999999998,263.55 144.2,262.15 145.6,262.15 146.64999999999998,260.75 147.7,260.75 147.0,259.7 148.39999999999998,258.65 148.75,259.34999999999997" stroke="#aaa" stroke-width="1" /><polyline fill="none" points="169.39999999999998,254.1 171.14999999999998,255.85 171.5,257.59999999999997 173.25,257.25 174.29999999999998,256.2 177.79999999999998,256.55 180.6,255.14999999999998 176.75,256.55 174.64999999999998,256.2 173.6,254.79999999999998 171.14999999999998,255.49999999999997" stroke="#aaa" stroke-width="1" /><polyline fill="none" points="169.04999999999998,17.849999999999998 168.7,17.15 165.54999999999998,17.15 164.14999999999998,18.549999999999997 163.1,18.549999999999997 162.04999999999998,17.849999999999998 163.1,17.15 164.14999999999998,17.5 163.45,16.799999999999997 162.04999999999998,17.849999999999998 156.45,17.849999999999998 155.04999999999998,18.549999999999997 154.7,18.2 151.2,20.299999999999997 150.14999999999998,18.9 147.7,19.25 147.0,18.549999999999997 147.35,18.2 148.04999999999998,18.549999999999997 147.35,18.2 147.0,18.9 147.35,19.599999999999998 149.1,19.25 149.1,20.299999999999997 149.79999999999998,20.299999999999997 149.79999999999998,18.9 151.2,20.65 152.25,19.599999999999998 152.6,20.65 151.2,22.049999999999997 150.5,21.349999999999998 151.54999999999998,22.049999999999997 152.6,21.0 153.29999999999998,21.7 153.29999999999998,22.75 152.95,23.099999999999998 152.25,22.4 152.95,23.45 151.89999999999998,24.5 150.85,24.15 150.85,25.549999999999997 150.14999999999998,26.25 149.45,25.549999999999997 150.14999999999998,26.599999999999998 150.85,26.25 150.5,25.2 151.2,24.5 152.25,24.5 153.29999999999998,23.099999999999998 153.29999999999998,21.349999999999998 152.25,19.599999999999998 152.95,18.9 156.45,17.849999999999998 162.04999999999998,17.849999999999998 162.75,18.549999999999997 164.5,18.2 165.2,18.9 164.5,19.599999999999998 163.1,19.599999999999998 162.75,20.299999999999997 161.7,19.25 158.2,19.25 157.14999999999998,19.95 153.64999999999998,19.599999999999998 154.35,20.299999999999997 154.7,19.599999999999998 162.04999999999998,19.599999999999998 162.75,20.299999999999997 161.0,22.4 163.45,19.599999999999998 165.2,19.25 164.5,18.2 165.2,17.5 168.7,17.5 168.0,18.2 166.25,17.849999999999998 165.89999999999998,18.9 166.25,18.2" stroke="#aaa" stroke-width="1" /><polyline fill="none" points="136.5,14.0 135.45,14.35 135.45,16.45 133.35,18.2 131.95,17.5 131.25,15.749999999999998 130.9,16.099999999999998 129.5,15.049999999999999 130.54999999999998,16.099999999999998 131.25,16.099999999999998 132.29999999999998,17.849999999999998 131.6,20.299999999999997 130.9,19.599999999999998 131.25,18.549999999999997 130.54999999999998,18.9 129.15,17.849999999999998 130.9,19.25 131.25,20.299999999999997 131.95,20.299999999999997 131.95,18.9 132.65,17.849999999999998 133.35,18.549999999999997 134.75,16.799999999999997 136.5,17.15" stroke="#aaa" stroke-width="1" /><polyline fill="none" points="93.44999999999999,241.14999999999998 94.5,243.24999999999997 96.94999999999999,245.7 96.6,246.04999999999998 98.0,248.85 100.1,250.95 100.44999999999999,252.35 106.75,259.7 112.35,263.9 113.39999999999999,263.9 114.8,265.3 117.94999999999999,266.34999999999997 119.35,267.75 120.74999999999999,267.75 127.39999999999999,270.54999999999995 131.6,271.25 132.65,271.95 134.75,271.95 136.85,273.34999999999997 140.35,273.34999999999997 147.7,275.45 166.25,275.45 168.35,274.4 176.39999999999998,273.34999999999997 180.6,271.59999999999997 183.04999999999998,271.59999999999997 185.5,270.2 186.54999999999998,270.2 194.95,266.0 196.0,264.95 197.04999999999998,266.0 196.35,267.05 195.29999999999998,266.7 196.35,267.4 197.04999999999998,266.0 196.35,264.95 197.04999999999998,263.9 200.54999999999998,262.5 202.29999999999998,260.75 203.35,261.09999999999997 201.6,260.75 200.2,259.7 201.6,260.75 200.89999999999998,261.45 199.14999999999998,260.75 198.45,261.09999999999997 198.45,262.15 199.14999999999998,260.75 200.89999999999998,261.8 199.5,262.84999999999997 198.45,262.84999999999997 194.6,266.0 183.04999999999998,271.59999999999997 180.6,271.59999999999997 176.39999999999998,273.34999999999997 168.0,274.4 166.25,275.45 147.7,275.45 145.25,274.4 142.79999999999998,274.4 140.35,273.34999999999997 137.2,273.34999999999997 135.1,271.95 132.65,271.95 131.6,271.25 127.39999999999999,270.54999999999995 125.99999999999999,269.5 119.69999999999999,267.75 117.94999999999999,266.0 117.6,266.34999999999997 115.49999999999999,265.65 114.1,264.25 110.94999999999999,262.84999999999997 108.14999999999999,260.05 107.1,259.7 100.44999999999999,251.99999999999997 100.1,250.6 98.0,248.49999999999997 96.94999999999999,245.35 94.14999999999999,242.54999999999998" stroke="#aaa" stroke-width="1" /><polyline fill="none" points="137.2,262.15 136.14999999999998,262.15 135.45,264.59999999999997 135.79999999999998,264.95 135.1,266.0 129.5,265.65 128.1,264.59999999999997 128.79999999999998,265.3 127.74999999999999,265.3 129.15,266.7 132.29999999999998,266.34999999999997 133.0,267.05 132.65,267.75 134.04999999999998,266.34999999999997 135.45,266.0 136.14999999999998,263.2 136.85,263.55 136.85,264.95" stroke="#aaa" stroke-width="1" /><polyline fill="none" points="92.39999999999999,220.14999999999998 91.35,219.1 91.0,217.35 89.94999999999999,216.29999999999998 84.35,218.39999999999998 82.94999999999999,219.79999999999998 81.89999999999999,219.79999999999998 79.44999999999999,221.54999999999998 77.0,221.54999999999998 72.8,222.95 68.94999999999999,225.04999999999998 67.19999999999999,225.39999999999998 65.8,226.79999999999998 64.05,226.45 61.24999999999999,228.89999999999998 59.15,229.6 53.55,233.1 52.5,233.1 51.449999999999996,234.14999999999998 49.0,234.49999999999997 46.9,236.24999999999997 45.849999999999994,236.24999999999997 42.349999999999994,238.35 40.25,238.7 32.55,241.85 31.15,243.24999999999997 26.95,245.35 25.9,246.39999999999998 23.799999999999997,247.1 22.4,248.49999999999997 20.65,248.49999999999997 19.25,249.89999999999998 15.749999999999998,251.29999999999998 15.399999999999999,250.24999999999997 16.099999999999998,249.54999999999998 18.9,248.85 19.25,247.79999999999998 18.549999999999997,248.85 15.399999999999999,249.89999999999998 15.399999999999999,251.64999999999998 13.649999999999999,251.29999999999998 15.049999999999999,251.64999999999998 11.899999999999999,254.1 9.1,255.14999999999998 7.35,257.25 9.45,255.14999999999998 12.25,254.1 14.0,252.35 16.45,251.29999999999998 17.5,250.24999999999997 18.9,250.24999999999997 20.299999999999997,249.2 21.0,249.89999999999998 20.299999999999997,250.24999999999997 21.349999999999998,250.24999999999997 20.299999999999997,249.2 21.0,248.49999999999997 22.75,248.49999999999997 24.15,247.1 28.7,244.99999999999997 35.349999999999994,240.45 39.55,239.39999999999998 41.3,238.35 41.65,238.7 46.199999999999996,236.24999999999997 47.25,236.24999999999997 49.349999999999994,234.49999999999997 53.9,233.1 54.949999999999996,232.04999999999998 61.599999999999994,228.89999999999998 64.39999999999999,226.45 65.8,226.79999999999998 64.39999999999999,228.2 63.699999999999996,228.2 65.1,227.85 68.25,225.04999999999998 77.0,221.54999999999998 80.5,221.2 82.25,219.79999999999998 83.3,219.79999999999998 84.69999999999999,218.39999999999998 89.6,216.29999999999998 90.3,216.64999999999998 91.0,218.75 92.05,219.79999999999998 91.0,220.14999999999998 89.6,218.75 88.19999999999999,219.1 87.14999999999999,220.5 87.5,220.85 86.1,221.89999999999998 86.1,224.7 87.5,226.45 87.14999999999999,226.79999999999998 88.89999999999999,230.99999999999997 88.55,231.35 89.94999999999999,233.1 90.64999999999999,235.54999999999998 92.05,236.95 92.05,238.35 93.8,240.45 92.05,237.99999999999997 91.69999999999999,236.24999999999997 90.64999999999999,235.54999999999998 90.64999999999999,234.49999999999997 88.89999999999999,231.7 87.14999999999999,226.79999999999998 87.14999999999999,225.39999999999998 86.1,223.64999999999998 86.1,222.25 87.14999999999999,221.54999999999998 87.5,220.14999999999998 88.55,219.1 89.6,218.75 91.0,220.14999999999998" stroke="#aaa" stroke-width="1" /><polyline fill="none" points="163.45,258.3 163.45,260.05 161.35,261.8 161.35,262.5 159.6,264.25 158.89999999999998,263.2 158.89999999999998,263.9 159.95,264.95 159.6,265.65 157.85,264.59999999999997 158.2,263.2 157.85,264.25 157.5,263.9 156.45,264.59999999999997 157.5,264.25 158.89999999999998,265.65 159.95,265.65 159.6,264.25 160.29999999999998,263.2 161.7,265.65 161.7,267.05 163.45,268.79999999999995 163.79999999999998,268.09999999999997 164.5,268.79999999999995 164.5,269.84999999999997 165.54999999999998,269.84999999999997 162.39999999999998,266.34999999999997 163.1,267.05 162.39999999999998,267.75 160.29999999999998,263.2 163.45,260.4 164.14999999999998,261.45 163.1,263.2 164.14999999999998,263.2 165.54999999999998,261.45 165.54999999999998,262.5 166.25,262.5 166.95,263.55 166.25,264.25 165.89999999999998,263.9 165.89999999999998,264.59999999999997 165.2,264.59999999999997 167.29999999999998,265.65 167.64999999999998,264.59999999999997 166.6,262.84999999999997 168.7,262.5 166.25,262.5 165.89999999999998,261.09999999999997 164.85,261.45 164.85,262.15 163.45,263.2 163.1,262.84999999999997 164.85,259.34999999999997 164.14999999999998,260.4 163.45,259.7" stroke="#aaa" stroke-width="1" /><polyline fill="none" points="219.79999999999998,224.7 220.14999999999998,227.85 218.75,229.95 219.1,232.04999999999998 217.7,235.2 217.7,236.95 216.64999999999998,237.64999999999998 216.64999999999998,239.39999999999998 215.25,240.79999999999998 215.6,241.85 214.2,243.6 211.04999999999998,249.89999999999998 208.6,252.35 208.25,251.64999999999998 207.2,251.64999999999998 208.6,252.35 208.25,253.04999999999998 207.2,252.35 208.25,253.39999999999998 205.1,257.25 201.95,259.7 201.25,259.0 202.64999999999998,257.25 201.25,255.14999999999998 201.25,252.7 199.5,253.74999999999997 200.54999999999998,255.14999999999998 201.6,255.49999999999997 201.6,256.2 202.64999999999998,257.25 201.25,259.0 201.6,259.7 204.04999999999998,258.3 208.25,253.74999999999997 208.25,253.04999999999998 210.7,250.6 213.85,245.35 214.89999999999998,247.1 214.54999999999998,248.49999999999997 214.54999999999998,247.45 215.6,246.74999999999997 214.89999999999998,244.64999999999998 215.6,246.04999999999998 214.89999999999998,247.1 213.85,244.64999999999998 215.95,241.85 217.35,242.54999999999998 217.0,241.85 218.39999999999998,240.45 217.7,237.29999999999998 218.39999999999998,236.6 217.7,236.24999999999997 217.7,235.2 218.39999999999998,234.49999999999997 218.75,232.39999999999998 220.5,231.7 221.2,229.24999999999997 220.85,228.54999999999998 221.2,229.24999999999997 220.5,231.35 219.45,232.04999999999998 218.75,231.7 219.1,229.24999999999997 219.45,228.89999999999998 220.14999999999998,229.6 219.79999999999998,230.64999999999998 220.14999999999998,229.6 219.45,228.89999999999998 220.14999999999998,227.85" stroke="#aaa" stroke-width="1" /><polyline fill="none" points="213.5,242.2 211.75,242.54999999999998 212.79999999999998,243.6 212.1,244.64999999999998 211.04999999999998,244.29999999999998 211.75,246.39999999999998" stroke="#aaa" stroke-width="1" /><polyline fill="none" points="108.14999999999999,8.75 107.8,9.45 109.19999999999999,11.2 108.85,13.649999999999999 109.55,15.049999999999999 111.3,15.399999999999999 112.0,16.45 110.25,18.2 109.19999999999999,18.2 110.25,18.2 112.0,17.15 112.69999999999999,18.2 112.35,20.65 115.14999999999999,23.799999999999997 116.19999999999999,23.799999999999997 116.89999999999999,24.5 116.19999999999999,23.799999999999997 116.89999999999999,23.099999999999998 117.6,23.45 113.39999999999999,19.95 113.39999999999999,17.15 113.74999999999999,16.799999999999997 115.49999999999999,18.549999999999997 114.1,19.599999999999998 115.49999999999999,18.549999999999997 116.89999999999999,19.95 116.19999999999999,21.0 116.55,20.65 117.24999999999999,21.349999999999998 116.55,20.65 117.94999999999999,19.25 117.94999999999999,21.0 118.64999999999999,19.599999999999998 116.55,18.2 117.94999999999999,19.25 116.89999999999999,19.95 114.8,17.849999999999998 113.05,14.35 112.0,14.7 112.69999999999999,14.35 113.74999999999999,15.749999999999998 113.74999999999999,16.799999999999997 112.69999999999999,18.2 112.0,17.15 112.35,16.45 111.3,15.399999999999999 109.89999999999999,15.049999999999999 108.85,13.649999999999999 108.85,12.95 109.55,12.95 108.85,10.5 109.89999999999999,9.1 113.05,10.149999999999999 116.19999999999999,13.299999999999999 115.85,13.649999999999999 116.55,12.6 116.19999999999999,12.95 113.39999999999999,10.149999999999999 112.35,10.149999999999999 110.6,9.1 109.89999999999999,9.1 108.85,10.5 107.8,9.45 109.19999999999999,8.75" stroke="#aaa" stroke-width="1" /><polyline fill="none" points="147.35,264.59999999999997 149.79999999999998,267.75 150.14999999999998,266.7" stroke="#aaa" stroke-width="1" /><polyline fill="none" points="129.15,17.15 126.35,17.15 124.24999999999999,14.7 124.24999999999999,12.6 125.3,10.149999999999999 125.99999999999999,9.45 128.1,9.799999999999999 127.74999999999999,9.1 125.64999999999999,9.45 124.24999999999999,12.25 123.89999999999999,14.7 125.64999999999999,16.45 125.3,17.15 119.69999999999999,15.399999999999999 119.69999999999999,14.35 120.39999999999999,13.649999999999999 123.19999999999999,13.649999999999999 122.85,13.299999999999999 121.1,13.299999999999999 119.69999999999999,14.35 118.99999999999999,13.299999999999999 117.6,12.95 117.6,14.0 117.94999999999999,12.95 119.35,14.0 119.35,15.399999999999999 115.14999999999999,15.049999999999999 112.0,12.25 112.69999999999999,13.299999999999999 112.0,13.649999999999999 113.39999999999999,13.299999999999999 114.1,14.0 113.74999999999999,14.35 114.1,14.0 115.14999999999999,15.049999999999999 118.3,15.049999999999999 122.85,16.799999999999997 123.55,16.45 124.6,17.15 124.6,18.2 124.24999999999999,17.849999999999998 124.94999999999999,17.15" stroke="#aaa" stroke-width="1" /><polyline fill="none" points="146.64999999999998,2.0999999999999996 145.6,3.5 146.29999999999998,3.8499999999999996 146.29999999999998,5.25 147.0,5.6 146.64999999999998,7.35 144.89999999999998,6.6499999999999995 143.5,7.699999999999999 141.39999999999998,6.6499999999999995 143.14999999999998,7.699999999999999 144.54999999999998,7.35 145.25,8.75 145.25,7.0 146.64999999999998,7.699999999999999 147.0,7.35 147.35,8.399999999999999 146.64999999999998,9.1 146.29999999999998,8.399999999999999 146.64999999999998,9.799999999999999 144.54999999999998,14.0 143.14999999999998,15.049999999999999 141.75,13.649999999999999 143.14999999999998,15.049999999999999 141.04999999999998,18.2 139.64999999999998,17.15 138.25,17.15 138.25,18.2 137.89999999999998,17.849999999999998 138.6,17.15 139.64999999999998,17.15 141.04999999999998,18.2 139.64999999999998,19.599999999999998 142.45,16.45 142.1,16.099999999999998 144.89999999999998,14.0 145.6,11.2 147.0,9.1 148.39999999999998,10.5 147.0,11.899999999999999 146.64999999999998,14.7 147.35,15.399999999999999 147.7,15.049999999999999 146.64999999999998,14.0 147.35,14.0 147.0,12.25 148.39999999999998,10.85 147.7,9.45 148.75,8.75 147.7,5.25 148.75,8.049999999999999 147.7,9.45 147.0,9.1 147.0,5.6 145.95,3.5 146.64999999999998,2.4499999999999997 147.0,3.5" stroke="#aaa" stroke-width="1" /><polyline fill="none" points="142.79999999999998,272.65 143.85,271.95 143.14999999999998,271.95 142.79999999999998,272.65 144.54999999999998,273.0 144.89999999999998,271.25 145.6,270.54999999999995 146.29999999999998,271.25 145.95,273.0 146.64999999999998,273.0 147.0,271.95 148.04999999999998,271.25 147.35,270.54999999999995 148.04999999999998,269.84999999999997 149.79999999999998,270.2 150.14999999999998,270.9 148.75,271.59999999999997 148.04999999999998,272.65 147.7,272.29999999999995 149.1,273.0 149.45,272.29999999999995 148.75,273.0 148.04999999999998,272.65 150.14999999999998,271.25 151.2,272.65 150.85,273.34999999999997 150.14999999999998,273.34999999999997 151.2,273.0 152.25,271.59999999999997 152.25,270.54999999999995 151.54999999999998,269.84999999999997 152.25,271.25 150.85,272.29999999999995 150.14999999999998,271.25 150.85,268.79999999999995 150.14999999999998,270.2 149.1,269.15 148.39999999999998,269.15 149.1,269.15 149.45,269.84999999999997 148.04999999999998,269.84999999999997 147.0,270.54999999999995 147.7,271.25 147.0,271.59999999999997 144.89999999999998,269.84999999999997 146.64999999999998,268.09999999999997 146.64999999999998,267.05 147.0,267.4 144.2,270.2 144.89999999999998,269.84999999999997 145.6,270.54999999999995 144.89999999999998,271.25 144.89999999999998,272.29999999999995 144.2,273.0" stroke="#aaa" stroke-width="1" /><polyline fill="none" points="156.79999999999998,271.95 155.39999999999998,271.25 154.35,271.95 154.0,273.34999999999997 155.04999999999998,273.34999999999997" stroke="#aaa" stroke-width="1" /><polyline fill="none" points="163.1,270.9 163.45,271.95 164.5,272.65 165.2,272.65 165.54999999999998,271.59999999999997 166.95,272.65 166.6,271.59999999999997 165.2,271.95 164.5,271.25 164.85,270.54999999999995 163.45,271.59999999999997" stroke="#aaa" stroke-width="1" /><polyline fill="none" points="189.7,265.3 188.64999999999998,265.3 187.95,266.0 189.35,265.65 189.7,266.34999999999997 187.6,267.4 186.54999999999998,264.59999999999997 187.6,267.75 185.5,269.15 182.7,268.09999999999997 182.7,266.0 181.64999999999998,265.3 181.64999999999998,266.7 180.25,268.45 181.29999999999998,269.15 180.25,270.2 179.2,270.2 181.64999999999998,270.2 180.95,269.84999999999997 183.04999999999998,268.09999999999997 184.1,268.79999999999995 183.75,269.15 186.54999999999998,268.79999999999995 188.29999999999998,267.05 189.7,266.7" stroke="#aaa" stroke-width="1" /><polyline fill="none" points="2.8,109.89999999999999 2.4499999999999997,110.94999999999999 4.55,113.39999999999999 3.8499999999999996,112.69999999999999 4.55,112.35 4.55,111.3" stroke="#aaa" stroke-width="1" /><polyline fill="none" points="148.04999999999998,4.199999999999999 149.79999999999998,2.4499999999999997 150.5,2.4499999999999997 154.0,0.0 155.39999999999998,1.75 153.29999999999998,3.15 154.35,3.5 154.0,3.15 156.45,1.4 155.39999999999998,1.75 154.7,0.7 155.04999999999998,0.35 157.85,0.7 160.64999999999998,0.0 163.79999999999998,0.35 165.54999999999998,1.4 167.29999999999998,4.199999999999999 168.7,5.25 167.64999999999998,4.199999999999999 168.35,3.15 168.0,1.75 165.89999999999998,0.0 168.35,2.4499999999999997 167.64999999999998,4.199999999999999 166.6,2.0999999999999996 163.79999999999998,0.35 158.89999999999998,0.0 157.85,0.7 153.64999999999998,0.0 150.14999999999998,2.4499999999999997 149.45,2.4499999999999997" stroke="#aaa" stroke-width="1" /><polyline fill="none" points="234.85,225.04999999999998 235.54999999999998,226.1 238.35,226.79999999999998 240.1,228.2 242.2,228.54999999999998 243.6,229.95 246.74999999999997,229.95 249.2,232.39999999999998 257.59999999999997,234.85 262.5,237.29999999999998 263.55,237.29999999999998 265.65,238.7 264.59999999999997,239.74999999999997 264.25,239.39999999999998 264.59999999999997,239.74999999999997 265.3,239.04999999999998 266.0,239.74999999999997 265.65,240.1 266.0,239.74999999999997 265.3,239.04999999999998 266.0,238.35 270.2,242.2 272.29999999999995,242.54999999999998 274.75,244.64999999999998 276.84999999999997,244.99999999999997 278.95,247.1 279.65,247.1 277.2,244.99999999999997 275.79999999999995,244.99999999999997 272.65,242.54999999999998 270.54999999999995,242.2 266.7,238.35 266.34999999999997,238.7 258.65,235.2 253.39999999999998,233.45 251.99999999999997,233.45 250.6,232.39999999999998 249.54999999999998,232.39999999999998 246.74999999999997,229.95 243.95,229.95 243.24999999999997,228.89999999999998 241.14999999999998,228.54999999999998 237.64999999999998,226.45 236.24999999999997,226.45" stroke="#aaa" stroke-width="1" /></svg>