<?xml version="1.0" encoding="utf-8" ?>
<svg baseProfile="full" height="224" version="1.1" width="224" xmlns="http://www.w3.org/2000/svg" xmlns:ev="http://www.w3.org/2001/xml-events" xmlns:xlink="http://www.w3.org/1999/xlink"><defs /><polyline fill="none" points="130.2,138.25 130.9,138.95 130.54999999999998,142.45 129.5,143.14999999999998 128.79999999999998,145.25 129.5,145.95 131.25,145.95 131.95,146.64999999999998 131.25,145.95 131.25,144.89999999999998 130.2,144.2 130.54999999999998,143.85 130.2,144.2 131.25,145.25 130.54999999999998,145.95 129.15,145.25 129.15,143.85 130.54999999999998,142.45 132.65,144.89999999999998 133.7,147.0 133.35,149.45 133.0,149.79999999999998 132.65,149.1 133.35,151.2 133.35,149.79999999999998 135.45,149.79999999999998 136.5,150.85 134.39999999999998,152.95 136.5,150.85 139.29999999999998,150.85 137.2,151.2 135.79999999999998,149.79999999999998 133.35,149.45 133.7,146.64999999999998 132.65,144.54999999999998 130.54999999999998,142.45 130.9,138.95" stroke="#aaa" stroke-width="1" /><polyline fill="none" points="147.0,130.54999999999998 147.0,133.35 148.75,133.0 150.14999999999998,134.04999999999998 146.29999999999998,134.75 145.95,135.45 146.29999999999998,135.1 147.0,135.79999999999998 146.29999999999998,137.89999999999998 149.45,137.54999999999998 151.2,138.6 150.5,137.89999999999998 151.2,137.2 153.64999999999998,138.95 153.29999999999998,138.25 151.2,137.2 150.85,136.5 151.54999999999998,135.79999999999998 150.85,136.5 150.5,136.14999999999998 150.85,135.45 150.5,135.79999999999998 149.79999999999998,134.75 150.14999999999998,134.04999999999998 150.5,134.39999999999998 149.1,133.0 149.79999999999998,132.29999999999998 152.6,134.04999999999998 149.79999999999998,132.29999999999998 149.1,133.0 148.39999999999998,132.65 148.04999999999998,133.35 147.35,133.35" stroke="#aaa" stroke-width="1" /><polyline fill="none" points="99.75,133.7 101.14999999999999,133.0 103.6,137.2 103.25,137.54999999999998 103.6,137.2 106.75,138.95 117.24999999999999,138.6 120.05,137.89999999999998 121.8,136.85 123.19999999999999,136.85 123.55,138.6 124.24999999999999,138.95 125.3,137.54999999999998 124.24999999999999,138.95 123.55,137.89999999999998 125.99999999999999,135.45 128.45,134.04999999999998 129.85,134.75 129.85,134.04999999999998 129.5,134.39999999999998 129.15,133.7 132.29999999999998,130.9 133.0,131.25 132.29999999999998,132.29999999999998 133.0,131.95 132.29999999999998,130.54999999999998 134.39999999999998,127.39999999999999 130.54999999999998,132.29999999999998 130.2,131.95 128.1,134.39999999999998 125.64999999999999,135.45 123.89999999999999,137.2 123.19999999999999,136.85 123.55,135.79999999999998 122.14999999999999,137.2 121.8,136.85 120.05,137.89999999999998 118.3,137.89999999999998 117.24999999999999,138.6 106.75,138.95 103.25,136.5 100.44999999999999,131.95 100.44999999999999,126.35 101.14999999999999,124.94999999999999 99.75,123.55 101.14999999999999,124.94999999999999 100.44999999999999,126.35 100.1,131.95 101.14999999999999,133.0" stroke="#aaa" stroke-width="1" /><polyline fill="none" points="145.95,160.29999999999998 145.95,161.35 148.39999999999998,163.45 149.79999999999998,163.45 151.2,162.39999999999998 152.95,162.75 155.39999999999998,161.35 155.39999999999998,159.95 154.35,159.25 149.79999999999998,159.25 147.35,160.29999999999998" stroke="#aaa" stroke-width="1" /><polyline fill="none" points="138.95,112.35 137.54999999999998,113.05 135.45,112.35 134.39999999999998,111.3 134.75,110.6 136.14999999999998,110.6 137.2,111.3 136.14999999999998,110.6 134.04999999999998,110.6 133.35,109.89999999999999 135.1,112.35 136.5,112.35 137.2,113.39999999999999 135.45,114.44999999999999 135.45,113.39999999999999 131.95,114.1 130.2,113.74999999999999 134.75,113.74999999999999 135.45,114.44999999999999 134.04999999999998,115.85 134.39999999999998,116.55 133.35,119.69999999999999 134.04999999999998,119.69999999999999 133.7,117.6 134.75,116.19999999999999 134.39999999999998,115.49999999999999 135.1,114.8 135.45,115.14999999999999 135.1,114.8 136.5,113.74999999999999 136.85,114.1 135.45,117.94999999999999 135.79999999999998,119.69999999999999 135.79999999999998,118.99999999999999 137.2,117.94999999999999 137.89999999999998,118.99999999999999 134.04999999999998,122.85 133.7,120.74999999999999 134.04999999999998,122.85 131.25,125.99999999999999 125.64999999999999,129.15 123.19999999999999,129.85 121.44999999999999,129.5 120.74999999999999,130.2 114.44999999999999,130.2 113.74999999999999,129.5 114.8,128.79999999999998 115.14999999999999,129.5 114.8,128.45 113.39999999999999,129.85 112.35,129.85 106.75,127.39999999999999 105.35,125.99999999999999 106.05,125.64999999999999 107.44999999999999,126.69999999999999 107.1,125.64999999999999 105.35,125.99999999999999 102.55,123.55 103.6,122.49999999999999 103.6,121.1 105.69999999999999,118.3 106.75,118.3 107.8,117.24999999999999 109.19999999999999,117.24999999999999 110.25,117.94999999999999 109.19999999999999,117.24999999999999 107.8,117.24999999999999 106.39999999999999,118.3 105.35,118.3 103.94999999999999,120.74999999999999 102.89999999999999,121.44999999999999 103.94999999999999,121.8 103.6,122.49999999999999 101.85,123.55 102.19999999999999,123.19999999999999 106.05,127.05 109.89999999999999,129.15 114.1,130.2 121.1,130.2 121.8,129.5 123.55,129.85 128.1,128.1 131.6,125.99999999999999 137.89999999999998,119.35 138.25,117.94999999999999 137.2,117.94999999999999 136.5,118.64999999999999 135.45,117.94999999999999 136.85,113.74999999999999 137.54999999999998,113.05 137.89999999999998,114.1 137.54999999999998,113.05" stroke="#aaa" stroke-width="1" /><polyline fill="none" points="101.5,126.35 102.19999999999999,126.69999999999999 101.85,128.45 102.55,131.25 105.0,134.04999999999998 104.64999999999999,135.1 105.69999999999999,133.35 104.64999999999999,132.29999999999998 103.6,132.65 102.89999999999999,131.95 101.85,128.45 102.55,126.69999999999999 102.19999999999999,126.35 102.89999999999999,125.64999999999999 106.39999999999999,128.79999999999998 112.0,131.25 111.3,131.6 111.3,133.0 112.69999999999999,134.04999999999998 113.74999999999999,134.04999999999998 112.69999999999999,132.29999999999998 113.05,131.25 118.99999999999999,132.29999999999998 122.49999999999999,131.95 123.89999999999999,130.9 125.3,130.9 130.9,128.1 133.0,126.35 133.7,126.69999999999999 131.6,128.45 131.95,129.15 130.2,130.2 129.15,131.6 120.05,135.79999999999998 113.05,137.54999999999998 108.5,137.54999999999998 107.1,136.85 108.14999999999999,135.79999999999998 109.19999999999999,136.85 108.14999999999999,135.79999999999998 107.1,136.85 105.69999999999999,135.45 106.39999999999999,134.75 105.69999999999999,135.79999999999998 108.14999999999999,137.54999999999998 113.05,137.54999999999998 122.49999999999999,135.1 123.89999999999999,134.04999999999998 127.05,133.0 128.45,131.6 129.5,131.6 130.54999999999998,130.2 132.29999999999998,129.15 131.6,128.45 133.7,127.05 133.7,126.35 133.0,125.99999999999999 130.54999999999998,128.1 126.69999999999999,130.2 122.85,131.25 122.14999999999999,131.95 118.99999999999999,132.29999999999998 113.05,131.25 112.69999999999999,131.6 112.0,130.9 110.25,130.54999999999998 106.75,128.79999999999998 102.89999999999999,124.94999999999999 101.85,125.3 102.55,124.94999999999999 102.89999999999999,125.64999999999999" stroke="#aaa" stroke-width="1" /><polyline fill="none" points="164.5,127.39999999999999 165.89999999999998,129.85 165.2,130.54999999999998 164.5,129.5 163.79999999999998,129.85 164.85,130.2 167.64999999999998,133.35 166.25,134.04999999999998 164.85,131.6 165.89999999999998,133.7 165.2,135.45 165.54999999999998,137.2 166.25,137.89999999999998 166.25,140.35 165.2,141.75 165.54999999999998,142.1 165.2,141.39999999999998 166.25,140.35 168.0,142.79999999999998 167.29999999999998,141.04999999999998 165.89999999999998,139.64999999999998 166.6,137.54999999999998 165.89999999999998,137.54999999999998 165.2,135.45 165.89999999999998,134.04999999999998 167.29999999999998,134.04999999999998 167.64999999999998,133.35 168.35,133.7 165.89999999999998,131.25 165.89999999999998,129.85 166.95,130.9" stroke="#aaa" stroke-width="1" /><polyline fill="none" points="140.0,118.3 142.1,115.14999999999999 142.45,113.39999999999999 143.14999999999998,112.69999999999999 143.14999999999998,111.3 146.29999999999998,108.5 150.5,108.5 153.64999999999998,111.3 152.25,109.55 152.95,108.5 155.39999999999998,110.94999999999999 156.1,112.69999999999999 157.5,113.05 158.89999999999998,114.44999999999999 158.89999999999998,116.55 161.0,121.1 160.29999999999998,121.44999999999999 159.25,120.74999999999999 157.85,117.24999999999999 159.25,121.1 161.0,121.1 163.45,124.24999999999999 160.29999999999998,119.69999999999999 159.95,117.94999999999999 158.89999999999998,116.55 158.89999999999998,114.1 157.85,113.05 156.45,112.69999999999999 152.6,107.8 151.54999999999998,107.8 152.95,108.5 152.25,109.55 150.85,108.5 145.6,108.85 143.14999999999998,111.3 143.14999999999998,112.69999999999999" stroke="#aaa" stroke-width="1" /><polyline fill="none" points="107.8,120.05 108.5,119.69999999999999 109.55,120.39999999999999 110.94999999999999,119.35 113.05,119.35 114.8,121.44999999999999 116.89999999999999,121.44999999999999 118.3,120.74999999999999 119.35,121.8 117.94999999999999,122.14999999999999 118.99999999999999,122.49999999999999 120.05,120.39999999999999 122.14999999999999,119.69999999999999 124.94999999999999,120.05 125.3,119.35 129.85,118.3 130.54999999999998,117.6 125.3,119.35 124.6,120.05 121.8,119.69999999999999 120.74999999999999,120.39999999999999 119.35,120.39999999999999 119.35,121.44999999999999 118.64999999999999,120.74999999999999 117.24999999999999,120.74999999999999 116.89999999999999,121.44999999999999 114.8,121.44999999999999 113.39999999999999,119.35 114.1,118.3 114.8,118.99999999999999 115.14999999999999,118.64999999999999 114.1,117.94999999999999 112.0,118.3 110.94999999999999,117.24999999999999 112.0,118.3 113.05,118.3 113.74999999999999,118.99999999999999 113.39999999999999,119.35 110.6,119.35 109.55,120.39999999999999 108.85,119.69999999999999" stroke="#aaa" stroke-width="1" /><polyline fill="none" points="164.5,166.95 161.0,166.95 160.64999999999998,167.64999999999998 151.89999999999998,167.29999999999998 148.75,168.0 137.2,167.29999999999998 128.45,168.0 135.45,167.29999999999998 148.75,168.0 149.45,168.7 149.1,169.04999999999998 143.85,169.39999999999998 143.85,168.7 139.64999999999998,169.04999999999998 138.6,169.75 140.0,169.04999999999998 149.1,169.75 149.45,170.45 147.0,171.85 145.25,171.85 143.5,170.1 140.35,170.45 143.5,170.1 145.6,172.2 148.39999999999998,171.5 150.14999999999998,173.25 148.39999999999998,174.29999999999998 146.64999999999998,173.95 144.89999999999998,174.64999999999998 142.1,172.89999999999998 141.75,173.25 143.5,173.6 144.2,174.64999999999998 145.6,174.64999999999998 146.64999999999998,173.95 148.04999999999998,173.95 148.39999999999998,174.64999999999998 151.2,172.54999999999998 152.95,172.2 153.29999999999998,171.5 151.89999999999998,170.45 150.5,171.14999999999998 149.45,170.1 149.79999999999998,169.39999999999998 159.6,168.35 152.25,168.35 151.54999999999998,167.64999999999998 151.89999999999998,167.29999999999998 160.64999999999998,167.64999999999998 161.35,166.95" stroke="#aaa" stroke-width="1" /><polyline fill="none" points="159.6,111.64999999999999 160.29999999999998,114.8 162.04999999999998,116.55 161.7,117.6 162.04999999999998,117.24999999999999 162.75,117.94999999999999 161.7,120.74999999999999 162.04999999999998,119.69999999999999 162.75,119.69999999999999 163.79999999999998,123.19999999999999 166.95,125.64999999999999 166.6,126.35 165.2,125.64999999999999 169.04999999999998,128.79999999999998 166.6,126.35 166.6,124.94999999999999 165.2,124.24999999999999 163.1,121.44999999999999 162.04999999999998,116.19999999999999 163.79999999999998,115.14999999999999 162.75,115.49999999999999 162.39999999999998,114.8 163.1,114.1 164.14999999999998,114.1 162.39999999999998,114.44999999999999 161.35,113.74999999999999 161.0,114.1 162.04999999999998,114.1 162.75,115.49999999999999 162.04999999999998,116.19999999999999 159.95,113.74999999999999 159.95,113.05 161.0,112.35 160.29999999999998,112.69999999999999" stroke="#aaa" stroke-width="1" /><polyline fill="none" points="125.64999999999999,109.89999999999999 125.3,109.55 125.64999999999999,110.94999999999999 124.6,113.39999999999999 121.8,110.25 122.85,109.55 123.55,110.25 122.85,109.55 123.89999999999999,108.85 123.19999999999999,109.19999999999999 122.85,108.5 122.85,109.55 121.1,109.89999999999999 118.99999999999999,108.14999999999999 120.74999999999999,109.89999999999999 119.69999999999999,110.94999999999999 117.6,112.0 116.89999999999999,113.05 113.05,113.39999999999999 110.94999999999999,115.49999999999999 112.0,116.19999999999999 113.74999999999999,115.85 113.39999999999999,114.8 113.74999999999999,115.49999999999999 113.05,116.19999999999999 112.0,116.19999999999999 111.3,115.49999999999999 113.74999999999999,113.05 116.89999999999999,113.05 118.64999999999999,111.64999999999999 118.99999999999999,112.35 120.74999999999999,111.3 119.69999999999999,110.94999999999999 120.74999999999999,109.89999999999999 121.1,110.6 121.1,109.89999999999999 121.8,109.55 121.8,110.6 123.89999999999999,112.35 123.89999999999999,113.39999999999999 117.94999999999999,113.05 124.24999999999999,113.05 124.24999999999999,114.1 120.74999999999999,114.1 120.39999999999999,114.8 122.49999999999999,114.8 123.89999999999999,116.89999999999999 122.85,114.8 121.44999999999999,115.14999999999999 120.74999999999999,114.44999999999999 124.6,114.1" stroke="#aaa" stroke-width="1" /><polyline fill="none" points="109.19999999999999,111.64999999999999 109.55,112.35 110.94999999999999,110.94999999999999 111.64999999999999,111.3 110.94999999999999,110.94999999999999 112.0,110.25 112.35,110.94999999999999 113.39999999999999,110.25 112.69999999999999,109.89999999999999 113.05,109.55 114.44999999999999,109.55 113.74999999999999,109.19999999999999 114.8,108.5 115.14999999999999,109.19999999999999 116.89999999999999,108.14999999999999 116.89999999999999,107.1 121.1,107.44999999999999 117.94999999999999,107.44999999999999 117.94999999999999,106.75 125.3,107.1 126.35,107.8 125.64999999999999,108.14999999999999 127.05,109.19999999999999 126.35,109.89999999999999 127.05,109.19999999999999 128.45,110.25 128.79999999999998,109.55 129.85,110.25 129.15,110.6 129.85,111.64999999999999 130.9,110.94999999999999 132.29999999999998,111.64999999999999 126.35,107.44999999999999 121.44999999999999,106.75 116.55,107.1 110.6,110.94999999999999 110.25,111.64999999999999" stroke="#aaa" stroke-width="1" /><polyline fill="none" points="170.79999999999998,110.6 170.1,110.94999999999999 169.75,110.25 165.2,113.39999999999999 164.5,113.05 165.89999999999998,114.1 167.29999999999998,113.05 166.6,112.69999999999999 168.0,111.64999999999999 168.0,112.69999999999999 168.7,112.0 168.0,111.64999999999999 169.04999999999998,110.94999999999999 170.45,113.05 170.45,114.1 165.54999999999998,115.85 163.45,117.94999999999999 166.6,115.49999999999999 168.35,115.49999999999999 170.45,114.1 172.2,114.44999999999999 171.14999999999998,114.1 169.39999999999998,111.64999999999999" stroke="#aaa" stroke-width="1" /><polyline fill="none" points="117.24999999999999,93.1 117.94999999999999,93.1 120.05,95.55 121.8,95.55 123.19999999999999,96.25 126.35,95.89999999999999 131.6,98.69999999999999 135.45,99.75 137.54999999999998,102.19999999999999 140.35,104.3 141.39999999999998,106.05 141.39999999999998,107.44999999999999 142.45,108.14999999999999 141.39999999999998,107.1 140.35,103.94999999999999 135.1,99.39999999999999 132.65,99.05 131.25,98.0 127.39999999999999,96.6 126.35,95.55 125.99999999999999,96.25 120.05,95.55 117.94999999999999,92.75" stroke="#aaa" stroke-width="1" /><polyline fill="none" points="199.14999999999998,121.8 194.25,127.39999999999999 192.14999999999998,128.79999999999998 190.75,128.1 192.14999999999998,128.79999999999998 191.45,129.5 189.0,129.5 187.25,130.54999999999998 186.89999999999998,131.6 185.85,131.25 184.1,131.95 180.6,131.95 180.25,130.9 181.64999999999998,130.54999999999998 181.64999999999998,129.85 179.89999999999998,129.15 181.64999999999998,130.2 181.29999999999998,130.54999999999998 179.2,129.85 177.45,130.54999999999998 178.85,129.85 180.25,130.9 179.89999999999998,131.6 175.7,131.6 171.5,130.2 169.75,128.1 169.75,129.15 170.79999999999998,129.85 169.75,130.54999999999998 164.85,126.35 163.45,127.05 162.39999999999998,126.35 163.1,127.05 164.85,126.69999999999999 168.7,130.2 171.85,131.6 171.14999999999998,132.65 174.64999999999998,134.04999999999998 175.7,135.1 175.7,135.79999999999998 174.64999999999998,136.14999999999998 172.2,134.39999999999998 172.89999999999998,134.04999999999998 172.2,133.7 171.85,134.39999999999998 174.64999999999998,136.14999999999998 175.7,135.79999999999998 178.14999999999998,137.54999999999998 180.6,137.54999999999998 182.7,139.29999999999998 183.75,138.95 184.79999999999998,139.64999999999998 185.14999999999998,139.29999999999998 186.89999999999998,140.0 190.39999999999998,139.64999999999998 184.79999999999998,139.64999999999998 184.1,138.6 182.7,139.29999999999998 182.0,137.89999999999998 183.39999999999998,137.2 185.14999999999998,137.89999999999998 185.85,137.2 185.5,136.5 185.85,137.2 185.14999999999998,137.89999999999998 183.75,137.2 182.0,137.89999999999998 178.5,137.54999999999998 177.45,136.5 176.75,136.5 175.35,134.39999999999998 171.5,132.29999999999998 171.85,131.6 175.35,133.0 183.75,133.7 185.14999999999998,135.1 183.75,133.7 175.35,133.0 172.2,131.95 171.85,131.25 170.1,130.54999999999998 171.14999999999998,129.85 177.45,131.95 187.25,131.6 187.95,130.2 189.7,129.5 190.04999999999998,129.85 189.35,130.54999999999998 189.35,132.29999999999998 189.7,131.95 191.1,132.65 190.04999999999998,131.95 190.39999999999998,131.25 189.7,130.54999999999998 190.39999999999998,129.85 191.45,130.9 191.1,131.25 194.95,128.1 195.64999999999998,128.1 196.7,126.69999999999999 193.2,129.5 192.5,128.79999999999998 197.04999999999998,124.94999999999999" stroke="#aaa" stroke-width="1" /><polyline fill="none" points="172.89999999999998,109.55 175.7,112.0 174.64999999999998,113.05 173.25,112.69999999999999 174.29999999999998,113.39999999999999 173.25,114.1 176.39999999999998,114.1 175.35,113.74999999999999 176.04999999999998,113.05 175.0,114.1 174.29999999999998,113.74999999999999 175.7,112.35 175.7,111.64999999999999 175.0,111.3 176.04999999999998,110.94999999999999 176.39999999999998,112.35 176.75,111.64999999999999 178.14999999999998,113.05 177.1,113.39999999999999 178.14999999999998,114.1 178.14999999999998,113.05 180.6,115.14999999999999 180.25,115.85 176.75,115.85 176.75,115.14999999999999 179.2,115.14999999999999 173.95,114.8 176.75,115.14999999999999 173.25,115.49999999999999 172.89999999999998,114.8 172.89999999999998,115.49999999999999 180.6,115.85 180.25,114.44999999999999 179.54999999999998,114.44999999999999 177.45,112.35 179.2,110.25 177.1,112.0 176.75,111.64999999999999 178.14999999999998,109.89999999999999 176.39999999999998,111.3 176.04999999999998,110.94999999999999 176.75,110.25 175.7,110.94999999999999 173.95,109.55 179.2,109.55" stroke="#aaa" stroke-width="1" /><polyline fill="none" points="136.85,181.29999999999998 137.89999999999998,181.29999999999998 138.6,182.35 142.79999999999998,184.1 142.79999999999998,185.5 144.2,185.5 145.95,183.75 147.0,184.79999999999998 147.7,183.75 148.39999999999998,184.45 147.7,185.14999999999998 148.39999999999998,185.5 148.04999999999998,186.54999999999998 149.45,187.95 148.75,188.64999999999998 148.04999999999998,187.6 148.75,189.0 146.64999999999998,190.39999999999998 148.39999999999998,189.7 149.45,188.29999999999998 148.04999999999998,186.54999999999998 148.75,185.5 150.5,186.2 149.45,186.89999999999998 151.89999999999998,189.0 149.79999999999998,186.89999999999998 150.85,186.2 149.45,185.14999999999998 148.75,185.5 147.7,183.75 148.04999999999998,183.39999999999998 153.29999999999998,183.04999999999998 155.75,184.79999999999998 155.04999999999998,183.75 153.29999999999998,183.04999999999998 148.75,183.04999999999998 147.7,183.75 146.64999999999998,183.04999999999998 145.25,184.1 144.54999999999998,183.39999999999998 145.25,182.35 144.54999999999998,182.7 144.54999999999998,183.75 145.25,184.1 143.5,185.5 143.14999999999998,183.75 142.1,184.1 139.29999999999998,182.7 138.6,181.64999999999998" stroke="#aaa" stroke-width="1" /><polyline fill="none" points="170.45,109.89999999999999 171.5,109.19999999999999 171.5,110.25 172.2,109.55 171.5,109.19999999999999 172.89999999999998,108.5 179.89999999999998,108.5 179.89999999999998,109.89999999999999 179.89999999999998,109.19999999999999 180.95,108.85 181.29999999999998,109.19999999999999 180.6,109.55 182.7,110.94999999999999 183.04999999999998,110.25 183.75,110.6 183.75,111.64999999999999 184.1,110.94999999999999 185.14999999999998,111.64999999999999 184.45,112.0 187.25,113.39999999999999 187.25,112.69999999999999 186.2,112.0 185.85,112.69999999999999 184.79999999999998,112.0 185.5,111.64999999999999 179.89999999999998,108.5 172.54999999999998,108.5" stroke="#aaa" stroke-width="1" /><polyline fill="none" points="135.45,88.19999999999999 134.39999999999998,87.85 134.04999999999998,86.8 133.7,87.14999999999999 133.0,86.44999999999999 133.7,86.1 132.29999999999998,85.05 133.35,85.75 133.0,86.44999999999999 132.29999999999998,86.1 133.0,86.8 133.0,88.55 132.65,88.89999999999999 131.95,88.19999999999999 132.29999999999998,87.14999999999999 131.6,85.75 131.95,86.8 130.54999999999998,88.19999999999999 127.39999999999999,87.85 128.1,88.55 127.05,89.6 126.69999999999999,88.89999999999999 126.35,89.6 125.64999999999999,88.55 125.3,89.94999999999999 126.35,89.94999999999999 128.45,91.69999999999999 127.39999999999999,92.39999999999999 125.99999999999999,91.69999999999999 124.94999999999999,92.39999999999999 127.74999999999999,92.39999999999999 128.45,91.69999999999999 129.5,91.69999999999999 129.85,91.0 128.45,91.69999999999999 126.35,89.94999999999999 127.39999999999999,89.6 128.1,90.3 127.74999999999999,88.89999999999999 128.79999999999998,88.19999999999999 129.15,88.89999999999999 128.45,89.6 130.54999999999998,90.64999999999999 130.9,91.35 130.2,91.69999999999999 131.95,92.39999999999999 132.29999999999998,93.8 133.0,92.39999999999999 132.29999999999998,92.75 130.54999999999998,91.0 130.54999999999998,90.3 129.5,90.3 128.79999999999998,89.6 129.5,88.89999999999999 130.9,89.25 131.95,90.3 131.95,91.35 132.65,91.69999999999999 131.95,91.0 132.29999999999998,90.3 129.15,88.55 130.9,88.19999999999999 131.6,87.14999999999999 131.6,88.89999999999999 133.7,88.89999999999999 134.39999999999998,90.3 133.7,88.19999999999999" stroke="#aaa" stroke-width="1" /><polyline fill="none" points="86.44999999999999,109.89999999999999 92.75,116.19999999999999 93.1,118.3 93.8,118.3 95.55,120.05 97.64999999999999,123.55 95.55,119.69999999999999 93.8,118.3 94.14999999999999,117.94999999999999 93.1,117.94999999999999 93.1,115.49999999999999 92.75,115.85" stroke="#aaa" stroke-width="1" /><polyline fill="none" points="153.64999999999998,87.85 152.25,88.89999999999999 151.2,87.85 152.25,87.85 152.25,86.8 150.85,85.75 150.85,83.64999999999999 149.1,85.75 147.0,85.75 144.54999999999998,84.0 145.95,85.05 145.6,85.75 146.64999999999998,87.14999999999999 144.2,87.5 142.1,89.94999999999999 141.04999999999998,90.3 140.7,89.6 142.45,87.85 142.1,86.44999999999999 141.75,87.5 140.7,87.14999999999999 141.39999999999998,85.75 140.0,84.69999999999999 140.7,84.0 141.39999999999998,84.69999999999999 142.79999999999998,84.69999999999999 140.35,84.0 139.29999999999998,85.05 140.35,85.39999999999999 141.04999999999998,86.44999999999999 140.35,87.14999999999999 138.95,86.8 140.0,87.5 142.1,87.5 142.45,88.19999999999999 141.39999999999998,88.89999999999999 138.95,88.19999999999999 138.95,88.89999999999999 137.89999999999998,88.55 140.35,88.55 140.7,90.3 141.75,90.3 144.89999999999998,87.14999999999999 148.39999999999998,90.64999999999999 147.35,91.0 145.6,89.94999999999999 147.0,91.0 148.39999999999998,91.0 148.39999999999998,90.3 147.35,89.25 147.7,88.55 148.39999999999998,88.89999999999999 146.64999999999998,87.85 146.64999999999998,86.8 145.95,86.1 146.29999999999998,85.39999999999999 148.04999999999998,87.14999999999999 149.45,86.44999999999999 151.89999999999998,88.89999999999999" stroke="#aaa" stroke-width="1" /><polyline fill="none" points="168.0,80.14999999999999 165.54999999999998,80.85 164.5,82.25 163.79999999999998,81.55 165.89999999999998,79.44999999999999 166.25,79.8 165.54999999999998,79.1 164.5,79.1 162.75,80.5 162.75,81.19999999999999 161.35,81.89999999999999 161.0,81.55 161.7,81.89999999999999 162.39999999999998,81.19999999999999 163.1,81.89999999999999 162.75,82.25 163.79999999999998,81.55 164.5,82.25 164.5,83.3 163.45,84.0 163.1,85.05 162.39999999999998,85.05 163.45,85.75 163.1,86.44999999999999 162.39999999999998,85.75 161.0,86.8 159.25,86.8 160.29999999999998,86.44999999999999 162.04999999999998,87.85 161.35,87.14999999999999 161.7,86.1 162.75,86.1 164.14999999999998,87.14999999999999 163.45,86.1 164.85,86.1 165.2,87.14999999999999 163.45,89.6 162.39999999999998,89.6 162.39999999999998,90.3 158.54999999999998,91.35 157.5,90.3 157.5,91.35 156.79999999999998,92.05 154.7,91.69999999999999 154.0,91.0 152.25,91.35 153.64999999999998,91.0 154.7,91.69999999999999 157.14999999999998,92.05 157.85,93.1 157.14999999999998,93.8 156.1,92.75 153.64999999999998,93.1 152.95,92.39999999999999 151.89999999999998,92.39999999999999 150.5,91.0 150.5,92.05 148.39999999999998,92.05 149.79999999999998,92.39999999999999 150.85,91.69999999999999 153.29999999999998,93.1 156.1,92.75 156.45,93.44999999999999 155.75,94.14999999999999 154.35,93.8 156.45,94.5 156.79999999999998,93.8 158.89999999999998,93.1 159.25,92.05 158.54999999999998,93.1 157.14999999999998,92.05 157.85,91.0 161.35,91.0 162.04999999999998,90.3 163.1,90.3 162.75,89.94999999999999 164.85,88.19999999999999 165.54999999999998,88.55 164.85,88.19999999999999 164.85,87.5 166.25,87.5 166.25,86.8 165.2,86.8 164.85,84.69999999999999 165.89999999999998,84.69999999999999 165.2,84.0 164.5,86.1 163.1,85.05 165.54999999999998,82.6 166.6,84.0 166.25,82.6 165.2,82.6 164.85,81.89999999999999 165.89999999999998,80.85" stroke="#aaa" stroke-width="1" /><polyline fill="none" points="201.6,99.39999999999999 197.04999999999998,98.69999999999999 191.45,96.94999999999999 190.39999999999998,95.55 189.7,95.55 188.64999999999998,94.5 189.35,95.19999999999999 189.0,95.89999999999999 189.35,95.19999999999999 191.1,96.6 190.75,96.94999999999999 179.2,97.3 178.14999999999998,96.6 173.95,98.69999999999999 172.54999999999998,98.35 175.0,96.94999999999999 172.89999999999998,97.64999999999999 172.54999999999998,98.35 172.2,97.3 172.89999999999998,96.94999999999999 171.14999999999998,97.3 170.79999999999998,98.0 171.85,97.3 172.54999999999998,98.35 171.85,99.05 170.45,98.69999999999999 165.2,100.8 157.85,106.05 168.35,99.39999999999999 174.29999999999998,98.69999999999999 178.5,96.6 179.2,97.3 192.14999999999998,96.94999999999999 197.04999999999998,98.69999999999999" stroke="#aaa" stroke-width="1" /><polyline fill="none" points="141.39999999999998,78.05 144.89999999999998,81.55 145.25,80.85 147.0,80.85 147.0,82.25 149.1,84.35 149.45,82.94999999999999 148.04999999999998,81.89999999999999 147.7,80.85 146.29999999999998,79.8 145.95,80.85 144.89999999999998,80.85 144.2,80.14999999999999 144.54999999999998,79.44999999999999 143.14999999999998,79.8" stroke="#aaa" stroke-width="1" /><polyline fill="none" points="154.7,75.6 153.64999999999998,77.0 154.35,78.39999999999999 155.75,78.75 156.1,78.05 155.04999999999998,77.35 155.75,76.64999999999999" stroke="#aaa" stroke-width="1" /><polyline fill="none" points="68.6,125.3 68.25,125.64999999999999 70.0,129.85 70.0,135.1 70.69999999999999,137.54999999999998 72.8,140.0 75.25,140.0 74.19999999999999,141.39999999999998 73.5,140.7 74.19999999999999,141.39999999999998 73.85,141.75 72.8,141.04999999999998 72.44999999999999,142.45 73.85,142.79999999999998 74.19999999999999,144.2 75.25,145.25 73.85,145.6 75.6,145.6 74.19999999999999,143.14999999999998 72.44999999999999,142.1 74.55,141.39999999999998 75.25,140.0 76.3,140.0 76.64999999999999,141.04999999999998 75.94999999999999,142.1 76.64999999999999,141.39999999999998 77.69999999999999,142.45 76.3,140.7 76.3,140.0 77.69999999999999,139.29999999999998 76.64999999999999,139.29999999999998 76.64999999999999,137.2 75.6,136.5 75.25,134.04999999999998 76.3,132.65 73.85,131.95 73.14999999999999,133.35 71.05,135.1 71.39999999999999,136.14999999999998 72.8,136.85 72.1,137.54999999999998 72.8,136.85 74.89999999999999,138.25 76.3,137.54999999999998 76.64999999999999,137.89999999999998 76.64999999999999,139.29999999999998 75.94999999999999,140.0 73.14999999999999,140.0 70.35,136.5 70.0,129.85 68.25,125.64999999999999" stroke="#aaa" stroke-width="1" /><polyline fill="none" points="135.1,73.5 136.5,75.6 135.45,73.85 136.14999999999998,72.44999999999999 137.54999999999998,73.14999999999999 136.14999999999998,73.5 137.54999999999998,73.5 138.95,74.55 140.7,74.55 141.39999999999998,75.6 141.04999999999998,74.55 139.29999999999998,74.55 138.6,73.85 141.04999999999998,73.14999999999999 142.79999999999998,74.89999999999999 145.95,74.55 145.95,73.85 144.2,73.14999999999999 142.45,73.85 141.04999999999998,73.14999999999999 138.95,73.5 137.54999999999998,71.39999999999999 136.85,71.39999999999999 136.85,72.1" stroke="#aaa" stroke-width="1" /><polyline fill="none" points="128.45,65.8 127.39999999999999,68.25 128.1,68.94999999999999 129.5,68.94999999999999 130.2,72.1 129.15,72.8 127.39999999999999,71.39999999999999 129.85,73.85 130.2,75.6 131.25,75.25 133.35,76.64999999999999 133.35,77.35 132.29999999999998,78.05 134.75,77.69999999999999 135.79999999999998,78.75 135.45,79.44999999999999 136.5,79.44999999999999 135.45,79.1 136.14999999999998,78.75 135.79999999999998,77.35 135.79999999999998,78.75 134.39999999999998,77.0 132.65,75.94999999999999 133.0,75.25 134.39999999999998,75.94999999999999 133.0,74.89999999999999 133.0,73.85 132.29999999999998,73.14999999999999 130.9,73.14999999999999 129.85,72.44999999999999 130.2,71.05 129.5,70.0 129.5,68.25 129.85,67.89999999999999 131.95,70.35 130.54999999999998,68.6 131.25,67.89999999999999 132.65,70.0 132.65,69.3 131.6,68.25 131.95,67.89999999999999 129.5,67.89999999999999 128.79999999999998,68.6 128.45,67.89999999999999 129.5,66.85 130.2,66.85 129.15,66.85 128.1,68.6 127.39999999999999,67.89999999999999" stroke="#aaa" stroke-width="1" /><polyline fill="none" points="151.2,73.85 155.04999999999998,73.85 156.1,72.8 157.85,72.44999999999999 156.45,71.39999999999999 154.7,73.85 152.95,73.85 152.95,72.44999999999999 154.35,73.14999999999999 155.39999999999998,72.1 154.0,73.14999999999999 153.29999999999998,72.44999999999999 154.0,72.1 154.0,71.39999999999999 153.29999999999998,71.05 153.64999999999998,72.1 152.6,72.8 152.25,73.85" stroke="#aaa" stroke-width="1" /><polyline fill="none" points="73.85,55.65 74.89999999999999,56.699999999999996 74.89999999999999,59.15 73.85,60.55 74.19999999999999,64.39999999999999 72.8,66.85 72.8,68.94999999999999 72.1,70.35 72.1,76.3 72.8,78.39999999999999 72.8,83.3 75.6,91.69999999999999 75.94999999999999,96.94999999999999 76.64999999999999,98.35 76.64999999999999,102.55 77.69999999999999,106.75 76.64999999999999,108.14999999999999 75.94999999999999,107.1 74.55,106.75 73.14999999999999,105.35 70.0,105.35 67.19999999999999,106.05 64.75,108.5 63.699999999999996,113.05 62.99999999999999,114.1 62.99999999999999,124.24999999999999 65.1,129.5 65.45,131.95 66.5,133.35 66.85,135.79999999999998 68.25,138.25 68.25,140.0 69.64999999999999,141.75 71.39999999999999,145.6 72.1,145.95 72.8,148.75 77.0,151.89999999999998 81.55,152.25 83.64999999999999,151.2 85.05,152.95 85.05,155.04999999999998 86.1,156.1 86.8,158.89999999999998 86.44999999999999,162.75 87.14999999999999,164.14999999999998 86.1,165.2 87.14999999999999,164.14999999999998 87.14999999999999,163.45 86.44999999999999,162.75 86.8,158.89999999999998 86.1,156.1 85.05,154.7 85.39999999999999,152.95 83.64999999999999,151.2 81.55,152.25 78.39999999999999,152.25 74.89999999999999,150.5 73.14999999999999,148.75 74.89999999999999,147.7 75.6,148.04999999999998 74.89999999999999,148.75 75.25,149.45 77.0,148.75 78.05,150.14999999999998 80.14999999999999,149.45 78.39999999999999,150.14999999999998 77.0,148.75 75.25,149.45 74.89999999999999,149.1 75.6,148.75 75.6,147.7 74.89999999999999,146.29999999999998 74.19999999999999,146.29999999999998 74.55,147.7 73.14999999999999,148.75 72.8,148.39999999999998 73.5,147.0 72.8,147.7 72.1,146.29999999999998 72.8,145.6 73.14999999999999,146.29999999999998 72.44999999999999,145.25 73.14999999999999,144.54999999999998 73.14999999999999,143.5 72.1,143.85 71.05,143.14999999999998 70.69999999999999,141.39999999999998 71.75,141.04999999999998 71.05,141.04999999999998 69.64999999999999,139.64999999999998 69.3,138.6 70.0,138.25 68.25,135.45 68.25,134.39999999999998 68.94999999999999,133.7 67.55,134.39999999999998 68.25,134.75 68.25,135.79999999999998 69.3,136.85 69.64999999999999,140.0 70.69999999999999,141.04999999999998 71.05,143.14999999999998 72.44999999999999,144.2 72.44999999999999,145.6 72.1,145.95 70.0,143.14999999999998 69.64999999999999,141.39999999999998 68.25,139.64999999999998 68.25,138.25 66.5,134.39999999999998 67.55,132.65 68.25,133.0 66.5,131.6 66.5,130.2 64.75,126.35 66.85,123.55 68.6,124.24999999999999 70.35,125.99999999999999 70.35,125.3 67.89999999999999,123.89999999999999 68.25,122.14999999999999 67.55,121.1 68.25,123.19999999999999 66.85,123.19999999999999 65.1,125.99999999999999 65.1,123.89999999999999 66.5,122.14999999999999 65.8,122.49999999999999 64.75,125.3 64.05,122.49999999999999 66.85,120.39999999999999 65.8,121.1 64.75,119.35 65.1,117.6 66.14999999999999,116.89999999999999 67.55,118.3 67.55,119.69999999999999 69.3,120.74999999999999 67.55,119.69999999999999 67.55,117.94999999999999 66.5,116.89999999999999 65.1,117.6 64.39999999999999,116.55 65.1,117.6 64.39999999999999,118.99999999999999 65.45,120.74999999999999 64.39999999999999,121.8 64.05,123.19999999999999 64.39999999999999,125.3 65.1,125.99999999999999 64.75,126.69999999999999 66.14999999999999,129.5 66.14999999999999,130.9 67.19999999999999,132.29999999999998 66.85,133.7 65.1,130.9 65.1,129.15 63.349999999999994,125.99999999999999 62.99999999999999,124.24999999999999 62.99999999999999,114.44999999999999 64.39999999999999,109.55 66.5,106.75 67.19999999999999,107.44999999999999 68.6,106.75 73.5,107.44999999999999 75.25,108.85 77.0,108.14999999999999 79.1,112.35 80.85,113.05 80.85,115.85 80.85,113.05 80.5,112.35 79.1,112.0 77.0,108.14999999999999 77.69999999999999,106.75 76.64999999999999,102.55 76.64999999999999,98.69999999999999 77.35,98.0 78.05,98.69999999999999 78.05,100.1 78.39999999999999,98.69999999999999 79.8,99.05 78.75,100.44999999999999 79.8,99.05 80.85,99.39999999999999 78.75,98.35 78.05,98.69999999999999 77.35,98.0 77.69999999999999,97.64999999999999 76.64999999999999,98.35 76.3,98.0 74.89999999999999,88.55 72.8,83.3 72.1,70.35 72.8,68.94999999999999 72.8,66.85 73.85,65.8 74.19999999999999,64.39999999999999 73.85,60.55 74.89999999999999,59.15 74.89999999999999,56.699999999999996" stroke="#aaa" stroke-width="1" /><polyline fill="none" points="66.85,115.49999999999999 68.6,116.19999999999999 69.64999999999999,115.14999999999999 70.35,115.85 70.0,116.89999999999999 71.05,115.49999999999999 72.44999999999999,115.14999999999999 75.6,118.3 76.3,120.05 78.39999999999999,122.14999999999999 78.39999999999999,122.85 77.0,123.55 75.94999999999999,122.85 76.3,122.49999999999999 75.25,122.49999999999999 76.64999999999999,123.55 77.69999999999999,123.55 78.39999999999999,122.14999999999999 76.3,119.69999999999999 75.6,117.94999999999999 72.1,114.8 70.69999999999999,115.85 69.3,115.14999999999999 68.6,116.19999999999999" stroke="#aaa" stroke-width="1" /><polyline fill="none" points="110.94999999999999,19.25 110.6,19.95 112.0,18.9 113.05,18.9 116.55,15.749999999999998 120.74999999999999,15.399999999999999 123.55,14.0 126.69999999999999,13.649999999999999 127.74999999999999,12.6 132.29999999999998,12.6 134.04999999999998,11.2 147.35,11.549999999999999 148.39999999999998,10.85 150.5,11.2 152.95,9.799999999999999 157.5,10.149999999999999 158.89999999999998,10.85 162.04999999999998,10.85 165.2,12.6 166.25,12.6 172.89999999999998,16.45 176.75,17.15 184.45,20.65 186.54999999999998,22.049999999999997 187.95,23.799999999999997 190.04999999999998,24.15 191.1,25.2 191.79999999999998,25.2 201.95,35.349999999999994 203.0,38.15 205.1,40.25 205.1,41.65 206.14999999999998,42.699999999999996 207.2,45.15 207.54999999999998,47.599999999999994 210.7,50.75 215.25,58.449999999999996 215.6,60.55 214.54999999999998,61.949999999999996 214.54999999999998,64.05 215.6,68.25 216.29999999999998,68.94999999999999 216.64999999999998,71.75 214.89999999999998,74.89999999999999 213.85,82.6 212.1,86.44999999999999 211.75,89.6 210.7,90.64999999999999 211.04999999999998,101.14999999999999 210.35,101.85 208.6,101.14999999999999 208.25,101.85 209.29999999999998,103.6 210.35,103.6 211.04999999999998,104.3 209.64999999999998,106.39999999999999 209.29999999999998,109.19999999999999 207.89999999999998,110.6 208.6,109.89999999999999 209.64999999999998,110.6 212.79999999999998,107.8 214.89999999999998,107.8 217.7,109.55 218.39999999999998,110.94999999999999 219.1,115.85 219.1,123.19999999999999 217.0,129.5 216.29999999999998,130.2 215.95,129.85 216.29999999999998,130.9 215.25,134.04999999999998 215.25,136.14999999999998 214.2,137.89999999999998 214.54999999999998,138.6 213.85,142.79999999999998 212.79999999999998,145.25 211.39999999999998,145.6 211.04999999999998,146.64999999999998 211.39999999999998,149.45 210.7,150.5 209.64999999999998,148.75 210.0,145.6 212.1,142.45 211.04999999999998,143.5 210.7,142.45 211.04999999999998,141.75 211.04999999999998,143.85 210.0,145.6 209.64999999999998,148.75 210.7,150.5 210.35,151.2 211.39999999999998,149.45 211.04999999999998,146.64999999999998 212.1,145.6 212.79999999999998,146.29999999999998 212.45,151.2 209.64999999999998,154.35 208.6,154.35 206.85,155.39999999999998 204.39999999999998,155.04999999999998 202.29999999999998,156.45 201.95,155.39999999999998 203.35,154.7 201.25,154.7 201.95,155.04999999999998 202.29999999999998,158.2 199.85,170.45 196.35,178.85 190.04999999999998,186.89999999999998 189.7,190.75 192.5,192.14999999999998 202.64999999999998,200.54999999999998 208.95,208.25 213.5,214.89999999999998 217.7,215.6 224.35,218.04999999999998 228.89999999999998,218.75 233.1,220.14999999999998 235.54999999999998,220.14999999999998 236.6,220.85 244.64999999999998,222.25 249.89999999999998,224.0 252.7,224.0 261.45,227.14999999999998 266.34999999999997,229.95 267.05,229.6 268.45,230.64999999999998 271.95,231.7 273.7,233.1 275.79999999999995,233.45 279.65,235.2 275.09999999999997,233.1 274.04999999999995,233.1 270.54999999999995,230.99999999999997 266.0,229.6 262.15,227.14999999999998 260.75,227.14999999999998 252.7,224.0 249.89999999999998,224.0 248.85,223.29999999999998 236.6,220.85 235.54999999999998,220.14999999999998 233.1,220.14999999999998 213.85,214.89999999999998 202.64999999999998,200.2 189.7,190.04999999999998 190.04999999999998,187.25 194.6,182.0 198.79999999999998,173.6 200.89999999999998,166.25 200.54999999999998,165.2 202.29999999999998,156.79999999999998 204.39999999999998,155.04999999999998 207.2,155.39999999999998 207.89999999999998,154.7 210.0,154.35 212.45,151.2 212.45,145.6 213.85,142.79999999999998 214.54999999999998,138.6 214.2,137.89999999999998 215.25,136.14999999999998 215.95,131.25 218.39999999999998,126.69999999999999 219.1,123.19999999999999 219.1,115.85 217.7,109.19999999999999 214.89999999999998,107.8 212.79999999999998,107.8 210.0,109.89999999999999 209.29999999999998,109.19999999999999 209.29999999999998,107.8 211.04999999999998,104.3 208.25,102.19999999999999 208.95,101.14999999999999 209.29999999999998,101.85 210.35,101.85 211.04999999999998,101.14999999999999 210.7,91.0 211.75,89.6 212.1,86.8 213.85,82.94999999999999 214.89999999999998,74.89999999999999 216.64999999999998,72.1 216.29999999999998,68.94999999999999 215.6,68.25 214.54999999999998,64.05 214.54999999999998,61.949999999999996 215.6,60.55 216.29999999999998,61.24999999999999 217.0,63.349999999999994 215.95,64.75 217.0,63.349999999999994 217.0,62.3 216.29999999999998,60.9 215.25,60.199999999999996 215.6,59.15 210.7,50.4 207.54999999999998,47.25 207.54999999999998,45.5 206.5,44.099999999999994 206.14999999999998,42.349999999999994 205.1,41.3 205.1,39.9 203.0,37.8 201.95,35.0 192.14999999999998,25.2 191.45,25.2 190.39999999999998,24.15 188.29999999999998,23.799999999999997 186.89999999999998,22.049999999999997 184.79999999999998,20.65 183.39999999999998,20.299999999999997 180.95,18.549999999999997 178.5,18.2 177.1,17.15 173.95,16.799999999999997 167.64999999999998,13.649999999999999 166.6,12.6 165.54999999999998,12.6 162.04999999999998,10.85 152.25,9.799999999999999 150.5,11.2 148.39999999999998,10.85 147.35,11.549999999999999 134.04999999999998,11.2 132.29999999999998,12.6 127.74999999999999,12.6 126.35,13.649999999999999 123.55,14.0 120.74999999999999,15.399999999999999 116.19999999999999,15.749999999999998 113.05,18.9" stroke="#aaa" stroke-width="1" /><polyline fill="none" points="159.25,67.55 160.64999999999998,69.64999999999999 159.95,70.0 159.25,69.3 159.95,70.0 161.35,69.64999999999999 164.5,71.39999999999999 165.89999999999998,71.39999999999999 165.54999999999998,70.69999999999999 166.6,69.64999999999999 166.6,72.1 168.0,73.14999999999999 168.35,72.8 167.64999999999998,72.8 166.6,71.75 166.95,69.64999999999999 165.54999999999998,70.35 163.1,68.25 164.5,69.3 164.14999999999998,69.64999999999999 164.5,69.3 165.54999999999998,70.35 165.2,71.39999999999999 161.7,69.64999999999999 161.7,67.89999999999999 163.79999999999998,66.5 165.89999999999998,66.5 163.45,66.5 161.7,67.89999999999999 161.0,67.55 162.04999999999998,66.5 160.29999999999998,67.89999999999999" stroke="#aaa" stroke-width="1" /><polyline fill="none" points="146.29999999999998,64.05 146.64999999999998,63.699999999999996 146.29999999999998,64.75 147.0,65.45 146.64999999999998,66.5 147.0,65.8 148.04999999999998,66.14999999999999 147.0,67.19999999999999 148.04999999999998,67.89999999999999 148.75,67.55 148.04999999999998,66.14999999999999 149.1,65.45 151.2,65.8 151.2,66.5 149.45,68.25 151.2,66.5 152.95,67.89999999999999 153.64999999999998,67.55 153.64999999999998,66.5 152.25,66.5 152.6,64.39999999999999 152.25,67.55 151.2,66.5 150.85,65.1 147.35,65.8" stroke="#aaa" stroke-width="1" /><polyline fill="none" points="133.0,64.39999999999999 133.35,63.349999999999994 133.0,64.39999999999999 134.04999999999998,65.1 133.35,66.14999999999999 134.39999999999998,66.85 137.2,65.45 138.25,66.14999999999999 139.29999999999998,65.45 142.79999999999998,66.14999999999999 144.2,65.8 144.89999999999998,66.85 143.85,64.05 145.25,62.3 145.95,62.65 145.25,64.05 145.95,62.65 148.04999999999998,62.65 148.75,63.349999999999994 147.7,64.39999999999999 147.35,64.05 147.7,64.75 151.54999999999998,64.39999999999999 147.7,64.39999999999999 149.1,62.99999999999999 149.79999999999998,63.699999999999996 150.14999999999998,62.65 150.85,63.699999999999996 152.25,63.349999999999994 153.64999999999998,64.05 154.0,63.349999999999994 150.85,61.24999999999999 151.89999999999998,61.949999999999996 151.2,62.65 150.5,61.949999999999996 151.54999999999998,62.99999999999999 150.85,63.699999999999996 147.7,59.49999999999999 147.0,59.49999999999999 146.29999999999998,60.55 143.5,59.849999999999994 141.04999999999998,58.449999999999996 142.45,57.4 143.5,58.8 144.89999999999998,58.8 145.6,59.49999999999999 145.25,58.8 143.85,58.8 142.45,57.4 141.39999999999998,58.099999999999994 141.04999999999998,57.4 141.75,57.05 141.75,56.349999999999994 139.64999999999998,56.349999999999994 141.04999999999998,57.4 141.04999999999998,58.449999999999996 140.7,58.8 138.95,57.05 138.95,58.449999999999996 139.29999999999998,57.74999999999999 140.35,58.8 139.29999999999998,59.15 141.04999999999998,58.8 143.5,59.849999999999994 144.89999999999998,59.849999999999994 145.95,60.55 145.6,60.9 146.64999999999998,60.199999999999996 149.1,62.99999999999999 148.75,63.349999999999994 147.0,61.599999999999994 145.25,61.599999999999994 145.6,61.949999999999996 144.89999999999998,62.65 144.54999999999998,62.3 144.89999999999998,62.99999999999999 143.85,64.05 142.79999999999998,64.05 141.04999999999998,62.99999999999999 142.79999999999998,64.05 143.85,64.05 144.54999999999998,65.1 143.85,65.8 143.14999999999998,65.45 143.5,64.75 142.45,65.1 141.04999999999998,64.39999999999999 137.89999999999998,64.75 135.79999999999998,66.5 135.1,65.8 137.54999999999998,63.349999999999994 138.95,63.349999999999994 138.95,62.65 138.25,62.3 138.95,61.599999999999994 140.0,62.3 139.64999999999998,62.65 141.75,61.599999999999994 142.45,62.99999999999999 142.45,62.3 141.39999999999998,61.24999999999999 141.04999999999998,61.949999999999996 140.0,61.24999999999999 140.35,61.949999999999996 139.29999999999998,61.949999999999996 138.6,59.849999999999994 138.6,60.55 137.54999999999998,61.599999999999994 137.2,60.9 137.89999999999998,60.199999999999996 136.14999999999998,58.8 137.89999999999998,60.199999999999996 137.2,60.9 137.89999999999998,62.3 136.85,62.65 138.25,62.3 138.95,62.99999999999999 138.25,63.699999999999996 136.85,63.699999999999996 135.79999999999998,64.75 135.1,64.39999999999999 135.79999999999998,63.699999999999996 135.1,64.39999999999999 135.79999999999998,65.1 135.1,65.8" stroke="#aaa" stroke-width="1" /><polyline fill="none" points="141.75,54.949999999999996 142.45,56.349999999999994 143.85,57.05 143.5,57.74999999999999 143.85,57.05 144.89999999999998,57.05 146.64999999999998,58.449999999999996 145.6,57.4 146.29999999999998,57.05 147.35,58.099999999999994 146.64999999999998,57.4 147.0,56.699999999999996 148.75,57.74999999999999 147.7,58.8 149.79999999999998,60.199999999999996 150.5,60.199999999999996 148.39999999999998,58.8 148.75,57.74999999999999 149.79999999999998,58.099999999999994 152.25,60.55 153.64999999999998,60.55 156.45,61.949999999999996 157.5,62.99999999999999 158.54999999999998,65.45 157.85,65.8 156.79999999999998,64.75 154.7,64.39999999999999 158.54999999999998,65.8 159.25,66.5 158.54999999999998,66.85 160.64999999999998,66.5 160.64999999999998,65.45 159.6,65.1 160.29999999999998,64.39999999999999 163.45,64.75 162.75,65.45 161.7,65.45 163.1,65.45 163.45,64.39999999999999 158.89999999999998,64.75 157.14999999999998,62.3 154.7,60.9 152.6,60.55 148.75,57.4 147.35,56.699999999999996 145.25,57.4 144.2,56.699999999999996 144.2,56.0 144.89999999999998,55.65 143.14999999999998,54.599999999999994 142.1,55.65" stroke="#aaa" stroke-width="1" /><polyline fill="none" points="128.45,57.05 128.79999999999998,57.74999999999999 131.6,58.099999999999994 133.0,59.49999999999999 133.7,59.49999999999999 134.04999999999998,58.099999999999994 135.45,58.099999999999994 135.45,57.4 133.35,57.05 131.25,54.25 130.54999999999998,54.25 130.54999999999998,55.65 130.9,56.0 130.9,54.25 132.65,56.0 133.7,59.15 133.0,59.49999999999999 131.95,58.099999999999994 130.2,58.099999999999994 128.79999999999998,57.4 129.5,57.05" stroke="#aaa" stroke-width="1" /><polyline fill="none" points="98.35,203.7 101.5,206.14999999999998 103.25,210.0 105.69999999999999,212.1 105.69999999999999,213.14999999999998 109.55,217.35 109.19999999999999,218.04999999999998 109.55,217.7 112.0,220.14999999999998 112.35,221.54999999999998 110.25,221.89999999999998 112.35,221.54999999999998 113.74999999999999,222.95 115.14999999999999,226.79999999999998 118.3,229.6 119.35,231.35 118.3,232.74999999999997 118.64999999999999,234.14999999999998 118.3,232.74999999999997 119.69999999999999,231.35 118.3,229.24999999999997 115.14999999999999,226.45 114.44999999999999,223.64999999999998 112.69999999999999,221.89999999999998 112.0,219.79999999999998 105.69999999999999,212.79999999999998 105.69999999999999,211.75 103.25,209.64999999999998 101.5,205.79999999999998" stroke="#aaa" stroke-width="1" /><polyline fill="none" points="112.35,52.5 113.74999999999999,53.55 115.49999999999999,52.15 116.19999999999999,52.849999999999994 115.49999999999999,53.55 116.19999999999999,52.849999999999994 115.49999999999999,52.15 117.6,50.05 118.99999999999999,50.05 119.69999999999999,50.75 119.69999999999999,51.8 117.94999999999999,53.55 120.39999999999999,55.65 119.69999999999999,56.349999999999994 120.74999999999999,55.65 121.1,56.699999999999996 122.85,57.4 122.85,58.099999999999994 122.85,57.4 121.8,57.05 121.1,56.0 121.44999999999999,55.65 123.55,57.05 121.8,54.599999999999994 120.74999999999999,54.599999999999994 121.44999999999999,54.599999999999994 122.85,56.0 122.14999999999999,56.349999999999994 121.44999999999999,55.65 120.39999999999999,55.65 118.3,53.55 119.69999999999999,52.15 120.05,50.05 121.1,52.15 121.44999999999999,51.8 120.05,50.05 120.39999999999999,49.349999999999994 119.69999999999999,50.05 117.6,50.05 113.74999999999999,53.55" stroke="#aaa" stroke-width="1" /><polyline fill="none" points="185.14999999999998,55.65 184.1,55.65 181.64999999999998,57.4 182.0,58.8 180.6,59.849999999999994 177.45,59.849999999999994 176.75,58.8 175.0,58.449999999999996 174.29999999999998,57.74999999999999 173.6,57.74999999999999 174.29999999999998,57.74999999999999 175.0,58.8 173.95,59.49999999999999 173.25,59.15 174.29999999999998,59.49999999999999 175.7,58.449999999999996 177.45,59.849999999999994 179.2,60.199999999999996 180.25,59.49999999999999 182.7,61.949999999999996 182.35,62.3 183.04999999999998,61.949999999999996 180.6,59.849999999999994 184.1,57.74999999999999 185.14999999999998,56.699999999999996" stroke="#aaa" stroke-width="1" /><polyline fill="none" points="88.89999999999999,158.54999999999998 88.55,161.0 87.85,162.04999999999998 87.85,164.85 87.14999999999999,165.2 88.19999999999999,169.75 88.19999999999999,174.29999999999998 88.89999999999999,175.7 88.19999999999999,177.45 88.89999999999999,178.85 88.89999999999999,181.29999999999998 78.75,192.14999999999998 77.69999999999999,194.95 76.3,196.0 75.6,199.14999999999998 74.19999999999999,201.95 73.85,207.89999999999998 73.14999999999999,208.6 72.44999999999999,212.79999999999998 71.39999999999999,214.54999999999998 64.39999999999999,216.64999999999998 63.699999999999996,217.35 56.349999999999994,219.1 54.599999999999994,220.14999999999998 52.5,220.14999999999998 48.65,221.2 40.25,224.35 37.099999999999994,224.7 13.299999999999999,231.35 4.8999999999999995,234.14999999999998 0.0,237.29999999999998 5.949999999999999,233.79999999999998 13.299999999999999,231.35 37.099999999999994,224.7 40.25,224.35 51.099999999999994,220.5 54.599999999999994,220.14999999999998 58.8,218.39999999999998 63.699999999999996,217.35 65.45,216.29999999999998 67.89999999999999,215.95 72.1,214.2 72.44999999999999,211.04999999999998 73.85,208.25 74.19999999999999,201.95 76.3,196.35 77.35,195.64999999999998 78.39999999999999,193.89999999999998 78.39999999999999,192.85 83.64999999999999,186.89999999999998 88.55,182.35 89.25,180.25 89.6,180.95 89.94999999999999,180.25 88.89999999999999,179.89999999999998 88.19999999999999,177.45 88.89999999999999,175.7 88.19999999999999,174.29999999999998 88.19999999999999,169.75 87.5,166.95 87.85,162.04999999999998 88.55,161.35" stroke="#aaa" stroke-width="1" /><polyline fill="none" points="91.0,31.499999999999996 89.94999999999999,31.849999999999998 88.55,33.949999999999996 84.0,38.5 82.6,41.3 79.8,44.449999999999996 79.8,46.199999999999996 79.1,46.199999999999996 79.44999999999999,47.25 79.8,44.8 82.6,41.65 84.0,38.849999999999994" stroke="#aaa" stroke-width="1" /><polyline fill="none" points="197.75,241.85 196.35,242.54999999999998 193.54999999999998,246.04999999999998 187.6,251.29999999999998 186.89999999999998,249.89999999999998 187.25,250.6 185.5,252.35 186.54999999999998,250.95 187.6,251.29999999999998 185.14999999999998,253.39999999999998 183.04999999999998,256.2 183.04999999999998,256.9 181.29999999999998,257.59999999999997 184.45,256.55 183.04999999999998,256.55 184.79999999999998,254.1 190.04999999999998,249.2 191.1,248.85 194.6,244.64999999999998" stroke="#aaa" stroke-width="1" /><polyline fill="none" points="95.89999999999999,244.64999999999998 96.6,245.7 96.25,247.1 96.6,246.74999999999997 98.35,248.85 98.35,250.24999999999997 101.14999999999999,254.1 99.75,255.49999999999997 100.8,254.45 101.85,255.85 102.55,258.3 103.6,259.34999999999997 103.25,261.45 106.05,263.9 103.25,261.09999999999997 103.6,260.05 112.35,269.15 118.64999999999999,273.7 124.6,279.65 118.99999999999999,273.7 112.69999999999999,269.15 105.0,261.45 102.55,257.95 101.85,255.49999999999997 101.14999999999999,255.14999999999998 100.8,253.04999999999998 99.05,251.29999999999998 99.39999999999999,248.14999999999998 99.39999999999999,249.89999999999998 98.69999999999999,250.24999999999997 98.69999999999999,249.2 96.6,246.74999999999997 96.6,245.35" stroke="#aaa" stroke-width="1" /><polyline fill="none" points="182.7,257.95 179.2,261.45 177.45,262.5 176.39999999999998,262.15 172.54999999999998,266.0 168.7,266.0 167.64999999999998,267.05 164.14999999999998,267.4 167.64999999999998,267.05 168.7,266.0 172.89999999999998,266.0 175.7,263.55 176.39999999999998,262.15 177.1,262.15 177.45,263.2 175.35,264.95 176.39999999999998,264.59999999999997 177.79999999999998,265.3 177.45,262.84999999999997 179.54999999999998,261.45" stroke="#aaa" stroke-width="1" /><polyline fill="none" points="95.89999999999999,264.95 98.35,269.84999999999997 102.19999999999999,270.54999999999995 103.6,271.59999999999997 103.25,271.95 103.25,270.9 102.19999999999999,270.54999999999995 100.44999999999999,268.45 101.14999999999999,269.5 100.44999999999999,270.2 99.39999999999999,269.84999999999997 99.05,267.05 98.0,267.4 98.35,267.75 98.69999999999999,267.05 99.39999999999999,267.75 99.39999999999999,269.15 98.35,269.84999999999997 96.94999999999999,266.34999999999997 95.89999999999999,265.3 96.6,264.59999999999997" stroke="#aaa" stroke-width="1" /><polyline fill="none" points="200.89999999999998,243.95 200.2,244.64999999999998 199.5,243.95 200.54999999999998,246.04999999999998 199.85,246.74999999999997 199.85,259.0 199.14999999999998,259.34999999999997 199.14999999999998,260.4 199.85,259.0 200.54999999999998,260.4 199.14999999999998,261.45 199.14999999999998,263.55 198.45,264.25 197.39999999999998,262.15 196.7,263.9 197.39999999999998,264.95 197.39999999999998,263.2 198.79999999999998,264.59999999999997 198.79999999999998,267.4 196.7,271.59999999999997 194.6,273.7 187.25,275.09999999999997 186.54999999999998,275.79999999999995 182.35,276.15 180.25,277.9 179.89999999999998,279.65 180.25,278.25 182.7,276.15 186.54999999999998,275.79999999999995 191.1,274.04999999999995 194.95,273.7 196.7,271.95 197.39999999999998,269.84999999999997 198.1,269.84999999999997 197.75,269.5 198.79999999999998,267.4 198.45,264.25 199.14999999999998,263.9 199.14999999999998,261.45 200.54999999999998,260.75 199.85,259.0 199.5,254.1 200.2,250.6 199.85,246.74999999999997 200.54999999999998,246.04999999999998 200.89999999999998,246.39999999999998 200.2,244.99999999999997" stroke="#aaa" stroke-width="1" /><polyline fill="none" points="141.04999999999998,273.7 141.75,275.45 144.2,277.54999999999995 145.95,277.54999999999995 147.35,278.95 148.39999999999998,278.25 146.64999999999998,276.84999999999997 145.95,273.7 146.64999999999998,275.79999999999995 145.95,277.54999999999995 143.85,277.2 141.04999999999998,274.04999999999995 141.75,273.0 142.1,273.34999999999997 141.75,273.0" stroke="#aaa" stroke-width="1" /></svg>